<svg
  xmlns="http://www.w3.org/2000/svg"
  width="44"
  height="44"
  fill="none"
  viewBox="0 0 44 44"
>
  <path
    fill="rgba(153, 196, 221, 1)"
    fill-rule="evenodd"
    d="M9.07 3.03A10.33 10.33 0 0 1 16.37 0h17.3C39.37 0 44 4.62 44 10.33v17.3c0 2.73-1.09 5.36-3.03 7.3l-6.04 6.04a10.33 10.33 0 0 1-7.3 3.03h-17.3C4.63 44 0 39.38 0 33.67v-17.3c0-2.73 1.09-5.36 3.03-7.3l6.04-6.04Z"
    clip-rule="evenodd"
  ></path>
  <path
    fill="rgba(0, 36, 58, 1)"
    fill-rule="evenodd"
    d="M12.96 6.92a4.82 4.82 0 0 1 3.42-1.42h17.29a4.83 4.83 0 0 1 4.83 4.83v17.29a4.8 4.8 0 0 1-1.42 3.42l-.37.37-6.65 6.65a1.5 1.5 0 1 1-2.12-2.12l6.64-6.64v-.01c.72-.72.72-1.87 0-2.59L17.3 9.42a1.83 1.83 0 0 0-2.6 0l-6.64 6.64a1.5 1.5 0 1 1-2.12-2.12l7.02-7.02Zm22.54 3.41v13.05L20.62 8.5h13.05c1 0 1.83.82 1.83 1.83ZM20.06 26.06a1.5 1.5 0 0 0-2.12-2.12l-11 11a1.5 1.5 0 1 0 2.12 2.12l11-11Z"
    clip-rule="evenodd"
  ></path>
</svg>
