<svg width="188" height="188" viewBox="0 0 188 188" fill="none" xmlns="http://www.w3.org/2000/svg">
<g clip-path="url(#clip0_680_102585)">
<rect width="188" height="188" rx="4" transform="matrix(1 0 0 -1 0 188)" fill="#005077"/>
<path d="M34.7798 94.1769L152.69 212.087L35.1335 211.91L-82.7767 94.0002L34.7798 94.1769Z" stroke="#A18DBB" stroke-width="1.5" stroke-linejoin="round"/>
<path d="M35.0732 211.85L152.923 94.0002L35.0732 -23.8498L-82.7767 94.0002L35.0732 211.85Z" stroke="#A18DBB" stroke-width="1.5" stroke-linejoin="round"/>
<path d="M152.867 211.91L270.777 94.0002H153.043L35.1334 211.91H152.867Z" stroke="#A18DBB" stroke-width="1.5" stroke-linejoin="round"/>
<path d="M152.926 211.851L270.777 94.0001L152.926 -23.8509L35.0748 94.0001L152.926 211.851Z" stroke="#A18DBB" stroke-width="1.5" stroke-linejoin="round"/>
<path d="M34.9565 94.0001L152.867 -23.91H35.1333L-82.7768 94.0001H34.9565Z" stroke="#A18DBB" stroke-width="1.5" stroke-linejoin="round"/>
<path d="M152.867 -23.91L270.777 94.0001L153.044 94.0002L35.1334 -23.91H152.867Z" stroke="#A18DBB" stroke-width="1.5" stroke-linejoin="round"/>
</g>
<defs>
<clipPath id="clip0_680_102585">
<rect width="188" height="188" rx="4" transform="matrix(1 0 0 -1 0 188)" fill="white"/>
</clipPath>
</defs>
</svg>
