<svg width="188" height="188" viewBox="0 0 188 188" fill="none" xmlns="http://www.w3.org/2000/svg">
<g clip-path="url(#clip0_680_102612)">
<rect width="188" height="188" rx="4" fill="#FFECCC"/>
<path d="M-104.99 80.7882L128.369 314.148L-104.64 314.148L-338 80.7882L-104.99 80.7882Z" stroke="#004367" stroke-width="2.9687" stroke-linejoin="round"/>
<path d="M-65.4561 274.963L167.903 41.6035L-65.4561 -191.756L-298.815 41.6035L-65.4561 274.963Z" stroke="#004367" stroke-width="2.9687" stroke-linejoin="round"/>
<path d="M206.738 235.778L440.098 2.41857H207.088L-26.2714 235.778H206.738Z" stroke="#004367" stroke-width="2.9687" stroke-linejoin="round"/>
<path d="M245.924 196.593L479.283 -36.7661L245.924 -270.126L12.5644 -36.7661L245.924 196.593Z" stroke="#004367" stroke-width="2.9687" stroke-linejoin="round"/>
<path d="M51.7489 -75.951L285.108 -309.31H52.0988L-181.261 -75.951H51.7489Z" stroke="#004367" stroke-width="2.9687" stroke-linejoin="round"/>
<path d="M324.293 -348.495L557.652 -115.136L324.643 -115.135L91.2833 -348.495L324.293 -348.495Z" stroke="#004367" stroke-width="2.9687" stroke-linejoin="round"/>
</g>
<defs>
<clipPath id="clip0_680_102612">
<rect width="188" height="188" rx="4" fill="white"/>
</clipPath>
</defs>
</svg>
