<svg width="188" height="188" viewBox="0 0 188 188" fill="none" xmlns="http://www.w3.org/2000/svg">
<g clip-path="url(#clip0_680_102590)">
<rect width="188" height="188" rx="4" fill="#EFECF4"/>
<path d="M-116.507 191.789L116.852 425.148L-116.157 425.148L-349.517 191.789L-116.507 191.789Z" stroke="#005077" stroke-width="2.9687" stroke-linejoin="round"/>
<path d="M-76.9727 385.963L156.387 152.604L-76.9727 -80.7554L-310.332 152.604L-76.9727 385.963Z" stroke="#005077" stroke-width="2.9687" stroke-linejoin="round"/>
<path d="M195.222 346.778L428.581 113.419H195.571L-37.788 346.778H195.222Z" stroke="#005077" stroke-width="2.9687" stroke-linejoin="round"/>
<path d="M234.407 307.594L467.767 74.2344L234.407 -159.125L1.04782 74.2344L234.407 307.594Z" stroke="#005077" stroke-width="2.9687" stroke-linejoin="round"/>
<path d="M40.2323 35.0494L273.592 -198.31H40.5822L-192.777 35.0494H40.2323Z" stroke="#005077" stroke-width="2.9687" stroke-linejoin="round"/>
<path d="M312.776 -237.495L546.136 -4.13513L313.126 -4.13479L79.7667 -237.494L312.776 -237.495Z" stroke="#005077" stroke-width="2.9687" stroke-linejoin="round"/>
</g>
<defs>
<clipPath id="clip0_680_102590">
<rect width="188" height="188" rx="4" fill="white"/>
</clipPath>
</defs>
</svg>
