<svg width="188" height="188" viewBox="0 0 188 188" fill="none" xmlns="http://www.w3.org/2000/svg">
<g clip-path="url(#clip0_680_102589)">
<rect width="188" height="188" rx="4" fill="#FFF9F0"/>
<path d="M-61.5332 250.542L174.287 486.362L-61.1792 486.363L-297 250.542H-61.5332Z" stroke="#005077" stroke-width="3" stroke-linejoin="round"/>
<path d="M-21.582 446.764L214.238 210.944L-21.5821 -24.8761L-257.402 210.944L-21.582 446.764Z" stroke="#005077" stroke-width="3" stroke-linejoin="round"/>
<path d="M253.483 407.167L489.303 171.347H253.837L18.0167 407.167H253.483Z" stroke="#005077" stroke-width="3" stroke-linejoin="round"/>
<path d="M293.081 367.568L528.901 131.748L293.081 -104.072L57.2609 131.748L293.081 367.568Z" stroke="#005077" stroke-width="3" stroke-linejoin="round"/>
<path d="M96.8583 92.15L332.678 -143.67H97.2118L-138.608 92.15H96.8583Z" stroke="#005077" stroke-width="3" stroke-linejoin="round"/>
<path d="M372.277 -183.268L608.098 52.5524L372.631 52.5527L136.811 -183.268H372.277Z" stroke="#005077" stroke-width="3" stroke-linejoin="round"/>
</g>
<defs>
<clipPath id="clip0_680_102589">
<rect width="188" height="188" rx="4" fill="white"/>
</clipPath>
</defs>
</svg>
