<svg width="188" height="188" viewBox="0 0 188 188" fill="none" xmlns="http://www.w3.org/2000/svg">
<g clip-path="url(#clip0_680_102607)">
<rect width="188" height="188" rx="4" fill="#005077"/>
<path d="M-116.99 274.237L116.369 507.597L-116.64 507.597L-350 274.237L-116.99 274.237Z" stroke="white" stroke-width="2.9687" stroke-linejoin="round"/>
<path d="M-58.3662 449.322L174.993 215.963L-58.3662 -17.3965L-291.726 215.963L-58.3662 449.322Z" stroke="white" stroke-width="2.9687" stroke-linejoin="round"/>
<path d="M232.918 391.048L466.277 157.689H233.268L-0.091684 391.048H232.918Z" stroke="white" stroke-width="2.9687" stroke-linejoin="round"/>
<path d="M291.192 332.773L524.552 99.4136L291.192 -133.946L57.833 99.4136L291.192 332.773Z" stroke="white" stroke-width="2.9687" stroke-linejoin="round"/>
<path d="M116.107 41.1393L349.467 -192.22H116.457L-116.902 41.1393H116.107Z" stroke="white" stroke-width="2.9687" stroke-linejoin="round"/>
<path d="M407.742 -250.495L641.101 -17.1351L408.092 -17.1348L174.733 -250.494L407.742 -250.495Z" stroke="white" stroke-width="2.9687" stroke-linejoin="round"/>
</g>
<defs>
<clipPath id="clip0_680_102607">
<rect width="188" height="188" rx="4" fill="white"/>
</clipPath>
</defs>
</svg>
