<svg width="188" height="188" viewBox="0 0 188 188" fill="none" xmlns="http://www.w3.org/2000/svg">
<g clip-path="url(#clip0_680_102614)">
<rect width="188" height="188" rx="4" fill="#FFF9F0"/>
<path d="M30.3294 59.1061L147.009 175.786L30.6794 175.611L-86.0004 58.9312L30.3294 59.1061Z" stroke="#8269A2" stroke-width="1.48435" stroke-linejoin="round"/>
<path d="M30.6201 175.551L147.24 58.9311L30.6201 -57.6892L-86.0001 58.9311L30.6201 175.551Z" stroke="#8269A2" stroke-width="1.48435" stroke-linejoin="round"/>
<path d="M147.184 175.611L263.864 58.9312H147.359L30.6793 175.611H147.184Z" stroke="#8269A2" stroke-width="1.48435" stroke-linejoin="round"/>
<path d="M147.242 175.552L263.863 58.931L147.242 -57.6903L30.6209 58.931L147.242 175.552Z" stroke="#8269A2" stroke-width="1.48435" stroke-linejoin="round"/>
<path d="M30.5043 58.9312L147.184 -57.7485H30.6793L-86.0004 58.9312H30.5043Z" stroke="#8269A2" stroke-width="1.48435" stroke-linejoin="round"/>
<path d="M147.184 -57.7485L263.864 58.9312L147.359 58.9314L30.6793 -57.7485L147.184 -57.7485Z" stroke="#8269A2" stroke-width="1.48435" stroke-linejoin="round"/>
</g>
<defs>
<clipPath id="clip0_680_102614">
<rect width="188" height="188" rx="4" fill="white"/>
</clipPath>
</defs>
</svg>
