<svg width="188" height="188" viewBox="0 0 188 188" fill="none" xmlns="http://www.w3.org/2000/svg">
<g clip-path="url(#clip0_680_102610)">
<rect width="188" height="188" rx="4" fill="#A18DBB"/>
<path d="M-5.68304 194.076L179.913 379.671L-5.40449 379.672L-191 194.076L-5.68304 194.076Z" stroke="#005077" stroke-width="2.36107" stroke-linejoin="round"/>
<path d="M25.7598 348.507L211.355 162.911L25.7597 -22.6843L-159.836 162.911L25.7598 348.507Z" stroke="#005077" stroke-width="2.36107" stroke-linejoin="round"/>
<path d="M242.242 317.342L427.837 131.747L242.52 131.747L56.9243 317.342L242.242 317.342Z" stroke="#005077" stroke-width="2.36107" stroke-linejoin="round"/>
<path d="M273.405 286.178L459.001 100.583L273.405 -85.0129L87.8097 100.583L273.405 286.178Z" stroke="#005077" stroke-width="2.36107" stroke-linejoin="round"/>
<path d="M118.975 69.418L304.571 -116.178L119.253 -116.178L-66.3423 69.418L118.975 69.418Z" stroke="#005077" stroke-width="2.36107" stroke-linejoin="round"/>
<path d="M335.735 -147.342L521.331 38.2534L336.013 38.2537L150.418 -147.342L335.735 -147.342Z" stroke="#005077" stroke-width="2.36107" stroke-linejoin="round"/>
</g>
<defs>
<clipPath id="clip0_680_102610">
<rect width="188" height="188" rx="4" fill="white"/>
</clipPath>
</defs>
</svg>
