<svg width="188" height="188" viewBox="0 0 188 188" fill="none" xmlns="http://www.w3.org/2000/svg">
<g clip-path="url(#clip0_680_102605)">
<rect width="188" height="188" rx="4" fill="#EFECF4"/>
<path d="M74.3294 94.1061L191.009 210.786L74.6794 210.611L-42.0004 93.9312L74.3294 94.1061Z" stroke="#005077" stroke-width="1.48435" stroke-linejoin="round"/>
<path d="M74.6201 210.551L191.24 93.9311L74.6201 -22.6892L-42.0001 93.9311L74.6201 210.551Z" stroke="#005077" stroke-width="1.48435" stroke-linejoin="round"/>
<path d="M191.184 210.611L307.864 93.9312H191.359L74.6793 210.611H191.184Z" stroke="#005077" stroke-width="1.48435" stroke-linejoin="round"/>
<path d="M191.242 210.552L307.863 93.931L191.242 -22.6903L74.6209 93.931L191.242 210.552Z" stroke="#005077" stroke-width="1.48435" stroke-linejoin="round"/>
<path d="M74.5043 93.9312L191.184 -22.7485H74.6793L-42.0004 93.9312H74.5043Z" stroke="#005077" stroke-width="1.48435" stroke-linejoin="round"/>
<path d="M191.184 -22.7485L307.864 93.9312L191.359 93.9314L74.6793 -22.7485L191.184 -22.7485Z" stroke="#005077" stroke-width="1.48435" stroke-linejoin="round"/>
</g>
<defs>
<clipPath id="clip0_680_102605">
<rect width="188" height="188" rx="4" fill="white"/>
</clipPath>
</defs>
</svg>
