<svg width="188" height="188" viewBox="0 0 188 188" fill="none" xmlns="http://www.w3.org/2000/svg">
<g clip-path="url(#clip0_680_102586)">
<rect width="188" height="188" rx="4" transform="matrix(1 0 0 -1 0 188)" fill="#005077"/>
<path d="M-123.082 192.995L112.738 428.815L-122.728 428.815L-358.549 192.995H-123.082Z" stroke="#FFECCC" stroke-width="3" stroke-linejoin="round"/>
<path d="M-83.1309 389.217L152.689 153.397L-83.1309 -82.4234L-318.951 153.397L-83.1309 389.217Z" stroke="#FFECCC" stroke-width="3" stroke-linejoin="round"/>
<path d="M191.934 349.619L427.755 113.799H192.288L-43.5321 349.619H191.934Z" stroke="#FFECCC" stroke-width="3" stroke-linejoin="round"/>
<path d="M231.532 310.021L467.352 74.2009L231.532 -161.619L-4.2879 74.2009L231.532 310.021Z" stroke="#FFECCC" stroke-width="3" stroke-linejoin="round"/>
<path d="M35.3094 34.6027L271.13 -201.217H35.663L-200.157 34.6027H35.3094Z" stroke="#FFECCC" stroke-width="3" stroke-linejoin="round"/>
<path d="M310.729 -240.815L546.549 -4.995L311.082 -4.99466L75.262 -240.815H310.729Z" stroke="#FFECCC" stroke-width="3" stroke-linejoin="round"/>
</g>
<defs>
<clipPath id="clip0_680_102586">
<rect width="188" height="188" rx="4" transform="matrix(1 0 0 -1 0 188)" fill="white"/>
</clipPath>
</defs>
</svg>
