<svg width="1200" height="675" viewBox="0 0 1200 675" fill="none" xmlns="http://www.w3.org/2000/svg">
<g clip-path="url(#clip0_1090_180337)">
<rect width="1200" height="675" fill="#BD9FE4"/>
<path d="M833.8 337.552L366.9 -129.348L833.099 -129.349L1300 337.552L833.8 337.552Z" stroke="#004367" stroke-width="6.68884" stroke-linejoin="round"/>
<path d="M833.102 -129.346L366.204 337.552L833.102 804.45L1300 337.552L833.102 -129.346Z" stroke="#004367" stroke-width="6.68884" stroke-linejoin="round"/>
<path d="M366.9 -129.348L-99.9991 337.552L366.2 337.552L833.1 -129.348L366.9 -129.348Z" stroke="#004367" stroke-width="6.68884" stroke-linejoin="round"/>
<path d="M366.898 -129.346L-99.9989 337.552L366.899 804.45L833.796 337.552L366.898 -129.346Z" stroke="#004367" stroke-width="6.68884" stroke-linejoin="round"/>
<path d="M833.801 337.552L366.901 804.452L833.101 804.452L1300 337.552L833.801 337.552Z" stroke="#004367" stroke-width="6.68884" stroke-linejoin="round"/>
<path d="M366.901 804.452L-99.9981 337.552L366.201 337.551L833.101 804.452L366.901 804.452Z" stroke="#004367" stroke-width="6.68884" stroke-linejoin="round"/>
</g>
<defs>
<clipPath id="clip0_1090_180337">
<rect width="1200" height="675" fill="white"/>
</clipPath>
</defs>
</svg>
