<svg width="32" height="32" viewBox="0 0 170 170" fill="none" xmlns="http://www.w3.org/2000/svg">
<path fill-rule="evenodd" clip-rule="evenodd" d="M2.07318 54.5734C-0.692218 51.806 -0.690888 47.3204 2.07614 44.5546L38.6019 8.04512C38.7787 7.8684 38.9576 7.69433 39.1387 7.52295L39.1205 7.50476C42.7235 3.90124 47.1588 1.63753 51.8075 0.71364C53.8316 0.243049 55.9182 1.07479e-05 58.0297 1.01387e-05L142.517 0C157.695 5.55246e-06 170 12.3065 170 27.4874V111.958C170 113.916 169.791 115.852 169.386 117.737C168.522 122.523 166.241 127.103 162.542 130.803L162.533 130.794C162.342 130.997 162.148 131.197 161.95 131.395L125.425 167.925C122.659 170.692 118.174 170.692 115.408 167.925C112.642 165.158 112.642 160.673 115.408 157.906L151.933 121.376C153.698 119.61 154.917 117.4 155.48 115.008C155.999 111.779 155.014 108.355 152.525 105.866L64.1955 17.5236C61.632 14.9597 58.0865 13.9765 54.7698 14.574C52.4605 15.1572 50.3292 16.3547 48.6162 18.0669L12.0905 54.5764C9.32349 57.3422 4.83857 57.3409 2.07318 54.5734ZM80.8759 14.1688L155.833 89.1374V27.4874C155.833 20.1317 149.871 14.1688 142.517 14.1688L80.8759 14.1688Z" fill="#004367"/>
<path d="M2.07466 167.925C-0.691554 165.158 -0.691554 160.673 2.07466 157.906L65.8247 94.1468C68.5909 91.3801 73.0758 91.3801 75.842 94.1468C78.6082 96.9134 78.6082 101.399 75.842 104.166L12.092 167.925C9.32579 170.692 4.84087 170.692 2.07466 167.925Z" fill="#004367"/>
</svg>
