<svg width="24" height="24" viewBox="0 0 24 24" fill="none" xmlns="http://www.w3.org/2000/svg">
<path fill-rule="evenodd" clip-rule="evenodd" d="M6.38826 3.62505C6.15652 3.6915 5.97084 3.8653 5.88925 4.09216C5.80765 4.31901 5.84009 4.57126 5.97641 4.7701L8.36829 8.25878L8.11295 8.332L5.79538 6.68863C5.60952 6.55684 5.37384 6.51668 5.15483 6.57948L3.23231 7.13075C2.97855 7.20352 2.78174 7.40432 2.71408 7.65949C2.64643 7.91465 2.7179 8.18659 2.90227 8.37552L5.97251 11.5216C7.4499 13.0355 9.63922 13.616 11.6726 13.0329L20.337 10.5485C21.3271 10.2645 21.5682 8.97208 20.7469 8.35031L19.1524 7.14305C17.9604 6.24057 16.4131 5.95197 14.9759 6.36408L13.4288 6.80772L8.98958 3.21193C8.79941 3.05788 8.54604 3.00632 8.31078 3.07377L6.38826 3.62505ZM10.0595 15.2359C9.8993 15.3303 9.90495 15.561 10.0577 15.6671C10.3786 15.8898 10.6712 16.1496 10.9317 16.4427C11.8431 17.4679 12.2501 18.7711 12.2501 20L12.25 20.0141C12.249 20.1747 12.3791 20.3143 12.5393 20.303C13.0023 20.2704 13.455 20.25 13.8625 20.25C15.61 20.25 18.1887 20.6258 18.844 20.7258C18.9487 20.7418 19.0543 20.7555 19.1579 20.7333C19.4962 20.6608 19.7499 20.36 19.7499 20C19.7499 17.0858 17.4141 14.25 13.4999 14.25C12.1367 14.25 10.9677 14.7009 10.0595 15.2359ZM4.18944 17.4392C4.83873 16.7088 5.79648 16.25 7 16.25C8.20352 16.25 9.16127 16.7088 9.81056 17.4392C10.4476 18.1559 10.75 19.0902 10.75 20C10.75 20.3184 10.5516 20.5905 10.2716 20.6993C10.0998 20.7661 9.91096 20.7245 9.73237 20.6789C9.19197 20.5408 7.94182 20.25 7 20.25C6.05818 20.25 4.80803 20.5408 4.26763 20.6789C4.08904 20.7245 3.90023 20.7661 3.72842 20.6993C3.44845 20.5905 3.25 20.3184 3.25 20C3.25 19.0902 3.55242 18.1559 4.18944 17.4392Z" fill="#23262A"/>
</svg>
