<svg width="24" height="24" viewBox="0 0 24 24" fill="none" xmlns="http://www.w3.org/2000/svg">
<path fill-rule="evenodd" clip-rule="evenodd" d="M6.38832 3.62499C6.15657 3.69144 5.9709 3.86524 5.88931 4.0921C5.80771 4.31895 5.84014 4.5712 5.97647 4.77004L8.36835 8.25872L8.11301 8.33194L5.79544 6.68857C5.60958 6.55678 5.3739 6.51662 5.15489 6.57942L3.23236 7.1307C2.97861 7.20346 2.7818 7.40427 2.71414 7.65943C2.64649 7.91459 2.71796 8.18653 2.90233 8.37546L5.97257 11.5216C7.44996 13.0355 9.63928 13.6159 11.6727 13.0329L20.337 10.5484C21.3272 10.2645 21.5682 8.97202 20.747 8.35025L19.1525 7.143C17.9605 6.24051 16.4131 5.95192 14.976 6.36402L13.4288 6.80766L8.98964 3.21187C8.79947 3.05783 8.5461 3.00626 8.31084 3.07372L6.38832 3.62499ZM8.17996 9.87319L9.26243 9.5628L9.55282 9.98634C9.78704 10.328 10.2539 10.415 10.5955 10.1808C10.9371 9.94658 11.0242 9.47976 10.79 9.13813L7.80203 4.78006L8.34893 4.62324L12.7881 8.21904C12.9783 8.37308 13.2316 8.42465 13.4669 8.35719L15.3894 7.80591C16.3728 7.52395 17.4315 7.72141 18.247 8.3389L19.4429 9.24434L11.2592 11.591C9.75627 12.0219 8.13808 11.5929 7.04609 10.4739L4.85284 8.22648L5.22184 8.12067L7.53941 9.76405C7.72527 9.89583 7.96095 9.93599 8.17996 9.87319ZM9.81056 17.4392C9.7791 17.4038 9.74693 17.3691 9.71403 17.335C10.473 16.6649 11.8213 15.75 13.4998 15.75C16.5856 15.75 18.2498 17.9142 18.2498 20C18.2498 20.4142 18.5856 20.75 18.9998 20.75C19.414 20.75 19.7498 20.4142 19.7498 20C19.7498 17.0858 17.414 14.25 13.4998 14.25C11.0483 14.25 9.2246 15.7083 8.41735 16.4919C7.99415 16.3357 7.52002 16.25 7 16.25C5.79648 16.25 4.83873 16.7088 4.18944 17.4392C3.55242 18.1559 3.25 19.0902 3.25 20C3.25 20.4142 3.58579 20.75 4 20.75C4.41421 20.75 4.75 20.4142 4.75 20C4.75 19.4098 4.94758 18.8441 5.31056 18.4358C5.66127 18.0412 6.20352 17.75 7 17.75C7.79648 17.75 8.33873 18.0412 8.68944 18.4358C9.05242 18.8441 9.25 19.4098 9.25 20C9.25 20.4142 9.58579 20.75 10 20.75C10.4142 20.75 10.75 20.4142 10.75 20C10.75 19.0902 10.4476 18.1559 9.81056 17.4392Z" fill="#23262A"/>
</svg>
