<svg width="24" height="24" viewBox="0 0 24 24" fill="none" xmlns="http://www.w3.org/2000/svg">
<path fill-rule="evenodd" clip-rule="evenodd" d="M20 20.75C19.5858 20.75 19.25 20.4142 19.25 20L19.25 4C19.25 3.58579 19.5858 3.25 20 3.25C20.4142 3.25 20.75 3.58579 20.75 4L20.75 20C20.75 20.4142 20.4142 20.75 20 20.75ZM17.75 10C17.75 10.4142 17.4142 10.75 17 10.75L4 10.75C3.58579 10.75 3.25 10.4142 3.25 10V6C3.25 5.58579 3.58579 5.25 4 5.25L17 5.25C17.4142 5.25 17.75 5.58579 17.75 6V10ZM17 18.75C17.4142 18.75 17.75 18.4142 17.75 18V14C17.75 13.5858 17.4142 13.25 17 13.25L10 13.25C9.58579 13.25 9.25 13.5858 9.25 14L9.25 18C9.25 18.4142 9.58579 18.75 10 18.75L17 18.75Z" fill="#23262A"/>
</svg>
