<svg width="24" height="24" viewBox="0 0 24 24" fill="none" xmlns="http://www.w3.org/2000/svg">
<path fill-rule="evenodd" clip-rule="evenodd" d="M6 17.75C5.58579 17.75 5.25 17.4142 5.25 17L5.25 4C5.25 3.58579 5.58579 3.25 6 3.25H10C10.4142 3.25 10.75 3.58579 10.75 4L10.75 17C10.75 17.4142 10.4142 17.75 10 17.75H6ZM6.75 16.25H9.25L9.25 4.75H6.75L6.75 16.25ZM3.25 20C3.25 19.5858 3.58579 19.25 4 19.25L20 19.25C20.4142 19.25 20.75 19.5858 20.75 20C20.75 20.4142 20.4142 20.75 20 20.75H4C3.58579 20.75 3.25 20.4142 3.25 20ZM13.25 17C13.25 17.4142 13.5858 17.75 14 17.75H18C18.4142 17.75 18.75 17.4142 18.75 17V10C18.75 9.58579 18.4142 9.25 18 9.25H14C13.5858 9.25 13.25 9.58579 13.25 10V17ZM17.25 16.25H14.75V10.75H17.25V16.25Z" fill="#23262A"/>
</svg>
