<svg width="24" height="24" viewBox="0 0 24 24" fill="none" xmlns="http://www.w3.org/2000/svg">
<path fill-rule="evenodd" clip-rule="evenodd" d="M4 3.25C4.41421 3.25 4.75 3.58579 4.75 4V20C4.75 20.4142 4.41421 20.75 4 20.75C3.58579 20.75 3.25 20.4142 3.25 20V4C3.25 3.58579 3.58579 3.25 4 3.25ZM6.25 6C6.25 5.58579 6.58579 5.25 7 5.25H20C20.4142 5.25 20.75 5.58579 20.75 6V10C20.75 10.4142 20.4142 10.75 20 10.75H7C6.58579 10.75 6.25 10.4142 6.25 10V6ZM7.75 6.75V9.25H19.25V6.75H7.75ZM7 13.25C6.58579 13.25 6.25 13.5858 6.25 14V18C6.25 18.4142 6.58579 18.75 7 18.75H14C14.4142 18.75 14.75 18.4142 14.75 18V14C14.75 13.5858 14.4142 13.25 14 13.25H7ZM7.75 17.25V14.75H13.25V17.25H7.75Z" fill="#23262A"/>
</svg>
