<svg width="24" height="24" viewBox="0 0 24 24" fill="none" xmlns="http://www.w3.org/2000/svg">
<path fill-rule="evenodd" clip-rule="evenodd" d="M6 19.25C5.58579 19.25 5.25 18.9142 5.25 18.5L5.25 12.75H4C3.58579 12.75 3.25 12.4142 3.25 12C3.25 11.5858 3.58579 11.25 4 11.25H5.25L5.25 5.5C5.25 5.08579 5.58579 4.75 6 4.75H10C10.4142 4.75 10.75 5.08579 10.75 5.5V11.25H13.25V8.5C13.25 8.08579 13.5858 7.75 14 7.75L18 7.75C18.4142 7.75 18.75 8.08579 18.75 8.5V11.25H20C20.4142 11.25 20.75 11.5858 20.75 12C20.75 12.4142 20.4142 12.75 20 12.75H18.75V15.5C18.75 15.9142 18.4142 16.25 18 16.25H14C13.5858 16.25 13.25 15.9142 13.25 15.5V12.75H10.75V18.5C10.75 18.9142 10.4142 19.25 10 19.25H6ZM14.75 12.75V14.75H17.25V12.75L14.75 12.75ZM17.25 11.25V9.25H14.75V11.25L17.25 11.25ZM6.75 17.75L6.75 12.75H9.25V17.75H6.75ZM9.25 6.25V11.25H6.75L6.75 6.25L9.25 6.25Z" fill="#23262A"/>
</svg>
