<svg width="24" height="24" viewBox="0 0 24 24" fill="none" xmlns="http://www.w3.org/2000/svg">
<path fill-rule="evenodd" clip-rule="evenodd" d="M20.75 4C20.75 4.41421 20.4142 4.75 20 4.75L4 4.75C3.58579 4.75 3.25 4.41421 3.25 4C3.25 3.58579 3.58579 3.25 4 3.25H20C20.4142 3.25 20.75 3.58579 20.75 4ZM10 6.25C10.4142 6.25 10.75 6.58579 10.75 7L10.75 20C10.75 20.4142 10.4142 20.75 10 20.75H6C5.58579 20.75 5.25 20.4142 5.25 20L5.25 7C5.25 6.58579 5.58579 6.25 6 6.25L10 6.25ZM9.25 7.75H6.75L6.75 19.25H9.25L9.25 7.75ZM18.75 7C18.75 6.58579 18.4142 6.25 18 6.25L14 6.25C13.5858 6.25 13.25 6.58579 13.25 7V14C13.25 14.4142 13.5858 14.75 14 14.75H18C18.4142 14.75 18.75 14.4142 18.75 14V7ZM14.75 7.75H17.25V13.25H14.75V7.75Z" fill="#23262A"/>
</svg>
