<svg width="24" height="24" viewBox="0 0 24 24" fill="none" xmlns="http://www.w3.org/2000/svg">
<path fill-rule="evenodd" clip-rule="evenodd" d="M12 3.25C12.4142 3.25 12.75 3.58579 12.75 4V5.25H18.5C18.9142 5.25 19.25 5.58579 19.25 6V10C19.25 10.4142 18.9142 10.75 18.5 10.75H12.75V13.25H15.5C15.9142 13.25 16.25 13.5858 16.25 14V18C16.25 18.4142 15.9142 18.75 15.5 18.75H12.75V20C12.75 20.4142 12.4142 20.75 12 20.75C11.5858 20.75 11.25 20.4142 11.25 20V18.75H8.5C8.08579 18.75 7.75 18.4142 7.75 18V14C7.75 13.5858 8.08579 13.25 8.5 13.25H11.25V10.75H5.5C5.08579 10.75 4.75 10.4142 4.75 10V6C4.75 5.58579 5.08579 5.25 5.5 5.25H11.25V4C11.25 3.58579 11.5858 3.25 12 3.25ZM11.25 14.75H9.25V17.25H11.25V14.75ZM12.75 17.25H14.75V14.75H12.75V17.25ZM6.25 6.75H11.25V9.25H6.25V6.75ZM12.75 6.75V9.25H17.75V6.75H12.75Z" fill="#23262A"/>
</svg>
