<svg width="24" height="24" viewBox="0 0 24 24" fill="none" xmlns="http://www.w3.org/2000/svg">
<path fill-rule="evenodd" clip-rule="evenodd" d="M14.75 3.55005C14.75 3.13584 15.0858 2.80005 15.5 2.80005H15.51C15.9242 2.80005 16.26 3.13584 16.26 3.55005C16.26 3.96426 15.9242 4.30005 15.51 4.30005H15.5C15.0858 4.30005 14.75 3.96426 14.75 3.55005ZM15.5 5.75C13.9812 5.75 12.75 6.98122 12.75 8.5C12.75 10.0188 13.9812 11.25 15.5 11.25C17.0188 11.25 18.25 10.0188 18.25 8.5C18.25 6.98122 17.0188 5.75 15.5 5.75ZM8.5 12.75C6.98122 12.75 5.75 13.9812 5.75 15.5C5.75 17.0188 6.98122 18.25 8.5 18.25C10.0188 18.25 11.25 17.0188 11.25 15.5C11.25 13.9812 10.0188 12.75 8.5 12.75ZM7.75 10.55C7.75 10.1358 8.08579 9.80005 8.5 9.80005H8.51C8.92421 9.80005 9.26 10.1358 9.26 10.55C9.26 10.9643 8.92421 11.3 8.51 11.3H8.5C8.08579 11.3 7.75 10.9643 7.75 10.55ZM5.5374 12.5231C5.83029 12.2302 5.83029 11.7554 5.5374 11.4625C5.24451 11.1696 4.76963 11.1696 4.47674 11.4625L4.46967 11.4695C4.17678 11.7624 4.17678 12.2373 4.46967 12.5302C4.76256 12.8231 5.23744 12.8231 5.53033 12.5302L5.5374 12.5231ZM3.5498 14.74C3.96402 14.74 4.2998 15.0758 4.2998 15.49V15.5C4.2998 15.9142 3.96402 16.25 3.5498 16.25C3.13559 16.25 2.7998 15.9142 2.7998 15.5V15.49C2.7998 15.0758 3.13559 14.74 3.5498 14.74ZM5.52349 18.463C5.2306 18.1701 4.75573 18.1701 4.46283 18.463C4.16994 18.7558 4.16994 19.2307 4.46283 19.5236L4.46991 19.5307C4.7628 19.8236 5.23767 19.8236 5.53057 19.5307C5.82346 19.2378 5.82346 18.7629 5.53057 18.47L5.52349 18.463ZM7.74023 20.45C7.74023 20.0357 8.07602 19.7 8.49023 19.7H8.50023C8.91445 19.7 9.25023 20.0357 9.25023 20.45C9.25023 20.8642 8.91445 21.2 8.50023 21.2H8.49023C8.07602 21.2 7.74023 20.8642 7.74023 20.45ZM12.5306 19.5305C12.8235 19.2376 12.8235 18.7627 12.5306 18.4698C12.2377 18.1769 11.7628 18.1769 11.4699 18.4698L11.4628 18.4769C11.1699 18.7698 11.1699 19.2446 11.4628 19.5375C11.7557 19.8304 12.2306 19.8304 12.5235 19.5375L12.5306 19.5305ZM13.4502 14.75C13.8644 14.75 14.2002 15.0858 14.2002 15.5V15.51C14.2002 15.9242 13.8644 16.26 13.4502 16.26C13.036 16.26 12.7002 15.9242 12.7002 15.51V15.5C12.7002 15.0858 13.036 14.75 13.4502 14.75ZM11.4937 12.5535C11.4856 12.5461 11.4777 12.5385 11.4699 12.5307L11.4628 12.5236C11.1699 12.2307 11.1699 11.7558 11.4628 11.463C11.7501 11.1756 12.2126 11.1702 12.5066 11.4465C12.5146 11.4539 12.5225 11.4615 12.5303 11.4693L12.5374 11.4764C12.8303 11.7693 12.8303 12.2441 12.5374 12.537C12.2501 12.8243 11.7877 12.8298 11.4937 12.5535ZM12.5374 5.52313C12.8303 5.23023 12.8303 4.75536 12.5374 4.46247C12.2445 4.16957 11.7696 4.16957 11.4767 4.46247L11.4697 4.46954C11.1768 4.76243 11.1768 5.23731 11.4697 5.5302C11.7626 5.82309 12.2374 5.82309 12.5303 5.5302L12.5374 5.52313ZM10.5498 7.73999C10.964 7.73999 11.2998 8.07578 11.2998 8.48999V8.49999C11.2998 8.9142 10.964 9.24999 10.5498 9.24999C10.1356 9.24999 9.7998 8.9142 9.7998 8.49999V8.48999C9.7998 8.07578 10.1356 7.73999 10.5498 7.73999ZM14.7402 13.45C14.7402 13.0357 15.076 12.7 15.4902 12.7H15.5002C15.9144 12.7 16.2502 13.0357 16.2502 13.45C16.2502 13.8642 15.9144 14.2 15.5002 14.2H15.4902C15.076 14.2 14.7402 13.8642 14.7402 13.45ZM19.5306 12.5305C19.8235 12.2376 19.8235 11.7627 19.5306 11.4698C19.2377 11.1769 18.7628 11.1769 18.4699 11.4698L18.4628 11.4769C18.1699 11.7698 18.1699 12.2446 18.4628 12.5375C18.7557 12.8304 19.2306 12.8304 19.5235 12.5375L19.5306 12.5305ZM20.4502 7.75C20.8644 7.75 21.2002 8.08579 21.2002 8.5V8.51C21.2002 8.92421 20.8644 9.26 20.4502 9.26C20.036 9.26 19.7002 8.92421 19.7002 8.51V8.5C19.7002 8.08579 20.036 7.75 20.4502 7.75ZM19.5303 4.4693C19.2374 4.17641 18.7626 4.17641 18.4697 4.4693C18.1768 4.7622 18.1768 5.23707 18.4697 5.52996L18.4767 5.53703C18.7696 5.82993 19.2445 5.82993 19.5374 5.53703C19.8303 5.24414 19.8303 4.76927 19.5374 4.47637L19.5303 4.4693Z" fill="#23262A"/>
</svg>
