<svg width="24" height="24" viewBox="0 0 24 24" fill="none" xmlns="http://www.w3.org/2000/svg">
<path fill-rule="evenodd" clip-rule="evenodd" d="M4.00002 3.25C3.69668 3.25 3.4232 3.43273 3.30711 3.71299C3.19103 3.99324 3.25519 4.31583 3.46969 4.53033L19.4697 20.5303C19.6842 20.7448 20.0068 20.809 20.287 20.6929C20.5673 20.5768 20.75 20.3033 20.75 20V4C20.75 3.58579 20.4142 3.25 20 3.25H4.00002ZM14.333 7.58325C14.0297 7.58325 13.7562 7.76598 13.6401 8.04624C13.524 8.3265 13.5882 8.64908 13.8027 8.86358L14.8027 9.86358C15.0172 10.0781 15.3398 10.1422 15.62 10.0262C15.9003 9.91008 16.083 9.6366 16.083 9.33325V8.33325C16.083 7.91904 15.7472 7.58325 15.333 7.58325H14.333Z" fill="#23262A"/>
</svg>
