<svg width="24" height="24" viewBox="0 0 24 24" fill="none" xmlns="http://www.w3.org/2000/svg">
<path fill-rule="evenodd" clip-rule="evenodd" d="M15.5299 6.5308C15.823 6.23817 15.8234 5.7633 15.5308 5.47014C15.2382 5.17699 14.7633 5.17657 14.4701 5.4692L9.28228 10.6478C9.25802 10.6667 9.23465 10.6874 9.21235 10.7097C9.19036 10.7316 9.17003 10.7546 9.15135 10.7785L4.47014 15.4514C4.25537 15.6658 4.19096 15.9885 4.30696 16.2689C4.42297 16.5493 4.69653 16.7322 5 16.7322H19C19.4142 16.7322 19.75 16.3964 19.75 15.9822C19.75 15.568 19.4142 15.2322 19 15.2322H12.4191C12.3462 14.5103 12.1681 13.8015 11.8894 13.1287C11.6115 12.4578 11.2376 11.8324 10.7806 11.2716L15.5299 6.5308ZM9.7122 12.3381L6.81294 15.2322H10.9096C10.843 14.7077 10.7067 14.1933 10.5035 13.7027C10.301 13.2138 10.0346 12.755 9.7122 12.3381Z" fill="#23262A"/>
</svg>
