<svg width="24" height="24" viewBox="0 0 24 24" fill="none" xmlns="http://www.w3.org/2000/svg">
<path fill-rule="evenodd" clip-rule="evenodd" d="M12 6.25C10.7196 6.25 9.45176 6.50219 8.26884 6.99217C7.08591 7.48216 6.01108 8.20034 5.10571 9.10571C4.20034 10.0111 3.48216 11.0859 2.99217 12.2688C2.50219 13.4518 2.25 14.7196 2.25 16C2.25 16.4142 2.58579 16.75 3 16.75H10.2123H10.2273L17.3314 16.75H17.3315H17.3504H17.3504H21C21.4142 16.75 21.75 16.4142 21.75 16C21.75 14.7196 21.4978 13.4518 21.0078 12.2688C20.5178 11.0859 19.7997 10.0111 18.8943 9.10571C17.9889 8.20034 16.9141 7.48216 15.7312 6.99217C14.5482 6.50219 13.2804 6.25 12 6.25ZM14.2803 15.25C14.4184 15.25 14.5303 15.1381 14.5303 15L14.5303 14C14.5303 13.5858 14.1945 13.25 13.7803 13.25C13.3661 13.25 13.0303 13.5858 13.0303 14L13.0303 15C13.0303 15.1381 13.1422 15.25 13.2803 15.25H14.2803ZM17.8409 15.25C17.979 15.25 18.0909 15.1381 18.0909 15L18.0908 14C18.0908 13.5858 17.755 13.25 17.3408 13.25C16.9266 13.25 16.5908 13.5858 16.5908 14L16.5909 15C16.5909 15.1381 16.7028 15.25 16.8409 15.25H17.8409ZM7.15918 15.25C7.29725 15.25 7.40918 15.1381 7.40918 15L7.4092 14C7.4092 13.5858 7.07342 13.25 6.65921 13.25C6.245 13.25 5.9092 13.5858 5.9092 14L5.90918 15C5.90918 15.1381 6.02111 15.25 6.15918 15.25H7.15918ZM9.46977 15C9.46978 15.1381 9.5817 15.25 9.71977 15.25H10.7198C10.8578 15.25 10.9698 15.1381 10.9698 15L10.9697 14C10.9697 13.5858 10.6339 13.25 10.2197 13.25C9.80551 13.25 9.46973 13.5858 9.46974 14L9.46977 15Z" fill="#262626"/>
</svg>
