<svg width="24" height="24" viewBox="0 0 24 24" fill="none" xmlns="http://www.w3.org/2000/svg">
<path fill-rule="evenodd" clip-rule="evenodd" d="M8.26884 6.99217C9.45176 6.50219 10.7196 6.25 12 6.25C13.2804 6.25 14.5482 6.50219 15.7312 6.99217C16.9141 7.48216 17.9889 8.20034 18.8943 9.10571C19.7997 10.0111 20.5178 11.0859 21.0078 12.2688C21.4978 13.4518 21.75 14.7196 21.75 16C21.75 16.4142 21.4142 16.75 21 16.75L3 16.75C2.58579 16.75 2.25 16.4142 2.25 16C2.25 14.7196 2.50219 13.4518 2.99217 12.2688C3.48216 11.0859 4.20034 10.0111 5.10571 9.10571C6.01108 8.20034 7.08591 7.48216 8.26884 6.99217ZM12 7.75C10.9166 7.75 9.8438 7.96339 8.84286 8.37799C7.84193 8.7926 6.93245 9.40029 6.16637 10.1664C5.40029 10.9325 4.79259 11.8419 4.37799 12.8429C4.05938 13.6121 3.85959 14.4237 3.78416 15.25H5.90918L5.9092 14C5.9092 13.5858 6.245 13.25 6.65921 13.25C7.07342 13.25 7.4092 13.5858 7.4092 14L7.40918 15.25H9.46969L9.46965 14C9.46964 13.5858 9.80542 13.25 10.2196 13.2499C10.6338 13.2499 10.9696 13.5857 10.9697 13.9999L10.9697 15.25H13.0303L13.0302 14C13.0302 13.5858 13.366 13.25 13.7802 13.25C14.1945 13.25 14.5302 13.5858 14.5302 14L14.5303 15.25H16.5908L16.5907 14C16.5907 13.5857 16.9265 13.2499 17.3407 13.2499C17.7549 13.2499 18.0907 13.5857 18.0907 13.9999L18.0908 15.25H20.2158C20.1404 14.4237 19.9406 13.6121 19.622 12.8429C19.2074 11.8419 18.5997 10.9325 17.8336 10.1664C17.0675 9.40029 16.1581 8.79259 15.1571 8.37799C14.1562 7.96339 13.0834 7.75 12 7.75Z" fill="#262626"/>
</svg>
