<svg width="24" height="24" viewBox="0 0 24 24" fill="none" xmlns="http://www.w3.org/2000/svg">
<path fill-rule="evenodd" clip-rule="evenodd" d="M8.26884 6.99217C9.45176 6.50219 10.7196 6.25 12 6.25C13.2804 6.25 14.5482 6.50219 15.7312 6.99217C16.9141 7.48216 17.9889 8.20034 18.8943 9.10571C19.7997 10.0111 20.5178 11.0859 21.0078 12.2688C21.4978 13.4518 21.75 14.7196 21.75 16C21.75 16.4142 21.4142 16.75 21 16.75H17.344C17.3429 16.75 17.3419 16.75 17.3408 16.75C17.3398 16.75 17.3387 16.75 17.3376 16.75H13.7828L13.7803 16.75L13.7777 16.75L3 16.75C2.58579 16.75 2.25 16.4142 2.25 16C2.25 14.7196 2.50219 13.4518 2.99217 12.2688C3.48216 11.0859 4.20034 10.0111 5.10571 9.10571C6.01108 8.20034 7.08591 7.48216 8.26884 6.99217ZM18.0908 15.25L18.0907 13.9999C18.0907 13.5857 17.7549 13.2499 17.3407 13.2499C16.9265 13.25 16.5907 13.5858 16.5907 14L16.5908 15.25H14.5302L14.5302 14C14.5302 13.5858 14.1944 13.25 13.7802 13.25C13.366 13.25 13.0302 13.5858 13.0302 14L13.0302 15.25H10.9697L10.9697 13.9999C10.9696 13.5857 10.6338 13.2499 10.2196 13.2499C9.80542 13.25 9.46964 13.5858 9.46966 14L9.46969 15.25H7.40918L7.4092 14.0001C7.40921 13.5858 7.07343 13.25 6.65921 13.25C6.245 13.25 5.90921 13.5858 5.9092 14L5.90918 15.25H3.78416C3.85959 14.4237 4.05938 13.6121 4.37799 12.8429C4.79259 11.8419 5.40029 10.9325 6.16637 10.1664C6.93245 9.40029 7.84193 8.7926 8.84286 8.37799C9.8438 7.96339 10.9166 7.75 12 7.75C13.0834 7.75 14.1562 7.96339 15.1571 8.37799C16.1581 8.79259 17.0675 9.40029 17.8336 10.1664C18.5997 10.9325 19.2074 11.8419 19.622 12.8429C19.9406 13.6121 20.1404 14.4237 20.2158 15.25H18.0908Z" fill="#23262A"/>
</svg>
