<svg width="24" height="24" viewBox="0 0 24 24" fill="none" xmlns="http://www.w3.org/2000/svg">
<path fill-rule="evenodd" clip-rule="evenodd" d="M4 3.25C3.58579 3.25 3.25 3.58579 3.25 4V7.5C3.25 7.91421 3.58579 8.25 4 8.25H20C20.4142 8.25 20.75 7.91421 20.75 7.5V4C20.75 3.58579 20.4142 3.25 20 3.25H4ZM19.5 9.25C19.6381 9.25 19.75 9.36193 19.75 9.5V19C19.75 19.9665 18.9665 20.75 18 20.75H6C5.0335 20.75 4.25 19.9665 4.25 19V9.5C4.25 9.36193 4.36193 9.25 4.5 9.25H19.5ZM14.75 12.5C14.75 12.9142 14.4142 13.25 14 13.25H10C9.58579 13.25 9.25 12.9142 9.25 12.5C9.25 12.0858 9.58579 11.75 10 11.75H14C14.4142 11.75 14.75 12.0858 14.75 12.5Z" fill="#23262A"/>
</svg>
