<svg width="24" height="24" viewBox="0 0 24 24" fill="none" xmlns="http://www.w3.org/2000/svg">
<path fill-rule="evenodd" clip-rule="evenodd" d="M3.25 4C3.25 3.58579 3.58579 3.25 4 3.25H20C20.4142 3.25 20.75 3.58579 20.75 4V8C20.75 8.41421 20.4142 8.75 20 8.75H19.75V19C19.75 19.9665 18.9665 20.75 18 20.75H6C5.0335 20.75 4.25 19.9665 4.25 19V8.75H4C3.58579 8.75 3.25 8.41421 3.25 8V4ZM5.75 8.75H18.25V19C18.25 19.1381 18.1381 19.25 18 19.25H6C5.86193 19.25 5.75 19.1381 5.75 19V8.75ZM4.75 4.75V7.25H19.25V4.75H4.75ZM14 13.25C14.4142 13.25 14.75 12.9142 14.75 12.5C14.75 12.0858 14.4142 11.75 14 11.75H10C9.58579 11.75 9.25 12.0858 9.25 12.5C9.25 12.9142 9.58579 13.25 10 13.25H14Z" fill="#23262A"/>
</svg>
