<svg width="24" height="24" viewBox="0 0 24 24" fill="none" xmlns="http://www.w3.org/2000/svg">
<path fill-rule="evenodd" clip-rule="evenodd" d="M2.3524 4.62145C2.37798 4.57777 2.40786 4.53692 2.44144 4.49946C2.61912 4.30096 2.88053 4.21854 3.12715 4.26072C3.17191 4.26836 3.21531 4.27997 3.25699 4.29517C3.34161 4.32603 3.4191 4.3717 3.48634 4.42903L10.2523 10.1197L20.6825 5.3187C20.7937 5.26749 20.911 5.24581 21.0256 5.25041C21.4279 5.26389 21.75 5.59433 21.75 5.99999V9.98376C21.7502 9.9942 21.7502 10.0046 21.75 10.015V19C21.75 19.4142 21.4142 19.75 21 19.75H3C2.58579 19.75 2.25 19.4142 2.25 19V16.0133C2.24986 16.0049 2.24986 15.9965 2.25 15.9881V5.00467V4.99999C2.25 4.95665 2.25368 4.91416 2.26073 4.87284C2.25327 4.9165 2.2497 4.96063 2.25 5.00467M2.3524 4.62145C2.32987 4.65991 2.31067 4.70055 2.29519 4.74299C2.31038 4.70131 2.32944 4.66062 2.3524 4.62145ZM3.75 6.61081V14.6594L7.01977 12.6517C7.28845 12.4867 7.63163 12.5074 7.87856 12.7034L10.2252 14.5666L20.25 9.53716V7.16906L10.4473 11.6813C10.1835 11.8027 9.87322 11.7609 9.65094 11.574L3.75 6.61081ZM3.75 18.25V16.4196L7.35713 14.2047L9.66734 16.039C9.89595 16.2205 10.2091 16.2528 10.47 16.1219L20.25 11.2154V18.25H3.75Z" fill="#262626"/>
</svg>
