<svg width="24" height="24" viewBox="0 0 24 24" fill="none" xmlns="http://www.w3.org/2000/svg">
<path fill-rule="evenodd" clip-rule="evenodd" d="M3.48276 4.42604C3.25957 4.23832 2.94781 4.197 2.68343 4.3201C2.41905 4.44319 2.25 4.70838 2.25 5.00001V15.1971C2.25 15.3687 2.44126 15.471 2.58405 15.3758C2.59182 15.3707 2.59969 15.3656 2.60764 15.3608L7.01985 12.6516C7.28853 12.4866 7.63171 12.5073 7.87864 12.7033L10.1003 14.4673C10.1765 14.5278 10.2809 14.5386 10.3679 14.4949L20.6456 9.33863L21.624 8.77952C21.7019 8.73501 21.75 8.65218 21.75 8.56246V6.00001C21.75 5.59459 21.4283 5.26429 21.0263 5.25046C20.9115 5.24575 20.794 5.26741 20.6825 5.31872L10.3964 10.0535C10.3084 10.0939 10.205 10.08 10.1309 10.0177L3.48276 4.42604ZM21.75 10.866C21.75 10.674 21.5426 10.5537 21.376 10.6489L21.3722 10.6511C21.3604 10.6578 21.3485 10.6642 21.3364 10.6702L10.4701 16.1218C10.2092 16.2527 9.89603 16.2204 9.66742 16.0389L7.4943 14.3135C7.41199 14.2481 7.2976 14.2412 7.20803 14.2962L3.40445 16.6317L2.36133 17.3271C2.29178 17.3735 2.25 17.4515 2.25 17.5351V19C2.25 19.4142 2.58579 19.75 3 19.75H21C21.4142 19.75 21.75 19.4142 21.75 19V10.866Z" fill="#23262A"/>
</svg>
