<svg width="24" height="24" viewBox="0 0 24 24" fill="none" xmlns="http://www.w3.org/2000/svg">
<path fill-rule="evenodd" clip-rule="evenodd" d="M2.3524 4.62146C2.37793 4.57787 2.40774 4.53709 2.44126 4.49969C2.51102 4.42168 2.59371 4.36159 2.68335 4.31992C2.8222 4.25539 2.97773 4.23505 3.12776 4.26084C3.21495 4.27583 3.30029 4.30639 3.37941 4.35291C3.4173 4.37517 3.45306 4.40067 3.48632 4.42902L10.2523 10.1198L20.6825 5.31871C20.7937 5.2675 20.911 5.24583 21.0256 5.25042C21.4279 5.2639 21.75 5.59435 21.75 6V9.98378C21.7501 9.98639 21.7501 9.989 21.7501 9.99161C21.7502 9.99943 21.7502 10.0072 21.75 10.0151V19C21.75 19.4142 21.4142 19.75 21 19.75H3C2.58579 19.75 2.25 19.4142 2.25 19V16.0133C2.24986 16.0049 2.24986 15.9965 2.25 15.9881V5.00467L2.3524 4.62146ZM9.65094 11.574L3.75 6.61082V14.6594L7.01977 12.6517C7.28845 12.4867 7.63163 12.5074 7.87856 12.7035L10.2252 14.5666L20.25 9.53718V7.16907L10.4473 11.6813C10.1835 11.8027 9.87322 11.7609 9.65094 11.574ZM10.47 16.122L20.25 11.2154V18.25H3.75V16.4196L7.35713 14.2048L9.66734 16.039C9.89595 16.2205 10.2091 16.2529 10.47 16.122Z" fill="#23262A"/>
<path d="M2.25 5.00467V5C2.25 4.95701 2.25362 4.91486 2.26056 4.87384C2.25321 4.91718 2.24971 4.96096 2.25 5.00467Z" fill="#23262A"/>
</svg>
