<svg width="24" height="24" viewBox="0 0 24 24" fill="none" xmlns="http://www.w3.org/2000/svg">
<path d="M6.95508 9.45605C7.22008 9.45617 7.43457 9.67999 7.43457 9.95605V12.6582C7.43457 13.1 7.77897 13.458 8.20312 13.458H15.7812C16.2054 13.458 16.5498 13.1 16.5498 12.6582V9.95605C16.5498 9.67996 16.7643 9.45613 17.0293 9.45605H19.9209C20.186 9.45605 20.4014 9.67991 20.4014 9.95605V16.0596C20.4014 16.9432 19.7135 17.66 18.8652 17.6602H16.8262L17.4707 19.6738C17.5964 20.0666 17.3926 20.4919 17.0156 20.623C16.6384 20.754 16.2293 20.5414 16.1035 20.1484L15.3076 17.6602H8.66699L7.87109 20.1484C7.74537 20.5413 7.33716 20.7539 6.95996 20.623C6.58272 20.4921 6.37816 20.0668 6.50391 19.6738L7.14844 17.6602H5.11719C4.26891 17.6601 3.59961 16.9432 3.59961 16.0596V9.95605C3.59961 9.67991 3.81498 9.45605 4.08008 9.45605H6.95508ZM15.8271 3.33984C16.3572 3.33984 16.7869 3.83751 16.7871 4.38965V7.61523C16.787 7.80915 16.6364 7.96679 16.4502 7.9668C15.7053 7.9668 15.1017 8.59523 15.1016 9.37109V11.4541C15.1014 11.7301 14.8861 11.9541 14.6211 11.9541H9.36816C9.1032 11.9541 8.88791 11.7301 8.8877 11.4541V9.38379C8.8877 8.60107 8.27875 7.9668 7.52734 7.9668C7.33967 7.96669 7.18765 7.80778 7.1875 7.6123V4.38965C7.18769 3.83751 7.61738 3.33984 8.14746 3.33984H15.8271Z" fill="#202733"/>
</svg>
