<svg width="25" height="24" viewBox="0 0 25 24" fill="none" xmlns="http://www.w3.org/2000/svg">
<path d="M7.24512 9.45605C7.52105 9.45631 7.74512 9.68007 7.74512 9.95605V12.6582C7.74512 13.1 8.10309 13.458 8.54492 13.458H16.4395C16.8811 13.4578 17.2393 13.0999 17.2393 12.6582V9.95605C17.2393 9.67991 17.4631 9.45605 17.7393 9.45605H20.751C21.0271 9.45605 21.251 9.67991 21.251 9.95605V16.0596C21.251 16.9431 20.5349 17.66 19.6514 17.6602H17.5283L18.1992 19.6738C18.3301 20.0666 18.1172 20.4919 17.7246 20.623C17.3317 20.754 16.9064 20.5414 16.7754 20.1484L15.9463 17.6602H9.02832L8.19922 20.1484C8.06826 20.5413 7.6429 20.7539 7.25 20.623C6.85704 20.4921 6.6444 20.0668 6.77539 19.6738L7.44629 17.6602H5.33008C4.44661 17.6599 3.75 16.9431 3.75 16.0596V9.95605C3.75 9.67991 3.97386 9.45605 4.25 9.45605H7.24512ZM16.4873 3.33984C17.0393 3.3401 17.4871 3.83765 17.4873 4.38965V7.61523C17.4872 7.80911 17.3296 7.96673 17.1357 7.9668C16.3598 7.9668 15.7306 8.59523 15.7305 9.37109V11.4541C15.7302 11.7301 15.5065 11.9541 15.2305 11.9541H9.75879C9.48278 11.9541 9.25901 11.7301 9.25879 11.4541V9.38379C9.25879 8.60107 8.62354 7.9668 7.84082 7.9668C7.64541 7.9666 7.48746 7.80773 7.4873 7.6123V4.38965C7.4875 3.83751 7.93514 3.33984 8.4873 3.33984H16.4873Z" fill="#202733"/>
</svg>
