<svg width="24" height="24" viewBox="0 0 24 24" fill="none" xmlns="http://www.w3.org/2000/svg">
<path d="M15.8398 3.25C16.7677 3.25 17.5195 4.0335 17.5195 5V8.25H18.7197C19.6476 8.25 20.4004 9.0335 20.4004 10V16C20.4004 16.9665 19.6476 17.75 18.7197 17.75H16.8398L17.4834 19.7627C17.6091 20.1557 17.4046 20.5809 17.0273 20.7119C16.6502 20.8426 16.2419 20.6301 16.1162 20.2373L15.3203 17.75H8.67969L7.88379 20.2373C7.75809 20.6301 7.34978 20.8426 6.97266 20.7119C6.59542 20.5809 6.39086 20.1557 6.5166 19.7627L7.16016 17.75H5.28027C4.35244 17.75 3.59961 16.9665 3.59961 16V10C3.59961 9.0335 4.35244 8.25 5.28027 8.25H6.48047V5C6.48047 4.0335 7.23232 3.25 8.16016 3.25H15.8398ZM5.28027 9.75C5.14773 9.75 5.04004 9.86193 5.04004 10V16C5.04004 16.1381 5.14773 16.25 5.28027 16.25H18.7197C18.8523 16.25 18.96 16.1381 18.96 16V10C18.96 9.86193 18.8523 9.75 18.7197 9.75H16.7998C16.6673 9.75011 16.5596 9.862 16.5596 10V13C16.5596 13.4142 16.2375 13.75 15.8398 13.75H8.16016C7.76251 13.75 7.44043 13.4142 7.44043 13V10C7.44043 9.862 7.33265 9.75011 7.2002 9.75H5.28027ZM8.16016 4.75C8.02761 4.75 7.91992 4.86193 7.91992 5V8.41992C8.48722 8.7009 8.87988 9.30212 8.87988 10V12.25H15.1201V10C15.1201 9.30212 15.5128 8.7009 16.0801 8.41992V5C16.0801 4.86193 15.9724 4.75 15.8398 4.75H8.16016Z" fill="#202733"/>
</svg>
