<svg width="25" height="24" viewBox="0 0 25 24" fill="none" xmlns="http://www.w3.org/2000/svg">
<path d="M16.5 3.25C17.4665 3.25 18.25 4.0335 18.25 5V8.25H19.5C20.4665 8.25 21.25 9.0335 21.25 10V16C21.25 16.9665 20.4665 17.75 19.5 17.75H17.541L18.2119 19.7627C18.3429 20.1557 18.1303 20.5809 17.7373 20.7119C17.3443 20.8429 16.9191 20.6303 16.7881 20.2373L15.959 17.75H9.04102L8.21191 20.2373C8.08093 20.6303 7.65565 20.8429 7.2627 20.7119C6.86974 20.5809 6.6571 20.1557 6.78809 19.7627L7.45898 17.75H5.5C4.5335 17.75 3.75 16.9665 3.75 16V10C3.75 9.0335 4.5335 8.25 5.5 8.25H6.75V5C6.75 4.0335 7.5335 3.25 8.5 3.25H16.5ZM5.5 9.75C5.36193 9.75 5.25 9.86193 5.25 10V16C5.25 16.1381 5.36193 16.25 5.5 16.25H19.5C19.6381 16.25 19.75 16.1381 19.75 16V10C19.75 9.86193 19.6381 9.75 19.5 9.75H17.5C17.3619 9.75 17.25 9.86193 17.25 10V13C17.25 13.4142 16.9142 13.75 16.5 13.75H8.5C8.08579 13.75 7.75 13.4142 7.75 13V10C7.75 9.86193 7.63807 9.75 7.5 9.75H5.5ZM8.5 4.75C8.36193 4.75 8.25 4.86193 8.25 5V8.41992C8.84092 8.70091 9.25 9.30213 9.25 10V12.25H15.75V10C15.75 9.30213 16.1591 8.70091 16.75 8.41992V5C16.75 4.86193 16.6381 4.75 16.5 4.75H8.5Z" fill="#202733"/>
</svg>
