<svg width="24" height="24" viewBox="0 0 24 24" fill="none" xmlns="http://www.w3.org/2000/svg">
<path d="M16.4695 11.0304C16.7624 11.3233 17.2371 11.3233 17.53 11.0304L21.03 7.53042C21.1707 7.38977 21.2498 7.19906 21.2498 7.00015C21.2498 6.80124 21.1707 6.61053 21.03 6.46988L17.53 2.96988C17.2371 2.67698 16.7624 2.67698 16.4695 2.96988C16.1766 3.26277 16.1766 3.73753 16.4695 4.03042L18.6892 6.25015L9.49976 6.25015C9.08555 6.25015 8.74976 6.58593 8.74976 7.00015C8.74976 7.41436 9.08555 7.75015 9.49976 7.75015L18.6892 7.75015L16.4695 9.96988C16.1766 10.2628 16.1766 10.7375 16.4695 11.0304ZM6.46949 21.0304C6.76238 21.3233 7.23714 21.3233 7.53003 21.0304C7.82293 20.7375 7.82293 20.2628 7.53003 19.9699L5.31031 17.7501H14.4998C14.914 17.7501 15.2498 17.4144 15.2498 17.0001C15.2498 16.5859 14.914 16.2501 14.4998 16.2501H5.31031L7.53003 14.0304C7.82293 13.7375 7.82293 13.2628 7.53003 12.9699C7.23714 12.677 6.76238 12.677 6.46949 12.9699L2.96949 16.4699C2.67659 16.7628 2.67659 17.2375 2.96949 17.5304L6.46949 21.0304Z" fill="#202733"/>
</svg>
