<svg width="24" height="24" viewBox="0 0 24 24" fill="none" xmlns="http://www.w3.org/2000/svg">
<path d="M4.5 3.25C4.91421 3.25 5.25 3.58579 5.25 4V10C5.25 10.6904 5.80964 11.25 6.5 11.25H17.1895L13.9697 8.03027C13.6768 7.73738 13.6768 7.26262 13.9697 6.96973C14.2626 6.67685 14.7374 6.67684 15.0303 6.96973L19.5303 11.4697C19.6709 11.6104 19.75 11.8011 19.75 12C19.75 12.1989 19.6709 12.3896 19.5303 12.5303L15.0303 17.0303C14.7374 17.3232 14.2626 17.3232 13.9697 17.0303C13.6768 16.7374 13.6768 16.2626 13.9697 15.9697L17.1895 12.75H6.5C4.98122 12.75 3.75 11.5188 3.75 10V4C3.75 3.58579 4.08579 3.25 4.5 3.25Z" fill="#202733"/>
</svg>
