<svg width="24" height="24" viewBox="0 0 24 24" fill="none" xmlns="http://www.w3.org/2000/svg">
<path d="M12.5303 4.46967C12.3897 4.32902 12.1989 4.25 12 4.25C11.8011 4.25 11.6103 4.32902 11.4697 4.46967L6.96967 8.96971C6.67678 9.2626 6.67678 9.73747 6.96967 10.0304C7.26257 10.3233 7.73744 10.3233 8.03033 10.0304L11.25 6.81067V19C11.25 19.4142 11.5858 19.75 12 19.75C12.4142 19.75 12.75 19.4142 12.75 19V6.81067L15.9697 10.0304C16.2626 10.3233 16.7374 10.3233 17.0303 10.0304C17.3232 9.73747 17.3232 9.2626 17.0303 8.9697L12.5303 4.46967Z" fill="#23262A"/>
</svg>
