<svg width="24" height="24" viewBox="0 0 24 24" fill="none" xmlns="http://www.w3.org/2000/svg">
<path fill-rule="evenodd" clip-rule="evenodd" d="M14.0303 4.96967C13.7374 4.67678 13.2626 4.67678 12.9697 4.96967C12.6768 5.26256 12.6768 5.73744 12.9697 6.03033L18.1893 11.25L3.5 11.25C3.08579 11.25 2.75 11.5858 2.75 12C2.75 12.4142 3.08579 12.75 3.5 12.75L18.1893 12.75L12.9697 17.9697C12.6768 18.2626 12.6768 18.7374 12.9697 19.0303C13.2626 19.3232 13.7374 19.3232 14.0303 19.0303L20.5303 12.5303C20.6622 12.3985 20.7399 12.2226 20.7491 12.0372M20.5463 11.4861C20.541 11.4805 20.5357 11.4751 20.5303 11.4697L14.0303 4.96967" fill="#23262A"/>
</svg>
