<svg width="24" height="24" viewBox="0 0 24 24" fill="none" xmlns="http://www.w3.org/2000/svg">
<path d="M14.9697 3.9697C15.2626 3.67681 15.7374 3.67681 16.0303 3.9697L20.5303 8.4697C20.6709 8.61035 20.75 8.80106 20.75 8.99997C20.75 9.19888 20.6709 9.38959 20.5303 9.53024L16.0303 14.0302C15.7374 14.3231 15.2626 14.3231 14.9697 14.0302C14.6768 13.7373 14.6768 13.2626 14.9697 12.9697L18.1895 9.74997H8C5.65279 9.74997 3.75 11.6528 3.75 14C3.75002 16.3472 5.6528 18.25 8 18.25H9.5C9.91421 18.25 10.25 18.5858 10.25 19C10.25 19.4142 9.9142 19.75 9.5 19.75H8C4.82437 19.75 2.25002 17.1756 2.25 14C2.25 10.8243 4.82436 8.24997 8 8.24997H18.1895L14.9697 5.03024C14.6768 4.73735 14.6768 4.26259 14.9697 3.9697Z" fill="#202733"/>
</svg>
