<svg width="24" height="24" viewBox="0 0 24 24" fill="none" xmlns="http://www.w3.org/2000/svg">
<path fill-rule="evenodd" clip-rule="evenodd" d="M9.03034 2.9697C9.32324 3.2626 9.32323 3.73747 9.03034 4.03036L7.81069 5.25H16C18.6234 5.25 20.75 7.37665 20.75 10V11.5C20.75 11.9142 20.4142 12.25 20 12.25C19.5858 12.25 19.25 11.9142 19.25 11.5V10C19.25 8.20508 17.7949 6.75 16 6.75H7.8106L9.03032 7.96971C9.32322 8.26261 9.32322 8.73748 9.03033 9.03037C8.73744 9.32327 8.26256 9.32327 7.96967 9.03038L5.46964 6.53037C5.32899 6.38972 5.24997 6.19895 5.24997 6.00004C5.24997 5.80113 5.32899 5.61036 5.46964 5.46971L7.96968 2.9697C8.26258 2.67681 8.73745 2.67681 9.03034 2.9697ZM4 11.75C4.41421 11.75 4.75 12.0858 4.75 12.5V14C4.75 15.7949 6.20508 17.25 8 17.25H16.1893L14.9697 16.0303C14.6768 15.7374 14.6768 15.2626 14.9697 14.9697C15.2626 14.6768 15.7375 14.6768 16.0303 14.9697L18.5303 17.4697C18.8232 17.7626 18.8232 18.2374 18.5303 18.5303L16.0303 21.0303C15.7374 21.3232 15.2626 21.3232 14.9697 21.0303C14.6768 20.7375 14.6768 20.2626 14.9697 19.9697L16.1893 18.75H8C5.37665 18.75 3.25 16.6234 3.25 14V12.5C3.25 12.0858 3.58579 11.75 4 11.75Z" fill="#23262A"/>
</svg>
