<svg width="24" height="24" viewBox="0 0 24 24" fill="none" xmlns="http://www.w3.org/2000/svg">
<path d="M3 11.25C3.41421 11.25 3.75 11.5858 3.75 12C3.75 16.5563 7.44365 20.25 12 20.25C14.7869 20.25 17.2516 18.8685 18.7461 16.75H16C15.5858 16.75 15.25 16.4142 15.25 16C15.25 15.5858 15.5858 15.25 16 15.25H20.5C20.9142 15.25 21.25 15.5858 21.25 16V20.5C21.25 20.9142 20.9142 21.25 20.5 21.25C20.0858 21.25 19.75 20.9142 19.75 20.5V17.917C17.9693 20.2459 15.1605 21.75 12 21.75C6.61522 21.75 2.25 17.3848 2.25 12C2.25 11.5858 2.58579 11.25 3 11.25ZM12 2.25C17.3848 2.25 21.75 6.61522 21.75 12C21.75 12.4142 21.4142 12.75 21 12.75C20.5858 12.7499 20.25 12.4142 20.25 12C20.25 7.44365 16.5563 3.75 12 3.75C9.21309 3.75003 6.7483 5.13159 5.25391 7.25H8C8.41421 7.25 8.75 7.58579 8.75 8C8.75 8.41421 8.41421 8.75 8 8.75H3.5C3.08579 8.75 2.75 8.41421 2.75 8V3.5C2.75 3.08579 3.08579 2.75 3.5 2.75C3.91421 2.75 4.25 3.08579 4.25 3.5V6.08301C6.03078 3.75406 8.83952 2.25003 12 2.25Z" fill="#202733"/>
</svg>
