<svg width="24" height="24" viewBox="0 0 24 24" fill="none" xmlns="http://www.w3.org/2000/svg">
<path d="M8.96973 6.96966C9.26262 6.67678 9.73738 6.67678 10.0303 6.96966C10.3232 7.26256 10.3232 7.73732 10.0303 8.03021L6.81055 11.2499H19C19.4142 11.2499 19.75 11.5857 19.75 11.9999C19.75 12.4142 19.4142 12.7499 19 12.7499H6.81055L10.0303 15.9697C10.3232 16.2626 10.3232 16.7373 10.0303 17.0302C9.73738 17.3231 9.26262 17.3231 8.96973 17.0302L4.46973 12.5302C4.32907 12.3896 4.25 12.1989 4.25 11.9999C4.25 11.801 4.32907 11.6103 4.46973 11.4697L8.96973 6.96966Z" fill="#202733"/>
</svg>
