<svg width="24" height="24" viewBox="0 0 24 24" fill="none" xmlns="http://www.w3.org/2000/svg">
<path fill-rule="evenodd" clip-rule="evenodd" d="M9.03034 4.03035C9.32324 3.73746 9.32324 3.26258 9.03035 2.96969C8.73746 2.67679 8.26258 2.67679 7.96969 2.96968L5.46965 5.46969C5.32899 5.61034 5.24997 5.80111 5.24997 6.00003C5.24997 6.19894 5.32899 6.38971 5.46965 6.53036L7.96967 9.03036C8.26257 9.32325 8.73744 9.32325 9.03033 9.03036C9.32322 8.73746 9.32322 8.26259 9.03033 7.9697L7.8106 6.74998H16C17.7949 6.74998 19.25 8.20506 19.25 9.99998V11.5C19.25 11.9142 19.5858 12.25 20 12.25C20.4142 12.25 20.75 11.9142 20.75 11.5V9.99998C20.75 7.37663 18.6234 5.24998 16 5.24998H7.81069L9.03034 4.03035ZM4.75 12.5C4.75 12.0858 4.41421 11.75 4 11.75C3.58579 11.75 3.25 12.0858 3.25 12.5V14C3.25 16.6233 5.37665 18.75 8 18.75H16.1893L14.9697 19.9697C14.6768 20.2626 14.6768 20.7374 14.9697 21.0303C15.2626 21.3232 15.7374 21.3232 16.0303 21.0303L18.5303 18.5303C18.8232 18.2374 18.8232 17.7626 18.5303 17.4697L16.0303 14.9697C15.7375 14.6768 15.2626 14.6768 14.9697 14.9697C14.6768 15.2626 14.6768 15.7374 14.9697 16.0303L16.1893 17.25H8C6.20508 17.25 4.75 15.7949 4.75 14V12.5Z" fill="#262626"/>
</svg>
