<svg width="24" height="24" viewBox="0 0 24 24" fill="none" xmlns="http://www.w3.org/2000/svg">
<path d="M4.46967 11.4697C4.32902 11.6103 4.25 11.8011 4.25 12C4.25 12.1989 4.32902 12.3897 4.46967 12.5303L8.96971 17.0303C9.2626 17.3232 9.73747 17.3232 10.0304 17.0303C10.3233 16.7374 10.3233 16.2626 10.0304 15.9697L6.81067 12.75H19C19.4142 12.75 19.75 12.4142 19.75 12C19.75 11.5858 19.4142 11.25 19 11.25H6.81067L10.0304 8.03033C10.3233 7.73744 10.3233 7.26257 10.0304 6.96967C9.73747 6.67678 9.2626 6.67678 8.9697 6.96967L4.46967 11.4697Z" fill="#23262A"/>
</svg>
