<svg width="24" height="24" viewBox="0 0 24 24" fill="none" xmlns="http://www.w3.org/2000/svg">
<path fill-rule="evenodd" clip-rule="evenodd" d="M7.53015 21.0304C7.23725 21.3233 6.76238 21.3233 6.46949 21.0304L2.96949 17.5304C2.67659 17.2375 2.67659 16.7627 2.96949 16.4698L6.46949 12.9698C6.76238 12.6769 7.23725 12.6769 7.53015 12.9698C7.82304 13.2627 7.82304 13.7375 7.53015 14.0304L5.31048 16.2501L14.4998 16.2501C14.914 16.2501 15.2498 16.5859 15.2498 17.0001C15.2498 17.4143 14.914 17.7501 14.4998 17.7501L5.31048 17.7501L7.53015 19.9698C7.82304 20.2627 7.82304 20.7375 7.53015 21.0304ZM16.4695 11.0304C16.1766 10.7375 16.1766 10.2627 16.4695 9.96976L18.6892 7.75009L9.49982 7.75009C9.0856 7.75009 8.74982 7.4143 8.74982 7.00009C8.74982 6.58588 9.0856 6.25009 9.49982 6.25009L18.6892 6.25009L16.4695 4.03042C16.1766 3.73753 16.1766 3.26266 16.4695 2.96976C16.7624 2.67687 17.2373 2.67687 17.5301 2.96976L21.0301 6.46976C21.1708 6.61041 21.2498 6.80118 21.2498 7.00009C21.2498 7.19901 21.1708 7.38977 21.0301 7.53042L17.5301 11.0304C17.2373 11.3233 16.7624 11.3233 16.4695 11.0304Z" fill="#23262A"/>
</svg>
