<svg width="24" height="24" viewBox="0 0 24 24" fill="none" xmlns="http://www.w3.org/2000/svg">
<path d="M16.0303 3.9697C15.7374 3.67681 15.2625 3.67681 14.9697 3.9697C14.6768 4.2626 14.6768 4.73747 14.9697 5.03036L18.1893 8.25H8C4.82436 8.25 2.25 10.8244 2.25 14C2.25 17.1756 4.82436 19.75 8 19.75H9.5C9.91422 19.75 10.25 19.4142 10.25 19C10.25 18.5858 9.91422 18.25 9.5 18.25H8C5.65279 18.25 3.75 16.3472 3.75 14C3.75 11.6528 5.65279 9.75 8 9.75H18.1894L14.9697 12.9697C14.6768 13.2626 14.6768 13.7375 14.9697 14.0304C15.2625 14.3233 15.7374 14.3233 16.0303 14.0304L20.5303 9.53036C20.671 9.38971 20.75 9.19895 20.75 9.00003C20.75 8.80112 20.671 8.61035 20.5303 8.4697L16.0303 3.9697Z" fill="#23262A"/>
</svg>
