<svg width="24" height="24" viewBox="0 0 24 24" fill="none" xmlns="http://www.w3.org/2000/svg">
<path fill-rule="evenodd" clip-rule="evenodd" d="M16.0303 3.96968C15.7374 3.67679 15.2625 3.67679 14.9697 3.96969C14.6768 4.26258 14.6768 4.73745 14.9697 5.03035L18.1893 8.24998H8C4.82436 8.24998 2.25 10.8243 2.25 14C2.25 17.1756 4.82436 19.75 8 19.75H9.5C9.91422 19.75 10.25 19.4142 10.25 19C10.25 18.5858 9.91422 18.25 9.5 18.25H8C5.65279 18.25 3.75 16.3472 3.75 14C3.75 11.6528 5.65279 9.74998 8 9.74998H18.1894L14.9697 12.9697C14.6768 13.2626 14.6768 13.7374 14.9697 14.0303C15.2625 14.3232 15.7374 14.3232 16.0303 14.0303L20.5303 9.53035C20.671 9.3897 20.75 9.19893 20.75 9.00002C20.75 8.8011 20.671 8.61034 20.5303 8.46969L16.0303 3.96968Z" fill="#262626"/>
</svg>
