<svg width="24" height="24" viewBox="0 0 24 24" fill="none" xmlns="http://www.w3.org/2000/svg">
<path d="M11.4696 2.48531C11.7625 2.19243 12.2373 2.19247 12.5302 2.48531C12.8231 2.7782 12.8231 3.25296 12.5302 3.54585L9.87784 6.19722L12.5302 8.84957C12.823 9.14247 12.823 9.61725 12.5302 9.91011C12.2373 10.2028 11.7625 10.2028 11.4696 9.91011L8.29484 6.73531C7.99805 6.43852 7.99802 5.95692 8.29484 5.66011L11.4696 2.48531Z" fill="#202733"/>
<path d="M3.75 13.4843C3.75 13.1429 3.77108 12.8057 3.81152 12.4746C3.86186 12.0636 4.23547 11.7711 4.64648 11.8213C5.05751 11.8714 5.34979 12.2452 5.2998 12.6562C5.26671 12.9272 5.25 13.2038 5.25 13.4843C5.25 17.2123 8.27208 20.2343 12 20.2343C15.7279 20.2343 18.75 17.2123 18.75 13.4843C18.75 9.75641 15.7279 6.73434 12 6.73434C11.3803 6.73434 10.7813 6.81798 10.2129 6.97359C9.81343 7.08296 9.40046 6.84763 9.29102 6.4482C9.18165 6.04876 9.41702 5.6358 9.81641 5.52633C10.5127 5.3357 11.2452 5.23434 12 5.23434C16.5563 5.23434 20.25 8.92799 20.25 13.4843C20.25 18.0407 16.5563 21.7343 12 21.7343C7.44365 21.7343 3.75 18.0407 3.75 13.4843Z" fill="#202733"/>
</svg>
