<svg width="24" height="24" viewBox="0 0 24 24" fill="none" xmlns="http://www.w3.org/2000/svg">
<path fill-rule="evenodd" clip-rule="evenodd" d="M13.6721 3.82546C13.9304 3.69995 14.2376 3.73288 14.4634 3.91027L21.4634 9.41027C21.6443 9.55246 21.75 9.76986 21.75 10C21.75 10.2302 21.6443 10.4476 21.4634 10.5897L14.4634 16.0897C14.2376 16.2671 13.9304 16.3001 13.6721 16.1746C13.4139 16.049 13.25 15.7871 13.25 15.5V12.7758C12.2638 12.8446 11.3918 13.0477 10.6206 13.341C8.33572 14.2101 6.86142 15.9026 5.94891 17.4184C5.49417 18.1737 5.18606 18.8739 4.99237 19.3834C4.89571 19.6376 4.82808 19.8429 4.78528 19.9821C4.76389 20.0516 4.74874 20.1045 4.7393 20.1386C4.73458 20.1556 4.73129 20.1679 4.72936 20.1752L4.72761 20.1819C4.63555 20.5491 4.28413 20.7906 3.90836 20.7444C3.53242 20.6981 3.25 20.3788 3.25 20C3.25 18.3457 3.57247 16.0586 4.47449 13.877C5.37732 11.6935 6.88705 9.55691 9.29669 8.31937C10.4295 7.73759 11.7416 7.36533 13.25 7.27271V4.50001C13.25 4.21289 13.4139 3.95097 13.6721 3.82546Z" fill="#23262A"/>
</svg>
