<svg width="24" height="24" viewBox="0 0 24 24" fill="none" xmlns="http://www.w3.org/2000/svg">
<path d="M12.75 5C12.75 4.58579 12.4142 4.25 12 4.25C11.5858 4.25 11.25 4.58579 11.25 5V17.1894L8.03033 13.9697C7.73744 13.6768 7.26257 13.6768 6.96967 13.9697C6.67678 14.2626 6.67678 14.7374 6.96967 15.0303L11.4697 19.5304C11.6103 19.671 11.8011 19.75 12 19.75C12.1989 19.75 12.3897 19.671 12.5303 19.5304L17.0303 15.0303C17.3232 14.7374 17.3232 14.2626 17.0303 13.9697C16.7374 13.6768 16.2626 13.6768 15.9697 13.9697L12.75 17.1894V5Z" fill="#23262A"/>
</svg>
