<svg width="24" height="24" viewBox="0 0 24 24" fill="none" xmlns="http://www.w3.org/2000/svg">
<path d="M14.0869 6.87335C14.378 6.68114 14.7739 6.71375 15.0302 6.97003L19.5302 11.47C19.6708 11.6107 19.75 11.8015 19.75 12.0003C19.7499 12.1991 19.6708 12.39 19.5302 12.5306L15.0302 17.0306C14.7739 17.2867 14.3779 17.3185 14.0869 17.1263C14.0455 17.0989 14.0061 17.067 13.9697 17.0306C13.7134 16.7743 13.6818 16.3783 13.874 16.0872C13.9014 16.0458 13.9332 16.0065 13.9697 15.97L17.1894 12.7503H4.99996C4.58913 12.7503 4.25535 12.4196 4.24996 12.0101C4.24992 12.0069 4.24996 12.0034 4.24996 12.0003C4.24996 11.5861 4.58577 11.2503 4.99996 11.2503H17.1894L13.9697 8.03058C13.7134 7.7743 13.6818 7.37834 13.874 7.08722C13.9014 7.0458 13.9332 7.00652 13.9697 6.97003C14.0062 6.93348 14.0454 6.90078 14.0869 6.87335Z" fill="#202733"/>
</svg>
