<svg width="24" height="24" viewBox="0 0 24 24" fill="none" xmlns="http://www.w3.org/2000/svg">
<path fill-rule="evenodd" clip-rule="evenodd" d="M16.4699 2.96959C16.7627 2.67669 17.2376 2.67669 17.5305 2.96959L21.0305 6.46959C21.3234 6.76248 21.3234 7.23735 21.0305 7.53025L17.5305 11.0302C17.2376 11.3231 16.7627 11.3231 16.4699 11.0302C16.177 10.7374 16.177 10.2625 16.4699 9.96959L18.6895 7.74992L9.50018 7.74992C9.08597 7.74992 8.75018 7.41413 8.75018 6.99992C8.75018 6.5857 9.08597 6.24992 9.50018 6.24992L18.6895 6.24992L16.4699 4.03025C16.177 3.73735 16.177 3.26248 16.4699 2.96959ZM7.53051 12.9696C7.82341 13.2625 7.82341 13.7374 7.53051 14.0302L5.31084 16.2499L14.5002 16.2499C14.9144 16.2499 15.2502 16.5857 15.2502 16.9999C15.2502 17.4141 14.9144 17.7499 14.5002 17.7499L5.31084 17.7499L7.53051 19.9696C7.82341 20.2625 7.82341 20.7374 7.53051 21.0302C7.23762 21.3231 6.76275 21.3231 6.46985 21.0302L2.96985 17.5302C2.8292 17.3896 2.75018 17.1988 2.75018 16.9999C2.75018 16.801 2.8292 16.6102 2.96985 16.4696L6.46985 12.9696C6.76275 12.6767 7.23762 12.6767 7.53051 12.9696Z" fill="#23262A"/>
</svg>
