<svg width="24" height="24" viewBox="0 0 24 24" fill="none" xmlns="http://www.w3.org/2000/svg">
<path fill-rule="evenodd" clip-rule="evenodd" d="M9.03035 5.03035C9.32324 4.73745 9.32324 4.26258 9.03035 3.96969C8.73746 3.67679 8.26258 3.67679 7.96969 3.96968L3.46966 8.46969C3.329 8.61034 3.24998 8.8011 3.24998 9.00002C3.24998 9.19893 3.329 9.3897 3.46966 9.53035L7.96969 14.0303C8.26258 14.3232 8.73746 14.3232 9.03035 14.0303C9.32324 13.7374 9.32324 13.2626 9.03035 12.9697L5.81062 9.74998H16C18.3472 9.74998 20.25 11.6528 20.25 14C20.25 16.3472 18.3472 18.25 16 18.25H14.5C14.0858 18.25 13.75 18.5858 13.75 19C13.75 19.4142 14.0858 19.75 14.5 19.75H16C19.1757 19.75 21.75 17.1756 21.75 14C21.75 10.8243 19.1757 8.24998 16 8.24998H5.81069L9.03035 5.03035Z" fill="#262626"/>
</svg>
