<svg width="24" height="24" viewBox="0 0 24 24" fill="none" xmlns="http://www.w3.org/2000/svg">
<path fill-rule="evenodd" clip-rule="evenodd" d="M17.75 18.1893L17.75 9.5C17.75 9.08579 17.4142 8.75 17 8.75C16.5858 8.75 16.25 9.08579 16.25 9.5L16.25 18.1893L14.0303 15.9697C13.7374 15.6768 13.2626 15.6768 12.9697 15.9697C12.6768 16.2626 12.6768 16.7374 12.9697 17.0303L16.4697 20.5303C16.5416 20.6022 16.6245 20.6565 16.7129 20.6931C16.8013 20.7298 16.8983 20.75 17 20.75C17.1017 20.75 17.1987 20.7298 17.2871 20.6931C17.3755 20.6565 17.4584 20.6022 17.5303 20.5303L21.0303 17.0303C21.3232 16.7374 21.3232 16.2626 21.0303 15.9697C20.7374 15.6768 20.2626 15.6768 19.9697 15.9697L17.75 18.1893ZM11.0303 6.96967L7.53033 3.46967C7.45842 3.39776 7.37555 3.34351 7.28709 3.30691C7.19866 3.27024 7.10169 3.25 7 3.25C6.80806 3.25 6.61612 3.32322 6.46967 3.46967L2.96967 6.96967C2.67678 7.26256 2.67678 7.73744 2.96967 8.03033C3.26256 8.32322 3.73744 8.32322 4.03033 8.03033L6.25 5.81066L6.25 14.5C6.25 14.9142 6.58579 15.25 7 15.25C7.41421 15.25 7.75 14.9142 7.75 14.5L7.75 5.81066L9.96967 8.03033C10.2626 8.32322 10.7374 8.32322 11.0303 8.03033C11.3232 7.73744 11.3232 7.26256 11.0303 6.96967Z" fill="#262626"/>
</svg>
