<svg width="24" height="24" viewBox="0 0 24 24" fill="none" xmlns="http://www.w3.org/2000/svg">
<path fill-rule="evenodd" clip-rule="evenodd" d="M12.0001 3.75C9.21313 3.75 6.7482 5.13154 5.25379 7.25H8C8.41421 7.25 8.75 7.58579 8.75 8C8.75 8.41421 8.41421 8.75 8 8.75H3.5C3.08579 8.75 2.75 8.41421 2.75 8V3.5C2.75 3.08579 3.08579 2.75 3.5 2.75C3.91421 2.75 4.25 3.08579 4.25 3.5V6.08333C6.03079 3.75425 8.83948 2.25 12.0001 2.25C17.3849 2.25 21.7501 6.61522 21.7501 12C21.7501 12.4142 21.4143 12.75 21.0001 12.75C20.5859 12.75 20.2501 12.4142 20.2501 12C20.2501 7.44365 16.5564 3.75 12.0001 3.75ZM3 11.25C3.41421 11.25 3.75 11.5858 3.75 12C3.75 16.5563 7.44365 20.25 12 20.25C14.787 20.25 17.2518 18.8685 18.7463 16.75H16C15.5858 16.75 15.25 16.4142 15.25 16C15.25 15.5858 15.5858 15.25 16 15.25H20.5C20.9142 15.25 21.25 15.5858 21.25 16V20.5C21.25 20.9142 20.9142 21.25 20.5 21.25C20.0858 21.25 19.75 20.9142 19.75 20.5V17.9168C17.9693 20.2458 15.1605 21.75 12 21.75C6.61522 21.75 2.25 17.3848 2.25 12C2.25 11.5858 2.58579 11.25 3 11.25Z" fill="#23262A"/>
</svg>
