<svg width="24" height="24" viewBox="0 0 24 24" fill="none" xmlns="http://www.w3.org/2000/svg">
<path fill-rule="evenodd" clip-rule="evenodd" d="M11.0303 6.03033C11.3232 5.73744 11.3232 5.26256 11.0303 4.96967C10.7374 4.67678 10.2626 4.67678 9.96967 4.96967L3.46967 11.4697C3.32714 11.6122 3.25397 11.7978 3.25016 11.9846C3.24995 11.9949 3.24995 12.0051 3.25016 12.0154C3.25208 12.1107 3.27177 12.2016 3.30604 12.285C3.34265 12.3742 3.3972 12.4578 3.46967 12.5303L9.96967 19.0303C10.2626 19.3232 10.7374 19.3232 11.0303 19.0303C11.3232 18.7374 11.3232 18.2626 11.0303 17.9697L5.81066 12.75L20.5 12.75C20.9142 12.75 21.25 12.4142 21.25 12C21.25 11.5858 20.9142 11.25 20.5 11.25L5.81066 11.25L11.0303 6.03033Z" fill="#23262A"/>
</svg>
