<svg width="24" height="24" viewBox="0 0 24 24" fill="none" xmlns="http://www.w3.org/2000/svg">
<path d="M9.03033 5.03036C9.32323 4.73747 9.32323 4.2626 9.03033 3.9697C8.73744 3.67681 8.26257 3.67681 7.96967 3.9697L3.46964 8.4697C3.32899 8.61035 3.24997 8.80112 3.24997 9.00003C3.24997 9.19895 3.32899 9.38971 3.46964 9.53036L7.96967 14.0304C8.26257 14.3233 8.73744 14.3233 9.03033 14.0304C9.32323 13.7375 9.32322 13.2626 9.03033 12.9697L5.81061 9.75H16C18.3472 9.75 20.25 11.6528 20.25 14C20.25 16.3472 18.3472 18.25 16 18.25H14.5C14.0858 18.25 13.75 18.5858 13.75 19C13.75 19.4142 14.0858 19.75 14.5 19.75H16C19.1756 19.75 21.75 17.1756 21.75 14C21.75 10.8244 19.1756 8.25 16 8.25H5.81067L9.03033 5.03036Z" fill="#23262A"/>
</svg>
