<svg width="24" height="24" viewBox="0 0 24 24" fill="none" xmlns="http://www.w3.org/2000/svg">
<path d="M14.0873 6.87357C14.0457 6.90102 14.0062 6.93306 13.9696 6.96967C13.933 7.00628 13.901 7.04574 13.8735 7.08733C13.6813 7.37844 13.7134 7.77405 13.9696 8.03033L17.1893 11.25H5C4.58579 11.25 4.25 11.5858 4.25 12C4.25 12.0032 4.25002 12.0065 4.25006 12.0097C4.25525 12.4194 4.58902 12.75 5 12.75H17.1893L13.9696 15.9697C13.933 16.0063 13.901 16.0457 13.8735 16.0873C13.6813 16.3784 13.7134 16.774 13.9696 17.0303C14.0062 17.0669 14.0457 17.099 14.0873 17.1264C14.3784 17.3186 14.774 17.2866 15.0303 17.0303L19.5303 12.5303C19.671 12.3897 19.75 12.1989 19.75 12C19.75 11.8011 19.671 11.6103 19.5303 11.4697L15.0303 6.96967C14.774 6.71339 14.3784 6.68135 14.0873 6.87357Z" fill="#23262A"/>
</svg>
