<svg width="24" height="24" viewBox="0 0 24 24" fill="none" xmlns="http://www.w3.org/2000/svg">
<path d="M7 15.25C7.41422 15.25 7.75 14.9142 7.75 14.5V5.31055L9.96973 7.53028C10.2626 7.82317 10.7374 7.82317 11.0303 7.53028C11.3232 7.23738 11.3232 6.76262 11.0303 6.46973L7.53028 2.96973C7.23738 2.67684 6.76262 2.67684 6.46973 2.96973L2.96973 6.46973C2.67684 6.76262 2.67684 7.23738 2.96973 7.53028C3.26262 7.82317 3.73738 7.82317 4.03028 7.53028L6.25 5.31055V14.5C6.25 14.9142 6.58579 15.25 7 15.25Z" fill="#202733"/>
<path d="M16.4697 21.0303C16.7626 21.3232 17.2374 21.3232 17.5303 21.0303L21.0303 17.5303C21.3232 17.2374 21.3232 16.7626 21.0303 16.4697C20.7374 16.1768 20.2626 16.1768 19.9697 16.4697L17.75 18.6895V9.5C17.75 9.08579 17.4142 8.75 17 8.75C16.5858 8.75 16.25 9.08579 16.25 9.5V18.6895L14.0303 16.4697C13.7374 16.1768 13.2626 16.1768 12.9697 16.4697C12.6768 16.7626 12.6768 17.2374 12.9697 17.5303L16.4697 21.0303Z" fill="#202733"/>
</svg>
