<svg width="24" height="24" viewBox="0 0 24 24" fill="none" xmlns="http://www.w3.org/2000/svg">
<path fill-rule="evenodd" clip-rule="evenodd" d="M17.5303 2.96967C17.2374 2.67678 16.7626 2.67678 16.4697 2.96967C16.1768 3.26256 16.1768 3.73744 16.4697 4.03033L18.6893 6.25L9.5 6.25C9.08579 6.25 8.75 6.58579 8.75 7C8.75 7.41421 9.08579 7.75 9.5 7.75L18.6893 7.75L16.4697 9.96967C16.1768 10.2626 16.1768 10.7374 16.4697 11.0303C16.7626 11.3232 17.2374 11.3232 17.5303 11.0303L21.0303 7.53033C21.3232 7.23744 21.3232 6.76256 21.0303 6.46967L17.5303 2.96967ZM5.31066 16.25L7.53033 14.0303C7.82322 13.7374 7.82322 13.2626 7.53033 12.9697C7.23744 12.6768 6.76256 12.6768 6.46967 12.9697L2.96967 16.4697C2.82902 16.6103 2.75 16.8011 2.75 17C2.75 17.1989 2.82902 17.3897 2.96967 17.5303L6.46967 21.0303C6.76256 21.3232 7.23744 21.3232 7.53033 21.0303C7.82322 20.7374 7.82322 20.2626 7.53033 19.9697L5.31066 17.75L14.5 17.75C14.9142 17.75 15.25 17.4142 15.25 17C15.25 16.5858 14.9142 16.25 14.5 16.25L5.31066 16.25Z" fill="#262626"/>
</svg>
