<svg width="24" height="24" viewBox="0 0 24 24" fill="none" xmlns="http://www.w3.org/2000/svg">
<path d="M18.7463 7.25C17.2522 5.1318 14.787 3.75 12 3.75C7.44365 3.75 3.75 7.44365 3.75 12C3.75 16.5563 7.44365 20.25 12 20.25C16.5563 20.25 20.25 16.5563 20.25 12C20.25 11.5858 20.5858 11.25 21 11.25C21.4142 11.25 21.75 11.5858 21.75 12C21.75 17.3848 17.3848 21.75 12 21.75C6.61522 21.75 2.25 17.3848 2.25 12C2.25 6.61522 6.61522 2.25 12 2.25C15.1606 2.25 17.969 3.75399 19.75 6.08327V3.5C19.75 3.08579 20.0858 2.75 20.5 2.75C20.9142 2.75 21.25 3.08579 21.25 3.5V8C21.25 8.41421 20.9142 8.75 20.5 8.75H16C15.5858 8.75 15.25 8.41421 15.25 8C15.25 7.58579 15.5858 7.25 16 7.25H18.7463Z" fill="#23262A"/>
</svg>
