<svg width="24" height="24" viewBox="0 0 24 24" fill="none" xmlns="http://www.w3.org/2000/svg">
<path fill-rule="evenodd" clip-rule="evenodd" d="M16.4697 21.0303C16.7626 21.3232 17.2374 21.3232 17.5303 21.0303L21.0303 17.5303C21.3232 17.2374 21.3232 16.7626 21.0303 16.4697C20.7374 16.1768 20.2626 16.1768 19.9697 16.4697L17.75 18.6893L17.75 9.5C17.75 9.08579 17.4142 8.75 17 8.75C16.5858 8.75 16.25 9.08579 16.25 9.5L16.25 18.6893L14.0303 16.4697C13.7374 16.1768 13.2626 16.1768 12.9697 16.4697C12.6768 16.7626 12.6768 17.2374 12.9697 17.5303L16.4697 21.0303ZM4.03033 7.53033L6.25 5.31066L6.25 14.5C6.25 14.9142 6.58579 15.25 7 15.25C7.41421 15.25 7.75 14.9142 7.75 14.5L7.75 5.31066L9.96967 7.53033C10.2626 7.82322 10.7374 7.82322 11.0303 7.53033C11.3232 7.23744 11.3232 6.76256 11.0303 6.46967L7.53033 2.96967C7.23744 2.67678 6.76256 2.67678 6.46967 2.96967L2.96967 6.46967C2.67678 6.76256 2.67678 7.23744 2.96967 7.53033C3.26256 7.82322 3.73744 7.82322 4.03033 7.53033Z" fill="#23262A"/>
</svg>
