<svg width="24" height="24" viewBox="0 0 24 24" fill="none" xmlns="http://www.w3.org/2000/svg">
<path d="M14.0869 6.87335C14.378 6.68113 14.774 6.71375 15.0303 6.97003L19.5303 11.47C19.6708 11.6107 19.75 11.8015 19.75 12.0003C19.7499 12.1991 19.6708 12.39 19.5303 12.5306L15.0303 17.0306C14.774 17.2867 14.378 17.3185 14.0869 17.1263C14.0455 17.0989 14.0062 17.067 13.9697 17.0306C13.7134 16.7743 13.6818 16.3783 13.874 16.0872C13.9014 16.0458 13.9332 16.0065 13.9697 15.97L17.1894 12.7503H4.99999C4.58914 12.7503 4.25537 12.4196 4.24999 12.0101C4.24995 12.0069 4.24999 12.0034 4.24999 12.0003C4.24999 11.5861 4.58578 11.2503 4.99999 11.2503H17.1894L13.9697 8.03057C13.7134 7.77429 13.6818 7.37833 13.874 7.08721C13.9014 7.04579 13.9332 7.00651 13.9697 6.97003C14.0063 6.93347 14.0454 6.90078 14.0869 6.87335Z" fill="#202733"/>
</svg>
