<svg width="24" height="24" viewBox="0 0 24 24" fill="none" xmlns="http://www.w3.org/2000/svg">
<path d="M16.4695 11.0302C16.7624 11.3231 17.2372 11.3231 17.5301 11.0302L21.0301 7.53018C21.1707 7.38953 21.2498 7.19882 21.2498 6.9999C21.2498 6.80099 21.1707 6.61028 21.0301 6.46963L17.5301 2.96963C17.2372 2.67674 16.7624 2.67674 16.4695 2.96963C16.1766 3.26252 16.1766 3.73728 16.4695 4.03018L18.6892 6.2499H9.49979C9.08558 6.2499 8.74979 6.58569 8.74979 6.9999C8.74979 7.41412 9.08558 7.7499 9.49979 7.7499H18.6892L16.4695 9.96963C16.1766 10.2625 16.1766 10.7373 16.4695 11.0302Z" fill="#202733"/>
<path d="M6.46952 21.0302C6.76241 21.3231 7.23717 21.3231 7.53006 21.0302C7.82296 20.7373 7.82296 20.2625 7.53006 19.9696L5.31034 17.7499H14.4998C14.914 17.7499 15.2498 17.4141 15.2498 16.9999C15.2498 16.5857 14.914 16.2499 14.4998 16.2499H5.31034L7.53006 14.0302C7.82296 13.7373 7.82296 13.2625 7.53006 12.9696C7.23717 12.6767 6.76241 12.6767 6.46952 12.9696L2.96952 16.4696C2.67662 16.7625 2.67662 17.2373 2.96952 17.5302L6.46952 21.0302Z" fill="#202733"/>
</svg>
