<svg width="24" height="24" viewBox="0 0 24 24" fill="none" xmlns="http://www.w3.org/2000/svg">
<path d="M6.5 11.25C5.80964 11.25 5.25 10.6904 5.25 10L5.25 4C5.25 3.58579 4.91421 3.25 4.5 3.25C4.08579 3.25 3.75 3.58579 3.75 4V10C3.75 11.5188 4.98122 12.75 6.5 12.75L17.1893 12.75L13.9696 15.9697C13.6767 16.2626 13.6767 16.7374 13.9696 17.0303C14.2625 17.3232 14.7374 17.3232 15.0303 17.0303L19.5303 12.5303C19.671 12.3897 19.75 12.1989 19.75 12C19.75 11.8011 19.671 11.6103 19.5303 11.4697L15.0303 6.96967C14.7374 6.67678 14.2625 6.67678 13.9696 6.96967C13.6767 7.26257 13.6767 7.73744 13.9696 8.03033L17.1893 11.25L6.5 11.25Z" fill="#23262A"/>
</svg>
