<svg width="24" height="24" viewBox="0 0 24 24" fill="none" xmlns="http://www.w3.org/2000/svg">
<path fill-rule="evenodd" clip-rule="evenodd" d="M5.25379 7.25C6.7482 5.13154 9.21313 3.75 12.0001 3.75C16.5564 3.75 20.2501 7.44365 20.2501 12C20.2501 12.4142 20.5859 12.75 21.0001 12.75C21.4143 12.75 21.7501 12.4142 21.7501 12C21.7501 6.61522 17.3849 2.25 12.0001 2.25C8.83948 2.25 6.03079 3.75425 4.25 6.08333V3.5C4.25 3.08579 3.91421 2.75 3.5 2.75C3.08579 2.75 2.75 3.08579 2.75 3.5V8C2.75 8.41421 3.08579 8.75 3.5 8.75H8C8.41421 8.75 8.75 8.41421 8.75 8C8.75 7.58579 8.41421 7.25 8 7.25H5.25379ZM16 15.25C15.5858 15.25 15.25 15.5858 15.25 16C15.25 16.4142 15.5858 16.75 16 16.75H18.7463C17.2518 18.8685 14.787 20.25 12 20.25C7.44365 20.25 3.75 16.5563 3.75 12C3.75 11.5858 3.41421 11.25 3 11.25C2.58579 11.25 2.25 11.5858 2.25 12C2.25 17.3848 6.61522 21.75 12 21.75C15.1605 21.75 17.9693 20.2458 19.75 17.9168V20.5C19.75 20.9142 20.0858 21.25 20.5 21.25C20.9142 21.25 21.25 20.9142 21.25 20.5V16C21.25 15.5858 20.9142 15.25 20.5 15.25H16Z" fill="#262626"/>
</svg>
