<svg width="24" height="24" viewBox="0 0 24 24" fill="none" xmlns="http://www.w3.org/2000/svg">
<path d="M14.2629 6.19384L12 3.93096L9.73711 6.19384C9.42469 6.50626 8.91844 6.50626 8.60602 6.19384C8.2936 5.88142 8.2936 5.37516 8.60602 5.06274L11.4344 2.23431C11.7469 1.9219 12.2531 1.9219 12.5655 2.23431L15.394 5.06274C15.7064 5.37516 15.7064 5.88142 15.394 6.19384C15.0815 6.50626 14.5753 6.50626 14.2629 6.19384Z" fill="#202733"/>
<path d="M17.8062 14.2629L20.069 12L17.8062 9.73712C17.4937 9.4247 17.4937 8.91845 17.8062 8.60603C18.1186 8.29361 18.6248 8.29361 18.9373 8.60603L21.7657 11.4345C22.0781 11.7469 22.0781 12.2531 21.7657 12.5655L18.9373 15.394C18.6248 15.7064 18.1186 15.7064 17.8062 15.394C17.4937 15.0816 17.4937 14.5753 17.8062 14.2629Z" fill="#202733"/>
<path d="M14.2629 17.8062L12 20.069L9.73711 17.8062C9.42469 17.4937 8.91844 17.4937 8.60602 17.8062C8.2936 18.1186 8.2936 18.6248 8.60602 18.9373L11.4344 21.7657C11.7469 22.0781 12.2531 22.0781 12.5655 21.7657L15.394 18.9373C15.7064 18.6248 15.7064 18.1186 15.394 17.8062C15.0815 17.4937 14.5753 17.4937 14.2629 17.8062Z" fill="#202733"/>
<path d="M6.19384 14.2629L3.93096 12L6.19384 9.73712C6.50626 9.4247 6.50626 8.91845 6.19384 8.60603C5.88142 8.29361 5.37516 8.29361 5.06274 8.60603L2.23431 11.4345C1.9219 11.7469 1.9219 12.2531 2.23431 12.5655L5.06274 15.394C5.37516 15.7064 5.88142 15.7064 6.19384 15.394C6.50626 15.0816 6.50626 14.5753 6.19384 14.2629Z" fill="#202733"/>
<path d="M12.75 19.6331C12.75 20.0473 12.4142 20.3831 12 20.3831C11.5858 20.3831 11.25 20.0473 11.25 19.6331V3.63306C11.25 3.21884 11.5858 2.88306 12 2.88306C12.4142 2.88306 12.75 3.21884 12.75 3.63306V19.6331Z" fill="#202733"/>
<path d="M4.36694 12.75C3.95273 12.75 3.61694 12.4142 3.61694 12C3.61694 11.5858 3.95273 11.25 4.36694 11.25L20.3669 11.25C20.7812 11.25 21.1169 11.5858 21.1169 12C21.1169 12.4142 20.7812 12.75 20.3669 12.75L4.36694 12.75Z" fill="#202733"/>
</svg>
