<svg xmlns="http://www.w3.org/2000/svg" width="24" height="24" viewBox="0 0 24 24" fill="none">
  <path d="M7.8595 3.76263C11.0369 3.15762 12.8833 3.14615 16.1398 3.76263C16.4937 3.82971 16.7499 4.13977 16.7501 4.49994V9.85443L20.6964 19.7206C20.7888 19.9515 20.7604 20.2139 20.6212 20.4199C20.4817 20.6259 20.2489 20.7499 20.0001 20.7499H4.00012C3.75125 20.7499 3.51855 20.6259 3.37903 20.4199C3.23973 20.2138 3.21146 19.9516 3.30383 19.7206L7.25012 9.85443V4.49994C7.25034 4.14012 7.50604 3.83009 7.8595 3.76263ZM8.00012 13.9999C8.00012 14.7021 8.18518 15.3919 8.53625 15.9999C8.88732 16.608 9.3921 17.1128 10.0001 17.4638L11.0001 15.7324C10.6961 15.5568 10.4432 15.304 10.2677 14.9999C10.0922 14.6959 10.0001 14.351 10.0001 13.9999H8.00012ZM14.0001 13.9999C14.0001 14.351 13.9071 14.6959 13.7316 14.9999C13.556 15.3039 13.3041 15.5569 13.0001 15.7324L14.0001 17.4638C14.6081 17.1127 15.113 16.6079 15.464 15.9999C15.8151 15.3919 16.0001 14.7021 16.0001 13.9999H14.0001ZM12.0001 12.9999C11.4479 12.9999 11.0002 13.4477 11.0001 13.9999C11.0001 14.5522 11.4478 14.9999 12.0001 14.9999C12.5524 14.9999 13.0001 14.5522 13.0001 13.9999C13.0001 13.4477 12.5523 13 12.0001 12.9999ZM12.0001 9.99994C11.298 9.99994 10.6082 10.185 10.0001 10.5361L11.0001 12.2675C11.3041 12.0921 11.6492 11.9999 12.0001 11.9999C12.3511 12 12.6961 12.092 13.0001 12.2675L14.0001 10.5361C13.3921 10.185 12.7022 9.99996 12.0001 9.99994Z" fill="#202733"/>
</svg>