<svg width="24" height="24" viewBox="0 0 24 24" fill="none" xmlns="http://www.w3.org/2000/svg">
<path fill-rule="evenodd" clip-rule="evenodd" d="M7.75 8C7.75 5.65279 9.65279 3.75 12 3.75C14.3472 3.75 16.25 5.65279 16.25 8C16.25 10.3472 14.3472 12.25 12 12.25C9.65279 12.25 7.75 10.3472 7.75 8ZM12 2.25C8.82436 2.25 6.25 4.82436 6.25 8V12.632C6.25 12.7267 6.3035 12.8132 6.3882 12.8556L7.34995 13.3365L11.4676 15.624C11.5494 15.6695 11.6498 15.6654 11.7276 15.6135L16.5811 12.3779L17.6406 11.6574C17.709 11.6109 17.75 11.5335 17.75 11.4507V8C17.75 4.82436 15.1756 2.25 12 2.25ZM6.25 14.8681C6.25 14.6822 6.44558 14.5613 6.6118 14.6444L6.64998 14.6635L9.83845 16.4349C10.0021 16.5258 10.0114 16.7576 9.85572 16.8615L7.19451 18.6356C7.07296 18.7166 6.90766 18.6768 6.84289 18.5459C6.46332 17.7785 6.25 16.9141 6.25 16V14.8681ZM8.07607 20.203C7.96209 20.0966 7.98201 19.9134 8.11178 19.8269L17.416 13.6241C17.5579 13.5275 17.75 13.6292 17.75 13.8008V16C17.75 19.1756 15.1756 21.75 12 21.75C10.4832 21.75 9.10353 21.1627 8.07607 20.203ZM9.75 8C9.75 7.58579 10.0858 7.25 10.5 7.25H10.51C10.9242 7.25 11.26 7.58579 11.26 8C11.26 8.41421 10.9242 8.75 10.51 8.75H10.5C10.0858 8.75 9.75 8.41421 9.75 8ZM13.5 7.25C13.0858 7.25 12.75 7.58579 12.75 8C12.75 8.41421 13.0858 8.75 13.5 8.75H13.51C13.9242 8.75 14.26 8.41421 14.26 8C14.26 7.58579 13.9242 7.25 13.51 7.25H13.5Z" fill="#23262A"/>
</svg>
