<svg width="24" height="24" viewBox="0 0 24 24" fill="none" xmlns="http://www.w3.org/2000/svg">
<path fill-rule="evenodd" clip-rule="evenodd" d="M7.75 8C7.75 5.65279 9.65279 3.75 12 3.75C14.3472 3.75 16.25 5.65279 16.25 8C16.25 10.3472 14.3472 12.25 12 12.25C9.65279 12.25 7.75 10.3472 7.75 8ZM7.75 11.873C8.80159 13.0263 10.3163 13.75 12 13.75C13.6837 13.75 15.1984 13.0263 16.25 11.873V12.5986L11.6008 15.6981L7.75 13.5587V11.873ZM7.75 15.2746V16C7.75 16.7029 7.92066 17.366 8.2228 17.9501L10.1969 16.634L7.75 15.2746ZM9.1385 19.1424L16.25 14.4014V16C16.25 18.3472 14.3472 20.25 12 20.25C10.8979 20.25 9.89369 19.8305 9.1385 19.1424ZM12 2.25C8.82436 2.25 6.25 4.82436 6.25 8V16C6.25 19.1756 8.82436 21.75 12 21.75C15.1756 21.75 17.75 19.1756 17.75 16V8C17.75 4.82436 15.1756 2.25 12 2.25ZM10.5 7.25C10.0858 7.25 9.75 7.58579 9.75 8C9.75 8.41421 10.0858 8.75 10.5 8.75H10.51C10.9242 8.75 11.26 8.41421 11.26 8C11.26 7.58579 10.9242 7.25 10.51 7.25H10.5ZM12.75 8C12.75 7.58579 13.0858 7.25 13.5 7.25H13.51C13.9242 7.25 14.26 7.58579 14.26 8C14.26 8.41421 13.9242 8.75 13.51 8.75H13.5C13.0858 8.75 12.75 8.41421 12.75 8Z" fill="#262626"/>
</svg>
