<svg width="24" height="24" viewBox="0 0 24 24" fill="none" xmlns="http://www.w3.org/2000/svg">
<path fill-rule="evenodd" clip-rule="evenodd" d="M6.25 8C6.25 4.82436 8.82436 2.25 12 2.25C15.1756 2.25 17.75 4.82436 17.75 8V16C17.75 19.1756 15.1756 21.75 12 21.75C8.82436 21.75 6.25 19.1756 6.25 16V8ZM12 3.75C9.65279 3.75 7.75 5.65279 7.75 8C7.75 10.3472 9.65279 12.25 12 12.25C14.3472 12.25 16.25 10.3472 16.25 8C16.25 5.65279 14.3472 3.75 12 3.75ZM12 13.75C10.3163 13.75 8.80159 13.0263 7.75 11.873V13.5587L11.6008 15.6981L16.25 12.5986V11.873C15.1984 13.0263 13.6837 13.75 12 13.75ZM7.75 15.2746L10.1969 16.634L8.2228 17.9501C7.92066 17.366 7.75 16.7029 7.75 16V15.2746ZM16.25 14.4014L9.1385 19.1424C9.89369 19.8305 10.8979 20.25 12 20.25C14.3472 20.25 16.25 18.3472 16.25 16V14.4014ZM9.75 8C9.75 7.58579 10.0858 7.25 10.5 7.25H10.51C10.9242 7.25 11.26 7.58579 11.26 8C11.26 8.41421 10.9242 8.75 10.51 8.75H10.5C10.0858 8.75 9.75 8.41421 9.75 8ZM12.75 8C12.75 7.58579 13.0858 7.25 13.5 7.25H13.51C13.9242 7.25 14.26 7.58579 14.26 8C14.26 8.41421 13.9242 8.75 13.51 8.75H13.5C13.0858 8.75 12.75 8.41421 12.75 8Z" fill="#23262A"/>
</svg>
