<svg width="24" height="24" viewBox="0 0 24 24" fill="none" xmlns="http://www.w3.org/2000/svg">
<path fill-rule="evenodd" clip-rule="evenodd" d="M9.15012 13.5298C8.59456 13.2211 8.25 12.6355 8.25 12C8.25 11.3645 8.59456 10.7789 9.15012 10.4702L12.75 8.47029V7C12.75 6.73426 12.6094 6.48836 12.3803 6.3536C12.1513 6.21883 11.8681 6.21533 11.6358 6.34438L2.63577 11.3444C2.39767 11.4767 2.25 11.7276 2.25 12C2.25 12.2724 2.39767 12.5233 2.63577 12.6556L11.6358 17.6556C11.8681 17.7847 12.1513 17.7812 12.3803 17.6464C12.6094 17.5116 12.75 17.2657 12.75 17V15.5297L9.15012 13.5298ZM18.6358 6.34438C18.8681 6.21533 19.1513 6.21883 19.3803 6.3536C19.6094 6.48836 19.75 6.73426 19.75 7V17C19.75 17.2657 19.6094 17.5116 19.3803 17.6464C19.1513 17.7812 18.8681 17.7847 18.6358 17.6556L9.63577 12.6556C9.39767 12.5233 9.25 12.2724 9.25 12C9.25 11.7276 9.39767 11.4767 9.63577 11.3444L18.6358 6.34438Z" fill="#23262A"/>
</svg>
