<svg width="24" height="24" viewBox="0 0 24 24" fill="none" xmlns="http://www.w3.org/2000/svg">
<path fill-rule="evenodd" clip-rule="evenodd" d="M10.75 4.5C10.75 4.36193 10.8619 4.25 11 4.25H13C13.1381 4.25 13.25 4.36193 13.25 4.5V5.25534C13.1671 5.25179 13.0838 5.25 13 5.25H11C10.9162 5.25 10.8329 5.25179 10.75 5.25534V4.5ZM9.25 5.52115V4.5C9.25 3.5335 10.0335 2.75 11 2.75H13C13.9665 2.75 14.75 3.5335 14.75 4.5V5.52115C17.0699 6.26153 18.75 8.43456 18.75 11V12.25H19C20.5188 12.25 21.75 13.4812 21.75 15V18C21.75 18.9665 20.9665 19.75 20 19.75H18.75V20C18.75 20.9665 17.9665 21.75 17 21.75H7C6.0335 21.75 5.25 20.9665 5.25 20V19.75H4C3.0335 19.75 2.25 18.9665 2.25 18V15C2.25 13.4812 3.48122 12.25 5 12.25H5.25V11C5.25 8.43456 6.93008 6.26153 9.25 5.52115ZM19 13.75C18.8619 13.75 18.75 13.8619 18.75 14V18C18.75 18.1381 18.8619 18.25 19 18.25H20C20.1381 18.25 20.25 18.1381 20.25 18V15C20.25 14.3096 19.6904 13.75 19 13.75ZM3.75 15C3.75 14.3096 4.30964 13.75 5 13.75C5.13807 13.75 5.25 13.8619 5.25 14V18C5.25 18.1381 5.13807 18.25 5 18.25H4C3.86193 18.25 3.75 18.1381 3.75 18V15ZM9.25 10C9.25 9.58579 9.58579 9.25 10 9.25H14C14.4142 9.25 14.75 9.58579 14.75 10C14.75 10.4142 14.4142 10.75 14 10.75H10C9.58579 10.75 9.25 10.4142 9.25 10ZM10 13.25C9.0335 13.25 8.25 14.0335 8.25 15V17C8.25 17.9665 9.0335 18.75 10 18.75H14C14.9665 18.75 15.75 17.9665 15.75 17V15C15.75 14.0335 14.9665 13.25 14 13.25H10ZM9.75 15C9.75 14.8619 9.86193 14.75 10 14.75H14C14.1381 14.75 14.25 14.8619 14.25 15V17C14.25 17.1381 14.1381 17.25 14 17.25H10C9.86193 17.25 9.75 17.1381 9.75 17V15Z" fill="#23262A"/>
</svg>
