<svg width="24" height="24" viewBox="0 0 24 24" fill="none" xmlns="http://www.w3.org/2000/svg">
<path fill-rule="evenodd" clip-rule="evenodd" d="M12.75 7C12.75 6.73426 12.6094 6.48836 12.3803 6.3536C12.1513 6.21883 11.8681 6.21533 11.6358 6.34438L2.63577 11.3444C2.39767 11.4767 2.25 11.7276 2.25 12C2.25 12.2724 2.39767 12.5233 2.63577 12.6556L11.6358 17.6556C11.8681 17.7847 12.1513 17.7812 12.3803 17.6464C12.6094 17.5116 12.75 17.2657 12.75 17V15.5C12.75 15.0858 12.4142 14.75 12 14.75C11.5858 14.75 11.25 15.0858 11.25 15.5V15.7254L4.54434 12L11.25 8.27464V8.5C11.25 8.91421 11.5858 9.25 12 9.25C12.4142 9.25 12.75 8.91421 12.75 8.5V7ZM19.75 7C19.75 6.73426 19.6094 6.48836 19.3803 6.3536C19.1513 6.21883 18.8681 6.21533 18.6358 6.34438L9.63577 11.3444C9.39767 11.4767 9.25 11.7276 9.25 12C9.25 12.2724 9.39767 12.5233 9.63577 12.6556L18.6358 17.6556C18.8681 17.7847 19.1513 17.7812 19.3803 17.6464C19.6094 17.5116 19.75 17.2657 19.75 17V7ZM18.25 15.7254L11.5443 12L18.25 8.27464V15.7254Z" fill="#23262A"/>
</svg>
