<svg width="24" height="24" viewBox="0 0 24 24" fill="none" xmlns="http://www.w3.org/2000/svg">
<path fill-rule="evenodd" clip-rule="evenodd" d="M9.25 5.52115C6.93008 6.26153 5.25 8.43456 5.25 11V12.25H5C3.48122 12.25 2.25 13.4812 2.25 15V18C2.25 18.9665 3.0335 19.75 4 19.75H5.25V20C5.25 20.9665 6.0335 21.75 7 21.75H17C17.9665 21.75 18.75 20.9665 18.75 20V19.75H20C20.9665 19.75 21.75 18.9665 21.75 18V15C21.75 13.4812 20.5188 12.25 19 12.25H18.75V11C18.75 8.43456 17.0699 6.26153 14.75 5.52115V4.5C14.75 3.5335 13.9665 2.75 13 2.75H11C10.0335 2.75 9.25 3.5335 9.25 4.5V5.52115ZM11 4.25C10.8619 4.25 10.75 4.36193 10.75 4.5V5.25534C10.8329 5.25179 10.9162 5.25 11 5.25H13C13.0838 5.25 13.1671 5.25179 13.25 5.25534V4.5C13.25 4.36193 13.1381 4.25 13 4.25H11ZM6.75 11C6.75 8.65279 8.65279 6.75 11 6.75H13C15.3472 6.75 17.25 8.65279 17.25 11V20C17.25 20.1381 17.1381 20.25 17 20.25H7C6.86193 20.25 6.75 20.1381 6.75 20V11ZM4 18.25C3.86193 18.25 3.75 18.1381 3.75 18V15C3.75 14.3096 4.30964 13.75 5 13.75H5.25V18.25H4ZM19 13.75C19.6904 13.75 20.25 14.3096 20.25 15V18C20.25 18.1381 20.1381 18.25 20 18.25H18.75V13.75H19ZM9.25 10C9.25 9.58579 9.58579 9.25 10 9.25H14C14.4142 9.25 14.75 9.58579 14.75 10C14.75 10.4142 14.4142 10.75 14 10.75H10C9.58579 10.75 9.25 10.4142 9.25 10ZM8.25 15C8.25 14.0335 9.0335 13.25 10 13.25H14C14.9665 13.25 15.75 14.0335 15.75 15V17C15.75 17.9665 14.9665 18.75 14 18.75H10C9.0335 18.75 8.25 17.9665 8.25 17V15ZM10 14.75C9.86193 14.75 9.75 14.8619 9.75 15V17C9.75 17.1381 9.86193 17.25 10 17.25H14C14.1381 17.25 14.25 17.1381 14.25 17V15C14.25 14.8619 14.1381 14.75 14 14.75H10Z" fill="#23262A"/>
</svg>
