<svg width="24" height="24" viewBox="0 0 24 24" fill="none" xmlns="http://www.w3.org/2000/svg">
<path fill-rule="evenodd" clip-rule="evenodd" d="M11.7805 2.31687C12.1578 2.1459 12.6023 2.31315 12.7732 2.69043L12.9629 3.10889C13.7027 2.95199 14.4436 2.97674 15.1006 3.14464C15.9856 3.37082 16.6751 3.75613 17.194 4.28806L17.9349 3.81158C18.2833 3.58752 18.7473 3.68831 18.9714 4.03669C19.1954 4.38507 19.0947 4.84913 18.7463 5.07319L18.0121 5.54537C18.2775 6.17983 18.4077 6.87969 18.4754 7.59357C18.5386 8.2604 18.5497 8.97399 18.5497 9.70104C18.5497 10.1593 18.5323 10.7312 18.4789 11.372L19.5697 11.5445C19.9788 11.6093 20.258 11.9934 20.1933 12.4025C20.1285 12.8117 19.7444 13.0908 19.3353 13.0261L18.2983 12.8621C18.21 13.4108 18.0926 13.983 17.9372 14.5583C17.8252 14.9728 17.693 15.3907 17.5371 15.8038L18.6079 16.2124C18.9949 16.36 19.189 16.7935 19.0413 17.1805C18.8937 17.5675 18.4602 17.7615 18.0732 17.6138L16.9136 17.1714C16.582 17.7782 16.1814 18.3555 15.6971 18.8694C15.1488 19.4513 14.4964 19.9482 13.7252 20.3125L13.8925 20.7071C14.0543 21.0884 13.8762 21.5286 13.4949 21.6904C13.1136 21.8521 12.6733 21.6741 12.5116 21.2928L12.3002 20.7943C11.7766 20.9085 11.2163 20.9686 10.6177 20.9686C10.3057 20.9686 10.007 20.9626 9.7213 20.9509C8.72362 20.9102 7.87751 20.7999 7.16871 20.6293C6.72868 20.5234 6.33473 20.3927 5.98709 20.237L5.1645 21.4266C4.92891 21.7673 4.46174 21.8525 4.12105 21.6169C3.78036 21.3813 3.69515 20.9141 3.93074 20.5734L4.75284 19.3845C4.23516 18.8181 4.03321 18.13 4.13426 17.4134C4.20292 16.9265 4.40587 16.4643 4.68557 16.0475L4.15286 15.7178C3.80067 15.4998 3.6919 15.0375 3.90992 14.6853C4.12794 14.3331 4.59018 14.2244 4.94238 14.4424L5.70237 14.9128L5.75137 14.8648L5.75142 14.8647C6.09815 14.5245 6.4254 14.2034 6.74334 13.8562C7.26531 13.2861 7.71754 12.6905 8.06318 11.9634C8.2298 11.6128 8.37429 11.2261 8.48893 10.7906L7.48723 10.6208C7.07884 10.5516 6.80389 10.1644 6.87311 9.75602C6.94233 9.34763 7.32951 9.07268 7.73789 9.1419L8.73672 9.31119C8.74465 9.21797 8.75149 9.12291 8.7572 9.02594C8.78255 8.59489 8.83135 8.18848 8.90167 7.80594C9.0011 7.2651 9.14357 6.77196 9.32343 6.32494L8.61224 5.94574C8.24673 5.75086 8.10841 5.29658 8.30329 4.93107C8.49818 4.56557 8.95246 4.42725 9.31796 4.62213L10.048 5.0114C10.484 4.41956 11.0021 3.96944 11.5599 3.64698L11.407 3.30957C11.236 2.93229 11.4032 2.48785 11.7805 2.31687ZM14.6054 17.8407C14.043 18.4375 13.3563 18.9069 12.509 19.1852L12.4989 19.1884C11.9541 19.3661 11.3315 19.4686 10.6177 19.4686C10.3248 19.4686 10.0466 19.463 9.78251 19.4522C8.8568 19.4144 8.11131 19.3133 7.51963 19.1709C6.89575 19.0208 6.46207 18.8294 6.17033 18.6339C5.66228 18.2935 5.57404 17.9457 5.61957 17.6228C5.66934 17.2699 5.90188 16.8336 6.32764 16.404C6.33607 16.3959 6.34433 16.3877 6.35242 16.3792C6.48802 16.2437 6.62823 16.1061 6.77054 15.9665C7.13024 15.6135 7.5034 15.2473 7.84966 14.8691C8.43333 14.2317 8.98748 13.5129 9.41793 12.6073C9.73477 11.9407 9.97842 11.186 10.1241 10.3038C10.1859 9.93002 10.2299 9.5344 10.2546 9.11401C10.2766 8.74035 10.3185 8.39529 10.377 8.07715C10.5031 7.39088 10.7065 6.8299 10.9547 6.3751C10.9592 6.36742 10.9635 6.35962 10.9677 6.35172L10.9706 6.34632C11.4525 5.47878 12.1163 4.97132 12.7973 4.71545C12.8043 4.71296 12.8112 4.71036 12.8182 4.70766C13.476 4.46559 14.1611 4.45275 14.7292 4.59793C15.593 4.81869 16.084 5.20289 16.3954 5.68001L16.4014 5.68952L16.409 5.70099C16.7251 6.19631 16.8993 6.86224 16.9821 7.73509C17.0382 8.32709 17.0497 8.9811 17.0497 9.70104C17.0497 10.2741 17.02 11.0454 16.9175 11.9063L16.9158 11.9207C16.8303 12.6339 16.6956 13.4024 16.4891 14.1671C16.3283 14.7622 16.1252 15.3506 15.8705 15.9063L15.8624 15.9241C15.5313 16.6425 15.1178 17.297 14.6054 17.8407ZM11.2831 15.4788C10.9784 15.4788 10.7315 15.7257 10.7315 16.0304C10.7315 16.3351 10.9784 16.5821 11.2831 16.5821C11.5878 16.5821 11.8348 16.3351 11.8348 16.0304C11.8348 15.7257 11.5878 15.4788 11.2831 15.4788ZM9.23146 16.0304C9.23146 14.8973 10.15 13.9788 11.2831 13.9788C12.4162 13.9788 13.3348 14.8973 13.3348 16.0304C13.3348 17.1635 12.4162 18.0821 11.2831 18.0821C10.15 18.0821 9.23146 17.1635 9.23146 16.0304ZM12.9834 7.77442C12.9834 7.3602 13.3192 7.02442 13.7334 7.02442C14.1476 7.02442 14.4834 7.3602 14.4834 7.77442C14.4834 8.18863 14.1476 8.52442 13.7334 8.52442C13.3192 8.52442 12.9834 8.18863 12.9834 7.77442ZM13.7334 5.52442C12.4908 5.52442 11.4834 6.53177 11.4834 7.77442C11.4834 9.01706 12.4908 10.0244 13.7334 10.0244C14.9761 10.0244 15.9834 9.01706 15.9834 7.77442C15.9834 6.53177 14.9761 5.52442 13.7334 5.52442Z" fill="#23262A"/>
</svg>
