<svg width="24" height="24" viewBox="0 0 24 24" fill="none" xmlns="http://www.w3.org/2000/svg">
<path fill-rule="evenodd" clip-rule="evenodd" d="M12.7732 2.69043C12.6023 2.31315 12.1578 2.1459 11.7805 2.31687C11.4032 2.48785 11.236 2.93229 11.407 3.30957L11.5599 3.64698C11.0021 3.96944 10.484 4.41956 10.048 5.0114L9.31797 4.62213C8.95246 4.42725 8.49818 4.56557 8.30329 4.93107C8.10841 5.29658 8.24673 5.75086 8.61224 5.94574L9.32343 6.32494C9.14357 6.77196 9.0011 7.2651 8.90167 7.80594C8.83135 8.18848 8.78255 8.59489 8.7572 9.02594C8.75149 9.12291 8.74465 9.21797 8.73672 9.31119L7.73789 9.1419C7.32951 9.07268 6.94233 9.34763 6.87311 9.75602C6.80389 10.1644 7.07884 10.5516 7.48723 10.6208L8.48893 10.7906C8.37429 11.2261 8.2298 11.6128 8.06318 11.9634C7.71754 12.6905 7.26531 13.2861 6.74334 13.8562C6.42541 14.2034 6.09812 14.5246 5.7514 14.8647L5.75137 14.8648L5.70237 14.9128L4.94238 14.4424C4.59018 14.2244 4.12794 14.3331 3.90992 14.6853C3.6919 15.0375 3.80067 15.4998 4.15286 15.7178L4.68557 16.0475C4.40587 16.4643 4.20292 16.9265 4.13426 17.4134C4.03321 18.13 4.23516 18.8181 4.75284 19.3845L3.93074 20.5734C3.69515 20.9141 3.78036 21.3813 4.12105 21.6169C4.46174 21.8525 4.92891 21.7673 5.1645 21.4266L5.98709 20.237C6.33473 20.3927 6.72868 20.5234 7.16871 20.6293C7.87751 20.7999 8.72362 20.9102 9.7213 20.9509C10.007 20.9626 10.3057 20.9686 10.6177 20.9686C11.2163 20.9686 11.7766 20.9085 12.3002 20.7943L12.5116 21.2928C12.6733 21.6741 13.1136 21.8521 13.4949 21.6904C13.8762 21.5286 14.0543 21.0884 13.8925 20.7071L13.7252 20.3125C14.4964 19.9482 15.1488 19.4513 15.6971 18.8694C16.1814 18.3555 16.582 17.7782 16.9136 17.1714L18.0732 17.6138C18.4602 17.7615 18.8937 17.5675 19.0413 17.1805C19.189 16.7935 18.9949 16.36 18.6079 16.2124L17.5371 15.8038C17.693 15.3907 17.8252 14.9728 17.9372 14.5583C18.0926 13.983 18.21 13.4108 18.2983 12.8621L19.3353 13.0261C19.7444 13.0908 20.1285 12.8117 20.1933 12.4025C20.258 11.9934 19.9788 11.6093 19.5697 11.5445L18.4789 11.372C18.5323 10.7312 18.5497 10.1593 18.5497 9.70104C18.5497 8.97399 18.5386 8.2604 18.4754 7.59357C18.4077 6.87969 18.2775 6.17983 18.0121 5.54537L18.7463 5.07319C19.0947 4.84913 19.1954 4.38507 18.9714 4.03669C18.7473 3.68831 18.2833 3.58752 17.9349 3.81158L17.194 4.28806C16.6751 3.75613 15.9856 3.37082 15.1006 3.14464C14.4436 2.97674 13.7027 2.95199 12.9629 3.10889L12.7732 2.69043ZM12.509 19.1852C13.3563 18.9069 14.043 18.4375 14.6054 17.8407C15.1178 17.2969 15.5313 16.6425 15.8624 15.924L15.8705 15.9064C16.1252 15.3506 16.3283 14.7622 16.4891 14.1671C16.6956 13.4024 16.8303 12.6339 16.9158 11.9207L16.9175 11.9063C17.02 11.0454 17.0497 10.2741 17.0497 9.70104C17.0497 8.9811 17.0382 8.32709 16.9821 7.73509C16.8993 6.86224 16.7251 6.19631 16.409 5.70099L16.4014 5.68952L16.3954 5.68001C16.084 5.20289 15.593 4.81869 14.7292 4.59793C14.1611 4.45275 13.476 4.46559 12.8182 4.70766C12.8112 4.71036 12.8043 4.71296 12.7973 4.71545C12.1163 4.97132 11.4525 5.47878 10.9706 6.34632L10.9677 6.35172C10.9635 6.35962 10.9592 6.36742 10.9547 6.37511C10.7065 6.82991 10.5031 7.39088 10.377 8.07715C10.3185 8.39529 10.2766 8.74035 10.2546 9.11401C10.2299 9.5344 10.1859 9.93002 10.1241 10.3038C9.97842 11.186 9.73477 11.9407 9.41793 12.6073C8.98748 13.5129 8.43333 14.2317 7.84966 14.8691C7.5034 15.2473 7.13024 15.6135 6.77054 15.9665C6.62823 16.1061 6.48802 16.2437 6.35242 16.3792C6.34433 16.3877 6.33607 16.3959 6.32765 16.404C5.90188 16.8336 5.66934 17.2699 5.61957 17.6228C5.57404 17.9457 5.66228 18.2935 6.17033 18.6339C6.46207 18.8294 6.89575 19.0208 7.51963 19.1709C8.11131 19.3133 8.8568 19.4144 9.78251 19.4522C10.0466 19.463 10.3248 19.4686 10.6177 19.4686C11.3315 19.4686 11.9541 19.3661 12.4989 19.1884L12.509 19.1852ZM13.7334 7.02441C13.3192 7.02441 12.9834 7.3602 12.9834 7.77441C12.9834 8.18863 13.3192 8.52441 13.7334 8.52441C14.1476 8.52441 14.4834 8.18863 14.4834 7.77441C14.4834 7.3602 14.1476 7.02441 13.7334 7.02441ZM11.4834 7.77441C11.4834 6.53177 12.4908 5.52441 13.7334 5.52441C14.976 5.52441 15.9834 6.53177 15.9834 7.77441C15.9834 9.01705 14.976 10.0244 13.7334 10.0244C12.4908 10.0244 11.4834 9.01705 11.4834 7.77441ZM11.2831 15.4788C10.9784 15.4788 10.7314 15.7257 10.7314 16.0304C10.7314 16.3351 10.9784 16.5821 11.2831 16.5821C11.5878 16.5821 11.8347 16.3351 11.8347 16.0304C11.8347 15.7257 11.5878 15.4788 11.2831 15.4788ZM9.23145 16.0304C9.23145 14.8973 10.15 13.9788 11.2831 13.9788C12.4162 13.9788 13.3347 14.8973 13.3347 16.0304C13.3347 17.1635 12.4162 18.0821 11.2831 18.0821C10.15 18.0821 9.23145 17.1635 9.23145 16.0304Z" fill="#23262A"/>
</svg>
