<svg width="24" height="24" viewBox="0 0 24 24" fill="none" xmlns="http://www.w3.org/2000/svg">
<path fill-rule="evenodd" clip-rule="evenodd" d="M11.7802 2.31681C12.1575 2.14584 12.6019 2.31308 12.7729 2.69037L12.9626 3.10896C13.7026 2.95198 14.4436 2.9767 15.1007 3.14464C15.9856 3.3708 16.6751 3.75607 17.194 4.28794L17.9347 3.81155C18.2831 3.58749 18.7472 3.68828 18.9712 4.03666C19.1953 4.38504 19.0945 4.8491 18.7461 5.07316L18.0121 5.54522C18.2775 6.17972 18.4078 6.87963 18.4755 7.59356C18.5386 8.26039 18.5498 8.97398 18.5498 9.70103C18.5498 10.1593 18.5323 10.7312 18.4789 11.372L19.5693 11.5445C19.9784 11.6093 20.2576 11.9934 20.1929 12.4025C20.1282 12.8116 19.744 13.0908 19.3349 13.0261L18.2984 12.8621C18.2101 13.4108 18.0926 13.983 17.9373 14.5583C17.8253 14.9729 17.6931 15.3908 17.5371 15.8039L18.6077 16.2123C18.9947 16.36 19.1887 16.7934 19.041 17.1804C18.8934 17.5674 18.4599 17.7615 18.0729 17.6138L16.9136 17.1715C16.582 17.7783 16.1814 18.3555 15.6971 18.8694C15.1488 19.4513 14.4963 19.9484 13.7249 20.3126L13.8922 20.707C14.0539 21.0884 13.8759 21.5286 13.4946 21.6903C13.1133 21.8521 12.673 21.674 12.5113 21.2927L12.2999 20.7944C11.7765 20.9086 11.2163 20.9686 10.6178 20.9686C10.3058 20.9686 10.0071 20.9626 9.72139 20.9509C8.7237 20.9102 7.87759 20.7998 7.16879 20.6293C6.72859 20.5234 6.3345 20.3926 5.98675 20.2368L5.16407 21.4265C4.92848 21.7672 4.46131 21.8524 4.12062 21.6168C3.77993 21.3812 3.69472 20.9141 3.93031 20.5734L4.75261 19.3842C4.23517 18.8178 4.03332 18.1299 4.13435 17.4134C4.20299 16.9266 4.40589 16.4645 4.68552 16.0477L4.15246 15.7178C3.80027 15.4997 3.6915 15.0375 3.90952 14.6853C4.12754 14.3331 4.58979 14.2243 4.94198 14.4424L5.70227 14.913L5.75151 14.8647C6.09824 14.5245 6.42549 14.2034 6.74343 13.8562C7.2654 13.2861 7.71763 12.6905 8.06327 11.9633C8.22987 11.6128 8.37436 11.2261 8.489 10.7907L7.48685 10.6208C7.07846 10.5516 6.80351 10.1644 6.87273 9.75601C6.94195 9.34762 7.32912 9.07267 7.73751 9.14189L8.7368 9.31126C8.74473 9.21802 8.75157 9.12293 8.75728 9.02593C8.78263 8.59489 8.83143 8.18848 8.90176 7.80593C9.00117 7.26518 9.14361 6.77211 9.32343 6.32515L8.61188 5.94577C8.24638 5.75089 8.10806 5.2966 8.30294 4.9311C8.49782 4.56559 8.95211 4.42727 9.31761 4.62216L10.048 5.01158C10.4839 4.41976 11.0019 3.96962 11.5597 3.64715L11.4067 3.30951C11.2357 2.93223 11.4029 2.48778 11.7802 2.31681ZM10.7317 16.0304C10.7317 15.7257 10.9787 15.4788 11.2833 15.4788C11.588 15.4788 11.835 15.7257 11.835 16.0304C11.835 16.3351 11.588 16.5821 11.2833 16.5821C10.9787 16.5821 10.7317 16.3351 10.7317 16.0304ZM11.2833 13.9788C10.1502 13.9788 9.23169 14.8973 9.23169 16.0304C9.23169 17.1635 10.1502 18.0821 11.2833 18.0821C12.4164 18.0821 13.335 17.1635 13.335 16.0304C13.335 14.8973 12.4164 13.9788 11.2833 13.9788ZM12.9836 7.77441C12.9836 7.3602 13.3194 7.02441 13.7336 7.02441C14.1479 7.02441 14.4836 7.3602 14.4836 7.77441C14.4836 8.18863 14.1479 8.52441 13.7336 8.52441C13.3194 8.52441 12.9836 8.18863 12.9836 7.77441ZM13.7336 5.52441C12.491 5.52441 11.4836 6.53177 11.4836 7.77441C11.4836 9.01705 12.491 10.0244 13.7336 10.0244C14.9763 10.0244 15.9836 9.01705 15.9836 7.77441C15.9836 6.53177 14.9763 5.52441 13.7336 5.52441Z" fill="#23262A"/>
</svg>
