<svg width="24" height="24" viewBox="0 0 24 24" fill="none" xmlns="http://www.w3.org/2000/svg">
<path fill-rule="evenodd" clip-rule="evenodd" d="M9.25 5C9.25 4.58579 9.58579 4.25 10 4.25H14C14.4142 4.25 14.75 4.58579 14.75 5V6.25H21C21.4142 6.25 21.75 6.58579 21.75 7V19C21.75 19.4142 21.4142 19.75 21 19.75H3C2.58579 19.75 2.25 19.4142 2.25 19V7C2.25 6.58579 2.58579 6.25 3 6.25H9.25V5ZM13.25 5.75V6.25H10.75V5.75H13.25ZM3.75 18.25V7.75H20.25V18.25H3.75ZM5.25 10C5.25 9.58579 5.58579 9.25 6 9.25H9C9.41421 9.25 9.75 9.58579 9.75 10V16C9.75 16.4142 9.41421 16.75 9 16.75H6C5.58579 16.75 5.25 16.4142 5.25 16V10ZM6.75 10.75V15.25H8.25V10.75H6.75ZM11.25 10C11.25 9.58579 11.5858 9.25 12 9.25H18C18.4142 9.25 18.75 9.58579 18.75 10C18.75 10.4142 18.4142 10.75 18 10.75H12C11.5858 10.75 11.25 10.4142 11.25 10ZM12 12.25C11.5858 12.25 11.25 12.5858 11.25 13C11.25 13.4142 11.5858 13.75 12 13.75H18C18.4142 13.75 18.75 13.4142 18.75 13C18.75 12.5858 18.4142 12.25 18 12.25H12ZM11.25 16C11.25 15.5858 11.5858 15.25 12 15.25H18C18.4142 15.25 18.75 15.5858 18.75 16C18.75 16.4142 18.4142 16.75 18 16.75H12C11.5858 16.75 11.25 16.4142 11.25 16Z" fill="#23262A"/>
</svg>
