<svg width="24" height="24" viewBox="0 0 24 24" fill="none" xmlns="http://www.w3.org/2000/svg">
<path fill-rule="evenodd" clip-rule="evenodd" d="M8.25 4C8.25 3.58579 8.58579 3.25 9 3.25H15C15.4142 3.25 15.75 3.58579 15.75 4V6.25H16C16.9665 6.25 17.75 7.0335 17.75 8V18C17.75 18.9665 16.9665 19.75 16 19.75H15.75V20C15.75 20.4142 15.4142 20.75 15 20.75C14.5858 20.75 14.25 20.4142 14.25 20V19.75H9.75V20C9.75 20.4142 9.41421 20.75 9 20.75C8.58579 20.75 8.25 20.4142 8.25 20V19.75H8C7.0335 19.75 6.25 18.9665 6.25 18V8C6.25 7.0335 7.0335 6.25 8 6.25H8.25V4ZM16 7.75C16.1381 7.75 16.25 7.86193 16.25 8V18C16.25 18.1381 16.1381 18.25 16 18.25H8C7.86193 18.25 7.75 18.1381 7.75 18V8C7.75 7.86193 7.86193 7.75 8 7.75H16ZM14.25 4.75V6.25H9.75V4.75H14.25ZM10 10.25C9.58579 10.25 9.25 10.5858 9.25 11C9.25 11.4142 9.58579 11.75 10 11.75H14C14.4142 11.75 14.75 11.4142 14.75 11C14.75 10.5858 14.4142 10.25 14 10.25H10Z" fill="#23262A"/>
</svg>
