<svg width="24" height="24" viewBox="0 0 24 24" fill="none" xmlns="http://www.w3.org/2000/svg">
<path fill-rule="evenodd" clip-rule="evenodd" d="M8.75204 2.65068C9.08933 2.59447 9.63572 2.57458 10.0307 2.96952L11.8228 4.76164C11.9204 4.85927 11.9204 5.01757 11.8228 5.1152L5.11569 11.8223C5.01805 11.9199 4.85976 11.9199 4.76213 11.8223L2.97001 10.0302C2.57507 9.63524 2.59496 9.08884 2.65117 8.75155C2.71503 8.36838 2.87436 7.94977 3.07952 7.53944C3.49348 6.71152 4.1678 5.77173 4.97001 4.96952C5.77222 4.16731 6.71201 3.49299 7.53993 3.07903C7.95026 2.87387 8.36887 2.71455 8.75204 2.65068ZM6.17634 12.883C6.07871 12.9806 6.07871 13.1389 6.17634 13.2365L10.7621 17.8223C10.8598 17.9199 11.0181 17.9199 11.1157 17.8223L17.8228 11.1152C17.9204 11.0176 17.9204 10.8593 17.8228 10.7616L13.237 6.17586C13.1394 6.07823 12.9811 6.07823 12.8835 6.17586L6.17634 12.883ZM12.1763 19.2365C12.0787 19.1389 12.0787 18.9806 12.1763 18.883L18.8835 12.1759C18.9811 12.0782 19.1394 12.0782 19.237 12.1759L21.0307 13.9695C21.4256 14.3645 21.4057 14.9109 21.3495 15.2482C21.2857 15.6313 21.1263 16.0499 20.9212 16.4603C20.5072 17.2882 19.8329 18.228 19.0307 19.0302C18.2285 19.8324 17.2887 20.5067 16.4608 20.9207C16.0504 21.1258 15.6318 21.2852 15.2486 21.349C14.9114 21.4052 14.365 21.4251 13.97 21.0302L12.1763 19.2365ZM11.2495 10C11.2495 9.58579 11.5853 9.25 11.9995 9.25H12.0095C12.4237 9.25 12.7595 9.58579 12.7595 10C12.7595 10.4142 12.4237 10.75 12.0095 10.75H11.9995C11.5853 10.75 11.2495 10.4142 11.2495 10ZM11.9995 13.25C11.5853 13.25 11.2495 13.5858 11.2495 14C11.2495 14.4142 11.5853 14.75 11.9995 14.75H12.0095C12.4237 14.75 12.7595 14.4142 12.7595 14C12.7595 13.5858 12.4237 13.25 12.0095 13.25H11.9995ZM9.24951 12C9.24951 11.5858 9.5853 11.25 9.99951 11.25H10.0095C10.4237 11.25 10.7595 11.5858 10.7595 12C10.7595 12.4142 10.4237 12.75 10.0095 12.75H9.99951C9.5853 12.75 9.24951 12.4142 9.24951 12ZM13.9995 11.25C13.5853 11.25 13.2495 11.5858 13.2495 12C13.2495 12.4142 13.5853 12.75 13.9995 12.75H14.0095C14.4237 12.75 14.7595 12.4142 14.7595 12C14.7595 11.5858 14.4237 11.25 14.0095 11.25H13.9995Z" fill="#23262A"/>
</svg>
