<svg width="24" height="24" viewBox="0 0 24 24" fill="none" xmlns="http://www.w3.org/2000/svg">
<path fill-rule="evenodd" clip-rule="evenodd" d="M8.21059 4.42076C7.53851 4.7568 6.7283 5.33248 6.03051 6.03027C5.33272 6.72806 4.75704 7.53827 4.421 8.21035C4.25117 8.55002 4.16049 8.81891 4.1306 8.99824C4.12645 9.02318 4.12376 9.04402 4.12207 9.06117L6.00012 10.9392L10.9395 5.99988L9.06141 4.12183C9.04426 4.12352 9.02342 4.1262 8.99848 4.13036C8.81916 4.16025 8.55027 4.25092 8.21059 4.42076ZM12.0001 7.06054L7.06078 11.9999L12.0001 16.9392L16.9395 11.9999L12.0001 7.06054ZM14.939 19.878L13.0608 17.9999L18.0001 13.0605L19.8783 14.9387C19.8766 14.9559 19.8739 14.9767 19.8698 15.0016C19.8399 15.181 19.7492 15.4499 19.5794 15.7895C19.2433 16.4616 18.6676 17.2718 17.9699 17.9696C17.2721 18.6674 16.4619 19.2431 15.7898 19.5791C15.4501 19.749 15.1812 19.8396 15.0019 19.8695C14.9769 19.8737 14.9561 19.8764 14.939 19.878ZM9.12754 4.12079C9.1273 4.12106 9.1233 4.12089 9.11625 4.11944C9.12426 4.11978 9.12778 4.12051 9.12754 4.12079ZM19.8793 14.8726C19.8796 14.8723 19.8803 14.8759 19.8807 14.8838C19.8801 14.881 19.8797 14.8787 19.8795 14.8769C19.8792 14.8742 19.8792 14.8727 19.8793 14.8726ZM14.8728 19.8791C14.8731 19.8788 14.877 19.879 14.8841 19.8804C14.8761 19.8801 14.8726 19.8794 14.8728 19.8791ZM4.12103 9.1273C4.12075 9.12753 4.12002 9.12401 4.11968 9.11601C4.12114 9.12305 4.12131 9.12706 4.12103 9.1273ZM8.75188 2.65077C9.08917 2.59455 9.63556 2.57466 10.0305 2.96961L21.0305 13.9696C21.4255 14.3646 21.4056 14.9109 21.3494 15.2482C21.2855 15.6314 21.1262 16.05 20.921 16.4603C20.507 17.2883 19.8327 18.2281 19.0305 19.0303C18.2283 19.8325 17.2885 20.5068 16.4606 20.9208C16.0503 21.1259 15.6317 21.2852 15.2485 21.3491C14.9112 21.4053 14.3648 21.4252 13.9699 21.0303L2.96985 10.0303C2.57491 9.63532 2.5948 9.08893 2.65101 8.75164C2.71487 8.36846 2.8742 7.94985 3.07936 7.53953C3.49332 6.71161 4.16764 5.77182 4.96985 4.96961C5.77206 4.1674 6.71185 3.49308 7.53977 3.07912C7.9501 2.87396 8.36871 2.71463 8.75188 2.65077ZM11.25 10C11.25 9.58579 11.5858 9.25 12 9.25H12.01C12.4242 9.25 12.76 9.58579 12.76 10C12.76 10.4142 12.4242 10.75 12.01 10.75H12C11.5858 10.75 11.25 10.4142 11.25 10ZM12 13.25C11.5858 13.25 11.25 13.5858 11.25 14C11.25 14.4142 11.5858 14.75 12 14.75H12.01C12.4242 14.75 12.76 14.4142 12.76 14C12.76 13.5858 12.4242 13.25 12.01 13.25H12ZM9.25 12C9.25 11.5858 9.58579 11.25 10 11.25H10.01C10.4242 11.25 10.76 11.5858 10.76 12C10.76 12.4142 10.4242 12.75 10.01 12.75H10C9.58579 12.75 9.25 12.4142 9.25 12ZM14 11.25C13.5858 11.25 13.25 11.5858 13.25 12C13.25 12.4142 13.5858 12.75 14 12.75H14.01C14.4242 12.75 14.76 12.4142 14.76 12C14.76 11.5858 14.4242 11.25 14.01 11.25H14Z" fill="#23262A"/>
</svg>
