<svg width="24" height="24" viewBox="0 0 24 24" fill="none" xmlns="http://www.w3.org/2000/svg">
<path fill-rule="evenodd" clip-rule="evenodd" d="M3 5.25C2.58579 5.25 2.25 5.58579 2.25 6V18C2.25 18.4142 2.58579 18.75 3 18.75H21C21.4142 18.75 21.75 18.4142 21.75 18V6C21.75 5.58579 21.4142 5.25 21 5.25H3ZM3.75 17.25V15.878C4.38931 16.104 4.89601 16.6107 5.12197 17.25H3.75ZM6.67499 17.25C6.37672 15.7807 5.21935 14.6233 3.75 14.325V9.67499C5.21935 9.37672 6.37672 8.21935 6.67499 6.75H17.325C17.6233 8.21935 18.7807 9.37672 20.25 9.67499V14.325C18.7807 14.6233 17.6233 15.7807 17.325 17.25H6.67499ZM5.12197 6.75H3.75V8.12197C4.38931 7.89601 4.89601 7.38931 5.12197 6.75ZM18.878 17.25H20.25V15.878C19.6107 16.104 19.104 16.6107 18.878 17.25ZM20.25 8.12197C19.6107 7.89601 19.104 7.38931 18.878 6.75H20.25V8.12197ZM10.25 12C10.25 10.6235 11.1557 9.75 12 9.75C12.8443 9.75 13.75 10.6235 13.75 12C13.75 13.3765 12.8443 14.25 12 14.25C11.1557 14.25 10.25 13.3765 10.25 12ZM12 8.25C10.0828 8.25 8.75 10.0628 8.75 12C8.75 13.9372 10.0828 15.75 12 15.75C13.9172 15.75 15.25 13.9372 15.25 12C15.25 10.0628 13.9172 8.25 12 8.25Z" fill="#262626"/>
</svg>
