<svg width="24" height="24" viewBox="0 0 24 24" fill="none" xmlns="http://www.w3.org/2000/svg">
<path fill-rule="evenodd" clip-rule="evenodd" d="M5.25 5.5C5.25 5.36193 5.13807 5.25 5 5.25H3C2.58579 5.25 2.25 5.58579 2.25 6V8C2.25 8.13807 2.36193 8.25 2.5 8.25H3C4.24264 8.25 5.25 7.24264 5.25 6V5.5ZM2.5 9.75C2.36193 9.75 2.25 9.86193 2.25 10V14C2.25 14.1381 2.36193 14.25 2.5 14.25H3C5.07107 14.25 6.75 15.9289 6.75 18V18.5C6.75 18.6381 6.86193 18.75 7 18.75H17C17.1381 18.75 17.25 18.6381 17.25 18.5V18C17.25 15.9289 18.9289 14.25 21 14.25H21.5C21.6381 14.25 21.75 14.1381 21.75 14V10C21.75 9.86193 21.6381 9.75 21.5 9.75H21C18.9289 9.75 17.25 8.07107 17.25 6V5.5C17.25 5.36193 17.1381 5.25 17 5.25H7C6.86193 5.25 6.75 5.36193 6.75 5.5V6C6.75 8.07107 5.07107 9.75 3 9.75H2.5ZM5.25 18V18.5C5.25 18.6381 5.13807 18.75 5 18.75H3C2.58579 18.75 2.25 18.4142 2.25 18V16C2.25 15.8619 2.36193 15.75 2.5 15.75H3C4.24264 15.75 5.25 16.7574 5.25 18ZM18.75 18.5C18.75 18.6381 18.8619 18.75 19 18.75H21C21.4142 18.75 21.75 18.4142 21.75 18V16C21.75 15.8619 21.6381 15.75 21.5 15.75H21C19.7574 15.75 18.75 16.7574 18.75 18V18.5ZM21.75 6V8C21.75 8.13807 21.6381 8.25 21.5 8.25H21C19.7574 8.25 18.75 7.24264 18.75 6V5.5C18.75 5.36193 18.8619 5.25 19 5.25H21C21.4142 5.25 21.75 5.58579 21.75 6ZM10.25 12C10.25 10.6235 11.1557 9.75 12 9.75C12.8443 9.75 13.75 10.6235 13.75 12C13.75 13.3765 12.8443 14.25 12 14.25C11.1557 14.25 10.25 13.3765 10.25 12ZM12 8.25C10.0828 8.25 8.75 10.0628 8.75 12C8.75 13.9372 10.0828 15.75 12 15.75C13.9172 15.75 15.25 13.9372 15.25 12C15.25 10.0628 13.9172 8.25 12 8.25Z" fill="#23262A"/>
</svg>
