<svg width="24" height="24" viewBox="0 0 24 24" fill="none" xmlns="http://www.w3.org/2000/svg">
<path fill-rule="evenodd" clip-rule="evenodd" d="M14.5 2.25C13.8096 2.25 13.25 2.80964 13.25 3.5V20.25H10.75V10.5C10.75 9.80964 10.1904 9.25 9.5 9.25H6.5C5.80964 9.25 5.25 9.80964 5.25 10.5V20.25H4C3.58579 20.25 3.25 20.5858 3.25 21C3.25 21.4142 3.58579 21.75 4 21.75H20C20.4142 21.75 20.75 21.4142 20.75 21C20.75 20.5858 20.4142 20.25 20 20.25H18.75V3.5C18.75 2.80964 18.1904 2.25 17.5 2.25H14.5ZM14.75 20.25V3.75H17.25V20.25H14.75ZM6.75 10.75V20.25H9.25V10.75H6.75Z" fill="#23262A"/>
</svg>
