<svg xmlns="http://www.w3.org/2000/svg" width="24" height="24" viewBox="0 0 24 24" fill="none">
  <path d="M16 5.25C16.4142 5.25 16.75 5.58579 16.75 6V21C16.75 21.4142 16.4142 21.75 16 21.75H8C7.58579 21.75 7.25 21.4142 7.25 21V6C7.25 5.58579 7.58579 5.25 8 5.25H16ZM8.75 20.25H15.25V6.75H8.75V20.25Z" fill="#202733"/>
  <path d="M16 8.25C16.4142 8.25 16.75 8.58579 16.75 9V21C16.75 21.4142 16.4142 21.75 16 21.75H8C7.58579 21.75 7.25 21.4142 7.25 21V9C7.25 8.58579 7.58579 8.25 8 8.25H16ZM8.75 20.25H15.25V9.75H8.75V20.25Z" fill="#202733"/>
  <path d="M13.25 6V4.75H10.75V6C10.75 6.41421 10.4142 6.75 10 6.75C9.58579 6.75 9.25 6.41421 9.25 6V4C9.25 3.58579 9.58579 3.25 10 3.25H14C14.4142 3.25 14.75 3.58579 14.75 4V6C14.75 6.41421 14.4142 6.75 14 6.75C13.5858 6.75 13.25 6.41421 13.25 6Z" fill="#202733"/>
  <path d="M12.4575 11.4699C12.7504 11.177 13.2253 11.177 13.5182 11.4699C13.8111 11.7628 13.8111 12.2377 13.5182 12.5306L12.0549 13.9938L13.5189 15.4578C13.8115 15.7506 13.8115 16.2256 13.5189 16.5184L11.5246 18.5127C11.2318 18.8055 10.7568 18.8053 10.4639 18.5127C10.171 18.2198 10.171 17.7449 10.4639 17.452L11.9279 15.9881L10.4639 14.5242C10.171 14.2313 10.171 13.7564 10.4639 13.4635L12.4575 11.4699Z" fill="#202733"/>
</svg>