<svg width="24" height="24" viewBox="0 0 24 24" fill="none" xmlns="http://www.w3.org/2000/svg">
<path fill-rule="evenodd" clip-rule="evenodd" d="M6.06458 4.26481C7.76736 2.95822 9.85369 2.25 12 2.25C14.1463 2.25 16.2326 2.95821 17.9354 4.2648C19.6382 5.57139 20.8623 7.40334 21.4178 9.47651C21.9733 11.5497 21.8292 13.7482 21.0078 15.7312C20.1865 17.7141 18.7338 19.3706 16.875 20.4437C16.7027 20.5432 16.498 20.5702 16.3059 20.5187C16.1138 20.4672 15.9499 20.3415 15.8505 20.1692L12.7005 14.7133C12.601 14.541 12.5741 14.3363 12.6256 14.1442C12.677 13.952 12.8027 13.7882 12.975 13.6887C13.3468 13.4741 13.6373 13.1428 13.8016 12.7462C13.9658 12.3496 13.9947 11.9099 13.8836 11.4953C13.7725 11.0807 13.5276 10.7143 13.1871 10.453C12.8465 10.1916 12.4293 10.05 12 10.05C11.5707 10.05 11.1535 10.1916 10.8129 10.453C10.4724 10.7143 10.2275 11.0807 10.1164 11.4953C10.0053 11.9099 10.0342 12.3496 10.1984 12.7462C10.3627 13.1428 10.6533 13.4741 11.025 13.6887C11.1973 13.7882 11.323 13.952 11.3744 14.1442C11.4259 14.3363 11.399 14.541 11.2995 14.7133L8.14952 20.1692C8.05007 20.3415 7.88625 20.4672 7.69412 20.5187C7.50198 20.5702 7.29727 20.5432 7.125 20.4437C5.26625 19.3706 3.81354 17.7141 2.99218 15.7312C2.17082 13.7482 2.02672 11.5497 2.58223 9.47652C3.13773 7.40334 4.3618 5.5714 6.06458 4.26481ZM12 3.75C10.1839 3.75 8.41854 4.34926 6.97772 5.45484C5.53691 6.56041 4.50116 8.11052 4.03112 9.86474C3.56107 11.619 3.683 13.4793 4.378 15.1571C4.97686 16.6029 5.97237 17.8436 7.24256 18.7401L9.66674 14.5413C9.29868 14.2034 9.00613 13.7874 8.81262 13.3203C8.52199 12.6186 8.471 11.8407 8.66756 11.1071C8.86412 10.3735 9.29725 9.72526 9.89978 9.26293C10.5023 8.8006 11.2405 8.55 12 8.55C12.7595 8.55 13.4977 8.8006 14.1002 9.26293C14.7028 9.72526 15.1359 10.3735 15.3324 11.1071C15.529 11.8407 15.478 12.6186 15.1874 13.3203C14.9939 13.7874 14.7013 14.2034 14.3333 14.5413L16.7574 18.7401C18.0276 17.8436 19.0231 16.6029 19.622 15.1571C20.317 13.4793 20.4389 11.619 19.9689 9.86474C19.4988 8.11052 18.4631 6.56041 17.0223 5.45483C15.5815 4.34926 13.8161 3.75 12 3.75Z" fill="#23262A"/>
</svg>
