<svg width="24" height="24" viewBox="0 0 24 24" fill="none" xmlns="http://www.w3.org/2000/svg">
<path fill-rule="evenodd" clip-rule="evenodd" d="M2.25 13C2.25 12.0335 3.0335 11.25 4 11.25H4.25V7C4.25 6.0335 5.0335 5.25 6 5.25H18C18.9665 5.25 19.75 6.0335 19.75 7V11.25H20C20.9665 11.25 21.75 12.0335 21.75 13V18.5C21.75 18.9142 21.4142 19.25 21 19.25C20.5858 19.25 20.25 18.9142 20.25 18.5V13C20.25 12.8619 20.1381 12.75 20 12.75H4C3.86193 12.75 3.75 12.8619 3.75 13V18.5C3.75 18.9142 3.41421 19.25 3 19.25C2.58579 19.25 2.25 18.9142 2.25 18.5V13ZM5.75 7C5.75 6.86193 5.86193 6.75 6 6.75H18C18.1381 6.75 18.25 6.86193 18.25 7V11.25H17.75V10C17.75 9.0335 16.9665 8.25 16 8.25H14C13.0335 8.25 12.25 9.0335 12.25 10V11.25H11.75V10C11.75 9.0335 10.9665 8.25 10 8.25H8C7.0335 8.25 6.25 9.0335 6.25 10V11.25H5.75V7ZM14 9.75C13.8619 9.75 13.75 9.86193 13.75 10V11.25H16.25V10C16.25 9.86193 16.1381 9.75 16 9.75H14ZM10 9.75C10.1381 9.75 10.25 9.86193 10.25 10V11.25H7.75V10C7.75 9.86193 7.86193 9.75 8 9.75H10Z" fill="#23262A"/>
</svg>
