<svg width="24" height="24" viewBox="0 0 24 24" fill="none" xmlns="http://www.w3.org/2000/svg">
<path fill-rule="evenodd" clip-rule="evenodd" d="M4.25 7C4.25 6.0335 5.0335 5.25 6 5.25H18C18.9665 5.25 19.75 6.0335 19.75 7V10C19.75 10.1381 19.6381 10.25 19.5 10.25H17.25C17.1119 10.25 17 10.1381 17 10V9C17 8.44772 16.5523 8 16 8H14C13.4477 8 13 8.44772 13 9V10C13 10.1381 12.8881 10.25 12.75 10.25H11.25C11.1119 10.25 11 10.1381 11 10V9C11 8.44772 10.5523 8 10 8H8C7.44772 8 7 8.44772 7 9V10C7 10.1381 6.88807 10.25 6.75 10.25H4.5C4.36193 10.25 4.25 10.1381 4.25 10V7ZM4 11.25C3.0335 11.25 2.25 12.0335 2.25 13V18.5C2.25 18.9142 2.58579 19.25 3 19.25H21C21.4142 19.25 21.75 18.9142 21.75 18.5V13C21.75 12.0335 20.9665 11.25 20 11.25H4Z" fill="#23262A"/>
</svg>
