<svg width="24" height="24" viewBox="0 0 24 24" fill="none" xmlns="http://www.w3.org/2000/svg">
<path fill-rule="evenodd" clip-rule="evenodd" d="M14.5 2.81299C12.7051 2.81299 11.25 4.26806 11.25 6.06299C11.25 7.85791 12.7051 9.31299 14.5 9.31299C16.2949 9.31299 17.75 7.85791 17.75 6.06299C17.75 4.26806 16.2949 2.81299 14.5 2.81299ZM9.78803 3.98147C9.98863 3.93417 10.1476 4.1466 10.0727 4.33862C9.86435 4.87319 9.75 5.45479 9.75 6.06309C9.75 8.68644 11.8766 10.8131 14.5 10.8131C15.77 10.8131 16.9237 10.3146 17.7759 9.50269C17.9389 9.34743 18.2257 9.44112 18.2348 9.66602C18.2463 9.94857 18.25 10.2278 18.25 10.5001V13.5001C18.25 14.309 18.6738 15.4206 19.1708 16.4147C19.4101 16.8933 19.6502 17.3136 19.8306 17.6142C19.9206 17.7642 19.9952 17.8836 20.0468 17.9646C20.0726 18.0051 20.0925 18.036 20.1057 18.0562L20.1203 18.0785L20.1241 18.0842C20.2775 18.3143 20.2917 18.6102 20.1613 18.854C20.0307 19.0979 19.7766 19.2501 19.5 19.2501H15.1623C15.0243 19.8315 14.7275 20.3687 14.2981 20.7981C13.6886 21.4076 12.862 21.75 12 21.75C11.138 21.75 10.3114 21.4076 9.7019 20.7981C9.27249 20.3687 8.97566 19.8315 8.83773 19.2501H4.5C4.2234 19.2501 3.96926 19.0979 3.83875 18.854C3.70826 18.6102 3.72253 18.3143 3.87586 18.0842L3.87966 18.0785L3.89425 18.0562C3.90746 18.036 3.92742 18.0051 3.95319 17.9646C4.00475 17.8836 4.07938 17.7642 4.16938 17.6142C4.34979 17.3136 4.58988 16.8933 4.82918 16.4147C5.32624 15.4206 5.75 14.309 5.75 13.5001V10.5001C5.75 8.99912 5.86389 7.28969 6.75096 5.95907C7.39283 4.99627 8.37596 4.31441 9.78803 3.98147ZM10.4189 19.2501H13.5811C13.4961 19.4293 13.3804 19.5945 13.2374 19.7374C12.9092 20.0656 12.4641 20.25 12 20.25C11.5359 20.25 11.0908 20.0656 10.7626 19.7374C10.6196 19.5945 10.5039 19.4293 10.4189 19.2501Z" fill="#23262A"/>
</svg>
