<svg width="24" height="24" viewBox="0 0 24 24" fill="none" xmlns="http://www.w3.org/2000/svg">
<path fill-rule="evenodd" clip-rule="evenodd" d="M12.75 6.06299C12.75 5.09649 13.5335 4.31299 14.5 4.31299C15.4665 4.31299 16.25 5.09649 16.25 6.06299C16.25 7.02949 15.4665 7.81299 14.5 7.81299C13.5335 7.81299 12.75 7.02949 12.75 6.06299ZM14.5 2.81299C12.7051 2.81299 11.25 4.26806 11.25 6.06299C11.25 7.85791 12.7051 9.31299 14.5 9.31299C16.2949 9.31299 17.75 7.85791 17.75 6.06299C17.75 4.26806 16.2949 2.81299 14.5 2.81299ZM9.87675 4.67642C10.0298 5.0613 9.84194 5.49742 9.45705 5.65051C8.4803 6.03902 7.95176 6.68085 7.64637 7.48658C7.32605 8.33173 7.25 9.3643 7.25 10.5V13.5C7.25 14.6911 6.67376 16.0795 6.17082 17.0854C6.05215 17.3228 5.93364 17.5463 5.82138 17.75H18.1786C18.0664 17.5463 17.9479 17.3228 17.8292 17.0854C17.3262 16.0795 16.75 14.6911 16.75 13.5V10.5C16.75 10.0858 17.0858 9.75 17.5 9.75C17.9142 9.75 18.25 10.0858 18.25 10.5V13.5C18.25 14.3089 18.6738 15.4205 19.1708 16.4146C19.4101 16.8932 19.6502 17.3135 19.8306 17.6141C19.9206 17.7641 19.9953 17.8835 20.0468 17.9645C20.0726 18.005 20.0925 18.0359 20.1057 18.0561L20.1203 18.0784L20.1236 18.0833C20.2769 18.3134 20.2917 18.6101 20.1613 18.8539C20.0307 19.0978 19.7766 19.25 19.5 19.25H15.1623C15.0244 19.8314 14.7275 20.3687 14.2981 20.7981C13.6886 21.4076 12.862 21.75 12 21.75C11.138 21.75 10.3114 21.4076 9.7019 20.7981C9.27247 20.3687 8.97563 19.8314 8.83771 19.25H4.5C4.2234 19.25 3.96926 19.0978 3.83875 18.8539C3.70826 18.6101 3.72253 18.3143 3.87586 18.0841L3.87966 18.0784L3.89425 18.0561C3.90746 18.0359 3.92742 18.005 3.95319 17.9645C4.00475 17.8835 4.07938 17.7641 4.16938 17.6141C4.34979 17.3135 4.58988 16.8932 4.82918 16.4146C5.32624 15.4205 5.75 14.3089 5.75 13.5V10.5C5.75 9.33709 5.82072 8.07105 6.24374 6.95496C6.6817 5.79944 7.49309 4.81738 8.90266 4.25672C9.28755 4.10363 9.72366 4.29153 9.87675 4.67642ZM10.4189 19.25H13.5811C13.4961 19.4293 13.3804 19.5945 13.2374 19.7374C12.9092 20.0656 12.4641 20.25 12 20.25C11.5359 20.25 11.0908 20.0656 10.7626 19.7374C10.6196 19.5945 10.5039 19.4293 10.4189 19.25Z" fill="#23262A"/>
</svg>
