<svg width="24" height="24" viewBox="0 0 24 24" fill="none" xmlns="http://www.w3.org/2000/svg">
<path d="M17.5001 9.75C17.9141 9.75023 18.2501 10.0859 18.2501 10.5V13.5C18.2501 14.3089 18.6739 15.4209 19.171 16.415C19.4102 16.8935 19.6508 17.3137 19.8311 17.6143C19.921 17.7641 19.9954 17.8839 20.0469 17.9648C20.0725 18.0051 20.0933 18.0355 20.1065 18.0557C20.113 18.0657 20.1181 18.0735 20.1212 18.0781C20.1225 18.0802 20.1235 18.0821 20.1241 18.083L20.1251 18.084H20.1241C20.2772 18.3139 20.2923 18.6098 20.1622 18.8535C20.0317 19.0973 19.7765 19.2498 19.5001 19.25H15.1612C15.0232 19.8312 14.7273 20.3685 14.2979 20.7979C13.6884 21.4073 12.862 21.75 12.0001 21.75C11.1381 21.75 10.3117 21.4073 9.70221 20.7979C9.09271 20.1884 8.75006 19.362 8.75006 18.5C8.75006 18.0859 9.08602 17.7502 9.50006 17.75H18.1797C18.0675 17.5463 17.9479 17.3224 17.8292 17.085C17.3263 16.0791 16.7501 14.6909 16.7501 13.5V10.5C16.7501 10.0859 17.086 9.7502 17.5001 9.75ZM18.2745 5.16504C18.5674 4.87242 19.0422 4.87224 19.335 5.16504C19.6278 5.45784 19.6276 5.93268 19.335 6.22559L5.03033 20.5303C4.73745 20.8232 4.26268 20.8231 3.96978 20.5303C3.67689 20.2374 3.67689 19.7626 3.96978 19.4697L18.2745 5.16504ZM10.421 19.25C10.506 19.4289 10.62 19.5945 10.7628 19.7373C11.0909 20.0655 11.5359 20.25 12.0001 20.25C12.4642 20.25 12.9092 20.0655 13.2374 19.7373C13.3801 19.5945 13.4941 19.4289 13.5792 19.25H10.421ZM12.0001 1.75C12.4142 1.75003 12.7501 2.08581 12.7501 2.5V3.77539C13.975 3.8524 14.9663 4.12106 15.7559 4.57227C16.115 4.77791 16.2395 5.2363 16.0342 5.5957C15.8287 5.95489 15.3712 6.07912 15.0118 5.87402C14.3625 5.50298 13.4095 5.25005 12.0001 5.25C9.65517 5.25007 8.56401 5.94377 7.99908 6.79102C7.38625 7.71039 7.25006 9.00107 7.25006 10.5V13.5C7.25006 13.7727 7.22079 14.0495 7.17193 14.3213C7.09853 14.7287 6.70826 14.9998 6.30084 14.9268C5.89323 14.8535 5.62217 14.4633 5.69537 14.0557C5.73204 13.8517 5.75006 13.6656 5.75006 13.5V10.5C5.75006 8.99909 5.86407 7.28957 6.75103 5.95898C7.59475 4.69356 9.02808 3.9148 11.2501 3.77441V2.5C11.2501 2.08579 11.5858 1.75 12.0001 1.75Z" fill="#202733"/>
</svg>
