<svg width="24" height="24" viewBox="0 0 24 24" fill="none" xmlns="http://www.w3.org/2000/svg">
<path d="M17.8262 9.85449C17.9791 9.70159 18.239 9.80145 18.2442 10.0176C18.2481 10.1802 18.2501 10.3413 18.2501 10.5V13.5C18.2501 14.3089 18.6739 15.4209 19.171 16.415C19.4102 16.8935 19.6508 17.3137 19.8311 17.6143C19.921 17.7641 19.9954 17.8839 20.0469 17.9648C20.0724 18.0049 20.0924 18.0355 20.1055 18.0557L20.1202 18.0781L20.1241 18.084C20.2773 18.314 20.2915 18.6098 20.1612 18.8535C20.0307 19.0974 19.7766 19.25 19.5001 19.25H15.1622C15.0243 19.8314 14.7273 20.3684 14.2979 20.7979C13.6884 21.4073 12.862 21.75 12.0001 21.75C11.1381 21.75 10.3117 21.4073 9.70221 20.7979C9.27279 20.3684 8.97587 19.8314 8.83795 19.25C8.68808 19.25 8.61298 19.0689 8.71881 18.9629L17.8262 9.85449ZM18.2745 5.16504C18.5674 4.87242 19.0422 4.87224 19.335 5.16504C19.6278 5.45784 19.6276 5.93268 19.335 6.22559L5.03033 20.5303C4.73745 20.8232 4.26268 20.8231 3.96978 20.5303C3.67689 20.2374 3.67689 19.7626 3.96978 19.4697L18.2745 5.16504ZM10.419 19.25C10.504 19.4293 10.6198 19.5943 10.7628 19.7373C11.0909 20.0655 11.5359 20.25 12.0001 20.25C12.4642 20.25 12.9092 20.0655 13.2374 19.7373C13.3803 19.5943 13.4961 19.4293 13.5811 19.25H10.419ZM12.0001 1.75C12.4142 1.75003 12.7501 2.08581 12.7501 2.5V3.77246C14.185 3.86313 15.2897 4.22259 16.1202 4.80566C16.242 4.89122 16.2516 5.06551 16.1465 5.1709L5.87701 15.4404C5.67548 15.642 5.31662 15.3881 5.41607 15.1211C5.61351 14.5929 5.75006 14.0457 5.75006 13.5V10.5C5.75006 8.99902 5.86396 7.2896 6.75103 5.95898C7.59473 4.69345 9.02802 3.91285 11.2501 3.77246V2.5C11.2501 2.08579 11.5858 1.75 12.0001 1.75Z" fill="#202733"/>
</svg>
