<svg width="24" height="24" viewBox="0 0 24 24" fill="none" xmlns="http://www.w3.org/2000/svg">
<path fill-rule="evenodd" clip-rule="evenodd" d="M12.75 2.5C12.75 2.08579 12.4142 1.75 12 1.75C11.5858 1.75 11.25 2.08579 11.25 2.5V3.77291C9.02795 3.91329 7.59466 4.69343 6.75096 5.95897C5.86389 7.28959 5.75 8.99902 5.75 10.5V13.5C5.75 14.3089 5.32624 15.4205 4.82918 16.4146C4.58988 16.8932 4.34979 17.3135 4.16938 17.6141C4.07938 17.7641 4.00475 17.8835 3.95319 17.9645C3.92742 18.005 3.90746 18.0359 3.89425 18.0561L3.87966 18.0784L3.87586 18.0841C3.72253 18.3143 3.70826 18.6101 3.83875 18.8539C3.96926 19.0978 4.2234 19.25 4.5 19.25H8.83771C8.97562 19.8314 9.27247 20.3687 9.7019 20.7981C10.3114 21.4076 11.138 21.75 12 21.75C12.862 21.75 13.6886 21.4076 14.2981 20.7981C14.7275 20.3687 15.0244 19.8314 15.1623 19.25H19.5C19.7766 19.25 20.0307 19.0978 20.1613 18.8539C20.2917 18.6101 20.2775 18.3143 20.1241 18.0841L20.1203 18.0784L20.1057 18.0561C20.0925 18.0359 20.0726 18.005 20.0468 17.9645C19.9953 17.8835 19.9206 17.7641 19.8306 17.6141C19.6502 17.3135 19.4101 16.8932 19.1708 16.4146C18.6738 15.4205 18.25 14.3089 18.25 13.5V10.5C18.25 8.99902 18.1361 7.28959 17.249 5.95897C16.4053 4.69343 14.9721 3.91329 12.75 3.77291V2.5ZM10.7626 19.7374C10.6196 19.5945 10.5039 19.4293 10.4189 19.25H13.5811C13.4961 19.4293 13.3804 19.5945 13.2374 19.7374C12.9092 20.0656 12.4641 20.25 12 20.25C11.5359 20.25 11.0908 20.0656 10.7626 19.7374Z" fill="#23262A"/>
</svg>
