<svg width="24" height="24" viewBox="0 0 24 24" fill="none" xmlns="http://www.w3.org/2000/svg">
<path fill-rule="evenodd" clip-rule="evenodd" d="M16.75 6C16.75 5.58579 16.4142 5.25 16 5.25H14C13.7461 5.25 13.5095 5.37844 13.3711 5.59131C13.2328 5.80419 13.2115 6.0726 13.3146 6.3046L14.6439 9.29544L12.2731 11.6662L10.6307 9.75H11C11.4142 9.75 11.75 9.41421 11.75 9C11.75 8.58579 11.4142 8.25 11 8.25H8C7.58579 8.25 7.25 8.58579 7.25 9C7.25 9.41421 7.58579 9.75 8 9.75H8.65505L11.2093 12.73L10.6302 13.3091L9.45677 13.5438C8.88831 12.196 7.55463 11.25 6 11.25C3.92893 11.25 2.25 12.9289 2.25 15C2.25 17.0711 3.92893 18.75 6 18.75C8.06611 18.75 9.74196 17.0791 9.74997 15.0149L11.1471 14.7354C11.2923 14.7064 11.4256 14.635 11.5303 14.5303L15.2966 10.764L15.8223 11.9468C14.8705 12.6269 14.25 13.741 14.25 15C14.25 17.0711 15.9289 18.75 18 18.75C20.0711 18.75 21.75 17.0711 21.75 15C21.75 12.9289 20.0711 11.25 18 11.25C17.7229 11.25 17.4528 11.2801 17.1928 11.3371L15.1541 6.75H16C16.4142 6.75 16.75 6.41421 16.75 6ZM7.9334 13.8485L5.85291 14.2646C5.44674 14.3458 5.18333 14.7409 5.26456 15.1471C5.3458 15.5533 5.74092 15.8167 6.14709 15.7354L8.22751 15.3194C8.07244 16.4107 7.13423 17.25 6 17.25C4.75736 17.25 3.75 16.2426 3.75 15C3.75 13.7574 4.75736 12.75 6 12.75C6.82182 12.75 7.54073 13.1906 7.9334 13.8485ZM15.75 15C15.75 14.3566 16.0201 13.7762 16.4531 13.3661L17.3146 15.3046C17.4829 15.6831 17.9261 15.8536 18.3046 15.6854C18.6831 15.5171 18.8536 15.0739 18.6854 14.6954L17.8238 12.7568C17.8819 12.7523 17.9407 12.75 18 12.75C19.2426 12.75 20.25 13.7574 20.25 15C20.25 16.2426 19.2426 17.25 18 17.25C16.7574 17.25 15.75 16.2426 15.75 15Z" fill="#23262A"/>
</svg>
