<svg width="24" height="24" viewBox="0 0 24 24" fill="none" xmlns="http://www.w3.org/2000/svg">
<path fill-rule="evenodd" clip-rule="evenodd" d="M6 2.25C5.58579 2.25 5.25 2.58579 5.25 3V11.0676L4.27734 11.37C4.07835 11.4318 3.91408 11.5737 3.82389 11.7615C3.7337 11.9494 3.72573 12.1663 3.80189 12.3603L7.30189 21.2741C7.41461 21.5612 7.69158 21.75 8 21.75H16C16.3084 21.75 16.5854 21.5612 16.6981 21.2741L20.1981 12.3603C20.2743 12.1663 20.2663 11.9494 20.1761 11.7615C20.0859 11.5737 19.9216 11.4318 19.7227 11.37L18.75 11.0676V3C18.75 2.58579 18.4142 2.25 18 2.25H6ZM17.25 10.6012V3.75H6.75V10.6012L11.7773 9.03821C11.9224 8.99312 12.0776 8.99312 12.2227 9.03821L17.25 10.6012ZM8.51126 20.25L5.49292 12.5629L12 10.5398L18.5071 12.5629L15.4887 20.25H8.51126ZM12.75 6.50049C12.75 6.08627 13.0858 5.75049 13.5 5.75049H15C15.4142 5.75049 15.75 6.08627 15.75 6.50049C15.75 6.9147 15.4142 7.25049 15 7.25049H13.5C13.0858 7.25049 12.75 6.9147 12.75 6.50049ZM9 5.75049C8.58579 5.75049 8.25 6.08627 8.25 6.50049C8.25 6.9147 8.58579 7.25049 9 7.25049H10.5C10.9142 7.25049 11.25 6.9147 11.25 6.50049C11.25 6.08627 10.9142 5.75049 10.5 5.75049H9Z" fill="#262626"/>
</svg>
