<svg width="24" height="24" viewBox="0 0 24 24" fill="none" xmlns="http://www.w3.org/2000/svg">
<path fill-rule="evenodd" clip-rule="evenodd" d="M5.25 3C5.25 2.58579 5.58579 2.25 6 2.25H18C18.4142 2.25 18.75 2.58579 18.75 3V9.65285C18.75 9.82136 18.5867 9.94161 18.4258 9.89158L12.6679 8.10144C12.2328 7.96619 11.767 7.96619 11.3319 8.10144L5.57422 9.89152C5.41331 9.94155 5.25 9.8213 5.25 9.6528V3ZM13.5 5.75049C13.0858 5.75049 12.75 6.08627 12.75 6.50049C12.75 6.9147 13.0858 7.25049 13.5 7.25049H15C15.4142 7.25049 15.75 6.9147 15.75 6.50049C15.75 6.08627 15.4142 5.75049 15 5.75049H13.5ZM8.25 6.50049C8.25 6.08627 8.58579 5.75049 9 5.75049H10.5C10.9142 5.75049 11.25 6.08627 11.25 6.50049C11.25 6.9147 10.9142 7.25049 10.5 7.25049H9C8.58579 7.25049 8.25 6.9147 8.25 6.50049ZM12.2226 9.53381C12.0776 9.48873 11.9223 9.48873 11.7773 9.53381L4.45068 11.8117C4.25169 11.8735 4.08742 12.0154 3.99723 12.2032C3.90704 12.3911 3.89907 12.608 3.97523 12.802L7.3018 21.2741C7.41452 21.5612 7.6915 21.75 7.99991 21.75H15.9999C16.3083 21.75 16.5853 21.5612 16.698 21.2741L20.0246 12.802C20.1008 12.608 20.0928 12.3911 20.0026 12.2032C19.9124 12.0154 19.7481 11.8735 19.5491 11.8117L12.2226 9.53381Z" fill="#23262A"/>
</svg>
