<svg width="24" height="24" viewBox="0 0 24 24" fill="none" xmlns="http://www.w3.org/2000/svg">
<path fill-rule="evenodd" clip-rule="evenodd" d="M5.25 3C5.25 2.58579 5.58579 2.25 6 2.25H18C18.4142 2.25 18.75 2.58579 18.75 3V11.0676L19.7227 11.37C19.9216 11.4318 20.0859 11.5737 20.1761 11.7615C20.2663 11.9494 20.2743 12.1663 20.1981 12.3603L16.6981 21.2741C16.5854 21.5612 16.3084 21.75 16 21.75H8C7.69158 21.75 7.41461 21.5612 7.30189 21.2741L3.80189 12.3603C3.72573 12.1663 3.7337 11.9494 3.82389 11.7615C3.91408 11.5737 4.07835 11.4318 4.27734 11.37L5.25 11.0676V3ZM17.25 10.6012L12.2227 9.03821C12.0776 8.99312 11.9224 8.99312 11.7773 9.03821L6.75 10.6012V3.75H17.25V10.6012ZM5.49292 12.5629L8.51126 20.25H15.4887L18.5071 12.5629L12 10.5398L5.49292 12.5629ZM8.25 6.50049C8.25 6.08627 8.58579 5.75049 9 5.75049H10.5C10.9142 5.75049 11.25 6.08627 11.25 6.50049C11.25 6.9147 10.9142 7.25049 10.5 7.25049H9C8.58579 7.25049 8.25 6.9147 8.25 6.50049ZM12.75 6.50049C12.75 6.08627 13.0858 5.75049 13.5 5.75049H15C15.4142 5.75049 15.75 6.08627 15.75 6.50049C15.75 6.9147 15.4142 7.25049 15 7.25049H13.5C13.0858 7.25049 12.75 6.9147 12.75 6.50049Z" fill="#23262A"/>
</svg>
