<svg width="24" height="24" viewBox="0 0 24 24" fill="none" xmlns="http://www.w3.org/2000/svg">
<path fill-rule="evenodd" clip-rule="evenodd" d="M16.1387 14.75H7.80427C7.33638 15.7361 6.33216 16.4183 5.16733 16.4183C3.55613 16.4183 2.25 15.1122 2.25 13.501C2.25 12.9523 2.40192 12.4384 2.66546 11.9999C2.40192 11.5614 2.25 11.0475 2.25 10.4988C2.25 8.88765 3.55613 7.58152 5.16733 7.58152C6.33222 7.58152 7.33648 8.26376 7.80434 9.24998H16.1385C16.6063 8.2637 17.6106 7.58142 18.7755 7.58142C20.3867 7.58142 21.6929 8.88755 21.6929 10.4987C21.6929 11.0474 21.5409 11.5613 21.2774 11.9998C21.5409 12.4383 21.6929 12.9522 21.6929 13.5009C21.6929 15.1121 20.3867 16.4182 18.7755 16.4182C17.6107 16.4182 16.6066 15.7361 16.1387 14.75Z" fill="#23262A"/>
</svg>
