<svg width="24" height="24" viewBox="0 0 24 24" fill="none" xmlns="http://www.w3.org/2000/svg">
<path fill-rule="evenodd" clip-rule="evenodd" d="M5.16733 16.4183C6.33216 16.4183 7.33638 15.7361 7.80427 14.75H16.1387C16.6066 15.7361 17.6107 16.4182 18.7755 16.4182C20.3867 16.4182 21.6929 15.1121 21.6929 13.5009C21.6929 12.9522 21.5409 12.4383 21.2774 11.9998C21.5409 11.5613 21.6929 11.0474 21.6929 10.4987C21.6929 8.88755 20.3867 7.58142 18.7755 7.58142C17.6106 7.58142 16.6063 8.2637 16.1385 9.24998H7.80433C7.33648 8.26376 6.33222 7.58152 5.16733 7.58152C3.55613 7.58152 2.25 8.88765 2.25 10.4988C2.25 11.0475 2.40192 11.5614 2.66546 11.9999C2.40192 12.4384 2.25 12.9523 2.25 13.501C2.25 15.1122 3.55613 16.4183 5.16733 16.4183ZM20.1929 13.5009C20.1929 14.2836 19.5583 14.9182 18.7755 14.9182C18.1053 14.9182 17.542 14.4522 17.3954 13.8256C17.3087 13.4549 16.9608 13.2133 16.5919 13.25H7.35C6.98146 13.2138 6.63409 13.4553 6.54744 13.8257C6.40088 14.4523 5.83762 14.9183 5.16733 14.9183C4.38456 14.9183 3.75 14.2837 3.75 13.501C3.75 13.1196 3.8996 12.7748 4.14489 12.5194C4.42364 12.2292 4.42364 11.7706 4.14489 11.4804C3.8996 11.225 3.75 10.8802 3.75 10.4988C3.75 9.71608 4.38456 9.08152 5.16733 9.08152C5.83762 9.08152 6.40088 9.54754 6.54744 10.1741C6.63397 10.544 6.98049 10.7853 7.34847 10.75H16.5954C16.963 10.7848 17.309 10.5435 17.3954 10.174C17.542 9.54744 18.1053 9.08142 18.7755 9.08142C19.5583 9.08142 20.1929 9.71598 20.1929 10.4987C20.1929 10.8801 20.0433 11.2249 19.798 11.4803C19.5192 11.7705 19.5192 12.2291 19.798 12.5193C20.0433 12.7747 20.1929 13.1195 20.1929 13.5009Z" fill="#23262A"/>
</svg>
