<svg width="24" height="24" viewBox="0 0 24 24" fill="none" xmlns="http://www.w3.org/2000/svg">
<path fill-rule="evenodd" clip-rule="evenodd" d="M12.75 6.29761C12.75 5.88339 12.4142 5.54761 12 5.54761C11.5858 5.54761 11.25 5.88339 11.25 6.29761V8.29761C11.25 8.71182 11.5858 9.04761 12 9.04761C12.4142 9.04761 12.75 8.71182 12.75 8.29761V6.29761ZM6.7972 16.4171C7.5529 16.2146 8.00137 15.4379 7.79888 14.6821C7.74739 14.49 7.77435 14.2853 7.87383 14.113C7.9733 13.9407 8.13713 13.815 8.32928 13.7636L10.5817 13.1603C10.9818 13.0531 11.393 13.2906 11.5002 13.6907C11.6074 14.0908 11.3699 14.502 10.9698 14.6092L9.34786 15.0436C9.35098 16.3341 8.49085 17.5162 7.18542 17.866C5.62951 18.2829 4.03024 17.3596 3.61334 15.8037C3.47139 15.2739 3.48511 14.7384 3.62609 14.2467C3.25818 13.8915 2.97854 13.4345 2.83659 12.9048C2.41969 11.3489 3.34303 9.74957 4.89894 9.33266C6.20441 8.98286 7.5404 9.57658 8.18292 10.6958L9.8049 10.2613C10.205 10.1541 10.6162 10.3916 10.7234 10.7917C10.8306 11.1918 10.5931 11.603 10.193 11.7102L7.94065 12.3136C7.54056 12.4208 7.12934 12.1833 7.02214 11.7833C6.81964 11.0275 6.04286 10.5791 5.28716 10.7816C4.53146 10.984 4.08299 11.7608 4.28548 12.5166C4.38413 12.8847 4.61775 13.1789 4.92063 13.362C5.265 13.5703 5.38367 14.0131 5.18955 14.3656C5.01881 14.6757 4.96358 15.0473 5.06222 15.4154C5.26472 16.1712 6.0415 16.6196 6.7972 16.4171ZM18.713 10.7816C17.9573 10.5791 17.1805 11.0275 16.978 11.7833C16.9266 11.9754 16.8008 12.1392 16.6286 12.2387C16.4563 12.3381 16.2516 12.3651 16.0594 12.3136L13.8071 11.7098C13.407 11.6026 13.1696 11.1913 13.2769 10.7912C13.3841 10.3911 13.7954 10.1537 14.1955 10.261L15.8173 10.6957C16.4599 9.57656 17.7958 8.98288 19.1012 9.33268C20.6571 9.74959 21.5805 11.3489 21.1636 12.9048C21.0216 13.4345 20.742 13.8915 20.3741 14.2468C20.5151 14.7384 20.5288 15.2739 20.3868 15.8037C19.9699 17.3596 18.3707 18.283 16.8148 17.866C15.5093 17.5162 14.6491 16.3341 14.6523 15.0435L13.0304 14.6088C12.6303 14.5016 12.3929 14.0903 12.5001 13.6902C12.6073 13.2901 13.0186 13.0527 13.4187 13.1599L15.671 13.7636C16.0711 13.8708 16.3085 14.2821 16.2013 14.6822C15.9988 15.4379 16.4473 16.2147 17.203 16.4172C17.9587 16.6196 18.7355 16.1712 18.938 15.4154C19.0366 15.0473 18.9814 14.6757 18.8106 14.3657C18.6165 14.0132 18.7352 13.5703 19.0795 13.3621C19.3824 13.1789 19.6161 12.8847 19.7147 12.5166C19.9172 11.7608 19.4687 10.9841 18.713 10.7816ZM16.9444 6.35296C17.2373 6.64586 17.2373 7.12073 16.9444 7.41362L15.5302 8.82784C15.2373 9.12073 14.7624 9.12073 14.4695 8.82784C14.1766 8.53494 14.1766 8.06007 14.4695 7.76718L15.8837 6.35296C16.1766 6.06007 16.6515 6.06007 16.9444 6.35296ZM8.11626 6.35297C7.82337 6.06008 7.3485 6.06008 7.0556 6.35297C6.76271 6.64586 6.76271 7.12074 7.0556 7.41363L8.46982 8.82784C8.76271 9.12074 9.23758 9.12074 9.53048 8.82784C9.82337 8.53495 9.82337 8.06008 9.53048 7.76718L8.11626 6.35297Z" fill="#23262A"/>
</svg>
