<svg width="24" height="24" viewBox="0 0 24 24" fill="none" xmlns="http://www.w3.org/2000/svg">
<path fill-rule="evenodd" clip-rule="evenodd" d="M19.5652 20.4534C19.1078 19.5385 19.1078 18.4615 19.5652 17.5466L19.6641 17.3489C19.7189 17.2447 19.75 17.126 19.75 17C19.75 16.9832 19.7494 16.9665 19.7484 16.95C19.7494 16.9335 19.75 16.9168 19.75 16.9V3.5C19.75 2.80964 19.1904 2.25 18.5 2.25H7C5.48122 2.25 4.25 3.48122 4.25 5V19C4.25 20.5188 5.48122 21.75 7 21.75H19C19.2599 21.75 19.5013 21.6154 19.638 21.3943C19.7746 21.1732 19.7871 20.8971 19.6708 20.6646L19.5652 20.4534ZM17.8895 20.25C17.6663 19.4319 17.6663 18.5681 17.8895 17.75H7C6.30964 17.75 5.75 18.3096 5.75 19C5.75 19.6904 6.30964 20.25 7 20.25H17.8895ZM9.5 6C9.22386 6 9 6.22386 9 6.5V8.5C9 8.77614 9.22386 9 9.5 9H14.5C14.7761 9 15 8.77614 15 8.5V6.5C15 6.22386 14.7761 6 14.5 6H9.5Z" fill="#23262A"/>
</svg>
