<svg width="24" height="24" viewBox="0 0 24 24" fill="none" xmlns="http://www.w3.org/2000/svg">
<path fill-rule="evenodd" clip-rule="evenodd" d="M8 4.75C7.86193 4.75 7.75 4.86193 7.75 5V18.1893L11.4697 14.4697C11.7626 14.1768 12.2374 14.1768 12.5303 14.4697L16.25 18.1893V5C16.25 4.86193 16.1381 4.75 16 4.75H8ZM6.25 5C6.25 4.0335 7.0335 3.25 8 3.25H16C16.9665 3.25 17.75 4.0335 17.75 5V20C17.75 20.3033 17.5673 20.5768 17.287 20.6929C17.0068 20.809 16.6842 20.7448 16.4697 20.5303L12 16.0607L7.53033 20.5303C7.31583 20.7448 6.99324 20.809 6.71299 20.6929C6.43273 20.5768 6.25 20.3033 6.25 20V5Z" fill="#23262A"/>
</svg>
