<svg width="24" height="24" viewBox="0 0 24 24" fill="none" xmlns="http://www.w3.org/2000/svg">
<path fill-rule="evenodd" clip-rule="evenodd" d="M19.6708 16.3354C19.7871 16.1029 19.7746 15.8268 19.638 15.6057L19.6536 15.6301L19.5653 15.4534C19.1078 14.5385 19.1078 13.4615 19.5653 12.5466L19.6537 12.3698L19.6677 12.3417C19.7465 12.1876 19.7704 12.0093 19.7321 11.8373L17.8191 3.22884C17.6921 2.65692 17.1848 2.25 16.5989 2.25H8.66443C7.33828 2.25 6.20103 3.19644 5.96017 4.50052L4.31997 13.3809C4.27419 13.5799 4.25 13.7871 4.25 14L4.25017 14.0321C4.25909 14.8074 4.58867 15.5055 5.11252 16C4.58144 16.5014 4.25 17.212 4.25 18C4.25 19.5188 5.48122 20.75 7 20.75H19C19.2599 20.75 19.5013 20.6154 19.638 20.3943C19.7746 20.1732 19.7871 19.8971 19.6708 19.6646L19.5652 19.4534C19.1078 18.5385 19.1078 17.4615 19.5652 16.5466L19.6708 16.3354ZM17.8895 19.25C17.6663 18.4319 17.6663 17.5681 17.8895 16.75H7C6.30964 16.75 5.75 17.3096 5.75 18C5.75 18.6904 6.30964 19.25 7 19.25H17.8895ZM5.75007 14.0149C5.75781 14.6873 6.29699 15.2324 6.96694 15.2496L7 15.25H17.8895C17.6664 14.4319 17.6664 13.5681 17.8895 12.75H7C6.41403 12.75 5.92223 13.1532 5.7869 13.6973L5.75931 13.8467C5.75316 13.8969 5.75 13.9481 5.75 14L5.75007 14.0149ZM9.47068 5C9.3446 5 9.23825 5.09388 9.22261 5.21899L9.03511 6.71899C9.01646 6.8682 9.1328 7 9.28318 7H14.7168C14.8672 7 14.9835 6.8682 14.9649 6.71899L14.7774 5.21899C14.7617 5.09388 14.6554 5 14.5293 5H9.47068Z" fill="#23262A"/>
</svg>
