<svg width="24" height="24" viewBox="0 0 24 24" fill="none" xmlns="http://www.w3.org/2000/svg">
<path fill-rule="evenodd" clip-rule="evenodd" d="M8.50579 4.90697C8.55271 4.53165 8.87176 4.25 9.25 4.25H14.75C15.1282 4.25 15.4473 4.53165 15.4942 4.90697L15.7442 6.90697C15.7709 7.12044 15.7046 7.33508 15.5623 7.49635C15.4199 7.65763 15.2151 7.75 15 7.75H9C8.78488 7.75 8.58011 7.65763 8.43774 7.49635C8.29537 7.33508 8.22911 7.12044 8.25579 6.90697L8.50579 4.90697ZM9.91209 5.75L9.84959 6.25H14.1504L14.0879 5.75H9.91209Z" fill="#23262A"/>
<path fill-rule="evenodd" clip-rule="evenodd" d="M8.66527 2.25C7.33861 2.25 6.20107 3.19715 5.96076 4.50186L4.34106 13.2955C4.28165 13.5204 4.25 13.7565 4.25 14C4.25 14.788 4.58144 15.4986 5.11253 16C4.58144 16.5014 4.25 17.212 4.25 18C4.25 19.5188 5.48122 20.75 7 20.75H19C19.2599 20.75 19.5013 20.6154 19.638 20.3943C19.7746 20.1732 19.7871 19.8971 19.6708 19.6646L19.5652 19.4534C19.1078 18.5385 19.1078 17.4615 19.5652 16.5466L19.6694 16.3382L19.6708 16.3354C19.6895 16.298 19.7049 16.2594 19.717 16.2201C19.739 16.1485 19.75 16.0743 19.75 16C19.75 15.9743 19.7487 15.9486 19.746 15.923C19.7438 15.9017 19.7407 15.8804 19.7367 15.8593C19.7294 15.8213 19.7193 15.7839 19.7061 15.7472C19.6961 15.7192 19.6843 15.6916 19.6708 15.6646L19.6694 15.6618L19.5652 15.4534C19.1078 14.5385 19.1078 13.4615 19.5652 12.5466L19.6708 12.3354C19.7238 12.2295 19.75 12.1146 19.75 12C19.75 11.9463 19.7443 11.8919 19.7321 11.8373L17.8191 3.22884C17.6921 2.65692 17.1848 2.25 16.5989 2.25H8.66527ZM16.3984 3.75H8.66527C8.06224 3.75 7.54518 4.18052 7.43594 4.77357L6.22253 11.3614C6.46906 11.2889 6.72999 11.25 7 11.25H18.065L16.3984 3.75ZM17.8895 15.25C17.6663 14.4319 17.6663 13.5681 17.8895 12.75H7C6.30964 12.75 5.75 13.3096 5.75 14C5.75 14.6904 6.30964 15.25 7 15.25H17.8895ZM17.8895 19.25C17.6663 18.4319 17.6663 17.5681 17.8895 16.75H7C6.30964 16.75 5.75 17.3096 5.75 18C5.75 18.6904 6.30964 19.25 7 19.25H17.8895Z" fill="#23262A"/>
</svg>
