<svg width="24" height="24" viewBox="0 0 24 24" fill="none" xmlns="http://www.w3.org/2000/svg">
<path fill-rule="evenodd" clip-rule="evenodd" d="M8.25 6C8.25 5.58579 8.58579 5.25 9 5.25H15C15.4142 5.25 15.75 5.58579 15.75 6V9C15.75 9.41421 15.4142 9.75 15 9.75H9C8.58579 9.75 8.25 9.41421 8.25 9V6ZM9.75 6.75V8.25H14.25V6.75H9.75Z" fill="#23262A"/>
<path fill-rule="evenodd" clip-rule="evenodd" d="M7 2.25C5.48122 2.25 4.25 3.48122 4.25 5V19C4.25 20.5188 5.48122 21.75 7 21.75H19C19.2599 21.75 19.5013 21.6154 19.638 21.3943C19.7746 21.1732 19.7871 20.8971 19.6708 20.6646L19.5652 20.4534C19.1078 19.5385 19.1078 18.4615 19.5652 17.5466L19.6708 17.3354C19.7236 17.2299 19.7498 17.1155 19.75 17.0013V16.9V3.5C19.75 2.80964 19.1904 2.25 18.5 2.25H7ZM18.25 3.75H7C6.30964 3.75 5.75 4.30964 5.75 5V16.5499C6.12503 16.3581 6.54989 16.25 7 16.25H18.25V3.75ZM17.8895 20.25C17.6663 19.4319 17.6663 18.5681 17.8895 17.75H7C6.30964 17.75 5.75 18.3096 5.75 19C5.75 19.6904 6.30964 20.25 7 20.25H17.8895Z" fill="#23262A"/>
</svg>
