<svg width="24" height="24" viewBox="0 0 24 24" fill="none" xmlns="http://www.w3.org/2000/svg">
<path fill-rule="evenodd" clip-rule="evenodd" d="M8 4.75C7.86193 4.75 7.75 4.86193 7.75 5V6.875C7.75 7.28921 7.41421 7.625 7 7.625C6.58579 7.625 6.25 7.28921 6.25 6.875V5C6.25 4.0335 7.0335 3.25 8 3.25H10C10.4142 3.25 10.75 3.58579 10.75 4C10.75 4.41421 10.4142 4.75 10 4.75H8ZM13.25 4C13.25 3.58579 13.5858 3.25 14 3.25H16C16.9665 3.25 17.75 4.0335 17.75 5V6.875C17.75 7.28921 17.4142 7.625 17 7.625C16.5858 7.625 16.25 7.28921 16.25 6.875V5C16.25 4.86193 16.1381 4.75 16 4.75H14C13.5858 4.75 13.25 4.41421 13.25 4ZM7 9.875C7.41421 9.875 7.75 10.2108 7.75 10.625V14.375C7.75 14.7892 7.41421 15.125 7 15.125C6.58579 15.125 6.25 14.7892 6.25 14.375V10.625C6.25 10.2108 6.58579 9.875 7 9.875ZM17 9.875C17.4142 9.875 17.75 10.2108 17.75 10.625V14.375C17.75 14.7892 17.4142 15.125 17 15.125C16.5858 15.125 16.25 14.7892 16.25 14.375V10.625C16.25 10.2108 16.5858 9.875 17 9.875ZM11.4697 14.4697C11.7626 14.1768 12.2374 14.1768 12.5303 14.4697L13.7803 15.7197C14.0732 16.0126 14.0732 16.4874 13.7803 16.7803C13.4874 17.0732 13.0126 17.0732 12.7197 16.7803L12 16.0607L11.2803 16.7803C10.9874 17.0732 10.5126 17.0732 10.2197 16.7803C9.92678 16.4874 9.92678 16.0126 10.2197 15.7197L11.4697 14.4697ZM7 17.375C7.41421 17.375 7.75 17.7108 7.75 18.125V18.191C8.04448 17.9271 8.49734 17.9367 8.78033 18.2197C9.07322 18.5126 9.07322 18.9874 8.78033 19.2803L7.53033 20.5303C7.31583 20.7448 6.99324 20.809 6.71299 20.6929C6.43273 20.5768 6.25 20.3033 6.25 20V18.125C6.25 17.7108 6.58579 17.375 7 17.375ZM17 17.375C17.4142 17.375 17.75 17.7108 17.75 18.125V20C17.75 20.3033 17.5673 20.5768 17.287 20.6929C17.0068 20.809 16.6842 20.7448 16.4697 20.5303L15.2197 19.2803C14.9268 18.9874 14.9268 18.5126 15.2197 18.2197C15.5027 17.9367 15.9555 17.9271 16.25 18.191V18.125C16.25 17.7108 16.5858 17.375 17 17.375Z" fill="#23262A"/>
</svg>
