<svg width="24" height="24" viewBox="0 0 24 24" fill="none" xmlns="http://www.w3.org/2000/svg">
<path fill-rule="evenodd" clip-rule="evenodd" d="M5.5 6C5.5 5.17157 6.17157 4.5 7 4.5C7.82843 4.5 8.5 5.17157 8.5 6C8.5 6.82843 7.82843 7.5 7 7.5C6.17157 7.5 5.5 6.82843 5.5 6ZM13.3513 10.75C13.0847 10.75 12.8532 10.9713 12.8532 11.2632V16C12.8532 16.3051 12.6684 16.5797 12.3858 16.6947C12.1033 16.8097 11.7792 16.742 11.5662 16.5236L10.4275 15.3558C10.2732 15.1975 10.0249 15.1967 9.86964 15.3539C9.73267 15.4925 9.70986 15.7139 9.81908 15.8797L12.0392 19.25H17.4978L18.1969 16.8917C18.4088 16.1767 17.964 15.4462 17.2619 15.3041L14.4506 14.7351C14.1009 14.6643 13.8494 14.3569 13.8494 14V11.2632C13.8494 10.9713 13.618 10.75 13.3513 10.75ZM11.3532 11.2632C11.3532 10.1598 12.2393 9.25 13.3513 9.25C14.4633 9.25 15.3494 10.1598 15.3494 11.2632V13.3866L17.5595 13.8339C19.1415 14.1542 20.0924 15.775 19.635 17.318L18.7768 20.2132C18.6824 20.5316 18.3899 20.75 18.0577 20.75H11.6352C11.3829 20.75 11.1476 20.6232 11.0088 20.4126L8.56644 16.7048C8.06876 15.9493 8.16599 14.9439 8.80265 14.2996C9.50006 13.5938 10.6073 13.552 11.3532 14.1716V11.2632ZM7 9.5C6.17157 9.5 5.5 10.1716 5.5 11C5.5 11.8284 6.17157 12.5 7 12.5C7.82843 12.5 8.5 11.8284 8.5 11C8.5 10.1716 7.82843 9.5 7 9.5ZM10.5 6C10.5 5.17157 11.1716 4.5 12 4.5C12.8284 4.5 13.5 5.17157 13.5 6C13.5 6.82843 12.8284 7.5 12 7.5C11.1716 7.5 10.5 6.82843 10.5 6ZM17 4.5C16.1716 4.5 15.5 5.17157 15.5 6C15.5 6.82843 16.1716 7.5 17 7.5C17.8284 7.5 18.5 6.82843 18.5 6C18.5 5.17157 17.8284 4.5 17 4.5Z" fill="#23262A"/>
</svg>
