<svg width="24" height="24" viewBox="0 0 24 24" fill="none" xmlns="http://www.w3.org/2000/svg">
<path fill-rule="evenodd" clip-rule="evenodd" d="M5.5 6C5.5 5.17157 6.17157 4.5 7 4.5C7.82843 4.5 8.5 5.17157 8.5 6C8.5 6.82843 7.82843 7.5 7 7.5C6.17157 7.5 5.5 6.82843 5.5 6ZM5.5 11C5.5 10.1716 6.17157 9.5 7 9.5C7.82843 9.5 8.5 10.1716 8.5 11C8.5 11.8284 7.82843 12.5 7 12.5C6.17157 12.5 5.5 11.8284 5.5 11ZM12 4.5C11.1716 4.5 10.5 5.17157 10.5 6C10.5 6.82843 11.1716 7.5 12 7.5C12.8284 7.5 13.5 6.82843 13.5 6C13.5 5.17157 12.8284 4.5 12 4.5ZM15.5 6C15.5 5.17157 16.1716 4.5 17 4.5C17.8284 4.5 18.5 5.17157 18.5 6C18.5 6.82843 17.8284 7.5 17 7.5C16.1716 7.5 15.5 6.82843 15.5 6ZM13.3513 9.25C12.2393 9.25 11.3532 10.1598 11.3532 11.2632V14.1716C10.6073 13.552 9.50006 13.5938 8.80265 14.2996C8.16599 14.9439 8.06876 15.9493 8.56644 16.7048L11.0088 20.4126C11.1476 20.6232 11.3829 20.75 11.6352 20.75H18.0577C18.3899 20.75 18.6824 20.5316 18.7768 20.2132L19.635 17.318C20.0924 15.775 19.1415 14.1542 17.5595 13.8339L15.3494 13.3866V11.2632C15.3494 10.1598 14.4633 9.25 13.3513 9.25Z" fill="#23262A"/>
</svg>
