<svg width="24" height="24" viewBox="0 0 24 24" fill="none" xmlns="http://www.w3.org/2000/svg">
<path fill-rule="evenodd" clip-rule="evenodd" d="M12.25 5.5C12.25 6.47966 11.6239 7.31309 10.75 7.62197V12.25H12C14.3472 12.25 16.25 10.3472 16.25 8V7.62197C15.3761 7.31309 14.75 6.47966 14.75 5.5C14.75 4.25736 15.7574 3.25 17 3.25C18.2426 3.25 19.25 4.25736 19.25 5.5C19.25 6.47966 18.6239 7.31309 17.75 7.62197V8C17.75 11.1756 15.1756 13.75 12 13.75H10.75V16.378C11.6239 16.6869 12.25 17.5203 12.25 18.5C12.25 19.7426 11.2426 20.75 10 20.75C8.75736 20.75 7.75 19.7426 7.75 18.5C7.75 17.5203 8.37611 16.6869 9.25 16.378V7.62197C8.37611 7.31309 7.75 6.47966 7.75 5.5C7.75 4.25736 8.75736 3.25 10 3.25C11.2426 3.25 12.25 4.25736 12.25 5.5ZM10 4.75C9.58579 4.75 9.25 5.08579 9.25 5.5C9.25 5.91421 9.58579 6.25 10 6.25C10.4142 6.25 10.75 5.91421 10.75 5.5C10.75 5.08579 10.4142 4.75 10 4.75ZM17 6.25C17.4142 6.25 17.75 5.91421 17.75 5.5C17.75 5.08579 17.4142 4.75 17 4.75C16.5858 4.75 16.25 5.08579 16.25 5.5C16.25 5.91421 16.5858 6.25 17 6.25ZM9.25 18.5C9.25 18.0858 9.58579 17.75 10 17.75C10.4142 17.75 10.75 18.0858 10.75 18.5C10.75 18.9142 10.4142 19.25 10 19.25C9.58579 19.25 9.25 18.9142 9.25 18.5Z" fill="#23262A"/>
</svg>
