<svg width="24" height="24" viewBox="0 0 24 24" fill="none" xmlns="http://www.w3.org/2000/svg">
<path fill-rule="evenodd" clip-rule="evenodd" d="M2.25 7.5C2.25 6.80964 2.80964 6.25 3.5 6.25H7.75V5C7.75 4.0335 8.5335 3.25 9.5 3.25H14.5C15.4665 3.25 16.25 4.0335 16.25 5V6.25H20.5C21.1904 6.25 21.75 6.80964 21.75 7.5V12.5C21.75 13.1904 21.1904 13.75 20.5 13.75H20.25V18.5C20.25 19.1904 19.6904 19.75 19 19.75H5C4.30964 19.75 3.75 19.1904 3.75 18.5V13.75H3.5C2.80964 13.75 2.25 13.1904 2.25 12.5V7.5ZM9.25 5C9.25 4.86193 9.36193 4.75 9.5 4.75H14.5C14.6381 4.75 14.75 4.86193 14.75 5V6.25H9.25V5ZM12 15.75C12.4142 15.75 12.75 15.4142 12.75 15V13.75H18.75V18.25H5.25V13.75H11.25V15C11.25 15.4142 11.5858 15.75 12 15.75ZM12 10.25C12.4142 10.25 12.75 10.5858 12.75 11V12.25H20.25V7.75H3.75V12.25H11.25V11C11.25 10.5858 11.5858 10.25 12 10.25Z" fill="#23262A"/>
</svg>
