<svg width="24" height="24" viewBox="0 0 24 24" fill="none" xmlns="http://www.w3.org/2000/svg">
<path fill-rule="evenodd" clip-rule="evenodd" d="M9.5 4.75C9.36193 4.75 9.25 4.86193 9.25 5V6.25H14.75V5C14.75 4.86193 14.6381 4.75 14.5 4.75H9.5ZM7.75 5V6.25H3.5C2.80964 6.25 2.25 6.80964 2.25 7.5V11.5C2.25 12.1904 2.80964 12.75 3.5 12.75H11.25V11C11.25 10.5858 11.5858 10.25 12 10.25C12.4142 10.25 12.75 10.5858 12.75 11V12.75H20.5C21.1904 12.75 21.75 12.1904 21.75 11.5V7.5C21.75 6.80964 21.1904 6.25 20.5 6.25H16.25V5C16.25 4.0335 15.4665 3.25 14.5 3.25H9.5C8.5335 3.25 7.75 4.0335 7.75 5ZM11.25 14.25V15C11.25 15.4142 11.5858 15.75 12 15.75C12.4142 15.75 12.75 15.4142 12.75 15V14.25H20.25V18.5C20.25 19.1904 19.6904 19.75 19 19.75H5C4.30964 19.75 3.75 19.1904 3.75 18.5V14.25H11.25Z" fill="#23262A"/>
</svg>
