<svg width="24" height="24" viewBox="0 0 24 24" fill="none" xmlns="http://www.w3.org/2000/svg">
<path fill-rule="evenodd" clip-rule="evenodd" d="M7.75 5C7.75 4.0335 8.5335 3.25 9.5 3.25H14.5C15.4665 3.25 16.25 4.0335 16.25 5V6.25H21C21.4142 6.25 21.75 6.58579 21.75 7V10C21.75 10.4142 21.4142 10.75 21 10.75C20.5858 10.75 20.25 10.4142 20.25 10V7.75H15.5H8.5H3.75V12.25H4.48721L4.5 12.2499L4.51279 12.25H7.5C7.91421 12.25 8.25 12.5858 8.25 13C8.25 13.4142 7.91421 13.75 7.5 13.75H5.25V18.2499H8.5C8.91421 18.2499 9.25 18.5857 9.25 18.9999C9.25 19.4141 8.91421 19.7499 8.5 19.7499H4.5C4.08579 19.7499 3.75 19.4141 3.75 18.9999V13.75H3C2.58579 13.75 2.25 13.4142 2.25 13V7C2.25 6.58579 2.58579 6.25 3 6.25H7.75V5ZM14.75 5V6.25H9.25V5C9.25 4.86193 9.36193 4.75 9.5 4.75H14.5C14.6381 4.75 14.75 4.86193 14.75 5ZM15 10.75C12.6528 10.75 10.75 12.6528 10.75 15C10.75 17.3472 12.6528 19.25 15 19.25C17.3472 19.25 19.25 17.3472 19.25 15C19.25 12.6528 17.3472 10.75 15 10.75ZM9.25 15C9.25 11.8244 11.8244 9.25 15 9.25C18.1756 9.25 20.75 11.8244 20.75 15C20.75 18.1756 18.1756 20.75 15 20.75C11.8244 20.75 9.25 18.1756 9.25 15ZM15.75 12.5C15.75 12.0858 15.4142 11.75 15 11.75C14.5858 11.75 14.25 12.0858 14.25 12.5V15C14.25 15.1989 14.329 15.3897 14.4697 15.5303L15.4697 16.5303C15.7626 16.8232 16.2374 16.8232 16.5303 16.5303C16.8232 16.2374 16.8232 15.7626 16.5303 15.4697L15.75 14.6893V12.5Z" fill="#23262A"/>
</svg>
