<svg width="24" height="24" viewBox="0 0 24 24" fill="none" xmlns="http://www.w3.org/2000/svg">
<path fill-rule="evenodd" clip-rule="evenodd" d="M9.5 4.75C9.36193 4.75 9.25 4.86193 9.25 5V6C9.25 6.13807 9.36193 6.25 9.5 6.25H14.5C14.6381 6.25 14.75 6.13807 14.75 6V5C14.75 4.86193 14.6381 4.75 14.5 4.75H9.5ZM7.75 6C7.75 6.13807 7.63807 6.25 7.5 6.25H3.5C2.80964 6.25 2.25 6.80964 2.25 7.5V11.5C2.25 12.1904 2.80964 12.75 3.5 12.75H7.92449C8.0327 12.75 8.12825 12.6801 8.16439 12.5781C9.16113 9.76496 11.8453 7.75 15 7.75C17.7624 7.75 20.164 9.29496 21.3878 11.568C21.4884 11.7548 21.7442 11.7444 21.7496 11.5323C21.7499 11.5215 21.75 11.5108 21.75 11.5V7.5C21.75 6.80964 21.1904 6.25 20.5 6.25H16.5C16.3619 6.25 16.25 6.13807 16.25 6V5C16.25 4.0335 15.4665 3.25 14.5 3.25H9.5C8.5335 3.25 7.75 4.0335 7.75 5V6ZM7.51131 14.25C7.65949 14.25 7.77479 14.3782 7.76525 14.526C7.75513 14.6827 7.75 14.8408 7.75 15C7.75 16.62 8.28136 18.116 9.1793 19.323C9.30722 19.495 9.18892 19.75 8.9746 19.75H5C4.30964 19.75 3.75 19.1904 3.75 18.5V14.5C3.75 14.3619 3.86193 14.25 4 14.25H7.51131ZM9.25 15C9.25 11.8244 11.8244 9.25 15 9.25C18.1756 9.25 20.75 11.8244 20.75 15C20.75 18.1756 18.1756 20.75 15 20.75C11.8244 20.75 9.25 18.1756 9.25 15ZM15 11.75C15.4142 11.75 15.75 12.0858 15.75 12.5V14.6893L16.5303 15.4697C16.8232 15.7626 16.8232 16.2374 16.5303 16.5303C16.2374 16.8232 15.7626 16.8232 15.4697 16.5303L14.4697 15.5303C14.329 15.3897 14.25 15.1989 14.25 15V12.5C14.25 12.0858 14.5858 11.75 15 11.75Z" fill="#23262A"/>
</svg>
