<svg width="24" height="24" viewBox="0 0 24 24" fill="none" xmlns="http://www.w3.org/2000/svg">
<path fill-rule="evenodd" clip-rule="evenodd" d="M5 3.25C4.58579 3.25 4.25 3.58579 4.25 4C4.25 4.41421 4.58579 4.75 5 4.75C8.48368 4.75 11.6737 5.99912 14.1494 8.07474C14.4668 8.34085 14.9398 8.29927 15.206 7.98185C15.4721 7.66443 15.4305 7.19138 15.1131 6.92526C12.3774 4.63167 8.84905 3.25 5 3.25ZM4.25 9C4.25 8.58579 4.58579 8.25 5 8.25C6.65356 8.25 8.2219 8.62386 9.62326 9.29237C9.99712 9.47072 10.1556 9.91836 9.97726 10.2922C9.79892 10.6661 9.35127 10.8246 8.97742 10.6462C7.77348 10.0719 6.42538 9.75 5 9.75C4.58579 9.75 4.25 9.41421 4.25 9ZM10.75 15C10.75 12.6528 12.6528 10.75 15 10.75C17.3472 10.75 19.25 12.6528 19.25 15C19.25 17.3472 17.3472 19.25 15 19.25C12.6528 19.25 10.75 17.3472 10.75 15ZM15 9.25C11.8244 9.25 9.25 11.8244 9.25 15C9.25 18.1756 11.8244 20.75 15 20.75C18.1756 20.75 20.75 18.1756 20.75 15C20.75 11.8244 18.1756 9.25 15 9.25ZM15 11.75C15.4142 11.75 15.75 12.0858 15.75 12.5V14.25H17.5C17.9142 14.25 18.25 14.5858 18.25 15C18.25 15.4142 17.9142 15.75 17.5 15.75H15.75V17.5C15.75 17.9142 15.4142 18.25 15 18.25C14.5858 18.25 14.25 17.9142 14.25 17.5V15.75H12.5C12.0858 15.75 11.75 15.4142 11.75 15C11.75 14.5858 12.0858 14.25 12.5 14.25H14.25V12.5C14.25 12.0858 14.5858 11.75 15 11.75ZM3.5 19C3.5 18.1716 4.17157 17.5 5 17.5C5.82843 17.5 6.5 18.1716 6.5 19C6.5 19.8284 5.82843 20.5 5 20.5C4.17157 20.5 3.5 19.8284 3.5 19ZM5 13.25C4.58579 13.25 4.25 13.5858 4.25 14C4.25 14.4142 4.58579 14.75 5 14.75C5.77536 14.75 6.5001 14.9569 7.12446 15.3181C7.483 15.5255 7.9418 15.403 8.1492 15.0445C8.35661 14.6859 8.23409 14.2271 7.87554 14.0197C7.02903 13.53 6.04608 13.25 5 13.25Z" fill="#23262A"/>
</svg>
