<svg width="24" height="24" viewBox="0 0 24 24" fill="none" xmlns="http://www.w3.org/2000/svg">
<path fill-rule="evenodd" clip-rule="evenodd" d="M5 3.25C4.58579 3.25 4.25 3.58579 4.25 4C4.25 4.41421 4.58579 4.75 5 4.75C12.8701 4.75 19.25 11.1299 19.25 19C19.25 19.4142 19.5858 19.75 20 19.75C20.4142 19.75 20.75 19.4142 20.75 19C20.75 10.3015 13.6985 3.25 5 3.25ZM4.25 9C4.25 8.58579 4.58579 8.25 5 8.25C10.9371 8.25 15.75 13.0629 15.75 19C15.75 19.4142 15.4142 19.75 15 19.75C14.5858 19.75 14.25 19.4142 14.25 19C14.25 13.8914 10.1086 9.75 5 9.75C4.58579 9.75 4.25 9.41421 4.25 9ZM5 13.25C4.58579 13.25 4.25 13.5858 4.25 14C4.25 14.4142 4.58579 14.75 5 14.75C7.34721 14.75 9.25 16.6528 9.25 19C9.25 19.4142 9.58579 19.75 10 19.75C10.4142 19.75 10.75 19.4142 10.75 19C10.75 15.8244 8.17564 13.25 5 13.25ZM5 17.5C4.17157 17.5 3.5 18.1716 3.5 19C3.5 19.8284 4.17157 20.5 5 20.5C5.82843 20.5 6.5 19.8284 6.5 19C6.5 18.1716 5.82843 17.5 5 17.5Z" fill="#23262A"/>
</svg>
