<svg width="24" height="24" viewBox="0 0 24 24" fill="none" xmlns="http://www.w3.org/2000/svg">
<path fill-rule="evenodd" clip-rule="evenodd" d="M7 5.91895C6.30964 5.91895 5.75 6.47859 5.75 7.16895C5.75 7.8593 6.30964 8.41895 7 8.41895C7.69036 8.41895 8.25 7.8593 8.25 7.16895C8.25 6.47859 7.69036 5.91895 7 5.91895ZM4.25 7.16895C4.25 5.65016 5.48122 4.41895 7 4.41895C8.51878 4.41895 9.75 5.65016 9.75 7.16895C9.75 8.68773 8.51878 9.91895 7 9.91895C5.48122 9.91895 4.25 8.68773 4.25 7.16895ZM16 6.91895C14.2051 6.91895 12.75 8.37402 12.75 10.1689C12.75 11.9639 14.2051 13.4189 16 13.4189C17.7949 13.4189 19.25 11.9639 19.25 10.1689C19.25 8.37402 17.7949 6.91895 16 6.91895ZM11.25 10.1689C11.25 7.54559 13.3766 5.41895 16 5.41895C18.6234 5.41895 20.75 7.54559 20.75 10.1689C20.75 12.7923 18.6234 14.9189 16 14.9189C13.3766 14.9189 11.25 12.7923 11.25 10.1689ZM4.75 15.1689C4.75 13.9263 5.75736 12.9189 7 12.9189C8.24264 12.9189 9.25 13.9263 9.25 15.1689C9.25 16.4116 8.24264 17.4189 7 17.4189C5.75736 17.4189 4.75 16.4116 4.75 15.1689ZM7 11.4189C4.92893 11.4189 3.25 13.0979 3.25 15.1689C3.25 17.24 4.92893 18.9189 7 18.9189C9.07107 18.9189 10.75 17.24 10.75 15.1689C10.75 13.0979 9.07107 11.4189 7 11.4189Z" fill="#23262A"/>
</svg>
