<svg width="24" height="24" viewBox="0 0 24 24" fill="none" xmlns="http://www.w3.org/2000/svg">
<path fill-rule="evenodd" clip-rule="evenodd" d="M17.75 4C17.75 3.58579 17.4142 3.25 17 3.25C16.5858 3.25 16.25 3.58579 16.25 4V16.25H14C13.5858 16.25 13.25 16.5858 13.25 17C13.25 17.2801 13.4035 17.5243 13.631 17.6531L12.8036 19.7215C12.7112 19.9525 12.7394 20.2144 12.879 20.4205C13.0185 20.6266 13.2511 20.75 13.5 20.75H20.5C20.7489 20.75 20.9815 20.6266 21.1211 20.4205C21.2606 20.2144 21.2888 19.9525 21.1964 19.7215L20.369 17.6531C20.5965 17.5243 20.75 17.2801 20.75 17C20.75 16.5858 20.4142 16.25 20 16.25H17.75V4ZM15.1964 17.7785C15.2002 17.7691 15.2037 17.7595 15.2071 17.75H18.7929C18.7963 17.7595 18.7999 17.7691 18.8036 17.7785L19.3922 19.25H14.6078L15.1964 17.7785ZM11.6525 13.6969C11.6943 13.5434 11.6879 13.3754 11.6232 13.2167C11.4802 12.8661 11.1999 12.6221 10.9403 12.4566C10.6696 12.284 10.3447 12.1477 9.99857 12.0416C9.30431 11.8288 8.43088 11.7089 7.50014 11.7089C6.5694 11.7089 5.69597 11.8288 5.0017 12.0416C4.65558 12.1477 4.33063 12.284 4.05997 12.4566C3.80035 12.6221 3.52009 12.8661 3.37709 13.2167C3.31266 13.3747 3.306 13.5419 3.34725 13.6948C3.34784 13.7254 3.3503 13.7563 3.35474 13.7874L4.25741 20.1061C4.29909 20.3978 4.50872 20.6283 4.78507 20.7188L4.83959 20.7363C4.88618 20.7511 4.95278 20.7719 5.03541 20.7966C5.20029 20.846 5.43085 20.9117 5.69479 20.9776C6.20553 21.1052 6.90512 21.25 7.49988 21.25C8.09463 21.25 8.79422 21.1052 9.30496 20.9776C9.5689 20.9117 9.79946 20.846 9.96434 20.7966C10.047 20.7719 10.1136 20.7511 10.1602 20.7363L10.2147 20.7188L10.2298 20.7139L10.2342 20.7124L10.2364 20.7117C10.5062 20.622 10.7021 20.3875 10.7423 20.1061L11.645 13.7874C11.6493 13.757 11.6518 13.7268 11.6525 13.6969ZM5.69159 13.5931C5.57054 13.5633 5.46185 13.5319 5.36495 13.5C5.3897 13.4919 5.41516 13.4838 5.44135 13.4757C5.96513 13.3152 6.68595 13.2089 7.50014 13.2089C8.31433 13.2089 9.03514 13.3152 9.55892 13.4757C9.58502 13.4838 9.61041 13.4918 9.63508 13.4999C9.53812 13.5319 9.42935 13.5633 9.3082 13.5931C8.81229 13.7152 8.18791 13.7911 7.49989 13.7911C6.81187 13.7911 6.18749 13.7152 5.69159 13.5931ZM5.03888 14.9697L5.67468 19.4203C5.78819 19.4523 5.91815 19.4874 6.05822 19.5223C6.54858 19.6448 7.09898 19.75 7.49988 19.75C7.90077 19.75 8.45117 19.6448 8.94153 19.5223C9.0816 19.4874 9.21156 19.4523 9.32507 19.4203L9.96087 14.9697C9.86379 14.9987 9.76547 15.0253 9.6667 15.0496C9.0374 15.2045 8.29096 15.2911 7.49989 15.2911C6.70882 15.2911 5.96238 15.2045 5.33309 15.0496C5.2343 15.0253 5.13597 14.9987 5.03888 14.9697Z" fill="#23262A"/>
</svg>
