<svg width="24" height="24" viewBox="0 0 24 24" fill="none" xmlns="http://www.w3.org/2000/svg">
<path fill-rule="evenodd" clip-rule="evenodd" d="M12 3.25C9.74802 3.25 7.68404 3.47748 6.16125 3.85818C5.40563 4.04709 4.74093 4.28396 4.24707 4.57586C3.80775 4.83552 3.26081 5.28608 3.25017 5.97941C3.24984 5.99168 3.24982 6.00401 3.25011 6.01639C3.25138 6.1209 3.26484 6.2199 3.28828 6.31358L5.25811 19.6099C5.29722 19.8739 5.47444 20.0975 5.72224 20.1967L5.72324 20.1971L5.72594 20.1981L5.73407 20.2013L5.7612 20.2118C5.78407 20.2206 5.81644 20.2327 5.85796 20.2478C5.94098 20.278 6.06062 20.3199 6.21394 20.3697C6.52046 20.4691 6.96229 20.5998 7.51573 20.7301C8.62132 20.9902 10.18 21.25 12 21.25C13.82 21.25 15.3787 20.9902 16.4843 20.7301C17.0377 20.5998 17.4796 20.4691 17.7861 20.3697C17.9394 20.3199 18.059 20.278 18.1421 20.2478C18.1836 20.2327 18.216 20.2206 18.2388 20.2118L18.2659 20.2013L18.2741 20.1981L18.2768 20.1971L18.2786 20.1964C18.5263 20.0972 18.7028 19.8739 18.7419 19.6099L20.7117 6.31357C20.7352 6.21991 20.7486 6.12092 20.7499 6.01644C20.75 6.01411 20.75 6.01179 20.75 6.00946C20.7502 5.9994 20.7501 5.98936 20.7499 5.97937C20.7392 5.28606 20.1923 4.83552 19.753 4.57586C19.2591 4.28396 18.5944 4.04709 17.8388 3.85818C16.316 3.47748 14.252 3.25 12 3.25ZM5.01031 6.13284C4.91939 6.0791 4.85758 6.03444 4.81603 6C4.85758 5.96556 4.91939 5.9209 5.01031 5.86716C5.3261 5.68051 5.83297 5.48642 6.52506 5.31339C7.89769 4.97023 9.83372 4.75 12 4.75C14.1663 4.75 16.1023 4.97023 17.475 5.31339C18.167 5.48642 18.6739 5.68051 18.9897 5.86716C19.0806 5.9209 19.1424 5.96556 19.184 6C19.1424 6.03444 19.0806 6.0791 18.9897 6.13284C18.6739 6.31949 18.167 6.51358 17.475 6.68661C16.1023 7.02977 14.1663 7.25 12 7.25C9.83372 7.25 7.89769 7.02977 6.52506 6.68661C5.83297 6.51358 5.3261 6.31949 5.01031 6.13284ZM6.00001 19.5C5.72147 20.1964 5.72224 20.1967 5.72224 20.1967L6.00001 19.5ZM18.9766 7.79049C18.6326 7.9225 18.2491 8.03923 17.8388 8.14182C16.316 8.52252 14.252 8.75 12 8.75C9.74802 8.75 7.68404 8.52252 6.16125 8.14182C5.7509 8.03923 5.36737 7.9225 5.02345 7.79049L6.6756 18.9425L6.6767 18.9428C6.9483 19.0309 7.35023 19.1502 7.85929 19.2699C8.8787 19.5098 10.32 19.75 12 19.75C13.68 19.75 15.1213 19.5098 16.1407 19.2699C16.6498 19.1502 17.0517 19.0309 17.3233 18.9428L17.3244 18.9425L18.9766 7.79049Z" fill="#23262A"/>
</svg>
