<svg width="24" height="24" viewBox="0 0 24 24" fill="none" xmlns="http://www.w3.org/2000/svg">
<path fill-rule="evenodd" clip-rule="evenodd" d="M18.7419 19.6099L20.7419 6.10991L20.75 6C20.75 5.29499 20.1966 4.83809 19.7529 4.57586C19.2591 4.28396 18.5944 4.04709 17.8388 3.85818C16.316 3.47748 14.252 3.25 12 3.25C9.74801 3.25 7.68404 3.47748 6.16124 3.85818C5.40562 4.04709 4.74092 4.28396 4.24706 4.57586C3.80341 4.83809 3.25 5.29499 3.25 6L3.2581 6.10991L5.2581 19.6099C5.29721 19.8739 5.47444 20.0975 5.72223 20.1967L5.76119 20.2118C5.78406 20.2206 5.81643 20.2327 5.85795 20.2478C5.94097 20.278 6.06062 20.3199 6.21393 20.3697C6.52046 20.4691 6.96228 20.5998 7.51572 20.7301C8.62131 20.9902 10.18 21.25 12 21.25C13.82 21.25 15.3787 20.9902 16.4843 20.7301C17.0377 20.5998 17.4795 20.4691 17.7861 20.3697C17.9394 20.3199 18.059 20.278 18.142 20.2478C18.1836 20.2327 18.2159 20.2206 18.2388 20.2118L18.2785 20.1964C18.5263 20.0972 18.7028 19.8739 18.7419 19.6099ZM11.9999 7.25C9.83361 7.25 7.89758 7.02977 6.52494 6.68661C6.13865 6.59003 5.81006 6.48689 5.54019 6.38215C5.35592 6.31063 5.19531 6.23339 5.0689 6.16348C4.9318 6.08766 4.9318 5.91234 5.0689 5.83652C5.19531 5.76661 5.35592 5.68937 5.54019 5.61785C5.81006 5.51311 6.13865 5.40997 6.52494 5.31339C7.89758 4.97023 9.83361 4.75 11.9999 4.75C14.1662 4.75 16.1022 4.97023 17.4748 5.31339C17.8446 5.40584 18.1615 5.5043 18.4247 5.60443C18.6239 5.68023 18.7966 5.76266 18.9308 5.83669C19.0679 5.91241 19.0679 6.08759 18.9308 6.16331C18.7966 6.23734 18.6239 6.31977 18.4247 6.39557C18.1615 6.4957 17.8446 6.59416 17.4748 6.68661C16.1022 7.02977 14.1662 7.25 11.9999 7.25Z" fill="#23262A"/>
</svg>
