<svg width="24" height="24" viewBox="0 0 24 24" fill="none" xmlns="http://www.w3.org/2000/svg">
<path fill-rule="evenodd" clip-rule="evenodd" d="M17 3.25C17.4142 3.25 17.75 3.58579 17.75 4V16.25H20C20.4142 16.25 20.75 16.5858 20.75 17C20.75 17.2801 20.5965 17.5243 20.369 17.6531L21.1964 19.7215C21.2888 19.9525 21.2606 20.2144 21.1211 20.4205C20.9815 20.6266 20.7489 20.75 20.5 20.75H13.5C13.2511 20.75 13.0185 20.6266 12.879 20.4205C12.7394 20.2144 12.7112 19.9525 12.8037 19.7215L13.631 17.6531C13.4035 17.5243 13.25 17.2801 13.25 17C13.25 16.5858 13.5858 16.25 14 16.25H16.25V4C16.25 3.58579 16.5858 3.25 17 3.25ZM15.2071 17.75C15.2038 17.7595 15.2002 17.7691 15.1964 17.7785L14.6078 19.25H19.3922L18.8037 17.7785C18.7999 17.7691 18.7963 17.7595 18.7929 17.75H15.2071ZM5.67468 19.4204L5.03887 14.9697C5.72698 15.1754 6.58579 15.2911 7.49989 15.2911C8.41398 15.2911 9.27278 15.1755 9.96087 14.9697L9.32507 19.4204C9.21156 19.4523 9.0816 19.4874 8.94153 19.5223C8.45117 19.6448 7.90077 19.75 7.49988 19.75C7.09898 19.75 6.54858 19.6448 6.05822 19.5223C5.91815 19.4874 5.78819 19.4523 5.67468 19.4204ZM4.25741 20.1061L3.33106 13.6216C3.32105 13.561 3.3187 13.5002 3.32351 13.4404C3.33055 13.3509 3.3536 13.265 3.39012 13.1859C3.53663 12.8518 3.80802 12.6172 4.05997 12.4566C4.33063 12.284 4.65558 12.1477 5.00171 12.0416C5.69597 11.8288 6.5694 11.7089 7.50014 11.7089C8.43088 11.7089 9.30431 11.8288 9.99857 12.0416C10.3447 12.1477 10.6696 12.284 10.9403 12.4566C11.1999 12.6221 11.4802 12.8662 11.6232 13.2167C11.6786 13.3525 11.6913 13.4951 11.6676 13.6295L10.7423 20.1061C10.7021 20.3875 10.5062 20.622 10.2364 20.7117L9.99988 20C10.2364 20.7117 10.2364 20.7117 10.2363 20.7118L10.2361 20.7118L10.2356 20.712L10.2342 20.7125L10.2298 20.7139L10.2147 20.7188L10.1602 20.7363C10.1136 20.7511 10.047 20.7719 9.96434 20.7966C9.79946 20.846 9.5689 20.9117 9.30496 20.9777C8.79422 21.1052 8.09463 21.25 7.49988 21.25C6.90512 21.25 6.20553 21.1052 5.69479 20.9777C5.43085 20.9117 5.20029 20.846 5.03541 20.7966C4.95278 20.7719 4.88618 20.7511 4.83959 20.7363L4.78507 20.7188L4.76992 20.7139L4.76553 20.7125L4.76415 20.712L4.76367 20.7118L4.76348 20.7118C4.7634 20.7117 4.76332 20.7117 4.99988 20L4.76332 20.7117C4.49352 20.622 4.29762 20.3875 4.25741 20.1061ZM9.63511 13.5C9.61043 13.4918 9.58504 13.4838 9.55892 13.4758C9.03514 13.3152 8.31433 13.2089 7.50014 13.2089C6.68595 13.2089 5.96513 13.3152 5.44135 13.4758C5.41515 13.4838 5.38967 13.4919 5.36492 13.5C5.3896 13.5082 5.41499 13.5162 5.44111 13.5242C5.96489 13.6848 6.6857 13.7911 7.49989 13.7911C8.31408 13.7911 9.0349 13.6848 9.55868 13.5242C9.58488 13.5162 9.61035 13.5081 9.63511 13.5Z" fill="#23262A"/>
</svg>
