<svg width="24" height="24" viewBox="0 0 24 24" fill="none" xmlns="http://www.w3.org/2000/svg">
<path fill-rule="evenodd" clip-rule="evenodd" d="M17 3.25C17.4142 3.25 17.75 3.58579 17.75 4V16.25H20C20.4142 16.25 20.75 16.5858 20.75 17C20.75 17.2801 20.5965 17.5243 20.369 17.6531L21.1964 19.7215C21.2888 19.9525 21.2606 20.2144 21.1211 20.4205C20.9815 20.6266 20.7489 20.75 20.5 20.75H13.5C13.2511 20.75 13.0185 20.6266 12.879 20.4205C12.7394 20.2144 12.7112 19.9525 12.8036 19.7215L13.631 17.6531C13.4035 17.5243 13.25 17.2801 13.25 17C13.25 16.5858 13.5858 16.25 14 16.25H16.25V4C16.25 3.58579 16.5858 3.25 17 3.25ZM10.2364 20.7118C10.5062 20.6222 10.7021 20.3876 10.7423 20.1062L11.6709 13.6062C11.6897 13.4744 11.6731 13.3401 11.6229 13.2169C11.4799 12.8663 11.1997 12.6223 10.9401 12.4567C10.6695 12.2842 10.3445 12.1479 9.99844 12.0418C9.30423 11.8289 8.43086 11.709 7.50012 11.709C6.56938 11.709 5.6959 11.8289 5.00159 12.0417C4.65544 12.1478 4.33047 12.2841 4.05978 12.4567C3.80015 12.6222 3.51985 12.8662 3.37684 13.2169C3.32658 13.3401 3.31001 13.4744 3.32883 13.6062L4.2574 20.1062C4.29761 20.3876 4.49351 20.6222 4.76331 20.7118L4.83957 20.7365C4.88617 20.7512 4.95277 20.772 5.03539 20.7967C5.20027 20.8461 5.43083 20.9118 5.69478 20.9778C6.20551 21.1053 6.90511 21.2501 7.49986 21.2501C8.09462 21.2501 8.79421 21.1053 9.30494 20.9778C9.56889 20.9118 9.79945 20.8461 9.96433 20.7967C10.047 20.772 10.1136 20.7512 10.1601 20.7365L10.2364 20.7118ZM5.65481 13.4162C5.56187 13.4398 5.56187 13.5604 5.65481 13.5841C6.15358 13.7107 6.79134 13.7912 7.4998 13.7912C8.21802 13.7912 8.86359 13.7085 9.36534 13.5788C9.4517 13.5565 9.4517 13.4437 9.36534 13.4214C8.86367 13.2917 8.21821 13.209 7.50004 13.209C6.79152 13.209 6.15366 13.2895 5.65481 13.4162Z" fill="#23262A"/>
</svg>
