<svg width="24" height="24" viewBox="0 0 24 24" fill="none" xmlns="http://www.w3.org/2000/svg">
<path fill-rule="evenodd" clip-rule="evenodd" d="M5.53033 4.20722C5.23744 3.91433 4.76256 3.91433 4.46967 4.20722C4.17678 4.50011 4.17678 4.97499 4.46967 5.26788L5.98591 6.78412C5.66814 7.20569 5.39208 7.68138 5.15997 8.1872C4.71141 9.16473 4.40485 10.2775 4.29494 11.25H3C2.58579 11.25 2.25 11.5858 2.25 12C2.25 12.4142 2.58579 12.75 3 12.75H4.28138C4.41606 14.3663 4.9837 15.9958 5.97192 17.2291L4.46967 18.7314C4.17678 19.0243 4.17678 19.4992 4.46967 19.792C4.76256 20.0849 5.23744 20.0849 5.53033 19.792L7.04553 18.2768C8.44828 19.3391 10.2533 19.75 12 19.75C13.774 19.75 15.5554 19.381 16.9623 18.2847L18.4697 19.792C18.7626 20.0849 19.2374 20.0849 19.5303 19.792C19.8232 19.4992 19.8232 19.0243 19.5303 18.7314L18.0205 17.2215C18.9774 15.9937 19.5718 14.3492 19.7158 12.75H21C21.4142 12.75 21.75 12.4142 21.75 12C21.75 11.5858 21.4142 11.25 21 11.25H19.7138C19.6246 10.2854 19.3686 9.17633 18.9251 8.19195C18.6913 7.67283 18.4001 7.18392 18.0442 6.75398L19.5303 5.26788C19.8232 4.97499 19.8232 4.50011 19.5303 4.20722C19.2374 3.91433 18.7626 3.91433 18.4697 4.20722L16.9298 5.7471C15.545 4.79031 13.6544 4.25 12 4.25C10.2161 4.25 8.44336 4.60302 7.03511 5.71199L5.53033 4.20722ZM7.52435 16.7138C6.40166 15.616 5.75 13.8 5.75 12C5.75 11.3801 5.89376 10.5619 6.15855 9.75L11.25 9.75V18.2202C9.78026 18.101 8.45199 17.6208 7.52435 16.7138ZM12.75 18.2237C14.2478 18.1153 15.5365 17.6631 16.4668 16.7226C17.5546 15.6228 18.25 13.7472 18.25 12C18.25 11.3556 18.1376 10.5417 17.9037 9.75L12.75 9.75V18.2237ZM17.2676 8.25C17.0461 7.87972 16.791 7.56458 16.5052 7.31361C15.4241 6.36445 13.5936 5.75 12 5.75C10.1623 5.75 8.61816 6.16673 7.53652 7.27407C7.27752 7.53922 7.03336 7.86848 6.81312 8.25L17.2676 8.25Z" fill="#23262A"/>
</svg>
