<svg width="24" height="24" viewBox="0 0 24 24" fill="none" xmlns="http://www.w3.org/2000/svg">
<path fill-rule="evenodd" clip-rule="evenodd" d="M4.46967 4.20722C4.76256 3.91433 5.23744 3.91433 5.53033 4.20722L7.03507 5.71196C8.44332 4.60301 10.216 4.25 11.9999 4.25C13.6543 4.25 15.5449 4.79032 16.9298 5.74714L18.4697 4.20722C18.7626 3.91433 19.2374 3.91433 19.5303 4.20722C19.8232 4.50011 19.8232 4.97499 19.5303 5.26788L18.0442 6.75404C18.3332 7.10328 18.5795 7.49141 18.7873 7.90327C18.8687 8.0645 18.7481 8.25 18.5675 8.25H5.51801C5.33659 8.25 5.216 8.06296 5.29771 7.90098C5.4992 7.50152 5.72888 7.12509 5.98588 6.78409L4.46967 5.26788C4.17678 4.97499 4.17678 4.50011 4.46967 4.20722ZM19.503 9.9402C19.4775 9.82822 19.3771 9.75 19.2622 9.75H13C12.8619 9.75 12.75 9.86193 12.75 10V19.4608C12.75 19.605 12.8718 19.7196 13.0155 19.707C14.4414 19.5823 15.8243 19.1714 16.9623 18.2847L18.4697 19.792C18.7626 20.0849 19.2374 20.0849 19.5303 19.792C19.8232 19.4992 19.8232 19.0243 19.5303 18.7314L18.0205 17.2215C18.9774 15.9937 19.5718 14.3492 19.7158 12.75H21C21.4142 12.75 21.75 12.4142 21.75 12C21.75 11.5858 21.4142 11.25 21 11.25H19.7138C19.6752 10.8331 19.6055 10.3893 19.503 9.9402ZM11.25 19.4562C11.25 19.6011 11.1272 19.7159 10.9829 19.7021C9.56986 19.5666 8.17687 19.1336 7.04553 18.2768L5.53033 19.792C5.23744 20.0849 4.76256 20.0849 4.46967 19.792C4.17678 19.4992 4.17678 19.0243 4.46967 18.7314L5.97192 17.2291C4.9837 15.9958 4.41606 14.3663 4.28138 12.75H3C2.58579 12.75 2.25 12.4142 2.25 12C2.25 11.5858 2.58579 11.25 3 11.25H4.29494C4.34242 10.83 4.42657 10.3838 4.543 9.93361C4.57113 9.82486 4.66997 9.75 4.78229 9.75H11C11.1381 9.75 11.25 9.86193 11.25 10L11.25 19.4562Z" fill="#23262A"/>
</svg>
