<svg width="24" height="24" viewBox="0 0 24 24" fill="none" xmlns="http://www.w3.org/2000/svg">
<path fill-rule="evenodd" clip-rule="evenodd" d="M7 2.25C6.58579 2.25 6.25 2.58579 6.25 3V9.25H3C2.58579 9.25 2.25 9.58579 2.25 10V21C2.25 21.4142 2.58579 21.75 3 21.75H7H17H21C21.4142 21.75 21.75 21.4142 21.75 21V10C21.75 9.58579 21.4142 9.25 21 9.25H17.75V3C17.75 2.58579 17.4142 2.25 17 2.25H7ZM17.75 10.75V20.25H20.25V10.75H17.75ZM16.25 20.25V3.75H7.75V20.25H16.25ZM6.25 20.25V10.75H3.75V20.25H6.25ZM10 5.75C10.4142 5.75 10.75 6.08579 10.75 6.5V8.5C10.75 8.91421 10.4142 9.25 10 9.25C9.58579 9.25 9.25 8.91421 9.25 8.5V6.5C9.25 6.08579 9.58579 5.75 10 5.75ZM13.75 6.5C13.75 6.08579 13.4142 5.75 13 5.75C12.5858 5.75 12.25 6.08579 12.25 6.5V8.5C12.25 8.91421 12.5858 9.25 13 9.25C13.4142 9.25 13.75 8.91421 13.75 8.5V6.5ZM10 11.75C10.4142 11.75 10.75 12.0858 10.75 12.5V14.5C10.75 14.9142 10.4142 15.25 10 15.25C9.58579 15.25 9.25 14.9142 9.25 14.5V12.5C9.25 12.0858 9.58579 11.75 10 11.75ZM13.75 12.5C13.75 12.0858 13.4142 11.75 13 11.75C12.5858 11.75 12.25 12.0858 12.25 12.5V14.5C12.25 14.9142 12.5858 15.25 13 15.25C13.4142 15.25 13.75 14.9142 13.75 14.5V12.5Z" fill="#23262A"/>
</svg>
