<svg width="24" height="24" viewBox="0 0 24 24" fill="none" xmlns="http://www.w3.org/2000/svg">
<path fill-rule="evenodd" clip-rule="evenodd" d="M10.25 3C10.25 2.58579 10.5858 2.25 11 2.25H21C21.4142 2.25 21.75 2.58579 21.75 3V21C21.75 21.4142 21.4142 21.75 21 21.75H3C2.58579 21.75 2.25 21.4142 2.25 21V13C2.25 12.5858 2.58579 12.25 3 12.25H10.25V3ZM13.75 13C13.75 12.5858 13.4142 12.25 13 12.25H11.75V3.75H20.25V20.25H13.75V13ZM12.25 13.75V20.25H3.75V13.75H12.25ZM18.75 5.5C18.75 5.08579 18.4142 4.75 18 4.75C17.5858 4.75 17.25 5.08579 17.25 5.5V6.5C17.25 6.91421 17.5858 7.25 18 7.25C18.4142 7.25 18.75 6.91421 18.75 6.5V5.5ZM5.5 15.25C5.08579 15.25 4.75 15.5858 4.75 16C4.75 16.4142 5.08579 16.75 5.5 16.75H6.5C6.91421 16.75 7.25 16.4142 7.25 16C7.25 15.5858 6.91421 15.25 6.5 15.25H5.5ZM7.75 16C7.75 15.5858 8.08579 15.25 8.5 15.25H9.5C9.91421 15.25 10.25 15.5858 10.25 16C10.25 16.4142 9.91421 16.75 9.5 16.75H8.5C8.08579 16.75 7.75 16.4142 7.75 16ZM18.75 9.5C18.75 9.08579 18.4142 8.75 18 8.75C17.5858 8.75 17.25 9.08579 17.25 9.5V10.5C17.25 10.9142 17.5858 11.25 18 11.25C18.4142 11.25 18.75 10.9142 18.75 10.5V9.5ZM18 12.75C18.4142 12.75 18.75 13.0858 18.75 13.5V14.5C18.75 14.9142 18.4142 15.25 18 15.25C17.5858 15.25 17.25 14.9142 17.25 14.5V13.5C17.25 13.0858 17.5858 12.75 18 12.75Z" fill="#23262A"/>
</svg>
