<svg width="24" height="24" viewBox="0 0 24 24" fill="none" xmlns="http://www.w3.org/2000/svg">
<path fill-rule="evenodd" clip-rule="evenodd" d="M11 2.25C10.5858 2.25 10.25 2.58579 10.25 3V10.5C10.25 10.6381 10.3619 10.75 10.5 10.75H13C14.2426 10.75 15.25 11.7574 15.25 13V21.5C15.25 21.6381 15.3619 21.75 15.5 21.75H21C21.4142 21.75 21.75 21.4142 21.75 21V3C21.75 2.58579 21.4142 2.25 21 2.25H11ZM18 4.75C18.4142 4.75 18.75 5.08579 18.75 5.5V6.5C18.75 6.91421 18.4142 7.25 18 7.25C17.5858 7.25 17.25 6.91421 17.25 6.5V5.5C17.25 5.08579 17.5858 4.75 18 4.75ZM18.75 9.5C18.75 9.08579 18.4142 8.75 18 8.75C17.5858 8.75 17.25 9.08579 17.25 9.5V10.5C17.25 10.9142 17.5858 11.25 18 11.25C18.4142 11.25 18.75 10.9142 18.75 10.5V9.5ZM18 12.75C18.4142 12.75 18.75 13.0858 18.75 13.5V14.5C18.75 14.9142 18.4142 15.25 18 15.25C17.5858 15.25 17.25 14.9142 17.25 14.5V13.5C17.25 13.0858 17.5858 12.75 18 12.75ZM3 12.25C2.58579 12.25 2.25 12.5858 2.25 13V21C2.25 21.4142 2.58579 21.75 3 21.75H13C13.4142 21.75 13.75 21.4142 13.75 21V13C13.75 12.5858 13.4142 12.25 13 12.25H3ZM5.5 15.25C5.08579 15.25 4.75 15.5858 4.75 16C4.75 16.4142 5.08579 16.75 5.5 16.75H6.5C6.91421 16.75 7.25 16.4142 7.25 16C7.25 15.5858 6.91421 15.25 6.5 15.25H5.5ZM7.75 16C7.75 15.5858 8.08579 15.25 8.5 15.25H9.5C9.91421 15.25 10.25 15.5858 10.25 16C10.25 16.4142 9.91421 16.75 9.5 16.75H8.5C8.08579 16.75 7.75 16.4142 7.75 16Z" fill="#23262A"/>
</svg>
