<svg width="24" height="24" viewBox="0 0 24 24" fill="none" xmlns="http://www.w3.org/2000/svg">
<path fill-rule="evenodd" clip-rule="evenodd" d="M7 2.25C6.58579 2.25 6.25 2.58579 6.25 3V21C6.25 21.4142 6.58579 21.75 7 21.75H17C17.4142 21.75 17.75 21.4142 17.75 21V3C17.75 2.58579 17.4142 2.25 17 2.25H7ZM10.75 6.5C10.75 6.08579 10.4142 5.75 10 5.75C9.58579 5.75 9.25 6.08579 9.25 6.5V8.5C9.25 8.91421 9.58579 9.25 10 9.25C10.4142 9.25 10.75 8.91421 10.75 8.5V6.5ZM13 5.75C13.4142 5.75 13.75 6.08579 13.75 6.5V8.5C13.75 8.91421 13.4142 9.25 13 9.25C12.5858 9.25 12.25 8.91421 12.25 8.5V6.5C12.25 6.08579 12.5858 5.75 13 5.75ZM10.75 12.5C10.75 12.0858 10.4142 11.75 10 11.75C9.58579 11.75 9.25 12.0858 9.25 12.5V14.5C9.25 14.9142 9.58579 15.25 10 15.25C10.4142 15.25 10.75 14.9142 10.75 14.5V12.5ZM13 11.75C13.4142 11.75 13.75 12.0858 13.75 12.5V14.5C13.75 14.9142 13.4142 15.25 13 15.25C12.5858 15.25 12.25 14.9142 12.25 14.5V12.5C12.25 12.0858 12.5858 11.75 13 11.75ZM4.5 9.25C4.63807 9.25 4.75 9.36193 4.75 9.5V21.5C4.75 21.6381 4.63807 21.75 4.5 21.75H3C2.58579 21.75 2.25 21.4142 2.25 21V10C2.25 9.58579 2.58579 9.25 3 9.25H4.5ZM19.5 21.75C19.3619 21.75 19.25 21.6381 19.25 21.5V9.5C19.25 9.36193 19.3619 9.25 19.5 9.25H21C21.4142 9.25 21.75 9.58579 21.75 10V21C21.75 21.4142 21.4142 21.75 21 21.75H19.5Z" fill="#23262A"/>
</svg>
