<svg width="24" height="24" viewBox="0 0 24 24" fill="none" xmlns="http://www.w3.org/2000/svg">
<path fill-rule="evenodd" clip-rule="evenodd" d="M4 5.75C3.86193 5.75 3.75 5.86193 3.75 6C3.75 6.13807 3.86193 6.25 4 6.25C4.13807 6.25 4.25 6.13807 4.25 6C4.25 5.86193 4.13807 5.75 4 5.75ZM2.25 6C2.25 5.0335 3.0335 4.25 4 4.25C4.9665 4.25 5.75 5.0335 5.75 6C5.75 6.9665 4.9665 7.75 4 7.75C3.0335 7.75 2.25 6.9665 2.25 6ZM3.75 12C3.75 11.8619 3.86193 11.75 4 11.75C4.13807 11.75 4.25 11.8619 4.25 12C4.25 12.1381 4.13807 12.25 4 12.25C3.86193 12.25 3.75 12.1381 3.75 12ZM4 10.25C3.0335 10.25 2.25 11.0335 2.25 12C2.25 12.9665 3.0335 13.75 4 13.75C4.9665 13.75 5.75 12.9665 5.75 12C5.75 11.0335 4.9665 10.25 4 10.25ZM3.75 18C3.75 17.8619 3.86193 17.75 4 17.75C4.13807 17.75 4.25 17.8619 4.25 18C4.25 18.1381 4.13807 18.25 4 18.25C3.86193 18.25 3.75 18.1381 3.75 18ZM4 16.25C3.0335 16.25 2.25 17.0335 2.25 18C2.25 18.9665 3.0335 19.75 4 19.75C4.9665 19.75 5.75 18.9665 5.75 18C5.75 17.0335 4.9665 16.25 4 16.25ZM9 17.25C8.58579 17.25 8.25 17.5858 8.25 18C8.25 18.4142 8.58579 18.75 9 18.75H21C21.4142 18.75 21.75 18.4142 21.75 18C21.75 17.5858 21.4142 17.25 21 17.25H9ZM8.25 12C8.25 11.5858 8.58579 11.25 9 11.25H21C21.4142 11.25 21.75 11.5858 21.75 12C21.75 12.4142 21.4142 12.75 21 12.75H9C8.58579 12.75 8.25 12.4142 8.25 12ZM9 5.25C8.58579 5.25 8.25 5.58579 8.25 6C8.25 6.41421 8.58579 6.75 9 6.75H21C21.4142 6.75 21.75 6.41421 21.75 6C21.75 5.58579 21.4142 5.25 21 5.25H9Z" fill="#23262A"/>
</svg>
