<svg width="24" height="24" viewBox="0 0 24 24" fill="none" xmlns="http://www.w3.org/2000/svg">
<path fill-rule="evenodd" clip-rule="evenodd" d="M3 5.25C2.58579 5.25 2.25 5.58579 2.25 6V16.5C2.25 16.9142 2.58579 17.25 3 17.25H5.45802C5.8438 18.133 6.72484 18.75 7.75 18.75C8.77516 18.75 9.6562 18.133 10.042 17.25H13.958C14.3438 18.133 15.2248 18.75 16.25 18.75C17.2752 18.75 18.1562 18.133 18.542 17.25H21C21.4142 17.25 21.75 16.9142 21.75 16.5V6C21.75 5.58579 21.4142 5.25 21 5.25H3ZM17 12.75C16.5858 12.75 16.25 12.4142 16.25 12V6.75H3.75V15.75H5.30001C5.53164 14.6089 6.54052 13.75 7.75 13.75C8.95948 13.75 9.96836 14.6089 10.2 15.75H13.8C14.0316 14.6089 15.0405 13.75 16.25 13.75C17.4595 13.75 18.4684 14.6089 18.7 15.75H20.25V12.75H17ZM7.75 15.25C7.19772 15.25 6.75 15.6977 6.75 16.25C6.75 16.8023 7.19772 17.25 7.75 17.25C8.30228 17.25 8.75 16.8023 8.75 16.25C8.75 15.6977 8.30228 15.25 7.75 15.25ZM16.25 15.25C15.6977 15.25 15.25 15.6977 15.25 16.25C15.25 16.8023 15.6977 17.25 16.25 17.25C16.8023 17.25 17.25 16.8023 17.25 16.25C17.25 15.6977 16.8023 15.25 16.25 15.25ZM20.25 11.25H17.75V6.75H20.25V11.25Z" fill="#23262A"/>
</svg>
