<svg width="24" height="24" viewBox="0 0 24 24" fill="none" xmlns="http://www.w3.org/2000/svg">
<path fill-rule="evenodd" clip-rule="evenodd" d="M3 5.25C2.58579 5.25 2.25 5.58579 2.25 6V16.5C2.25 16.9142 2.58579 17.25 3 17.25H4.82145C4.99744 17.25 5.11908 17.0722 5.07755 16.9012C5.02686 16.6924 5 16.4743 5 16.25C5 14.7312 6.23122 13.5 7.75 13.5C9.26878 13.5 10.5 14.7312 10.5 16.25C10.5 16.4743 10.4731 16.6924 10.4224 16.9012C10.3809 17.0722 10.5026 17.25 10.6785 17.25H13.3215C13.4974 17.25 13.6191 17.0722 13.5776 16.9012C13.5269 16.6924 13.5 16.4743 13.5 16.25C13.5 14.7312 14.7312 13.5 16.25 13.5C17.7688 13.5 19 14.7312 19 16.25C19 16.4743 18.9731 16.6924 18.9225 16.9012C18.8809 17.0722 19.0026 17.25 19.1786 17.25H21C21.4142 17.25 21.75 16.9142 21.75 16.5V6C21.75 5.58579 21.4142 5.25 21 5.25H3ZM17.75 7C17.75 6.86193 17.8619 6.75 18 6.75H20C20.1381 6.75 20.25 6.86193 20.25 7V11C20.25 11.1381 20.1381 11.25 20 11.25H18C17.8619 11.25 17.75 11.1381 17.75 11V7ZM18 16.25C18 17.2165 17.2165 18 16.25 18C15.2835 18 14.5 17.2165 14.5 16.25C14.5 15.2835 15.2835 14.5 16.25 14.5C17.2165 14.5 18 15.2835 18 16.25ZM7.75 18C8.7165 18 9.5 17.2165 9.5 16.25C9.5 15.2835 8.7165 14.5 7.75 14.5C6.7835 14.5 6 15.2835 6 16.25C6 17.2165 6.7835 18 7.75 18Z" fill="#23262A"/>
</svg>
