<svg width="24" height="24" viewBox="0 0 24 24" fill="none" xmlns="http://www.w3.org/2000/svg">
<path fill-rule="evenodd" clip-rule="evenodd" d="M4.25 4C4.25 3.0335 5.0335 2.25 6 2.25H18C18.9665 2.25 19.75 3.0335 19.75 4V20C19.75 20.9665 18.9665 21.75 18 21.75H6C5.0335 21.75 4.25 20.9665 4.25 20V4ZM6 3.75C5.86193 3.75 5.75 3.86193 5.75 4V20C5.75 20.1381 5.86193 20.25 6 20.25H18C18.1381 20.25 18.25 20.1381 18.25 20V4C18.25 3.86193 18.1381 3.75 18 3.75H6ZM8 11C8 10.4477 8.44772 10 9 10C9.55228 10 10 10.4477 10 11C10 11.5523 9.55228 12 9 12C8.44772 12 8 11.5523 8 11ZM9 13C8.44772 13 8 13.4477 8 14C8 14.5523 8.44772 15 9 15C9.55228 15 10 14.5523 10 14C10 13.4477 9.55228 13 9 13ZM8 17C8 16.4477 8.44772 16 9 16C9.55228 16 10 16.4477 10 17C10 17.5523 9.55228 18 9 18C8.44772 18 8 17.5523 8 17ZM12 10C11.4477 10 11 10.4477 11 11C11 11.5523 11.4477 12 12 12C12.5523 12 13 11.5523 13 11C13 10.4477 12.5523 10 12 10ZM11 14C11 13.4477 11.4477 13 12 13C12.5523 13 13 13.4477 13 14C13 14.5523 12.5523 15 12 15C11.4477 15 11 14.5523 11 14ZM12 16C11.4477 16 11 16.4477 11 17C11 17.5523 11.4477 18 12 18C12.5523 18 13 17.5523 13 17C13 16.4477 12.5523 16 12 16ZM14 11C14 10.4477 14.4477 10 15 10C15.5523 10 16 10.4477 16 11C16 11.5523 15.5523 12 15 12C14.4477 12 14 11.5523 14 11ZM15 13C14.4477 13 14 13.4477 14 14C14 14.5523 14.4477 15 15 15C15.5523 15 16 14.5523 16 14C16 13.4477 15.5523 13 15 13ZM14 17C14 16.4477 14.4477 16 15 16C15.5523 16 16 16.4477 16 17C16 17.5523 15.5523 18 15 18C14.4477 18 14 17.5523 14 17ZM8.5 6.25C8.08579 6.25 7.75 6.58579 7.75 7C7.75 7.41421 8.08579 7.75 8.5 7.75H15.5C15.9142 7.75 16.25 7.41421 16.25 7C16.25 6.58579 15.9142 6.25 15.5 6.25H8.5Z" fill="#23262A"/>
</svg>
