<svg width="24" height="24" viewBox="0 0 24 24" fill="none" xmlns="http://www.w3.org/2000/svg">
<path fill-rule="evenodd" clip-rule="evenodd" d="M9 2.25C9.41421 2.25 9.75 2.58579 9.75 3V7C9.75 7.41421 9.41421 7.75 9 7.75C8.58579 7.75 8.25 7.41421 8.25 7V3C8.25 2.58579 8.58579 2.25 9 2.25ZM15 2.25C15.4142 2.25 15.75 2.58579 15.75 3V7C15.75 7.41421 15.4142 7.75 15 7.75C14.5858 7.75 14.25 7.41421 14.25 7V3C14.25 2.58579 14.5858 2.25 15 2.25ZM13.25 4.5C13.25 4.36193 13.1381 4.25 13 4.25H11C10.8619 4.25 10.75 4.36193 10.75 4.5V7C10.75 7.9665 9.9665 8.75 9 8.75C8.0335 8.75 7.25 7.9665 7.25 7V4.5C7.25 4.36193 7.13807 4.25 7 4.25H4.5C3.80964 4.25 3.25 4.80964 3.25 5.5V9C3.25 9.13807 3.36193 9.25 3.5 9.25H20.5C20.6381 9.25 20.75 9.13807 20.75 9V5.5C20.75 4.80964 20.1904 4.25 19.5 4.25H17C16.8619 4.25 16.75 4.36193 16.75 4.5V7C16.75 7.9665 15.9665 8.75 15 8.75C14.0335 8.75 13.25 7.9665 13.25 7V4.5ZM20.75 11C20.75 10.8619 20.6381 10.75 20.5 10.75H3.5C3.36193 10.75 3.25 10.8619 3.25 11V18.5C3.25 19.1904 3.80964 19.75 4.5 19.75H19.5C20.1904 19.75 20.75 19.1904 20.75 18.5V11ZM6.75 13C6.75 12.5858 7.08579 12.25 7.5 12.25H8.5C8.91421 12.25 9.25 12.5858 9.25 13C9.25 13.4142 8.91421 13.75 8.5 13.75H7.5C7.08579 13.75 6.75 13.4142 6.75 13ZM11.5 12.25C11.0858 12.25 10.75 12.5858 10.75 13C10.75 13.4142 11.0858 13.75 11.5 13.75H12.5C12.9142 13.75 13.25 13.4142 13.25 13C13.25 12.5858 12.9142 12.25 12.5 12.25H11.5ZM14.75 13C14.75 12.5858 15.0858 12.25 15.5 12.25H16.5C16.9142 12.25 17.25 12.5858 17.25 13C17.25 13.4142 16.9142 13.75 16.5 13.75H15.5C15.0858 13.75 14.75 13.4142 14.75 13ZM11.5 15.25C11.0858 15.25 10.75 15.5858 10.75 16C10.75 16.4142 11.0858 16.75 11.5 16.75H12.5C12.9142 16.75 13.25 16.4142 13.25 16C13.25 15.5858 12.9142 15.25 12.5 15.25H11.5ZM14.75 16C14.75 15.5858 15.0858 15.25 15.5 15.25H16.5C16.9142 15.25 17.25 15.5858 17.25 16C17.25 16.4142 16.9142 16.75 16.5 16.75H15.5C15.0858 16.75 14.75 16.4142 14.75 16ZM7.5 15.25C7.08579 15.25 6.75 15.5858 6.75 16C6.75 16.4142 7.08579 16.75 7.5 16.75H8.5C8.91421 16.75 9.25 16.4142 9.25 16C9.25 15.5858 8.91421 15.25 8.5 15.25H7.5Z" fill="#23262A"/>
</svg>
