<svg width="24" height="24" viewBox="0 0 24 24" fill="none" xmlns="http://www.w3.org/2000/svg">
<path fill-rule="evenodd" clip-rule="evenodd" d="M9 2.25C9.41421 2.25 9.75 2.58579 9.75 3V4.25H14.25V3C14.25 2.58579 14.5858 2.25 15 2.25C15.4142 2.25 15.75 2.58579 15.75 3V4.25H19.5C20.1904 4.25 20.75 4.80964 20.75 5.5V18.5C20.75 19.1904 20.1904 19.75 19.5 19.75H4.5C3.80964 19.75 3.25 19.1904 3.25 18.5V5.5C3.25 4.80964 3.80964 4.25 4.5 4.25H8.25V3C8.25 2.58579 8.58579 2.25 9 2.25ZM15.75 7C15.75 7.41421 15.4142 7.75 15 7.75C14.5858 7.75 14.25 7.41421 14.25 7V5.75H9.75V7C9.75 7.41421 9.41421 7.75 9 7.75C8.58579 7.75 8.25 7.41421 8.25 7V5.75H4.75V9.25H19.25V5.75H15.75V7ZM4.75 18.25V10.75H19.25V18.25H4.75ZM6.75 13C6.75 12.5858 7.08579 12.25 7.5 12.25H8.5C8.91421 12.25 9.25 12.5858 9.25 13C9.25 13.4142 8.91421 13.75 8.5 13.75H7.5C7.08579 13.75 6.75 13.4142 6.75 13ZM10.75 13C10.75 12.5858 11.0858 12.25 11.5 12.25H12.5C12.9142 12.25 13.25 12.5858 13.25 13C13.25 13.4142 12.9142 13.75 12.5 13.75H11.5C11.0858 13.75 10.75 13.4142 10.75 13ZM15.5 12.25C15.0858 12.25 14.75 12.5858 14.75 13C14.75 13.4142 15.0858 13.75 15.5 13.75H16.5C16.9142 13.75 17.25 13.4142 17.25 13C17.25 12.5858 16.9142 12.25 16.5 12.25H15.5ZM10.75 16C10.75 15.5858 11.0858 15.25 11.5 15.25H12.5C12.9142 15.25 13.25 15.5858 13.25 16C13.25 16.4142 12.9142 16.75 12.5 16.75H11.5C11.0858 16.75 10.75 16.4142 10.75 16ZM15.5 15.25C15.0858 15.25 14.75 15.5858 14.75 16C14.75 16.4142 15.0858 16.75 15.5 16.75H16.5C16.9142 16.75 17.25 16.4142 17.25 16C17.25 15.5858 16.9142 15.25 16.5 15.25H15.5ZM6.75 16C6.75 15.5858 7.08579 15.25 7.5 15.25H8.5C8.91421 15.25 9.25 15.5858 9.25 16C9.25 16.4142 8.91421 16.75 8.5 16.75H7.5C7.08579 16.75 6.75 16.4142 6.75 16Z" fill="#23262A"/>
</svg>
