<svg width="24" height="24" viewBox="0 0 24 24" fill="none" xmlns="http://www.w3.org/2000/svg">
<path fill-rule="evenodd" clip-rule="evenodd" d="M16.5375 1.63577C16.4052 1.39767 16.1542 1.25 15.8818 1.25C15.6095 1.25 15.3585 1.39767 15.2262 1.63577L10.2262 10.6358C10.0972 10.8681 10.1007 11.1513 10.2354 11.3803C10.3702 11.6094 10.6161 11.75 10.8818 11.75H20.8818C21.1476 11.75 21.3935 11.6094 21.5282 11.3803C21.663 11.1513 21.6665 10.8681 21.5375 10.6358L16.5375 1.63577ZM12.1886 3.25C12.3792 3.25 12.4997 3.45478 12.4071 3.62141L9.31944 9.17927C9.30428 9.20657 9.28407 9.23073 9.2602 9.25088C8.33661 10.0305 7.75 11.1967 7.75 12.5C7.75 14.8472 9.65279 16.75 12 16.75C14.0188 16.75 15.7088 15.3425 16.1422 13.4553C16.1693 13.3372 16.2723 13.25 16.3935 13.25H20.8818C21.056 13.25 21.2274 13.2299 21.393 13.1912C21.5669 13.1506 21.75 13.2728 21.75 13.4514V18C21.75 18.9665 20.9665 19.75 20 19.75H4C3.0335 19.75 2.25 18.9665 2.25 18V8C2.25 7.0335 3.0335 6.25 4 6.25H7.27924C7.38685 6.25 7.48238 6.18114 7.51641 6.07906L8.28849 3.76283C8.39057 3.45657 8.67718 3.25 9 3.25H12.1886ZM9.33605 13.1852C9.27941 12.9644 9.55593 12.8321 9.75316 12.9464C10.0905 13.1421 10.4786 13.25 10.8818 13.25H14.316C14.4818 13.25 14.6016 13.4089 14.5375 13.5619C14.1221 14.5534 13.1424 15.25 12 15.25C10.7178 15.25 9.64053 14.3725 9.33605 13.1852Z" fill="#23262A"/>
</svg>
