<svg width="24" height="24" viewBox="0 0 24 24" fill="none" xmlns="http://www.w3.org/2000/svg">
<path fill-rule="evenodd" clip-rule="evenodd" d="M16.5375 1.63577C16.4052 1.39767 16.1542 1.25 15.8818 1.25C15.6095 1.25 15.3585 1.39767 15.2262 1.63577L10.2262 10.6358C10.0972 10.8681 10.1007 11.1513 10.2354 11.3803C10.3702 11.6094 10.6161 11.75 10.8818 11.75H20.8818C21.1476 11.75 21.3935 11.6094 21.5282 11.3803C21.663 11.1513 21.6665 10.8681 21.5375 10.6358L16.5375 1.63577ZM15.8818 3.54434L19.6072 10.25H12.1565L15.8818 3.54434ZM8.28849 3.76283C8.39057 3.45657 8.67718 3.25 9 3.25H11.25C11.6642 3.25 12 3.58579 12 4C12 4.41421 11.6642 4.75 11.25 4.75H9.54057L8.71151 7.23717C8.60943 7.54343 8.32282 7.75 8 7.75H4C3.86193 7.75 3.75 7.86193 3.75 8V18C3.75 18.1381 3.86193 18.25 4 18.25H20C20.1381 18.25 20.25 18.1381 20.25 18V14.1021C20.25 13.6878 20.5858 13.3521 21 13.3521C21.4142 13.3521 21.75 13.6878 21.75 14.1021V18C21.75 18.9665 20.9665 19.75 20 19.75H4C3.0335 19.75 2.25 18.9665 2.25 18V8C2.25 7.0335 3.0335 6.25 4 6.25H7.45943L8.28849 3.76283ZM8.3194 14.625C7.94314 13.9733 7.75002 13.2396 7.75 12.5C7.74999 12.0858 8.08576 11.75 8.49998 11.75C8.91419 11.75 9.24999 12.0858 9.25 12.5C9.25002 12.9787 9.375 13.4533 9.61844 13.875C9.98311 14.5066 10.5838 14.9675 11.2883 15.1563C11.9928 15.3451 12.7434 15.2462 13.375 14.8816C13.8617 14.6006 14.2471 14.1794 14.4847 13.6786C14.6622 13.3043 15.1095 13.1448 15.4837 13.3224C15.858 13.4999 16.0175 13.9472 15.8399 14.3214C15.4728 15.0954 14.8773 15.7463 14.125 16.1806C13.1489 16.7442 11.9888 16.8969 10.9 16.6052C9.81126 16.3134 8.88299 15.6011 8.3194 14.625Z" fill="#23262A"/>
</svg>
