<svg width="24" height="24" viewBox="0 0 24 24" fill="none" xmlns="http://www.w3.org/2000/svg">
<path fill-rule="evenodd" clip-rule="evenodd" d="M9 3.25C8.67718 3.25 8.39057 3.45657 8.28849 3.76283L7.45943 6.25H4C3.0335 6.25 2.25 7.0335 2.25 8V18C2.25 18.9665 3.0335 19.75 4 19.75H20C20.9665 19.75 21.75 18.9665 21.75 18V8C21.75 7.0335 20.9665 6.25 20 6.25H16.5406L15.7115 3.76283C15.6094 3.45657 15.3228 3.25 15 3.25H9ZM9.25 12.5C9.25 10.9812 10.4812 9.75 12 9.75C13.5188 9.75 14.75 10.9812 14.75 12.5C14.75 14.0188 13.5188 15.25 12 15.25C10.4812 15.25 9.25 14.0188 9.25 12.5ZM12 8.25C9.65279 8.25 7.75 10.1528 7.75 12.5C7.75 14.8472 9.65279 16.75 12 16.75C14.3472 16.75 16.25 14.8472 16.25 12.5C16.25 10.1528 14.3472 8.25 12 8.25Z" fill="#23262A"/>
</svg>
