<svg width="24" height="24" viewBox="0 0 24 24" fill="none" xmlns="http://www.w3.org/2000/svg">
<path fill-rule="evenodd" clip-rule="evenodd" d="M12.5638 2.00163C12.4217 1.84189 12.2182 1.75039 12.0043 1.75012C11.7905 1.74986 11.5868 1.84085 11.4443 2.00025L10.0394 3.57162C9.51321 4.1064 9.24989 4.80447 9.24989 5.50012C9.24989 6.20275 9.51852 6.90784 10.0553 7.44466C11.1293 8.51861 12.8705 8.5186 13.9444 7.44466C14.4813 6.90784 14.7499 6.20275 14.7499 5.50012C14.7499 4.80478 14.4868 4.10702 13.961 3.57233L12.5638 2.00163ZM5 9.25001C4.0335 9.25001 3.25 10.0335 3.25 11V12.0016C3.25014 12.0476 3.25254 12.0935 3.25581 12.1394C3.26114 12.214 3.27144 12.3157 3.29145 12.4358C3.33044 12.6697 3.40932 12.9919 3.57341 13.3238L3.5794 13.3354C3.74892 13.6745 4.01494 14.0362 4.42795 14.3116C4.84565 14.59 5.36893 14.75 6.00022 14.75C6.63152 14.75 7.15479 14.59 7.5725 14.3116C7.9855 14.0362 8.25153 13.6745 8.42104 13.3354C8.58907 12.9994 8.66933 12.6724 8.70877 12.4358C8.73273 12.2921 8.74456 12.1433 8.75057 11.9815C8.76081 11.7055 8.99282 11.4901 9.26877 11.5004C9.54472 11.5106 9.76012 11.7426 9.74988 12.0186C9.74296 12.2049 9.7286 12.3996 9.69516 12.6002C9.6448 12.9024 9.54083 13.3319 9.31547 13.7826C9.08682 14.24 8.7162 14.7509 8.1272 15.1436C7.52727 15.5436 6.80619 15.75 6.00022 15.75C5.35651 15.75 4.76694 15.6183 4.25 15.3615V20C4.25 20.9665 5.0335 21.75 6 21.75H18C18.9665 21.75 19.75 20.9665 19.75 20V18.9571C19.7352 18.9672 19.7202 18.9774 19.7051 18.9874C18.9646 19.4811 18.0561 19.7501 17 19.7501C16.2326 19.7501 15.5426 19.6081 14.9379 19.3403C14.6967 19.6761 14.3817 19.9878 13.9755 20.2348C13.378 20.598 12.7001 20.75 12 20.75C11.2803 20.75 10.5839 20.5909 9.97475 20.2071C9.36274 19.8214 8.9681 19.2902 8.72104 18.7608C8.26936 17.7928 8.25 16.679 8.25 16C8.25 15.7239 8.47386 15.5 8.75 15.5C9.02614 15.5 9.25 15.7239 9.25 16C9.25 16.6862 9.27969 17.5931 9.62724 18.3379C9.81009 18.7298 10.0892 19.0972 10.5079 19.3611C10.9254 19.6242 11.4273 19.75 12 19.75C12.5556 19.75 13.0451 19.6301 13.456 19.3803C13.849 19.1414 14.1241 18.8117 14.3133 18.4529C14.377 18.3321 14.4873 18.2427 14.6186 18.2052C14.7499 18.1678 14.8907 18.1857 15.0085 18.2548C15.5399 18.5663 16.1992 18.7501 17 18.7501C17.8813 18.7501 18.5921 18.5276 19.1504 18.1554C19.3828 18.0004 19.581 17.8248 19.75 17.6388V17.6387C19.9836 17.3815 20.1612 17.1046 20.2958 16.8354C20.5263 16.3744 20.6379 15.9224 20.6929 15.5921C20.7207 15.4251 20.735 15.2843 20.7422 15.1823C20.7482 15.0988 20.7498 15.0504 20.75 15V11C20.75 10.0335 19.9665 9.25001 19 9.25001H5Z" fill="#262626"/>
</svg>
