<svg width="24" height="24" viewBox="0 0 24 24" fill="none" xmlns="http://www.w3.org/2000/svg">
<path fill-rule="evenodd" clip-rule="evenodd" d="M12.5638 2.00151C12.4217 1.84177 12.2182 1.75027 12.0043 1.75C11.7905 1.74974 11.5868 1.84073 11.4443 2.00012L10.0394 3.57149C9.51321 4.10628 9.24989 4.80435 9.24989 5.5C9.24989 6.20262 9.51852 6.90772 10.0553 7.44454C11.1293 8.51848 12.8705 8.51848 13.9444 7.44454C14.4813 6.90772 14.7499 6.20263 14.7499 5.5C14.7499 4.80466 14.4868 4.1069 13.961 3.57221L12.5638 2.00151ZM11.1448 4.58566L12.002 3.62684L12.8537 4.58427C12.8634 4.59518 12.8735 4.60579 12.8838 4.61611C13.128 4.86034 13.2499 5.17893 13.2499 5.5C13.2499 5.82106 13.128 6.13966 12.8838 6.38388C12.3956 6.87204 11.6042 6.87204 11.116 6.38388C10.8718 6.13966 10.7499 5.82106 10.7499 5.5C10.7499 5.17893 10.8718 4.86034 11.116 4.61611C11.1259 4.60623 11.1355 4.59608 11.1448 4.58566ZM5 9.25001C4.0335 9.25001 3.25 10.0335 3.25 11V12H4C3.25 12 3.25 12.0016 3.25 12.0016L3.25001 12.0033L3.25003 12.0074L3.25016 12.0178L3.2509 12.0475C3.25169 12.0709 3.25314 12.1019 3.25581 12.1394C3.26114 12.214 3.27144 12.3157 3.29145 12.4358C3.33089 12.6724 3.41116 12.9994 3.57918 13.3354C3.723 13.6231 3.93631 13.9271 4.25 14.1809V20C4.25 20.9665 5.0335 21.75 6 21.75H18C18.9665 21.75 19.75 20.9665 19.75 20V17.6387C19.9836 17.3815 20.1612 17.1046 20.2958 16.8354C20.5263 16.3744 20.6379 15.9224 20.6929 15.5921C20.7207 15.4251 20.735 15.2843 20.7422 15.1823C20.7459 15.1312 20.7478 15.0895 20.7489 15.0587L20.7496 15.0307L20.7498 15.0207L20.75 15.0081L20.75 15.0035L20.75 15.0016L20.75 15V11C20.75 10.0335 19.9665 9.25001 19 9.25001H5ZM5.75 14.7413C5.83137 14.7471 5.9147 14.75 6 14.75C6.63124 14.75 7.15453 14.59 7.57228 14.3115C7.98533 14.0362 8.25133 13.6744 8.42082 13.3354C8.58884 12.9994 8.66911 12.6724 8.70855 12.4358C8.72856 12.3157 8.73886 12.214 8.74419 12.1394C8.74686 12.1019 8.74831 12.0709 8.7491 12.0475L8.74984 12.0178L8.74997 12.0074L8.74999 12.0033L8.75 12.0016L8.75 12C8.75 11.5858 8.41421 11.25 8 11.25C7.58768 11.25 7.25308 11.5827 7.25002 11.9943L7.24993 11.9975C7.24976 12.0026 7.24935 12.0124 7.24843 12.0263L7.248 12.0325C7.24552 12.0673 7.24019 12.1218 7.22895 12.1892C7.20589 12.3276 7.16116 12.5006 7.07918 12.6646C6.99867 12.8256 6.88967 12.9638 6.74022 13.0635C6.59547 13.16 6.36876 13.25 6 13.25C5.63124 13.25 5.40453 13.16 5.25978 13.0635C5.11033 12.9638 5.00133 12.8256 4.92082 12.6646C4.83884 12.5006 4.79411 12.3276 4.77105 12.1892C4.75981 12.1218 4.75448 12.0673 4.752 12.0325C4.75077 12.0153 4.75027 12.0033 4.75007 11.9975L4.75 11.9951V11C4.75 10.8619 4.86193 10.75 5 10.75H19C19.1381 10.75 19.25 10.8619 19.25 11V14.9968L19.2497 15.0087C19.2492 15.0218 19.2483 15.0446 19.246 15.0755C19.2416 15.1376 19.2324 15.2312 19.2133 15.3455C19.1746 15.5776 19.0987 15.8756 18.9542 16.1646C18.8112 16.4506 18.6084 16.7138 18.3183 16.9072C18.033 17.0975 17.6188 17.25 17 17.25C16.3812 17.25 15.967 17.0975 15.6817 16.9072C15.3916 16.7138 15.1888 16.4506 15.0458 16.1646C14.9013 15.8756 14.8254 15.5776 14.7867 15.3455C14.7676 15.2312 14.7584 15.1376 14.754 15.0755C14.7517 15.0446 14.7508 15.0218 14.7503 15.0087L14.75 14.9967V14C14.75 13.5858 14.4142 13.25 14 13.25C13.5858 13.25 13.25 13.5858 13.25 14V15L13.25 15.0017L13.25 15.0035L13.25 15.0081L13.2502 15.0207L13.25 16.1032C13.25 16.7794 13.1905 17.3458 12.9993 17.7283C12.9124 17.9021 12.8069 18.0194 12.6769 18.0985C12.5453 18.1785 12.3381 18.25 12 18.25C11.6485 18.25 11.4383 18.1744 11.3076 18.092C11.1781 18.0104 11.0727 17.8883 10.9865 17.7036C10.7961 17.2954 10.75 16.702 10.75 16C10.75 15.5858 10.4142 15.25 10 15.25C9.58579 15.25 9.25 15.5858 9.25 16C9.25 16.6867 9.27979 17.5933 9.62724 18.3379C9.81005 18.7297 10.0891 19.0971 10.5079 19.361C10.9255 19.6242 11.4274 19.75 12 19.75C12.5555 19.75 13.045 19.6301 13.456 19.3802C13.8685 19.1295 14.1513 18.7786 14.3411 18.3989C14.4187 18.2436 14.4818 18.0811 14.5331 17.9147C14.6308 17.9991 14.7361 18.0796 14.8496 18.1553C15.408 18.5275 16.1188 18.75 17 18.75C17.4628 18.75 17.8786 18.6886 18.25 18.5765V20C18.25 20.1381 18.1381 20.25 18 20.25H6C5.86193 20.25 5.75 20.1381 5.75 20V14.7413Z" fill="#23262A"/>
</svg>
