<svg width="24" height="24" viewBox="0 0 24 24" fill="none" xmlns="http://www.w3.org/2000/svg">
<path fill-rule="evenodd" clip-rule="evenodd" d="M12.5638 2.00163C12.4217 1.84189 12.2182 1.75039 12.0043 1.75012C11.7905 1.74986 11.5868 1.84085 11.4443 2.00025L10.0394 3.57162C9.51321 4.1064 9.24989 4.80447 9.24989 5.50012C9.24989 6.20275 9.51852 6.90784 10.0553 7.44466C11.1293 8.51861 12.8705 8.5186 13.9444 7.44466C14.4813 6.90784 14.7499 6.20275 14.7499 5.50012C14.7499 4.80478 14.4868 4.10702 13.961 3.57233L12.5638 2.00163ZM3.25 11C3.25 10.0335 4.0335 9.24999 5 9.24999H19C19.9665 9.24999 20.75 10.0335 20.75 11V15C20.7498 15.0504 20.7482 15.0988 20.7422 15.1823C20.735 15.2843 20.7207 15.4251 20.6929 15.592C20.6379 15.9224 20.5263 16.3744 20.2958 16.8354C20.1612 17.1046 19.9836 17.3815 19.75 17.6387C19.581 17.8247 19.3828 18.0004 19.1504 18.1553C18.5921 18.5276 17.8813 18.7501 17 18.7501C16.1992 18.7501 15.5399 18.5663 15.0085 18.2547C14.8907 18.1857 14.7499 18.1678 14.6186 18.2052C14.4873 18.2426 14.377 18.3321 14.3133 18.4529C14.1241 18.8117 13.849 19.1413 13.456 19.3802C13.0451 19.6301 12.5556 19.75 12 19.75C11.4273 19.75 10.9254 19.6242 10.5079 19.361C10.0892 19.0972 9.81009 18.7298 9.62724 18.3379C9.27969 17.5931 9.25 16.6861 9.25 16C9.25 15.7239 9.02614 15.5 8.75 15.5C8.47386 15.5 8.25 15.7239 8.25 16C8.25 16.679 8.26936 17.7928 8.72104 18.7607C8.9681 19.2902 9.36274 19.8214 9.97475 20.2071C10.5839 20.5909 11.2803 20.75 12 20.75C12.7001 20.75 13.378 20.598 13.9755 20.2347C14.3817 19.9878 14.6967 19.6761 14.9379 19.3403C15.5426 19.6081 16.2326 19.7501 17 19.7501C18.0561 19.7501 18.9646 19.4811 19.7051 18.9874C19.7202 18.9773 19.7352 18.9672 19.75 18.9571V20C19.75 20.9665 18.9665 21.75 18 21.75H6C5.0335 21.75 4.25 20.9665 4.25 20V15.3615C4.76694 15.6183 5.35651 15.75 6.00022 15.75C6.80619 15.75 7.52727 15.5435 8.1272 15.1436C8.7162 14.7509 9.08682 14.2399 9.31547 13.7826C9.54083 13.3319 9.6448 12.9023 9.69516 12.6002C9.7286 12.3996 9.74296 12.2049 9.74988 12.0185C9.76012 11.7426 9.54472 11.5106 9.26877 11.5003C8.99282 11.4901 8.76081 11.7055 8.75057 11.9815C8.74456 12.1433 8.73273 12.292 8.70877 12.4358C8.66933 12.6724 8.58907 12.9994 8.42104 13.3354C8.25153 13.6744 7.9855 14.0362 7.5725 14.3115C7.15479 14.59 6.63152 14.75 6.00022 14.75C5.36893 14.75 4.84565 14.59 4.42795 14.3115C4.01494 14.0362 3.74892 13.6744 3.5794 13.3354L3.57341 13.3238C3.40932 12.9918 3.33044 12.6697 3.29145 12.4358C3.27144 12.3157 3.26114 12.214 3.25581 12.1394C3.25254 12.0935 3.25014 12.0475 3.25 12.0016V11Z" fill="#23262A"/>
</svg>
