<svg width="24" height="24" viewBox="0 0 24 24" fill="none" xmlns="http://www.w3.org/2000/svg">
<path fill-rule="evenodd" clip-rule="evenodd" d="M3 4.25C2.58579 4.25 2.25 4.58579 2.25 5V19C2.25 19.4142 2.58579 19.75 3 19.75H21C21.4142 19.75 21.75 19.4142 21.75 19V5C21.75 4.58579 21.4142 4.25 21 4.25H3ZM6 12.25C5.58579 12.25 5.25 12.5858 5.25 13C5.25 13.4142 5.58579 13.75 6 13.75H10C10.4142 13.75 10.75 13.4142 10.75 13C10.75 12.5858 10.4142 12.25 10 12.25H6ZM5.25 16C5.25 15.5858 5.58579 15.25 6 15.25H8C8.41421 15.25 8.75 15.5858 8.75 16C8.75 16.4142 8.41421 16.75 8 16.75H6C5.58579 16.75 5.25 16.4142 5.25 16ZM11 15.25C10.5858 15.25 10.25 15.5858 10.25 16C10.25 16.4142 10.5858 16.75 11 16.75H13C13.4142 16.75 13.75 16.4142 13.75 16C13.75 15.5858 13.4142 15.25 13 15.25H11ZM12.25 13C12.25 12.5858 12.5858 12.25 13 12.25H15C15.4142 12.25 15.75 12.5858 15.75 13C15.75 13.4142 15.4142 13.75 15 13.75H13C12.5858 13.75 12.25 13.4142 12.25 13ZM16 15.25C15.5858 15.25 15.25 15.5858 15.25 16C15.25 16.4142 15.5858 16.75 16 16.75H18C18.4142 16.75 18.75 16.4142 18.75 16C18.75 15.5858 18.4142 15.25 18 15.25H16Z" fill="#23262A"/>
</svg>
