<svg width="24" height="24" viewBox="0 0 24 24" fill="none" xmlns="http://www.w3.org/2000/svg">
<path fill-rule="evenodd" clip-rule="evenodd" d="M5.8 6.35C6.31935 5.65753 7.13442 5.25 8 5.25H13C13.8656 5.25 14.6807 5.65753 15.2 6.35L17.4685 9.3747L20.6145 10.5544C21.2975 10.8106 21.75 11.4635 21.75 12.193V13.7192C21.75 14.5222 21.2035 15.2222 20.4244 15.417L19.7448 15.5869C19.7482 15.6408 19.75 15.6952 19.75 15.75C19.75 17.1307 18.6307 18.25 17.25 18.25C15.8693 18.25 14.75 17.1307 14.75 15.75H9.75C9.75 17.1307 8.63071 18.25 7.25 18.25C5.86929 18.25 4.75 17.1307 4.75 15.75H4C3.0335 15.75 2.25 14.9665 2.25 14V11C2.25 10.1752 2.82056 9.48372 3.58851 9.29865L5.8 6.35ZM7 7.25L5.5 9.25H8.75V6.75H8C7.60655 6.75 7.23607 6.93524 7 7.25ZM14 7.25L15.5 9.25H10.25V6.75H13C13.3934 6.75 13.7639 6.93524 14 7.25ZM20.0878 11.9589L16.864 10.75H4.00756L3.99577 10.75C3.85965 10.7523 3.75 10.8633 3.75 11V14C3.75 14.1381 3.86193 14.25 4 14.25H5.24982C5.70592 13.6428 6.43209 13.25 7.25 13.25C8.06791 13.25 8.79408 13.6428 9.25018 14.25H15.2498C15.7059 13.6428 16.4321 13.25 17.25 13.25C18.0353 13.25 18.736 13.6121 19.1943 14.1783L20.0606 13.9618C20.1719 13.9339 20.25 13.8339 20.25 13.7192V12.193C20.25 12.0888 20.1854 11.9955 20.0878 11.9589ZM6.25 15.75C6.25 15.1977 6.69772 14.75 7.25 14.75C7.80228 14.75 8.25 15.1977 8.25 15.75C8.25 16.3023 7.80228 16.75 7.25 16.75C6.69772 16.75 6.25 16.3023 6.25 15.75ZM16.25 15.75C16.25 15.1977 16.6977 14.75 17.25 14.75C17.8023 14.75 18.25 15.1977 18.25 15.75C18.25 16.3023 17.8023 16.75 17.25 16.75C16.6977 16.75 16.25 16.3023 16.25 15.75Z" fill="#23262A"/>
</svg>
