<svg width="24" height="24" viewBox="0 0 24 24" fill="none" xmlns="http://www.w3.org/2000/svg">
<path fill-rule="evenodd" clip-rule="evenodd" d="M2.25 6C2.25 5.58579 2.58579 5.25 3 5.25H21C21.4142 5.25 21.75 5.58579 21.75 6V9C21.75 9.13807 21.6381 9.25 21.5 9.25H2.5C2.36193 9.25 2.25 9.13807 2.25 9V6ZM2.25 11C2.25 10.8619 2.36193 10.75 2.5 10.75H21.5C21.6381 10.75 21.75 10.8619 21.75 11V18C21.75 18.4142 21.4142 18.75 21 18.75H3C2.58579 18.75 2.25 18.4142 2.25 18V11ZM6 14.25C5.58579 14.25 5.25 14.5858 5.25 15C5.25 15.4142 5.58579 15.75 6 15.75H8C8.41421 15.75 8.75 15.4142 8.75 15C8.75 14.5858 8.41421 14.25 8 14.25H6Z" fill="#23262A"/>
</svg>
