<svg width="24" height="24" viewBox="0 0 24 24" fill="none" xmlns="http://www.w3.org/2000/svg">
<path fill-rule="evenodd" clip-rule="evenodd" d="M3.75 12C3.75 7.44365 7.44365 3.75 12 3.75C16.5563 3.75 20.25 7.44365 20.25 12C20.25 16.5563 16.5563 20.25 12 20.25C7.44365 20.25 3.75 16.5563 3.75 12ZM12 2.25C6.61522 2.25 2.25 6.61522 2.25 12C2.25 17.3848 6.61522 21.75 12 21.75C17.3848 21.75 21.75 17.3848 21.75 12C21.75 6.61522 17.3848 2.25 12 2.25ZM12.5303 8.96967C12.2374 8.67678 11.7626 8.67678 11.4697 8.96967L7.96966 12.4697C7.75516 12.6842 7.691 13.0068 7.80708 13.287C7.92317 13.5673 8.19664 13.75 8.49999 13.75H15.5C15.8033 13.75 16.0768 13.5673 16.1929 13.287C16.309 13.0068 16.2448 12.6842 16.0303 12.4697L12.5303 8.96967ZM12 10.5607L13.6893 12.25H10.3107L12 10.5607Z" fill="#23262A"/>
</svg>
