<svg width="24" height="24" viewBox="0 0 24 24" fill="none" xmlns="http://www.w3.org/2000/svg">
<path fill-rule="evenodd" clip-rule="evenodd" d="M16.0303 7.96968C15.8158 7.75518 15.4932 7.69101 15.213 7.8071C14.9327 7.92318 14.75 8.19666 14.75 8.50001V15.5C14.75 15.8034 14.9327 16.0768 15.213 16.1929C15.4932 16.309 15.8158 16.2448 16.0303 16.0303L19.5303 12.5303C19.671 12.3897 19.75 12.1989 19.75 12C19.75 11.8011 19.671 11.6103 19.5303 11.4697L16.0303 7.96968ZM17.9393 12L16.25 13.6893V10.3107L17.9393 12ZM9.25 8.50001C9.25 8.19666 9.06727 7.92318 8.78701 7.8071C8.50676 7.69101 8.18417 7.75518 7.96967 7.96968L4.46967 11.4697C4.17678 11.7626 4.17678 12.2374 4.46967 12.5303L7.96967 16.0303C8.18417 16.2448 8.50676 16.309 8.78701 16.1929C9.06727 16.0768 9.25 15.8034 9.25 15.5L9.25 8.50001ZM7.75 13.6893L6.06066 12L7.75 10.3107V13.6893Z" fill="#23262A"/>
</svg>
