<svg width="24" height="24" viewBox="0 0 24 24" fill="none" xmlns="http://www.w3.org/2000/svg">
<path fill-rule="evenodd" clip-rule="evenodd" d="M12.5303 4.46967C12.2374 4.17678 11.7626 4.17678 11.4697 4.46967L7.96966 7.96967C7.75516 8.18417 7.691 8.50676 7.80708 8.78701C7.92317 9.06727 8.19664 9.25 8.49999 9.25H15.5C15.8033 9.25 16.0768 9.06727 16.1929 8.78701C16.309 8.50676 16.2448 8.18417 16.0303 7.96967L12.5303 4.46967ZM12 6.06066L13.6893 7.75H10.3107L12 6.06066ZM8.49999 14.75C8.19664 14.75 7.92317 14.9327 7.80708 15.213C7.691 15.4932 7.75516 15.8158 7.96966 16.0303L11.4697 19.5303C11.7626 19.8232 12.2374 19.8232 12.5303 19.5303L16.0303 16.0303C16.2448 15.8158 16.309 15.4932 16.1929 15.213C16.0768 14.9327 15.8033 14.75 15.5 14.75H8.49999Z" fill="#23262A"/>
</svg>
