<svg width="24" height="24" viewBox="0 0 24 24" fill="none" xmlns="http://www.w3.org/2000/svg">
<path fill-rule="evenodd" clip-rule="evenodd" d="M11.4697 4.46967C11.7626 4.17678 12.2374 4.17678 12.5303 4.46967L16.0303 7.96967C16.2448 8.18417 16.309 8.50676 16.1929 8.78701C16.0768 9.06727 15.8034 9.25 15.5 9.25H8.50001C8.19666 9.25 7.92318 9.06727 7.8071 8.78701C7.69101 8.50676 7.75518 8.18417 7.96968 7.96967L11.4697 4.46967ZM7.8071 15.213C7.92318 14.9327 8.19666 14.75 8.50001 14.75H15.5C15.8034 14.75 16.0768 14.9327 16.1929 15.213C16.309 15.4932 16.2448 15.8158 16.0303 16.0303L12.5303 19.5303C12.2374 19.8232 11.7626 19.8232 11.4697 19.5303L7.96968 16.0303C7.75518 15.8158 7.69101 15.4932 7.8071 15.213Z" fill="#262626"/>
</svg>
