<svg width="24" height="24" viewBox="0 0 24 24" fill="none" xmlns="http://www.w3.org/2000/svg">
<path fill-rule="evenodd" clip-rule="evenodd" d="M3.75 12C3.75 7.44365 7.44365 3.75 12 3.75C16.5563 3.75 20.25 7.44365 20.25 12C20.25 16.5563 16.5563 20.25 12 20.25C7.44365 20.25 3.75 16.5563 3.75 12ZM12 2.25C6.61522 2.25 2.25 6.61522 2.25 12C2.25 17.3848 6.61522 21.75 12 21.75C17.3848 21.75 21.75 17.3848 21.75 12C21.75 6.61522 17.3848 2.25 12 2.25ZM11.5303 7.96968C11.3158 7.75518 10.9932 7.69101 10.713 7.8071C10.4327 7.92318 10.25 8.19666 10.25 8.50001V15.5C10.25 15.8034 10.4327 16.0768 10.713 16.1929C10.9932 16.309 11.3158 16.2448 11.5303 16.0303L15.0303 12.5303C15.3232 12.2374 15.3232 11.7626 15.0303 11.4697L11.5303 7.96968ZM13.4393 12L11.75 13.6893V10.3107L13.4393 12Z" fill="#23262A"/>
</svg>
