<svg width="24" height="24" viewBox="0 0 24 24" fill="none" xmlns="http://www.w3.org/2000/svg">
<path fill-rule="evenodd" clip-rule="evenodd" d="M12 2.25C6.61522 2.25 2.25 6.61522 2.25 12C2.25 17.3848 6.61522 21.75 12 21.75C17.3848 21.75 21.75 17.3848 21.75 12C21.75 6.61522 17.3848 2.25 12 2.25ZM13.75 8.50002C13.75 8.19668 13.5673 7.9232 13.287 7.80711C13.0068 7.69103 12.6842 7.75519 12.4697 7.96969L8.96967 11.4697C8.67678 11.7626 8.67678 12.2375 8.96967 12.5304L12.4697 16.0304C12.6842 16.2449 13.0068 16.309 13.287 16.1929C13.5673 16.0768 13.75 15.8034 13.75 15.5V8.50002Z" fill="#23262A"/>
</svg>
