<svg width="24" height="24" viewBox="0 0 24 24" fill="none" xmlns="http://www.w3.org/2000/svg">
<path fill-rule="evenodd" clip-rule="evenodd" d="M3.75 12C3.75 7.44365 7.44365 3.75 12 3.75C16.5563 3.75 20.25 7.44365 20.25 12C20.25 16.5563 16.5563 20.25 12 20.25C7.44365 20.25 3.75 16.5563 3.75 12ZM12 2.25C6.61522 2.25 2.25 6.61522 2.25 12C2.25 17.3848 6.61522 21.75 12 21.75C17.3848 21.75 21.75 17.3848 21.75 12C21.75 6.61522 17.3848 2.25 12 2.25ZM13.75 8.50001C13.75 8.19666 13.5673 7.92318 13.287 7.8071C13.0068 7.69101 12.6842 7.75518 12.4697 7.96968L8.96967 11.4697C8.67678 11.7626 8.67678 12.2374 8.96967 12.5303L12.4697 16.0303C12.6842 16.2448 13.0068 16.309 13.287 16.1929C13.5673 16.0768 13.75 15.8034 13.75 15.5V8.50001ZM12.25 13.6893L10.5607 12L12.25 10.3107V13.6893Z" fill="#23262A"/>
</svg>
