<svg width="24" height="24" viewBox="0 0 24 24" fill="none" xmlns="http://www.w3.org/2000/svg">
<path fill-rule="evenodd" clip-rule="evenodd" d="M15.213 16.1929C14.9328 16.0768 14.75 15.8034 14.75 15.5V8.50001C14.75 8.19666 14.9328 7.92318 15.213 7.8071C15.4933 7.69101 15.8159 7.75518 16.0304 7.96968L19.5304 11.4697C19.8233 11.7626 19.8233 12.2374 19.5304 12.5303L16.0304 16.0303C15.8159 16.2448 15.4933 16.309 15.213 16.1929ZM4.4697 12.5303C4.17681 12.2374 4.17681 11.7626 4.4697 11.4697L7.9697 7.96968C8.1842 7.75518 8.50679 7.69101 8.78704 7.8071C9.0673 7.92318 9.25003 8.19666 9.25003 8.50001L9.25003 15.5C9.25003 15.8034 9.0673 16.0768 8.78704 16.1929C8.50679 16.309 8.1842 16.2448 7.9697 16.0303L4.4697 12.5303Z" fill="#23262A"/>
</svg>
