<svg width="24" height="24" viewBox="0 0 24 24" fill="none" xmlns="http://www.w3.org/2000/svg">
<path fill-rule="evenodd" clip-rule="evenodd" d="M3.75 12C3.75 7.44365 7.44365 3.75 12 3.75C16.5563 3.75 20.25 7.44365 20.25 12C20.25 16.5563 16.5563 20.25 12 20.25C7.44365 20.25 3.75 16.5563 3.75 12ZM12 2.25C6.61522 2.25 2.25 6.61522 2.25 12C2.25 17.3848 6.61522 21.75 12 21.75C17.3848 21.75 21.75 17.3848 21.75 12C21.75 6.61522 17.3848 2.25 12 2.25ZM16.0303 11.5303L12.5303 15.0303C12.2374 15.3232 11.7626 15.3232 11.4697 15.0303L7.96968 11.5303C7.75518 11.3158 7.69101 10.9932 7.8071 10.713C7.92318 10.4327 8.19666 10.25 8.50001 10.25H15.5C15.8034 10.25 16.0768 10.4327 16.1929 10.713C16.309 10.9932 16.2448 11.3158 16.0303 11.5303ZM13.6893 11.75H10.3107L12 13.4393L13.6893 11.75Z" fill="#23262A"/>
</svg>
