<svg width="24" height="24" viewBox="0 0 24 24" fill="none" xmlns="http://www.w3.org/2000/svg">
<path fill-rule="evenodd" clip-rule="evenodd" d="M12 2.25C6.61522 2.25 2.25 6.61522 2.25 12C2.25 17.3848 6.61522 21.75 12 21.75C17.3848 21.75 21.75 17.3848 21.75 12C21.75 6.61522 17.3848 2.25 12 2.25ZM11.5303 7.96969C11.3158 7.75519 10.9932 7.69103 10.713 7.80711C10.4327 7.9232 10.25 8.19668 10.25 8.50002V15.5C10.25 15.8034 10.4327 16.0768 10.713 16.1929C10.9932 16.309 11.3158 16.2449 11.5303 16.0304L15.0303 12.5304C15.3232 12.2375 15.3232 11.7626 15.0303 11.4697L11.5303 7.96969Z" fill="#23262A"/>
</svg>
