<svg width="24" height="24" viewBox="0 0 24 24" fill="none" xmlns="http://www.w3.org/2000/svg">
<path fill-rule="evenodd" clip-rule="evenodd" d="M4.46967 11.4696C4.17678 11.7625 4.17678 12.2374 4.46967 12.5303L7.96967 16.0303C8.18417 16.2448 8.50676 16.309 8.78701 16.1929C9.06727 16.0768 9.25 15.8033 9.25 15.5L9.25 8.49998C9.25 8.19663 9.06727 7.92315 8.78701 7.80707C8.50676 7.69098 8.18417 7.75515 7.96967 7.96965L4.46967 11.4696ZM6.06066 12L7.75 10.3106L7.75 13.6893L6.06066 12ZM14.75 15.5C14.75 15.8033 14.9327 16.0768 15.213 16.1929C15.4932 16.309 15.8158 16.2448 16.0303 16.0303L19.5303 12.5303C19.8232 12.2374 19.8232 11.7625 19.5303 11.4696L16.0303 7.96965C15.8158 7.75515 15.4932 7.69098 15.213 7.80707C14.9327 7.92315 14.75 8.19663 14.75 8.49998L14.75 15.5ZM17.9393 12L16.25 13.6893L16.25 10.3106L17.9393 12Z" fill="#262626"/>
</svg>
