<svg width="24" height="24" viewBox="0 0 24 24" fill="none" xmlns="http://www.w3.org/2000/svg">
<path fill-rule="evenodd" clip-rule="evenodd" d="M12 2.25C6.61522 2.25 2.25 6.61522 2.25 12C2.25 17.3848 6.61522 21.75 12 21.75C17.3848 21.75 21.75 17.3848 21.75 12C21.75 6.61522 17.3848 2.25 12 2.25ZM12.5304 8.96967C12.2375 8.67678 11.7626 8.67678 11.4697 8.96967L7.96969 12.4697C7.75519 12.6842 7.69103 13.0068 7.80711 13.287C7.9232 13.5673 8.19668 13.75 8.50002 13.75H15.5C15.8034 13.75 16.0768 13.5673 16.1929 13.287C16.309 13.0068 16.2449 12.6842 16.0304 12.4697L12.5304 8.96967Z" fill="#23262A"/>
</svg>
