<svg width="24" height="24" viewBox="0 0 24 24" fill="none" xmlns="http://www.w3.org/2000/svg">
<path fill-rule="evenodd" clip-rule="evenodd" d="M12.5304 4.46967C12.2375 4.17678 11.7626 4.17678 11.4697 4.46967L7.96969 7.96967C7.75519 8.18417 7.69103 8.50676 7.80711 8.78701C7.9232 9.06727 8.19668 9.25 8.50002 9.25H15.5C15.8034 9.25 16.0768 9.06727 16.1929 8.78701C16.309 8.50676 16.2449 8.18417 16.0304 7.96967L12.5304 4.46967ZM12 6.06066L13.6894 7.75H10.3107L12 6.06066ZM8.50002 14.75C8.19668 14.75 7.9232 14.9327 7.80711 15.213C7.69103 15.4932 7.75519 15.8158 7.96969 16.0303L11.4697 19.5303C11.7626 19.8232 12.2375 19.8232 12.5304 19.5303L16.0304 16.0303C16.2449 15.8158 16.309 15.4932 16.1929 15.213C16.0768 14.9327 15.8034 14.75 15.5 14.75H8.50002ZM12 17.9393L10.3107 16.25H13.6894L12 17.9393Z" fill="#262626"/>
</svg>
