<svg width="24" height="24" viewBox="0 0 24 24" fill="none" xmlns="http://www.w3.org/2000/svg">
<path fill-rule="evenodd" clip-rule="evenodd" d="M8 5.25C7.13442 5.25 6.31935 5.65753 5.8 6.35L3.7 9.15C3.69088 9.16216 3.66104 9.19476 3.56359 9.2519C3.51555 9.28007 3.46123 9.30856 3.39128 9.34426L3.35866 9.36087L3.35863 9.36089C3.29963 9.39089 3.22859 9.42702 3.16038 9.46436C2.6195 9.76045 2.25 10.3365 2.25 11V14C2.25 14.782 2.76289 15.4442 3.47063 15.6685C3.61519 15.7143 3.75004 15.5967 3.76306 15.4456C3.91733 13.6551 5.41957 12.25 7.25 12.25C9.09893 12.25 10.613 13.6837 10.7412 15.5C10.7509 15.6377 10.8619 15.75 11 15.75H13.5C13.6381 15.75 13.7491 15.6377 13.7588 15.5C13.887 13.6837 15.4011 12.25 17.25 12.25C18.9179 12.25 20.3134 13.4167 20.6647 14.9786C20.7017 15.143 20.8796 15.2417 21.0168 15.1437C21.4665 14.8225 21.75 14.2976 21.75 13.7192V12.193C21.75 11.4635 21.2975 10.8106 20.6145 10.5544L17.5369 9.40034C17.4923 9.38359 17.4533 9.35442 17.4247 9.31626L15.2 6.35C14.6806 5.65753 13.8656 5.25 13 5.25H8ZM6.99997 7.25C7.23603 6.93524 7.60652 6.75 7.99997 6.75H8.49997C8.63804 6.75 8.74997 6.86193 8.74997 7V9C8.74997 9.13807 8.63804 9.25 8.49997 9.25H5.99997C5.79395 9.25 5.67636 9.01481 5.79997 8.85L6.99997 7.25ZM10.5 6.75C10.3619 6.75 10.25 6.86193 10.25 7V9C10.25 9.13807 10.3619 9.25 10.5 9.25H15C15.206 9.25 15.3236 9.01481 15.2 8.85L14 7.25C13.7639 6.93524 13.3934 6.75 13 6.75H10.5ZM4.75 15.75C4.75 14.3693 5.86929 13.25 7.25 13.25C8.63071 13.25 9.75 14.3693 9.75 15.75C9.75 17.1307 8.63071 18.25 7.25 18.25C5.86929 18.25 4.75 17.1307 4.75 15.75ZM14.75 15.75C14.75 14.3693 15.8693 13.25 17.25 13.25C18.6307 13.25 19.75 14.3693 19.75 15.75C19.75 17.1307 18.6307 18.25 17.25 18.25C15.8693 18.25 14.75 17.1307 14.75 15.75Z" fill="#23262A"/>
</svg>
