<svg width="24" height="24" viewBox="0 0 24 24" fill="none" xmlns="http://www.w3.org/2000/svg">
<path d="M21 6.25C21.4142 6.25 21.75 6.58579 21.75 7C21.75 7.41421 21.4142 7.75 21 7.75H16.4228L18.7343 18.8467C18.8188 19.2521 18.5586 19.6498 18.1533 19.7344C17.7479 19.8188 17.3502 19.5586 17.2656 19.1533L15.5 10.6787L13.7343 19.1533C13.6497 19.5586 13.252 19.8188 12.8466 19.7344C12.4414 19.6497 12.1812 19.252 12.2656 18.8467L14.5771 7.75H9.99997C9.58581 7.74994 9.24997 7.41417 9.24997 7C9.24997 6.58583 9.58581 6.25006 9.99997 6.25H21ZM2.99997 4.25C3.41418 4.25 3.74997 4.58579 3.74997 5V11C3.74997 11.6903 4.30967 12.2499 4.99997 12.25H9.99997C10.4142 12.25 10.75 12.5858 10.75 13C10.75 13.4142 10.4142 13.75 9.99997 13.75H8.95993L10.2275 18.8184C10.3278 19.2201 10.0834 19.6271 9.68161 19.7275C9.27987 19.8278 8.87286 19.5834 8.77243 19.1816L7.41501 13.75H5.08493L3.72751 19.1816C3.62705 19.5834 3.22009 19.8278 2.81833 19.7275C2.41663 19.6271 2.17215 19.2201 2.27243 18.8184L3.63083 13.3818C2.80654 12.9069 2.24997 12.0196 2.24997 11V5C2.24997 4.58583 2.58581 4.25006 2.99997 4.25Z" fill="#202733"/>
</svg>
