<svg width="24" height="24" viewBox="0 0 24 24" fill="none" xmlns="http://www.w3.org/2000/svg">
<path fill-rule="evenodd" clip-rule="evenodd" d="M9.5 3.25C8.25736 3.25 7.25 4.25736 7.25 5.5C7.25 6.74264 8.25736 7.75 9.5 7.75C10.7426 7.75 11.75 6.74264 11.75 5.5C11.75 4.25736 10.7426 3.25 9.5 3.25ZM6.00001 7.75C5.6673 7.75 5.37436 7.96919 5.28048 8.28838L2.78048 16.7884C2.71379 17.0151 2.75789 17.2601 2.8995 17.4493C3.0411 17.6386 3.26364 17.75 3.50001 17.75H5.25V20.5C5.25 20.9142 5.58579 21.25 6 21.25C6.41421 21.25 6.75 20.9142 6.75 20.5V17.75H8.25V20.5C8.25 20.9142 8.58579 21.25 9 21.25C9.41421 21.25 9.75 20.9142 9.75 20.5V17.75H11.5C11.7364 17.75 11.9589 17.6386 12.1005 17.4493C12.2421 17.2601 12.2862 17.0151 12.2195 16.7884L10.5906 11.25H12.5C12.9142 11.25 13.25 10.9142 13.25 10.5C13.25 10.0858 12.9142 9.75 12.5 9.75H10.0722C9.43305 8.53771 8.16563 7.75 6.75529 7.75H6.00001ZM14 15.25C13.5858 15.25 13.25 15.5858 13.25 16C13.25 16.4142 13.5858 16.75 14 16.75H20C20.4142 16.75 20.75 16.4142 20.75 16C20.75 15.5858 20.4142 15.25 20 15.25H14ZM17 11.25C17.4142 11.25 17.75 11.5858 17.75 12V14C17.75 14.4142 17.4142 14.75 17 14.75H15C14.6772 14.75 14.3906 14.5434 14.2885 14.2372L13.9594 13.25H13.5C13.0858 13.25 12.75 12.9142 12.75 12.5C12.75 12.0858 13.0858 11.75 13.5 11.75H14.5C14.8228 11.75 15.1094 11.9566 15.2115 12.2628L15.5406 13.25H16.25V12C16.25 11.5858 16.5858 11.25 17 11.25ZM19.5 12.25C18.8096 12.25 18.25 12.8096 18.25 13.5C18.25 14.1904 18.8096 14.75 19.5 14.75C20.1904 14.75 20.75 14.1904 20.75 13.5C20.75 12.8096 20.1904 12.25 19.5 12.25Z" fill="#23262A"/>
</svg>
