<svg width="24" height="24" viewBox="0 0 24 24" fill="none" xmlns="http://www.w3.org/2000/svg">
<path fill-rule="evenodd" clip-rule="evenodd" d="M9.5 4.75C9.08579 4.75 8.75 5.08579 8.75 5.5C8.75 5.91421 9.08579 6.25 9.5 6.25C9.91421 6.25 10.25 5.91421 10.25 5.5C10.25 5.08579 9.91421 4.75 9.5 4.75ZM7.25 5.5C7.25 4.25736 8.25736 3.25 9.5 3.25C10.7426 3.25 11.75 4.25736 11.75 5.5C11.75 6.74264 10.7426 7.75 9.5 7.75C8.25736 7.75 7.25 6.74264 7.25 5.5ZM5.28048 8.28838C5.37436 7.96919 5.6673 7.75 6.00001 7.75H6.75529C8.16563 7.75 9.43305 8.53771 10.0722 9.75H12.5C12.9142 9.75 13.25 10.0858 13.25 10.5C13.25 10.9142 12.9142 11.25 12.5 11.25H10.5906L12.2195 16.7884C12.2862 17.0151 12.2421 17.2601 12.1005 17.4493C11.9589 17.6386 11.7364 17.75 11.5 17.75H9.75001V20.5C9.75001 20.9142 9.41422 21.25 9.00001 21.25C8.58579 21.25 8.25001 20.9142 8.25001 20.5V17C8.25001 16.5858 8.58579 16.25 9.00001 16.25H10.4977L8.91387 10.8651C8.63223 9.90756 7.75341 9.25 6.75529 9.25H6.56118L4.50236 16.25H6.00001C6.41422 16.25 6.75001 16.5858 6.75001 17V20.5C6.75001 20.9142 6.41422 21.25 6.00001 21.25C5.58579 21.25 5.25001 20.9142 5.25001 20.5V17.75H3.50001C3.26364 17.75 3.0411 17.6386 2.8995 17.4493C2.75789 17.2601 2.71379 17.0151 2.78048 16.7884L5.28048 8.28838ZM13.25 16C13.25 15.5858 13.5858 15.25 14 15.25H20C20.4142 15.25 20.75 15.5858 20.75 16C20.75 16.4142 20.4142 16.75 20 16.75H14C13.5858 16.75 13.25 16.4142 13.25 16ZM17.75 12C17.75 11.5858 17.4142 11.25 17 11.25C16.5858 11.25 16.25 11.5858 16.25 12V13.25H15.5406L15.2115 12.2628C15.1094 11.9566 14.8228 11.75 14.5 11.75H13.5C13.0858 11.75 12.75 12.0858 12.75 12.5C12.75 12.9142 13.0858 13.25 13.5 13.25H13.9594L14.2885 14.2372C14.3906 14.5434 14.6772 14.75 15 14.75H17C17.4142 14.75 17.75 14.4142 17.75 14V12ZM18.25 13.5C18.25 12.8096 18.8096 12.25 19.5 12.25C20.1904 12.25 20.75 12.8096 20.75 13.5C20.75 14.1904 20.1904 14.75 19.5 14.75C18.8096 14.75 18.25 14.1904 18.25 13.5Z" fill="#23262A"/>
</svg>
