<svg width="24" height="24" viewBox="0 0 24 24" fill="none" xmlns="http://www.w3.org/2000/svg">
<path fill-rule="evenodd" clip-rule="evenodd" d="M6 3.25C4.48122 3.25 3.25 4.48122 3.25 6V20C3.25 20.2702 3.39534 20.5195 3.63048 20.6527C3.86561 20.7858 4.15417 20.7821 4.38587 20.6431L9.20774 17.75H18C19.5188 17.75 20.75 16.5188 20.75 15V6C20.75 4.48122 19.5188 3.25 18 3.25H6ZM14.5303 10.0303C14.8232 9.73744 14.8232 9.26256 14.5303 8.96967C14.2374 8.67678 13.7626 8.67678 13.4697 8.96967L11 11.4393L10.0303 10.4697C9.73744 10.1768 9.26256 10.1768 8.96967 10.4697C8.67678 10.7626 8.67678 11.2374 8.96967 11.5303L10.4697 13.0303C10.7626 13.3232 11.2374 13.3232 11.5303 13.0303L14.5303 10.0303Z" fill="#23262A"/>
</svg>
