<svg width="24" height="24" viewBox="0 0 24 24" fill="none" xmlns="http://www.w3.org/2000/svg">
<path d="M18 3.25C19.5188 3.25 20.75 4.48122 20.75 6V15C20.75 16.5188 19.5188 17.75 18 17.75H9.20801L4.38574 20.6436C4.15415 20.7824 3.86586 20.7853 3.63086 20.6523C3.39573 20.5192 3.25 20.2702 3.25 20V6C3.25 4.48122 4.48122 3.25 6 3.25H18ZM6 4.75C5.30964 4.75 4.75 5.30964 4.75 6V18.6758L8.61426 16.3564C8.73075 16.2866 8.86418 16.25 9 16.25H18C18.6904 16.25 19.25 15.6904 19.25 15V6C19.25 5.30964 18.6904 4.75 18 4.75H6Z" fill="#202733"/>
<path d="M11.9951 6.5C12.4093 6.5 12.7451 6.83579 12.7451 7.25V9.74512H15.25C15.6642 9.74512 16 10.0809 16 10.4951C15.9999 10.9093 15.6642 11.2451 15.25 11.2451H12.7451V13.75C12.7451 14.1642 12.4093 14.5 11.9951 14.5C11.5809 14.5 11.2451 14.1642 11.2451 13.75V11.2451H8.75C8.33588 11.2451 8.00006 10.9092 8 10.4951C8 10.0809 8.33584 9.74518 8.75 9.74512H11.2451V7.25C11.2451 6.83579 11.5809 6.5 11.9951 6.5Z" fill="#262626"/>
</svg>
