<svg width="24" height="24" viewBox="0 0 24 24" fill="none" xmlns="http://www.w3.org/2000/svg">
<path fill-rule="evenodd" clip-rule="evenodd" d="M5 3.25C4.0335 3.25 3.25 4.0335 3.25 5V15C3.25 15.2599 3.38459 15.5013 3.6057 15.638C3.82681 15.7746 4.10292 15.7871 4.33541 15.6708L5.83669 14.9202C6.09078 14.7931 6.25128 14.5334 6.25128 14.2494V8.50088C6.25128 7.25824 7.25864 6.25088 8.50128 6.25088H17C17.4142 6.25088 17.75 5.9151 17.75 5.50088V5C17.75 4.0335 16.9665 3.25 16 3.25H5ZM7.25 9C7.25 8.0335 8.0335 7.25 9 7.25H19C19.9665 7.25 20.75 8.0335 20.75 9V20C20.75 20.2599 20.6154 20.5013 20.3943 20.638C20.1732 20.7746 19.8971 20.7871 19.6646 20.6708L15.8229 18.75H9C8.0335 18.75 7.25 17.9665 7.25 17V9ZM10.25 13C10.25 12.5858 10.5858 12.25 11 12.25H11.01C11.4242 12.25 11.76 12.5858 11.76 13C11.76 13.4142 11.4242 13.75 11.01 13.75H11C10.5858 13.75 10.25 13.4142 10.25 13ZM14 12.25C13.5858 12.25 13.25 12.5858 13.25 13C13.25 13.4142 13.5858 13.75 14 13.75H14.01C14.4242 13.75 14.76 13.4142 14.76 13C14.76 12.5858 14.4242 12.25 14.01 12.25H14ZM16.25 13C16.25 12.5858 16.5858 12.25 17 12.25H17.01C17.4242 12.25 17.76 12.5858 17.76 13C17.76 13.4142 17.4242 13.75 17.01 13.75H17C16.5858 13.75 16.25 13.4142 16.25 13Z" fill="#23262A"/>
</svg>
