<svg width="24" height="24" viewBox="0 0 24 24" fill="none" xmlns="http://www.w3.org/2000/svg">
<path fill-rule="evenodd" clip-rule="evenodd" d="M1.5 12C1.5 6.20101 6.20101 1.5 12 1.5C17.799 1.5 22.5 6.20101 22.5 12C22.5 17.799 17.799 22.5 12 22.5C6.20101 22.5 1.5 17.799 1.5 12ZM16.8582 8.12977C17.2007 8.41962 17.2434 8.93229 16.9536 9.27485L10.9953 16.3165C10.8485 16.49 10.6358 16.594 10.4088 16.6035C10.1817 16.6129 9.96114 16.5269 9.80048 16.3662L6.55048 13.1162C6.23317 12.7989 6.23317 12.2845 6.55048 11.9672C6.86778 11.6499 7.38222 11.6499 7.69952 11.9672L10.3251 14.5928L15.7131 8.22519C16.0029 7.88263 16.5156 7.83991 16.8582 8.12977Z" fill="#23262A"/>
</svg>
