<svg width="24" height="24" viewBox="0 0 24 24" fill="none" xmlns="http://www.w3.org/2000/svg">
<path fill-rule="evenodd" clip-rule="evenodd" d="M3.75 12C3.75 7.44365 7.44365 3.75 12 3.75C16.5563 3.75 20.25 7.44365 20.25 12C20.25 16.5563 16.5563 20.25 12 20.25C7.44365 20.25 3.75 16.5563 3.75 12ZM12 2.25C6.61522 2.25 2.25 6.61522 2.25 12C2.25 17.3848 6.61522 21.75 12 21.75C17.3848 21.75 21.75 17.3848 21.75 12C21.75 6.61522 17.3848 2.25 12 2.25ZM16.5725 9.48444C16.8401 9.16824 16.8007 8.695 16.4845 8.42745C16.1683 8.15989 15.695 8.19932 15.4275 8.51553L10.454 14.3933L8.03033 11.9697C7.73744 11.6768 7.26256 11.6768 6.96967 11.9697C6.67678 12.2625 6.67678 12.7374 6.96967 13.0303L9.96967 16.0303C10.118 16.1786 10.3216 16.2581 10.5312 16.2493C10.7407 16.2406 10.9371 16.1446 11.0725 15.9844L16.5725 9.48444Z" fill="#23262A"/>
</svg>
