<svg width="24" height="24" viewBox="0 0 24 24" fill="none" xmlns="http://www.w3.org/2000/svg">
<path fill-rule="evenodd" clip-rule="evenodd" d="M12 21.75C17.3848 21.75 21.75 17.3848 21.75 12C21.75 6.61522 17.3848 2.25 12 2.25C6.61522 2.25 2.25 6.61522 2.25 12C2.25 17.3848 6.61522 21.75 12 21.75ZM16.9536 9.27485C17.2434 8.93229 17.2007 8.41962 16.8582 8.12977C16.5156 7.83991 16.0029 7.88263 15.7131 8.22519L10.3251 14.5928L7.69952 11.9672C7.38222 11.6499 6.86778 11.6499 6.55048 11.9672C6.23317 12.2845 6.23317 12.7989 6.55048 13.1162L9.80048 16.3662C9.96114 16.5269 10.1817 16.6129 10.4088 16.6035C10.6358 16.594 10.8485 16.49 10.9953 16.3165L16.9536 9.27485Z" fill="#23262A"/>
</svg>
