<svg width="24" height="24" viewBox="0 0 24 24" fill="none" xmlns="http://www.w3.org/2000/svg">
<path fill-rule="evenodd" clip-rule="evenodd" d="M11.9998 3.75C10.6539 3.75 9.50074 4.37881 8.70609 5.33866L8.19216 5.00491C6.45522 3.87693 4.13274 4.37059 3.00475 6.10753C1.87677 7.84448 2.37043 10.167 4.10737 11.2949L5.46368 12.1757L6.25357 20.0746C6.29191 20.458 6.61454 20.75 6.99985 20.75H16.9998C17.3852 20.75 17.7078 20.458 17.7461 20.0746L18.5376 12.1599L19.8695 11.2949C21.6064 10.167 22.1001 7.84448 20.9721 6.10753C19.8441 4.37059 17.5217 3.87693 15.7847 5.00491L15.2784 5.33369C14.4852 4.39995 13.3839 3.75 11.9998 3.75ZM9.54973 6.74082C10.0918 5.81821 10.9802 5.25 11.9998 5.25C13.0265 5.25 13.8602 5.81134 14.4657 6.7521C14.5737 6.91981 14.7439 7.03762 14.9389 7.07948C15.1339 7.12135 15.3376 7.08382 15.5049 6.9752L16.6017 6.26292C17.6438 5.58613 19.0373 5.88232 19.7141 6.92449C20.3909 7.96666 20.0947 9.36015 19.0525 10.0369L17.4187 11.098C17.2278 11.2219 17.1035 11.4259 17.0809 11.6524L16.3211 19.25H7.67859L6.92041 11.6682C6.89776 11.4417 6.7735 11.2378 6.58261 11.1138L4.92433 10.0369C3.88216 9.36015 3.58597 7.96666 4.26276 6.92449C4.93955 5.88232 6.33304 5.58613 7.37521 6.26292L8.49462 6.98988C8.66632 7.10138 8.87614 7.13785 9.0754 7.09081C9.27465 7.04378 9.44602 6.91734 9.54973 6.74082ZM9 10.75C8.58579 10.75 8.25 11.0858 8.25 11.5C8.25 11.9142 8.58579 12.25 9 12.25H15C15.4142 12.25 15.75 11.9142 15.75 11.5C15.75 11.0858 15.4142 10.75 15 10.75H9Z" fill="#23262A"/>
</svg>
