<svg width="24" height="24" viewBox="0 0 24 24" fill="none" xmlns="http://www.w3.org/2000/svg">
<path fill-rule="evenodd" clip-rule="evenodd" d="M11.9999 3.75C10.654 3.75 9.50083 4.37881 8.70618 5.33866L8.19225 5.00491C6.45531 3.87693 4.13282 4.37059 3.00484 6.10753C1.87686 7.84448 2.37051 10.167 4.10746 11.2949L5.46377 12.1757L6.25366 20.0746C6.292 20.458 6.61462 20.75 6.99994 20.75H16.9999C17.3853 20.75 17.7079 20.458 17.7462 20.0746L18.5377 12.1599L19.8696 11.2949C21.6065 10.167 22.1002 7.84448 20.9722 6.10753C19.8442 4.37059 17.5217 3.87693 15.7848 5.00491L15.2785 5.33369C14.4853 4.39995 13.3839 3.75 11.9999 3.75ZM9 10.75C8.58579 10.75 8.25 11.0858 8.25 11.5C8.25 11.9142 8.58579 12.25 9 12.25H15C15.4142 12.25 15.75 11.9142 15.75 11.5C15.75 11.0858 15.4142 10.75 15 10.75H9Z" fill="#23262A"/>
</svg>
