<svg xmlns="http://www.w3.org/2000/svg" width="24" height="24" viewBox="0 0 24 24" fill="none">
<path fill-rule="evenodd" clip-rule="evenodd" d="M21.75 12C21.75 17.3848 17.3848 21.75 12 21.75C6.61522 21.75 2.25 17.3848 2.25 12C2.25 6.61522 6.61522 2.25 12 2.25C17.3848 2.25 21.75 6.61522 21.75 12ZM16.2803 16.2803C15.9874 16.5732 15.5126 16.5732 15.2197 16.2803L11.428 12.4887C11.1351 12.1958 11.1351 11.7209 11.428 11.428L15.2197 7.63634C15.5126 7.34344 15.9874 7.34344 16.2803 7.63634C16.5732 7.92923 16.5732 8.4041 16.2803 8.697L13.019 11.9583L16.2803 15.2197C16.5732 15.5126 16.5732 15.9874 16.2803 16.2803ZM9.75 8.25C9.75 7.83579 9.41421 7.5 9 7.5C8.58579 7.5 8.25 7.83579 8.25 8.25V15.8333C8.25 16.2475 8.58579 16.5833 9 16.5833C9.41421 16.5833 9.75 16.2475 9.75 15.8333V8.25Z" fill="#23262A"/>
</svg>