<svg width="24" height="24" viewBox="0 0 24 24" fill="none" xmlns="http://www.w3.org/2000/svg">
<path fill-rule="evenodd" clip-rule="evenodd" d="M8.53033 5.96967C8.23744 5.67678 7.76256 5.67678 7.46967 5.96967C7.17678 6.26256 7.17678 6.73744 7.46967 7.03033L12.4393 12L7.46967 16.9697C7.17678 17.2626 7.17678 17.7374 7.46967 18.0303C7.76256 18.3232 8.23744 18.3232 8.53033 18.0303L14.0303 12.5303C14.3232 12.2374 14.3232 11.7626 14.0303 11.4697L8.53033 5.96967ZM12.5303 5.96967C12.2374 5.67678 11.7626 5.67678 11.4697 5.96967C11.1768 6.26256 11.1768 6.73744 11.4697 7.03033L16.4393 12L11.4697 16.9697C11.1768 17.2626 11.1768 17.7374 11.4697 18.0303C11.7626 18.3232 12.2374 18.3232 12.5303 18.0303L18.0303 12.5303C18.3232 12.2374 18.3232 11.7626 18.0303 11.4697L12.5303 5.96967Z" fill="#23262A"/>
</svg>
