<svg width="24" height="24" viewBox="0 0 24 24" fill="none" xmlns="http://www.w3.org/2000/svg">
<path fill-rule="evenodd" clip-rule="evenodd" d="M2.25 12C2.25 6.61522 6.61522 2.25 12 2.25C17.3848 2.25 21.75 6.61522 21.75 12C21.75 17.3848 17.3848 21.75 12 21.75C6.61522 21.75 2.25 17.3848 2.25 12ZM7.71967 7.71967C8.01256 7.42678 8.48744 7.42678 8.78033 7.71967L12.572 11.5113C12.8649 11.8042 12.8649 12.2791 12.572 12.572L8.78033 16.3637C8.48744 16.6566 8.01256 16.6566 7.71967 16.3637C7.42678 16.0708 7.42678 15.5959 7.71967 15.303L10.981 12.0417L7.71967 8.78033C7.42678 8.48744 7.42678 8.01256 7.71967 7.71967ZM15.75 8.25C15.75 7.83579 15.4142 7.5 15 7.5C14.5858 7.5 14.25 7.83579 14.25 8.25V15.8333C14.25 16.2475 14.5858 16.5833 15 16.5833C15.4142 16.5833 15.75 16.2475 15.75 15.8333V8.25Z" fill="#23262A"/>
</svg>
