<svg width="24" height="24" viewBox="0 0 24 24" fill="none" xmlns="http://www.w3.org/2000/svg">
<path fill-rule="evenodd" clip-rule="evenodd" d="M12 2.25C6.61522 2.25 2.25 6.61522 2.25 12C2.25 17.3848 6.61522 21.75 12 21.75C17.3848 21.75 21.75 17.3848 21.75 12C21.75 6.61522 17.3848 2.25 12 2.25ZM16.0303 11.5303L12.5303 15.0303C12.2374 15.3232 11.7626 15.3232 11.4697 15.0303L7.96967 11.5303C7.67678 11.2374 7.67678 10.7626 7.96967 10.4697C8.26256 10.1768 8.73744 10.1768 9.03033 10.4697L12 13.4393L14.9697 10.4697C15.2626 10.1768 15.7374 10.1768 16.0303 10.4697C16.3232 10.7626 16.3232 11.2374 16.0303 11.5303Z" fill="#23262A"/>
</svg>
