<svg width="24" height="24" viewBox="0 0 24 24" fill="none" xmlns="http://www.w3.org/2000/svg">
<path fill-rule="evenodd" clip-rule="evenodd" d="M9.03033 4.46967C8.73744 4.17678 8.26256 4.17678 7.96967 4.46967C7.67678 4.76256 7.67678 5.23744 7.96967 5.53033L11.4697 9.03033C11.7626 9.32322 12.2374 9.32322 12.5303 9.03033L16.0303 5.53033C16.3232 5.23744 16.3232 4.76256 16.0303 4.46967C15.7374 4.17678 15.2626 4.17678 14.9697 4.46967L12 7.43934L9.03033 4.46967ZM16.0303 18.4697L12.5303 14.9697C12.2374 14.6768 11.7626 14.6768 11.4697 14.9697L7.96967 18.4697C7.67678 18.7626 7.67678 19.2374 7.96967 19.5303C8.26256 19.8232 8.73744 19.8232 9.03033 19.5303L12 16.5607L14.9697 19.5303C15.2626 19.8232 15.7374 19.8232 16.0303 19.5303C16.3232 19.2374 16.3232 18.7626 16.0303 18.4697Z" fill="#23262A"/>
</svg>
