<svg width="24" height="24" viewBox="0 0 24 24" fill="none" xmlns="http://www.w3.org/2000/svg">
<path fill-rule="evenodd" clip-rule="evenodd" d="M2.25 12C2.25 6.61522 6.61522 2.25 12 2.25C17.3848 2.25 21.75 6.61522 21.75 12C21.75 17.3848 17.3848 21.75 12 21.75C6.61522 21.75 2.25 17.3848 2.25 12ZM12.5303 10.9697L16.0303 14.4697C16.3232 14.7626 16.3232 15.2374 16.0303 15.5303C15.7374 15.8232 15.2626 15.8232 14.9697 15.5303L12 12.5607L9.03033 15.5303C8.73744 15.8232 8.26256 15.8232 7.96967 15.5303C7.67678 15.2374 7.67678 14.7626 7.96967 14.4697L11.4697 10.9697C11.7626 10.6768 12.2374 10.6768 12.5303 10.9697ZM12.5303 6.96967C12.2374 6.67678 11.7626 6.67678 11.4697 6.96967L7.96967 10.4697C7.67678 10.7626 7.67678 11.2374 7.96967 11.5303C8.26256 11.8232 8.73744 11.8232 9.03033 11.5303L12 8.56066L14.9697 11.5303C15.2626 11.8232 15.7374 11.8232 16.0303 11.5303C16.3232 11.2374 16.3232 10.7626 16.0303 10.4697L12.5303 6.96967Z" fill="#23262A"/>
</svg>
