<svg width="24" height="24" viewBox="0 0 24 24" fill="none" xmlns="http://www.w3.org/2000/svg">
<path fill-rule="evenodd" clip-rule="evenodd" d="M12.5303 4.46967C12.2374 4.17678 11.7626 4.17678 11.4697 4.46967L7.96967 7.96967C7.67678 8.26256 7.67678 8.73744 7.96967 9.03033C8.26256 9.32322 8.73744 9.32322 9.03033 9.03033L12 6.06066L14.9697 9.03033C15.2626 9.32322 15.7374 9.32322 16.0303 9.03033C16.3232 8.73744 16.3232 8.26256 16.0303 7.96967L12.5303 4.46967ZM9.03033 14.9697C8.73744 14.6768 8.26256 14.6768 7.96967 14.9697C7.67678 15.2626 7.67678 15.7374 7.96967 16.0303L11.4697 19.5303C11.7626 19.8232 12.2374 19.8232 12.5303 19.5303L16.0303 16.0303C16.3232 15.7374 16.3232 15.2626 16.0303 14.9697C15.7374 14.6768 15.2626 14.6768 14.9697 14.9697L12 17.9393L9.03033 14.9697Z" fill="#23262A"/>
</svg>
