<svg width="24" height="24" viewBox="0 0 24 24" fill="none" xmlns="http://www.w3.org/2000/svg">
<path fill-rule="evenodd" clip-rule="evenodd" d="M2.25 12C2.25 6.61522 6.61522 2.25 12 2.25C17.3848 2.25 21.75 6.61522 21.75 12C21.75 17.3848 17.3848 21.75 12 21.75C6.61522 21.75 2.25 17.3848 2.25 12ZM12.5303 13.0303L16.0303 9.53033C16.3232 9.23744 16.3232 8.76256 16.0303 8.46967C15.7374 8.17678 15.2626 8.17678 14.9697 8.46967L12 11.4393L9.03033 8.46967C8.73744 8.17678 8.26256 8.17678 7.96967 8.46967C7.67678 8.76256 7.67678 9.23744 7.96967 9.53033L11.4697 13.0303C11.7626 13.3232 12.2374 13.3232 12.5303 13.0303ZM16.0303 13.5303L12.5303 17.0303C12.2374 17.3232 11.7626 17.3232 11.4697 17.0303L7.96967 13.5303C7.67678 13.2374 7.67678 12.7626 7.96967 12.4697C8.26256 12.1768 8.73744 12.1768 9.03033 12.4697L12 15.4393L14.9697 12.4697C15.2626 12.1768 15.7374 12.1768 16.0303 12.4697C16.3232 12.7626 16.3232 13.2374 16.0303 13.5303Z" fill="#23262A"/>
</svg>
