<svg width="24" height="24" viewBox="0 0 24 24" fill="none" xmlns="http://www.w3.org/2000/svg">
<path fill-rule="evenodd" clip-rule="evenodd" d="M12 3.75C7.44365 3.75 3.75 7.44365 3.75 12C3.75 16.5563 7.44365 20.25 12 20.25C16.5563 20.25 20.25 16.5563 20.25 12C20.25 7.44365 16.5563 3.75 12 3.75ZM2.25 12C2.25 6.61522 6.61522 2.25 12 2.25C17.3848 2.25 21.75 6.61522 21.75 12C21.75 17.3848 17.3848 21.75 12 21.75C6.61522 21.75 2.25 17.3848 2.25 12ZM8.46967 7.96967C8.17678 8.26256 8.17678 8.73744 8.46967 9.03033L11.4393 12L8.46967 14.9697C8.17678 15.2626 8.17678 15.7374 8.46967 16.0303C8.76256 16.3232 9.23744 16.3232 9.53033 16.0303L13.0303 12.5303C13.3232 12.2374 13.3232 11.7626 13.0303 11.4697L9.53033 7.96967C9.23744 7.67678 8.76256 7.67678 8.46967 7.96967ZM12.4697 9.03033C12.1768 8.73744 12.1768 8.26256 12.4697 7.96967C12.7626 7.67678 13.2374 7.67678 13.5303 7.96967L17.0303 11.4697C17.3232 11.7626 17.3232 12.2374 17.0303 12.5303L13.5303 16.0303C13.2374 16.3232 12.7626 16.3232 12.4697 16.0303C12.1768 15.7374 12.1768 15.2626 12.4697 14.9697L15.4393 12L12.4697 9.03033Z" fill="#23262A"/>
</svg>
