<svg width="24" height="24" viewBox="0 0 24 24" fill="none" xmlns="http://www.w3.org/2000/svg">
<path fill-rule="evenodd" clip-rule="evenodd" d="M18 6.25C18 5.83579 17.6642 5.5 17.25 5.5C16.8358 5.5 16.5 5.83579 16.5 6.25V17.75C16.5 18.1642 16.8358 18.5 17.25 18.5C17.6642 18.5 18 18.1642 18 17.75V6.25ZM7.28033 6.21967C6.98744 5.92678 6.51256 5.92678 6.21967 6.21967C5.92678 6.51256 5.92678 6.98744 6.21967 7.28033L11.1893 12.25L6.21967 17.2197C5.92678 17.5126 5.92678 17.9874 6.21967 18.2803C6.51256 18.5732 6.98744 18.5732 7.28033 18.2803L12.7803 12.7803C13.0732 12.4874 13.0732 12.0126 12.7803 11.7197L7.28033 6.21967Z" fill="#262626"/>
</svg>
