<svg width="24" height="24" viewBox="0 0 24 24" fill="none" xmlns="http://www.w3.org/2000/svg">
<path fill-rule="evenodd" clip-rule="evenodd" d="M12 3.75C7.44365 3.75 3.75 7.44365 3.75 12C3.75 16.5563 7.44365 20.25 12 20.25C16.5563 20.25 20.25 16.5563 20.25 12C20.25 7.44365 16.5563 3.75 12 3.75ZM2.25 12C2.25 6.61522 6.61522 2.25 12 2.25C17.3848 2.25 21.75 6.61522 21.75 12C21.75 17.3848 17.3848 21.75 12 21.75C6.61522 21.75 2.25 17.3848 2.25 12ZM7.96967 7.96967C8.26256 7.67678 8.73744 7.67678 9.03033 7.96967L12.5303 11.4697C12.8232 11.7626 12.8232 12.2374 12.5303 12.5303L9.03033 16.0303C8.73744 16.3232 8.26256 16.3232 7.96967 16.0303C7.67678 15.7374 7.67678 15.2626 7.96967 14.9697L10.9393 12L7.96967 9.03033C7.67678 8.73744 7.67678 8.26256 7.96967 7.96967ZM15.75 8.54999C15.75 8.13577 15.4142 7.79999 15 7.79999C14.5858 7.79999 14.25 8.13577 14.25 8.54999V15.55C14.25 15.9642 14.5858 16.3 15 16.3C15.4142 16.3 15.75 15.9642 15.75 15.55V8.54999Z" fill="#23262A"/>
</svg>
