<svg width="24" height="24" viewBox="0 0 24 24" fill="none" xmlns="http://www.w3.org/2000/svg">
<path fill-rule="evenodd" clip-rule="evenodd" d="M12 2.25C6.61522 2.25 2.25 6.61522 2.25 12C2.25 17.3848 6.61522 21.75 12 21.75C17.3848 21.75 21.75 17.3848 21.75 12C21.75 6.61522 17.3848 2.25 12 2.25ZM11.5303 7.96967C11.2374 7.67678 10.7626 7.67678 10.4697 7.96967C10.1768 8.26256 10.1768 8.73744 10.4697 9.03033L13.4393 12L10.4697 14.9697C10.1768 15.2626 10.1768 15.7374 10.4697 16.0303C10.7626 16.3232 11.2374 16.3232 11.5303 16.0303L15.0303 12.5303C15.3232 12.2374 15.3232 11.7626 15.0303 11.4697L11.5303 7.96967Z" fill="#23262A"/>
</svg>
