<svg width="24" height="24" viewBox="0 0 24 24" fill="none" xmlns="http://www.w3.org/2000/svg">
<path fill-rule="evenodd" clip-rule="evenodd" d="M17 6.5C17 6.08579 16.6642 5.75 16.25 5.75C15.8358 5.75 15.5 6.08579 15.5 6.5V12V17.5C15.5 17.9142 15.8358 18.25 16.25 18.25C16.6642 18.25 17 17.9142 17 17.5V12V6.5ZM7.28033 5.96967C6.98744 5.67678 6.51256 5.67678 6.21967 5.96967C5.92678 6.26256 5.92678 6.73744 6.21967 7.03033L11.1893 12L6.21967 16.9697C5.92678 17.2626 5.92678 17.7374 6.21967 18.0303C6.51256 18.3232 6.98744 18.3232 7.28033 18.0303L12.7803 12.5303C13.0732 12.2374 13.0732 11.7626 12.7803 11.4697L7.28033 5.96967Z" fill="#262626"/>
</svg>
