<svg width="24" height="24" viewBox="0 0 24 24" fill="none" xmlns="http://www.w3.org/2000/svg">
<path fill-rule="evenodd" clip-rule="evenodd" d="M12 3.75C7.44365 3.75 3.75 7.44365 3.75 12C3.75 16.5563 7.44365 20.25 12 20.25C16.5563 20.25 20.25 16.5563 20.25 12C20.25 7.44365 16.5563 3.75 12 3.75ZM2.25 12C2.25 6.61522 6.61522 2.25 12 2.25C17.3848 2.25 21.75 6.61522 21.75 12C21.75 17.3848 17.3848 21.75 12 21.75C6.61522 21.75 2.25 17.3848 2.25 12ZM16.0303 16.0303C15.7374 16.3232 15.2626 16.3232 14.9697 16.0303L11.4697 12.5303C11.1768 12.2374 11.1768 11.7626 11.4697 11.4697L14.9697 7.96967C15.2626 7.67678 15.7374 7.67678 16.0303 7.96967C16.3232 8.26256 16.3232 8.73744 16.0303 9.03033L13.0607 12L16.0303 14.9697C16.3232 15.2626 16.3232 15.7374 16.0303 16.0303ZM9.75 8.5C9.75 8.08579 9.41421 7.75 9 7.75C8.58579 7.75 8.25 8.08579 8.25 8.5V15.5C8.25 15.9142 8.58579 16.25 9 16.25C9.41421 16.25 9.75 15.9142 9.75 15.5V8.5Z" fill="#23262A"/>
</svg>
