<svg width="24" height="24" viewBox="0 0 24 24" fill="none" xmlns="http://www.w3.org/2000/svg">
<path fill-rule="evenodd" clip-rule="evenodd" d="M12.5303 5.96967C12.2374 5.67678 11.7626 5.67678 11.4697 5.96967L5.96967 11.4697C5.67678 11.7626 5.67678 12.2374 5.96967 12.5303C6.26256 12.8232 6.73744 12.8232 7.03033 12.5303L12 7.56066L16.9697 12.5303C17.2626 12.8232 17.7374 12.8232 18.0303 12.5303C18.3232 12.2374 18.3232 11.7626 18.0303 11.4697L12.5303 5.96967ZM18.0303 15.4697L12.5303 9.96967C12.2374 9.67678 11.7626 9.67678 11.4697 9.96967L5.96967 15.4697C5.67678 15.7626 5.67678 16.2374 5.96967 16.5303C6.26256 16.8232 6.73744 16.8232 7.03033 16.5303L12 11.5607L16.9697 16.5303C17.2626 16.8232 17.7374 16.8232 18.0303 16.5303C18.3232 16.2374 18.3232 15.7626 18.0303 15.4697Z" fill="#23262A"/>
</svg>
