<svg width="24" height="24" viewBox="0 0 24 24" fill="none" xmlns="http://www.w3.org/2000/svg">
<path fill-rule="evenodd" clip-rule="evenodd" d="M16.5303 7.03033C16.8232 6.73744 16.8232 6.26256 16.5303 5.96967C16.2374 5.67678 15.7626 5.67678 15.4697 5.96967L9.96967 11.4697C9.82902 11.6103 9.75 11.8011 9.75 12C9.75 12.1989 9.82902 12.3897 9.96967 12.5303L15.4697 18.0303C15.7626 18.3232 16.2374 18.3232 16.5303 18.0303C16.8232 17.7374 16.8232 17.2626 16.5303 16.9697L11.5607 12L16.5303 7.03033ZM12.5303 7.03033C12.8232 6.73744 12.8232 6.26256 12.5303 5.96967C12.2374 5.67678 11.7626 5.67678 11.4697 5.96967L5.96967 11.4697C5.82902 11.6103 5.75 11.8011 5.75 12C5.75 12.1989 5.82902 12.3897 5.96967 12.5303L11.4697 18.0303C11.7626 18.3232 12.2374 18.3232 12.5303 18.0303C12.8232 17.7374 12.8232 17.2626 12.5303 16.9697L7.56066 12L12.5303 7.03033Z" fill="#23262A"/>
</svg>
