<svg width="24" height="24" viewBox="0 0 24 24" fill="none" xmlns="http://www.w3.org/2000/svg">
<path fill-rule="evenodd" clip-rule="evenodd" d="M2.25 12C2.25 6.61522 6.61522 2.25 12 2.25C17.3848 2.25 21.75 6.61522 21.75 12C21.75 17.3848 17.3848 21.75 12 21.75C6.61522 21.75 2.25 17.3848 2.25 12ZM15.5303 7.96967C15.8232 8.26256 15.8232 8.73744 15.5303 9.03033L12.5607 12L15.5303 14.9697C15.8232 15.2626 15.8232 15.7374 15.5303 16.0303C15.2374 16.3232 14.7626 16.3232 14.4697 16.0303L10.9697 12.5303C10.6768 12.2374 10.6768 11.7626 10.9697 11.4697L14.4697 7.96967C14.7626 7.67678 15.2374 7.67678 15.5303 7.96967ZM11.5303 9.03033C11.8232 8.73744 11.8232 8.26256 11.5303 7.96967C11.2374 7.67678 10.7626 7.67678 10.4697 7.96967L6.96967 11.4697C6.67678 11.7626 6.67678 12.2374 6.96967 12.5303L10.4697 16.0303C10.7626 16.3232 11.2374 16.3232 11.5303 16.0303C11.8232 15.7374 11.8232 15.2626 11.5303 14.9697L8.56066 12L11.5303 9.03033Z" fill="#23262A"/>
</svg>
