<svg width="24" height="24" viewBox="0 0 24 24" fill="none" xmlns="http://www.w3.org/2000/svg">
<path fill-rule="evenodd" clip-rule="evenodd" d="M7.03033 7.46967C6.73744 7.17678 6.26256 7.17678 5.96967 7.46967C5.67678 7.76256 5.67678 8.23744 5.96967 8.53033L11.4697 14.0303C11.7626 14.3232 12.2374 14.3232 12.5303 14.0303L18.0303 8.53033C18.3232 8.23744 18.3232 7.76256 18.0303 7.46967C17.7374 7.17678 17.2626 7.17678 16.9697 7.46967L12 12.4393L7.03033 7.46967ZM7.03033 11.4697C6.73744 11.1768 6.26256 11.1768 5.96967 11.4697C5.67678 11.7626 5.67678 12.2374 5.96967 12.5303L11.4697 18.0303C11.7626 18.3232 12.2374 18.3232 12.5303 18.0303L18.0303 12.5303C18.3232 12.2374 18.3232 11.7626 18.0303 11.4697C17.7374 11.1768 17.2626 11.1768 16.9697 11.4697L12 16.4393L7.03033 11.4697Z" fill="#23262A"/>
</svg>
