<svg width="24" height="24" viewBox="0 0 24 24" fill="none" xmlns="http://www.w3.org/2000/svg">
<path fill-rule="evenodd" clip-rule="evenodd" d="M11.8107 12L16.7803 7.03033C17.0732 6.73744 17.0732 6.26256 16.7803 5.96967C16.4874 5.67678 16.0126 5.67678 15.7197 5.96967L10.2197 11.4697C10.079 11.6103 10 11.8011 10 12C10 12.1989 10.079 12.3897 10.2197 12.5303L15.7197 18.0303C16.0126 18.3232 16.4874 18.3232 16.7803 18.0303C17.0732 17.7374 17.0732 17.2626 16.7803 16.9697L11.8107 12ZM7.5 6.5C7.5 6.08579 7.16421 5.75 6.75 5.75C6.33579 5.75 6 6.08579 6 6.5V12V17.5C6 17.9142 6.33579 18.25 6.75 18.25C7.16421 18.25 7.5 17.9142 7.5 17.5V12V6.5Z" fill="#262626"/>
</svg>
