<svg width="24" height="24" viewBox="0 0 24 24" fill="none" xmlns="http://www.w3.org/2000/svg">
<path fill-rule="evenodd" clip-rule="evenodd" d="M2.25 12C2.25 6.61522 6.61522 2.25 12 2.25C17.3848 2.25 21.75 6.61522 21.75 12C21.75 17.3848 17.3848 21.75 12 21.75C6.61522 21.75 2.25 17.3848 2.25 12ZM16.2803 16.2803C15.9874 16.5732 15.5126 16.5732 15.2197 16.2803L11.428 12.4887C11.1351 12.1958 11.1351 11.7209 11.428 11.428L15.2197 7.63633C15.5126 7.34343 15.9874 7.34343 16.2803 7.63633C16.5732 7.92922 16.5732 8.40409 16.2803 8.69699L13.019 11.9583L16.2803 15.2197C16.5732 15.5126 16.5732 15.9874 16.2803 16.2803ZM9.75001 8.24999C9.75001 7.83578 9.41422 7.49999 9.00001 7.49999C8.5858 7.49999 8.25001 7.83578 8.25001 8.24999V15.8333C8.25001 16.2475 8.5858 16.5833 9.00001 16.5833C9.41422 16.5833 9.75001 16.2475 9.75001 15.8333V8.24999Z" fill="#23262A"/>
</svg>
