<svg width="24" height="24" viewBox="0 0 24 24" fill="none" xmlns="http://www.w3.org/2000/svg">
<path fill-rule="evenodd" clip-rule="evenodd" d="M7.5 6.25C7.5 5.83579 7.16421 5.5 6.75 5.5C6.33579 5.5 6 5.83579 6 6.25V17.75C6 18.1642 6.33579 18.5 6.75 18.5C7.16421 18.5 7.5 18.1642 7.5 17.75V6.25ZM17.7803 7.03033C18.0732 6.73744 18.0732 6.26256 17.7803 5.96967C17.4874 5.67678 17.0126 5.67678 16.7197 5.96967L11.2197 11.4697C11.079 11.6103 11 11.8011 11 12C11 12.1989 11.079 12.3897 11.2197 12.5303L16.7197 18.0303C17.0126 18.3232 17.4874 18.3232 17.7803 18.0303C18.0732 17.7374 18.0732 17.2626 17.7803 16.9697L12.8107 12L17.7803 7.03033Z" fill="#262626"/>
</svg>
