<svg width="24" height="24" viewBox="0 0 24 24" fill="none" xmlns="http://www.w3.org/2000/svg">
<path fill-rule="evenodd" clip-rule="evenodd" d="M7.25 8.5C7.25 5.87665 9.37665 3.75 12 3.75C14.6234 3.75 16.75 5.87665 16.75 8.5C16.75 11.1234 14.6234 13.25 12 13.25C9.37665 13.25 7.25 11.1234 7.25 8.5ZM12 2.25C8.54822 2.25 5.75 5.04822 5.75 8.5C5.75 11.9518 8.54822 14.75 12 14.75C15.4518 14.75 18.25 11.9518 18.25 8.5C18.25 5.04822 15.4518 2.25 12 2.25ZM10.5 7.75C10.0858 7.75 9.75 8.08579 9.75 8.5C9.75 8.91421 10.0858 9.25 10.5 9.25H10.51C10.9242 9.25 11.26 8.91421 11.26 8.5C11.26 8.08579 10.9242 7.75 10.51 7.75H10.5ZM12.75 8.5C12.75 8.08579 13.0858 7.75 13.5 7.75H13.51C13.9242 7.75 14.26 8.08579 14.26 8.5C14.26 8.91421 13.9242 9.25 13.51 9.25H13.5C13.0858 9.25 12.75 8.91421 12.75 8.5ZM9.34835 18.3484C10.0516 17.6451 11.0054 17.25 12 17.25C12.9946 17.25 13.9484 17.6451 14.6516 18.3483C15.3549 19.0516 15.75 20.0054 15.75 21C15.75 21.4142 16.0858 21.75 16.5 21.75C16.9142 21.75 17.25 21.4142 17.25 21C17.25 19.6076 16.6969 18.2723 15.7123 17.2877C14.7277 16.3031 13.3924 15.75 12 15.75C10.6076 15.75 9.27226 16.3031 8.28769 17.2877C7.30312 18.2723 6.75 19.6076 6.75 21C6.75 21.4142 7.08579 21.75 7.5 21.75C7.91421 21.75 8.25 21.4142 8.25 21C8.25 20.0054 8.64509 19.0516 9.34835 18.3484Z" fill="#23262A"/>
</svg>
