<svg width="24" height="24" viewBox="0 0 24 24" fill="none" xmlns="http://www.w3.org/2000/svg">
<path fill-rule="evenodd" clip-rule="evenodd" d="M14.7365 4.51074C14.9187 4.01666 14.9409 3.43431 14.7577 2.88768C16.8265 3.90652 18.25 6.036 18.25 8.49796C18.25 11.9497 15.4518 14.748 12 14.748C8.54822 14.748 5.75 11.9497 5.75 8.49796C5.75 5.62729 7.68536 3.20864 10.3225 2.47564L10.3228 2.4771C11.98 2.10394 12.8426 2.42231 13.2398 2.78233C13.6388 3.14395 13.7136 3.67177 13.5637 4.07821C13.3388 4.68809 12.3735 5.11262 11.4336 4.29706C11.1728 4.07085 10.7781 4.09882 10.5519 4.35954C10.3257 4.62027 10.3537 5.015 10.6144 5.24122C12.0712 6.50522 14.1463 6.11119 14.7365 4.51074ZM10.5 8.74796C10.0858 8.74796 9.75 9.08374 9.75 9.49796C9.75 9.91217 10.0858 10.248 10.5 10.248H10.51C10.9242 10.248 11.26 9.91217 11.26 9.49796C11.26 9.08374 10.9242 8.74796 10.51 8.74796H10.5ZM12.75 9.49796C12.75 9.08374 13.0858 8.74796 13.5 8.74796H13.51C13.9242 8.74796 14.26 9.08374 14.26 9.49796C14.26 9.91217 13.9242 10.248 13.51 10.248H13.5C13.0858 10.248 12.75 9.91217 12.75 9.49796ZM12 15.748C10.6076 15.748 9.27226 16.3011 8.28769 17.2856C7.30312 18.2702 6.75 19.6056 6.75 20.998C6.75 21.1969 6.82902 21.3876 6.96967 21.5283C7.11032 21.6689 7.30109 21.748 7.5 21.748L16.5 21.748C16.6989 21.748 16.8897 21.6689 17.0303 21.5283C17.171 21.3876 17.25 21.1969 17.25 20.998C17.25 19.6056 16.6969 18.2702 15.7123 17.2856C14.7277 16.3011 13.3924 15.748 12 15.748Z" fill="#23262A"/>
</svg>
