<svg width="24" height="24" viewBox="0 0 24 24" fill="none" xmlns="http://www.w3.org/2000/svg">
<path fill-rule="evenodd" clip-rule="evenodd" d="M18.25 2.5C18.25 2.08579 17.9142 1.75 17.5 1.75C17.0858 1.75 16.75 2.08579 16.75 2.5V3.38197C16.75 4.35125 17.2976 5.23734 18.1646 5.67082C18.5234 5.85021 18.75 6.21691 18.75 6.61803V7.5C18.75 7.91421 19.0858 8.25 19.5 8.25C19.9142 8.25 20.25 7.91421 20.25 7.5V6.61803C20.25 5.64875 19.7024 4.76266 18.8354 4.32918C18.4766 4.14979 18.25 3.78309 18.25 3.38197V2.5ZM17 9.25C17.1381 9.25 17.25 9.36193 17.25 9.5V14.5C17.25 14.6381 17.1381 14.75 17 14.75H3.01562C2.60141 14.75 2.26562 14.4142 2.26562 14V10C2.26562 9.58579 2.60141 9.25 3.01562 9.25H17ZM19 14.75C18.8619 14.75 18.75 14.6381 18.75 14.5V9.5C18.75 9.36193 18.8619 9.25 19 9.25H19.9998C20.9663 9.25 21.7498 10.0335 21.7498 11V13C21.7498 13.9665 20.9663 14.75 19.9998 14.75H19Z" fill="#23262A"/>
</svg>
