<svg width="24" height="24" viewBox="0 0 24 24" fill="none" xmlns="http://www.w3.org/2000/svg">
<path fill-rule="evenodd" clip-rule="evenodd" d="M12 2.25C6.61522 2.25 2.25 6.61522 2.25 12C2.25 17.3848 6.61522 21.75 12 21.75C14.6841 21.75 17.1149 20.6654 18.878 18.9105C18.8765 18.9119 18.8751 18.9133 18.8736 18.9146L18.9153 18.873C18.9139 18.8744 18.9125 18.8759 18.9111 18.8774C20.6656 17.1143 21.75 14.6838 21.75 12C21.75 6.61522 17.3848 2.25 12 2.25ZM18.1786 17.1174C18.27 17.2088 18.277 17.3552 18.1915 17.4522C17.961 17.7137 17.7143 17.9605 17.4528 18.1909C17.3558 18.2765 17.2094 18.2695 17.118 18.1781L5.82163 6.88172C5.73018 6.79028 5.72327 6.6439 5.80878 6.54689C6.03926 6.28543 6.28604 6.03869 6.54754 5.80825C6.64455 5.72276 6.79091 5.72968 6.88234 5.82112L18.1786 17.1174Z" fill="#23262A"/>
</svg>
