<svg width="24" height="24" viewBox="0 0 24 24" fill="none" xmlns="http://www.w3.org/2000/svg">
<path fill-rule="evenodd" clip-rule="evenodd" d="M5.09785 5.11357C3.33807 6.87735 2.25 9.31161 2.25 12C2.25 17.3848 6.61522 21.75 12 21.75C17.3848 21.75 21.75 17.3848 21.75 12C21.75 6.61522 17.3848 2.25 12 2.25C9.31161 2.25 6.87735 3.33807 5.11357 5.09785L5.10566 5.10566L5.09785 5.11357ZM6.72071 5.66005C8.15133 4.46747 9.99188 3.75 12 3.75C16.5563 3.75 20.25 7.44365 20.25 12C20.25 14.0081 19.5325 15.8487 18.34 17.2793L6.72071 5.66005ZM5.66005 6.72071L17.2793 18.34C15.8487 19.5325 14.0081 20.25 12 20.25C7.44365 20.25 3.75 16.5563 3.75 12C3.75 9.99188 4.46747 8.15133 5.66005 6.72071Z" fill="#23262A"/>
</svg>
