<svg width="24" height="24" viewBox="0 0 24 24" fill="none" xmlns="http://www.w3.org/2000/svg">
<path fill-rule="evenodd" clip-rule="evenodd" d="M9.5 2.25C9.08579 2.25 8.75 2.58579 8.75 3V5.5C8.75 5.91421 9.08579 6.25 9.5 6.25H14.5C14.9142 6.25 15.25 5.91421 15.25 5.5V3C15.25 2.58579 14.9142 2.25 14.5 2.25H9.5ZM7.5 4.25H6C5.58579 4.25 5.25 4.58579 5.25 5V21C5.25 21.4142 5.58579 21.75 6 21.75H18C18.4142 21.75 18.75 21.4142 18.75 21V5C18.75 4.58579 18.4142 4.25 18 4.25H16.5C16.3619 4.25 16.25 4.36193 16.25 4.5V6.5C16.25 6.91421 15.9142 7.25 15.5 7.25H8.5C8.08579 7.25 7.75 6.91421 7.75 6.5V4.5C7.75 4.36193 7.63807 4.25 7.5 4.25ZM8.25 11C8.25 10.5858 8.58579 10.25 9 10.25H15C15.4142 10.25 15.75 10.5858 15.75 11C15.75 11.4142 15.4142 11.75 15 11.75H9C8.58579 11.75 8.25 11.4142 8.25 11ZM9 13.25C8.58579 13.25 8.25 13.5858 8.25 14C8.25 14.4142 8.58579 14.75 9 14.75H15C15.4142 14.75 15.75 14.4142 15.75 14C15.75 13.5858 15.4142 13.25 15 13.25H9ZM8.25 17C8.25 16.5858 8.58579 16.25 9 16.25H13C13.4142 16.25 13.75 16.5858 13.75 17C13.75 17.4142 13.4142 17.75 13 17.75H9C8.58579 17.75 8.25 17.4142 8.25 17Z" fill="#23262A"/>
</svg>
