<svg width="24" height="24" viewBox="0 0 24 24" fill="none" xmlns="http://www.w3.org/2000/svg">
<path fill-rule="evenodd" clip-rule="evenodd" d="M9.5 2.25C9.08579 2.25 8.75 2.58579 8.75 3V5.5C8.75 5.91421 9.08579 6.25 9.5 6.25H14.5C14.9142 6.25 15.25 5.91421 15.25 5.5V3C15.25 2.58579 14.9142 2.25 14.5 2.25H9.5ZM7.5 4.25H6C5.58579 4.25 5.25 4.58579 5.25 5V21C5.25 21.4142 5.58579 21.75 6 21.75H18C18.4142 21.75 18.75 21.4142 18.75 21V5C18.75 4.58579 18.4142 4.25 18 4.25H16.5C16.3619 4.25 16.25 4.36193 16.25 4.5V6.5C16.25 6.91421 15.9142 7.25 15.5 7.25H8.5C8.08579 7.25 7.75 6.91421 7.75 6.5V4.5C7.75 4.36193 7.63807 4.25 7.5 4.25ZM14.0303 11.9697C14.3232 12.2626 14.3232 12.7374 14.0303 13.0303L13.2374 13.8232C13.1398 13.9209 13.1398 14.0791 13.2374 14.1768L14.0303 14.9697C14.3232 15.2626 14.3232 15.7374 14.0303 16.0303C13.7374 16.3232 13.2626 16.3232 12.9697 16.0303L12.1768 15.2374C12.0791 15.1398 11.9209 15.1398 11.8232 15.2374L11.0303 16.0303C10.7374 16.3232 10.2626 16.3232 9.96967 16.0303C9.67678 15.7374 9.67678 15.2626 9.96967 14.9697L10.7626 14.1768C10.8602 14.0791 10.8602 13.9209 10.7626 13.8232L9.96967 13.0303C9.67678 12.7374 9.67678 12.2626 9.96967 11.9697C10.2626 11.6768 10.7374 11.6768 11.0303 11.9697L11.8232 12.7626C11.9209 12.8602 12.0791 12.8602 12.1768 12.7626L12.9697 11.9697C13.2626 11.6768 13.7374 11.6768 14.0303 11.9697Z" fill="#23262A"/>
</svg>
