<svg width="24" height="24" viewBox="0 0 24 24" fill="none" xmlns="http://www.w3.org/2000/svg">
<path fill-rule="evenodd" clip-rule="evenodd" d="M8.25 3C8.25 2.58579 8.58579 2.25 9 2.25H15C15.4142 2.25 15.75 2.58579 15.75 3V4.25H18C18.4142 4.25 18.75 4.58579 18.75 5V21C18.75 21.4142 18.4142 21.75 18 21.75H6C5.58579 21.75 5.25 21.4142 5.25 21V5C5.25 4.58579 5.58579 4.25 6 4.25H8.25V3ZM15.75 6C15.75 6.41421 15.4142 6.75 15 6.75H9C8.58579 6.75 8.25 6.41421 8.25 6V5.75H6.75V20.25H17.25V5.75H15.75V6ZM14.25 5.25H9.75V3.75H14.25V5.25ZM9 9.25C8.58579 9.25 8.25 9.58579 8.25 10C8.25 10.4142 8.58579 10.75 9 10.75H15C15.4142 10.75 15.75 10.4142 15.75 10C15.75 9.58579 15.4142 9.25 15 9.25H9ZM9 12.25C8.58579 12.25 8.25 12.5858 8.25 13C8.25 13.4142 8.58579 13.75 9 13.75H15C15.4142 13.75 15.75 13.4142 15.75 13C15.75 12.5858 15.4142 12.25 15 12.25H9ZM8.25 16C8.25 15.5858 8.58579 15.25 9 15.25H13C13.4142 15.25 13.75 15.5858 13.75 16C13.75 16.4142 13.4142 16.75 13 16.75H9C8.58579 16.75 8.25 16.4142 8.25 16Z" fill="#23262A"/>
</svg>
