<svg width="24" height="24" viewBox="0 0 24 24" fill="none" xmlns="http://www.w3.org/2000/svg">
<path fill-rule="evenodd" clip-rule="evenodd" d="M8.25 3C8.25 2.58579 8.58579 2.25 9 2.25H15C15.4142 2.25 15.75 2.58579 15.75 3V4.25H18C18.4142 4.25 18.75 4.58579 18.75 5V21C18.75 21.4142 18.4142 21.75 18 21.75H6C5.58579 21.75 5.25 21.4142 5.25 21V5C5.25 4.58579 5.58579 4.25 6 4.25H8.25V3ZM15.75 6C15.75 6.41421 15.4142 6.75 15 6.75H9C8.58579 6.75 8.25 6.41421 8.25 6V5.75H6.75V20.25H17.25V5.75H15.75V6ZM14.25 5.25H9.75V3.75H14.25V5.25ZM13.7678 10.6716L13.591 10.8484C13.2981 11.1412 12.8232 11.1412 12.5303 10.8484C12.2374 10.5555 12.2374 10.0806 12.5303 9.78769L12.8839 9.43414C13.372 8.94599 14.1635 8.94598 14.6517 9.43414L16.0659 10.8484C16.554 11.3365 16.554 12.128 16.0659 12.6161L13.2374 15.4445C12.7493 15.9327 11.9578 15.9327 11.4697 15.4445L11.1161 15.091C10.8232 14.7981 10.8232 14.3232 11.1161 14.0303C11.409 13.7374 11.8839 13.7374 12.1768 14.0303L12.3536 14.2071L14.8284 11.7322L13.7678 10.6716ZM11.6442 12.7987L11.8352 12.9813C12.1345 13.2676 12.6093 13.2571 12.8956 12.9577C13.1819 12.6584 13.1713 12.1836 12.872 11.8973L12.5044 11.5458C12.0136 11.0763 11.2377 11.0847 10.7571 11.5646L7.9345 14.3835C7.44634 14.8717 7.44599 15.6635 7.93415 16.1516L9.34836 17.5659C9.83652 18.054 10.628 18.054 11.1161 17.5659L11.4697 17.2123C11.7626 16.9194 11.7626 16.4445 11.4697 16.1516C11.1768 15.8588 10.7019 15.8588 10.409 16.1516L10.2322 16.3284L9.1717 15.2679L11.6442 12.7987Z" fill="#23262A"/>
</svg>
