<svg width="24" height="24" viewBox="0 0 24 24" fill="none" xmlns="http://www.w3.org/2000/svg">
<path fill-rule="evenodd" clip-rule="evenodd" d="M9.5 2.25C9.08579 2.25 8.75 2.58579 8.75 3V5.5C8.75 5.91421 9.08579 6.25 9.5 6.25H14.5C14.9142 6.25 15.25 5.91421 15.25 5.5V3C15.25 2.58579 14.9142 2.25 14.5 2.25H9.5ZM7.5 4.25C7.63807 4.25 7.75 4.36193 7.75 4.5V6.5C7.75 6.91421 8.08579 7.25 8.5 7.25H15.5C15.9142 7.25 16.25 6.91421 16.25 6.5V4.5C16.25 4.36193 16.3619 4.25 16.5 4.25H18C18.4142 4.25 18.75 4.58579 18.75 5V21C18.75 21.4142 18.4142 21.75 18 21.75H6C5.58579 21.75 5.25 21.4142 5.25 21V5C5.25 4.58579 5.58579 4.25 6 4.25H7.5ZM13.591 10.8484C13.6886 10.7507 13.8469 10.7507 13.9445 10.8484L14.6516 11.5555C14.7493 11.6531 14.7493 11.8114 14.6516 11.909L12.5303 14.0303C12.4327 14.128 12.2744 14.128 12.1768 14.0303C11.8839 13.7374 11.409 13.7374 11.1161 14.0303C10.8232 14.3232 10.8232 14.7981 11.1161 15.091L11.4697 15.4445C11.9578 15.9327 12.7493 15.9327 13.2374 15.4445L16.0659 12.6161C16.554 12.128 16.554 11.3365 16.0659 10.8484L14.6517 9.43414C14.1635 8.94598 13.372 8.94599 12.8839 9.43414L12.5303 9.78769C12.2374 10.0806 12.2374 10.5555 12.5303 10.8484C12.8232 11.1412 13.2981 11.1412 13.591 10.8484ZM11.4697 12.9697C11.5673 12.872 11.7256 12.872 11.8232 12.9697C12.1161 13.2626 12.591 13.2626 12.8839 12.9697C13.1768 12.6768 13.1768 12.2019 12.8839 11.909L12.5303 11.5554C12.0422 11.0673 11.2507 11.0673 10.7626 11.5554L7.93414 14.3839C7.44598 14.872 7.44598 15.6635 7.93414 16.1516L9.34835 17.5659C9.83651 18.054 10.628 18.054 11.1161 17.5659L11.4697 17.2123C11.7626 16.9194 11.7626 16.4445 11.4697 16.1516C11.1768 15.8587 10.7019 15.8587 10.409 16.1516C10.3114 16.2493 10.1531 16.2493 10.0555 16.1516L9.34835 15.4445C9.25072 15.3469 9.25072 15.1886 9.34835 15.091L11.4697 12.9697Z" fill="#23262A"/>
</svg>
