<svg width="24" height="24" viewBox="0 0 24 24" fill="none" xmlns="http://www.w3.org/2000/svg">
<path fill-rule="evenodd" clip-rule="evenodd" d="M12.5304 2.46967C12.2375 2.17678 11.7626 2.17678 11.4697 2.46967L9.46969 4.46967C9.25519 4.68417 9.19103 5.00676 9.30711 5.28701C9.4232 5.56727 9.69668 5.75 10 5.75H14C14.3034 5.75 14.5768 5.56727 14.6929 5.28701C14.809 5.00676 14.7449 4.68417 14.5304 4.46967L12.5304 2.46967ZM16.0788 5.86104C15.7305 6.7018 14.9101 7.25 14.0001 7.25H10.0001C9.09003 7.25 8.26959 6.70181 7.92134 5.86104C7.57308 5.02027 7.76558 4.05251 8.40908 3.40901C8.46775 3.35033 8.4262 3.25 8.34321 3.25H6C5.58579 3.25 5.25 3.58579 5.25 4V21C5.25 21.4142 5.58579 21.75 6 21.75H18C18.4142 21.75 18.75 21.4142 18.75 21V4C18.75 3.58579 18.4142 3.25 18 3.25H15.6569C15.5739 3.25 15.5324 3.35033 15.5911 3.40901C16.2346 4.05251 16.427 5.02027 16.0788 5.86104ZM9 10.25C8.58579 10.25 8.25 10.5858 8.25 11C8.25 11.4142 8.58579 11.75 9 11.75H15C15.4142 11.75 15.75 11.4142 15.75 11C15.75 10.5858 15.4142 10.25 15 10.25H9ZM8.25 14C8.25 13.5858 8.58579 13.25 9 13.25H15C15.4142 13.25 15.75 13.5858 15.75 14C15.75 14.4142 15.4142 14.75 15 14.75H9C8.58579 14.75 8.25 14.4142 8.25 14ZM9 16.25C8.58579 16.25 8.25 16.5858 8.25 17C8.25 17.4142 8.58579 17.75 9 17.75H15C15.4142 17.75 15.75 17.4142 15.75 17C15.75 16.5858 15.4142 16.25 15 16.25H9Z" fill="#23262A"/>
</svg>
