<svg width="24" height="24" viewBox="0 0 24 24" fill="none" xmlns="http://www.w3.org/2000/svg">
<path fill-rule="evenodd" clip-rule="evenodd" d="M9.5 2.25C9.08579 2.25 8.75 2.58579 8.75 3V5.5C8.75 5.91421 9.08579 6.25 9.5 6.25H14.5C14.9142 6.25 15.25 5.91421 15.25 5.5V3C15.25 2.58579 14.9142 2.25 14.5 2.25H9.5ZM7.5 4.25H6C5.58579 4.25 5.25 4.58579 5.25 5V21C5.25 21.4142 5.58579 21.75 6 21.75H18C18.4142 21.75 18.75 21.4142 18.75 21V5C18.75 4.58579 18.4142 4.25 18 4.25H16.5C16.3619 4.25 16.25 4.36193 16.25 4.5V6.5C16.25 6.91421 15.9142 7.25 15.5 7.25H8.5C8.08579 7.25 7.75 6.91421 7.75 6.5V4.5C7.75 4.36193 7.63807 4.25 7.5 4.25ZM14.5303 11.9697C14.8232 12.2626 14.8232 12.7374 14.5303 13.0303L12.0303 15.5303C11.7374 15.8232 11.2626 15.8232 10.9697 15.5303L9.46967 14.0303C9.17678 13.7374 9.17678 13.2626 9.46967 12.9697C9.76256 12.6768 10.2374 12.6768 10.5303 12.9697L11.3232 13.7626C11.4209 13.8602 11.5791 13.8602 11.6768 13.7626L13.4697 11.9697C13.7626 11.6768 14.2374 11.6768 14.5303 11.9697Z" fill="#23262A"/>
</svg>
