<svg width="24" height="24" viewBox="0 0 24 24" fill="none" xmlns="http://www.w3.org/2000/svg">
<path fill-rule="evenodd" clip-rule="evenodd" d="M9 2.25C8.58579 2.25 8.25 2.58579 8.25 3V4.25H6C5.58579 4.25 5.25 4.58579 5.25 5V21C5.25 21.4142 5.58579 21.75 6 21.75H18C18.4142 21.75 18.75 21.4142 18.75 21V5C18.75 4.58579 18.4142 4.25 18 4.25H15.75V3C15.75 2.58579 15.4142 2.25 15 2.25H9ZM15.75 5.75H17.25V20.25H6.75V5.75H8.25V6C8.25 6.41421 8.58579 6.75 9 6.75H15C15.4142 6.75 15.75 6.41421 15.75 6V5.75ZM9.75 5V5.25H14.25V5V3.75H9.75V5ZM13.7678 10.6716L13.591 10.8484C13.2981 11.1412 12.8232 11.1412 12.5303 10.8484C12.2374 10.5555 12.2374 10.0806 12.5303 9.78769L12.8839 9.43414C13.372 8.94599 14.1635 8.94598 14.6517 9.43414L16.0659 10.8484C16.554 11.3365 16.554 12.128 16.0659 12.6161L13.2374 15.4445C12.7493 15.9327 11.9578 15.9327 11.4697 15.4445L11.1161 15.091C10.8232 14.7981 10.8232 14.3232 11.1161 14.0303C11.409 13.7374 11.8839 13.7374 12.1768 14.0303L12.3536 14.2071L14.8284 11.7322L13.7678 10.6716ZM11.8352 12.9813L11.6442 12.7987L9.17169 15.2679L10.2322 16.3284L10.409 16.1516C10.7019 15.8587 11.1768 15.8587 11.4697 16.1516C11.7626 16.4445 11.7626 16.9194 11.4697 17.2123L11.1161 17.5659C10.628 18.054 9.83651 18.054 9.34835 17.5659L7.93414 16.1516C7.44598 15.6635 7.44598 14.872 7.93414 14.3839L7.93449 14.3835L10.7571 11.5646C11.2377 11.0847 12.0136 11.0763 12.5044 11.5458L12.872 11.8973C13.1713 12.1836 13.1819 12.6584 12.8956 12.9577C12.6093 13.2571 12.1345 13.2676 11.8352 12.9813Z" fill="#23262A"/>
</svg>
