<svg width="24" height="24" viewBox="0 0 24 24" fill="none" xmlns="http://www.w3.org/2000/svg">
<path fill-rule="evenodd" clip-rule="evenodd" d="M8.25 3C8.25 2.58579 8.58579 2.25 9 2.25H15C15.4142 2.25 15.75 2.58579 15.75 3V4.25H18C18.4142 4.25 18.75 4.58579 18.75 5V21C18.75 21.4142 18.4142 21.75 18 21.75H6C5.58579 21.75 5.25 21.4142 5.25 21V5C5.25 4.58579 5.58579 4.25 6 4.25H8.25V3ZM15.75 6C15.75 6.41421 15.4142 6.75 15 6.75H9C8.58579 6.75 8.25 6.41421 8.25 6V5.75H6.75V20.25H17.25V5.75H15.75V6ZM14.25 5.25H9.75V3.75H14.25V5.25ZM14.5303 12.2803C14.8232 11.9874 14.8232 11.5126 14.5303 11.2197C14.2374 10.9268 13.7626 10.9268 13.4697 11.2197L11.5 13.1893L10.5303 12.2197C10.2374 11.9268 9.76256 11.9268 9.46967 12.2197C9.17678 12.5126 9.17678 12.9874 9.46967 13.2803L10.9697 14.7803C11.2626 15.0732 11.7374 15.0732 12.0303 14.7803L14.5303 12.2803Z" fill="#23262A"/>
</svg>
