<svg width="24" height="24" viewBox="0 0 24 24" fill="none" xmlns="http://www.w3.org/2000/svg">
<path fill-rule="evenodd" clip-rule="evenodd" d="M4.5 1.75C4.91421 1.75 5.25 2.08579 5.25 2.5V4.96437C5.99455 4.25005 6.84944 3.65686 7.78379 3.20875C9.03518 2.60859 10.4003 2.28251 11.7878 2.25231C13.1754 2.22211 14.5533 2.48848 15.8297 3.03361C17.106 3.57875 18.2512 4.39008 19.1888 5.41337C20.1264 6.43666 20.8347 7.64833 21.2664 8.96735C21.698 10.2864 21.8432 11.6824 21.692 13.062C21.5408 14.4416 21.0969 15.773 20.3898 16.9673C19.6827 18.1615 18.7289 19.191 17.592 19.987C17.2526 20.2246 16.785 20.1421 16.5474 19.8028C16.3098 19.4635 16.3923 18.9958 16.7317 18.7583C17.6937 18.0847 18.5008 17.2136 19.0991 16.2031C19.6974 15.1925 20.073 14.0659 20.2009 12.8986C20.3288 11.7312 20.206 10.55 19.8408 9.43391C19.4755 8.31781 18.8762 7.29256 18.0828 6.4267C17.2895 5.56084 16.3205 4.87432 15.2405 4.41306C14.1605 3.95179 12.9945 3.7264 11.8205 3.75195C10.6464 3.77751 9.49131 4.05343 8.43244 4.56125C7.55484 4.98214 6.76009 5.55429 6.08392 6.25H9C9.41421 6.25 9.75 6.58579 9.75 7C9.75 7.41421 9.41421 7.75 9 7.75H4.5C4.08579 7.75 3.75 7.41421 3.75 7V2.5C3.75 2.08579 4.08579 1.75 4.5 1.75ZM12.75 6C12.75 5.58579 12.4142 5.25 12 5.25C11.5858 5.25 11.25 5.58579 11.25 6V12C11.25 12.1989 11.329 12.3897 11.4697 12.5303L13.9697 15.0303C14.2626 15.3232 14.7374 15.3232 15.0303 15.0303C15.3232 14.7374 15.3232 14.2626 15.0303 13.9697L12.75 11.6893V6ZM3 11.25C3.41421 11.25 3.75 11.5858 3.75 12C3.75 12.439 3.78504 12.8773 3.85479 13.3108C3.92061 13.7197 3.64243 14.1046 3.23348 14.1704C2.82453 14.2362 2.43966 13.9581 2.37385 13.5491C2.29141 13.0368 2.25 12.5188 2.25 12C2.25 11.5858 2.58579 11.25 3 11.25ZM4.85527 16.125C4.64816 15.7663 4.18947 15.6434 3.83075 15.8505C3.47203 16.0576 3.34913 16.5163 3.55623 16.875C3.81565 17.3243 4.11052 17.7522 4.43804 18.1546C4.69951 18.4759 5.1719 18.5244 5.49316 18.2629C5.81442 18.0014 5.86288 17.529 5.60141 17.2078C5.32429 16.8673 5.07478 16.5052 4.85527 16.125ZM6.85048 19.4193C7.05759 19.0605 7.51628 18.9376 7.875 19.1447C8.2552 19.3642 8.65232 19.5531 9.06257 19.7094C9.44963 19.8568 9.64386 20.2902 9.49638 20.6773C9.34889 21.0643 8.91555 21.2585 8.52849 21.1111C8.04365 20.9263 7.57433 20.7032 7.125 20.4438C6.76628 20.2367 6.64338 19.778 6.85048 19.4193ZM13.5491 21.6261C13.958 21.5603 14.2362 21.1755 14.1704 20.7665C14.1046 20.3576 13.7197 20.0794 13.3108 20.1452C12.8773 20.2149 12.439 20.25 12 20.25C11.5858 20.25 11.25 20.5858 11.25 21C11.25 21.4142 11.5858 21.75 12 21.75C12.5188 21.75 13.0368 21.7086 13.5491 21.6261Z" fill="#23262A"/>
</svg>
