<svg width="24" height="24" viewBox="0 0 24 24" fill="none" xmlns="http://www.w3.org/2000/svg">
<path fill-rule="evenodd" clip-rule="evenodd" d="M12 13.25C11.0224 13.25 10.1104 12.7404 9.50147 11.8977L11.9998 11.2731L14.4985 11.8977C13.8896 12.7404 12.9775 13.25 12 13.25ZM12.7557 9.9159L15.172 10.52C15.3452 10.27 15.6604 10.142 15.9706 10.2196L17.9095 10.7043C19.5789 11.1216 20.75 12.6216 20.75 14.3423V20C20.75 20.4142 20.4142 20.75 20 20.75H18C17.9993 20.75 17.9987 20.75 17.998 20.75H16.002C16.0013 20.75 16.0007 20.75 16 20.75H8C7.99934 20.75 7.99868 20.75 7.99803 20.75H6.00197C6.00132 20.75 6.00066 20.75 6 20.75H4C3.58579 20.75 3.25 20.4142 3.25 20V14.3423C3.25 12.6216 4.42112 11.1216 6.09049 10.7043L8.02944 10.2196C8.33961 10.142 8.65477 10.2699 8.82793 10.5199L11.2516 9.91398C11.2742 9.3596 11.512 8.89258 11.7801 8.5172C12.0509 8.1381 12.4007 7.78842 12.6983 7.4909L12.6983 7.49087L12.6983 7.49086L12.7195 7.46967C13.0424 7.14673 13.3074 6.87904 13.4989 6.61095C13.6858 6.34934 13.7498 6.15777 13.7498 6C13.7498 5.42044 13.5599 4.99575 13.282 4.71783C13.0041 4.43991 12.5794 4.25 11.9998 4.25C11.4203 4.25 10.9956 4.43991 10.7177 4.71783C10.4397 4.99575 10.2498 5.42044 10.2498 6C10.2498 6.41421 9.91404 6.75 9.49982 6.75C9.08561 6.75 8.74982 6.41421 8.74982 6C8.74982 5.07956 9.05991 4.25425 9.65699 3.65717C10.2541 3.06009 11.0794 2.75 11.9998 2.75C12.9203 2.75 13.7456 3.06009 14.3427 3.65717C14.9397 4.25425 15.2498 5.07956 15.2498 6C15.2498 6.59223 15.0014 7.08816 14.7195 7.4828C14.4487 7.86192 14.0989 8.21162 13.8013 8.50914L13.7802 8.53033C13.4572 8.85327 13.1922 9.12096 13.0007 9.38905C12.8458 9.60591 12.7753 9.77465 12.7557 9.9159ZM6.25 19.25H7.75V17C7.75 16.5858 7.41421 16.25 7 16.25C6.58579 16.25 6.25 16.5858 6.25 17V19.25ZM16.25 19.25H17.75V17C17.75 16.5858 17.4142 16.25 17 16.25C16.5858 16.25 16.25 16.5858 16.25 17V19.25Z" fill="#23262A"/>
</svg>
