<svg width="24" height="24" viewBox="0 0 24 24" fill="none" xmlns="http://www.w3.org/2000/svg">
<path fill-rule="evenodd" clip-rule="evenodd" d="M15.1721 10.52L12.7557 9.9159C12.7753 9.77465 12.8458 9.60591 13.0007 9.38905C13.1922 9.12096 13.4572 8.85327 13.7802 8.53033L13.8013 8.50914C14.0989 8.21162 14.4487 7.86192 14.7195 7.4828C15.0014 7.08816 15.2498 6.59223 15.2498 6C15.2498 5.07956 14.9397 4.25425 14.3427 3.65717C13.7456 3.06009 12.9203 2.75 11.9998 2.75C11.0794 2.75 10.2541 3.06009 9.65699 3.65717C9.05991 4.25425 8.74982 5.07956 8.74982 6C8.74982 6.41421 9.08561 6.75 9.49982 6.75C9.91404 6.75 10.2498 6.41421 10.2498 6C10.2498 5.42044 10.4397 4.99575 10.7177 4.71783C10.9956 4.43991 11.4203 4.25 11.9998 4.25C12.5794 4.25 13.0041 4.43991 13.282 4.71783C13.5599 4.99575 13.7498 5.42044 13.7498 6C13.7498 6.15777 13.6858 6.34934 13.4989 6.61095C13.3074 6.87904 13.0424 7.14673 12.7195 7.46967L12.6983 7.49086C12.4007 7.78839 12.0509 8.13808 11.7801 8.5172C11.512 8.89258 11.2742 9.3596 11.2516 9.91398L8.82787 10.5199C8.6547 10.27 8.33958 10.1421 8.02944 10.2197L6.09049 10.7044C4.42112 11.1217 3.25 12.6217 3.25 14.3424V20.0001C3.25 20.4143 3.58579 20.7501 4 20.7501H20C20.4142 20.7501 20.75 20.4143 20.75 20.0001V14.3424C20.75 12.6217 19.5789 11.1217 17.9095 10.7044L15.9706 10.2197C15.6604 10.1421 15.3452 10.27 15.1721 10.52ZM9.50141 11.8977C10.1103 12.7405 11.0224 13.2501 12 13.2501C12.9776 13.2501 13.8896 12.7405 14.4985 11.8978L11.9998 11.2731L9.50141 11.8977ZM6.45429 12.1596L7.74523 11.8369C8.50871 13.53 10.0966 14.7501 12 14.7501C13.9034 14.7501 15.4913 13.53 16.2548 11.8369L17.5457 12.1596C18.5473 12.41 19.25 13.31 19.25 14.3424V19.2501H17.75V17C17.75 16.5858 17.4142 16.25 17 16.25C16.5858 16.25 16.25 16.5858 16.25 17V19.2501H7.75V17C7.75 16.5858 7.41421 16.25 7 16.25C6.58579 16.25 6.25 16.5858 6.25 17V19.2501H4.75V14.3424C4.75 13.31 5.45267 12.41 6.45429 12.1596Z" fill="#23262A"/>
</svg>
