<svg width="24" height="24" viewBox="0 0 24 24" fill="none" xmlns="http://www.w3.org/2000/svg">
<path fill-rule="evenodd" clip-rule="evenodd" d="M5.25 8C5.25 4.82436 7.82436 2.25 11 2.25C13.0136 2.25 14.7849 3.28562 15.8109 4.84976C15.9453 5.05462 16.067 5.26867 16.1749 5.49078C16.2685 5.68362 16.415 5.75 16.5052 5.75H17.25C19.7353 5.75 21.75 7.76472 21.75 10.25C21.75 12.4644 20.1505 14.3053 18.0438 14.6802C17.8876 14.708 17.7543 14.5749 17.7484 14.4163C17.7282 13.8687 17.509 13.3271 17.091 12.909L13.591 9.40901C12.7123 8.53033 11.2877 8.53033 10.409 9.40901L6.90901 12.909C6.477 13.341 6.25739 13.905 6.25018 14.4712C6.24829 14.6202 6.13353 14.75 5.98452 14.75H5.5C3.70507 14.75 2.25 13.2949 2.25 11.5C2.25 9.92681 3.36703 8.61619 4.8508 8.315C4.99963 8.28479 5.11189 8.22043 5.17648 8.15677C5.23332 8.10074 5.25 8.05204 5.25 8ZM11.4697 10.4697C11.5416 10.3978 11.6245 10.3435 11.7129 10.3069C11.8013 10.2702 11.8983 10.25 12 10.25C12.1017 10.25 12.1987 10.2702 12.2871 10.3069C12.3755 10.3435 12.4584 10.3978 12.5303 10.4697L16.0303 13.9697C16.3232 14.2626 16.3232 14.7374 16.0303 15.0303C15.7374 15.3232 15.2626 15.3232 14.9697 15.0303L12.75 12.8107V20.5C12.75 20.9142 12.4142 21.25 12 21.25C11.5858 21.25 11.25 20.9142 11.25 20.5V12.8107L9.03033 15.0303C8.73744 15.3232 8.26256 15.3232 7.96967 15.0303C7.67678 14.7374 7.67678 14.2626 7.96967 13.9697L11.4697 10.4697Z" fill="#23262A"/>
</svg>
