<svg width="24" height="24" viewBox="0 0 24 24" fill="none" xmlns="http://www.w3.org/2000/svg">
<path fill-rule="evenodd" clip-rule="evenodd" d="M11 2.25C7.82436 2.25 5.25 4.82436 5.25 8C5.25 8.05204 5.23332 8.10074 5.17648 8.15677C5.11189 8.22043 4.99963 8.28479 4.8508 8.315C3.36703 8.61619 2.25 9.92681 2.25 11.5C2.25 13.2949 3.70507 14.75 5.5 14.75H9C9.41421 14.75 9.75 14.4142 9.75 14C9.75 13.5858 9.41421 13.25 9 13.25H5.5C4.5335 13.25 3.75 12.4665 3.75 11.5C3.75 10.6542 4.35073 9.9471 5.1492 9.78502C5.89549 9.63353 6.75 9.03827 6.75 8C6.75 5.65279 8.65279 3.75 11 3.75C12.487 3.75 13.7961 4.51307 14.5567 5.6725C14.6561 5.82399 14.746 5.98213 14.8256 6.14608C15.1136 6.73916 15.7216 7.25 16.5052 7.25H17.25C18.9069 7.25 20.25 8.59315 20.25 10.25C20.25 11.9069 18.9069 13.25 17.25 13.25H15C14.5858 13.25 14.25 13.5858 14.25 14C14.25 14.4142 14.5858 14.75 15 14.75H17.25C19.7353 14.75 21.75 12.7353 21.75 10.25C21.75 7.76472 19.7353 5.75 17.25 5.75H16.5052C16.415 5.75 16.2685 5.68362 16.1749 5.49078C16.067 5.26867 15.9453 5.05462 15.8109 4.84976C14.7849 3.28562 13.0136 2.25 11 2.25ZM12 10.25C12.4142 10.25 12.75 10.5858 12.75 11V18.6893L14.9697 16.4697C15.2626 16.1768 15.7374 16.1768 16.0303 16.4697C16.3232 16.7626 16.3232 17.2374 16.0303 17.5303L12.5303 21.0303C12.2374 21.3232 11.7626 21.3232 11.4697 21.0303L7.96967 17.5303C7.67678 17.2374 7.67678 16.7626 7.96967 16.4697C8.26256 16.1768 8.73744 16.1768 9.03033 16.4697L11.25 18.6893V11C11.25 10.5858 11.5858 10.25 12 10.25Z" fill="#23262A"/>
</svg>
