<svg width="24" height="24" viewBox="0 0 24 24" fill="none" xmlns="http://www.w3.org/2000/svg">
<path fill-rule="evenodd" clip-rule="evenodd" d="M11 2.25C7.82436 2.25 5.25 4.82436 5.25 8C5.25 8.05204 5.23332 8.10074 5.17648 8.15677C5.11189 8.22043 4.99963 8.28479 4.8508 8.315C3.36703 8.61619 2.25 9.92681 2.25 11.5C2.25 13.2949 3.70507 14.75 5.5 14.75H9.5C9.63807 14.75 9.75 14.6381 9.75 14.5V11C9.75 9.75736 10.7574 8.75 12 8.75C13.2426 8.75 14.25 9.75736 14.25 11V14.5C14.25 14.6381 14.3619 14.75 14.5 14.75H17.25C19.7353 14.75 21.75 12.7353 21.75 10.25C21.75 7.76472 19.7353 5.75 17.25 5.75H16.5052C16.415 5.75 16.2685 5.68362 16.1749 5.49078C16.067 5.26867 15.9453 5.05462 15.8109 4.84976C14.7849 3.28562 13.0136 2.25 11 2.25ZM12 10.25C12.4142 10.25 12.75 10.5858 12.75 11V18.6893L14.9697 16.4697C15.2626 16.1768 15.7374 16.1768 16.0303 16.4697C16.3232 16.7626 16.3232 17.2374 16.0303 17.5303L12.5303 21.0303C12.2374 21.3232 11.7626 21.3232 11.4697 21.0303L7.96967 17.5303C7.67678 17.2374 7.67678 16.7626 7.96967 16.4697C8.26256 16.1768 8.73744 16.1768 9.03033 16.4697L11.25 18.6893V11C11.25 10.5858 11.5858 10.25 12 10.25Z" fill="#23262A"/>
</svg>
