<svg width="24" height="24" viewBox="0 0 24 24" fill="none" xmlns="http://www.w3.org/2000/svg">
<path fill-rule="evenodd" clip-rule="evenodd" d="M11.0552 7.25C8.78261 7.25 6.85037 9.10856 6.6654 11.7257L5.9174 11.6729L6.6655 11.7244C6.64326 12.0473 6.56727 12.4118 6.31401 12.7202C6.05998 13.0296 5.71747 13.1736 5.39999 13.2538C4.80529 13.4127 4.3973 13.6678 4.1415 13.9603C3.892 14.2456 3.75 14.6078 3.75 15.0662C3.75 15.6064 3.9392 15.9993 4.24666 16.2669C4.56519 16.544 5.08561 16.75 5.8476 16.75H17.299C18.9789 16.75 20.25 15.4766 20.25 13.8711C20.25 13.0866 19.9487 12.3864 19.3882 11.8765C18.8259 11.3649 17.9522 11.001 16.7416 11.001C16.4171 11.001 16.0678 10.958 15.7475 10.7718C15.4167 10.5795 15.2161 10.293 15.0751 10.0046L15.0744 10.0031C14.2014 8.20725 12.8172 7.25 11.0552 7.25ZM5.16913 11.62C5.40216 8.32283 7.89372 5.75 11.0552 5.75C13.4902 5.75 15.3454 7.13027 16.4231 9.34664C16.4651 9.43237 16.4926 9.46548 16.5028 9.47558C16.5149 9.48066 16.5748 9.50098 16.7416 9.50098C18.2567 9.50098 19.5122 9.96138 20.3977 10.767C21.285 11.5743 21.75 12.6842 21.75 13.8711C21.75 16.3306 19.7816 18.25 17.299 18.25H5.8476C4.82441 18.25 3.92102 17.9718 3.26205 17.3985C2.59201 16.8155 2.25 15.9915 2.25 15.0662C2.25 14.2684 2.50858 13.5489 3.01234 12.9729C3.50914 12.4047 4.20564 12.0192 5.01917 11.8029L5.02967 11.8001L5.02969 11.8002C5.09071 11.7849 5.12833 11.7712 5.14992 11.7618C5.15601 11.7372 5.16409 11.6933 5.16904 11.6213L5.16913 11.62ZM5.17471 11.749C5.17475 11.749 5.17408 11.7495 5.17254 11.7505C5.17389 11.7495 5.17466 11.749 5.17471 11.749ZM16.5003 9.47444C16.5003 9.47443 16.5006 9.47456 16.5011 9.47484L16.5003 9.47444ZM16.5035 9.47633C16.506 9.47795 16.5072 9.47912 16.5072 9.47929C16.5072 9.47946 16.506 9.47865 16.5035 9.47633Z" fill="#23262A"/>
</svg>
