<svg width="24" height="24" viewBox="0 0 24 24" fill="none" xmlns="http://www.w3.org/2000/svg">
<path fill-rule="evenodd" clip-rule="evenodd" d="M11 2.25C7.82436 2.25 5.25 4.82436 5.25 8C5.25 8.05204 5.23332 8.10074 5.17648 8.15677C5.11189 8.22043 4.99963 8.28479 4.8508 8.315C3.36703 8.61619 2.25 9.92681 2.25 11.5C2.25 13.2949 3.70507 14.75 5.5 14.75C5.91421 14.75 6.25 14.4142 6.25 14C6.25 13.5858 5.91421 13.25 5.5 13.25C4.5335 13.25 3.75 12.4665 3.75 11.5C3.75 10.6542 4.35073 9.9471 5.1492 9.78502C5.89549 9.63353 6.75 9.03827 6.75 8C6.75 5.65279 8.65279 3.75 11 3.75C12.487 3.75 13.7961 4.51307 14.5567 5.6725C14.6561 5.82399 14.746 5.98213 14.8256 6.14608C15.1136 6.73916 15.7216 7.25 16.5052 7.25H17.25C18.9069 7.25 20.25 8.59315 20.25 10.25C20.25 11.555 19.4163 12.6673 18.2501 13.0795C17.8595 13.2175 17.6548 13.646 17.7929 14.0366C17.9309 14.4271 18.3594 14.6318 18.7499 14.4937C20.4967 13.8764 21.75 12.2105 21.75 10.25C21.75 7.76472 19.7353 5.75 17.25 5.75H16.5052C16.415 5.75 16.2685 5.68362 16.1749 5.49078C16.067 5.26867 15.9453 5.05462 15.8109 4.84976C14.7849 3.28562 13.0136 2.25 11 2.25ZM11.4697 10.4697C11.7626 10.1768 12.2374 10.1768 12.5303 10.4697L16.0303 13.9697C16.3232 14.2626 16.3232 14.7374 16.0303 15.0303C15.7374 15.3232 15.2626 15.3232 14.9697 15.0303L12.75 12.8107V20.5C12.75 20.9142 12.4142 21.25 12 21.25C11.5858 21.25 11.25 20.9142 11.25 20.5V12.8107L9.03033 15.0303C8.73744 15.3232 8.26256 15.3232 7.96967 15.0303C7.67678 14.7374 7.67678 14.2626 7.96967 13.9697L11.4697 10.4697Z" fill="#23262A"/>
</svg>
