<svg width="24" height="24" viewBox="0 0 24 24" fill="none" xmlns="http://www.w3.org/2000/svg">
<path fill-rule="evenodd" clip-rule="evenodd" d="M5.25 8C5.25 4.82436 7.82436 2.25 11 2.25C13.0136 2.25 14.7849 3.28562 15.8109 4.84976C15.9453 5.05462 16.067 5.26867 16.1749 5.49078C16.2685 5.68362 16.415 5.75 16.5052 5.75H17.25C19.7353 5.75 21.75 7.76472 21.75 10.25C21.75 12.7353 19.7353 14.75 17.25 14.75H14.5C14.3619 14.75 14.25 14.6381 14.25 14.5V11C14.25 9.75736 13.2426 8.75 12 8.75C10.7574 8.75 9.75 9.75736 9.75 11V14.5C9.75 14.6381 9.63807 14.75 9.5 14.75H5.5C3.70507 14.75 2.25 13.2949 2.25 11.5C2.25 9.92681 3.36703 8.61619 4.8508 8.315C4.99963 8.28479 5.11189 8.22043 5.17648 8.15677C5.23332 8.10074 5.25 8.05204 5.25 8ZM12 10.25C12.4142 10.25 12.75 10.5858 12.75 11V18.6893L14.9697 16.4697C15.2626 16.1768 15.7374 16.1768 16.0303 16.4697C16.3232 16.7626 16.3232 17.2374 16.0303 17.5303L12.5303 21.0303C12.4584 21.1022 12.3755 21.1565 12.2871 21.1931C12.1987 21.2298 12.1017 21.25 12 21.25C11.9871 21.25 11.9742 21.2497 11.9614 21.249C11.8738 21.2446 11.7901 21.2251 11.7129 21.1931C11.6245 21.1565 11.5416 21.1022 11.4697 21.0303L7.96967 17.5303C7.67678 17.2374 7.67678 16.7626 7.96967 16.4697C8.26256 16.1768 8.73744 16.1768 9.03033 16.4697L11.25 18.6893V11C11.25 10.5858 11.5858 10.25 12 10.25Z" fill="#23262A"/>
</svg>
