<svg width="24" height="24" viewBox="0 0 24 24" fill="none" xmlns="http://www.w3.org/2000/svg">
<path fill-rule="evenodd" clip-rule="evenodd" d="M19.3348 6.22589C19.6277 5.93299 19.6277 5.45812 19.3348 5.16523C19.0419 4.87233 18.567 4.87233 18.2741 5.16523L3.96967 19.4697C3.67678 19.7626 3.67678 20.2374 3.96967 20.5303C4.26256 20.8232 4.73744 20.8232 5.03033 20.5303L19.3348 6.22589ZM14.25 7.06799C14.3573 6.96076 14.3453 6.78311 14.2199 6.69784C13.3229 6.08792 12.26 5.75 11.0552 5.75C7.89372 5.75 5.40216 8.32283 5.16913 11.62L5.16904 11.6213L5.16765 11.6398C5.16133 11.7173 5.10796 11.7804 5.03254 11.7994L5.02967 11.8001L5.01917 11.8029C4.20564 12.0192 3.50914 12.4047 3.01234 12.9729C2.50858 13.5489 2.25 14.2684 2.25 15.0662C2.25 15.9915 2.59201 16.8155 3.26205 17.3985C3.33015 17.4577 3.40087 17.5138 3.47406 17.5668C3.56865 17.6353 3.69806 17.62 3.78062 17.5374L14.25 7.06799ZM9.85876 17.8232C9.70127 17.9807 9.81281 18.25 10.0355 18.25H17.299C19.7816 18.25 21.75 16.3306 21.75 13.8711C21.75 12.6842 21.285 11.5743 20.3977 10.767C19.8119 10.234 19.0641 9.85212 18.1863 9.65469C18.1047 9.63632 18.0197 9.66233 17.9605 9.7215L9.85876 17.8232Z" fill="#23262A"/>
</svg>
