<svg width="24" height="24" viewBox="0 0 24 24" fill="none" xmlns="http://www.w3.org/2000/svg">
<path fill-rule="evenodd" clip-rule="evenodd" d="M11 2.25C7.82436 2.25 5.25 4.82436 5.25 8C5.25 8.05204 5.23332 8.10074 5.17648 8.15677C5.11189 8.22043 4.99963 8.28479 4.8508 8.315C3.36703 8.61619 2.25 9.92681 2.25 11.5C2.25 13.2949 3.70507 14.75 5.5 14.75H5.98452C6.13353 14.75 6.24829 14.6202 6.25018 14.4712C6.25739 13.905 6.477 13.341 6.90901 12.909L10.409 9.40901C11.2877 8.53033 12.7123 8.53033 13.591 9.40901L17.091 12.909C17.509 13.3271 17.7282 13.8687 17.7484 14.4163C17.7543 14.5749 17.8876 14.708 18.0438 14.6802C20.1505 14.3053 21.75 12.4644 21.75 10.25C21.75 7.76472 19.7353 5.75 17.25 5.75H16.5052C16.415 5.75 16.2685 5.68362 16.1749 5.49078C16.067 5.26867 15.9453 5.05462 15.8109 4.84976C14.7849 3.28562 13.0136 2.25 11 2.25ZM11.4697 10.4697C11.7626 10.1768 12.2374 10.1768 12.5303 10.4697L16.0303 13.9697C16.3232 14.2626 16.3232 14.7374 16.0303 15.0303C15.7374 15.3232 15.2626 15.3232 14.9697 15.0303L12.75 12.8107V20.5C12.75 20.9142 12.4142 21.25 12 21.25C11.5858 21.25 11.25 20.9142 11.25 20.5V12.8107L9.03033 15.0303C8.73744 15.3232 8.26256 15.3232 7.96967 15.0303C7.67678 14.7374 7.67678 14.2626 7.96967 13.9697L11.4697 10.4697Z" fill="#23262A"/>
</svg>
