<svg width="24" height="24" viewBox="0 0 24 24" fill="none" xmlns="http://www.w3.org/2000/svg">
<path fill-rule="evenodd" clip-rule="evenodd" d="M5.16913 11.62C5.40216 8.32283 7.89372 5.75 11.0552 5.75C13.4902 5.75 15.3454 7.13027 16.4231 9.34664C16.4651 9.43237 16.4926 9.46548 16.5028 9.47558C16.5149 9.48066 16.5748 9.50098 16.7416 9.50098C18.2567 9.50098 19.5122 9.96138 20.3977 10.767C21.285 11.5743 21.75 12.6842 21.75 13.8711C21.75 16.3306 19.7816 18.25 17.299 18.25H5.8476C4.82441 18.25 3.92102 17.9718 3.26205 17.3985C2.59201 16.8155 2.25 15.9915 2.25 15.0662C2.25 14.2684 2.50858 13.5489 3.01234 12.9729C3.50914 12.4047 4.20564 12.0192 5.01917 11.8029L5.02967 11.8001C5.09069 11.7849 5.12833 11.7712 5.14992 11.7618C5.15601 11.7372 5.16409 11.6933 5.16904 11.6213L5.16913 11.62Z" fill="#23262A"/>
</svg>
