<svg width="24" height="24" viewBox="0 0 24 24" fill="none" xmlns="http://www.w3.org/2000/svg">
<path fill-rule="evenodd" clip-rule="evenodd" d="M19.3348 5.16523C19.6277 5.45812 19.6277 5.93299 19.3348 6.22589L5.03033 20.5303C4.73744 20.8232 4.26256 20.8232 3.96967 20.5303C3.67678 20.2374 3.67678 19.7626 3.96967 19.4697L18.2741 5.16523C18.567 4.87233 19.0419 4.87233 19.3348 5.16523ZM11.0552 7.25952C8.78171 7.25952 6.85056 9.11516 6.66544 11.7258L6.66549 11.7251L5.91727 11.6735L6.6654 11.7265L6.66544 11.7258C6.64312 12.0483 6.56695 12.4124 6.31361 12.7204C6.05946 13.0293 5.71696 13.173 5.39969 13.2531C4.80478 13.4117 4.39678 13.6664 4.14108 13.9583C3.89176 14.243 3.75 14.6041 3.75 15.061C3.75 15.6734 3.99343 16.1056 4.40436 16.3784C4.74948 16.6074 4.84356 17.0729 4.61451 17.418C4.38545 17.7631 3.91999 17.8572 3.57487 17.6281C2.70939 17.0537 2.25 16.1315 2.25 15.061C2.25 14.264 2.50881 13.5453 3.01276 12.97C3.50967 12.4027 4.20616 12.0179 5.01948 11.802L5.02997 11.7993L5.02999 11.7993C5.09088 11.7841 5.12851 11.7704 5.15016 11.761C5.15619 11.7365 5.16415 11.6929 5.16905 11.6219L5.16914 11.6206C5.40229 8.32737 7.8948 5.75952 11.0552 5.75952C12.0941 5.75952 13.0472 6.01221 13.8851 6.49614C14.2438 6.70332 14.3666 7.16203 14.1594 7.52071C13.9523 7.8794 13.4936 8.00222 13.1349 7.79505C12.5359 7.44908 11.8434 7.25952 11.0552 7.25952ZM5.17518 11.7482C5.17523 11.7482 5.17457 11.7487 5.17305 11.7496L5.17518 11.7482ZM17.8927 9.5993C17.4845 9.52887 17.0965 9.80267 17.0261 10.2108C16.9557 10.619 17.2295 11.007 17.6377 11.0775C19.3877 11.3794 20.2498 12.5537 20.2498 13.8681C20.2498 15.4689 18.9799 16.7407 17.2987 16.7407H10.186C9.77176 16.7407 9.43597 17.0765 9.43597 17.4907C9.43597 17.9049 9.77176 18.2407 10.186 18.2407H17.2987C19.7801 18.2407 21.7498 16.3252 21.7498 13.8681C21.7498 11.7699 20.3079 10.0161 17.8927 9.5993Z" fill="#23262A"/>
</svg>
