<svg width="24" height="24" viewBox="0 0 24 24" fill="none" xmlns="http://www.w3.org/2000/svg">
<path fill-rule="evenodd" clip-rule="evenodd" d="M10.0303 9.03033C10.3232 8.73744 10.3232 8.26256 10.0303 7.96967C9.73744 7.67678 9.26256 7.67678 8.96967 7.96967L5.46967 11.4697C5.17678 11.7626 5.17678 12.2374 5.46967 12.5303L8.96967 16.0303C9.26256 16.3232 9.73744 16.3232 10.0303 16.0303C10.3232 15.7374 10.3232 15.2626 10.0303 14.9697L7.06066 12L10.0303 9.03033ZM15.0303 7.96967C14.7374 7.67678 14.2626 7.67678 13.9697 7.96967C13.6768 8.26256 13.6768 8.73744 13.9697 9.03033L16.9393 12L13.9697 14.9697C13.6768 15.2626 13.6768 15.7374 13.9697 16.0303C14.2626 16.3232 14.7374 16.3232 15.0303 16.0303L18.5303 12.5303C18.8232 12.2374 18.8232 11.7626 18.5303 11.4697L15.0303 7.96967Z" fill="#23262A"/>
</svg>
