<svg width="24" height="24" viewBox="0 0 24 24" fill="none" xmlns="http://www.w3.org/2000/svg">
<path fill-rule="evenodd" clip-rule="evenodd" d="M12.0999 2.04998C11.8514 1.71861 11.3813 1.65145 11.0499 1.89998C10.7186 2.14851 10.6514 2.61861 10.8999 2.94998L11.8796 4.25615C11.9542 4.35568 11.9443 4.49495 11.8563 4.58292L11.0829 5.35638C10.4671 5.97219 10.3978 6.94711 10.9203 7.64382L11.8999 8.94998C12.1485 9.28135 12.6186 9.34851 12.9499 9.09998C13.2813 8.85146 13.3485 8.38135 13.0999 8.04998L12.1203 6.74382C12.0457 6.64429 12.0556 6.50502 12.1435 6.41704L12.917 5.64358C13.5328 5.02777 13.6021 4.05286 13.0796 3.35615L12.0999 2.04998ZM13.8502 7.05703C13.8972 6.64549 14.2689 6.34994 14.6804 6.39691C16.0092 6.54857 17.1858 6.81374 18.0525 7.17257C18.4831 7.35085 18.8778 7.56867 19.1772 7.83883C19.4754 8.10791 19.75 8.49756 19.75 8.99998C19.75 9.26897 19.7391 9.53563 19.7177 9.79936C19.8667 9.75687 20.016 9.72588 20.1644 9.70756C20.7202 9.63894 21.3413 9.74497 21.7983 10.202C22.3506 10.7543 22.3897 11.5342 22.2278 12.182C22.0616 12.8467 21.6589 13.5233 21.0912 14.0911C20.5234 14.6588 19.8468 15.0615 19.1821 15.2277C19.0227 15.2675 18.8553 15.2952 18.6853 15.3061C18.9519 15.4168 19.1972 15.536 19.4177 15.6635C20.0748 16.0434 20.75 16.6414 20.75 17.4999C20.75 18.1947 20.3008 18.7188 19.817 19.0762C19.3185 19.4445 18.6452 19.7446 17.8806 19.9835C16.3424 20.4642 14.2634 20.7499 12 20.7499C9.73658 20.7499 7.65763 20.4642 6.11944 19.9835C5.35481 19.7446 4.68146 19.4445 4.183 19.0762C3.69922 18.7188 3.25 18.1947 3.25 17.4999C3.25 16.6414 3.92517 16.0434 4.58235 15.6635C5.05827 15.3883 5.64971 15.1518 6.32067 14.9554C5.02814 13.3789 4.25 11.2724 4.25 8.99998C4.25 8.53308 4.48827 8.16212 4.75943 7.89821C5.02899 7.63587 5.38357 7.42423 5.7672 7.25061C6.53841 6.90159 7.58445 6.63653 8.77055 6.46728C9.1806 6.40876 9.56046 6.69375 9.61897 7.10381C9.67749 7.51387 9.3925 7.89372 8.98244 7.95223C7.87036 8.11092 6.97815 8.34904 6.38566 8.61718C6.08744 8.75215 5.90381 8.87759 5.80561 8.97316C5.79541 8.98309 5.78674 8.99205 5.7794 9.00006C5.8392 9.06567 5.97297 9.17841 6.24062 9.31366C6.57416 9.4822 7.03632 9.64596 7.61516 9.78831C8.77009 10.0723 10.303 10.2501 11.9999 10.2501C13.697 10.2501 15.2299 10.0723 16.3848 9.78828C16.9637 9.64592 17.4258 9.48215 17.7594 9.31361C18.0272 9.17828 18.1609 9.06549 18.2206 8.99992C18.2085 8.98668 18.1927 8.97086 18.1723 8.95246C18.0491 8.84131 17.8266 8.70255 17.4787 8.55848C16.7883 8.27265 15.7625 8.03015 14.5103 7.88724C14.0988 7.84027 13.8032 7.46857 13.8502 7.05703ZM18.4731 13.8106C18.8677 13.1333 19.1807 12.3923 19.398 11.6072C19.7527 11.3559 20.0909 11.228 20.3482 11.1963C20.6088 11.1641 20.7084 11.2334 20.7376 11.2626C20.771 11.2961 20.8666 11.4423 20.7726 11.8182C20.6828 12.1772 20.4391 12.6218 20.0305 13.0304C19.622 13.439 19.1773 13.6827 18.8183 13.7725C18.6698 13.8096 18.5572 13.8171 18.4731 13.8106ZM18.0513 10.828C17.6642 10.9882 17.2223 11.127 16.7431 11.2449C15.447 11.5636 13.7903 11.7501 11.9999 11.7501C10.2096 11.7501 8.55298 11.5636 7.25696 11.2449C6.7777 11.1271 6.33577 10.9882 5.94875 10.8281C6.65582 14.0007 9.15944 16.25 12 16.25C14.8406 16.25 17.3442 14.0007 18.0513 10.828ZM12 17.75C13.6648 17.75 15.1856 17.1676 16.4307 16.1849C17.4055 16.3988 18.1656 16.6722 18.6669 16.9621C19.2316 17.2885 19.25 17.4991 19.25 17.4999V17.5001C19.25 17.5033 19.2503 17.5314 19.21 17.5929C19.1655 17.6608 19.0793 17.7563 18.9256 17.8698C18.6145 18.0997 18.1162 18.3383 17.4331 18.5518C16.0759 18.9759 14.1549 19.2499 12 19.2499C9.84514 19.2499 7.92409 18.9759 6.56685 18.5518C5.88377 18.3383 5.38554 18.0997 5.07436 17.8698C4.92074 17.7563 4.83445 17.6608 4.78998 17.5929C4.74974 17.5314 4.74997 17.5033 4.75 17.5001L4.75 17.4999C4.75 17.4991 4.76844 17.2885 5.33308 16.9621C5.83443 16.6722 6.59452 16.3988 7.5693 16.1849C8.81437 17.1676 10.3352 17.75 12 17.75Z" fill="#262626"/>
</svg>
