<svg width="24" height="24" viewBox="0 0 24 24" fill="none" xmlns="http://www.w3.org/2000/svg">
<path fill-rule="evenodd" clip-rule="evenodd" d="M11.05 1.90004C11.3813 1.65152 11.8514 1.71867 12.1 2.05004L13.0796 3.35621C13.6021 4.05292 13.5328 5.02783 12.917 5.64364L12.1436 6.4171C12.0556 6.50508 12.0457 6.64435 12.1203 6.74388L13.1 8.05004C13.3485 8.38142 13.2813 8.85152 12.95 9.10004C12.6186 9.34857 12.1485 9.28141 11.9 8.95004L10.9203 7.64388C10.3978 6.94717 10.4671 5.97226 11.0829 5.35644L11.8564 4.58298C11.9443 4.49501 11.9542 4.35574 11.8796 4.25621L10.9 2.95004C10.6514 2.61867 10.7186 2.14857 11.05 1.90004ZM19.3982 11.6063C19.7525 11.3556 20.0903 11.228 20.3473 11.1962C20.6079 11.164 20.7075 11.2334 20.7367 11.2626C20.7701 11.296 20.8656 11.4423 20.7717 11.8181C20.6819 12.1771 20.4382 12.6218 20.0296 13.0304C19.621 13.4389 19.1764 13.6827 18.8174 13.7724C18.6694 13.8094 18.557 13.8171 18.4731 13.8107C18.8678 13.133 19.1809 12.3918 19.3982 11.6063ZM19.7177 9.79906C19.8664 9.75671 20.0154 9.72581 20.1635 9.70753C20.7193 9.63891 21.3404 9.74494 21.7974 10.202C22.3497 10.7543 22.3888 11.5342 22.2269 12.1819C22.0607 12.8466 21.658 13.5233 21.0903 14.091C20.5225 14.6588 19.8459 15.0615 19.1812 15.2277C18.669 15.3557 18.0743 15.3581 17.5747 15.0804C16.1795 16.7167 14.2175 17.7499 12 17.7499C7.62885 17.7499 4.25 13.7352 4.25 8.99989C4.25 8.64212 4.38645 8.34297 4.57867 8.09884C4.63544 8.02627 4.69655 7.95932 4.75943 7.89812C4.85229 7.80775 4.95524 7.72339 5.06598 7.64453C5.08747 7.62921 5.10892 7.61433 5.13027 7.59991C5.5769 7.29821 6.17389 7.05606 6.84421 6.86453C7.43157 6.69672 8.10812 6.55863 8.8482 6.45615C8.9817 6.43767 9.10474 6.53005 9.12608 6.66312L9.28447 7.65046C9.30691 7.79033 9.20866 7.92071 9.06832 7.94002C8.38572 8.03396 7.77365 8.15903 7.25627 8.30686C6.65984 8.47726 6.2317 8.66607 5.96989 8.84293C5.85314 8.92179 5.85314 9.07806 5.96989 9.15693C6.2317 9.33378 6.65984 9.52259 7.25627 9.693C8.43891 10.0309 10.1163 10.2499 12 10.2499C13.8836 10.2499 15.561 10.0309 16.7437 9.693C17.3401 9.52259 17.7682 9.33378 18.0301 9.15693C18.1468 9.07806 18.1468 8.92179 18.0301 8.84293C17.7682 8.66607 17.3401 8.47726 16.7437 8.30686C16.2017 8.152 15.5557 8.02211 14.8337 7.92682C14.7305 7.91321 14.6458 7.83811 14.6212 7.73703L14.3678 6.69665C14.3271 6.52962 14.4633 6.37236 14.6341 6.39147C15.5776 6.497 16.434 6.65832 17.1558 6.86453C17.6166 6.99621 18.0428 7.15181 18.4093 7.33424C18.484 7.37142 18.5562 7.40971 18.6257 7.44915C18.7113 7.49766 18.7927 7.5479 18.8697 7.59991C18.8922 7.61507 18.9147 7.63074 18.9373 7.64691C19.0226 7.70775 19.1028 7.77163 19.1772 7.83874C19.2559 7.90976 19.3329 7.98917 19.4037 8.07684C19.6052 8.32493 19.75 8.6313 19.75 8.99989C19.75 9.26881 19.7391 9.5354 19.7177 9.79906ZM4.9852 15.6835C4.91087 15.5868 4.77817 15.5543 4.67141 15.6132C4.64129 15.6298 4.6116 15.6466 4.58235 15.6635C3.92517 16.0434 3.25 16.6414 3.25 17.4999C3.25 18.1948 3.69922 18.7188 4.183 19.0763C4.68146 19.4445 5.35481 19.7446 6.11944 19.9836C7.65763 20.4642 9.73658 20.7499 12 20.7499C14.2634 20.7499 16.3424 20.4642 17.8806 19.9836C18.6452 19.7446 19.3185 19.4445 19.817 19.0763C20.3008 18.7188 20.75 18.1948 20.75 17.4999C20.75 16.6414 20.0748 16.0434 19.4177 15.6635C19.3883 15.6466 19.3586 15.6298 19.3284 15.6131C19.2216 15.5542 19.0889 15.5867 19.0146 15.6834C17.3627 17.8312 14.9023 19.25 11.9999 19.25C9.09749 19.25 6.63714 17.8313 4.9852 15.6835Z" fill="#23262A"/>
</svg>
