<svg width="24" height="24" viewBox="0 0 24 24" fill="none" xmlns="http://www.w3.org/2000/svg">
<path fill-rule="evenodd" clip-rule="evenodd" d="M10.5432 2.25C10.1972 2.25 9.89603 2.48676 9.81438 2.82304L9.35545 4.71318C9.13813 4.79207 8.92536 4.88039 8.71764 4.97763L7.04264 3.95711C6.74712 3.77706 6.36677 3.82257 6.12208 4.06726L4.06722 6.12212C3.82252 6.36682 3.77701 6.74716 3.95706 7.04268L4.97759 8.71769C4.88035 8.92541 4.79203 9.13818 4.71314 9.3555L2.82304 9.81442C2.48676 9.89607 2.25 10.1972 2.25 10.5432V13.4569C2.25 13.8029 2.48676 14.104 2.82304 14.1857L4.71314 14.6446C4.79203 14.8619 4.88035 15.0747 4.97759 15.2824L3.9571 16.9574C3.77705 17.2529 3.82256 17.6332 4.06725 17.8779L6.12214 19.9328C6.36683 20.1775 6.74718 20.223 7.0427 20.043L8.71764 19.0225C8.92536 19.1197 9.13813 19.208 9.35545 19.2869L9.81436 21.177C9.89601 21.5132 10.1971 21.75 10.5432 21.75H13.4568C13.8029 21.75 14.104 21.5132 14.1856 21.177L14.6445 19.2869C14.8619 19.208 15.0746 19.1197 15.2824 19.0225L16.9573 20.043C17.2528 20.223 17.6332 20.1775 17.8779 19.9328L19.9328 17.8779C20.1774 17.6332 20.223 17.2529 20.0429 16.9574L19.0224 15.2824C19.1197 15.0747 19.208 14.8619 19.2869 14.6446L21.177 14.1857C21.5132 14.104 21.75 13.8029 21.75 13.4569V10.5432C21.75 10.1972 21.5132 9.89607 21.177 9.81442L19.2869 9.3555C19.208 9.13818 19.1197 8.9254 19.0224 8.71767L20.0429 7.04268C20.223 6.74716 20.1775 6.36682 19.9328 6.12213L17.8779 4.06726C17.6332 3.82257 17.2529 3.77706 16.9574 3.95711L15.2824 4.97763C15.0746 4.88038 14.8619 4.79207 14.6445 4.71318L14.1856 2.82304C14.104 2.48676 13.8028 2.25 13.4568 2.25H10.5432ZM10.715 5.47101L11.1329 3.75H12.8671L13.285 5.471C13.3478 5.72984 13.5432 5.93593 13.7984 6.01244C14.2049 6.13435 14.5942 6.29662 14.9615 6.49467C15.196 6.62114 15.4801 6.61365 15.7076 6.475L17.2342 5.5449L18.4552 6.76581L17.5251 8.2924C17.3864 8.51997 17.3789 8.80402 17.5054 9.03858C17.7034 9.40589 17.8657 9.79513 17.9876 10.2017C18.0641 10.4568 18.2702 10.6522 18.5291 10.7151L20.25 11.1329V12.8672L18.5291 13.285C18.2702 13.3479 18.0641 13.5433 17.9876 13.7984C17.8657 14.205 17.7034 14.5942 17.5054 14.9615C17.3789 15.1961 17.3864 15.4801 17.5251 15.7077L18.4551 17.2342L17.2342 18.4552L15.7076 17.5251C15.4801 17.3864 15.196 17.379 14.9615 17.5054C14.5942 17.7035 14.2049 17.8657 13.7984 17.9877C13.5432 18.0642 13.3478 18.2703 13.285 18.5291L12.8671 20.25H11.1329L10.715 18.5291C10.6522 18.2702 10.4568 18.0642 10.2016 17.9877C9.79508 17.8657 9.40585 17.7035 9.03854 17.5054C8.80398 17.379 8.51993 17.3864 8.29236 17.5251L6.76582 18.4552L5.54489 17.2342L6.47496 15.7077C6.61361 15.4801 6.6211 15.1961 6.49463 14.9615C6.29658 14.5942 6.13432 14.205 6.0124 13.7984C5.93589 13.5433 5.72981 13.3479 5.47097 13.285L3.75 12.8672V11.1329L5.47097 10.7151C5.72981 10.6522 5.93589 10.4568 6.0124 10.2017C6.13432 9.79513 6.29658 9.4059 6.49463 9.03859C6.6211 8.80403 6.61361 8.51998 6.47496 8.29241L5.54485 6.76581L6.76576 5.5449L8.29236 6.47501C8.51993 6.61366 8.80398 6.62114 9.03854 6.49467C9.40585 6.29662 9.79509 6.13436 10.2016 6.01244C10.4568 5.93593 10.6522 5.72985 10.715 5.47101ZM10.25 12C10.25 11.0335 11.0335 10.25 12 10.25C12.9665 10.25 13.75 11.0335 13.75 12C13.75 12.9665 12.9665 13.75 12 13.75C11.0335 13.75 10.25 12.9665 10.25 12ZM12 8.75C10.2051 8.75 8.75 10.2051 8.75 12C8.75 13.7949 10.2051 15.25 12 15.25C13.7949 15.25 15.25 13.7949 15.25 12C15.25 10.2051 13.7949 8.75 12 8.75Z" fill="#23262A"/>
</svg>
