<svg width="24" height="24" viewBox="0 0 24 24" fill="none" xmlns="http://www.w3.org/2000/svg">
<path fill-rule="evenodd" clip-rule="evenodd" d="M9.81438 2.82304C9.89603 2.48676 10.1972 2.25 10.5432 2.25H13.4568C13.8028 2.25 14.104 2.48676 14.1856 2.82304L14.6445 4.71318C14.8619 4.79207 15.0746 4.88038 15.2824 4.97763L16.9574 3.95711C17.2529 3.77706 17.6332 3.82257 17.8779 4.06726L19.9328 6.12213C20.1775 6.36682 20.223 6.74716 20.0429 7.04268L19.0224 8.71767C19.1197 8.9254 19.208 9.13818 19.2869 9.3555L21.177 9.81442C21.5132 9.89607 21.75 10.1972 21.75 10.5432V13.4569C21.75 13.8029 21.5132 14.104 21.177 14.1857L19.2869 14.6446C19.208 14.8619 19.1197 15.0747 19.0224 15.2824L20.0429 16.9574C20.223 17.2529 20.1774 17.6332 19.9328 17.8779L17.8779 19.9328C17.6332 20.1775 17.2528 20.223 16.9573 20.043L15.2824 19.0225C15.0746 19.1197 14.8619 19.208 14.6445 19.2869L14.1856 21.177C14.104 21.5132 13.8029 21.75 13.4568 21.75H10.5432C10.1971 21.75 9.89601 21.5132 9.81436 21.177L9.35545 19.2869C9.13813 19.208 8.92536 19.1197 8.71764 19.0225L7.0427 20.043C6.74718 20.223 6.36683 20.1775 6.12214 19.9328L4.06725 17.8779C3.82256 17.6332 3.77705 17.2529 3.9571 16.9574L4.97759 15.2824C4.88035 15.0747 4.79203 14.8619 4.71314 14.6446L2.82304 14.1857C2.48676 14.104 2.25 13.8029 2.25 13.4569V10.5432C2.25 10.1972 2.48676 9.89607 2.82304 9.81442L4.71314 9.3555C4.79203 9.13818 4.88035 8.92541 4.97759 8.71769L3.95706 7.04268C3.77701 6.74716 3.82252 6.36682 4.06722 6.12212L6.12208 4.06726C6.36677 3.82257 6.74712 3.77706 7.04264 3.95711L8.71764 4.97763C8.92536 4.88039 9.13813 4.79207 9.35545 4.71318L9.81438 2.82304ZM12 10.25C11.0335 10.25 10.25 11.0335 10.25 12C10.25 12.9665 11.0335 13.75 12 13.75C12.9665 13.75 13.75 12.9665 13.75 12C13.75 11.0335 12.9665 10.25 12 10.25Z" fill="#23262A"/>
</svg>
