<svg width="24" height="24" viewBox="0 0 24 24" fill="none" xmlns="http://www.w3.org/2000/svg">
<path fill-rule="evenodd" clip-rule="evenodd" d="M8.26814 2.99218C10.2511 2.17082 12.4496 2.02672 14.5228 2.58223C16.596 3.13773 18.4279 4.3618 19.7345 6.06458C21.0411 7.76736 21.7493 9.85369 21.7493 12C21.7493 12.4142 21.4135 12.75 20.9993 12.75C20.5851 12.75 20.2493 12.4142 20.2493 12C20.2493 10.1839 19.65 8.41854 18.5445 6.97772C17.4389 5.53691 15.8888 4.50116 14.1346 4.03112C12.3803 3.56107 10.52 3.683 8.84217 4.378C7.1643 5.07299 5.76265 6.30221 4.8546 7.875C4.68487 8.16898 4.33885 8.3123 4.01096 8.22445C3.68308 8.13659 3.45508 7.83946 3.45508 7.5V3C3.45508 2.58579 3.79086 2.25 4.20508 2.25C4.61929 2.25 4.95508 2.58579 4.95508 3V5.25898C5.88448 4.28779 7.01068 3.51304 8.26814 2.99218ZM11.3773 6.25C11.1183 6.25 10.8776 6.38367 10.7407 6.60357L10.1546 7.54479L9.06468 7.29135C8.81237 7.23268 8.54765 7.30836 8.36448 7.49153L7.49153 8.36448C7.30836 8.54765 7.23268 8.81237 7.29135 9.06468L7.54479 10.1546L6.60357 10.7407C6.38367 10.8776 6.25 11.1183 6.25 11.3773V12.6227C6.25 12.8817 6.38367 13.1224 6.60357 13.2593L7.54479 13.8454L7.29135 14.9353C7.23268 15.1876 7.30836 15.4524 7.49153 15.6355L8.36448 16.5085C8.54765 16.6916 8.81237 16.7673 9.06468 16.7087L10.1546 16.4552L10.7407 17.3964C10.8776 17.6163 11.1183 17.75 11.3773 17.75H12.6227C12.8817 17.75 13.1224 17.6163 13.2593 17.3964L13.8454 16.4552L14.9353 16.7087C15.1876 16.7673 15.4524 16.6916 15.6355 16.5085L16.5085 15.6355C16.6916 15.4524 16.7673 15.1876 16.7087 14.9353L16.4552 13.8454L17.3964 13.2593C17.6163 13.1224 17.75 12.8817 17.75 12.6227V11.3773C17.75 11.1183 17.6163 10.8776 17.3964 10.7407L16.4552 10.1546L16.7087 9.06468C16.7673 8.81237 16.6916 8.54765 16.5085 8.36448L15.6355 7.49153C15.4524 7.30836 15.1876 7.23268 14.9353 7.29135L13.8454 7.54479L13.2593 6.60357C13.1224 6.38367 12.8817 6.25 12.6227 6.25H11.3773ZM12 11C11.4477 11 11 11.4477 11 12C11 12.5523 11.4477 13 12 13C12.5523 13 13 12.5523 13 12C13 11.4477 12.5523 11 12 11ZM3.75 12C3.75 11.5858 3.41421 11.25 3 11.25C2.58579 11.25 2.25 11.5858 2.25 12C2.25 14.1463 2.95821 16.2326 4.2648 17.9354C5.57139 19.6382 7.40334 20.8623 9.47651 21.4178C11.5497 21.9733 13.7482 21.8292 15.7312 21.0078C16.9886 20.487 18.1148 19.7122 19.0442 18.741V21C19.0442 21.4142 19.38 21.75 19.7942 21.75C20.2084 21.75 20.5442 21.4142 20.5442 21V16.5C20.5442 16.1605 20.3162 15.8634 19.9883 15.7756C19.6605 15.6877 19.3144 15.831 19.1447 16.125C18.2367 17.6978 16.835 18.927 15.1571 19.622C13.4793 20.317 11.619 20.4389 9.86474 19.9689C8.11052 19.4988 6.56041 18.4631 5.45483 17.0223C4.34926 15.5815 3.75 13.8161 3.75 12Z" fill="#23262A"/>
</svg>
