<svg width="24" height="24" viewBox="0 0 24 24" fill="none" xmlns="http://www.w3.org/2000/svg">
<path fill-rule="evenodd" clip-rule="evenodd" d="M14.5233 2.58223C12.4501 2.02672 10.2516 2.17082 8.26863 2.99218C7.01117 3.51304 5.88497 4.28779 4.95557 5.25898V3C4.95557 2.58579 4.61978 2.25 4.20557 2.25C3.79135 2.25 3.45557 2.58579 3.45557 3V7.5C3.45557 7.83946 3.68356 8.13659 4.01145 8.22445C4.33934 8.3123 4.68536 8.16898 4.85509 7.875C5.76314 6.30221 7.16479 5.07299 8.84266 4.378C10.5205 3.683 12.3808 3.56107 14.1351 4.03112C15.8893 4.50116 17.4394 5.53691 18.545 6.97772C19.6505 8.41854 20.2498 10.1839 20.2498 12C20.2498 12.4142 20.5856 12.75 20.9998 12.75C21.414 12.75 21.7498 12.4142 21.7498 12C21.7498 9.85369 21.0416 7.76736 19.735 6.06458C18.4284 4.3618 16.5965 3.13773 14.5233 2.58223ZM11.3773 6.25C11.1183 6.25 10.8776 6.38367 10.7407 6.60357L10.1546 7.54479L9.06468 7.29135C8.81237 7.23268 8.54765 7.30836 8.36448 7.49153L7.49153 8.36448C7.30836 8.54765 7.23268 8.81237 7.29135 9.06468L7.54479 10.1546L6.60357 10.7407C6.38367 10.8776 6.25 11.1183 6.25 11.3773V12.6227C6.25 12.8817 6.38367 13.1224 6.60357 13.2593L7.54479 13.8454L7.29135 14.9353C7.23268 15.1876 7.30836 15.4524 7.49153 15.6355L8.36448 16.5085C8.54765 16.6916 8.81237 16.7673 9.06468 16.7087L10.1546 16.4552L10.7407 17.3964C10.8776 17.6163 11.1183 17.75 11.3773 17.75H12.6227C12.8817 17.75 13.1224 17.6163 13.2593 17.3964L13.8454 16.4552L14.9353 16.7087C15.1876 16.7673 15.4524 16.6916 15.6355 16.5085L16.5085 15.6355C16.6916 15.4524 16.7673 15.1876 16.7087 14.9353L16.4552 13.8454L17.3964 13.2593C17.6163 13.1224 17.75 12.8817 17.75 12.6227V11.3773C17.75 11.1183 17.6163 10.8776 17.3964 10.7407L16.4552 10.1546L16.7087 9.06468C16.7673 8.81237 16.6916 8.54765 16.5085 8.36448L15.6355 7.49153C15.4524 7.30836 15.1876 7.23268 14.9353 7.29135L13.8454 7.54479L13.2593 6.60357C13.1224 6.38367 12.8817 6.25 12.6227 6.25H11.3773ZM11.2338 8.64933L11.7938 7.75H12.2062L12.7662 8.64933C12.8536 8.7897 12.9849 8.89725 13.1398 8.95525C13.2098 8.98148 13.2787 9.01007 13.3464 9.04092C13.497 9.10959 13.6661 9.1265 13.8274 9.08901L14.8694 8.8467L15.1533 9.13063L14.911 10.1726C14.8735 10.3339 14.8904 10.503 14.9591 10.6536C14.9899 10.7213 15.0185 10.7902 15.0448 10.8602C15.1027 11.0151 15.2103 11.1464 15.3507 11.2338L16.25 11.7938V12.2062L15.3507 12.7662C15.2103 12.8536 15.1027 12.9849 15.0448 13.1398C15.0185 13.2098 14.9899 13.2787 14.9591 13.3464C14.8904 13.497 14.8735 13.6661 14.911 13.8274L15.1533 14.8694L14.8694 15.1533L13.8274 14.911C13.6661 14.8735 13.497 14.8904 13.3464 14.9591C13.2787 14.9899 13.2098 15.0185 13.1398 15.0448C12.9849 15.1027 12.8536 15.2103 12.7662 15.3507L12.2062 16.25H11.7938L11.2338 15.3507C11.1464 15.2103 11.0151 15.1027 10.8602 15.0448C10.7902 15.0185 10.7213 14.9899 10.6536 14.9591C10.503 14.8904 10.3339 14.8735 10.1726 14.911L9.13063 15.1533L8.8467 14.8694L9.08901 13.8274C9.1265 13.6661 9.10959 13.497 9.04092 13.3464C9.01007 13.2787 8.98148 13.2098 8.95525 13.1398C8.89725 12.9849 8.7897 12.8536 8.64933 12.7662L7.75 12.2062V11.7938L8.64933 11.2338C8.7897 11.1464 8.89725 11.0151 8.95525 10.8602C8.98148 10.7902 9.01007 10.7213 9.04092 10.6536C9.10959 10.503 9.1265 10.3339 9.08901 10.1726L8.8467 9.13063L9.13063 8.8467L10.1726 9.08901C10.3339 9.1265 10.503 9.10959 10.6536 9.04092C10.7213 9.01007 10.7902 8.98148 10.8602 8.95525C11.0151 8.89725 11.1464 8.7897 11.2338 8.64933ZM3 11.25C3.41421 11.25 3.75 11.5858 3.75 12C3.75 13.8161 4.34926 15.5815 5.45483 17.0223C6.56041 18.4631 8.11052 19.4988 9.86474 19.9689C11.619 20.4389 13.4793 20.317 15.1571 19.622C16.835 18.927 18.2367 17.6978 19.1447 16.125C19.3144 15.831 19.6605 15.6877 19.9883 15.7756C20.3162 15.8634 20.5442 16.1605 20.5442 16.5V21C20.5442 21.4142 20.2084 21.75 19.7942 21.75C19.38 21.75 19.0442 21.4142 19.0442 21V18.741C18.1148 19.7122 16.9886 20.487 15.7312 21.0078C13.7482 21.8292 11.5497 21.9733 9.47651 21.4178C7.40334 20.8623 5.57139 19.6382 4.2648 17.9354C2.95821 16.2326 2.25 14.1463 2.25 12C2.25 11.5858 2.58579 11.25 3 11.25ZM12 11C11.4477 11 11 11.4477 11 12C11 12.5523 11.4477 13 12 13C12.5523 13 13 12.5523 13 12C13 11.4477 12.5523 11 12 11Z" fill="#23262A"/>
</svg>
