<svg width="24" height="24" viewBox="0 0 24 24" fill="none" xmlns="http://www.w3.org/2000/svg">
<path fill-rule="evenodd" clip-rule="evenodd" d="M5.25 3C5.25 2.58579 5.58579 2.25 6 2.25H18C18.4142 2.25 18.75 2.58579 18.75 3V11C18.75 11.1381 18.6381 11.25 18.5 11.25H8C7.86193 11.25 7.75 11.1381 7.75 11V10.5C7.75 10.0858 7.41421 9.75 7 9.75H5.5C5.36193 9.75 5.25 9.63807 5.25 9.5V3ZM5.5 11.25C5.36193 11.25 5.25 11.3619 5.25 11.5V12.5C5.25 12.6381 5.36193 12.75 5.5 12.75H6C6.13807 12.75 6.25 12.6381 6.25 12.5V11.5C6.25 11.3619 6.13807 11.25 6 11.25H5.5ZM5.5 14.25C5.36193 14.25 5.25 14.3619 5.25 14.5V21C5.25 21.4142 5.58579 21.75 6 21.75H18C18.4142 21.75 18.75 21.4142 18.75 21V13C18.75 12.8619 18.6381 12.75 18.5 12.75H8C7.86193 12.75 7.75 12.8619 7.75 13V13.5C7.75 13.9142 7.41421 14.25 7 14.25H5.5ZM13 14.06C13.4142 14.06 13.75 14.3958 13.75 14.81V15.511L14.3573 15.1604C14.716 14.9533 15.1747 15.0762 15.3818 15.4349C15.5889 15.7936 15.466 16.2523 15.1073 16.4594L14.5002 16.8099L15.1073 17.1604C15.466 17.3675 15.5889 17.8262 15.3818 18.1849C15.1747 18.5436 14.716 18.6665 14.3573 18.4594L13.75 18.1088V18.81C13.75 19.2242 13.4142 19.56 13 19.56C12.5858 19.56 12.25 19.2242 12.25 18.81V18.1091L11.6432 18.4594C11.2845 18.6665 10.8258 18.5436 10.6187 18.1849C10.4116 17.8262 10.5345 17.3675 10.8932 17.1604L11.5002 16.8099L10.8932 16.4594C10.5345 16.2523 10.4116 15.7936 10.6187 15.4349C10.8258 15.0762 11.2845 14.9533 11.6432 15.1604L12.25 15.5107V14.81C12.25 14.3958 12.5858 14.06 13 14.06ZM13.5303 4.78033L13 4.25L12.4697 4.78033C12.1961 5.05389 11.7882 5.50781 11.4426 6.01538C11.1218 6.48644 10.75 7.15128 10.75 7.81066C10.75 9.0533 11.7574 10.0607 13 10.0607C14.2426 10.0607 15.25 9.0533 15.25 7.81066C15.25 7.15128 14.8782 6.48644 14.5574 6.01538C14.2118 5.50781 13.8039 5.05389 13.5303 4.78033ZM12.25 7.81066C12.25 7.64161 12.3782 7.30645 12.6824 6.85962C12.7829 6.712 12.8916 6.56807 13 6.43374C13.1084 6.56807 13.2171 6.712 13.3176 6.85962C13.6218 7.30645 13.75 7.64161 13.75 7.81066C13.75 8.22487 13.4142 8.56066 13 8.56066C12.5858 8.56066 12.25 8.22487 12.25 7.81066Z" fill="#23262A"/>
</svg>
