<svg width="24" height="24" viewBox="0 0 24 24" fill="none" xmlns="http://www.w3.org/2000/svg">
<path fill-rule="evenodd" clip-rule="evenodd" d="M5.25 3C5.25 2.58579 5.58579 2.25 6 2.25H18C18.4142 2.25 18.75 2.58579 18.75 3V12V21C18.75 21.4142 18.4142 21.75 18 21.75H6C5.58579 21.75 5.25 21.4142 5.25 21V13.5V10.5V3ZM6.75 11.25V12.75H7.25V12V11.25H6.75ZM8.75 11.25V10.5C8.75 10.0858 8.41421 9.75 8 9.75H6.75V3.75H17.25V11.25H8.75ZM8.75 12.75V13.5C8.75 13.9142 8.41421 14.25 8 14.25H6.75V20.25H17.25V12.75H8.75ZM13 13.75C13.4142 13.75 13.75 14.0858 13.75 14.5V15.201L14.3572 14.8505C14.7159 14.6434 15.1746 14.7663 15.3817 15.125C15.5888 15.4837 15.4659 15.9424 15.1072 16.1495L14.5001 16.5L15.1072 16.8505C15.4659 17.0576 15.5888 17.5163 15.3817 17.875C15.1746 18.2337 14.7159 18.3566 14.3572 18.1495L13.75 17.799V18.5C13.75 18.9142 13.4142 19.25 13 19.25C12.5858 19.25 12.25 18.9142 12.25 18.5V17.7991L11.6431 18.1495C11.2843 18.3566 10.8257 18.2337 10.6185 17.875C10.4114 17.5163 10.5343 17.0576 10.8931 16.8505L11.5001 16.5L10.8931 16.1495C10.5343 15.9424 10.4114 15.4837 10.6185 15.125C10.8257 14.7663 11.2843 14.6434 11.6431 14.8505L12.25 15.2009V14.5C12.25 14.0858 12.5858 13.75 13 13.75ZM13.5303 4.96967L13 4.43934L12.4697 4.96967C12.1961 5.24323 11.7882 5.69715 11.4426 6.20472C11.1218 6.67578 10.75 7.34062 10.75 8C10.75 9.24264 11.7574 10.25 13 10.25C14.2426 10.25 15.25 9.24264 15.25 8C15.25 7.34062 14.8782 6.67578 14.5574 6.20472C14.2118 5.69715 13.8039 5.24323 13.5303 4.96967ZM12.25 8C12.25 7.83095 12.3782 7.49579 12.6824 7.04896C12.7829 6.90134 12.8916 6.75741 13 6.62308C13.1084 6.75741 13.2171 6.90134 13.3176 7.04896C13.6218 7.49579 13.75 7.83095 13.75 8C13.75 8.41421 13.4142 8.75 13 8.75C12.5858 8.75 12.25 8.41421 12.25 8Z" fill="#262626"/>
</svg>
