<svg width="24" height="24" viewBox="0 0 24 24" fill="none" xmlns="http://www.w3.org/2000/svg">
<path fill-rule="evenodd" clip-rule="evenodd" d="M5.25 3C5.25 2.58579 5.58579 2.25 6 2.25H18C18.4142 2.25 18.75 2.58579 18.75 3V12V21C18.75 21.4142 18.4142 21.75 18 21.75H6C5.58579 21.75 5.25 21.4142 5.25 21V13.5V10.5V3ZM6.75 11.25V12.75H7.25V12V11.25H6.75ZM8.75 11.25V10.5C8.75 10.0858 8.41421 9.75 8 9.75H6.75V3.75H17.25V11.25H8.75ZM8.75 12.75V13.5C8.75 13.9142 8.41421 14.25 8 14.25H6.75V20.25H17.25V12.75H8.75ZM13 4.75C13.4142 4.75 13.75 5.08579 13.75 5.5V6.20103L14.3572 5.85048C14.7159 5.64337 15.1746 5.76628 15.3817 6.125C15.5888 6.48372 15.4659 6.94241 15.1072 7.14952L14.5001 7.5L15.1072 7.85048C15.4659 8.05759 15.5888 8.51628 15.3817 8.875C15.1746 9.23372 14.7159 9.35663 14.3572 9.14952L13.75 8.79897V9.5C13.75 9.91421 13.4142 10.25 13 10.25C12.5858 10.25 12.25 9.91421 12.25 9.5V8.79911L11.6431 9.14952C11.2843 9.35663 10.8257 9.23372 10.6185 8.875C10.4114 8.51628 10.5343 8.05759 10.8931 7.85048L11.5001 7.5L10.8931 7.14952C10.5343 6.94241 10.4114 6.48372 10.6185 6.125C10.8257 5.76628 11.2843 5.64337 11.6431 5.85048L12.25 6.20089V5.5C12.25 5.08579 12.5858 4.75 13 4.75ZM13.5303 13.9697L13 13.4393L12.4697 13.9697C12.1961 14.2432 11.7882 14.6971 11.4426 15.2047C11.1218 15.6758 10.75 16.3406 10.75 17C10.75 18.2426 11.7574 19.25 13 19.25C14.2426 19.25 15.25 18.2426 15.25 17C15.25 16.3406 14.8782 15.6758 14.5574 15.2047C14.2118 14.6971 13.8039 14.2432 13.5303 13.9697ZM12.25 17C12.25 16.8309 12.3782 16.4958 12.6824 16.049C12.7829 15.9013 12.8916 15.7574 13 15.6231C13.1084 15.7574 13.2171 15.9013 13.3176 16.049C13.6218 16.4958 13.75 16.8309 13.75 17C13.75 17.4142 13.4142 17.75 13 17.75C12.5858 17.75 12.25 17.4142 12.25 17Z" fill="#262626"/>
</svg>
