<svg width="24" height="24" viewBox="0 0 24 24" fill="none" xmlns="http://www.w3.org/2000/svg">
<path fill-rule="evenodd" clip-rule="evenodd" d="M12.5303 2.46967C12.2374 2.17678 11.7626 2.17678 11.4697 2.46967L7.96967 5.96967C7.67678 6.26256 7.67678 6.73744 7.96967 7.03033L11.4697 10.5303C11.7626 10.8232 12.2374 10.8232 12.5303 10.5303L16.0303 7.03033C16.3232 6.73744 16.3232 6.26256 16.0303 5.96967L12.5303 2.46967ZM18.0303 7.96967C17.7374 7.67678 17.2626 7.67678 16.9697 7.96967L13.4697 11.4697C13.1768 11.7626 13.1768 12.2374 13.4697 12.5303L16.9697 16.0303C17.2626 16.3232 17.7374 16.3232 18.0303 16.0303L21.5303 12.5303C21.8232 12.2374 21.8232 11.7626 21.5303 11.4697L18.0303 7.96967ZM5.96967 7.96967C6.26256 7.67678 6.73744 7.67678 7.03033 7.96967L10.5303 11.4697C10.8232 11.7626 10.8232 12.2374 10.5303 12.5303L7.03033 16.0303C6.73744 16.3232 6.26256 16.3232 5.96967 16.0303L2.46967 12.5303C2.17678 12.2374 2.17678 11.7626 2.46967 11.4697L5.96967 7.96967ZM12.5303 13.4697C12.2374 13.1768 11.7626 13.1768 11.4697 13.4697L7.96967 16.9697C7.67678 17.2626 7.67678 17.7374 7.96967 18.0303L11.4697 21.5303C11.7626 21.8232 12.2374 21.8232 12.5303 21.5303L16.0303 18.0303C16.3232 17.7374 16.3232 17.2626 16.0303 16.9697L12.5303 13.4697Z" fill="#23262A"/>
</svg>
