<svg width="24" height="24" viewBox="0 0 24 24" fill="none" xmlns="http://www.w3.org/2000/svg">
<path fill-rule="evenodd" clip-rule="evenodd" d="M12.5305 2.46967C12.2376 2.17678 11.7627 2.17678 11.4698 2.46967L7.96979 5.96967C7.6769 6.26256 7.6769 6.73744 7.96979 7.03033L11.4698 10.5303C11.7627 10.8232 12.2376 10.8232 12.5305 10.5303L16.0305 7.03033C16.3233 6.73744 16.3233 6.26256 16.0305 5.96967L12.5305 2.46967ZM12.0001 8.93934L9.56078 6.5L12.0001 4.06066L14.4395 6.5L12.0001 8.93934ZM18.0305 7.96967C17.7376 7.67678 17.2627 7.67678 16.9698 7.96967L13.4698 11.4697C13.1769 11.7626 13.1769 12.2374 13.4698 12.5303L16.9698 16.0303C17.2627 16.3232 17.7376 16.3232 18.0305 16.0303L21.5305 12.5303C21.8233 12.2374 21.8233 11.7626 21.5305 11.4697L18.0305 7.96967ZM17.5001 14.4393L15.0608 12L17.5001 9.56066L19.9395 12L17.5001 14.4393ZM5.96979 7.96967C6.26269 7.67678 6.73756 7.67678 7.03045 7.96967L10.5305 11.4697C10.8233 11.7626 10.8233 12.2374 10.5305 12.5303L7.03045 16.0303C6.73756 16.3232 6.26269 16.3232 5.96979 16.0303L2.46979 12.5303C2.1769 12.2374 2.1769 11.7626 2.46979 11.4697L5.96979 7.96967ZM4.06078 12L6.50012 14.4393L8.93946 12L6.50012 9.56066L4.06078 12ZM12.53 13.4697C12.2371 13.1768 11.7622 13.1768 11.4693 13.4697L7.96935 16.9697C7.67646 17.2626 7.67646 17.7374 7.96935 18.0303L11.4693 21.5303C11.7622 21.8232 12.2371 21.8232 12.53 21.5303L16.03 18.0303C16.3229 17.7374 16.3229 17.2626 16.03 16.9697L12.53 13.4697ZM11.9997 19.9393L9.56034 17.5L11.9997 15.0607L14.439 17.5L11.9997 19.9393Z" fill="#23262A"/>
</svg>
