<svg width="24" height="24" viewBox="0 0 24 24" fill="none" xmlns="http://www.w3.org/2000/svg">
<path fill-rule="evenodd" clip-rule="evenodd" d="M3.75 12C3.75 7.44365 7.44365 3.75 12 3.75C16.5563 3.75 20.25 7.44365 20.25 12C20.25 16.5563 16.5563 20.25 12 20.25C7.44365 20.25 3.75 16.5563 3.75 12ZM12 2.25C6.61522 2.25 2.25 6.61522 2.25 12C2.25 17.3848 6.61522 21.75 12 21.75C17.3848 21.75 21.75 17.3848 21.75 12C21.75 6.61522 17.3848 2.25 12 2.25ZM16.4834 9.96973C16.6254 9.72376 16.6163 9.41868 16.4599 9.18163C16.3034 8.94458 16.0265 8.81623 15.7445 8.85007L10.49 9.48065C10.2555 9.5088 10.0479 9.64576 9.9298 9.85031L7.5165 14.0303C7.37449 14.2762 7.3836 14.5813 7.54004 14.8184C7.69647 15.0554 7.97339 15.1838 8.25538 15.1499L13.5099 14.5194C13.7445 14.4912 13.952 14.3542 14.0701 14.1497L16.4834 9.96973ZM9.5651 13.482L11.0412 10.9253L14.4348 10.518L12.9587 13.0747L9.5651 13.482Z" fill="#23262A"/>
</svg>
