<svg width="24" height="24" viewBox="0 0 24 24" fill="none" xmlns="http://www.w3.org/2000/svg">
<path fill-rule="evenodd" clip-rule="evenodd" d="M12 2.25C6.61522 2.25 2.25 6.61522 2.25 12C2.25 17.3848 6.61522 21.75 12 21.75C17.3848 21.75 21.75 17.3848 21.75 12C21.75 6.61522 17.3848 2.25 12 2.25ZM16.4834 9.96974C16.6254 9.72378 16.6163 9.4187 16.4599 9.18165C16.3034 8.94459 16.0265 8.81624 15.7445 8.85008L10.49 9.48067C10.2555 9.50881 10.0479 9.64578 9.9298 9.85033L7.5165 14.0303C7.37449 14.2763 7.3836 14.5813 7.54004 14.8184C7.69647 15.0554 7.97339 15.1838 8.25538 15.15L13.5099 14.5194C13.7445 14.4912 13.952 14.3543 14.0701 14.1497L16.4834 9.96974Z" fill="#23262A"/>
</svg>
