<svg xmlns="http://www.w3.org/2000/svg" width="24" height="24" viewBox="0 0 24 24" fill="none">
  <path fill-rule="evenodd" clip-rule="evenodd" d="M6 2.25C8.07107 2.25 9.75 3.92893 9.75 6C9.75 7.81421 8.46166 9.32734 6.75 9.6748V14.3242C8.21941 14.6224 9.37652 15.7806 9.6748 17.25H12.3369C12.7046 15.5649 14.2046 14.3027 16 14.3027C16.4169 14.3027 16.8178 14.3715 17.1924 14.4971L20.0068 9.625C20.214 9.26639 20.6726 9.14351 21.0312 9.35059C21.3898 9.5577 21.5126 10.0164 21.3057 10.375L18.4902 15.25C19.2628 15.9368 19.7499 16.9377 19.75 18.0527C19.75 20.1238 18.0711 21.8027 16 21.8027C14.1672 21.8027 12.6422 20.4879 12.3154 18.75H9.6748C9.32734 20.4617 7.81421 21.75 6 21.75C3.92893 21.75 2.25 20.0711 2.25 18C2.25 16.1857 3.53824 14.6716 5.25 14.3242V9.6748C3.53834 9.32734 2.25 7.81421 2.25 6C2.25 3.92893 3.92893 2.25 6 2.25ZM16 15.8027C14.7574 15.8027 13.7501 16.8102 13.75 18.0527C13.75 19.2954 14.7574 20.3027 16 20.3027C17.2426 20.3027 18.25 19.2954 18.25 18.0527C18.2499 17.2479 17.8259 16.5441 17.1904 16.1465C17.1688 16.1366 17.147 16.1254 17.126 16.1133C17.0998 16.0982 17.0754 16.0811 17.0518 16.0635C16.7379 15.8972 16.3799 15.8027 16 15.8027ZM6 15.75C4.75736 15.75 3.75 16.7574 3.75 18C3.75 19.2426 4.75736 20.25 6 20.25C7.24264 20.25 8.25 19.2426 8.25 18C8.25 16.7574 7.24264 15.75 6 15.75ZM6 3.75C4.75736 3.75 3.75 4.75736 3.75 6C3.75 7.24264 4.75736 8.25 6 8.25C7.24264 8.25 8.25 7.24264 8.25 6C8.25 4.75736 7.24264 3.75 6 3.75Z" fill="#202733"/>
  <path fill-rule="evenodd" clip-rule="evenodd" d="M16 2.25C18.0711 2.25 19.75 3.92893 19.75 6C19.75 8.07107 18.0711 9.75 16 9.75C13.9289 9.75 12.25 8.07107 12.25 6C12.25 3.92893 13.9289 2.25 16 2.25ZM16 3.75C14.7574 3.75 13.75 4.75736 13.75 6C13.75 7.24264 14.7574 8.25 16 8.25C17.2426 8.25 18.25 7.24264 18.25 6C18.25 4.75736 17.2426 3.75 16 3.75Z" fill="#202733"/>
</svg>