<svg xmlns="http://www.w3.org/2000/svg" width="24" height="24" viewBox="0 0 24 24" fill="none">
  <path d="M6 2.25C8.07107 2.25 9.75 3.92893 9.75 6C9.75 7.81421 8.46166 9.32734 6.75 9.6748V14.3242C8.21941 14.6224 9.37652 15.7806 9.6748 17.25H12.3369C12.7046 15.5649 14.2046 14.3027 16 14.3027C16.4169 14.3027 16.8178 14.3715 17.1924 14.4971L20.0068 9.625C20.214 9.26639 20.6726 9.14351 21.0312 9.35059C21.3898 9.5577 21.5126 10.0163 21.3057 10.375L18.4902 15.25C19.2628 15.9368 19.7499 16.9377 19.75 18.0527C19.75 20.1238 18.0711 21.8027 16 21.8027C14.1672 21.8027 12.6422 20.4879 12.3154 18.75H9.6748C9.32734 20.4617 7.81421 21.75 6 21.75C3.92893 21.75 2.25 20.0711 2.25 18C2.25 16.1857 3.53824 14.6716 5.25 14.3242V9.6748C3.53834 9.32734 2.25 7.81421 2.25 6C2.25 3.92893 3.92893 2.25 6 2.25Z" fill="#202733"/>
  <path d="M16 2.25C18.0711 2.25 19.75 3.92893 19.75 6C19.75 8.07107 18.0711 9.75 16 9.75C13.9289 9.75 12.25 8.07107 12.25 6C12.25 3.92893 13.9289 2.25 16 2.25Z" fill="#202733"/>
</svg>