<svg width="24" height="24" viewBox="0 0 24 24" fill="none" xmlns="http://www.w3.org/2000/svg">
<path fill-rule="evenodd" clip-rule="evenodd" d="M12 2.25C12.4142 2.25 12.75 2.58579 12.75 3V4.25H14.25V3C14.25 2.58579 14.5858 2.25 15 2.25C15.4142 2.25 15.75 2.58579 15.75 3V4.25H17C18.5188 4.25 19.75 5.48122 19.75 7V8.25H21C21.4142 8.25 21.75 8.58579 21.75 9C21.75 9.41421 21.4142 9.75 21 9.75H19.75V11.25H21C21.4142 11.25 21.75 11.5858 21.75 12C21.75 12.4142 21.4142 12.75 21 12.75H19.75V14.25H21C21.4142 14.25 21.75 14.5858 21.75 15C21.75 15.4142 21.4142 15.75 21 15.75H19.75V17C19.75 18.5188 18.5188 19.75 17 19.75H15.75V21C15.75 21.4142 15.4142 21.75 15 21.75C14.5858 21.75 14.25 21.4142 14.25 21V19.75H12.75V21C12.75 21.4142 12.4142 21.75 12 21.75C11.5858 21.75 11.25 21.4142 11.25 21V19.75H9.75V21C9.75 21.4142 9.41421 21.75 9 21.75C8.58579 21.75 8.25 21.4142 8.25 21V19.75H7C5.48122 19.75 4.25 18.5188 4.25 17V15.75H3C2.58579 15.75 2.25 15.4142 2.25 15C2.25 14.5858 2.58579 14.25 3 14.25H4.25V12.75H3C2.58579 12.75 2.25 12.4142 2.25 12C2.25 11.5858 2.58579 11.25 3 11.25H4.25V9.75H3C2.58579 9.75 2.25 9.41421 2.25 9C2.25 8.58579 2.58579 8.25 3 8.25H4.25V7C4.25 5.48122 5.48122 4.25 7 4.25H8.25V3C8.25 2.58579 8.58579 2.25 9 2.25C9.41421 2.25 9.75 2.58579 9.75 3V4.25H11.25V3C11.25 2.58579 11.5858 2.25 12 2.25ZM5.75 9V12V15L5.75 17C5.75 17.6904 6.30964 18.25 7 18.25H9H12H15H17C17.6904 18.25 18.25 17.6904 18.25 17V15V12V9V7C18.25 6.30964 17.6904 5.75 17 5.75H15H12H9H7C6.30964 5.75 5.75 6.30964 5.75 7L5.75 9ZM8 7.25C7.58579 7.25 7.25 7.58579 7.25 8V16C7.25 16.4142 7.58579 16.75 8 16.75H16C16.4142 16.75 16.75 16.4142 16.75 16V8C16.75 7.58579 16.4142 7.25 16 7.25H8ZM8.75 15.25V8.75H15.25V15.25H8.75Z" fill="#202733"/>
</svg>
