<svg width="24" height="24" viewBox="0 0 24 24" fill="none" xmlns="http://www.w3.org/2000/svg">
<path fill-rule="evenodd" clip-rule="evenodd" d="M8.26863 2.99218C10.2516 2.17082 12.4501 2.02672 14.5233 2.58223C16.5965 3.13773 18.4284 4.3618 19.735 6.06458C21.0416 7.76736 21.7498 9.85369 21.7498 12C21.7498 12.4142 21.414 12.75 20.9998 12.75C20.5856 12.75 20.2498 12.4142 20.2498 12C20.2498 10.1839 19.6505 8.41854 18.545 6.97772C17.4394 5.53691 15.8893 4.50116 14.1351 4.03112C12.3808 3.56107 10.5205 3.683 8.84266 4.378C7.16479 5.07299 5.76314 6.30221 4.85509 7.875C4.68536 8.16898 4.33934 8.3123 4.01145 8.22445C3.68356 8.13659 3.45557 7.83946 3.45557 7.5V3C3.45557 2.58579 3.79135 2.25 4.20557 2.25C4.61978 2.25 4.95557 2.58579 4.95557 3V5.25898C5.88497 4.28779 7.01117 3.51304 8.26863 2.99218ZM11.4685 9.29218C11.717 8.96081 11.6498 8.4907 11.3185 8.24218C10.9871 7.99365 10.517 8.06081 10.2685 8.39218L8.46065 10.8026V8.84218C8.46065 8.42796 8.12486 8.09218 7.71065 8.09218C7.29643 8.09218 6.96065 8.42796 6.96065 8.84218V15.1578C6.96065 15.572 7.29643 15.9078 7.71065 15.9078C8.12486 15.9078 8.46065 15.572 8.46065 15.1578V13.1974L10.2685 15.6078C10.517 15.9392 10.9871 16.0064 11.3185 15.7578C11.6498 15.5093 11.717 15.0392 11.4685 14.7078L9.4376 12L11.4685 9.29218ZM12.4868 8.84218C12.4868 8.42796 12.8226 8.09218 13.2368 8.09218H15.2105C16.4967 8.09218 17.5394 9.13487 17.5394 10.4211C17.5394 11.3172 17.0333 12.0951 16.2913 12.4846L17.4602 14.8224C17.6455 15.1929 17.4953 15.6434 17.1248 15.8286C16.7543 16.0139 16.3038 15.8637 16.1186 15.4932L14.747 12.75H13.9868V15.1578C13.9868 15.572 13.6511 15.9078 13.2368 15.9078C12.8226 15.9078 12.4868 15.572 12.4868 15.1578V8.84218ZM15.2216 11.2499C15.2125 11.2498 15.2034 11.2498 15.1942 11.25H13.9868V9.59218H15.2105C15.6683 9.59218 16.0394 9.96329 16.0394 10.4211C16.0394 10.8752 15.6743 11.244 15.2216 11.2499ZM3.75 12C3.75 11.5858 3.41421 11.25 3 11.25C2.58579 11.25 2.25 11.5858 2.25 12C2.25 14.1463 2.95821 16.2326 4.2648 17.9354C5.57139 19.6382 7.40334 20.8623 9.47651 21.4178C11.5497 21.9733 13.7482 21.8292 15.7312 21.0078C16.9886 20.487 18.1148 19.7122 19.0442 18.741V21C19.0442 21.4142 19.38 21.75 19.7942 21.75C20.2084 21.75 20.5442 21.4142 20.5442 21V16.5C20.5442 16.1605 20.3162 15.8634 19.9883 15.7756C19.6605 15.6877 19.3144 15.831 19.1447 16.125C18.2367 17.6978 16.835 18.927 15.1571 19.622C13.4793 20.317 11.619 20.4389 9.86474 19.9689C8.11052 19.4988 6.56041 18.4631 5.45483 17.0223C4.34926 15.5815 3.75 13.8161 3.75 12Z" fill="#23262A"/>
</svg>
