<svg width="24" height="24" viewBox="0 0 24 24" fill="none" xmlns="http://www.w3.org/2000/svg">
<path fill-rule="evenodd" clip-rule="evenodd" d="M20.75 4.00001C20.75 3.75892 20.6341 3.53254 20.4385 3.39157C20.243 3.25061 19.9915 3.21226 19.7628 3.28849L19.4979 3.3768C17.5583 4.02334 16.25 5.8385 16.25 7.88304V11C16.25 12.5188 17.4812 13.75 19 13.75H19.25V20C19.25 20.4142 19.5858 20.75 20 20.75C20.4142 20.75 20.75 20.4142 20.75 20V4.00001ZM19.25 5.14417V12.25H19C18.3096 12.25 17.75 11.6904 17.75 11V7.88304C17.75 6.75636 18.3307 5.73149 19.25 5.14417ZM6.75 4C6.75 3.58579 6.41421 3.25 6 3.25C5.58579 3.25 5.25 3.58579 5.25 4V7.5C5.25 7.91421 5.58579 8.25 6 8.25C6.41421 8.25 6.75 7.91421 6.75 7.5V4ZM4.75 4C4.75 3.58579 4.41421 3.25 4 3.25C3.58579 3.25 3.25 3.58579 3.25 4V9C3.25 10.2588 4.09575 11.32 5.25 11.6465V20C5.25 20.4142 5.58579 20.75 6 20.75C6.41421 20.75 6.75 20.4142 6.75 20V11.6465C7.90425 11.32 8.75 10.2588 8.75 9V4C8.75 3.58579 8.41421 3.25 8 3.25C7.58579 3.25 7.25 3.58579 7.25 4V9C7.25 9.69036 6.69036 10.25 6 10.25C5.30964 10.25 4.75 9.69036 4.75 9V4ZM14.122 11.2781C13.8641 11.459 13.5723 11.5886 13.25 11.6657V20C13.25 20.4142 12.9142 20.75 12.5 20.75C12.0858 20.75 11.75 20.4142 11.75 20V11.6657C11.4277 11.5886 11.1358 11.459 10.8779 11.2781C10.4358 10.9681 10.145 10.5437 9.96201 10.0965C9.60811 9.2314 9.6239 8.20441 9.75785 7.39042C9.88854 6.38769 10.1275 5.41942 10.5146 4.67802C10.8946 3.95027 11.5298 3.25 12.4999 3.25C13.4574 3.25 14.0957 3.91656 14.4833 4.64925C14.873 5.38574 15.1118 6.35716 15.2423 7.39204C15.3759 8.20576 15.3915 9.23197 15.0378 10.0965C14.8549 10.5437 14.564 10.9681 14.122 11.2781ZM11.8443 5.37223C11.5717 5.89429 11.3634 6.6707 11.2437 7.5962L11.242 7.60979L11.2397 7.62331C11.1257 8.30716 11.1437 9.02347 11.3503 9.52852C11.4486 9.76881 11.5797 9.93817 11.7391 10.05C11.8953 10.1595 12.1299 10.25 12.5 10.25C12.8701 10.25 13.1045 10.1595 13.2607 10.05C13.4202 9.93817 13.5512 9.76881 13.6495 9.52853C13.8561 9.02347 13.8741 8.30716 13.7601 7.6233L13.7576 7.60821L13.7557 7.59303C13.6358 6.63349 13.4273 5.86072 13.1575 5.35075C12.8838 4.83344 12.647 4.75 12.4999 4.75C12.3655 4.75 12.1257 4.83324 11.8443 5.37223Z" fill="#23262A"/>
</svg>
