<svg width="24" height="24" viewBox="0 0 24 24" fill="none" xmlns="http://www.w3.org/2000/svg">
<path fill-rule="evenodd" clip-rule="evenodd" d="M20.4385 3.39157C20.6341 3.53253 20.75 3.75892 20.75 4V20C20.75 20.4142 20.4142 20.75 20 20.75C19.5858 20.75 19.25 20.4142 19.25 20V13.75H19C17.4812 13.75 16.25 12.5188 16.25 11V7.88304C16.25 5.83849 17.5583 4.02333 19.4979 3.37679L19.7628 3.28849C19.9915 3.21225 20.243 3.2506 20.4385 3.39157ZM19.25 12.25V5.14416C18.3307 5.73148 17.75 6.75636 17.75 7.88304V11C17.75 11.6904 18.3096 12.25 19 12.25H19.25ZM4.75 4C4.75 3.58579 4.41421 3.25 4 3.25C3.58579 3.25 3.25 3.58579 3.25 4V9C3.25 10.2588 4.09575 11.32 5.25 11.6465V20C5.25 20.4142 5.58579 20.75 6 20.75C6.41421 20.75 6.75 20.4142 6.75 20V11.6465C7.90425 11.32 8.75 10.2588 8.75 9V4C8.75 3.58579 8.41421 3.25 8 3.25C7.58579 3.25 7.25 3.58579 7.25 4V9C7.25 9.69036 6.69036 10.25 6 10.25C5.30964 10.25 4.75 9.69036 4.75 9V4ZM6.75 4.00001C6.75 3.58579 6.41421 3.25001 6 3.25001C5.58579 3.25001 5.25 3.58579 5.25 4.00001V7.50001C5.25 7.91422 5.58579 8.25001 6 8.25001C6.41421 8.25001 6.75 7.91422 6.75 7.50001V4.00001ZM11.75 11.6657C11.4277 11.5886 11.1358 11.459 10.8779 11.2781C10.4358 10.9681 10.145 10.5437 9.96202 10.0965C9.60812 9.2314 9.62391 8.20441 9.75786 7.39043C9.88855 6.38769 10.1275 5.41942 10.5146 4.67802C10.8946 3.95027 11.5298 3.25001 12.4999 3.25001C13.4575 3.25001 14.0957 3.91656 14.4833 4.64926C14.873 5.38574 15.1118 6.35716 15.2423 7.39205C15.376 8.20577 15.3915 9.23197 15.0378 10.0965C14.8549 10.5437 14.564 10.9681 14.122 11.2781C13.8641 11.459 13.5723 11.5886 13.25 11.6657V20C13.25 20.4142 12.9142 20.75 12.5 20.75C12.0858 20.75 11.75 20.4142 11.75 20V11.6657ZM11.2437 7.5962C11.3634 6.67071 11.5717 5.89429 11.8443 5.37224C12.1257 4.83324 12.3655 4.75001 12.4999 4.75001C12.647 4.75001 12.8838 4.83345 13.1575 5.35075C13.4273 5.86073 13.6358 6.6335 13.7557 7.59303L13.7576 7.60821L13.7601 7.6233C13.8741 8.30717 13.8561 9.02348 13.6495 9.52853C13.5512 9.76881 13.4202 9.93817 13.2607 10.05C13.1046 10.1595 12.87 10.25 12.4999 10.25C12.1298 10.25 11.8953 10.1595 11.7392 10.05C11.5797 9.93817 11.4486 9.76881 11.3503 9.52853C11.1437 9.02348 11.1257 8.30717 11.2397 7.62331L11.242 7.60979L11.2437 7.5962Z" fill="#23262A"/>
</svg>
