<svg width="24" height="24" viewBox="0 0 24 24" fill="none" xmlns="http://www.w3.org/2000/svg">
<path fill-rule="evenodd" clip-rule="evenodd" d="M20.4385 3.39157C20.6341 3.53254 20.75 3.75892 20.75 4.00001V20C20.75 20.4142 20.4142 20.75 20 20.75C19.5858 20.75 19.25 20.4142 19.25 20V13.75H19C17.4812 13.75 16.25 12.5188 16.25 11V7.88304C16.25 5.8385 17.5583 4.02334 19.4979 3.3768L19.7628 3.28849C19.9915 3.21226 20.243 3.25061 20.4385 3.39157ZM4 3.25C4.41421 3.25 4.75 3.58579 4.75 4V7.25C4.75 7.38807 4.86193 7.5 5 7.5C5.13807 7.5 5.25 7.38807 5.25 7.25V4C5.25 3.58579 5.58579 3.25 6 3.25C6.41421 3.25 6.75 3.58579 6.75 4V7.25C6.75 7.38807 6.86193 7.5 7 7.5C7.13807 7.5 7.25 7.38807 7.25 7.25V4C7.25 3.58579 7.58579 3.25 8 3.25C8.41421 3.25 8.75 3.58579 8.75 4V9C8.75 10.2588 7.90425 11.32 6.75 11.6465V20C6.75 20.4142 6.41421 20.75 6 20.75C5.58579 20.75 5.25 20.4142 5.25 20V11.6465C4.09575 11.32 3.25 10.2588 3.25 9V4C3.25 3.58579 3.58579 3.25 4 3.25ZM10.5146 4.67802C10.8946 3.95027 11.5298 3.25 12.4999 3.25C13.4574 3.25 14.0957 3.91656 14.4833 4.64925C14.873 5.38574 15.1118 6.35716 15.2423 7.39204C15.3759 8.20576 15.3915 9.23197 15.0378 10.0965C14.8549 10.5437 14.564 10.9681 14.122 11.2781C13.8641 11.459 13.5723 11.5886 13.25 11.6657V20C13.25 20.4142 12.9142 20.75 12.5 20.75C12.0858 20.75 11.75 20.4142 11.75 20V11.6657C11.4277 11.5886 11.1358 11.459 10.8779 11.2781C10.4358 10.9681 10.145 10.5437 9.96201 10.0965C9.60811 9.2314 9.6239 8.20441 9.75785 7.39042C9.88854 6.38769 10.1275 5.41942 10.5146 4.67802Z" fill="#23262A"/>
</svg>
