<svg width="24" height="24" viewBox="0 0 24 24" fill="none" xmlns="http://www.w3.org/2000/svg">
<path fill-rule="evenodd" clip-rule="evenodd" d="M4.75 8C4.75 7.7649 4.85575 7.48181 5.16789 7.15894C5.48352 6.83246 5.97645 6.50419 6.64376 6.21224C7.97615 5.62932 9.86928 5.25 12 5.25C14.1307 5.25 16.0239 5.62932 17.3562 6.21224C18.0235 6.50419 18.5165 6.83246 18.8321 7.15894C19.1442 7.48181 19.25 7.7649 19.25 8C19.25 8.2351 19.1442 8.51819 18.8321 8.84106C18.5165 9.16754 18.0235 9.49581 17.3562 9.78776C16.0239 10.3707 14.1307 10.75 12 10.75C9.86928 10.75 7.97615 10.3707 6.64376 9.78776C5.97645 9.49581 5.48352 9.16754 5.16789 8.84106C4.85575 8.51819 4.75 8.2351 4.75 8ZM12 3.75C9.71244 3.75 7.60557 4.15418 6.04253 4.83801C5.26212 5.17944 4.58348 5.60535 4.08947 6.11635C3.59196 6.63095 3.25 7.2686 3.25 8C3.25 8.7314 3.59196 9.36905 4.08947 9.88366C4.58348 10.3946 5.26212 10.8206 6.04253 11.162C7.60557 11.8458 9.71244 12.25 12 12.25C14.2876 12.25 16.3944 11.8458 17.9575 11.162C18.7379 10.8206 19.4165 10.3946 19.9105 9.88366C20.408 9.36905 20.75 8.7314 20.75 8C20.75 7.2686 20.408 6.63095 19.9105 6.11635C19.4165 5.60535 18.7379 5.17944 17.9575 4.83801C16.3944 4.15418 14.2876 3.75 12 3.75ZM4.05648 11.1422C4.46967 11.1713 4.78107 11.5298 4.752 11.943C4.75067 11.9619 4.75 11.981 4.75 12C4.75 12.2351 4.85575 12.5182 5.16789 12.8411C5.48352 13.1676 5.97645 13.4958 6.64376 13.7878C7.97615 14.3707 9.86928 14.75 12 14.75C14.1307 14.75 16.0239 14.3707 17.3562 13.7878C18.0235 13.4958 18.5165 13.1676 18.8321 12.8411C19.1442 12.5182 19.25 12.2351 19.25 12C19.25 11.981 19.2493 11.962 19.248 11.9432C19.219 11.53 19.5305 11.1715 19.9437 11.1425C20.3569 11.1135 20.7153 11.425 20.7443 11.8382C20.7481 11.8919 20.75 11.9459 20.75 12C20.75 12.7314 20.408 13.3691 19.9105 13.8837C19.4165 14.3947 18.7379 14.8206 17.9575 15.162C16.3944 15.8459 14.2876 16.25 12 16.25C9.71244 16.25 7.60557 15.8459 6.04253 15.162C5.26212 14.8206 4.58348 14.3947 4.08947 13.8837C3.59196 13.3691 3.25 12.7314 3.25 12C3.25 11.9457 3.25191 11.8916 3.2557 11.8378C3.28477 11.4246 3.64329 11.1132 4.05648 11.1422ZM4.05632 15.1425C4.46952 15.1715 4.78098 15.5299 4.75199 15.9431C4.75067 15.962 4.75 15.981 4.75 16C4.75 16.2351 4.85575 16.5182 5.16789 16.8411C5.48352 17.1675 5.97645 17.4958 6.64376 17.7878C7.97615 18.3707 9.86928 18.75 12 18.75C14.1307 18.75 16.0239 18.3707 17.3562 17.7878C18.0235 17.4958 18.5165 17.1675 18.8321 16.8411C19.1442 16.5182 19.25 16.2351 19.25 16C19.25 15.981 19.2493 15.962 19.248 15.9431C19.219 15.5299 19.5305 15.1715 19.9437 15.1425C20.3569 15.1135 20.7153 15.4249 20.7443 15.8381C20.7481 15.8919 20.75 15.9459 20.75 16C20.75 16.7314 20.408 17.3691 19.9105 17.8837C19.4165 18.3947 18.7379 18.8206 17.9575 19.162C16.3944 19.8458 14.2876 20.25 12 20.25C9.71244 20.25 7.60557 19.8458 6.04253 19.162C5.26212 18.8206 4.58348 18.3947 4.08947 17.8837C3.59196 17.3691 3.25 16.7314 3.25 16C3.25 15.9459 3.2519 15.8919 3.25567 15.8381C3.28466 15.4249 3.64312 15.1135 4.05632 15.1425Z" fill="#23262A"/>
</svg>
