<svg width="24" height="24" viewBox="0 0 24 24" fill="none" xmlns="http://www.w3.org/2000/svg">
<path fill-rule="evenodd" clip-rule="evenodd" d="M20.75 8C20.75 7.2686 20.408 6.63095 19.9105 6.11635C19.4165 5.60535 18.7379 5.17944 17.9575 4.83801C16.3944 4.15418 14.2876 3.75 12 3.75C9.71244 3.75 7.60557 4.15418 6.04253 4.83801C5.26212 5.17944 4.58348 5.60535 4.08947 6.11635C3.59196 6.63095 3.25 7.2686 3.25 8C3.25 8.7314 3.59196 9.36905 4.08947 9.88366C4.58348 10.3946 5.26212 10.8206 6.04253 11.162C7.60557 11.8458 9.71244 12.25 12 12.25C14.2876 12.25 16.3944 11.8458 17.9575 11.162C18.7379 10.8206 19.4165 10.3946 19.9105 9.88366C20.408 9.36905 20.75 8.7314 20.75 8ZM20.1568 11.1019C20.2747 10.9517 20.5144 10.9553 20.584 11.1331C20.6901 11.4042 20.75 11.6939 20.75 12C20.75 12.7314 20.408 13.3691 19.9105 13.8837C19.4165 14.3946 18.7379 14.8206 17.9575 15.162C16.3944 15.8458 14.2876 16.25 12 16.25C9.71244 16.25 7.60557 15.8458 6.04253 15.162C5.26212 14.8206 4.58348 14.3946 4.08947 13.8837C3.59196 13.3691 3.25 12.7314 3.25 12C3.25 11.6939 3.30989 11.4042 3.41601 11.1331C3.48564 10.9553 3.72526 10.9517 3.84324 11.1019C3.91987 11.1995 4.00228 11.2935 4.08947 11.3837C4.58348 11.8946 5.26212 12.3206 6.04253 12.662C7.60557 13.3458 9.71244 13.75 12 13.75C14.2876 13.75 16.3944 13.3458 17.9575 12.662C18.7379 12.3206 19.4165 11.8946 19.9105 11.3837C19.9977 11.2935 20.0801 11.1995 20.1568 11.1019ZM20.1568 15.1019C20.2747 14.9517 20.5144 14.9553 20.584 15.1331C20.6901 15.4042 20.75 15.6939 20.75 16C20.75 16.7314 20.408 17.3691 19.9105 17.8837C19.4165 18.3946 18.7379 18.8206 17.9575 19.162C16.3944 19.8458 14.2876 20.25 12 20.25C9.71244 20.25 7.60557 19.8458 6.04253 19.162C5.26212 18.8206 4.58348 18.3946 4.08947 17.8837C3.59196 17.3691 3.25 16.7314 3.25 16C3.25 15.6939 3.30989 15.4042 3.41601 15.1331C3.48564 14.9553 3.72526 14.9517 3.84324 15.1019C3.91987 15.1995 4.00228 15.2935 4.08947 15.3837C4.58348 15.8946 5.26212 16.3206 6.04253 16.662C7.60557 17.3458 9.71244 17.75 12 17.75C14.2876 17.75 16.3944 17.3458 17.9575 16.662C18.7379 16.3206 19.4165 15.8946 19.9105 15.3837C19.9977 15.2935 20.0801 15.1995 20.1568 15.1019Z" fill="#23262A"/>
</svg>
