<svg width="24" height="24" viewBox="0 0 24 24" fill="none" xmlns="http://www.w3.org/2000/svg">
<path fill-rule="evenodd" clip-rule="evenodd" d="M7 2.25C6.58579 2.25 6.25 2.58579 6.25 3V10.5C6.25 10.9142 6.58579 11.25 7 11.25H17C17.4142 11.25 17.75 10.9142 17.75 10.5V3C17.75 2.58579 17.4142 2.25 17 2.25H7ZM7 12.75C6.58579 12.75 6.25 13.0858 6.25 13.5V21C6.25 21.4142 6.58579 21.75 7 21.75H17C17.4142 21.75 17.75 21.4142 17.75 21V13.5C17.75 13.0858 17.4142 12.75 17 12.75H7Z" fill="#23262A"/>
</svg>
