<svg width="24" height="24" viewBox="0 0 24 24" fill="none" xmlns="http://www.w3.org/2000/svg">
<path fill-rule="evenodd" clip-rule="evenodd" d="M6.25 3C6.25 2.58579 6.58579 2.25 7 2.25H17C17.4142 2.25 17.75 2.58579 17.75 3V7C17.75 7.41421 17.4142 7.75 17 7.75H7C6.58579 7.75 6.25 7.41421 6.25 7V3ZM6.25 10C6.25 9.58579 6.58579 9.25 7 9.25H17C17.4142 9.25 17.75 9.58579 17.75 10V14C17.75 14.4142 17.4142 14.75 17 14.75H7C6.58579 14.75 6.25 14.4142 6.25 14V10ZM7 16.25C6.58579 16.25 6.25 16.5858 6.25 17V21C6.25 21.4142 6.58579 21.75 7 21.75H17C17.4142 21.75 17.75 21.4142 17.75 21V17C17.75 16.5858 17.4142 16.25 17 16.25H7Z" fill="#23262A"/>
</svg>
