<svg width="24" height="24" viewBox="0 0 24 24" fill="none" xmlns="http://www.w3.org/2000/svg">
<path fill-rule="evenodd" clip-rule="evenodd" d="M4.25 4C4.25 3.58579 4.58579 3.25 5 3.25H19C19.4142 3.25 19.75 3.58579 19.75 4V12.25H20C20.2353 12.25 20.457 12.3605 20.5988 12.5484C20.7405 12.7362 20.7858 12.9798 20.7211 13.206L18.7211 20.206C18.6292 20.528 18.3349 20.75 18 20.75H6.00001C5.66515 20.75 5.37086 20.528 5.27886 20.206L3.27886 13.206C3.21421 12.9798 3.25952 12.7362 3.40124 12.5484C3.54297 12.3605 3.76466 12.25 4.00001 12.25H4.25V4ZM18.25 7.75V12.25H17.7387C17.7462 12.1676 17.75 12.0842 17.75 12C17.75 10.4812 16.5188 9.25 15 9.25C14.4466 9.25 13.9313 9.41349 13.4999 9.6948C13.0685 9.41373 12.5528 9.25 12 9.25C11.4466 9.25 10.9313 9.41349 10.4999 9.6948C10.0685 9.41373 9.55281 9.25 9 9.25C7.48122 9.25 6.25 10.4812 6.25 12C6.25 12.0842 6.2538 12.1676 6.26125 12.25H5.75V7.75H18.25ZM7.77486 12.25H9.26125C9.25381 12.1676 9.25 12.0842 9.25 12C9.25 11.5909 9.33935 11.2026 9.4996 10.8536C9.34674 10.7869 9.17797 10.75 9 10.75C8.30964 10.75 7.75 11.3096 7.75 12C7.75 12.0859 7.75856 12.1694 7.77486 12.25ZM12.2613 12.25H10.7749C10.7586 12.1694 10.75 12.0859 10.75 12C10.75 11.3096 11.3096 10.75 12 10.75C12.178 10.75 12.3467 10.7869 12.4996 10.8536C12.3393 11.2026 12.25 11.5909 12.25 12C12.25 12.0842 12.2538 12.1676 12.2613 12.25ZM16.2251 12.25C16.2414 12.1694 16.25 12.0859 16.25 12C16.25 11.3096 15.6904 10.75 15 10.75C14.3096 10.75 13.75 11.3096 13.75 12C13.75 12.0859 13.7586 12.1694 13.7749 12.25H16.2251ZM10 15.25C9.58579 15.25 9.25 15.5858 9.25 16C9.25 16.4142 9.58579 16.75 10 16.75H14C14.4142 16.75 14.75 16.4142 14.75 16C14.75 15.5858 14.4142 15.25 14 15.25H10Z" fill="#23262A"/>
</svg>
