<svg width="24" height="24" viewBox="0 0 24 24" fill="none" xmlns="http://www.w3.org/2000/svg">
<path fill-rule="evenodd" clip-rule="evenodd" d="M4.25001 4C4.25001 3.58579 4.58579 3.25 5.00001 3.25H19C19.4142 3.25 19.75 3.58579 19.75 4V12.25H20C20.2353 12.25 20.457 12.3605 20.5988 12.5484C20.7405 12.7362 20.7858 12.9798 20.7211 13.206L18.7211 20.206C18.6292 20.528 18.3349 20.75 18 20.75H6.00001C5.66515 20.75 5.37086 20.528 5.27886 20.206L3.27886 13.206C3.21421 12.9798 3.25952 12.7362 3.40124 12.5484C3.54297 12.3605 3.76466 12.25 4.00001 12.25H4.25001V4ZM4.9943 13.75L6.56573 19.25H17.4343L19.0057 13.75H4.9943ZM17.7388 12.25C17.7462 12.1676 17.75 12.0842 17.75 12C17.75 10.4812 16.5188 9.25 15 9.25C14.4466 9.25 13.9313 9.41349 13.4999 9.6948C13.0685 9.41373 12.5528 9.25 12 9.25C11.4466 9.25 10.9313 9.41349 10.4999 9.6948C10.0685 9.41373 9.55282 9.25 9.00001 9.25C7.48122 9.25 6.25001 10.4812 6.25001 12C6.25001 12.0842 6.25381 12.1676 6.26126 12.25H5.75001V7.75H18.25V12.25H17.7388ZM9.00001 10.75C9.17797 10.75 9.34675 10.7869 9.49961 10.8536C9.33936 11.2026 9.25001 11.5909 9.25001 12C9.25001 12.0842 9.25381 12.1676 9.26126 12.25H7.77487C7.75857 12.1694 7.75001 12.0859 7.75001 12C7.75001 11.3096 8.30965 10.75 9.00001 10.75ZM12.2613 12.25C12.2538 12.1676 12.25 12.0842 12.25 12C12.25 11.5909 12.3394 11.2026 12.4996 10.8536C12.3467 10.7869 12.178 10.75 12 10.75C11.3097 10.75 10.75 11.3096 10.75 12C10.75 12.0859 10.7586 12.1694 10.7749 12.25H12.2613ZM16.25 12C16.25 12.0859 16.2414 12.1694 16.2251 12.25H13.7749C13.7586 12.1694 13.75 12.0859 13.75 12C13.75 11.3096 14.3097 10.75 15 10.75C15.6904 10.75 16.25 11.3096 16.25 12ZM18.25 4.75V6.25H5.75001V4.75H18.25ZM10 15.25C9.58579 15.25 9.25 15.5858 9.25 16C9.25 16.4142 9.58579 16.75 10 16.75H14C14.4142 16.75 14.75 16.4142 14.75 16C14.75 15.5858 14.4142 15.25 14 15.25H10Z" fill="#23262A"/>
</svg>
