<svg width="24" height="24" viewBox="0 0 24 24" fill="none" xmlns="http://www.w3.org/2000/svg">
<path fill-rule="evenodd" clip-rule="evenodd" d="M11.2855 11.4827C11.2925 11.3664 11.3264 11.2534 11.3846 11.1526L15.8846 3.35837C16.644 2.04306 18.3259 1.59241 19.6412 2.3518C20.9565 3.11119 21.4072 4.79307 20.6478 6.10837L16.1478 13.9026C16.0896 14.0034 16.0087 14.0893 15.9115 14.1535L12.1795 16.6176C11.9424 16.7741 11.6372 16.7833 11.3912 16.6412C11.1452 16.4992 11.0005 16.2303 11.0176 15.9468L11.2855 11.4827ZM12.7722 11.7493L12.6047 14.5393L14.9373 12.9993L17.9647 7.75553L15.7997 6.50553L12.7722 11.7493ZM19.3487 5.35837L18.7147 6.45649L16.5497 5.20649L17.1837 4.10837C17.5289 3.5105 18.2933 3.30566 18.8912 3.65084C19.4891 3.99602 19.6939 4.7605 19.3487 5.35837ZM12.5 4.75H5.75V20.25H17.25V15.5C17.25 15.0858 17.5858 14.75 18 14.75C18.4142 14.75 18.75 15.0858 18.75 15.5V20.5C18.75 21.1904 18.1904 21.75 17.5 21.75H5.5C4.80964 21.75 4.25 21.1904 4.25 20.5V4.5C4.25 3.80964 4.80964 3.25 5.5 3.25H12.5C12.9142 3.25 13.25 3.58579 13.25 4C13.25 4.41421 12.9142 4.75 12.5 4.75Z" fill="#23262A"/>
</svg>
