<svg width="24" height="24" viewBox="0 0 24 24" fill="none" xmlns="http://www.w3.org/2000/svg">
<path fill-rule="evenodd" clip-rule="evenodd" d="M12.031 11.5865C12.0333 11.5478 12.0447 11.5101 12.0641 11.4765L15.049 6.30635C15.1181 6.18678 15.271 6.14581 15.3905 6.21485L18.4216 7.96485C18.5412 8.03388 18.5822 8.18678 18.5131 8.30635L15.5282 13.4765C15.5088 13.5101 15.4818 13.5387 15.4494 13.5601L12.1839 15.7162C12.0119 15.8297 11.7842 15.6982 11.7966 15.4926L12.031 11.5865ZM16.1405 4.91581C16.021 4.84677 15.98 4.69387 16.049 4.5743L16.5346 3.73337C17.0868 2.77678 18.31 2.44903 19.2666 3.00132C20.2232 3.5536 20.5509 4.77678 19.9987 5.73337L19.5131 6.5743C19.4441 6.69388 19.2912 6.73484 19.1716 6.66581L16.1405 4.91581ZM10.5373 11.4377C10.5512 11.2053 10.6191 10.9793 10.7355 10.7776L14.8651 3.625C14.9613 3.45833 14.841 3.25 14.6486 3.25H5.5C4.80965 3.25 4.25 3.80964 4.25 4.5V20.5C4.25 21.1904 4.80964 21.75 5.5 21.75H17.5C18.1904 21.75 18.75 21.1904 18.75 20.5V11.8291C18.75 11.5734 18.4114 11.4826 18.2835 11.7041L16.7977 14.2776C16.6813 14.4793 16.5195 14.6511 16.3251 14.7794L12.5931 17.2435C12.119 17.5565 11.5087 17.5748 11.0166 17.2907C10.5246 17.0067 10.2353 16.469 10.2693 15.9018L10.5373 11.4377Z" fill="#23262A"/>
</svg>
