<svg width="24" height="24" viewBox="0 0 24 24" fill="none" xmlns="http://www.w3.org/2000/svg">
<path fill-rule="evenodd" clip-rule="evenodd" d="M14.7398 4.8767C14.7365 4.85701 14.7324 4.83746 14.7276 4.8181L14.727 4.81571L14.7262 4.81258L14.724 4.80411L14.7172 4.77867C14.7115 4.75806 14.7036 4.73023 14.6932 4.6962C14.6726 4.62829 14.6422 4.53482 14.6007 4.42416C14.5186 4.20527 14.3887 3.9069 14.1985 3.6025C13.8313 3.01503 13.133 2.25 12 2.25H9C7.91517 2.25 7.09978 2.96131 6.62307 3.50612C6.38652 3.77646 6.2 4.04368 6.0689 4.25H4C3.0335 4.25 2.25 5.0335 2.25 6V7.93934C2.25 8.81738 2.5988 9.65946 3.21967 10.2803C3.84054 10.9012 4.68262 11.25 5.56066 11.25H7.57412C7.56234 11.3085 7.55017 11.3694 7.53767 11.4327C7.40309 12.1135 7.22893 13.0635 7.07048 14.1409C6.75664 16.275 6.49236 18.9856 6.75579 21.093C6.80271 21.4683 7.12176 21.75 7.5 21.75H19C19.291 21.75 19.5558 21.5817 19.6792 21.3181C19.8026 21.0547 19.7622 20.7434 19.5762 20.5199L19.5737 20.5168L19.5573 20.4966C19.542 20.4774 19.5179 20.4469 19.486 20.4053C19.4223 20.3221 19.3275 20.1946 19.2094 20.0248C18.9731 19.6852 18.644 19.177 18.2834 18.5159C17.5617 17.1927 16.7177 15.2641 16.2354 12.8529C15.7364 10.3576 15.3622 8.36193 15.1129 6.99084C14.9883 6.3053 14.8948 5.77594 14.8327 5.41837C14.8016 5.23959 14.7783 5.10375 14.7628 5.01282L14.7454 4.91035L14.7398 4.8767ZM6.5 5.75C6.78394 5.75 7.04352 5.58965 7.17063 5.33578L7.17564 5.32616C7.18091 5.31613 7.18976 5.29953 7.20207 5.2773C7.22673 5.23274 7.26495 5.16617 7.31569 5.085C7.41813 4.92109 7.56657 4.70572 7.75193 4.49388C8.15022 4.03869 8.58483 3.75 9 3.75H12C12.367 3.75 12.6687 3.98497 12.9265 4.3975C13.0488 4.5931 13.1376 4.79473 13.1962 4.95084C13.225 5.02768 13.2453 5.09046 13.2579 5.13192L13.2665 5.16106L13.2841 5.26452C13.2998 5.35719 13.3234 5.49479 13.3548 5.67538C13.4003 5.93692 13.4622 6.28862 13.5405 6.72455C12.6615 7.19881 11.6921 7.33644 11.1085 7.16331C10.8336 7.08173 10.701 6.95248 10.6373 6.80892C10.5661 6.64864 10.5161 6.32407 10.7117 5.73717C10.8427 5.34422 10.6303 4.91948 10.2374 4.78849C9.84442 4.6575 9.41968 4.86987 9.28869 5.26283C9.02388 6.05723 8.99037 6.79596 9.26635 7.41759C9.54976 8.05593 10.0949 8.4272 10.6819 8.60135C11.6263 8.88157 12.8012 8.70211 13.8201 8.25541C14.0587 9.54136 14.3735 11.1918 14.7646 13.1471C15.2823 15.7359 16.1883 17.8073 16.9666 19.2341C17.1772 19.6203 17.3787 19.9597 17.5611 20.25H8.18205C8.06125 18.4524 8.27812 16.2386 8.55452 14.3591C8.70857 13.3115 8.87816 12.3865 9.0092 11.7236C9.07468 11.3923 9.13043 11.1271 9.16965 10.9453C9.18926 10.8544 9.20472 10.7845 9.2152 10.7376L9.22706 10.685L9.22998 10.6722L9.23081 10.6686C9.28218 10.4459 9.22921 10.2119 9.08693 10.0331C8.94464 9.85422 8.72856 9.75 8.5 9.75H5.56066C5.08044 9.75 4.61989 9.55923 4.28033 9.21967C3.94077 8.88011 3.75 8.41956 3.75 7.93934V6C3.75 5.86193 3.86193 5.75 4 5.75H6.5Z" fill="#23262A"/>
</svg>
