<svg width="24" height="24" viewBox="0 0 24 24" fill="none" xmlns="http://www.w3.org/2000/svg">
<path fill-rule="evenodd" clip-rule="evenodd" d="M14.8327 5.41837C14.8016 5.23959 14.7783 5.10375 14.7628 5.01282C14.7589 4.99276 14.7551 4.97269 14.7513 4.95263C14.735 4.86639 14.7188 4.78032 14.6932 4.6962C14.6726 4.62829 14.6422 4.53482 14.6007 4.42416C14.5186 4.20527 14.3887 3.9069 14.1985 3.6025C13.8313 3.01503 13.133 2.25 12 2.25H9C7.91517 2.25 7.09978 2.96131 6.62307 3.50612C6.42843 3.72856 6.26767 3.94889 6.14377 4.13492C6.09636 4.20611 6.01709 4.25 5.93156 4.25H4C3.0335 4.25 2.25 5.0335 2.25 6V7.93934C2.25 8.81738 2.5988 9.65946 3.21967 10.2803C3.84054 10.9012 4.68262 11.25 5.56066 11.25H7.38783C7.48416 11.25 7.55635 11.3382 7.53767 11.4327C7.40309 12.1135 7.22893 13.0635 7.07048 14.1409C6.75664 16.275 6.49236 18.9856 6.75579 21.093C6.80271 21.4683 7.12176 21.75 7.5 21.75H19C19.291 21.75 19.5558 21.5817 19.6792 21.3181C19.8026 21.0547 19.7622 20.7434 19.5762 20.5199L19.5737 20.5168L19.5573 20.4966C19.542 20.4774 19.5179 20.4469 19.486 20.4053C19.4223 20.3221 19.3275 20.1946 19.2094 20.0248C18.9731 19.6852 18.644 19.177 18.2834 18.5159C17.5617 17.1927 16.7177 15.2641 16.2354 12.8529C15.8331 10.8414 15.512 9.15458 15.272 7.85787C15.2409 7.69003 15.0547 7.60208 14.9052 7.68451L14.3668 7.98146C13.2434 8.62002 11.801 8.93333 10.6819 8.60131C10.095 8.42716 9.54979 8.05589 9.26638 7.41755C8.9904 6.79592 9.02392 6.05719 9.28872 5.26279C9.41971 4.86983 9.84445 4.65746 10.2374 4.78845C10.6304 4.91944 10.8427 5.34418 10.7117 5.73713C10.5161 6.32403 10.5662 6.6486 10.6373 6.80888C10.7011 6.95244 10.8336 7.08169 11.1086 7.16327C11.7117 7.34223 12.7273 7.18916 13.629 6.67546L13.6379 6.67035C13.638 6.67034 13.638 6.67035 13.638 6.67036C13.638 6.67038 13.638 6.67039 13.638 6.67038L14.771 6.04554C14.8647 5.99388 14.9151 5.88833 14.8965 5.78298C14.8725 5.64649 14.8512 5.52482 14.8327 5.41837Z" fill="#23262A"/>
</svg>
