<svg width="24" height="24" viewBox="0 0 24 24" fill="none" xmlns="http://www.w3.org/2000/svg">
<path fill-rule="evenodd" clip-rule="evenodd" d="M14.7398 4.8767C14.7365 4.85701 14.7324 4.83746 14.7276 4.8181L14.727 4.81571L14.7262 4.81258L14.724 4.80411L14.7172 4.77867C14.7115 4.75806 14.7036 4.73023 14.6932 4.6962C14.6726 4.62829 14.6422 4.53482 14.6007 4.42416C14.5186 4.20527 14.3887 3.9069 14.1985 3.6025C13.8313 3.01503 13.133 2.25 12 2.25H9C7.91517 2.25 7.09978 2.96131 6.62307 3.50612C6.42843 3.72856 6.26767 3.94889 6.14377 4.13492C6.09636 4.20611 6.01709 4.25 5.93156 4.25H4C3.0335 4.25 2.25 5.0335 2.25 6V7.93934C2.25 8.81738 2.5988 9.65946 3.21967 10.2803C3.84054 10.9012 4.68262 11.25 5.56066 11.25H7.38783C7.48416 11.25 7.55635 11.3382 7.53767 11.4327C7.40309 12.1135 7.22893 13.0635 7.07048 14.1409C6.8276 15.7925 6.61441 17.7893 6.65251 19.5846C6.6571 19.8009 6.91666 19.9014 7.06963 19.7484L15.7671 11.0509C15.8259 10.9921 15.8516 10.9079 15.8357 10.8263C15.5314 9.26099 15.2905 7.96746 15.1129 6.99084C14.9883 6.3053 14.8948 5.77594 14.8327 5.41837C14.8016 5.23959 14.7783 5.10375 14.7628 5.01282L14.7454 4.91035L14.7398 4.8767ZM17.2879 16.3954C17.2205 16.2268 17.0021 16.1799 16.8737 16.3083L11.8588 21.3232C11.7013 21.4807 11.8128 21.75 12.0355 21.75H19C19.291 21.75 19.5558 21.5817 19.6792 21.3181C19.8026 21.0547 19.7622 20.7434 19.5762 20.5199L19.5737 20.5168L19.5573 20.4966C19.542 20.4774 19.5179 20.4469 19.486 20.4053C19.4223 20.3221 19.3275 20.1946 19.2094 20.0248C18.9731 19.6852 18.644 19.177 18.2834 18.5159C17.9616 17.9258 17.6154 17.2154 17.2879 16.3954ZM19.4812 7.54183C19.4773 7.53804 19.4734 7.5342 19.4695 7.53031C18.9339 6.99478 18.0657 6.99478 17.5301 7.53031L17.1964 7.86406C17.0542 8.00624 16.8109 7.93088 16.7742 7.73318C16.706 7.36582 16.6441 7.02847 16.5885 6.72252L16.5559 6.54258C16.5408 6.45938 16.5684 6.37358 16.6326 6.31853C17.7549 5.35578 19.4443 5.40071 20.5137 6.45331C20.5193 6.45866 20.525 6.46411 20.5305 6.46967C21.6518 7.59099 21.6518 9.40901 20.5305 10.5303L9.38409 21.6768C9.3372 21.7237 9.27362 21.75 9.20731 21.75H7.49996C7.39351 21.75 7.33603 21.6352 7.39997 21.5501C7.42105 21.5221 7.44435 21.4952 7.46987 21.4697L19.4699 9.46967C20.0016 8.93795 20.0054 8.07823 19.4812 7.54183Z" fill="#23262A"/>
</svg>
