<svg width="24" height="24" viewBox="0 0 24 24" fill="none" xmlns="http://www.w3.org/2000/svg">
<path fill-rule="evenodd" clip-rule="evenodd" d="M7.17047 5.33611L7.17022 5.33661L7.17 5.33704C7.04266 5.59019 6.78347 5.75 6.5 5.75H4C3.86193 5.75 3.75 5.86193 3.75 6V7.93934C3.75 8.41956 3.94077 8.88011 4.28033 9.21967C4.61989 9.55923 5.08044 9.75 5.56066 9.75H8.5C8.72856 9.75 8.94464 9.85422 9.08693 10.0331C9.22921 10.2119 9.28218 10.4459 9.23081 10.6686L9.2308 10.6686L9.23079 10.6686L9.23066 10.6692L9.22998 10.6722L9.22706 10.685L9.2152 10.7376C9.20472 10.7845 9.18926 10.8544 9.16965 10.9453C9.13043 11.1271 9.07468 11.3923 9.0092 11.7236C8.87816 12.3865 8.70857 13.3115 8.55452 14.3591C8.27812 16.2386 8.06125 18.4524 8.18205 20.25H8.68934L14.9504 13.9889C14.8842 13.7148 14.822 13.4341 14.7646 13.1471C14.3735 11.1918 14.0587 9.54136 13.8201 8.25541C12.8012 8.70211 11.6263 8.88157 10.6819 8.60135C10.0949 8.4272 9.54976 8.05593 9.26635 7.41759C8.99037 6.79596 9.02388 6.05723 9.28869 5.26283C9.41968 4.86987 9.84442 4.6575 10.2374 4.78849C10.6303 4.91948 10.8427 5.34422 10.7117 5.73717C10.5161 6.32407 10.5661 6.64864 10.6373 6.80892C10.701 6.95248 10.8336 7.08173 11.1085 7.16331C11.6921 7.33644 12.6615 7.19881 13.5405 6.72455C13.4622 6.28862 13.4003 5.93692 13.3548 5.67538C13.3234 5.49479 13.2998 5.35719 13.2841 5.26452L13.2665 5.16106L13.2579 5.13192C13.2453 5.09046 13.225 5.02768 13.1962 4.95084C13.1376 4.79473 13.0488 4.5931 12.9265 4.3975C12.6687 3.98497 12.367 3.75 12 3.75H11.9941H11.9883H11.9825H11.9767H11.9708H11.965H11.9593H11.9535H11.9477H11.942H11.9362H11.9305H11.9248H11.9191H11.9134H11.9077H11.902H11.8963H11.8907H11.885H11.8794H11.8737H11.8681H11.8625H11.8569H11.8513H11.8457H11.8402H11.8346H11.8291H11.8235H11.818H11.8125H11.807H11.8015H11.796H11.7905H11.785H11.7795H11.7741H11.7686H11.7632H11.7577H11.7523H11.7469H11.7415H11.7361H11.7307H11.7253H11.7199H11.7146H11.7092H11.7039H11.6985H11.6932H11.6879H11.6825H11.6772H11.6719H11.6666H11.6613H11.6561H11.6508H11.6455H11.6402H11.635H11.6297H11.6245H11.6193H11.614H11.6088H11.6036H11.5984H11.5932H11.588H11.5828H11.5777H11.5725H11.5673H11.5621H11.557H11.5518H11.5467H11.5416H11.5364H11.5313H11.5262H11.5211H11.516H11.5109H11.5058H11.5007H11.4956H11.4905H11.4854H11.4803H11.4753H11.4702H11.4652H11.4601H11.4551H11.45H11.445H11.4399H11.4349H11.4299H11.4249H11.4199H11.4148H11.4098H11.4048H11.3998H11.3948H11.3898H11.3848H11.3799H11.3749H11.3699H11.3649H11.36H11.355H11.35H11.3451H11.3401H11.3352H11.3302H11.3253H11.3203H11.3154H11.3104H11.3055H11.3006H11.2956H11.2907H11.2858H11.2808H11.2759H11.271H11.2661H11.2612H11.2563H11.2513H11.2464H11.2415H11.2366H11.2317H11.2268H11.2219H11.217H11.2121H11.2072H11.2023H11.1974H11.1925H11.1877H11.1828H11.1779H11.173H11.1681H11.1632H11.1583H11.1534H11.1486H11.1437H11.1388H11.1339H11.129H11.1241H11.1192H11.1144H11.1095H11.1046H11.0997H11.0948H11.09H11.0851H11.0802H11.0753H11.0704H11.0655H11.0606H11.0558H11.0509H11.046H11.0411H11.0362H11.0313H11.0264H11.0215H11.0166H11.0117H11.0068H11.0019H10.997H10.9921H10.9872H10.9823H10.9774H10.9725H10.9676H10.9627H10.9578H10.9529H10.9479H10.943H10.9381H10.9332H10.9282H10.9233H10.9184H10.9134H10.9085H10.9036H10.8986H10.8937H10.8887H10.8838H10.8788H10.8738H10.8689H10.8639H10.8589H10.854H10.849H10.844H10.839H10.834H10.8291H10.8241H10.8191H10.8141H10.8091H10.804H10.799H10.794H10.789H10.784H10.7789H10.7739H10.7688H10.7638H10.7587H10.7537H10.7486H10.7436H10.7385H10.7334H10.7283H10.7233H10.7182H10.7131H10.708H10.7029H10.6977H10.6926H10.6875H10.6824H10.6772H10.6721H10.6669H10.6618H10.6566H10.6515H10.6463H10.6411H10.6359H10.6307H10.6255H10.6203H10.6151H10.6099H10.6047H10.5995H10.5942H10.589H10.5837H10.5785H10.5732H10.5679H10.5627H10.5574H10.5521H10.5468H10.5415H10.5361H10.5308H10.5255H10.5201H10.5148H10.5094H10.5041H10.4987H10.4933H10.4879H10.4825H10.4771H10.4717H10.4663H10.4609H10.4554H10.45H10.4445H10.4391H10.4336H10.4281H10.4226H10.4171H10.4116H10.4061H10.4005H10.395H10.3895H10.3839H10.3783H10.3728H10.3672H10.3616H10.356H10.3504H10.3447H10.3391H10.3334H10.3278H10.3221H10.3164H10.3108H10.3051H10.2994H10.2936H10.2879H10.2822H10.2764H10.2707H10.2649H10.2591H10.2533H10.2475H10.2417H10.2359H10.23H10.2242H10.2183H10.2124H10.2066H10.2007H10.1948H10.1888H10.1829H10.177H10.171H10.165H10.1591H10.1531H10.1471H10.141H10.135H10.129H10.1229H10.1169H10.1108H10.1047H10.0986H10.0925H10.0863H10.0802H10.074H10.0679H10.0617H10.0555H10.0493H10.0431H10.0368H10.0306H10.0243H10.018H10.0118H10.0055H9.99913H9.9928H9.98646H9.9801H9.97373H9.96734H9.96094H9.95452H9.94809H9.94165H9.93519H9.92871H9.92223H9.91572H9.9092H9.90267H9.89612H9.88956H9.88298H9.87639H9.86978H9.86316H9.85652H9.84987H9.8432H9.83651H9.82981H9.8231H9.81637H9.80962H9.80285H9.79608H9.78928H9.78247H9.77564H9.7688H9.76194H9.75506H9.74817H9.74126H9.73433H9.72739H9.72043H9.71346H9.70647H9.69946H9.69243H9.68539H9.67833H9.67125H9.66416H9.65704H9.64992H9.64277H9.6356H9.62842H9.62122H9.61401H9.60677H9.59952H9.59225H9.58496H9.57766H9.57033H9.56299H9.55563H9.54825H9.54086H9.53344H9.52601H9.51855H9.51108H9.50359H9.49609H9.48856H9.48101H9.47345H9.46586H9.45826H9.45064H9.443H9.43534H9.42766H9.41996H9.41224H9.4045H9.39674H9.38897H9.38117H9.37335H9.36551H9.35766H9.34978H9.34188H9.33397H9.32603H9.31807H9.31009H9.3021H9.29408H9.28604H9.27798H9.2699H9.2618H9.25367H9.24553H9.23737H9.22918H9.22098H9.21275H9.2045H9.19623H9.18794H9.17963H9.17129H9.16294H9.15456H9.14616H9.13774H9.1293H9.12083H9.11235H9.10384H9.09531H9.08676H9.07818H9.06959H9.06097H9.05232H9.04366H9.03497H9.02626H9.01753H9.00878H9C8.58483 3.75 8.15022 4.03869 7.75193 4.49388C7.56657 4.70572 7.41813 4.92109 7.31569 5.085C7.26495 5.16617 7.22673 5.23274 7.20207 5.2773C7.18976 5.29953 7.18091 5.31613 7.17564 5.32616L7.17047 5.33612L7.17047 5.33611ZM16.9666 19.2341C17.1772 19.6203 17.3787 19.9597 17.5611 20.25H10.8107L15.4194 15.6412C15.8935 17.0911 16.4574 18.3006 16.9666 19.2341ZM18.2834 18.5159C17.7279 17.4974 17.0999 16.1202 16.6202 14.4404L20.5303 10.5303C21.6516 9.40901 21.6517 7.59099 20.5303 6.46967C19.409 5.34835 17.591 5.34835 16.4697 6.46967L15.2423 7.69707C15.1959 7.44598 15.1528 7.2104 15.1129 6.99084C14.9883 6.3053 14.8948 5.77594 14.8327 5.41837C14.8016 5.23959 14.7783 5.10375 14.7628 5.01282L14.7454 4.91035L14.7412 4.88483L14.7401 4.87858L14.7399 4.87709L14.7398 4.87676L14.7398 4.8767C14.7365 4.85701 14.7324 4.83746 14.7276 4.8181L14 5C14.7276 4.8181 14.7275 4.81784 14.7275 4.81757L14.7273 4.817L14.727 4.81571L14.7262 4.81258L14.724 4.80411L14.7172 4.77867C14.7115 4.75806 14.7036 4.73023 14.6932 4.6962C14.6726 4.62829 14.6422 4.53482 14.6007 4.42416C14.5186 4.20527 14.3887 3.9069 14.1985 3.6025C13.8313 3.01503 13.133 2.25 12 2.25H11.9941H11.9883H11.9825H11.9767H11.9708H11.965H11.9593H11.9535H11.9477H11.942H11.9362H11.9305H11.9248H11.9191H11.9134H11.9077H11.902H11.8963H11.8907H11.885H11.8794H11.8737H11.8681H11.8625H11.8569H11.8513H11.8457H11.8402H11.8346H11.8291H11.8235H11.818H11.8125H11.807H11.8015H11.796H11.7905H11.785H11.7795H11.7741H11.7686H11.7632H11.7577H11.7523H11.7469H11.7415H11.7361H11.7307H11.7253H11.7199H11.7146H11.7092H11.7039H11.6985H11.6932H11.6879H11.6825H11.6772H11.6719H11.6666H11.6613H11.6561H11.6508H11.6455H11.6402H11.635H11.6297H11.6245H11.6193H11.614H11.6088H11.6036H11.5984H11.5932H11.588H11.5828H11.5777H11.5725H11.5673H11.5621H11.557H11.5518H11.5467H11.5416H11.5364H11.5313H11.5262H11.5211H11.516H11.5109H11.5058H11.5007H11.4956H11.4905H11.4854H11.4803H11.4753H11.4702H11.4652H11.4601H11.4551H11.45H11.445H11.4399H11.4349H11.4299H11.4249H11.4199H11.4148H11.4098H11.4048H11.3998H11.3948H11.3898H11.3848H11.3799H11.3749H11.3699H11.3649H11.36H11.355H11.35H11.3451H11.3401H11.3352H11.3302H11.3253H11.3203H11.3154H11.3104H11.3055H11.3006H11.2956H11.2907H11.2858H11.2808H11.2759H11.271H11.2661H11.2612H11.2563H11.2513H11.2464H11.2415H11.2366H11.2317H11.2268H11.2219H11.217H11.2121H11.2072H11.2023H11.1974H11.1925H11.1877H11.1828H11.1779H11.173H11.1681H11.1632H11.1583H11.1534H11.1486H11.1437H11.1388H11.1339H11.129H11.1241H11.1192H11.1144H11.1095H11.1046H11.0997H11.0948H11.09H11.0851H11.0802H11.0753H11.0704H11.0655H11.0606H11.0558H11.0509H11.046H11.0411H11.0362H11.0313H11.0264H11.0215H11.0166H11.0117H11.0068H11.0019H10.997H10.9921H10.9872H10.9823H10.9774H10.9725H10.9676H10.9627H10.9578H10.9529H10.9479H10.943H10.9381H10.9332H10.9282H10.9233H10.9184H10.9134H10.9085H10.9036H10.8986H10.8937H10.8887H10.8838H10.8788H10.8738H10.8689H10.8639H10.8589H10.854H10.849H10.844H10.839H10.834H10.8291H10.8241H10.8191H10.8141H10.8091H10.804H10.799H10.794H10.789H10.784H10.7789H10.7739H10.7688H10.7638H10.7587H10.7537H10.7486H10.7436H10.7385H10.7334H10.7283H10.7233H10.7182H10.7131H10.708H10.7029H10.6977H10.6926H10.6875H10.6824H10.6772H10.6721H10.6669H10.6618H10.6566H10.6515H10.6463H10.6411H10.6359H10.6307H10.6255H10.6203H10.6151H10.6099H10.6047H10.5995H10.5942H10.589H10.5837H10.5785H10.5732H10.5679H10.5627H10.5574H10.5521H10.5468H10.5415H10.5361H10.5308H10.5255H10.5201H10.5148H10.5094H10.5041H10.4987H10.4933H10.4879H10.4825H10.4771H10.4717H10.4663H10.4609H10.4554H10.45H10.4445H10.4391H10.4336H10.4281H10.4226H10.4171H10.4116H10.4061H10.4005H10.395H10.3895H10.3839H10.3783H10.3728H10.3672H10.3616H10.356H10.3504H10.3447H10.3391H10.3334H10.3278H10.3221H10.3164H10.3108H10.3051H10.2994H10.2936H10.2879H10.2822H10.2764H10.2707H10.2649H10.2591H10.2533H10.2475H10.2417H10.2359H10.23H10.2242H10.2183H10.2124H10.2066H10.2007H10.1948H10.1888H10.1829H10.177H10.171H10.165H10.1591H10.1531H10.1471H10.141H10.135H10.129H10.1229H10.1169H10.1108H10.1047H10.0986H10.0925H10.0863H10.0802H10.074H10.0679H10.0617H10.0555H10.0493H10.0431H10.0368H10.0306H10.0243H10.018H10.0118H10.0055H9.99913H9.9928H9.98646H9.9801H9.97373H9.96734H9.96094H9.95452H9.94809H9.94165H9.93519H9.92871H9.92223H9.91572H9.9092H9.90267H9.89612H9.88956H9.88298H9.87639H9.86978H9.86316H9.85652H9.84987H9.8432H9.83651H9.82981H9.8231H9.81637H9.80962H9.80285H9.79608H9.78928H9.78247H9.77564H9.7688H9.76194H9.75506H9.74817H9.74126H9.73433H9.72739H9.72043H9.71346H9.70647H9.69946H9.69243H9.68539H9.67833H9.67125H9.66416H9.65704H9.64992H9.64277H9.6356H9.62842H9.62122H9.61401H9.60677H9.59952H9.59225H9.58496H9.57766H9.57033H9.56299H9.55563H9.54825H9.54086H9.53344H9.52601H9.51855H9.51108H9.50359H9.49609H9.48856H9.48101H9.47345H9.46586H9.45826H9.45064H9.443H9.43534H9.42766H9.41996H9.41224H9.4045H9.39674H9.38897H9.38117H9.37335H9.36551H9.35766H9.34978H9.34188H9.33397H9.32603H9.31807H9.31009H9.3021H9.29408H9.28604H9.27798H9.2699H9.2618H9.25367H9.24553H9.23737H9.22918H9.22098H9.21275H9.2045H9.19623H9.18794H9.17963H9.17129H9.16294H9.15456H9.14616H9.13774H9.1293H9.12083H9.11235H9.10384H9.09531H9.08676H9.07818H9.06959H9.06097H9.05232H9.04366H9.03497H9.02626H9.01753H9.00878H9C7.91517 2.25 7.09978 2.96131 6.62307 3.50612C6.38652 3.77646 6.2 4.04368 6.0689 4.25H4C3.0335 4.25 2.25 5.0335 2.25 6V7.93934C2.25 8.81738 2.5988 9.65946 3.21967 10.2803C3.84054 10.9012 4.68262 11.25 5.56066 11.25H7.57412C7.56234 11.3085 7.55017 11.3694 7.53767 11.4327C7.40309 12.1135 7.22893 13.0635 7.07048 14.1409C6.75664 16.275 6.49236 18.9856 6.75579 21.093C6.80271 21.4683 7.12176 21.75 7.5 21.75H19C19.291 21.75 19.5558 21.5817 19.6792 21.3181C19.8026 21.0547 19.7625 20.7437 19.5764 20.5202L19.5762 20.5199L19.5737 20.5168L19.5573 20.4966C19.542 20.4774 19.5179 20.4469 19.486 20.4053C19.4223 20.3221 19.3275 20.1946 19.2094 20.0248C18.9731 19.6852 18.644 19.177 18.2834 18.5159ZM19.4697 9.46967L16.2106 12.7287C15.97 11.5235 15.7589 10.437 15.5773 9.48338L17.5303 7.53033C18.0659 6.9948 18.9341 6.9948 19.4697 7.53033C20.0052 8.06586 20.0052 8.93414 19.4697 9.46967Z" fill="#23262A"/>
</svg>
