<svg width="24" height="24" viewBox="0 0 24 24" fill="none" xmlns="http://www.w3.org/2000/svg">
<path fill-rule="evenodd" clip-rule="evenodd" d="M3.97946 14.1087C3.70764 13.8368 3.22685 13.2208 3.22684 12.2525C3.22684 11.2841 3.70762 9.78424 5.74718 7.74468C7.78674 5.70512 9.28661 5.22433 10.255 5.22432C11.2234 5.22432 11.8393 5.70511 12.1111 5.97692L13.5253 7.39116C13.7971 7.66296 14.2779 8.27894 14.2779 9.24731C14.2779 10.2157 13.7971 11.7155 11.7576 13.7551C9.71804 15.7946 8.21817 16.2754 7.24979 16.2754C6.28142 16.2754 5.66543 15.7947 5.39363 15.5229L3.97946 14.1087ZM4.68652 6.68402C2.48347 8.88708 1.72684 10.746 1.72684 12.2525C1.72685 13.759 2.48348 14.734 2.91871 15.1693L4.33297 16.5835C4.76828 17.0188 5.74329 17.7755 7.2498 17.7754C7.81255 17.7754 8.42446 17.6699 9.08512 17.4228C10.204 18.2149 11.9167 18.7501 14.4998 18.7501C17.6154 18.7501 19.4648 17.9707 20.5301 16.9055C21.5954 15.8402 21.7498 14.6157 21.7498 14.0001L21.7498 12.0001C21.7498 11.4023 21.6045 10.2296 20.6181 9.18526C19.6583 8.16917 18.0128 7.39111 15.2827 7.26737C15.0521 6.84241 14.7853 6.52985 14.586 6.33049L13.1718 4.91626C12.7365 4.48095 11.7615 3.72432 10.255 3.72432C8.74847 3.72433 6.88958 4.48097 4.68652 6.68402ZM15.7553 8.80085C15.77 8.94408 15.7779 9.0929 15.7779 9.24731C15.7779 9.44326 15.7651 9.64518 15.738 9.85305C16.2169 9.93577 16.6574 10.0671 17.029 10.2423C17.5671 10.496 18.2499 10.991 18.2499 11.8001C18.2499 12.2303 18.0455 12.5793 17.8009 12.83C17.5595 13.0773 17.247 13.2656 16.9194 13.4075C16.2619 13.6925 15.4059 13.8501 14.4999 13.8501C14.2412 13.8501 13.9882 13.8373 13.7439 13.8127C13.4686 14.1387 13.1609 14.4731 12.8182 14.8158C12.0613 15.5727 11.3449 16.159 10.6695 16.6024C11.4993 16.9741 12.7157 17.2501 14.4998 17.2501C17.3842 17.2501 18.7847 16.5295 19.4694 15.8448C20.1542 15.1601 20.2498 14.3845 20.2498 14.0001L20.2498 12.0001C20.2498 11.6265 20.1592 10.8839 19.5276 10.2153C18.9646 9.61921 17.8773 8.98222 15.7553 8.80085ZM14.809 12.3425C15.427 12.3117 15.9548 12.1908 16.323 12.0312C16.5197 11.946 16.6425 11.862 16.7097 11.7995C16.6623 11.7543 16.569 11.6837 16.3893 11.599C16.126 11.4749 15.7652 11.3695 15.3362 11.308C15.1977 11.6409 15.0234 11.9857 14.809 12.3425ZM6.34646 11.5418C6.34643 11.5418 6.34619 11.5411 6.34584 11.5397L6.34646 11.5418ZM6.3417 11.4635C6.3452 11.3717 6.37276 11.2258 6.45129 11.0271C6.62289 10.5931 6.98399 10.0434 7.51491 9.51248C8.04584 8.98156 8.59552 8.62046 9.02957 8.44886C9.22822 8.37033 9.37411 8.34277 9.46594 8.33927C9.46244 8.43111 9.43489 8.577 9.35635 8.77565C9.18475 9.2097 8.82365 9.75938 8.29273 10.2903C7.76181 10.8212 7.21213 11.1823 6.77808 11.3539C6.57942 11.4325 6.43354 11.46 6.3417 11.4635ZM9.5442 8.34403L9.54212 8.34341C9.54357 8.34376 9.54423 8.344 9.5442 8.34403ZM9.46181 8.2631L9.46119 8.26101C9.46122 8.26098 9.46145 8.26165 9.46181 8.2631ZM6.26553 11.4594C6.26408 11.459 6.26341 11.4588 6.26344 11.4588L6.26553 11.4594ZM5.05635 10.4756C5.31982 9.80923 5.8136 9.09247 6.45425 8.45182C7.0949 7.81117 7.81166 7.31739 8.47808 7.05392C8.81005 6.92268 9.16423 6.83484 9.50971 6.83902C9.85999 6.84326 10.2513 6.94557 10.5555 7.24974C10.8596 7.55392 10.962 7.94522 10.9662 8.2955C10.9704 8.64099 10.8825 8.99516 10.7513 9.32714C10.4878 9.99355 9.99404 10.7103 9.35339 11.351C8.71274 11.9916 7.99598 12.4854 7.32957 12.7489C6.99759 12.8801 6.64341 12.9679 6.29793 12.9638C5.94765 12.9595 5.55635 12.8572 5.25217 12.553C4.948 12.2489 4.84569 11.8576 4.84145 11.5073C4.83727 11.1618 4.92511 10.8076 5.05635 10.4756ZM13.1883 9.84573C13.3528 9.46559 13.178 9.02406 12.7979 8.85954C12.4178 8.69502 11.9762 8.86981 11.8117 9.24995C11.4087 10.1812 10.8198 11.1573 9.98973 11.9873C9.69684 12.2802 9.69684 12.7551 9.98973 13.048C10.2826 13.3409 10.7575 13.3409 11.0504 13.048C12.0428 12.0556 12.7282 10.9089 13.1883 9.84573ZM16.7607 11.7421C16.761 11.7416 16.7611 11.7414 16.761 11.7414L16.76 11.7433L16.7607 11.7421ZM18.276 15.4974C18.6611 15.3449 18.8497 14.9091 18.6973 14.524C18.5448 14.1389 18.109 13.9502 17.7239 14.1027C16.7804 14.4762 15.6738 14.75 14.4999 14.75C14.0857 14.75 13.7499 15.0858 13.7499 15.5C13.7499 15.9142 14.0857 16.25 14.4999 16.25C15.9034 16.25 17.1989 15.9238 18.276 15.4974Z" fill="#23262A"/>
</svg>
