<svg width="24" height="24" viewBox="0 0 24 24" fill="none" xmlns="http://www.w3.org/2000/svg">
<path fill-rule="evenodd" clip-rule="evenodd" d="M11.25 3.12452C11.25 2.90391 11.1529 2.6945 10.9845 2.55199C10.8161 2.40949 10.5935 2.34835 10.3759 2.38485C5.76406 3.15858 2.25 7.16822 2.25 12.0001C2.25 14.1049 2.91781 16.0559 4.05302 17.65C4.18102 17.8298 4.38166 17.944 4.60155 17.9624C4.82144 17.9807 5.03825 17.9013 5.19427 17.7453L8.84691 14.0927C9.06312 13.8765 9.12643 13.5506 9.00691 13.2692C8.84174 12.8803 8.75 12.4518 8.75 12.0001C8.75 10.6373 9.58897 9.46873 10.7814 8.98604C11.0646 8.87139 11.25 8.59639 11.25 8.29084V3.12452ZM13.0155 2.55199C13.1839 2.40949 13.4065 2.34835 13.6241 2.38485C17.7083 3.07005 20.93 6.29172 21.6152 10.3759C21.6517 10.5935 21.5906 10.8161 21.4481 10.9845C21.3056 11.1529 21.0962 11.25 20.8755 11.25H15.7092C15.4037 11.25 15.1287 11.0647 15.014 10.7814C14.6843 9.96703 14.033 9.31571 13.2186 8.98604C12.9354 8.87139 12.75 8.59639 12.75 8.29084V3.12452C12.75 2.90391 12.8471 2.6945 13.0155 2.55199ZM15.0139 13.2186C15.1286 12.9354 15.4036 12.75 15.7091 12.75H20.8754C21.0961 12.75 21.3055 12.8471 21.448 13.0155C21.5905 13.1839 21.6516 13.4065 21.6151 13.6241C20.8414 18.236 16.8318 21.7501 11.9999 21.7501C9.89515 21.7501 7.94416 21.0823 6.35011 19.9472C6.17038 19.8192 6.05612 19.6185 6.03776 19.3987C6.0194 19.1788 6.0988 18.962 6.25483 18.8059L9.9075 15.1533C10.1237 14.9371 10.4495 14.8737 10.7309 14.9932C11.1198 15.1584 11.5482 15.2501 11.9999 15.2501C13.3626 15.2501 14.5313 14.4111 15.0139 13.2186Z" fill="#23262A"/>
</svg>
