<svg width="24" height="24" viewBox="0 0 24 24" fill="none" xmlns="http://www.w3.org/2000/svg">
<path fill-rule="evenodd" clip-rule="evenodd" d="M1.72684 12.2525C1.72684 10.746 2.48347 8.88712 4.68652 6.68406C6.88958 4.48101 8.74847 3.72437 10.255 3.72437C11.7615 3.72436 12.7365 4.48099 13.1718 4.9163L14.586 6.33053C14.7853 6.52988 15.0521 6.84243 15.2827 7.26739C18.0128 7.39112 19.6583 8.16919 20.6181 9.18528C21.6045 10.2296 21.7498 11.4023 21.7498 12.0001L21.7498 14.0001C21.7498 14.6157 21.5954 15.8402 20.5301 16.9055C19.4648 17.9707 17.6154 18.7501 14.4998 18.7501C11.9167 18.7501 10.204 18.2149 9.08515 17.4228C8.42448 17.6699 7.81255 17.7755 7.2498 17.7755C5.74329 17.7755 4.76828 17.0189 4.33297 16.5836L2.91871 15.1693C2.48348 14.734 1.72685 13.759 1.72684 12.2525ZM3.22684 12.2525C3.22685 13.2209 3.70764 13.8369 3.97946 14.1087L5.39363 15.5229C5.66543 15.7947 6.28142 16.2755 7.24979 16.2755C8.21817 16.2755 9.71804 15.7947 11.7576 13.7551C13.7971 11.7156 14.2779 10.2157 14.2779 9.24735C14.2779 8.27898 13.7971 7.663 13.5253 7.3912L12.1111 5.97696C11.8393 5.70516 11.2234 5.22436 10.255 5.22437C9.2866 5.22437 7.78674 5.70517 5.74718 7.74472C3.70762 9.78428 3.22684 11.2841 3.22684 12.2525ZM15.7779 9.24735C15.7779 9.09293 15.77 8.9441 15.7552 8.80086C17.8773 8.98224 18.9646 9.61922 19.5276 10.2153C20.1592 10.8839 20.2498 11.6265 20.2498 12.0001L20.2498 14.0001C20.2498 14.3845 20.1542 15.1601 19.4694 15.8448C18.7847 16.5295 17.3842 17.2501 14.4998 17.2501C12.7157 17.2501 11.4993 16.9742 10.6695 16.6024C11.3449 16.159 12.0613 15.5728 12.8182 14.8158C13.1609 14.4731 13.4686 14.1387 13.7439 13.8127C13.9882 13.8373 14.2412 13.8501 14.4999 13.8501C15.4059 13.8501 16.2619 13.6925 16.9194 13.4075C17.247 13.2656 17.5595 13.0773 17.8009 12.83C18.0455 12.5793 18.2499 12.2303 18.2499 11.8001C18.2499 10.991 17.5671 10.496 17.029 10.2423C16.6574 10.0671 16.2169 9.93579 15.738 9.85306C15.7651 9.64521 15.7779 9.4433 15.7779 9.24735ZM16.323 12.0312C15.9548 12.1908 15.427 12.3117 14.809 12.3425C15.0234 11.9858 15.1977 11.6409 15.3362 11.308C15.7652 11.3695 16.126 11.4749 16.3893 11.599C16.569 11.6838 16.6623 11.7543 16.7097 11.7995C16.6425 11.8621 16.5197 11.946 16.323 12.0312ZM6.34646 11.5418C6.34643 11.5418 6.34619 11.5411 6.34584 11.5397L6.34646 11.5418ZM6.3417 11.4635C6.3452 11.3717 6.37276 11.2258 6.45129 11.0271C6.6229 10.5931 6.98399 10.0434 7.51491 9.51246C8.04584 8.98154 8.59552 8.62044 9.02957 8.44884C9.22822 8.37031 9.37411 8.34275 9.46594 8.33925C9.46244 8.43109 9.43489 8.57697 9.35635 8.77563C9.18475 9.20968 8.82366 9.75936 8.29273 10.2903C7.76181 10.8212 7.21213 11.1823 6.77808 11.3539C6.57943 11.4324 6.43354 11.46 6.3417 11.4635ZM9.5442 8.34401L9.54212 8.34339C9.54357 8.34374 9.54424 8.34398 9.5442 8.34401ZM9.46181 8.26308L9.46119 8.26099C9.46122 8.26096 9.46145 8.26163 9.46181 8.26308ZM6.26553 11.4594L6.26448 11.4591C6.26376 11.4589 6.26342 11.4588 6.26344 11.4587L6.26553 11.4594ZM5.05635 10.4756C5.31982 9.80921 5.8136 9.09245 6.45426 8.4518C7.09491 7.81115 7.81166 7.31737 8.47808 7.0539C8.81006 6.92266 9.16423 6.83482 9.50971 6.839C9.86 6.84324 10.2513 6.94555 10.5555 7.24972C10.8596 7.5539 10.962 7.9452 10.9662 8.29548C10.9704 8.64097 10.8825 8.99514 10.7513 9.32712C10.4878 9.99353 9.99404 10.7103 9.35339 11.3509C8.71274 11.9916 7.99598 12.4854 7.32957 12.7488C6.99759 12.8801 6.64342 12.9679 6.29794 12.9637C5.94765 12.9595 5.55635 12.8572 5.25217 12.553C4.948 12.2488 4.84569 11.8575 4.84145 11.5073C4.83727 11.1618 4.92511 10.8076 5.05635 10.4756ZM13.1883 9.84574C13.3528 9.46561 13.1781 9.02407 12.7979 8.85955C12.4178 8.69503 11.9762 8.86982 11.8117 9.24996C11.4087 10.1812 10.8198 11.1573 9.98974 11.9873C9.69684 12.2802 9.69684 12.7551 9.98974 13.048C10.2826 13.3409 10.7575 13.3409 11.0504 13.048C12.0428 12.0556 12.7282 10.9089 13.1883 9.84574ZM18.276 15.4974C18.6611 15.3449 18.8497 14.9091 18.6973 14.524C18.5448 14.1389 18.109 13.9503 17.7239 14.1027C16.7804 14.4762 15.6738 14.75 14.4999 14.75C14.0857 14.75 13.7499 15.0858 13.7499 15.5C13.7499 15.9142 14.0857 16.25 14.4999 16.25C15.9034 16.25 17.1989 15.9238 18.276 15.4974Z" fill="#23262A"/>
</svg>
