<svg width="24" height="24" viewBox="0 0 24 24" fill="none" xmlns="http://www.w3.org/2000/svg">
<path fill-rule="evenodd" clip-rule="evenodd" d="M13.0155 2.55199C13.1839 2.40948 13.4065 2.34835 13.6241 2.38485C17.7083 3.07005 20.93 6.29171 21.6152 10.3759C21.6517 10.5935 21.5906 10.8161 21.4481 10.9845C21.3056 11.1529 21.0962 11.25 20.8755 11.25H15.7092C15.4037 11.25 15.1287 11.0646 15.014 10.7814C14.6843 9.96702 14.033 9.3157 13.2186 8.98603C12.9354 8.87139 12.75 8.59638 12.75 8.29083V3.12451C12.75 2.90391 12.8471 2.69449 13.0155 2.55199ZM14.25 4.06044V7.81589C15.0689 8.25701 15.743 8.93113 16.1841 9.75H19.9396C19.1627 7.00293 16.9971 4.83736 14.25 4.06044ZM15.0139 13.2186C15.1286 12.9354 15.4036 12.75 15.7091 12.75H20.8754C21.096 12.75 21.3055 12.8471 21.448 13.0155C21.5905 13.1839 21.6516 13.4065 21.6151 13.6241C20.8414 18.236 16.8318 21.7501 11.9999 21.7501C9.89515 21.7501 7.94416 21.0823 6.35011 19.9472C6.17037 19.8192 6.05612 19.6185 6.03776 19.3987C6.0194 19.1788 6.0988 18.962 6.25483 18.8059L9.9075 15.1533C10.1237 14.9371 10.4495 14.8737 10.7309 14.9932C11.1198 15.1584 11.5482 15.2501 11.9999 15.2501C13.3626 15.2501 14.5313 14.4111 15.0139 13.2186ZM16.1841 14.25C15.3825 15.7375 13.8102 16.7501 11.9999 16.7501C11.5252 16.7501 11.0659 16.6802 10.6321 16.55L7.97728 19.2048C9.16698 19.8706 10.5384 20.2501 11.9999 20.2501C15.7758 20.2501 18.9604 17.7127 19.9395 14.25H16.1841ZM11.25 3.12451C11.25 2.90391 11.1529 2.69449 10.9845 2.55199C10.8161 2.40948 10.5935 2.34835 10.3759 2.38485C5.76406 3.15857 2.25 7.16821 2.25 12.0001C2.25 14.1049 2.91781 16.0559 4.05302 17.65C4.18102 17.8298 4.38166 17.944 4.60155 17.9624C4.82144 17.9807 5.03825 17.9013 5.19427 17.7453L8.84691 14.0927C9.06312 13.8764 9.12643 13.5506 9.00691 13.2692C8.84174 12.8802 8.75 12.4518 8.75 12.0001C8.75 10.6373 9.58897 9.46872 10.7814 8.98603C11.0646 8.87139 11.25 8.59638 11.25 8.29083V3.12451ZM3.75 12.0001C3.75 8.22414 6.28734 5.03959 9.75 4.06043V7.81593C8.26251 8.61745 7.25 10.1898 7.25 12.0001C7.25 12.4748 7.31987 12.9342 7.45016 13.3681L4.79538 16.0229C4.1295 14.8331 3.75 13.4617 3.75 12.0001Z" fill="#262626"/>
</svg>
