<svg width="24" height="24" viewBox="0 0 24 24" fill="none" xmlns="http://www.w3.org/2000/svg">
<path fill-rule="evenodd" clip-rule="evenodd" d="M4.68673 6.68406C2.48367 8.88712 1.72705 10.746 1.72705 12.2525C1.72706 13.759 2.48369 14.734 2.91892 15.1693L4.33317 16.5836C4.76848 17.0189 5.7435 17.7755 7.25001 17.7755C8.75651 17.7755 10.6154 17.0188 12.8185 14.8158C15.0215 12.6127 15.7781 10.7539 15.7781 9.24735C15.7781 7.74085 15.0215 6.76583 14.5862 6.33053L13.172 4.9163C12.7367 4.48099 11.7617 3.72436 10.2552 3.72437C8.74868 3.72437 6.88978 4.48101 4.68673 6.68406ZM13.1885 9.84566C13.353 9.46552 13.1782 9.02399 12.7981 8.85947C12.4179 8.69495 11.9764 8.86974 11.8119 9.24988C11.4088 10.1811 10.8199 11.1572 9.98989 11.9872C9.697 12.2801 9.697 12.755 9.98989 13.0479C10.2828 13.3408 10.7577 13.3408 11.0505 13.0479C12.0429 12.0555 12.7284 10.9088 13.1885 9.84566ZM10.0253 7.78015C10.533 8.28784 9.9948 9.64914 8.82322 10.8207C7.65165 11.9923 6.29035 12.5305 5.78267 12.0228C5.27498 11.5151 5.81317 10.1538 6.98475 8.98224C8.15632 7.81066 9.51762 7.27247 10.0253 7.78015ZM11.3806 18.4179C11.1678 18.3659 11.1355 18.0836 11.3208 17.9666C12.0753 17.4902 12.8475 16.8767 13.6364 16.1148C13.7523 16.0029 13.9448 16.0293 14.0779 16.12C14.1981 16.202 14.3434 16.2499 14.4998 16.2499C15.9033 16.2499 17.1988 15.9237 18.2759 15.4973C18.661 15.3448 18.8496 14.909 18.6972 14.5239C18.5447 14.1387 18.1089 13.9501 17.7237 14.1026C17.0533 14.368 16.3005 14.5831 15.4997 14.6853C15.2826 14.713 15.1534 14.4619 15.2873 14.2888C15.6386 13.8345 15.9404 13.3861 16.1951 12.944C16.227 12.8887 16.2785 12.8474 16.339 12.827C17.0453 12.5892 17.4998 12.2176 17.4998 11.7999C17.4998 11.5812 17.3752 11.3752 17.155 11.1943C17.07 11.1244 17.0272 11.0128 17.0555 10.9065C17.2057 10.3416 17.278 9.78838 17.278 9.24724C17.278 8.73848 17.2141 8.27374 17.1088 7.85338C17.0628 7.66949 17.2187 7.49112 17.4038 7.53192C18.8495 7.85049 19.8498 8.41425 20.5301 9.0946C21.5954 10.1599 21.7498 11.3843 21.7498 11.9999L21.7498 13.9999C21.7498 14.6155 21.5954 15.84 20.5301 16.9053C19.4648 17.9705 17.6154 18.7499 14.4998 18.7499C13.2738 18.7499 12.2439 18.6292 11.3806 18.4179Z" fill="#23262A"/>
</svg>
