<svg width="24" height="24" viewBox="0 0 24 24" fill="none" xmlns="http://www.w3.org/2000/svg">
<path fill-rule="evenodd" clip-rule="evenodd" d="M4.54475 2.40397C4.69043 2.2927 4.87026 2.23969 5.04985 2.25165C5.06642 2.25055 5.08315 2.25 5.1 2.25H18.9998C19.414 2.25 19.7498 2.58579 19.7498 3V21C19.7498 21.4142 19.414 21.75 18.9998 21.75C18.5856 21.75 18.2498 21.4142 18.2498 21V3.75H10.6004L16.1973 5.27643C16.5236 5.36542 16.75 5.66179 16.75 6V21C16.75 21.4142 16.4142 21.75 16 21.75C15.5858 21.75 15.25 21.4142 15.25 21V6.57285L5.75001 3.98194L5.75015 21C5.75015 21.4142 5.41437 21.75 5.00015 21.75C4.58594 21.75 4.25015 21.4142 4.25015 21L4.25 3.00001C4.25 2.76625 4.35899 2.54586 4.54475 2.40397ZM12.75 11.5C11.9216 11.5 11.25 12.1716 11.25 13C11.25 13.8284 11.9216 14.5 12.75 14.5C13.5784 14.5 14.25 13.8284 14.25 13C14.25 12.1716 13.5784 11.5 12.75 11.5Z" fill="#23262A"/>
</svg>
