<svg width="24" height="24" viewBox="0 0 24 24" fill="none" xmlns="http://www.w3.org/2000/svg">
<path fill-rule="evenodd" clip-rule="evenodd" d="M4.44975 2.49037C4.32578 2.62415 4.25 2.80323 4.25 3C4.25 3 4.25 3.00001 4.25 3.00001L4.25015 21C4.25015 21.4142 4.58593 21.75 5.00015 21.75H16C16.4142 21.75 16.75 21.4142 16.75 21V6.00001C16.75 5.66179 16.5236 5.36542 16.1973 5.27643L10.6004 3.75H18.2499V21C18.2499 21.4142 18.5857 21.75 18.9999 21.75C19.4141 21.75 19.7499 21.4142 19.7499 21V3C19.7499 2.58579 19.4141 2.25 18.9999 2.25H5.00004H5C4.79856 2.25 4.61566 2.32942 4.48092 2.45865C4.47019 2.46894 4.4598 2.47951 4.44975 2.49037ZM11.25 13C11.25 12.1716 11.9216 11.5 12.75 11.5C13.5784 11.5 14.25 12.1716 14.25 13C14.25 13.8284 13.5784 14.5 12.75 14.5C11.9216 14.5 11.25 13.8284 11.25 13Z" fill="#23262A"/>
</svg>
