<svg width="24" height="24" viewBox="0 0 24 24" fill="none" xmlns="http://www.w3.org/2000/svg">
<path fill-rule="evenodd" clip-rule="evenodd" d="M12 2.75C12.4142 2.75 12.75 3.08579 12.75 3.5V12.1893L15.9697 8.96967C16.2626 8.67678 16.7374 8.67678 17.0303 8.96967C17.3232 9.26256 17.3232 9.73744 17.0303 10.0303L12.5303 14.5303C12.2374 14.8232 11.7626 14.8232 11.4697 14.5303L6.96967 10.0303C6.67678 9.73744 6.67678 9.26256 6.96967 8.96967C7.26256 8.67678 7.73744 8.67678 8.03033 8.96967L11.25 12.1893V3.5C11.25 3.08579 11.5858 2.75 12 2.75ZM4.75 15.5C4.75 15.0858 4.41421 14.75 4 14.75C3.58579 14.75 3.25 15.0858 3.25 15.5V19C3.25 19.9665 4.0335 20.75 5 20.75H19C19.9665 20.75 20.75 19.9665 20.75 19V15.5C20.75 15.0858 20.4142 14.75 20 14.75C19.5858 14.75 19.25 15.0858 19.25 15.5V19C19.25 19.1381 19.1381 19.25 19 19.25H5C4.86193 19.25 4.75 19.1381 4.75 19V15.5Z" fill="#23262A"/>
</svg>
