<svg width="24" height="24" viewBox="0 0 24 24" fill="none" xmlns="http://www.w3.org/2000/svg">
<path fill-rule="evenodd" clip-rule="evenodd" d="M7.5 8.25C8.32843 8.25 9 8.92157 9 9.75C9 10.5784 8.32843 11.25 7.5 11.25C6.67157 11.25 6 10.5784 6 9.75C6 8.92157 6.67157 8.25 7.5 8.25ZM13.5 9.75C13.5 8.92157 12.8284 8.25 12 8.25C11.1716 8.25 10.5 8.92157 10.5 9.75C10.5 10.5784 11.1716 11.25 12 11.25C12.8284 11.25 13.5 10.5784 13.5 9.75ZM13.5 14.25C13.5 13.4216 12.8284 12.75 12 12.75C11.1716 12.75 10.5 13.4216 10.5 14.25C10.5 15.0784 11.1716 15.75 12 15.75C12.8284 15.75 13.5 15.0784 13.5 14.25ZM9 14.25C9 13.4216 8.32843 12.75 7.5 12.75C6.67157 12.75 6 13.4216 6 14.25C6 15.0784 6.67157 15.75 7.5 15.75C8.32843 15.75 9 15.0784 9 14.25ZM16.5 8.25C17.3284 8.25 18 8.92157 18 9.75C18 10.5784 17.3284 11.25 16.5 11.25C15.6716 11.25 15 10.5784 15 9.75C15 8.92157 15.6716 8.25 16.5 8.25ZM18 14.25C18 13.4216 17.3284 12.75 16.5 12.75C15.6716 12.75 15 13.4216 15 14.25C15 15.0784 15.6716 15.75 16.5 15.75C17.3284 15.75 18 15.0784 18 14.25Z" fill="#23262A"/>
</svg>
