<svg width="24" height="24" viewBox="0 0 24 24" fill="none" xmlns="http://www.w3.org/2000/svg">
<path fill-rule="evenodd" clip-rule="evenodd" d="M12.979 2.26855C9.07371 1.66774 5.55176 4.68929 5.55176 8.64052C5.55176 9.05474 5.88754 9.39052 6.30176 9.39052C6.71597 9.39052 7.05176 9.05474 7.05176 8.64052C7.05176 5.60862 9.75426 3.29008 12.7509 3.75111C15.7096 4.2063 17.5893 7.16448 16.7446 10.0364L14.5484 17.5036C14.0695 19.1319 12.5751 20.2501 10.8778 20.2501C8.76473 20.2501 7.05176 18.5371 7.05176 16.4241C7.05176 16.0099 6.71597 15.6741 6.30176 15.6741C5.88754 15.6741 5.55176 16.0099 5.55176 16.4241C5.55176 19.3656 7.93631 21.7501 10.8778 21.7501C13.2405 21.7501 15.3207 20.1936 15.9874 17.9269L18.1837 10.4596C19.2845 6.71691 16.8349 2.86176 12.979 2.26855ZM12.6167 5.87599C10.5085 5.46914 8.55176 7.08436 8.55176 9.23148V11.0001C8.55176 11.4143 8.88754 11.7501 9.30176 11.7501C9.99211 11.7501 10.5518 12.3097 10.5518 13.0001C10.5518 13.6905 9.99211 14.2501 9.30176 14.2501C8.88754 14.2501 8.55176 14.5859 8.55176 15.0001C8.55176 15.4143 8.88754 15.7501 9.30176 15.7501C10.8205 15.7501 12.0518 14.5189 12.0518 13.0001C12.0518 11.7413 11.206 10.6801 10.0518 10.3536V9.23148C10.0518 8.02679 11.1496 7.12055 12.3325 7.34882C13.4289 7.5604 14.1132 8.66036 13.8186 9.7374L13.5273 10.8022C13.418 11.2017 13.6533 11.6142 14.0529 11.7235C14.4524 11.8328 14.8649 11.5975 14.9742 11.198L15.2655 10.1332C15.7906 8.21357 14.5708 6.2531 12.6167 5.87599Z" fill="#23262A"/>
</svg>
