<svg width="24" height="24" viewBox="0 0 24 24" fill="none" xmlns="http://www.w3.org/2000/svg">
<path fill-rule="evenodd" clip-rule="evenodd" d="M12.9788 2.26852C9.70637 1.76507 6.70627 3.80423 5.8172 6.80024C5.43317 8.09435 5.83607 9.4072 6.1454 10.4111C6.36887 11.1364 6.55155 11.9281 6.55155 12.5323C6.55155 13.1365 6.36887 13.9281 6.1454 14.6534L6.12702 14.713C5.8247 15.693 5.41246 17.0292 5.89254 18.3026C6.65158 20.316 8.59617 21.7501 10.8776 21.7501C13.2403 21.7501 15.3205 20.1935 15.9872 17.9269L18.1835 10.4596C19.2843 6.71688 16.8347 2.86173 12.9788 2.26852ZM12.6167 5.87599C10.5085 5.46914 8.55176 7.08436 8.55176 9.23148V11.0001C8.55176 11.4143 8.88754 11.7501 9.30176 11.7501C9.99211 11.7501 10.5518 12.3097 10.5518 13.0001C10.5518 13.6905 9.99211 14.2501 9.30176 14.2501C8.88754 14.2501 8.55176 14.5859 8.55176 15.0001C8.55176 15.4143 8.88754 15.7501 9.30176 15.7501C10.8205 15.7501 12.0518 14.5189 12.0518 13.0001C12.0518 11.7413 11.206 10.6801 10.0518 10.3536V9.23148C10.0518 8.02679 11.1496 7.12055 12.3325 7.34882C13.4289 7.5604 14.1132 8.66036 13.8186 9.7374L13.5273 10.8022C13.418 11.2017 13.6533 11.6142 14.0529 11.7235C14.4524 11.8328 14.8649 11.5975 14.9742 11.198L15.2655 10.1332C15.7906 8.21357 14.5708 6.2531 12.6167 5.87599Z" fill="#23262A"/>
</svg>
