<svg width="24" height="24" viewBox="0 0 24 24" fill="none" xmlns="http://www.w3.org/2000/svg">
<path fill-rule="evenodd" clip-rule="evenodd" d="M15.6772 2.26855C11.772 1.66774 8.25 4.68929 8.25 8.64052C8.25 9.05474 8.58579 9.39052 9 9.39052C9.41421 9.39052 9.75 9.05474 9.75 8.64052C9.75 5.60862 12.4525 3.29008 15.4492 3.75111C18.4079 4.2063 20.2875 7.16448 19.4429 10.0364L17.2466 17.5036C16.7677 19.1319 15.2733 20.2501 13.576 20.2501C11.463 20.2501 9.75 18.5371 9.75 16.4241C9.75 16.0099 9.41421 15.6741 9 15.6741C8.58579 15.6741 8.25 16.0099 8.25 16.4241C8.25 19.3656 10.6345 21.7501 13.576 21.7501C15.9387 21.7501 18.019 20.1936 18.6857 17.9269L20.8819 10.4596C21.9827 6.71691 19.5331 2.86176 15.6772 2.26855ZM15.3149 5.87599C13.2067 5.46914 11.25 7.08436 11.25 9.23148V11.0001C11.25 11.4143 11.5858 11.7501 12 11.7501C12.6904 11.7501 13.25 12.3097 13.25 13.0001C13.25 13.6905 12.6904 14.2501 12 14.2501C11.5858 14.2501 11.25 14.5859 11.25 15.0001C11.25 15.4143 11.5858 15.7501 12 15.7501C13.5188 15.7501 14.75 14.5189 14.75 13.0001C14.75 11.7413 13.9043 10.6801 12.75 10.3536V9.23148C12.75 8.02679 13.8479 7.12055 15.0307 7.34882C16.1271 7.5604 16.8115 8.66036 16.5169 9.7374L16.2256 10.8022C16.1163 11.2017 16.3516 11.6142 16.7511 11.7235C17.1506 11.8328 17.5631 11.5975 17.6724 11.198L17.9637 10.1332C18.4888 8.21357 17.269 6.2531 15.3149 5.87599ZM3.74162 6.03566C3.99808 5.7104 4.46967 5.65462 4.79493 5.91108C6.59328 7.32901 7.74997 9.52966 7.74997 12C7.74997 14.4704 6.59328 16.6711 4.79493 18.089C4.46967 18.3454 3.99808 18.2897 3.74162 17.9644C3.48515 17.6391 3.54093 17.1675 3.8662 16.9111C5.31932 15.7653 6.24997 13.9916 6.24997 12C6.24997 10.0085 5.31932 8.23472 3.8662 7.08898C3.54093 6.83252 3.48515 6.36093 3.74162 6.03566ZM3.56231 8.85802C3.28821 8.54747 2.81425 8.51791 2.5037 8.79201C2.19315 9.06611 2.1636 9.54007 2.4377 9.85062C2.94377 10.424 3.25 11.1754 3.25 12.0001C3.25 12.8249 2.94377 13.5763 2.4377 14.1497C2.1636 14.4602 2.19315 14.9342 2.5037 15.2083C2.81425 15.4824 3.28821 15.4528 3.56231 15.1423C4.30096 14.3054 4.75 13.2043 4.75 12.0001C4.75 10.796 4.30096 9.69491 3.56231 8.85802Z" fill="#23262A"/>
</svg>
