<svg width="24" height="24" viewBox="0 0 24 24" fill="none" xmlns="http://www.w3.org/2000/svg">
<path fill-rule="evenodd" clip-rule="evenodd" d="M5.55176 8.64052C5.55176 4.68929 9.07371 1.66774 12.979 2.26855C14.6383 2.52382 16.0395 3.38503 17.0069 4.58041C17.2675 4.90239 17.2178 5.37465 16.8958 5.63523C16.5738 5.89582 16.1016 5.84605 15.841 5.52407C15.0983 4.60637 14.026 3.94727 12.7509 3.75111C9.75426 3.29008 7.05176 5.60862 7.05176 8.64052C7.05176 9.05474 6.71597 9.39052 6.30176 9.39052C5.88754 9.39052 5.55176 9.05474 5.55176 8.64052ZM12.6167 5.87599C10.5085 5.46914 8.55176 7.08436 8.55176 9.23148V11.0001C8.55176 11.4143 8.88754 11.7501 9.30176 11.7501C9.51365 11.7501 9.71116 11.8022 9.88432 11.8937C10.2506 12.0872 10.7043 11.9471 10.8978 11.5809C11.0913 11.2146 10.9512 10.7609 10.585 10.5674C10.4167 10.4785 10.2382 10.4066 10.0518 10.3538V9.23148C10.0518 8.02679 11.1496 7.12055 12.3325 7.34882C12.7722 7.43368 13.1435 7.65985 13.4138 7.97036C13.6857 8.28278 14.1595 8.31559 14.4719 8.04363C14.7843 7.77167 14.8171 7.29793 14.5452 6.98551C14.063 6.43161 13.3973 6.02664 12.6167 5.87599ZM17.8387 11.6323C17.9556 11.2349 17.7282 10.818 17.3308 10.7011C16.9334 10.5843 16.5166 10.8117 16.3997 11.209L14.5484 17.5036C14.0694 19.1319 12.575 20.25 10.8778 20.25C10.0852 20.25 9.35106 20.0099 8.74122 19.5984C8.39784 19.3668 7.93169 19.4574 7.70003 19.8007C7.46838 20.1441 7.55895 20.6103 7.90233 20.8419C8.7522 21.4153 9.77703 21.75 10.8778 21.75C13.2405 21.75 15.3207 20.1935 15.9874 17.9268L17.8387 11.6323ZM20.5303 5.53033C20.8232 5.23744 20.8232 4.76256 20.5303 4.46967C20.2374 4.17678 19.7626 4.17678 19.4697 4.46967L4.46967 19.4697C4.17678 19.7626 4.17678 20.2374 4.46967 20.5303C4.76256 20.8232 5.23744 20.8232 5.53033 20.5303L20.5303 5.53033Z" fill="#23262A"/>
</svg>
