<svg width="24" height="24" viewBox="0 0 24 24" fill="none" xmlns="http://www.w3.org/2000/svg">
<path fill-rule="evenodd" clip-rule="evenodd" d="M12.9788 2.26852C9.70637 1.76507 6.70627 3.80423 5.8172 6.80024C5.43317 8.09435 5.83607 9.4072 6.1454 10.4111C6.36887 11.1364 6.55155 11.9281 6.55155 12.5323C6.55155 13.1365 6.36887 13.9281 6.1454 14.6534L6.12702 14.713C6.05222 14.9555 6.33464 15.1298 6.51404 14.9504L9.40358 12.0609C9.52027 11.9442 9.46679 11.7501 9.30176 11.7501C8.88754 11.7501 8.55176 11.4143 8.55176 11.0001V9.23148C8.55176 7.08436 10.5085 5.46914 12.6167 5.87599C13.2884 6.00563 13.8734 6.32237 14.3306 6.76025C14.4342 6.85954 14.5996 6.86487 14.7011 6.76337L16.7902 4.67424C16.8816 4.58288 16.8887 4.43659 16.8026 4.34022C15.8468 3.26978 14.526 2.50655 12.9788 2.26852ZM8.02323 20.9214C7.89301 20.8385 7.87833 20.6572 7.98746 20.5481L18.1157 10.4199C18.1457 10.3898 18.1955 10.4188 18.1835 10.4596L15.9872 17.9269C15.3205 20.1935 13.2403 21.7501 10.8776 21.7501C9.82711 21.7501 8.84804 21.446 8.02323 20.9214ZM10.9244 10.54C10.8414 10.6231 10.7123 10.636 10.6091 10.5801C10.4885 10.5148 10.3624 10.4583 10.2318 10.4113C10.1265 10.3735 10.0518 10.2764 10.0518 10.1645V9.23148C10.0518 8.02679 11.1496 7.12055 12.3325 7.34882C12.7107 7.42182 13.04 7.60057 13.2969 7.84764C13.3895 7.93676 13.3812 8.08322 13.2903 8.17413L10.9244 10.54ZM20.5303 5.53033C20.8232 5.23744 20.8232 4.76256 20.5303 4.46967C20.2374 4.17678 19.7626 4.17678 19.4697 4.46967L4.46967 19.4697C4.17678 19.7626 4.17678 20.2374 4.46967 20.5303C4.76256 20.8232 5.23744 20.8232 5.53033 20.5303L20.5303 5.53033Z" fill="#23262A"/>
</svg>
