<svg width="24" height="24" viewBox="0 0 24 24" fill="none" xmlns="http://www.w3.org/2000/svg">
<path fill-rule="evenodd" clip-rule="evenodd" d="M15.6785 2.26852C12.4061 1.76507 9.40598 3.80423 8.51691 6.80024C8.13287 8.09435 8.53577 9.4072 8.84511 10.4111C9.06858 11.1364 9.25126 11.9281 9.25126 12.5323C9.25126 13.1365 9.06858 13.9281 8.84511 14.6534L8.82672 14.713C8.52441 15.693 8.11216 17.0292 8.59225 18.3026C9.35129 20.316 11.2959 21.7501 13.5773 21.7501C15.94 21.7501 18.0202 20.1935 18.6869 17.9269L20.8832 10.4596C21.984 6.71688 19.5344 2.86173 15.6785 2.26852ZM15.3164 5.87599C13.2082 5.46914 11.2515 7.08436 11.2515 9.23148V11.0001C11.2515 11.4143 11.5873 11.7501 12.0015 11.7501C12.6918 11.7501 13.2515 12.3097 13.2515 13.0001C13.2515 13.6905 12.6918 14.2501 12.0015 14.2501C11.5873 14.2501 11.2515 14.5859 11.2515 15.0001C11.2515 15.4143 11.5873 15.7501 12.0015 15.7501C13.5202 15.7501 14.7515 14.5189 14.7515 13.0001C14.7515 11.7413 13.9057 10.6801 12.7515 10.3536V9.23148C12.7515 8.02679 13.8493 7.12055 15.0322 7.34882C16.1286 7.5604 16.8129 8.66036 16.5183 9.7374L16.227 10.8022C16.1177 11.2017 16.353 11.6142 16.7526 11.7235C17.1521 11.8328 17.5646 11.5975 17.6739 11.198L17.9652 10.1332C18.4903 8.21357 17.2705 6.2531 15.3164 5.87599ZM3.74165 6.03566C3.99811 5.7104 4.4697 5.65462 4.79496 5.91108C6.59331 7.32901 7.75 9.52966 7.75 12C7.75 14.4704 6.59331 16.6711 4.79496 18.089C4.4697 18.3454 3.99811 18.2897 3.74165 17.9644C3.48518 17.6391 3.54096 17.1675 3.86623 16.9111C5.31935 15.7653 6.25 13.9916 6.25 12C6.25 10.0085 5.31935 8.23472 3.86623 7.08898C3.54096 6.83252 3.48518 6.36093 3.74165 6.03566ZM3.56231 8.85796C3.28821 8.5474 2.81426 8.51785 2.50371 8.79195C2.19316 9.06605 2.16361 9.54001 2.4377 9.85056C2.94378 10.4239 3.25001 11.1753 3.25001 12.0001C3.25001 12.8248 2.94378 13.5762 2.4377 14.1496C2.16361 14.4602 2.19316 14.9341 2.50371 15.2082C2.81426 15.4823 3.28821 15.4528 3.56231 15.1422C4.30097 14.3053 4.75001 13.2042 4.75001 12.0001C4.75001 10.7959 4.30097 9.69485 3.56231 8.85796Z" fill="#23262A"/>
</svg>
