<svg width="24" height="24" viewBox="0 0 24 24" fill="none" xmlns="http://www.w3.org/2000/svg">
<path fill-rule="evenodd" clip-rule="evenodd" d="M8.31111 4.61865C5.60667 5.97284 3.75 8.7696 3.75 12C3.75 15.9956 6.59049 19.3278 10.3623 20.0875V19.7624C10.3623 18.5028 9.37681 17.5124 7.94824 17.5124C7.14013 17.5124 6.40193 17.3155 5.86949 16.7945C5.33402 16.2705 5.13574 15.5454 5.13574 14.7702C5.13574 13.5668 5.77448 12.6057 6.62758 11.9711C7.47313 11.3422 8.56959 10.9967 9.63574 10.9967C10.3721 10.9967 11.017 11.1836 11.5345 11.339L11.5759 11.3514C12.1088 11.5115 12.4628 11.6178 12.7998 11.6178C12.8028 11.6178 12.8085 11.6176 12.8199 11.6133C12.8324 11.6086 12.8546 11.5979 12.8853 11.5745C12.9501 11.5252 13.0327 11.4346 13.1156 11.2935C13.2855 11.0043 13.3857 10.6253 13.3857 10.3288C13.3857 10.3156 13.3714 10.2053 13.1936 9.99702C13.0269 9.80174 12.7775 9.59322 12.481 9.39799C12.1881 9.20506 11.8758 9.04258 11.605 8.93074C11.4874 8.88219 11.3836 8.84568 11.2976 8.82057C11.2773 8.86467 11.2539 8.92025 11.2274 8.98953C11.1969 9.06944 11.1675 9.15313 11.1346 9.24672L11.1345 9.24694L11.1341 9.24796L11.1339 9.24854C11.1024 9.33841 11.0668 9.43962 11.0293 9.53618C10.9676 9.69556 10.8528 9.98008 10.646 10.1869C10.4854 10.3474 10.1902 10.5207 9.81805 10.4284C9.52952 10.3568 9.36149 10.1575 9.29821 10.077C9.17887 9.9253 9.07366 9.71001 9.01 9.57973L8.98741 9.5337C8.92823 9.41435 8.8823 9.32765 8.84323 9.26508C8.78476 9.27783 8.74409 9.29689 8.71318 9.31507C8.64935 9.35264 8.58396 9.41223 8.49084 9.52283C8.4778 9.53832 8.45936 9.56127 8.437 9.5891L8.437 9.58911C8.35812 9.6873 8.23038 9.84631 8.11798 9.95355C7.93325 10.1298 7.64224 10.3296 7.22973 10.3296C6.88955 10.3296 6.49521 10.2559 6.15399 10.0099C5.79351 9.74995 5.57681 9.35844 5.50999 8.89362C5.43123 8.3458 5.66491 7.77412 5.91296 7.33512C6.1809 6.86091 6.55784 6.38149 6.96967 5.96966C7.14177 5.79756 7.3247 5.63969 7.48344 5.50269C7.51824 5.47266 7.55188 5.44363 7.58398 5.41567C7.77252 5.2515 7.93251 5.10451 8.07725 4.93594C8.15693 4.84314 8.23569 4.7395 8.31111 4.61865ZM10.1703 3.95361C9.96111 4.8362 9.62316 5.4381 9.21529 5.91311C8.99718 6.16712 8.76995 6.37195 8.56902 6.54691C8.52677 6.5837 8.48633 6.61865 8.44737 6.65232L8.44736 6.65232C8.29184 6.78673 8.15987 6.90078 8.03033 7.03032C7.69852 7.36213 7.40981 7.73517 7.21891 8.07301C7.12368 8.24156 7.06076 8.38734 7.02594 8.50368C7.0088 8.56094 7.00024 8.60519 6.99661 8.63702C6.99336 8.66558 6.99463 8.67912 6.99475 8.6803L6.99472 8.68019C7.00408 8.74524 7.01892 8.7751 7.02402 8.784C7.02791 8.79081 7.02968 8.79204 7.03092 8.7929L7.03124 8.79313C7.03591 8.79649 7.06296 8.81295 7.12635 8.82256C7.14539 8.80087 7.16458 8.7767 7.19054 8.744L7.19055 8.744C7.22472 8.70096 7.27063 8.64315 7.34338 8.55674C7.4775 8.39744 7.6723 8.18714 7.95248 8.02228C8.24335 7.85112 8.58923 7.74999 9 7.74999C9.45297 7.74999 9.75757 8.01382 9.92686 8.21095C9.99058 8.0708 10.0706 7.92131 10.172 7.78733C10.3424 7.56211 10.6528 7.28188 11.124 7.28188C11.455 7.28188 11.8456 7.40725 12.1775 7.54428C12.5372 7.69282 12.934 7.9002 13.3061 8.14527C13.6747 8.38802 14.0463 8.68561 14.3345 9.02316C14.6115 9.34774 14.8857 9.79704 14.8857 10.3288C14.8857 10.8994 14.7106 11.5399 14.4088 12.0534C14.1233 12.5393 13.5916 13.1178 12.7998 13.1178C12.2326 13.1178 11.6757 12.949 11.2176 12.8102L11.1031 12.7756C10.5865 12.6204 10.1299 12.4967 9.63574 12.4967C8.87376 12.4967 8.09523 12.7489 7.5228 13.1747C6.95794 13.5948 6.63574 14.1454 6.63574 14.7702C6.63574 15.3074 6.77145 15.5784 6.91859 15.7224C7.06877 15.8694 7.36183 16.0124 7.94824 16.0124C10.129 16.0124 11.8623 17.6002 11.8623 19.7624V20.2489C11.9081 20.2496 11.954 20.25 12 20.25C13.2186 20.25 14.3754 19.9858 15.4164 19.5116C15.4604 19.4298 15.4678 19.399 15.474 19.3631C15.4886 19.2791 15.4944 19.1265 15.465 18.7327L15.4645 18.7267L15.4645 18.7267C15.4626 18.6973 15.4593 18.6587 15.4555 18.6139C15.4441 18.4791 15.4278 18.2874 15.4278 18.1144C15.4278 17.3597 15.8245 16.8133 16.3195 16.2576C16.4283 16.1341 16.5041 16.0415 16.5572 15.9713C16.4817 15.9234 16.3954 15.8707 16.2954 15.8097L16.2916 15.8074C16.1558 15.7246 16.0001 15.6295 15.8427 15.5263C15.534 15.3239 15.1748 15.0625 14.8885 14.7362C14.5984 14.4055 14.3379 13.9553 14.3379 13.3917C14.3379 12.7682 14.6187 12.1758 14.9982 11.7474C15.3741 11.3231 15.9439 10.9542 16.6114 10.9542C17.4565 10.9542 18.0077 11.4189 18.302 11.6669L18.302 11.6669L18.3021 11.667C18.3394 11.6984 18.3725 11.7263 18.4016 11.7494L18.4089 11.7552L18.4089 11.7553L18.578 11.893C18.7848 12.0614 18.9428 12.1901 19.0673 12.2875C19.277 12.1484 19.6282 11.9503 20.0918 11.9503H20.2499C20.2231 7.41683 16.5398 3.75 12 3.75C11.3712 3.75 10.7588 3.82035 10.1703 3.95361ZM20.1229 13.4503C19.7516 15.544 18.5907 17.3647 16.959 18.5939C16.954 18.5242 16.949 18.4657 16.9444 18.4129L16.9444 18.4129L16.9444 18.4128C16.9351 18.3055 16.9278 18.2215 16.9278 18.1144C16.9278 17.9558 16.9755 17.776 17.4408 17.254L17.4408 17.254L17.4437 17.2508C17.8833 16.7517 18.17 16.3543 18.17 15.7824C18.17 15.4099 17.9405 15.1638 17.8485 15.0723C17.7307 14.9552 17.5892 14.8547 17.4705 14.7759C17.3521 14.6972 17.2177 14.6153 17.0905 14.5377L17.0726 14.5268C16.9351 14.4429 16.7993 14.3598 16.6652 14.2719C16.3908 14.092 16.1671 13.919 16.0161 13.7469C15.8689 13.5791 15.8379 13.4669 15.8379 13.3917C15.8379 13.2067 15.9321 12.9553 16.121 12.7421C16.3134 12.5248 16.5054 12.4542 16.6114 12.4542C16.8848 12.4542 17.0139 12.5582 17.3222 12.8066C17.3662 12.842 17.4137 12.8804 17.4659 12.9217L17.6232 13.0499C17.8845 13.2628 18.0962 13.4353 18.2575 13.5569C18.3537 13.6295 18.4555 13.7021 18.5546 13.759C18.6263 13.8 18.8174 13.9074 19.0606 13.9074C19.2253 13.9074 19.3579 13.8612 19.4402 13.8254C19.5242 13.7889 19.5948 13.7456 19.6428 13.7142C19.6916 13.6824 19.7397 13.6479 19.775 13.6226L19.7757 13.6222L19.781 13.6183C19.8181 13.5917 19.8477 13.5704 19.8786 13.5495C20.0103 13.4601 20.0632 13.4503 20.0918 13.4503H20.1229ZM2.25 12C2.25 6.61522 6.61522 2.25 12 2.25C17.3848 2.25 21.75 6.61522 21.75 12C21.75 17.3848 17.3848 21.75 12 21.75C6.61522 21.75 2.25 17.3848 2.25 12ZM8.78061 9.17863C8.77765 9.17541 8.77616 9.17408 8.77616 9.17422C8.77616 9.17429 8.77655 9.17475 8.77734 9.17554C8.77808 9.17629 8.77917 9.17733 8.78061 9.17863Z" fill="#262626"/>
</svg>
