<svg width="24" height="24" viewBox="0 0 24 24" fill="none" xmlns="http://www.w3.org/2000/svg">
<path fill-rule="evenodd" clip-rule="evenodd" d="M12 2.25C6.61522 2.25 2.25 6.61522 2.25 12C2.25 17.3848 6.61522 21.75 12 21.75C17.3848 21.75 21.75 17.3848 21.75 12C21.75 6.61522 17.3848 2.25 12 2.25ZM8.31136 4.61852C5.60679 5.97267 3.75 8.7695 3.75 12C3.75 15.9956 6.59049 19.3278 10.3623 20.0875V19.7623C10.3623 18.5027 9.37681 17.5123 7.94824 17.5123C7.14013 17.5123 6.40193 17.3155 5.86949 16.7944C5.33402 16.2705 5.13574 15.5454 5.13574 14.7701C5.13574 13.5668 5.77448 12.6056 6.62758 11.9711C7.47313 11.3421 8.56959 10.9967 9.63574 10.9967C10.3721 10.9967 11.017 11.1835 11.5345 11.3389L11.5759 11.3513C12.1088 11.5114 12.4628 11.6178 12.7998 11.6178C12.8028 11.6178 12.8085 11.6175 12.8199 11.6132C12.8324 11.6085 12.8546 11.5979 12.8853 11.5744C12.9501 11.5251 13.0327 11.4345 13.1156 11.2935C13.2855 11.0042 13.3857 10.6252 13.3857 10.3287C13.3857 10.3155 13.3716 10.2052 13.1938 9.99694C13.0271 9.80165 12.7777 9.59314 12.4812 9.39791C12.1883 9.20498 11.8761 9.04249 11.6052 8.93066C11.4876 8.88211 11.3839 8.8456 11.2978 8.82048C11.2775 8.86458 11.2541 8.92016 11.2277 8.98945C11.1971 9.0694 11.1677 9.15321 11.1347 9.24686L11.1344 9.24787C11.1028 9.33772 11.067 9.43955 11.0296 9.53609C10.9678 9.69547 10.853 9.97999 10.6462 10.1868C10.4857 10.3473 10.1904 10.5206 9.81828 10.4283C9.52974 10.3567 9.36171 10.1574 9.29843 10.0769C9.1791 9.92522 9.07389 9.70993 9.01023 9.57965L8.98763 9.53362C8.92845 9.41426 8.88252 9.32757 8.84346 9.26499C8.78498 9.27775 8.74432 9.2968 8.71341 9.31499C8.64957 9.35255 8.58418 9.41215 8.49106 9.52275C8.47802 9.53824 8.45959 9.56118 8.43723 9.58902C8.35835 9.6872 8.2306 9.84623 8.1182 9.95346C7.93347 10.1297 7.64246 10.3295 7.22995 10.3295C6.88978 10.3295 6.49544 10.2558 6.15421 10.0098C5.79373 9.74986 5.57703 9.35835 5.51021 8.89354C5.43146 8.34571 5.66513 7.77404 5.91319 7.33503C6.18112 6.86083 6.55806 6.38141 6.96989 5.96958C7.14198 5.79748 7.32491 5.63961 7.48365 5.50261C7.51845 5.47258 7.5521 5.44354 7.5842 5.41559C7.77274 5.25142 7.93273 5.10442 8.07747 4.93585C8.15716 4.84304 8.23593 4.7394 8.31136 4.61852ZM16.9588 18.594C18.5907 17.3648 19.7517 15.544 20.1229 13.4503H20.0918C20.0632 13.4503 20.0103 13.4601 19.8786 13.5495C19.8477 13.5704 19.8181 13.5917 19.781 13.6183L19.7757 13.6221C19.7403 13.6475 19.6916 13.6824 19.6428 13.7142C19.5948 13.7455 19.5242 13.7889 19.4402 13.8254C19.3579 13.8612 19.2253 13.9073 19.0606 13.9073C18.8174 13.9073 18.6263 13.8 18.5546 13.7589C18.4555 13.7021 18.3537 13.6295 18.2575 13.5569C18.0962 13.4353 17.8844 13.2627 17.6232 13.0499L17.4659 12.9217C17.4137 12.8803 17.3662 12.842 17.3222 12.8066C17.0139 12.5582 16.8848 12.4542 16.6114 12.4542C16.5054 12.4542 16.3134 12.5248 16.121 12.742C15.9321 12.9552 15.8379 13.2066 15.8379 13.3917C15.8379 13.4668 15.8689 13.5791 16.0161 13.7469C16.1671 13.919 16.3908 14.0919 16.6652 14.2719C16.7993 14.3598 16.9351 14.4429 17.0726 14.5267L17.0905 14.5376C17.2177 14.6152 17.3521 14.6972 17.4705 14.7758C17.5892 14.8547 17.7307 14.9551 17.8485 15.0722C17.9405 15.1637 18.17 15.4099 18.17 15.7824C18.17 16.3543 17.8831 16.7516 17.4435 17.2507L17.4406 17.2539C16.9754 17.7759 16.9276 17.9557 16.9276 18.1143C16.9276 18.2213 16.9349 18.3054 16.9442 18.4127C16.9488 18.4655 16.9539 18.5242 16.9588 18.594Z" fill="#23262A"/>
</svg>
