<svg width="24" height="24" viewBox="0 0 24 24" fill="none" xmlns="http://www.w3.org/2000/svg">
<path fill-rule="evenodd" clip-rule="evenodd" d="M3.25 4C3.25 3.58579 3.58579 3.25 4 3.25H20C20.4142 3.25 20.75 3.58579 20.75 4V20C20.75 20.4142 20.4142 20.75 20 20.75H4C3.58579 20.75 3.25 20.4142 3.25 20V4ZM8 18.25C8.19891 18.25 8.38968 18.171 8.53033 18.0303L10.0303 16.5303C10.3232 16.2374 10.3232 15.7626 10.0303 15.4697C9.73744 15.1768 9.26256 15.1768 8.96967 15.4697L8.75 15.6893V13.5C8.75 13.0858 8.41421 12.75 8 12.75C7.58579 12.75 7.25 13.0858 7.25 13.5V15.6893L7.03033 15.4697C6.73744 15.1768 6.26256 15.1768 5.96967 15.4697C5.67678 15.7626 5.67678 16.2374 5.96967 16.5303L7.46967 18.0303C7.61032 18.171 7.80109 18.25 8 18.25ZM8.53033 5.96967C8.38968 5.82902 8.19891 5.75 8 5.75C7.80109 5.75 7.61032 5.82902 7.46967 5.96967L5.96967 7.46967C5.67678 7.76256 5.67678 8.23744 5.96967 8.53033C6.26256 8.82322 6.73744 8.82322 7.03033 8.53033L7.25 8.31066V10.5C7.25 10.9142 7.58579 11.25 8 11.25C8.41421 11.25 8.75 10.9142 8.75 10.5V8.31066L8.96967 8.53033C9.26256 8.82322 9.73744 8.82322 10.0303 8.53033C10.3232 8.23744 10.3232 7.76256 10.0303 7.46967L8.53033 5.96967ZM15 7.25C14.3096 7.25 13.75 7.80964 13.75 8.5C13.75 9.19036 14.3096 9.75 15 9.75C15.6904 9.75 16.25 9.19036 16.25 8.5C16.25 7.80964 15.6904 7.25 15 7.25ZM12.25 8.5C12.25 6.98122 13.4812 5.75 15 5.75C16.5188 5.75 17.75 6.98122 17.75 8.5C17.75 10.0188 16.5188 11.25 15 11.25C13.4812 11.25 12.25 10.0188 12.25 8.5ZM15 11.75C13.9105 11.75 13.069 12.253 12.5223 12.9911C11.9916 13.7075 11.75 14.6231 11.75 15.5V18C11.75 18.4142 12.0858 18.75 12.5 18.75C12.9142 18.75 13.25 18.4142 13.25 18V15.5C13.25 14.8769 13.425 14.2925 13.7277 13.8839C14.0143 13.497 14.4228 13.25 15 13.25C15.5772 13.25 15.9857 13.497 16.2723 13.8839C16.575 14.2925 16.75 14.8769 16.75 15.5V18C16.75 18.4142 17.0858 18.75 17.5 18.75C17.9142 18.75 18.25 18.4142 18.25 18V15.5C18.25 14.6231 18.0084 13.7075 17.4777 12.9911C16.931 12.253 16.0895 11.75 15 11.75Z" fill="#23262A"/>
</svg>
