<svg width="24" height="24" viewBox="0 0 24 24" fill="none" xmlns="http://www.w3.org/2000/svg">
<path fill-rule="evenodd" clip-rule="evenodd" d="M14.75 4C14.75 3.58579 15.0858 3.25 15.5 3.25H19C19.9665 3.25 20.75 4.0335 20.75 5V19C20.75 19.9665 19.9665 20.75 19 20.75H15.5C15.0858 20.75 14.75 20.4142 14.75 20C14.75 19.5858 15.0858 19.25 15.5 19.25H19C19.1381 19.25 19.25 19.1381 19.25 19V5C19.25 4.86193 19.1381 4.75 19 4.75H15.5C15.0858 4.75 14.75 4.41421 14.75 4ZM2.75 12C2.75 11.5858 3.08579 11.25 3.5 11.25H13.1893L9.96967 8.03033C9.67678 7.73744 9.67678 7.26256 9.96967 6.96967C10.2626 6.67678 10.7374 6.67678 11.0303 6.96967L15.5303 11.4697C15.8232 11.7626 15.8232 12.2374 15.5303 12.5303L11.0303 17.0303C10.7374 17.3232 10.2626 17.3232 9.96967 17.0303C9.67678 16.7374 9.67678 16.2626 9.96967 15.9697L13.1893 12.75H3.5C3.08579 12.75 2.75 12.4142 2.75 12Z" fill="#23262A"/>
</svg>
