<svg width="24" height="24" viewBox="0 0 24 24" fill="none" xmlns="http://www.w3.org/2000/svg">
<path fill-rule="evenodd" clip-rule="evenodd" d="M12.3642 2.34438C12.1377 2.21854 11.8623 2.21854 11.6358 2.34438L2.63577 7.34438C2.39767 7.47666 2.25 7.72762 2.25 8V19C2.25 19.4142 2.58579 19.75 3 19.75H21C21.4142 19.75 21.75 19.4142 21.75 19V8C21.75 7.72762 21.6023 7.47666 21.3642 7.34438L12.3642 2.34438ZM3.75 17.1893L8.83802 12.1013L3.75 9.27464V17.1893ZM4.54434 8L10.3943 11.25H13.6062L19.4559 8.00015L12 3.85797L4.54434 8ZM15.1622 12.1015L20.25 17.1893V9.27494L15.1622 12.1015ZM19.1893 18.25L13.6893 12.75H10.3107L4.81066 18.25H19.1893Z" fill="#23262A"/>
</svg>
