<svg width="24" height="24" viewBox="0 0 24 24" fill="none" xmlns="http://www.w3.org/2000/svg">
<path fill-rule="evenodd" clip-rule="evenodd" d="M3 5.25C2.58579 5.25 2.25 5.58579 2.25 6V19C2.25 19.4142 2.58579 19.75 3 19.75H21C21.4142 19.75 21.75 19.4142 21.75 19V6C21.75 5.58579 21.4142 5.25 21 5.25H3ZM3.75 17.1893L9.02277 11.9166L3.75 8.40139V17.1893ZM10.2956 12.7651L4.81066 18.25H19.1893L13.7044 12.7651L12.416 13.624C12.1641 13.792 11.8359 13.792 11.584 13.624L10.2956 12.7651ZM14.9772 11.9166L20.25 8.40139V17.1893L14.9772 11.9166ZM3.97708 6.75L12 12.0986L20.0229 6.75H3.97708Z" fill="#23262A"/>
</svg>
