<svg width="24" height="24" viewBox="0 0 24 24" fill="none" xmlns="http://www.w3.org/2000/svg">
<path fill-rule="evenodd" clip-rule="evenodd" d="M2.59221 7.63017C2.44324 7.53706 2.25 7.64416 2.25 7.81984V17.4814C2.25 17.9268 2.78857 18.1499 3.10355 17.8349L8.5906 12.3479C8.81371 12.1248 8.77693 11.7533 8.5144 11.5783L2.59221 7.63017ZM4.16335 18.8964C3.84837 19.2114 4.07145 19.75 4.51691 19.75H19.4813C19.9267 19.75 20.1498 19.2114 19.8348 18.8964L13.9933 13.055C13.8248 12.8864 13.5607 12.8603 13.3624 12.9925L12.4151 13.6241C12.1632 13.792 11.835 13.792 11.583 13.6241L10.6357 12.9925C10.4374 12.8603 10.1734 12.8864 10.0048 13.055L4.16335 18.8964ZM20.8964 17.8368C21.2114 18.1517 21.75 17.9287 21.75 17.4832V7.82087C21.75 7.64424 21.5557 7.53655 21.4059 7.63017L15.4837 11.5783C15.2212 11.7533 15.1844 12.1247 15.4075 12.3479L20.8964 17.8368ZM21.3102 5.92114C21.5231 5.78804 21.6097 5.49639 21.3967 5.36337C21.2816 5.29152 21.1457 5.25 21 5.25H3C2.85377 5.25 2.71732 5.29185 2.60196 5.36422C2.38944 5.49755 2.47617 5.78877 2.68891 5.92173L3.39656 6.36401C3.40279 6.36791 3.40897 6.3719 3.41509 6.37597L11.7217 11.9137C11.8897 12.0257 12.1085 12.0257 12.2764 11.9137L20.583 6.37597C20.5892 6.3719 20.5953 6.36791 20.6016 6.36401L21.3102 5.92114Z" fill="#23262A"/>
</svg>
