<svg width="24" height="24" viewBox="0 0 24 24" fill="none" xmlns="http://www.w3.org/2000/svg">
<path fill-rule="evenodd" clip-rule="evenodd" d="M12.3642 2.34438C12.1377 2.21854 11.8623 2.21854 11.6358 2.34438L3.36971 6.93664C3.20948 7.02565 3.2081 7.25559 3.36724 7.34653L10.2802 11.1871C10.3545 11.2283 10.4381 11.25 10.523 11.25H13.4776C13.5625 11.25 13.6461 11.2283 13.7204 11.1871L20.6372 7.34438C20.7957 7.25635 20.7957 7.02851 20.6372 6.94049L12.3642 2.34438ZM21.75 9.29182C21.75 8.91057 21.3404 8.66959 21.0072 8.85474L15.7413 11.7802C15.451 11.9416 15.3957 12.336 15.6306 12.5709L20.8964 17.8367C21.2114 18.1517 21.75 17.9286 21.75 17.4832V9.29182ZM19.4813 19.75C19.9268 19.75 20.1498 19.2114 19.8349 18.8964L13.8349 12.8964C13.7411 12.8027 13.6139 12.75 13.4813 12.75H10.5168C10.3842 12.75 10.2571 12.8027 10.1633 12.8964L4.16329 18.8964C3.84831 19.2114 4.0714 19.75 4.51685 19.75H19.4813ZM2.25 17.4813C2.25 17.9268 2.78857 18.1498 3.10355 17.8349L8.36842 12.57C8.60331 12.3351 8.54807 11.9407 8.25769 11.7794L2.62695 8.65114C2.45899 8.55516 2.25 8.67644 2.25 8.86989V17.4813Z" fill="#23262A"/>
</svg>
