<svg width="24" height="24" viewBox="0 0 24 24" fill="none" xmlns="http://www.w3.org/2000/svg">
<path fill-rule="evenodd" clip-rule="evenodd" d="M15.005 3.33783C14.8644 3.19718 14.6736 3.11816 14.4747 3.11816C14.2758 3.11816 14.085 3.19718 13.9444 3.33783L6.34257 10.9395C6.14712 11.135 6.14733 11.4519 6.34303 11.6471L6.5188 11.8224L12.1739 17.4775L12.3582 17.6584C12.554 17.8506 12.868 17.8491 13.062 17.6551L20.6619 10.0553C20.9548 9.76245 20.9548 9.28758 20.6619 8.99469L15.005 3.33783ZM11.2941 19.423C11.4907 19.2264 11.4892 18.9073 11.2908 18.7126L11.1157 18.5406L5.28091 12.7081C5.08564 12.5129 4.76911 12.513 4.57388 12.7082L4.04479 13.2373C3.36137 13.9207 3.36137 15.0287 4.04479 15.7122L8.28743 19.9548C8.97084 20.6382 10.0789 20.6382 10.7623 19.9548L11.2941 19.423Z" fill="#23262A"/>
</svg>
