<svg width="24" height="24" viewBox="0 0 24 24" fill="none" xmlns="http://www.w3.org/2000/svg">
<path fill-rule="evenodd" clip-rule="evenodd" d="M15.005 3.33783C14.8644 3.19718 14.6736 3.11816 14.4747 3.11816C14.2758 3.11816 14.085 3.19718 13.9444 3.33783L4.04479 13.2373C3.36137 13.9207 3.36137 15.0287 4.04479 15.7122L8.28743 19.9548C8.97084 20.6382 10.0789 20.6382 10.7623 19.9548L20.6619 10.0553C20.9548 9.76245 20.9548 9.28758 20.6619 8.99469L15.005 3.33783ZM7.04991 12.3535L14.4747 4.92882L19.0709 9.52502L11.6461 16.9497L7.04991 12.3535ZM5.98924 13.4142L5.10545 14.2979C5.00784 14.3956 5.00783 14.5539 5.10545 14.6515L9.34809 18.8941C9.44572 18.9918 9.60401 18.9918 9.70164 18.8941L10.5854 18.0104L5.98924 13.4142Z" fill="#23262A"/>
</svg>
