<svg width="24" height="24" viewBox="0 0 24 24" fill="none" xmlns="http://www.w3.org/2000/svg">
<path fill-rule="evenodd" clip-rule="evenodd" d="M16.7124 7.22702C17.0053 6.93413 17.4801 6.93413 17.773 7.22702L22.0157 11.4697C22.3086 11.7626 22.3086 12.2374 22.0157 12.5303L17.773 16.773C17.4801 17.0659 17.0053 17.0659 16.7124 16.773C16.4195 16.4801 16.4195 16.0052 16.7124 15.7123L20.4247 12L16.7124 8.28768C16.4195 7.99479 16.4195 7.51992 16.7124 7.22702ZM7.28762 7.22702C7.58051 7.51992 7.58051 7.99479 7.28762 8.28768L3.57531 12L7.28762 15.7123C7.58051 16.0052 7.58051 16.4801 7.28762 16.773C6.99473 17.0659 6.51985 17.0659 6.22696 16.773L1.98432 12.5303C1.69143 12.2374 1.69143 11.7626 1.98432 11.4697L6.22696 7.22702C6.51985 6.93413 6.99473 6.93413 7.28762 7.22702ZM12 10.5C11.1716 10.5 10.5 11.1716 10.5 12C10.5 12.8284 11.1716 13.5 12 13.5C12.8284 13.5 13.5 12.8284 13.5 12C13.5 11.1716 12.8284 10.5 12 10.5ZM14 12C14 11.1716 14.6716 10.5 15.5 10.5C16.3284 10.5 17 11.1716 17 12C17 12.8284 16.3284 13.5 15.5 13.5C14.6716 13.5 14 12.8284 14 12ZM8.5 10.5C7.67157 10.5 7 11.1716 7 12C7 12.8284 7.67157 13.5 8.5 13.5C9.32843 13.5 10 12.8284 10 12C10 11.1716 9.32843 10.5 8.5 10.5Z" fill="#23262A"/>
</svg>
