<svg width="24" height="24" viewBox="0 0 24 24" fill="none" xmlns="http://www.w3.org/2000/svg">
<path fill-rule="evenodd" clip-rule="evenodd" d="M11.9999 2.25C12.273 2.25 12.5244 2.3984 12.6565 2.63743L22.1827 19.8874C22.311 20.1198 22.307 20.4026 22.1721 20.6312C22.0372 20.8597 21.7916 21 21.5262 21H2.47363C2.20823 21 1.96259 20.8597 1.82771 20.6312C1.69283 20.4026 1.68879 20.1198 1.8171 19.8874L11.3434 2.63743C11.4754 2.3984 11.7269 2.25 11.9999 2.25ZM12.001 8.75C12.4152 8.75 12.751 9.08579 12.751 9.5V13.5C12.751 13.9142 12.4152 14.25 12.001 14.25C11.5868 14.25 11.251 13.9142 11.251 13.5V9.5C11.251 9.08579 11.5868 8.75 12.001 8.75ZM11.001 16.5C11.001 15.9477 11.4487 15.5 12.001 15.5C12.5533 15.5 13.001 15.9477 13.001 16.5C13.001 17.0523 12.5533 17.5 12.001 17.5C11.4487 17.5 11.001 17.0523 11.001 16.5Z" fill="#23262A"/>
</svg>
