<svg width="24" height="24" viewBox="0 0 24 24" fill="none" xmlns="http://www.w3.org/2000/svg">
<path fill-rule="evenodd" clip-rule="evenodd" d="M12 2.25C12.2731 2.25 12.5245 2.3984 12.6565 2.63743L22.1828 19.8874C22.3111 20.1198 22.3071 20.4026 22.1722 20.6312C22.0373 20.8597 21.7917 21 21.5263 21H2.47372C2.20832 21 1.96268 20.8597 1.8278 20.6312C1.69292 20.4026 1.68888 20.1198 1.81718 19.8874L11.3435 2.63743C11.4755 2.3984 11.7269 2.25 12 2.25ZM20.2553 19.5L12 4.55142L3.74467 19.5H20.2553ZM12 8.75C12.4142 8.75 12.75 9.08579 12.75 9.5V13.5C12.75 13.9142 12.4142 14.25 12 14.25C11.5858 14.25 11.25 13.9142 11.25 13.5V9.5C11.25 9.08579 11.5858 8.75 12 8.75ZM12 15.5C11.4477 15.5 11 15.9477 11 16.5C11 17.0523 11.4477 17.5 12 17.5C12.5523 17.5 13 17.0523 13 16.5C13 15.9477 12.5523 15.5 12 15.5Z" fill="#23262A"/>
</svg>
