<svg width="24" height="24" viewBox="0 0 24 24" fill="none" xmlns="http://www.w3.org/2000/svg">
<path fill-rule="evenodd" clip-rule="evenodd" d="M13.5 3.75C13.0858 3.75 12.75 4.08579 12.75 4.5C12.75 4.91421 13.0858 5.25 13.5 5.25L17.6893 5.25L12.9697 9.96967C12.6768 10.2626 12.6768 10.7374 12.9697 11.0303C13.2625 11.3232 13.7374 11.3232 14.0303 11.0303L18.75 6.31065L18.75 10.5C18.75 10.9142 19.0858 11.25 19.5 11.25C19.9142 11.25 20.25 10.9142 20.25 10.5L20.25 4.5C20.25 4.30109 20.171 4.11032 20.0303 3.96967C19.8897 3.82902 19.6989 3.75 19.5 3.75L13.5 3.75ZM11.0303 12.9697C11.3232 13.2626 11.3232 13.7374 11.0303 14.0303L6.31063 18.75L10.5 18.75C10.9142 18.75 11.25 19.0858 11.25 19.5C11.25 19.9142 10.9142 20.25 10.5 20.25L4.49999 20.25C4.30107 20.25 4.11031 20.171 3.96966 20.0303C3.829 19.8897 3.74999 19.6989 3.74999 19.5L3.74999 13.5C3.74999 13.0858 4.08577 12.75 4.49999 12.75C4.9142 12.75 5.24999 13.0858 5.24999 13.5L5.24999 17.6893L9.96964 12.9697C10.2625 12.6768 10.7374 12.6768 11.0303 12.9697Z" fill="#262626"/>
</svg>
