<svg width="24" height="24" viewBox="0 0 24 24" fill="none" xmlns="http://www.w3.org/2000/svg">
<path fill-rule="evenodd" clip-rule="evenodd" d="M12.75 4.5C12.75 4.08579 13.0857 3.75 13.5 3.75L19.5 3.75C19.6989 3.75 19.8896 3.82902 20.0303 3.96967C20.171 4.11032 20.25 4.30109 20.25 4.5L20.25 10.5C20.25 10.9142 19.9142 11.25 19.5 11.25C19.0858 11.25 18.75 10.9142 18.75 10.5L18.75 6.31065L14.0303 11.0303C13.7374 11.3232 13.2625 11.3232 12.9696 11.0303C12.6767 10.7374 12.6767 10.2626 12.9696 9.96967L17.6893 5.25L13.5 5.25C13.0857 5.25 12.75 4.91421 12.75 4.5ZM4.49997 12.75C4.91418 12.75 5.24997 13.0858 5.24997 13.5L5.24997 17.6893L9.96962 12.9697C10.2625 12.6768 10.7374 12.6768 11.0303 12.9697C11.3232 13.2626 11.3232 13.7374 11.0303 14.0303L6.31062 18.75L10.5 18.75C10.9142 18.75 11.25 19.0858 11.25 19.5C11.25 19.9142 10.9142 20.25 10.5 20.25L4.49997 20.25C4.30106 20.25 4.11029 20.171 3.96964 20.0303C3.82899 19.8897 3.74997 19.6989 3.74997 19.5L3.74997 13.5C3.74997 13.0858 4.08576 12.75 4.49997 12.75Z" fill="#23262A"/>
</svg>
