<svg width="24" height="24" viewBox="0 0 24 24" fill="none" xmlns="http://www.w3.org/2000/svg">
<path fill-rule="evenodd" clip-rule="evenodd" d="M11.25 19.5C11.25 19.9142 10.9143 20.25 10.5 20.25H4.50003C4.30112 20.25 4.11035 20.171 3.9697 20.0303C3.82905 19.8897 3.75003 19.6989 3.75003 19.5L3.75003 13.5C3.75003 13.0858 4.08582 12.75 4.50003 12.75C4.91424 12.75 5.25003 13.0858 5.25003 13.5L5.25003 17.6894L9.96971 12.9697C10.2626 12.6768 10.7375 12.6768 11.0304 12.9697C11.3233 13.2626 11.3233 13.7374 11.0304 14.0303L6.3107 18.75L10.5 18.75C10.9143 18.75 11.25 19.0858 11.25 19.5ZM19.5 11.25C19.0858 11.25 18.75 10.9142 18.75 10.5L18.75 6.31066L14.0304 11.0303C13.7375 11.3232 13.2626 11.3232 12.9697 11.0303C12.6768 10.7374 12.6768 10.2626 12.9697 9.96967L17.6894 5.24998L13.5 5.24998C13.0858 5.24998 12.75 4.9142 12.75 4.49998C12.75 4.08577 13.0858 3.74998 13.5 3.74998L19.5 3.74998C19.6989 3.74998 19.8897 3.829 20.0304 3.96965C20.171 4.11031 20.25 4.30107 20.25 4.49998L20.25 10.5C20.25 10.9142 19.9142 11.25 19.5 11.25Z" fill="#23262A"/>
</svg>
