<svg width="24" height="24" viewBox="0 0 24 24" fill="none" xmlns="http://www.w3.org/2000/svg">
<path fill-rule="evenodd" clip-rule="evenodd" d="M11.4697 21.7803C11.7626 22.0732 12.2374 22.0732 12.5303 21.7803L16.5303 17.7803C16.8232 17.4874 16.8232 17.0126 16.5303 16.7197C16.2374 16.4268 15.7626 16.4268 15.4697 16.7197L12.75 19.4393L12.75 14C12.75 13.5858 12.4142 13.25 12 13.25C11.5858 13.25 11.25 13.5858 11.25 14L11.25 19.4393L8.53033 16.7197C8.23744 16.4268 7.76256 16.4268 7.46967 16.7197C7.17678 17.0126 7.17678 17.4874 7.46967 17.7803L11.4697 21.7803ZM12.5303 2.21967C12.2374 1.92678 11.7626 1.92678 11.4697 2.21967L7.46967 6.21967C7.17678 6.51256 7.17678 6.98744 7.46967 7.28033C7.76256 7.57322 8.23744 7.57322 8.53033 7.28033L11.25 4.56066L11.25 10C11.25 10.4142 11.5858 10.75 12 10.75C12.4142 10.75 12.75 10.4142 12.75 10L12.75 4.56066L15.4697 7.28033C15.7626 7.57323 16.2374 7.57323 16.5303 7.28033C16.8232 6.98744 16.8232 6.51256 16.5303 6.21967L12.5303 2.21967Z" fill="#23262A"/>
</svg>
