<svg width="24" height="24" viewBox="0 0 24 24" fill="none" xmlns="http://www.w3.org/2000/svg">
<path d="M19.5 11.25C19.9142 11.25 20.25 10.9142 20.25 10.5V4.5C20.25 4.30109 20.1709 4.11038 20.0303 3.96973C19.8896 3.82907 19.6989 3.75 19.5 3.75H13.5C13.0858 3.75002 12.75 4.0858 12.75 4.5C12.75 4.9142 13.0858 5.24998 13.5 5.25H17.6895L12.9697 9.96973C12.6769 10.2626 12.6769 10.7374 12.9697 11.0303C13.2626 11.3232 13.7374 11.3232 14.0303 11.0303L18.75 6.31055V10.5C18.75 10.9142 19.0858 11.25 19.5 11.25Z" fill="#202733"/>
<path d="M10.5 20.25C10.9142 20.25 11.25 19.9142 11.25 19.5C11.25 19.0858 10.9142 18.75 10.5 18.75H6.31055L11.0303 14.0303C11.3232 13.7374 11.3232 13.2626 11.0303 12.9697C10.7374 12.6768 10.2626 12.6768 9.96973 12.9697L5.25 17.6895V13.5C5.25 13.0858 4.91421 12.75 4.5 12.75C4.08579 12.75 3.75 13.0858 3.75 13.5V19.5C3.75 19.6989 3.82907 19.8896 3.96973 20.0303C4.11038 20.1709 4.30109 20.25 4.5 20.25H10.5Z" fill="#202733"/>
</svg>
