<svg width="24" height="24" viewBox="0 0 24 24" fill="none" xmlns="http://www.w3.org/2000/svg">
<path fill-rule="evenodd" clip-rule="evenodd" d="M18.1893 4.75L9.46967 13.4697C9.17678 13.7626 9.17678 14.2374 9.46967 14.5303C9.76256 14.8232 10.2374 14.8232 10.5303 14.5303L19.25 5.81066V11.5C19.25 11.9142 19.5858 12.25 20 12.25C20.4142 12.25 20.75 11.9142 20.75 11.5V4C20.75 3.80806 20.6768 3.61612 20.5303 3.46967C20.4584 3.39776 20.3755 3.34351 20.2871 3.30691C20.1987 3.27024 20.1017 3.25 20 3.25H12.5C12.0858 3.25 11.75 3.58579 11.75 4C11.75 4.41421 12.0858 4.75 12.5 4.75H18.1893ZM8.40901 15.5911C9.28769 16.4698 10.7123 16.4698 11.591 15.5911L15.8964 11.2856C16.2114 10.9706 16.75 11.1937 16.75 11.6392V19C16.75 19.9665 15.9665 20.75 15 20.75H5C4.0335 20.75 3.25 19.9665 3.25 19V9C3.25 8.0335 4.0335 7.25 5 7.25H12.361C12.8065 7.25 13.0295 7.78857 12.7146 8.10355L8.40901 12.4091C7.53033 13.2878 7.53033 14.7124 8.40901 15.5911Z" fill="#23262A"/>
</svg>
