<svg width="24" height="24" viewBox="0 0 24 24" fill="none" xmlns="http://www.w3.org/2000/svg">
<path fill-rule="evenodd" clip-rule="evenodd" d="M11.75 4C11.75 3.58579 12.0858 3.25 12.5 3.25H20C20.1017 3.25 20.1987 3.27024 20.2871 3.30691C20.3755 3.34351 20.4584 3.39776 20.5303 3.46967C20.6022 3.54158 20.6565 3.62445 20.6931 3.71291C20.7251 3.79009 20.7446 3.87376 20.749 3.96141C20.7497 3.97419 20.75 3.98706 20.75 4V11.5C20.75 11.9142 20.4142 12.25 20 12.25C19.5858 12.25 19.25 11.9142 19.25 11.5V5.81066L10.5303 14.5303C10.2374 14.8232 9.76256 14.8232 9.46967 14.5303C9.17678 14.2374 9.17678 13.7626 9.46967 13.4697L18.1893 4.75H12.5C12.0858 4.75 11.75 4.41421 11.75 4ZM5 8.75C4.86193 8.75 4.75 8.86193 4.75 9V19C4.75 19.1381 4.86193 19.25 5 19.25H15C15.1381 19.25 15.25 19.1381 15.25 19V12C15.25 11.5858 15.5858 11.25 16 11.25C16.4142 11.25 16.75 11.5858 16.75 12V19C16.75 19.9665 15.9665 20.75 15 20.75H5C4.0335 20.75 3.25 19.9665 3.25 19V9C3.25 8.0335 4.0335 7.25 5 7.25H12C12.4142 7.25 12.75 7.58579 12.75 8C12.75 8.41421 12.4142 8.75 12 8.75H5Z" fill="#262626"/>
</svg>
