<svg width="24" height="24" viewBox="0 0 24 24" fill="none" xmlns="http://www.w3.org/2000/svg">
<path fill-rule="evenodd" clip-rule="evenodd" d="M4.14815 12.3127C4.05539 12.1968 3.97534 12.0916 3.90802 12C3.97534 11.9084 4.05539 11.8032 4.14815 11.6873C4.49856 11.2493 5.02646 10.6626 5.73014 10.0762C7.13662 8.9041 9.22257 7.75 12 7.75C9.65279 7.75 7.75 9.65279 7.75 12C7.75 14.3472 9.65279 16.25 12 16.25C9.22256 16.25 7.13662 15.0959 5.73014 13.9238C5.02646 13.3374 4.49855 12.7507 4.14815 12.3127ZM12 16.25C14.3472 16.25 16.25 14.3472 16.25 12C16.25 9.65279 14.3472 7.75 12 7.75C14.7774 7.75 16.8634 8.9041 18.2699 10.0762C18.9735 10.6626 19.5014 11.2493 19.8518 11.6873C19.9446 11.8032 20.0247 11.9084 20.092 12C20.0247 12.0916 19.9446 12.1968 19.8518 12.3127C19.5014 12.7507 18.9735 13.3374 18.2699 13.9238C16.8634 15.0959 14.7774 16.25 12 16.25ZM21.6428 11.6135C21.6429 11.6139 21.6431 11.6141 21 12C21.6431 12.3859 21.6429 12.3862 21.6428 12.3865L21.6423 12.3872L21.6412 12.389L21.6382 12.394L21.6288 12.4093C21.6211 12.4218 21.6103 12.439 21.5965 12.4605C21.569 12.5034 21.5295 12.5638 21.4779 12.639C21.3748 12.7894 21.2233 12.9996 21.0232 13.2498C20.6236 13.7493 20.0265 14.4126 19.2301 15.0762C17.6366 16.4041 15.2226 17.75 12 17.75C8.77744 17.75 6.36338 16.4041 4.76986 15.0762C3.97354 14.4126 3.37645 13.7493 2.97685 13.2498C2.77673 12.9996 2.62518 12.7894 2.52208 12.639C2.4705 12.5638 2.43096 12.5034 2.40345 12.4605C2.3897 12.439 2.37894 12.4218 2.37118 12.4093L2.36178 12.394L2.35877 12.389L2.35769 12.3872L2.35725 12.3865C2.35706 12.3862 2.35688 12.3859 3 12C2.35688 11.6141 2.35706 11.6139 2.35725 11.6135L2.35768 11.6128L2.35877 11.611L2.36178 11.606L2.37118 11.5908C2.37894 11.5782 2.38969 11.5611 2.40345 11.5396C2.43096 11.4966 2.4705 11.4362 2.52208 11.361C2.62518 11.2107 2.77672 11.0004 2.97685 10.7502C3.37644 10.2507 3.97354 9.58744 4.76986 8.92384C6.36338 7.59591 8.77743 6.25 12 6.25C15.2226 6.25 17.6366 7.59591 19.2301 8.92384C20.0265 9.58744 20.6236 10.2507 21.0232 10.7502C21.2233 11.0004 21.3748 11.2107 21.4779 11.361C21.5295 11.4362 21.569 11.4966 21.5965 11.5396C21.6103 11.5611 21.6211 11.5782 21.6288 11.5908L21.6382 11.606L21.6412 11.611L21.6423 11.6128L21.6428 11.6135ZM21 12L21.6431 11.6141C21.7856 11.8517 21.7856 12.1484 21.6431 12.3859L21 12ZM2.35688 11.6141L3 12L2.35688 12.3859C2.21437 12.1484 2.21437 11.8517 2.35688 11.6141ZM9.25 12C9.25 10.4812 10.4812 9.25 12 9.25C13.5188 9.25 14.75 10.4812 14.75 12C14.75 13.5188 13.5188 14.75 12 14.75C10.4812 14.75 9.25 13.5188 9.25 12Z" fill="#23262A"/>
</svg>
