<svg width="24" height="24" viewBox="0 0 24 24" fill="none" xmlns="http://www.w3.org/2000/svg">
<path fill-rule="evenodd" clip-rule="evenodd" d="M2.61412 9.35687C2.9689 9.144 3.42895 9.25867 3.64238 9.61291L3.6426 9.61327L3.64639 9.61943C3.65035 9.62582 3.65717 9.63673 3.66685 9.65185C3.68622 9.68211 3.71699 9.72919 3.75916 9.79069C3.84356 9.91376 3.97326 10.0941 4.14814 10.3127C4.49855 10.7507 5.02645 11.3374 5.73013 11.9238C7.13661 13.0959 9.22256 14.25 12 14.25C14.7774 14.25 16.8634 13.0959 18.2699 11.9238C18.9735 11.3374 19.5014 10.7507 19.8518 10.3127C20.0267 10.0941 20.1564 9.91376 20.2408 9.79069C20.283 9.72919 20.3138 9.68211 20.3331 9.65185C20.3428 9.63673 20.3496 9.62582 20.3536 9.61943L20.3569 9.61412L20.3572 9.61362C20.5704 9.25883 21.0308 9.14386 21.3859 9.35687C21.741 9.56998 21.8562 10.0307 21.6431 10.3859L21 9.99999C21.6431 10.3859 21.6429 10.3862 21.6427 10.3865L21.6423 10.3872L21.6412 10.389L21.6382 10.394L21.6288 10.4092C21.6211 10.4218 21.6103 10.4389 21.5965 10.4604C21.569 10.5034 21.5295 10.5638 21.4779 10.639C21.3748 10.7893 21.2233 10.9996 21.0231 11.2498C20.7191 11.6298 20.3007 12.1047 19.7672 12.6024L20.608 13.6045C20.8743 13.9218 20.8329 14.3949 20.5156 14.6611C20.1983 14.9274 19.7252 14.886 19.459 14.5687L18.612 13.5593C18.0345 13.9818 17.3721 14.3891 16.6251 14.7354L17.1218 15.9056C17.2837 16.2869 17.1058 16.7271 16.7245 16.889C16.3432 17.0508 15.9029 16.8729 15.7411 16.4917L15.2236 15.2727C14.4665 15.5046 13.6419 15.6664 12.75 15.7254V17C12.75 17.4142 12.4142 17.75 12 17.75C11.5858 17.75 11.25 17.4142 11.25 17V15.7254C10.3574 15.6664 9.53224 15.5044 8.77465 15.2722L8.25892 16.4871C8.09707 16.8684 7.65678 17.0463 7.27549 16.8845C6.89421 16.7226 6.71632 16.2823 6.87816 15.901L7.37328 14.7346C6.62595 14.388 5.96328 13.9804 5.38568 13.5576L4.54103 14.5642C4.27477 14.8815 3.80171 14.9229 3.4844 14.6566C3.1671 14.3904 3.12571 13.9173 3.39196 13.6L4.23067 12.6005C3.69818 12.1035 3.28049 11.6293 2.97684 11.2498C2.77672 10.9996 2.62517 10.7893 2.52207 10.639C2.47049 10.5638 2.43095 10.5034 2.40344 10.4604C2.38969 10.4389 2.37893 10.4218 2.37117 10.4092L2.36178 10.394L2.35876 10.389L2.35768 10.3872L2.35724 10.3865C2.35705 10.3862 2.35687 10.3859 2.99999 9.99999L2.35687 10.3859C2.14376 10.0307 2.25893 9.56998 2.61412 9.35687Z" fill="#23262A"/>
</svg>
