<svg width="24" height="24" viewBox="0 0 24 24" fill="none" xmlns="http://www.w3.org/2000/svg">
<path fill-rule="evenodd" clip-rule="evenodd" d="M21.5966 11.5396C21.5691 11.4966 21.5296 11.4362 21.478 11.361C21.3749 11.2107 21.2234 11.0004 21.0232 10.7502C20.6236 10.2507 20.0265 9.58744 19.2302 8.92384C17.6367 7.59591 15.2226 6.25 12.0001 6.25C8.77751 6.25 6.36346 7.59591 4.76994 8.92384C3.97362 9.58744 3.37652 10.2507 2.97692 10.7502C2.7768 11.0004 2.62526 11.2107 2.52215 11.361C2.47058 11.4362 2.43104 11.4966 2.40353 11.5396L2.35696 11.6141C2.21014 11.8588 2.22355 12.169 2.37126 12.4093C2.37901 12.4218 2.38977 12.439 2.40353 12.4605C2.43104 12.5034 2.47058 12.5638 2.52216 12.639C2.62526 12.7894 2.7768 12.9996 2.97693 13.2498C3.37652 13.7493 3.97362 14.4126 4.76994 15.0762C6.36346 16.4041 8.77751 17.75 12.0001 17.75C15.2226 17.75 17.6367 16.4041 19.2302 15.0762C20.0265 14.4126 20.6236 13.7493 21.0232 13.2498C21.2234 12.9996 21.3749 12.7894 21.478 12.639C21.5296 12.5638 21.5691 12.5034 21.5966 12.4605L21.6432 12.3859C21.7857 12.1484 21.7853 11.851 21.6428 11.6135C21.6278 11.5886 21.6123 11.5641 21.5966 11.5396ZM9.25 12C9.25 10.4812 10.4812 9.25 12 9.25C13.5188 9.25 14.75 10.4812 14.75 12C14.75 13.5188 13.5188 14.75 12 14.75C10.4812 14.75 9.25 13.5188 9.25 12ZM12 7.75C9.65279 7.75 7.75 9.65279 7.75 12C7.75 14.3472 9.65279 16.25 12 16.25C14.3472 16.25 16.25 14.3472 16.25 12C16.25 9.65279 14.3472 7.75 12 7.75Z" fill="#23262A"/>
</svg>
