<svg width="24" height="24" viewBox="0 0 24 24" fill="none" xmlns="http://www.w3.org/2000/svg">
<path fill-rule="evenodd" clip-rule="evenodd" d="M21.0301 3.96967C21.323 4.26256 21.323 4.73744 21.0301 5.03033L15.4651 10.5954L15.444 10.6165L10.6163 15.4442L10.5952 15.4653L5.03015 21.0303C4.73725 21.3232 4.26238 21.3232 3.96949 21.0303C3.67659 20.7374 3.67659 20.2626 3.96949 19.9697L7.2584 16.6808C5.77913 15.9744 4.64078 15.0333 3.8405 14.2208C3.3544 13.7273 2.98858 13.2768 2.74234 12.9466C2.61909 12.7814 2.52541 12.6457 2.46123 12.5492L2.3567 12.3859C2.21419 12.1484 2.21456 11.851 2.35706 11.6135C2.40898 11.5275 2.46506 11.4439 2.52189 11.361C2.625 11.2107 2.77654 11.0004 2.97666 10.7502C3.37626 10.2507 3.97336 9.58744 4.76968 8.92384C6.3632 7.59591 8.77725 6.25 11.9998 6.25C13.8042 6.25 15.3591 6.67264 16.6588 7.28033L19.9695 3.96967C20.2624 3.67678 20.7373 3.67678 21.0301 3.96967ZM14.796 9.14319C14.8943 9.04486 14.894 8.88458 14.789 8.79332C14.6538 8.67567 14.5108 8.56638 14.361 8.46626C13.819 8.10408 13.2009 7.87145 12.5546 7.78636C11.9082 7.70127 11.251 7.766 10.6337 7.97555C10.0164 8.18509 9.45557 8.53384 8.99461 8.9948C8.53365 9.45576 8.18491 10.0166 7.97536 10.6339C7.76582 11.2512 7.70109 11.9084 7.78618 12.5547C7.87127 13.2011 8.1039 13.8191 8.46607 14.3612C8.5662 14.511 8.67548 14.6539 8.79314 14.7892C8.8844 14.8941 9.04468 14.8945 9.143 14.7962L9.85114 14.088C9.94769 13.9915 9.9479 13.836 9.86201 13.7298C9.80949 13.6649 9.75985 13.5975 9.71327 13.5278C9.47893 13.1771 9.3284 12.7772 9.27334 12.3589C9.21829 11.9407 9.26017 11.5155 9.39576 11.116C9.53135 10.7166 9.757 10.3537 10.0553 10.0555C10.3535 9.75719 10.7164 9.53153 11.1159 9.39594C11.5153 9.26035 11.9406 9.21847 12.3588 9.27353C12.777 9.32859 13.1769 9.47911 13.5276 9.71346C13.5973 9.76004 13.6647 9.80968 13.7296 9.86219C13.8358 9.94808 13.9913 9.94788 14.0878 9.85132L14.796 9.14319ZM19.5303 9.46967C19.8232 9.76256 19.8232 10.2374 19.5303 10.5303L12.5303 17.5303C12.2374 17.8232 11.7626 17.8232 11.4697 17.5303C11.1768 17.2374 11.1768 16.7626 11.4697 16.4697L18.4697 9.46967C18.7626 9.17678 19.2374 9.17678 19.5303 9.46967ZM21.0303 11.9697C21.3232 12.2626 21.3232 12.7374 21.0303 13.0303L18.0303 16.0303C17.7374 16.3232 17.2626 16.3232 16.9697 16.0303C16.6768 15.7374 16.6768 15.2626 16.9697 14.9697L19.9697 11.9697C20.2626 11.6768 20.7374 11.6768 21.0303 11.9697Z" fill="#23262A"/>
</svg>
