<svg width="24" height="24" viewBox="0 0 24 24" fill="none" xmlns="http://www.w3.org/2000/svg">
<path fill-rule="evenodd" clip-rule="evenodd" d="M21.0303 5.03033C21.3232 4.73744 21.3232 4.26256 21.0303 3.96967C20.7374 3.67678 20.2626 3.67678 19.9697 3.96967L16.659 7.28033C15.3593 6.67264 13.8043 6.25 12 6.25C8.77743 6.25 6.36338 7.59591 4.76986 8.92384C3.97354 9.58744 3.37644 10.2507 2.97685 10.7502C2.77672 11.0004 2.62518 11.2107 2.52208 11.361C2.4705 11.4362 2.43096 11.4966 2.40345 11.5396C2.38969 11.5611 2.37894 11.5782 2.37118 11.5908L2.36178 11.606L2.35877 11.611L2.35768 11.6128C2.35768 11.6128 2.35688 11.6141 3 12L2.35688 11.6141C2.21437 11.8517 2.21437 12.1484 2.35688 12.3859L2.35826 12.3882L2.36033 12.3916L2.36653 12.4017L2.38715 12.4348C2.40456 12.4624 2.42932 12.5009 2.46141 12.5492C2.52559 12.6457 2.61927 12.7814 2.74252 12.9466C2.98876 13.2768 3.35458 13.7273 3.84068 14.2208C4.64096 15.0333 5.77932 15.9744 7.25858 16.6808L3.96967 19.9697C3.67678 20.2626 3.67678 20.7374 3.96967 21.0303C4.26256 21.3232 4.73744 21.3232 5.03033 21.0303L10.5954 15.4653C10.6007 15.4601 10.6061 15.4549 10.6113 15.4495L10.6165 15.4441L15.4441 10.6165C15.4514 10.6096 15.4584 10.6025 15.4653 10.5954L21.0303 5.03033ZM13.914 10.0254L10.0254 13.914C9.91032 13.7953 9.80586 13.6661 9.71346 13.5278C9.47911 13.1771 9.32859 12.7772 9.27353 12.3589C9.21847 11.9407 9.26035 11.5155 9.39594 11.116C9.53153 10.7166 9.75719 10.3537 10.0555 10.0555C10.3537 9.75719 10.7166 9.53153 11.116 9.39594C11.5155 9.26035 11.9407 9.21847 12.3589 9.27353C12.7772 9.32859 13.1771 9.47911 13.5278 9.71346C13.6661 9.80586 13.7953 9.91033 13.914 10.0254ZM14.3612 8.46626C14.5814 8.61342 14.7867 8.78038 14.9747 8.96462L15.5189 8.42045C14.5061 8.01586 13.3343 7.75 12 7.75C9.22257 7.75 7.13662 8.9041 5.73014 10.0762C5.02646 10.6626 4.49856 11.2493 4.14815 11.6873C4.05539 11.8032 3.97534 11.9084 3.90802 12L3.94498 12.0499C4.15707 12.3343 4.47875 12.7311 4.90932 13.1682C5.71064 13.9817 6.8738 14.9197 8.39477 15.5446L8.96462 14.9747C8.78038 14.7867 8.61342 14.5814 8.46625 14.3612C8.10408 13.8191 7.87145 13.2011 7.78636 12.5547C7.70127 11.9084 7.766 11.2512 7.97555 10.6339C8.18509 10.0166 8.53384 9.45576 8.9948 8.9948C9.45576 8.53384 10.0166 8.18509 10.6339 7.97555C11.2512 7.766 11.9084 7.70127 12.5547 7.78636C13.2011 7.87145 13.8191 8.10408 14.3612 8.46626ZM19.5303 9.46967C19.8232 9.76256 19.8232 10.2374 19.5303 10.5303L12.5303 17.5303C12.2374 17.8232 11.7626 17.8232 11.4697 17.5303C11.1768 17.2374 11.1768 16.7626 11.4697 16.4697L18.4697 9.46967C18.7626 9.17678 19.2374 9.17678 19.5303 9.46967ZM21.0303 11.9697C21.3232 12.2626 21.3232 12.7374 21.0303 13.0303L18.0303 16.0303C17.7374 16.3232 17.2626 16.3232 16.9697 16.0303C16.6768 15.7374 16.6768 15.2626 16.9697 14.9697L19.9697 11.9697C20.2626 11.6768 20.7374 11.6768 21.0303 11.9697Z" fill="#23262A"/>
</svg>
