<svg width="24" height="24" viewBox="0 0 24 24" fill="none" xmlns="http://www.w3.org/2000/svg">
<path fill-rule="evenodd" clip-rule="evenodd" d="M21.0303 5.03033C21.3232 4.73744 21.3232 4.26256 21.0303 3.96967C20.7374 3.67678 20.2626 3.67678 19.9697 3.96967L16.659 7.28033C15.3593 6.67264 13.8043 6.25 12 6.25C8.77743 6.25 6.36338 7.59591 4.76986 8.92384C3.97354 9.58744 3.37644 10.2507 2.97685 10.7502C2.77672 11.0004 2.62518 11.2107 2.52208 11.361C2.4705 11.4362 2.43096 11.4966 2.40345 11.5396C2.38969 11.5611 2.37894 11.5782 2.37118 11.5908L2.36178 11.606L2.35877 11.611L2.35768 11.6128C2.35768 11.6128 2.35688 11.6141 3 12L2.35688 11.6141C2.21437 11.8517 2.21437 12.1484 2.35688 12.3859L2.35826 12.3882L2.36033 12.3916L2.36653 12.4017L2.38715 12.4348C2.40456 12.4624 2.42932 12.5009 2.46141 12.5492C2.52559 12.6457 2.61927 12.7814 2.74252 12.9466C2.98876 13.2768 3.35458 13.7273 3.84068 14.2208C4.64096 15.0333 5.77932 15.9744 7.25858 16.6808L3.96967 19.9697C3.67678 20.2626 3.67678 20.7374 3.96967 21.0303C4.26256 21.3232 4.73744 21.3232 5.03033 21.0303L10.5954 15.4653C10.6007 15.4601 10.6061 15.4549 10.6113 15.4495L10.6165 15.4441L15.4441 10.6165C15.4514 10.6096 15.4584 10.6025 15.4653 10.5954L21.0303 5.03033ZM13.914 10.0254L10.0254 13.914C9.91032 13.7953 9.80586 13.6661 9.71346 13.5278C9.47911 13.1771 9.32859 12.7772 9.27353 12.3589C9.21847 11.9407 9.26035 11.5155 9.39594 11.116C9.53153 10.7166 9.75719 10.3537 10.0555 10.0555C10.3537 9.75719 10.7166 9.53153 11.116 9.39594C11.5155 9.26035 11.9407 9.21847 12.3589 9.27353C12.7772 9.32859 13.1771 9.47911 13.5278 9.71346C13.6661 9.80586 13.7953 9.91033 13.914 10.0254ZM14.3612 8.46626C14.5814 8.61342 14.7867 8.78038 14.9747 8.96462L15.5189 8.42045C14.5061 8.01586 13.3343 7.75 12 7.75C9.22257 7.75 7.13662 8.9041 5.73014 10.0762C5.02646 10.6626 4.49856 11.2493 4.14815 11.6873C4.05539 11.8032 3.97534 11.9084 3.90802 12L3.94498 12.0499C4.15707 12.3343 4.47875 12.7311 4.90932 13.1682C5.71064 13.9817 6.8738 14.9197 8.39477 15.5446L8.96462 14.9747C8.78038 14.7867 8.61342 14.5814 8.46625 14.3612C8.10408 13.8191 7.87145 13.2011 7.78636 12.5547C7.70127 11.9084 7.766 11.2512 7.97555 10.6339C8.18509 10.0166 8.53384 9.45576 8.9948 8.9948C9.45576 8.53384 10.0166 8.18509 10.6339 7.97555C11.2512 7.766 11.9084 7.70127 12.5547 7.78636C13.2011 7.87145 13.8191 8.10408 14.3612 8.46626ZM19.5988 9.24339C19.2909 8.96625 18.8167 8.99114 18.5396 9.29898C18.2624 9.60682 18.2873 10.081 18.5952 10.3582C18.7178 10.4686 18.8341 10.5782 18.9442 10.6859C19.4237 11.1555 19.7822 11.589 20.0189 11.9022C20.0448 11.9364 20.0691 11.9691 20.092 12.0002C20.0247 12.0918 19.9446 12.197 19.8518 12.3129C19.5014 12.7509 18.9735 13.3376 18.2699 13.924C16.8634 15.0961 14.7774 16.2502 12 16.2502C11.5858 16.2502 11.25 16.586 11.25 17.0002C11.25 17.4144 11.5858 17.7502 12 17.7502C15.2226 17.7502 17.6366 16.4043 19.2301 15.0764C20.0265 14.4128 20.6236 13.7495 21.0232 13.25C21.2233 12.9998 21.3748 12.7895 21.4779 12.6392C21.5295 12.564 21.569 12.5036 21.5965 12.4606C21.6023 12.4516 21.6076 12.4433 21.6123 12.4359C21.6188 12.4255 21.6243 12.4167 21.6288 12.4094L21.6382 12.3942L21.6412 12.3892L21.6428 12.3867C21.7853 12.1492 21.7856 11.8518 21.6431 11.6143L21 12.0002C21.6431 11.6143 21.6425 11.6134 21.6425 11.6133L21.6416 11.6119L21.6394 11.6082L21.6326 11.5971L21.6099 11.5607C21.5907 11.5303 21.5633 11.4878 21.5277 11.4346C21.4565 11.3283 21.3525 11.1789 21.2155 10.9977C20.9419 10.6357 20.5349 10.1442 19.9937 9.61422C19.8692 9.49235 19.7376 9.36837 19.5988 9.24339ZM21 12.0002L21.6428 12.3867C21.6429 12.3864 21.6431 12.3861 21 12.0002Z" fill="#23262A"/>
</svg>
