<svg width="24" height="24" viewBox="0 0 24 24" fill="none" xmlns="http://www.w3.org/2000/svg">
<path fill-rule="evenodd" clip-rule="evenodd" d="M21.0303 5.03033C21.3232 4.73744 21.3232 4.26256 21.0303 3.96967C20.7374 3.67678 20.2626 3.67678 19.9697 3.96967L3.96967 19.9697C3.67678 20.2626 3.67678 20.7374 3.96967 21.0303C4.26256 21.3232 4.73744 21.3232 5.03033 21.0303L21.0303 5.03033ZM11.0315 17.7088C10.8251 17.6911 10.7397 17.4423 10.8862 17.2958L19.0837 9.09824C19.1753 9.0067 19.3218 9.00005 19.4196 9.08485C20.1219 9.69372 20.656 10.2912 21.0232 10.7502C21.2234 11.0004 21.3749 11.2107 21.478 11.361C21.5296 11.4362 21.5691 11.4966 21.5966 11.5396C21.6123 11.5641 21.6278 11.5886 21.6428 11.6135C21.7853 11.851 21.7857 12.1484 21.6432 12.3859L21.5966 12.4605C21.5691 12.5034 21.5296 12.5638 21.478 12.639C21.3749 12.7894 21.2234 12.9996 21.0232 13.2498C20.6236 13.7493 20.0265 14.4126 19.2302 15.0762C17.6367 16.4041 15.2226 17.75 12.0001 17.75C11.6687 17.75 11.3458 17.7358 11.0315 17.7088ZM14.7161 6.58522C14.8999 6.63186 14.9582 6.85978 14.8242 6.99385L13.8309 7.98709C13.758 8.06 13.6481 8.08 13.5521 8.04233C13.0713 7.85362 12.5478 7.75 12 7.75C9.65279 7.75 7.75 9.65279 7.75 12C7.75 12.5478 7.85362 13.0713 8.04233 13.5521C8.08 13.6481 8.06 13.758 7.98709 13.8309L6.0461 15.7719C5.96236 15.8557 5.83117 15.8694 5.73323 15.8028C5.38438 15.5657 5.06326 15.3206 4.76994 15.0762C3.97362 14.4126 3.37652 13.7493 2.97693 13.2498C2.7768 12.9996 2.62526 12.7894 2.52216 12.639C2.47058 12.5638 2.43104 12.5034 2.40353 12.4605C2.38977 12.439 2.37901 12.4218 2.37126 12.4093C2.22355 12.169 2.21014 11.8588 2.35696 11.6141L2.40353 11.5396C2.43104 11.4966 2.47058 11.4362 2.52215 11.361C2.62526 11.2107 2.7768 11.0004 2.97692 10.7502C3.37652 10.2507 3.97362 9.58744 4.76994 8.92384C6.36346 7.59591 8.77751 6.25 12.0001 6.25C12.9803 6.25 13.8858 6.37454 14.7161 6.58522ZM12.0502 9.25045C12.2508 9.25404 12.3272 9.49081 12.1853 9.63269L9.63269 12.1853C9.49081 12.3272 9.25404 12.2508 9.25045 12.0502C9.25015 12.0335 9.25 12.0168 9.25 12C9.25 10.4812 10.4812 9.25 12 9.25C12.0168 9.25 12.0335 9.25015 12.0502 9.25045Z" fill="#23262A"/>
</svg>
