<svg width="24" height="24" viewBox="0 0 24 24" fill="none" xmlns="http://www.w3.org/2000/svg">
<path fill-rule="evenodd" clip-rule="evenodd" d="M3.90533 12C3.97317 12.0926 4.0542 12.1994 4.14838 12.3172C4.49853 12.7554 5.02627 13.3416 5.72985 13.9273C7.13607 15.098 9.22211 16.25 12 16.25C14.7779 16.25 16.8639 15.098 18.2701 13.9273C18.9737 13.3416 19.5015 12.7554 19.8516 12.3172C19.9458 12.1994 20.0268 12.0926 20.0947 12C20.0268 11.9074 19.9458 11.8006 19.8516 11.6828C19.5015 11.2446 18.9737 10.6584 18.2701 10.0727C16.8639 8.90197 14.7779 7.75 12 7.75C9.22211 7.75 7.13607 8.90197 5.72985 10.0727C5.02627 10.6584 4.49853 11.2446 4.14838 11.6828C4.0542 11.8006 3.97317 11.9074 3.90533 12ZM12 7.75C14.3472 7.75 16.25 9.65279 16.25 12C16.25 14.3472 14.3472 16.25 12 16.25C9.65279 16.25 7.75 14.3472 7.75 12C7.75 9.65279 9.65279 7.75 12 7.75ZM4.77014 8.91985C6.36393 7.59303 8.77789 6.25 12 6.25C15.2221 6.25 17.6361 7.59303 19.2299 8.91985C20.0263 9.58286 20.6235 10.246 21.0234 10.7463C21.2236 10.9968 21.3754 11.2079 21.4789 11.3596C21.5306 11.4354 21.5706 11.4969 21.5989 11.5416C21.6129 11.5638 21.6246 11.5828 21.6338 11.598L21.6409 11.61L21.6481 11.6223C21.6502 11.6259 21.6548 11.6339 21.6601 11.6438C21.6621 11.6476 21.6685 11.6594 21.6758 11.6747C21.68 11.6835 21.6905 11.7072 21.6967 11.7223C21.7086 11.7541 21.7422 11.8921 21.75 12C21.7422 12.1079 21.7086 12.2459 21.6967 12.2777C21.6905 12.2928 21.68 12.3165 21.6758 12.3253C21.6685 12.3406 21.6621 12.3524 21.6601 12.3562C21.657 12.3619 21.6542 12.3669 21.652 12.3709C21.6503 12.3738 21.649 12.3762 21.6481 12.3777L21.6391 12.3931L21.6338 12.402C21.6246 12.4172 21.6129 12.4362 21.5989 12.4584C21.5706 12.5031 21.5306 12.5646 21.4789 12.6404C21.3754 12.7921 21.2236 13.0032 21.0234 13.2537C20.6235 13.754 20.0263 14.4171 19.2299 15.0802C17.6361 16.407 15.2221 17.75 12 17.75C8.77789 17.75 6.36393 16.407 4.77015 15.0802C3.97373 14.4171 3.37647 13.754 2.97662 13.2537C2.77639 13.0032 2.6246 12.7921 2.52109 12.6404C2.46936 12.5646 2.42935 12.5031 2.4011 12.4584C2.38707 12.4362 2.37537 12.4172 2.36621 12.402C2.36186 12.3948 2.35682 12.3863 2.35187 12.3777C2.34981 12.3741 2.34523 12.3661 2.33994 12.3562C2.33787 12.3524 2.33154 12.3406 2.32419 12.3253C2.32003 12.3165 2.30949 12.2928 2.30329 12.2777C2.29144 12.2459 2.2578 12.1079 2.25 12C2.2578 11.8921 2.29144 11.7541 2.30329 11.7223C2.30949 11.7072 2.32003 11.6835 2.32419 11.6747C2.33154 11.6594 2.33787 11.6476 2.33994 11.6438C2.34523 11.6339 2.34981 11.6259 2.35187 11.6223C2.35682 11.6137 2.36186 11.6052 2.36621 11.598C2.37537 11.5828 2.38707 11.5638 2.4011 11.5416C2.42935 11.4969 2.46936 11.4354 2.52109 11.3596C2.6246 11.2079 2.77639 10.9968 2.97662 10.7463C3.37647 10.246 3.97373 9.58286 4.77014 8.91985ZM12 9.25C10.4812 9.25 9.25 10.4812 9.25 12C9.25 13.5188 10.4812 14.75 12 14.75C13.5188 14.75 14.75 13.5188 14.75 12C14.75 10.4812 13.5188 9.25 12 9.25ZM12 10.5C11.1716 10.5 10.5 11.1716 10.5 12C10.5 12.8284 11.1716 13.5 12 13.5C12.8284 13.5 13.5 12.8284 13.5 12C13.5 11.1716 12.8284 10.5 12 10.5Z" fill="#23262A"/>
</svg>
