<svg width="24" height="24" viewBox="0 0 24 24" fill="none" xmlns="http://www.w3.org/2000/svg">
<path fill-rule="evenodd" clip-rule="evenodd" d="M21.478 11.361C21.5296 11.4362 21.5691 11.4966 21.5966 11.5396C21.6123 11.5641 21.6278 11.5886 21.6428 11.6135C21.7853 11.851 21.7857 12.1484 21.6432 12.3859L21.5966 12.4605C21.5691 12.5034 21.5296 12.5638 21.478 12.639C21.3749 12.7894 21.2234 12.9996 21.0232 13.2498C20.6236 13.7493 20.0265 14.4126 19.2302 15.0762C17.6367 16.4041 15.2226 17.75 12.0001 17.75C8.77751 17.75 6.36346 16.4041 4.76994 15.0762C3.97362 14.4126 3.37652 13.7493 2.97693 13.2498C2.7768 12.9996 2.62526 12.7894 2.52216 12.639C2.47058 12.5638 2.43104 12.5034 2.40353 12.4605C2.38977 12.439 2.37901 12.4218 2.37126 12.4093C2.22355 12.169 2.21014 11.8588 2.35696 11.6141L2.40353 11.5396C2.43104 11.4966 2.47058 11.4362 2.52215 11.361C2.62526 11.2107 2.7768 11.0004 2.97692 10.7502C3.37652 10.2507 3.97362 9.58744 4.76994 8.92384C6.36346 7.59591 8.77751 6.25 12.0001 6.25C15.2226 6.25 17.6367 7.59591 19.2302 8.92384C20.0265 9.58744 20.6236 10.2507 21.0232 10.7502C21.2234 11.0004 21.3749 11.2107 21.478 11.361ZM12 9.25C10.4812 9.25 9.25 10.4812 9.25 12C9.25 13.5188 10.4812 14.75 12 14.75C13.5188 14.75 14.75 13.5188 14.75 12C14.75 10.4812 13.5188 9.25 12 9.25ZM7.75 12C7.75 9.65279 9.65279 7.75 12 7.75C14.3472 7.75 16.25 9.65279 16.25 12C16.25 14.3472 14.3472 16.25 12 16.25C9.65279 16.25 7.75 14.3472 7.75 12ZM12 10.5C11.1716 10.5 10.5 11.1716 10.5 12C10.5 12.8284 11.1716 13.5 12 13.5C12.8284 13.5 13.5 12.8284 13.5 12C13.5 11.1716 12.8284 10.5 12 10.5Z" fill="#23262A"/>
</svg>
