<svg width="24" height="24" viewBox="0 0 24 24" fill="none" xmlns="http://www.w3.org/2000/svg">
<path fill-rule="evenodd" clip-rule="evenodd" d="M3.90802 12C3.97534 12.0916 4.05539 12.1968 4.14815 12.3127C4.49855 12.7507 5.02646 13.3374 5.73014 13.9238C7.13662 15.0959 9.22256 16.25 12 16.25C14.7774 16.25 16.8634 15.0959 18.2699 13.9238C18.9735 13.3374 19.5014 12.7507 19.8518 12.3127C19.9446 12.1968 20.0247 12.0916 20.092 12C20.0247 11.9084 19.9446 11.8032 19.8518 11.6873C19.5014 11.2493 18.9735 10.6626 18.2699 10.0762C16.8634 8.9041 14.7774 7.75 12 7.75C9.22257 7.75 7.13662 8.9041 5.73014 10.0762C5.02646 10.6626 4.49856 11.2493 4.14815 11.6873C4.05539 11.8032 3.97534 11.9084 3.90802 12ZM12 7.75C14.3472 7.75 16.25 9.65279 16.25 12C16.25 14.3472 14.3472 16.25 12 16.25C9.65279 16.25 7.75 14.3472 7.75 12C7.75 9.65279 9.65279 7.75 12 7.75ZM21 12C21.6431 11.6141 21.6429 11.6139 21.6428 11.6135L21.6423 11.6128L21.6412 11.611L21.6382 11.606L21.6288 11.5908C21.6211 11.5782 21.6103 11.5611 21.5965 11.5396C21.569 11.4966 21.5295 11.4362 21.4779 11.361C21.3748 11.2107 21.2233 11.0004 21.0232 10.7502C20.6236 10.2507 20.0265 9.58744 19.2301 8.92384C17.6366 7.59591 15.2226 6.25 12 6.25C8.77743 6.25 6.36338 7.59591 4.76986 8.92384C3.97354 9.58744 3.37644 10.2507 2.97685 10.7502C2.77672 11.0004 2.62518 11.2107 2.52208 11.361C2.4705 11.4362 2.43096 11.4966 2.40345 11.5396C2.38969 11.5611 2.37894 11.5782 2.37118 11.5908L2.36178 11.606L2.35877 11.611L2.35768 11.6128L2.35725 11.6135C2.35706 11.6139 2.35688 11.6141 3 12L2.35688 11.6141C2.21437 11.8517 2.21437 12.1484 2.35688 12.3859L3 12C2.35688 12.3859 2.35706 12.3862 2.35725 12.3865L2.35769 12.3872L2.35877 12.389L2.36178 12.394L2.37118 12.4093C2.37894 12.4218 2.3897 12.439 2.40345 12.4605C2.43096 12.5034 2.4705 12.5638 2.52208 12.639C2.62518 12.7894 2.77673 12.9996 2.97685 13.2498C3.37645 13.7493 3.97354 14.4126 4.76986 15.0762C6.36338 16.4041 8.77744 17.75 12 17.75C15.2226 17.75 17.6366 16.4041 19.2301 15.0762C20.0265 14.4126 20.6236 13.7493 21.0232 13.2498C21.2233 12.9996 21.3748 12.7894 21.4779 12.639C21.5295 12.5638 21.569 12.5034 21.5965 12.4605C21.6103 12.439 21.6211 12.4218 21.6288 12.4093L21.6382 12.394L21.6412 12.389L21.6423 12.3872L21.6428 12.3865C21.6429 12.3862 21.6431 12.3859 21 12ZM21 12L21.6431 12.3859C21.7856 12.1484 21.7856 11.8517 21.6431 11.6141L21 12ZM12 9.25C10.4812 9.25 9.25 10.4812 9.25 12C9.25 13.5188 10.4812 14.75 12 14.75C13.5188 14.75 14.75 13.5188 14.75 12C14.75 10.4812 13.5188 9.25 12 9.25ZM12 10.5C11.1716 10.5 10.5 11.1716 10.5 12C10.5 12.8284 11.1716 13.5 12 13.5C12.8284 13.5 13.5 12.8284 13.5 12C13.5 11.1716 12.8284 10.5 12 10.5Z" fill="#23262A"/>
</svg>
