<svg width="24" height="24" viewBox="0 0 24 24" fill="none" xmlns="http://www.w3.org/2000/svg">
<path fill-rule="evenodd" clip-rule="evenodd" d="M2.25 12C2.25 6.61522 6.61522 2.25 12 2.25C17.3848 2.25 21.75 6.61522 21.75 12C21.75 17.3848 17.3848 21.75 12 21.75C6.61522 21.75 2.25 17.3848 2.25 12ZM7.25 10.25C7.25 9.42157 7.92157 8.75 8.75 8.75C9.57843 8.75 10.25 9.42157 10.25 10.25C10.25 11.0784 9.57843 11.75 8.75 11.75C7.92157 11.75 7.25 11.0784 7.25 10.25ZM13.75 10.25C13.75 9.42157 14.4216 8.75 15.25 8.75C16.0784 8.75 16.75 9.42157 16.75 10.25C16.75 11.0784 16.0784 11.75 15.25 11.75C14.4216 11.75 13.75 11.0784 13.75 10.25ZM16.4068 17.6299C16.0589 17.8547 15.5946 17.7548 15.3699 17.4068C14.6775 16.3348 13.3768 15.7499 11.9999 15.7499C10.623 15.7499 9.32233 16.3348 8.62992 17.4068C8.40518 17.7548 7.94093 17.8547 7.59299 17.6299C7.24504 17.4052 7.14516 16.9409 7.3699 16.593C8.39988 14.9983 10.238 14.2499 11.9999 14.2499C13.7618 14.2499 15.5999 14.9983 16.6299 16.593C16.8547 16.9409 16.7548 17.4052 16.4068 17.6299Z" fill="#23262A"/>
</svg>
