<svg width="24" height="24" viewBox="0 0 24 24" fill="none" xmlns="http://www.w3.org/2000/svg">
<path fill-rule="evenodd" clip-rule="evenodd" d="M3.75 12C3.75 7.44365 7.44365 3.75 12 3.75C16.5563 3.75 20.25 7.44365 20.25 12C20.25 16.5563 16.5563 20.25 12 20.25C7.44365 20.25 3.75 16.5563 3.75 12ZM12 2.25C6.61522 2.25 2.25 6.61522 2.25 12C2.25 17.3848 6.61522 21.75 12 21.75C17.3848 21.75 21.75 17.3848 21.75 12C21.75 6.61522 17.3848 2.25 12 2.25ZM12 13.5C10.5557 13.5 9.36764 14.2533 8.82226 15.42H15.1777C14.6323 14.2533 13.4443 13.5 12 13.5ZM12 12C14.6643 12 16.8419 13.9038 16.9918 16.6199C17.0009 16.7854 16.8657 16.92 16.7 16.92H7.29999C7.13431 16.92 6.99909 16.7854 7.00822 16.6199C7.15805 13.9038 9.33566 12 12 12ZM7.51227 9.33936C8.1791 9.51804 8.86452 9.12231 9.0432 8.45548C9.1504 8.05538 9.56166 7.81794 9.96176 7.92515C10.3619 8.03235 10.5993 8.4436 10.4921 8.8437C10.099 10.3107 8.59107 11.1813 7.12404 10.7882C6.72394 10.681 6.4865 10.2698 6.59371 9.86969C6.70091 9.46959 7.11217 9.23215 7.51227 9.33936ZM14.9568 8.45548C15.1355 9.12231 15.8209 9.51804 16.4877 9.33936C16.8878 9.23215 17.2991 9.46959 17.4063 9.86969C17.5135 10.2698 17.2761 10.681 16.876 10.7882C15.4089 11.1813 13.901 10.3107 13.5079 8.8437C13.4007 8.4436 13.6381 8.03235 14.0382 7.92515C14.4383 7.81794 14.8496 8.05538 14.9568 8.45548Z" fill="#23262A"/>
</svg>
