<svg width="24" height="24" viewBox="0 0 24 24" fill="none" xmlns="http://www.w3.org/2000/svg">
<path fill-rule="evenodd" clip-rule="evenodd" d="M12 3.75C7.44365 3.75 3.75 7.44365 3.75 12C3.75 16.5563 7.44365 20.25 12 20.25C16.5563 20.25 20.25 16.5563 20.25 12C20.25 7.44365 16.5563 3.75 12 3.75ZM2.25 12C2.25 6.61522 6.61522 2.25 12 2.25C17.3848 2.25 21.75 6.61522 21.75 12C21.75 17.3848 17.3848 21.75 12 21.75C6.61522 21.75 2.25 17.3848 2.25 12ZM8.75 8.75C7.92157 8.75 7.25 9.42157 7.25 10.25C7.25 11.0784 7.92157 11.75 8.75 11.75C9.57843 11.75 10.25 11.0784 10.25 10.25C10.25 9.42157 9.57843 8.75 8.75 8.75ZM15.25 8.75C14.4216 8.75 13.75 9.42157 13.75 10.25C13.75 11.0784 14.4216 11.75 15.25 11.75C16.0784 11.75 16.75 11.0784 16.75 10.25C16.75 9.42157 16.0784 8.75 15.25 8.75ZM15.37 17.407C15.5947 17.7549 16.059 17.8548 16.4069 17.63C16.7549 17.4053 16.8547 16.9411 16.63 16.5931C15.6 14.9985 13.7619 14.25 12 14.25C10.2381 14.25 8.39997 14.9985 7.36999 16.5931C7.14525 16.9411 7.24513 17.4053 7.59308 17.63C7.94102 17.8548 8.40528 17.7549 8.63001 17.407C9.32242 16.3349 10.6231 15.75 12 15.75C13.3769 15.75 14.6776 16.3349 15.37 17.407Z" fill="#23262A"/>
</svg>
