<svg width="24" height="24" viewBox="0 0 24 24" fill="none" xmlns="http://www.w3.org/2000/svg">
<path fill-rule="evenodd" clip-rule="evenodd" d="M3.75 12C3.75 7.44365 7.44365 3.75 12 3.75C16.5563 3.75 20.25 7.44365 20.25 12C20.25 16.5563 16.5563 20.25 12 20.25C7.44365 20.25 3.75 16.5563 3.75 12ZM12 2.25C6.61522 2.25 2.25 6.61522 2.25 12C2.25 17.3848 6.61522 21.75 12 21.75C17.3848 21.75 21.75 17.3848 21.75 12C21.75 6.61522 17.3848 2.25 12 2.25ZM8.82227 14.5H15.2029C14.6502 15.6628 13.4505 16.42 12 16.42C10.5557 16.42 9.36765 15.6667 8.82227 14.5ZM12 17.92C14.6643 17.92 16.871 16.0163 17.0229 13.3001C17.0322 13.1347 16.8969 13 16.7312 13H7.3C7.13431 13 6.9991 13.1347 7.00823 13.3001C7.15806 16.0163 9.33566 17.92 12 17.92ZM9.53391 9.67404C8.93605 9.32886 8.17156 9.5337 7.82638 10.1316C7.61928 10.4903 7.16058 10.6132 6.80186 10.4061C6.44314 10.199 6.32024 9.74029 6.52734 9.38157C7.28674 8.06627 8.96861 7.61561 10.2839 8.375C10.6426 8.58211 10.7655 9.0408 10.5584 9.39952C10.3513 9.75824 9.89263 9.88115 9.53391 9.67404ZM16.1736 10.1316C15.8284 9.5337 15.064 9.32886 14.4661 9.67404C14.1074 9.88115 13.6487 9.75824 13.4416 9.39952C13.2345 9.0408 13.3574 8.58211 13.7161 8.375C15.0314 7.61561 16.7133 8.06627 17.4727 9.38157C17.6798 9.74029 17.5569 10.199 17.1981 10.4061C16.8394 10.6132 16.3807 10.4903 16.1736 10.1316Z" fill="#23262A"/>
</svg>
