<svg width="24" height="24" viewBox="0 0 24 24" fill="none" xmlns="http://www.w3.org/2000/svg">
<path fill-rule="evenodd" clip-rule="evenodd" d="M12 2.25C6.61522 2.25 2.25 6.61522 2.25 12C2.25 17.3848 6.61522 21.75 12 21.75C17.3848 21.75 21.75 17.3848 21.75 12C21.75 6.61522 17.3848 2.25 12 2.25ZM7.52551 16.42C7.76434 14.1079 9.65903 12.5 12.0001 12.5C14.3411 12.5 16.2358 14.1079 16.4746 16.42H7.52551ZM7.51227 9.33936C8.1791 9.51804 8.86452 9.12231 9.0432 8.45548C9.1504 8.05538 9.56166 7.81794 9.96176 7.92515C10.3619 8.03235 10.5993 8.4436 10.4921 8.8437C10.099 10.3107 8.59107 11.1813 7.12404 10.7882C6.72394 10.681 6.4865 10.2698 6.59371 9.86969C6.70091 9.46959 7.11217 9.23215 7.51227 9.33936ZM14.9568 8.45548C15.1355 9.12231 15.8209 9.51804 16.4877 9.33936C16.8878 9.23215 17.2991 9.46959 17.4063 9.86969C17.5135 10.2698 17.2761 10.681 16.876 10.7882C15.4089 11.1813 13.901 10.3107 13.5079 8.8437C13.4007 8.4436 13.6381 8.03235 14.0382 7.92515C14.4383 7.81794 14.8496 8.05538 14.9568 8.45548Z" fill="#23262A"/>
</svg>
