<svg width="24" height="24" viewBox="0 0 24 24" fill="none" xmlns="http://www.w3.org/2000/svg">
<path fill-rule="evenodd" clip-rule="evenodd" d="M3.75 12C3.75 7.44365 7.44365 3.75 12 3.75C16.5563 3.75 20.25 7.44365 20.25 12C20.25 16.5563 16.5563 20.25 12 20.25C7.44365 20.25 3.75 16.5563 3.75 12ZM12 2.25C6.61522 2.25 2.25 6.61522 2.25 12C2.25 17.3848 6.61522 21.75 12 21.75C17.3848 21.75 21.75 17.3848 21.75 12C21.75 6.61522 17.3848 2.25 12 2.25ZM8.75 8.75C7.92157 8.75 7.25 9.42157 7.25 10.25C7.25 11.0784 7.92157 11.75 8.75 11.75C9.57843 11.75 10.25 11.0784 10.25 10.25C10.25 9.42157 9.57843 8.75 8.75 8.75ZM8 14.25C7.58579 14.25 7.25 14.5858 7.25 15C7.25 15.4142 7.58579 15.75 8 15.75L16 15.75C16.4142 15.75 16.75 15.4142 16.75 15C16.75 14.5858 16.4142 14.25 16 14.25L8 14.25ZM13.75 10.25C13.75 9.42157 14.4216 8.75 15.25 8.75C16.0784 8.75 16.75 9.42157 16.75 10.25C16.75 11.0784 16.0784 11.75 15.25 11.75C14.4216 11.75 13.75 11.0784 13.75 10.25Z" fill="#23262A"/>
</svg>
