<svg width="24" height="24" viewBox="0 0 24 24" fill="none" xmlns="http://www.w3.org/2000/svg">
<path fill-rule="evenodd" clip-rule="evenodd" d="M3.75 12C3.75 7.44365 7.44365 3.75 12 3.75C16.5563 3.75 20.25 7.44365 20.25 12C20.25 16.5563 16.5563 20.25 12 20.25C7.44365 20.25 3.75 16.5563 3.75 12ZM12 2.25C6.61522 2.25 2.25 6.61522 2.25 12C2.25 17.3848 6.61522 21.75 12 21.75C17.3848 21.75 21.75 17.3848 21.75 12C21.75 6.61522 17.3848 2.25 12 2.25ZM8.75 8.5C7.92157 8.5 7.25 9.17157 7.25 10C7.25 10.8284 7.92157 11.5 8.75 11.5C9.57843 11.5 10.25 10.8284 10.25 10C10.25 9.17157 9.57843 8.5 8.75 8.5ZM7.59308 14.5411C7.94102 14.3164 8.40527 14.4163 8.63001 14.7642C9.32242 15.8362 10.6231 16.4211 12 16.4211C13.3769 16.4211 14.6776 15.8362 15.37 14.7642C15.5947 14.4163 16.059 14.3164 16.4069 14.5411C16.7549 14.7659 16.8547 15.2301 16.63 15.5781C15.6 17.1727 13.7619 17.9211 12 17.9211C10.2381 17.9211 8.39997 17.1727 7.36999 15.5781C7.14525 15.2301 7.24513 14.7659 7.59308 14.5411ZM15.25 8.5C14.4216 8.5 13.75 9.17157 13.75 10C13.75 10.8284 14.4216 11.5 15.25 11.5C16.0784 11.5 16.75 10.8284 16.75 10C16.75 9.17157 16.0784 8.5 15.25 8.5Z" fill="#23262A"/>
</svg>
