<svg width="24" height="24" viewBox="0 0 24 24" fill="none" xmlns="http://www.w3.org/2000/svg">
<path fill-rule="evenodd" clip-rule="evenodd" d="M2.25 12C2.25 6.61522 6.61522 2.25 12 2.25C17.3848 2.25 21.75 6.61522 21.75 12C21.75 17.3848 17.3848 21.75 12 21.75C6.61522 21.75 2.25 17.3848 2.25 12ZM7.25 10C7.25 9.17157 7.92157 8.5 8.75 8.5C9.57843 8.5 10.25 9.17157 10.25 10C10.25 10.8284 9.57843 11.5 8.75 11.5C7.92157 11.5 7.25 10.8284 7.25 10ZM7.59317 14.5412C7.94111 14.3165 8.40536 14.4164 8.6301 14.7643C9.32251 15.8363 10.6232 16.4212 12.0001 16.4212C13.377 16.4212 14.6777 15.8363 15.3701 14.7643C15.5948 14.4164 16.0591 14.3165 16.407 14.5412C16.755 14.766 16.8548 15.2302 16.6301 15.5782C15.6001 17.1728 13.762 17.9212 12.0001 17.9212C10.2382 17.9212 8.40006 17.1728 7.37008 15.5782C7.14534 15.2302 7.24522 14.766 7.59317 14.5412ZM13.75 10C13.75 9.17157 14.4216 8.5 15.25 8.5C16.0784 8.5 16.75 9.17157 16.75 10C16.75 10.8284 16.0784 11.5 15.25 11.5C14.4216 11.5 13.75 10.8284 13.75 10Z" fill="#23262A"/>
</svg>
