<svg width="24" height="24" viewBox="0 0 24 24" fill="none" xmlns="http://www.w3.org/2000/svg">
<path fill-rule="evenodd" clip-rule="evenodd" d="M2.25 12C2.25 6.61522 6.61522 2.25 12 2.25C17.3848 2.25 21.75 6.61522 21.75 12C21.75 17.3848 17.3848 21.75 12 21.75C6.61522 21.75 2.25 17.3848 2.25 12ZM7.25 10.25C7.25 9.42157 7.92157 8.75 8.75 8.75C9.57843 8.75 10.25 9.42157 10.25 10.25C10.25 11.0784 9.57843 11.75 8.75 11.75C7.92157 11.75 7.25 11.0784 7.25 10.25ZM7.25 15C7.25 14.5858 7.58579 14.25 8 14.25L16 14.25C16.4142 14.25 16.75 14.5858 16.75 15C16.75 15.4142 16.4142 15.75 16 15.75L8 15.75C7.58579 15.75 7.25 15.4142 7.25 15ZM13.75 10.25C13.75 9.42157 14.4216 8.75 15.25 8.75C16.0784 8.75 16.75 9.42157 16.75 10.25C16.75 11.0784 16.0784 11.75 15.25 11.75C14.4216 11.75 13.75 11.0784 13.75 10.25Z" fill="#23262A"/>
</svg>
