<svg width="24" height="24" viewBox="0 0 24 24" fill="none" xmlns="http://www.w3.org/2000/svg">
<path fill-rule="evenodd" clip-rule="evenodd" d="M18.639 2.42127C19.0501 2.25097 19.5025 2.20642 19.939 2.29323C20.3754 2.38005 20.7763 2.59434 21.091 2.90901C21.4057 3.22368 21.6199 3.62459 21.7068 4.06105C21.7936 4.49751 21.749 4.94991 21.5787 5.36104C21.4084 5.77217 21.12 6.12357 20.75 6.37081C20.565 6.49444 20.3637 6.58924 20.1531 6.65314C20.2173 6.93018 20.25 7.21428 20.25 7.5C20.25 7.99246 20.153 8.48009 19.9645 8.93506C19.7815 9.37681 19.5158 9.77937 19.1818 10.1211L19.5303 10.4697C19.8232 10.7626 19.8232 11.2374 19.5303 11.5303C19.2374 11.8232 18.7626 11.8232 18.4697 11.5303L18.2529 11.3135L17.3409 13.4414C17.2031 13.763 17.0052 14.0553 16.7578 14.3027L10.7373 20.3232C10.0539 21.0066 8.94583 21.0066 8.26241 20.3232L3.67663 15.7374C2.99321 15.054 2.99321 13.946 3.67663 13.2626L9.69743 7.24196C9.94481 6.99457 10.2371 6.79667 10.5587 6.65885L12.6863 5.747L12.4697 5.53033C12.1768 5.23744 12.1768 4.76256 12.4697 4.46967C12.7626 4.17678 13.2374 4.17678 13.5303 4.46967L13.8788 4.81817C14.2206 4.48415 14.6231 4.21843 15.0649 4.03545C15.5199 3.847 16.0075 3.75 16.5 3.75C16.7857 3.75 17.0698 3.78266 17.3469 3.84689C17.4108 3.63625 17.5056 3.43498 17.6292 3.24997C17.8764 2.87996 18.2278 2.59157 18.639 2.42127ZM13.8285 6.88945L11.1496 8.03757C11.0034 8.10021 10.8705 8.19017 10.7581 8.30262L8.81071 10.25H17.0766L17.1104 10.1713L13.8285 6.88945Z" fill="#23262A"/>
</svg>
