<svg width="24" height="24" viewBox="0 0 24 24" fill="none" xmlns="http://www.w3.org/2000/svg">
<path fill-rule="evenodd" clip-rule="evenodd" d="M19.939 2.29323C19.5025 2.20642 19.0501 2.25097 18.639 2.42127C18.2278 2.59157 17.8764 2.87996 17.6292 3.24997C17.5056 3.43498 17.4108 3.63624 17.3469 3.84688C17.0698 3.78266 16.7857 3.75 16.5 3.75C16.0075 3.75 15.5199 3.847 15.0649 4.03545C14.6232 4.21843 14.2206 4.48416 13.8789 4.81819L13.5303 4.46967C13.2374 4.17678 12.7626 4.17678 12.4697 4.46967C12.1768 4.76256 12.1768 5.23744 12.4697 5.53033L12.6864 5.74702L10.5586 6.65892C10.237 6.79673 9.9447 6.99464 9.69732 7.24202L3.67678 13.2626C2.99336 13.946 2.99336 15.054 3.67678 15.7374L8.26256 20.3232C8.94598 21.0066 10.054 21.0066 10.7374 20.3232L16.758 14.3027C17.0054 14.0553 17.2033 13.763 17.3411 13.4414L18.253 11.3136L18.4697 11.5303C18.7626 11.8232 19.2374 11.8232 19.5303 11.5303C19.8232 11.2374 19.8232 10.7626 19.5303 10.4697L19.1818 10.1211C19.5158 9.77938 19.7816 9.37682 19.9646 8.93506C20.153 8.48009 20.25 7.99246 20.25 7.5C20.25 7.21427 20.2173 6.93017 20.1531 6.65312C20.3638 6.58923 20.565 6.49443 20.75 6.37081C21.12 6.12357 21.4084 5.77217 21.5787 5.36104C21.749 4.9499 21.7936 4.49751 21.7068 4.06105C21.62 3.62459 21.4057 3.22368 21.091 2.90901C20.7763 2.59434 20.3754 2.38005 19.939 2.29323ZM19.5 5.25C19.6483 5.25 19.7933 5.20601 19.9167 5.1236C20.04 5.04119 20.1361 4.92406 20.1929 4.78701C20.2497 4.64997 20.2645 4.49917 20.2356 4.35368C20.2067 4.2082 20.1352 4.07456 20.0303 3.96967C19.9254 3.86478 19.7918 3.79335 19.6463 3.76441C19.5008 3.73547 19.35 3.75033 19.213 3.80709C19.0759 3.86386 18.9588 3.95999 18.8764 4.08332C18.794 4.20666 18.75 4.35167 18.75 4.5C18.8916 4.60623 19.0259 4.7226 19.1517 4.84835C19.2774 4.9741 19.3938 5.10836 19.5 5.25ZM18.121 9.06037C18.3158 8.85798 18.4711 8.62081 18.5787 8.36104C18.6918 8.08806 18.75 7.79548 18.75 7.5C18.75 7.20453 18.6918 6.91195 18.5787 6.63896C18.4657 6.36598 18.2999 6.11794 18.091 5.90901C17.8821 5.70008 17.634 5.53435 17.361 5.42127C17.0881 5.3082 16.7955 5.25 16.5 5.25C16.2045 5.25 15.9119 5.3082 15.639 5.42127C15.3792 5.52887 15.142 5.68415 14.9396 5.87897L18.121 9.06037ZM11.1495 8.03764L13.8287 6.88938L17.1106 10.1713L17.0769 10.25H8.81066L10.758 8.30268C10.8704 8.19024 11.0033 8.10028 11.1495 8.03764ZM4.73744 14.3232L7.31066 11.75H16.434L15.9624 12.8505C15.8997 12.9967 15.8098 13.1296 15.6973 13.242L9.67678 19.2626C9.57915 19.3602 9.42086 19.3602 9.32322 19.2626L4.73744 14.6768C4.63981 14.5791 4.63981 14.4209 4.73744 14.3232Z" fill="#23262A"/>
</svg>
