<svg width="24" height="24" viewBox="0 0 24 24" fill="none" xmlns="http://www.w3.org/2000/svg">
<path fill-rule="evenodd" clip-rule="evenodd" d="M12 1.25C10.4812 1.25 9.25 2.48122 9.25 4C9.25 5.51878 10.4812 6.75 12 6.75C13.5188 6.75 14.75 5.51878 14.75 4C14.75 2.48122 13.5188 1.25 12 1.25ZM19.742 8.1925C19.7544 7.05768 18.7275 6.04603 17.5041 6.28385C16.9021 6.40087 16.3483 6.52996 15.8186 6.65344C14.5236 6.95534 13.3726 7.22365 12.0133 7.19965L11.9785 7.19883C10.6192 7.22284 9.46828 6.95453 8.17322 6.65263C7.64355 6.52915 7.08978 6.40005 6.48778 6.28303C5.26431 6.04522 4.2374 7.05687 4.24987 8.19169C4.25938 9.05787 4.87125 9.86569 5.76186 10.0458C6.83347 10.3367 7.90915 10.6071 8.98722 10.8727C8.95246 12.0199 8.88791 13.1708 8.68864 14.3027C8.46071 15.4276 8.04875 16.4981 7.61674 17.6207C7.42218 18.1263 7.22356 18.6425 7.03585 19.1789C6.65865 20.2506 7.30477 21.535 8.52233 21.7265C9.43975 21.8709 10.2989 21.3052 10.5865 20.4694L10.5875 20.4666L11.9958 16.3195L13.4044 20.4674L13.4054 20.4702C13.6929 21.306 14.5521 21.8717 15.4695 21.7273C16.6871 21.5358 17.3332 20.2514 16.956 19.1798C16.7683 18.6434 16.5697 18.1272 16.3752 17.6217L16.3751 17.6216L16.3751 17.6215C15.9431 16.4989 15.5311 15.4284 15.3032 14.3036C15.1039 13.1716 15.0394 12.0207 15.0046 10.8735C16.0827 10.6079 17.1584 10.3375 18.23 10.0466C19.1206 9.8665 19.7325 9.05868 19.742 8.1925Z" fill="#23262A"/>
</svg>
