<svg width="24" height="24" viewBox="0 0 24 24" fill="none" xmlns="http://www.w3.org/2000/svg">
<path fill-rule="evenodd" clip-rule="evenodd" d="M10.75 5C10.75 4.30964 11.3096 3.75 12 3.75C12.6904 3.75 13.25 4.30964 13.25 5C13.25 5.69036 12.6904 6.25 12 6.25C11.3096 6.25 10.75 5.69036 10.75 5ZM12 2.25C10.4812 2.25 9.25 3.48122 9.25 5C9.25 6.51878 10.4812 7.75 12 7.75C13.5188 7.75 14.75 6.51878 14.75 5C14.75 3.48122 13.5188 2.25 12 2.25ZM9.96929 9.91592C10.0048 9.81642 10.0991 9.75 10.2047 9.75H13.7953C13.9009 9.75 13.9952 9.81642 14.0307 9.91592L15.9358 15.25H13.5C13.0858 15.25 12.75 15.5858 12.75 16V21C12.75 21.4142 13.0858 21.75 13.5 21.75C13.9142 21.75 14.25 21.4142 14.25 21V16.75H17C17.2439 16.75 17.4726 16.6314 17.6131 16.432C17.7536 16.2327 17.7883 15.9774 17.7063 15.7477L15.4433 9.41141C15.1946 8.71492 14.5349 8.25 13.7953 8.25H10.2047C9.46515 8.25 8.80542 8.71492 8.55668 9.41141L6.2937 15.7477C6.21167 15.9774 6.24645 16.2327 6.38694 16.432C6.52744 16.6314 6.75611 16.75 7 16.75H9.75V21C9.75 21.4142 10.0858 21.75 10.5 21.75C10.9142 21.75 11.25 21.4142 11.25 21V16C11.25 15.5858 10.9142 15.25 10.5 15.25H8.06426L9.96929 9.91592Z" fill="#23262A"/>
</svg>
