<svg width="24" height="24" viewBox="0 0 24 24" fill="none" xmlns="http://www.w3.org/2000/svg">
<path fill-rule="evenodd" clip-rule="evenodd" d="M10.7499 4.00006C10.7499 3.30971 11.3096 2.75006 11.9999 2.75006C12.6903 2.75006 13.2499 3.30971 13.2499 4.00006C13.2499 4.69042 12.6903 5.25006 11.9999 5.25006C11.3096 5.25006 10.7499 4.69042 10.7499 4.00006ZM11.9999 1.25006C10.4811 1.25006 9.24991 2.48128 9.24991 4.00006C9.24991 5.51884 10.4811 6.75006 11.9999 6.75006C13.5187 6.75006 14.7499 5.51884 14.7499 4.00006C14.7499 2.48128 13.5187 1.25006 11.9999 1.25006ZM6.48768 6.28308C5.26422 6.04526 4.23731 7.05691 4.24978 8.19173C4.25929 9.05791 4.87116 9.86573 5.76177 10.0458C6.81212 10.331 7.87223 10.6106 8.94161 10.8615L8.98713 10.8727L8.98689 10.8803C8.94884 12.0637 8.88587 13.1819 8.68854 14.3028C8.46062 15.4276 8.04866 16.4982 7.61665 17.6208C7.42209 18.1264 7.22347 18.6425 7.03575 19.179C6.65856 20.2507 7.30468 21.535 8.52223 21.7266C9.43966 21.8709 10.2988 21.3052 10.5864 20.4694L10.5874 20.4666L11.9957 16.3196L13.4043 20.4674L13.4053 20.4702C13.6928 21.306 14.552 21.8717 15.4694 21.7274C16.687 21.5358 17.3331 20.2515 16.9559 19.1798C16.7682 18.6434 16.5695 18.1271 16.375 17.6216C15.943 16.499 15.531 15.4284 15.3031 14.3036C15.1058 13.1827 15.0428 12.0645 15.0048 10.8811L15.0045 10.8735L15.05 10.8623C16.1194 10.6114 17.1795 10.3318 18.2299 10.0466C19.1205 9.86653 19.7324 9.05871 19.7419 8.19253C19.7543 7.05771 18.7274 6.04606 17.504 6.28387C16.902 6.40089 16.3482 6.52999 15.8185 6.65346C14.5308 6.95367 13.3855 7.22065 12.0362 7.20005C12.0171 7.19893 11.9979 7.19853 11.9784 7.19888C10.6191 7.22288 9.46819 6.95458 8.17313 6.65267C7.64346 6.52919 7.08968 6.4001 6.48768 6.28308ZM12.7102 13.7587C12.6115 13.4682 12.3522 13.2776 12.065 13.2525C11.7258 13.2189 11.3958 13.4212 11.2815 13.7579L9.168 19.9814L9.16763 19.9825C9.1039 20.166 8.91657 20.2702 8.75537 20.2448C8.64916 20.2281 8.55264 20.162 8.48849 20.0477C8.42244 19.93 8.40982 19.7926 8.45082 19.6766L8.45158 19.6744C8.60601 19.2331 8.78371 18.7707 8.96695 18.2939C9.42003 17.1151 9.9071 15.8478 10.1607 14.5906L10.1641 14.5727C10.382 13.3393 10.4474 12.1314 10.4861 10.9293C10.4964 10.6179 10.4872 10.158 10.1548 9.81205C9.99463 9.64533 9.81096 9.56036 9.67458 9.51083C9.55294 9.46666 9.41739 9.43358 9.31275 9.40803L9.31273 9.40803L9.28811 9.40201C8.23372 9.15472 7.18303 8.87755 6.12809 8.59099C6.10753 8.58541 6.08675 8.5807 6.0658 8.57689C5.90667 8.54793 5.75193 8.3796 5.74969 8.17526C5.74833 8.05203 5.8043 7.93013 5.89973 7.84562C5.99158 7.76428 6.09772 7.73535 6.20147 7.75552C6.68621 7.84975 7.17393 7.96341 7.6688 8.07874L7.66884 8.07874C9.02192 8.39408 10.4286 8.7219 11.9748 8.69913L11.9868 8.69944C13.5448 8.72695 14.9609 8.39692 16.3228 8.07954L16.3228 8.07954C16.8177 7.9642 17.3054 7.85054 17.7902 7.75631C17.8939 7.73615 18.0001 7.76507 18.0919 7.84641C18.1874 7.93092 18.2433 8.05282 18.242 8.17605C18.2397 8.3804 18.085 8.54872 17.9259 8.57768C17.9049 8.5815 17.8841 8.5862 17.8636 8.59179C16.8086 8.87834 15.7579 9.15551 14.7035 9.40281L14.6789 9.40883C14.5743 9.43437 14.4387 9.46745 14.3171 9.51163C14.1807 9.56115 13.997 9.64612 13.8369 9.81284C13.5045 10.1588 13.4953 10.6187 13.5056 10.9301C13.5442 12.1322 13.6096 13.3401 13.8276 14.5735L13.8309 14.5914C14.0846 15.8486 14.5716 17.1159 15.0247 18.2947L15.0247 18.2948C15.208 18.7716 15.3857 19.2339 15.5401 19.6752L15.5408 19.6774C15.5818 19.7934 15.5692 19.9308 15.5032 20.0485C15.439 20.1628 15.3425 20.2289 15.2363 20.2456C15.0751 20.271 14.8878 20.1668 14.824 19.9833L14.8237 19.9822L12.7102 13.7587Z" fill="#23262A"/>
</svg>
