<svg width="24" height="24" viewBox="0 0 24 24" fill="none" xmlns="http://www.w3.org/2000/svg">
<path fill-rule="evenodd" clip-rule="evenodd" d="M12 3.75C11.3096 3.75 10.75 4.30964 10.75 5C10.75 5.69036 11.3096 6.25 12 6.25C12.6904 6.25 13.25 5.69036 13.25 5C13.25 4.30964 12.6904 3.75 12 3.75ZM9.25 5C9.25 3.48122 10.4812 2.25 12 2.25C13.5188 2.25 14.75 3.48122 14.75 5C14.75 6.51878 13.5188 7.75 12 7.75C10.4812 7.75 9.25 6.51878 9.25 5ZM12.75 9C12.75 8.58579 13.0858 8.25 13.5 8.25H14.847C15.912 8.25 16.73 9.19323 16.5794 10.2475L15.7425 16.1061C15.6897 16.4756 15.3733 16.75 15 16.75H14.25V21C14.25 21.4142 13.9142 21.75 13.5 21.75C13.0858 21.75 12.75 21.4142 12.75 21V16C12.75 15.5858 13.0858 15.25 13.5 15.25H14.3495L15.0945 10.0354C15.116 9.88475 14.9991 9.75 14.847 9.75H13.5C13.0858 9.75 12.75 9.41421 12.75 9ZM9.96929 9.91592C10.0048 9.81642 10.0991 9.75 10.2047 9.75H10.5C10.9142 9.75 11.25 9.41421 11.25 9C11.25 8.58579 10.9142 8.25 10.5 8.25H10.2047C9.46515 8.25 8.80542 8.71492 8.55668 9.41141L6.2937 15.7477C6.21167 15.9774 6.24645 16.2327 6.38694 16.432C6.52744 16.6314 6.75611 16.75 7 16.75H9.75V21C9.75 21.4142 10.0858 21.75 10.5 21.75C10.9142 21.75 11.25 21.4142 11.25 21V16C11.25 15.5858 10.9142 15.25 10.5 15.25H8.06426L9.96929 9.91592Z" fill="#262626"/>
</svg>
