<svg width="24" height="24" viewBox="0 0 24 24" fill="none" xmlns="http://www.w3.org/2000/svg">
<path fill-rule="evenodd" clip-rule="evenodd" d="M9.8 5C9.8 3.48122 11.0312 2.25 12.55 2.25C14.0688 2.25 15.3 3.48122 15.3 5C15.3 6.51878 14.0688 7.75 12.55 7.75C11.0312 7.75 9.8 6.51878 9.8 5ZM13.3 9C13.3 8.58579 13.6358 8.25 14.05 8.25H16.05C16.4642 8.25 16.8 8.58579 16.8 9V16C16.8 16.4142 16.4642 16.75 16.05 16.75H14.8V21C14.8 21.4142 14.4642 21.75 14.05 21.75C13.6358 21.75 13.3 21.4142 13.3 21V9ZM9.10668 9.41141C9.35542 8.71492 10.0152 8.25 10.7547 8.25H11.05C11.4642 8.25 11.8 8.58579 11.8 9L11.8 21C11.8 21.4142 11.4642 21.75 11.05 21.75C10.6358 21.75 10.3 21.4142 10.3 21V16.75H7.55001C7.30611 16.75 7.07744 16.6314 6.93695 16.432C6.79645 16.2327 6.76167 15.9774 6.8437 15.7477L9.10668 9.41141Z" fill="#23262A"/>
</svg>
