<svg width="24" height="24" viewBox="0 0 24 24" fill="none" xmlns="http://www.w3.org/2000/svg">
<path fill-rule="evenodd" clip-rule="evenodd" d="M12 2.25C10.4812 2.25 9.25 3.48122 9.25 5C9.25 6.51878 10.4812 7.75 12 7.75C13.5188 7.75 14.75 6.51878 14.75 5C14.75 3.48122 13.5188 2.25 12 2.25ZM7.42075 10.2475C7.27014 9.19323 8.0882 8.25 9.15316 8.25H14.8471C15.9121 8.25 16.7302 9.19323 16.5796 10.2475L15.7426 16.1061C15.6898 16.4756 15.3734 16.75 15.0002 16.75H14.25V21C14.25 21.4142 13.9142 21.75 13.5 21.75C13.0858 21.75 12.75 21.4142 12.75 21V16.75H11.25V21C11.25 21.4142 10.9142 21.75 10.5 21.75C10.0858 21.75 9.75 21.4142 9.75 21V16.75H9.00015C8.62691 16.75 8.31047 16.4756 8.25769 16.1061L7.42075 10.2475Z" fill="#23262A"/>
</svg>
