<svg width="24" height="24" viewBox="0 0 24 24" fill="none" xmlns="http://www.w3.org/2000/svg">
<path fill-rule="evenodd" clip-rule="evenodd" d="M9.25 5C9.25 3.48122 10.4812 2.25 12 2.25C13.5188 2.25 14.75 3.48122 14.75 5C14.75 6.51878 13.5188 7.75 12 7.75C10.4812 7.75 9.25 6.51878 9.25 5ZM13.5 8.25C13.3011 8.25 13.1103 8.32902 12.9697 8.46967C12.829 8.61032 12.75 8.80109 12.75 9V21C12.75 21.4142 13.0858 21.75 13.5 21.75C13.9142 21.75 14.25 21.4142 14.25 21V16.75H15C15.3732 16.75 15.6897 16.4756 15.7425 16.1061L16.5794 10.2475C16.73 9.19323 15.912 8.25 14.847 8.25H13.5ZM8.55668 9.41141C8.80542 8.71492 9.46515 8.25 10.2047 8.25H10.5C10.9142 8.25 11.25 8.58579 11.25 9L11.25 21C11.25 21.4142 10.9142 21.75 10.5 21.75C10.0858 21.75 9.75 21.4142 9.75 21V16.75H7C6.75611 16.75 6.52744 16.6314 6.38694 16.432C6.24645 16.2327 6.21167 15.9774 6.2937 15.7477L8.55668 9.41141Z" fill="#23262A"/>
</svg>
