<svg width="24" height="24" viewBox="0 0 24 24" fill="none" xmlns="http://www.w3.org/2000/svg">
<path fill-rule="evenodd" clip-rule="evenodd" d="M10.7499 4.00006C10.7499 3.30971 11.3096 2.75006 11.9999 2.75006C12.6903 2.75006 13.2499 3.30971 13.2499 4.00006C13.2499 4.69042 12.6903 5.25006 11.9999 5.25006C11.3096 5.25006 10.7499 4.69042 10.7499 4.00006ZM11.9999 1.25006C10.4811 1.25006 9.24991 2.48128 9.24991 4.00006C9.24991 5.51884 10.4811 6.75006 11.9999 6.75006C13.5187 6.75006 14.7499 5.51884 14.7499 4.00006C14.7499 2.48128 13.5187 1.25006 11.9999 1.25006ZM6.48769 6.2831C5.26422 6.04528 4.23731 7.05693 4.24978 8.19175C4.25929 9.05793 4.87116 9.86575 5.76177 10.0459C6.81212 10.331 7.87223 10.6106 8.94161 10.8615L8.98713 10.8727L8.98689 10.8804L8.98686 10.8811C8.94882 12.0645 8.88587 13.1819 8.68854 14.3028C8.46062 15.4276 8.04866 16.4982 7.61665 17.6208C7.42209 18.1264 7.22347 18.6426 7.03575 19.179C6.65856 20.2507 7.30468 21.535 8.52223 21.7266C9.43966 21.8709 10.2988 21.3052 10.5864 20.4695L10.5874 20.4666L11.9957 16.3196L13.4043 20.4674L13.4053 20.4703C13.6928 21.3061 14.552 21.8717 15.4694 21.7274C16.687 21.5358 17.3331 20.2515 16.9559 19.1798C16.7682 18.6434 16.5696 18.1273 16.375 17.6217L16.375 17.6216C15.943 16.499 15.531 15.4284 15.3031 14.3036C15.1058 13.1827 15.0428 12.0653 15.0048 10.8819L15.0048 10.8812L15.0045 10.8735L15.0501 10.8623C16.1194 10.6114 17.1795 10.3318 18.2299 10.0467C19.1205 9.86656 19.7324 9.05874 19.7419 8.19256C19.7544 7.05774 18.7274 6.04609 17.504 6.28391C16.902 6.40093 16.3482 6.53002 15.8185 6.6535L15.8185 6.6535C14.5309 6.95367 13.3858 7.22063 12.0367 7.20009C12.0174 7.19896 11.998 7.19855 11.9784 7.19889C10.6191 7.2229 9.46819 6.95459 8.17314 6.65269L8.17313 6.65269L8.1731 6.65268L8.17307 6.65267C7.64342 6.5292 7.08966 6.40011 6.48769 6.2831ZM12.7102 13.7587C12.6117 13.4687 12.3532 13.2784 12.0666 13.2527C11.7268 13.2182 11.396 13.4207 11.2815 13.7579L9.168 19.9814L9.16763 19.9825C9.1039 20.166 8.91657 20.2702 8.75537 20.2448C8.64916 20.2281 8.55264 20.162 8.48849 20.0477C8.42244 19.93 8.40982 19.7926 8.45082 19.6766L8.45158 19.6744C8.606 19.2331 8.78367 18.7708 8.96691 18.2941L8.96695 18.2939C9.42003 17.1151 9.9071 15.8478 10.1607 14.5906L10.1641 14.5728C10.382 13.3393 10.4474 12.1315 10.4861 10.9293C10.4964 10.618 10.4872 10.1581 10.1548 9.81206C9.99463 9.64534 9.81096 9.56038 9.67458 9.51085C9.55293 9.46667 9.41738 9.43359 9.31273 9.40805L9.295 9.40372L9.28811 9.40203L9.2881 9.40206C8.23371 9.15477 7.18303 8.87756 6.12809 8.59101C6.10753 8.58542 6.08675 8.58072 6.0658 8.57691C5.90667 8.54794 5.75193 8.37962 5.74969 8.17527C5.74833 8.05205 5.8043 7.93014 5.89973 7.84564C5.99158 7.76429 6.09772 7.73537 6.20147 7.75554C6.68621 7.84976 7.17392 7.96342 7.6688 8.07875L7.66883 8.07876C9.0218 8.39407 10.4283 8.72186 11.9744 8.69915L11.9868 8.69947C13.5448 8.72699 14.961 8.39695 16.3228 8.07957L16.3229 8.07957C16.8177 7.96424 17.3054 7.85057 17.7902 7.75635C17.8939 7.73618 18.0001 7.76511 18.0919 7.84645C18.1874 7.93096 18.2433 8.05286 18.242 8.17608C18.2397 8.38043 18.085 8.54875 17.9259 8.57772C17.9049 8.58153 17.8841 8.58624 17.8636 8.59182C16.8086 8.87837 15.758 9.15558 14.7036 9.40288L14.7036 9.40284L14.6967 9.40453L14.6789 9.40886C14.5743 9.4344 14.4387 9.46749 14.3171 9.51166C14.1807 9.56119 13.997 9.64616 13.8369 9.81287C13.5045 10.1589 13.4953 10.6188 13.5056 10.9301C13.5442 12.1323 13.6097 13.3401 13.8276 14.5736L13.831 14.5914C14.0846 15.8486 14.5716 17.1159 15.0247 18.2948L15.0247 18.2949C15.208 18.7716 15.3857 19.2339 15.5401 19.6752L15.5408 19.6774C15.5818 19.7934 15.5692 19.9309 15.5032 20.0485C15.439 20.1628 15.3425 20.2289 15.2363 20.2456C15.0751 20.271 14.8878 20.1668 14.824 19.9833L14.8237 19.9822L12.7102 13.7587Z" fill="#23262A"/>
</svg>
