<svg width="24" height="24" viewBox="0 0 24 24" fill="none" xmlns="http://www.w3.org/2000/svg">
<path fill-rule="evenodd" clip-rule="evenodd" d="M10.25 9.5C10.25 8.5335 11.0335 7.75 12 7.75C12.9665 7.75 13.75 8.5335 13.75 9.5C13.75 10.4665 12.9665 11.25 12 11.25C11.0335 11.25 10.25 10.4665 10.25 9.5ZM12 6.25C10.2051 6.25 8.75 7.70507 8.75 9.5C8.75 11.2949 10.2051 12.75 12 12.75C13.7949 12.75 15.25 11.2949 15.25 9.5C15.25 7.70507 13.7949 6.25 12 6.25ZM9.5 13.25C9.08579 13.25 8.75 13.5858 8.75 14V18C8.75 18.4142 9.08579 18.75 9.5 18.75H10.25V21C10.25 21.4142 10.5858 21.75 11 21.75C11.4142 21.75 11.75 21.4142 11.75 21V18C11.75 17.5858 11.4142 17.25 11 17.25H10.25V14.75H13.75V17.25H13C12.5858 17.25 12.25 17.5858 12.25 18V21C12.25 21.4142 12.5858 21.75 13 21.75C13.4142 21.75 13.75 21.4142 13.75 21V18.75H14.5C14.9142 18.75 15.25 18.4142 15.25 18V14C15.25 13.5858 14.9142 13.25 14.5 13.25H9.5Z" fill="#23262A"/>
</svg>
