<svg width="24" height="24" viewBox="0 0 24 24" fill="none" xmlns="http://www.w3.org/2000/svg">
<path fill-rule="evenodd" clip-rule="evenodd" d="M9.25 5C9.25 3.48122 10.4812 2.25 12 2.25C13.5188 2.25 14.75 3.48122 14.75 5C14.75 6.51878 13.5188 7.75 12 7.75C10.4812 7.75 9.25 6.51878 9.25 5ZM14.25 16.75H15C15.3732 16.75 15.6897 16.4756 15.7425 16.1061L16.5794 10.2475C16.73 9.19323 15.912 8.25 14.847 8.25H13.5C13.3011 8.25 13.1103 8.32902 12.9697 8.46967C12.829 8.61032 12.75 8.80109 12.75 9L12.75 15.996L12.75 16V21C12.75 21.4142 13.0858 21.75 13.5 21.75C13.9142 21.75 14.25 21.4142 14.25 21V16.75ZM11.25 16L11.25 9C11.25 8.58579 10.9142 8.25 10.5 8.25H10.2047C9.46515 8.25 8.80542 8.71492 8.55668 9.41141L6.2937 15.7477C6.21167 15.9774 6.24645 16.2327 6.38694 16.432C6.52744 16.6314 6.75611 16.75 7 16.75H9.75V21C9.75 21.4142 10.0858 21.75 10.5 21.75C10.9142 21.75 11.25 21.4142 11.25 21V16.0027" fill="#23262A"/>
</svg>
