<svg width="24" height="24" viewBox="0 0 24 24" fill="none" xmlns="http://www.w3.org/2000/svg">
<path fill-rule="evenodd" clip-rule="evenodd" d="M12.55 3.75C11.8596 3.75 11.3 4.30964 11.3 5C11.3 5.69036 11.8596 6.25 12.55 6.25C13.2404 6.25 13.8 5.69036 13.8 5C13.8 4.30964 13.2404 3.75 12.55 3.75ZM9.8 5C9.8 3.48122 11.0312 2.25 12.55 2.25C14.0688 2.25 15.3 3.48122 15.3 5C15.3 6.51878 14.0688 7.75 12.55 7.75C11.0312 7.75 9.8 6.51878 9.8 5ZM13.3 9C13.3 8.58579 13.6358 8.25 14.05 8.25H16.05C16.4642 8.25 16.8 8.58579 16.8 9V16.1061C16.8 16.5203 16.4642 16.8561 16.05 16.8561H14.8V21C14.8 21.4142 14.4642 21.75 14.05 21.75C13.6358 21.75 13.3 21.4142 13.3 21V16.1061C13.3 15.6919 13.6358 15.3561 14.05 15.3561H15.3V9.75H14.05C13.6358 9.75 13.3 9.41421 13.3 9ZM10.5193 9.91592C10.5548 9.81642 10.6491 9.75 10.7547 9.75H11.05C11.4642 9.75 11.8 9.41421 11.8 9C11.8 8.58579 11.4642 8.25 11.05 8.25H10.7547C10.0152 8.25 9.35542 8.71492 9.10668 9.41141L6.8437 15.7477C6.76167 15.9774 6.79645 16.2327 6.93695 16.432C7.07744 16.6314 7.30611 16.75 7.55001 16.75H10.3V21C10.3 21.4142 10.6358 21.75 11.05 21.75C11.4642 21.75 11.8 21.4142 11.8 21V16C11.8 15.5858 11.4642 15.25 11.05 15.25H8.61426L10.5193 9.91592Z" fill="#23262A"/>
</svg>
