<svg width="24" height="24" viewBox="0 0 24 24" fill="none" xmlns="http://www.w3.org/2000/svg">
<path fill-rule="evenodd" clip-rule="evenodd" d="M12 2.25C10.4812 2.25 9.25 3.48122 9.25 5C9.25 6.51878 10.4812 7.75 12 7.75C13.5188 7.75 14.75 6.51878 14.75 5C14.75 3.48122 13.5188 2.25 12 2.25ZM8.55668 9.41141C8.80542 8.71492 9.46515 8.25 10.2047 8.25H13.7953C14.5349 8.25 15.1946 8.71492 15.4433 9.41141L17.7063 15.7477C17.7883 15.9774 17.7536 16.2327 17.6131 16.432C17.4726 16.6314 17.2439 16.75 17 16.75H14.25V21C14.25 21.4142 13.9142 21.75 13.5 21.75C13.0858 21.75 12.75 21.4142 12.75 21V16.75H11.25V21C11.25 21.4142 10.9142 21.75 10.5 21.75C10.0858 21.75 9.75 21.4142 9.75 21V16.75H7C6.75611 16.75 6.52744 16.6314 6.38694 16.432C6.24645 16.2327 6.21167 15.9774 6.2937 15.7477L8.55668 9.41141Z" fill="#23262A"/>
</svg>
