<svg width="24" height="24" viewBox="0 0 24 24" fill="none" xmlns="http://www.w3.org/2000/svg">
<path d="M7.0061 16.193H7.6991C7.9231 16.193 8.10043 16.1323 8.2311 16.011C8.36644 15.885 8.4341 15.7193 8.4341 15.514C8.4341 15.3087 8.36644 15.1453 8.2311 15.024C8.10043 14.898 7.9231 14.835 7.6991 14.835H7.0061V16.193Z" fill="#23262A"/>
<path fill-rule="evenodd" clip-rule="evenodd" d="M5.25 4.5C5.25 3.80964 5.80964 3.25 6.5 3.25H14C14.1989 3.25 14.3897 3.32902 14.5303 3.46967L18.5303 7.46967C18.671 7.61032 18.75 7.80109 18.75 8V12.25H21C21.4142 12.25 21.75 12.5858 21.75 13V20C21.75 20.4142 21.4142 20.75 21 20.75H3C2.58579 20.75 2.25 20.4142 2.25 20V13C2.25 12.5858 2.58579 12.25 3 12.25H5.25V4.5ZM6.75 12.25H17.25V8.75H14.5C13.8096 8.75 13.25 8.19036 13.25 7.5V4.75H6.75V12.25ZM14.75 5.81066L16.1893 7.25H14.75V5.81066ZM5.9561 19V13.89H7.6991C8.05843 13.89 8.3711 13.9577 8.6371 14.093C8.90777 14.2283 9.11544 14.4173 9.2601 14.66C9.40944 14.9027 9.4841 15.1873 9.4841 15.514C9.4841 15.836 9.40944 16.1207 9.2601 16.368C9.11077 16.6107 8.9031 16.7997 8.6371 16.935C8.3711 17.0703 8.05843 17.138 7.6991 17.138H7.0061V19H5.9561ZM10.3214 19V13.89H11.5464L12.8694 17.845C12.8554 17.6723 12.839 17.474 12.8204 17.25C12.8017 17.0213 12.7854 16.795 12.7714 16.571C12.762 16.3423 12.7574 16.1487 12.7574 15.99V13.89H13.6814V19H12.4564L11.1474 15.045C11.1614 15.1943 11.1754 15.3717 11.1894 15.577C11.2034 15.7823 11.215 15.99 11.2244 16.2C11.2384 16.41 11.2454 16.5967 11.2454 16.76V19H10.3214ZM16.4366 19.07C16.096 19.07 15.7973 19.007 15.5406 18.881C15.284 18.7503 15.0833 18.5707 14.9386 18.342C14.7986 18.1087 14.7286 17.838 14.7286 17.53V15.36C14.7286 15.0473 14.7986 14.7767 14.9386 14.548C15.0833 14.3193 15.284 14.142 15.5406 14.016C15.7973 13.8853 16.096 13.82 16.4366 13.82C16.782 13.82 17.0806 13.8853 17.3326 14.016C17.5893 14.142 17.7876 14.3193 17.9276 14.548C18.0723 14.7767 18.1446 15.0473 18.1446 15.36H17.0946C17.0946 15.1547 17.0363 14.9983 16.9196 14.891C16.8076 14.7837 16.6466 14.73 16.4366 14.73C16.2266 14.73 16.0633 14.7837 15.9466 14.891C15.8346 14.9983 15.7786 15.1547 15.7786 15.36V17.53C15.7786 17.7307 15.8346 17.887 15.9466 17.999C16.0633 18.1063 16.2266 18.16 16.4366 18.16C16.6466 18.16 16.8076 18.1063 16.9196 17.999C17.0363 17.887 17.0946 17.7307 17.0946 17.53V17.089H16.3386V16.2H18.1446V17.53C18.1446 17.838 18.0723 18.1087 17.9276 18.342C17.7876 18.5707 17.5893 18.7503 17.3326 18.881C17.0806 19.007 16.782 19.07 16.4366 19.07Z" fill="#23262A"/>
</svg>
