<svg width="24" height="24" viewBox="0 0 24 24" fill="none" xmlns="http://www.w3.org/2000/svg">
<path fill-rule="evenodd" clip-rule="evenodd" d="M13 3.25C13.1381 3.25 13.25 3.36193 13.25 3.5V7.5C13.25 8.19036 13.8096 8.75 14.5 8.75H18.5C18.6381 8.75 18.75 8.86193 18.75 9V13C18.75 13.1381 18.6381 13.25 18.5 13.25H12.1642C11.9415 13.25 11.8299 12.9807 11.9874 12.8232L13.5303 11.2803C13.8232 10.9874 13.8232 10.5126 13.5303 10.2197C13.2374 9.92678 12.7626 9.92678 12.4697 10.2197L9.21967 13.4697C8.92678 13.7626 8.92678 14.2374 9.21967 14.5303L12.4697 17.7803C12.7626 18.0732 13.2374 18.0732 13.5303 17.7803C13.8232 17.4874 13.8232 17.0126 13.5303 16.7197L11.9874 15.1768C11.8299 15.0193 11.9415 14.75 12.1642 14.75H18.5C18.6381 14.75 18.75 14.8619 18.75 15V19.5C18.75 20.1904 18.1904 20.75 17.5 20.75H6.5C5.80964 20.75 5.25 20.1904 5.25 19.5V4.5C5.25 3.80964 5.80964 3.25 6.5 3.25H13ZM15.1768 4.11612C15.0193 3.95863 14.75 4.07017 14.75 4.29289V7C14.75 7.13807 14.8619 7.25 15 7.25H17.7071C17.9298 7.25 18.0414 6.98072 17.8839 6.82322L15.1768 4.11612Z" fill="#262626"/>
</svg>
