<svg width="24" height="24" viewBox="0 0 24 24" fill="none" xmlns="http://www.w3.org/2000/svg">
<path fill-rule="evenodd" clip-rule="evenodd" d="M13.25 7.5V3.5C13.25 3.36193 13.1381 3.25 13 3.25H6.5C5.80964 3.25 5.25 3.80964 5.25 4.5V19.5C5.25 20.1904 5.80964 20.75 6.5 20.75H17.5C18.1904 20.75 18.75 20.1904 18.75 19.5V9C18.75 8.86193 18.6381 8.75 18.5 8.75H14.5C13.8096 8.75 13.25 8.19036 13.25 7.5ZM15 7.25C14.8619 7.25 14.75 7.13807 14.75 7V4.29289C14.75 4.07017 15.0193 3.95863 15.1768 4.11612L17.8839 6.82322C18.0414 6.98071 17.9298 7.25 17.7071 7.25H15ZM14.0303 13.0303C14.3232 12.7374 14.3232 12.2626 14.0303 11.9697C13.7374 11.6768 13.2626 11.6768 12.9697 11.9697L12.1768 12.7626C12.0791 12.8602 11.9209 12.8602 11.8232 12.7626L11.0303 11.9697C10.7374 11.6768 10.2626 11.6768 9.96967 11.9697C9.67678 12.2626 9.67678 12.7374 9.96967 13.0303L10.7626 13.8232C10.8602 13.9209 10.8602 14.0791 10.7626 14.1768L9.96967 14.9697C9.67678 15.2626 9.67678 15.7374 9.96967 16.0303C10.2626 16.3232 10.7374 16.3232 11.0303 16.0303L11.8232 15.2374C11.9209 15.1398 12.0791 15.1398 12.1768 15.2374L12.9697 16.0303C13.2626 16.3232 13.7374 16.3232 14.0303 16.0303C14.3232 15.7374 14.3232 15.2626 14.0303 14.9697L13.2374 14.1768C13.1398 14.0791 13.1398 13.9209 13.2374 13.8232L14.0303 13.0303Z" fill="#23262A"/>
</svg>
