<svg width="24" height="24" viewBox="0 0 24 24" fill="none" xmlns="http://www.w3.org/2000/svg">
<path fill-rule="evenodd" clip-rule="evenodd" d="M5.25 4.5C5.25 3.80964 5.80964 3.25 6.5 3.25H14C14.1989 3.25 14.3897 3.32902 14.5303 3.46967L18.5303 7.46967C18.671 7.61032 18.75 7.80109 18.75 8V10.25H21C21.4142 10.25 21.75 10.5858 21.75 11V20C21.75 20.4142 21.4142 20.75 21 20.75H3C2.58579 20.75 2.25 20.4142 2.25 20V11C2.25 10.5858 2.58579 10.25 3 10.25H5.25V4.5ZM6.75 10.25H17.25V8.75H14.5C13.8096 8.75 13.25 8.19036 13.25 7.5V4.75H6.75V10.25ZM14.75 5.81066L16.1893 7.25H14.75V5.81066ZM6.93945 13.1201V17.5001H7.83945V15.9041H8.43345C8.74145 15.9041 9.00945 15.8461 9.23745 15.7301C9.46545 15.6141 9.64345 15.4521 9.77145 15.2441C9.89945 15.0321 9.96345 14.7881 9.96345 14.5121C9.96345 14.2321 9.89945 13.9881 9.77145 13.7801C9.64745 13.5721 9.46945 13.4101 9.23745 13.2941C9.00945 13.1781 8.74145 13.1201 8.43345 13.1201H6.93945ZM8.43345 15.0941H7.83945V13.9301H8.43345C8.62545 13.9301 8.77745 13.9841 8.88945 14.0921C9.00545 14.1961 9.06345 14.3361 9.06345 14.5121C9.06345 14.6881 9.00545 14.8301 8.88945 14.9381C8.77745 15.0421 8.62545 15.0941 8.43345 15.0941ZM10.5791 13.1201V17.5001H12.0011C12.3051 17.5001 12.5691 17.4421 12.7931 17.3261C13.0211 17.2061 13.1971 17.0401 13.3211 16.8281C13.4491 16.6161 13.5131 16.3701 13.5131 16.0901V14.5241C13.5131 14.2401 13.4491 13.9941 13.3211 13.7861C13.1971 13.5741 13.0211 13.4101 12.7931 13.2941C12.5691 13.1781 12.3051 13.1201 12.0011 13.1201H10.5791ZM12.0011 16.6601H11.4791V13.9601H12.0011C12.1851 13.9601 12.3331 14.0121 12.4451 14.1161C12.5571 14.2201 12.6131 14.3561 12.6131 14.5241V16.0901C12.6131 16.2621 12.5571 16.4001 12.4451 16.5041C12.3331 16.6081 12.1851 16.6601 12.0011 16.6601ZM14.2788 17.5001V13.1201H17.0988V13.9601H15.1668V14.9321H16.9428V15.7721H15.1788V17.5001H14.2788Z" fill="#262626"/>
</svg>
