<svg width="24" height="24" viewBox="0 0 24 24" fill="none" xmlns="http://www.w3.org/2000/svg">
<path fill-rule="evenodd" clip-rule="evenodd" d="M6.5 3.25C5.80964 3.25 5.25 3.80964 5.25 4.5V10.25H3C2.58579 10.25 2.25 10.5858 2.25 11V20C2.25 20.4142 2.58579 20.75 3 20.75H21C21.4142 20.75 21.75 20.4142 21.75 20V11C21.75 10.5858 21.4142 10.25 21 10.25H18.75V8C18.75 7.80109 18.671 7.61032 18.5303 7.46967L14.5303 3.46967C14.3897 3.32902 14.1989 3.25 14 3.25H6.5ZM17.25 10.25H6.75V4.75H13.25V7.5C13.25 8.19036 13.8096 8.75 14.5 8.75H17.25V10.25ZM16.1893 7.25L14.75 5.81066V7.25H16.1893ZM3.75 11.75V19.25H20.25V11.75H3.75ZM8.3683 17.5601C8.0763 17.5601 7.8203 17.5061 7.6003 17.3981C7.3803 17.2861 7.2083 17.1321 7.0843 16.9361C6.9643 16.7361 6.9043 16.5041 6.9043 16.2401V14.3801C6.9043 14.1121 6.9643 13.8801 7.0843 13.6841C7.2083 13.4881 7.3803 13.3361 7.6003 13.2281C7.8203 13.1161 8.0763 13.0601 8.3683 13.0601C8.6643 13.0601 8.9203 13.1161 9.1363 13.2281C9.3563 13.3361 9.5263 13.4881 9.6463 13.6841C9.7703 13.8801 9.8323 14.1121 9.8323 14.3801H8.9323C8.9323 14.2041 8.8823 14.0701 8.7823 13.9781C8.6863 13.8861 8.5483 13.8401 8.3683 13.8401C8.1883 13.8401 8.0483 13.8861 7.9483 13.9781C7.8523 14.0701 7.8043 14.2041 7.8043 14.3801V16.2401C7.8043 16.4121 7.8523 16.5461 7.9483 16.6421C8.0483 16.7341 8.1883 16.7801 8.3683 16.7801C8.5483 16.7801 8.6863 16.7341 8.7823 16.6421C8.8823 16.5461 8.9323 16.4121 8.9323 16.2401H9.8323C9.8323 16.5041 9.7703 16.7361 9.6463 16.9361C9.5263 17.1321 9.3563 17.2861 9.1363 17.3981C8.9203 17.5061 8.6643 17.5601 8.3683 17.5601ZM12.002 17.5601C11.694 17.5601 11.426 17.5081 11.198 17.4041C10.97 17.3001 10.794 17.1541 10.67 16.9661C10.546 16.7781 10.484 16.5561 10.484 16.3001H11.384C11.384 16.4481 11.44 16.5661 11.552 16.6541C11.668 16.7381 11.824 16.7801 12.02 16.7801C12.208 16.7801 12.354 16.7381 12.458 16.6541C12.566 16.5701 12.62 16.4541 12.62 16.3061C12.62 16.1781 12.58 16.0681 12.5 15.9761C12.42 15.8841 12.308 15.8221 12.164 15.7901L11.72 15.6881C11.348 15.6001 11.058 15.4381 10.85 15.2021C10.646 14.9621 10.544 14.6701 10.544 14.3261C10.544 14.0701 10.602 13.8481 10.718 13.6601C10.838 13.4681 11.006 13.3201 11.222 13.2161C11.438 13.1121 11.694 13.0601 11.99 13.0601C12.438 13.0601 12.792 13.1721 13.052 13.3961C13.316 13.6161 13.448 13.9141 13.448 14.2901H12.548C12.548 14.1501 12.498 14.0401 12.398 13.9601C12.302 13.8801 12.162 13.8401 11.978 13.8401C11.806 13.8401 11.674 13.8801 11.582 13.9601C11.49 14.0361 11.444 14.1461 11.444 14.2901C11.444 14.4181 11.48 14.5281 11.552 14.6201C11.628 14.7081 11.734 14.7681 11.87 14.8001L12.338 14.9081C12.726 14.9961 13.02 15.1561 13.22 15.3881C13.42 15.6161 13.52 15.9081 13.52 16.2641C13.52 16.5201 13.456 16.7461 13.328 16.9421C13.204 17.1381 13.028 17.2901 12.8 17.3981C12.576 17.5061 12.31 17.5601 12.002 17.5601ZM14.0096 13.1201L15.0956 17.5001H16.2356L17.3096 13.1201H16.4036L15.8156 15.8801C15.7956 15.9801 15.7736 16.1041 15.7496 16.2521C15.7256 16.4001 15.7056 16.5261 15.6896 16.6301C15.6736 16.5261 15.6496 16.4001 15.6176 16.2521C15.5896 16.1041 15.5656 15.9821 15.5456 15.8861L14.9396 13.1201H14.0096Z" fill="#262626"/>
</svg>
