<svg width="24" height="24" viewBox="0 0 24 24" fill="none" xmlns="http://www.w3.org/2000/svg">
<path fill-rule="evenodd" clip-rule="evenodd" d="M13 3.25C13.1381 3.25 13.25 3.36193 13.25 3.5V7.5C13.25 8.19036 13.8096 8.75 14.5 8.75H18.5C18.6381 8.75 18.75 8.86193 18.75 9V11.25H20C20.4142 11.25 20.75 11.5858 20.75 12C20.75 12.4142 20.4142 12.75 20 12.75H17.5H6.5H4C3.58579 12.75 3.25 12.4142 3.25 12C3.25 11.5858 3.58579 11.25 4 11.25H5.25V4.5C5.25 3.80964 5.80964 3.25 6.5 3.25H13ZM15.1768 4.11612C15.0193 3.95863 14.75 4.07017 14.75 4.29289V7C14.75 7.13807 14.8619 7.25 15 7.25H17.7071C17.9298 7.25 18.0414 6.98072 17.8839 6.82322L15.1768 4.11612ZM6 14.25C6.41421 14.25 6.75 14.5858 6.75 15V20C6.75 20.4142 6.41421 20.75 6 20.75C5.58579 20.75 5.25 20.4142 5.25 20V15C5.25 14.5858 5.58579 14.25 6 14.25ZM9.75 15C9.75 14.5858 9.41421 14.25 9 14.25C8.58579 14.25 8.25 14.5858 8.25 15V20C8.25 20.4142 8.58579 20.75 9 20.75C9.41421 20.75 9.75 20.4142 9.75 20V15ZM12 14.25C12.4142 14.25 12.75 14.5858 12.75 15V20C12.75 20.4142 12.4142 20.75 12 20.75C11.5858 20.75 11.25 20.4142 11.25 20V15C11.25 14.5858 11.5858 14.25 12 14.25ZM15.75 15C15.75 14.5858 15.4142 14.25 15 14.25C14.5858 14.25 14.25 14.5858 14.25 15V20C14.25 20.4142 14.5858 20.75 15 20.75C15.4142 20.75 15.75 20.4142 15.75 20V15ZM18 14.25C18.4142 14.25 18.75 14.5858 18.75 15V20C18.75 20.4142 18.4142 20.75 18 20.75C17.5858 20.75 17.25 20.4142 17.25 20V15C17.25 14.5858 17.5858 14.25 18 14.25Z" fill="#23262A"/>
</svg>
