<svg width="24" height="24" viewBox="0 0 24 24" fill="none" xmlns="http://www.w3.org/2000/svg">
<path fill-rule="evenodd" clip-rule="evenodd" d="M5.25 4.5C5.25 3.80964 5.80964 3.25 6.5 3.25H14C14.1989 3.25 14.3897 3.32902 14.5303 3.46967L18.5303 7.46967C18.671 7.61032 18.75 7.80109 18.75 8V10.25H21C21.4142 10.25 21.75 10.5858 21.75 11V20C21.75 20.4142 21.4142 20.75 21 20.75H3C2.58579 20.75 2.25 20.4142 2.25 20V11C2.25 10.5858 2.58579 10.25 3 10.25H5.25V4.5ZM6.75 10.25H17.25V8.75H14.5C13.8096 8.75 13.25 8.19036 13.25 7.5V4.75H6.75V10.25ZM14.75 5.81066L16.1893 7.25H14.75V5.81066ZM10.1716 17.5601C9.86364 17.5601 9.59564 17.5081 9.36764 17.4041C9.13964 17.3001 8.96364 17.1541 8.83964 16.9661C8.71564 16.7781 8.65364 16.5561 8.65364 16.3001H9.55364C9.55364 16.4481 9.60964 16.5661 9.72164 16.6541C9.83764 16.7381 9.99364 16.7801 10.1896 16.7801C10.3776 16.7801 10.5236 16.7381 10.6276 16.6541C10.7356 16.5701 10.7896 16.4541 10.7896 16.3061C10.7896 16.1781 10.7496 16.0681 10.6696 15.9761C10.5896 15.8841 10.4776 15.8221 10.3336 15.7901L9.88964 15.6881C9.51764 15.6001 9.22764 15.4381 9.01964 15.2021C8.81564 14.9621 8.71364 14.6701 8.71364 14.3261C8.71364 14.0701 8.77164 13.8481 8.88764 13.6601C9.00764 13.4681 9.17564 13.3201 9.39164 13.2161C9.60764 13.1121 9.86364 13.0601 10.1596 13.0601C10.6076 13.0601 10.9616 13.1721 11.2216 13.3961C11.4856 13.6161 11.6176 13.9141 11.6176 14.2901H10.7176C10.7176 14.1501 10.6676 14.0401 10.5676 13.9601C10.4716 13.8801 10.3316 13.8401 10.1476 13.8401C9.97564 13.8401 9.84364 13.8801 9.75164 13.9601C9.65964 14.0361 9.61364 14.1461 9.61364 14.2901C9.61364 14.4181 9.64964 14.5281 9.72164 14.6201C9.79764 14.7081 9.90364 14.7681 10.0396 14.8001L10.5076 14.9081C10.8956 14.9961 11.1896 15.1561 11.3896 15.3881C11.5896 15.6161 11.6896 15.9081 11.6896 16.2641C11.6896 16.5201 11.6256 16.7461 11.4976 16.9421C11.3736 17.1381 11.1976 17.2901 10.9696 17.3981C10.7456 17.5061 10.4796 17.5601 10.1716 17.5601ZM6.33398 17.5661C5.87398 17.5661 5.50798 17.4421 5.23598 17.1941C4.96798 16.9421 4.83398 16.6041 4.83398 16.1801H5.73398C5.73398 16.3641 5.78798 16.5121 5.89598 16.6241C6.00398 16.7321 6.14998 16.7861 6.33398 16.7861C6.51798 16.7861 6.66398 16.7341 6.77198 16.6301C6.87998 16.5221 6.93398 16.3761 6.93398 16.1921V13.9601H5.94398V13.1201H7.83398V16.1921C7.83398 16.6161 7.69998 16.9521 7.43198 17.2001C7.16398 17.4441 6.79798 17.5661 6.33398 17.5661ZM13.0673 17.3981C13.2833 17.5061 13.5373 17.5601 13.8293 17.5601C14.1253 17.5601 14.3793 17.5061 14.5913 17.3981C14.8073 17.2861 14.9733 17.1321 15.0893 16.9361C15.2093 16.7361 15.2693 16.5041 15.2693 16.2401V14.3801C15.2693 14.1161 15.2093 13.8861 15.0893 13.6901C14.9733 13.4901 14.8073 13.3361 14.5913 13.2281C14.3793 13.1161 14.1253 13.0601 13.8293 13.0601C13.5373 13.0601 13.2833 13.1161 13.0673 13.2281C12.8513 13.3361 12.6833 13.4901 12.5633 13.6901C12.4473 13.8861 12.3893 14.1161 12.3893 14.3801V16.2401C12.3893 16.5041 12.4473 16.7361 12.5633 16.9361C12.6833 17.1321 12.8513 17.2861 13.0673 17.3981ZM14.2313 16.6421C14.1433 16.7341 14.0093 16.7801 13.8293 16.7801C13.6493 16.7801 13.5133 16.7341 13.4213 16.6421C13.3333 16.5461 13.2893 16.4121 13.2893 16.2401V14.3801C13.2893 14.2041 13.3333 14.0701 13.4213 13.9781C13.5093 13.8861 13.6453 13.8401 13.8293 13.8401C14.0133 13.8401 14.1493 13.8861 14.2373 13.9781C14.3253 14.0701 14.3693 14.2041 14.3693 14.3801V16.2401C14.3693 16.4121 14.3233 16.5461 14.2313 16.6421ZM16.047 17.5001V13.1201H17.097L18.231 16.5101C18.219 16.3621 18.205 16.1921 18.189 16.0001C18.173 15.8041 18.159 15.6101 18.147 15.4181C18.139 15.2221 18.135 15.0561 18.135 14.9201V13.1201H18.927V17.5001H17.877L16.755 14.1101C16.767 14.2381 16.779 14.3901 16.791 14.5661C16.803 14.7421 16.813 14.9201 16.821 15.1001C16.833 15.2801 16.839 15.4401 16.839 15.5801V17.5001H16.047Z" fill="#262626"/>
</svg>
