<svg width="24" height="24" viewBox="0 0 24 24" fill="none" xmlns="http://www.w3.org/2000/svg">
<path fill-rule="evenodd" clip-rule="evenodd" d="M13.25 7.5V3.5C13.25 3.36193 13.1381 3.25 13 3.25H6.5C5.80964 3.25 5.25 3.80964 5.25 4.5V19.5C5.25 20.1904 5.80964 20.75 6.5 20.75H17.5C18.1904 20.75 18.75 20.1904 18.75 19.5V9C18.75 8.86193 18.6381 8.75 18.5 8.75H14.5C13.8096 8.75 13.25 8.19036 13.25 7.5ZM15 7.25C14.8619 7.25 14.75 7.13807 14.75 7V4.29289C14.75 4.07017 15.0193 3.95863 15.1768 4.11612L17.8839 6.82322C18.0414 6.98071 17.9298 7.25 17.7071 7.25H15ZM9.75 13C9.75 11.2051 11.2051 9.75 13 9.75C14.7949 9.75 16.25 11.2051 16.25 13C16.25 14.7949 14.7949 16.25 13 16.25C12.4449 16.25 11.9224 16.1109 11.4653 15.8655C11.3631 15.8107 11.236 15.8246 11.154 15.9066L9.53033 17.5303C9.23744 17.8232 8.76256 17.8232 8.46967 17.5303C8.17678 17.2374 8.17678 16.7626 8.46967 16.4697L10.0934 14.846C10.1754 14.764 10.1893 14.6369 10.1345 14.5347C9.88915 14.0776 9.75 13.5551 9.75 13ZM13 11.25C12.0335 11.25 11.25 12.0335 11.25 13C11.25 13.9665 12.0335 14.75 13 14.75C13.9665 14.75 14.75 13.9665 14.75 13C14.75 12.0335 13.9665 11.25 13 11.25Z" fill="#23262A"/>
</svg>
