<svg width="24" height="24" viewBox="0 0 24 24" fill="none" xmlns="http://www.w3.org/2000/svg">
<path fill-rule="evenodd" clip-rule="evenodd" d="M13.25 3.5V7.5C13.25 8.19036 13.8096 8.75 14.5 8.75H18.5C18.6381 8.75 18.75 8.86193 18.75 9V10.5C18.75 10.6381 18.6381 10.75 18.5 10.75H5.5C5.36193 10.75 5.25 10.6381 5.25 10.5V4.5C5.25 3.80964 5.80964 3.25 6.5 3.25H13C13.1381 3.25 13.25 3.36193 13.25 3.5ZM14.75 7C14.75 7.13807 14.8619 7.25 15 7.25H17.7071C17.9298 7.25 18.0414 6.98071 17.8839 6.82322L15.1768 4.11612C15.0193 3.95863 14.75 4.07017 14.75 4.29289V7ZM2.25 13C2.25 12.5858 2.58579 12.25 3 12.25H21C21.4142 12.25 21.75 12.5858 21.75 13V20C21.75 20.4142 21.4142 20.75 21 20.75H3C2.58579 20.75 2.25 20.4142 2.25 20V13ZM9.79695 19.0701C9.43762 19.0701 9.12495 19.0094 8.85895 18.8881C8.59295 18.7667 8.38762 18.5964 8.24295 18.3771C8.09829 18.1577 8.02595 17.8987 8.02595 17.6001H9.07595C9.07595 17.7727 9.14129 17.9104 9.27195 18.0131C9.40729 18.1111 9.58929 18.1601 9.81795 18.1601C10.0373 18.1601 10.2076 18.1111 10.329 18.0131C10.455 17.9151 10.518 17.7797 10.518 17.6071C10.518 17.4577 10.4713 17.3294 10.378 17.2221C10.2846 17.1147 10.154 17.0424 9.98595 17.0051L9.46795 16.8861C9.03395 16.7834 8.69562 16.5944 8.45295 16.3191C8.21495 16.0391 8.09595 15.6984 8.09595 15.2971C8.09595 14.9984 8.16362 14.7394 8.29895 14.5201C8.43895 14.2961 8.63495 14.1234 8.88695 14.0021C9.13895 13.8807 9.43762 13.8201 9.78295 13.8201C10.3056 13.8201 10.7186 13.9507 11.022 14.2121C11.33 14.4687 11.484 14.8164 11.484 15.2551H10.434C10.434 15.0917 10.3756 14.9634 10.259 14.8701C10.147 14.7767 9.98362 14.7301 9.76895 14.7301C9.56829 14.7301 9.41429 14.7767 9.30695 14.8701C9.19962 14.9587 9.14595 15.0871 9.14595 15.2551C9.14595 15.4044 9.18795 15.5327 9.27195 15.6401C9.36062 15.7427 9.48429 15.8127 9.64295 15.8501L10.189 15.9761C10.6416 16.0787 10.9846 16.2654 11.218 16.5361C11.4513 16.8021 11.568 17.1427 11.568 17.5581C11.568 17.8567 11.4933 18.1204 11.344 18.3491C11.1993 18.5777 10.994 18.7551 10.728 18.8811C10.4666 19.0071 10.1563 19.0701 9.79695 19.0701ZM5.17969 19.0771C4.64302 19.0771 4.21602 18.9324 3.89869 18.6431C3.58602 18.3491 3.42969 17.9547 3.42969 17.4601H4.47969C4.47969 17.6747 4.54269 17.8474 4.66869 17.9781C4.79469 18.1041 4.96502 18.1671 5.17969 18.1671C5.39435 18.1671 5.56469 18.1064 5.69069 17.9851C5.81669 17.8591 5.87969 17.6887 5.87969 17.4741V14.8701H4.72469V13.8901H6.92969V17.4741C6.92969 17.9687 6.77335 18.3607 6.46069 18.6501C6.14802 18.9347 5.72102 19.0771 5.17969 19.0771ZM13.3152 18.8811C13.5672 19.0071 13.8636 19.0701 14.2042 19.0701C14.5496 19.0701 14.8459 19.0071 15.0932 18.8811C15.3452 18.7504 15.5389 18.5707 15.6742 18.3421C15.8142 18.1087 15.8842 17.8381 15.8842 17.5301V15.3601C15.8842 15.0521 15.8142 14.7837 15.6742 14.5551C15.5389 14.3217 15.3452 14.1421 15.0932 14.0161C14.8459 13.8854 14.5496 13.8201 14.2042 13.8201C13.8636 13.8201 13.5672 13.8854 13.3152 14.0161C13.0632 14.1421 12.8672 14.3217 12.7272 14.5551C12.5919 14.7837 12.5242 15.0521 12.5242 15.3601V17.5301C12.5242 17.8381 12.5919 18.1087 12.7272 18.3421C12.8672 18.5707 13.0632 18.7504 13.3152 18.8811ZM14.6732 17.9991C14.5706 18.1064 14.4142 18.1601 14.2042 18.1601C13.9942 18.1601 13.8356 18.1064 13.7282 17.9991C13.6256 17.8871 13.5742 17.7307 13.5742 17.5301V15.3601C13.5742 15.1547 13.6256 14.9984 13.7282 14.8911C13.8309 14.7837 13.9896 14.7301 14.2042 14.7301C14.4189 14.7301 14.5776 14.7837 14.6802 14.8911C14.7829 14.9984 14.8342 15.1547 14.8342 15.3601V17.5301C14.8342 17.7307 14.7806 17.8871 14.6732 17.9991ZM16.9315 19.0001V13.8901H18.1565L19.4795 17.8451C19.4655 17.6724 19.4492 17.4741 19.4305 17.2501C19.4118 17.0214 19.3955 16.7951 19.3815 16.5711C19.3722 16.3424 19.3675 16.1487 19.3675 15.9901V13.8901H20.2915V19.0001H19.0665L17.7575 15.0451C17.7715 15.1944 17.7855 15.3717 17.7995 15.5771C17.8135 15.7824 17.8252 15.9901 17.8345 16.2001C17.8485 16.4101 17.8555 16.5967 17.8555 16.7601V19.0001H16.9315Z" fill="#23262A"/>
</svg>
