<svg width="24" height="24" viewBox="0 0 24 24" fill="none" xmlns="http://www.w3.org/2000/svg">
<path fill-rule="evenodd" clip-rule="evenodd" d="M13 3.25C13.1381 3.25 13.25 3.36193 13.25 3.5V7.5C13.25 8.19036 13.8096 8.75 14.5 8.75H18.5C18.6381 8.75 18.75 8.86193 18.75 9V19.5C18.75 20.1904 18.1904 20.75 17.5 20.75H6.5C5.80964 20.75 5.25 20.1904 5.25 19.5V4.5C5.25 3.80964 5.80964 3.25 6.5 3.25H13ZM15.1768 4.11612C15.0193 3.95863 14.75 4.07017 14.75 4.29289V7C14.75 7.13807 14.8619 7.25 15 7.25H17.7071C17.9298 7.25 18.0414 6.98072 17.8839 6.82322L15.1768 4.11612ZM15.5303 14.2803L13.7803 16.0303C13.4874 16.3232 13.0126 16.3232 12.7197 16.0303C12.4268 15.7374 12.4268 15.2626 12.7197 14.9697L13.7626 13.9268C13.8602 13.8292 13.8602 13.6709 13.7626 13.5732L12.7197 12.5303C12.4268 12.2374 12.4268 11.7626 12.7197 11.4697C13.0126 11.1768 13.4874 11.1768 13.7803 11.4697L15.5303 13.2197C15.8232 13.5126 15.8232 13.9874 15.5303 14.2803ZM8.46967 14.2803C8.17678 13.9874 8.17678 13.5126 8.46967 13.2197L10.2197 11.4697C10.5126 11.1768 10.9874 11.1768 11.2803 11.4697C11.5732 11.7626 11.5732 12.2374 11.2803 12.5303L10.2374 13.5732C10.1398 13.6709 10.1398 13.8292 10.2374 13.9268L11.2803 14.9697C11.5732 15.2626 11.5732 15.7374 11.2803 16.0303C10.9874 16.3232 10.5126 16.3232 10.2197 16.0303L8.46967 14.2803Z" fill="#23262A"/>
</svg>
