<svg width="24" height="24" viewBox="0 0 24 24" fill="none" xmlns="http://www.w3.org/2000/svg">
<path fill-rule="evenodd" clip-rule="evenodd" d="M13.25 3.5C13.25 3.36193 13.1381 3.25 13 3.25H6.5C5.80964 3.25 5.25 3.80964 5.25 4.5V10.5C5.25 10.6381 5.36193 10.75 5.5 10.75H18.5C18.6381 10.75 18.75 10.6381 18.75 10.5V9C18.75 8.86193 18.6381 8.75 18.5 8.75H14.5C13.8096 8.75 13.25 8.19036 13.25 7.5V3.5ZM15 7.25C14.8619 7.25 14.75 7.13807 14.75 7V4.29289C14.75 4.07017 15.0193 3.95863 15.1768 4.11612L17.8839 6.82322C18.0414 6.98071 17.9298 7.25 17.7071 7.25H15ZM3 12.25C2.58579 12.25 2.25 12.5858 2.25 13V20C2.25 20.4142 2.58579 20.75 3 20.75H21C21.4142 20.75 21.75 20.4142 21.75 20V13C21.75 12.5858 21.4142 12.25 21 12.25H3ZM15.4713 18.8881C15.7373 19.0094 16.05 19.0701 16.4093 19.0701C16.7686 19.0701 17.079 19.0071 17.3403 18.8811C17.6063 18.7551 17.8116 18.5777 17.9563 18.3491C18.1056 18.1204 18.1803 17.8567 18.1803 17.5581C18.1803 17.1427 18.0636 16.8021 17.8303 16.5361C17.597 16.2654 17.254 16.0787 16.8013 15.9761L16.2553 15.8501C16.0966 15.8127 15.973 15.7427 15.8843 15.6401C15.8003 15.5327 15.7583 15.4044 15.7583 15.2551C15.7583 15.0871 15.812 14.9587 15.9193 14.8701C16.0266 14.7767 16.1806 14.7301 16.3813 14.7301C16.596 14.7301 16.7593 14.7767 16.8713 14.8701C16.988 14.9634 17.0463 15.0917 17.0463 15.2551H18.0963C18.0963 14.8164 17.9423 14.4687 17.6343 14.2121C17.331 13.9507 16.918 13.8201 16.3953 13.8201C16.05 13.8201 15.7513 13.8807 15.4993 14.0021C15.2473 14.1234 15.0513 14.2961 14.9113 14.5201C14.776 14.7394 14.7083 14.9984 14.7083 15.2971C14.7083 15.6984 14.8273 16.0391 15.0653 16.3191C15.308 16.5944 15.6463 16.7834 16.0803 16.8861L16.5983 17.0051C16.7663 17.0424 16.897 17.1147 16.9903 17.2221C17.0836 17.3294 17.1303 17.4577 17.1303 17.6071C17.1303 17.7797 17.0673 17.9151 16.9413 18.0131C16.82 18.1111 16.6496 18.1601 16.4303 18.1601C16.2016 18.1601 16.0196 18.1111 15.8843 18.0131C15.7536 17.9104 15.6883 17.7727 15.6883 17.6001H14.6383C14.6383 17.8987 14.7106 18.1577 14.8553 18.3771C15 18.5964 15.2053 18.7667 15.4713 18.8881ZM5.63477 19.0001L7.00677 16.3611L5.72577 13.8901H6.88077L7.41277 15.0101C7.4641 15.1127 7.5061 15.2061 7.53877 15.2901C7.5761 15.3741 7.59943 15.4347 7.60877 15.4721C7.6181 15.4347 7.6391 15.3741 7.67177 15.2901C7.70443 15.2061 7.7441 15.1127 7.79077 15.0101L8.33677 13.8901H9.46377L8.18277 16.3611L9.55477 19.0001H8.39977L7.78377 17.7401C7.7371 17.6374 7.6951 17.5417 7.65777 17.4531C7.62043 17.3644 7.59243 17.2967 7.57377 17.2501C7.55977 17.2967 7.53643 17.3644 7.50377 17.4531C7.4711 17.5417 7.4291 17.6374 7.37777 17.7401L6.76177 19.0001H5.63477ZM10.567 19.0001V13.8901H11.617V18.0201H13.682V19.0001H10.567Z" fill="#23262A"/>
</svg>
