<svg width="24" height="24" viewBox="0 0 24 24" fill="none" xmlns="http://www.w3.org/2000/svg">
<path fill-rule="evenodd" clip-rule="evenodd" d="M6.5 3.25C5.80964 3.25 5.25 3.80964 5.25 4.5V19.5C5.25 20.1904 5.80964 20.75 6.5 20.75H17.5C18.1904 20.75 18.75 20.1904 18.75 19.5V18.5V17.75C18.75 17.3358 18.4142 17 18 17C17.5858 17 17.25 17.3358 17.25 17.75V18.5V19.25H6.75V4.75H13.25V7.5C13.25 8.19036 13.8096 8.75 14.5 8.75H17.25V9.5V10.25C17.25 10.6642 17.5858 11 18 11C18.4142 11 18.75 10.6642 18.75 10.25V9.5V8C18.75 7.80109 18.671 7.61032 18.5303 7.46967L14.5303 3.46967C14.3897 3.32902 14.1989 3.25 14 3.25H6.5ZM16.1893 7.25L14.75 5.81066V7.25H16.1893ZM14.2197 17.7803C13.9268 17.4874 13.9268 17.0126 14.2197 16.7197L16.1893 14.75L9.75 14.75C9.33579 14.75 9 14.4142 9 14C9 13.5858 9.33579 13.25 9.75 13.25L16.1893 13.25L14.2197 11.2803C13.9268 10.9874 13.9268 10.5126 14.2197 10.2197C14.5126 9.92678 14.9874 9.92678 15.2803 10.2197L18.5303 13.4697C18.675 13.6144 18.7482 13.8034 18.75 13.9931C18.75 13.9954 18.75 13.9977 18.75 14C18.75 14.0023 18.75 14.0046 18.75 14.0069C18.7491 14.1061 18.7289 14.2007 18.6931 14.2871C18.6565 14.3755 18.6022 14.4584 18.5303 14.5303L15.2803 17.7803C14.9874 18.0732 14.5126 18.0732 14.2197 17.7803Z" fill="#262626"/>
</svg>
