<svg width="24" height="24" viewBox="0 0 24 24" fill="none" xmlns="http://www.w3.org/2000/svg">
<path d="M14.6732 17.9991C14.5706 18.1064 14.4142 18.1601 14.2042 18.1601C13.9942 18.1601 13.8356 18.1064 13.7282 17.9991C13.6256 17.8871 13.5742 17.7307 13.5742 17.5301V15.3601C13.5742 15.1547 13.6256 14.9984 13.7282 14.8911C13.8309 14.7837 13.9896 14.7301 14.2042 14.7301C14.4189 14.7301 14.5776 14.7837 14.6802 14.8911C14.7829 14.9984 14.8342 15.1547 14.8342 15.3601V17.5301C14.8342 17.7307 14.7806 17.8871 14.6732 17.9991Z" fill="#23262A"/>
<path fill-rule="evenodd" clip-rule="evenodd" d="M6.5 3.25C5.80964 3.25 5.25 3.80964 5.25 4.5V12.25H3C2.58579 12.25 2.25 12.5858 2.25 13V20C2.25 20.4142 2.58579 20.75 3 20.75H21C21.4142 20.75 21.75 20.4142 21.75 20V13C21.75 12.5858 21.4142 12.25 21 12.25H18.75V8C18.75 7.80109 18.671 7.61032 18.5303 7.46967L14.5303 3.46967C14.3897 3.32902 14.1989 3.25 14 3.25H6.5ZM14.5 8.75C13.8096 8.75 13.25 8.19036 13.25 7.5V4.75H6.75V12.25H17.25V8.75H14.5ZM16.1893 7.25L14.75 5.81066V7.25H16.1893ZM8.85895 18.8881C9.12495 19.0094 9.43762 19.0701 9.79695 19.0701C10.1563 19.0701 10.4666 19.0071 10.728 18.8811C10.994 18.7551 11.1993 18.5777 11.344 18.3491C11.4933 18.1204 11.568 17.8567 11.568 17.5581C11.568 17.1427 11.4513 16.8021 11.218 16.5361C10.9846 16.2654 10.6416 16.0787 10.189 15.9761L9.64295 15.8501C9.48429 15.8127 9.36062 15.7427 9.27195 15.6401C9.18795 15.5327 9.14595 15.4044 9.14595 15.2551C9.14595 15.0871 9.19962 14.9587 9.30695 14.8701C9.41429 14.7767 9.56829 14.7301 9.76895 14.7301C9.98362 14.7301 10.147 14.7767 10.259 14.8701C10.3756 14.9634 10.434 15.0917 10.434 15.2551H11.484C11.484 14.8164 11.33 14.4687 11.022 14.2121C10.7186 13.9507 10.3056 13.8201 9.78295 13.8201C9.43762 13.8201 9.13895 13.8807 8.88695 14.0021C8.63495 14.1234 8.43895 14.2961 8.29895 14.5201C8.16362 14.7394 8.09595 14.9984 8.09595 15.2971C8.09595 15.6984 8.21495 16.0391 8.45295 16.3191C8.69562 16.5944 9.03395 16.7834 9.46795 16.8861L9.98595 17.0051C10.154 17.0424 10.2846 17.1147 10.378 17.2221C10.4713 17.3294 10.518 17.4577 10.518 17.6071C10.518 17.7797 10.455 17.9151 10.329 18.0131C10.2076 18.1111 10.0373 18.1601 9.81795 18.1601C9.58929 18.1601 9.40729 18.1111 9.27195 18.0131C9.14129 17.9104 9.07595 17.7727 9.07595 17.6001H8.02595C8.02595 17.8987 8.09829 18.1577 8.24295 18.3771C8.38762 18.5964 8.59295 18.7667 8.85895 18.8881ZM3.89869 18.6431C4.21602 18.9324 4.64302 19.0771 5.17969 19.0771C5.72102 19.0771 6.14802 18.9347 6.46069 18.6501C6.77335 18.3607 6.92969 17.9687 6.92969 17.4741V13.8901H4.72469V14.8701H5.87969V17.4741C5.87969 17.6887 5.81669 17.8591 5.69069 17.9851C5.56469 18.1064 5.39435 18.1671 5.17969 18.1671C4.96502 18.1671 4.79469 18.1041 4.66869 17.9781C4.54269 17.8474 4.47969 17.6747 4.47969 17.4601H3.42969C3.42969 17.9547 3.58602 18.3491 3.89869 18.6431ZM14.2042 19.0701C13.8636 19.0701 13.5672 19.0071 13.3152 18.8811C13.0632 18.7504 12.8672 18.5707 12.7272 18.3421C12.5919 18.1087 12.5242 17.8381 12.5242 17.5301V15.3601C12.5242 15.0521 12.5919 14.7837 12.7272 14.5551C12.8672 14.3217 13.0632 14.1421 13.3152 14.0161C13.5672 13.8854 13.8636 13.8201 14.2042 13.8201C14.5496 13.8201 14.8459 13.8854 15.0932 14.0161C15.3452 14.1421 15.5389 14.3217 15.6742 14.5551C15.8142 14.7837 15.8842 15.0521 15.8842 15.3601V17.5301C15.8842 17.8381 15.8142 18.1087 15.6742 18.3421C15.5389 18.5707 15.3452 18.7504 15.0932 18.8811C14.8459 19.0071 14.5496 19.0701 14.2042 19.0701ZM17.8555 16.7601C17.8555 16.5967 17.8485 16.4101 17.8345 16.2001C17.8252 15.9901 17.8135 15.7824 17.7995 15.5771C17.7855 15.3717 17.7715 15.1944 17.7575 15.0451L19.0665 19.0001H20.2915V13.8901H19.3675V15.9901C19.3675 16.1487 19.3722 16.3424 19.3815 16.5711C19.3955 16.7951 19.4118 17.0214 19.4305 17.2501C19.4492 17.4741 19.4655 17.6724 19.4795 17.8451L18.1565 13.8901H16.9315V19.0001H17.8555V16.7601Z" fill="#23262A"/>
</svg>
