<svg width="24" height="24" viewBox="0 0 24 24" fill="none" xmlns="http://www.w3.org/2000/svg">
<path d="M12.4708 17.9991C12.3681 18.1064 12.2118 18.1601 12.0018 18.1601C11.7918 18.1601 11.6331 18.1064 11.5258 17.9991C11.4231 17.8871 11.3718 17.7307 11.3718 17.5301V15.3601C11.3718 15.1547 11.4231 14.9984 11.5258 14.8911C11.6285 14.7837 11.7871 14.7301 12.0018 14.7301C12.2165 14.7301 12.3751 14.7837 12.4778 14.8911C12.5805 14.9984 12.6318 15.1547 12.6318 15.3601V17.5301C12.6318 17.7307 12.5781 17.8871 12.4708 17.9991Z" fill="#23262A"/>
<path d="M7.59455 14.8701C7.80921 14.8701 7.98188 14.9307 8.11255 15.0521C8.24321 15.1734 8.30855 15.3321 8.30855 15.5281V17.3551C8.30855 17.5557 8.24321 17.7167 8.11255 17.8381C7.98188 17.9594 7.80921 18.0201 7.59455 18.0201H6.98555V14.8701H7.59455Z" fill="#23262A"/>
<path fill-rule="evenodd" clip-rule="evenodd" d="M5.25 4.5C5.25 3.80964 5.80964 3.25 6.5 3.25H14C14.1989 3.25 14.3897 3.32902 14.5303 3.46967L18.5303 7.46967C18.671 7.61032 18.75 7.80109 18.75 8V12.25H21C21.4142 12.25 21.75 12.5858 21.75 13V20C21.75 20.4142 21.4142 20.75 21 20.75H3C2.58579 20.75 2.25 20.4142 2.25 20V13C2.25 12.5858 2.58579 12.25 3 12.25H5.25V4.5ZM14.5 8.75C13.8096 8.75 13.25 8.19036 13.25 7.5V4.75H6.75V12.25H17.25V8.75H14.5ZM14.75 5.81066L16.1893 7.25H14.75V5.81066ZM11.1128 18.8811C11.3648 19.0071 11.6611 19.0701 12.0018 19.0701C12.3471 19.0701 12.6435 19.0071 12.8908 18.8811C13.1428 18.7504 13.3365 18.5707 13.4718 18.3421C13.6118 18.1087 13.6818 17.8381 13.6818 17.5301V15.3601C13.6818 15.0521 13.6118 14.7837 13.4718 14.5551C13.3365 14.3217 13.1428 14.1421 12.8908 14.0161C12.6435 13.8854 12.3471 13.8201 12.0018 13.8201C11.6611 13.8201 11.3648 13.8854 11.1128 14.0161C10.8608 14.1421 10.6648 14.3217 10.5248 14.5551C10.3895 14.7837 10.3218 15.0521 10.3218 15.3601V17.5301C10.3218 17.8381 10.3895 18.1087 10.5248 18.3421C10.6648 18.5707 10.8608 18.7504 11.1128 18.8811ZM8.51855 14.0931C8.25721 13.9577 7.94921 13.8901 7.59455 13.8901H5.93555V19.0001H7.59455C7.94921 19.0001 8.25721 18.9324 8.51855 18.7971C8.78455 18.6571 8.98988 18.4634 9.13455 18.2161C9.28388 17.9687 9.35855 17.6817 9.35855 17.3551V15.5281C9.35855 15.1967 9.28388 14.9097 9.13455 14.6671C8.98988 14.4197 8.78455 14.2284 8.51855 14.0931ZM16.4371 19.0701C16.0964 19.0701 15.7977 19.0071 15.5411 18.8811C15.2844 18.7504 15.0837 18.5707 14.9391 18.3421C14.7991 18.1087 14.7291 17.8381 14.7291 17.5301V15.3601C14.7291 15.0474 14.7991 14.7767 14.9391 14.5481C15.0837 14.3194 15.2844 14.1421 15.5411 14.0161C15.7977 13.8854 16.0964 13.8201 16.4371 13.8201C16.7824 13.8201 17.0811 13.8854 17.3331 14.0161C17.5897 14.1421 17.7881 14.3194 17.9281 14.5481C18.0727 14.7767 18.1451 15.0474 18.1451 15.3601H17.0951C17.0951 15.1547 17.0367 14.9984 16.9201 14.8911C16.8081 14.7837 16.6471 14.7301 16.4371 14.7301C16.2271 14.7301 16.0637 14.7837 15.9471 14.8911C15.8351 14.9984 15.7791 15.1547 15.7791 15.3601V17.5301C15.7791 17.7307 15.8351 17.8871 15.9471 17.9991C16.0637 18.1064 16.2271 18.1601 16.4371 18.1601C16.6471 18.1601 16.8081 18.1064 16.9201 17.9991C17.0367 17.8871 17.0951 17.7307 17.0951 17.5301H18.1451C18.1451 17.8381 18.0727 18.1087 17.9281 18.3421C17.7881 18.5707 17.5897 18.7504 17.3331 18.8811C17.0811 19.0071 16.7824 19.0701 16.4371 19.0701Z" fill="#23262A"/>
</svg>
