<svg width="24" height="24" viewBox="0 0 24 24" fill="none" xmlns="http://www.w3.org/2000/svg">
<path fill-rule="evenodd" clip-rule="evenodd" d="M13.25 7.5V3.5C13.25 3.36193 13.1381 3.25 13 3.25H6.5C5.80964 3.25 5.25 3.80964 5.25 4.5V19.5C5.25 20.1904 5.80964 20.75 6.5 20.75H17.5C18.1904 20.75 18.75 20.1904 18.75 19.5V9C18.75 8.86193 18.6381 8.75 18.5 8.75H14.5C13.8096 8.75 13.25 8.19036 13.25 7.5ZM15 7.25C14.8619 7.25 14.75 7.13807 14.75 7V4.29289C14.75 4.07017 15.0193 3.95863 15.1768 4.11612L17.8839 6.82322C18.0414 6.98071 17.9298 7.25 17.7071 7.25H15ZM14.5303 13.0303C14.8232 12.7374 14.8232 12.2626 14.5303 11.9697C14.2374 11.6768 13.7626 11.6768 13.4697 11.9697L11.6768 13.7626C11.5791 13.8602 11.4209 13.8602 11.3232 13.7626L10.5303 12.9697C10.2374 12.6768 9.76256 12.6768 9.46967 12.9697C9.17678 13.2626 9.17678 13.7374 9.46967 14.0303L10.9697 15.5303C11.2626 15.8232 11.7374 15.8232 12.0303 15.5303L14.5303 13.0303Z" fill="#23262A"/>
</svg>
