<svg width="24" height="24" viewBox="0 0 24 24" fill="none" xmlns="http://www.w3.org/2000/svg">
<path fill-rule="evenodd" clip-rule="evenodd" d="M5.25 4.5C5.25 3.80964 5.80964 3.25 6.5 3.25H14C14.1989 3.25 14.3897 3.32902 14.5303 3.46967L18.5303 7.46967C18.671 7.61032 18.75 7.80109 18.75 8V10.25C18.75 10.6642 18.4142 11 18 11C17.5858 11 17.25 10.6642 17.25 10.25V8.75H14.5C13.8096 8.75 13.25 8.19036 13.25 7.5V4.75H6.75V19.25H17.25V17.75C17.25 17.3358 17.5858 17 18 17C18.4142 17 18.75 17.3358 18.75 17.75V19.5C18.75 20.1904 18.1904 20.75 17.5 20.75H6.5C5.80964 20.75 5.25 20.1904 5.25 19.5V4.5ZM14.75 5.81066L16.1893 7.25H14.75V5.81066ZM14.2197 17.7803C13.9268 17.4874 13.9268 17.0126 14.2197 16.7197L16.1893 14.75H9.75C9.33579 14.75 9 14.4142 9 14C9 13.5858 9.33579 13.25 9.75 13.25H16.1893L14.2197 11.2803C13.9268 10.9874 13.9268 10.5126 14.2197 10.2197C14.5126 9.92678 14.9874 9.92678 15.2803 10.2197L18.5303 13.4697C18.6024 13.5418 18.6568 13.6249 18.6934 13.7136C18.729 13.7999 18.7491 13.8942 18.75 13.9931L18.75 14L18.75 14.0069C18.7482 14.1966 18.675 14.3856 18.5303 14.5303L15.2803 17.7803C14.9874 18.0732 14.5126 18.0732 14.2197 17.7803Z" fill="#23262A"/>
</svg>
