<svg width="24" height="24" viewBox="0 0 24 24" fill="none" xmlns="http://www.w3.org/2000/svg">
<path fill-rule="evenodd" clip-rule="evenodd" d="M13 2.25C13.1381 2.25 13.25 2.36193 13.25 2.5V7.5C13.25 8.19036 13.8096 8.75 14.5 8.75H19.5C19.6381 8.75 19.75 8.86193 19.75 9V16.5C19.75 17.1904 19.1904 17.75 18.5 17.75H9.5C8.80964 17.75 8.25 17.1904 8.25 16.5V3.5C8.25 2.80964 8.80964 2.25 9.5 2.25H13ZM15.1768 3.11612C15.0193 2.95863 14.75 3.07017 14.75 3.29289V7C14.75 7.13807 14.8619 7.25 15 7.25H18.7071C18.9298 7.25 19.0414 6.98071 18.8839 6.82322L15.1768 3.11612ZM6.75 6.5C6.75 6.36193 6.63807 6.25 6.5 6.25H5.5C4.80964 6.25 4.25 6.80964 4.25 7.5V20.5C4.25 21.1904 4.80964 21.75 5.5 21.75H14.5C15.1904 21.75 15.75 21.1904 15.75 20.5V19.5C15.75 19.3619 15.6381 19.25 15.5 19.25H9.5C7.98122 19.25 6.75 18.0188 6.75 16.5V6.5Z" fill="#23262A"/>
</svg>
