<svg width="24" height="24" viewBox="0 0 24 24" fill="none" xmlns="http://www.w3.org/2000/svg">
<path fill-rule="evenodd" clip-rule="evenodd" d="M13.25 7.5V3.5C13.25 3.36193 13.1381 3.25 13 3.25H6.5C5.80964 3.25 5.25 3.80964 5.25 4.5V19.5C5.25 20.1904 5.80964 20.75 6.5 20.75H17.5C18.1904 20.75 18.75 20.1904 18.75 19.5V15.6645C18.75 15.4417 18.4807 15.3302 18.3232 15.4877L16.0303 17.7806C15.7374 18.0735 15.2626 18.0735 14.9697 17.7806C14.6768 17.4877 14.6768 17.0128 14.9697 16.7199L16.5126 15.177C16.6701 15.0195 16.5585 14.7502 16.3358 14.7502L9.5 14.7502C9.08579 14.7502 8.75 14.4145 8.75 14.0002C8.75 13.586 9.08579 13.2502 9.5 13.2502L16.3358 13.2502C16.5585 13.2502 16.6701 12.981 16.5126 12.8235L14.9697 11.2806C14.6768 10.9877 14.6768 10.5128 14.9697 10.2199C15.2626 9.92702 15.7374 9.92702 16.0303 10.2199L18.3232 12.5128C18.4807 12.6703 18.75 12.5588 18.75 12.336V9C18.75 8.86193 18.6381 8.75 18.5 8.75H14.5C13.8096 8.75 13.25 8.19036 13.25 7.5ZM15 7.25C14.8619 7.25 14.75 7.13807 14.75 7V4.29289C14.75 4.07017 15.0193 3.95863 15.1768 4.11612L17.8839 6.82322C18.0414 6.98071 17.9298 7.25 17.7071 7.25H15Z" fill="#23262A"/>
</svg>
