<svg width="24" height="24" viewBox="0 0 24 24" fill="none" xmlns="http://www.w3.org/2000/svg">
<path fill-rule="evenodd" clip-rule="evenodd" d="M6.5 3.25C5.80964 3.25 5.25 3.80964 5.25 4.5V10.25H3C2.58579 10.25 2.25 10.5858 2.25 11V20C2.25 20.4142 2.58579 20.75 3 20.75H21C21.4142 20.75 21.75 20.4142 21.75 20V11C21.75 10.5858 21.4142 10.25 21 10.25H18.75V8C18.75 7.80109 18.671 7.61032 18.5303 7.46967L14.5303 3.46967C14.3897 3.32902 14.1989 3.25 14 3.25H6.5ZM17.25 10.25H6.75V4.75H13.25V7.5C13.25 8.19036 13.8096 8.75 14.5 8.75H17.25V10.25ZM16.1893 7.25L14.75 5.81066V7.25H16.1893ZM3.75 11.75V19.25H20.25V11.75H3.75ZM9.36764 17.4041C9.59564 17.5081 9.86364 17.5601 10.1716 17.5601C10.4796 17.5601 10.7456 17.5061 10.9696 17.3981C11.1976 17.2901 11.3736 17.1381 11.4976 16.9421C11.6256 16.7461 11.6896 16.5201 11.6896 16.2641C11.6896 15.9081 11.5896 15.6161 11.3896 15.3881C11.1896 15.1561 10.8956 14.9961 10.5076 14.9081L10.0396 14.8001C9.90364 14.7681 9.79764 14.7081 9.72164 14.6201C9.64964 14.5281 9.61364 14.4181 9.61364 14.2901C9.61364 14.1461 9.65964 14.0361 9.75164 13.9601C9.84364 13.8801 9.97564 13.8401 10.1476 13.8401C10.3316 13.8401 10.4716 13.8801 10.5676 13.9601C10.6676 14.0401 10.7176 14.1501 10.7176 14.2901H11.6176C11.6176 13.9141 11.4856 13.6161 11.2216 13.3961C10.9616 13.1721 10.6076 13.0601 10.1596 13.0601C9.86364 13.0601 9.60764 13.1121 9.39164 13.2161C9.17564 13.3201 9.00764 13.4681 8.88764 13.6601C8.77164 13.8481 8.71364 14.0701 8.71364 14.3261C8.71364 14.6701 8.81564 14.9621 9.01964 15.2021C9.22764 15.4381 9.51764 15.6001 9.88964 15.6881L10.3336 15.7901C10.4776 15.8221 10.5896 15.8841 10.6696 15.9761C10.7496 16.0681 10.7896 16.1781 10.7896 16.3061C10.7896 16.4541 10.7356 16.5701 10.6276 16.6541C10.5236 16.7381 10.3776 16.7801 10.1896 16.7801C9.99364 16.7801 9.83764 16.7381 9.72164 16.6541C9.60964 16.5661 9.55364 16.4481 9.55364 16.3001H8.65364C8.65364 16.5561 8.71564 16.7781 8.83964 16.9661C8.96364 17.1541 9.13964 17.3001 9.36764 17.4041ZM5.23598 17.1941C5.50798 17.4421 5.87398 17.5661 6.33398 17.5661C6.79798 17.5661 7.16398 17.4441 7.43198 17.2001C7.69998 16.9521 7.83398 16.6161 7.83398 16.1921V13.1201H5.94398V13.9601H6.93398V16.1921C6.93398 16.3761 6.87998 16.5221 6.77198 16.6301C6.66398 16.7341 6.51798 16.7861 6.33398 16.7861C6.14998 16.7861 6.00398 16.7321 5.89598 16.6241C5.78798 16.5121 5.73398 16.3641 5.73398 16.1801H4.83398C4.83398 16.6041 4.96798 16.9421 5.23598 17.1941ZM13.8293 17.5601C13.5373 17.5601 13.2833 17.5061 13.0673 17.3981C12.8513 17.2861 12.6833 17.1321 12.5633 16.9361C12.4473 16.7361 12.3893 16.5041 12.3893 16.2401V14.3801C12.3893 14.1161 12.4473 13.8861 12.5633 13.6901C12.6833 13.4901 12.8513 13.3361 13.0673 13.2281C13.2833 13.1161 13.5373 13.0601 13.8293 13.0601C14.1253 13.0601 14.3793 13.1161 14.5913 13.2281C14.8073 13.3361 14.9733 13.4901 15.0893 13.6901C15.2093 13.8861 15.2693 14.1161 15.2693 14.3801V16.2401C15.2693 16.5041 15.2093 16.7361 15.0893 16.9361C14.9733 17.1321 14.8073 17.2861 14.5913 17.3981C14.3793 17.5061 14.1253 17.5601 13.8293 17.5601ZM13.8293 16.7801C14.0093 16.7801 14.1433 16.7341 14.2313 16.6421C14.3233 16.5461 14.3693 16.4121 14.3693 16.2401V14.3801C14.3693 14.2041 14.3253 14.0701 14.2373 13.9781C14.1493 13.8861 14.0133 13.8401 13.8293 13.8401C13.6453 13.8401 13.5093 13.8861 13.4213 13.9781C13.3333 14.0701 13.2893 14.2041 13.2893 14.3801V16.2401C13.2893 16.4121 13.3333 16.5461 13.4213 16.6421C13.5133 16.7341 13.6493 16.7801 13.8293 16.7801ZM16.047 13.1201V17.5001H16.839V15.5801C16.839 15.4401 16.833 15.2801 16.821 15.1001C16.813 14.9201 16.803 14.7421 16.791 14.5661C16.779 14.3901 16.767 14.2381 16.755 14.1101L17.877 17.5001H18.927V13.1201H18.135V14.9201C18.135 15.0561 18.139 15.2221 18.147 15.4181C18.159 15.6101 18.173 15.8041 18.189 16.0001C18.205 16.1921 18.219 16.3621 18.231 16.5101L17.097 13.1201H16.047Z" fill="#262626"/>
</svg>
