<svg width="24" height="24" viewBox="0 0 24 24" fill="none" xmlns="http://www.w3.org/2000/svg">
<path fill-rule="evenodd" clip-rule="evenodd" d="M13 3.25C13.1381 3.25 13.25 3.36193 13.25 3.5V7.5C13.25 8.19036 13.8096 8.75 14.5 8.75H18.5C18.6381 8.75 18.75 8.86193 18.75 9V19.5C18.75 20.1904 18.1904 20.75 17.5 20.75H6.5C5.80964 20.75 5.25 20.1904 5.25 19.5V4.5C5.25 3.80964 5.80964 3.25 6.5 3.25H13ZM15.1768 4.11612C15.0193 3.95863 14.75 4.07017 14.75 4.29289V7C14.75 7.13807 14.8619 7.25 15 7.25H17.7071C17.9298 7.25 18.0414 6.98072 17.8839 6.82322L15.1768 4.11612ZM10.1345 14.5347C10.1893 14.6369 10.1754 14.764 10.0934 14.846L8.46967 16.4697C8.17678 16.7626 8.17678 17.2374 8.46967 17.5303C8.76256 17.8232 9.23744 17.8232 9.53033 17.5303L11.154 15.9066C11.236 15.8246 11.3631 15.8107 11.4653 15.8655C11.9224 16.1109 12.4449 16.25 13 16.25C14.7949 16.25 16.25 14.7949 16.25 13C16.25 11.2051 14.7949 9.75 13 9.75C11.2051 9.75 9.75 11.2051 9.75 13C9.75 13.5551 9.88915 14.0776 10.1345 14.5347ZM11.25 13C11.25 12.0335 12.0335 11.25 13 11.25C13.9665 11.25 14.75 12.0335 14.75 13C14.75 13.9665 13.9665 14.75 13 14.75C12.0335 14.75 11.25 13.9665 11.25 13Z" fill="#23262A"/>
</svg>
