<svg width="24" height="24" viewBox="0 0 24 24" fill="none" xmlns="http://www.w3.org/2000/svg">
<path fill-rule="evenodd" clip-rule="evenodd" d="M13.25 3.5C13.25 3.36193 13.1381 3.25 13 3.25H6.5C5.80964 3.25 5.25 3.80964 5.25 4.5V19.5C5.25 20.1904 5.80964 20.75 6.5 20.75H17.5C18.1904 20.75 18.75 20.1904 18.75 19.5V9C18.75 8.86193 18.6381 8.75 18.5 8.75H14.5C13.8096 8.75 13.25 8.19036 13.25 7.5V3.5ZM14.75 4.29289C14.75 4.07017 15.0193 3.95863 15.1768 4.11612L17.8839 6.82322C18.0414 6.98072 17.9298 7.25 17.7071 7.25H15C14.8619 7.25 14.75 7.13807 14.75 7V4.29289ZM13.1255 12.0516C12.297 11.5732 11.2889 11.6812 10.5852 12.25H11C11.4142 12.25 11.75 12.5858 11.75 13C11.75 13.4142 11.4142 13.75 11 13.75H9C8.58579 13.75 8.25 13.4142 8.25 13V11C8.25 10.5858 8.58579 10.25 9 10.25C9.41407 10.25 9.74977 10.5856 9.75 10.9996C10.9144 10.1271 12.534 9.97797 13.8755 10.7525C15.6691 11.7881 16.2837 14.0815 15.2481 15.8751C14.5536 17.0781 13.2934 17.7496 12.0007 17.7506C11.5865 17.7509 11.2505 17.4154 11.2501 17.0012C11.2498 16.587 11.5853 16.2509 11.9995 16.2506C12.7788 16.25 13.5331 15.8456 13.9491 15.1251C14.5704 14.049 14.2017 12.6729 13.1255 12.0516Z" fill="#23262A"/>
</svg>
