<svg width="24" height="24" viewBox="0 0 24 24" fill="none" xmlns="http://www.w3.org/2000/svg">
<path fill-rule="evenodd" clip-rule="evenodd" d="M5.25 4.5C5.25 3.80964 5.80964 3.25 6.5 3.25H14C14.1989 3.25 14.3897 3.32902 14.5303 3.46967L18.5303 7.46967C18.671 7.61032 18.75 7.80109 18.75 8V10.25H21C21.4142 10.25 21.75 10.5858 21.75 11V20C21.75 20.4142 21.4142 20.75 21 20.75H3C2.58579 20.75 2.25 20.4142 2.25 20V11C2.25 10.5858 2.58579 10.25 3 10.25H5.25V4.5ZM6.75 10.25H17.25V8.75H14.5C13.8096 8.75 13.25 8.19036 13.25 7.5V4.75H6.75V10.25ZM14.75 5.81066L16.1893 7.25H14.75V5.81066ZM15.6594 17.5601C15.3514 17.5601 15.0834 17.5081 14.8554 17.4041C14.6274 17.3001 14.4514 17.1541 14.3274 16.9661C14.2034 16.7781 14.1414 16.5561 14.1414 16.3001H15.0414C15.0414 16.4481 15.0974 16.5661 15.2094 16.6541C15.3254 16.7381 15.4814 16.7801 15.6774 16.7801C15.8654 16.7801 16.0114 16.7381 16.1154 16.6541C16.2234 16.5701 16.2774 16.4541 16.2774 16.3061C16.2774 16.1781 16.2374 16.0681 16.1574 15.9761C16.0774 15.8841 15.9654 15.8221 15.8214 15.7901L15.3774 15.6881C15.0054 15.6001 14.7154 15.4381 14.5074 15.2021C14.3034 14.9621 14.2014 14.6701 14.2014 14.3261C14.2014 14.0701 14.2594 13.8481 14.3754 13.6601C14.4954 13.4681 14.6634 13.3201 14.8794 13.2161C15.0954 13.1121 15.3514 13.0601 15.6474 13.0601C16.0954 13.0601 16.4494 13.1721 16.7094 13.3961C16.9734 13.6161 17.1054 13.9141 17.1054 14.2901H16.2054C16.2054 14.1501 16.1554 14.0401 16.0554 13.9601C15.9594 13.8801 15.8194 13.8401 15.6354 13.8401C15.4634 13.8401 15.3314 13.8801 15.2394 13.9601C15.1474 14.0361 15.1014 14.1461 15.1014 14.2901C15.1014 14.4181 15.1374 14.5281 15.2094 14.6201C15.2854 14.7081 15.3914 14.7681 15.5274 14.8001L15.9954 14.9081C16.3834 14.9961 16.6774 15.1561 16.8774 15.3881C17.0774 15.6161 17.1774 15.9081 17.1774 16.2641C17.1774 16.5201 17.1134 16.7461 16.9854 16.9421C16.8614 17.1381 16.6854 17.2901 16.4574 17.3981C16.2334 17.5061 15.9674 17.5601 15.6594 17.5601ZM7.84006 15.2381L6.66406 17.5001H7.63006L8.15806 16.4201C8.20206 16.3321 8.23806 16.2501 8.26606 16.1741C8.29406 16.0981 8.31406 16.0401 8.32606 16.0001C8.34206 16.0401 8.36606 16.0981 8.39806 16.1741C8.43006 16.2501 8.46606 16.3321 8.50606 16.4201L9.03406 17.5001H10.0241L8.84806 15.2381L9.94606 13.1201H8.98006L8.51206 14.0801C8.47206 14.1681 8.43806 14.2481 8.41006 14.3201C8.38206 14.3921 8.36406 14.4441 8.35606 14.4761C8.34806 14.4441 8.32806 14.3921 8.29606 14.3201C8.26806 14.2481 8.23206 14.1681 8.18806 14.0801L7.73206 13.1201H6.74206L7.84006 15.2381ZM10.7717 13.1201V17.5001H13.4417V16.6601H11.6717V13.1201H10.7717Z" fill="#262626"/>
</svg>
