<svg width="24" height="24" viewBox="0 0 24 24" fill="none" xmlns="http://www.w3.org/2000/svg">
<path fill-rule="evenodd" clip-rule="evenodd" d="M6.75 19.25V4.75H13.25V7.5C13.25 8.19036 13.8096 8.75 14.5 8.75H17.25V19.25H6.75ZM16.1893 7.25L14.75 5.81066V7.25H16.1893ZM6.5 3.25C5.80964 3.25 5.25 3.80964 5.25 4.5V19.5C5.25 20.1904 5.80964 20.75 6.5 20.75H17.5C18.1904 20.75 18.75 20.1904 18.75 19.5V8C18.75 7.80109 18.671 7.61032 18.5303 7.46967L14.5303 3.46967C14.3897 3.32902 14.1989 3.25 14 3.25H6.5ZM14.0303 11.9697C14.3232 12.2626 14.3232 12.7374 14.0303 13.0303L13.0607 14L14.0303 14.9697C14.3232 15.2626 14.3232 15.7374 14.0303 16.0303C13.7374 16.3232 13.2626 16.3232 12.9697 16.0303L12 15.0607L11.0303 16.0303C10.7374 16.3232 10.2626 16.3232 9.96967 16.0303C9.67678 15.7374 9.67678 15.2626 9.96967 14.9697L10.9393 14L9.96967 13.0303C9.67678 12.7374 9.67678 12.2626 9.96967 11.9697C10.2626 11.6768 10.7374 11.6768 11.0303 11.9697L12 12.9393L12.9697 11.9697C13.2626 11.6768 13.7374 11.6768 14.0303 11.9697Z" fill="#262626"/>
</svg>
