<svg width="24" height="24" viewBox="0 0 24 24" fill="none" xmlns="http://www.w3.org/2000/svg">
<path fill-rule="evenodd" clip-rule="evenodd" d="M13 3.25C13.1381 3.25 13.25 3.36193 13.25 3.5V7.5C13.25 8.19036 13.8096 8.75 14.5 8.75H18.5C18.6381 8.75 18.75 8.86193 18.75 9V19.5C18.75 20.1904 18.1904 20.75 17.5 20.75H6.5C5.80964 20.75 5.25 20.1904 5.25 19.5V4.5C5.25 3.80964 5.80964 3.25 6.5 3.25H13ZM15.1768 4.11612C15.0193 3.95863 14.75 4.07017 14.75 4.29289V7C14.75 7.13807 14.8619 7.25 15 7.25H17.7071C17.9298 7.25 18.0414 6.98072 17.8839 6.82322L15.1768 4.11612ZM8.25 13C8.25 12.5858 8.58579 12.25 9 12.25H12.5C12.9142 12.25 13.25 12.5858 13.25 13C13.25 13.4142 12.9142 13.75 12.5 13.75H9C8.58579 13.75 8.25 13.4142 8.25 13ZM9 15.25C8.58579 15.25 8.25 15.5858 8.25 16C8.25 16.4142 8.58579 16.75 9 16.75H14.5C14.9142 16.75 15.25 16.4142 15.25 16C15.25 15.5858 14.9142 15.25 14.5 15.25H9Z" fill="#23262A"/>
</svg>
