<svg width="24" height="24" viewBox="0 0 24 24" fill="none" xmlns="http://www.w3.org/2000/svg">
<path fill-rule="evenodd" clip-rule="evenodd" d="M5.25 4.5C5.25 3.80964 5.80964 3.25 6.5 3.25H14C14.1989 3.25 14.3897 3.32902 14.5303 3.46967L18.5303 7.46967C18.671 7.61032 18.75 7.80109 18.75 8V19.5C18.75 20.1904 18.1904 20.75 17.5 20.75H6.5C5.80964 20.75 5.25 20.1904 5.25 19.5V4.5ZM14.5 8.75C13.8096 8.75 13.25 8.19036 13.25 7.5V4.75H6.75V19.25H17.25V8.75H14.5ZM14.75 5.81066L16.1893 7.25H14.75V5.81066ZM12 11.1287C12.4142 11.1287 12.75 11.4645 12.75 11.8787V13.25H14.1213C14.5355 13.25 14.8713 13.5858 14.8713 14C14.8713 14.4142 14.5355 14.75 14.1213 14.75H12.75V16.1213C12.75 16.5355 12.4142 16.8713 12 16.8713C11.5858 16.8713 11.25 16.5355 11.25 16.1213V14.75H9.87866C9.46445 14.75 9.12866 14.4142 9.12866 14C9.12866 13.5858 9.46445 13.25 9.87866 13.25H11.25V11.8787C11.25 11.4645 11.5858 11.1287 12 11.1287Z" fill="#23262A"/>
</svg>
