<svg width="24" height="24" viewBox="0 0 24 24" fill="none" xmlns="http://www.w3.org/2000/svg">
<path fill-rule="evenodd" clip-rule="evenodd" d="M5.25 4.5C5.25 3.80964 5.80964 3.25 6.5 3.25H14C14.1989 3.25 14.3897 3.32902 14.5303 3.46967L18.5303 7.46967C18.671 7.61032 18.75 7.80109 18.75 8V19.5C18.75 20.1904 18.1904 20.75 17.5 20.75H6.5C5.80964 20.75 5.25 20.1904 5.25 19.5V4.5ZM14.5 8.75C13.8096 8.75 13.25 8.19036 13.25 7.5V4.75H6.75V19.25H17.25V8.75H14.5ZM14.75 5.81066L16.1893 7.25H14.75V5.81066ZM9.75 14C9.75 12.7574 10.7574 11.75 12 11.75C12.9785 11.75 13.8129 12.375 14.1222 13.2499C14.2047 13.4836 14.25 13.7357 14.25 14C14.25 14.4142 14.5858 14.75 15 14.75C15.4142 14.75 15.75 14.4142 15.75 14C15.75 13.563 15.675 13.142 15.5364 12.7501C15.022 11.2946 13.6339 10.25 12 10.25C9.92893 10.25 8.25 11.9289 8.25 14C8.25 15.6339 9.29459 17.022 10.7501 17.5364C11.142 17.675 11.563 17.75 12 17.75C12.4142 17.75 12.75 17.4142 12.75 17C12.75 16.5858 12.4142 16.25 12 16.25C11.7357 16.25 11.4836 16.2047 11.2499 16.1222C10.375 15.8129 9.75 14.9785 9.75 14Z" fill="#23262A"/>
</svg>
