<svg width="24" height="24" viewBox="0 0 24 24" fill="none" xmlns="http://www.w3.org/2000/svg">
<path fill-rule="evenodd" clip-rule="evenodd" d="M5.25 4.5C5.25 3.80964 5.80964 3.25 6.5 3.25H14C14.1989 3.25 14.3897 3.32902 14.5303 3.46967L18.5303 7.46967C18.671 7.61032 18.75 7.80109 18.75 8V19.5C18.75 20.1904 18.1904 20.75 17.5 20.75H6.5C5.80964 20.75 5.25 20.1904 5.25 19.5V4.5ZM14.5 8.75C13.8096 8.75 13.25 8.19036 13.25 7.5V4.75H6.75V19.25H17.25V8.75H14.5ZM14.75 5.81066L16.1893 7.25H14.75V5.81066ZM9.96601 11.0256C9.96601 9.906 10.8749 9 11.9928 9C12.5664 9 13.0857 9.23917 13.454 9.62112C13.7414 9.91932 13.7328 10.3941 13.4346 10.6816C13.1364 10.9691 12.6616 10.9604 12.3741 10.6622C12.2768 10.5613 12.1424 10.5 11.9928 10.5C11.7016 10.5 11.466 10.7362 11.466 11.0256C11.466 11.2386 11.5945 11.4305 11.7915 11.5116L13.7023 12.2984C14.5828 12.661 15.0391 13.6373 14.7523 14.5454C14.6107 14.9939 14.3133 15.3485 13.9395 15.57C13.9933 15.7527 14.0218 15.9449 14.0218 16.1418C14.0218 17.2614 13.1128 18.1674 11.995 18.1674C11.0546 18.1674 10.2641 17.5278 10.0337 16.6602C9.92742 16.2599 10.1658 15.8492 10.5661 15.7429C10.9665 15.6366 11.3772 15.875 11.4835 16.2753C11.5435 16.5012 11.7509 16.6674 11.995 16.6674C12.2862 16.6674 12.5218 16.4312 12.5218 16.1418C12.5218 15.9288 12.3932 15.7369 12.1963 15.6558L10.2855 14.869C9.40499 14.5065 8.94872 13.5301 9.23547 12.6221C9.37711 12.1735 9.67449 11.8189 10.0483 11.5974C9.99451 11.4147 9.96601 11.2225 9.96601 11.0256ZM10.8566 13.482L12.6473 14.2194C12.6562 14.2222 12.6651 14.2252 12.6739 14.2284L12.8916 14.3067C13.0695 14.3708 13.265 14.274 13.3219 14.0937C13.374 13.9287 13.2911 13.7513 13.1312 13.6854L11.3404 12.9481C11.3316 12.9452 11.3227 12.9422 11.3139 12.939L11.0962 12.8607C10.9183 12.7966 10.7228 12.8934 10.6658 13.0738C10.6137 13.2387 10.6966 13.4161 10.8566 13.482Z" fill="#23262A"/>
</svg>
