<svg width="24" height="24" viewBox="0 0 24 24" fill="none" xmlns="http://www.w3.org/2000/svg">
<path fill-rule="evenodd" clip-rule="evenodd" d="M6.5 3.25C5.80964 3.25 5.25 3.80964 5.25 4.5V19.5C5.25 20.1904 5.80964 20.75 6.5 20.75H8.99473C9.00203 20.7501 9.00933 20.7501 9.01663 20.75H16.9961C17.0034 20.7501 17.0107 20.7501 17.018 20.75H17.5C18.1904 20.75 18.75 20.1904 18.75 19.5V8C18.75 7.80109 18.671 7.61032 18.5303 7.46967L14.5303 3.46967C14.3897 3.32902 14.1989 3.25 14 3.25H6.5ZM17.25 19.0134V8.75H14.5C13.8096 8.75 13.25 8.19036 13.25 7.5V4.75H6.75V19.25H8.60498L12.3823 13.584C12.5214 13.3753 12.7556 13.25 13.0064 13.25C13.2571 13.25 13.4913 13.3753 13.6304 13.584L17.25 19.0134ZM10.4078 19.25H15.605L13.0064 15.3521L10.4078 19.25ZM16.1893 7.25L14.75 5.81066V7.25H16.1893ZM10 9.75C9.58579 9.75 9.25 10.0858 9.25 10.5C9.25 10.9142 9.58579 11.25 10 11.25C10.4142 11.25 10.75 10.9142 10.75 10.5C10.75 10.0858 10.4142 9.75 10 9.75ZM7.75 10.5C7.75 9.25736 8.75736 8.25 10 8.25C11.2426 8.25 12.25 9.25736 12.25 10.5C12.25 11.7426 11.2426 12.75 10 12.75C8.75736 12.75 7.75 11.7426 7.75 10.5Z" fill="#23262A"/>
</svg>
