<svg width="24" height="24" viewBox="0 0 24 24" fill="none" xmlns="http://www.w3.org/2000/svg">
<path fill-rule="evenodd" clip-rule="evenodd" d="M8.25 3.5C8.25 2.80964 8.80964 2.25 9.5 2.25H14C14.1989 2.25 14.3897 2.32902 14.5303 2.46967L19.5303 7.46967C19.671 7.61032 19.75 7.80109 19.75 8V16.5C19.75 17.1904 19.1904 17.75 18.5 17.75H9.5C8.80964 17.75 8.25 17.1904 8.25 16.5V3.5ZM14.5 8.75C13.8096 8.75 13.25 8.19036 13.25 7.5V3.75H9.75V16.25H18.25V8.75H14.5ZM14.75 4.81066L17.1893 7.25H14.75V4.81066ZM6.50182 7.75H5.75V20.25H14.25V19.5022C14.25 19.088 14.5858 18.7522 15 18.7522C15.4142 18.7522 15.75 19.088 15.75 19.5022V20.5C15.75 21.1904 15.1904 21.75 14.5 21.75H5.5C4.80964 21.75 4.25 21.1904 4.25 20.5V7.5C4.25 6.80964 4.80964 6.25 5.5 6.25H6.50182C6.91604 6.25 7.25182 6.58579 7.25182 7C7.25182 7.41421 6.91604 7.75 6.50182 7.75Z" fill="#23262A"/>
</svg>
