<svg width="24" height="24" viewBox="0 0 24 24" fill="none" xmlns="http://www.w3.org/2000/svg">
<path fill-rule="evenodd" clip-rule="evenodd" d="M6.5 3.25C5.80964 3.25 5.25 3.80964 5.25 4.5V19.5C5.25 20.1904 5.80964 20.75 6.5 20.75H17.5C18.1904 20.75 18.75 20.1904 18.75 19.5V8C18.75 7.80109 18.671 7.61032 18.5303 7.46967L14.5303 3.46967C14.3897 3.32902 14.1989 3.25 14 3.25H6.5ZM13.25 7.5C13.25 8.19036 13.8096 8.75 14.5 8.75H17.25V19.25H6.75V4.75H13.25V7.5ZM16.1893 7.25L14.75 5.81066V7.25H16.1893ZM15.5303 14.2803L13.7803 16.0303C13.4874 16.3232 13.0126 16.3232 12.7197 16.0303C12.4268 15.7374 12.4268 15.2626 12.7197 14.9697L13.9393 13.75L12.7197 12.5303C12.4268 12.2374 12.4268 11.7626 12.7197 11.4697C13.0126 11.1768 13.4874 11.1768 13.7803 11.4697L15.5303 13.2197C15.8232 13.5126 15.8232 13.9874 15.5303 14.2803ZM8.46967 14.2803C8.17678 13.9874 8.17678 13.5126 8.46967 13.2197L10.2197 11.4697C10.5126 11.1768 10.9874 11.1768 11.2803 11.4697C11.5732 11.7626 11.5732 12.2374 11.2803 12.5303L10.0607 13.75L11.2803 14.9697C11.5732 15.2626 11.5732 15.7374 11.2803 16.0303C10.9874 16.3232 10.5126 16.3232 10.2197 16.0303L8.46967 14.2803Z" fill="#23262A"/>
</svg>
