<svg width="24" height="24" viewBox="0 0 24 24" fill="none" xmlns="http://www.w3.org/2000/svg">
<path fill-rule="evenodd" clip-rule="evenodd" d="M5.25 4.5C5.25 3.80964 5.80964 3.25 6.5 3.25H14C14.1989 3.25 14.3897 3.32902 14.5303 3.46967L18.5303 7.46967C18.671 7.61032 18.75 7.80109 18.75 8V19.5C18.75 20.1904 18.1904 20.75 17.5 20.75H6.5C5.80964 20.75 5.25 20.1904 5.25 19.5V4.5ZM14.5 8.75C13.8096 8.75 13.25 8.19036 13.25 7.5V4.75H6.75V19.25H17.25V8.75H14.5ZM14.75 5.81066L16.1893 7.25H14.75V5.81066ZM13.1254 12.0515C12.2968 11.5731 11.2886 11.6811 10.5849 12.25H11C11.4142 12.25 11.75 12.5858 11.75 13C11.75 13.4142 11.4142 13.75 11 13.75H9C8.58579 13.75 8.25 13.4142 8.25 13V11C8.25 10.5858 8.58579 10.25 9 10.25C9.41401 10.25 9.74966 10.5855 9.75 10.9994C10.9144 10.127 12.5339 9.97791 13.8754 10.7524C15.669 11.788 16.2835 14.0814 15.248 15.875C14.5535 17.078 13.2933 17.7495 12.0006 17.7505C11.5864 17.7509 11.2503 17.4153 11.25 17.0011C11.2497 16.5869 11.5852 16.2509 11.9994 16.2505C12.7786 16.2499 13.533 15.8455 13.949 15.125C14.5703 14.0489 14.2016 12.6728 13.1254 12.0515Z" fill="#23262A"/>
</svg>
