<svg width="24" height="24" viewBox="0 0 24 24" fill="none" xmlns="http://www.w3.org/2000/svg">
<path fill-rule="evenodd" clip-rule="evenodd" d="M5.25 4.5C5.25 3.80964 5.80964 3.25 6.5 3.25H14C14.1989 3.25 14.3897 3.32902 14.5303 3.46967L18.5303 7.46967C18.671 7.61032 18.75 7.80109 18.75 8V10.25H21C21.4142 10.25 21.75 10.5858 21.75 11V20C21.75 20.4142 21.4142 20.75 21 20.75H3C2.58579 20.75 2.25 20.4142 2.25 20V11C2.25 10.5858 2.58579 10.25 3 10.25H5.25V4.5ZM6.75 10.25H17.25V8.75H14.5C13.8096 8.75 13.25 8.19036 13.25 7.5V4.75H6.75V10.25ZM14.75 5.81066L16.1893 7.25H14.75V5.81066ZM11.2395 17.3981C11.4555 17.5061 11.7095 17.5601 12.0015 17.5601C12.2975 17.5601 12.5515 17.5061 12.7635 17.3981C12.9795 17.2861 13.1455 17.1321 13.2615 16.9361C13.3815 16.7361 13.4415 16.5041 13.4415 16.2401V14.3801C13.4415 14.1161 13.3815 13.8861 13.2615 13.6901C13.1455 13.4901 12.9795 13.3361 12.7635 13.2281C12.5515 13.1161 12.2975 13.0601 12.0015 13.0601C11.7095 13.0601 11.4555 13.1161 11.2395 13.2281C11.0235 13.3361 10.8555 13.4901 10.7355 13.6901C10.6195 13.8861 10.5615 14.1161 10.5615 14.3801V16.2401C10.5615 16.5041 10.6195 16.7361 10.7355 16.9361C10.8555 17.1321 11.0235 17.2861 11.2395 17.3981ZM12.4035 16.6421C12.3155 16.7341 12.1815 16.7801 12.0015 16.7801C11.8215 16.7801 11.6855 16.7341 11.5935 16.6421C11.5055 16.5461 11.4615 16.4121 11.4615 16.2401V14.3801C11.4615 14.2041 11.5055 14.0701 11.5935 13.9781C11.6815 13.8861 11.8175 13.8401 12.0015 13.8401C12.1855 13.8401 12.3215 13.8861 12.4095 13.9781C12.4975 14.0701 12.5415 14.2041 12.5415 14.3801V16.2401C12.5415 16.4121 12.4955 16.5461 12.4035 16.6421ZM6.92188 13.1201V17.5001H8.34387C8.64788 17.5001 8.91187 17.4421 9.13587 17.3261C9.36387 17.2061 9.53988 17.0401 9.66388 16.8281C9.79188 16.6161 9.85588 16.3701 9.85588 16.0901V14.5241C9.85588 14.2401 9.79188 13.9941 9.66388 13.7861C9.53988 13.5741 9.36387 13.4101 9.13587 13.2941C8.91187 13.1781 8.64788 13.1201 8.34387 13.1201H6.92188ZM8.34387 16.6601H7.82188V13.9601H8.34387C8.52787 13.9601 8.67587 14.0121 8.78788 14.1161C8.89987 14.2201 8.95588 14.3561 8.95588 14.5241V16.0901C8.95588 16.2621 8.89987 16.4001 8.78788 16.5041C8.67587 16.6081 8.52787 16.6601 8.34387 16.6601ZM15.6832 17.5601C15.3912 17.5601 15.1352 17.5061 14.9152 17.3981C14.6952 17.2861 14.5232 17.1321 14.3992 16.9361C14.2792 16.7361 14.2192 16.5041 14.2192 16.2401V14.3801C14.2192 14.1121 14.2792 13.8801 14.3992 13.6841C14.5232 13.4881 14.6952 13.3361 14.9152 13.2281C15.1352 13.1161 15.3912 13.0601 15.6832 13.0601C15.9792 13.0601 16.2352 13.1161 16.4512 13.2281C16.6712 13.3361 16.8412 13.4881 16.9612 13.6841C17.0852 13.8801 17.1472 14.1121 17.1472 14.3801H16.2472C16.2472 14.2041 16.1972 14.0701 16.0972 13.9781C16.0012 13.8861 15.8632 13.8401 15.6832 13.8401C15.5032 13.8401 15.3632 13.8861 15.2632 13.9781C15.1672 14.0701 15.1192 14.2041 15.1192 14.3801V16.2401C15.1192 16.4121 15.1672 16.5461 15.2632 16.6421C15.3632 16.7341 15.5032 16.7801 15.6832 16.7801C15.8632 16.7801 16.0012 16.7341 16.0972 16.6421C16.1972 16.5461 16.2472 16.4121 16.2472 16.2401H17.1472C17.1472 16.5041 17.0852 16.7361 16.9612 16.9361C16.8412 17.1321 16.6712 17.2861 16.4512 17.3981C16.2352 17.5061 15.9792 17.5601 15.6832 17.5601Z" fill="#262626"/>
</svg>
