<svg width="24" height="24" viewBox="0 0 24 24" fill="none" xmlns="http://www.w3.org/2000/svg">
<path fill-rule="evenodd" clip-rule="evenodd" d="M17.25 17.75C17.25 17.3358 17.5858 17 18 17C18.4142 17 18.75 17.3358 18.75 17.75V19.5C18.75 20.1904 18.1904 20.75 17.5 20.75H6.5C5.80964 20.75 5.25 20.1904 5.25 19.5V4.5C5.25 3.80964 5.80964 3.25 6.5 3.25H14C14.1989 3.25 14.3897 3.32902 14.5303 3.46967L18.5303 7.46967C18.671 7.61032 18.75 7.80109 18.75 8V10.25C18.75 10.6642 18.4142 11 18 11C17.5858 11 17.25 10.6642 17.25 10.25V8.75H14.5C13.8096 8.75 13.25 8.19036 13.25 7.5V4.75H6.75V19.25H17.25V17.75ZM14.75 5.81066L16.1893 7.25H14.75V5.81066ZM13.5303 10.2197C13.8232 10.5126 13.8232 10.9874 13.5303 11.2803L11.5607 13.25H18C18.4142 13.25 18.75 13.5858 18.75 14C18.75 14.4142 18.4142 14.75 18 14.75H11.5607L13.5303 16.7197C13.8232 17.0126 13.8232 17.4874 13.5303 17.7803C13.2374 18.0732 12.7626 18.0732 12.4697 17.7803L9.21967 14.5303C8.92678 14.2374 8.92678 13.7626 9.21967 13.4697L12.4697 10.2197C12.7626 9.92678 13.2374 9.92678 13.5303 10.2197Z" fill="#23262A"/>
</svg>
