<svg width="24" height="24" viewBox="0 0 24 24" fill="none" xmlns="http://www.w3.org/2000/svg">
<path fill-rule="evenodd" clip-rule="evenodd" d="M6.5 3.25C5.80964 3.25 5.25 3.80964 5.25 4.5V10.25H3C2.58579 10.25 2.25 10.5858 2.25 11V20C2.25 20.4142 2.58579 20.75 3 20.75H21C21.4142 20.75 21.75 20.4142 21.75 20V11C21.75 10.5858 21.4142 10.25 21 10.25H18.75V8C18.75 7.80109 18.671 7.61032 18.5303 7.46967L14.5303 3.46967C14.3897 3.32902 14.1989 3.25 14 3.25H6.5ZM17.25 10.25H6.75V4.75H13.25V7.5C13.25 8.19036 13.8096 8.75 14.5 8.75H17.25V10.25ZM16.1893 7.25L14.75 5.81066V7.25H16.1893ZM3.75 11.75V19.25H20.25V11.75H3.75ZM14.8554 17.4041C15.0834 17.5081 15.3514 17.5601 15.6594 17.5601C15.9674 17.5601 16.2334 17.5061 16.4574 17.3981C16.6854 17.2901 16.8614 17.1381 16.9854 16.9421C17.1134 16.7461 17.1774 16.5201 17.1774 16.2641C17.1774 15.9081 17.0774 15.6161 16.8774 15.3881C16.6774 15.1561 16.3834 14.9961 15.9954 14.9081L15.5274 14.8001C15.3914 14.7681 15.2854 14.7081 15.2094 14.6201C15.1374 14.5281 15.1014 14.4181 15.1014 14.2901C15.1014 14.1461 15.1474 14.0361 15.2394 13.9601C15.3314 13.8801 15.4634 13.8401 15.6354 13.8401C15.8194 13.8401 15.9594 13.8801 16.0554 13.9601C16.1554 14.0401 16.2054 14.1501 16.2054 14.2901H17.1054C17.1054 13.9141 16.9734 13.6161 16.7094 13.3961C16.4494 13.1721 16.0954 13.0601 15.6474 13.0601C15.3514 13.0601 15.0954 13.1121 14.8794 13.2161C14.6634 13.3201 14.4954 13.4681 14.3754 13.6601C14.2594 13.8481 14.2014 14.0701 14.2014 14.3261C14.2014 14.6701 14.3034 14.9621 14.5074 15.2021C14.7154 15.4381 15.0054 15.6001 15.3774 15.6881L15.8214 15.7901C15.9654 15.8221 16.0774 15.8841 16.1574 15.9761C16.2374 16.0681 16.2774 16.1781 16.2774 16.3061C16.2774 16.4541 16.2234 16.5701 16.1154 16.6541C16.0114 16.7381 15.8654 16.7801 15.6774 16.7801C15.4814 16.7801 15.3254 16.7381 15.2094 16.6541C15.0974 16.5661 15.0414 16.4481 15.0414 16.3001H14.1414C14.1414 16.5561 14.2034 16.7781 14.3274 16.9661C14.4514 17.1541 14.6274 17.3001 14.8554 17.4041ZM6.66406 17.5001L7.84006 15.2381L6.74206 13.1201H7.73206L8.18806 14.0801C8.23206 14.1681 8.26806 14.2481 8.29606 14.3201C8.32806 14.3921 8.34806 14.4441 8.35606 14.4761C8.36406 14.4441 8.38206 14.3921 8.41006 14.3201C8.43806 14.2481 8.47206 14.1681 8.51206 14.0801L8.98006 13.1201H9.94606L8.84806 15.2381L10.0241 17.5001H9.03406L8.50606 16.4201C8.46606 16.3321 8.43006 16.2501 8.39806 16.1741C8.36606 16.0981 8.34206 16.0401 8.32606 16.0001C8.31406 16.0401 8.29406 16.0981 8.26606 16.1741C8.23806 16.2501 8.20206 16.3321 8.15806 16.4201L7.63006 17.5001H6.66406ZM10.7717 17.5001V13.1201H11.6717V16.6601H13.4417V17.5001H10.7717Z" fill="#262626"/>
</svg>
