<svg width="24" height="24" viewBox="0 0 24 24" fill="none" xmlns="http://www.w3.org/2000/svg">
<path fill-rule="evenodd" clip-rule="evenodd" d="M6.75 4.75V19.25H17.25V8.75H14.5C13.8096 8.75 13.25 8.19036 13.25 7.5V4.75H6.75ZM14.75 5.81066V7.25H16.1893L14.75 5.81066ZM5.25 4.5C5.25 3.80964 5.80964 3.25 6.5 3.25H14C14.1989 3.25 14.3897 3.32902 14.5303 3.46967L18.5303 7.46967C18.671 7.61032 18.75 7.80109 18.75 8V19.5C18.75 20.1904 18.1904 20.75 17.5 20.75H6.5C5.80964 20.75 5.25 20.1904 5.25 19.5V4.5ZM9 12.25C8.58579 12.25 8.25 12.5858 8.25 13C8.25 13.4142 8.58579 13.75 9 13.75H12.5C12.9142 13.75 13.25 13.4142 13.25 13C13.25 12.5858 12.9142 12.25 12.5 12.25H9ZM9 15.25C8.58579 15.25 8.25 15.5858 8.25 16C8.25 16.4142 8.58579 16.75 9 16.75H14.5C14.9142 16.75 15.25 16.4142 15.25 16C15.25 15.5858 14.9142 15.25 14.5 15.25H9Z" fill="#23262A"/>
</svg>
