<svg width="24" height="24" viewBox="0 0 24 24" fill="none" xmlns="http://www.w3.org/2000/svg">
<path fill-rule="evenodd" clip-rule="evenodd" d="M5.25 4.5C5.25 3.80964 5.80964 3.25 6.5 3.25H14C14.1989 3.25 14.3897 3.32902 14.5303 3.46967L18.5303 7.46967C18.671 7.61032 18.75 7.80109 18.75 8V10.25H21C21.4142 10.25 21.75 10.5858 21.75 11V20C21.75 20.4142 21.4142 20.75 21 20.75H3C2.58579 20.75 2.25 20.4142 2.25 20V11C2.25 10.5858 2.58579 10.25 3 10.25H5.25V4.5ZM6.75 10.25H17.25V8.75H14.5C13.8096 8.75 13.25 8.19036 13.25 7.5V4.75H6.75V10.25ZM14.75 5.81066L16.1893 7.25H14.75V5.81066ZM7.6003 17.3981C7.8203 17.5061 8.0763 17.5601 8.3683 17.5601C8.6643 17.5601 8.9203 17.5061 9.1363 17.3981C9.3563 17.2861 9.5263 17.1321 9.6463 16.9361C9.7703 16.7361 9.8323 16.5041 9.8323 16.2401H8.9323C8.9323 16.4121 8.8823 16.5461 8.7823 16.6421C8.6863 16.7341 8.5483 16.7801 8.3683 16.7801C8.1883 16.7801 8.0483 16.7341 7.9483 16.6421C7.8523 16.5461 7.8043 16.4121 7.8043 16.2401V14.3801C7.8043 14.2041 7.8523 14.0701 7.9483 13.9781C8.0483 13.8861 8.1883 13.8401 8.3683 13.8401C8.5483 13.8401 8.6863 13.8861 8.7823 13.9781C8.8823 14.0701 8.9323 14.2041 8.9323 14.3801H9.8323C9.8323 14.1121 9.7703 13.8801 9.6463 13.6841C9.5263 13.4881 9.3563 13.3361 9.1363 13.2281C8.9203 13.1161 8.6643 13.0601 8.3683 13.0601C8.0763 13.0601 7.8203 13.1161 7.6003 13.2281C7.3803 13.3361 7.2083 13.4881 7.0843 13.6841C6.9643 13.8801 6.9043 14.1121 6.9043 14.3801V16.2401C6.9043 16.5041 6.9643 16.7361 7.0843 16.9361C7.2083 17.1321 7.3803 17.2861 7.6003 17.3981ZM11.198 17.4041C11.426 17.5081 11.694 17.5601 12.002 17.5601C12.31 17.5601 12.576 17.5061 12.8 17.3981C13.028 17.2901 13.204 17.1381 13.328 16.9421C13.456 16.7461 13.52 16.5201 13.52 16.2641C13.52 15.9081 13.42 15.6161 13.22 15.3881C13.02 15.1561 12.726 14.9961 12.338 14.9081L11.87 14.8001C11.734 14.7681 11.628 14.7081 11.552 14.6201C11.48 14.5281 11.444 14.4181 11.444 14.2901C11.444 14.1461 11.49 14.0361 11.582 13.9601C11.674 13.8801 11.806 13.8401 11.978 13.8401C12.162 13.8401 12.302 13.8801 12.398 13.9601C12.498 14.0401 12.548 14.1501 12.548 14.2901H13.448C13.448 13.9141 13.316 13.6161 13.052 13.3961C12.792 13.1721 12.438 13.0601 11.99 13.0601C11.694 13.0601 11.438 13.1121 11.222 13.2161C11.006 13.3201 10.838 13.4681 10.718 13.6601C10.602 13.8481 10.544 14.0701 10.544 14.3261C10.544 14.6701 10.646 14.9621 10.85 15.2021C11.058 15.4381 11.348 15.6001 11.72 15.6881L12.164 15.7901C12.308 15.8221 12.42 15.8841 12.5 15.9761C12.58 16.0681 12.62 16.1781 12.62 16.3061C12.62 16.4541 12.566 16.5701 12.458 16.6541C12.354 16.7381 12.208 16.7801 12.02 16.7801C11.824 16.7801 11.668 16.7381 11.552 16.6541C11.44 16.5661 11.384 16.4481 11.384 16.3001H10.484C10.484 16.5561 10.546 16.7781 10.67 16.9661C10.794 17.1541 10.97 17.3001 11.198 17.4041ZM15.0956 17.5001L14.0096 13.1201H14.9396L15.5456 15.8861C15.5656 15.9821 15.5896 16.1041 15.6176 16.2521C15.6496 16.4001 15.6736 16.5261 15.6896 16.6301C15.7056 16.5261 15.7256 16.4001 15.7496 16.2521C15.7736 16.1041 15.7956 15.9801 15.8156 15.8801L16.4036 13.1201H17.3096L16.2356 17.5001H15.0956Z" fill="#262626"/>
</svg>
