<svg width="24" height="24" viewBox="0 0 24 24" fill="none" xmlns="http://www.w3.org/2000/svg">
<path fill-rule="evenodd" clip-rule="evenodd" d="M6.75 19.25V4.75H13.25V7.5C13.25 8.19036 13.8096 8.75 14.5 8.75H17.25V9.5V10.25C17.25 10.6642 17.5858 11 18 11C18.4142 11 18.75 10.6642 18.75 10.25V9.5V8C18.75 7.80109 18.671 7.61032 18.5303 7.46967L14.5303 3.46967C14.3897 3.32902 14.1989 3.25 14 3.25H6.5C5.80964 3.25 5.25 3.80964 5.25 4.5V19.5C5.25 20.1904 5.80964 20.75 6.5 20.75H17.5C18.1904 20.75 18.75 20.1904 18.75 19.5V18.5V17.75C18.75 17.3358 18.4142 17 18 17C17.5858 17 17.25 17.3358 17.25 17.75V18.5V19.25H6.75ZM16.1893 7.25L14.75 5.81066V7.25H16.1893ZM13.5303 10.2197C13.8232 10.5126 13.8232 10.9874 13.5303 11.2803L11.5607 13.25H18C18.4142 13.25 18.75 13.5858 18.75 14C18.75 14.4142 18.4142 14.75 18 14.75H11.5607L13.5303 16.7197C13.8232 17.0126 13.8232 17.4874 13.5303 17.7803C13.2374 18.0732 12.7626 18.0732 12.4697 17.7803L9.22044 14.5311C9.21801 14.5287 9.2156 14.5262 9.21321 14.5238C9.14507 14.454 9.09326 14.3742 9.05779 14.2892C9.02056 14.2002 9 14.1025 9 14C9 13.8975 9.02056 13.7998 9.05779 13.7108C9.09326 13.6258 9.14507 13.546 9.21321 13.4762C9.2156 13.4738 9.21801 13.4713 9.22044 13.4689L12.4697 10.2197C12.7626 9.92678 13.2374 9.92678 13.5303 10.2197Z" fill="#262626"/>
</svg>
