<svg width="24" height="24" viewBox="0 0 24 24" fill="none" xmlns="http://www.w3.org/2000/svg">
<path fill-rule="evenodd" clip-rule="evenodd" d="M13.25 7.5V3.5C13.25 3.36193 13.1381 3.25 13 3.25H6.5C5.80964 3.25 5.25 3.80964 5.25 4.5V19.5C5.25 20.1904 5.80964 20.75 6.5 20.75H17.5C18.1904 20.75 18.75 20.1904 18.75 19.5V15C18.75 14.8619 18.6381 14.75 18.5 14.75H12.1642C11.9415 14.75 11.8299 15.0193 11.9874 15.1768L13.5303 16.7197C13.8232 17.0126 13.8232 17.4874 13.5303 17.7803C13.2374 18.0732 12.7626 18.0732 12.4697 17.7803L9.21967 14.5303C8.92678 14.2374 8.92678 13.7626 9.21967 13.4697L12.4697 10.2197C12.7626 9.92678 13.2374 9.92678 13.5303 10.2197C13.8232 10.5126 13.8232 10.9874 13.5303 11.2803L11.9874 12.8232C11.8299 12.9807 11.9415 13.25 12.1642 13.25H18.5C18.6381 13.25 18.75 13.1381 18.75 13V9C18.75 8.86193 18.6381 8.75 18.5 8.75H14.5C13.8096 8.75 13.25 8.19036 13.25 7.5ZM15 7.25C14.8619 7.25 14.75 7.13807 14.75 7V4.29289C14.75 4.07017 15.0193 3.95863 15.1768 4.11612L17.8839 6.82322C18.0414 6.98071 17.9298 7.25 17.7071 7.25H15Z" fill="#23262A"/>
</svg>
