<svg width="24" height="24" viewBox="0 0 24 24" fill="none" xmlns="http://www.w3.org/2000/svg">
<path fill-rule="evenodd" clip-rule="evenodd" d="M5.25 4.5C5.25 3.80964 5.80964 3.25 6.5 3.25H14C14.1989 3.25 14.3897 3.32902 14.5303 3.46967L18.5303 7.46967C18.671 7.61032 18.75 7.80109 18.75 8V12.25H21C21.4142 12.25 21.75 12.5858 21.75 13V20C21.75 20.4142 21.4142 20.75 21 20.75H3C2.58579 20.75 2.25 20.4142 2.25 20V13C2.25 12.5858 2.58579 12.25 3 12.25H5.25V4.5ZM14.5 8.75C13.8096 8.75 13.25 8.19036 13.25 7.5V4.75H6.75V12.25H17.25V8.75H14.5ZM14.75 5.81066L16.1893 7.25H14.75V5.81066ZM7.62206 19.0701C7.2814 19.0701 6.98273 19.0071 6.72606 18.8811C6.4694 18.7504 6.26873 18.5707 6.12406 18.3421C5.98406 18.1087 5.91406 17.8381 5.91406 17.5301V15.3601C5.91406 15.0474 5.98406 14.7767 6.12406 14.5481C6.26873 14.3194 6.4694 14.1421 6.72606 14.0161C6.98273 13.8854 7.2814 13.8201 7.62206 13.8201C7.9674 13.8201 8.26606 13.8854 8.51806 14.0161C8.77473 14.1421 8.97306 14.3194 9.11306 14.5481C9.25773 14.7767 9.33006 15.0474 9.33006 15.3601H8.28006C8.28006 15.1547 8.22173 14.9984 8.10506 14.8911C7.99306 14.7837 7.83206 14.7301 7.62206 14.7301C7.41206 14.7301 7.24873 14.7837 7.13206 14.8911C7.02006 14.9984 6.96406 15.1547 6.96406 15.3601V17.5301C6.96406 17.7307 7.02006 17.8871 7.13206 17.9991C7.24873 18.1064 7.41206 18.1601 7.62206 18.1601C7.83206 18.1601 7.99306 18.1064 8.10506 17.9991C8.22173 17.8871 8.28006 17.7307 8.28006 17.5301H9.33006C9.33006 17.8381 9.25773 18.1087 9.11306 18.3421C8.97306 18.5707 8.77473 18.7504 8.51806 18.8811C8.26606 19.0071 7.9674 19.0701 7.62206 19.0701ZM12.0013 19.0701C11.642 19.0701 11.3293 19.0094 11.0633 18.8881C10.7973 18.7667 10.592 18.5964 10.4473 18.3771C10.3027 18.1577 10.2303 17.8987 10.2303 17.6001H11.2803C11.2803 17.7727 11.3457 17.9104 11.4763 18.0131C11.6117 18.1111 11.7937 18.1601 12.0223 18.1601C12.2417 18.1601 12.412 18.1111 12.5333 18.0131C12.6593 17.9151 12.7223 17.7797 12.7223 17.6071C12.7223 17.4577 12.6757 17.3294 12.5823 17.2221C12.489 17.1147 12.3583 17.0424 12.1903 17.0051L11.6723 16.8861C11.2383 16.7834 10.9 16.5944 10.6573 16.3191C10.4193 16.0391 10.3003 15.6984 10.3003 15.2971C10.3003 14.9984 10.368 14.7394 10.5033 14.5201C10.6433 14.2961 10.8393 14.1234 11.0913 14.0021C11.3433 13.8807 11.642 13.8201 11.9873 13.8201C12.51 13.8201 12.923 13.9507 13.2263 14.2121C13.5343 14.4687 13.6883 14.8164 13.6883 15.2551H12.6383C12.6383 15.0917 12.58 14.9634 12.4633 14.8701C12.3513 14.7767 12.188 14.7301 11.9733 14.7301C11.7727 14.7301 11.6187 14.7767 11.5113 14.8701C11.404 14.9587 11.3503 15.0871 11.3503 15.2551C11.3503 15.4044 11.3923 15.5327 11.4763 15.6401C11.565 15.7427 11.6887 15.8127 11.8473 15.8501L12.3933 15.9761C12.846 16.0787 13.189 16.2654 13.4223 16.5361C13.6557 16.8021 13.7723 17.1427 13.7723 17.5581C13.7723 17.8567 13.6977 18.1204 13.5483 18.3491C13.4037 18.5777 13.1983 18.7551 12.9323 18.8811C12.671 19.0071 12.3607 19.0701 12.0013 19.0701ZM14.4836 13.8901L15.7506 19.0001H17.0806L18.3336 13.8901H17.2766L16.5906 17.1101C16.5673 17.2267 16.5416 17.3714 16.5136 17.5441C16.4856 17.7167 16.4623 17.8637 16.4436 17.9851C16.4249 17.8637 16.3969 17.7167 16.3596 17.5441C16.3269 17.3714 16.2989 17.2291 16.2756 17.1171L15.5686 13.8901H14.4836Z" fill="#23262A"/>
</svg>
