<svg width="24" height="24" viewBox="0 0 24 24" fill="none" xmlns="http://www.w3.org/2000/svg">
<path fill-rule="evenodd" clip-rule="evenodd" d="M6.75 19.25V4.75H13.25V7.5C13.25 8.19036 13.8096 8.75 14.5 8.75H17.25V19.25H6.75ZM16.1893 7.25L14.75 5.81066V7.25H16.1893ZM6.5 3.25C5.80964 3.25 5.25 3.80964 5.25 4.5V19.5C5.25 20.1904 5.80964 20.75 6.5 20.75H17.5C18.1904 20.75 18.75 20.1904 18.75 19.5V8C18.75 7.80109 18.671 7.61032 18.5303 7.46967L14.5303 3.46967C14.3897 3.32902 14.1989 3.25 14 3.25H6.5ZM9.12868 14C9.12868 13.5858 9.46447 13.25 9.87868 13.25H11.25V11.8787C11.25 11.4645 11.5858 11.1287 12 11.1287C12.4142 11.1287 12.75 11.4645 12.75 11.8787V13.25H14.1213C14.5355 13.25 14.8713 13.5858 14.8713 14C14.8713 14.4142 14.5355 14.75 14.1213 14.75H12.75V16.1213C12.75 16.5355 12.4142 16.8713 12 16.8713C11.5858 16.8713 11.25 16.5355 11.25 16.1213V14.75H9.87868C9.46447 14.75 9.12868 14.4142 9.12868 14Z" fill="#262626"/>
</svg>
