<svg width="24" height="24" viewBox="0 0 24 24" fill="none" xmlns="http://www.w3.org/2000/svg">
<path fill-rule="evenodd" clip-rule="evenodd" d="M13.25 3.5C13.25 3.36193 13.1381 3.25 13 3.25H6.5C5.80964 3.25 5.25 3.80964 5.25 4.5V10.5C5.25 10.6381 5.36193 10.75 5.5 10.75H18.5C18.6381 10.75 18.75 10.6381 18.75 10.5V9C18.75 8.86193 18.6381 8.75 18.5 8.75H14.5C13.8096 8.75 13.25 8.19036 13.25 7.5V3.5ZM15 7.25C14.8619 7.25 14.75 7.13807 14.75 7V4.29289C14.75 4.07017 15.0193 3.95863 15.1768 4.11612L17.8839 6.82322C18.0414 6.98071 17.9298 7.25 17.7071 7.25H15ZM3 12.25C2.58579 12.25 2.25 12.5858 2.25 13V20C2.25 20.4142 2.58579 20.75 3 20.75H21C21.4142 20.75 21.75 20.4142 21.75 20V13C21.75 12.5858 21.4142 12.25 21 12.25H3ZM12.0018 19.0701C11.6611 19.0701 11.3648 19.0071 11.1128 18.8811C10.8608 18.7504 10.6648 18.5707 10.5248 18.3421C10.3895 18.1087 10.3218 17.8381 10.3218 17.5301V15.3601C10.3218 15.0521 10.3895 14.7837 10.5248 14.5551C10.6648 14.3217 10.8608 14.1421 11.1128 14.0161C11.3648 13.8854 11.6611 13.8201 12.0018 13.8201C12.3471 13.8201 12.6435 13.8854 12.8908 14.0161C13.1428 14.1421 13.3365 14.3217 13.4718 14.5551C13.6118 14.7837 13.6818 15.0521 13.6818 15.3601V17.5301C13.6818 17.8381 13.6118 18.1087 13.4718 18.3421C13.3365 18.5707 13.1428 18.7504 12.8908 18.8811C12.6435 19.0071 12.3471 19.0701 12.0018 19.0701ZM7.59455 13.8901C7.94921 13.8901 8.25721 13.9577 8.51855 14.0931C8.78455 14.2284 8.98988 14.4197 9.13455 14.6671C9.28388 14.9097 9.35855 15.1967 9.35855 15.5281V17.3551C9.35855 17.6817 9.28388 17.9687 9.13455 18.2161C8.98988 18.4634 8.78455 18.6571 8.51855 18.7971C8.25721 18.9324 7.94921 19.0001 7.59455 19.0001H5.93555V13.8901H7.59455ZM15.5411 18.8811C15.7977 19.0071 16.0964 19.0701 16.4371 19.0701C16.7824 19.0701 17.0811 19.0071 17.3331 18.8811C17.5897 18.7504 17.7881 18.5707 17.9281 18.3421C18.0727 18.1087 18.1451 17.8381 18.1451 17.5301H17.0951C17.0951 17.7307 17.0367 17.8871 16.9201 17.9991C16.8081 18.1064 16.6471 18.1601 16.4371 18.1601C16.2271 18.1601 16.0637 18.1064 15.9471 17.9991C15.8351 17.8871 15.7791 17.7307 15.7791 17.5301V15.3601C15.7791 15.1547 15.8351 14.9984 15.9471 14.8911C16.0637 14.7837 16.2271 14.7301 16.4371 14.7301C16.6471 14.7301 16.8081 14.7837 16.9201 14.8911C17.0367 14.9984 17.0951 15.1547 17.0951 15.3601H18.1451C18.1451 15.0474 18.0727 14.7767 17.9281 14.5481C17.7881 14.3194 17.5897 14.1421 17.3331 14.0161C17.0811 13.8854 16.7824 13.8201 16.4371 13.8201C16.0964 13.8201 15.7977 13.8854 15.5411 14.0161C15.2844 14.1421 15.0837 14.3194 14.9391 14.5481C14.7991 14.7767 14.7291 15.0474 14.7291 15.3601V17.5301C14.7291 17.8381 14.7991 18.1087 14.9391 18.3421C15.0837 18.5707 15.2844 18.7504 15.5411 18.8811ZM12.0018 18.1601C12.2118 18.1601 12.3681 18.1064 12.4708 17.9991C12.5781 17.8871 12.6318 17.7307 12.6318 17.5301V15.3601C12.6318 15.1547 12.5805 14.9984 12.4778 14.8911C12.3751 14.7837 12.2165 14.7301 12.0018 14.7301C11.7871 14.7301 11.6285 14.7837 11.5258 14.8911C11.4231 14.9984 11.3718 15.1547 11.3718 15.3601V17.5301C11.3718 17.7307 11.4231 17.8871 11.5258 17.9991C11.6331 18.1064 11.7918 18.1601 12.0018 18.1601ZM8.11255 15.0521C7.98188 14.9307 7.80921 14.8701 7.59455 14.8701H6.98555V18.0201H7.59455C7.80921 18.0201 7.98188 17.9594 8.11255 17.8381C8.24321 17.7167 8.30855 17.5557 8.30855 17.3551V15.5281C8.30855 15.3321 8.24321 15.1734 8.11255 15.0521Z" fill="#23262A"/>
</svg>
