<svg width="24" height="24" viewBox="0 0 24 24" fill="none" xmlns="http://www.w3.org/2000/svg">
<path fill-rule="evenodd" clip-rule="evenodd" d="M13 3.25C13.1381 3.25 13.25 3.36193 13.25 3.5V7.5C13.25 8.19036 13.8096 8.75 14.5 8.75H18.5C18.6381 8.75 18.75 8.86193 18.75 9V10.5C18.75 10.6381 18.6381 10.75 18.5 10.75H5.5C5.36193 10.75 5.25 10.6381 5.25 10.5V4.5C5.25 3.80964 5.80964 3.25 6.5 3.25H13ZM15.1768 4.11612C15.0193 3.95863 14.75 4.07017 14.75 4.29289V7C14.75 7.13807 14.8619 7.25 15 7.25H17.7071C17.9298 7.25 18.0414 6.98072 17.8839 6.82322L15.1768 4.11612Z" fill="#23262A"/>
<path d="M9.90274 16.193H9.20973V14.835H9.90274C10.1267 14.835 10.3041 14.898 10.4347 15.024C10.5701 15.1453 10.6377 15.3087 10.6377 15.514C10.6377 15.7193 10.5701 15.885 10.4347 16.011C10.3041 16.1323 10.1267 16.193 9.90274 16.193Z" fill="#23262A"/>
<path fill-rule="evenodd" clip-rule="evenodd" d="M3 12.25C2.58579 12.25 2.25 12.5858 2.25 13V20C2.25 20.4142 2.58579 20.75 3 20.75H21C21.4142 20.75 21.75 20.4142 21.75 20V13C21.75 12.5858 21.4142 12.25 21 12.25H3ZM3.89947 18.643C4.2168 18.9323 4.6438 19.077 5.18047 19.077C5.7218 19.077 6.1488 18.9347 6.46147 18.65C6.77414 18.3607 6.93047 17.9687 6.93047 17.474V13.89H4.72547V14.87H5.88047V17.474C5.88047 17.6887 5.81747 17.859 5.69147 17.985C5.56547 18.1063 5.39514 18.167 5.18047 18.167C4.9658 18.167 4.79547 18.104 4.66947 17.978C4.54347 17.8473 4.48047 17.6747 4.48047 17.46H3.43047C3.43047 17.9547 3.5868 18.349 3.89947 18.643ZM8.15973 13.89V19H9.20973V17.138H9.90274C10.2621 17.138 10.5747 17.0703 10.8407 16.935C11.1067 16.7997 11.3144 16.6107 11.4637 16.368C11.6131 16.1207 11.6877 15.836 11.6877 15.514C11.6877 15.1873 11.6131 14.9027 11.4637 14.66C11.3191 14.4173 11.1114 14.2283 10.8407 14.093C10.5747 13.9577 10.2621 13.89 9.90274 13.89H8.15973ZM12.665 13.89V19H15.815V18.104H13.694V16.83H15.57V15.934H13.694V14.786H15.815V13.89H12.665ZM17.7443 18.881C18.0009 19.007 18.2996 19.07 18.6403 19.07C18.9856 19.07 19.2843 19.007 19.5363 18.881C19.7929 18.7503 19.9913 18.5707 20.1313 18.342C20.2759 18.1087 20.3483 17.838 20.3483 17.53V16.2H18.5423V17.089H19.2983V17.53C19.2983 17.7307 19.2399 17.887 19.1233 17.999C19.0113 18.1063 18.8503 18.16 18.6403 18.16C18.4303 18.16 18.2669 18.1063 18.1503 17.999C18.0383 17.887 17.9823 17.7307 17.9823 17.53V15.36C17.9823 15.1547 18.0383 14.9983 18.1503 14.891C18.2669 14.7837 18.4303 14.73 18.6403 14.73C18.8503 14.73 19.0113 14.7837 19.1233 14.891C19.2399 14.9983 19.2983 15.1547 19.2983 15.36H20.3483C20.3483 15.0473 20.2759 14.7767 20.1313 14.548C19.9913 14.3193 19.7929 14.142 19.5363 14.016C19.2843 13.8853 18.9856 13.82 18.6403 13.82C18.2996 13.82 18.0009 13.8853 17.7443 14.016C17.4876 14.142 17.2869 14.3193 17.1423 14.548C17.0023 14.7767 16.9323 15.0473 16.9323 15.36V17.53C16.9323 17.838 17.0023 18.1087 17.1423 18.342C17.2869 18.5707 17.4876 18.7503 17.7443 18.881Z" fill="#23262A"/>
</svg>
