<svg width="24" height="24" viewBox="0 0 24 24" fill="none" xmlns="http://www.w3.org/2000/svg">
<path fill-rule="evenodd" clip-rule="evenodd" d="M13 3.25C13.1381 3.25 13.25 3.36193 13.25 3.5V7.5C13.25 8.19036 13.8096 8.75 14.5 8.75H18.5C18.6381 8.75 18.75 8.86193 18.75 9V19.5C18.75 20.1904 18.1904 20.75 17.5 20.75H6.5C5.80964 20.75 5.25 20.1904 5.25 19.5V4.5C5.25 3.80964 5.80964 3.25 6.5 3.25H13ZM15.1768 4.11612C15.0193 3.95863 14.75 4.07017 14.75 4.29289V7C14.75 7.13807 14.8619 7.25 15 7.25H17.7071C17.9298 7.25 18.0414 6.98072 17.8839 6.82322L15.1768 4.11612ZM10 9.75C9.58579 9.75 9.25 10.0858 9.25 10.5C9.25 10.9142 9.58579 11.25 10 11.25C10.4142 11.25 10.75 10.9142 10.75 10.5C10.75 10.0858 10.4142 9.75 10 9.75ZM7.75 10.5C7.75 9.25736 8.75736 8.25 10 8.25C11.2426 8.25 12.25 9.25736 12.25 10.5C12.25 11.7426 11.2426 12.75 10 12.75C8.75736 12.75 7.75 11.7426 7.75 10.5ZM13.6303 13.584C13.4912 13.3753 13.257 13.25 13.0063 13.25C12.7555 13.25 12.5213 13.3753 12.3822 13.584L9.37604 18.0933C9.14628 18.4379 9.23941 18.9036 9.58405 19.1333C9.9287 19.3631 10.3944 19.2699 10.6241 18.9253L12.7983 15.6641C12.8972 15.5157 13.1153 15.5157 13.2143 15.6641L15.3884 18.9253C15.6182 19.2699 16.0838 19.3631 16.4285 19.1333C16.7731 18.9036 16.8663 18.4379 16.6365 18.0933L13.6303 13.584Z" fill="#23262A"/>
</svg>
