<svg width="24" height="24" viewBox="0 0 24 24" fill="none" xmlns="http://www.w3.org/2000/svg">
<path fill-rule="evenodd" clip-rule="evenodd" d="M13.25 7.5V3.5C13.25 3.36193 13.1381 3.25 13 3.25H6.5C5.80964 3.25 5.25 3.80964 5.25 4.5V19.5C5.25 20.1904 5.80964 20.75 6.5 20.75H17.5C18.1904 20.75 18.75 20.1904 18.75 19.5V9C18.75 8.86193 18.6381 8.75 18.5 8.75H14.5C13.8096 8.75 13.25 8.19036 13.25 7.5ZM15 7.25C14.8619 7.25 14.75 7.13807 14.75 7V4.29289C14.75 4.07017 15.0193 3.95863 15.1768 4.11612L17.8839 6.82322C18.0414 6.98071 17.9298 7.25 17.7071 7.25H15ZM12.75 11.8787C12.75 11.4644 12.4142 11.1287 12 11.1287C11.5858 11.1287 11.25 11.4644 11.25 11.8787V13C11.25 13.1381 11.1381 13.25 11 13.25H9.87866C9.46445 13.25 9.12866 13.5858 9.12866 14C9.12866 14.4142 9.46445 14.75 9.87866 14.75H11C11.1381 14.75 11.25 14.8619 11.25 15V16.1213C11.25 16.5355 11.5858 16.8713 12 16.8713C12.4142 16.8713 12.75 16.5355 12.75 16.1213V15C12.75 14.8619 12.8619 14.75 13 14.75H14.1213C14.5355 14.75 14.8713 14.4142 14.8713 14C14.8713 13.5858 14.5355 13.25 14.1213 13.25H13C12.8619 13.25 12.75 13.1381 12.75 13V11.8787Z" fill="#23262A"/>
</svg>
