<svg width="24" height="24" viewBox="0 0 24 24" fill="none" xmlns="http://www.w3.org/2000/svg">
<path fill-rule="evenodd" clip-rule="evenodd" d="M5.25 4.5C5.25 3.80964 5.80964 3.25 6.5 3.25H14C14.1989 3.25 14.3897 3.32902 14.5303 3.46967L18.5303 7.46967C18.671 7.61032 18.75 7.80109 18.75 8V12.25H21C21.4142 12.25 21.75 12.5858 21.75 13V20C21.75 20.4142 21.4142 20.75 21 20.75H3C2.58579 20.75 2.25 20.4142 2.25 20V13C2.25 12.5858 2.58579 12.25 3 12.25H5.25V4.5ZM6.75 12.25H17.25V8.75H14.5C13.8096 8.75 13.25 8.19036 13.25 7.5V4.75H6.75V12.25ZM14.75 5.81066L16.1893 7.25H14.75V5.81066ZM6.72606 18.8811C6.98273 19.0071 7.2814 19.0701 7.62206 19.0701C7.9674 19.0701 8.26606 19.0071 8.51806 18.8811C8.77473 18.7504 8.97306 18.5707 9.11306 18.3421C9.25773 18.1087 9.33006 17.8381 9.33006 17.5301H8.28006C8.28006 17.7307 8.22173 17.8871 8.10506 17.9991C7.99306 18.1064 7.83206 18.1601 7.62206 18.1601C7.41206 18.1601 7.24873 18.1064 7.13206 17.9991C7.02006 17.8871 6.96406 17.7307 6.96406 17.5301V15.3601C6.96406 15.1547 7.02006 14.9984 7.13206 14.8911C7.24873 14.7837 7.41206 14.7301 7.62206 14.7301C7.83206 14.7301 7.99306 14.7837 8.10506 14.8911C8.22173 14.9984 8.28006 15.1547 8.28006 15.3601H9.33006C9.33006 15.0474 9.25773 14.7767 9.11306 14.5481C8.97306 14.3194 8.77473 14.1421 8.51806 14.0161C8.26606 13.8854 7.9674 13.8201 7.62206 13.8201C7.2814 13.8201 6.98273 13.8854 6.72606 14.0161C6.4694 14.1421 6.26873 14.3194 6.12406 14.5481C5.98406 14.7767 5.91406 15.0474 5.91406 15.3601V17.5301C5.91406 17.8381 5.98406 18.1087 6.12406 18.3421C6.26873 18.5707 6.4694 18.7504 6.72606 18.8811ZM11.0633 18.8881C11.3293 19.0094 11.642 19.0701 12.0013 19.0701C12.3607 19.0701 12.671 19.0071 12.9323 18.8811C13.1983 18.7551 13.4037 18.5777 13.5483 18.3491C13.6977 18.1204 13.7723 17.8567 13.7723 17.5581C13.7723 17.1427 13.6557 16.8021 13.4223 16.5361C13.189 16.2654 12.846 16.0787 12.3933 15.9761L11.8473 15.8501C11.6887 15.8127 11.565 15.7427 11.4763 15.6401C11.3923 15.5327 11.3503 15.4044 11.3503 15.2551C11.3503 15.0871 11.404 14.9587 11.5113 14.8701C11.6187 14.7767 11.7727 14.7301 11.9733 14.7301C12.188 14.7301 12.3513 14.7767 12.4633 14.8701C12.58 14.9634 12.6383 15.0917 12.6383 15.2551H13.6883C13.6883 14.8164 13.5343 14.4687 13.2263 14.2121C12.923 13.9507 12.51 13.8201 11.9873 13.8201C11.642 13.8201 11.3433 13.8807 11.0913 14.0021C10.8393 14.1234 10.6433 14.2961 10.5033 14.5201C10.368 14.7394 10.3003 14.9984 10.3003 15.2971C10.3003 15.6984 10.4193 16.0391 10.6573 16.3191C10.9 16.5944 11.2383 16.7834 11.6723 16.8861L12.1903 17.0051C12.3583 17.0424 12.489 17.1147 12.5823 17.2221C12.6757 17.3294 12.7223 17.4577 12.7223 17.6071C12.7223 17.7797 12.6593 17.9151 12.5333 18.0131C12.412 18.1111 12.2417 18.1601 12.0223 18.1601C11.7937 18.1601 11.6117 18.1111 11.4763 18.0131C11.3457 17.9104 11.2803 17.7727 11.2803 17.6001H10.2303C10.2303 17.8987 10.3027 18.1577 10.4473 18.3771C10.592 18.5964 10.7973 18.7667 11.0633 18.8881ZM15.7506 19.0001L14.4836 13.8901H15.5686L16.2756 17.1171C16.2989 17.2291 16.3269 17.3714 16.3596 17.5441C16.3969 17.7167 16.4249 17.8637 16.4436 17.9851C16.4623 17.8637 16.4856 17.7167 16.5136 17.5441C16.5416 17.3714 16.5673 17.2267 16.5906 17.1101L17.2766 13.8901H18.3336L17.0806 19.0001H15.7506Z" fill="#23262A"/>
</svg>
