<svg width="24" height="24" viewBox="0 0 24 24" fill="none" xmlns="http://www.w3.org/2000/svg">
<path fill-rule="evenodd" clip-rule="evenodd" d="M13.25 7.5V3.5C13.25 3.36193 13.1381 3.25 13 3.25H6.5C5.80964 3.25 5.25 3.80964 5.25 4.5V19.5C5.25 20.1904 5.80964 20.75 6.5 20.75H17.5C18.1904 20.75 18.75 20.1904 18.75 19.5V9C18.75 8.86193 18.6381 8.75 18.5 8.75H14.5C13.8096 8.75 13.25 8.19036 13.25 7.5ZM15 7.25C14.8619 7.25 14.75 7.13807 14.75 7V4.29289C14.75 4.07017 15.0193 3.95863 15.1768 4.11612L17.8839 6.82322C18.0414 6.98071 17.9298 7.25 17.7071 7.25H15ZM11.9928 9C10.8749 9 9.96601 9.906 9.96601 11.0256C9.96601 11.1557 9.97846 11.2838 10.0024 11.4085C10.024 11.5208 9.97824 11.6368 9.88652 11.7052C9.58931 11.9267 9.356 12.2404 9.23547 12.6221C8.94872 13.5301 9.40499 14.5065 10.2855 14.869L12.1963 15.6558C12.3932 15.7369 12.5218 15.9288 12.5218 16.1418C12.5218 16.4312 12.2862 16.6674 11.995 16.6674C11.7509 16.6674 11.5435 16.5012 11.4835 16.2753C11.3772 15.875 10.9665 15.6366 10.5661 15.7429C10.1658 15.8492 9.92742 16.2599 10.0337 16.6602C10.2641 17.5278 11.0546 18.1674 11.995 18.1674C13.1128 18.1674 14.0218 17.2614 14.0218 16.1418C14.0218 16.0117 14.0093 15.8836 13.9853 15.7589C13.9637 15.6466 14.0095 15.5306 14.1013 15.4622C14.3985 15.2407 14.6318 14.927 14.7523 14.5454C15.0391 13.6373 14.5828 12.661 13.7023 12.2984L11.7915 11.5116C11.5945 11.4305 11.466 11.2386 11.466 11.0256C11.466 10.7362 11.7016 10.5 11.9928 10.5C12.1424 10.5 12.2768 10.5613 12.3741 10.6622C12.6616 10.9604 13.1364 10.9691 13.4346 10.6816C13.7328 10.3941 13.7414 9.91932 13.454 9.62112C13.0857 9.23917 12.5664 9 11.9928 9ZM12.6473 14.2194L10.8566 13.482C10.6966 13.4161 10.6137 13.2387 10.6658 13.0738C10.7228 12.8934 10.9183 12.7966 11.0962 12.8607L11.3139 12.939C11.3227 12.9422 11.3316 12.9452 11.3404 12.9481L13.1312 13.6854C13.2911 13.7513 13.374 13.9287 13.3219 14.0937C13.265 14.274 13.0695 14.3708 12.8916 14.3067L12.6739 14.2284C12.6651 14.2252 12.6562 14.2222 12.6473 14.2194Z" fill="#23262A"/>
</svg>
