<svg width="24" height="24" viewBox="0 0 24 24" fill="none" xmlns="http://www.w3.org/2000/svg">
<path fill-rule="evenodd" clip-rule="evenodd" d="M6.5 3.25C5.80964 3.25 5.25 3.80964 5.25 4.5V10.25H3C2.58579 10.25 2.25 10.5858 2.25 11V20C2.25 20.4142 2.58579 20.75 3 20.75H21C21.4142 20.75 21.75 20.4142 21.75 20V11C21.75 10.5858 21.4142 10.25 21 10.25H18.75V8C18.75 7.80109 18.671 7.61032 18.5303 7.46967L14.5303 3.46967C14.3897 3.32902 14.1989 3.25 14 3.25H6.5ZM17.25 10.25H6.75V4.75H13.25V7.5C13.25 8.19036 13.8096 8.75 14.5 8.75H17.25V10.25ZM16.1893 7.25L14.75 5.81066V7.25H16.1893ZM3.75 11.75V19.25H20.25V11.75H3.75ZM6.93945 17.5001V13.1201H8.43345C8.74145 13.1201 9.00945 13.1781 9.23745 13.2941C9.46945 13.4101 9.64745 13.5721 9.77145 13.7801C9.89945 13.9881 9.96345 14.2321 9.96345 14.5121C9.96345 14.7881 9.89945 15.0321 9.77145 15.2441C9.64345 15.4521 9.46545 15.6141 9.23745 15.7301C9.00945 15.8461 8.74145 15.9041 8.43345 15.9041H7.83945V17.5001H6.93945ZM7.83945 15.0941H8.43345C8.62545 15.0941 8.77745 15.0421 8.88945 14.9381C9.00545 14.8301 9.06345 14.6881 9.06345 14.5121C9.06345 14.3361 9.00545 14.1961 8.88945 14.0921C8.77745 13.9841 8.62545 13.9301 8.43345 13.9301H7.83945V15.0941ZM10.5791 17.5001V13.1201H12.0011C12.3051 13.1201 12.5691 13.1781 12.7931 13.2941C13.0211 13.4101 13.1971 13.5741 13.3211 13.7861C13.4491 13.9941 13.5131 14.2401 13.5131 14.5241V16.0901C13.5131 16.3701 13.4491 16.6161 13.3211 16.8281C13.1971 17.0401 13.0211 17.2061 12.7931 17.3261C12.5691 17.4421 12.3051 17.5001 12.0011 17.5001H10.5791ZM11.4791 16.6601H12.0011C12.1851 16.6601 12.3331 16.6081 12.4451 16.5041C12.5571 16.4001 12.6131 16.2621 12.6131 16.0901V14.5241C12.6131 14.3561 12.5571 14.2201 12.4451 14.1161C12.3331 14.0121 12.1851 13.9601 12.0011 13.9601H11.4791V16.6601ZM14.2788 13.1201V17.5001H15.1788V15.7721H16.9428V14.9321H15.1668V13.9601H17.0988V13.1201H14.2788Z" fill="#262626"/>
</svg>
