<svg width="24" height="24" viewBox="0 0 24 24" fill="none" xmlns="http://www.w3.org/2000/svg">
<path fill-rule="evenodd" clip-rule="evenodd" d="M13.25 3.5C13.25 3.36193 13.1381 3.25 13 3.25H6.5C5.80964 3.25 5.25 3.80964 5.25 4.5V10.5C5.25 10.6381 5.36193 10.75 5.5 10.75H18.5C18.6381 10.75 18.75 10.6381 18.75 10.5V9C18.75 8.86193 18.6381 8.75 18.5 8.75H14.5C13.8096 8.75 13.25 8.19036 13.25 7.5V3.5ZM15 7.25C14.8619 7.25 14.75 7.13807 14.75 7V4.29289C14.75 4.07017 15.0193 3.95863 15.1768 4.11612L17.8839 6.82322C18.0414 6.98071 17.9298 7.25 17.7071 7.25H15ZM3 12.25C2.58579 12.25 2.25 12.5858 2.25 13V20C2.25 20.4142 2.58579 20.75 3 20.75H21C21.4142 20.75 21.75 20.4142 21.75 20V13C21.75 12.5858 21.4142 12.25 21 12.25H3ZM7.70003 13.8899C8.05937 13.8899 8.37203 13.9576 8.63803 14.0929C8.9087 14.2282 9.11636 14.4172 9.26103 14.6599C9.41037 14.9026 9.48503 15.1872 9.48503 15.5139C9.48503 15.8359 9.41037 16.1206 9.26103 16.3679C9.1117 16.6106 8.90403 16.7996 8.63803 16.9349C8.37203 17.0702 8.05937 17.1379 7.70003 17.1379H7.00703V18.9999H5.95703V13.8899H7.70003ZM12.0023 13.8899C12.357 13.8899 12.665 13.9576 12.9263 14.0929C13.1923 14.2282 13.3976 14.4196 13.5423 14.6669C13.6916 14.9096 13.7663 15.1966 13.7663 15.5279V17.3549C13.7663 17.6816 13.6916 17.9686 13.5423 18.2159C13.3976 18.4632 13.1923 18.6569 12.9263 18.7969C12.665 18.9322 12.357 18.9999 12.0023 18.9999H10.3433V13.8899H12.0023ZM14.7996 13.8899V18.9999H15.8496V16.9839H17.9076V16.0039H15.8356V14.8699H18.0896V13.8899H14.7996ZM8.23203 15.0239C8.10137 14.8979 7.92403 14.8349 7.70003 14.8349H7.00703V16.1929H7.70003C7.92403 16.1929 8.10137 16.1322 8.23203 16.0109C8.36736 15.8849 8.43503 15.7192 8.43503 15.5139C8.43503 15.3086 8.36736 15.1452 8.23203 15.0239ZM12.5203 15.0519C12.3896 14.9306 12.217 14.8699 12.0023 14.8699H11.3933V18.0199H12.0023C12.217 18.0199 12.3896 17.9592 12.5203 17.8379C12.651 17.7166 12.7163 17.5556 12.7163 17.3549V15.5279C12.7163 15.3319 12.651 15.1732 12.5203 15.0519Z" fill="#23262A"/>
</svg>
