<svg width="24" height="24" viewBox="0 0 24 24" fill="none" xmlns="http://www.w3.org/2000/svg">
<path d="M9.20973 16.193H9.90274C10.1267 16.193 10.3041 16.1323 10.4347 16.011C10.5701 15.885 10.6377 15.7193 10.6377 15.514C10.6377 15.3087 10.5701 15.1453 10.4347 15.024C10.3041 14.898 10.1267 14.835 9.90274 14.835H9.20973V16.193Z" fill="#23262A"/>
<path fill-rule="evenodd" clip-rule="evenodd" d="M5.25 4.5C5.25 3.80964 5.80964 3.25 6.5 3.25H14C14.1989 3.25 14.3897 3.32902 14.5303 3.46967L18.5303 7.46967C18.671 7.61032 18.75 7.80109 18.75 8V12.25H21C21.4142 12.25 21.75 12.5858 21.75 13V20C21.75 20.4142 21.4142 20.75 21 20.75H3C2.58579 20.75 2.25 20.4142 2.25 20V13C2.25 12.5858 2.58579 12.25 3 12.25H5.25V4.5ZM6.75 12.25H17.25V8.75H14.5C13.8096 8.75 13.25 8.19036 13.25 7.5V4.75H6.75V12.25ZM14.75 5.81066L16.1893 7.25H14.75V5.81066ZM5.18047 19.077C4.6438 19.077 4.2168 18.9323 3.89947 18.643C3.5868 18.349 3.43047 17.9547 3.43047 17.46H4.48047C4.48047 17.6747 4.54347 17.8473 4.66947 17.978C4.79547 18.104 4.9658 18.167 5.18047 18.167C5.39514 18.167 5.56547 18.1063 5.69147 17.985C5.81747 17.859 5.88047 17.6887 5.88047 17.474V14.87H4.72547V13.89H6.93047V17.474C6.93047 17.9687 6.77414 18.3607 6.46147 18.65C6.1488 18.9347 5.7218 19.077 5.18047 19.077ZM8.15973 19V13.89H9.90274C10.2621 13.89 10.5747 13.9577 10.8407 14.093C11.1114 14.2283 11.3191 14.4173 11.4637 14.66C11.6131 14.9027 11.6877 15.1873 11.6877 15.514C11.6877 15.836 11.6131 16.1207 11.4637 16.368C11.3144 16.6107 11.1067 16.7997 10.8407 16.935C10.5747 17.0703 10.2621 17.138 9.90274 17.138H9.20973V19H8.15973ZM12.665 19V13.89H15.815V14.786H13.694V15.934H15.57V16.83H13.694V18.104H15.815V19H12.665ZM18.6403 19.07C18.2996 19.07 18.0009 19.007 17.7443 18.881C17.4876 18.7503 17.2869 18.5707 17.1423 18.342C17.0023 18.1087 16.9323 17.838 16.9323 17.53V15.36C16.9323 15.0473 17.0023 14.7767 17.1423 14.548C17.2869 14.3193 17.4876 14.142 17.7443 14.016C18.0009 13.8853 18.2996 13.82 18.6403 13.82C18.9856 13.82 19.2843 13.8853 19.5363 14.016C19.7929 14.142 19.9913 14.3193 20.1313 14.548C20.2759 14.7767 20.3483 15.0473 20.3483 15.36H19.2983C19.2983 15.1547 19.2399 14.9983 19.1233 14.891C19.0113 14.7837 18.8503 14.73 18.6403 14.73C18.4303 14.73 18.2669 14.7837 18.1503 14.891C18.0383 14.9983 17.9823 15.1547 17.9823 15.36V17.53C17.9823 17.7307 18.0383 17.887 18.1503 17.999C18.2669 18.1063 18.4303 18.16 18.6403 18.16C18.8503 18.16 19.0113 18.1063 19.1233 17.999C19.2399 17.887 19.2983 17.7307 19.2983 17.53V17.089H18.5423V16.2H20.3483V17.53C20.3483 17.838 20.2759 18.1087 20.1313 18.342C19.9913 18.5707 19.7929 18.7503 19.5363 18.881C19.2843 19.007 18.9856 19.07 18.6403 19.07Z" fill="#23262A"/>
</svg>
