<svg width="24" height="24" viewBox="0 0 24 24" fill="none" xmlns="http://www.w3.org/2000/svg">
<path fill-rule="evenodd" clip-rule="evenodd" d="M13.25 2.5C13.25 2.36193 13.1381 2.25 13 2.25H9.5C8.80964 2.25 8.25 2.80964 8.25 3.5V16.5C8.25 17.1904 8.80964 17.75 9.5 17.75H18.5C19.1904 17.75 19.75 17.1904 19.75 16.5V9C19.75 8.86193 19.6381 8.75 19.5 8.75H14.5C13.8096 8.75 13.25 8.19036 13.25 7.5V2.5ZM14.75 3.29289C14.75 3.07017 15.0193 2.95863 15.1768 3.11612L18.8839 6.82322C19.0414 6.98071 18.9298 7.25 18.7071 7.25H15C14.8619 7.25 14.75 7.13807 14.75 7V3.29289ZM6.5 6.25C6.63807 6.25 6.75 6.36193 6.75 6.5V16.5C6.75 18.0188 7.98122 19.25 9.5 19.25H15.5C15.6381 19.25 15.75 19.3619 15.75 19.5V20.5C15.75 21.1904 15.1904 21.75 14.5 21.75H5.5C4.80964 21.75 4.25 21.1904 4.25 20.5V7.5C4.25 6.80964 4.80964 6.25 5.5 6.25H6.5Z" fill="#23262A"/>
</svg>
