<svg width="24" height="24" viewBox="0 0 24 24" fill="none" xmlns="http://www.w3.org/2000/svg">
<path fill-rule="evenodd" clip-rule="evenodd" d="M5.25 4.5C5.25 3.80964 5.80964 3.25 6.5 3.25H14C14.1989 3.25 14.3897 3.32902 14.5303 3.46967L18.5303 7.46967C18.671 7.61032 18.75 7.80109 18.75 8V19.5C18.75 20.1904 18.1904 20.75 17.5 20.75H6.5C5.80964 20.75 5.25 20.1904 5.25 19.5V4.5ZM14.5 8.75C13.8096 8.75 13.25 8.19036 13.25 7.5V4.75H6.75V19.25H17.25V8.75H14.5ZM14.75 5.81066L16.1893 7.25H14.75V5.81066ZM14.5303 13.0303C14.8232 12.7374 14.8232 12.2626 14.5303 11.9697C14.2374 11.6768 13.7626 11.6768 13.4697 11.9697L11.5 13.9393L10.5303 12.9697C10.2374 12.6768 9.76256 12.6768 9.46967 12.9697C9.17678 13.2626 9.17678 13.7374 9.46967 14.0303L10.9697 15.5303C11.2626 15.8232 11.7374 15.8232 12.0303 15.5303L14.5303 13.0303Z" fill="#23262A"/>
</svg>
