<svg width="24" height="24" viewBox="0 0 24 24" fill="none" xmlns="http://www.w3.org/2000/svg">
<path fill-rule="evenodd" clip-rule="evenodd" d="M5.25 4.5C5.25 3.80964 5.80964 3.25 6.5 3.25H14C14.1989 3.25 14.3897 3.32902 14.5303 3.46967L18.5303 7.46967C18.671 7.61032 18.75 7.80109 18.75 8V19.5C18.75 20.1904 18.1904 20.75 17.5 20.75H6.5C5.80964 20.75 5.25 20.1904 5.25 19.5V4.5ZM14.5 8.75C13.8096 8.75 13.25 8.19036 13.25 7.5V4.75H6.75V19.25H17.25V8.75H14.5ZM14.75 5.81066L16.1893 7.25H14.75V5.81066ZM9.75 13C9.75 11.2051 11.2051 9.75 13 9.75C14.7949 9.75 16.25 11.2051 16.25 13C16.25 14.7949 14.7949 16.25 13 16.25C12.3743 16.25 11.7898 16.0732 11.2939 15.7667L9.53033 17.5303C9.23744 17.8232 8.76256 17.8232 8.46967 17.5303C8.17678 17.2374 8.17678 16.7626 8.46967 16.4697L10.2333 14.7061C9.92684 14.2102 9.75 13.6257 9.75 13ZM13 11.25C12.0335 11.25 11.25 12.0335 11.25 13C11.25 13.9665 12.0335 14.75 13 14.75C13.9665 14.75 14.75 13.9665 14.75 13C14.75 12.0335 13.9665 11.25 13 11.25Z" fill="#23262A"/>
</svg>
