<svg width="24" height="24" viewBox="0 0 24 24" fill="none" xmlns="http://www.w3.org/2000/svg">
<path fill-rule="evenodd" clip-rule="evenodd" d="M6.75 19.25V4.75H13.25V7.5C13.25 8.19036 13.8096 8.75 14.5 8.75H17.25V19.25H6.75ZM16.1893 7.25L14.75 5.81066V7.25H16.1893ZM6.5 3.25C5.80964 3.25 5.25 3.80964 5.25 4.5V19.5C5.25 20.1904 5.80964 20.75 6.5 20.75H17.5C18.1904 20.75 18.75 20.1904 18.75 19.5V8C18.75 7.80109 18.671 7.61032 18.5303 7.46967L14.5303 3.46967C14.3897 3.32902 14.1989 3.25 14 3.25H6.5ZM10.5849 12.25C11.2886 11.6811 12.2968 11.573 13.1254 12.0515C14.2016 12.6728 14.5703 14.0489 13.949 15.125C13.533 15.8455 12.7786 16.2499 11.9994 16.2505C11.5852 16.2508 11.2497 16.5869 11.25 17.0011C11.2503 17.4153 11.5864 17.7508 12.0006 17.7505C13.2933 17.7495 14.5535 17.078 15.248 15.875C16.2835 14.0814 15.669 11.788 13.8754 10.7524C12.5339 9.9779 10.9144 10.1269 9.75 10.9994C9.74966 10.5855 9.41401 10.25 9 10.25C8.58579 10.25 8.25 10.5858 8.25 11V13C8.25 13.4142 8.58579 13.75 9 13.75H11C11.4142 13.75 11.75 13.4142 11.75 13C11.75 12.5858 11.4142 12.25 11 12.25H10.5849Z" fill="#23262A"/>
</svg>
