<svg width="24" height="24" viewBox="0 0 24 24" fill="none" xmlns="http://www.w3.org/2000/svg">
<path fill-rule="evenodd" clip-rule="evenodd" d="M6.75 19.25V4.75H13.25V7.5C13.25 8.19036 13.8096 8.75 14.5 8.75H17.25V19.25H6.75ZM16.1893 7.25L14.75 5.81066V7.25H16.1893ZM6.5 3.25C5.80964 3.25 5.25 3.80964 5.25 4.5V19.5C5.25 20.1904 5.80964 20.75 6.5 20.75H17.5C18.1904 20.75 18.75 20.1904 18.75 19.5V8C18.75 7.80109 18.671 7.61032 18.5303 7.46967L14.5303 3.46967C14.3897 3.32902 14.1989 3.25 14 3.25H6.5ZM10.2333 14.7061L8.46967 16.4697C8.17678 16.7626 8.17678 17.2374 8.46967 17.5303C8.76256 17.8232 9.23744 17.8232 9.53033 17.5303L11.2939 15.7667C11.7898 16.0732 12.3743 16.25 13 16.25C14.7949 16.25 16.25 14.7949 16.25 13C16.25 11.2051 14.7949 9.75 13 9.75C11.2051 9.75 9.75 11.2051 9.75 13C9.75 13.6257 9.92684 14.2102 10.2333 14.7061ZM11.25 13C11.25 12.0335 12.0335 11.25 13 11.25C13.9665 11.25 14.75 12.0335 14.75 13C14.75 13.9665 13.9665 14.75 13 14.75C12.0335 14.75 11.25 13.9665 11.25 13Z" fill="#23262A"/>
</svg>
