<svg width="24" height="24" viewBox="0 0 24 24" fill="none" xmlns="http://www.w3.org/2000/svg">
<path fill-rule="evenodd" clip-rule="evenodd" d="M7 2.25C5.48122 2.25 4.25 3.48122 4.25 5V8C4.25 9.28242 5.12712 10.3581 6.31306 10.6633C6.7142 10.7666 7.12308 10.5251 7.22633 10.1239C7.32957 9.7228 7.08808 9.31391 6.68694 9.21066C6.14765 9.07186 5.75 8.58142 5.75 8V5C5.75 4.30964 6.30964 3.75 7 3.75H17C17.6904 3.75 18.25 4.30964 18.25 5V8C18.25 8.69036 17.6904 9.25 17 9.25H14.5C14.0858 9.25 13.75 9.58579 13.75 10C13.75 10.4142 14.0858 10.75 14.5 10.75H17C18.5188 10.75 19.75 9.51878 19.75 8V5C19.75 3.48122 18.5188 2.25 17 2.25H7ZM9.74998 8.5C9.74998 8.08579 10.0858 7.75 10.5 7.75C10.9142 7.75 11.25 8.08579 11.25 8.5V12.5C11.25 12.8732 11.5244 13.1897 11.8939 13.2425L15.5488 13.7646C16.8835 13.9553 17.752 15.269 17.4046 16.5717L16.4238 20.25H9.35126L5.4815 15.6063C5.21707 15.289 5.23824 14.8224 5.53031 14.5303C5.82237 14.2383 6.28896 14.2171 6.60627 14.4815L8.51984 16.0762C8.7434 16.2625 9.05455 16.3026 9.31809 16.1792C9.58163 16.0558 9.74998 15.791 9.74998 15.5V8.5ZM10.5 6.25C9.25734 6.25 8.24998 7.25736 8.24998 8.5V13.8987L7.56654 13.3292C6.65324 12.5681 5.31029 12.629 4.46965 13.4697C3.629 14.3103 3.56808 15.6533 4.32917 16.5666L8.42381 21.4801C8.56631 21.6511 8.77739 21.75 8.99998 21.75H17C17.3398 21.75 17.6371 21.5216 17.7247 21.1932L18.854 16.9582C19.433 14.787 17.9855 12.5975 15.7609 12.2797L12.75 11.8495V8.5C12.75 7.25736 11.7426 6.25 10.5 6.25Z" fill="#23262A"/>
</svg>
