<svg width="24" height="24" viewBox="0 0 24 24" fill="none" xmlns="http://www.w3.org/2000/svg">
<path fill-rule="evenodd" clip-rule="evenodd" d="M4.25 5C4.25 3.48122 5.48122 2.25 7 2.25H17C18.5188 2.25 19.75 3.48122 19.75 5V8C19.75 9.51878 18.5188 10.75 17 10.75H16.9955L15.6013 10.7416L14.4646 10.5792C14.3415 10.5617 14.25 10.4562 14.25 10.3318V8.5C14.25 6.42893 12.5711 4.75 10.5 4.75C8.42892 4.75 6.74998 6.42893 6.74998 8.5V10.437C6.74998 10.5757 6.63714 10.6878 6.49848 10.687L6.4955 10.687C6.43394 10.6866 6.37267 10.6787 6.31306 10.6633C5.12712 10.3581 4.25 9.28242 4.25 8V5ZM10.5 6.25C9.25734 6.25 8.24998 7.25736 8.24998 8.5V13.8987L7.56654 13.3292C6.65324 12.5681 5.31029 12.629 4.46965 13.4697C3.629 14.3103 3.56808 15.6533 4.32917 16.5666L8.42381 21.4801C8.56631 21.6511 8.77739 21.75 8.99998 21.75H17C17.3398 21.75 17.6371 21.5216 17.7247 21.1932L18.854 16.9582C19.433 14.787 17.9855 12.5975 15.7609 12.2797L12.75 11.8495V8.5C12.75 7.25736 11.7426 6.25 10.5 6.25Z" fill="#23262A"/>
</svg>
