<svg width="24" height="24" viewBox="0 0 24 24" fill="none" xmlns="http://www.w3.org/2000/svg">
<path fill-rule="evenodd" clip-rule="evenodd" d="M6.75 5C6.75 4.30964 7.30964 3.75 8 3.75H16C16.6904 3.75 17.25 4.30964 17.25 5V13.3047C17.25 13.7189 17.5858 14.0547 18 14.0547C18.4142 14.0547 18.75 13.7189 18.75 13.3047V5C18.75 3.48122 17.5188 2.25 16 2.25H8C6.48122 2.25 5.25 3.48122 5.25 5V19C5.25 20.5188 6.48122 21.75 8 21.75C8.41421 21.75 8.75 21.4142 8.75 21C8.75 20.5858 8.41421 20.25 8 20.25C7.30964 20.25 6.75 19.6904 6.75 19V5ZM10.75 5.5C10.75 5.08579 11.0858 4.75 11.5 4.75H12.5C12.9142 4.75 13.25 5.08579 13.25 5.5C13.25 5.91421 12.9142 6.25 12.5 6.25H11.5C11.0858 6.25 10.75 5.91421 10.75 5.5ZM12.7368 11.75C12.4534 11.75 12.2236 11.9797 12.2236 12.2632V17C12.2236 17.3043 12.0398 17.5784 11.7583 17.6939C11.4769 17.8094 11.1535 17.7434 10.9398 17.5268L9.78733 16.359C9.62697 16.1965 9.36497 16.1956 9.20354 16.3571C9.06485 16.4957 9.04334 16.713 9.15213 16.8762L11.4013 20.25H16.9419L17.6501 17.8894C17.8618 17.1837 17.4204 16.4489 16.698 16.3045L13.8528 15.7354C13.5023 15.6653 13.2499 15.3575 13.2499 15V12.2632C13.2499 11.9797 13.0202 11.75 12.7368 11.75ZM10.7236 12.2632C10.7236 11.1513 11.6249 10.25 12.7368 10.25C13.8486 10.25 14.7499 11.1513 14.7499 12.2632V14.3851L16.9921 14.8336C18.5815 15.1515 19.5526 16.7679 19.0868 18.3204L18.2183 21.2155C18.1231 21.5327 17.8311 21.75 17.4999 21.75H10.9999C10.7492 21.75 10.515 21.6247 10.3759 21.416L7.90405 17.7083C7.39864 16.9501 7.4986 15.9407 8.14288 15.2964C8.85023 14.589 9.97321 14.5524 10.7236 15.184V12.2632Z" fill="#23262A"/>
</svg>
