<svg width="24" height="24" viewBox="0 0 24 24" fill="none" xmlns="http://www.w3.org/2000/svg">
<path fill-rule="evenodd" clip-rule="evenodd" d="M8 2.25C6.48122 2.25 5.25 3.48122 5.25 5V19C5.25 20.5188 6.48122 21.75 8 21.75H10.1113C10.311 21.75 10.4301 21.5275 10.3193 21.3613L8.44471 18.5494C7.74464 17.4993 7.8831 16.101 8.77551 15.2086C9.33383 14.6503 10.0786 14.394 10.8082 14.4381C10.9631 14.4475 11.1032 14.3305 11.1032 14.1753V12.7481C11.1032 11.2304 12.3336 10 13.8513 10C15.3691 10 16.5995 11.2304 16.5995 12.7481V14.0177C16.5995 14.1369 16.6836 14.2395 16.8004 14.2629L18.2049 14.5438C18.2729 14.5574 18.34 14.5729 18.4062 14.5902C18.5751 14.6343 18.75 14.513 18.75 14.3384V5C18.75 3.48122 17.5188 2.25 16 2.25H8ZM10.75 5.5C10.75 5.08579 11.0858 4.75 11.5 4.75H12.5C12.9142 4.75 13.25 5.08579 13.25 5.5C13.25 5.91421 12.9142 6.25 12.5 6.25H11.5C11.0858 6.25 10.75 5.91421 10.75 5.5ZM12.1753 16.9949C12.3323 17.154 12.6032 17.0429 12.6032 16.8193V12.7481C12.6032 12.0588 13.162 11.5 13.8513 11.5C14.5406 11.5 15.0994 12.0588 15.0994 12.7481V15.4524L17.9107 16.0146C19.0528 16.2431 19.7506 17.4047 19.4159 18.5203L18.6112 21.2028C18.5795 21.3086 18.4821 21.381 18.3717 21.381H12.269C12.1854 21.381 12.1073 21.3392 12.0609 21.2697L9.69276 17.7174C9.38931 17.2622 9.44933 16.6561 9.83615 16.2693C10.2864 15.819 11.0172 15.8214 11.4645 16.2747L12.1753 16.9949Z" fill="#23262A"/>
</svg>
