<svg width="24" height="24" viewBox="0 0 24 24" fill="none" xmlns="http://www.w3.org/2000/svg">
<path fill-rule="evenodd" clip-rule="evenodd" d="M4 6.25C3.0335 6.25 2.25 7.0335 2.25 8V18C2.25 18.9665 3.0335 19.75 4 19.75H20C20.9665 19.75 21.75 18.9665 21.75 18V8C21.75 7.0335 20.9665 6.25 20 6.25H16.25V5C16.25 4.0335 15.4665 3.25 14.5 3.25H9.5C8.5335 3.25 7.75 4.0335 7.75 5V6.25H4ZM9.5 4.75C9.36193 4.75 9.25 4.86193 9.25 5V6.25H14.75V5C14.75 4.86193 14.6381 4.75 14.5 4.75H9.5ZM4 7.75C3.86193 7.75 3.75 7.86193 3.75 8V18C3.75 18.1381 3.86193 18.25 4 18.25H20C20.1381 18.25 20.25 18.1381 20.25 18V8C20.25 7.86193 20.1381 7.75 20 7.75H4ZM12 9.75C12.4142 9.75 12.75 10.0858 12.75 10.5V12.25H14.5C14.9142 12.25 15.25 12.5858 15.25 13C15.25 13.4142 14.9142 13.75 14.5 13.75H12.75V15.5C12.75 15.9142 12.4142 16.25 12 16.25C11.5858 16.25 11.25 15.9142 11.25 15.5V13.75H9.5C9.08579 13.75 8.75 13.4142 8.75 13C8.75 12.5858 9.08579 12.25 9.5 12.25H11.25V10.5C11.25 10.0858 11.5858 9.75 12 9.75Z" fill="#23262A"/>
</svg>
