<svg width="24" height="24" viewBox="0 0 24 24" fill="none" xmlns="http://www.w3.org/2000/svg">
<path fill-rule="evenodd" clip-rule="evenodd" d="M8.25 4C8.25 3.58579 8.58579 3.25 9 3.25H15C15.4142 3.25 15.75 3.58579 15.75 4V8.25H20C20.4142 8.25 20.75 8.58579 20.75 9V15C20.75 15.4142 20.4142 15.75 20 15.75H15.75V20C15.75 20.4142 15.4142 20.75 15 20.75H9C8.58579 20.75 8.25 20.4142 8.25 20V15.75H4C3.80109 15.75 3.61032 15.671 3.46967 15.5303C3.32902 15.3897 3.25 15.1989 3.25 15L3.25 9C3.25 8.58579 3.58579 8.25 4 8.25H8.25V4ZM9.75 4.75V9C9.75 9.41421 9.41421 9.75 9 9.75H4.75L4.75 14.25H9C9.41421 14.25 9.75 14.5858 9.75 15V19.25H14.25V15C14.25 14.5858 14.5858 14.25 15 14.25H19.25V9.75H15C14.5858 9.75 14.25 9.41421 14.25 9V4.75H9.75Z" fill="#23262A"/>
</svg>
