<svg width="24" height="24" viewBox="0 0 24 24" fill="none" xmlns="http://www.w3.org/2000/svg">
<path fill-rule="evenodd" clip-rule="evenodd" d="M9.25 5C9.25 4.86193 9.36193 4.75 9.5 4.75H14.5C14.6381 4.75 14.75 4.86193 14.75 5V6.25H9.25V5ZM7.75 6.25V5C7.75 4.0335 8.5335 3.25 9.5 3.25H14.5C15.4665 3.25 16.25 4.0335 16.25 5V6.25H20C20.9665 6.25 21.75 7.0335 21.75 8V18C21.75 18.9665 20.9665 19.75 20 19.75H4C3.0335 19.75 2.25 18.9665 2.25 18V8C2.25 7.0335 3.0335 6.25 4 6.25H7.75ZM3.75 8C3.75 7.86193 3.86193 7.75 4 7.75H20C20.1381 7.75 20.25 7.86193 20.25 8V18C20.25 18.1381 20.1381 18.25 20 18.25H4C3.86193 18.25 3.75 18.1381 3.75 18V8ZM12 9.75C12.4142 9.75 12.75 10.0858 12.75 10.5V12.25H14.5C14.9142 12.25 15.25 12.5858 15.25 13C15.25 13.4142 14.9142 13.75 14.5 13.75H12.75V15.5C12.75 15.9142 12.4142 16.25 12 16.25C11.5858 16.25 11.25 15.9142 11.25 15.5V13.75H9.5C9.08579 13.75 8.75 13.4142 8.75 13C8.75 12.5858 9.08579 12.25 9.5 12.25H11.25V10.5C11.25 10.0858 11.5858 9.75 12 9.75Z" fill="#23262A"/>
</svg>
