<svg width="24" height="24" viewBox="0 0 24 24" fill="none" xmlns="http://www.w3.org/2000/svg">
<path fill-rule="evenodd" clip-rule="evenodd" d="M2.25 5C2.25 4.58579 2.58579 4.25 3 4.25H21C21.4142 4.25 21.75 4.58579 21.75 5V19C21.75 19.4142 21.4142 19.75 21 19.75H3C2.58579 19.75 2.25 19.4142 2.25 19V5ZM8.75 14C8.75 13.5858 8.41421 13.25 8 13.25H3.75V10.75H8C8.41421 10.75 8.75 10.4142 8.75 10V5.75H11.25V10C11.25 10.4142 11.5858 10.75 12 10.75H20.25V13.25H12C11.5858 13.25 11.25 13.5858 11.25 14V18.25H8.75V14ZM3.75 5.75V9.25H7.25V5.75H3.75ZM3.75 14.75V18.25H7.25V14.75H3.75ZM12.75 14.75H20.25V18.25H12.75V14.75ZM20.25 9.25V5.75H12.75V9.25H20.25Z" fill="#23262A"/>
</svg>
