<svg width="24" height="24" viewBox="0 0 24 24" fill="none" xmlns="http://www.w3.org/2000/svg">
<path fill-rule="evenodd" clip-rule="evenodd" d="M11 4.25C11.1381 4.25 11.25 4.36193 11.25 4.5V10C11.25 10.4142 11.5858 10.75 12 10.75H21.5C21.6381 10.75 21.75 10.8619 21.75 11V13C21.75 13.1381 21.6381 13.25 21.5 13.25H12C11.5858 13.25 11.25 13.5858 11.25 14V19.5C11.25 19.6381 11.1381 19.75 11 19.75H9C8.86193 19.75 8.75 19.6381 8.75 19.5V14C8.75 13.5858 8.41421 13.25 8 13.25H2.5C2.36193 13.25 2.25 13.1381 2.25 13V11C2.25 10.8619 2.36193 10.75 2.5 10.75H8C8.41421 10.75 8.75 10.4142 8.75 10V4.5C8.75 4.36193 8.86193 4.25 9 4.25H11ZM2.5 14.75C2.36193 14.75 2.25 14.8619 2.25 15V19C2.25 19.4142 2.58579 19.75 3 19.75H7C7.13807 19.75 7.25 19.6381 7.25 19.5V15C7.25 14.8619 7.13807 14.75 7 14.75H2.5ZM12.75 15C12.75 14.8619 12.8619 14.75 13 14.75H21.5C21.6381 14.75 21.75 14.8619 21.75 15V19C21.75 19.4142 21.4142 19.75 21 19.75H13C12.8619 19.75 12.75 19.6381 12.75 19.5V15ZM13 4.25C12.8619 4.25 12.75 4.36193 12.75 4.5V9C12.75 9.13807 12.8619 9.25 13 9.25H21.5C21.6381 9.25 21.75 9.13807 21.75 9V5C21.75 4.58579 21.4142 4.25 21 4.25H13ZM7 9.25C7.13807 9.25 7.25 9.13807 7.25 9V4.5C7.25 4.36193 7.13807 4.25 7 4.25H3C2.58579 4.25 2.25 4.58579 2.25 5V9C2.25 9.13807 2.36193 9.25 2.5 9.25H7Z" fill="#23262A"/>
</svg>
