<svg width="24" height="24" viewBox="0 0 24 24" fill="none" xmlns="http://www.w3.org/2000/svg">
<path fill-rule="evenodd" clip-rule="evenodd" d="M3.25 4C3.25 3.58579 3.58579 3.25 4 3.25H8H16H18C18.1989 3.25 18.3897 3.32902 18.5303 3.46967L20.5303 5.46967C20.671 5.61032 20.75 5.80109 20.75 6V20C20.75 20.4142 20.4142 20.75 20 20.75H17H7H4C3.58579 20.75 3.25 20.4142 3.25 20V4ZM7.75 19.25H16.25V11.75H7.75V19.25ZM17.75 19.25V11C17.75 10.5858 17.4142 10.25 17 10.25H7C6.58579 10.25 6.25 10.5858 6.25 11V19.25H4.75V4.75H7.25V7C7.25 7.41421 7.58579 7.75 8 7.75H16C16.4142 7.75 16.75 7.41421 16.75 7V4.75H17.6893L19.25 6.31066V19.25H17.75ZM15.25 6.25V4.75H8.75V6.25H15.25ZM9.25 14C9.25 13.5858 9.58579 13.25 10 13.25H14C14.4142 13.25 14.75 13.5858 14.75 14C14.75 14.4142 14.4142 14.75 14 14.75H10C9.58579 14.75 9.25 14.4142 9.25 14ZM10 16.25C9.58579 16.25 9.25 16.5858 9.25 17C9.25 17.4142 9.58579 17.75 10 17.75H13C13.4142 17.75 13.75 17.4142 13.75 17C13.75 16.5858 13.4142 16.25 13 16.25H10Z" fill="#23262A"/>
</svg>
