<svg width="24" height="24" viewBox="0 0 24 24" fill="none" xmlns="http://www.w3.org/2000/svg">
<path fill-rule="evenodd" clip-rule="evenodd" d="M4 3.25C3.58579 3.25 3.25 3.58579 3.25 4V20C3.25 20.4142 3.58579 20.75 4 20.75H20C20.4142 20.75 20.75 20.4142 20.75 20V6C20.75 5.80109 20.671 5.61032 20.5303 5.46967L18.5303 3.46967C18.3897 3.32902 18.1989 3.25 18 3.25H4ZM19.25 6.31066L17.6893 4.75H16.75V7C16.75 7.41421 16.4142 7.75 16 7.75H8C7.58579 7.75 7.25 7.41421 7.25 7V4.75H4.75V19.25H6.25V11C6.25 10.5858 6.58579 10.25 7 10.25H17C17.4142 10.25 17.75 10.5858 17.75 11V19.25H19.25V6.31066ZM16.25 19.25H7.75V11.75H16.25V19.25ZM15.25 4.75V6.25H8.75V4.75H15.25ZM9.25 14C9.25 13.5858 9.58579 13.25 10 13.25H14C14.4142 13.25 14.75 13.5858 14.75 14C14.75 14.4142 14.4142 14.75 14 14.75H10C9.58579 14.75 9.25 14.4142 9.25 14ZM9.25 17C9.25 16.5858 9.58579 16.25 10 16.25H13C13.4142 16.25 13.75 16.5858 13.75 17C13.75 17.4142 13.4142 17.75 13 17.75H10C9.58579 17.75 9.25 17.4142 9.25 17Z" fill="#23262A"/>
</svg>
