<svg width="24" height="24" viewBox="0 0 24 24" fill="none" xmlns="http://www.w3.org/2000/svg">
<path fill-rule="evenodd" clip-rule="evenodd" d="M4 3.25H6.75C7.02614 3.25 7.25 3.47386 7.25 3.75V7C7.25 7.41421 7.58579 7.75 8 7.75H16C16.4142 7.75 16.75 7.41421 16.75 7V3.75C16.75 3.47386 16.9739 3.25 17.25 3.25H18C18.1989 3.25 18.3897 3.32902 18.5303 3.46967L20.5303 5.46967C20.671 5.61032 20.75 5.80109 20.75 6V20C20.75 20.4142 20.4142 20.75 20 20.75H18.25C17.9739 20.75 17.75 20.5261 17.75 20.25V11C17.75 10.5858 17.4142 10.25 17 10.25H7C6.58579 10.25 6.25 10.5858 6.25 11V20.25C6.25 20.5261 6.02614 20.75 5.75 20.75H4C3.58579 20.75 3.25 20.4142 3.25 20V4C3.25 3.58579 3.58579 3.25 4 3.25ZM16.25 20.25C16.25 20.5261 16.0261 20.75 15.75 20.75H8.25C7.97386 20.75 7.75 20.5261 7.75 20.25V12.25C7.75 11.9739 7.97386 11.75 8.25 11.75H15.75C16.0261 11.75 16.25 11.9739 16.25 12.25V20.25ZM8.75 3.75C8.75 3.47386 8.97386 3.25 9.25 3.25H14.75C15.0261 3.25 15.25 3.47386 15.25 3.75V5.75C15.25 6.02614 15.0261 6.25 14.75 6.25H9.25C8.97386 6.25 8.75 6.02614 8.75 5.75V3.75ZM9.25 14C9.25 13.5858 9.58579 13.25 10 13.25H14C14.4142 13.25 14.75 13.5858 14.75 14C14.75 14.4142 14.4142 14.75 14 14.75H10C9.58579 14.75 9.25 14.4142 9.25 14ZM10 16.25C9.58579 16.25 9.25 16.5858 9.25 17C9.25 17.4142 9.58579 17.75 10 17.75H13C13.4142 17.75 13.75 17.4142 13.75 17C13.75 16.5858 13.4142 16.25 13 16.25H10Z" fill="#23262A"/>
</svg>
