<svg width="24" height="24" viewBox="0 0 24 24" fill="none" xmlns="http://www.w3.org/2000/svg">
<path fill-rule="evenodd" clip-rule="evenodd" d="M13.4063 10.0417C13.6223 9.75064 13.75 9.39023 13.75 9C13.75 8.0335 12.9665 7.25 12 7.25C11.0335 7.25 10.25 8.0335 10.25 9C10.25 9.9665 11.0335 10.75 12 10.75C12.0668 10.75 12.1326 10.7463 12.1974 10.739C12.2307 10.8684 12.2615 11.0113 12.286 11.1653C12.3972 11.8629 12.3847 12.8297 11.8331 13.785C11.3571 14.6095 10.8202 15.1833 10.1875 15.4401C9.51034 15.7149 8.87626 15.5682 8.3732 15.2777C7.87015 14.9873 7.42608 14.5115 7.32548 13.7877C7.2762 13.4332 7.31554 13.0579 7.43269 12.6623C7.38927 12.7068 7.3474 12.7518 7.30722 12.7971C6.92849 13.2241 6.75 13.6248 6.75 14.0001V20.5C6.75 20.9143 6.41421 21.25 6 21.25C5.58579 21.25 5.25 20.9143 5.25 20.5V14.0001C5.25 13.1253 5.6684 12.3843 6.18501 11.8018C6.38174 11.58 6.6001 11.3725 6.82984 11.1796C6.30507 11.0929 5.86373 10.9228 5.51654 10.6524C4.94002 10.2033 4.75 9.58088 4.75 9C4.75 8.41912 4.94002 7.79665 5.51654 7.34763C6.05527 6.92804 6.82067 6.75 7.77273 6.75C7.89492 6.75 8.01393 6.7558 8.1297 6.76672C8.0621 6.67161 7.99732 6.5711 7.93601 6.46489C7.45998 5.64039 7.23147 4.88852 7.32548 4.21216C7.42608 3.48837 7.87015 3.01258 8.3732 2.72214C8.87626 2.4317 9.51034 2.28502 10.1875 2.55979C10.8202 2.81656 11.3571 3.39039 11.8331 4.21489C11.8955 4.32287 11.9509 4.431 12.0001 4.53887C12.0493 4.431 12.1047 4.32287 12.1671 4.21489C12.6431 3.39039 13.18 2.81656 13.8127 2.55979C14.4898 2.28502 15.1239 2.4317 15.627 2.72214C16.13 3.01257 16.5741 3.48837 16.6747 4.21216C16.7687 4.88852 16.5402 5.64039 16.0642 6.46489C16.0029 6.57109 15.9381 6.6716 15.8705 6.7667C15.9862 6.7558 16.1051 6.75 16.2273 6.75C17.1793 6.75 17.9447 6.92804 18.4835 7.34763C19.06 7.79665 19.25 8.41912 19.25 9C19.25 9.58088 19.06 10.2033 18.4835 10.6524C17.9447 11.072 17.1793 11.25 16.2273 11.25C15.1242 11.25 14.2806 10.7775 13.7321 10.3324C13.6107 10.2339 13.502 10.1354 13.4063 10.0417ZM14.2174 14.878C14.1326 14.8066 14.0603 14.7512 14.0068 14.7122C13.9743 14.6884 13.9415 14.6652 13.9078 14.6433C13.6599 14.483 13.3406 14.4826 13.0927 14.6429L12.9932 14.7122C12.9397 14.7512 12.8674 14.8066 12.7826 14.878C12.6138 15.0201 12.391 15.2295 12.1676 15.5048C11.7225 16.0533 11.25 16.8969 11.25 18C11.25 18.952 11.428 19.7174 11.8476 20.2562C12.2967 20.8327 12.9191 21.0227 13.5 21.0227C14.0809 21.0227 14.7033 20.8327 15.1524 20.2562C15.572 19.7174 15.75 18.952 15.75 18C15.75 16.8969 15.2775 16.0533 14.8324 15.5048C14.6091 15.2295 14.3862 15.0201 14.2174 14.878ZM11.25 9C11.25 8.58579 11.5858 8.25 12 8.25C12.4142 8.25 12.75 8.58579 12.75 9C12.75 9.41421 12.4142 9.75 12 9.75C11.5858 9.75 11.25 9.41421 11.25 9Z" fill="#23262A"/>
</svg>
