<svg width="24" height="24" viewBox="0 0 24 24" fill="none" xmlns="http://www.w3.org/2000/svg">
<path fill-rule="evenodd" clip-rule="evenodd" d="M11.8328 4.21494C11.8952 4.32308 11.9508 4.43136 12 4.53939C12.0492 4.43136 12.1047 4.32308 12.1672 4.21494C12.6432 3.39043 13.1801 2.8166 13.8128 2.55984C14.4899 2.28507 15.124 2.43174 15.6271 2.72218C16.1301 3.01262 16.5742 3.48842 16.6748 4.2122C16.7688 4.88856 16.5403 5.64043 16.0643 6.46494C16.003 6.57112 15.9382 6.6716 15.8706 6.76669C15.9863 6.75579 16.1052 6.75 16.2273 6.75C17.1793 6.75 17.9447 6.92804 18.4835 7.34763C19.06 7.79665 19.25 8.41912 19.25 9C19.25 9.58088 19.06 10.2033 18.4835 10.6524C17.9447 11.072 17.1793 11.25 16.2273 11.25C15.1576 11.25 14.3319 10.8057 13.7827 10.3729C13.4281 10.8327 12.8996 11.1515 12.2957 11.2307C12.3956 11.9226 12.3673 12.8592 11.8328 13.785C11.3568 14.6095 10.8199 15.1833 10.1871 15.4401C9.51001 15.7149 8.87593 15.5682 8.37287 15.2777C7.86982 14.9873 7.42575 14.5115 7.32515 13.7877C7.27589 13.4333 7.31518 13.0582 7.43222 12.6628C7.38897 12.7072 7.34726 12.7519 7.30722 12.7971C6.92849 13.2241 6.75 13.6248 6.75 14V20.5C6.75 20.9143 6.41421 21.25 6 21.25C5.58579 21.25 5.25 20.9143 5.25 20.5V14C5.25 13.1253 5.6684 12.3842 6.18501 11.8018C6.38174 11.58 6.6001 11.3725 6.82984 11.1796C6.30507 11.0929 5.86373 10.9228 5.51654 10.6524C4.94002 10.2033 4.75 9.58088 4.75 9C4.75 8.41912 4.94002 7.79665 5.51654 7.34763C6.05527 6.92804 6.82067 6.75 7.77273 6.75C7.89478 6.75 8.01366 6.75578 8.12932 6.76668C8.06173 6.67159 7.99698 6.57111 7.93568 6.46494C7.45965 5.64043 7.23114 4.88856 7.32515 4.21221C7.42575 3.48842 7.86982 3.01262 8.37287 2.72218C8.87593 2.43174 9.51001 2.28507 10.1871 2.55984C10.8199 2.8166 11.3568 3.39043 11.8328 4.21494ZM9.62312 3.94976C9.48156 3.89232 9.33726 3.89745 9.12287 4.02122C8.90849 4.14499 8.8319 4.2674 8.81087 4.41871C8.78324 4.61746 8.83211 5.0176 9.23472 5.71494C9.56182 6.28149 10.0621 6.59313 10.5141 6.76612C10.5978 6.79817 10.6786 6.8249 10.7544 6.84715C10.7731 6.77034 10.7903 6.68706 10.8044 6.59852C10.8806 6.1206 10.8609 5.53149 10.5338 4.96494C10.1311 4.2676 9.80905 4.02521 9.62312 3.94976ZM13.4662 4.96494C13.8688 4.2676 14.1909 4.02521 14.3768 3.94976C14.5184 3.89232 14.6627 3.89745 14.8771 4.02122C15.0915 4.14499 15.1681 4.2674 15.1891 4.41871C15.2167 4.61746 15.1678 5.0176 14.7652 5.71494C14.4381 6.28149 13.9378 6.59313 13.4858 6.76612C13.4021 6.79817 13.3214 6.8249 13.2455 6.84715C13.2269 6.77035 13.2097 6.68706 13.1955 6.59852C13.1194 6.1206 13.1391 5.53149 13.4662 4.96494ZM6.25 9C6.25 8.75245 6.31771 8.62492 6.43824 8.53105C6.59655 8.40775 6.96751 8.25 7.77273 8.25C8.42693 8.25 8.94701 8.52747 9.32285 8.83241C9.39247 8.8889 9.45598 8.94545 9.51317 9C9.45598 9.05454 9.39247 9.1111 9.32285 9.16759C8.94701 9.47253 8.42693 9.75 7.77273 9.75C6.96751 9.75 6.59655 9.59225 6.43824 9.46895C6.31771 9.37508 6.25 9.24755 6.25 9ZM11.25 9C11.25 8.58579 11.5858 8.25 12 8.25C12.4142 8.25 12.75 8.58579 12.75 9C12.75 9.41421 12.4142 9.75 12 9.75C11.5858 9.75 11.25 9.41421 11.25 9ZM14.4869 9C14.5441 9.05455 14.6076 9.11111 14.6772 9.1676C15.053 9.47253 15.5731 9.75 16.2273 9.75C17.0325 9.75 17.4035 9.59225 17.5618 9.46895C17.6823 9.37508 17.75 9.24755 17.75 9C17.75 8.75245 17.6823 8.62492 17.5618 8.53105C17.4035 8.40775 17.0325 8.25 16.2273 8.25C15.5731 8.25 15.053 8.52747 14.6772 8.8324C14.6076 8.88889 14.5441 8.94545 14.4869 9ZM10.5141 11.2338C10.5978 11.2017 10.6786 11.175 10.7544 11.1528C10.7731 11.2296 10.7903 11.3129 10.8044 11.4014C10.8806 11.8793 10.8609 12.4684 10.5338 13.035C10.1311 13.7323 9.80905 13.9747 9.62312 14.0502C9.48156 14.1076 9.33726 14.1025 9.12287 13.9787C8.90849 13.8549 8.8319 13.7325 8.81087 13.5812C8.78324 13.3825 8.83211 12.9823 9.23472 12.285C9.56182 11.7184 10.0621 11.4068 10.5141 11.2338ZM13.0927 14.643C13.3406 14.4827 13.6594 14.4827 13.9073 14.643C14.0162 14.7136 14.1182 14.7945 14.2174 14.878C14.3862 15.0201 14.6091 15.2296 14.8324 15.5048C15.2775 16.0534 15.75 16.8969 15.75 18C15.75 18.9521 15.572 19.7175 15.1524 20.2562C14.7033 20.8327 14.0809 21.0227 13.5 21.0227C12.9191 21.0227 12.2967 20.8327 11.8476 20.2562C11.428 19.7175 11.25 18.9521 11.25 18C11.25 16.8969 11.7225 16.0534 12.1676 15.5048C12.3909 15.2296 12.6138 15.0201 12.7826 14.878C12.8818 14.7945 12.9838 14.7136 13.0927 14.643ZM13.3324 16.45C13.3889 16.3803 13.4454 16.3168 13.5 16.2596C13.5546 16.3168 13.6111 16.3803 13.6676 16.45C13.9725 16.8258 14.25 17.3458 14.25 18C14.25 18.8052 14.0923 19.1762 13.969 19.3345C13.8751 19.455 13.7475 19.5227 13.5 19.5227C13.2525 19.5227 13.1249 19.455 13.031 19.3345C12.9077 19.1762 12.75 18.8052 12.75 18C12.75 17.3458 13.0275 16.8258 13.3324 16.45Z" fill="#23262A"/>
</svg>
