<svg width="24" height="24" viewBox="0 0 24 24" fill="none" xmlns="http://www.w3.org/2000/svg">
<path fill-rule="evenodd" clip-rule="evenodd" d="M5.25 8.5C5.25 4.77208 8.27208 1.75 12 1.75C15.7279 1.75 18.75 4.77208 18.75 8.5C18.75 11.9744 16.125 14.8357 12.75 15.2088V21.5C12.75 21.9142 12.4142 22.25 12 22.25C11.5858 22.25 11.25 21.9142 11.25 21.5V15.2088C7.87504 14.8357 5.25 11.9744 5.25 8.5ZM3.5 14.25C3.08579 14.25 2.75 14.5858 2.75 15C2.75 16.6312 3.15996 17.9045 3.81346 18.8848C4.46383 19.8603 5.32562 20.5013 6.16459 20.9208C7.00063 21.3388 7.82758 21.5441 8.4392 21.646C8.74679 21.6973 9.00475 21.7232 9.18875 21.7364C9.28088 21.743 9.35484 21.7464 9.40763 21.7481C9.43841 21.7491 9.4692 21.75 9.5 21.75C9.91421 21.75 10.25 21.4142 10.25 21C10.25 19.3688 9.84004 18.0955 9.18654 17.1152C8.53617 16.1397 7.67438 15.4987 6.83541 15.0792C5.99937 14.6612 5.17242 14.4559 4.5608 14.354C4.21189 14.2958 3.85453 14.2504 3.5 14.25ZM20.5 14.25C20.9142 14.25 21.25 14.5858 21.25 15C21.25 16.6312 20.84 17.9045 20.1865 18.8848C19.5362 19.8603 18.6744 20.5013 17.8354 20.9208C16.9994 21.3388 16.1724 21.5441 15.5608 21.646C15.2532 21.6973 14.9952 21.7232 14.8112 21.7364C14.7191 21.743 14.6452 21.7464 14.5924 21.7481L14.5 21.75C14.0858 21.75 13.75 21.4142 13.75 21C13.75 19.3688 14.16 18.0955 14.8135 17.1152C15.4638 16.1397 16.3256 15.4987 17.1646 15.0792C18.0006 14.6612 18.8276 14.4559 19.4392 14.354C19.7468 14.3027 20.0048 14.2768 20.1888 14.2636C20.2809 14.257 20.3548 14.2536 20.4076 14.2519C20.4384 14.2509 20.4692 14.25 20.5 14.25Z" fill="#23262A"/>
</svg>
