<svg width="24" height="24" viewBox="0 0 24 24" fill="none" xmlns="http://www.w3.org/2000/svg">
<path fill-rule="evenodd" clip-rule="evenodd" d="M5.25 8.5C5.25 4.77208 8.27208 1.75 12 1.75C15.7279 1.75 18.75 4.77208 18.75 8.5C18.75 11.9744 16.125 14.8357 12.75 15.2088V21.5C12.75 21.9142 12.4142 22.25 12 22.25C11.5858 22.25 11.25 21.9142 11.25 21.5V15.2088C7.87504 14.8357 5.25 11.9744 5.25 8.5ZM10.25 6C10.25 5.58579 10.5858 5.25 11 5.25H12.5V6C12.5 5.25 12.5004 5.25 12.5008 5.25L12.5015 5.25L12.5032 5.25001L12.507 5.25003L12.5164 5.25014L12.5418 5.25078C12.5617 5.25144 12.5873 5.25265 12.6179 5.25484C12.6788 5.25919 12.761 5.26753 12.8577 5.28364C13.0474 5.31527 13.3119 5.37991 13.5854 5.51668C13.8619 5.65492 14.1612 5.87405 14.3897 6.21679C14.6213 6.56422 14.75 6.99376 14.75 7.5C14.75 8.00624 14.6213 8.43578 14.3897 8.78321C14.1612 9.12595 13.8619 9.34508 13.5854 9.48332C13.3119 9.62009 13.0474 9.68473 12.8577 9.71636C12.761 9.73247 12.6788 9.74081 12.6179 9.74516C12.5873 9.74735 12.5617 9.74856 12.5418 9.74922L12.5164 9.74986L12.507 9.74997L12.5032 9.74999L12.5015 9.75L12.5008 9.75C12.5004 9.75 12.5 9.75 12.5 9V9.75H11.75V11.5C11.75 11.9142 11.4142 12.25 11 12.25C10.5858 12.25 10.25 11.9142 10.25 11.5V6ZM11.75 8.25H12.4932L12.5032 8.24949L12.511 8.24898C12.5321 8.24747 12.5671 8.2441 12.6111 8.23677C12.7026 8.22152 12.8131 8.19241 12.9146 8.14168C13.0131 8.09242 13.0888 8.0303 13.1416 7.95116C13.1912 7.87672 13.25 7.74376 13.25 7.5C13.25 7.25624 13.1912 7.12328 13.1416 7.04884C13.0888 6.9697 13.0131 6.90758 12.9146 6.85832C12.8131 6.80759 12.7026 6.77848 12.6111 6.76323C12.5671 6.7559 12.5321 6.75253 12.511 6.75102C12.5023 6.7504 12.4962 6.75012 12.4932 6.75H11.75V8.25ZM3.50174 14.25L3.5 14.25C3.08579 14.25 2.75 14.5858 2.75 15C2.75 16.6312 3.15996 17.9045 3.81346 18.8848C4.46383 19.8603 5.32562 20.5013 6.16459 20.9208C7.00063 21.3388 7.82758 21.5441 8.4392 21.646C8.74679 21.6973 9.00475 21.7232 9.18875 21.7364C9.28088 21.743 9.35484 21.7464 9.40763 21.7481C9.43841 21.7491 9.4692 21.75 9.5 21.75C9.91421 21.75 10.25 21.4142 10.25 21C10.25 19.3688 9.84004 18.0955 9.18654 17.1152C8.53617 16.1397 7.67438 15.4987 6.83541 15.0792C5.99937 14.6612 5.17242 14.4559 4.5608 14.354C4.25321 14.3027 3.99525 14.2768 3.81125 14.2636C3.71912 14.257 3.64516 14.2536 3.59237 14.2519C3.56217 14.2509 3.53196 14.2501 3.50174 14.25ZM20.5 14.25C20.9142 14.25 21.25 14.5858 21.25 15C21.25 16.6312 20.84 17.9045 20.1865 18.8848C19.5362 19.8603 18.6744 20.5013 17.8354 20.9208C16.9994 21.3388 16.1724 21.5441 15.5608 21.646C15.2532 21.6973 14.9952 21.7232 14.8112 21.7364C14.7191 21.743 14.6452 21.7464 14.5924 21.7481C14.5622 21.7491 14.532 21.7497 14.5017 21.75L14.5 21.75C14.0858 21.75 13.75 21.4142 13.75 21C13.75 19.3688 14.16 18.0955 14.8135 17.1152C15.4638 16.1397 16.3256 15.4987 17.1646 15.0792C18.0006 14.6612 18.8276 14.4559 19.4392 14.354C19.7468 14.3027 20.0048 14.2768 20.1888 14.2636C20.2809 14.257 20.3548 14.2536 20.4076 14.2519C20.4371 14.2509 20.4665 14.2503 20.496 14.25L20.4983 14.25L20.5 14.25Z" fill="#23262A"/>
</svg>
