<svg width="24" height="24" viewBox="0 0 24 24" fill="none" xmlns="http://www.w3.org/2000/svg">
<path fill-rule="evenodd" clip-rule="evenodd" d="M12 1.75C8.27208 1.75 5.25 4.77208 5.25 8.5C5.25 11.9744 7.87504 14.8357 11.25 15.2088V21.5C11.25 21.9142 11.5858 22.25 12 22.25C12.4142 22.25 12.75 21.9142 12.75 21.5V15.2088C16.125 14.8357 18.75 11.9744 18.75 8.5C18.75 4.77208 15.7279 1.75 12 1.75ZM3.5 14.25V15C3.5 14.25 3.50039 14.25 3.5008 14.25L3.50174 14.25L3.50405 14.25L3.5103 14.25L3.52931 14.2503C3.54482 14.2505 3.56596 14.251 3.59237 14.2519C3.64516 14.2536 3.71912 14.257 3.81125 14.2636C3.99525 14.2768 4.25321 14.3027 4.5608 14.354C5.17242 14.4559 5.99937 14.6612 6.83541 15.0792C7.67438 15.4987 8.53617 16.1397 9.18654 17.1152C9.84004 18.0955 10.25 19.3688 10.25 21C10.25 21.4142 9.91421 21.75 9.5 21.75V21C9.5 21.75 9.49961 21.75 9.4992 21.75L9.49826 21.75L9.49595 21.75L9.4897 21.75L9.47069 21.7497C9.45518 21.7495 9.43404 21.749 9.40763 21.7481C9.35484 21.7464 9.28088 21.743 9.18875 21.7364C9.00475 21.7232 8.74679 21.6973 8.4392 21.646C7.82758 21.5441 7.00063 21.3388 6.16459 20.9208C5.32562 20.5013 4.46383 19.8603 3.81346 18.8848C3.15996 17.9045 2.75 16.6312 2.75 15C2.75 14.5858 3.08579 14.25 3.5 14.25ZM14.5 21C14.5 21.75 14.5004 21.75 14.5008 21.75L14.5017 21.75L14.504 21.75L14.5103 21.75L14.5293 21.7497C14.5448 21.7495 14.566 21.749 14.5924 21.7481C14.6452 21.7464 14.7191 21.743 14.8112 21.7364C14.9952 21.7232 15.2532 21.6973 15.5608 21.646C16.1724 21.5441 16.9994 21.3388 17.8354 20.9208C18.6744 20.5013 19.5362 19.8603 20.1865 18.8848C20.84 17.9045 21.25 16.6312 21.25 15C21.25 14.5858 20.9142 14.25 20.5 14.25V15C20.5 14.25 20.4996 14.25 20.4992 14.25L20.4983 14.25L20.496 14.25L20.4897 14.25L20.4707 14.2503C20.4552 14.2505 20.434 14.251 20.4076 14.2519C20.3548 14.2536 20.2809 14.257 20.1888 14.2636C20.0048 14.2768 19.7468 14.3027 19.4392 14.354C18.8276 14.4559 18.0006 14.6612 17.1646 15.0792C16.3256 15.4987 15.4638 16.1397 14.8135 17.1152C14.16 18.0955 13.75 19.3688 13.75 21C13.75 21.4142 14.0858 21.75 14.5 21.75V21Z" fill="#23262A"/>
</svg>
