<svg width="24" height="24" viewBox="0 0 24 24" fill="none" xmlns="http://www.w3.org/2000/svg">
<path fill-rule="evenodd" clip-rule="evenodd" d="M12 4.53939C11.9508 4.43136 11.8952 4.32308 11.8328 4.21494C11.3568 3.39043 10.8199 2.8166 10.1871 2.55984C9.51001 2.28507 8.87593 2.43174 8.37287 2.72218C7.86982 3.01262 7.42575 3.48842 7.32515 4.21221C7.23114 4.88856 7.45965 5.64043 7.93568 6.46494C7.99698 6.57111 8.06173 6.67159 8.12932 6.76668C8.01366 6.75578 7.89478 6.75 7.77273 6.75C6.82067 6.75 6.05527 6.92804 5.51654 7.34763C4.94002 7.79665 4.75 8.41912 4.75 9C4.75 9.58088 4.94002 10.2033 5.51654 10.6524C5.86373 10.9228 6.30507 11.0929 6.82984 11.1796C6.6001 11.3725 6.38174 11.58 6.18501 11.8018C5.6684 12.3842 5.25 13.1253 5.25 14V20.5C5.25 20.9143 5.58579 21.25 6 21.25C6.41421 21.25 6.75 20.9143 6.75 20.5V14C6.75 13.6248 6.92849 13.2241 7.30722 12.7971C7.34726 12.7519 7.38897 12.7072 7.43222 12.6628C7.31518 13.0582 7.27589 13.4333 7.32515 13.7877C7.42575 14.5115 7.86982 14.9873 8.37287 15.2777C8.87593 15.5682 9.51001 15.7149 10.1871 15.4401C10.8199 15.1833 11.3568 14.6095 11.8328 13.785C11.9137 13.6448 11.983 13.5044 12.042 13.3647C12.1094 13.5386 12.1923 13.7139 12.2933 13.8887C12.7693 14.7132 13.3062 15.2871 13.9389 15.5438C14.6161 15.8186 15.2501 15.6719 15.7532 15.3815C16.2563 15.091 16.7003 14.6153 16.8009 13.8915C16.8949 13.2151 16.6664 12.4632 16.1904 11.6387C16.1074 11.4949 16.018 11.3616 15.9239 11.238C16.0227 11.2458 16.1239 11.25 16.2273 11.25C17.1793 11.25 17.9447 11.072 18.4835 10.6524C19.06 10.2033 19.25 9.58088 19.25 9C19.25 8.41912 19.06 7.79665 18.4835 7.34763C17.9447 6.92804 17.1793 6.75 16.2273 6.75C16.1052 6.75 15.9863 6.75579 15.8706 6.76669C15.9382 6.6716 16.003 6.57112 16.0643 6.46494C16.5403 5.64043 16.7688 4.88856 16.6748 4.2122C16.5742 3.48842 16.1301 3.01262 15.6271 2.72218C15.124 2.43174 14.4899 2.28507 13.8128 2.55984C13.1801 2.8166 12.6432 3.39043 12.1672 4.21494C12.1047 4.32308 12.0492 4.43136 12 4.53939ZM9.12287 4.02122C9.33726 3.89745 9.48156 3.89232 9.62312 3.94976C9.80905 4.02521 10.1311 4.2676 10.5338 4.96494C10.8609 5.53149 10.8806 6.1206 10.8044 6.59852C10.7903 6.68706 10.7731 6.77034 10.7544 6.84715C10.6786 6.8249 10.5978 6.79817 10.5141 6.76612C10.0621 6.59313 9.56182 6.28149 9.23472 5.71494C8.83211 5.0176 8.78324 4.61746 8.81087 4.41871C8.8319 4.2674 8.90849 4.14499 9.12287 4.02122ZM14.3768 3.94976C14.1909 4.02521 13.8688 4.2676 13.4662 4.96494C13.1391 5.53149 13.1194 6.1206 13.1955 6.59852C13.2097 6.68706 13.2269 6.77035 13.2455 6.84715C13.3214 6.8249 13.4021 6.79817 13.4858 6.76612C13.9378 6.59313 14.4381 6.28149 14.7652 5.71494C15.1678 5.0176 15.2167 4.61746 15.1891 4.41871C15.1681 4.2674 15.0915 4.14499 14.8771 4.02122C14.6627 3.89745 14.5184 3.89232 14.3768 3.94976ZM6.43824 8.53105C6.31771 8.62492 6.25 8.75245 6.25 9C6.25 9.24755 6.31771 9.37508 6.43824 9.46895C6.59655 9.59225 6.96751 9.75 7.77273 9.75C8.42693 9.75 8.94701 9.47253 9.32285 9.16759C9.39247 9.1111 9.45598 9.05454 9.51317 9C9.45598 8.94545 9.39247 8.8889 9.32285 8.83241C8.94701 8.52747 8.42693 8.25 7.77273 8.25C6.96751 8.25 6.59655 8.40775 6.43824 8.53105ZM11.25 9C11.25 8.58579 11.5858 8.25 12 8.25C12.4142 8.25 12.75 8.58579 12.75 9C12.75 9.41421 12.4142 9.75 12 9.75C11.5858 9.75 11.25 9.41421 11.25 9ZM13.3217 11.5051C13.3358 11.4166 13.353 11.3333 13.3717 11.2565C13.4475 11.2788 13.5282 11.3055 13.612 11.3375C14.0639 11.5105 14.5643 11.8222 14.8914 12.3887C15.294 13.0861 15.3428 13.4862 15.3152 13.685C15.2942 13.8363 15.2176 13.9587 15.0032 14.0825C14.7888 14.2062 14.6445 14.2114 14.503 14.1539C14.317 14.0785 13.9949 13.8361 13.5923 13.1387C13.2652 12.5722 13.2455 11.9831 13.3217 11.5051ZM14.6772 9.1676C14.6076 9.11111 14.5441 9.05455 14.4869 9C14.5441 8.94545 14.6076 8.88889 14.6772 8.8324C15.053 8.52747 15.5731 8.25 16.2273 8.25C17.0325 8.25 17.4035 8.40775 17.5618 8.53105C17.6823 8.62492 17.75 8.75245 17.75 9C17.75 9.24755 17.6823 9.37508 17.5618 9.46895C17.4035 9.59225 17.0325 9.75 16.2273 9.75C15.5731 9.75 15.053 9.47253 14.6772 9.1676ZM10.7544 11.1528C10.6786 11.175 10.5978 11.2017 10.5141 11.2338C10.0621 11.4068 9.56182 11.7184 9.23472 12.285C8.83211 12.9823 8.78324 13.3825 8.81087 13.5812C8.8319 13.7325 8.90849 13.8549 9.12287 13.9787C9.33726 14.1025 9.48156 14.1076 9.62312 14.0502C9.80905 13.9747 10.1311 13.7323 10.5338 13.035C10.8609 12.4684 10.8806 11.8793 10.8044 11.4014C10.7903 11.3129 10.7731 11.2296 10.7544 11.1528Z" fill="#23262A"/>
</svg>
