<svg width="24" height="24" viewBox="0 0 24 24" fill="none" xmlns="http://www.w3.org/2000/svg">
<path fill-rule="evenodd" clip-rule="evenodd" d="M12 3.25C9.1005 3.25 6.75 5.60051 6.75 8.5C6.75 11.3995 9.1005 13.75 12 13.75C14.8995 13.75 17.25 11.3995 17.25 8.5C17.25 5.60051 14.8995 3.25 12 3.25ZM18.75 8.5C18.75 11.9744 16.125 14.8357 12.75 15.2088V21.5C12.75 21.9142 12.4142 22.25 12 22.25C11.5858 22.25 11.25 21.9142 11.25 21.5V15.2088C7.87504 14.8357 5.25 11.9744 5.25 8.5C5.25 4.77208 8.27208 1.75 12 1.75C15.7279 1.75 18.75 4.77208 18.75 8.5ZM3.5 15V14.25C3.08579 14.25 2.75 14.5858 2.75 15C2.75 16.6312 3.15996 17.9045 3.81346 18.8848C4.46383 19.8603 5.32562 20.5013 6.16459 20.9208C7.00063 21.3388 7.82758 21.5441 8.4392 21.646C8.74679 21.6973 9.00475 21.7232 9.18875 21.7364C9.28088 21.743 9.35484 21.7464 9.40763 21.7481C9.43404 21.749 9.45518 21.7495 9.47069 21.7497L9.4897 21.75L9.49595 21.75L9.49826 21.75L9.4992 21.75C9.49961 21.75 9.5 21.75 9.5 21V21.75C9.91421 21.75 10.25 21.4142 10.25 21C10.25 19.3688 9.84004 18.0955 9.18654 17.1152C8.53617 16.1397 7.67438 15.4987 6.83541 15.0792C5.99937 14.6612 5.17242 14.4559 4.5608 14.354C4.25321 14.3027 3.99525 14.2768 3.81125 14.2636C3.71912 14.257 3.64516 14.2536 3.59237 14.2519C3.56596 14.251 3.54482 14.2505 3.52931 14.2503L3.5103 14.25L3.50405 14.25L3.50174 14.25L3.5008 14.25C3.50039 14.25 3.5 14.25 3.5 15ZM7.93846 17.9473C8.3085 18.5023 8.59757 19.2234 8.70484 20.1696L8.6858 20.1665C8.17242 20.0809 7.49937 19.9112 6.83541 19.5792C6.17438 19.2487 5.53617 18.7647 5.06154 18.0527C4.6915 17.4977 4.40243 16.7766 4.29516 15.8304L4.3142 15.8335C4.82758 15.9191 5.50063 16.0888 6.16459 16.4208C6.82562 16.7513 7.46383 17.2353 7.93846 17.9473ZM21.25 15C21.25 14.5858 20.9142 14.25 20.5 14.25V15C20.5 14.25 20.4996 14.25 20.4992 14.25L20.4983 14.25L20.496 14.25L20.4897 14.25L20.4707 14.2503C20.4552 14.2505 20.434 14.251 20.4076 14.2519C20.3548 14.2536 20.2809 14.257 20.1888 14.2636C20.0048 14.2768 19.7468 14.3027 19.4392 14.354C18.8276 14.4559 18.0006 14.6612 17.1646 15.0792C16.3256 15.4987 15.4638 16.1397 14.8135 17.1152C14.16 18.0955 13.75 19.3688 13.75 21C13.75 21.4142 14.0858 21.75 14.5 21.75V21C14.5 21.75 14.5004 21.75 14.5008 21.75L14.5017 21.75L14.504 21.75L14.5103 21.75L14.5293 21.7497C14.5448 21.7495 14.566 21.749 14.5924 21.7481C14.6452 21.7464 14.7191 21.743 14.8112 21.7364C14.9952 21.7232 15.2532 21.6973 15.5608 21.646C16.1724 21.5441 16.9994 21.3388 17.8354 20.9208C18.6744 20.5013 19.5362 19.8603 20.1865 18.8848C20.84 17.9045 21.25 16.6312 21.25 15ZM19.6858 15.8335L19.7048 15.8304C19.5976 16.7766 19.3085 17.4977 18.9385 18.0527C18.4638 18.7647 17.8256 19.2487 17.1646 19.5792C16.5006 19.9112 15.8276 20.0809 15.3142 20.1665L15.2952 20.1696C15.4024 19.2234 15.6915 18.5023 16.0615 17.9473C16.5362 17.2353 17.1744 16.7513 17.8354 16.4208C18.4994 16.0888 19.1724 15.9191 19.6858 15.8335Z" fill="#23262A"/>
</svg>
