<svg width="24" height="24" viewBox="0 0 24 24" fill="none" xmlns="http://www.w3.org/2000/svg">
<path fill-rule="evenodd" clip-rule="evenodd" d="M16.2273 11.25C16.1238 11.25 16.0227 11.2458 15.9238 11.2379C16.0179 11.3616 16.1073 11.4949 16.1903 11.6387C16.6663 12.4632 16.8948 13.2151 16.8008 13.8914C16.7002 14.6152 16.2562 15.091 15.7531 15.3815C15.25 15.6719 14.616 15.8186 13.9388 15.5438C13.3061 15.2871 12.7692 14.7132 12.2932 13.8887C12.1923 13.714 12.1095 13.539 12.0421 13.3652C11.9832 13.5048 11.9139 13.645 11.8331 13.785C11.3571 14.6095 10.8202 15.1833 10.1875 15.4401C9.51034 15.7149 8.87626 15.5682 8.3732 15.2777C7.87015 14.9873 7.42608 14.5115 7.32548 13.7877C7.2762 13.4332 7.31554 13.0579 7.43269 12.6623C7.38927 12.7068 7.3474 12.7518 7.30722 12.7971C6.92849 13.2241 6.75 13.6248 6.75 14.0001V20.5C6.75 20.9143 6.41421 21.25 6 21.25C5.58579 21.25 5.25 20.9143 5.25 20.5V14.0001C5.25 13.1253 5.6684 12.3843 6.18501 11.8018C6.38174 11.58 6.6001 11.3725 6.82984 11.1796C6.30507 11.0929 5.86373 10.9228 5.51654 10.6524C4.94002 10.2033 4.75 9.58088 4.75 9C4.75 8.41912 4.94002 7.79665 5.51654 7.34763C6.05527 6.92804 6.82067 6.75 7.77273 6.75C7.89492 6.75 8.01393 6.7558 8.1297 6.76672C8.0621 6.67161 7.99732 6.5711 7.93601 6.46489C7.45998 5.64039 7.23147 4.88852 7.32548 4.21216C7.42608 3.48837 7.87015 3.01258 8.3732 2.72214C8.87626 2.4317 9.51034 2.28502 10.1875 2.55979C10.8202 2.81656 11.3571 3.39039 11.8331 4.21489C11.8955 4.32287 11.9509 4.431 12.0001 4.53887C12.0493 4.431 12.1047 4.32287 12.1671 4.21489C12.6431 3.39039 13.18 2.81656 13.8127 2.55979C14.4898 2.28502 15.1239 2.4317 15.627 2.72214C16.13 3.01257 16.5741 3.48837 16.6747 4.21216C16.7687 4.88852 16.5402 5.64039 16.0642 6.46489C16.0029 6.57109 15.9381 6.6716 15.8705 6.7667C15.9862 6.7558 16.1051 6.75 16.2273 6.75C17.1793 6.75 17.9447 6.92804 18.4835 7.34763C19.06 7.79665 19.25 8.41912 19.25 9C19.25 9.58088 19.06 10.2033 18.4835 10.6524C17.9447 11.072 17.1793 11.25 16.2273 11.25ZM10.25 9C10.25 8.0335 11.0335 7.25 12 7.25C12.9665 7.25 13.75 8.0335 13.75 9C13.75 9.9665 12.9665 10.75 12 10.75C11.0335 10.75 10.25 9.9665 10.25 9ZM11.25 9C11.25 8.58579 11.5858 8.25 12 8.25C12.4142 8.25 12.75 8.58579 12.75 9C12.75 9.41421 12.4142 9.75 12 9.75C11.5858 9.75 11.25 9.41421 11.25 9Z" fill="#23262A"/>
</svg>
