<svg width="24" height="24" viewBox="0 0 24 24" fill="none" xmlns="http://www.w3.org/2000/svg">
<path d="M6.71973 10.25C7.11737 10.25 7.44043 10.5858 7.44043 11V15C7.44043 15.138 7.54728 15.2498 7.67969 15.25H10.0801C11.0079 15.25 11.7598 16.0335 11.7598 17V21C11.7598 21.4142 11.4377 21.75 11.04 21.75C10.6424 21.75 10.3203 21.4142 10.3203 21V17C10.3203 16.862 10.2126 16.75 10.0801 16.75H7.67969C6.75199 16.7498 6 15.9664 6 15V11C6 10.5859 6.32221 10.2502 6.71973 10.25ZM18.7197 11.25C19.1174 11.25 19.4404 11.5858 19.4404 12C19.4404 12.4142 19.1174 12.75 18.7197 12.75H16.0801V21C16.0801 21.4141 15.7578 21.7498 15.3604 21.75C14.9627 21.75 14.6396 21.4142 14.6396 21V12.75H11.5195C11.1221 12.7497 10.7998 12.4141 10.7998 12C10.7998 11.5859 11.1221 11.2503 11.5195 11.25H18.7197ZM18.5742 5.62793C18.7715 5.26833 19.2124 5.14321 19.5576 5.34863C19.9026 5.55421 20.0223 6.01256 19.8252 6.37207L17.6982 10.25H13.9199C13.5223 10.25 13.2002 9.91419 13.2002 9.5C13.2002 9.08581 13.5223 8.75004 13.9199 8.75H16.8623L18.5742 5.62793ZM6.71973 3C8.31031 3 9.59961 4.34315 9.59961 6C9.59961 7.65685 8.31031 9 6.71973 9C5.12927 8.99985 3.83984 7.65676 3.83984 6C3.83984 4.34324 5.12927 3.00015 6.71973 3Z" fill="#202733"/>
</svg>
