<svg width="25" height="24" viewBox="0 0 25 24" fill="none" xmlns="http://www.w3.org/2000/svg">
<path d="M7 10.25C7.41421 10.25 7.75 10.5858 7.75 11V15C7.75 15.1381 7.86193 15.25 8 15.25H10.5C11.4665 15.25 12.25 16.0335 12.25 17V21C12.25 21.4142 11.9142 21.75 11.5 21.75C11.0858 21.75 10.75 21.4142 10.75 21V17C10.75 16.8619 10.6381 16.75 10.5 16.75H8C7.0335 16.75 6.25 15.9665 6.25 15V11C6.25 10.5858 6.58579 10.25 7 10.25ZM19.5 11.25C19.9142 11.25 20.25 11.5858 20.25 12C20.25 12.4142 19.9142 12.75 19.5 12.75H16.75V21C16.75 21.4142 16.4142 21.75 16 21.75C15.5858 21.75 15.25 21.4142 15.25 21V12.75H12C11.5858 12.75 11.25 12.4142 11.25 12C11.25 11.5858 11.5858 11.25 12 11.25H19.5ZM19.3486 5.62793C19.5541 5.26833 20.0124 5.14321 20.3721 5.34863C20.7317 5.55412 20.8568 6.01245 20.6514 6.37207L18.4355 10.25H14.5C14.0858 10.25 13.75 9.91421 13.75 9.5C13.75 9.08579 14.0858 8.75 14.5 8.75H17.5645L19.3486 5.62793ZM7 3C8.65685 3 10 4.34315 10 6C10 7.65685 8.65685 9 7 9C5.34315 9 4 7.65685 4 6C4 4.34315 5.34315 3 7 3Z" fill="#202733"/>
</svg>
