<svg width="24" height="24" viewBox="0 0 24 24" fill="none" xmlns="http://www.w3.org/2000/svg">
<path fill-rule="evenodd" clip-rule="evenodd" d="M3.75 6C3.75 5.86193 3.86193 5.75 4 5.75H10C10.1381 5.75 10.25 5.86193 10.25 6V8C10.25 8.41421 10.5858 8.75 11 8.75H20.25V18.25H3.75V6ZM4 4.25C3.0335 4.25 2.25 5.0335 2.25 6V18.5C2.25 19.1904 2.80964 19.75 3.5 19.75H20.5C21.1904 19.75 21.75 19.1904 21.75 18.5V8.5C21.75 7.80964 21.1904 7.25 20.5 7.25H11.75V6C11.75 5.0335 10.9665 4.25 10 4.25H4ZM12 10.25C12.4142 10.25 12.75 10.5858 12.75 11V12.75H14.5C14.9142 12.75 15.25 13.0858 15.25 13.5C15.25 13.9142 14.9142 14.25 14.5 14.25H12.75V16C12.75 16.4142 12.4142 16.75 12 16.75C11.5858 16.75 11.25 16.4142 11.25 16V14.25H9.5C9.08579 14.25 8.75 13.9142 8.75 13.5C8.75 13.0858 9.08579 12.75 9.5 12.75H11.25V11C11.25 10.5858 11.5858 10.25 12 10.25Z" fill="#23262A"/>
</svg>
