<svg width="24" height="24" viewBox="0 0 24 24" fill="none" xmlns="http://www.w3.org/2000/svg">
<path fill-rule="evenodd" clip-rule="evenodd" d="M4 5.75C3.86193 5.75 3.75 5.86193 3.75 6V18.25H20.25V8.75H11C10.5858 8.75 10.25 8.41421 10.25 8V6C10.25 5.86193 10.1381 5.75 10 5.75H4ZM2.25 6C2.25 5.0335 3.0335 4.25 4 4.25H10C10.9665 4.25 11.75 5.0335 11.75 6V7.25H20.5C21.1904 7.25 21.75 7.80964 21.75 8.5V18.5C21.75 19.1904 21.1904 19.75 20.5 19.75H3.5C2.80964 19.75 2.25 19.1904 2.25 18.5V6ZM12 10.25C12.4142 10.25 12.75 10.5858 12.75 11V12.75H14.5C14.9142 12.75 15.25 13.0858 15.25 13.5C15.25 13.9142 14.9142 14.25 14.5 14.25H12.75V16C12.75 16.4142 12.4142 16.75 12 16.75C11.5858 16.75 11.25 16.4142 11.25 16V14.25H9.5C9.08579 14.25 8.75 13.9142 8.75 13.5C8.75 13.0858 9.08579 12.75 9.5 12.75H11.25V11C11.25 10.5858 11.5858 10.25 12 10.25Z" fill="#262626"/>
</svg>
