<svg width="24" height="24" viewBox="0 0 24 24" fill="none" xmlns="http://www.w3.org/2000/svg">
<path fill-rule="evenodd" clip-rule="evenodd" d="M7.75 3.75V7.5C7.75 7.91421 7.41421 8.25 7 8.25C6.58579 8.25 6.25 7.91421 6.25 7.5V3.5C6.25 2.80964 6.80964 2.25 7.5 2.25H16.5C17.1904 2.25 17.75 2.80964 17.75 3.5V10.5C17.75 10.9142 17.4142 11.25 17 11.25C16.5858 11.25 16.25 10.9142 16.25 10.5V3.75H7.75ZM6 10.75C5.86193 10.75 5.75 10.8619 5.75 11V20.25H18.25V13.75H12C11.5858 13.75 11.25 13.4142 11.25 13V11C11.25 10.8619 11.1381 10.75 11 10.75H6ZM4.25 11C4.25 10.0335 5.0335 9.25 6 9.25H11C11.9665 9.25 12.75 10.0335 12.75 11V12.25H18.5C19.1904 12.25 19.75 12.8096 19.75 13.5V20.5C19.75 21.1904 19.1904 21.75 18.5 21.75H5.5C4.80964 21.75 4.25 21.1904 4.25 20.5V11ZM10 4.75C9.58579 4.75 9.25 5.08579 9.25 5.5C9.25 5.91421 9.58579 6.25 10 6.25H14C14.4142 6.25 14.75 5.91421 14.75 5.5C14.75 5.08579 14.4142 4.75 14 4.75H10Z" fill="#23262A"/>
</svg>
