<svg width="24" height="24" viewBox="0 0 24 24" fill="none" xmlns="http://www.w3.org/2000/svg">
<path fill-rule="evenodd" clip-rule="evenodd" d="M6.25 3.5C6.25 2.80964 6.80964 2.25 7.5 2.25H16.5C17.1904 2.25 17.75 2.80964 17.75 3.5V10.5C17.75 10.6381 17.6381 10.75 17.5 10.75H14.4722C14.3415 10.75 14.2339 10.6489 14.2147 10.5196C13.9826 8.95247 12.6317 7.75 11 7.75H6.5C6.36193 7.75 6.25 7.63807 6.25 7.5V3.5ZM10 4.75C9.58579 4.75 9.25 5.08579 9.25 5.5C9.25 5.91421 9.58579 6.25 10 6.25H14C14.4142 6.25 14.75 5.91421 14.75 5.5C14.75 5.08579 14.4142 4.75 14 4.75H10ZM6 9.25C5.0335 9.25 4.25 10.0335 4.25 11V20.5C4.25 21.1904 4.80964 21.75 5.5 21.75H18.5C19.1904 21.75 19.75 21.1904 19.75 20.5V13.5C19.75 12.8096 19.1904 12.25 18.5 12.25H12.75V11C12.75 10.0335 11.9665 9.25 11 9.25H6Z" fill="#23262A"/>
</svg>
