<svg width="24" height="24" viewBox="0 0 24 24" fill="none" xmlns="http://www.w3.org/2000/svg">
<path fill-rule="evenodd" clip-rule="evenodd" d="M4 5.75C3.86193 5.75 3.75 5.86193 3.75 6V18.25H20.25V8.75H11C10.5858 8.75 10.25 8.41421 10.25 8V6C10.25 5.86193 10.1381 5.75 10 5.75H4ZM2.25 6C2.25 5.0335 3.0335 4.25 4 4.25H10C10.9665 4.25 11.75 5.0335 11.75 6V7.25H20.5C21.1904 7.25 21.75 7.80964 21.75 8.5V18.5C21.75 19.1904 21.1904 19.75 20.5 19.75H3.5C2.80964 19.75 2.25 19.1904 2.25 18.5V6Z" fill="#23262A"/>
</svg>
