<svg width="24" height="24" viewBox="0 0 24 24" fill="none" xmlns="http://www.w3.org/2000/svg">
<path d="M5.57898 6.87212C6.6526 6.10165 8.09752 6.09575 9.17664 6.85844C10.7218 7.95103 11.6075 9.85415 10.9677 11.8272L10.4061 13.5567C9.9721 14.8944 9.98079 16.2698 10.2489 17.711C10.6033 19.6179 9.15498 21.3847 7.2157 21.4112C5.34063 21.4363 3.86451 19.8169 4.06238 17.9522L4.2157 16.5069C4.27476 15.9506 4.22827 15.388 4.07996 14.8487L3.50183 12.7452C2.89706 10.5458 3.726 8.20216 5.57898 6.87212ZM14.8846 2.85844C15.9638 2.09559 17.4086 2.10161 18.4823 2.87212C20.3354 4.20214 21.1642 6.54576 20.5594 8.74516L19.9813 10.8487C19.833 11.388 19.7865 11.9506 19.8456 12.5069L19.9999 13.9522C20.1977 15.8168 18.7215 17.4362 16.8466 17.4112C14.9071 17.385 13.458 15.618 13.8124 13.711C14.0805 12.2698 14.0892 10.8944 13.6552 9.55669L13.0946 7.82719C12.4547 5.85409 13.3394 3.95106 14.8846 2.85844Z" fill="#202733"/>
</svg>
