<svg width="24" height="24" viewBox="0 0 24 24" fill="none" xmlns="http://www.w3.org/2000/svg">
<path d="M5.57892 6.87137C6.65267 6.10081 8.0984 6.0957 9.17755 6.85867C10.7227 7.95134 11.6076 9.85436 10.9676 11.8274L10.4061 13.5569C9.97215 14.8944 9.98083 16.2694 10.2488 17.7102C10.6034 19.6173 9.15512 21.3841 7.21564 21.4104C5.34043 21.4355 3.86417 19.8163 4.06232 17.9514L4.21564 16.5071C4.27473 15.9509 4.22913 15.3882 4.08087 14.8489L3.50275 12.7444C2.89814 10.5451 3.72592 8.20133 5.57892 6.87137ZM8.31036 8.08328C7.75343 7.68984 7.00796 7.6935 6.45392 8.09109C5.11113 9.05504 4.50993 10.7531 4.94806 12.347L5.52716 14.4514C5.72514 15.1717 5.78674 15.9235 5.70782 16.6663L5.55353 18.1106C5.45052 19.0812 6.21917 19.9243 7.19513 19.9114C8.20465 19.8977 8.95872 18.9773 8.77423 17.9846C8.47588 16.3808 8.44588 14.7385 8.97931 13.094L9.53986 11.3655C9.94104 10.1289 9.42243 8.86952 8.31036 8.08328ZM14.8846 2.85867C15.9636 2.09583 17.4085 2.10119 18.4822 2.87137C20.3353 4.20131 21.164 6.54512 20.5594 8.74442L19.9813 10.8489C19.833 11.3883 19.7874 11.9509 19.8465 12.5071L19.9998 13.9514C20.198 15.8163 18.7217 17.4355 16.8465 17.4104C14.907 17.3842 13.4587 15.6173 13.8133 13.7102C14.0813 12.2693 14.0891 10.8945 13.6551 9.55692L13.0945 7.82742C12.4545 5.85431 13.3394 3.95134 14.8846 2.85867ZM17.6082 4.09109C17.0542 3.69352 16.3087 3.6899 15.7518 4.08328C14.6397 4.86952 14.1211 6.12893 14.5223 7.36551L15.0828 9.09402C15.6163 10.7385 15.5863 12.3808 15.2879 13.9846C15.1034 14.9773 15.8575 15.8977 16.867 15.9114C17.8429 15.9243 18.6107 15.0812 18.5076 14.1106L18.3543 12.6663C18.2754 11.9235 18.337 11.1717 18.535 10.4514L19.1141 8.34695C19.5522 6.75314 18.9509 5.05505 17.6082 4.09109Z" fill="#202733"/>
</svg>
