<svg width="24" height="24" viewBox="0 0 24 24" fill="none" xmlns="http://www.w3.org/2000/svg">
<path fill-rule="evenodd" clip-rule="evenodd" d="M11.25 15.6768C11.25 15.586 11.2992 15.5024 11.3786 15.4583L14.8499 13.5298C15.4054 13.2211 15.75 12.6355 15.75 12C15.75 11.3645 15.4054 10.7789 14.8499 10.4702L11.3786 8.54173C11.2992 8.49764 11.25 8.41399 11.25 8.32319V7C11.25 6.73426 11.3906 6.48836 11.6197 6.3536C11.8487 6.21883 12.1319 6.21533 12.3642 6.34438L21.3642 11.3444C21.6023 11.4767 21.75 11.7276 21.75 12C21.75 12.2724 21.6023 12.5233 21.3642 12.6556L12.3642 17.6556C12.1319 17.7847 11.8487 17.7812 11.6197 17.6464C11.3906 17.5116 11.25 17.2657 11.25 17V15.6768ZM5.36423 6.34438C5.13193 6.21533 4.84869 6.21883 4.61965 6.3536C4.39062 6.48836 4.25 6.73426 4.25 7V17C4.25 17.2657 4.39062 17.5116 4.61965 17.6464C4.84869 17.7812 5.13193 17.7847 5.36423 17.6556L14.3642 12.6556C14.6023 12.5233 14.75 12.2724 14.75 12C14.75 11.7276 14.6023 11.4767 14.3642 11.3444L5.36423 6.34438Z" fill="#23262A"/>
</svg>
