<svg width="24" height="24" viewBox="0 0 24 24" fill="none" xmlns="http://www.w3.org/2000/svg">
<path fill-rule="evenodd" clip-rule="evenodd" d="M5.36423 6.34438C5.13193 6.21533 4.84869 6.21883 4.61965 6.3536C4.39062 6.48836 4.25 6.73426 4.25 7V17C4.25 17.2657 4.39062 17.5116 4.61965 17.6464C4.84869 17.7812 5.13193 17.7847 5.36423 17.6556L14.3642 12.6556C14.6023 12.5233 14.75 12.2724 14.75 12C14.75 11.7276 14.6023 11.4767 14.3642 11.3444L5.36423 6.34438ZM5.75 15.7254V8.27464L12.4557 12L5.75 15.7254ZM12.3642 6.34438C12.1319 6.21533 11.8487 6.21883 11.6197 6.3536C11.3906 6.48836 11.25 6.73426 11.25 7V8.5C11.25 8.91421 11.5858 9.25 12 9.25C12.4142 9.25 12.75 8.91421 12.75 8.5V8.27464L19.4557 12L12.75 15.7254V15.5C12.75 15.0858 12.4142 14.75 12 14.75C11.5858 14.75 11.25 15.0858 11.25 15.5V17C11.25 17.2657 11.3906 17.5116 11.6197 17.6464C11.8487 17.7812 12.1319 17.7847 12.3642 17.6556L21.3642 12.6556C21.6023 12.5233 21.75 12.2724 21.75 12C21.75 11.7276 21.6023 11.4767 21.3642 11.3444L12.3642 6.34438Z" fill="#23262A"/>
</svg>
