<svg width="24" height="24" viewBox="0 0 24 24" fill="none" xmlns="http://www.w3.org/2000/svg">
<path fill-rule="evenodd" clip-rule="evenodd" d="M5.25 3C5.25 2.58579 5.58579 2.25 6 2.25H18C18.4142 2.25 18.75 2.58579 18.75 3V21C18.75 21.4142 18.4142 21.75 18 21.75H6C5.58579 21.75 5.25 21.4142 5.25 21V14.5C5.25 14.3619 5.36193 14.25 5.5 14.25H7C7.41421 14.25 7.75 13.9142 7.75 13.5V10.5C7.75 10.0858 7.41421 9.75 7 9.75H5.5C5.36193 9.75 5.25 9.63807 5.25 9.5V3ZM5.5 12.75C5.36193 12.75 5.25 12.6381 5.25 12.5V11.5C5.25 11.3619 5.36193 11.25 5.5 11.25H6C6.13807 11.25 6.25 11.3619 6.25 11.5V12.5C6.25 12.6381 6.13807 12.75 6 12.75H5.5ZM13 4.25C13.4142 4.25 13.75 4.58579 13.75 5V5.70098L14.3573 5.35036C14.716 5.14326 15.1747 5.26616 15.3818 5.62488C15.5889 5.9836 15.466 6.44229 15.1073 6.6494L14.5002 6.99988L15.1073 7.35036C15.466 7.55747 15.5889 8.01616 15.3818 8.37488C15.1747 8.7336 14.716 8.85651 14.3573 8.6494L13.75 8.29878V9C13.75 9.41421 13.4142 9.75 13 9.75C12.5858 9.75 12.25 9.41421 12.25 9V8.29906L11.6432 8.6494C11.2845 8.85651 10.8258 8.7336 10.6187 8.37488C10.4116 8.01616 10.5345 7.55747 10.8932 7.35036L11.5002 6.99988L10.8932 6.6494C10.5345 6.44229 10.4116 5.9836 10.6187 5.62488C10.8258 5.26616 11.2845 5.14326 11.6432 5.35036L12.25 5.7007V5C12.25 4.58579 12.5858 4.25 13 4.25Z" fill="#23262A"/>
</svg>
