<svg width="24" height="24" viewBox="0 0 24 24" fill="none" xmlns="http://www.w3.org/2000/svg">
<path fill-rule="evenodd" clip-rule="evenodd" d="M5.25 3C5.25 2.58579 5.58579 2.25 6 2.25H18C18.4142 2.25 18.75 2.58579 18.75 3V21C18.75 21.4142 18.4142 21.75 18 21.75H6C5.58579 21.75 5.25 21.4142 5.25 21V3ZM8 14.25C8.41421 14.25 8.75 13.9142 8.75 13.5V10.5C8.75 10.0858 8.41421 9.75 8 9.75H6.75V3.75H17.25V20.25H6.75V14.25H8ZM7.25 11.25H6.75V12.75H7.25V11.25ZM13.75 5.5C13.75 5.08579 13.4142 4.75 13 4.75C12.5858 4.75 12.25 5.08579 12.25 5.5V6.20089L11.6431 5.85048C11.2844 5.64337 10.8257 5.76628 10.6186 6.125C10.4114 6.48372 10.5343 6.94241 10.8931 7.14952L11.5001 7.5L10.8931 7.85048C10.5343 8.05759 10.4114 8.51628 10.6186 8.875C10.8257 9.23372 11.2844 9.35663 11.6431 9.14952L12.25 8.79911V9.5C12.25 9.91421 12.5858 10.25 13 10.25C13.4142 10.25 13.75 9.91421 13.75 9.5V8.79897L14.3572 9.14952C14.7159 9.35663 15.1746 9.23372 15.3817 8.875C15.5888 8.51628 15.4659 8.05759 15.1072 7.85048L14.5001 7.5L15.1072 7.14952C15.4659 6.94241 15.5888 6.48372 15.3817 6.125C15.1746 5.76628 14.7159 5.64337 14.3572 5.85048L13.75 6.20103V5.5Z" fill="#23262A"/>
</svg>
