<svg width="24" height="24" viewBox="0 0 24 24" fill="none" xmlns="http://www.w3.org/2000/svg">
<path fill-rule="evenodd" clip-rule="evenodd" d="M2.32627 3.67049C2.45212 3.41316 2.71356 3.25 3.00001 3.25L21 3.25C21.2865 3.25 21.5479 3.41316 21.6737 3.67049C21.7996 3.92781 21.7679 4.23435 21.592 4.46046L14.75 13.2573V19C14.75 19.2841 14.5895 19.5438 14.3354 19.6708L10.3354 21.6708C10.1029 21.7871 9.82682 21.7746 9.60571 21.638C9.38459 21.5013 9.25001 21.2599 9.25001 21V13.2573L2.40799 4.46046C2.23213 4.23435 2.20042 3.92781 2.32627 3.67049ZM4.53349 4.75L10.75 12.7427V19.7865L13.25 18.5365V12.7427L19.4665 4.75L4.53349 4.75Z" fill="#23262A"/>
</svg>
