<svg width="24" height="24" viewBox="0 0 24 24" fill="none" xmlns="http://www.w3.org/2000/svg">
<path fill-rule="evenodd" clip-rule="evenodd" d="M11 3.25C11.1989 3.25 11.3897 3.32902 11.5303 3.46967L16.0303 7.96967C16.3232 8.26256 16.3232 8.73744 16.0303 9.03033L15.3232 9.73744C14.995 10.0656 14.5499 10.25 14.0858 10.25H13.4142C13.3479 10.25 13.2843 10.2763 13.2374 10.3232L12.3107 11.25L19.5303 18.4697C19.8232 18.7626 19.8232 19.2374 19.5303 19.5303C19.2374 19.8232 18.7626 19.8232 18.4697 19.5303L11.25 12.3107L10.3232 13.2374C10.2763 13.2843 10.25 13.3479 10.25 13.4142V14.0858C10.25 14.5499 10.0656 14.995 9.73744 15.3232L9.03033 16.0303C8.73744 16.3232 8.26256 16.3232 7.96967 16.0303L3.46967 11.5303C3.32854 11.3892 3.24948 11.1976 3.25 10.998C3.25052 10.7984 3.33058 10.6073 3.47245 10.4669L4.18021 9.76651C4.50785 9.44228 4.9502 9.26041 5.41115 9.26041H6.08492C6.15135 9.26041 6.21505 9.23397 6.26196 9.18692L9.17704 6.26317C9.22376 6.21631 9.25 6.15283 9.25 6.08666V5.41421C9.25 4.95008 9.43437 4.50497 9.76256 4.17678L10.4697 3.46967C10.6103 3.32902 10.8011 3.25 11 3.25ZM11 5.06066L10.8232 5.23744C10.7763 5.28432 10.75 5.34791 10.75 5.41421V6.08666C10.75 6.26561 10.7226 6.44174 10.6701 6.60943L12.8908 8.83011C13.0587 8.77748 13.235 8.75 13.4142 8.75H14.0858C14.1521 8.75 14.2157 8.72366 14.2626 8.67678L14.4393 8.5L11 5.06066ZM7.8147 9.75404L9.75116 7.81182L11.6893 9.75L9.75 11.6893L7.8147 9.75404ZM6.61692 10.6776C6.44648 10.732 6.26716 10.7604 6.08492 10.7604H5.41115C5.3453 10.7604 5.28211 10.7864 5.2353 10.8327L5.06344 11.0028L8.5 14.4393L8.67678 14.2626C8.72366 14.2157 8.75 14.1521 8.75 14.0858V13.4142C8.75 13.235 8.77748 13.0587 8.83011 12.8908L6.61692 10.6776ZM5 16.75C4.0335 16.75 3.25 17.5335 3.25 18.5V20C3.25 20.4142 3.58579 20.75 4 20.75H14C14.4142 20.75 14.75 20.4142 14.75 20V18.5C14.75 17.5335 13.9665 16.75 13 16.75H5ZM4.75 18.5C4.75 18.3619 4.86193 18.25 5 18.25H13C13.1381 18.25 13.25 18.3619 13.25 18.5V19.25H4.75V18.5Z" fill="#23262A"/>
</svg>
