<svg width="24" height="24" viewBox="0 0 24 24" fill="none" xmlns="http://www.w3.org/2000/svg">
<path fill-rule="evenodd" clip-rule="evenodd" d="M11.5303 3.46967C11.3897 3.32902 11.1989 3.25 11 3.25C10.8011 3.25 10.6103 3.32902 10.4697 3.46967L9.76256 4.17678C9.43437 4.50497 9.25 4.95008 9.25 5.41421V6.08666C9.25 6.15283 9.22376 6.21631 9.17704 6.26317L6.26196 9.18692C6.21505 9.23397 6.15135 9.26041 6.08492 9.26041H5.41115C4.9502 9.26041 4.50785 9.44228 4.18021 9.76651L3.47245 10.4669C3.33058 10.6073 3.25052 10.7984 3.25 10.998C3.24948 11.1976 3.32854 11.3892 3.46967 11.5303L7.96967 16.0303C8.26256 16.3232 8.73744 16.3232 9.03033 16.0303L9.73744 15.3232C10.0656 14.995 10.25 14.5499 10.25 14.0858V13.4142C10.25 13.3479 10.2763 13.2843 10.3232 13.2374L11.25 12.3107L18.4697 19.5303C18.7626 19.8232 19.2374 19.8232 19.5303 19.5303C19.8232 19.2374 19.8232 18.7626 19.5303 18.4697L12.3107 11.25L13.2374 10.3232C13.2843 10.2763 13.3479 10.25 13.4142 10.25H14.0858C14.5499 10.25 14.995 10.0656 15.3232 9.73744L16.0303 9.03033C16.3232 8.73744 16.3232 8.26256 16.0303 7.96967L11.5303 3.46967ZM10.8232 5.23744L11 5.06066L14.4393 8.5L14.2626 8.67678C14.2157 8.72366 14.1521 8.75 14.0858 8.75H13.4142C13.235 8.75 13.0587 8.77748 12.8908 8.83011L10.6701 6.60943C10.7226 6.44174 10.75 6.26561 10.75 6.08666V5.41421C10.75 5.34791 10.7763 5.28432 10.8232 5.23744ZM9.75116 7.81182L7.8147 9.75404L9.75 11.6893L11.6893 9.75L9.75116 7.81182ZM6.08492 10.7604C6.26716 10.7604 6.44648 10.732 6.61692 10.6776L8.83011 12.8908C8.77748 13.0587 8.75 13.235 8.75 13.4142V14.0858C8.75 14.1521 8.72366 14.2157 8.67678 14.2626L8.5 14.4393L5.06344 11.0028L5.2353 10.8327C5.28211 10.7864 5.3453 10.7604 5.41115 10.7604H6.08492Z" fill="#23262A"/>
</svg>
