<svg width="24" height="24" viewBox="0 0 24 24" fill="none" xmlns="http://www.w3.org/2000/svg">
<path d="M12 2.25C17.3848 2.25 21.75 6.61522 21.75 12L21.7373 12.502C21.4761 17.6535 17.2164 21.75 12 21.75C6.78357 21.75 2.52394 17.6535 2.2627 12.502L2.25 12C2.25 6.61522 6.61522 2.25 12 2.25ZM9.5 8.25C7.70507 8.25 6.25 9.70507 6.25 11.5V12C6.25 12.4142 6.58579 12.75 7 12.75C7.41421 12.75 7.75 12.4142 7.75 12V11.5C7.75 10.5335 8.5335 9.75 9.5 9.75C10.4665 9.75 11.25 10.5335 11.25 11.5V12.5C11.25 14.2949 12.7051 15.75 14.5 15.75C16.2949 15.75 17.75 14.2949 17.75 12.5V12C17.75 11.5858 17.4142 11.25 17 11.25C16.5858 11.25 16.25 11.5858 16.25 12V12.5C16.25 13.4665 15.4665 14.25 14.5 14.25C13.5335 14.25 12.75 13.4665 12.75 12.5V11.5C12.75 9.70507 11.2949 8.25 9.5 8.25Z" fill="#202733"/>
</svg>
