<svg xmlns="http://www.w3.org/2000/svg" width="24" height="24" viewBox="0 0 24 24" fill="none">
  <path d="M18.1475 3.26465C18.2914 3.29352 18.4249 3.36435 18.5303 3.46973C18.6709 3.61038 18.75 3.80109 18.75 4V11.7861L19.665 11.3291C19.8974 11.2131 20.1735 11.2257 20.3945 11.3623C20.6155 11.499 20.75 11.7402 20.75 12V19.75H22C22.4142 19.75 22.75 20.0858 22.75 20.5C22.75 20.9142 22.4142 21.25 22 21.25H18.75V22C18.75 22.4142 18.4142 22.75 18 22.75C17.5858 22.75 17.25 22.4142 17.25 22V21.25H15.75V22C15.75 22.4142 15.4142 22.75 15 22.75C14.5858 22.75 14.25 22.4142 14.25 22V21.25H12.75V22C12.75 22.4142 12.4142 22.75 12 22.75C11.5858 22.75 11.25 22.4142 11.25 22V21.25H9.75V22C9.75 22.4142 9.41421 22.75 9 22.75C8.58579 22.75 8.25 22.4142 8.25 22V21.25H6.75V22C6.75 22.4142 6.41421 22.75 6 22.75C5.58579 22.75 5.25 22.4142 5.25 22V21.25H2C1.58579 21.25 1.25 20.9142 1.25 20.5C1.25 20.0858 1.58579 19.75 2 19.75H3.25V12C3.25 11.7402 3.38453 11.499 3.60547 11.3623C3.82646 11.2257 4.10255 11.2131 4.33496 11.3291L5.25 11.7861V8L5.25488 7.91309C5.26493 7.82694 5.29016 7.74303 5.3291 7.66504L6.3291 5.66504C6.45615 5.41095 6.71592 5.25 7 5.25H14.25V4C14.25 3.58579 14.5858 3.25 15 3.25H18L18.1475 3.26465ZM16.665 13.1709C16.2467 12.9617 15.7533 12.9617 15.335 13.1709C14.4945 13.591 13.5055 13.591 12.665 13.1709C12.2467 12.9617 11.7533 12.9617 11.335 13.1709C10.4945 13.591 9.50549 13.591 8.66504 13.1709C8.24667 12.9617 7.75333 12.9617 7.33496 13.1709C6.52245 13.577 5.57175 13.5891 4.75 13.21V19.75H5.2959C5.39914 19.4592 5.67383 19.25 6 19.25C6.32617 19.25 6.60086 19.4592 6.7041 19.75H8.2959C8.39914 19.4592 8.67383 19.25 9 19.25C9.32617 19.25 9.60086 19.4592 9.7041 19.75H11.2959C11.3991 19.4592 11.6738 19.25 12 19.25C12.3262 19.25 12.6009 19.4592 12.7041 19.75H14.2959C14.3991 19.4592 14.6738 19.25 15 19.25C15.3262 19.25 15.6009 19.4592 15.7041 19.75H17.2959C17.3991 19.4592 17.6738 19.25 18 19.25C18.3262 19.25 18.6009 19.4592 18.7041 19.75H19.25V13.21C18.4283 13.5891 17.4775 13.577 16.665 13.1709ZM11.9697 14.4697C12.2626 14.177 12.7375 14.1769 13.0303 14.4697C13.3231 14.7625 13.323 15.2374 13.0303 15.5303L12.5605 16L13.0303 16.4697C13.323 16.7626 13.323 17.2374 13.0303 17.5303L12.0303 18.5303C11.7374 18.8231 11.2626 18.8231 10.9697 18.5303C10.6769 18.2374 10.6769 17.7626 10.9697 17.4697L11.4395 17L10.9697 16.5303C10.6769 16.2374 10.6769 15.7626 10.9697 15.4697L11.9697 14.4697ZM6.75 8.17676V11.7891C7.22417 11.5704 7.74112 11.4826 8.25 11.5254V9C8.25 8.58579 8.58579 8.25 9 8.25C9.41421 8.25 9.75 8.58579 9.75 9V11.9619C9.91575 11.9902 10.0842 11.9902 10.25 11.9619V9C10.25 8.58579 10.5858 8.25 11 8.25C11.4142 8.25 11.75 8.58579 11.75 9V11.5254C11.9164 11.5114 12.0836 11.5114 12.25 11.5254V9C12.25 8.58579 12.5858 8.25 13 8.25C13.4142 8.25 13.75 8.58579 13.75 9V11.9619C14.0583 12.0145 14.3789 11.9722 14.665 11.8291C14.8536 11.7348 15.0498 11.6623 15.25 11.6104V8.17676L14.5361 6.75H7.46387L6.75 8.17676ZM15.75 5.82324L16.6709 7.66504C16.7228 7.76907 16.75 7.88371 16.75 8V11.6104C16.9204 11.6546 17.0877 11.7142 17.25 11.7891V4.75H15.75V5.82324Z" fill="#202733"/>
</svg>