<svg width="24" height="24" viewBox="0 0 24 24" fill="none" xmlns="http://www.w3.org/2000/svg">
<path fill-rule="evenodd" clip-rule="evenodd" d="M3.75 5C3.75 4.30964 4.30964 3.75 5 3.75C5.69036 3.75 6.25 4.30964 6.25 5V7C6.25 7.41421 6.58579 7.75 7 7.75C7.41421 7.75 7.75 7.41421 7.75 7V5C7.75 3.48122 6.51878 2.25 5 2.25C3.48122 2.25 2.25 3.48122 2.25 5V12V12.75V17C2.25 17.9665 3.0335 18.75 4 18.75H9.5C10.4665 18.75 11.25 17.9665 11.25 17V12.75H12.75V17C12.75 17.9665 13.5335 18.75 14.5 18.75H20C20.9665 18.75 21.75 17.9665 21.75 17V12.75V12V5C21.75 3.48122 20.5188 2.25 19 2.25C17.4812 2.25 16.25 3.48122 16.25 5V7C16.25 7.41421 16.5858 7.75 17 7.75C17.4142 7.75 17.75 7.41421 17.75 7V5C17.75 4.30964 18.3096 3.75 19 3.75C19.6904 3.75 20.25 4.30964 20.25 5V11.25H13.5H10.5H3.75V5ZM9.75 12.75H3.75V17C3.75 17.1381 3.86193 17.25 4 17.25H9.5C9.63807 17.25 9.75 17.1381 9.75 17V12.75ZM14.25 12.75V17C14.25 17.1381 14.3619 17.25 14.5 17.25H20C20.1381 17.25 20.25 17.1381 20.25 17V12.75H14.25Z" fill="#23262A"/>
</svg>
