<svg width="24" height="24" viewBox="0 0 24 24" fill="none" xmlns="http://www.w3.org/2000/svg">
<path fill-rule="evenodd" clip-rule="evenodd" d="M3.75 6C3.75 5.30964 4.30964 4.75 5 4.75C5.69036 4.75 6.25 5.30964 6.25 6V8C6.25 8.41421 6.58579 8.75 7 8.75C7.41421 8.75 7.75 8.41421 7.75 8V6C7.75 4.48122 6.51878 3.25 5 3.25C3.48122 3.25 2.25 4.48122 2.25 6V18C2.25 18.9665 3.0335 19.75 4 19.75H9.5C10.4665 19.75 11.25 18.9665 11.25 18V13.75H12.75V18C12.75 18.9665 13.5335 19.75 14.5 19.75H20C20.9665 19.75 21.75 18.9665 21.75 18V6C21.75 4.48122 20.5188 3.25 19 3.25C17.4812 3.25 16.25 4.48122 16.25 6V8C16.25 8.41421 16.5858 8.75 17 8.75C17.4142 8.75 17.75 8.41421 17.75 8V6C17.75 5.30964 18.3096 4.75 19 4.75C19.6904 4.75 20.25 5.30964 20.25 6V12.25H3.75V6ZM9.5 18.25C9.63807 18.25 9.75 18.1381 9.75 18V13.75H3.75V18C3.75 18.1381 3.86193 18.25 4 18.25H9.5ZM20 18.25C20.1381 18.25 20.25 18.1381 20.25 18V13.75H14.25V18C14.25 18.1381 14.3619 18.25 14.5 18.25H20Z" fill="#23262A"/>
</svg>
