<svg width="24" height="24" viewBox="0 0 24 24" fill="none" xmlns="http://www.w3.org/2000/svg">
<path fill-rule="evenodd" clip-rule="evenodd" d="M6.5 3.25C6.29297 3.25 6.09514 3.33558 5.95338 3.48648C5.81162 3.63737 5.73855 3.84015 5.75146 4.04678L6.63426 18.1715C6.72484 19.6209 7.92673 20.75 9.3789 20.75H14.6211C16.0733 20.75 17.2752 19.6209 17.3657 18.1715L18.2485 4.04678C18.2615 3.84015 18.1884 3.63737 18.0466 3.48648C17.9049 3.33558 17.707 3.25 17.5 3.25H6.5ZM7.45459 7.25L7.29834 4.75H16.7017L16.5454 7.25H7.45459ZM7.54834 8.75L8.13134 18.078C8.17251 18.7368 8.71882 19.25 9.3789 19.25H14.6211C15.2812 19.25 15.8275 18.7368 15.8687 18.078L16.4517 8.75H7.54834Z" fill="#23262A"/>
</svg>
