<svg width="24" height="24" viewBox="0 0 24 24" fill="none" xmlns="http://www.w3.org/2000/svg">
<path fill-rule="evenodd" clip-rule="evenodd" d="M5 3.75C4.30964 3.75 3.75 4.30964 3.75 5V11.25H20.25V5C20.25 4.30964 19.6904 3.75 19 3.75C18.3096 3.75 17.75 4.30964 17.75 5V7H16.25V5C16.25 3.48122 17.4812 2.25 19 2.25C20.5188 2.25 21.75 3.48122 21.75 5V17C21.75 17.9665 20.9665 18.75 20 18.75H14.5C13.5335 18.75 12.75 17.9665 12.75 17V12.75H11.25V17C11.25 17.9665 10.4665 18.75 9.5 18.75H4C3.0335 18.75 2.25 17.9665 2.25 17V5C2.25 3.48122 3.48122 2.25 5 2.25C6.51878 2.25 7.75 3.48122 7.75 5V7C7.75 7.41421 7.41421 7.75 7 7.75C6.58579 7.75 6.25 7.41421 6.25 7V5C6.25 4.30964 5.69036 3.75 5 3.75Z" fill="#262626"/>
</svg>
