<svg width="24" height="24" viewBox="0 0 24 24" fill="none" xmlns="http://www.w3.org/2000/svg">
<path fill-rule="evenodd" clip-rule="evenodd" d="M2.25 12C2.25 6.61522 6.61522 2.25 12 2.25C17.3848 2.25 21.75 6.61522 21.75 12C21.75 17.3848 17.3848 21.75 12 21.75C6.61522 21.75 2.25 17.3848 2.25 12ZM8.98955 4.3165C7.10755 5.05445 5.56262 6.46389 4.64956 8.25H8.36893C8.50594 6.96896 8.71258 5.66473 8.98955 4.3165ZM10.6201 3.86489C10.2831 5.37982 10.036 6.83086 9.87779 8.25H14.1225C13.9643 6.83088 13.7172 5.37985 13.3802 3.86494C12.9314 3.78935 12.4703 3.75 12 3.75C11.5298 3.75 11.0688 3.78933 10.6201 3.86489ZM8.2393 14.25C8.14167 12.7478 8.14138 11.2596 8.23967 9.75H4.06055C3.85825 10.4652 3.75 11.22 3.75 12C3.75 12.78 3.85825 13.5348 4.06055 14.25H8.2393ZM9.74258 14.25C9.64059 12.7471 9.64027 11.2605 9.74296 9.75H14.2573C14.36 11.2605 14.3597 12.7471 14.2577 14.25H9.74258ZM8.98941 19.6834C8.71317 18.3395 8.50594 17.0355 8.36847 15.75H4.64956C5.56259 17.5361 7.10748 18.9455 8.98941 19.6834ZM10.6201 20.1351C10.2841 18.6253 10.0361 17.1746 9.87732 15.75H14.123C13.9642 17.1746 13.7162 18.6252 13.3802 20.1351C12.9314 20.2106 12.4703 20.25 12 20.25C11.5298 20.25 11.0688 20.2107 10.6201 20.1351ZM15.761 14.25C15.8586 12.7478 15.8589 11.2596 15.7606 9.75H19.9395C20.1417 10.4652 20.25 11.22 20.25 12C20.25 12.78 20.1417 13.5348 19.9395 14.25H15.761ZM15.0108 4.31662C16.8926 5.0546 18.4374 6.46398 19.3504 8.25H15.6313C15.4943 6.96899 15.2877 5.66481 15.0108 4.31662ZM15.0109 19.6833C15.2871 18.3394 15.4943 17.0354 15.6318 15.75H19.3504C18.4375 17.536 16.8927 18.9453 15.0109 19.6833Z" fill="#23262A"/>
</svg>
