<svg width="24" height="24" viewBox="0 0 24 24" fill="none" xmlns="http://www.w3.org/2000/svg">
<path fill-rule="evenodd" clip-rule="evenodd" d="M15.0332 2.73103C14.8522 2.67184 14.6812 2.83537 14.7252 3.02065L14.7331 3.05391C15.134 4.77684 15.4245 6.42085 15.606 8.0267C15.6204 8.15367 15.7275 8.25 15.8553 8.25H20.6276C20.8061 8.25 20.9267 8.06849 20.8517 7.90658C19.7222 5.46831 17.6149 3.57535 15.0332 2.73103ZM12.8361 2.28534C12.942 2.29434 13.0292 2.37123 13.0538 2.47464L13.2725 3.39554C13.6415 4.9816 13.9135 6.49532 14.0897 7.97244C14.1073 8.12043 13.9913 8.25 13.8423 8.25H10.1572C10.0082 8.25 9.89216 8.12043 9.90981 7.97244C10.086 6.49531 10.358 4.98157 10.727 3.39549L10.9456 2.47471C10.9702 2.37129 11.0574 2.2944 11.1633 2.2854C11.4391 2.26196 11.7182 2.25 12 2.25C12.2816 2.25 12.5605 2.26194 12.8361 2.28534ZM8.96626 2.73122C9.14726 2.67201 9.31822 2.83553 9.27421 3.02082L9.26716 3.05054L9.26638 3.05386C8.86547 4.77681 8.57498 6.42083 8.39349 8.0267C8.37914 8.15367 8.27202 8.25 8.14424 8.25H3.37237C3.19394 8.25 3.07333 8.06848 3.14832 7.90658C4.2777 5.46849 6.38475 3.57563 8.96626 2.73122ZM2.70872 9.75C2.59279 9.75 2.49173 9.82963 2.46739 9.94297C2.32497 10.6061 2.25 11.2943 2.25 12C2.25 12.7057 2.32497 13.3939 2.46739 14.057C2.49173 14.1704 2.59279 14.25 2.70872 14.25H7.97253C8.11698 14.25 8.23129 14.1279 8.22301 13.9837C8.14705 12.6601 8.14688 11.3457 8.22334 10.0163C8.23163 9.87209 8.11732 9.75 7.97286 9.75H2.70872ZM3.37237 15.75C3.19394 15.75 3.07333 15.9315 3.14832 16.0934C4.27788 18.5319 6.38542 20.425 8.9675 21.2692C9.1515 21.3293 9.32342 21.1597 9.27306 20.9728L9.26931 20.9589L9.26638 20.9463C8.8669 19.2295 8.5753 17.5859 8.39303 15.9733C8.37868 15.8463 8.27156 15.75 8.14378 15.75H3.37237ZM10.978 21.535C11.005 21.6353 11.0912 21.7088 11.1948 21.7172C11.4603 21.7389 11.7289 21.75 12 21.75C12.2709 21.75 12.5393 21.739 12.8046 21.7173C12.9082 21.7088 12.9944 21.6354 13.0214 21.5351L13.2751 20.5938C13.6416 19.0169 13.9137 17.5071 14.0902 16.0276C14.1078 15.8796 13.9918 15.75 13.8428 15.75H10.1567C10.0077 15.75 9.8917 15.8796 9.90935 16.0276C10.0858 17.5071 10.3579 19.0169 10.7244 20.5938L10.978 21.535ZM14.7264 20.973C14.676 21.1599 14.8479 21.3295 15.032 21.2694C17.6143 20.4252 19.722 18.5321 20.8517 16.0934C20.9267 15.9315 20.8061 15.75 20.6276 15.75H15.8557C15.7279 15.75 15.6208 15.8463 15.6065 15.9733C15.4242 17.5859 15.1326 19.2295 14.7331 20.9463L14.7302 20.959L14.7264 20.973ZM21.2913 14.25C21.4072 14.25 21.5083 14.1704 21.5326 14.057C21.675 13.3939 21.75 12.7057 21.75 12C21.75 11.2943 21.675 10.6061 21.5326 9.94297C21.5083 9.82963 21.4072 9.75 21.2913 9.75H16.0266C15.8822 9.75 15.7679 9.87209 15.7762 10.0163C15.8526 11.3457 15.8525 12.6601 15.7765 13.9837C15.7682 14.1279 15.8825 14.25 16.027 14.25H21.2913ZM14.2719 14.0169C14.2639 14.1481 14.1548 14.25 14.0233 14.25H9.97619C9.84469 14.25 9.73556 14.1481 9.72757 14.0169C9.64554 12.6705 9.64534 11.3356 9.72791 9.98312C9.73593 9.85187 9.84505 9.75 9.97654 9.75H14.023C14.1545 9.75 14.2636 9.85187 14.2716 9.98312C14.3542 11.3356 14.354 12.6705 14.2719 14.0169Z" fill="#23262A"/>
</svg>
