<svg width="24" height="24" viewBox="0 0 24 24" fill="none" xmlns="http://www.w3.org/2000/svg">
<path fill-rule="evenodd" clip-rule="evenodd" d="M15.034 2.73131C14.853 2.6721 14.6821 2.83563 14.7261 3.02093L14.7331 3.05054L14.7339 3.0539L14.7339 3.05391C15.0835 4.55615 15.3491 5.9984 15.5317 7.40767L13.1893 9.75H9.97654C9.84505 9.75 9.73593 9.85188 9.72792 9.98312C9.66105 11.0784 9.64846 12.1621 9.68965 13.2497L7.18934 15.75H3.37237C3.19394 15.75 3.07333 15.9315 3.14833 16.0934C3.52712 16.9112 4.0159 17.6676 4.59568 18.3437L3.46967 19.4697C3.17678 19.7626 3.17678 20.2374 3.46967 20.5303C3.76256 20.8232 4.23744 20.8232 4.53033 20.5303L20.5303 4.53033C20.8232 4.23744 20.8232 3.76256 20.5303 3.46967C20.2374 3.17678 19.7626 3.17678 19.4697 3.46967L18.3437 4.59568C17.3841 3.77285 16.2628 3.1333 15.034 2.73131ZM12.8369 2.28541C12.9428 2.29442 13.03 2.3713 13.0546 2.47471L13.2733 3.39554C13.6423 4.98161 13.9143 6.49533 14.0905 7.97245C14.1081 8.12044 13.9921 8.25 13.8431 8.25H10.1572C10.0082 8.25 9.89216 8.12044 9.90981 7.97245C10.086 6.49532 10.358 4.9816 10.727 3.39553L10.9456 2.4747C10.9702 2.37129 11.0574 2.2944 11.1634 2.28539C11.4391 2.26196 11.7182 2.25 12 2.25C12.2819 2.25 12.561 2.26196 12.8369 2.28541ZM9.09907 2.68883C9.22118 2.65083 9.33596 2.76087 9.30641 2.8853L9.26716 3.05058L9.26715 3.05058L9.26715 3.05058L9.26638 3.05391C8.86548 4.77684 8.57499 6.42085 8.39349 8.0267C8.37914 8.15367 8.27203 8.25 8.14425 8.25H3.37237C3.19394 8.25 3.07333 8.06849 3.14832 7.90659C4.29701 5.42681 6.45707 3.51107 9.09907 2.68883ZM2.70872 9.75C2.59279 9.75 2.49173 9.82963 2.46739 9.94298C2.32497 10.6061 2.25 11.2943 2.25 12C2.25 12.7057 2.32497 13.3939 2.46739 14.057C2.49173 14.1704 2.59279 14.25 2.70872 14.25H7.97253C8.11698 14.25 8.23129 14.1279 8.22301 13.9837C8.14705 12.6601 8.14688 11.3457 8.22334 10.0163C8.23164 9.87209 8.11732 9.75 7.97286 9.75H2.70872Z" fill="#23262A"/>
</svg>
