<svg width="24" height="24" viewBox="0 0 24 24" fill="none" xmlns="http://www.w3.org/2000/svg">
<path fill-rule="evenodd" clip-rule="evenodd" d="M2.25 12C2.25 10.9096 2.42901 9.86092 2.75925 8.88188C2.77373 8.79031 2.80479 8.70427 2.84924 8.6269C4.22185 4.90446 7.80093 2.25 12 2.25C12.7401 2.25 13.4611 2.33255 14.1542 2.4889C14.1645 2.49102 14.1748 2.49337 14.1851 2.49593C15.7479 2.85387 17.1676 3.58732 18.3436 4.5957L19.4697 3.46967C19.7626 3.17678 20.2374 3.17678 20.5303 3.46967C20.8232 3.76256 20.8232 4.23744 20.5303 4.53033L4.53033 20.5303C4.23744 20.8232 3.76256 20.8232 3.46967 20.5303C3.17678 20.2374 3.17678 19.7626 3.46967 19.4697L4.5957 18.3436C3.84968 17.4736 3.25414 16.4701 2.8498 15.3741C2.80488 15.2962 2.77356 15.2094 2.75908 15.1171C2.429 14.1383 2.25 13.0899 2.25 12ZM3.75 12C3.75 11.22 3.85825 10.4652 4.06055 9.75H8.23966C8.1415 11.2578 8.14156 12.7461 8.23929 14.25H4.06039C3.85816 13.5348 3.75 12.7801 3.75 12ZM5.66002 17.2793L7.18934 15.75H4.64936C4.92952 16.298 5.26923 16.8106 5.66002 17.2793ZM9.68965 13.2497L13.1893 9.75H9.74297C9.66303 10.9259 9.64558 12.0861 9.68965 13.2497ZM15.5321 7.4072L17.2793 5.66002C16.6056 5.09828 15.8412 4.6421 15.0112 4.31661C15.2275 5.36903 15.4011 6.39593 15.5321 7.4072ZM8.98954 4.3165C8.71281 5.6635 8.50604 6.96772 8.36891 8.25H4.64956C5.56261 6.46389 7.10755 5.05445 8.98954 4.3165ZM10.6201 3.86489C10.2827 5.38142 10.0358 6.83247 9.87782 8.25H14.1229C13.9651 6.83371 13.7183 5.38274 13.3806 3.86493C12.9317 3.78934 12.4705 3.75 12 3.75C11.5298 3.75 11.0688 3.78933 10.6201 3.86489Z" fill="#23262A"/>
</svg>
