<svg width="24" height="24" viewBox="0 0 24 24" fill="none" xmlns="http://www.w3.org/2000/svg">
<path fill-rule="evenodd" clip-rule="evenodd" d="M12.0062 5.29733C12.0878 5.23841 12.1784 5.17535 12.2773 5.10973C12.755 4.79294 13.4425 4.40672 14.2683 4.14701C15.9566 3.61606 18.2105 3.62993 20.3084 5.72782C21.8666 7.28601 22.2368 8.99764 22.0513 10.5174C21.8707 11.9967 21.1713 13.257 20.6535 14.0202C20.3477 14.4709 19.8948 14.6868 19.4348 14.7044C19.4321 14.7333 19.4287 14.7623 19.4248 14.7915C19.36 15.271 19.1354 15.7398 18.7174 16.1577C18.2995 16.5757 17.8308 16.8003 17.3512 16.8651C17.2198 16.8828 17.0919 16.888 16.9683 16.8835C16.9729 17.007 16.9677 17.135 16.9499 17.2663C16.8851 17.7459 16.6605 18.2146 16.2426 18.6326C15.8246 19.0506 15.3559 19.2751 14.8763 19.3399C14.7449 19.3577 14.617 19.3629 14.4934 19.3583C14.498 19.4819 14.4928 19.6098 14.475 19.7412C14.4102 20.2208 14.1857 20.6895 13.7677 21.1075C13.3497 21.5254 12.881 21.75 12.4014 21.8148C11.9342 21.8779 11.51 21.7826 11.1742 21.6512C10.8388 21.52 10.5642 21.3423 10.3778 21.2033C10.283 21.1326 10.2069 21.0689 10.1527 21.0211C10.1255 20.9971 10.1036 20.9769 10.0873 20.9615L10.067 20.9421L10.0601 20.9354L10.0575 20.9328L10.0564 20.9317C10.0564 20.9317 10.0554 20.9307 10.5857 20.4004L10.0554 20.9307L3.69143 14.5667C3.68638 14.5617 3.68142 14.5566 3.67652 14.5514L3.67387 14.5486L3.66985 14.5443L3.65781 14.5312C3.64805 14.5206 3.63488 14.506 3.61866 14.4877C3.58622 14.451 3.54149 14.3992 3.48731 14.3333C3.3791 14.2016 3.23233 14.0124 3.07027 13.7741C2.74811 13.3004 2.35511 12.6172 2.09078 11.7932C1.82572 10.9669 1.68495 9.98197 1.89176 8.92364C2.09992 7.85842 2.65076 6.76856 3.69143 5.72789C4.73209 4.68723 5.82195 4.13639 6.88717 3.92823C7.94551 3.72142 8.93041 3.86219 9.75674 4.12725C10.5808 4.39158 11.2639 4.78458 11.7377 5.10674C11.8357 5.1734 11.9254 5.23747 12.0062 5.29733ZM10.9294 6.37123L10.8941 6.3471C10.4998 6.07892 9.94683 5.76351 9.29857 5.55557C8.65263 5.34836 7.92913 5.25299 7.17485 5.40039C6.42746 5.54643 5.6005 5.94014 4.75209 6.78855C3.90367 7.63697 3.50997 8.46393 3.36392 9.21132C3.21652 9.9656 3.31189 10.6891 3.5191 11.335C3.72705 11.9833 4.04245 12.5363 4.31063 12.9306C4.44374 13.1263 4.56262 13.2792 4.64628 13.381C4.68803 13.4318 4.72077 13.4696 4.74184 13.4934L4.76249 13.5165L11.1132 19.8672L11.1165 19.8704C11.1216 19.8751 11.1312 19.8841 11.1451 19.8963C11.1731 19.921 11.2171 19.9581 11.2743 20.0007C11.3916 20.0882 11.548 20.1867 11.7208 20.2544C11.8932 20.3218 12.0546 20.348 12.2006 20.3283C12.3342 20.3103 12.5063 20.2476 12.707 20.0468C12.9078 19.8461 12.9705 19.674 12.9885 19.5403C13.0083 19.3944 12.9821 19.233 12.9146 19.0606C12.847 18.8878 12.7484 18.7314 12.6609 18.614C12.6183 18.5569 12.5812 18.5129 12.5566 18.4849C12.555 18.4832 12.5535 18.4815 12.5521 18.4799C12.5421 18.4687 12.5348 18.4607 12.5306 18.4563L12.5275 18.453L11.4696 17.3951C11.1767 17.1023 11.1767 16.6274 11.4696 16.3345C11.7625 16.0416 12.2373 16.0416 12.5302 16.3345L13.5881 17.3924L13.5914 17.3955C13.5964 17.4002 13.6061 17.4092 13.62 17.4215C13.648 17.4461 13.692 17.4832 13.7491 17.5258C13.8665 17.6133 14.0229 17.7119 14.1957 17.7795C14.3681 17.847 14.5295 17.8732 14.6754 17.8534C14.8091 17.8354 14.9812 17.7727 15.1819 17.5719C15.3827 17.3712 15.4454 17.1991 15.4634 17.0655C15.4831 16.9195 15.4569 16.7581 15.3895 16.5857C15.3218 16.4129 15.2233 16.2565 15.1358 16.1392C15.0932 16.082 15.0561 16.038 15.0314 16.01C15.0192 15.9961 15.0102 15.9865 15.0055 15.9814L15.0023 15.9782L13.9696 14.9454C13.6767 14.6525 13.6767 14.1776 13.9696 13.8847C14.2625 13.5918 14.7373 13.5918 15.0302 13.8847L16.063 14.9175L16.0663 14.9206C16.0713 14.9254 16.081 14.9343 16.0949 14.9466C16.1228 14.9713 16.1669 15.0084 16.224 15.0509C16.3414 15.1384 16.4977 15.237 16.6705 15.3046C16.843 15.3721 17.0044 15.3983 17.1503 15.3786C17.2839 15.3605 17.456 15.2978 17.6568 15.0971C17.8575 14.8963 17.9202 14.7242 17.9383 14.5906C17.958 14.4447 17.9318 14.2833 17.8643 14.1108C17.7967 13.938 17.6982 13.7816 17.6107 13.6643C17.5681 13.6072 17.531 13.5631 17.5063 13.5351L17.4909 13.5179L17.4804 13.5066L17.4772 13.5033L16.0658 12.0919L16.0611 12.0872L14.4748 10.5008L12.8838 12.0918C11.8098 13.1657 10.0686 13.1657 8.99469 12.0918L7.93403 11.0311C7.65974 10.7568 7.63986 10.3186 7.88819 10.0206L10.9294 6.37123ZM18.5416 12.4464L18.5428 12.4475L19.2477 13.1524C19.293 13.1977 19.3392 13.2075 19.3657 13.2061C19.3786 13.2054 19.3864 13.2023 19.3908 13.1999C19.3941 13.1981 19.4018 13.1934 19.4122 13.1781C19.8683 12.5058 20.423 11.4771 20.5624 10.3356C20.6968 9.23449 20.4526 7.99339 19.2477 6.78848C17.6238 5.16453 15.9886 5.17841 14.7183 5.57791C14.0648 5.78343 13.5056 6.09506 13.1064 6.3598C12.9082 6.49124 12.7532 6.60863 12.6498 6.69126C12.6005 6.73068 12.5633 6.76198 12.5389 6.78288L9.47899 10.4548L10.0554 11.0311C10.5435 11.5193 11.335 11.5193 11.8231 11.0311L13.9444 8.9098C14.0851 8.76915 14.2759 8.69013 14.4748 8.69013C14.6737 8.69013 14.8645 8.76915 15.0051 8.9098L18.5416 12.4464Z" fill="#23262A"/>
</svg>
