<svg width="24" height="24" viewBox="0 0 24 24" fill="none" xmlns="http://www.w3.org/2000/svg">
<path fill-rule="evenodd" clip-rule="evenodd" d="M10.0002 3.75C9.30987 3.75 8.75023 4.30964 8.75023 5V13.5C8.75023 13.7929 8.57972 14.059 8.31362 14.1814C8.04752 14.3038 7.73452 14.2601 7.51213 14.0694L5.39828 12.2576C4.91367 11.8422 4.19095 11.8699 3.73962 12.3213C3.30978 12.7511 3.26142 13.4316 3.62615 13.9179L8.37523 20.25H18.3986L19.6173 14.7659C19.8869 13.5528 19.122 12.3509 17.909 12.0813L11.8375 10.7321C11.4944 10.6559 11.2502 10.3515 11.2502 10V5C11.2502 4.30964 10.6906 3.75 10.0002 3.75ZM7.25023 5C7.25023 3.48122 8.48144 2.25 10.0002 2.25C11.519 2.25 12.7502 3.48122 12.7502 5V9.39837L18.2344 10.6171C20.2561 11.0663 21.5309 13.0695 21.0816 15.0913L19.7324 21.1627C19.6561 21.5059 19.3518 21.75 19.0002 21.75H8.00023C7.76416 21.75 7.54187 21.6389 7.40023 21.45L2.42615 14.8179C1.61354 13.7344 1.72128 12.2183 2.67896 11.2606C3.68452 10.255 5.29475 10.1932 6.37447 11.1187L7.25023 11.8693V5Z" fill="#23262A"/>
</svg>
