<svg width="24" height="24" viewBox="0 0 24 24" fill="none" xmlns="http://www.w3.org/2000/svg">
<path fill-rule="evenodd" clip-rule="evenodd" d="M10.0002 2.25C8.4921 2.25 7.26751 3.46401 7.25042 4.9681C7.03844 4.82515 6.81067 4.68453 6.58336 4.56753C6.28845 4.41573 5.89474 4.25 5.5 4.25C4.25736 4.25 3.25 5.25736 3.25 6.5C3.25 7.74264 4.25736 8.75 5.5 8.75C5.89474 8.75 6.28845 8.58427 6.58336 8.43247C6.8106 8.31551 7.03831 8.17493 7.25024 8.03203V11.8693L6.37448 11.1187C5.29475 10.1932 3.68453 10.255 2.67896 11.2606C1.72129 12.2183 1.61354 13.7344 2.42616 14.8179L7.40024 21.45C7.54188 21.6389 7.76417 21.75 8.00024 21.75H19.0002C19.3518 21.75 19.6561 21.5059 19.7324 21.1627L21.0816 15.0913C21.5309 13.0695 20.2561 11.0663 18.2344 10.6171L12.7502 9.39837V8.03234C12.962 8.17514 13.1896 8.31559 13.4166 8.43247C13.7115 8.58427 14.1053 8.75 14.5 8.75C15.7426 8.75 16.75 7.74264 16.75 6.5C16.75 5.25736 15.7426 4.25 14.5 4.25C14.1053 4.25 13.7115 4.41573 13.4166 4.56753C13.1895 4.68444 12.9619 4.82495 12.75 4.96779C12.7328 3.46385 11.5083 2.25 10.0002 2.25ZM8.75024 5C8.75024 4.30964 9.30988 3.75 10.0002 3.75C10.6906 3.75 11.2502 4.30964 11.2502 5V5.75H8.75024V5ZM11.8375 10.7321C11.4944 10.6559 11.2502 10.3515 11.2502 10V7.25H8.75024V13.5C8.75024 13.7929 8.57973 14.059 8.31363 14.1814C8.04753 14.3038 7.73453 14.2601 7.51214 14.0694L5.39829 12.2576C4.91367 11.8422 4.19095 11.8699 3.73962 12.3213C3.30979 12.7511 3.26143 13.4316 3.62616 13.9179L8.37524 20.25H18.3986L19.6173 14.7659C19.8869 13.5528 19.122 12.3509 17.909 12.0813L11.8375 10.7321ZM13.3772 6.6411C13.3116 6.59389 13.2475 6.54657 13.1859 6.5C13.2475 6.45343 13.3116 6.40611 13.3772 6.3589C13.6227 6.18236 13.8759 6.0182 14.1031 5.90122C14.2162 5.84301 14.3119 5.80222 14.3886 5.77707C14.4608 5.75335 14.4958 5.75035 14.5 5.75C14.9142 5.75 15.25 6.08579 15.25 6.5C15.25 6.91421 14.914 7.24995 14.4997 7.24995C14.4956 7.2496 14.4608 7.24665 14.3886 7.22293C14.3119 7.19778 14.2162 7.15699 14.1031 7.09878C13.8759 6.9818 13.6227 6.81764 13.3772 6.6411ZM6.81414 6.5C6.75246 6.45343 6.68842 6.40611 6.62277 6.3589C6.3773 6.18236 6.12414 6.0182 5.89688 5.90122C5.78379 5.84301 5.68809 5.80222 5.61143 5.77707C5.53915 5.75335 5.50443 5.7504 5.50025 5.75005C5.08604 5.75005 4.75 6.08579 4.75 6.5C4.75 6.91421 5.08579 7.25 5.5 7.25C5.50417 7.24965 5.53915 7.24665 5.61143 7.22293C5.68809 7.19778 5.78379 7.15699 5.89688 7.09878C6.12414 6.9818 6.3773 6.81764 6.62277 6.6411C6.68842 6.59389 6.75246 6.54657 6.81414 6.5Z" fill="#23262A"/>
</svg>
