<svg width="24" height="24" viewBox="0 0 24 24" fill="none" xmlns="http://www.w3.org/2000/svg">
<path fill-rule="evenodd" clip-rule="evenodd" d="M14.6515 12.0917L17.4799 14.9201C17.8144 15.2546 18.2428 15.4941 18.7039 15.6151C18.8823 15.6619 18.9785 15.8682 18.8576 16.0075C18.8135 16.0582 18.7668 16.1084 18.7174 16.1578C18.2994 16.5758 17.8307 16.8003 17.3511 16.8651C17.3129 16.8703 17.2749 16.8744 17.2373 16.8775C17.0924 16.8895 16.9742 17.0077 16.9622 17.1526C16.9591 17.1902 16.955 17.2282 16.9498 17.2664C16.885 17.746 16.6605 18.2147 16.2425 18.6327C15.8245 19.0507 15.3558 19.2752 14.8763 19.34C14.838 19.3452 14.8 19.3493 14.7624 19.3524C14.6175 19.3644 14.4993 19.4826 14.4874 19.6274C14.4842 19.6651 14.4801 19.7031 14.475 19.7413C14.4102 20.2209 14.1856 20.6896 13.7676 21.1076C13.3497 21.5255 12.8809 21.7501 12.4014 21.8149C11.9341 21.878 11.5099 21.7827 11.1741 21.6513C10.8387 21.5201 10.5642 21.3424 10.3777 21.2034C10.2829 21.1327 10.2068 21.069 10.1526 21.0212C10.1198 20.9922 10.0874 20.9626 10.0563 20.9318L3.69136 14.5668C3.66707 14.5425 3.64428 14.5168 3.6215 14.491L3.6186 14.4878C3.58616 14.4511 3.54143 14.3993 3.48725 14.3334C3.37904 14.2017 3.23227 14.0125 3.07021 13.7742C2.74805 13.3005 2.35505 12.6173 2.09072 11.7933C1.82566 10.967 1.68489 9.98207 1.8917 8.92373C2.09986 7.85851 2.6507 6.76865 3.69137 5.72799C4.73203 4.68732 5.82189 4.13648 6.88711 3.92832C7.94544 3.72151 8.93035 3.86228 9.75668 4.12735C10.2567 4.28774 10.7049 4.49553 11.0859 4.70612C11.0981 4.71288 11.0994 4.72988 11.0885 4.73861C11.0119 4.79988 10.9503 4.85157 10.9048 4.89076C10.882 4.91036 10.8632 4.92689 10.8485 4.93997L10.8457 4.94239C10.7952 4.98772 10.7257 5.05341 10.6555 5.13773L7.11992 9.38037C6.54048 10.0757 6.58686 11.0981 7.22687 11.7381L8.28754 12.7988C9.752 14.2633 12.1264 14.2633 13.5908 12.7988L14.2979 12.0917C14.3956 11.9941 14.5539 11.9941 14.6515 12.0917ZM20.3084 5.72789C18.2105 3.63 15.9566 3.61613 14.2683 4.14708C13.4425 4.40679 12.755 4.79301 12.2773 5.1098C12.0371 5.26913 11.8461 5.41343 11.7131 5.5198C11.6465 5.57305 11.5941 5.61702 11.5571 5.64887C11.5386 5.6648 11.5239 5.67772 11.5132 5.68729C11.4815 5.7157 11.451 5.74533 11.4237 5.77808L7.88819 10.0207C7.63986 10.3187 7.65974 10.7569 7.93403 11.0312L8.99469 12.0919C10.0686 13.1658 11.8098 13.1658 12.8838 12.0919L14.4748 10.5009L18.1871 14.2132C18.8581 14.8842 20.0461 14.9156 20.6535 14.0203C21.1713 13.2571 21.8707 11.9968 22.0513 10.5174C22.2368 8.99771 21.8666 7.28609 20.3084 5.72789Z" fill="#23262A"/>
</svg>
