<svg width="24" height="24" viewBox="0 0 24 24" fill="none" xmlns="http://www.w3.org/2000/svg">
<path fill-rule="evenodd" clip-rule="evenodd" d="M13.7374 3.17678C13.054 2.49336 11.946 2.49336 11.2626 3.17678L9.68934 4.75H3C2.58579 4.75 2.25 5.08579 2.25 5.5V14.5C2.25 14.6989 2.32902 14.8897 2.46967 15.0303L7.96967 20.5303C8.5832 21.1439 9.28863 21.4613 9.99144 21.484C10.689 21.5065 11.3255 21.2351 11.7803 20.7803C12.0266 20.5341 12.2191 20.2345 12.3402 19.9009L12.4697 20.0303C13.0832 20.6439 13.7886 20.9613 14.4914 20.984C15.189 21.0065 15.8255 20.7351 16.2803 20.2803C16.5351 20.0256 16.7322 19.7139 16.8525 19.3663C17.3685 19.7602 17.9308 19.9659 18.4914 19.984C19.189 20.0065 19.8255 19.7351 20.2803 19.2803C20.7351 18.8255 21.0065 18.189 20.984 17.4914C20.9613 16.7886 20.6439 16.0832 20.0303 15.4697L19.8107 15.25H21C21.4142 15.25 21.75 14.9142 21.75 14.5V5.5C21.75 5.08579 21.4142 4.75 21 4.75H15.3107L13.7374 3.17678ZM12.5303 7.96967L18.3107 13.75H20.25V6.25H15C14.8011 6.25 14.6103 6.17098 14.4697 6.03033L12.6768 4.23744C12.5791 4.13981 12.4209 4.13981 12.3232 4.23744L7.56066 9L8.11612 9.55546C8.60427 10.0436 9.39573 10.0436 9.88388 9.55546L11.4697 7.96967C11.7626 7.67678 12.2374 7.67678 12.5303 7.96967ZM10.9848 19.0398C10.9762 18.7739 10.8561 18.4168 10.4697 18.0303L8.96967 16.5303C8.67678 16.2374 8.67678 15.7626 8.96967 15.4697C9.26256 15.1768 9.73744 15.1768 10.0303 15.4697L13.5303 18.9697C13.9168 19.3561 14.2739 19.4762 14.5398 19.4848C14.811 19.4935 15.0495 19.3899 15.2197 19.2197C15.3899 19.0495 15.4935 18.811 15.4848 18.5398C15.4762 18.2739 15.3561 17.9168 14.9697 17.5303L11.4697 14.0303C11.1768 13.7374 11.1768 13.2626 11.4697 12.9697C11.7626 12.6768 12.2374 12.6768 12.5303 12.9697L17.5303 17.9697C17.9168 18.3561 18.2739 18.4762 18.5398 18.4848C18.811 18.4935 19.0495 18.3899 19.2197 18.2197C19.3899 18.0495 19.4935 17.811 19.4848 17.5398C19.4762 17.2739 19.3561 16.9168 18.9697 16.5303L12 9.56066L10.9445 10.6161C9.8706 11.6901 8.1294 11.6901 7.05546 10.6161L5.96967 9.53033C5.67678 9.23744 5.67678 8.76257 5.96967 8.46967L8.18934 6.25H3.75V14.1893L9.03033 19.4697C9.4168 19.8561 9.77387 19.9762 10.0398 19.9848C10.311 19.9935 10.5495 19.8899 10.7197 19.7197C10.8899 19.5495 10.9935 19.311 10.9848 19.0398Z" fill="#23262A"/>
</svg>
