<svg width="24" height="24" viewBox="0 0 24 24" fill="none" xmlns="http://www.w3.org/2000/svg">
<path fill-rule="evenodd" clip-rule="evenodd" d="M7.25042 4.9681C7.26752 3.46401 8.4921 2.25 10.0002 2.25C11.5083 2.25 12.7328 3.46384 12.7501 4.96778C12.9619 4.82494 13.1895 4.68444 13.4166 4.56753C13.7115 4.41573 14.1053 4.25 14.5 4.25C15.7426 4.25 16.75 5.25736 16.75 6.5C16.75 7.74264 15.7426 8.75 14.5 8.75C14.1053 8.75 13.7115 8.58427 13.4166 8.43247C13.1896 8.31559 12.962 8.17514 12.7502 8.03235L12.7502 5V9.39837L18.2344 10.6171C20.2561 11.0663 21.5309 13.0695 21.0816 15.0913L19.7324 21.1627C19.6561 21.5059 19.3518 21.75 19.0002 21.75H8.00024C7.76417 21.75 7.54188 21.6389 7.40024 21.45L2.42616 14.8179C1.61354 13.7344 1.72129 12.2183 2.67896 11.2606C3.68453 10.255 5.29475 10.1932 6.37448 11.1187L7.25024 11.8693L7.25024 8.03202C7.03831 8.17493 6.8106 8.31551 6.58336 8.43247C6.28845 8.58427 5.89474 8.75 5.5 8.75C4.25736 8.75 3.25 7.74264 3.25 6.5C3.25 5.25736 4.25736 4.25 5.5 4.25C5.89474 4.25 6.28845 4.41573 6.58336 4.56753C6.81067 4.68453 7.03844 4.82515 7.25042 4.9681ZM12 7C12 7.13807 11.8881 7.25 11.75 7.25H8.25C8.11193 7.25 8 7.13807 8 7V6C8 5.86193 8.11193 5.75 8.25 5.75H11.75C11.8881 5.75 12 5.86193 12 6V7ZM6.62277 6.3589C6.68842 6.40611 6.75246 6.45343 6.81414 6.5C6.75246 6.54657 6.68842 6.59389 6.62277 6.6411C6.3773 6.81764 6.12414 6.9818 5.89688 7.09878C5.78379 7.15699 5.68809 7.19778 5.61143 7.22293C5.53915 7.24665 5.50417 7.24965 5.5 7.25C5.08579 7.25 4.75 6.91421 4.75 6.5C4.75 6.08579 5.08604 5.75005 5.50025 5.75005C5.50443 5.7504 5.53915 5.75335 5.61143 5.77707C5.68809 5.80222 5.78379 5.84301 5.89688 5.90122C6.12414 6.0182 6.3773 6.18236 6.62277 6.3589ZM13.3772 6.6411C13.3116 6.59389 13.2475 6.54657 13.1859 6.5C13.2475 6.45343 13.3116 6.40611 13.3772 6.3589C13.6227 6.18236 13.8759 6.0182 14.1031 5.90122C14.2162 5.84301 14.3119 5.80222 14.3886 5.77707C14.4608 5.75335 14.4958 5.75035 14.5 5.75C14.9142 5.75 15.25 6.08579 15.25 6.5C15.25 6.91421 14.914 7.24995 14.4997 7.24995C14.4956 7.2496 14.4608 7.24665 14.3886 7.22293C14.3119 7.19778 14.2162 7.15699 14.1031 7.09878C13.8759 6.9818 13.6227 6.81764 13.3772 6.6411Z" fill="#23262A"/>
</svg>
