<svg width="24" height="24" viewBox="0 0 24 24" fill="none" xmlns="http://www.w3.org/2000/svg">
<path fill-rule="evenodd" clip-rule="evenodd" d="M14.5253 2.16707C13.7715 2.04747 12.9159 2.26029 12.0001 2.9925C11.0858 2.26057 10.232 2.04557 9.47841 2.16413C8.64306 2.29554 8.12436 2.81482 7.97541 2.96394L7.96961 2.96974L7.96368 2.97566C7.81454 3.12469 7.29551 3.64333 7.16413 4.47841C7.02293 5.37594 7.35486 6.41546 8.46966 7.53027L11.4697 10.5303C11.6103 10.671 11.8011 10.75 12 10.75C12.1989 10.75 12.3897 10.671 12.5303 10.5303L15.5303 7.53026C16.6463 6.41423 16.9753 5.37231 16.8329 4.47459C16.7003 3.63901 16.1816 3.12081 16.0357 2.97504L16.0248 2.96413C15.879 2.81821 15.3608 2.29962 14.5253 2.16707ZM9.03037 4.0303C9.14275 3.9179 9.37139 3.69941 9.71152 3.6459C10.0007 3.60042 10.5845 3.64514 11.4697 4.53031C11.7626 4.8232 12.2374 4.8232 12.5303 4.5303C13.4143 3.64633 13.9995 3.6024 14.2903 3.64855C14.6326 3.70284 14.8618 3.92247 14.9697 4.03032C15.0775 4.13812 15.2971 4.36737 15.3514 4.70962C15.3976 5.00045 15.3536 5.58564 14.4697 6.46961L12 8.93933L9.53032 6.46961C8.64512 5.58441 8.60042 5.00062 8.6459 4.71153C8.69941 4.37143 8.91787 4.14282 9.03037 4.0303ZM21.75 15.219C21.75 13.4224 19.8324 12.2763 18.2501 13.1272L15.6167 14.5433C15.5729 13.9988 15.3553 13.4559 14.9494 13.0296C14.4826 12.5396 13.8111 12.25 13 12.25L10 12.25C9.90501 12.25 9.74142 12.2054 9.46536 12.0724C9.36005 12.0216 9.25691 11.9676 9.14362 11.9083L9.14356 11.9082L9.0596 11.8643C8.92052 11.7918 8.76206 11.7106 8.60408 11.6439C8.04123 11.406 7.21829 11.25 6 11.25C4.24592 11.25 3.24717 12.0053 2.73188 12.8641C2.48878 13.2693 2.37021 13.6684 2.31144 13.9623C2.28178 14.1106 2.26651 14.2363 2.2586 14.3285C2.25463 14.3748 2.25249 14.413 2.25133 14.4419C2.25075 14.4564 2.25042 14.4686 2.25023 14.4783L2.25005 14.491L2.25001 14.496L2.25 14.4981V14.4991C2.25 14.4995 2.25 14.5 3 14.5H2.25V19C2.25 19.3228 2.45657 19.6094 2.76283 19.7115L5.76283 20.7115C5.8393 20.737 5.91939 20.75 6 20.75L15.2984 20.75C15.9229 20.75 16.5287 20.5375 17.0163 20.1474L20.8586 17.0736C21.422 16.6228 21.75 15.9405 21.75 15.219ZM13 17.25C13.518 17.25 13.9791 17.1319 14.3662 16.9189L18.9605 14.4483C19.5435 14.1348 20.25 14.5571 20.25 15.219C20.25 15.4848 20.1292 15.7362 19.9216 15.9023L16.0793 18.9761C15.8577 19.1534 15.5823 19.25 15.2984 19.25L6.12171 19.25L3.75 18.4594L3.75 14.5056L3.75013 14.5019C3.75044 14.4942 3.75122 14.4787 3.75312 14.4566C3.75693 14.4122 3.76509 14.3425 3.78231 14.2565C3.81729 14.0816 3.88622 13.8557 4.01812 13.6359C4.25283 13.2447 4.75408 12.75 6 12.75C7.10939 12.75 7.71111 12.895 8.02023 13.0256C8.11661 13.0663 8.22728 13.122 8.36607 13.1944L8.43887 13.2325L8.4389 13.2325C8.5535 13.2925 8.68402 13.3609 8.81412 13.4236C9.11674 13.5695 9.5427 13.75 10 13.75L13 13.75C13.4389 13.75 13.7049 13.8979 13.8631 14.0641C14.0308 14.2402 14.125 14.4869 14.125 14.75C14.125 15.0131 14.0308 15.2598 13.8631 15.4359C13.7049 15.6021 13.4389 15.75 13 15.75L10 15.75C9.58579 15.75 9.25 16.0858 9.25 16.5C9.25 16.9142 9.58579 17.25 10 17.25L13 17.25Z" fill="#23262A"/>
</svg>
