<svg width="24" height="24" viewBox="0 0 24 24" fill="none" xmlns="http://www.w3.org/2000/svg">
<path fill-rule="evenodd" clip-rule="evenodd" d="M14.5252 2.16713C13.7713 2.04753 12.9157 2.26035 11.9999 2.99256C11.0856 2.26063 10.2319 2.04563 9.47822 2.16419C8.64288 2.2956 8.12418 2.81488 7.97522 2.964L7.96942 2.9698L7.9635 2.97572C7.81436 3.12475 7.29532 3.64339 7.16395 4.47847C7.02274 5.376 7.35468 6.41552 8.46948 7.53033L11.4695 10.5304C11.6101 10.671 11.8009 10.7501 11.9998 10.7501C12.1987 10.7501 12.3895 10.671 12.5301 10.5304L15.5301 7.53032C16.6462 6.41429 16.9751 5.37237 16.8327 4.47465C16.7001 3.63908 16.1815 3.12087 16.0355 2.9751L16.0246 2.96419C15.8788 2.81827 15.3606 2.29968 14.5252 2.16713ZM15.6163 14.5435C15.6064 14.4165 15.587 14.2909 15.5585 14.168C15.3145 13.1168 14.4075 12.25 13 12.25L10 12.25C9.90501 12.25 9.74142 12.2054 9.46536 12.0724C9.36003 12.0216 9.25687 11.9676 9.14356 11.9082L9.0596 11.8643C8.92052 11.7918 8.76206 11.7106 8.60408 11.6439C8.04123 11.406 7.21829 11.25 6 11.25C4.24592 11.25 3.24717 12.0053 2.73188 12.8641C2.48878 13.2693 2.37021 13.6684 2.31144 13.9623C2.28178 14.1106 2.26651 14.2363 2.2586 14.3285C2.25463 14.3748 2.25249 14.413 2.25133 14.4419C2.25106 14.4488 2.25082 13.89 2.25063 13.4331C2.25021 12.428 2.25 11.9157 2.25 19C2.25 19.3228 2.45657 19.6094 2.76283 19.7115L5.76283 20.7115C5.8393 20.737 5.91939 20.75 6 20.75H15.2984C15.9229 20.75 16.5287 20.5375 17.0163 20.1474L20.8586 17.0736C21.422 16.6228 21.75 15.9405 21.75 15.219C21.75 13.4224 19.8324 12.2763 18.2501 13.1272L16.7171 13.9516C16.6201 14.0037 16.5695 14.1131 16.5855 14.222C16.7775 15.5301 16.2443 17.0319 14.8393 17.7998C14.2865 18.1019 13.6598 18.2499 13 18.2499L9.75 18.2499C9.47386 18.2499 9.25 18.0261 9.25 17.7499C9.25 17.4738 9.47386 17.2499 9.75 17.2499H13C13.5092 17.2499 13.9683 17.1362 14.3597 16.9223C15.2835 16.4174 15.6875 15.4487 15.6164 14.5435L15.6164 14.5435L15.6163 14.5435Z" fill="#23262A"/>
</svg>
