<svg width="24" height="24" viewBox="0 0 24 24" fill="none" xmlns="http://www.w3.org/2000/svg">
<path fill-rule="evenodd" clip-rule="evenodd" d="M5.99475 9.95752C5.95865 8.10985 5.90775 5.95986 5.8668 5.59125C5.76335 4.66026 6.29397 3.7747 7.16369 3.42682C7.90214 3.13143 8.68966 3.28944 9.25072 3.7435C9.27629 2.63817 10.1803 1.75 11.2918 1.75C12.3275 1.75 13.1922 2.52374 13.3178 3.53958C13.7817 3.12455 14.4293 2.92097 15.0953 3.05418C16.0575 3.24662 16.7502 4.09149 16.7502 5.07276V5.31494C17.3351 5.0493 18.0432 5.05118 18.6664 5.42508C19.3554 5.83853 19.7423 6.61399 19.6582 7.41317L18.7458 16.0786C18.7386 16.1472 18.7219 16.2145 18.6963 16.2786L17.75 18.6445V21C17.75 21.4143 17.4142 21.75 17 21.75H7.99995C7.58574 21.75 7.24995 21.4143 7.24995 21V19.0985L7.24796 19.0816C7.24162 19.0217 7.24252 18.9627 7.24995 18.9054V18.7918L2.52419 13.6362C1.91869 12.9757 1.99861 11.9407 2.69831 11.3809C3.66847 10.6048 4.95976 10.4953 6.01422 10.996C6.00849 10.6777 6.00194 10.3255 5.99475 9.95752ZM10.7502 3.79162C10.7502 3.49249 10.9927 3.25 11.2918 3.25C11.5769 3.25 11.8132 3.47108 11.8322 3.75559L12.2115 9.44512L10.7502 9.37748V3.79162ZM9.13406 9.30267L8.51403 5.27248C8.45694 4.90143 8.06934 4.68011 7.72077 4.81953C7.47724 4.91695 7.32866 5.16492 7.35762 5.42561C7.402 5.82501 7.44668 7.59417 7.48055 9.22613L9.13406 9.30267ZM17.9083 9.70881L18.1664 7.25615C18.1895 7.03714 18.0835 6.82462 17.8946 6.71132C17.5385 6.49765 17.0812 6.7273 17.0399 7.14053L16.7882 9.65697L17.9083 9.70881ZM13.7894 9.51816L15.2502 9.58577V5.07276C15.2502 4.80651 15.0622 4.57727 14.8011 4.52505C14.4725 4.45932 14.1604 4.69577 14.1347 5.02992L13.7894 9.51816ZM5.93712 12.7975L5.48987 14.6517L3.62992 12.6227C3.61101 12.602 3.6135 12.5697 3.63536 12.5522C4.33197 11.9949 5.34513 12.0947 5.91982 12.7753L5.93712 12.7975ZM8.74995 19.6768L16.25 18.8832V20.25H8.74995V19.6768ZM17.265 15.8181L16.6596 17.3315L8.67644 18.1762C8.64475 18.11 8.60325 18.0483 8.55282 17.9932L6.71141 15.9844L7.35334 13.3231L17.3441 15.0661L17.265 15.8181ZM17.5015 13.5709L17.7507 11.2031L7.50962 10.7291C7.51748 11.1577 7.52406 11.5378 7.529 11.8311L17.5015 13.5709Z" fill="#23262A"/>
</svg>
