<svg width="24" height="24" viewBox="0 0 24 24" fill="none" xmlns="http://www.w3.org/2000/svg">
<path fill-rule="evenodd" clip-rule="evenodd" d="M13.7374 3.17687C13.054 2.49345 11.946 2.49345 11.2626 3.17687L5.96967 8.46976C5.67678 8.76266 5.67678 9.23753 5.96967 9.53042L7.05546 10.6162C8.1294 11.6902 9.8706 11.6902 10.9445 10.6162L12 9.56075L17.4697 15.0304C17.6103 15.1711 17.8011 15.2501 18 15.2501H21C21.4142 15.2501 21.75 14.9143 21.75 14.5001V5.50009C21.75 5.08588 21.4142 4.75009 21 4.75009H15.3107L13.7374 3.17687ZM7.67167 4.75C7.89439 4.75 8.00593 5.01929 7.84844 5.17678L5.26256 7.76266C4.57915 8.44607 4.57915 9.55411 5.26256 10.2375L6.34835 11.3233C7.81281 12.7878 10.1872 12.7878 11.6516 11.3233L11.8232 11.1517C11.9209 11.0541 12.0791 11.0541 12.1768 11.1517L16.7626 15.7375C17.0908 16.0657 17.5359 16.2501 18 16.2501H20.4812C20.5719 16.2501 20.6562 16.2988 20.6965 16.38C20.8762 16.7417 20.972 17.1169 20.9841 17.4915C21.0066 18.189 20.7352 18.8256 20.2804 19.2803C19.8256 19.7351 19.1891 20.0065 18.4915 19.984C17.8758 19.9641 17.2581 19.7181 16.702 19.2449L11.3536 13.8964C11.1583 13.7012 10.8417 13.7012 10.6464 13.8964C10.4512 14.0917 10.4512 14.4083 10.6464 14.6036L16.2802 20.2373C16.2921 20.2492 16.2921 20.2684 16.2803 20.2803C15.8255 20.7351 15.189 21.0065 14.4914 20.984C13.8759 20.9641 13.2584 20.7182 12.7023 20.2452L8.85355 16.3964C8.65829 16.2012 8.34171 16.2012 8.14645 16.3964C7.95118 16.5917 7.95118 16.9083 8.14645 17.1036L11.7802 20.7373C11.7921 20.7492 11.7922 20.7685 11.7803 20.7804C11.3256 21.2352 10.689 21.5065 9.99146 21.484C9.28865 21.4614 8.58322 21.1439 7.96969 20.5304L2.44098 15C2.32126 14.8661 2.25 14.6899 2.25 14.5V5.5C2.25 5.08579 2.58579 4.75 3 4.75H7.67167Z" fill="#23262A"/>
</svg>
