<svg width="24" height="24" viewBox="0 0 24 24" fill="none" xmlns="http://www.w3.org/2000/svg">
<path fill-rule="evenodd" clip-rule="evenodd" d="M10.7502 3.79162C10.7502 3.49249 10.9927 3.25 11.2918 3.25C11.577 3.25 11.8133 3.47108 11.8322 3.75559L12.2115 9.44512L10.7502 9.37748V3.79162ZM9.13409 9.30267L8.51406 5.27248C8.45697 4.90143 8.06937 4.68011 7.7208 4.81953C7.47726 4.91695 7.32869 5.16492 7.35765 5.42561C7.40203 5.82501 7.44671 7.59417 7.48058 9.22614L9.13409 9.30267ZM5.99463 9.93896C5.95855 8.09547 5.90764 5.95863 5.86683 5.59125C5.76338 4.66026 6.29399 3.7747 7.16371 3.42682C7.90217 3.13143 8.68969 3.28944 9.25075 3.7435C9.27631 2.63817 10.1803 1.75 11.2918 1.75C12.3275 1.75 13.1923 2.52374 13.3179 3.53958C13.7817 3.12455 14.4293 2.92097 15.0954 3.05418C16.0576 3.24662 16.7502 4.09149 16.7502 5.07276V5.31494C17.3351 5.0493 18.0432 5.05118 18.6664 5.42508C19.3555 5.83853 19.7423 6.61399 19.6582 7.41317L19.326 10.5692C19.3254 10.5753 19.3246 10.5814 19.3238 10.5875L18.9826 13.8292L6.91808 11.7245L6.02435 11.5704L6.02433 11.5693C6.03092 11.9515 6.03559 12.2396 6.03783 12.38L5.93713 12.7975L5.91984 12.7753C5.34514 12.0947 4.33199 11.9949 3.63537 12.5522C3.61352 12.5697 3.61102 12.602 3.62993 12.6227L5.48987 14.6517L5.87227 13.0664L6.66029 13.2022L6.66179 13.2024L18.8252 15.3244L18.7458 16.0786C18.7386 16.1472 18.722 16.2145 18.6963 16.2786L18.3462 17.1539C18.3344 17.1546 18.3225 17.1556 18.3106 17.1568L6.86177 18.3683L5.33582 16.7036L5.05887 16.3995L5.05849 16.4009L2.5242 13.6363C1.91871 12.9757 1.99862 11.9407 2.69833 11.3809C3.66848 10.6048 4.95977 10.4953 6.01423 10.996C6.0085 10.6778 6.00195 10.3256 5.99476 9.95752C5.99464 9.95133 5.99459 9.94514 5.99463 9.93896ZM17.9083 9.70881L18.1665 7.25615C18.1895 7.03714 18.0835 6.82462 17.8946 6.71132C17.5385 6.49765 17.0812 6.7273 17.0399 7.14053L16.7882 9.65697L17.9083 9.70881ZM15.2502 9.58578V5.07276C15.2502 4.80651 15.0623 4.57727 14.8012 4.52505C14.4725 4.45932 14.1604 4.69577 14.1347 5.02992L13.7895 9.51816L15.2502 9.58578ZM7.24996 19.8356L17.75 18.7245V21C17.75 21.4143 17.4142 21.75 17 21.75H7.99996C7.58575 21.75 7.24996 21.4143 7.24996 21V19.8356Z" fill="#23262A"/>
</svg>
