<svg width="24" height="24" viewBox="0 0 24 24" fill="none" xmlns="http://www.w3.org/2000/svg">
<path fill-rule="evenodd" clip-rule="evenodd" d="M10.25 8C10.25 7.42044 10.4399 6.99575 10.7178 6.71783C10.9957 6.43991 11.4204 6.25 12 6.25C12.5796 6.25 13.0043 6.43991 13.2822 6.71783C13.5601 6.99575 13.75 7.42044 13.75 8C13.75 8.15777 13.6859 8.34934 13.4991 8.61095C13.3076 8.87904 13.0426 9.14673 12.7197 9.46967L12.6985 9.49086C12.4009 9.78839 12.0511 10.1381 11.7803 10.5172C11.5122 10.8926 11.2743 11.3596 11.2517 11.914L5.30684 13.4002C4.09802 13.7024 3.25 14.7885 3.25 16.0346C3.25 17.5343 4.46574 18.75 5.96544 18.75H18.0346C19.5343 18.75 20.75 17.5343 20.75 16.0346C20.75 14.7885 19.902 13.7024 18.6932 13.4002L12.7559 11.9159C12.7755 11.7746 12.846 11.6059 13.0009 11.3891C13.1924 11.121 13.4574 10.8533 13.7803 10.5303L13.8015 10.5091C14.0991 10.2116 14.4489 9.86192 14.7197 9.4828C15.0016 9.08816 15.25 8.59223 15.25 8C15.25 7.07956 14.9399 6.25425 14.3428 5.65717C13.7457 5.06009 12.9204 4.75 12 4.75C11.0796 4.75 10.2543 5.06009 9.65717 5.65717C9.06009 6.25425 8.75 7.07956 8.75 8C8.75 8.41421 9.08579 8.75 9.5 8.75C9.91421 8.75 10.25 8.41421 10.25 8ZM5.67065 14.8554L12 13.2731L18.3294 14.8554C18.8704 14.9907 19.25 15.4768 19.25 16.0346C19.25 16.7058 18.7058 17.25 18.0346 17.25H5.96544C5.29417 17.25 4.75 16.7058 4.75 16.0346C4.75 15.4768 5.12958 14.9907 5.67065 14.8554Z" fill="#23262A"/>
</svg>
