<svg width="24" height="24" viewBox="0 0 24 24" fill="none" xmlns="http://www.w3.org/2000/svg">
<path fill-rule="evenodd" clip-rule="evenodd" d="M9.75 10V6.01165C9.75024 6.00816 9.75071 6.00218 9.75159 5.99396C9.75426 5.96905 9.76048 5.9254 9.77448 5.8694C9.80268 5.75659 9.85987 5.6035 9.975 5.45C10.1793 5.17762 10.683 4.75 12 4.75C13.317 4.75 13.8207 5.17762 14.025 5.45C14.1401 5.6035 14.1973 5.75659 14.2255 5.8694C14.2395 5.9254 14.2457 5.96905 14.2484 5.99396C14.2493 6.00218 14.2498 6.00816 14.25 6.01165V10C14.25 10.4142 14.5858 10.75 15 10.75C15.4142 10.75 15.75 10.4142 15.75 10V7.04859C17.7889 7.76924 19.2498 9.71459 19.2498 12V17C19.2498 17.1164 19.2769 17.2313 19.329 17.3354L19.7863 18.25H4.21331L4.67061 17.3354C4.72268 17.2313 4.74979 17.1164 4.74979 17V12C4.74979 9.71443 6.21088 7.76897 8.25 7.04844V10C8.25 10.4142 8.58579 10.75 9 10.75C9.41421 10.75 9.75 10.4142 9.75 10ZM8.33168 5.45788C5.41042 6.20071 3.24979 8.84738 3.24979 12V16.8229L2.69077 17.941C2.2752 18.7721 2.87958 19.75 3.8088 19.75H20.1908C21.12 19.75 21.7244 18.7721 21.3088 17.941L20.7498 16.8229V12C20.7498 8.84754 18.5894 6.20099 15.6684 5.45799C15.5992 5.20219 15.4694 4.87591 15.225 4.55C14.6793 3.82238 13.683 3.25 12 3.25C10.317 3.25 9.32072 3.82238 8.775 4.55C8.5306 4.87586 8.40079 5.20209 8.33168 5.45788ZM9.25 14C9.25 13.5858 9.58578 13.25 10 13.25H14C14.4142 13.25 14.75 13.5858 14.75 14C14.75 14.4142 14.4142 14.75 14 14.75H10C9.58578 14.75 9.25 14.4142 9.25 14Z" fill="#23262A"/>
</svg>
