<svg width="24" height="24" viewBox="0 0 24 24" fill="none" xmlns="http://www.w3.org/2000/svg">
<path fill-rule="evenodd" clip-rule="evenodd" d="M9.75 10V6.01165C9.75024 6.00816 9.75071 6.00218 9.75159 5.99396C9.75426 5.96905 9.76048 5.9254 9.77448 5.8694C9.80268 5.75659 9.85987 5.6035 9.975 5.45C10.1793 5.17762 10.683 4.75 12 4.75C13.317 4.75 13.8207 5.17762 14.025 5.45C14.1401 5.6035 14.1973 5.75659 14.2255 5.8694C14.2395 5.9254 14.2457 5.96905 14.2484 5.99396C14.2493 6.00218 14.2498 6.00816 14.25 6.01165V10C14.25 10.4142 14.5858 10.75 15 10.75C15.4142 10.75 15.75 10.4142 15.75 10V5.80488C15.75 5.64051 15.9061 5.52085 16.0626 5.57103C18.7816 6.44277 20.7497 8.99154 20.7497 12V16.7639C20.7497 16.8027 20.7588 16.841 20.7761 16.8757L21.3087 17.941C21.7243 18.7721 21.1199 19.75 20.1907 19.75H3.80874C2.87952 19.75 2.27514 18.7721 2.69071 17.941L3.22333 16.8757C3.24069 16.841 3.24973 16.8027 3.24973 16.7639V12C3.24973 8.99133 5.21816 6.44241 7.93743 5.57085C8.09394 5.52069 8.25 5.64035 8.25 5.8047V10C8.25 10.4142 8.58579 10.75 9 10.75C9.41421 10.75 9.75 10.4142 9.75 10ZM10 13.25C9.58579 13.25 9.25 13.5858 9.25 14C9.25 14.4142 9.58579 14.75 10 14.75H14C14.4142 14.75 14.75 14.4142 14.75 14C14.75 13.5858 14.4142 13.25 14 13.25H10Z" fill="#23262A"/>
</svg>
