<svg width="24" height="24" viewBox="0 0 24 24" fill="none" xmlns="http://www.w3.org/2000/svg">
<path fill-rule="evenodd" clip-rule="evenodd" d="M3.24979 12C3.24979 8.84738 5.41042 6.20071 8.33168 5.45787C8.4008 5.20209 8.5306 4.87586 8.775 4.55C9.32072 3.82238 10.317 3.25 12 3.25C13.683 3.25 14.6793 3.82238 15.225 4.55C15.4694 4.87591 15.5992 5.20219 15.6683 5.45799C18.5894 6.20099 20.7498 8.84754 20.7498 12V16.8229L21.3088 17.941C21.7244 18.7721 21.12 19.75 20.1908 19.75H3.8088C2.87958 19.75 2.2752 18.7721 2.69077 17.941L3.24979 16.8229V12ZM9.75 10C9.75 10.4142 9.41421 10.75 9 10.75C8.58579 10.75 8.25 10.4142 8.25 10V7.04844C6.21088 7.76897 4.74979 9.71442 4.74979 12V17C4.74979 17.1164 4.72268 17.2313 4.67061 17.3354L4.21331 18.25H19.7863L19.329 17.3354C19.2769 17.2313 19.2498 17.1164 19.2498 17V12C19.2498 9.71458 17.7889 7.76924 15.75 7.04859V10C15.75 10.4142 15.4142 10.75 15 10.75C14.5858 10.75 14.25 10.4142 14.25 10V6.01165C14.2498 6.00816 14.2493 6.00218 14.2484 5.99396C14.2457 5.96905 14.2395 5.9254 14.2255 5.8694C14.1973 5.75659 14.1401 5.6035 14.025 5.45C13.8207 5.17762 13.317 4.75 12 4.75C10.683 4.75 10.1793 5.17762 9.975 5.45C9.85987 5.6035 9.80268 5.75659 9.77448 5.8694C9.76048 5.9254 9.75426 5.96905 9.75159 5.99396C9.75071 6.00218 9.75024 6.00816 9.75 6.01165V10ZM10 13.25C9.58579 13.25 9.25 13.5858 9.25 14C9.25 14.4142 9.58579 14.75 10 14.75H14C14.4142 14.75 14.75 14.4142 14.75 14C14.75 13.5858 14.4142 13.25 14 13.25H10Z" fill="#23262A"/>
</svg>
