<svg width="24" height="24" viewBox="0 0 24 24" fill="none" xmlns="http://www.w3.org/2000/svg">
<path fill-rule="evenodd" clip-rule="evenodd" d="M9.75021 10V6.01165C9.75045 6.00816 9.75092 6.00218 9.7518 5.99396C9.75447 5.96905 9.7607 5.9254 9.77469 5.8694C9.8029 5.75659 9.86009 5.6035 9.97521 5.45C10.1795 5.17762 10.6832 4.75 12.0002 4.75C13.3172 4.75 13.8209 5.17762 14.0252 5.45C14.1403 5.6035 14.1975 5.75659 14.2257 5.8694C14.2397 5.9254 14.246 5.96905 14.2486 5.99396C14.2495 6.00218 14.25 6.00816 14.2502 6.01165V10C14.2502 10.4142 14.586 10.75 15.0002 10.75C15.4144 10.75 15.7502 10.4142 15.7502 10V7.04859C17.7891 7.76924 19.25 9.71459 19.25 12V17C19.25 17.1164 19.2771 17.2313 19.3292 17.3354L19.7865 18.25H4.21353L4.67082 17.3354C4.72289 17.2313 4.75 17.1164 4.75 17V12C4.75 9.71443 6.21109 7.76897 8.25021 7.04844V10C8.25021 10.4142 8.586 10.75 9.00021 10.75C9.41443 10.75 9.75021 10.4142 9.75021 10ZM8.33189 5.45788C5.41064 6.20071 3.25 8.84738 3.25 12V16.8229L2.69098 17.941C2.27542 18.7721 2.87979 19.75 3.80902 19.75H20.191C21.1202 19.75 21.7246 18.7721 21.309 17.941L20.75 16.8229V12C20.75 8.84754 18.5896 6.20099 15.6686 5.45799C15.5995 5.20219 15.4696 4.87591 15.2252 4.55C14.6795 3.82238 13.6832 3.25 12.0002 3.25C10.3172 3.25 9.32093 3.82238 8.77521 4.55C8.53082 4.87586 8.40101 5.20209 8.33189 5.45788ZM9.25021 14C9.25021 13.5858 9.586 13.25 10.0002 13.25H14.0002C14.4144 13.25 14.7502 13.5858 14.7502 14C14.7502 14.4142 14.4144 14.75 14.0002 14.75H10.0002C9.586 14.75 9.25021 14.4142 9.25021 14Z" fill="#262626"/>
</svg>
