<svg width="24" height="24" viewBox="0 0 24 24" fill="none" xmlns="http://www.w3.org/2000/svg">
<path fill-rule="evenodd" clip-rule="evenodd" d="M10.0936 3.6564C10.1107 3.24253 9.78894 2.89324 9.37508 2.87622C8.96122 2.85921 8.61192 3.18092 8.59491 3.59479L8.40353 8.25005H5C4.58579 8.25005 4.25 8.58584 4.25 9.00005C4.25 9.41427 4.58579 9.75005 5 9.75005H8.34187L8.15688 14.2501H4C3.58579 14.2501 3.25 14.5858 3.25 15.0001C3.25 15.4143 3.58579 15.7501 4 15.7501H8.09522L7.90638 20.3437C7.88937 20.7576 8.21108 21.1069 8.62494 21.1239C9.03881 21.1409 9.3881 20.8192 9.40512 20.4053L9.59649 15.7501H14.0952L13.9064 20.3437C13.8894 20.7576 14.2111 21.1069 14.6249 21.1239C15.0388 21.1409 15.3881 20.8192 15.4051 20.4053L15.5965 15.7501H19C19.4142 15.7501 19.75 15.4143 19.75 15.0001C19.75 14.5858 19.4142 14.2501 19 14.2501H15.6581L15.8431 9.75005H20C20.4142 9.75005 20.75 9.41427 20.75 9.00005C20.75 8.58584 20.4142 8.25005 20 8.25005H15.9048L16.0936 3.6564C16.1107 3.24253 15.7889 2.89324 15.3751 2.87622C14.9612 2.85921 14.6119 3.18092 14.5949 3.59479L14.4035 8.25005H9.9048L10.0936 3.6564ZM14.1569 14.2501L14.3419 9.75005H9.84314L9.65815 14.2501H14.1569Z" fill="#23262A"/>
</svg>
