<svg width="24" height="24" viewBox="0 0 24 24" fill="none" xmlns="http://www.w3.org/2000/svg">
<path fill-rule="evenodd" clip-rule="evenodd" d="M11.6954 4.31464C11.8893 4.22845 12.1107 4.22845 12.3046 4.31464L21.2889 8.30768C21.3525 8.33423 21.4116 8.36926 21.4648 8.41136C21.5016 8.4404 21.5354 8.4727 21.5658 8.50771C21.6805 8.63944 21.75 8.81161 21.75 9V16C21.75 16.4142 21.4142 16.75 21 16.75C20.5858 16.75 20.25 16.4142 20.25 16V10.1541L18.75 10.8207V16C18.75 16.2841 18.5895 16.5438 18.3354 16.6708L18.1492 16.7639C14.2782 18.6994 9.72182 18.6994 5.85081 16.7639L5.66459 16.6708C5.4105 16.5438 5.25 16.2841 5.25 16V10.8207L2.6954 9.68536C2.42455 9.56498 2.25 9.29639 2.25 9C2.25 8.70361 2.42455 8.43502 2.6954 8.31464L11.6954 4.31464ZM12.3046 13.6854L17.25 11.4874V15.5335C13.9278 17.1096 10.0722 17.1096 6.75 15.5335V11.4874L11.6954 13.6854C11.8893 13.7715 12.1107 13.7715 12.3046 13.6854ZM4.84666 9L12 12.1793L19.1533 9L12 5.82074L4.84666 9Z" fill="#23262A"/>
</svg>
