<svg width="24" height="24" viewBox="0 0 24 24" fill="none" xmlns="http://www.w3.org/2000/svg">
<path fill-rule="evenodd" clip-rule="evenodd" d="M4.00001 3.25C3.5858 3.25 3.25001 3.58579 3.25001 4L3.25 12.5C3.25 12.6989 3.32902 12.8897 3.46967 13.0303C3.61032 13.171 3.80109 13.25 4 13.25H9C9.41421 13.25 9.75 12.9142 9.75 12.5C9.75 12.0858 9.41421 11.75 9 11.75H4.75L4.75001 4.75L19.25 4.75L19.25 11.75H15C14.5858 11.75 14.25 12.0858 14.25 12.5C14.25 12.9142 14.5858 13.25 15 13.25H20C20.4142 13.25 20.75 12.9142 20.75 12.5L20.75 4C20.75 3.80109 20.671 3.61032 20.5303 3.46967C20.3897 3.32902 20.1989 3.25 20 3.25H4.00001ZM15.5 6.25C15.0858 6.25 14.75 6.58579 14.75 7C14.75 7.41421 15.0858 7.75 15.5 7.75H17C17.4142 7.75 17.75 7.41421 17.75 7C17.75 6.58579 17.4142 6.25 17 6.25H15.5ZM12 10.25C12.4142 10.25 12.75 10.5858 12.75 11V18.6893L14.9697 16.4697C15.2626 16.1768 15.7374 16.1768 16.0303 16.4697C16.3232 16.7626 16.3232 17.2374 16.0303 17.5303L12.5303 21.0303C12.2374 21.3232 11.7626 21.3232 11.4697 21.0303L7.96967 17.5303C7.67678 17.2374 7.67678 16.7626 7.96967 16.4697C8.26256 16.1768 8.73744 16.1768 9.03033 16.4697L11.25 18.6893V11C11.25 10.5858 11.5858 10.25 12 10.25ZM14.75 9.5C14.75 9.08579 15.0858 8.75 15.5 8.75H17C17.4142 8.75 17.75 9.08579 17.75 9.5C17.75 9.91421 17.4142 10.25 17 10.25H15.5C15.0858 10.25 14.75 9.91421 14.75 9.5Z" fill="#23262A"/>
</svg>
