<svg width="24" height="24" viewBox="0 0 24 24" fill="none" xmlns="http://www.w3.org/2000/svg">
<path fill-rule="evenodd" clip-rule="evenodd" d="M4.00001 3.25C3.5858 3.25 3.25001 3.58579 3.25001 4L3.25 12.5C3.25 12.6989 3.32902 12.8897 3.46967 13.0303C3.61032 13.171 3.80109 13.25 4 13.25H9.5C9.63807 13.25 9.75 13.1381 9.75 13V11C9.75 9.75736 10.7574 8.75 12 8.75C13.2426 8.75 14.25 9.75736 14.25 11V13C14.25 13.1381 14.3619 13.25 14.5 13.25H20C20.4142 13.25 20.75 12.9142 20.75 12.5L20.75 4C20.75 3.80109 20.671 3.61032 20.5303 3.46967C20.3897 3.32902 20.1989 3.25 20 3.25H4.00001ZM15.75 7C15.75 6.58579 16.0858 6.25 16.5 6.25H18C18.4142 6.25 18.75 6.58579 18.75 7C18.75 7.41421 18.4142 7.75 18 7.75H16.5C16.0858 7.75 15.75 7.41421 15.75 7ZM16.5 8.75C16.0858 8.75 15.75 9.08579 15.75 9.5C15.75 9.91421 16.0858 10.25 16.5 10.25H18C18.4142 10.25 18.75 9.91421 18.75 9.5C18.75 9.08579 18.4142 8.75 18 8.75H16.5ZM12 10.25C12.4142 10.25 12.75 10.5858 12.75 11V18.6893L14.9697 16.4697C15.2626 16.1768 15.7374 16.1768 16.0303 16.4697C16.3232 16.7626 16.3232 17.2374 16.0303 17.5303L12.5303 21.0303C12.2374 21.3232 11.7626 21.3232 11.4697 21.0303L7.96967 17.5303C7.67678 17.2374 7.67678 16.7626 7.96967 16.4697C8.26256 16.1768 8.73744 16.1768 9.03033 16.4697L11.25 18.6893V11C11.25 10.5858 11.5858 10.25 12 10.25Z" fill="#23262A"/>
</svg>
