<svg width="24" height="24" viewBox="0 0 24 24" fill="none" xmlns="http://www.w3.org/2000/svg">
<path fill-rule="evenodd" clip-rule="evenodd" d="M3.25001 4C3.25001 3.58579 3.5858 3.25 4.00001 3.25H20C20.1989 3.25 20.3897 3.32902 20.5303 3.46967C20.671 3.61032 20.75 3.80109 20.75 4L20.75 12.5C20.75 12.9142 20.4142 13.25 20 13.25H14.5C14.3619 13.25 14.25 13.1381 14.25 13V11C14.25 9.75736 13.2426 8.75 12 8.75C10.7574 8.75 9.75 9.75736 9.75 11V13C9.75 13.1381 9.63807 13.25 9.5 13.25H4C3.80109 13.25 3.61032 13.171 3.46967 13.0303C3.32902 12.8897 3.25 12.6989 3.25 12.5L3.25001 4ZM16.5 6.25C16.0858 6.25 15.75 6.58579 15.75 7C15.75 7.41421 16.0858 7.75 16.5 7.75H18C18.4142 7.75 18.75 7.41421 18.75 7C18.75 6.58579 18.4142 6.25 18 6.25H16.5ZM15.75 9.5C15.75 9.08579 16.0858 8.75 16.5 8.75H18C18.4142 8.75 18.75 9.08579 18.75 9.5C18.75 9.91421 18.4142 10.25 18 10.25H16.5C16.0858 10.25 15.75 9.91421 15.75 9.5ZM12 10.25C12.4142 10.25 12.75 10.5858 12.75 11V18.6893L14.9697 16.4697C15.2626 16.1768 15.7374 16.1768 16.0303 16.4697C16.3232 16.7626 16.3232 17.2374 16.0303 17.5303L12.5303 21.0303C12.4584 21.1022 12.3755 21.1565 12.2871 21.1931C12.1987 21.2298 12.1017 21.25 12 21.25C11.9871 21.25 11.9742 21.2497 11.9614 21.249C11.8738 21.2446 11.7901 21.2251 11.7129 21.1931C11.6245 21.1565 11.5416 21.1022 11.4697 21.0303L7.96967 17.5303C7.67678 17.2374 7.67678 16.7626 7.96967 16.4697C8.26256 16.1768 8.73744 16.1768 9.03033 16.4697L11.25 18.6893V11C11.25 10.5858 11.5858 10.25 12 10.25Z" fill="#23262A"/>
</svg>
