<svg width="24" height="24" viewBox="0 0 24 24" fill="none" xmlns="http://www.w3.org/2000/svg">
<path fill-rule="evenodd" clip-rule="evenodd" d="M3.25001 4C3.25001 3.58579 3.5858 3.25 4.00001 3.25H20C20.1989 3.25 20.3897 3.32902 20.5303 3.46967C20.671 3.61032 20.75 3.80109 20.75 4L20.75 12.5C20.75 12.9142 20.4142 13.25 20 13.25H17.5048C17.4214 13.25 17.3443 13.2078 17.2938 13.1414C17.2324 13.0605 17.1648 12.9828 17.091 12.909L13.591 9.40901C12.7123 8.53033 11.2877 8.53033 10.409 9.40901L6.90901 12.909C6.8352 12.9828 6.76758 13.0605 6.70617 13.1414C6.65572 13.2078 6.57859 13.25 6.49518 13.25H4C3.80109 13.25 3.61032 13.171 3.46967 13.0303C3.32902 12.8897 3.25 12.6989 3.25 12.5L3.25001 4ZM16.5 6.25C16.0858 6.25 15.75 6.58579 15.75 7C15.75 7.41421 16.0858 7.75 16.5 7.75H18C18.4142 7.75 18.75 7.41421 18.75 7C18.75 6.58579 18.4142 6.25 18 6.25H16.5ZM15.75 9.5C15.75 9.08579 16.0858 8.75 16.5 8.75H18C18.4142 8.75 18.75 9.08579 18.75 9.5C18.75 9.91421 18.4142 10.25 18 10.25H16.5C16.0858 10.25 15.75 9.91421 15.75 9.5ZM11.4697 10.4697C11.5416 10.3978 11.6245 10.3435 11.7129 10.3069C11.8013 10.2702 11.8983 10.25 12 10.25C12.1017 10.25 12.1987 10.2702 12.2871 10.3069C12.3755 10.3435 12.4584 10.3978 12.5303 10.4697L16.0303 13.9697C16.3232 14.2626 16.3232 14.7374 16.0303 15.0303C15.7374 15.3232 15.2626 15.3232 14.9697 15.0303L12.75 12.8107V20.5C12.75 20.9142 12.4142 21.25 12 21.25C11.5858 21.25 11.25 20.9142 11.25 20.5V12.8107L9.03033 15.0303C8.73744 15.3232 8.26256 15.3232 7.96967 15.0303C7.67678 14.7374 7.67678 14.2626 7.96967 13.9697L11.4697 10.4697Z" fill="#262626"/>
</svg>
