<svg width="24" height="24" viewBox="0 0 24 24" fill="none" xmlns="http://www.w3.org/2000/svg">
<path fill-rule="evenodd" clip-rule="evenodd" d="M4.00001 3.25C3.5858 3.25 3.25001 3.58579 3.25001 4L3.25 12.5C3.25 12.6989 3.32902 12.8897 3.46967 13.0303C3.61032 13.171 3.80109 13.25 4 13.25H6C6.41421 13.25 6.75 12.9142 6.75 12.5C6.75 12.0858 6.41421 11.75 6 11.75H4.75L4.75001 4.75L19.25 4.75L19.25 11.75H18C17.5858 11.75 17.25 12.0858 17.25 12.5C17.25 12.9142 17.5858 13.25 18 13.25H20C20.4142 13.25 20.75 12.9142 20.75 12.5L20.75 4C20.75 3.80109 20.671 3.61032 20.5303 3.46967C20.3897 3.32902 20.1989 3.25 20 3.25H4.00001ZM15.5 6.25C15.0858 6.25 14.75 6.58579 14.75 7C14.75 7.41421 15.0858 7.75 15.5 7.75H17C17.4142 7.75 17.75 7.41421 17.75 7C17.75 6.58579 17.4142 6.25 17 6.25H15.5ZM11.4697 10.4697C11.7626 10.1768 12.2374 10.1768 12.5303 10.4697L16.0303 13.9697C16.3232 14.2626 16.3232 14.7374 16.0303 15.0303C15.7374 15.3232 15.2626 15.3232 14.9697 15.0303L12.75 12.8107V20.5C12.75 20.9142 12.4142 21.25 12 21.25C11.5858 21.25 11.25 20.9142 11.25 20.5V12.8107L9.03033 15.0303C8.73744 15.3232 8.26256 15.3232 7.96967 15.0303C7.67678 14.7374 7.67678 14.2626 7.96967 13.9697L11.4697 10.4697ZM14.75 9.5C14.75 9.08579 15.0858 8.75 15.5 8.75H17C17.4142 8.75 17.75 9.08579 17.75 9.5C17.75 9.91421 17.4142 10.25 17 10.25H15.5C15.0858 10.25 14.75 9.91421 14.75 9.5Z" fill="#23262A"/>
</svg>
