<svg width="24" height="24" viewBox="0 0 24 24" fill="none" xmlns="http://www.w3.org/2000/svg">
<path fill-rule="evenodd" clip-rule="evenodd" d="M5.75001 11C5.75001 6.99594 8.99594 3.75 13 3.75C17.0041 3.75 20.25 6.99594 20.25 11C20.25 12.8392 19.5661 14.5168 18.4377 15.7953L18.25 16.008V21.5C18.25 21.9142 18.5858 22.25 19 22.25C19.4142 22.25 19.75 21.9142 19.75 21.5V16.5681C20.999 15.0556 21.75 13.1147 21.75 11C21.75 6.16751 17.8325 2.25 13 2.25C8.20505 2.25 4.31092 6.10689 4.25071 10.8876L2.78164 15.7845C2.71351 16.0116 2.75677 16.2575 2.89829 16.4477C3.03981 16.6379 3.26293 16.75 3.50001 16.75H5.25001V18C5.25001 19.5188 6.48122 20.75 8.00001 20.75H10.25V21.5C10.25 21.9142 10.5858 22.25 11 22.25C11.4142 22.25 11.75 21.9142 11.75 21.5V20C11.75 19.5858 11.4142 19.25 11 19.25H8.00001C7.30965 19.25 6.75001 18.6904 6.75001 18V16C6.75001 15.5858 6.41422 15.25 6.00001 15.25H4.50803L5.75001 11.1101V11ZM10.7803 8.77811C11.1777 8.38065 11.8222 8.38065 12.2196 8.77811L12.4696 9.02811C12.7625 9.321 13.2374 9.321 13.5303 9.02811L13.7803 8.77811C14.1777 8.38065 14.8222 8.38065 15.2196 8.77811C15.6171 9.17557 15.6171 9.81998 15.2196 10.2174L12.9999 12.4371L10.7803 10.2174C10.3828 9.81998 10.3828 9.17557 10.7803 8.77811ZM9.71961 7.71745C10.6141 6.82296 12.0142 6.74221 12.9999 7.4752C13.9857 6.74221 15.3858 6.82296 16.2803 7.71745C17.2635 8.7007 17.2635 10.2949 16.2803 11.2781L13.5303 14.0281C13.2374 14.321 12.7625 14.321 12.4696 14.0281L9.71961 11.2781C8.73636 10.2949 8.73637 8.7007 9.71961 7.71745Z" fill="#23262A"/>
</svg>
