<svg width="24" height="24" viewBox="0 0 24 24" fill="none" xmlns="http://www.w3.org/2000/svg">
<path fill-rule="evenodd" clip-rule="evenodd" d="M12.3298 2.99236C12.4022 3.40019 12.1304 3.78953 11.7225 3.86198C8.32777 4.46503 5.75 7.43221 5.75 10.9999V11.11L4.50802 15.2499H6C6.41421 15.2499 6.75 15.5857 6.75 15.9999V17.9999C6.75 18.6903 7.30964 19.2499 8 19.2499H11C11.4142 19.2499 11.75 19.5857 11.75 19.9999V21.4999C11.75 21.9141 11.4142 22.2499 11 22.2499C10.5858 22.2499 10.25 21.9141 10.25 21.4999V20.7499H8C6.48122 20.7499 5.25 19.5187 5.25 17.9999V16.7499H3.5C3.26292 16.7499 3.0398 16.6378 2.89828 16.4476C2.75676 16.2574 2.71351 16.0115 2.78163 15.7844L4.25071 10.8875C4.30431 6.63018 7.39765 3.10677 11.4602 2.3851C11.868 2.31265 12.2573 2.58453 12.3298 2.99236ZM20.663 8.57515C21.0679 8.48798 21.4669 8.74558 21.554 9.15052C21.6825 9.74734 21.75 10.3662 21.75 10.9999C21.75 13.1146 20.999 15.0555 19.75 16.568V21.4999C19.75 21.9141 19.4142 22.2499 19 22.2499C18.5858 22.2499 18.25 21.9141 18.25 21.4999V16.0079L18.4377 15.7953C19.5661 14.5168 20.25 12.8391 20.25 10.9999C20.25 10.4729 20.1939 9.95992 20.0876 9.46619C20.0004 9.06125 20.258 8.66232 20.663 8.57515ZM15.25 2.75C13.7635 2.75 12.5295 3.83114 12.2915 5.25H12.25C11.1454 5.25 10.25 6.14543 10.25 7.25C10.25 8.35457 11.1454 9.25 12.25 9.25H17.75C19.1307 9.25 20.25 8.13071 20.25 6.75C20.25 5.40263 19.1841 4.30421 17.8496 4.25195C17.3315 3.35478 16.3621 2.75 15.25 2.75ZM13.75 5.75C13.75 4.92157 14.4216 4.25 15.25 4.25C15.9019 4.25 16.4586 4.66633 16.6648 5.24993C16.7708 5.54963 17.0541 5.75 17.372 5.75H17.75C18.3023 5.75 18.75 6.19772 18.75 6.75C18.75 7.30228 18.3023 7.75 17.75 7.75H12.25C11.9739 7.75 11.75 7.52614 11.75 7.25C11.75 6.97386 11.9739 6.75 12.25 6.75H13C13.4142 6.75 13.75 6.41421 13.75 6V5.75Z" fill="#23262A"/>
</svg>
