<svg width="24" height="24" viewBox="0 0 24 24" fill="none" xmlns="http://www.w3.org/2000/svg">
<path fill-rule="evenodd" clip-rule="evenodd" d="M11.6202 2.35817C11.8605 2.32011 11.9971 2.63129 11.8384 2.8157C11.5753 3.12143 11.3526 3.46294 11.1785 3.83193C11.1486 3.89538 11.0947 3.94441 11.0289 3.96889C9.69803 4.4644 8.75 5.74648 8.75 7.24999C8.75 9.18299 10.317 10.75 12.25 10.75H17.75C19.1196 10.75 20.3285 10.0616 21.0494 9.01202C21.179 8.82335 21.4879 8.85368 21.538 9.07703C21.6768 9.6958 21.75 10.3393 21.75 11C21.75 13.0824 21.0217 14.9963 19.8069 16.4985C19.7703 16.5437 19.75 16.5999 19.75 16.658V21.5C19.75 21.9142 19.4142 22.25 19 22.25H11C10.5858 22.25 10.25 21.9142 10.25 21.5V21C10.25 20.8619 10.1381 20.75 10 20.75H8.00001C6.48122 20.75 5.25001 19.5188 5.25001 18V17C5.25001 16.8619 5.13808 16.75 5.00001 16.75H3.50001C3.26293 16.75 3.03981 16.6379 2.89829 16.4477C2.75677 16.2575 2.71351 16.0116 2.78164 15.7845L4.24063 10.9212C4.24732 10.8989 4.25084 10.8756 4.25123 10.8523C4.32234 6.55559 7.4905 3.01236 11.6202 2.35817ZM15.25 2.75C13.7635 2.75 12.5295 3.83114 12.2915 5.25H12.25C11.1454 5.25 10.25 6.14543 10.25 7.25C10.25 8.35457 11.1454 9.25 12.25 9.25H17.75C19.1307 9.25 20.25 8.13071 20.25 6.75C20.25 5.40263 19.1841 4.30421 17.8496 4.25195C17.3315 3.35478 16.3621 2.75 15.25 2.75Z" fill="#23262A"/>
</svg>
