<svg width="24" height="24" viewBox="0 0 24 24" fill="none" xmlns="http://www.w3.org/2000/svg">
<path fill-rule="evenodd" clip-rule="evenodd" d="M11.8384 2.8157C11.9971 2.63129 11.8605 2.32011 11.6202 2.35817C7.4905 3.01236 4.32234 6.55559 4.25123 10.8523C4.25084 10.8756 4.24732 10.8989 4.24063 10.9212L2.78164 15.7845C2.71351 16.0116 2.75677 16.2575 2.89829 16.4477C3.03981 16.6379 3.26293 16.75 3.50001 16.75H5.00001C5.13808 16.75 5.25001 16.8619 5.25001 17V18C5.25001 19.5188 6.48122 20.75 8.00001 20.75H10C10.1381 20.75 10.25 20.8619 10.25 21V21.5C10.25 21.9142 10.5858 22.25 11 22.25H19C19.4142 22.25 19.75 21.9142 19.75 21.5V16.658C19.75 16.5999 19.7703 16.5437 19.8069 16.4985C21.0217 14.9963 21.75 13.0824 21.75 11C21.75 10.3393 21.6768 9.6958 21.538 9.07703C21.4879 8.85368 21.179 8.82335 21.0494 9.01202C20.3285 10.0616 19.1196 10.75 17.75 10.75H12.25C10.317 10.75 8.75 9.18299 8.75 7.24999C8.75 5.74648 9.69803 4.4644 11.0289 3.96889C11.0947 3.94441 11.1486 3.89538 11.1785 3.83193C11.3526 3.46294 11.5753 3.12143 11.8384 2.8157ZM15.25 2.74999C13.7635 2.74999 12.5295 3.83114 12.2915 5.24999H12.25C11.1454 5.24999 10.25 6.14542 10.25 7.24999C10.25 8.35456 11.1454 9.24999 12.25 9.24999H17.75C19.1307 9.24999 20.25 8.1307 20.25 6.74999C20.25 5.40262 19.1841 4.3042 17.8496 4.25194C17.3315 3.35477 16.3621 2.74999 15.25 2.74999Z" fill="#262626"/>
</svg>
