<svg width="24" height="24" viewBox="0 0 24 24" fill="none" xmlns="http://www.w3.org/2000/svg">
<path fill-rule="evenodd" clip-rule="evenodd" d="M10.7088 2.26852C7.43637 1.76507 4.43628 3.80423 3.5472 6.80024C3.16317 8.09435 3.56607 9.4072 3.87541 10.4111C4.09888 11.1364 4.28156 11.9281 4.28156 12.5323C4.28156 13.1365 4.09888 13.9281 3.87541 14.6534L3.85702 14.713C3.78223 14.9555 4.06464 15.1298 4.24404 14.9504L7.13358 12.0609C7.25028 11.9442 7.19679 11.7501 7.03176 11.7501C6.61755 11.7501 6.28176 11.4143 6.28176 11.0001V9.23148C6.28176 7.08436 8.23849 5.46914 10.3467 5.87599C11.0185 6.00563 11.6034 6.32237 12.0606 6.76025C12.1642 6.85954 12.3296 6.86487 12.4311 6.76337L14.5202 4.67424C14.6116 4.58288 14.6187 4.43659 14.5326 4.34022C13.5768 3.26978 12.256 2.50655 10.7088 2.26852ZM15.9135 10.4596C15.9255 10.4188 15.8758 10.3898 15.8457 10.4199L5.71746 20.5481C5.60833 20.6572 5.62302 20.8385 5.75324 20.9214C6.57804 21.446 7.55711 21.7501 8.60759 21.7501C10.9703 21.7501 13.0505 20.1935 13.7172 17.9269L15.9135 10.4596ZM11.0203 8.17413C11.1112 8.08322 11.1195 7.93676 11.0269 7.84764C10.77 7.60057 10.4408 7.42182 10.0625 7.34882C8.87962 7.12055 7.78176 8.02679 7.78176 9.23148V10.1645C7.78176 10.2764 7.85652 10.3735 7.9618 10.4113C8.09242 10.4583 8.21846 10.5148 8.33907 10.5801C8.44233 10.636 8.5714 10.6231 8.65443 10.54L11.0203 8.17413ZM18.2603 5.53033C18.5532 5.23744 18.5532 4.76256 18.2603 4.46967C17.9674 4.17678 17.4926 4.17678 17.1997 4.46967L2.19967 19.4697C1.90678 19.7626 1.90678 20.2374 2.19967 20.5303C2.49257 20.8232 2.96744 20.8232 3.26033 20.5303L18.2603 5.53033ZM18.7498 16.75H19.9998C20.414 16.75 20.7498 16.4142 20.7498 16C20.7498 15.5858 20.414 15.25 19.9998 15.25H17.9998H15.9998C15.5856 15.25 15.2498 15.5858 15.2498 16C15.2498 16.4142 15.5856 16.75 15.9998 16.75H17.2498V21C17.2498 21.4142 17.5856 21.75 17.9998 21.75C18.414 21.75 18.7498 21.4142 18.7498 21V16.75Z" fill="#23262A"/>
</svg>
