<svg width="24" height="24" viewBox="0 0 24 24" fill="none" xmlns="http://www.w3.org/2000/svg">
<path fill-rule="evenodd" clip-rule="evenodd" d="M16.1249 3.125C14.7759 3.125 13.399 3.72663 11.9999 4.96903C10.6007 3.72663 9.22382 3.125 7.87485 3.125C6.35578 3.125 5.05127 3.88792 3.96952 4.96967C1.59705 7.34215 1.76313 11.3239 4.96952 14.5303L11.4695 21.0303C11.6101 21.1709 11.8009 21.25 11.9998 21.25C12.1988 21.25 12.3902 21.1703 12.5308 21.0297L19.0302 14.5303C22.2366 11.3239 22.4027 7.34216 20.0302 4.96967C18.9484 3.88792 17.6439 3.125 16.1249 3.125ZM11.5562 18.9957L13.112 13.3945L9.66463 11.6708C9.31574 11.4964 9.15881 11.0836 9.30368 10.7215L11.1157 6.19136C9.85131 5.03345 8.77312 4.625 7.87485 4.625C6.89392 4.625 5.94843 5.11208 5.03018 6.03033C3.40267 7.65785 3.23658 10.6761 6.03018 13.4697L11.5562 18.9957ZM13.3705 18.0687L17.9695 13.4697C20.7631 10.6761 20.597 7.65785 18.9695 6.03033C18.0513 5.11208 17.1058 4.625 16.1249 4.625C15.169 4.625 14.0094 5.08752 12.6384 6.42347L10.9527 10.6378L14.3354 12.3292C14.6564 12.4897 14.8187 12.855 14.7227 13.2007L13.3705 18.0687Z" fill="#23262A"/>
</svg>
