<svg width="24" height="24" viewBox="0 0 24 24" fill="none" xmlns="http://www.w3.org/2000/svg">
<path fill-rule="evenodd" clip-rule="evenodd" d="M3.54718 6.80024C4.43625 3.80423 7.43635 1.76507 10.7088 2.26852C12.256 2.50655 13.5768 3.26978 14.5326 4.34022C14.6187 4.43659 14.6116 4.58288 14.5202 4.67424L12.4311 6.76337C12.3296 6.86487 12.1642 6.85954 12.0605 6.76025C11.6034 6.32237 11.0184 6.00563 10.3467 5.87599C8.23846 5.46914 6.28174 7.08436 6.28174 9.23148V11.0001C6.28174 11.4143 6.61752 11.7501 7.03174 11.7501C7.19677 11.7501 7.25025 11.9442 7.13356 12.0609L4.24402 14.9504C4.06462 15.1298 3.7822 14.9555 3.857 14.713L3.87538 14.6534C4.09886 13.9281 4.28153 13.1365 4.28153 12.5323C4.28153 11.9281 4.09886 11.1364 3.87538 10.4111C3.56605 9.4072 3.16315 8.09435 3.54718 6.80024ZM15.8456 10.4199C15.8757 10.3898 15.9255 10.4188 15.9134 10.4596L13.7172 17.9269C13.0505 20.1935 10.9702 21.7501 8.60757 21.7501C7.55709 21.7501 6.57802 21.446 5.75321 20.9214C5.62299 20.8385 5.60831 20.6572 5.71744 20.5481L15.8456 10.4199ZM11.0269 7.84764C11.1195 7.93676 11.1112 8.08322 11.0203 8.17413L8.65441 10.54C8.57138 10.6231 8.44231 10.636 8.33905 10.5801C8.21844 10.5148 8.0924 10.4583 7.96177 10.4113C7.8565 10.3735 7.78174 10.2764 7.78174 10.1645V9.23148C7.78174 8.02679 8.8796 7.12055 10.0625 7.34882C10.4407 7.42182 10.77 7.60057 11.0269 7.84764ZM18.2603 4.46967C18.5532 4.76256 18.5532 5.23744 18.2603 5.53033L3.26031 20.5303C2.96742 20.8232 2.49254 20.8232 2.19965 20.5303C1.90676 20.2374 1.90676 19.7626 2.19965 19.4697L17.1997 4.46967C17.4925 4.17678 17.9674 4.17678 18.2603 4.46967ZM18.75 21C18.75 20.5858 18.4142 20.25 18 20.25C17.5858 20.25 17.25 20.5858 17.25 21V21.05C17.25 21.4642 17.5858 21.8 18 21.8C18.4142 21.8 18.75 21.4642 18.75 21.05V21ZM18.0001 19.25C17.7176 19.25 17.459 19.3428 17.2501 19.4999C16.919 19.7488 16.4488 19.6822 16.1999 19.3511C15.951 19.02 16.0176 18.5498 16.3487 18.3009C16.8085 17.9552 17.3814 17.75 18.0001 17.75C18.6187 17.75 19.1916 17.9552 19.6514 18.3009C19.9825 18.5498 20.0491 19.02 19.8002 19.3511C19.5513 19.6822 19.0811 19.7488 18.7501 19.4999C18.5411 19.3428 18.2825 19.25 18.0001 19.25ZM16.051 17.3991C16.594 16.9913 17.2678 16.75 18.0001 16.75C18.7325 16.75 19.4063 16.9913 19.9493 17.3991C20.2805 17.6478 20.7507 17.5809 20.9994 17.2497C21.2481 16.9185 21.1812 16.4483 20.85 16.1996C20.0562 15.6035 19.0684 15.25 18.0001 15.25C16.9319 15.25 15.9441 15.6035 15.1503 16.1996C14.8191 16.4483 14.7522 16.9185 15.0009 17.2497C15.2496 17.5809 15.7197 17.6478 16.051 17.3991Z" fill="#23262A"/>
</svg>
