<svg width="24" height="24" viewBox="0 0 24 24" fill="none" xmlns="http://www.w3.org/2000/svg">
<path fill-rule="evenodd" clip-rule="evenodd" d="M11.5693 5.05521C11.65 4.85331 11.5917 4.62109 11.419 4.48898C10.2193 3.57132 9.0367 3.125 7.87482 3.125C6.35575 3.125 5.05124 3.88792 3.96949 4.96967C1.59701 7.34215 1.76309 11.3239 4.96949 14.5303L10.4884 20.0492C10.7591 20.3199 11.2212 20.1984 11.3237 19.8295L13.0009 13.7913C13.065 13.5608 12.9568 13.3173 12.7428 13.2103L9.66375 11.6708C9.31487 11.4963 9.15794 11.0836 9.30281 10.7214L11.5693 5.05521ZM13.7124 3.7596C13.7047 3.76364 13.6988 3.77041 13.6955 3.7785L11.1227 10.2106C11.0261 10.452 11.1307 10.7272 11.3633 10.8435L14.3346 12.3291C14.6555 12.4896 14.8178 12.8549 14.7218 13.2007L13.0621 19.1757C12.9245 19.6709 13.5339 20.0265 13.8974 19.6631L19.0302 14.5303C22.2365 11.3239 22.4026 7.34216 20.0302 4.96967C18.9484 3.88792 17.6439 3.125 16.1248 3.125C15.33 3.125 14.5255 3.33386 13.7124 3.7596Z" fill="#23262A"/>
</svg>
