<svg width="24" height="24" viewBox="0 0 24 24" fill="none" xmlns="http://www.w3.org/2000/svg">
<path fill-rule="evenodd" clip-rule="evenodd" d="M11.9998 4.96903C13.399 3.72663 14.7759 3.125 16.1248 3.125C17.6439 3.125 18.9484 3.88792 20.0302 4.96967C22.4026 7.34216 22.2366 11.3239 19.0302 14.5303L12.5308 21.0297L11.9998 20.5L11.4695 21.0303L4.96951 14.5303C1.76311 11.3239 1.59703 7.34215 3.96951 4.96967C5.05125 3.88792 6.35577 3.125 7.87484 3.125C9.2238 3.125 10.6007 3.72663 11.9998 4.96903ZM11.9998 20.5L11.4695 21.0303C11.6101 21.1709 11.8009 21.25 11.9998 21.25C12.1987 21.25 12.3901 21.1703 12.5308 21.0297L11.9998 20.5ZM11.9998 19.4393L17.9695 13.4697C20.7631 10.6761 20.597 7.65785 18.9695 6.03033C18.0513 5.11208 17.1058 4.625 16.1248 4.625C15.1439 4.625 13.9484 5.11208 12.5302 6.53033C12.3895 6.67098 12.1987 6.75 11.9998 6.75C11.8009 6.75 11.6102 6.67098 11.4695 6.53033C10.0513 5.11208 8.85577 4.625 7.87484 4.625C6.8939 4.625 5.94842 5.11208 5.03017 6.03033C3.40266 7.65785 3.23656 10.6761 6.03017 13.4697L11.9998 19.4393Z" fill="#23262A"/>
</svg>
