<svg width="24" height="24" viewBox="0 0 24 24" fill="none" xmlns="http://www.w3.org/2000/svg">
<path fill-rule="evenodd" clip-rule="evenodd" d="M3.30176 8.64071C3.30176 4.68947 6.82371 1.66792 10.729 2.26873C12.3883 2.524 13.7895 3.38522 14.7569 4.5806C15.0175 4.90257 14.9678 5.37483 14.6458 5.63542C14.3238 5.896 13.8516 5.84623 13.591 5.52425C12.8483 4.60656 11.776 3.94746 10.5009 3.75129C7.50426 3.29027 4.80176 5.6088 4.80176 8.64071C4.80176 9.05492 4.46597 9.39071 4.05176 9.39071C3.63754 9.39071 3.30176 9.05492 3.30176 8.64071ZM10.3667 5.87616C8.25848 5.46931 6.30176 7.08452 6.30176 9.23165V11.0003C6.30176 11.4145 6.63754 11.7503 7.05176 11.7503C7.26365 11.7503 7.46116 11.8024 7.63432 11.8939C8.00057 12.0874 8.45432 11.9473 8.64781 11.5811C8.84129 11.2148 8.70124 10.7611 8.33499 10.5676C8.16672 10.4787 7.98816 10.4067 7.80176 10.354V9.23165C7.80176 8.02696 8.89962 7.12071 10.0825 7.34898C10.5222 7.43385 10.8935 7.66002 11.1638 7.97052C11.4357 8.28295 11.9095 8.31576 12.2219 8.0438C12.5343 7.77184 12.5671 7.2981 12.2952 6.98567C11.813 6.43177 11.1473 6.02681 10.3667 5.87616ZM15.5887 11.6324C15.7056 11.2351 15.4782 10.8182 15.0808 10.7013C14.6834 10.5844 14.2666 10.8118 14.1497 11.2092L12.2984 17.5037C11.8194 19.132 10.325 20.2502 8.62778 20.2502C7.83524 20.2502 7.10106 20.01 6.49122 19.5986C6.14784 19.3669 5.68169 19.4575 5.45003 19.8009C5.21838 20.1443 5.30895 20.6104 5.65233 20.8421C6.5022 21.4154 7.52703 21.7502 8.62778 21.7502C10.9905 21.7502 13.0707 20.1936 13.7374 17.927L15.5887 11.6324ZM18.2803 5.53049C18.5732 5.2376 18.5732 4.76272 18.2803 4.46983C17.9874 4.17694 17.5126 4.17694 17.2197 4.46983L2.21967 19.4698C1.92678 19.7627 1.92678 20.2376 2.21967 20.5305C2.51256 20.8234 2.98744 20.8234 3.28033 20.5305L18.2803 5.53049ZM18.75 16.75H20C20.4142 16.75 20.75 16.4142 20.75 16C20.75 15.5858 20.4142 15.25 20 15.25H18H16C15.5858 15.25 15.25 15.5858 15.25 16C15.25 16.4142 15.5858 16.75 16 16.75H17.25V21C17.25 21.4142 17.5858 21.75 18 21.75C18.4142 21.75 18.75 21.4142 18.75 21V16.75Z" fill="#23262A"/>
</svg>
