<svg width="24" height="24" viewBox="0 0 24 24" fill="none" xmlns="http://www.w3.org/2000/svg">
<path fill-rule="evenodd" clip-rule="evenodd" d="M10.729 2.26873C6.82371 1.66792 3.30176 4.68947 3.30176 8.64071C3.30176 9.05492 3.63754 9.39071 4.05176 9.39071C4.46597 9.39071 4.80176 9.05492 4.80176 8.64071C4.80176 5.6088 7.50426 3.29027 10.5009 3.75129C11.776 3.94746 12.8483 4.60656 13.591 5.52425C13.8516 5.84623 14.3238 5.896 14.6458 5.63542C14.9678 5.37483 15.0175 4.90257 14.7569 4.5806C13.7895 3.38522 12.3883 2.524 10.729 2.26873ZM6.30176 9.23165C6.30176 7.08452 8.25848 5.46931 10.3667 5.87616C11.1473 6.02681 11.813 6.43178 12.2952 6.98567C12.5671 7.2981 12.5343 7.77184 12.2219 8.0438C11.9095 8.31576 11.4357 8.28295 11.1638 7.97052C10.8935 7.66002 10.5222 7.43385 10.0825 7.34899C8.89962 7.12071 7.80176 8.02696 7.80176 9.23165V10.354C7.98816 10.4067 8.16672 10.4787 8.33499 10.5676C8.70124 10.7611 8.84129 11.2148 8.64781 11.5811C8.45432 11.9473 8.00057 12.0874 7.63432 11.8939C7.46116 11.8024 7.26365 11.7503 7.05176 11.7503C6.63754 11.7503 6.30176 11.4145 6.30176 11.0003V9.23165ZM15.0808 10.7013C15.4782 10.8182 15.7056 11.2351 15.5887 11.6324L13.7374 17.927C13.0707 20.1936 10.9905 21.7502 8.62778 21.7502C7.52703 21.7502 6.5022 21.4154 5.65233 20.8421C5.30895 20.6104 5.21838 20.1443 5.45003 19.8009C5.68169 19.4575 6.14784 19.3669 6.49122 19.5986C7.10106 20.01 7.83524 20.2502 8.62778 20.2502C10.325 20.2502 11.8194 19.132 12.2984 17.5037L14.1497 11.2092C14.2666 10.8118 14.6834 10.5844 15.0808 10.7013ZM18.2803 4.46984C18.5732 4.76273 18.5732 5.2376 18.2803 5.5305L3.28033 20.5305C2.98744 20.8234 2.51256 20.8234 2.21967 20.5305C1.92678 20.2376 1.92678 19.7627 2.21967 19.4698L17.2197 4.46984C17.5126 4.17694 17.9874 4.17694 18.2803 4.46984ZM15.25 16C15.25 15.5858 15.5858 15.25 16 15.25H20C20.4142 15.25 20.75 15.5858 20.75 16C20.75 16.4142 20.4142 16.75 20 16.75H18.75V21C18.75 21.4142 18.4142 21.75 18 21.75C17.5858 21.75 17.25 21.4142 17.25 21V16.75H16C15.5858 16.75 15.25 16.4142 15.25 16Z" fill="#23262A"/>
</svg>
