<svg width="24" height="24" viewBox="0 0 24 24" fill="none" xmlns="http://www.w3.org/2000/svg">
<path fill-rule="evenodd" clip-rule="evenodd" d="M9.60048 2.53153C9.73446 2.29948 9.98205 2.15653 10.25 2.15653H13.75C14.0179 2.15653 14.2655 2.29948 14.3995 2.53153L15.9331 5.18777L19 5.18778C19.2679 5.18778 19.5155 5.33072 19.6495 5.56278L21.3995 8.59386C21.5335 8.82591 21.5335 9.11181 21.3995 9.34386L19.8661 11.9999L21.3995 14.6559C21.5335 14.8879 21.5335 15.1738 21.3995 15.4059L19.6495 18.437C19.5155 18.669 19.2679 18.812 19 18.812H15.9331L14.3995 21.4682C14.2655 21.7003 14.0179 21.8432 13.75 21.8432H10.25C9.98205 21.8432 9.73446 21.7003 9.60048 21.4682L8.06689 18.812H5C4.73205 18.812 4.48446 18.669 4.35048 18.437L2.60048 15.4059C2.46651 15.1738 2.46651 14.8879 2.60048 14.6559L4.13393 11.9999L2.60048 9.34386C2.46651 9.11181 2.46651 8.82591 2.60048 8.59386L4.35048 5.56277C4.48446 5.33072 4.73205 5.18777 5 5.18777L8.0669 5.18778L9.60048 2.53153ZM5.43292 12.75L8.0669 12.75L9.38388 15.031L8.06699 17.312L5.43301 17.312L4.11603 15.0309L5.43292 12.75ZM8.06708 11.2498L9.38397 8.96886L8.06699 6.68778L5.43301 6.68777L4.11603 8.96886L5.43292 11.2498L8.06708 11.2498ZM13.3169 14.281L10.6831 14.281L9.36612 12L10.683 9.71902L13.317 9.71903L14.6339 12L13.3169 14.281ZM15.9331 12.75L18.5671 12.75L19.884 15.0309L18.567 17.312L15.933 17.312L14.6161 15.031L15.9331 12.75ZM18.5671 11.2498L19.884 8.96886L18.567 6.68778L15.933 6.68777L14.616 8.96886L15.9329 11.2498L18.5671 11.2498ZM10.6829 15.7812L9.36603 18.0621L10.683 20.3432H13.317L14.634 18.0621L13.3171 15.7812L10.6829 15.7812ZM10.683 3.65653L9.36603 5.93762L10.683 8.2187L13.317 8.21871L14.634 5.93762L13.317 3.65653L10.683 3.65653Z" fill="#23262A"/>
</svg>
