<svg width="24" height="24" viewBox="0 0 24 24" fill="none" xmlns="http://www.w3.org/2000/svg">
<path fill-rule="evenodd" clip-rule="evenodd" d="M13.3169 8.21867H10.683L9.36597 5.93758L10.683 3.65649H13.3169L14.6339 5.93758L13.3169 8.21867ZM13.3169 20.3432H10.683L9.36597 18.0621L10.683 15.781H13.3169L14.6339 18.0621L13.3169 20.3432ZM10.683 14.2812H13.3169L14.6339 12.0001L13.3169 9.71899H10.683L9.36597 12.0001L10.683 14.2812ZM18.5664 17.3119H15.9325L14.6155 15.0308L15.9325 12.7498H18.5664L19.8834 15.0308L18.5664 17.3119ZM15.9325 11.2499H18.5664L19.8834 8.96883L18.5664 6.68774H15.9325L14.6155 8.96883L15.9325 11.2499ZM8.06668 17.3119H5.43271L4.11572 15.0308L5.43271 12.7498H8.06668L9.38367 15.0308L8.06668 17.3119ZM5.43271 11.2499H8.06668L9.38367 8.96883L8.06668 6.68774H5.43271L4.11572 8.96883L5.43271 11.2499Z" fill="#23262A"/>
</svg>
