<svg width="24" height="24" viewBox="0 0 24 24" fill="none" xmlns="http://www.w3.org/2000/svg">
<path fill-rule="evenodd" clip-rule="evenodd" d="M9.60048 2.53157C9.73446 2.29952 9.98205 2.15657 10.25 2.15657L13.75 2.15657C14.018 2.15657 14.2655 2.29952 14.3995 2.53157L15.9331 5.18782L19 5.18782C19.268 5.18782 19.5155 5.33077 19.6495 5.56282L21.3995 8.59391C21.5335 8.82596 21.5335 9.11186 21.3995 9.34391L19.8661 11.9999L21.3995 14.6559C21.5335 14.888 21.5335 15.1739 21.3995 15.4059L19.6495 18.437C19.5155 18.6691 19.268 18.812 19 18.812H15.9331L14.3995 21.4683C14.2655 21.7003 14.018 21.8433 13.75 21.8433H10.25C9.98205 21.8433 9.73446 21.7003 9.60048 21.4683L8.06689 18.812H5C4.73205 18.812 4.48446 18.6691 4.35048 18.437L2.60048 15.4059C2.46651 15.1739 2.46651 14.888 2.60048 14.6559L4.13393 11.9999L2.60048 9.34391C2.46651 9.11186 2.46651 8.82596 2.60048 8.59391L4.35048 5.56282C4.48446 5.33077 4.73205 5.18782 5 5.18782L8.06689 5.18782L9.60048 2.53157ZM5.43292 12.75H8.0669L9.38388 15.0311L8.06699 17.312H5.43301L4.11603 15.0309L5.43292 12.75ZM8.06708 11.2498L9.38397 8.96891L8.06699 6.68782L5.43301 6.68782L4.11603 8.96891L5.43292 11.2498L8.06708 11.2498ZM13.3169 14.2811L10.6831 14.2811L9.36612 12L10.683 9.71907L13.317 9.71907L14.6339 12L13.3169 14.2811ZM15.9331 12.75H18.5671L19.884 15.0309L18.567 17.312H15.933L14.6161 15.0311L15.9331 12.75ZM18.5671 11.2498L19.884 8.96891L18.567 6.68782L15.933 6.68782L14.616 8.96891L15.9329 11.2498L18.5671 11.2498ZM10.6829 15.7812L9.36603 18.0622L10.683 20.3433H13.317L14.634 18.0622L13.3171 15.7812H10.6829ZM10.683 3.65657L9.36603 5.93766L10.683 8.21875L13.317 8.21875L14.634 5.93766L13.317 3.65657L10.683 3.65657Z" fill="#262626"/>
</svg>
