<svg xmlns="http://www.w3.org/2000/svg" width="24" height="24" viewBox="0 0 24 24" fill="none">
  <path d="M11.8292 8.66504C12.0144 8.29472 12.4647 8.14417 12.8351 8.3291C13.2054 8.51431 13.3559 8.9646 13.171 9.33496L11.9806 11.7148L13.2628 11.2881C13.5399 11.1958 13.8457 11.2729 14.046 11.4854C14.2462 11.6978 14.3048 12.0073 14.1964 12.2783L12.5197 16.4678L12.9054 16.3652C13.3051 16.2584 13.716 16.496 13.8234 16.8955C13.9306 17.2956 13.6932 17.7072 13.2931 17.8145L11.3615 18.332C10.9615 18.439 10.5497 18.2017 10.4425 17.8018L9.92495 15.8701C9.81796 15.4703 10.0555 15.0586 10.4552 14.9512C10.8206 14.8533 11.195 15.0435 11.339 15.3818L12.2023 13.2227L10.7375 13.7119C10.4497 13.8078 10.1325 13.7203 9.93374 13.4912C9.7351 13.2622 9.69383 12.9363 9.82925 12.665L11.8292 8.66504Z" fill="#202733"/>
  <path fill-rule="evenodd" clip-rule="evenodd" d="M12.0001 1.25C12.268 1.25005 12.5156 1.39302 12.6496 1.625L23.0421 19.625C23.176 19.857 23.176 20.143 23.0421 20.375C22.9082 20.6069 22.6605 20.7498 22.3927 20.75H1.60757C1.33975 20.7499 1.09209 20.6069 0.958154 20.375C0.824236 20.143 0.824236 19.857 0.958154 19.625L11.3507 1.625L11.4064 1.54199C11.5472 1.35943 11.7659 1.25 12.0001 1.25ZM2.9064 19.25H21.0939L12.0001 3.49902L2.9064 19.25Z" fill="#202733"/>
</svg>