<svg width="24" height="24" viewBox="0 0 24 24" fill="none" xmlns="http://www.w3.org/2000/svg">
<path d="M11.5 2.25C11.9142 2.25 12.25 2.58579 12.25 3V5.25H17C17.2361 5.25 17.4584 5.36115 17.6 5.55L20.6 9.55C20.8 9.81667 20.8 10.1833 20.6 10.45L17.6 14.45C17.4584 14.6389 17.2361 14.75 17 14.75H12.25V21C12.25 21.4142 11.9142 21.75 11.5 21.75C11.0858 21.75 10.75 21.4142 10.75 21V14.75H4C3.71593 14.75 3.45623 14.5895 3.32918 14.3354C3.20214 14.0813 3.22956 13.7773 3.4 13.55L6.0625 10L3.4 6.45C3.22956 6.22274 3.20214 5.91868 3.32918 5.66459C3.45623 5.4105 3.71593 5.25 4 5.25H10.75V3C10.75 2.58579 11.0858 2.25 11.5 2.25Z" fill="#23262A"/>
</svg>
