<svg width="24" height="24" viewBox="0 0 24 24" fill="none" xmlns="http://www.w3.org/2000/svg">
<path fill-rule="evenodd" clip-rule="evenodd" d="M5 2.25C4.58579 2.25 4.25 2.58579 4.25 3V21C4.25 21.4142 4.58579 21.75 5 21.75H11C11.1381 21.75 11.25 21.6381 11.25 21.5V17C11.25 16.5858 11.5858 16.25 12 16.25H15.5C15.9142 16.25 16.25 16.5858 16.25 17V21.5C16.25 21.6381 16.3619 21.75 16.5 21.75H19C19.4142 21.75 19.75 21.4142 19.75 21V3C19.75 2.58579 19.4142 2.25 19 2.25H5ZM14.5 21.75C14.6381 21.75 14.75 21.6381 14.75 21.5V18C14.75 17.8619 14.6381 17.75 14.5 17.75H13C12.8619 17.75 12.75 17.8619 12.75 18V21.5C12.75 21.6381 12.8619 21.75 13 21.75H14.5ZM8.5 12.25C8.91421 12.25 9.25 12.5858 9.25 13V14C9.25 14.4142 8.91421 14.75 8.5 14.75C8.08579 14.75 7.75 14.4142 7.75 14V13C7.75 12.5858 8.08579 12.25 8.5 12.25ZM9.25 17C9.25 16.5858 8.91421 16.25 8.5 16.25C8.08579 16.25 7.75 16.5858 7.75 17V18C7.75 18.4142 8.08579 18.75 8.5 18.75C8.91421 18.75 9.25 18.4142 9.25 18V17ZM12 12.25C12.4142 12.25 12.75 12.5858 12.75 13V14C12.75 14.4142 12.4142 14.75 12 14.75C11.5858 14.75 11.25 14.4142 11.25 14V13C11.25 12.5858 11.5858 12.25 12 12.25ZM16.25 13C16.25 12.5858 15.9142 12.25 15.5 12.25C15.0858 12.25 14.75 12.5858 14.75 13V14C14.75 14.4142 15.0858 14.75 15.5 14.75C15.9142 14.75 16.25 14.4142 16.25 14V13ZM12 5.25C12.4142 5.25 12.75 5.58579 12.75 6V7C12.75 7.13807 12.8619 7.25 13 7.25H14C14.4142 7.25 14.75 7.58579 14.75 8C14.75 8.41421 14.4142 8.75 14 8.75H13C12.8619 8.75 12.75 8.86193 12.75 9V10C12.75 10.4142 12.4142 10.75 12 10.75C11.5858 10.75 11.25 10.4142 11.25 10V9C11.25 8.86193 11.1381 8.75 11 8.75H10C9.58579 8.75 9.25 8.41421 9.25 8C9.25 7.58579 9.58579 7.25 10 7.25H11C11.1381 7.25 11.25 7.13807 11.25 7V6C11.25 5.58579 11.5858 5.25 12 5.25Z" fill="#23262A"/>
</svg>
