<svg width="24" height="24" viewBox="0 0 24 24" fill="none" xmlns="http://www.w3.org/2000/svg">
<path fill-rule="evenodd" clip-rule="evenodd" d="M4.25 3C4.25 2.58579 4.58579 2.25 5 2.25H19C19.4142 2.25 19.75 2.58579 19.75 3V21C19.75 21.4142 19.4142 21.75 19 21.75H5C4.58579 21.75 4.25 21.4142 4.25 21V3ZM16.25 17C16.25 16.5858 15.9142 16.25 15.5 16.25H12C11.5858 16.25 11.25 16.5858 11.25 17V20.25H5.75V3.75H18.25V20.25H16.25V17ZM12.75 17.75V20.25H14.75V17.75H12.75ZM12.75 6C12.75 5.58579 12.4142 5.25 12 5.25C11.5858 5.25 11.25 5.58579 11.25 6V7.25H10C9.58579 7.25 9.25 7.58579 9.25 8C9.25 8.41421 9.58579 8.75 10 8.75H11.25V10C11.25 10.4142 11.5858 10.75 12 10.75C12.4142 10.75 12.75 10.4142 12.75 10V8.75H14C14.4142 8.75 14.75 8.41421 14.75 8C14.75 7.58579 14.4142 7.25 14 7.25H12.75V6ZM9.25 13C9.25 12.5858 8.91421 12.25 8.5 12.25C8.08579 12.25 7.75 12.5858 7.75 13V14C7.75 14.4142 8.08579 14.75 8.5 14.75C8.91421 14.75 9.25 14.4142 9.25 14V13ZM9.25 17C9.25 16.5858 8.91421 16.25 8.5 16.25C8.08579 16.25 7.75 16.5858 7.75 17V18C7.75 18.4142 8.08579 18.75 8.5 18.75C8.91421 18.75 9.25 18.4142 9.25 18V17ZM12 12.25C12.4142 12.25 12.75 12.5858 12.75 13V14C12.75 14.4142 12.4142 14.75 12 14.75C11.5858 14.75 11.25 14.4142 11.25 14V13C11.25 12.5858 11.5858 12.25 12 12.25ZM16.25 13C16.25 12.5858 15.9142 12.25 15.5 12.25C15.0858 12.25 14.75 12.5858 14.75 13V14C14.75 14.4142 15.0858 14.75 15.5 14.75C15.9142 14.75 16.25 14.4142 16.25 14V13Z" fill="#23262A"/>
</svg>
