<svg width="24" height="24" viewBox="0 0 24 24" fill="none" xmlns="http://www.w3.org/2000/svg">
<path fill-rule="evenodd" clip-rule="evenodd" d="M5.25 4C5.25 3.58579 5.58579 3.25 6 3.25H18C18.4142 3.25 18.75 3.58579 18.75 4C18.75 4.41421 18.4142 4.75 18 4.75H17.7016C17.5931 6.7158 17.0595 8.59565 16.1557 10.0523C15.6533 10.862 15.0395 11.5308 14.3464 12C15.0395 12.4692 15.6533 13.138 16.1557 13.9477C17.0595 15.4044 17.5931 17.2842 17.7016 19.25H18C18.4142 19.25 18.75 19.5858 18.75 20C18.75 20.4142 18.4142 20.75 18 20.75H6C5.58579 20.75 5.25 20.4142 5.25 20C5.25 19.5858 5.58579 19.25 6 19.25H6.31509C6.4236 17.2842 6.95721 15.4044 7.86104 13.9477C8.36344 13.138 8.97716 12.4692 9.67032 12C8.97716 11.5308 8.36344 10.862 7.86104 10.0523C6.95721 8.59565 6.4236 6.7158 6.31509 4.75H6C5.58579 4.75 5.25 4.41421 5.25 4ZM14.8811 9.26142C14.0347 10.6255 12.9797 11.25 12.0084 11.25C11.037 11.25 9.98204 10.6255 9.13562 9.26142C8.39783 8.07239 7.92469 6.47647 7.81762 4.75L16.1991 4.75C16.092 6.47648 15.6189 8.07239 14.8811 9.26142ZM9.13562 14.7386C9.98204 13.3745 11.037 12.75 12.0084 12.75C12.9797 12.75 14.0347 13.3745 14.8811 14.7386C15.6189 15.9276 16.092 17.5235 16.1991 19.25L7.81762 19.25C7.92469 17.5235 8.39783 15.9276 9.13562 14.7386ZM9.77313 15.134C9.22138 16.0232 8.82082 17.1942 8.64453 18.5L15.3726 18.5C15.1963 17.1942 14.7958 16.0232 14.244 15.134C13.4821 13.9061 12.6347 13.5 12.0086 13.5C11.3825 13.5 10.5351 13.9061 9.77313 15.134Z" fill="#23262A"/>
</svg>
