<svg width="24" height="24" viewBox="0 0 24 24" fill="none" xmlns="http://www.w3.org/2000/svg">
<path fill-rule="evenodd" clip-rule="evenodd" d="M6 3.25C5.58579 3.25 5.25 3.58579 5.25 4C5.25 4.41421 5.58579 4.75 6 4.75H6.31509C6.4236 6.7158 6.95721 8.59565 7.86104 10.0523C8.36344 10.862 8.97716 11.5308 9.67032 12C8.97716 12.4692 8.36344 13.138 7.86104 13.9477C6.95721 15.4044 6.4236 17.2842 6.31509 19.25H6C5.58579 19.25 5.25 19.5858 5.25 20C5.25 20.4142 5.58579 20.75 6 20.75H18C18.4142 20.75 18.75 20.4142 18.75 20C18.75 19.5858 18.4142 19.25 18 19.25H17.7016C17.5931 17.2842 17.0595 15.4044 16.1557 13.9477C15.6533 13.138 15.0395 12.4692 14.3464 12C15.0395 11.5308 15.6533 10.862 16.1557 10.0523C17.0595 8.59565 17.5931 6.7158 17.7016 4.75H18C18.4142 4.75 18.75 4.41421 18.75 4C18.75 3.58579 18.4142 3.25 18 3.25H6ZM12.0084 11.25C12.9797 11.25 14.0347 10.6255 14.8811 9.26142C15.6189 8.07239 16.092 6.47648 16.1991 4.75L7.81762 4.75C7.92469 6.47647 8.39783 8.07239 9.13562 9.26142C9.98204 10.6255 11.037 11.25 12.0084 11.25ZM12.0084 12.75C11.037 12.75 9.98204 13.3745 9.13562 14.7386C8.39783 15.9276 7.92469 17.5235 7.81762 19.25L16.1991 19.25C16.092 17.5235 15.6189 15.9276 14.8811 14.7386C14.0347 13.3745 12.9797 12.75 12.0084 12.75Z" fill="#23262A"/>
</svg>
