<svg width="24" height="24" viewBox="0 0 24 24" fill="none" xmlns="http://www.w3.org/2000/svg">
<path fill-rule="evenodd" clip-rule="evenodd" d="M12.5303 2.46967C12.2374 2.17678 11.7626 2.17678 11.4697 2.46967L4.46967 9.46967C4.32902 9.61032 4.25 9.80109 4.25 10V21C4.25 21.4142 4.58579 21.75 5 21.75H19C19.4142 21.75 19.75 21.4142 19.75 21V10C19.75 9.80109 19.671 9.61032 19.5303 9.46967L12.5303 2.46967ZM5.75 20.25V10.3107L12 4.06066L18.25 10.3107V20.25H5.75ZM10.0305 13.0302C10.2899 12.7708 10.7104 12.7708 10.9698 13.0302L11.4698 13.5302C11.7627 13.8231 12.2376 13.8231 12.5305 13.5302L13.0305 13.0302C13.2899 12.7708 13.7104 12.7708 13.9698 13.0302C14.2292 13.2896 14.2292 13.7102 13.9698 13.9696L12.0002 15.9392L10.0305 13.9696C9.77109 13.7102 9.77109 13.2896 10.0305 13.0302ZM12.0002 11.9398C11.1528 11.1245 9.80496 11.1344 8.96982 11.9696C8.12464 12.8148 8.12464 14.1851 8.96982 15.0302L11.4698 17.5302C11.6105 17.6709 11.8012 17.7499 12.0002 17.7499C12.1991 17.7499 12.3898 17.6709 12.5305 17.5302L15.0305 15.0302C15.8757 14.1851 15.8757 12.8148 15.0305 11.9696C14.1953 11.1344 12.8475 11.1245 12.0002 11.9398Z" fill="#23262A"/>
</svg>
