<svg width="24" height="24" viewBox="0 0 24 24" fill="none" xmlns="http://www.w3.org/2000/svg">
<path fill-rule="evenodd" clip-rule="evenodd" d="M11.4697 2.46967C11.7626 2.17678 12.2374 2.17678 12.5303 2.46967L19.5303 9.46967C19.671 9.61032 19.75 9.80109 19.75 10V21C19.75 21.4142 19.4142 21.75 19 21.75H14C13.5858 21.75 13.25 21.4142 13.25 21V16.75H10.75V21C10.75 21.4142 10.4142 21.75 10 21.75H5C4.58579 21.75 4.25 21.4142 4.25 21V10C4.25 9.80109 4.32902 9.61032 4.46967 9.46967L11.4697 2.46967ZM5.75 10.3107V20.25H9.25V16C9.25 15.5858 9.58579 15.25 10 15.25H14C14.4142 15.25 14.75 15.5858 14.75 16V20.25H18.25V10.3107L12 4.06066L5.75 10.3107Z" fill="#23262A"/>
</svg>
