<svg width="24" height="24" viewBox="0 0 24 24" fill="none" xmlns="http://www.w3.org/2000/svg">
<path fill-rule="evenodd" clip-rule="evenodd" d="M2.25 6C2.25 5.0335 3.0335 4.25 4 4.25H20C20.9665 4.25 21.75 5.0335 21.75 6V18C21.75 18.9665 20.9665 19.75 20 19.75H19.3287H18.0998H9.90011H8.63194H4C3.0335 19.75 2.25 18.9665 2.25 18V6ZM8 8.75C7.30964 8.75 6.75 9.30964 6.75 10C6.75 10.6904 7.30964 11.25 8 11.25C8.69036 11.25 9.25 10.6904 9.25 10C9.25 9.30964 8.69036 8.75 8 8.75ZM5.25 10C5.25 8.48122 6.48122 7.25 8 7.25C9.51878 7.25 10.75 8.48122 10.75 10C10.75 11.5188 9.51878 12.75 8 12.75C6.48122 12.75 5.25 11.5188 5.25 10ZM18.1422 17.8613C18.253 18.0275 18.1339 18.25 17.9342 18.25H16.7324C16.6488 18.25 16.5707 18.2082 16.5243 18.1387L14.208 14.6641C14.109 14.5157 13.8909 14.5157 13.7919 14.6641L11.4756 18.1387C11.4292 18.2082 11.3511 18.25 11.2675 18.25H10.0657C9.86602 18.25 9.74692 18.0275 9.85768 17.8613L13.3759 12.584C13.515 12.3753 13.7492 12.25 13.9999 12.25C14.2507 12.25 14.4849 12.3753 14.624 12.584L18.1422 17.8613Z" fill="#23262A"/>
</svg>
