<svg width="24" height="24" viewBox="0 0 24 24" fill="none" xmlns="http://www.w3.org/2000/svg">
<path fill-rule="evenodd" clip-rule="evenodd" d="M4 5.75C3.86193 5.75 3.75 5.86193 3.75 6V18C3.75 18.1381 3.86193 18.25 4 18.25H9.59861L13.376 12.584C13.5151 12.3753 13.7492 12.25 14 12.25C14.2508 12.25 14.4849 12.3753 14.624 12.584L18.4014 18.25H20C20.1381 18.25 20.25 18.1381 20.25 18V6C20.25 5.86193 20.1381 5.75 20 5.75H4ZM16.5986 18.25L14 14.3521L11.4014 18.25H16.5986ZM2.25 6C2.25 5.0335 3.0335 4.25 4 4.25H20C20.9665 4.25 21.75 5.0335 21.75 6V18C21.75 18.9665 20.9665 19.75 20 19.75H4C3.0335 19.75 2.25 18.9665 2.25 18V6ZM8 8.75C7.30964 8.75 6.75 9.30964 6.75 10C6.75 10.6904 7.30964 11.25 8 11.25C8.69036 11.25 9.25 10.6904 9.25 10C9.25 9.30964 8.69036 8.75 8 8.75ZM5.25 10C5.25 8.48122 6.48122 7.25 8 7.25C9.51878 7.25 10.75 8.48122 10.75 10C10.75 11.5188 9.51878 12.75 8 12.75C6.48122 12.75 5.25 11.5188 5.25 10Z" fill="#23262A"/>
</svg>
