<svg width="24" height="24" viewBox="0 0 24 24" fill="none" xmlns="http://www.w3.org/2000/svg">
<path fill-rule="evenodd" clip-rule="evenodd" d="M5.99999 4.25C5.69331 4.25 5.41753 4.43671 5.30363 4.72146L2.30973 12.2062C2.28996 12.2526 2.27473 12.3014 2.2646 12.352C2.25342 12.4072 2.24869 12.4627 2.25 12.5176V19C2.25 19.4142 2.58579 19.75 3 19.75H21C21.4142 19.75 21.75 19.4142 21.75 19V12.5164C21.7511 12.4659 21.7471 12.4148 21.7377 12.3639C21.7275 12.3086 21.7114 12.2555 21.6898 12.2052L18.6963 4.72146C18.5824 4.43671 18.3067 4.25 18 4.25H5.99999ZM19.8922 11.75L17.4922 5.75H6.50776L4.10776 11.75H6.88197C7.54482 11.75 8.15078 12.1245 8.44721 12.7174L9.39443 14.6118C9.43678 14.6965 9.52334 14.75 9.61803 14.75H14.382C14.4767 14.75 14.5632 14.6965 14.6056 14.6118L15.5528 12.7174C15.8492 12.1245 16.4552 11.75 17.118 11.75H19.8922Z" fill="#23262A"/>
</svg>
