<svg width="24" height="24" viewBox="0 0 24 24" fill="none" xmlns="http://www.w3.org/2000/svg">
<path fill-rule="evenodd" clip-rule="evenodd" d="M12 3.25C12.4142 3.25 12.75 3.58579 12.75 4V9.68934L14.9697 7.46967C15.2626 7.17678 15.7374 7.17678 16.0303 7.46967C16.3232 7.76256 16.3232 8.23744 16.0303 8.53033L12.5303 12.0303C12.2374 12.3232 11.7626 12.3232 11.4697 12.0303L7.96967 8.53033C7.67678 8.23744 7.67678 7.76256 7.96967 7.46967C8.26256 7.17678 8.73744 7.17678 9.03033 7.46967L11.25 9.68934V4C11.25 3.58579 11.5858 3.25 12 3.25ZM5.30363 4.72146C5.41753 4.43671 5.69331 4.25 5.99999 4.25H8.99999C9.4142 4.25 9.74999 4.58579 9.74999 5C9.74999 5.41421 9.4142 5.75 8.99999 5.75H6.50776L4.10776 11.75H6.88197C7.54482 11.75 8.15078 12.1245 8.44721 12.7174L9.39443 14.6118C9.43678 14.6965 9.52334 14.75 9.61803 14.75H14.382C14.4767 14.75 14.5632 14.6965 14.6056 14.6118L15.5528 12.7174C15.8492 12.1245 16.4552 11.75 17.118 11.75H19.8922L17.4922 5.75H15C14.5858 5.75 14.25 5.41421 14.25 5C14.25 4.58579 14.5858 4.25 15 4.25H18C18.3067 4.25 18.5825 4.43671 18.6964 4.72146L21.69 12.2057C21.7104 12.2534 21.726 12.3037 21.7362 12.3558C21.7467 12.4096 21.7512 12.4636 21.75 12.517V19C21.75 19.4142 21.4142 19.75 21 19.75H3C2.58579 19.75 2.25 19.4142 2.25 19V12.5176C2.24869 12.4627 2.25342 12.4072 2.2646 12.352C2.27473 12.3014 2.28996 12.2526 2.30973 12.2062L5.30363 4.72146Z" fill="#23262A"/>
</svg>
