<svg width="24" height="24" viewBox="0 0 24 24" fill="none" xmlns="http://www.w3.org/2000/svg">
<path fill-rule="evenodd" clip-rule="evenodd" d="M12.5303 3.46967C12.2374 3.17678 11.7626 3.17678 11.4697 3.46967L7.96967 6.96967C7.67678 7.26256 7.67678 7.73744 7.96967 8.03033C8.26256 8.32322 8.73744 8.32322 9.03033 8.03033L11.25 5.81066V11.5C11.25 11.9142 11.5858 12.25 12 12.25C12.4142 12.25 12.75 11.9142 12.75 11.5V5.81066L14.9697 8.03033C15.2626 8.32322 15.7374 8.32322 16.0303 8.03033C16.3232 7.73744 16.3232 7.26256 16.0303 6.96967L12.5303 3.46967ZM6.00002 4.25C5.69334 4.25 5.41756 4.43671 5.30366 4.72146L2.31021 12.2051C2.28848 12.2558 2.27218 12.3095 2.26206 12.3653C2.25281 12.4157 2.24889 12.4663 2.25 12.5163V19C2.25 19.4142 2.58579 19.75 3 19.75H21C21.4142 19.75 21.75 19.4142 21.75 19V12.517C21.7512 12.4636 21.7467 12.4096 21.7362 12.3558C21.726 12.3037 21.7104 12.2534 21.69 12.2057L18.6964 4.72146C18.5825 4.43671 18.3067 4.25 18 4.25H17C16.5858 4.25 16.25 4.58579 16.25 5C16.25 5.41421 16.5858 5.75 17 5.75H17.4922L19.8922 11.75H17.118C16.4552 11.75 15.8492 12.1245 15.5528 12.7174L14.6056 14.6118C14.5632 14.6965 14.4767 14.75 14.382 14.75H9.61803C9.52334 14.75 9.43678 14.6965 9.39443 14.6118L8.44721 12.7174C8.15078 12.1245 7.54482 11.75 6.88197 11.75H4.10779L6.50779 5.75H7.00002C7.41423 5.75 7.75002 5.41421 7.75002 5C7.75002 4.58579 7.41423 4.25 7.00002 4.25H6.00002Z" fill="#262626"/>
</svg>
