<svg width="24" height="24" viewBox="0 0 24 24" fill="none" xmlns="http://www.w3.org/2000/svg">
<path fill-rule="evenodd" clip-rule="evenodd" d="M11.4697 3.46967C11.7626 3.17678 12.2374 3.17678 12.5303 3.46967L16.0303 6.96967C16.3232 7.26256 16.3232 7.73744 16.0303 8.03033C15.7374 8.32322 15.2626 8.32322 14.9697 8.03033L12.75 5.81066V11.5C12.75 11.9142 12.4142 12.25 12 12.25C11.5858 12.25 11.25 11.9142 11.25 11.5V5.81066L9.03033 8.03033C8.73744 8.32322 8.26256 8.32322 7.96967 8.03033C7.67678 7.73744 7.67678 7.26256 7.96967 6.96967L11.4697 3.46967ZM5.30366 4.72146C5.41756 4.43671 5.69334 4.25 6.00002 4.25H7.00002C7.41423 4.25 7.75002 4.58579 7.75002 5C7.75002 5.41421 7.41423 5.75 7.00002 5.75H6.50779L4.10779 11.75H6.88197C7.54482 11.75 8.15078 12.1245 8.44721 12.7174L9.39443 14.6118C9.43678 14.6965 9.52334 14.75 9.61803 14.75H14.382C14.4767 14.75 14.5632 14.6965 14.6056 14.6118L15.5528 12.7174C15.8492 12.1245 16.4552 11.75 17.118 11.75H19.8922L17.4922 5.75H17C16.5858 5.75 16.25 5.41421 16.25 5C16.25 4.58579 16.5858 4.25 17 4.25H18C18.3067 4.25 18.5825 4.43671 18.6964 4.72146L21.69 12.2057C21.7104 12.2534 21.726 12.3037 21.7362 12.3558C21.7467 12.4096 21.7512 12.4636 21.75 12.517V19C21.75 19.4142 21.4142 19.75 21 19.75H3C2.58579 19.75 2.25 19.4142 2.25 19V12.5163C2.24889 12.4663 2.25281 12.4157 2.26206 12.3653C2.27218 12.3095 2.28848 12.2558 2.31021 12.2051L5.30366 4.72146Z" fill="#23262A"/>
</svg>
