<svg width="24" height="24" viewBox="0 0 24 24" fill="none" xmlns="http://www.w3.org/2000/svg">
<path fill-rule="evenodd" clip-rule="evenodd" d="M12.5303 3.46967C12.2374 3.17678 11.7625 3.17678 11.4697 3.46967L7.96966 6.96967C7.67676 7.26256 7.67676 7.73744 7.96966 8.03033C8.26255 8.32322 8.73742 8.32322 9.03032 8.03033L11.25 5.81066V11.5C11.25 11.9142 11.5858 12.25 12 12.25C12.4142 12.25 12.75 11.9142 12.75 11.5V5.81066L14.9697 8.03033C15.2625 8.32322 15.7374 8.32322 16.0303 8.03033C16.3232 7.73744 16.3232 7.26256 16.0303 6.96967L12.5303 3.46967ZM5.99999 4.25C5.69331 4.25 5.41753 4.43671 5.30363 4.72146L2.31015 12.2052C2.28856 12.2556 2.27234 12.3089 2.26222 12.3643C2.25283 12.415 2.24885 12.466 2.24997 12.5164V19C2.24997 19.4142 2.58576 19.75 2.99997 19.75H21C21.4142 19.75 21.75 19.4142 21.75 19V12.5169C21.7512 12.4645 21.7469 12.4116 21.7367 12.3588C21.7266 12.3055 21.7108 12.2542 21.69 12.2056L18.6963 4.72146C18.5824 4.43671 18.3067 4.25 18 4.25H17C16.5858 4.25 16.25 4.58579 16.25 5C16.25 5.41421 16.5858 5.75 17 5.75H17.4922L19.8922 11.75H17.118C16.4552 11.75 15.8492 12.1245 15.5528 12.7174L14.6055 14.6118C14.5632 14.6965 14.4766 14.75 14.3819 14.75H9.61801C9.52331 14.75 9.43675 14.6965 9.3944 14.6118L8.44719 12.7174C8.15075 12.1245 7.54479 11.75 6.88194 11.75H4.10776L6.50776 5.75H6.99999C7.4142 5.75 7.74999 5.41421 7.74999 5C7.74999 4.58579 7.4142 4.25 6.99999 4.25H5.99999ZM3.74997 13.25V18.25H20.25V13.25H17.118C17.0233 13.25 16.9367 13.3035 16.8944 13.3882L15.9472 15.2826C15.6507 15.8755 15.0448 16.25 14.3819 16.25H9.61801C8.95515 16.25 8.34919 15.8755 8.05276 15.2826L7.10554 13.3882C7.0632 13.3035 6.97663 13.25 6.88194 13.25H3.74997Z" fill="#262626"/>
</svg>
