<svg width="24" height="24" viewBox="0 0 24 24" fill="none" xmlns="http://www.w3.org/2000/svg">
<path fill-rule="evenodd" clip-rule="evenodd" d="M12 3.25C12.4142 3.25 12.75 3.58579 12.75 4V9.68934L14.9697 7.46967C15.2626 7.17678 15.7374 7.17678 16.0303 7.46967C16.3232 7.76256 16.3232 8.23744 16.0303 8.53033L12.5303 12.0303C12.2374 12.3232 11.7626 12.3232 11.4697 12.0303L7.96967 8.53033C7.67678 8.23744 7.67678 7.76256 7.96967 7.46967C8.26256 7.17678 8.73744 7.17678 9.03033 7.46967L11.25 9.68934V4C11.25 3.58579 11.5858 3.25 12 3.25ZM5.99999 4.25C5.69331 4.25 5.41753 4.43671 5.30363 4.72146L2.30973 12.2062C2.28996 12.2526 2.27474 12.3014 2.2646 12.352C2.25342 12.4072 2.24869 12.4627 2.25 12.5176V19C2.25 19.4142 2.58579 19.75 3 19.75H21C21.4142 19.75 21.75 19.4142 21.75 19V12.517C21.7512 12.4636 21.7467 12.4096 21.7362 12.3558C21.726 12.3037 21.7104 12.2534 21.69 12.2057L18.6964 4.72146C18.5825 4.43671 18.3067 4.25 18 4.25H15C14.5858 4.25 14.25 4.58579 14.25 5C14.25 5.41421 14.5858 5.75 15 5.75H17.4922L19.8922 11.75H17.118C16.4552 11.75 15.8492 12.1245 15.5528 12.7174L14.6056 14.6118C14.5632 14.6965 14.4767 14.75 14.382 14.75H9.61803C9.52334 14.75 9.43678 14.6965 9.39443 14.6118L8.44721 12.7174C8.15078 12.1245 7.54482 11.75 6.88197 11.75H4.10776L6.50776 5.75H8.99999C9.4142 5.75 9.74999 5.41421 9.74999 5C9.74999 4.58579 9.4142 4.25 8.99999 4.25H5.99999Z" fill="#23262A"/>
</svg>
