<svg width="24" height="24" viewBox="0 0 24 24" fill="none" xmlns="http://www.w3.org/2000/svg">
<path fill-rule="evenodd" clip-rule="evenodd" d="M12 3.25C12.4142 3.25 12.75 3.58579 12.75 4V9.68934L14.9697 7.46967C15.2626 7.17678 15.7374 7.17678 16.0303 7.46967C16.3232 7.76256 16.3232 8.23744 16.0303 8.53033L12.5303 12.0303C12.2374 12.3232 11.7626 12.3232 11.4697 12.0303L7.96967 8.53033C7.67678 8.23744 7.67678 7.76256 7.96967 7.46967C8.26256 7.17678 8.73744 7.17678 9.03033 7.46967L11.25 9.68934V4C11.25 3.58579 11.5858 3.25 12 3.25ZM5.30363 4.72146C5.41753 4.43671 5.69331 4.25 5.99999 4.25H8.99999C9.4142 4.25 9.74999 4.58579 9.74999 5C9.74999 5.41421 9.4142 5.75 8.99999 5.75H6.50776L4.10776 11.75H6.88195C7.5448 11.75 8.15076 12.1245 8.4472 12.7174L9.39441 14.6118C9.43676 14.6965 9.52333 14.75 9.61802 14.75H14.382C14.4766 14.75 14.5632 14.6965 14.6056 14.6118L15.5528 12.7174C15.8492 12.1245 16.4552 11.75 17.118 11.75H19.8922L17.4922 5.75H15C14.5858 5.75 14.25 5.41421 14.25 5C14.25 4.58579 14.5858 4.25 15 4.25H18C18.3067 4.25 18.5824 4.43671 18.6963 4.72146L21.69 12.2057C21.7107 12.2541 21.7264 12.3051 21.7366 12.358C21.7469 12.4111 21.7512 12.4643 21.75 12.517V19C21.75 19.4142 21.4142 19.75 21 19.75H2.99999C2.58577 19.75 2.24999 19.4142 2.24999 19V12.517C2.24877 12.4644 2.25312 12.4111 2.26339 12.3581C2.27354 12.3051 2.28927 12.2541 2.30994 12.2057L5.30363 4.72146ZM6.88195 13.25C6.97665 13.25 7.06321 13.3035 7.10556 13.3882L8.05277 15.2826C8.34921 15.8755 8.95517 16.25 9.61802 16.25H14.382C15.0448 16.25 15.6508 15.8755 15.9472 15.2826L16.8944 13.3882C16.9368 13.3035 17.0233 13.25 17.118 13.25H20.25V18.25H3.74999V13.25H6.88195Z" fill="#23262A"/>
</svg>
