<svg width="24" height="24" viewBox="0 0 24 24" fill="none" xmlns="http://www.w3.org/2000/svg">
<path fill-rule="evenodd" clip-rule="evenodd" d="M5.99999 4.25C5.69331 4.25 5.41753 4.43671 5.30363 4.72146L2.30994 12.2057C2.28927 12.2541 2.27354 12.3051 2.26339 12.3581C2.25312 12.4111 2.24877 12.4644 2.24999 12.517V19C2.24999 19.4142 2.58577 19.75 2.99999 19.75H21C21.4142 19.75 21.75 19.4142 21.75 19V12.517C21.7512 12.4643 21.7469 12.4111 21.7366 12.358C21.7264 12.3051 21.7107 12.2541 21.69 12.2057L18.6963 4.72146C18.5824 4.43671 18.3067 4.25 18 4.25H5.99999ZM19.8922 11.75L17.4922 5.75H6.50776L4.10776 11.75H6.88195C7.5448 11.75 8.15076 12.1245 8.4472 12.7174L9.39441 14.6118C9.43676 14.6965 9.52333 14.75 9.61802 14.75H14.382C14.4766 14.75 14.5632 14.6965 14.6056 14.6118L15.5528 12.7174C15.8492 12.1245 16.4552 11.75 17.118 11.75H19.8922ZM16.8944 13.3882C16.9368 13.3035 17.0233 13.25 17.118 13.25H20.25V18.25H3.74999V13.25H6.88195C6.97665 13.25 7.06321 13.3035 7.10556 13.3882L8.05277 15.2826C8.34921 15.8755 8.95517 16.25 9.61802 16.25H14.382C15.0448 16.25 15.6508 15.8755 15.9472 15.2826L16.8944 13.3882Z" fill="#23262A"/>
</svg>
