<svg width="24" height="24" viewBox="0 0 24 24" fill="none" xmlns="http://www.w3.org/2000/svg">
<path fill-rule="evenodd" clip-rule="evenodd" d="M12.5303 3.46967C12.2374 3.17678 11.7626 3.17678 11.4697 3.46967L7.96967 6.96967C7.67678 7.26256 7.67678 7.73744 7.96967 8.03033C8.26256 8.32322 8.73744 8.32322 9.03033 8.03033L11.25 5.81066V11.5C11.25 11.9142 11.5858 12.25 12 12.25C12.4142 12.25 12.75 11.9142 12.75 11.5V5.81066L14.9697 8.03033C15.2626 8.32322 15.7374 8.32322 16.0303 8.03033C16.3232 7.73744 16.3232 7.26256 16.0303 6.96967L12.5303 3.46967ZM6 4.25C5.69332 4.25 5.41754 4.43671 5.30364 4.72146L2.31016 12.2052C2.28858 12.2556 2.27236 12.3089 2.26223 12.3643C2.25284 12.415 2.24886 12.466 2.24999 12.5164V19C2.24999 19.4142 2.58577 19.75 2.99999 19.75H21C21.4142 19.75 21.75 19.4142 21.75 19V12.5169C21.7512 12.4645 21.7469 12.4116 21.7367 12.3588C21.7266 12.3055 21.7108 12.2542 21.69 12.2056L18.6963 4.72146C18.5824 4.43671 18.3067 4.25 18 4.25H17C16.5858 4.25 16.25 4.58579 16.25 5C16.25 5.41421 16.5858 5.75 17 5.75H17.4922L19.8922 11.75H17.118C16.4552 11.75 15.8492 12.1245 15.5528 12.7174L14.6056 14.6118C14.5632 14.6965 14.4766 14.75 14.382 14.75H9.61802C9.52333 14.75 9.43676 14.6965 9.39441 14.6118L8.4472 12.7174C8.15076 12.1245 7.5448 11.75 6.88195 11.75H4.10777L6.50777 5.75H7C7.41421 5.75 7.75 5.41421 7.75 5C7.75 4.58579 7.41421 4.25 7 4.25H6ZM3.74999 13.25V18.25H20.25V13.25H17.118C17.0233 13.25 16.9368 13.3035 16.8944 13.3882L15.9472 15.2826C15.6508 15.8755 15.0448 16.25 14.382 16.25H9.61802C8.95517 16.25 8.34921 15.8755 8.05277 15.2826L7.10556 13.3882C7.06321 13.3035 6.97664 13.25 6.88195 13.25H3.74999Z" fill="#23262A"/>
</svg>
