<svg width="24" height="24" viewBox="0 0 24 24" fill="none" xmlns="http://www.w3.org/2000/svg">
<path fill-rule="evenodd" clip-rule="evenodd" d="M11.4696 3.46967C11.7625 3.17678 12.2374 3.17678 12.5303 3.46967L16.0303 6.96967C16.3232 7.26256 16.3232 7.73744 16.0303 8.03033C15.7374 8.32322 15.2625 8.32322 14.9696 8.03033L12.75 5.81066V11.5C12.75 11.9142 12.4142 12.25 12 12.25C11.5858 12.25 11.25 11.9142 11.25 11.5V5.81066L9.0303 8.03033C8.73741 8.32322 8.26253 8.32322 7.96964 8.03033C7.67675 7.73744 7.67675 7.26256 7.96964 6.96967L11.4696 3.46967ZM5.3036 4.72146C5.4175 4.43671 5.69328 4.25 5.99996 4.25H6.99996C7.41417 4.25 7.74996 4.58579 7.74996 5C7.74996 5.41421 7.41417 5.75 6.99996 5.75H6.50773L4.10773 11.75H6.88192C7.54477 11.75 8.15073 12.1245 8.44717 12.7174L9.39438 14.6118C9.43673 14.6965 9.5233 14.75 9.61799 14.75H14.3819C14.4766 14.75 14.5632 14.6965 14.6055 14.6118L15.5527 12.7174C15.8492 12.1245 16.4551 11.75 17.118 11.75H19.8922L17.4922 5.75H17C16.5857 5.75 16.25 5.41421 16.25 5C16.25 4.58579 16.5857 4.25 17 4.25H18C18.3066 4.25 18.5824 4.43671 18.6963 4.72146L21.69 12.2057C21.7107 12.2541 21.7264 12.3051 21.7365 12.358C21.7468 12.4111 21.7512 12.4643 21.75 12.517V19C21.75 19.4142 21.4142 19.75 21 19.75H2.99996C2.58574 19.75 2.24996 19.4142 2.24996 19V12.517C2.24874 12.4644 2.25309 12.4111 2.26336 12.3581C2.27351 12.3051 2.28924 12.2541 2.30991 12.2057L5.3036 4.72146ZM6.88192 13.25C6.97661 13.25 7.06318 13.3035 7.10553 13.3882L8.05274 15.2826C8.34918 15.8755 8.95514 16.25 9.61799 16.25H14.3819C15.0448 16.25 15.6507 15.8755 15.9472 15.2826L16.8944 13.3882C16.9367 13.3035 17.0233 13.25 17.118 13.25H20.25V18.25H3.74996V13.25H6.88192Z" fill="#202733"/>
</svg>
