<svg width="24" height="24" viewBox="0 0 24 24" fill="none" xmlns="http://www.w3.org/2000/svg">
<path fill-rule="evenodd" clip-rule="evenodd" d="M12 3.25C12.4142 3.25 12.75 3.58579 12.75 4V9.68934L14.9697 7.46967C15.2626 7.17678 15.7374 7.17678 16.0303 7.46967C16.3232 7.76256 16.3232 8.23744 16.0303 8.53033L12.5303 12.0303C12.2374 12.3232 11.7626 12.3232 11.4697 12.0303L7.96967 8.53033C7.67678 8.23744 7.67678 7.76256 7.96967 7.46967C8.26256 7.17678 8.73744 7.17678 9.03033 7.46967L11.25 9.68934V4C11.25 3.58579 11.5858 3.25 12 3.25ZM6 4.25C5.69332 4.25 5.41754 4.43671 5.30364 4.72146L2.31016 12.2052C2.28858 12.2556 2.27236 12.3089 2.26223 12.3643C2.25284 12.415 2.24886 12.466 2.24999 12.5164V19C2.24999 19.4142 2.58577 19.75 2.99999 19.75H21C21.4142 19.75 21.75 19.4142 21.75 19V12.5169C21.7512 12.4645 21.7469 12.4116 21.7367 12.3588C21.7266 12.3055 21.7108 12.2542 21.69 12.2056L18.6963 4.72146C18.5824 4.43671 18.3067 4.25 18 4.25H15C14.5858 4.25 14.25 4.58579 14.25 5C14.25 5.41421 14.5858 5.75 15 5.75H17.4922L19.8922 11.75H17.118C16.4552 11.75 15.8492 12.1245 15.5528 12.7174L14.6056 14.6118C14.5632 14.6965 14.4766 14.75 14.382 14.75H9.61802C9.52333 14.75 9.43676 14.6965 9.39441 14.6118L8.4472 12.7174C8.15076 12.1245 7.5448 11.75 6.88195 11.75H4.10777L6.50777 5.75H9C9.41421 5.75 9.75 5.41421 9.75 5C9.75 4.58579 9.41421 4.25 9 4.25H6ZM3.74999 13.25V18.25H20.25V13.25H17.118C17.0233 13.25 16.9368 13.3035 16.8944 13.3882L15.9472 15.2826C15.6508 15.8755 15.0448 16.25 14.382 16.25H9.61802C8.95517 16.25 8.34921 15.8755 8.05277 15.2826L7.10556 13.3882C7.06321 13.3035 6.97664 13.25 6.88195 13.25H3.74999Z" fill="#23262A"/>
</svg>
