<svg width="24" height="24" viewBox="0 0 24 24" fill="none" xmlns="http://www.w3.org/2000/svg">
<path fill-rule="evenodd" clip-rule="evenodd" d="M4 2.75C3.58579 2.75 3.25 3.08579 3.25 3.5V19.5C3.25 19.9142 3.58579 20.25 4 20.25H20C20.4142 20.25 20.75 19.9142 20.75 19.5V3.5C20.75 3.08579 20.4142 2.75 20 2.75H4ZM4.75 18.75V4.25H19.25V18.75H4.75ZM12 6.5C11.4477 6.5 11 6.94772 11 7.5C11 8.05228 11.4477 8.5 12 8.5C12.5523 8.5 13 8.05228 13 7.5C13 6.94772 12.5523 6.5 12 6.5ZM10.5 9.75C10.0858 9.75 9.75 10.0858 9.75 10.5C9.75 10.9142 10.0858 11.25 10.5 11.25H11.25V15.25H10.5C10.0858 15.25 9.75 15.5858 9.75 16C9.75 16.4142 10.0858 16.75 10.5 16.75H12H13.5C13.9142 16.75 14.25 16.4142 14.25 16C14.25 15.5858 13.9142 15.25 13.5 15.25H12.75V10.5C12.75 10.0858 12.4142 9.75 12 9.75H10.5Z" fill="#262626"/>
</svg>
