<svg width="24" height="24" viewBox="0 0 24 24" fill="none" xmlns="http://www.w3.org/2000/svg">
<path fill-rule="evenodd" clip-rule="evenodd" d="M3.25 3.5C3.25 3.08579 3.58579 2.75 4 2.75H20C20.4142 2.75 20.75 3.08579 20.75 3.5V19.5C20.75 19.9142 20.4142 20.25 20 20.25H4C3.58579 20.25 3.25 19.9142 3.25 19.5V3.5ZM11 7.5C11 6.94772 11.4477 6.5 12 6.5C12.5523 6.5 13 6.94772 13 7.5C13 8.05228 12.5523 8.5 12 8.5C11.4477 8.5 11 8.05228 11 7.5ZM9.75 10.5C9.75 10.0858 10.0858 9.75 10.5 9.75H12C12.4142 9.75 12.75 10.0858 12.75 10.5V15.25H13.5C13.9142 15.25 14.25 15.5858 14.25 16C14.25 16.4142 13.9142 16.75 13.5 16.75H12H10.5C10.0858 16.75 9.75 16.4142 9.75 16C9.75 15.5858 10.0858 15.25 10.5 15.25H11.25V11.25H10.5C10.0858 11.25 9.75 10.9142 9.75 10.5Z" fill="#262626"/>
</svg>
