<svg width="24" height="24" viewBox="0 0 24 24" fill="none" xmlns="http://www.w3.org/2000/svg">
<path fill-rule="evenodd" clip-rule="evenodd" d="M3.25 4C3.25 3.58579 3.58579 3.25 4 3.25H20C20.4142 3.25 20.75 3.58579 20.75 4V20C20.75 20.4142 20.4142 20.75 20 20.75H4C3.58579 20.75 3.25 20.4142 3.25 20V4ZM11 8C11 7.44772 11.4477 7 12 7C12.5523 7 13 7.44772 13 8C13 8.55228 12.5523 9 12 9C11.4477 9 11 8.55228 11 8ZM9.75 11C9.75 10.5858 10.0858 10.25 10.5 10.25H12C12.4142 10.25 12.75 10.5858 12.75 11V15.75H13.5C13.9142 15.75 14.25 16.0858 14.25 16.5C14.25 16.9142 13.9142 17.25 13.5 17.25H12H10.5C10.0858 17.25 9.75 16.9142 9.75 16.5C9.75 16.0858 10.0858 15.75 10.5 15.75H11.25V11.75H10.5C10.0858 11.75 9.75 11.4142 9.75 11Z" fill="#262626"/>
</svg>
