<svg width="24" height="24" viewBox="0 0 24 24" fill="none" xmlns="http://www.w3.org/2000/svg">
<path fill-rule="evenodd" clip-rule="evenodd" d="M10.9999 4.25C11.228 3.94639 11.591 3.75 12 3.75C12.409 3.75 12.772 3.94639 13.0001 4.25H10.9999ZM9.35352 4.25C9.67998 3.09575 10.7412 2.25 12 2.25C13.2588 2.25 14.32 3.09575 14.6465 4.25H17C17.4142 4.25 17.75 4.58579 17.75 5V19C17.75 19.4142 17.4142 19.75 17 19.75H12.75V21C12.75 21.4142 12.4142 21.75 12 21.75C11.5858 21.75 11.25 21.4142 11.25 21V19.75H7C6.58579 19.75 6.25 19.4142 6.25 19V5C6.25 4.58579 6.58579 4.25 7 4.25H9.35352ZM16.25 18.25H12H7.75V5.75H10H14H16.25V18.25ZM12 8.75L12.6462 8.36935C12.5114 8.14049 12.2656 8 12 8C11.7344 8 11.4886 8.14049 11.3538 8.36935L12 8.75ZM11.669 10.9247C11.7812 10.7034 11.8935 10.4889 12 10.2896C12.1065 10.4889 12.2188 10.7034 12.331 10.9247C12.5761 11.4087 12.8147 11.9137 12.9902 12.3569C13.1792 12.8346 13.25 13.1328 13.25 13.25C13.25 13.9404 12.6904 14.5 12 14.5C11.3096 14.5 10.75 13.9404 10.75 13.25C10.75 13.1328 10.8208 12.8346 11.0098 12.3569C11.1853 11.9137 11.4239 11.4087 11.669 10.9247ZM11.3537 8.36948C11.3537 8.36941 11.3538 8.36935 12 8.75C12.6462 8.36935 12.6463 8.36941 12.6463 8.36948L12.6464 8.36969L12.6468 8.37034L12.6481 8.37255L12.6528 8.38061L12.6705 8.4108C12.6857 8.43701 12.7079 8.47517 12.7359 8.52388C12.792 8.62128 12.8717 8.76103 12.9672 8.93197C13.1579 9.27329 13.4131 9.74161 13.669 10.2468C13.9239 10.7498 14.1853 11.3008 14.3848 11.8048C14.5708 12.2744 14.75 12.8149 14.75 13.25C14.75 14.7688 13.5188 16 12 16C10.4812 16 9.25 14.7688 9.25 13.25C9.25 12.8149 9.42925 12.2744 9.61515 11.8048C9.81469 11.3008 10.0761 10.7498 10.331 10.2468C10.5869 9.74161 10.8421 9.27329 11.0328 8.93197C11.1283 8.76103 11.208 8.62128 11.2641 8.52388C11.2921 8.47517 11.3143 8.43701 11.3295 8.4108L11.3472 8.38061L11.3519 8.37255L11.3532 8.37034L11.3536 8.36969L11.3537 8.36948Z" fill="#23262A"/>
</svg>
