<svg width="24" height="24" viewBox="0 0 24 24" fill="none" xmlns="http://www.w3.org/2000/svg">
<path fill-rule="evenodd" clip-rule="evenodd" d="M16.9858 7.22632C15.1678 7.22632 13.5431 8.21915 12.7307 9.81007H3.86536C3.65447 9.81007 3.45332 9.89886 3.31121 10.0547L2.44585 11.0036C2.31101 11.1514 2.24084 11.347 2.25096 11.5469C2.26108 11.7467 2.35064 11.9342 2.49972 12.0677L5.81907 15.0396C6.12102 15.31 6.58312 15.2915 6.86257 14.998L7.51066 14.3172L9.48204 15.5208C9.7744 15.6993 10.1506 15.657 10.396 15.418L12.1172 13.7426H12.5576C13.4655 15.6285 15.0429 16.7737 16.9858 16.7737C19.6182 16.7737 21.75 14.6482 21.75 12.0032C21.75 9.35336 19.626 7.22632 16.9858 7.22632ZM17.0491 10.5C16.2243 10.5 15.5469 11.1613 15.5469 11.9978C15.5469 12.8284 16.2185 13.5 17.0491 13.5C17.8856 13.5 18.5469 12.8225 18.5469 11.9978C18.5469 11.1597 17.8768 10.5 17.0491 10.5Z" fill="#23262A"/>
</svg>
