<svg width="24" height="24" viewBox="0 0 24 24" fill="none" xmlns="http://www.w3.org/2000/svg">
<path fill-rule="evenodd" clip-rule="evenodd" d="M7.22656 7.01424C7.22656 8.83221 8.2194 10.4569 9.81032 11.2693L9.81032 20.1346C9.81032 20.3455 9.89911 20.5467 10.0549 20.6888L11.0038 21.5542C11.1517 21.689 11.3473 21.7592 11.5471 21.749C11.747 21.7389 11.9345 21.6494 12.068 21.5003L15.0399 18.1809C15.3102 17.879 15.2918 17.4169 14.9982 17.1374L14.3174 16.4893L15.521 14.518C15.6995 14.2256 15.6572 13.8495 15.4183 13.604L13.7428 11.8829V11.4424C15.6287 10.5345 16.774 8.95706 16.774 7.01424C16.774 4.38178 14.6485 2.25 12.0034 2.25C9.35361 2.25 7.22656 4.37395 7.22656 7.01424ZM10.8267 10.0816C9.54661 9.59519 8.72656 8.39622 8.72656 7.01424C8.72656 5.20546 10.179 3.75 12.0034 3.75C13.8201 3.75 15.274 5.21021 15.274 7.01424C15.274 8.36742 14.4445 9.5678 12.7154 10.256C12.4301 10.3696 12.2428 10.6457 12.2428 10.9529V12.1876C12.2428 12.383 12.3191 12.5707 12.4554 12.7108L13.9374 14.2332L12.7217 16.2244C12.5377 16.5258 12.5889 16.9149 12.8447 17.1584L13.4371 17.7223L11.4553 19.9358L11.3103 19.8036L11.3103 10.7827C11.3103 10.4713 11.1179 10.1923 10.8267 10.0816ZM10.5 6.95112C10.5 7.7759 11.1613 8.45337 11.9978 8.45337C12.8284 8.45337 13.5 7.78176 13.5 6.95112C13.5 6.11467 12.8225 5.45337 11.9978 5.45337C11.1597 5.45337 10.5 6.12344 10.5 6.95112Z" fill="#23262A"/>
</svg>
