<svg width="24" height="24" viewBox="0 0 24 24" fill="none" xmlns="http://www.w3.org/2000/svg">
<path fill-rule="evenodd" clip-rule="evenodd" d="M10.95 7.40001C11.2814 7.64854 11.3485 8.11864 11.1 8.45001L8.4375 12L11.1 15.55C11.3485 15.8814 11.2814 16.3515 10.95 16.6C10.6186 16.8485 10.1485 16.7814 9.9 16.45L7.25 12.9167V16C7.25 16.4142 6.91421 16.75 6.5 16.75C6.08579 16.75 5.75 16.4142 5.75 16V8.00001C5.75 7.5858 6.08579 7.25001 6.5 7.25001C6.91421 7.25001 7.25 7.5858 7.25 8.00001V11.0833L9.9 7.55001C10.1485 7.21864 10.6186 7.15149 10.95 7.40001ZM12.75 8C12.75 7.58579 13.0858 7.25 13.5 7.25H16C17.5188 7.25 18.75 8.48122 18.75 10C18.75 11.128 18.0709 12.0973 17.0993 12.5215L18.6708 15.6646C18.8561 16.0351 18.7059 16.4856 18.3354 16.6708C17.9649 16.8561 17.5144 16.7059 17.3292 16.3354L15.5365 12.75H14.25V16C14.25 16.4142 13.9142 16.75 13.5 16.75C13.0858 16.75 12.75 16.4142 12.75 16V8ZM17.25 10C17.25 10.6863 16.6969 11.2435 16.0121 11.2499C16.0026 11.2498 15.9932 11.2498 15.9838 11.25H14.25V8.75H16C16.6904 8.75 17.25 9.30964 17.25 10Z" fill="#23262A"/>
</svg>
