<svg width="24" height="24" viewBox="0 0 24 24" fill="none" xmlns="http://www.w3.org/2000/svg">
<path fill-rule="evenodd" clip-rule="evenodd" d="M10 4.75C10.4142 4.75 10.75 5.08579 10.75 5.5V6.75H13.4825C13.494 6.74973 13.5055 6.74973 13.517 6.75H16C16.4142 6.75 16.75 7.08579 16.75 7.5C16.75 7.91421 16.4142 8.25 16 8.25H14.0516C13.4168 10.1925 12.3897 11.9567 11.0571 13.4469C11.2033 13.5787 11.3526 13.7073 11.5049 13.8325C11.8248 14.0957 11.8708 14.5683 11.6076 14.8882C11.3445 15.2081 10.8719 15.2541 10.552 14.991C10.3639 14.8363 10.1799 14.677 10 14.5133C8.77421 15.6289 7.35388 16.5401 5.78846 17.1923C5.40611 17.3516 4.96701 17.1708 4.80769 16.7885C4.64838 16.4061 4.82919 15.967 5.21154 15.8077C6.59596 15.2308 7.85392 14.4283 8.94293 13.4469C7.61037 11.9567 6.58314 10.1925 5.94834 8.25H4C3.58579 8.25 3.25 7.91421 3.25 7.5C3.25 7.08579 3.58579 6.75 4 6.75H9.25V5.5C9.25 5.08579 9.58579 4.75 10 4.75ZM12.4638 8.25C11.8992 9.78019 11.0594 11.1767 10 12.3783C8.94058 11.1767 8.10077 9.78018 7.53617 8.25H12.4638ZM15.5 9.75C15.7964 9.75 16.065 9.92455 16.1854 10.1954L20.1854 19.1954C20.3536 19.5739 20.1831 20.0171 19.8046 20.1854C19.4261 20.3536 18.9829 20.1831 18.8146 19.8046L17.9015 17.75H13.0985L12.1854 19.8046C12.0171 20.1831 11.5739 20.3536 11.1954 20.1854C10.8169 20.0171 10.6464 19.5739 10.8146 19.1954L14.8146 10.1954C14.935 9.92455 15.2036 9.75 15.5 9.75ZM15.5 12.3467L17.2348 16.25H13.7652L15.5 12.3467Z" fill="#23262A"/>
</svg>
