<svg width="24" height="24" viewBox="0 0 24 24" fill="none" xmlns="http://www.w3.org/2000/svg">
<path fill-rule="evenodd" clip-rule="evenodd" d="M10.75 5.5C10.75 5.08579 10.4142 4.75 10 4.75C9.58579 4.75 9.25 5.08579 9.25 5.5V6.75H4C3.58579 6.75 3.25 7.08579 3.25 7.5C3.25 7.91421 3.58579 8.25 4 8.25H5.94834C6.58314 10.1925 7.61037 11.9567 8.94293 13.4469C7.85392 14.4283 6.59596 15.2308 5.21154 15.8077C4.82919 15.967 4.64838 16.4061 4.80769 16.7885C4.96701 17.1708 5.40611 17.3516 5.78846 17.1923C7.35388 16.5401 8.77421 15.6289 10 14.5133C10.1799 14.677 10.3639 14.8363 10.552 14.991C10.8719 15.2541 11.3445 15.2081 11.6076 14.8882C11.8708 14.5683 11.8248 14.0957 11.5049 13.8325C11.3526 13.7073 11.2033 13.5787 11.0571 13.4469C12.3897 11.9567 13.4168 10.1925 14.0516 8.25H16C16.4142 8.25 16.75 7.91421 16.75 7.5C16.75 7.08579 16.4142 6.75 16 6.75H13.517C13.5055 6.74973 13.494 6.74973 13.4825 6.75H10.75V5.5ZM10 12.3783C11.0594 11.1767 11.8992 9.78019 12.4638 8.25H10H7.53617C8.10078 9.78018 8.94058 11.1767 10 12.3783ZM16.1854 10.1954C16.065 9.92455 15.7964 9.75 15.5 9.75C15.2036 9.75 14.935 9.92455 14.8146 10.1954L10.8146 19.1954C10.6464 19.5739 10.8169 20.0171 11.1954 20.1854C11.5739 20.3536 12.0171 20.1831 12.1854 19.8046L13.0985 17.75H17.9015L18.8146 19.8046C18.9829 20.1831 19.4261 20.3536 19.8046 20.1854C20.1831 20.0171 20.3536 19.5739 20.1854 19.1954L16.1854 10.1954ZM17.2348 16.25L15.5 12.3467L13.7652 16.25H17.2348Z" fill="#262626"/>
</svg>
