<svg width="24" height="24" viewBox="0 0 24 24" fill="none" xmlns="http://www.w3.org/2000/svg">
<path fill-rule="evenodd" clip-rule="evenodd" d="M16 1.25C16.2724 1.25 16.5233 1.39767 16.6556 1.63577L21.6556 10.6358C21.7847 10.8681 21.7812 11.1513 21.6464 11.3803C21.5116 11.6094 21.2657 11.75 21 11.75H11C10.7343 11.75 10.4884 11.6094 10.3536 11.3803C10.2188 11.1513 10.2153 10.8681 10.3444 10.6358L15.3444 1.63577C15.4767 1.39767 15.7276 1.25 16 1.25ZM19.7254 10.25L16 3.54434L12.2746 10.25H19.7254ZM2.25 19C2.25 18.5858 2.58579 18.25 3 18.25H21C21.4142 18.25 21.75 18.5858 21.75 19C21.75 19.4142 21.4142 19.75 21 19.75H3C2.58579 19.75 2.25 19.4142 2.25 19ZM5.25 6C5.25 5.86193 5.36193 5.75 5.5 5.75H10.125C10.5392 5.75 10.875 5.41421 10.875 5C10.875 4.58579 10.5392 4.25 10.125 4.25H5.5C4.5335 4.25 3.75 5.0335 3.75 6V15C3.75 15.9665 4.5335 16.75 5.5 16.75H18.5C19.4665 16.75 20.25 15.9665 20.25 15V14.625C20.25 14.2108 19.9142 13.875 19.5 13.875C19.0858 13.875 18.75 14.2108 18.75 14.625V15C18.75 15.1381 18.6381 15.25 18.5 15.25H5.5C5.36193 15.25 5.25 15.1381 5.25 15V6Z" fill="#23262A"/>
</svg>
