<svg width="24" height="24" viewBox="0 0 24 24" fill="none" xmlns="http://www.w3.org/2000/svg">
<path fill-rule="evenodd" clip-rule="evenodd" d="M16.6556 1.63577C16.5233 1.39767 16.2724 1.25 16 1.25C15.7276 1.25 15.4767 1.39767 15.3444 1.63577L10.3444 10.6358C10.2153 10.8681 10.2188 11.1513 10.3536 11.3803C10.4884 11.6094 10.7343 11.75 11 11.75H21C21.2657 11.75 21.5116 11.6094 21.6464 11.3803C21.7812 11.1513 21.7847 10.8681 21.6556 10.6358L16.6556 1.63577ZM20.25 13.5C20.25 13.3619 20.1381 13.25 20 13.25H11C10.2028 13.25 9.46508 12.8281 9.06079 12.141C8.6565 11.4539 8.64598 10.6042 9.03315 9.9073L11.9698 4.62141C12.0623 4.45478 11.9418 4.25 11.7512 4.25H5.5C4.5335 4.25 3.75 5.0335 3.75 6V15C3.75 15.9665 4.5335 16.75 5.5 16.75H18.5C19.4665 16.75 20.25 15.9665 20.25 15V13.5ZM2.25 19C2.25 18.5858 2.58579 18.25 3 18.25H21C21.4142 18.25 21.75 18.5858 21.75 19C21.75 19.4142 21.4142 19.75 21 19.75H3C2.58579 19.75 2.25 19.4142 2.25 19Z" fill="#23262A"/>
</svg>
