<svg width="24" height="24" viewBox="0 0 24 24" fill="none" xmlns="http://www.w3.org/2000/svg">
<path fill-rule="evenodd" clip-rule="evenodd" d="M11.575 4.38197C11.831 4.20601 12.1689 4.20601 12.4248 4.38197L20.4248 9.88197C20.6283 10.0219 20.7499 10.253 20.7499 10.5C20.7499 10.747 20.6283 10.9781 20.4248 11.118L12.4248 16.618C12.1689 16.794 11.831 16.794 11.575 16.618L3.57503 11.118C3.37151 10.9781 3.24992 10.747 3.24992 10.5C3.24992 10.253 3.37151 10.0219 3.57503 9.88197L11.575 4.38197ZM8.74992 10.5C8.74992 10.0858 9.08571 9.75 9.49992 9.75H14.4999C14.9141 9.75 15.2499 10.0858 15.2499 10.5C15.2499 10.9142 14.9141 11.25 14.4999 11.25H9.49992C9.08571 11.25 8.74992 10.9142 8.74992 10.5ZM4.42497 12.882C4.08364 12.6474 3.6167 12.7338 3.38204 13.0752C3.14737 13.4165 3.23384 13.8834 3.57517 14.1181L11.5752 19.6181C11.8311 19.7941 12.169 19.7941 12.425 19.6181L20.425 14.1181C20.7663 13.8834 20.8528 13.4165 20.6181 13.0752C20.3834 12.7338 19.9165 12.6474 19.5752 12.882L12.0001 18.0899L4.42497 12.882Z" fill="#23262A"/>
</svg>
