<svg width="24" height="24" viewBox="0 0 24 24" fill="none" xmlns="http://www.w3.org/2000/svg">
<path fill-rule="evenodd" clip-rule="evenodd" d="M12.4249 4.38197C12.169 4.20601 11.831 4.20601 11.5751 4.38197L3.5751 9.88197C3.37159 10.0219 3.25 10.253 3.25 10.5C3.25 10.747 3.37159 10.9781 3.5751 11.118L11.5751 16.618C11.831 16.794 12.169 16.794 12.4249 16.618L20.4249 11.118C20.6284 10.9781 20.75 10.747 20.75 10.5C20.75 10.253 20.6284 10.0219 20.4249 9.88197L12.4249 4.38197ZM4.4249 12.882C4.08357 12.6473 3.61663 12.7338 3.38197 13.0751C3.1473 13.4164 3.23377 13.8834 3.5751 14.118L11.5751 19.618C11.831 19.794 12.169 19.794 12.4249 19.618L20.4249 14.118C20.7662 13.8834 20.8527 13.4164 20.618 13.0751C20.3834 12.7338 19.9164 12.6473 19.5751 12.882L12 18.0899L4.4249 12.882Z" fill="#23262A"/>
</svg>
