<svg width="24" height="24" viewBox="0 0 24 24" fill="none" xmlns="http://www.w3.org/2000/svg">
<path fill-rule="evenodd" clip-rule="evenodd" d="M11.5751 4.38197C11.831 4.20601 12.169 4.20601 12.4249 4.38197L20.4249 9.88197C20.6284 10.0219 20.75 10.253 20.75 10.5C20.75 10.747 20.6284 10.9781 20.4249 11.118L12.4249 16.618C12.169 16.794 11.831 16.794 11.5751 16.618L3.5751 11.118C3.37159 10.9781 3.25 10.747 3.25 10.5C3.25 10.253 3.37159 10.0219 3.5751 9.88197L11.5751 4.38197ZM5.32385 10.5L12 15.0899L18.6761 10.5L12 5.91015L5.32385 10.5ZM3.38196 13.0751C3.61663 12.7337 4.08356 12.6473 4.42489 12.8819L12 18.0898L19.5751 12.8819C19.9164 12.6473 20.3834 12.7337 20.618 13.0751C20.8527 13.4164 20.7662 13.8833 20.4249 14.118L12.4249 19.618C12.169 19.7939 11.831 19.7939 11.5751 19.618L3.5751 14.118C3.23377 13.8833 3.1473 13.4164 3.38196 13.0751ZM9.49992 9.75C9.08571 9.75 8.74992 10.0858 8.74992 10.5C8.74992 10.9142 9.08571 11.25 9.49992 11.25H14.4999C14.9141 11.25 15.2499 10.9142 15.2499 10.5C15.2499 10.0858 14.9141 9.75 14.4999 9.75H9.49992Z" fill="#23262A"/>
</svg>
