<svg width="24" height="24" viewBox="0 0 24 24" fill="none" xmlns="http://www.w3.org/2000/svg">
<path fill-rule="evenodd" clip-rule="evenodd" d="M3.38204 13.0752C3.6167 12.7338 4.08364 12.6474 4.42497 12.882L12.0001 18.0899L19.5752 12.882C19.9165 12.6474 20.3834 12.7338 20.6181 13.0752C20.8528 13.4165 20.7663 13.8834 20.425 14.1181L12.425 19.6181C12.169 19.7941 11.8311 19.7941 11.5752 19.6181L3.57517 14.1181C3.23384 13.8834 3.14737 13.4165 3.38204 13.0752Z" fill="#262626"/>
<path fill-rule="evenodd" clip-rule="evenodd" d="M12.4248 4.38197C12.1689 4.20601 11.831 4.20601 11.575 4.38197L3.57503 9.88197C3.37151 10.0219 3.24992 10.253 3.24992 10.5C3.24992 10.747 3.37151 10.9781 3.57503 11.118L11.575 16.618C11.831 16.794 12.1689 16.794 12.4248 16.618L20.4248 11.118C20.6283 10.9781 20.7499 10.747 20.7499 10.5C20.7499 10.253 20.6283 10.0219 20.4248 9.88197L12.4248 4.38197ZM9.49992 9.75C9.08571 9.75 8.74992 10.0858 8.74992 10.5C8.74992 10.9142 9.08571 11.25 9.49992 11.25H14.4999C14.9141 11.25 15.2499 10.9142 15.2499 10.5C15.2499 10.0858 14.9141 9.75 14.4999 9.75H9.49992Z" fill="#262626"/>
</svg>
