<svg width="24" height="24" viewBox="0 0 24 24" fill="none" xmlns="http://www.w3.org/2000/svg">
<path fill-rule="evenodd" clip-rule="evenodd" d="M12.4249 4.38197C12.169 4.20601 11.831 4.20601 11.5751 4.38197L3.5751 9.88197C3.37159 10.0219 3.25 10.253 3.25 10.5C3.25 10.747 3.37159 10.9781 3.5751 11.118L11.5751 16.618C11.831 16.794 12.169 16.794 12.4249 16.618L20.4249 11.118C20.6284 10.9781 20.75 10.747 20.75 10.5C20.75 10.253 20.6284 10.0219 20.4249 9.88197L12.4249 4.38197ZM12 15.0899L5.32385 10.5L12 5.91015L18.6761 10.5L12 15.0899ZM4.4249 12.882C4.08357 12.6473 3.61663 12.7338 3.38197 13.0751C3.14731 13.4164 3.23378 13.8834 3.5751 14.118L11.5751 19.618C11.831 19.794 12.169 19.794 12.4249 19.618L20.4249 14.118C20.7662 13.8834 20.8527 13.4164 20.618 13.0751C20.3834 12.7338 19.9164 12.6473 19.5751 12.882L12 18.0899L4.4249 12.882ZM11.9999 7.75C12.4141 7.75 12.7499 8.08579 12.7499 8.5V9.75H14.4999C14.9141 9.75 15.2499 10.0858 15.2499 10.5C15.2499 10.9142 14.9141 11.25 14.4999 11.25H12.7499V12.5C12.7499 12.9142 12.4141 13.25 11.9999 13.25C11.5857 13.25 11.2499 12.9142 11.2499 12.5V11.25H9.49993C9.08572 11.25 8.74993 10.9142 8.74993 10.5C8.74993 10.0858 9.08572 9.75 9.49993 9.75H11.2499V8.5C11.2499 8.08579 11.5857 7.75 11.9999 7.75Z" fill="#262626"/>
</svg>
