<svg width="24" height="24" viewBox="0 0 24 24" fill="none" xmlns="http://www.w3.org/2000/svg">
<path fill-rule="evenodd" clip-rule="evenodd" d="M11.5751 4.38197C11.831 4.20601 12.169 4.20601 12.4249 4.38197L20.4249 9.88197C20.6284 10.0219 20.75 10.253 20.75 10.5C20.75 10.747 20.6284 10.9781 20.4249 11.118L12.4249 16.618C12.169 16.794 11.831 16.794 11.5751 16.618L3.5751 11.118C3.37159 10.9781 3.25 10.747 3.25 10.5C3.25 10.253 3.37159 10.0219 3.5751 9.88197L11.5751 4.38197ZM12.75 8.5C12.75 8.08579 12.4142 7.75 12 7.75C11.5858 7.75 11.25 8.08579 11.25 8.5V9.75H9.5C9.08579 9.75 8.75 10.0858 8.75 10.5C8.75 10.9142 9.08579 11.25 9.5 11.25H11.25V12.5C11.25 12.9142 11.5858 13.25 12 13.25C12.4142 13.25 12.75 12.9142 12.75 12.5V11.25H14.5C14.9142 11.25 15.25 10.9142 15.25 10.5C15.25 10.0858 14.9142 9.75 14.5 9.75H12.75V8.5ZM4.4249 12.882C4.08357 12.6473 3.61663 12.7338 3.38197 13.0751C3.14731 13.4164 3.23378 13.8834 3.5751 14.118L11.5751 19.618C11.831 19.794 12.169 19.794 12.4249 19.618L20.4249 14.118C20.7662 13.8834 20.8527 13.4164 20.618 13.0751C20.3834 12.7338 19.9164 12.6473 19.5751 12.882L12 18.0899L4.4249 12.882Z" fill="#23262A"/>
</svg>
