<svg width="24" height="24" viewBox="0 0 24 24" fill="none" xmlns="http://www.w3.org/2000/svg">
<path fill-rule="evenodd" clip-rule="evenodd" d="M5 3.25C4.0335 3.25 3.25 4.0335 3.25 5V19C3.25 19.9665 4.0335 20.75 5 20.75H8.5C8.91421 20.75 9.25 20.4142 9.25 20C9.25 19.5858 8.91421 19.25 8.5 19.25H5C4.86193 19.25 4.75 19.1381 4.75 19V5C4.75 4.86193 4.86193 4.75 5 4.75H8.5C8.91421 4.75 9.25 4.41421 9.25 4C9.25 3.58579 8.91421 3.25 8.5 3.25H5ZM14.9697 6.96967C15.2626 6.67678 15.7374 6.67678 16.0303 6.96967L20.5303 11.4697C20.8232 11.7626 20.8232 12.2374 20.5303 12.5303L16.0303 17.0303C15.7374 17.3232 15.2626 17.3232 14.9697 17.0303C14.6768 16.7374 14.6768 16.2626 14.9697 15.9697L18.1893 12.75H8.5C8.08579 12.75 7.75 12.4142 7.75 12C7.75 11.5858 8.08579 11.25 8.5 11.25H18.1893L14.9697 8.03033C14.6768 7.73744 14.6768 7.26256 14.9697 6.96967Z" fill="#23262A"/>
</svg>
