<svg width="24" height="24" viewBox="0 0 24 24" fill="none" xmlns="http://www.w3.org/2000/svg">
<path d="M12 2C17.5228 2 22 6.47715 22 12C22 17.5228 17.5228 22 12 22C6.47715 22 2 17.5228 2 12C2 6.47715 6.47715 2 12 2ZM14.0732 16.5488C13.4414 16.8373 12.7399 17 12 17C11.2598 17 10.5578 16.8375 9.92578 16.5488L7.35645 19.1182C8.69153 19.9909 10.2859 20.5 12 20.5C13.7138 20.5 15.3076 19.9906 16.6426 19.1182L14.0732 16.5488ZM5.81641 17.8291C5.93095 17.9506 6.04944 18.0681 6.1709 18.1826L8.64551 15.708C8.52171 15.5959 8.40403 15.4773 8.29199 15.3535L5.81641 17.8291ZM15.707 15.3535C15.595 15.4773 15.4773 15.596 15.3535 15.708L17.8281 18.1826C17.9496 18.0681 18.0681 17.9506 18.1826 17.8291L15.707 15.3535ZM4.88184 7.35645C4.00911 8.69153 3.5 10.2859 3.5 12C3.5 13.7138 4.00939 15.3076 4.88184 16.6426L7.4502 14.0742C7.16163 13.4423 7 12.7401 7 12C7 11.2599 7.16163 10.5577 7.4502 9.92578L4.88184 7.35645ZM16.5488 9.9248C16.8377 10.5571 17 11.2594 17 12C17 12.7402 16.8375 13.4422 16.5488 14.0742L19.1172 16.6426C19.9898 15.3075 20.5 13.714 20.5 12C20.5 10.2857 19.9901 8.69162 19.1172 7.35645L16.5488 9.9248ZM12 8.5C10.067 8.5 8.5 10.067 8.5 12C8.5 13.933 10.067 15.5 12 15.5C13.933 15.5 15.5 13.933 15.5 12C15.5 10.067 13.933 8.5 12 8.5ZM15.3535 8.29199C15.4772 8.40389 15.5951 8.52189 15.707 8.64551L18.1826 6.16992C18.0682 6.04865 17.9504 5.93079 17.8291 5.81641L15.3535 8.29199ZM5.81641 6.16992L8.29199 8.64453C8.40389 8.52095 8.5219 8.40288 8.64551 8.29102L6.1709 5.81641C6.04944 5.93094 5.93095 6.04847 5.81641 6.16992ZM12 3.5C10.2861 3.5 8.69144 4.00832 7.35645 4.88086L9.92578 7.4502C10.5577 7.16163 11.2599 7 12 7C12.7401 7 13.4423 7.16163 14.0742 7.4502L16.6426 4.88184C15.3076 4.00939 13.7138 3.5 12 3.5Z" fill="#202733"/>
</svg>
