<svg width="24" height="24" viewBox="0 0 24 24" fill="none" xmlns="http://www.w3.org/2000/svg">
<path d="M17.4268 20.4014C15.8638 21.413 14.0003 22 12 22C9.99992 22 8.13702 21.4128 6.57422 20.4014L10.2793 16.6963C10.8158 16.8929 11.3954 17 12 17C12.6049 17 13.185 16.8931 13.7217 16.6963L17.4268 20.4014ZM8.06152 15.0811C8.31102 15.3995 8.59866 15.6869 8.91699 15.9365L5.36816 19.4854C5.06635 19.2178 4.78121 18.9318 4.51367 18.6299L8.06152 15.0811ZM19.4834 18.6338C19.217 18.9341 18.9322 19.218 18.6318 19.4844L15.083 15.9365C15.3998 15.6881 15.6859 15.4016 15.9346 15.085L19.4834 18.6338ZM20.4014 6.57324C21.413 8.13618 22 9.99966 22 12C22 14.0013 21.412 15.8653 20.3994 17.4287L16.6943 13.7246C16.8918 13.1871 17 12.606 17 12C17 11.3952 16.8931 10.815 16.6963 10.2783L20.4014 6.57324ZM7.30469 10.2783C7.10784 10.8151 7 11.395 7 12C7 12.6038 7.1066 13.1829 7.30273 13.7188L3.59766 17.4238C2.587 15.8614 2 13.9993 2 12C2 9.99953 2.58787 8.13624 3.59961 6.57324L7.30469 10.2783ZM8.91504 8.06543C8.59841 8.31406 8.31194 8.60023 8.06348 8.91699L4.51562 5.36816C4.78199 5.06778 5.06588 4.78304 5.36621 4.5166L8.91504 8.06543ZM18.6299 4.51367C18.9318 4.78121 19.2177 5.06635 19.4854 5.36816L15.9365 8.91699C15.6869 8.59866 15.3995 8.31102 15.0811 8.06152L18.6299 4.51367ZM12 2C13.9993 2 15.8614 2.587 17.4238 3.59766L13.7188 7.30273C13.1829 7.1066 12.6038 7 12 7C11.394 7 10.8129 7.10819 10.2754 7.30566L6.57129 3.60059C8.13471 2.58803 9.99866 2 12 2Z" fill="#202733"/>
</svg>
