<svg xmlns="http://www.w3.org/2000/svg" width="24" height="24" viewBox="0 0 24 24" fill="none">
  <path d="M20 2.25C20.4142 2.25 20.75 2.58579 20.75 3V21C20.75 21.4142 20.4142 21.75 20 21.75H4C3.58579 21.75 3.25 21.4142 3.25 21V3C3.25 2.58579 3.58579 2.25 4 2.25H20ZM12 7.25C9.37665 7.25 7.25 9.37665 7.25 12C7.25 12.0339 7.25124 12.0678 7.25195 12.1016C7.24905 12.3331 7.25168 12.5794 7.26074 12.8164C7.28089 13.343 7.33162 13.9592 7.44043 14.332C7.62977 14.9797 7.9552 15.5806 8.39453 16.0928C8.83389 16.6049 9.37796 17.0171 9.98926 17.3027C10.6007 17.5884 11.2666 17.7406 11.9414 17.749C12.6161 17.7573 13.2851 17.6219 13.9033 17.3516C14.5215 17.0812 15.0754 16.6817 15.5273 16.1807C15.9791 15.6797 16.3191 15.0879 16.5244 14.4453C16.6443 14.0699 16.7035 13.4495 16.7305 12.9258C16.7455 12.6341 16.751 12.3301 16.748 12.0576C16.7483 12.0384 16.75 12.0192 16.75 12C16.75 11.8204 16.7391 11.6432 16.7197 11.4688C16.7192 11.4637 16.7193 11.4581 16.7188 11.4531C16.7178 11.4449 16.7151 11.4369 16.7139 11.4287C16.4316 9.07485 14.4299 7.25 12 7.25ZM12 8.75C13.6711 8.75 15.0465 10.0113 15.2285 11.6338C15.2394 11.7324 15.2459 11.8813 15.248 12.0615C15.2152 13.828 13.7744 15.25 12 15.25C10.2312 15.25 8.79247 13.837 8.75098 12.0781C8.75475 11.8472 8.76628 11.6579 8.78223 11.5449V11.54C9.00564 9.96293 10.3612 8.75 12 8.75ZM12 9C11.4477 9 11 9.44772 11 10C11 10.5523 11.4477 11 12 11C12.5523 11 13 10.5523 13 10C13 9.44772 12.5523 9 12 9Z" fill="#202733"/>
</svg>