<svg width="24" height="24" viewBox="0 0 24 24" fill="none" xmlns="http://www.w3.org/2000/svg">
<path fill-rule="evenodd" clip-rule="evenodd" d="M14.3199 2.32152C14.6478 2.47605 14.8182 2.84296 14.7248 3.19319L13.0869 9.33552L17.5697 9.75318C17.837 9.77808 18.0706 9.94395 18.1822 10.1881C18.2938 10.4322 18.2665 10.7174 18.1104 10.9359L10.6104 21.4359C10.3998 21.7308 10.0083 21.8329 9.68039 21.6784C9.35251 21.5238 9.18206 21.1569 9.27546 20.8067L10.9134 14.6644L6.43043 14.2467C6.16314 14.2218 5.92953 14.0559 5.81791 13.8118C5.70629 13.5676 5.73367 13.2825 5.88971 13.064L13.3898 2.56401C13.6005 2.26906 13.992 2.16699 14.3199 2.32152Z" fill="#23262A"/>
</svg>
