<svg width="24" height="24" viewBox="0 0 24 24" fill="none" xmlns="http://www.w3.org/2000/svg">
<path fill-rule="evenodd" clip-rule="evenodd" d="M12 3.5C10.5055 3.5 9.18814 4.04024 8.25286 5.00529C7.32529 5.96238 6.75 7.29572 6.75 8.75C6.75 9.52709 7.0245 10.1241 7.636 11.1025C7.75573 11.2941 7.887 11.4982 8.02842 11.7181C8.55541 12.5377 9.22326 13.5763 9.95994 15H14.0401C14.7767 13.5763 15.4446 12.5377 15.9716 11.7181C16.113 11.4982 16.2443 11.2941 16.364 11.1025C16.9755 10.1241 17.25 9.52709 17.25 8.75C17.25 7.29572 16.6747 5.96238 15.7471 5.00529C14.8119 4.04024 13.4945 3.5 12 3.5ZM7.17571 3.96137C8.41846 2.67908 10.1368 2 12 2C13.8632 2 15.5815 2.67908 16.8243 3.96137C18.0176 5.19268 18.75 6.89828 18.75 8.75C18.75 9.97291 18.2745 10.8759 17.636 11.8975C17.5057 12.106 17.367 12.3218 17.2206 12.5496L17.2204 12.55L17.2203 12.55C16.6456 13.4443 15.951 14.5251 15.1708 16.0854C15.0438 16.3395 14.7841 16.5 14.5 16.5H9.5C9.21592 16.5 8.95622 16.3395 8.82918 16.0854C8.04901 14.5251 7.35444 13.4443 6.77968 12.55C6.63314 12.322 6.4944 12.1061 6.364 11.8975C5.7255 10.8759 5.25 9.97291 5.25 8.75C5.25 6.89828 5.98239 5.19268 7.17571 3.96137ZM10.5 19C10.9142 19 11.25 19.3358 11.25 19.75C11.25 19.8026 11.2988 20.0166 11.4607 20.219C11.6035 20.3976 11.7788 20.5 12 20.5C12.2212 20.5 12.3965 20.3976 12.5393 20.219C12.7012 20.0166 12.75 19.8026 12.75 19.75C12.75 19.3358 13.0858 19 13.5 19C13.9142 19 14.25 19.3358 14.25 19.75C14.25 20.1974 14.0488 20.7334 13.7107 21.156C13.3535 21.6024 12.7788 22 12 22C11.2212 22 10.6465 21.6024 10.2893 21.156C9.95124 20.7334 9.75 20.1974 9.75 19.75C9.75 19.3358 10.0858 19 10.5 19ZM10 17C9.58579 17 9.25 17.3358 9.25 17.75C9.25 18.1642 9.58579 18.5 10 18.5H14C14.4142 18.5 14.75 18.1642 14.75 17.75C14.75 17.3358 14.4142 17 14 17H10Z" fill="#202733"/>
</svg>
