<svg width="24" height="24" viewBox="0 0 24 24" fill="none" xmlns="http://www.w3.org/2000/svg">
<path fill-rule="evenodd" clip-rule="evenodd" d="M14.3199 2.32158C14.6478 2.47611 14.8182 2.84302 14.7248 3.19325L13.0869 9.33558L17.5697 9.75324C17.837 9.77814 18.0706 9.94401 18.1822 10.1882C18.2938 10.4323 18.2665 10.7175 18.1104 10.9359L10.6104 21.4359C10.3998 21.7309 10.0083 21.833 9.68039 21.6784C9.35251 21.5239 9.18206 21.157 9.27546 20.8068L10.9134 14.6644L6.43043 14.2468C6.16314 14.2219 5.92953 14.056 5.81791 13.8119C5.70629 13.5677 5.73367 13.2825 5.88971 13.0641L13.3898 2.56407C13.6005 2.26912 13.992 2.16705 14.3199 2.32158ZM7.86865 12.8743L11.9364 13.2532C12.1562 13.2737 12.3559 13.39 12.4821 13.5712C12.6084 13.7523 12.6484 13.9799 12.5915 14.1933L11.7879 17.2069L16.1315 11.1257L12.0639 10.7468C11.844 10.7263 11.6444 10.61 11.5182 10.4288C11.3919 10.2477 11.3519 10.0201 11.4088 9.80676L12.2124 6.79307L7.86865 12.8743Z" fill="#23262A"/>
</svg>
