<svg width="24" height="24" viewBox="0 0 24 24" fill="none" xmlns="http://www.w3.org/2000/svg">
<path fill-rule="evenodd" clip-rule="evenodd" d="M7.17571 4.21137C8.41846 2.92908 10.1368 2.25 12 2.25C13.8632 2.25 15.5815 2.92908 16.8243 4.21137C18.0176 5.44268 18.75 7.14828 18.75 9C18.75 10.2229 18.2745 11.1259 17.636 12.1475C17.5057 12.356 17.367 12.5718 17.2206 12.7996L17.2204 12.8L17.2203 12.8C16.6456 13.6943 15.951 14.7751 15.1708 16.3354C15.0438 16.5895 14.7841 16.75 14.5 16.75H9.5C9.21592 16.75 8.95622 16.5895 8.82918 16.3354C8.04901 14.7751 7.35444 13.6943 6.77968 12.8C6.63314 12.572 6.4944 12.3561 6.364 12.1475C5.7255 11.1259 5.25 10.2229 5.25 9C5.25 7.14828 5.98239 5.44268 7.17571 4.21137ZM9.75 20C9.75 19.5858 10.0858 19.25 10.5 19.25H13.5C13.6989 19.25 13.8897 19.329 14.0303 19.4697C14.171 19.6103 14.25 19.8011 14.25 20C14.25 20.4474 14.0488 20.9834 13.7107 21.406C13.3535 21.8524 12.7788 22.25 12 22.25C11.2212 22.25 10.6465 21.8524 10.2893 21.406C9.95124 20.9834 9.75 20.4474 9.75 20ZM10 17.25C9.58579 17.25 9.25 17.5858 9.25 18C9.25 18.4142 9.58579 18.75 10 18.75H14C14.4142 18.75 14.75 18.4142 14.75 18C14.75 17.5858 14.4142 17.25 14 17.25H10Z" fill="#23262A"/>
</svg>
