<svg width="24" height="24" viewBox="0 0 24 24" fill="none" xmlns="http://www.w3.org/2000/svg">
<path d="M20 6.5C19.1716 6.5 18.5 7.17157 18.5 8C18.5 8.13437 18.5177 8.26461 18.5508 8.38853L14.3885 12.5508C14.2646 12.5177 14.1344 12.5 14 12.5C13.8656 12.5 13.7354 12.5177 13.6115 12.5508L11.4492 10.3885C11.4823 10.2646 11.5 10.1344 11.5 10C11.5 9.17157 10.8284 8.5 10 8.5C9.17157 8.5 8.5 9.17157 8.5 10C8.5 10.1344 8.51767 10.2646 8.55081 10.3885L4.38853 14.5508C4.26461 14.5177 4.13437 14.5 4 14.5C3.17157 14.5 2.5 15.1716 2.5 16C2.5 16.8284 3.17157 17.5 4 17.5C4.82843 17.5 5.5 16.8284 5.5 16C5.5 15.8656 5.48233 15.7354 5.44919 15.6115L9.61147 11.4492C9.73539 11.4823 9.86563 11.5 10 11.5C10.1344 11.5 10.2646 11.4823 10.3885 11.4492L12.5508 13.6115C12.5177 13.7354 12.5 13.8656 12.5 14C12.5 14.8284 13.1716 15.5 14 15.5C14.8284 15.5 15.5 14.8284 15.5 14C15.5 13.8656 15.4823 13.7354 15.4492 13.6115L19.6115 9.44919C19.7354 9.48233 19.8656 9.5 20 9.5C20.8284 9.5 21.5 8.82843 21.5 8C21.5 7.17157 20.8284 6.5 20 6.5Z" fill="#23262A"/>
</svg>
