<svg width="24" height="24" viewBox="0 0 24 24" fill="none" xmlns="http://www.w3.org/2000/svg">
<path fill-rule="evenodd" clip-rule="evenodd" d="M3.75 3.25C3.33579 3.25 3 3.58579 3 4C3 4.41421 3.33579 4.75 3.75 4.75H20.25C20.6642 4.75 21 4.41421 21 4C21 3.58579 20.6642 3.25 20.25 3.25H3.75ZM12.6855 6.9454C12.5652 6.67455 12.2966 6.5 12.0002 6.5C11.7038 6.5 11.4352 6.67455 11.3148 6.9454L7.31483 15.9454C7.1466 16.3239 7.31707 16.7671 7.69558 16.9354C8.0741 17.1036 8.51732 16.9331 8.68555 16.5546L9.5987 14.5H14.4017L15.3148 16.5546C15.4831 16.9331 15.9263 17.1036 16.3048 16.9354C16.6833 16.7671 16.8538 16.3239 16.6855 15.9454L12.6855 6.9454ZM13.735 13L12.0002 9.09666L10.2654 13H13.735ZM3 20C3 19.5858 3.33579 19.25 3.75 19.25H20.25C20.6642 19.25 21 19.5858 21 20C21 20.4142 20.6642 20.75 20.25 20.75H3.75C3.33579 20.75 3 20.4142 3 20Z" fill="#23262A"/>
</svg>
