<svg width="24" height="24" viewBox="0 0 24 24" fill="none" xmlns="http://www.w3.org/2000/svg">
<path fill-rule="evenodd" clip-rule="evenodd" d="M20.4108 7.21003C20.7573 6.98318 20.8544 6.51833 20.6275 6.17176C20.4007 5.82519 19.9358 5.72814 19.5892 5.955L13.0578 10.2303L10.0517 8.2626C9.80217 8.0993 9.47964 8.0993 9.23015 8.2626L3.58924 11.955C3.24268 12.1819 3.14563 12.6467 3.37248 12.9933C3.59934 13.3398 4.06419 13.4369 4.41076 13.21L9.64091 9.78651L12.647 11.7542C12.8965 11.9175 13.219 11.9175 13.4685 11.7542L20.4108 7.21003ZM20.4108 12.045C20.7573 11.8181 20.8544 11.3533 20.6275 11.0067C20.4007 10.6601 19.9358 10.5631 19.5892 10.79L13.0578 15.0653L10.0517 13.0976C9.80217 12.9343 9.47964 12.9343 9.23015 13.0976L3.58924 16.79C3.24268 17.0168 3.14563 17.4817 3.37248 17.8282C3.59934 18.1748 4.06419 18.2718 4.41076 18.045L9.64091 14.6215L12.647 16.5892C12.8965 16.7525 13.219 16.7525 13.4685 16.5892L20.4108 12.045Z" fill="#23262A"/>
</svg>
