<svg width="24" height="24" viewBox="0 0 24 24" fill="none" xmlns="http://www.w3.org/2000/svg">
<path fill-rule="evenodd" clip-rule="evenodd" d="M14.909 5.15169C15.7877 4.27301 17.2123 4.27301 18.091 5.15168L18.8484 5.90905C19.727 6.78773 19.727 8.21234 18.8483 9.09102L13.8839 14.0555C13.3957 14.5436 12.6043 14.5436 12.1161 14.0555L11.0303 12.9697C10.7374 12.6768 10.2626 12.6768 9.96967 12.9697C9.67678 13.2626 9.67678 13.7375 9.96967 14.0304L11.0555 15.1162C12.1294 16.1901 13.8706 16.1901 14.9445 15.1161L19.909 10.1517C21.3735 8.68722 21.3735 6.31285 19.909 4.84839L19.1517 4.09102L18.6213 4.62135L19.1516 4.09102C17.6872 2.62656 15.3128 2.62656 13.8483 4.09103L12.9697 4.9697C12.6768 5.2626 12.6768 5.73747 12.9697 6.03036C13.2626 6.32326 13.7374 6.32326 14.0303 6.03036L14.909 5.15169ZM12.9446 8.88382C11.8706 7.80988 10.1294 7.80989 9.05549 8.88383L4.09103 13.8483C2.62656 15.3128 2.62656 17.6871 4.09102 19.1516L4.60425 18.6384L4.09103 19.1516L4.84839 19.909C6.31285 21.3734 8.68722 21.3734 10.1517 19.909L11.0304 19.0303C11.3233 18.7374 11.3233 18.2625 11.0304 17.9696C10.7375 17.6767 10.2626 17.6767 9.9697 17.9696L9.09103 18.8483C8.21235 19.727 6.78773 19.727 5.90905 18.8483L5.15169 18.0909C4.27301 17.2123 4.27301 15.7876 5.15169 14.909L10.1162 9.94449C10.6043 9.45633 11.3958 9.45633 11.8839 9.94449L12.9697 11.0303C13.2626 11.3232 13.7375 11.3232 14.0304 11.0303C14.3233 10.7374 14.3233 10.2625 14.0304 9.96961L12.9446 8.88382Z" fill="#23262A"/>
</svg>
