<svg width="24" height="24" viewBox="0 0 24 24" fill="none" xmlns="http://www.w3.org/2000/svg">
<path fill-rule="evenodd" clip-rule="evenodd" d="M6.58936 2.84316C6.94808 2.63605 7.40677 2.75896 7.61388 3.11768L8.61388 4.84973C8.82098 5.20845 8.69808 5.66714 8.33936 5.87425C7.98064 6.08136 7.52195 5.95845 7.31484 5.59973L6.31484 3.86768C6.10773 3.50896 6.23064 3.05027 6.58936 2.84316ZM15.0858 5.07846C15.9644 4.19978 17.3891 4.19978 18.2677 5.07846L19.0251 5.83583C19.9038 6.71451 19.9038 8.13912 19.0251 9.0178L16.1464 11.8965C15.8535 12.1894 15.8535 12.6643 16.1464 12.9571C16.4393 13.25 16.9142 13.25 17.2071 12.9571L20.0858 10.0785C21.5502 8.614 21.5502 6.23963 20.0858 4.77517L19.3284 4.0178C17.8639 2.55334 15.4896 2.55334 14.0251 4.0178L11.1464 6.89648C10.8535 7.18938 10.8535 7.66425 11.1464 7.95714C11.4393 8.25004 11.9142 8.25004 12.2071 7.95714L15.0858 5.07846ZM7.6036 12.7071C7.89649 12.4142 7.89649 11.9393 7.6036 11.6464C7.3107 11.3536 6.83583 11.3536 6.54294 11.6464L4.16426 14.0251C2.69979 15.4896 2.69979 17.864 4.16426 19.3284L4.92163 20.0858C6.38609 21.5503 8.76044 21.5503 10.2249 20.0858L12.6037 17.7071C12.8966 17.4142 12.8966 16.9393 12.6037 16.6465C12.3108 16.3536 11.8359 16.3536 11.543 16.6464L9.16426 19.0252C8.28558 19.9038 6.86097 19.9038 5.98229 19.0251L5.22492 18.2678C4.34624 17.3891 4.34624 15.9645 5.22492 15.0858L7.6036 12.7071ZM2.84316 6.58964C3.05027 6.23092 3.50896 6.10801 3.86768 6.31512L5.59973 7.31512C5.95845 7.52222 6.08136 7.98092 5.87425 8.33964C5.66714 8.69836 5.20845 8.82126 4.84973 8.61416L3.11768 7.61416C2.75896 7.40705 2.63605 6.94836 2.84316 6.58964ZM18.5645 14.8005C18.2057 14.5934 17.747 14.7163 17.5399 15.075C17.3328 15.4337 17.4557 15.8924 17.8145 16.0995L19.5465 17.0995C19.9052 17.3066 20.3639 17.1837 20.571 16.825C20.7781 16.4663 20.6552 16.0076 20.2965 15.8005L18.5645 14.8005ZM16.0992 17.8147C15.8921 17.456 15.4334 17.3331 15.0747 17.5402C14.716 17.7473 14.5931 18.206 14.8002 18.5647L15.8002 20.2968C16.0073 20.6555 16.466 20.7784 16.8247 20.5713C17.1834 20.3642 17.3063 19.9055 17.0992 19.5468L16.0992 17.8147Z" fill="#23262A"/>
</svg>
