<svg width="24" height="24" viewBox="0 0 24 24" fill="none" xmlns="http://www.w3.org/2000/svg">
<path fill-rule="evenodd" clip-rule="evenodd" d="M6.58936 2.84316C6.94808 2.63605 7.40677 2.75896 7.61388 3.11768L8.61388 4.84973C8.82098 5.20845 8.69808 5.66714 8.33936 5.87425C7.98064 6.08136 7.52195 5.95845 7.31484 5.59973L6.31484 3.86768C6.10773 3.50896 6.23064 3.05027 6.58936 2.84316ZM15.0858 5.07845C15.9645 4.19977 17.3891 4.19977 18.2678 5.07845L19.0251 5.83581C19.9038 6.71449 19.9038 8.13911 19.0251 9.01779L16.1464 11.8965C15.8535 12.1894 15.8535 12.6642 16.1464 12.9571C16.4393 13.25 16.9142 13.25 17.2071 12.9571L20.0858 10.0784C21.5502 8.61398 21.5502 6.23962 20.0858 4.77515L19.3284 4.01779C17.8639 2.55332 15.4896 2.55332 14.0251 4.01778L11.1464 6.89647C10.8535 7.18936 10.8535 7.66423 11.1464 7.95713C11.4393 8.25002 11.9142 8.25002 12.2071 7.95713L15.0858 5.07845ZM7.60361 12.7071C7.8965 12.4142 7.8965 11.9393 7.60361 11.6464C7.31072 11.3535 6.83584 11.3535 6.54295 11.6464L4.16427 14.0251C2.6998 15.4896 2.69981 17.8639 4.16427 19.3284L4.92165 20.0858C6.3861 21.5502 8.76045 21.5503 10.2249 20.0858L12.6037 17.7071C12.8966 17.4142 12.8966 16.9393 12.6037 16.6464C12.3108 16.3535 11.8359 16.3535 11.543 16.6464L9.16427 19.0251C8.28559 19.9038 6.86098 19.9038 5.98231 19.0251L5.22493 18.2678C4.34625 17.3891 4.34625 15.9644 5.22493 15.0858L7.60361 12.7071ZM2.84316 6.5896C3.05027 6.23088 3.50896 6.10798 3.86768 6.31508L5.59973 7.31508C5.95845 7.52219 6.08136 7.98088 5.87425 8.3396C5.66714 8.69832 5.20845 8.82123 4.84973 8.61412L3.11768 7.61412C2.75896 7.40701 2.63605 6.94832 2.84316 6.5896ZM18.5645 14.8004C18.2057 14.5933 17.747 14.7162 17.5399 15.075C17.3328 15.4337 17.4557 15.8924 17.8145 16.0995L19.5465 17.0995C19.9052 17.3066 20.3639 17.1837 20.571 16.825C20.7781 16.4662 20.6552 16.0075 20.2965 15.8004L18.5645 14.8004ZM16.0992 17.8147C15.8921 17.456 15.4334 17.3331 15.0747 17.5402C14.716 17.7473 14.5931 18.206 14.8002 18.5647L15.8002 20.2968C16.0073 20.6555 16.466 20.7784 16.8247 20.5713C17.1834 20.3642 17.3063 19.9055 17.0992 19.5468L16.0992 17.8147Z" fill="#23262A"/>
</svg>
