<svg width="24" height="24" viewBox="0 0 24 24" fill="none" xmlns="http://www.w3.org/2000/svg">
<path fill-rule="evenodd" clip-rule="evenodd" d="M3 4.25C2.58579 4.25 2.25 4.58579 2.25 5V7C2.25 7.41421 2.58579 7.75 3 7.75H5C5.41421 7.75 5.75 7.41421 5.75 7V5C5.75 4.58579 5.41421 4.25 5 4.25H3ZM3.75 6.25V5.75H4.25V6.25H3.75ZM3 10.25C2.58579 10.25 2.25 10.5858 2.25 11V13C2.25 13.4142 2.58579 13.75 3 13.75H5C5.41421 13.75 5.75 13.4142 5.75 13V11C5.75 10.5858 5.41421 10.25 5 10.25H3ZM3.75 12.25V11.75H4.25V12.25H3.75ZM2.25 17C2.25 16.5858 2.58579 16.25 3 16.25H5C5.41421 16.25 5.75 16.5858 5.75 17V19C5.75 19.4142 5.41421 19.75 5 19.75H3C2.58579 19.75 2.25 19.4142 2.25 19V17ZM3.75 17.75V18.25H4.25V17.75H3.75ZM8 17.25C7.58579 17.25 7.25 17.5858 7.25 18C7.25 18.4142 7.58579 18.75 8 18.75H21C21.4142 18.75 21.75 18.4142 21.75 18C21.75 17.5858 21.4142 17.25 21 17.25H8ZM7.25 12C7.25 11.5858 7.58579 11.25 8 11.25H21C21.4142 11.25 21.75 11.5858 21.75 12C21.75 12.4142 21.4142 12.75 21 12.75H8C7.58579 12.75 7.25 12.4142 7.25 12ZM8 5.25C7.58579 5.25 7.25 5.58579 7.25 6C7.25 6.41421 7.58579 6.75 8 6.75H21C21.4142 6.75 21.75 6.41421 21.75 6C21.75 5.58579 21.4142 5.25 21 5.25H8Z" fill="#262626"/>
</svg>
