<svg width="24" height="24" viewBox="0 0 24 24" fill="none" xmlns="http://www.w3.org/2000/svg">
<path fill-rule="evenodd" clip-rule="evenodd" d="M7.58075 5.58058C10.0215 3.13981 13.9788 3.13981 16.4196 5.58058C18.829 7.98999 18.7208 11.7547 16.3826 14.4592C15.8985 15.0192 14.6522 16.5427 13.5371 17.9135C12.9773 18.6017 12.4472 19.2555 12.0572 19.7371L12.0002 19.8075L11.9432 19.7371C11.5531 19.2555 11.0231 18.6017 10.4633 17.9135C9.34813 16.5427 8.1019 15.0192 7.61778 14.4592C5.27952 11.7547 5.17135 7.98999 7.58075 5.58058ZM12.0002 21C12.5836 21.4713 12.5836 21.4713 12.5837 21.4712L12.0002 21ZM11.4167 21.4712L11.416 21.4704L11.2433 21.2567C11.1321 21.1193 10.9723 20.9217 10.7775 20.6811C10.3879 20.2 9.85856 19.5472 9.29965 18.8601C8.17735 17.4805 6.9487 15.9788 6.48307 15.4403C3.72084 12.2453 3.46216 7.57786 6.52009 4.51992C9.54666 1.49336 14.4537 1.49336 17.4802 4.51992C20.5382 7.57786 20.2795 12.2453 17.5173 15.4403C17.0516 15.9788 15.823 17.4805 14.7007 18.8601C14.1418 19.5472 13.6125 20.2 13.2229 20.6811C13.0281 20.9217 12.8682 21.1193 12.7571 21.2567L12.5837 21.4712C12.4413 21.6475 12.2268 21.75 12.0002 21.75C11.7736 21.75 11.5591 21.6475 11.4167 21.4712ZM12.0002 21L11.4167 21.4712C11.4167 21.4713 11.4168 21.4713 12.0002 21ZM9.75 10C9.75 8.75736 10.7574 7.75 12 7.75C13.2426 7.75 14.25 8.75736 14.25 10C14.25 11.2426 13.2426 12.25 12 12.25C10.7574 12.25 9.75 11.2426 9.75 10ZM12 6.25C9.92893 6.25 8.25 7.92893 8.25 10C8.25 12.0711 9.92893 13.75 12 13.75C14.0711 13.75 15.75 12.0711 15.75 10C15.75 7.92893 14.0711 6.25 12 6.25Z" fill="#23262A"/>
</svg>
