<svg width="24" height="24" viewBox="0 0 24 24" fill="none" xmlns="http://www.w3.org/2000/svg">
<path d="M10.5 3.25C14.5041 3.25 17.75 6.49594 17.75 10.5C17.75 12.2317 17.1429 13.8215 16.1299 15.0684L21.542 20.4805C21.8345 20.7734 21.8347 21.2482 21.542 21.541C21.2492 21.8338 20.7744 21.8335 20.4814 21.541L15.0693 16.1289C13.8224 17.1424 12.2321 17.75 10.5 17.75C6.49594 17.75 3.25 14.5041 3.25 10.5C3.25 6.49594 6.49594 3.25 10.5 3.25ZM13.2803 8.71973C12.9874 8.42683 12.5126 8.42683 12.2197 8.71973L9.75 11.1895L8.78027 10.2197C8.48738 9.92683 8.01262 9.92683 7.71973 10.2197C7.42683 10.5126 7.42683 10.9874 7.71973 11.2803L9.21973 12.7803C9.51262 13.0732 9.98738 13.0732 10.2803 12.7803L13.2803 9.78027C13.5732 9.48738 13.5732 9.01262 13.2803 8.71973Z" fill="#202733"/>
</svg>
