<svg width="24" height="24" viewBox="0 0 24 24" fill="none" xmlns="http://www.w3.org/2000/svg">
<path d="M10.5 3.25C14.5041 3.25 17.75 6.49594 17.75 10.5C17.75 12.2319 17.1431 13.8224 16.1299 15.0693L21.541 20.4805C21.8336 20.7734 21.8338 21.2482 21.541 21.541C21.2482 21.8338 20.7734 21.8336 20.4805 21.541L15.0693 16.1299C13.8224 17.1431 12.2319 17.75 10.5 17.75C6.49594 17.75 3.25 14.5041 3.25 10.5C3.25 6.49594 6.49594 3.25 10.5 3.25ZM10.5 4.75C7.32436 4.75 4.75 7.32436 4.75 10.5C4.75 13.6756 7.32436 16.25 10.5 16.25C13.6756 16.25 16.25 13.6756 16.25 10.5C16.25 7.32436 13.6756 4.75 10.5 4.75ZM12.2197 8.71973C12.5126 8.42683 12.9874 8.42683 13.2803 8.71973C13.5732 9.01262 13.5732 9.48738 13.2803 9.78027L10.2803 12.7803C9.98738 13.0732 9.51262 13.0732 9.21973 12.7803L7.71973 11.2803C7.42683 10.9874 7.42683 10.5126 7.71973 10.2197C8.01262 9.92683 8.48738 9.92683 8.78027 10.2197L9.75 11.1895L12.2197 8.71973Z" fill="#202733"/>
</svg>
