<svg xmlns="http://www.w3.org/2000/svg" width="24" height="24" viewBox="0 0 24 24" fill="none">
  <path fill-rule="evenodd" clip-rule="evenodd" d="M14.124 2.26074C14.4074 2.30816 14.6436 2.515 14.7227 2.79883L15.4033 5.25H17.2959C17.3991 4.95923 17.6738 4.75 18 4.75C18.4142 4.75 18.75 5.08579 18.75 5.5V6.5C18.75 6.91421 18.4142 7.25 18 7.25C17.6738 7.25 17.3991 7.04077 17.2959 6.75H15.8193L16.2363 8.25H19.25V7.5C19.25 7.08579 19.5858 6.75 20 6.75C20.4142 6.75 20.75 7.08579 20.75 7.5V10.5C20.75 10.9142 20.4142 11.25 20 11.25C19.5858 11.25 19.25 10.9142 19.25 10.5V9.75H16.6533L19.7227 20.7988C19.8335 21.1978 19.6 21.6116 19.2012 21.7227C18.8022 21.8335 18.3884 21.6 18.2773 21.2012L17.874 19.75H6.12598L5.72266 21.2012C5.61163 21.6 5.1978 21.8335 4.79883 21.7227C4.39997 21.6116 4.16652 21.1978 4.27734 20.7988L7.3457 9.75H4.75V10.5C4.75 10.9142 4.41421 11.25 4 11.25C3.58579 11.25 3.25 10.9142 3.25 10.5V7.5C3.25 7.08579 3.58579 6.75 4 6.75C4.41421 6.75 4.75 7.08579 4.75 7.5V8.25H7.7627L8.17969 6.75H6.7041C6.60086 7.04077 6.32618 7.25 6 7.25C5.58579 7.25 5.25 6.91421 5.25 6.5V5.5C5.25 5.08579 5.58579 4.75 6 4.75C6.32617 4.75 6.60086 4.95923 6.7041 5.25H8.59668L9.27734 2.79883L9.32031 2.68262C9.44186 2.42204 9.70514 2.25 10 2.25H14L14.124 2.26074ZM6.54199 18.25H10.4697L9.23438 14.75H7.51465L6.54199 18.25ZM13.5303 18.25H17.458L16.4854 14.75H14.7656L13.5303 18.25ZM12 18.0801L13.1748 14.75H10.8242L12 18.0801ZM7.93066 13.25H8.7041L8.27148 12.0234L7.93066 13.25ZM10.2949 13.25H13.7041L14.9395 9.75H9.05957L10.2949 13.25ZM15.2949 13.25H16.0684L15.7275 12.0234L15.2949 13.25ZM9.31934 8.25H14.6797L14.2627 6.75H9.73633L9.31934 8.25ZM10.1533 5.25H13.8467L13.4297 3.75H10.5703L10.1533 5.25Z" fill="#202733"/>
</svg>