<svg width="24" height="24" viewBox="0 0 24 24" fill="none" xmlns="http://www.w3.org/2000/svg">
<path fill-rule="evenodd" clip-rule="evenodd" d="M9.25 11C9.25 6.71979 12.7198 3.25 17 3.25H19C19.9665 3.25 20.75 4.0335 20.75 5V15C20.75 15.9665 19.9665 16.75 19 16.75H11C10.0335 16.75 9.25 15.9665 9.25 15V11ZM15 8.75C14.3096 8.75 13.75 9.30964 13.75 10C13.75 10.6904 14.3096 11.25 15 11.25C15.6904 11.25 16.25 10.6904 16.25 10C16.25 9.30964 15.6904 8.75 15 8.75ZM12.25 10C12.25 8.48122 13.4812 7.25 15 7.25C16.5188 7.25 17.75 8.48122 17.75 10C17.75 11.5188 16.5188 12.75 15 12.75C13.4812 12.75 12.25 11.5188 12.25 10ZM4 10.75C4.41421 10.75 4.75 11.0858 4.75 11.5V13C4.75 13.1381 4.86193 13.25 5 13.25H8C8.41421 13.25 8.75 13.5858 8.75 14C8.75 14.4142 8.41421 14.75 8 14.75H5C4.0335 14.75 3.25 13.9665 3.25 13V11.5C3.25 11.0858 3.58579 10.75 4 10.75ZM4 18.25C3.58579 18.25 3.25 18.5858 3.25 19C3.25 19.4142 3.58579 19.75 4 19.75H6.5C6.91421 19.75 7.25 19.4142 7.25 19C7.25 18.5858 6.91421 18.25 6.5 18.25H4ZM8.5 18.25C8.08579 18.25 7.75 18.5858 7.75 19C7.75 19.4142 8.08579 19.75 8.5 19.75H11C11.4142 19.75 11.75 19.4142 11.75 19C11.75 18.5858 11.4142 18.25 11 18.25H8.5ZM12.25 19C12.25 18.5858 12.5858 18.25 13 18.25H15.5C15.9142 18.25 16.25 18.5858 16.25 19C16.25 19.4142 15.9142 19.75 15.5 19.75H13C12.5858 19.75 12.25 19.4142 12.25 19ZM17.5 18.25C17.0858 18.25 16.75 18.5858 16.75 19C16.75 19.4142 17.0858 19.75 17.5 19.75H20C20.4142 19.75 20.75 19.4142 20.75 19C20.75 18.5858 20.4142 18.25 20 18.25H17.5Z" fill="#23262A"/>
</svg>
