<svg width="24" height="24" viewBox="0 0 24 24" fill="none" xmlns="http://www.w3.org/2000/svg">
<path fill-rule="evenodd" clip-rule="evenodd" d="M7 2.25C6.58579 2.25 6.25 2.58579 6.25 3V6C6.25 6.41421 6.58579 6.75 7 6.75H7.25V7.75H6C5.58579 7.75 5.25 8.08579 5.25 8.5V21C5.25 21.4142 5.58579 21.75 6 21.75H18C18.4142 21.75 18.75 21.4142 18.75 21V8.5C18.75 8.08579 18.4142 7.75 18 7.75H16.75V6.75H17C17.4142 6.75 17.75 6.41421 17.75 6V3C17.75 2.58579 17.4142 2.25 17 2.25H7ZM16 5.25H16.25V3.75H7.75V5.25H8H16ZM15.25 6.75V7.75H8.75V6.75H15.25ZM16 9.25H8H6.75V20.25H17.25V9.25H16ZM9.75 11.5C9.75 11.0858 10.0858 10.75 10.5 10.75H13.5C13.9142 10.75 14.25 11.0858 14.25 11.5V12.75H15.5C15.9142 12.75 16.25 13.0858 16.25 13.5V16.5C16.25 16.9142 15.9142 17.25 15.5 17.25H14.25V18.5C14.25 18.9142 13.9142 19.25 13.5 19.25H10.5C10.0858 19.25 9.75 18.9142 9.75 18.5V17.25H8.5C8.08579 17.25 7.75 16.9142 7.75 16.5V13.5C7.75 13.0858 8.08579 12.75 8.5 12.75H9.75V11.5ZM11.25 12.25V13.5C11.25 13.9142 10.9142 14.25 10.5 14.25H9.25V15.75H10.5C10.9142 15.75 11.25 16.0858 11.25 16.5V17.75H12.75V16.5C12.75 16.0858 13.0858 15.75 13.5 15.75H14.75V14.25H13.5C13.0858 14.25 12.75 13.9142 12.75 13.5V12.25H11.25Z" fill="#23262A"/>
</svg>
