<svg width="24" height="24" viewBox="0 0 24 24" fill="none" xmlns="http://www.w3.org/2000/svg">
<path fill-rule="evenodd" clip-rule="evenodd" d="M6.25 3C6.25 2.58579 6.58579 2.25 7 2.25H17C17.4142 2.25 17.75 2.58579 17.75 3V6C17.75 6.41421 17.4142 6.75 17 6.75H16.75V7.75H18C18.4142 7.75 18.75 8.08579 18.75 8.5V21C18.75 21.4142 18.4142 21.75 18 21.75H6C5.58579 21.75 5.25 21.4142 5.25 21V8.5C5.25 8.08579 5.58579 7.75 6 7.75H7.25V6.75H7C6.58579 6.75 6.25 6.41421 6.25 6V3ZM16.25 3.75V5.25H7.75V3.75H16.25ZM15.25 7.75V6.75H8.75V7.75H15.25ZM6.75 20.25V9.25H17.25V20.25H6.75ZM10.5 10.75C10.0858 10.75 9.75 11.0858 9.75 11.5V12.75H8.5C8.08579 12.75 7.75 13.0858 7.75 13.5V16.5C7.75 16.9142 8.08579 17.25 8.5 17.25H9.75V18.5C9.75 18.9142 10.0858 19.25 10.5 19.25H13.5C13.9142 19.25 14.25 18.9142 14.25 18.5V17.25H15.5C15.9142 17.25 16.25 16.9142 16.25 16.5V13.5C16.25 13.0858 15.9142 12.75 15.5 12.75H14.25V11.5C14.25 11.0858 13.9142 10.75 13.5 10.75H10.5ZM11.25 13.5V12.25H12.75V13.5C12.75 13.9142 13.0858 14.25 13.5 14.25H14.75V15.75H13.5C13.0858 15.75 12.75 16.0858 12.75 16.5V17.75H11.25V16.5C11.25 16.0858 10.9142 15.75 10.5 15.75H9.25V14.25H10.5C10.9142 14.25 11.25 13.9142 11.25 13.5Z" fill="#23262A"/>
</svg>
