<svg width="24" height="24" viewBox="0 0 24 24" fill="none" xmlns="http://www.w3.org/2000/svg">
<path fill-rule="evenodd" clip-rule="evenodd" d="M15.7626 3.17678C16.446 2.49336 17.554 2.49336 18.2374 3.17678L20.8232 5.76257C21.5066 6.44598 21.5066 7.55402 20.8232 8.23744L13.409 15.6517C12.7057 16.3549 11.7519 16.75 10.7574 16.75H8.31066L7.03033 18.0303C6.73744 18.3232 6.26256 18.3232 5.96967 18.0303C5.67678 17.7374 5.67678 17.2626 5.96967 16.9697L7.25 15.6893V13.2426C7.25 12.2481 7.64509 11.2943 8.34835 10.591L15.7626 3.17678ZM17.1768 4.23744C17.0791 4.13981 16.9209 4.13981 16.8232 4.23744L9.40901 11.6517C8.98705 12.0736 8.75 12.6459 8.75 13.2426V15.25H10.7574C11.3541 15.25 11.9264 15.0129 12.3483 14.591L19.7626 7.17678C19.8602 7.07915 19.8602 6.92086 19.7626 6.82323L17.1768 4.23744ZM17.0303 6.96967C17.3232 7.26256 17.3232 7.73744 17.0303 8.03033L14.0303 11.0303C13.7374 11.3232 13.2626 11.3232 12.9697 11.0303C12.6768 10.7374 12.6768 10.2626 12.9697 9.96967L15.9697 6.96967C16.2626 6.67678 16.7374 6.67678 17.0303 6.96967ZM5.03033 18.9697C5.32322 19.2626 5.32322 19.7374 5.03033 20.0303L4.03033 21.0303C3.73744 21.3232 3.26256 21.3232 2.96967 21.0303C2.67678 20.7374 2.67678 20.2626 2.96967 19.9697L3.96967 18.9697C4.26256 18.6768 4.73744 18.6768 5.03033 18.9697Z" fill="#23262A"/>
</svg>
