<svg width="24" height="24" viewBox="0 0 24 24" fill="none" xmlns="http://www.w3.org/2000/svg">
<path fill-rule="evenodd" clip-rule="evenodd" d="M7 2.25C6.58579 2.25 6.25 2.58579 6.25 3V6C6.25 6.41421 6.58579 6.75 7 6.75H7.25V7.75H6C5.58579 7.75 5.25 8.08579 5.25 8.5V21C5.25 21.4142 5.58579 21.75 6 21.75H18C18.4142 21.75 18.75 21.4142 18.75 21V8.5C18.75 8.08579 18.4142 7.75 18 7.75H16.75V6.75H17C17.4142 6.75 17.75 6.41421 17.75 6V3C17.75 2.58579 17.4142 2.25 17 2.25H7ZM15.25 7.75V6.75H8.75V7.75H15.25ZM13.25 11.5H10.75C10.6119 11.5 10.5 11.6119 10.5 11.75V13.25C10.5 13.3881 10.3881 13.5 10.25 13.5H8.75C8.61193 13.5 8.5 13.6119 8.5 13.75V16.25C8.5 16.3881 8.61193 16.5 8.75 16.5H10.25C10.3881 16.5 10.5 16.6119 10.5 16.75V18.25C10.5 18.3881 10.6119 18.5 10.75 18.5H13.25C13.3881 18.5 13.5 18.3881 13.5 18.25V16.75C13.5 16.6119 13.6119 16.5 13.75 16.5H15.25C15.3881 16.5 15.5 16.3881 15.5 16.25V13.75C15.5 13.6119 15.3881 13.5 15.25 13.5H13.75C13.6119 13.5 13.5 13.3881 13.5 13.25V11.75C13.5 11.6119 13.3881 11.5 13.25 11.5Z" fill="#23262A"/>
</svg>
