<svg width="24" height="24" viewBox="0 0 24 24" fill="none" xmlns="http://www.w3.org/2000/svg">
<path fill-rule="evenodd" clip-rule="evenodd" d="M18.2374 3.17687C17.554 2.49345 16.446 2.49345 15.7626 3.17687L8.34835 10.5911C7.64509 11.2943 7.25 12.2482 7.25 13.2427V15.6893L5.96967 16.9697C5.67678 17.2626 5.67678 17.7374 5.96967 18.0303C6.26256 18.3232 6.73744 18.3232 7.03033 18.0303L8.31057 16.7501H10.7574C11.7519 16.7501 12.7057 16.355 13.409 15.6517L20.8232 8.23753C21.5066 7.55411 21.5066 6.44608 20.8232 5.76266L18.2374 3.17687ZM17.0303 8.03033C17.3232 7.73744 17.3232 7.26256 17.0303 6.96967C16.7374 6.67678 16.2626 6.67678 15.9697 6.96967L12.9697 9.96967C12.6768 10.2626 12.6768 10.7374 12.9697 11.0303C13.2626 11.3232 13.7374 11.3232 14.0303 11.0303L17.0303 8.03033ZM5.03033 20.0303C5.32322 19.7374 5.32322 19.2626 5.03033 18.9697C4.73744 18.6768 4.26256 18.6768 3.96967 18.9697L2.96967 19.9697C2.67678 20.2626 2.67678 20.7374 2.96967 21.0303C3.26256 21.3232 3.73744 21.3232 4.03033 21.0303L5.03033 20.0303Z" fill="#23262A"/>
</svg>
