<svg width="24" height="24" viewBox="0 0 24 24" fill="none" xmlns="http://www.w3.org/2000/svg">
<path fill-rule="evenodd" clip-rule="evenodd" d="M5.99998 4.75C5.41856 4.75 4.92812 5.14765 4.78931 5.68694C4.68607 6.08808 4.27718 6.32957 3.87604 6.22633C3.4749 6.12308 3.23341 5.7142 3.33666 5.31306C3.6419 4.12712 4.71756 3.25 5.99998 3.25C7.2824 3.25 8.35806 4.12712 8.6633 5.31306C8.76654 5.7142 8.52505 6.12308 8.12391 6.22633C7.72277 6.32957 7.31389 6.08808 7.21064 5.68694C7.07184 5.14765 6.5814 4.75 5.99998 4.75ZM2.25 8C2.25 7.58579 2.58579 7.25 3 7.25H21C21.4142 7.25 21.75 7.58579 21.75 8V16C21.75 16.4142 21.4142 16.75 21 16.75H3C2.58579 16.75 2.25 16.4142 2.25 16V8ZM3.75 8.75V15.25H20.25V8.75H3.75ZM10.7893 5.68694C10.9281 5.14765 11.4186 4.75 12 4.75C12.5814 4.75 13.0718 5.14765 13.2106 5.68694C13.3139 6.08808 13.7228 6.32957 14.1239 6.22633C14.5251 6.12308 14.7665 5.7142 14.6633 5.31306C14.3581 4.12712 13.2824 3.25 12 3.25C10.7176 3.25 9.6419 4.12712 9.33666 5.31306C9.23341 5.7142 9.4749 6.12308 9.87604 6.22633C10.2772 6.32957 10.6861 6.08808 10.7893 5.68694ZM18 4.75C17.4186 4.75 16.9281 5.14765 16.7893 5.68694C16.6861 6.08808 16.2772 6.32957 15.876 6.22633C15.4749 6.12308 15.2334 5.7142 15.3367 5.31306C15.6419 4.12712 16.7176 3.25 18 3.25C19.2824 3.25 20.3581 4.12712 20.6633 5.31306C20.7665 5.7142 20.5251 6.12308 20.1239 6.22633C19.7228 6.32957 19.3139 6.08808 19.2106 5.68694C19.0718 5.14765 18.5814 4.75 18 4.75ZM4.78931 18.3131C4.68607 17.9119 4.27718 17.6704 3.87604 17.7737C3.4749 17.8769 3.23341 18.2858 3.33666 18.6869C3.6419 19.8729 4.71756 20.75 5.99998 20.75C7.2824 20.75 8.35806 19.8729 8.6633 18.6869C8.76654 18.2858 8.52505 17.8769 8.12391 17.7737C7.72277 17.6704 7.31389 17.9119 7.21064 18.3131C7.07184 18.8523 6.5814 19.25 5.99998 19.25C5.41856 19.25 4.92812 18.8523 4.78931 18.3131ZM9.87604 17.7737C10.2772 17.6704 10.6861 17.9119 10.7893 18.3131C10.9281 18.8523 11.4186 19.25 12 19.25C12.5814 19.25 13.0718 18.8523 13.2106 18.3131C13.3139 17.9119 13.7228 17.6704 14.1239 17.7737C14.5251 17.8769 14.7665 18.2858 14.6633 18.6869C14.3581 19.8729 13.2824 20.75 12 20.75C10.7176 20.75 9.6419 19.8729 9.33666 18.6869C9.23341 18.2858 9.4749 17.8769 9.87604 17.7737ZM16.7893 18.3131C16.6861 17.9119 16.2772 17.6704 15.876 17.7737C15.4749 17.8769 15.2334 18.2858 15.3367 18.6869C15.6419 19.8729 16.7176 20.75 18 20.75C19.2824 20.75 20.3581 19.8729 20.6633 18.6869C20.7665 18.2858 20.5251 17.8769 20.1239 17.7737C19.7228 17.6704 19.3139 17.9119 19.2106 18.3131C19.0718 18.8523 18.5814 19.25 18 19.25C17.4186 19.25 16.9281 18.8523 16.7893 18.3131Z" fill="#23262A"/>
</svg>
