<svg width="24" height="24" viewBox="0 0 24 24" fill="none" xmlns="http://www.w3.org/2000/svg">
<path fill-rule="evenodd" clip-rule="evenodd" d="M10.7895 5.68694C10.9283 5.14765 11.4187 4.75 12.0002 4.75C12.5816 4.75 13.072 5.14765 13.2108 5.68694C13.3141 6.08808 13.723 6.32957 14.1241 6.22633C14.5252 6.12308 14.7667 5.7142 14.6635 5.31306C14.3582 4.12712 13.2826 3.25 12.0002 3.25C10.7177 3.25 9.64208 4.12712 9.33684 5.31306C9.2336 5.7142 9.47509 6.12308 9.87623 6.22633C10.2774 6.32957 10.6863 6.08808 10.7895 5.68694ZM4.25 8C4.25 7.58579 4.58579 7.25 5 7.25H19C19.4142 7.25 19.75 7.58579 19.75 8V16C19.75 16.4142 19.4142 16.75 19 16.75H5C4.58579 16.75 4.25 16.4142 4.25 16V8ZM9.87623 17.7736C10.2774 17.6704 10.6863 17.9119 10.7895 18.313C10.9283 18.8523 11.4187 19.2499 12.0002 19.2499C12.5816 19.2499 13.072 18.8523 13.2108 18.313C13.3141 17.9119 13.723 17.6704 14.1241 17.7736C14.5252 17.8769 14.7667 18.2857 14.6635 18.6869C14.3582 19.8728 13.2826 20.7499 12.0002 20.7499C10.7177 20.7499 9.64208 19.8728 9.33684 18.6869C9.2336 18.2857 9.47509 17.8769 9.87623 17.7736Z" fill="#23262A"/>
</svg>
