<svg width="24" height="24" viewBox="0 0 24 24" fill="none" xmlns="http://www.w3.org/2000/svg">
<path fill-rule="evenodd" clip-rule="evenodd" d="M10.7893 5.68694C10.9281 5.14765 11.4186 4.75 12 4.75C12.5814 4.75 13.0718 5.14765 13.2106 5.68694C13.3139 6.08808 13.7228 6.32957 14.1239 6.22633C14.5251 6.12308 14.7665 5.7142 14.6633 5.31306C14.3581 4.12712 13.2824 3.25 12 3.25C10.7176 3.25 9.6419 4.12712 9.33666 5.31306C9.23341 5.7142 9.4749 6.12308 9.87604 6.22633C10.2772 6.32957 10.6861 6.08808 10.7893 5.68694ZM4.25 8C4.25 7.58579 4.58579 7.25 5 7.25H19C19.4142 7.25 19.75 7.58579 19.75 8V16C19.75 16.4142 19.4142 16.75 19 16.75H5C4.58579 16.75 4.25 16.4142 4.25 16V8ZM5.75 8.75V15.25H18.25V8.75H5.75ZM9.87604 17.7737C10.2772 17.6704 10.6861 17.9119 10.7893 18.3131C10.9281 18.8523 11.4186 19.25 12 19.25C12.5814 19.25 13.0718 18.8523 13.2106 18.3131C13.3139 17.9119 13.7228 17.6704 14.1239 17.7737C14.5251 17.8769 14.7665 18.2858 14.6633 18.6869C14.3581 19.8729 13.2824 20.75 12 20.75C10.7176 20.75 9.6419 19.8729 9.33666 18.6869C9.23341 18.2858 9.4749 17.8769 9.87604 17.7737Z" fill="#23262A"/>
</svg>
