<svg width="24" height="24" viewBox="0 0 24 24" fill="none" xmlns="http://www.w3.org/2000/svg">
<path fill-rule="evenodd" clip-rule="evenodd" d="M6.00016 4.75C5.41874 4.75 4.9283 5.14765 4.7895 5.68694C4.68625 6.08808 4.27737 6.32957 3.87623 6.22633C3.47509 6.12308 3.2336 5.7142 3.33684 5.31306C3.64208 4.12712 4.71774 3.25 6.00016 3.25C7.28258 3.25 8.35824 4.12712 8.66348 5.31306C8.76673 5.7142 8.52524 6.12308 8.1241 6.22633C7.72296 6.32957 7.31407 6.08808 7.21082 5.68694C7.07202 5.14765 6.58158 4.75 6.00016 4.75ZM2.25 8C2.25 7.58579 2.58579 7.25 3 7.25H21C21.4142 7.25 21.75 7.58579 21.75 8V16C21.75 16.4142 21.4142 16.75 21 16.75H3C2.58579 16.75 2.25 16.4142 2.25 16V8ZM10.7895 5.68694C10.9283 5.14765 11.4187 4.75 12.0002 4.75C12.5816 4.75 13.072 5.14765 13.2108 5.68694C13.3141 6.08808 13.723 6.32957 14.1241 6.22633C14.5252 6.12308 14.7667 5.7142 14.6635 5.31306C14.3582 4.12712 13.2826 3.25 12.0002 3.25C10.7177 3.25 9.64208 4.12712 9.33684 5.31306C9.2336 5.7142 9.47509 6.12308 9.87623 6.22633C10.2774 6.32957 10.6863 6.08808 10.7895 5.68694ZM18.0002 4.75C17.4187 4.75 16.9283 5.14765 16.7895 5.68694C16.6863 6.08808 16.2774 6.32957 15.8762 6.22633C15.4751 6.12308 15.2336 5.7142 15.3368 5.31306C15.6421 4.12712 16.7177 3.25 18.0002 3.25C19.2826 3.25 20.3582 4.12712 20.6635 5.31306C20.7667 5.7142 20.5252 6.12308 20.1241 6.22633C19.723 6.32957 19.3141 6.08808 19.2108 5.68694C19.072 5.14765 18.5816 4.75 18.0002 4.75ZM4.7895 18.313C4.68625 17.9119 4.27737 17.6704 3.87623 17.7736C3.47509 17.8769 3.2336 18.2857 3.33684 18.6869C3.64208 19.8728 4.71774 20.7499 6.00016 20.7499C7.28258 20.7499 8.35824 19.8728 8.66348 18.6869C8.76673 18.2857 8.52524 17.8769 8.1241 17.7736C7.72296 17.6704 7.31407 17.9119 7.21082 18.313C7.07202 18.8523 6.58158 19.2499 6.00016 19.2499C5.41874 19.2499 4.9283 18.8523 4.7895 18.313ZM9.87623 17.7736C10.2774 17.6704 10.6863 17.9119 10.7895 18.313C10.9283 18.8523 11.4187 19.2499 12.0002 19.2499C12.5816 19.2499 13.072 18.8523 13.2108 18.313C13.3141 17.9119 13.723 17.6704 14.1241 17.7736C14.5252 17.8769 14.7667 18.2857 14.6635 18.6869C14.3582 19.8728 13.2826 20.7499 12.0002 20.7499C10.7177 20.7499 9.64208 19.8728 9.33684 18.6869C9.2336 18.2857 9.47509 17.8769 9.87623 17.7736ZM16.7895 18.313C16.6863 17.9119 16.2774 17.6704 15.8762 17.7736C15.4751 17.8769 15.2336 18.2857 15.3368 18.6869C15.6421 19.8728 16.7177 20.7499 18.0002 20.7499C19.2826 20.7499 20.3582 19.8728 20.6635 18.6869C20.7667 18.2857 20.5252 17.8769 20.1241 17.7736C19.723 17.6704 19.3141 17.9119 19.2108 18.313C19.072 18.8523 18.5816 19.2499 18.0002 19.2499C17.4187 19.2499 16.9283 18.8523 16.7895 18.313Z" fill="#23262A"/>
</svg>
