<svg width="24" height="24" viewBox="0 0 24 24" fill="none" xmlns="http://www.w3.org/2000/svg">
<path fill-rule="evenodd" clip-rule="evenodd" d="M17.787 5.30708C18.0673 5.42317 18.25 5.69664 18.25 5.99999V18C18.25 18.3033 18.0673 18.5768 17.787 18.6929C17.5068 18.809 17.1842 18.7448 16.9697 18.5303L16.3553 17.9159C15.2461 16.8067 13.807 16.0872 12.2541 15.8653L12.25 15.8647V19C12.25 19.4142 11.9142 19.75 11.5 19.75H9.5C9.08579 19.75 8.75 19.4142 8.75 19V15.675C7.03832 15.3275 5.75 13.8142 5.75 12C5.75 9.92892 7.42893 8.24999 9.5 8.24999H11.0672C11.3199 8.24999 11.5722 8.23206 11.8224 8.19633L12.2541 8.13465C13.807 7.91281 15.2461 7.19327 16.3553 6.08404L16.75 6.47876L16.3553 6.08404L16.9697 5.46966C17.1842 5.25516 17.5068 5.191 17.787 5.30708ZM10.75 14.25V9.74999H9.5C8.25736 9.74999 7.25 10.7574 7.25 12C7.25 13.2426 8.25736 14.25 9.5 14.25H10.75ZM12.4662 14.3804L12.25 14.3495V9.65046L12.4662 9.61958C14.0432 9.3943 15.5229 8.74377 16.75 7.74564V16.2543C15.5229 15.2562 14.0432 14.6057 12.4662 14.3804ZM10.25 15.75V18.25H10.75V15.75H10.25Z" fill="#262626"/>
</svg>
