<svg width="24" height="24" viewBox="0 0 24 24" fill="none" xmlns="http://www.w3.org/2000/svg">
<path fill-rule="evenodd" clip-rule="evenodd" d="M17.787 5.30702C18.0673 5.42311 18.25 5.69658 18.25 5.99993V17.9999C18.25 18.3033 18.0673 18.5768 17.787 18.6928C17.5068 18.8089 17.1842 18.7448 16.9697 18.5303L16.3553 17.9159C15.2461 16.8067 13.807 16.0871 12.2541 15.8653L12.25 15.8647V19C12.25 19.4142 11.9142 19.75 11.5 19.75H9.5C9.08579 19.75 8.75 19.4142 8.75 19V15.6749C7.03832 15.3275 5.75 13.8141 5.75 11.9999C5.75 9.92886 7.42893 8.24993 9.5 8.24993H11.0672C11.3199 8.24993 11.5722 8.232 11.8224 8.19626L12.2541 8.13459C13.807 7.91275 15.2461 7.19321 16.3553 6.08398L16.9697 5.4696C17.1842 5.2551 17.5068 5.19093 17.787 5.30702ZM9.5 14.25L10.75 14.2499V9.74993H9.5C8.25736 9.74993 7.25 10.7573 7.25 11.9999C7.25 13.2426 8.25736 14.25 9.5 14.25ZM12.4662 14.3803L12.25 14.3495V9.6504L12.4662 9.61952C14.0432 9.39423 15.5229 8.74371 16.75 7.74558V16.2543C15.5229 15.2562 14.0432 14.6056 12.4662 14.3803ZM10.25 15.75V18.25H10.75V15.75H10.25Z" fill="#23262A"/>
</svg>
