<svg width="24" height="24" viewBox="0 0 24 24" fill="none" xmlns="http://www.w3.org/2000/svg">
<path fill-rule="evenodd" clip-rule="evenodd" d="M18.25 6.00002C18.25 5.69668 18.0673 5.4232 17.787 5.30711C17.5068 5.19103 17.1842 5.25519 16.9697 5.46969L16.3553 6.08407C15.3006 7.13879 13.9303 7.84429 12.4638 8.10104C12.3414 8.12247 12.25 8.22741 12.25 8.35168V15.648C12.25 15.7724 12.3415 15.8774 12.4641 15.8987C13.9358 16.1545 15.2963 16.8569 16.3553 17.916L16.9697 18.5304C17.1842 18.7449 17.5068 18.809 17.787 18.6929C18.0673 18.5768 18.25 18.3034 18.25 18V6.00002ZM5.75 12C5.75 14.0711 7.42893 15.75 9.5 15.75H10.5C10.6381 15.75 10.75 15.6381 10.75 15.5V8.50002C10.75 8.36195 10.6381 8.25002 10.5 8.25002H9.5C7.42893 8.25002 5.75 9.92895 5.75 12ZM8.75 16.9839C8.75 16.8302 8.8874 16.7134 9.04039 16.7281C9.19164 16.7426 9.34495 16.75 9.5 16.75H11.0672C11.2726 16.75 11.4777 16.7646 11.6809 16.7936L12.1126 16.8553C12.192 16.8666 12.25 16.9353 12.25 17.0154V19C12.25 19.4142 11.9142 19.75 11.5 19.75H9.5C9.08579 19.75 8.75 19.4142 8.75 19V16.9839Z" fill="#23262A"/>
</svg>
