<svg width="24" height="24" viewBox="0 0 24 24" fill="none" xmlns="http://www.w3.org/2000/svg">
<path fill-rule="evenodd" clip-rule="evenodd" d="M19.0303 4.96967C19.3232 5.26256 19.3232 5.73744 19.0303 6.03033L17.5303 7.53033C17.2374 7.82322 16.7626 7.82322 16.4697 7.53033C16.1768 7.23744 16.1768 6.76256 16.4697 6.46967L17.9697 4.96967C18.2626 4.67678 18.7374 4.67678 19.0303 4.96967ZM14.287 5.30709C14.5673 5.42318 14.75 5.69665 14.75 6V18C14.75 18.3033 14.5673 18.5768 14.287 18.6929C14.0068 18.809 13.6842 18.7448 13.4697 18.5303L12.8553 17.9159C11.7461 16.8067 10.307 16.0872 8.75407 15.8653L8.75 15.8648V19C8.75 19.4142 8.41421 19.75 8 19.75H6C5.58579 19.75 5.25 19.4142 5.25 19V15.675C3.53832 15.3275 2.25 13.8142 2.25 12C2.25 9.92893 3.92893 8.25 6 8.25H7.56722C7.81989 8.25 8.07223 8.23207 8.32236 8.19633L8.75407 8.13466C10.307 7.91282 11.7461 7.19328 12.8553 6.08405L13.25 6.47876L12.8553 6.08405L13.4697 5.46967C13.6842 5.25517 14.0068 5.191 14.287 5.30709ZM6.75 15.75V18.25H7.25V15.75H6.75ZM7.25 14.25H6C4.75736 14.25 3.75 13.2426 3.75 12C3.75 10.7574 4.75736 9.75 6 9.75H7.25V14.25ZM8.75 14.3495L8.9662 14.3804C10.5432 14.6057 12.0229 15.2562 13.25 16.2543V7.74565C12.0229 8.74378 10.5432 9.3943 8.9662 9.61959L8.75 9.65047V14.3495ZM19 11.25C18.5858 11.25 18.25 11.5858 18.25 12C18.25 12.4142 18.5858 12.75 19 12.75H21C21.4142 12.75 21.75 12.4142 21.75 12C21.75 11.5858 21.4142 11.25 21 11.25H19ZM16.4697 16.4697C16.7626 16.1768 17.2374 16.1768 17.5303 16.4697L19.0303 17.9697C19.3232 18.2626 19.3232 18.7374 19.0303 19.0303C18.7374 19.3232 18.2626 19.3232 17.9697 19.0303L16.4697 17.5303C16.1768 17.2374 16.1768 16.7626 16.4697 16.4697Z" fill="#262626"/>
</svg>
