<svg width="24" height="24" viewBox="0 0 24 24" fill="none" xmlns="http://www.w3.org/2000/svg">
<path fill-rule="evenodd" clip-rule="evenodd" d="M19.0303 6.03033C19.3232 5.73744 19.3232 5.26256 19.0303 4.96967C18.7374 4.67678 18.2626 4.67678 17.9697 4.96967L16.4697 6.46967C16.1768 6.76256 16.1768 7.23744 16.4697 7.53033C16.7626 7.82322 17.2374 7.82322 17.5303 7.53033L19.0303 6.03033ZM14.287 5.30711C14.5673 5.4232 14.75 5.69668 14.75 6.00002V18C14.75 18.3034 14.5673 18.5768 14.287 18.6929C14.0068 18.809 13.6842 18.7449 13.4697 18.5304L12.8553 17.916C11.7963 16.8569 10.4358 16.1545 8.96408 15.8987C8.84154 15.8774 8.75 15.7724 8.75 15.648V8.35168C8.75 8.22741 8.84139 8.12247 8.96379 8.10104C10.4303 7.84429 11.8006 7.13879 12.8553 6.08407L13.4697 5.46969C13.6842 5.25519 14.0068 5.19103 14.287 5.30711ZM6 15.75C3.92893 15.75 2.25 14.0711 2.25 12C2.25 9.92895 3.92893 8.25002 6 8.25002H7C7.13807 8.25002 7.25 8.36195 7.25 8.50002V15.5C7.25 15.6381 7.13807 15.75 7 15.75H6ZM5.54039 16.7281C5.3874 16.7134 5.25 16.8302 5.25 16.9839V19C5.25 19.4142 5.58579 19.75 6 19.75H8C8.41421 19.75 8.75 19.4142 8.75 19V17.0154C8.75 16.9353 8.69202 16.8666 8.61265 16.8553L8.18094 16.7936C7.97766 16.7646 7.77257 16.75 7.56722 16.75H6C5.84495 16.75 5.69164 16.7426 5.54039 16.7281ZM18.25 12C18.25 11.5858 18.5858 11.25 19 11.25H21C21.4142 11.25 21.75 11.5858 21.75 12C21.75 12.4142 21.4142 12.75 21 12.75H19C18.5858 12.75 18.25 12.4142 18.25 12ZM17.5303 16.4697C17.2374 16.1768 16.7626 16.1768 16.4697 16.4697C16.1768 16.7626 16.1768 17.2374 16.4697 17.5303L17.9697 19.0303C18.2626 19.3232 18.7374 19.3232 19.0303 19.0303C19.3232 18.7374 19.3232 18.2626 19.0303 17.9697L17.5303 16.4697Z" fill="#23262A"/>
</svg>
