<svg width="24" height="24" viewBox="0 0 24 24" fill="none" xmlns="http://www.w3.org/2000/svg">
<path fill-rule="evenodd" clip-rule="evenodd" d="M2.75 6C2.75 5.58579 3.08579 5.25 3.5 5.25H20.5C20.9142 5.25 21.25 5.58579 21.25 6C21.25 6.41421 20.9142 6.75 20.5 6.75H3.5C3.08579 6.75 2.75 6.41421 2.75 6ZM2.75 12C2.75 11.5858 3.08579 11.25 3.5 11.25H20.5C20.9142 11.25 21.25 11.5858 21.25 12C21.25 12.4142 20.9142 12.75 20.5 12.75H3.5C3.08579 12.75 2.75 12.4142 2.75 12ZM3.5 17.25C3.08579 17.25 2.75 17.5858 2.75 18C2.75 18.4142 3.08579 18.75 3.5 18.75H20.5C20.9142 18.75 21.25 18.4142 21.25 18C21.25 17.5858 20.9142 17.25 20.5 17.25H3.5Z" fill="#23262A"/>
</svg>
