<svg width="24" height="24" viewBox="0 0 24 24" fill="none" xmlns="http://www.w3.org/2000/svg">
<path fill-rule="evenodd" clip-rule="evenodd" d="M4.25 5C4.25 4.58579 4.58579 4.25 5 4.25H6.5C6.91421 4.25 7.25 4.58579 7.25 5V6.5C7.25 6.91421 6.91421 7.25 6.5 7.25H5C4.58579 7.25 4.25 6.91421 4.25 6.5V5ZM4.25 11.25C4.25 10.8358 4.58579 10.5 5 10.5H6.5C6.91421 10.5 7.25 10.8358 7.25 11.25V12.75C7.25 13.1642 6.91421 13.5 6.5 13.5H5C4.58579 13.5 4.25 13.1642 4.25 12.75V11.25ZM5 16.75C4.58579 16.75 4.25 17.0858 4.25 17.5V19C4.25 19.4142 4.58579 19.75 5 19.75H6.5C6.91421 19.75 7.25 19.4142 7.25 19V17.5C7.25 17.0858 6.91421 16.75 6.5 16.75H5ZM10.5 5C10.5 4.58579 10.8358 4.25 11.25 4.25H12.75C13.1642 4.25 13.5 4.58579 13.5 5V6.5C13.5 6.91421 13.1642 7.25 12.75 7.25H11.25C10.8358 7.25 10.5 6.91421 10.5 6.5V5ZM11.25 10.5C10.8358 10.5 10.5 10.8358 10.5 11.25V12.75C10.5 13.1642 10.8358 13.5 11.25 13.5H12.75C13.1642 13.5 13.5 13.1642 13.5 12.75V11.25C13.5 10.8358 13.1642 10.5 12.75 10.5H11.25ZM10.5 17.5C10.5 17.0858 10.8358 16.75 11.25 16.75H12.75C13.1642 16.75 13.5 17.0858 13.5 17.5V19C13.5 19.4142 13.1642 19.75 12.75 19.75H11.25C10.8358 19.75 10.5 19.4142 10.5 19V17.5ZM17.5 4.25C17.0858 4.25 16.75 4.58579 16.75 5V6.5C16.75 6.91421 17.0858 7.25 17.5 7.25H19C19.4142 7.25 19.75 6.91421 19.75 6.5V5C19.75 4.58579 19.4142 4.25 19 4.25H17.5ZM16.75 11.25C16.75 10.8358 17.0858 10.5 17.5 10.5H19C19.4142 10.5 19.75 10.8358 19.75 11.25V12.75C19.75 13.1642 19.4142 13.5 19 13.5H17.5C17.0858 13.5 16.75 13.1642 16.75 12.75V11.25ZM17.5 16.75C17.0858 16.75 16.75 17.0858 16.75 17.5V19C16.75 19.4142 17.0858 19.75 17.5 19.75H19C19.4142 19.75 19.75 19.4142 19.75 19V17.5C19.75 17.0858 19.4142 16.75 19 16.75H17.5Z" fill="#23262A"/>
</svg>
