<svg width="24" height="24" viewBox="0 0 24 24" fill="none" xmlns="http://www.w3.org/2000/svg">
<path fill-rule="evenodd" clip-rule="evenodd" d="M11.25 3C11.25 2.58579 11.5858 2.25 12 2.25H12.01C12.4242 2.25 12.76 2.58579 12.76 3C12.76 3.41421 12.4242 3.75 12.01 3.75H12C11.5858 3.75 11.25 3.41421 11.25 3ZM12 6.75C9.1005 6.75 6.75 9.1005 6.75 12C6.75 14.8995 9.1005 17.25 12 17.25C14.8995 17.25 17.25 14.8995 17.25 12C17.25 9.1005 14.8995 6.75 12 6.75ZM5.25 12C5.25 8.27208 8.27208 5.25 12 5.25C15.7279 5.25 18.75 8.27208 18.75 12C18.75 15.7279 15.7279 18.75 12 18.75C8.27208 18.75 5.25 15.7279 5.25 12ZM8.8524 4.37406C9.23509 4.21555 9.41681 3.77682 9.2583 3.39414C9.09979 3.01145 8.66106 2.82973 8.27838 2.98824L8.26914 2.99207C7.88645 3.15058 7.70473 3.58931 7.86324 3.97199C8.02175 4.35467 8.46048 4.5364 8.84316 4.37789L8.8524 4.37406ZM6.17412 5.09833C6.46701 5.39123 6.46701 5.8661 6.17412 6.15899L6.16705 6.16606C5.87416 6.45896 5.39928 6.45896 5.10639 6.16606C4.8135 5.87317 4.8135 5.3983 5.10639 5.1054L5.11346 5.09833C5.40635 4.80544 5.88123 4.80544 6.17412 5.09833ZM3.9759 7.8536C3.59321 7.69508 3.15449 7.87681 2.99597 8.25949L2.99215 8.26873C2.83363 8.65142 3.01536 9.09014 3.39804 9.24866C3.78073 9.40717 4.21945 9.22544 4.37797 8.84276L4.38179 8.83352C4.54031 8.45084 4.35858 8.01211 3.9759 7.8536ZM3 11.24C3.41421 11.24 3.75 11.5758 3.75 11.99V12C3.75 12.4142 3.41421 12.75 3 12.75C2.58579 12.75 2.25 12.4142 2.25 12V11.99C2.25 11.5758 2.58579 11.24 3 11.24ZM4.37406 15.1478C4.21555 14.7651 3.77682 14.5834 3.39414 14.7419C3.01145 14.9004 2.82973 15.3391 2.98824 15.7218L2.99207 15.7311C3.15058 16.1137 3.58931 16.2955 3.97199 16.137C4.35467 15.9784 4.5364 15.5397 4.37789 15.157L4.37406 15.1478ZM5.09906 17.8266C5.39196 17.5337 5.86683 17.5337 6.15972 17.8266L6.1668 17.8337C6.45969 18.1266 6.45969 18.6014 6.1668 18.8943C5.8739 19.1872 5.39903 19.1872 5.10614 18.8943L5.09906 18.8873C4.80617 18.5944 4.80617 18.1195 5.09906 17.8266ZM7.85348 20.0241C7.69496 20.4068 7.87669 20.8456 8.25937 21.0041L8.26861 21.0079C8.65129 21.1664 9.09002 20.9847 9.24853 20.602C9.40705 20.2193 9.22532 19.7806 8.84264 19.6221L8.8334 19.6182C8.45071 19.4597 8.01199 19.6415 7.85348 20.0241ZM11.2402 21C11.2402 20.5858 11.576 20.25 11.9902 20.25H12.0002C12.4144 20.25 12.7502 20.5858 12.7502 21C12.7502 21.4142 12.4144 21.75 12.0002 21.75H11.9902C11.576 21.75 11.2402 21.4142 11.2402 21ZM15.7308 21.0078C16.1135 20.8493 16.2952 20.4106 16.1367 20.0279C15.9782 19.6452 15.5395 19.4635 15.1568 19.622L15.1476 19.6259C14.7649 19.7844 14.5831 20.2231 14.7417 20.6058C14.9002 20.9885 15.3389 21.1702 15.7216 21.0117L15.7308 21.0078ZM18.8943 17.8337C19.1872 18.1266 19.1872 18.6014 18.8943 18.8943L18.8873 18.9014C18.5944 19.1943 18.1195 19.1943 17.8266 18.9014C17.5337 18.6085 17.5337 18.1336 17.8266 17.8408L17.8337 17.8337C18.1266 17.5408 18.6014 17.5408 18.8943 17.8337ZM20.6019 14.7513C20.2192 14.5928 19.7805 14.7745 19.622 15.1572L19.6181 15.1664C19.4596 15.5491 19.6413 15.9878 20.024 16.1464C20.4067 16.3049 20.8454 16.1231 21.0039 15.7405L21.0078 15.7312C21.1663 15.3485 20.9846 14.9098 20.6019 14.7513ZM21 11.25C21.4142 11.25 21.75 11.5858 21.75 12V12.01C21.75 12.4242 21.4142 12.76 21 12.76C20.5858 12.76 20.25 12.4242 20.25 12.01V12C20.25 11.5858 20.5858 11.25 21 11.25ZM21.0078 8.26889C20.8493 7.88621 20.4106 7.70448 20.0279 7.863C19.6452 8.02151 19.4635 8.46024 19.622 8.84292L19.6259 8.85216C19.7844 9.23484 20.2231 9.41657 20.6058 9.25805C20.9885 9.09954 21.1702 8.66082 21.0117 8.27813L21.0078 8.26889ZM17.8334 5.10566C18.1263 4.81276 18.6012 4.81276 18.8941 5.10566L18.9012 5.11273C19.1941 5.40562 19.1941 5.88049 18.9012 6.17339C18.6083 6.46628 18.1334 6.46628 17.8405 6.17339L17.8334 6.16632C17.5405 5.87342 17.5405 5.39855 17.8334 5.10566ZM14.7514 3.39804C14.5929 3.78073 14.7746 4.21945 15.1573 4.37797L15.1666 4.38179C15.5492 4.54031 15.988 4.35858 16.1465 3.9759C16.305 3.59321 16.1233 3.15449 15.7406 2.99597L15.7313 2.99215C15.3487 2.83363 14.9099 3.01536 14.7514 3.39804Z" fill="#23262A"/>
</svg>
