<svg width="24" height="24" viewBox="0 0 24 24" fill="none" xmlns="http://www.w3.org/2000/svg">
<path fill-rule="evenodd" clip-rule="evenodd" d="M11.25 3C11.25 2.58579 11.5858 2.25 12 2.25H12.01C12.4242 2.25 12.76 2.58579 12.76 3C12.76 3.41421 12.4242 3.75 12.01 3.75H12C11.5858 3.75 11.25 3.41421 11.25 3ZM5.25 12C5.25 8.27208 8.27208 5.25 12 5.25C15.7279 5.25 18.75 8.27208 18.75 12C18.75 15.7279 15.7279 18.75 12 18.75C8.27208 18.75 5.25 15.7279 5.25 12ZM8.8526 4.37401C9.23528 4.2155 9.41701 3.77678 9.2585 3.39409C9.09998 3.01141 8.66126 2.82968 8.27857 2.98819L8.26934 2.99202C7.88665 3.15053 7.70493 3.58926 7.86344 3.97194C8.02195 4.35463 8.46068 4.53635 8.84336 4.37784L8.8526 4.37401ZM6.17412 5.09833C6.46701 5.39123 6.46701 5.8661 6.17412 6.15899L6.16705 6.16606C5.87416 6.45896 5.39928 6.45896 5.10639 6.16606C4.8135 5.87317 4.8135 5.3983 5.10639 5.1054L5.11346 5.09833C5.40635 4.80544 5.88123 4.80544 6.17412 5.09833ZM3.97609 7.85355C3.59341 7.69504 3.15468 7.87676 2.99617 8.25945L2.99235 8.26869C2.83383 8.65137 3.01556 9.0901 3.39824 9.24861C3.78093 9.40712 4.21965 9.2254 4.37816 8.84271L4.38199 8.83347C4.5405 8.45079 4.35878 8.01206 3.97609 7.85355ZM3 11.24C3.41421 11.24 3.75 11.5758 3.75 11.99V12C3.75 12.4142 3.41421 12.75 3 12.75C2.58579 12.75 2.25 12.4142 2.25 12V11.99C2.25 11.5758 2.58579 11.24 3 11.24ZM4.37426 15.1478C4.21575 14.7651 3.77702 14.5833 3.39434 14.7419C3.01165 14.9004 2.82993 15.3391 2.98844 15.7218L2.99227 15.731C3.15078 16.1137 3.5895 16.2954 3.97219 16.1369C4.35487 15.9784 4.5366 15.5397 4.37809 15.157L4.37426 15.1478ZM5.09906 17.8266C5.39196 17.5337 5.86683 17.5337 6.15972 17.8266L6.1668 17.8337C6.45969 18.1266 6.45969 18.6014 6.1668 18.8943C5.8739 19.1872 5.39903 19.1872 5.10614 18.8943L5.09906 18.8873C4.80617 18.5944 4.80617 18.1195 5.09906 17.8266ZM7.85367 20.0241C7.69516 20.4068 7.87689 20.8455 8.25957 21.004L8.26881 21.0078C8.65149 21.1664 9.09022 20.9846 9.24873 20.6019C9.40724 20.2193 9.22552 19.7805 8.84283 19.622L8.8336 19.6182C8.45091 19.4597 8.01219 19.6414 7.85367 20.0241ZM11.2402 21C11.2402 20.5858 11.576 20.25 11.9902 20.25H12.0002C12.4144 20.25 12.7502 20.5858 12.7502 21C12.7502 21.4142 12.4144 21.75 12.0002 21.75H11.9902C11.576 21.75 11.2402 21.4142 11.2402 21ZM15.731 21.0078C16.1137 20.8493 16.2954 20.4106 16.1369 20.0279C15.9784 19.6452 15.5397 19.4635 15.157 19.622L15.1478 19.6258C14.7651 19.7843 14.5833 20.223 14.7419 20.6057C14.9004 20.9884 15.3391 21.1701 15.7218 21.0116L15.731 21.0078ZM18.8943 17.8337C19.1872 18.1266 19.1872 18.6014 18.8943 18.8943L18.8873 18.9014C18.5944 19.1943 18.1195 19.1943 17.8266 18.9014C17.5337 18.6085 17.5337 18.1336 17.8266 17.8408L17.8337 17.8337C18.1266 17.5408 18.6014 17.5408 18.8943 17.8337ZM20.6021 14.7513C20.2194 14.5927 19.7807 14.7745 19.6221 15.1572L19.6183 15.1664C19.4598 15.5491 19.6415 15.9878 20.0242 16.1463C20.4069 16.3048 20.8456 16.1231 21.0041 15.7404L21.008 15.7312C21.1665 15.3485 20.9848 14.9098 20.6021 14.7513ZM21 11.25C21.4142 11.25 21.75 11.5858 21.75 12V12.01C21.75 12.4242 21.4142 12.76 21 12.76C20.5858 12.76 20.25 12.4242 20.25 12.01V12C20.25 11.5858 20.5858 11.25 21 11.25ZM21.008 8.26885C20.8495 7.88616 20.4108 7.70444 20.0281 7.86295C19.6454 8.02146 19.4637 8.46019 19.6222 8.84287L19.6261 8.85211C19.7846 9.2348 20.2233 9.41652 20.606 9.25801C20.9887 9.0995 21.1704 8.66077 21.0119 8.27809L21.008 8.26885ZM17.8334 5.10566C18.1263 4.81276 18.6012 4.81276 18.8941 5.10566L18.9012 5.11273C19.1941 5.40562 19.1941 5.88049 18.9012 6.17339C18.6083 6.46628 18.1334 6.46628 17.8405 6.17339L17.8334 6.16632C17.5405 5.87342 17.5405 5.39855 17.8334 5.10566ZM14.7516 3.398C14.5931 3.78068 14.7748 4.21941 15.1575 4.37792L15.1668 4.38175C15.5494 4.54026 15.9882 4.35853 16.1467 3.97585C16.3052 3.59317 16.1235 3.15444 15.7408 2.99593L15.7315 2.9921C15.3489 2.83359 14.9101 3.01531 14.7516 3.398Z" fill="#23262A"/>
</svg>
