<svg width="24" height="24" viewBox="0 0 24 24" fill="none" xmlns="http://www.w3.org/2000/svg">
<path fill-rule="evenodd" clip-rule="evenodd" d="M12 2.75C9.92893 2.75 8.25 4.42893 8.25 6.5V11.5C8.25 13.5711 9.92893 15.25 12 15.25C14.0711 15.25 15.75 13.5711 15.75 11.5V6.5C15.75 4.42893 14.0711 2.75 12 2.75ZM9.75 6.5C9.75 5.25736 10.7574 4.25 12 4.25C13.2426 4.25 14.25 5.25736 14.25 6.5V11.5C14.25 12.7426 13.2426 13.75 12 13.75C10.7574 13.75 9.75 12.7426 9.75 11.5V6.5ZM7.75 10.5C7.75 10.0858 7.41421 9.75 7 9.75C6.58579 9.75 6.25 10.0858 6.25 10.5V11.5C6.25 14.3887 8.38011 16.7798 11.1553 17.1884V19.75H9.90527C9.49106 19.75 9.15527 20.0858 9.15527 20.5C9.15527 20.9142 9.49106 21.25 9.90527 21.25H13.9053C14.3195 21.25 14.6553 20.9142 14.6553 20.5C14.6553 20.0858 14.3195 19.75 13.9053 19.75H12.6553V17.2131C15.5223 16.8878 17.75 14.4541 17.75 11.5V10.5C17.75 10.0858 17.4142 9.75 17 9.75C16.5858 9.75 16.25 10.0858 16.25 10.5V11.5C16.25 13.8472 14.3472 15.75 12 15.75C9.65279 15.75 7.75 13.8472 7.75 11.5V10.5Z" fill="#23262A"/>
</svg>
