<svg width="24" height="24" viewBox="0 0 24 24" fill="none" xmlns="http://www.w3.org/2000/svg">
<path fill-rule="evenodd" clip-rule="evenodd" d="M8.42162 5.37613C8.89899 3.85494 10.3195 2.75 12.0001 2.75C14.0712 2.75 15.7501 4.42893 15.7501 6.5V11.4648C15.7501 11.8791 15.4143 12.2148 15.0001 12.2148C14.5859 12.2148 14.2501 11.8791 14.2501 11.4648V6.5C14.2501 5.25736 13.2427 4.25 12.0001 4.25C10.9936 4.25 10.1396 4.91146 9.8528 5.82525C9.72878 6.22047 9.30786 6.44031 8.91265 6.31628C8.51744 6.19226 8.2976 5.77134 8.42162 5.37613ZM5.46967 5.46967C5.76256 5.17678 6.23744 5.17678 6.53033 5.46967L18.5303 17.4697C18.8232 17.7626 18.8232 18.2374 18.5303 18.5303C18.2374 18.8232 17.7626 18.8232 17.4697 18.5303L5.46967 6.53033C5.17678 6.23744 5.17678 5.76256 5.46967 5.46967ZM9.99202 12.5165C9.80453 12.1471 9.35313 11.9997 8.98377 12.1872C8.61442 12.3747 8.46698 12.8261 8.65447 13.1954C9.0143 13.9043 9.59226 14.4829 10.3007 14.8435C10.6698 15.0314 11.1214 14.8845 11.3093 14.5154C11.4972 14.1462 11.3503 13.6947 10.9812 13.5068C10.5559 13.2903 10.208 12.942 9.99202 12.5165ZM16.9998 9.75C17.414 9.75 17.7498 10.0858 17.7498 10.5V11.5C17.7498 12.1736 17.6336 12.8217 17.4197 13.4243C17.2811 13.8146 16.8523 14.0187 16.4619 13.8801C16.0716 13.7415 15.8675 13.3127 16.0061 12.9224C16.1637 12.4787 16.2498 12.0002 16.2498 11.5V10.5C16.2498 10.0858 16.5856 9.75 16.9998 9.75ZM7.75 10.5C7.75 10.0858 7.41421 9.75 7 9.75C6.58579 9.75 6.25 10.0858 6.25 10.5V11.5C6.25 14.3887 8.38011 16.7798 11.1553 17.1884V19.75H9.90527C9.49106 19.75 9.15527 20.0858 9.15527 20.5C9.15527 20.9142 9.49106 21.25 9.90527 21.25H13.9053C14.3195 21.25 14.6553 20.9142 14.6553 20.5C14.6553 20.0858 14.3195 19.75 13.9053 19.75H12.6553V17.213C12.778 17.1991 12.8995 17.1813 13.0199 17.1597C13.4276 17.0867 13.6989 16.6969 13.6259 16.2892C13.5528 15.8815 13.1631 15.6102 12.7554 15.6832C12.5107 15.727 12.2584 15.75 12 15.75C9.65279 15.75 7.75 13.8472 7.75 11.5V10.5Z" fill="#23262A"/>
</svg>
