<svg width="24" height="24" viewBox="0 0 24 24" fill="none" xmlns="http://www.w3.org/2000/svg">
<path fill-rule="evenodd" clip-rule="evenodd" d="M8.50952 5.12648C8.47444 5.21554 8.49821 5.31623 8.56589 5.38391L15.3206 12.1386C15.4572 12.2752 15.6878 12.2108 15.7143 12.0193C15.7378 11.8496 15.75 11.6762 15.75 11.5V6.5C15.75 4.42893 14.0711 2.75 12 2.75C10.4138 2.75 9.05756 3.73487 8.50952 5.12648ZM8.25 11.5C8.25 11.4749 8.28035 11.4623 8.2981 11.4801L12.0197 15.2017C12.0376 15.2196 12.0253 15.25 12 15.25C9.92893 15.25 8.25 13.5711 8.25 11.5ZM12.4131 15.7302C12.4899 15.7228 12.5666 15.7486 12.6212 15.8032L13.4974 16.6794C13.6293 16.8113 13.575 17.0348 13.394 17.0799C13.2244 17.1221 13.0518 17.1568 12.8766 17.1836C12.7508 17.2028 12.6553 17.3091 12.6553 17.4363V19.5C12.6553 19.6381 12.7672 19.75 12.9053 19.75H13.9053C14.3195 19.75 14.6553 20.0858 14.6553 20.5C14.6553 20.9142 14.3195 21.25 13.9053 21.25H11.9053H9.90527C9.49106 21.25 9.15527 20.9142 9.15527 20.5C9.15527 20.0858 9.49106 19.75 9.90527 19.75H10.9053C11.0433 19.75 11.1553 19.6381 11.1553 19.5V17.4043C11.1553 17.2803 11.0641 17.1756 10.9422 17.1529C8.27181 16.6563 6.25 14.3143 6.25 11.5V10.5C6.25 10.0858 6.58579 9.75 7 9.75C7.41421 9.75 7.75 10.0858 7.75 10.5V11.5C7.75 13.8472 9.65279 15.75 12 15.75C12.1394 15.75 12.2772 15.7433 12.4131 15.7302ZM17.3236 13.677C17.2584 13.8363 17.0532 13.8712 16.9315 13.7496L16.1407 12.9587C16.0737 12.8917 16.0509 12.7927 16.0777 12.7018C16.1898 12.3207 16.25 11.9174 16.25 11.5V10.5C16.25 10.0858 16.5858 9.75 17 9.75C17.4142 9.75 17.75 10.0858 17.75 10.5V11.5C17.75 12.2705 17.5985 13.0055 17.3236 13.677ZM6.53033 5.46967C6.23744 5.17678 5.76256 5.17678 5.46967 5.46967C5.17678 5.76256 5.17678 6.23744 5.46967 6.53033L17.4697 18.5303C17.7626 18.8232 18.2374 18.8232 18.5303 18.5303C18.8232 18.2374 18.8232 17.7626 18.5303 17.4697L6.53033 5.46967Z" fill="#23262A"/>
</svg>
