<svg width="24" height="24" viewBox="0 0 24 24" fill="none" xmlns="http://www.w3.org/2000/svg">
<path fill-rule="evenodd" clip-rule="evenodd" d="M15.9697 3.46967C16.2626 3.17678 16.7374 3.17678 17.0303 3.46967L20.5303 6.96967C20.8232 7.26256 20.8232 7.73744 20.5303 8.03033L17.0303 11.5303C16.7374 11.8232 16.2626 11.8232 15.9697 11.5303C15.6768 11.2374 15.6768 10.7626 15.9697 10.4697L18.1893 8.25H10.622C10.3131 9.12389 9.47966 9.75 8.5 9.75C7.25736 9.75 6.25 8.74264 6.25 7.5C6.25 6.25736 7.25736 5.25 8.5 5.25C9.47966 5.25 10.3131 5.87611 10.622 6.75H18.1893L15.9697 4.53033C15.6768 4.23744 15.6768 3.76256 15.9697 3.46967ZM7.75 7.5C7.75 7.08579 8.08579 6.75 8.5 6.75C8.91421 6.75 9.25 7.08579 9.25 7.5C9.25 7.91421 8.91421 8.25 8.5 8.25C8.08579 8.25 7.75 7.91421 7.75 7.5ZM8.03033 12.4697C8.32322 12.7626 8.32322 13.2374 8.03033 13.5303L5.81066 15.75H13.378C13.6869 14.8761 14.5203 14.25 15.5 14.25C16.7426 14.25 17.75 15.2574 17.75 16.5C17.75 17.7426 16.7426 18.75 15.5 18.75C14.5203 18.75 13.6869 18.1239 13.378 17.25H5.81066L8.03033 19.4697C8.32322 19.7626 8.32322 20.2374 8.03033 20.5303C7.73744 20.8232 7.26256 20.8232 6.96967 20.5303L3.46967 17.0303C3.17678 16.7374 3.17678 16.2626 3.46967 15.9697L6.96967 12.4697C7.26256 12.1768 7.73744 12.1768 8.03033 12.4697ZM14.75 16.5C14.75 16.9142 15.0858 17.25 15.5 17.25C15.9142 17.25 16.25 16.9142 16.25 16.5C16.25 16.0858 15.9142 15.75 15.5 15.75C15.0858 15.75 14.75 16.0858 14.75 16.5Z" fill="#23262A"/>
</svg>
