<svg width="24" height="24" viewBox="0 0 24 24" fill="none" xmlns="http://www.w3.org/2000/svg">
<path fill-rule="evenodd" clip-rule="evenodd" d="M16.6556 2.13577C16.5233 1.89767 16.2724 1.75 16 1.75C15.7276 1.75 15.4767 1.89767 15.3444 2.13577L10.3444 11.1358C10.2153 11.3681 10.2188 11.6513 10.3536 11.8803C10.4884 12.1094 10.7343 12.25 11 12.25H21C21.2657 12.25 21.5116 12.1094 21.6464 11.8803C21.7812 11.6513 21.7847 11.3681 21.6556 11.1358L16.6556 2.13577ZM16 4.04434L19.7254 10.75H12.2746L16 4.04434ZM6.75 5C6.75 4.30964 7.30964 3.75 8 3.75H12C12.4142 3.75 12.75 3.41421 12.75 3C12.75 2.58579 12.4142 2.25 12 2.25H8C6.48122 2.25 5.25 3.48122 5.25 5V19C5.25 20.5188 6.48122 21.75 8 21.75H16C17.5188 21.75 18.75 20.5188 18.75 19V14.25C18.75 13.8358 18.4142 13.5 18 13.5C17.5858 13.5 17.25 13.8358 17.25 14.25V19C17.25 19.6904 16.6904 20.25 16 20.25H8C7.30964 20.25 6.75 19.6904 6.75 19V5Z" fill="#23262A"/>
</svg>
