<svg width="24" height="24" viewBox="0 0 24 24" fill="none" xmlns="http://www.w3.org/2000/svg">
<path fill-rule="evenodd" clip-rule="evenodd" d="M7.75 5.77778C7.75 5.16382 8.20527 4.75 8.66667 4.75H15.3333C15.7947 4.75 16.25 5.16382 16.25 5.77778V18.2222C16.25 18.8362 15.7947 19.25 15.3333 19.25H8.66667C8.20527 19.25 7.75 18.8362 7.75 18.2222V5.77778ZM8.66667 3.25C7.28712 3.25 6.25 4.42806 6.25 5.77778V18.2222C6.25 19.5719 7.28712 20.75 8.66667 20.75H15.3333C16.7129 20.75 17.75 19.5719 17.75 18.2222V5.77778C17.75 4.42806 16.7129 3.25 15.3333 3.25H8.66667ZM12 16.75C11.5858 16.75 11.25 17.0858 11.25 17.5C11.25 17.9142 11.5858 18.25 12 18.25H12.01C12.4242 18.25 12.76 17.9142 12.76 17.5C12.76 17.0858 12.4242 16.75 12.01 16.75H12Z" fill="#23262A"/>
</svg>
