<svg width="24" height="24" viewBox="0 0 24 24" fill="none" xmlns="http://www.w3.org/2000/svg">
<path fill-rule="evenodd" clip-rule="evenodd" d="M16.6556 1.63577C16.5233 1.39767 16.2724 1.25 16 1.25C15.7276 1.25 15.4767 1.39767 15.3444 1.63577L10.3444 10.6358C10.2153 10.8681 10.2188 11.1513 10.3536 11.3803C10.4884 11.6094 10.7343 11.75 11 11.75H21C21.2657 11.75 21.5116 11.6094 21.6464 11.3803C21.7812 11.1513 21.7847 10.8681 21.6556 10.6358L16.6556 1.63577ZM18.5 13.25C18.6381 13.25 18.75 13.3619 18.75 13.5V19C18.75 20.5188 17.5188 21.75 16 21.75H8C6.48122 21.75 5.25 20.5188 5.25 19V5C5.25 3.48122 6.48122 2.25 8 2.25H12.8623C13.0529 2.25 13.1734 2.45478 13.0809 2.62141L9.03315 9.9073C8.64598 10.6042 8.6565 11.4539 9.06079 12.141C9.46508 12.8281 10.2028 13.25 11 13.25H18.5Z" fill="#23262A"/>
</svg>
