<svg width="24" height="24" viewBox="0 0 24 24" fill="none" xmlns="http://www.w3.org/2000/svg">
<path fill-rule="evenodd" clip-rule="evenodd" d="M16.6556 2.13577C16.5233 1.89767 16.2724 1.75 16 1.75C15.7276 1.75 15.4767 1.89767 15.3444 2.13577L10.3444 11.1358C10.2153 11.3681 10.2188 11.6513 10.3536 11.8803C10.4884 12.1094 10.7343 12.25 11 12.25H21C21.2657 12.25 21.5116 12.1094 21.6464 11.8803C21.7812 11.6513 21.7847 11.3681 21.6556 11.1358L16.6556 2.13577ZM21.75 13.9749C21.75 13.8024 21.5784 13.6813 21.4088 13.7126C21.2753 13.7373 21.1385 13.75 21 13.75H11C10.2028 13.75 9.46508 13.3281 9.06079 12.641C8.6565 11.9539 8.64598 11.1042 9.03315 10.4073L12.8031 3.62141C12.8957 3.45478 12.7752 3.25 12.5845 3.25H3.5C2.80964 3.25 2.25 3.80964 2.25 4.5V15.5C2.25 16.1904 2.80964 16.75 3.5 16.75H11.25V19.25H6C5.58579 19.25 5.25 19.5858 5.25 20C5.25 20.4142 5.58579 20.75 6 20.75H19C19.4142 20.75 19.75 20.4142 19.75 20C19.75 19.5858 19.4142 19.25 19 19.25H12.75V16.75H20.5C21.1904 16.75 21.75 16.1904 21.75 15.5V13.9749Z" fill="#23262A"/>
</svg>
