<svg width="24" height="24" viewBox="0 0 24 24" fill="none" xmlns="http://www.w3.org/2000/svg">
<path fill-rule="evenodd" clip-rule="evenodd" d="M16.6556 2.13577C16.5233 1.89767 16.2724 1.75 16 1.75C15.7276 1.75 15.4767 1.89767 15.3444 2.13577L10.3444 11.1358C10.2153 11.3681 10.2188 11.6513 10.3536 11.8803C10.4884 12.1094 10.7343 12.25 11 12.25H21C21.2657 12.25 21.5116 12.1094 21.6464 11.8803C21.7812 11.6513 21.7847 11.3681 21.6556 11.1358L16.6556 2.13577ZM16 4.04434L19.7254 10.75H12.2746L16 4.04434ZM20.25 14.5C20.25 14.0858 20.5858 13.75 21 13.75C21.4142 13.75 21.75 14.0858 21.75 14.5V15.5C21.75 16.1904 21.1904 16.75 20.5 16.75H12.75V19.25H19C19.4142 19.25 19.75 19.5858 19.75 20C19.75 20.4142 19.4142 20.75 19 20.75H6C5.58579 20.75 5.25 20.4142 5.25 20C5.25 19.5858 5.58579 19.25 6 19.25H11.25V16.75H3.5C2.80964 16.75 2.25 16.1904 2.25 15.5V4.5C2.25 3.80964 2.80964 3.25 3.5 3.25H12C12.4142 3.25 12.75 3.58579 12.75 4C12.75 4.41421 12.4142 4.75 12 4.75H3.75V15.25H20.25V14.5Z" fill="#23262A"/>
</svg>
