<svg width="24" height="24" viewBox="0 0 24 24" fill="none" xmlns="http://www.w3.org/2000/svg">
<path fill-rule="evenodd" clip-rule="evenodd" d="M14.8238 3.11549C15.0363 2.90303 15.3551 2.83787 15.6338 2.94991C19.2176 4.39011 21.75 7.89842 21.75 12C21.75 17.3848 17.3848 21.75 12 21.75C7.8984 21.75 4.3901 19.2176 2.9499 15.6339C2.83786 15.3551 2.90302 15.0363 3.11547 14.8239C3.32793 14.6114 3.64668 14.5462 3.92547 14.6583C4.87464 15.0397 5.91184 15.25 6.99999 15.25C11.5563 15.25 15.25 11.5564 15.25 7C15.25 5.91185 15.0397 4.87465 14.6583 3.92548C14.5462 3.64669 14.6114 3.32795 14.8238 3.11549ZM16.5708 5.13072C16.6884 5.73604 16.75 6.36106 16.75 7C16.75 12.3848 12.3848 16.75 6.99999 16.75C6.36105 16.75 5.73603 16.6884 5.1307 16.5709C6.61 18.7895 9.13505 20.25 12 20.25C16.5563 20.25 20.25 16.5564 20.25 12C20.25 9.13507 18.7895 6.61002 16.5708 5.13072Z" fill="#23262A"/>
</svg>
