<svg width="24" height="24" viewBox="0 0 24 24" fill="none" xmlns="http://www.w3.org/2000/svg">
<path fill-rule="evenodd" clip-rule="evenodd" d="M11.378 9.25C11.6756 8.40804 12.4601 7.79608 13.3932 7.75249L12.8036 6.27854C12.7112 6.04747 12.7394 5.78561 12.879 5.57953C13.0185 5.37345 13.2511 5.25 13.5 5.25H14C17.1756 5.25 19.75 7.82436 19.75 11V11.5C19.75 11.9142 19.4142 12.25 19 12.25H18C17.7999 12.25 17.6035 12.2657 17.4119 12.2958L17.7732 13.2592C17.848 13.2531 17.9236 13.25 18 13.25C19.5188 13.25 20.75 14.4812 20.75 16C20.75 17.5188 19.5188 18.75 18 18.75C16.4812 18.75 15.25 17.5188 15.25 16C15.25 15.0919 15.6901 14.2867 16.3687 13.7859L16.0075 12.8226C14.9517 13.486 14.25 14.6611 14.25 16C14.25 16.4142 13.9142 16.75 13.5 16.75H8.64648C8.32002 17.9043 7.25878 18.75 6 18.75C4.48122 18.75 3.25 17.5188 3.25 16C3.25 14.4812 4.48122 13.25 6 13.25C7.25878 13.25 8.32002 14.0957 8.64648 15.25H9.67499C9.32753 13.5383 7.81422 12.25 6 12.25H5.5C5.21592 12.25 4.95622 12.0895 4.82918 11.8354L3.32918 8.83541C3.21293 8.60292 3.22536 8.32681 3.36201 8.1057C3.49867 7.88459 3.74007 7.75 4 7.75H5.87868C7.32907 7.75 8.72413 8.28665 9.79838 9.25H11.378ZM14.6261 6.79579C16.5958 7.08662 18.1255 8.72882 18.2428 10.75H18C15.3551 10.75 13.1671 12.7058 12.8032 15.25H11.1968C10.8329 12.7058 8.64485 10.75 6 10.75H5.96353L5.21353 9.25H5.87868C7.03803 9.25 8.14989 9.71055 8.96967 10.5303C9.04158 10.6022 9.12445 10.6565 9.21291 10.6931C9.30134 10.7298 9.39831 10.75 9.5 10.75H12C12.4142 10.75 12.75 10.4142 12.75 10C12.75 9.58579 13.0858 9.25 13.5 9.25H14.483C14.5356 9.25122 14.5888 9.24687 14.6418 9.23661C14.8406 9.19857 15.0116 9.08202 15.1211 8.92047C15.2308 8.75814 15.2754 8.55526 15.2362 8.35584C15.226 8.30365 15.2104 8.25339 15.19 8.20567L14.6261 6.79579ZM6 14.75C6.40896 14.75 6.77204 14.9464 7.00009 15.25H6C5.58579 15.25 5.25 15.5858 5.25 16C5.25 16.4142 5.58579 16.75 6 16.75H7.00009C6.77204 17.0536 6.40896 17.25 6 17.25C5.30964 17.25 4.75 16.6904 4.75 16C4.75 15.3096 5.30964 14.75 6 14.75ZM16.9466 15.3268C16.8221 15.5211 16.75 15.7521 16.75 16C16.75 16.6904 17.3096 17.25 18 17.25C18.6904 17.25 19.25 16.6904 19.25 16C19.25 15.4315 18.8705 14.9516 18.351 14.7999L18.7022 15.7367C18.8477 16.1245 18.6512 16.5568 18.2633 16.7022C17.8755 16.8477 17.4432 16.6512 17.2978 16.2633L16.9466 15.3268Z" fill="#23262A"/>
</svg>
