<svg width="24" height="24" viewBox="0 0 24 24" fill="none" xmlns="http://www.w3.org/2000/svg">
<path fill-rule="evenodd" clip-rule="evenodd" d="M13.5 5.25C13.2511 5.25 13.0185 5.37345 12.879 5.57953C12.7394 5.78561 12.7112 6.04747 12.8036 6.27854L13.3932 7.75249C12.4601 7.79607 11.6758 8.40785 11.3782 9.25H9.79838C8.72412 8.28665 7.32907 7.75 5.87868 7.75H4C3.74007 7.75 3.49867 7.88459 3.36201 8.1057C3.22536 8.32681 3.21293 8.60292 3.32918 8.83541L4.82918 11.8354C4.95622 12.0895 5.21592 12.25 5.5 12.25H6C7.81422 12.25 9.32753 13.5383 9.67499 15.25H6C5.58579 15.25 5.25 15.5858 5.25 16C5.25 16.4142 5.58579 16.75 6 16.75H10.5H13.5C13.9142 16.75 14.25 16.4142 14.25 16C14.25 14.6611 14.9517 13.4861 16.0073 12.8227L17.2976 16.2633C17.443 16.6511 17.8753 16.8476 18.2631 16.7022C18.651 16.5568 18.8475 16.1245 18.702 15.7366L17.4118 12.2959C17.6034 12.2657 17.7999 12.25 18 12.25H19C19.4142 12.25 19.75 11.9142 19.75 11.5V11C19.75 7.82436 17.1756 5.25 14 5.25H13.5ZM15.7175 14.4657C15.8218 14.3109 16.0473 14.3526 16.1129 14.5274L16.8297 16.439C17.0721 17.0854 17.7927 17.4129 18.4391 17.1705C19.0855 16.9281 19.413 16.2076 19.1706 15.5612L18.4535 13.6491C18.388 13.4743 18.5304 13.2946 18.7107 13.3427C19.885 13.656 20.75 14.727 20.75 16C20.75 17.5188 19.5188 18.75 18 18.75C16.4812 18.75 15.25 17.5188 15.25 16C15.25 15.4319 15.4223 14.904 15.7175 14.4657ZM8.04158 17.25C8.2284 17.25 8.34656 17.4467 8.23784 17.5987C7.73898 18.2957 6.92254 18.75 6 18.75C4.48122 18.75 3.25 17.5188 3.25 16C3.25 14.4812 4.48122 13.25 6 13.25C6.92254 13.25 7.73898 13.7043 8.23784 14.4013C8.34656 14.5533 8.2284 14.75 8.04157 14.75H6C5.30964 14.75 4.75 15.3096 4.75 16C4.75 16.6904 5.30964 17.25 6 17.25H8.04158Z" fill="#23262A"/>
</svg>
