<svg width="24" height="24" viewBox="0 0 24 24" fill="none" xmlns="http://www.w3.org/2000/svg">
<path fill-rule="evenodd" clip-rule="evenodd" d="M12.6495 5.56287C12.5155 5.33082 12.2679 5.18787 12 5.18787C11.7321 5.18787 11.4845 5.33082 11.3505 5.56287L4.35048 17.6872C4.21651 17.9193 4.21651 18.2052 4.35048 18.4372C4.48446 18.6693 4.73205 18.8122 5 18.8122H19C19.2679 18.8122 19.5155 18.6693 19.6495 18.4372C19.7835 18.2052 19.7835 17.9193 19.6495 17.6872L12.6495 5.56287ZM9.42676 11.8948L12 7.43787L14.0739 11.03L12.6372 10.7627C12.4309 10.7243 12.2179 10.7741 12.05 10.9L10.3529 12.1728L9.42676 11.8948ZM8.65611 13.2296L6.29904 17.3122H17.701L15.0609 12.7394L12.6865 12.2976L10.95 13.6C10.7595 13.7429 10.5125 13.7868 10.2844 13.7183L8.65611 13.2296Z" fill="#23262A"/>
</svg>
