<svg width="24" height="24" viewBox="0 0 24 24" fill="none" xmlns="http://www.w3.org/2000/svg">
<path fill-rule="evenodd" clip-rule="evenodd" d="M12.6493 5.56287C12.5153 5.33082 12.2677 5.18787 11.9998 5.18787C11.7318 5.18787 11.4842 5.33082 11.3503 5.56287L7.17969 12.7865L7.17987 12.7866L4.35048 17.6872C4.21651 17.9193 4.21651 18.2052 4.35048 18.4372C4.48446 18.6693 4.73205 18.8122 5 18.8122H19C19.2679 18.8122 19.5155 18.6693 19.6495 18.4372C19.7835 18.2052 19.7835 17.9193 19.6495 17.6872L16.0145 11.3911L16.0142 11.3911L12.6493 5.56287ZM14.0737 11.03L11.9998 7.43787L9.42659 11.8948L10.3528 12.1728L12.0498 10.9C12.1843 10.7991 12.3477 10.7471 12.5134 10.7501C12.5547 10.7509 12.5961 10.755 12.6372 10.7627L14.0737 11.03Z" fill="#23262A"/>
</svg>
