<svg width="24" height="24" viewBox="0 0 24 24" fill="none" xmlns="http://www.w3.org/2000/svg">
<path fill-rule="evenodd" clip-rule="evenodd" d="M5 5.25C4.58579 5.25 4.25 5.58579 4.25 6V15C4.25 17.6234 6.37665 19.75 9 19.75H13C15.6234 19.75 17.75 17.6234 17.75 15V14.6629C17.9909 14.7198 18.2421 14.75 18.5 14.75C20.2949 14.75 21.75 13.2949 21.75 11.5C21.75 9.70507 20.2949 8.25 18.5 8.25C18.2421 8.25 17.9909 8.28016 17.75 8.33713V6C17.75 5.58579 17.4142 5.25 17 5.25H5ZM9 18.25C7.20507 18.25 5.75 16.7949 5.75 15V6.75H16.25V15C16.25 16.7949 14.7949 18.25 13 18.25H9ZM18.5 13.25C18.231 13.25 17.977 13.1897 17.75 13.0818V9.9182C17.977 9.81029 18.231 9.75 18.5 9.75C19.4665 9.75 20.25 10.5335 20.25 11.5C20.25 12.4665 19.4665 13.25 18.5 13.25Z" fill="#23262A"/>
</svg>
