<svg width="24" height="24" viewBox="0 0 24 24" fill="none" xmlns="http://www.w3.org/2000/svg">
<path d="M18.0303 7.03033C18.3232 6.73744 18.3232 6.26256 18.0303 5.96967C17.7374 5.67678 17.2626 5.67678 16.9697 5.96967L12 10.9393L7.03033 5.96967C6.73744 5.67678 6.26256 5.67678 5.96967 5.96967C5.67678 6.26256 5.67678 6.73744 5.96967 7.03033L10.9393 12L5.96967 16.9697C5.67678 17.2626 5.67678 17.7374 5.96967 18.0303C6.26256 18.3232 6.73744 18.3232 7.03033 18.0303L12 13.0607L16.9697 18.0303C17.2626 18.3232 17.7374 18.3232 18.0303 18.0303C18.3232 17.7374 18.3232 17.2626 18.0303 16.9697L13.0607 12L18.0303 7.03033Z" fill="#23262A"/>
</svg>
