<svg
  width="24"
  height="24"
  viewBox="0 0 24 24"
  fill="none"
  xmlns="http://www.w3.org/2000/svg"
>
  <path
    d="M6 6L18 18"
    stroke="#262626"
    stroke-width="1.5"
    stroke-linecap="round"
    stroke-linejoin="round"
  />
  <mask
    id="mask0_790_3556"
    style="mask-type: alpha"
    maskUnits="userSpaceOnUse"
    x="0"
    y="0"
    width="24"
    height="24"
  >
    <path
      fill-rule="evenodd"
      clip-rule="evenodd"
      d="M24 0H0V24H24V0ZM4.06066 1.93934C3.47487 1.35355 2.52513 1.35355 1.93934 1.93934C1.35355 2.52513 1.35355 3.47487 1.93934 4.06066L19.9393 22.0607C20.5251 22.6464 21.4749 22.6464 22.0607 22.0607C22.6464 21.4749 22.6464 20.5251 22.0607 19.9393L4.06066 1.93934Z"
      fill="black"
    />
  </mask>
  <g mask="url(#mask0_790_3556)">
    <path
      d="M15 11.5V6.5C15 4.84315 13.6569 3.5 12 3.5C10.3431 3.5 9 4.84315 9 6.5V11.5C9 13.1569 10.3431 14.5 12 14.5C13.6569 14.5 15 13.1569 15 11.5Z"
      stroke="#262626"
      stroke-width="1.5"
      stroke-linejoin="round"
    />
    <path
      d="M17 10.5V11.5C17 14.2614 14.7614 16.5 12 16.5V16.5C9.23858 16.5 7 14.2614 7 11.5V10.5"
      stroke="#262626"
      stroke-width="1.5"
      stroke-linecap="round"
      stroke-linejoin="round"
    />
    <path
      d="M11.9053 20.5V16.5"
      stroke="#262626"
      stroke-width="1.5"
      stroke-linecap="round"
      stroke-linejoin="round"
    />
    <path
      d="M13.9053 20.5L9.90527 20.5"
      stroke="#262626"
      stroke-width="1.5"
      stroke-linecap="round"
      stroke-linejoin="round"
    />
  </g>
</svg>
