<svg width="24" height="24" viewBox="0 0 24 24" fill="none" xmlns="http://www.w3.org/2000/svg">
<path fill-rule="evenodd" clip-rule="evenodd" d="M6.25 4C6.25 3.58579 6.58579 3.25 7 3.25H20C20.4142 3.25 20.75 3.58579 20.75 4V17C20.75 19.0711 19.0711 20.75 17 20.75H5.5C4.25736 20.75 3.25 19.7426 3.25 18.5V6C3.25 5.58579 3.58579 5.25 4 5.25H6.25V4ZM6.25 18.5C6.25 18.9142 5.91421 19.25 5.5 19.25C5.08579 19.25 4.75 18.9142 4.75 18.5V6.75H6.25V18.5ZM19.25 17C19.25 18.2426 18.2426 19.25 17 19.25H7.62197C7.70488 19.0154 7.75 18.763 7.75 18.5V4.75H19.25V17ZM9.25 8C9.25 7.58579 9.58579 7.25 10 7.25H17C17.4142 7.25 17.75 7.58579 17.75 8V12C17.75 12.4142 17.4142 12.75 17 12.75H10C9.58579 12.75 9.25 12.4142 9.25 12V8ZM10.75 8.75V11.25H16.25V8.75H10.75ZM9.25 16C9.25 15.5858 9.58579 15.25 10 15.25H17C17.4142 15.25 17.75 15.5858 17.75 16C17.75 16.4142 17.4142 16.75 17 16.75H10C9.58579 16.75 9.25 16.4142 9.25 16Z" fill="#202733"/>
</svg>
