<svg width="24" height="24" viewBox="0 0 24 24" fill="none" xmlns="http://www.w3.org/2000/svg">
<path d="M18.25 3C18.4489 3 18.6396 3.07907 18.7803 3.21973C18.9209 3.36038 19 3.55109 19 3.75V7.18848L21.0303 8.91309C21.1709 9.05362 21.2499 9.2446 21.25 9.44336L21.2012 20.2461C21.2009 20.6601 20.8652 20.9961 20.4512 20.9961L3.5 20.9824C3.08579 20.9824 2.75 20.6466 2.75 20.2324V9.43066C2.75007 9.23181 2.82908 9.04099 2.96973 8.90039L5 7.18848V3.75C5 3.33579 5.33579 3 5.75 3H18.25ZM5.38086 19.5508H18.6191L13.6553 14.249H10.3447L5.38086 19.5508ZM15.1201 13.6533L19.75 18.3428L19.7012 10.9424L15.1201 13.6533ZM4.29883 18.2324L8.87891 13.6533L4.25 10.832L4.29883 18.2324ZM6.5 10.4307L10.2266 12.749H13.7734L17.5 10.4307V4.5H6.5V10.4307ZM13 9C13.4142 9 13.75 9.33579 13.75 9.75C13.75 10.1642 13.4142 10.5 13 10.5H9C8.58579 10.5 8.25 10.1642 8.25 9.75C8.25 9.33579 8.58579 9 9 9H13ZM15 6C15.4142 6 15.75 6.33579 15.75 6.75C15.75 7.16421 15.4142 7.5 15 7.5H9C8.58579 7.5 8.25 7.16421 8.25 6.75C8.25 6.33579 8.58579 6 9 6H15Z" fill="#202733"/>
</svg>
