<svg width="24" height="24" viewBox="0 0 24 24" fill="none" xmlns="http://www.w3.org/2000/svg">
<path fill-rule="evenodd" clip-rule="evenodd" d="M7 3.25C6.58579 3.25 6.25 3.58579 6.25 4V5.25H4C3.58579 5.25 3.25 5.58579 3.25 6V18.5C3.25 19.7426 4.25736 20.75 5.5 20.75H17C19.0711 20.75 20.75 19.0711 20.75 17V4C20.75 3.58579 20.4142 3.25 20 3.25H7ZM5.5 19.25C5.91421 19.25 6.25 18.9142 6.25 18.5V6.75H4.75V18.5C4.75 18.9142 5.08579 19.25 5.5 19.25ZM10 7.25C9.58579 7.25 9.25 7.58579 9.25 8V12C9.25 12.4142 9.58579 12.75 10 12.75H17C17.4142 12.75 17.75 12.4142 17.75 12V8C17.75 7.58579 17.4142 7.25 17 7.25H10ZM10.75 11.25V8.75H16.25V11.25H10.75ZM9.25 16C9.25 15.5858 9.58579 15.25 10 15.25H17C17.4142 15.25 17.75 15.5858 17.75 16C17.75 16.4142 17.4142 16.75 17 16.75H10C9.58579 16.75 9.25 16.4142 9.25 16Z" fill="#23262A"/>
</svg>
