<svg width="24" height="24" viewBox="0 0 24 24" fill="none" xmlns="http://www.w3.org/2000/svg">
<path d="M13.0068 14.5024C13.2715 14.5026 13.5255 14.6075 13.7129 14.7944L19.5017 20.5706C19.6595 20.728 19.548 20.9975 19.3251 20.9975L4.65308 20.9966C4.43081 20.9966 4.31908 20.7283 4.47566 20.5705L10.2051 14.7983C10.3927 14.6093 10.6477 14.5026 10.9141 14.5024H13.0068ZM20.998 19.3451C20.998 19.5675 20.7293 19.6792 20.5717 19.5222L15.1631 14.1372C15.0485 14.0231 15.0712 13.8313 15.209 13.7466L20.6171 10.4212C20.7837 10.3188 20.998 10.4387 20.998 10.6342V19.3451ZM8.71191 13.7466C8.84841 13.8314 8.8701 14.0213 8.75684 14.1353L3.4293 19.4971C3.27204 19.6554 3.00195 19.5441 3.00195 19.3209V10.6475C3.00195 10.4514 3.21739 10.3316 3.38392 10.4352L8.71191 13.7466ZM18.248 3.00244C18.4468 3.00256 18.6378 3.08162 18.7783 3.22217C18.9188 3.3628 18.998 3.55363 18.998 3.75244V7.35922C18.998 7.42875 19.027 7.49514 19.078 7.54245L20.1735 8.55951C20.2948 8.67212 20.2752 8.86939 20.1341 8.95588L13.7725 12.855C13.6152 12.9513 13.4344 13.0024 13.25 13.0024H10.6699C10.4841 13.0024 10.3016 12.9508 10.1436 12.853L3.85591 8.96112C3.71561 8.87428 3.69644 8.67773 3.81731 8.56541L4.91822 7.54244C4.96913 7.49514 4.99805 7.42878 4.99805 7.3593V3.75244C4.99805 3.33837 5.33403 3.00268 5.74805 3.00244H18.248ZM8.99609 9.00244C8.58188 9.00244 8.24609 9.33823 8.24609 9.75244C8.24609 10.1667 8.58188 10.5024 8.99609 10.5024H12.9961C13.4103 10.5024 13.7461 10.1667 13.7461 9.75244C13.7461 9.33823 13.4103 9.00244 12.9961 9.00244H8.99609ZM8.99609 6.00244C8.58188 6.00244 8.24609 6.33823 8.24609 6.75244C8.24609 7.16666 8.58188 7.50244 8.99609 7.50244H14.9961C15.4103 7.50244 15.7461 7.16666 15.7461 6.75244C15.7461 6.33823 15.4103 6.00244 14.9961 6.00244H8.99609Z" fill="#202733"/>
</svg>
