<svg width="24" height="24" viewBox="0 0 24 24" fill="none" xmlns="http://www.w3.org/2000/svg">
<path fill-rule="evenodd" clip-rule="evenodd" d="M3.30427 8.276C3.63135 8.18757 3.97711 8.32943 4.14783 8.6221L6.25 12.2258V9.00001C6.25 8.58579 6.58579 8.25001 7 8.25001C7.41421 8.25001 7.75 8.58579 7.75 9.00001V15C7.75 15.3388 7.52282 15.6356 7.19573 15.724C6.86865 15.8124 6.52289 15.6706 6.35217 15.3779L4.25 11.7742V15C4.25 15.4142 3.91421 15.75 3.5 15.75C3.08579 15.75 2.75 15.4142 2.75 15V9.00001C2.75 8.66118 2.97718 8.36443 3.30427 8.276ZM12 9.75C10.7574 9.75 9.75 10.7574 9.75 12C9.75 13.2426 10.7574 14.25 12 14.25C13.2426 14.25 14.25 13.2426 14.25 12C14.25 10.7574 13.2426 9.75 12 9.75ZM8.25 12C8.25 9.92893 9.92893 8.25 12 8.25C14.0711 8.25 15.75 9.92893 15.75 12C15.75 14.0711 14.0711 15.75 12 15.75C9.92893 15.75 8.25 14.0711 8.25 12ZM20.9801 8.42382C21.2983 8.689 21.3413 9.16192 21.0762 9.48013L18.9763 12L21.0762 14.5198C21.3413 14.8381 21.2983 15.311 20.9801 15.5762C20.6619 15.8413 20.189 15.7983 19.9238 15.4801L17.75 12.8715V15C17.75 15.4142 17.4142 15.75 17 15.75C16.5858 15.75 16.25 15.4142 16.25 15V8.99999C16.25 8.58577 16.5858 8.24999 17 8.24999C17.4142 8.24999 17.75 8.58577 17.75 8.99999V11.1285L19.9238 8.51985C20.189 8.20164 20.6619 8.15865 20.9801 8.42382Z" fill="#23262A"/>
</svg>
