<svg width="24" height="24" viewBox="0 0 24 24" fill="none" xmlns="http://www.w3.org/2000/svg">
<path fill-rule="evenodd" clip-rule="evenodd" d="M4.14783 8.6221C3.97711 8.32943 3.63135 8.18757 3.30427 8.276C2.97718 8.36443 2.75 8.66118 2.75 9.00001V15C2.75 15.4142 3.08579 15.75 3.5 15.75C3.91421 15.75 4.25 15.4142 4.25 15V11.7742L6.35217 15.3779C6.52289 15.6706 6.86865 15.8124 7.19573 15.724C7.52282 15.6356 7.75 15.3388 7.75 15V9.00001C7.75 8.58579 7.41421 8.25001 7 8.25001C6.58579 8.25001 6.25 8.58579 6.25 9.00001V12.2258L4.14783 8.6221ZM9.75 12C9.75 10.7574 10.7574 9.75001 12 9.75001C13.2426 9.75001 14.25 10.7574 14.25 12C14.25 13.2426 13.2426 14.25 12 14.25C10.7574 14.25 9.75 13.2426 9.75 12ZM12 8.25001C9.92893 8.25001 8.25 9.92894 8.25 12C8.25 14.0711 9.92893 15.75 12 15.75C14.0711 15.75 15.75 14.0711 15.75 12C15.75 9.92894 14.0711 8.25001 12 8.25001ZM17 8.25001C17.4142 8.25001 17.75 8.58579 17.75 9.00001V11.1285L19.9238 8.51987C20.189 8.20166 20.6619 8.15867 20.9801 8.42384C21.2983 8.68901 21.3413 9.16194 21.0762 9.48014L18.9763 12L21.0762 14.5199C21.3413 14.8381 21.2983 15.311 20.9801 15.5762C20.6619 15.8413 20.189 15.7984 19.9238 15.4801L17.75 12.8715V15C17.75 15.4142 17.4142 15.75 17 15.75C16.5858 15.75 16.25 15.4142 16.25 15V9.00001C16.25 8.58579 16.5858 8.25001 17 8.25001Z" fill="#23262A"/>
</svg>
