<svg width="24" height="24" viewBox="0 0 24 24" fill="none" xmlns="http://www.w3.org/2000/svg">
<path fill-rule="evenodd" clip-rule="evenodd" d="M18.25 2.5C18.25 2.08579 17.9142 1.75 17.5 1.75C17.0858 1.75 16.75 2.08579 16.75 2.5V3.38197C16.75 4.35125 17.2976 5.23734 18.1646 5.67082C18.5234 5.85021 18.75 6.21691 18.75 6.61803V7.5C18.75 7.91421 19.0858 8.25 19.5 8.25C19.9142 8.25 20.25 7.91421 20.25 7.5V6.61803C20.25 5.64875 19.7024 4.76266 18.8354 4.32918C18.4766 4.14979 18.25 3.78309 18.25 3.38197V2.5ZM5.96967 6.46967C6.26256 6.17678 6.73744 6.17678 7.03033 6.46967L17.0303 16.4697C17.3232 16.7626 17.3232 17.2374 17.0303 17.5303C16.7374 17.8232 16.2626 17.8232 15.9697 17.5303L5.96967 7.53033C5.67678 7.23744 5.67678 6.76256 5.96967 6.46967ZM2.25 10C2.25 9.58579 2.58579 9.25 3 9.25H5.5C5.91421 9.25 6.25 9.58579 6.25 10C6.25 10.4142 5.91421 10.75 5.5 10.75H3.75V13.25H9.5C9.91421 13.25 10.25 13.5858 10.25 14C10.25 14.4142 9.91421 14.75 9.5 14.75H3C2.58579 14.75 2.25 14.4142 2.25 14V10ZM13.5 9.25C13.0858 9.25 12.75 9.58579 12.75 10C12.75 10.4142 13.0858 10.75 13.5 10.75H17.25V13.25H17C16.5858 13.25 16.25 13.5858 16.25 14C16.25 14.4142 16.5858 14.75 17 14.75H18H20C20.9665 14.75 21.75 13.9665 21.75 13V11C21.75 10.0335 20.9665 9.25 20 9.25H18H13.5ZM18.75 13.25V10.75H20C20.1381 10.75 20.25 10.8619 20.25 11V13C20.25 13.1381 20.1381 13.25 20 13.25H18.75Z" fill="#23262A"/>
</svg>
