<svg width="24" height="24" viewBox="0 0 24 24" fill="none" xmlns="http://www.w3.org/2000/svg">
<path fill-rule="evenodd" clip-rule="evenodd" d="M18.25 2.5C18.25 2.08579 17.9142 1.75 17.5 1.75C17.0858 1.75 16.75 2.08579 16.75 2.5V3.38197C16.75 4.35125 17.2976 5.23734 18.1646 5.67082C18.5234 5.85021 18.75 6.21691 18.75 6.61803V7.5C18.75 7.91421 19.0858 8.25 19.5 8.25C19.9142 8.25 20.25 7.91421 20.25 7.5V6.61803C20.25 5.64875 19.7024 4.76266 18.8354 4.32918C18.4766 4.14979 18.25 3.78309 18.25 3.38197V2.5ZM7.03033 6.46967C6.73744 6.17678 6.26256 6.17678 5.96967 6.46967C5.67678 6.76256 5.67678 7.23744 5.96967 7.53033L15.9697 17.5303C16.2626 17.8232 16.7374 17.8232 17.0303 17.5303C17.3232 17.2374 17.3232 16.7626 17.0303 16.4697L7.03033 6.46967ZM3 9.25C2.58579 9.25 2.25 9.58579 2.25 10V14C2.25 14.4142 2.58579 14.75 3 14.75H9.5C9.80335 14.75 10.0768 14.5673 10.1929 14.287C10.309 14.0068 10.2448 13.6842 10.0303 13.4697L6.03033 9.46967C5.88968 9.32902 5.69891 9.25 5.5 9.25H3ZM17.25 9.5C17.25 9.36193 17.1381 9.25 17 9.25H14C13.6967 9.25 13.4232 9.43273 13.3071 9.71299C13.191 9.99324 13.2552 10.3158 13.4697 10.5303L16.8232 13.8839C16.9807 14.0414 17.25 13.9298 17.25 13.7071V9.5ZM18.75 14.5C18.75 14.6381 18.8619 14.75 19 14.75H20C20.9665 14.75 21.75 13.9665 21.75 13V11C21.75 10.0335 20.9665 9.25 20 9.25H19C18.8619 9.25 18.75 9.36193 18.75 9.5V14.5Z" fill="#23262A"/>
</svg>
