<svg width="24" height="24" viewBox="0 0 24 24" fill="none" xmlns="http://www.w3.org/2000/svg">
<path fill-rule="evenodd" clip-rule="evenodd" d="M18.25 2.5C18.25 2.08579 17.9142 1.75 17.5 1.75C17.0858 1.75 16.75 2.08579 16.75 2.5V3.38197C16.75 4.35125 17.2976 5.23734 18.1646 5.67082C18.5234 5.85021 18.75 6.21691 18.75 6.61803V7.5C18.75 7.91421 19.0858 8.25 19.5 8.25C19.9142 8.25 20.25 7.91421 20.25 7.5V6.61803C20.25 5.64875 19.7024 4.76266 18.8354 4.32918C18.4766 4.14979 18.25 3.78309 18.25 3.38197V2.5ZM6.46967 6.46967C6.76256 6.17678 7.23744 6.17678 7.53033 6.46967L12 10.9393L16.4697 6.46967C16.7626 6.17678 17.2374 6.17678 17.5303 6.46967C17.8232 6.76256 17.8232 7.23744 17.5303 7.53033L13.0607 12L17.5303 16.4697C17.8232 16.7626 17.8232 17.2374 17.5303 17.5303C17.2374 17.8232 16.7626 17.8232 16.4697 17.5303L12 13.0607L7.53033 17.5303C7.23744 17.8232 6.76256 17.8232 6.46967 17.5303C6.17678 17.2374 6.17678 16.7626 6.46967 16.4697L10.9393 12L6.46967 7.53033C6.17678 7.23744 6.17678 6.76256 6.46967 6.46967ZM6.84835 9.32322C6.80147 9.27634 6.73788 9.25 6.67157 9.25H3C2.58579 9.25 2.25 9.58579 2.25 10V14C2.25 14.4142 2.58579 14.75 3 14.75H6.67157C6.73788 14.75 6.80147 14.7237 6.84835 14.6768L9.34835 12.1768C9.44598 12.0791 9.44598 11.9209 9.34835 11.8232L6.84835 9.32322ZM17.0123 14.5375C17.0976 14.6228 17.25 14.6206 17.25 14.5V9.5C17.25 9.37936 17.0976 9.37722 17.0123 9.46253L14.6517 11.8232C14.554 11.9209 14.554 12.0791 14.6517 12.1768L17.0123 14.5375ZM18.75 14.5C18.75 14.6381 18.8619 14.75 19 14.75H20C20.9665 14.75 21.75 13.9665 21.75 13V11C21.75 10.0335 20.9665 9.25 20 9.25H19C18.8619 9.25 18.75 9.36193 18.75 9.5V14.5Z" fill="#23262A"/>
</svg>
