<svg width="24" height="24" viewBox="0 0 24 24" fill="none" xmlns="http://www.w3.org/2000/svg">
<path fill-rule="evenodd" clip-rule="evenodd" d="M18.2929 8.70711C18.3905 8.60948 18.3905 8.45118 18.2929 8.35355L15.6465 5.70711C15.5488 5.60948 15.3905 5.60948 15.2929 5.70711L11.6669 9.33309C11.5571 9.44286 11.4744 9.57669 11.4253 9.72397L10.1581 13.5257C10.093 13.7211 10.2789 13.907 10.4743 13.8419L14.276 12.5747C14.4233 12.5256 14.5571 12.4429 14.6669 12.3331L18.2929 8.70711ZM19.3536 7.29289C19.4512 7.39052 19.6095 7.39053 19.7071 7.2929L20.5 6.50001C21.3284 5.67159 21.3284 4.32844 20.5 3.50001C19.6716 2.67159 18.3284 2.67159 17.5 3.50001L16.7071 4.2929C16.6095 4.39053 16.6095 4.54882 16.7071 4.64645L19.3536 7.29289ZM15.2019 3.67678C15.3594 3.51929 15.2479 3.25 15.0251 3.25H5C4.0335 3.25 3.25 4.0335 3.25 5V19C3.25 19.9665 4.0335 20.75 5 20.75H19C19.9665 20.75 20.75 19.9665 20.75 19V8.97488C20.75 8.75216 20.4807 8.64062 20.3232 8.79811L15.7276 13.3937C15.4531 13.6682 15.1186 13.875 14.7504 13.9977L10.9487 15.2649C9.5806 15.721 8.27906 14.4194 8.73509 13.0513L10.0023 9.24962C10.1251 8.88143 10.3318 8.54686 10.6063 8.27243L15.2019 3.67678Z" fill="#23262A"/>
</svg>
