<svg width="24" height="24" viewBox="0 0 24 24" fill="none" xmlns="http://www.w3.org/2000/svg">
<path fill-rule="evenodd" clip-rule="evenodd" d="M16.9697 2.96968C18.091 1.84836 19.909 1.84836 21.0303 2.96968C22.1517 4.091 22.1517 5.90902 21.0303 7.03034L19.5303 8.53033L15.1973 12.8634C15.0052 13.0555 14.771 13.2003 14.5132 13.2862L10.2372 14.7115C9.96767 14.8014 9.67055 14.7312 9.46968 14.5303C9.2688 14.3295 9.19866 14.0323 9.28849 13.7628L10.7138 9.48679C10.7998 9.22906 10.9445 8.99486 11.1366 8.80276L15.4666 4.47277C15.4676 4.47174 15.4686 4.4707 15.4697 4.46967C15.4707 4.46864 15.4717 4.46761 15.4728 4.46658L16.9697 2.96968ZM16 6.06067L12.1973 9.86342C12.1698 9.89086 12.1491 9.92432 12.1369 9.96114L11.1859 12.8142L14.0389 11.8632C14.0757 11.8509 14.1092 11.8302 14.1366 11.8028L17.9393 8.00001L16 6.06067ZM19 6.93935L17.0607 5.00001L18.0303 4.03034C18.5659 3.49481 19.4341 3.49481 19.9697 4.03034C20.5052 4.56588 20.5052 5.43415 19.9697 5.96968L19 6.93935ZM3.25 5C3.25 4.0335 4.0335 3.25 5 3.25H12C12.4142 3.25 12.75 3.58579 12.75 4C12.75 4.41421 12.4142 4.75 12 4.75H5C4.86193 4.75 4.75 4.86193 4.75 5V19C4.75 19.1381 4.86193 19.25 5 19.25H19C19.1381 19.25 19.25 19.1381 19.25 19V12C19.25 11.5858 19.5858 11.25 20 11.25C20.4142 11.25 20.75 11.5858 20.75 12V19C20.75 19.9665 19.9665 20.75 19 20.75H5C4.0335 20.75 3.25 19.9665 3.25 19V5Z" fill="#23262A"/>
</svg>
