<svg width="24" height="24" viewBox="0 0 24 24" fill="none" xmlns="http://www.w3.org/2000/svg">
<path fill-rule="evenodd" clip-rule="evenodd" d="M16.9697 2.96968C18.091 1.84836 19.909 1.84836 21.0303 2.96968C22.1517 4.091 22.1517 5.90902 21.0303 7.03034L19.5303 8.53033L15.0303 13.0303C14.948 13.1127 14.8476 13.1747 14.7372 13.2115L10.2372 14.7115C9.96767 14.8014 9.67055 14.7312 9.46968 14.5303C9.2688 14.3295 9.19866 14.0323 9.28849 13.7628L10.7885 9.26284C10.8253 9.15238 10.8873 9.05201 10.9697 8.96968L15.4666 4.47277C15.4676 4.47173 15.4686 4.4707 15.4697 4.46967C15.4707 4.46864 15.4717 4.46761 15.4728 4.46659L16.9697 2.96968ZM16 6.06067L12.1555 9.90515L11.1859 12.8142L14.0949 11.8445L17.9393 8.00001L16 6.06067ZM19 6.93935L17.0607 5.00001L18.0303 4.03034C18.5659 3.49481 19.4341 3.49481 19.9697 4.03034C20.5052 4.56588 20.5052 5.43415 19.9697 5.96968L19 6.93935ZM3.25 5C3.25 4.0335 4.0335 3.25 5 3.25H6.75C7.16421 3.25 7.5 3.58579 7.5 4C7.5 4.41421 7.16421 4.75 6.75 4.75H5C4.86193 4.75 4.75 4.86193 4.75 5V6.75C4.75 7.16421 4.41421 7.5 4 7.5C3.58579 7.5 3.25 7.16421 3.25 6.75V5ZM9.5 4C9.5 3.58579 9.83579 3.25 10.25 3.25H12C12.4142 3.25 12.75 3.58579 12.75 4C12.75 4.41421 12.4142 4.75 12 4.75H10.25C9.83579 4.75 9.5 4.41421 9.5 4ZM4 9.5C4.41421 9.5 4.75 9.83579 4.75 10.25V13.75C4.75 14.1642 4.41421 14.5 4 14.5C3.58579 14.5 3.25 14.1642 3.25 13.75V10.25C3.25 9.83579 3.58579 9.5 4 9.5ZM20 11.25C20.4142 11.25 20.75 11.5858 20.75 12V13.75C20.75 14.1642 20.4142 14.5 20 14.5C19.5858 14.5 19.25 14.1642 19.25 13.75V12C19.25 11.5858 19.5858 11.25 20 11.25ZM4 16.5C4.41421 16.5 4.75 16.8358 4.75 17.25V19C4.75 19.1381 4.86193 19.25 5 19.25H6.75C7.16421 19.25 7.5 19.5858 7.5 20C7.5 20.4142 7.16421 20.75 6.75 20.75H5C4.0335 20.75 3.25 19.9665 3.25 19V17.25C3.25 16.8358 3.58579 16.5 4 16.5ZM20 16.5C20.4142 16.5 20.75 16.8358 20.75 17.25V19C20.75 19.9665 19.9665 20.75 19 20.75H17.25C16.8358 20.75 16.5 20.4142 16.5 20C16.5 19.5858 16.8358 19.25 17.25 19.25H19C19.1381 19.25 19.25 19.1381 19.25 19V17.25C19.25 16.8358 19.5858 16.5 20 16.5ZM9.5 20C9.5 19.5858 9.83579 19.25 10.25 19.25H13.75C14.1642 19.25 14.5 19.5858 14.5 20C14.5 20.4142 14.1642 20.75 13.75 20.75H10.25C9.83579 20.75 9.5 20.4142 9.5 20Z" fill="#23262A"/>
</svg>
