<svg width="24" height="24" viewBox="0 0 24 24" fill="none" xmlns="http://www.w3.org/2000/svg">
<path fill-rule="evenodd" clip-rule="evenodd" d="M5.25 5C5.25 4.7234 5.09776 4.46926 4.8539 4.33875C4.61003 4.20823 4.31412 4.22254 4.08398 4.37596L2.58398 5.37596C2.23933 5.60573 2.1462 6.07138 2.37597 6.41603C2.60573 6.76067 3.07138 6.8538 3.41603 6.62404L3.75 6.40139V9.75H3C2.58579 9.75 2.25 10.0858 2.25 10.5C2.25 10.9142 2.58579 11.25 3 11.25H4.49879L4.5 11.25L4.50121 11.25H6C6.41421 11.25 6.75 10.9142 6.75 10.5C6.75 10.0858 6.41421 9.75 6 9.75H5.25V5ZM4.5 14.25C4.08578 14.25 3.75 14.5858 3.75 15C3.75 15.4142 3.41421 15.75 3 15.75C2.58578 15.75 2.25 15.4142 2.25 15C2.25 13.7574 3.25735 12.75 4.5 12.75H4.54006C5.76057 12.75 6.75 13.7394 6.75 14.9599C6.75 15.4875 6.56128 15.9976 6.21797 16.3981L4.63066 18.25H6C6.41421 18.25 6.75 18.5858 6.75 19C6.75 19.4142 6.41421 19.75 6 19.75H3C2.7071 19.75 2.441 19.5795 2.31861 19.3134C2.19622 19.0473 2.23994 18.7343 2.43055 18.5119L5.07908 15.422C5.18937 15.2933 5.25 15.1294 5.25 14.9599C5.25 14.5678 4.93215 14.25 4.54006 14.25H4.5ZM9 17.25C8.58579 17.25 8.25 17.5858 8.25 18C8.25 18.4142 8.58579 18.75 9 18.75H21C21.4142 18.75 21.75 18.4142 21.75 18C21.75 17.5858 21.4142 17.25 21 17.25H9ZM8.25 12C8.25 11.5858 8.58579 11.25 9 11.25H21C21.4142 11.25 21.75 11.5858 21.75 12C21.75 12.4142 21.4142 12.75 21 12.75H9C8.58579 12.75 8.25 12.4142 8.25 12ZM9 5.25C8.58579 5.25 8.25 5.58579 8.25 6C8.25 6.41421 8.58579 6.75 9 6.75H21C21.4142 6.75 21.75 6.41421 21.75 6C21.75 5.58579 21.4142 5.25 21 5.25H9Z" fill="#23262A"/>
</svg>
