<svg xmlns="http://www.w3.org/2000/svg" width="24" height="24" viewBox="0 0 24 24" fill="none">
  <path d="M17 3.25C17.4142 3.25 17.75 3.58579 17.75 4V20C17.75 20.4142 17.4142 20.75 17 20.75H7C6.58579 20.75 6.25 20.4142 6.25 20V4C6.25 3.58579 6.58579 3.25 7 3.25H17ZM7.75 19.25H16.25V4.75H7.75V19.25Z" fill="#202733"/>
  <path d="M18 7.25C18.4142 7.25 18.75 7.58579 18.75 8C18.75 8.41421 18.4142 8.75 18 8.75H6C5.58579 8.75 5.25 8.41421 5.25 8C5.25 7.58579 5.58579 7.25 6 7.25H18ZM18 3.25C18.4142 3.25 18.75 3.58579 18.75 4C18.75 4.41421 18.4142 4.75 18 4.75H6C5.58579 4.75 5.25 4.41421 5.25 4C5.25 3.58579 5.58579 3.25 6 3.25H18Z" fill="#202733"/>
  <path d="M18 19.25C18.4142 19.25 18.75 19.5858 18.75 20C18.75 20.4142 18.4142 20.75 18 20.75H6C5.58579 20.75 5.25 20.4142 5.25 20C5.25 19.5858 5.58579 19.25 6 19.25H18ZM18 15.25C18.4142 15.25 18.75 15.5858 18.75 16C18.75 16.4142 18.4142 16.75 18 16.75H6C5.58579 16.75 5.25 16.4142 5.25 16C5.25 15.5858 5.58579 15.25 6 15.25H18Z" fill="#202733"/>
  <path d="M11.4694 9.46973C11.7623 9.17688 12.2371 9.17698 12.53 9.46973L13.7028 10.6426C14.6434 11.5832 14.6434 13.1082 13.7028 14.0488C12.7622 14.9891 11.2371 14.9893 10.2966 14.0488C9.35612 13.1083 9.35627 11.5832 10.2966 10.6426L11.4694 9.46973ZM11.3571 11.7031C11.0026 12.0579 11.0025 12.6336 11.3571 12.9883C11.7118 13.343 12.2875 13.3428 12.6423 12.9883C12.9971 12.6335 12.9971 12.0579 12.6423 11.7031L11.9997 11.0605L11.3571 11.7031Z" fill="#202733"/>
</svg>