<svg xmlns="http://www.w3.org/2000/svg" width="24" height="24" viewBox="0 0 24 24" fill="none">
  <path d="M20.75 14C20.75 14.4142 20.4142 14.75 20 14.75H19.75V17.6895L20.1475 18.0869L21.6651 17.3291C22.0355 17.1442 22.4858 17.2947 22.6709 17.665C22.8559 18.0354 22.7053 18.4857 22.335 18.6709L20.335 19.6709C20.0463 19.815 19.6979 19.7584 19.4698 19.5303L18.8516 18.9121L17.335 19.6709C17.0463 19.815 16.6979 19.7584 16.4698 19.5303L15.8516 18.9121L14.335 19.6709C14.0463 19.815 13.6979 19.7584 13.4698 19.5303L12.8516 18.9121L11.335 19.6709C11.0463 19.815 10.6979 19.7584 10.4698 19.5303L9.8516 18.9121L8.335 19.6709C8.04634 19.815 7.69794 19.7584 7.46976 19.5303L6.8516 18.9121L5.335 19.6709C5.04634 19.815 4.69794 19.7584 4.46976 19.5303L3.8516 18.9121L2.335 19.6709C1.96459 19.8558 1.51432 19.7053 1.32914 19.335C1.14422 18.9646 1.29473 18.5143 1.66508 18.3291L3.66508 17.3291L3.77543 17.2842C3.93208 17.235 4.09856 17.2403 4.25004 17.2939V14.75H4.00004C3.58582 14.75 3.25004 14.4142 3.25004 14V12.75H20.75V14ZM7.75004 17.6895L8.1475 18.0869L9.66508 17.3291L9.77543 17.2842C10.0387 17.2015 10.3306 17.2701 10.5303 17.4697L11.1475 18.0869L11.251 18.0342C11.2505 18.0228 11.25 18.0115 11.25 18V15.75H11C10.5858 15.75 10.25 15.4142 10.25 15V14.75H7.75004V17.6895ZM13.75 15C13.75 15.4142 13.4142 15.75 13 15.75H12.75V17.2939L12.7754 17.2842C13.0387 17.2015 13.3306 17.2701 13.5303 17.4697L14.1475 18.0869L15.6651 17.3291L15.7754 17.2842C15.9321 17.235 16.0986 17.2403 16.25 17.2939V14.75H13.75V15ZM9.83793 11.25H5.25004L5.24906 9.24805L2.39945 5.4502C2.15107 5.11886 2.21858 4.64792 2.54984 4.39941C2.8812 4.15111 3.35216 4.21852 3.60062 4.5498L6.37504 8.24902H8.66215L9.25492 2.91699L9.28324 2.7793C9.37825 2.46995 9.66572 2.25 10 2.25H12C12.3821 2.25002 12.7029 2.53729 12.7452 2.91699L13.2266 7.25H15.25V6.75H15C14.5858 6.75 14.25 6.41421 14.25 6C14.25 5.58579 14.5858 5.25 15 5.25H19C19.4142 5.25002 19.75 5.5858 19.75 6C19.75 6.4142 19.4142 6.74998 19 6.75H18.75V7.25H19C19.4142 7.25002 19.75 7.5858 19.75 8V11.25H12.1621L12.1524 11.1641C12.1292 11.1519 12.1063 11.1388 12.084 11.124L10.0049 9.73828L9.83793 11.25ZM10.1914 8.05957L11.9366 9.22266L11.7686 7.70898C11.6924 7.68411 11.6176 7.6504 11.5498 7.59961L10.3438 6.69434L10.1914 8.05957ZM16.75 7.25H17.25V6.75H16.75V7.25ZM10.5352 4.96387L11.5479 5.72363L11.3291 3.75H10.6709L10.5352 4.96387Z" fill="#202733"/>
</svg>