<svg width="24" height="24" viewBox="0 0 24 24" fill="none" xmlns="http://www.w3.org/2000/svg">
<path d="M3.75 5.25C3.88807 5.25 4 5.36193 4 5.5V17C4 17.81 4.65013 18.4613 5.44434 18.4961C5.43849 18.4958 5.43322 18.4964 5.42871 18.4961L5.44727 18.498C5.45481 18.4986 5.46526 18.4988 5.4707 18.499L5.49023 18.5H6.58594L6.89258 18.5049C8.42153 18.5571 9.91699 18.9985 11.2314 19.7871C11.2764 19.814 11.3222 19.8371 11.3682 19.8574C11.4456 19.8917 11.5 19.9661 11.5 20.0508C11.4999 20.1608 11.4108 20.2499 11.3008 20.25H3C2.58579 20.25 2.25 19.9142 2.25 19.5V6C2.25 5.58579 2.58579 5.25 3 5.25H3.75ZM21 5.25C21.4142 5.25 21.75 5.58579 21.75 6V19.5C21.75 19.9142 21.4142 20.25 21 20.25H12.6992C12.5892 20.2499 12.5001 20.1608 12.5 20.0508C12.5 19.9661 12.5543 19.8923 12.6318 19.8584C12.6785 19.838 12.7258 19.8141 12.7725 19.7861C14.1748 18.9449 15.7806 18.5001 17.416 18.5H18.5498L18.5977 18.4951L18.6982 18.4854L18.751 18.4805L18.8027 18.4697C19.4868 18.3291 20.001 17.7248 20.001 17V16.9697L20 16.9551V5.5C20 5.36193 20.1119 5.25 20.25 5.25H21ZM18.6016 4.00977C18.8293 4.05665 19.001 4.25876 19.001 4.5C19.0008 4.50322 19.0001 4.50721 19 4.51172V16.9873C19.0001 16.9924 19.0008 16.9968 19.001 17C19.001 17.2412 18.8293 17.4433 18.6016 17.4902L18.501 17.5H17.416C15.8355 17.5001 14.2804 17.8752 12.877 18.5879C12.7065 18.6743 12.5 18.5525 12.5 18.3613V5.3125C12.5002 5.21791 12.5534 5.13089 12.6387 5.08984C14.1253 4.37509 15.758 4.00007 17.416 4H18.501L18.6016 4.00977ZM6.93262 4.00586C8.47049 4.05446 9.97889 4.42523 11.3613 5.08984C11.4466 5.13089 11.4998 5.21791 11.5 5.3125V18.3594C11.5 18.5505 11.2935 18.6724 11.123 18.5859C9.72016 17.8741 8.16553 17.5002 6.58594 17.5H5.50977C5.50504 17.4998 5.49985 17.499 5.49512 17.499C5.22127 17.4956 5 17.2734 5 17V4.5C5 4.22424 5.22387 4.00027 5.5 4H6.58594L6.93262 4.00586Z" fill="#202733"/>
</svg>
