<svg width="24" height="24" viewBox="0 0 24 24" fill="none" xmlns="http://www.w3.org/2000/svg">
<path d="M6.58594 3.75C8.48052 3.75024 10.3423 4.22818 12 5.13574C13.658 4.22789 15.521 3.75007 17.416 3.75H18.501C18.9147 3.75053 19.251 4.08611 19.251 4.5C19.251 4.50587 19.2501 4.51174 19.25 4.51758V5.25H21.001C21.1559 5.2502 21.3005 5.29723 21.4199 5.37793C21.4598 5.40491 21.4974 5.43579 21.5312 5.46973C21.6327 5.57141 21.7054 5.70247 21.7354 5.84863C21.7403 5.87293 21.7445 5.89777 21.7471 5.92285C21.7497 5.94818 21.751 5.97399 21.751 6C21.751 6.0062 21.7502 6.01239 21.75 6.01855V19.5C21.75 19.9141 21.414 20.2497 21 20.25H3C2.586 20.2497 2.24902 19.9141 2.24902 19.5V6C2.24902 5.61166 2.54556 5.29229 2.92383 5.25391L3 5.25H4.75V4.5C4.75 4.08595 5.08601 3.75026 5.5 3.75H6.58594ZM3.75 18.75H10.8877C9.55189 18.095 8.08086 17.7502 6.58594 17.75H5.50098C5.08676 17.75 4.75 17.4142 4.75 17V6.75H3.75V18.75ZM19.25 16.9805C19.2502 16.987 19.251 16.9935 19.251 17C19.251 17.4139 18.9147 17.7495 18.501 17.75H17.416C15.9209 17.7501 14.4493 18.095 13.1133 18.75H20.25V6.75H19.25V16.9805ZM17.416 5.25C15.7842 5.25007 14.1801 5.65975 12.75 6.43652V17.2617C14.2108 16.5978 15.8016 16.2501 17.416 16.25H17.75V5.25H17.416ZM6.25 5.98047C6.25017 5.98696 6.25098 5.99347 6.25098 6C6.25098 6.0062 6.25015 6.01239 6.25 6.01855V16.25H6.58594C8.19969 16.2502 9.78974 16.5972 11.25 17.2607V6.43555C9.82042 5.6592 8.21708 5.25024 6.58594 5.25H6.25V5.98047Z" fill="#202733"/>
</svg>
