<svg width="24" height="24" viewBox="0 0 24 24" fill="none" xmlns="http://www.w3.org/2000/svg">
<path d="M16.5 2.75C17.9445 2.75 19.3619 3.14259 20.6006 3.88574L21.3857 4.35645C21.3945 4.36167 21.4027 4.36753 21.4111 4.37305C21.4158 4.37612 21.4202 4.37963 21.4248 4.38281C21.4593 4.40656 21.4912 4.43264 21.5205 4.46094C21.5368 4.47667 21.5506 4.49458 21.5654 4.51172C21.5817 4.53062 21.5981 4.54909 21.6123 4.56934C21.6259 4.58858 21.6367 4.60937 21.6484 4.62988C21.6608 4.65153 21.6735 4.67265 21.6836 4.69531C21.6928 4.7159 21.6997 4.73727 21.707 4.75879C21.7155 4.78365 21.7237 4.80839 21.7295 4.83398C21.738 4.87153 21.7444 4.90977 21.7471 4.94922C21.7476 4.95638 21.7478 4.96352 21.748 4.9707C21.7484 4.98044 21.75 4.99017 21.75 5V20.5C21.75 20.5311 21.7468 20.5617 21.7432 20.5918C21.7419 20.6019 21.7399 20.6119 21.7383 20.6221C21.7343 20.6465 21.727 20.6698 21.7207 20.6934C21.7129 20.7225 21.7058 20.7518 21.6943 20.7803C21.6918 20.7865 21.6892 20.7927 21.6865 20.7988C21.6737 20.8281 21.6604 20.8576 21.6436 20.8857C21.6382 20.8946 21.6316 20.9026 21.626 20.9111C21.6229 20.9158 21.6194 20.9202 21.6162 20.9248C21.5924 20.9594 21.5664 20.9912 21.5381 21.0205C21.5223 21.0368 21.5045 21.0506 21.4873 21.0654C21.4684 21.0817 21.45 21.0981 21.4297 21.1123C21.4104 21.1259 21.3897 21.1367 21.3691 21.1484C21.3475 21.1607 21.3264 21.1735 21.3037 21.1836C21.2831 21.1928 21.2618 21.1997 21.2402 21.207C21.2154 21.2155 21.1907 21.2237 21.165 21.2295C21.1275 21.238 21.0893 21.2445 21.0498 21.2471C21.0426 21.2476 21.0355 21.2478 21.0283 21.248C21.0189 21.2484 21.0095 21.25 21 21.25C20.9685 21.25 20.9377 21.2469 20.9072 21.2432C20.8971 21.2419 20.8871 21.24 20.877 21.2383C20.8525 21.2342 20.8292 21.227 20.8057 21.2207C20.7766 21.2129 20.7472 21.2059 20.7188 21.1943C20.7125 21.1918 20.7063 21.1892 20.7002 21.1865C20.6712 21.1738 20.6421 21.1603 20.6143 21.1436L19.8291 20.6719C18.8235 20.0685 17.6727 19.75 16.5 19.75C15.3273 19.75 14.1765 20.0685 13.1709 20.6719L12.3857 21.1436C12.3309 21.1764 12.2725 21.1983 12.2139 21.2158C12.1916 21.2225 12.1693 21.2279 12.1465 21.2324C12.1204 21.2376 12.0946 21.2418 12.0684 21.2441C12.0456 21.2463 12.023 21.247 12 21.2471C11.9767 21.247 11.9538 21.2463 11.9307 21.2441C11.9044 21.2417 11.8786 21.2377 11.8525 21.2324C11.8298 21.2278 11.8074 21.2225 11.7852 21.2158C11.7268 21.1983 11.6689 21.1763 11.6143 21.1436L10.8291 20.6719C9.82349 20.0685 8.67272 19.75 7.5 19.75C6.32728 19.75 5.17651 20.0685 4.1709 20.6719L3.38574 21.1436C3.3576 21.1604 3.32813 21.1737 3.29883 21.1865C3.29267 21.1892 3.28651 21.1918 3.28027 21.1943C3.25183 21.2058 3.22248 21.2129 3.19336 21.2207C3.16979 21.227 3.1465 21.2343 3.12207 21.2383C3.11194 21.2399 3.10195 21.2419 3.0918 21.2432C3.06166 21.2468 3.03113 21.25 3 21.25C2.99017 21.25 2.98044 21.2484 2.9707 21.248C2.96352 21.2478 2.95638 21.2476 2.94922 21.2471C2.90977 21.2444 2.87153 21.238 2.83398 21.2295C2.80839 21.2237 2.78365 21.2155 2.75879 21.207C2.73727 21.1997 2.7159 21.1928 2.69531 21.1836C2.67265 21.1735 2.65153 21.1608 2.62988 21.1484C2.60937 21.1367 2.58858 21.1259 2.56934 21.1123C2.54909 21.0981 2.53062 21.0817 2.51172 21.0654C2.49458 21.0506 2.47667 21.0368 2.46094 21.0205C2.43264 20.9912 2.40656 20.9593 2.38281 20.9248C2.37963 20.9202 2.37612 20.9158 2.37305 20.9111C2.36753 20.9027 2.36167 20.8945 2.35645 20.8857C2.33951 20.8575 2.32532 20.8283 2.3125 20.7988C2.30982 20.7927 2.3072 20.7865 2.30469 20.7803C2.29321 20.7519 2.28612 20.7224 2.27832 20.6934C2.27203 20.6698 2.26474 20.6465 2.26074 20.6221C2.25908 20.612 2.2571 20.6019 2.25586 20.5918C2.25219 20.5617 2.25 20.5311 2.25 20.5V5C2.25 4.99018 2.2506 4.98043 2.25098 4.9707C2.25127 4.96353 2.25146 4.95637 2.25195 4.94922C2.25459 4.90982 2.26105 4.87148 2.26953 4.83398C2.27535 4.80842 2.28354 4.78363 2.29199 4.75879C2.29931 4.7373 2.30626 4.71588 2.31543 4.69531C2.32548 4.67267 2.33829 4.65151 2.35059 4.62988C2.36229 4.60938 2.37319 4.58856 2.38672 4.56934C2.4009 4.5491 2.41732 4.53062 2.43359 4.51172C2.44567 4.49772 2.45666 4.48279 2.46973 4.46973L2.49219 4.44727C2.52896 4.41351 2.56981 4.38312 2.61426 4.35645L3.39941 3.88574C4.63811 3.14259 6.05547 2.75 7.5 2.75C8.94453 2.75 10.3619 3.14259 11.6006 3.88574L12 4.125L12.3994 3.88574C13.6381 3.14259 15.0555 2.75 16.5 2.75ZM9.16211 12.958C8.75766 12.8688 8.35783 13.1249 8.26855 13.5293C8.17934 13.9337 8.43444 14.3336 8.83887 14.4229C9.14638 14.4907 9.44967 14.5789 9.74609 14.6855C10.1357 14.8255 10.5659 14.623 10.7061 14.2334C10.8461 13.8438 10.6433 13.4148 10.2539 13.2744C9.89709 13.1461 9.53228 13.0397 9.16211 12.958ZM16.75 12.75C15.7217 12.75 14.7056 12.9292 13.7461 13.2744C13.3565 13.4147 13.1539 13.8438 13.2939 14.2334C13.4342 14.6231 13.8642 14.8257 14.2539 14.6855C15.0512 14.3987 15.8955 14.25 16.75 14.25C17.2753 14.25 17.7967 14.3062 18.3057 14.416C18.7105 14.5034 19.1098 14.2457 19.1973 13.8408C19.2844 13.4362 19.0276 13.0378 18.623 12.9502C18.0103 12.8179 17.3823 12.75 16.75 12.75ZM6.86133 12.7588C6.29321 12.7837 5.73022 12.8633 5.18066 12.9951C4.77788 13.0917 4.52935 13.4966 4.62598 13.8994C4.72275 14.302 5.12763 14.5497 5.53027 14.4531C5.98702 14.3436 6.45558 14.2775 6.92773 14.2568C7.34113 14.2382 7.66168 13.8881 7.64355 13.4746C7.62523 13.0611 7.27482 12.7409 6.86133 12.7588ZM15.8457 10.5156C15.762 10.1102 15.3655 9.84923 14.96 9.93262C14.548 10.0175 14.142 10.131 13.7461 10.2734C13.3564 10.4136 13.1539 10.8437 13.2939 11.2334C13.4342 11.6231 13.8642 11.8257 14.2539 11.6855C14.5829 11.5672 14.9203 11.4719 15.2627 11.4014C15.6681 11.3176 15.9292 10.9211 15.8457 10.5156ZM7.25 9.75C6.56427 9.75002 5.88334 9.83002 5.22168 9.98535C4.81874 10.0803 4.56845 10.4836 4.66309 10.8867C4.75786 11.2898 5.16226 11.54 5.56543 11.4453C6.11509 11.3163 6.68035 11.25 7.25 11.25C7.66876 11.25 8.08562 11.2853 8.49512 11.3555C8.90329 11.4253 9.29139 11.1513 9.36133 10.7432C9.43112 10.3352 9.1569 9.94814 8.74902 9.87793C8.25604 9.79346 7.75411 9.75001 7.25 9.75ZM17.249 9.76367C16.8357 9.74061 16.4814 10.0574 16.458 10.4707C16.4348 10.8841 16.7516 11.2384 17.165 11.2617C17.5609 11.284 17.9538 11.3379 18.3389 11.4229C18.7431 11.5118 19.1431 11.2567 19.2324 10.8525C19.3215 10.4481 19.0655 10.0472 18.6611 9.95801C18.1978 9.85582 17.7253 9.79052 17.249 9.76367ZM7.25 6.75C6.52941 6.75002 5.81436 6.83748 5.12109 7.00879C4.71924 7.10824 4.47315 7.51508 4.57227 7.91699C4.67161 8.31891 5.07854 8.56483 5.48047 8.46582C6.05662 8.32342 6.65114 8.25002 7.25 8.25C8.10437 8.25003 8.94889 8.39876 9.74609 8.68555C10.1358 8.82558 10.5649 8.62301 10.7051 8.2334C10.8453 7.84376 10.6434 7.41477 10.2539 7.27441C9.29452 6.92928 8.27822 6.75003 7.25 6.75Z" fill="#202733"/>
</svg>
