<svg width="24" height="24" viewBox="0 0 24 24" fill="none" xmlns="http://www.w3.org/2000/svg">
<path fill-rule="evenodd" clip-rule="evenodd" d="M2.25 12C2.25 6.61522 6.61522 2.25 12 2.25C17.3848 2.25 21.75 6.61522 21.75 12C21.75 17.3848 17.3848 21.75 12 21.75C6.61522 21.75 2.25 17.3848 2.25 12ZM14 9C13.4477 9 13 9.44772 13 10C13 10.5523 13.4477 11 14 11C14.5523 11 15 10.5523 15 10C15 9.44772 14.5523 9 14 9ZM16.5 10C16.5 10.6565 16.2469 11.2539 15.8331 11.7C16.3958 12.2035 16.75 12.9354 16.75 13.75C16.75 15.2688 15.5188 16.5 14 16.5C12.4812 16.5 11.25 15.2688 11.25 13.75C11.25 12.9354 11.6042 12.2035 12.1669 11.7C11.7531 11.2539 11.5 10.6565 11.5 10C11.5 8.61929 12.6193 7.5 14 7.5C15.3807 7.5 16.5 8.61929 16.5 10ZM12.75 13.75C12.75 13.0596 13.3096 12.5 14 12.5C14.6904 12.5 15.25 13.0596 15.25 13.75C15.25 14.4404 14.6904 15 14 15C13.3096 15 12.75 14.4404 12.75 13.75ZM9.74968 8.5C9.74968 8.24007 9.61509 7.99867 9.39397 7.86201C9.17286 7.72536 8.89676 7.71293 8.66427 7.82918L6.66427 8.82918C6.29378 9.01442 6.14361 9.46493 6.32886 9.83541C6.5141 10.2059 6.9646 10.3561 7.33509 10.1708L8.24968 9.71353V15.5C8.24968 15.9142 8.58546 16.25 8.99968 16.25C9.41389 16.25 9.74968 15.9142 9.74968 15.5V8.5Z" fill="#23262A"/>
</svg>
