<svg width="24" height="24" viewBox="0 0 24 24" fill="none" xmlns="http://www.w3.org/2000/svg">
<path fill-rule="evenodd" clip-rule="evenodd" d="M11.9998 3.75C7.44349 3.75 3.74984 7.44365 3.74984 12C3.74984 16.5563 7.44349 20.25 11.9998 20.25C16.5562 20.25 20.2498 16.5563 20.2498 12C20.2498 7.44365 16.5562 3.75 11.9998 3.75ZM2.24984 12C2.24984 6.61522 6.61506 2.25 11.9998 2.25C17.3846 2.25 21.7498 6.61522 21.7498 12C21.7498 17.3848 17.3846 21.75 11.9998 21.75C6.61506 21.75 2.24984 17.3848 2.24984 12ZM9.39413 7.86201C9.61525 7.99867 9.74984 8.24007 9.74984 8.5V15.5C9.74984 15.9142 9.41405 16.25 8.99984 16.25C8.58562 16.25 8.24984 15.9142 8.24984 15.5V9.71353L7.33525 10.1708C6.96476 10.3561 6.51426 10.2059 6.32902 9.83541C6.14377 9.46493 6.29394 9.01442 6.66443 8.82918L8.66443 7.82918C8.89692 7.71293 9.17302 7.72536 9.39413 7.86201ZM16.4998 10C16.4998 10.6565 16.2468 11.2539 15.8329 11.7C16.3957 12.2035 16.7498 12.9354 16.7498 13.75C16.7498 15.2688 15.5186 16.5 13.9998 16.5C12.4811 16.5 11.2498 15.2688 11.2498 13.75C11.2498 12.9354 11.604 12.2035 12.1668 11.7C11.7529 11.2539 11.4998 10.6565 11.4998 10C11.4998 8.61929 12.6191 7.5 13.9998 7.5C15.3805 7.5 16.4998 8.61929 16.4998 10ZM13.9998 9C13.4476 9 12.9998 9.44772 12.9998 10C12.9998 10.5523 13.4476 11 13.9998 11C14.5521 11 14.9998 10.5523 14.9998 10C14.9998 9.44772 14.5521 9 13.9998 9ZM12.7498 13.75C12.7498 13.0596 13.3095 12.5 13.9998 12.5C14.6902 12.5 15.2498 13.0596 15.2498 13.75C15.2498 14.4404 14.6902 15 13.9998 15C13.3095 15 12.7498 14.4404 12.7498 13.75Z" fill="#23262A"/>
</svg>
