<svg width="24" height="24" viewBox="0 0 24 24" fill="none" xmlns="http://www.w3.org/2000/svg">
<path fill-rule="evenodd" clip-rule="evenodd" d="M12.3748 2.35048C12.1427 2.21651 11.8568 2.21651 11.6248 2.35048L4.57963 6.41801C4.41295 6.51424 4.41296 6.75482 4.57965 6.85104L11.875 11.0619C11.9523 11.1066 12.0476 11.1066 12.1249 11.0619L19.4191 6.85057C19.422 6.84891 19.4249 6.84726 19.4278 6.84564C19.4326 6.84296 19.4374 6.84033 19.4423 6.83775C19.602 6.75289 19.606 6.52544 19.4494 6.435L12.3748 2.35048ZM20.544 8.36688C20.544 8.17833 20.3432 8.05765 20.1767 8.1461L20.1577 8.15622L12.875 12.3609C12.7977 12.4056 12.75 12.4881 12.75 12.5774L12.75 20.9999C12.75 21.1923 12.9583 21.3126 13.125 21.2164L20.169 17.1495C20.4011 17.0155 20.544 16.7679 20.544 16.5V8.36688ZM10.875 21.2166C11.0417 21.3129 11.25 21.1926 11.25 21.0001L11.25 12.5775C11.25 12.4882 11.2023 12.4057 11.125 12.361L3.83054 8.1506C3.66388 8.0544 3.45557 8.17468 3.45557 8.36712V16.5C3.45557 16.7679 3.59852 17.0155 3.83057 17.1495L10.875 21.2166Z" fill="#23262A"/>
</svg>
