<svg width="24" height="24" viewBox="0 0 24 24" fill="none" xmlns="http://www.w3.org/2000/svg">
<path fill-rule="evenodd" clip-rule="evenodd" d="M20.438 7.11571C20.3678 6.99792 20.2701 6.90625 20.1578 6.84415L12.3872 2.35776C12.3621 2.34263 12.3361 2.32904 12.3095 2.31701C12.2098 2.27163 12.1042 2.24991 11.9999 2.25C11.8955 2.24989 11.7899 2.27161 11.6901 2.31701C11.6635 2.32904 11.6375 2.34263 11.6124 2.35775L3.84183 6.84411C3.7266 6.90785 3.62669 7.00277 3.55605 7.12513C3.48541 7.24748 3.45316 7.38146 3.45557 7.51312V16.5001C3.45557 16.7681 3.59852 17.0157 3.83057 17.1496L11.6124 21.6425C11.6307 21.6535 11.6494 21.6637 11.6685 21.6731C11.6958 21.6866 11.7242 21.6985 11.7533 21.7086C11.8339 21.7368 11.9172 21.7503 11.9998 21.7503C12.0536 21.7503 12.1078 21.7445 12.1613 21.7327C12.2435 21.7147 12.3206 21.6832 12.3903 21.6407L20.169 17.1496C20.4011 17.0157 20.544 16.7681 20.544 16.5001V7.51305C20.5464 7.38481 20.5158 7.25437 20.4489 7.13462C20.4454 7.12826 20.4418 7.12196 20.438 7.11571ZM18.294 7.50013L11.9998 3.86615L5.70557 7.50012L11.9998 11.1341L18.294 7.50013ZM4.95557 8.79916V16.0671L11.25 19.7012L11.25 12.4332L4.95557 8.79916ZM12.75 12.433L19.044 8.79917V16.0671L12.75 19.701V12.433Z" fill="#262626"/>
</svg>
