<svg width="24" height="24" viewBox="0 0 24 24" fill="none" xmlns="http://www.w3.org/2000/svg">
<path fill-rule="evenodd" clip-rule="evenodd" d="M20.438 7.11558C20.3678 6.9978 20.2701 6.90613 20.1578 6.84403L12.3872 2.35763C12.3621 2.34251 12.3361 2.32891 12.3095 2.31689C12.2098 2.2715 12.1042 2.24979 11.9999 2.24988C11.8955 2.24977 11.7899 2.27149 11.6901 2.31689C11.6635 2.32891 11.6375 2.3425 11.6124 2.35762L3.84183 6.84398C3.7266 6.90773 3.62669 7.00265 3.55605 7.125C3.48541 7.24735 3.45316 7.38134 3.45557 7.513V16.5C3.45557 16.7679 3.59852 17.0155 3.83057 17.1495L11.6124 21.6424C11.6307 21.6534 11.6494 21.6636 11.6685 21.6729C11.6958 21.6864 11.7242 21.6983 11.7533 21.7085C11.8339 21.7366 11.9172 21.7502 11.9998 21.7501C12.0536 21.7502 12.1078 21.7444 12.1613 21.7326C12.2435 21.7146 12.3206 21.6831 12.3903 21.6406L20.169 17.1495C20.4011 17.0155 20.544 16.7679 20.544 16.5V7.51293C20.5464 7.38468 20.5158 7.25424 20.4489 7.13449C20.4454 7.12814 20.4418 7.12183 20.438 7.11558ZM18.294 7.5L11.9998 3.86602L5.70557 7.5L11.9998 11.134L18.294 7.5ZM4.95557 8.79904V16.067L11.25 19.7011L11.25 12.4331L4.95557 8.79904ZM12.75 12.4329L19.044 8.79904V16.067L12.75 19.7008V12.4329Z" fill="#23262A"/>
</svg>
