<svg width="24" height="24" viewBox="0 0 24 24" fill="none" xmlns="http://www.w3.org/2000/svg">
<path fill-rule="evenodd" clip-rule="evenodd" d="M11.6248 2.35048C11.8568 2.21651 12.1427 2.21651 12.3748 2.35048L20.169 6.85048C20.4011 6.98446 20.544 7.23205 20.544 7.5V16.5C20.544 16.7679 20.4011 17.0155 20.169 17.1495L12.3748 21.6495C12.1427 21.7835 11.8568 21.7835 11.6248 21.6495L3.83057 17.1495C3.59852 17.0155 3.45557 16.7679 3.45557 16.5V7.5C3.45557 7.23205 3.59852 6.98446 3.83057 6.85048L11.6248 2.35048ZM11.9998 3.86603L5.70558 7.49999L12 11.134L18.294 7.50001L11.9998 3.86603ZM19.044 8.79906L12.75 12.433L12.7498 19.7009L19.044 16.067V8.79906ZM11.2498 19.701L11.25 12.433L4.95557 8.79902V16.067L11.2498 19.701Z" fill="#23262A"/>
</svg>
