<svg width="24" height="24" viewBox="0 0 24 24" fill="none" xmlns="http://www.w3.org/2000/svg">
<path fill-rule="evenodd" clip-rule="evenodd" d="M11.6248 2.35048C11.8568 2.21651 12.1427 2.21651 12.3748 2.35048L20.1578 6.84397C20.273 6.90772 20.3729 7.00264 20.4435 7.125C20.5142 7.24739 20.5465 7.38143 20.544 7.51313V16.5C20.544 16.7679 20.4011 17.0155 20.169 17.1495L12.3903 21.6405C12.2766 21.71 12.143 21.75 12 21.75H12C11.9837 21.75 11.9675 21.7495 11.9513 21.7484C11.8311 21.7407 11.7186 21.7047 11.6205 21.647L3.83057 17.1495C3.59852 17.0155 3.45557 16.7679 3.45557 16.5V7.513C3.45316 7.38134 3.48541 7.24735 3.55605 7.125C3.62669 7.00265 3.7266 6.90773 3.84183 6.84398L11.6248 2.35048ZM4.95557 8.79904V16.067L11.25 19.7011L11.25 12.4331L4.95557 8.79904ZM12.75 12.4329V19.7008L19.044 16.067V8.79904L12.75 12.4329ZM18.294 7.5L11.9998 11.134L5.70557 7.5L11.9998 3.86603L18.294 7.5Z" fill="#262626"/>
</svg>
