<svg width="24" height="24" viewBox="0 0 24 24" fill="none" xmlns="http://www.w3.org/2000/svg">
<path fill-rule="evenodd" clip-rule="evenodd" d="M15.5291 2.81942C13.2572 1.50775 10.3522 2.28615 9.04048 4.55804L8.35048 5.75316C8.14337 6.11188 8.26628 6.57058 8.625 6.77768C8.98372 6.98479 9.44241 6.86188 9.64952 6.50316L10.3395 5.30804C11.237 3.75359 13.2247 3.221 14.7791 4.11846C16.3336 5.01592 16.8661 7.00359 15.9687 8.55804L15.5692 9.25H7C6.0335 9.25 5.25 10.0335 5.25 11V20C5.25 20.4142 5.58579 20.75 6 20.75H18C18.4142 20.75 18.75 20.4142 18.75 20V11C18.75 10.1314 18.1172 9.41063 17.2875 9.2735C18.5715 7.00679 17.7895 4.12446 15.5291 2.81942ZM15.9227 10.75C15.974 10.7553 16.0253 10.7552 16.076 10.75H17C17.1381 10.75 17.25 10.8619 17.25 11V19.25H6.75V11C6.75 10.8619 6.86193 10.75 7 10.75H15.9227ZM12 13C11.1716 13 10.5 13.6716 10.5 14.5C10.5 15.0552 10.8016 15.54 11.25 15.7993V17C11.25 17.4142 11.5858 17.75 12 17.75C12.4142 17.75 12.75 17.4142 12.75 17V15.7993C13.1984 15.54 13.5 15.0552 13.5 14.5C13.5 13.6716 12.8284 13 12 13Z" fill="#262626"/>
</svg>
