<svg width="24" height="24" viewBox="0 0 24 24" fill="none" xmlns="http://www.w3.org/2000/svg">
<path fill-rule="evenodd" clip-rule="evenodd" d="M7.25 7C7.25 4.37665 9.37665 2.25 12 2.25C14.6234 2.25 16.75 4.37665 16.75 7V9.25H17C17.9665 9.25 18.75 10.0335 18.75 11V20C18.75 20.4142 18.4142 20.75 18 20.75H6C5.58579 20.75 5.25 20.4142 5.25 20V11C5.25 10.0335 6.0335 9.25 7 9.25H7.25V7ZM8.75 7C8.75 5.20507 10.2051 3.75 12 3.75C13.7949 3.75 15.25 5.20507 15.25 7V9.25H8.75V7ZM7 10.75C6.86193 10.75 6.75 10.8619 6.75 11V19.25H17.25V11C17.25 10.8619 17.1381 10.75 17 10.75H7ZM10.5 14.5C10.5 13.6716 11.1716 13 12 13C12.8284 13 13.5 13.6716 13.5 14.5C13.5 15.0552 13.1984 15.54 12.75 15.7993V17C12.75 17.4142 12.4142 17.75 12 17.75C11.5858 17.75 11.25 17.4142 11.25 17V15.7993C10.8016 15.54 10.5 15.0552 10.5 14.5Z" fill="#23262A"/>
</svg>
