<svg width="24" height="24" viewBox="0 0 24 24" fill="none" xmlns="http://www.w3.org/2000/svg">
<path fill-rule="evenodd" clip-rule="evenodd" d="M9.04048 4.55804C10.3522 2.28615 13.2572 1.50775 15.5291 2.81942C17.7895 4.12446 18.5715 7.00679 17.2875 9.2735C18.1172 9.41063 18.75 10.1314 18.75 11V20C18.75 20.4142 18.4142 20.75 18 20.75H6C5.58579 20.75 5.25 20.4142 5.25 20V11C5.25 10.0335 6.0335 9.25 7 9.25H15.5692L15.9687 8.55804C16.8661 7.00359 16.3336 5.01592 14.7791 4.11846C13.2247 3.221 11.237 3.75359 10.3395 5.30804L9.64952 6.50316C9.44241 6.86188 8.98372 6.98479 8.625 6.77768C8.26628 6.57058 8.14337 6.11188 8.35048 5.75316L9.04048 4.55804ZM16.076 10.75C16.0253 10.7552 15.974 10.7553 15.9227 10.75H7C6.86193 10.75 6.75 10.8619 6.75 11V19.25H17.25V11C17.25 10.8619 17.1381 10.75 17 10.75H16.076ZM10.5 14.5C10.5 13.6716 11.1716 13 12 13C12.8284 13 13.5 13.6716 13.5 14.5C13.5 15.0552 13.1984 15.54 12.75 15.7993V17C12.75 17.4142 12.4142 17.75 12 17.75C11.5858 17.75 11.25 17.4142 11.25 17V15.7993C10.8016 15.54 10.5 15.0552 10.5 14.5Z" fill="#23262A"/>
</svg>
