<svg width="24" height="24" viewBox="0 0 24 24" fill="none" xmlns="http://www.w3.org/2000/svg">
<path fill-rule="evenodd" clip-rule="evenodd" d="M15.5292 2.8193C13.2573 1.50763 10.3523 2.28603 9.04061 4.55792L8.35061 5.75304C8.1435 6.11176 8.26641 6.57045 8.62513 6.77756C8.98384 6.98467 9.44254 6.86176 9.64964 6.50304L10.3396 5.30792C11.2371 3.75347 13.2248 3.22088 14.7792 4.11834C16.3337 5.0158 16.8663 7.00347 15.9688 8.55792L15.5692 9.25H7C6.0335 9.25 5.25 10.0335 5.25 11V20C5.25 20.4142 5.58579 20.75 6 20.75H18C18.4142 20.75 18.75 20.4142 18.75 20V11C18.75 10.1314 18.1172 9.41066 17.2875 9.27351C18.5716 7.00678 17.7897 4.12436 15.5292 2.8193ZM12 13C11.1716 13 10.5 13.6716 10.5 14.5C10.5 15.0552 10.8016 15.54 11.25 15.7993V17C11.25 17.4142 11.5858 17.75 12 17.75C12.4142 17.75 12.75 17.4142 12.75 17V15.7993C13.1984 15.54 13.5 15.0552 13.5 14.5C13.5 13.6716 12.8284 13 12 13Z" fill="#23262A"/>
</svg>
