<svg width="24" height="24" viewBox="0 0 24 24" fill="none" xmlns="http://www.w3.org/2000/svg">
<path fill-rule="evenodd" clip-rule="evenodd" d="M12 2.25C9.37665 2.25 7.25 4.37665 7.25 7V9.25H7C6.0335 9.25 5.25 10.0335 5.25 11V20C5.25 20.4142 5.58579 20.75 6 20.75H18C18.4142 20.75 18.75 20.4142 18.75 20V11C18.75 10.0335 17.9665 9.25 17 9.25H16.75V7C16.75 4.37665 14.6234 2.25 12 2.25ZM15.25 9.25V7C15.25 5.20507 13.7949 3.75 12 3.75C10.2051 3.75 8.75 5.20507 8.75 7V9.25H15.25ZM12 13C11.1716 13 10.5 13.6716 10.5 14.5C10.5 15.0552 10.8016 15.54 11.25 15.7993V17C11.25 17.4142 11.5858 17.75 12 17.75C12.4142 17.75 12.75 17.4142 12.75 17V15.7993C13.1984 15.54 13.5 15.0552 13.5 14.5C13.5 13.6716 12.8284 13 12 13Z" fill="#23262A"/>
</svg>
