<svg width="24" height="24" viewBox="0 0 24 24" fill="none" xmlns="http://www.w3.org/2000/svg">
<path fill-rule="evenodd" clip-rule="evenodd" d="M20 3V7.25C20 7.94036 19.4403 8.5 18.75 8.5H5.24998C4.55963 8.5 3.99998 7.94036 3.99998 7.25L3.99998 3C9.33332 3 14.6667 3 20 3Z" fill="#202733"/>
<path fill-rule="evenodd" clip-rule="evenodd" d="M18 12C18 11.5858 18.3358 11.25 18.75 11.25H20.25C20.6642 11.25 21 11.5858 21 12C21 12.4142 20.6642 12.75 20.25 12.75H18.75C18.3358 12.75 18 12.4142 18 12Z" fill="#202733"/>
<path fill-rule="evenodd" clip-rule="evenodd" d="M13 12C13 11.5858 13.3358 11.25 13.75 11.25H15.25C15.6642 11.25 16 11.5858 16 12C16 12.4142 15.6642 12.75 15.25 12.75H13.75C13.3358 12.75 13 12.4142 13 12Z" fill="#202733"/>
<path fill-rule="evenodd" clip-rule="evenodd" d="M7.99998 12C7.99998 11.5858 8.33577 11.25 8.74998 11.25H10.25C10.6642 11.25 11 11.5858 11 12C11 12.4142 10.6642 12.75 10.25 12.75H8.74998C8.33577 12.75 7.99998 12.4142 7.99998 12Z" fill="#202733"/>
<path fill-rule="evenodd" clip-rule="evenodd" d="M2.99998 12C2.99998 11.5858 3.33577 11.25 3.74998 11.25H5.24998C5.6642 11.25 5.99998 11.5858 5.99998 12C5.99998 12.4142 5.6642 12.75 5.24998 12.75H3.74998C3.33577 12.75 2.99998 12.4142 2.99998 12Z" fill="#202733"/>
<path d="M20 21V16.75C20 16.0596 19.4403 15.5 18.75 15.5H5.24999C4.55963 15.5 3.99998 16.0596 3.99998 16.75V21H20Z" fill="#202733"/>
</svg>
