<svg width="24" height="24" viewBox="0 0 24 24" fill="none" xmlns="http://www.w3.org/2000/svg">
<path fill-rule="evenodd" clip-rule="evenodd" d="M4.64648 12C4.64648 7.44365 8.34014 3.75 12.8965 3.75C14.4834 3.75 15.636 4.07516 16.5585 4.67306C17.4806 5.27061 18.2414 6.1847 18.9698 7.48893C19.4796 8.73986 19.6652 10.5729 18.3503 11.7863C17.8487 12.2493 17.2215 12.482 16.5287 12.7391L16.5284 12.7393L16.5276 12.7396L16.5272 12.7397C16.4198 12.7796 16.3108 12.82 16.2004 12.862C15.829 13.0033 15.3932 13.1826 15.0525 13.4598C14.6696 13.7712 14.3965 14.2148 14.3965 14.8125C14.3965 15.2706 14.5035 15.675 14.7227 16.0199C14.9383 16.359 15.2295 16.589 15.5152 16.7548C15.7945 16.917 16.0981 17.0343 16.3592 17.1302C16.4196 17.1524 16.4777 17.1734 16.5339 17.1938L16.5342 17.1939C16.7383 17.2678 16.9169 17.3326 17.0919 17.4104C17.2436 17.4778 17.4442 17.7218 17.4085 18.1447C17.3764 18.5253 17.1312 19.0564 16.3789 19.4814C15.3218 19.9743 14.1423 20.25 12.8965 20.25C8.34014 20.25 4.64648 16.5563 4.64648 12ZM12.8965 2.25C7.51171 2.25 3.14648 6.61522 3.14648 12C3.14648 17.3848 7.51171 21.75 12.8965 21.75C14.3768 21.75 15.782 21.4196 17.0406 20.8278C17.0558 20.8207 17.0708 20.813 17.0855 20.8048C18.2289 20.1701 18.8231 19.2207 18.9032 18.2707C18.98 17.3595 18.5619 16.4222 17.7011 16.0396C17.4726 15.9381 17.2296 15.8502 17.02 15.7744L17.0197 15.7743L17.0184 15.7738C16.969 15.7559 16.9215 15.7387 16.8764 15.7222C16.6206 15.6282 16.425 15.5486 16.2684 15.4577C16.1181 15.3704 16.0367 15.291 15.9886 15.2153C15.9442 15.1454 15.8965 15.0294 15.8965 14.8125C15.8965 14.7352 15.909 14.6966 15.999 14.6234C16.1312 14.5158 16.3557 14.4078 16.7339 14.2639C16.8212 14.2307 16.9156 14.1962 17.0158 14.1597C17.6922 13.9126 18.6287 13.5706 19.3676 12.8887C21.4039 11.0095 20.9423 8.32247 20.3388 6.87404C20.328 6.84823 20.3158 6.82304 20.3023 6.7986C19.5018 5.35597 18.5876 4.20059 17.3743 3.4143C16.1528 2.62266 14.6981 2.25 12.8965 2.25ZM16.8993 8.32976C16.0991 8.11534 15.2766 8.59022 15.0622 9.39042C14.8477 10.1906 15.3226 11.0131 16.1228 11.2275C16.923 11.4419 17.7455 10.9671 17.9599 10.1669C18.1743 9.36667 17.6995 8.54417 16.8993 8.32976ZM7.81777 7.44925C8.03218 6.64906 8.85468 6.17418 9.65488 6.38859C10.4551 6.60301 10.93 7.42551 10.7155 8.22571C10.5011 9.02591 9.67862 9.50078 8.87843 9.28637C8.07823 9.07196 7.60335 8.24945 7.81777 7.44925ZM13.9242 4.94426C13.124 4.72985 12.3015 5.20472 12.0871 6.00492C11.8726 6.80512 12.3475 7.62762 13.1477 7.84204C13.9479 8.05645 14.7704 7.58158 14.9848 6.78138C15.1992 5.98118 14.7244 5.15867 13.9242 4.94426Z" fill="#23262A"/>
</svg>
