<svg width="24" height="24" viewBox="0 0 24 24" fill="none" xmlns="http://www.w3.org/2000/svg">
<path fill-rule="evenodd" clip-rule="evenodd" d="M3.14648 12C3.14648 6.61522 7.51171 2.25 12.8965 2.25C14.6981 2.25 16.1528 2.62266 17.3743 3.4143C18.5876 4.20059 19.5018 5.35597 20.3023 6.7986C20.3158 6.82304 20.328 6.84823 20.3388 6.87404C20.9423 8.32247 21.4039 11.0095 19.3676 12.8887C18.6287 13.5706 17.6922 13.9126 17.0158 14.1597C16.9156 14.1962 16.8212 14.2307 16.7339 14.2639C16.3557 14.4078 16.1312 14.5158 15.999 14.6234C15.909 14.6966 15.8965 14.7352 15.8965 14.8125C15.8965 15.0294 15.9442 15.1454 15.9886 15.2153C16.0367 15.291 16.1181 15.3704 16.2684 15.4577C16.425 15.5486 16.6206 15.6282 16.8764 15.7222C16.9219 15.7389 16.97 15.7563 17.02 15.7744C17.2296 15.8502 17.4726 15.9381 17.7011 16.0396C18.5619 16.4222 18.98 17.3595 18.9032 18.2707C18.8231 19.2207 18.2289 20.1701 17.0855 20.8048C17.0708 20.813 17.0558 20.8207 17.0406 20.8278C15.782 21.4196 14.3768 21.75 12.8965 21.75C7.51171 21.75 3.14648 17.3848 3.14648 12ZM15.0622 9.39042C15.2766 8.59022 16.0991 8.11534 16.8993 8.32976C17.6995 8.54417 18.1744 9.36667 17.96 10.1669C17.7456 10.9671 16.9231 11.4419 16.1229 11.2275C15.3227 11.0131 14.8478 10.1906 15.0622 9.39042ZM7.81783 7.44925C8.03224 6.64906 8.85474 6.17418 9.65494 6.38859C10.4551 6.60301 10.93 7.42551 10.7156 8.22571C10.5012 9.02591 9.67869 9.50078 8.87849 9.28637C8.07829 9.07196 7.60341 8.24945 7.81783 7.44925ZM12.0871 6.00492C12.3015 5.20472 13.124 4.72985 13.9242 4.94426C14.7244 5.15867 15.1993 5.98118 14.9849 6.78138C14.7705 7.58158 13.948 8.05645 13.1478 7.84204C12.3476 7.62762 11.8727 6.80512 12.0871 6.00492Z" fill="#23262A"/>
</svg>
