<svg width="24" height="24" viewBox="0 0 24 24" fill="none" xmlns="http://www.w3.org/2000/svg">
<path fill-rule="evenodd" clip-rule="evenodd" d="M5.31716 4.32036C5.04299 4.19241 4.71878 4.24174 4.49506 4.44544C4.27134 4.64914 4.19193 4.96732 4.29369 5.25225L6.7036 12L4.29369 18.7477C4.19193 19.0327 4.27134 19.3509 4.49506 19.5546C4.71878 19.7583 5.04299 19.8076 5.31716 19.6796L20.3172 12.6796C20.5812 12.5564 20.75 12.2914 20.75 12C20.75 11.7086 20.5812 11.4436 20.3172 11.3204L5.31716 4.32036ZM8.02854 11.25L6.31038 6.43916L18.2265 12L6.31038 17.5608L8.02854 12.75H11.5C11.9142 12.75 12.25 12.4142 12.25 12C12.25 11.5858 11.9142 11.25 11.5 11.25H8.02854Z" fill="#262626"/>
</svg>
