<svg width="24" height="24" viewBox="0 0 24 24" fill="none" xmlns="http://www.w3.org/2000/svg">
<path fill-rule="evenodd" clip-rule="evenodd" d="M15.9114 4.38188C15.366 4.41397 14.8263 4.67425 14.409 5.09158L6.27726 13.2233C5.0763 14.4243 4.52259 16.7719 6.27726 18.5266C8.03194 20.2813 10.3796 19.7276 11.5806 18.5266L11.5889 18.5183L11.5973 18.5098L11.6059 18.5013L11.6145 18.4926L11.6233 18.4839L11.6322 18.475L11.6411 18.4661L11.6502 18.457L11.6593 18.4478L11.6686 18.4386L11.678 18.4292L11.6874 18.4197L11.697 18.4102L11.7067 18.4005L11.7164 18.3907L11.7263 18.3809L11.7362 18.3709L11.7463 18.3609L11.7565 18.3507L11.7667 18.3405L11.777 18.3301L11.7875 18.3197L11.798 18.3092L11.8086 18.2985L11.8194 18.2878L11.8302 18.277L11.8411 18.2661L11.8521 18.2551L11.8632 18.244L11.8744 18.2328L11.8856 18.2215L11.897 18.2102L11.9085 18.1987L11.92 18.1872L11.9316 18.1755L11.9434 18.1638L11.9552 18.152L11.9671 18.1401L11.979 18.1281L11.9911 18.1161L12.0033 18.1039L12.0155 18.0917L12.0279 18.0793L12.0403 18.0669L12.0528 18.0544L12.0653 18.0418L12.078 18.0292L12.0908 18.0164L12.1036 18.0036L12.1165 17.9907L12.1295 17.9777L12.1426 17.9646L12.1557 17.9514L12.169 17.9382L12.1823 17.9249L12.1957 17.9115L12.2091 17.898L12.2227 17.8845L12.2363 17.8708L12.25 17.8571L12.2638 17.8434L12.2777 17.8295L12.2916 17.8156L12.3056 17.8016L12.3197 17.7875L12.3339 17.7733L12.3481 17.7591L12.3624 17.7448L12.3768 17.7304L12.3912 17.7159L12.4058 17.7014L12.4204 17.6868L12.435 17.6721L12.4498 17.6574L12.4646 17.6426L12.4795 17.6277L12.4944 17.6128L12.5094 17.5978L12.5245 17.5827L12.5396 17.5675L12.5549 17.5523L12.5702 17.537L12.5855 17.5217L12.6009 17.5063L12.6164 17.4908L12.632 17.4752L12.6476 17.4596L12.6632 17.4439L12.679 17.4282L12.6948 17.4124L12.7106 17.3965L12.7266 17.3806L12.7426 17.3646L12.7586 17.3486L12.7747 17.3325L12.7909 17.3163L12.8071 17.3L12.8234 17.2838L12.8398 17.2674L12.8562 17.251L12.8726 17.2345L12.8892 17.218L12.9057 17.2014L12.9224 17.1848L12.9391 17.1681L12.9558 17.1514L12.9726 17.1346L12.9895 17.1177L13.0064 17.1008L13.0233 17.0838L13.0404 17.0668L13.0574 17.0498L13.0745 17.0326L13.0917 17.0155L13.1089 16.9982L13.1262 16.981L13.1435 16.9636L13.1609 16.9463L13.1783 16.9288L13.1958 16.9114L13.2133 16.8939L13.2309 16.8763L13.2485 16.8587L13.2662 16.841L13.2839 16.8233L13.3016 16.8055L13.3194 16.7877L13.3373 16.7699L13.3552 16.752L13.3731 16.7341L13.3911 16.7161L13.4091 16.6981L13.4272 16.68L13.4453 16.6619L13.4634 16.6438L13.4816 16.6256L13.4998 16.6073L13.5181 16.5891L13.5364 16.5708L13.5548 16.5524L13.5731 16.534L13.5916 16.5156L13.61 16.4971L13.6285 16.4786L13.6471 16.4601L13.6656 16.4415L13.6843 16.4229L13.7029 16.4043L13.7216 16.3856L13.7403 16.3669L13.759 16.3481L13.7778 16.3293L13.7966 16.3105L13.8155 16.2917L13.8344 16.2728L13.8533 16.2539L13.8722 16.2349L13.8912 16.216L13.9102 16.197L13.9292 16.1779L13.9483 16.1589L13.9674 16.1398L13.9865 16.1207L14.0057 16.1015L14.0248 16.0823L14.044 16.0631L14.0633 16.0439L14.0825 16.0246L14.1018 16.0054L14.1211 15.9861L14.1405 15.9667L14.1598 15.9474L14.1792 15.928L14.1986 15.9086L14.218 15.8892L14.2375 15.8697L14.2569 15.8503L14.2764 15.8308L14.2959 15.8112L14.3155 15.7917L14.335 15.7722L14.3546 15.7526L14.3742 15.733L14.3938 15.7134L14.4134 15.6938L14.433 15.6741L14.4527 15.6545L14.4724 15.6348L14.4921 15.6151L14.5118 15.5954L14.5315 15.5757L14.5512 15.5559L14.571 15.5362L14.5908 15.5164L14.6105 15.4966L14.6303 15.4768L14.6501 15.457L14.6699 15.4372L14.6898 15.4174L14.7096 15.3976L14.7295 15.3777L14.7493 15.3579L14.7692 15.338L14.7891 15.3181L14.8089 15.2982L14.8288 15.2783L14.8487 15.2584L14.8686 15.2385L14.8886 15.2186L14.9085 15.1987L14.9284 15.1788L14.9483 15.1588L14.9683 15.1389L14.9882 15.119L15.0082 15.099L15.0281 15.0791L15.0481 15.0591L15.068 15.0392L15.088 15.0192L15.1079 14.9993L15.1279 14.9793L15.1478 14.9593L15.1678 14.9394L15.1877 14.9194L15.2077 14.8995L15.2276 14.8795L15.2476 14.8596L15.2675 14.8396L15.2875 14.8197L15.3074 14.7997L15.3274 14.7798L15.3473 14.7599L15.3672 14.7399L15.3872 14.72L15.4071 14.7001L15.427 14.6802L15.4469 14.6603L15.4668 14.6404L15.4867 14.6205L15.5066 14.6006L15.5264 14.5807L15.5463 14.5609L15.5662 14.541L15.586 14.5212L15.6058 14.5013L15.6257 14.4815L15.6455 14.4617L15.6653 14.4419L15.6851 14.4221L15.7048 14.4023L15.7246 14.3826L15.7444 14.3628L15.7641 14.3431L15.7838 14.3234L15.8035 14.3037L15.8232 14.284L15.8429 14.2643L15.8625 14.2446L15.8822 14.225L15.9018 14.2054L15.9214 14.1858L15.941 14.1662L15.9605 14.1466L15.9801 14.1271L15.9996 14.1076L16.0191 14.0881L16.0386 14.0686L16.0581 14.0491L16.0775 14.0297L16.0969 14.0103L16.1163 13.9909L16.1357 13.9715L16.155 13.9521L16.1744 13.9328L16.1937 13.9135L16.2129 13.8942L16.2322 13.875L16.2514 13.8558L16.2706 13.8366L16.2898 13.8174L16.3089 13.7983L16.328 13.7791L16.3471 13.7601L16.3662 13.741L16.3852 13.722L16.4042 13.703L16.4232 13.684L16.4421 13.6651L16.461 13.6462L16.4799 13.6273L16.4987 13.6085L16.5175 13.5897L16.5363 13.5709L16.555 13.5521L16.5737 13.5334L16.5924 13.5148L16.611 13.4961L16.6296 13.4775L16.6482 13.459L16.6667 13.4404L16.6852 13.422L16.7037 13.4035L16.7221 13.3851L16.7405 13.3667L16.7588 13.3484L16.7771 13.3301L16.7954 13.3118L16.8136 13.2936L16.8318 13.2754L16.8499 13.2573L16.868 13.2392L16.886 13.2211L16.904 13.2031L16.922 13.1852L16.9399 13.1672L16.9578 13.1494L16.9756 13.1315L16.9934 13.1137L17.0112 13.096L17.0289 13.0783L17.0465 13.0606L17.0641 13.043L17.0817 13.0255L17.0992 13.008L17.1167 12.9905L17.1341 12.9731L17.1514 12.9558L17.1687 12.9384L17.186 12.9212L17.2032 12.904L17.2204 12.8868L17.2375 12.8697L17.2545 12.8527L17.2715 12.8356L17.2885 12.8187L17.3054 12.8018L17.3222 12.785L17.339 12.7682L17.3557 12.7514L17.3724 12.7348L17.389 12.7182L17.4056 12.7016L17.4221 12.6851L17.4385 12.6686L17.4549 12.6522L17.4713 12.6359L17.4875 12.6196L17.5038 12.6034L17.5199 12.5873L17.536 12.5712L17.552 12.5551L17.568 12.5392L17.5839 12.5233L17.5998 12.5074L17.6156 12.4916L17.6313 12.4759L17.6469 12.4602L17.6625 12.4446L17.6781 12.4291L17.6935 12.4136L17.7089 12.3982L17.7243 12.3829L17.7395 12.3676L17.7547 12.3524L17.7699 12.3373L17.7849 12.3222L17.7999 12.3073L17.8149 12.2923L17.8297 12.2775L17.8445 12.2627L17.8592 12.248L17.8739 12.2333L17.8884 12.2187L17.903 12.2042L17.9174 12.1898L17.9317 12.1754L17.946 12.1611L17.9602 12.1469L17.9744 12.1328L17.9885 12.1187L18.0024 12.1047L18.0164 12.0908L18.0302 12.077L18.044 12.0632L18.0576 12.0495L18.0713 12.0359L18.0848 12.0224L18.0982 12.0089L18.1116 11.9956L18.1249 11.9823L18.1381 11.9691L18.1513 11.9559L18.1643 11.9429L18.1773 11.9299L18.1902 11.917L18.203 11.9042L18.2157 11.8915L18.2284 11.8788L18.2409 11.8663L18.2534 11.8538L18.2658 11.8414L18.2781 11.8291L18.2903 11.8169L18.3024 11.8047L18.3145 11.7927L18.3265 11.7807L18.3383 11.7689L18.3501 11.7571L18.3618 11.7454L18.3734 11.7338L18.3849 11.7222L18.3964 11.7108L18.4077 11.6995L18.419 11.6882L18.4301 11.6771L18.4412 11.666L18.4522 11.655L18.463 11.6441L18.4738 11.6333L18.4845 11.6226L18.4951 11.612L18.5056 11.6015L18.5161 11.5911L18.5264 11.5808L18.5366 11.5706L18.5467 11.5605L18.5568 11.5504L18.5667 11.5405L18.5765 11.5307L18.5863 11.5209L18.5959 11.5113L18.6054 11.5017L18.6149 11.4923L18.6242 11.483L18.6334 11.4737L18.6426 11.4646L18.6516 11.4556L18.6605 11.4466L18.6694 11.4378L18.6781 11.4291L18.6867 11.4204L18.6952 11.4119L18.7037 11.4035L18.712 11.3952L18.7202 11.387L18.7283 11.3789L18.7363 11.3709L18.7442 11.363L18.7519 11.3552L18.7596 11.3476L18.7672 11.34L18.7746 11.3325L18.782 11.3252L18.7892 11.318L18.7963 11.3108L18.8034 11.3038L18.8103 11.2969L18.8171 11.2901L18.8237 11.2834L18.8303 11.2769L18.8368 11.2704L18.8431 11.2641L18.8493 11.2578L18.8554 11.2517L18.8614 11.2457L18.8673 11.2398L18.8731 11.2341L18.8787 11.2284L18.8843 11.2229L18.8897 11.2175L18.895 11.2122L18.9002 11.207L18.9053 11.2019L18.9102 11.197L18.915 11.1922L18.9197 11.1874L18.9243 11.1829L18.9288 11.1784L18.9331 11.1741L18.9373 11.1698L18.9414 11.1657L18.9454 11.1618L18.9493 11.1579L18.953 11.1542L18.9566 11.1506L18.9601 11.1471L18.9634 11.1437L18.9667 11.1405L18.9698 11.1374L18.9727 11.1344L18.9756 11.1316L18.9783 11.1289L18.9809 11.1263L18.9834 11.1238L18.9857 11.1215L18.9879 11.1193L18.99 11.1172L18.9919 11.1153L18.9937 11.1134L18.9954 11.1118L18.997 11.1102L18.9984 11.1088L18.9997 11.1075L19.0008 11.1064L19.0018 11.1053L19.0027 11.1045L19.0035 11.1037L19.0041 11.1031L19.0046 11.1026L19.0049 11.1023L19.0051 11.1021L19.5355 11.6323L20.0658 12.1627L20.0656 12.1629L20.0652 12.1633L20.0647 12.1637L20.0641 12.1644L20.0634 12.1651L20.0625 12.166L20.0615 12.167L20.0603 12.1682L20.059 12.1695L20.0576 12.1709L20.0561 12.1724L20.0544 12.1741L20.0526 12.1759L20.0506 12.1779L20.0486 12.1799L20.0464 12.1821L20.044 12.1845L20.0416 12.1869L20.039 12.1895L20.0362 12.1923L20.0334 12.1951L20.0304 12.1981L20.0273 12.2012L20.0241 12.2044L20.0207 12.2078L20.0173 12.2112L20.0137 12.2148L20.0099 12.2186L20.0061 12.2224L20.0021 12.2264L19.998 12.2305L19.9938 12.2347L19.9894 12.2391L19.985 12.2435L19.9804 12.2481L19.9757 12.2528L19.9709 12.2576L19.9659 12.2626L19.9608 12.2676L19.9557 12.2728L19.9504 12.2781L19.9449 12.2836L19.9394 12.2891L19.9338 12.2947L19.928 12.3005L19.9221 12.3064L19.9161 12.3124L19.91 12.3185L19.9038 12.3247L19.8974 12.3311L19.891 12.3375L19.8844 12.3441L19.8777 12.3508L19.8709 12.3576L19.864 12.3645L19.857 12.3715L19.8499 12.3786L19.8426 12.3859L19.8353 12.3932L19.8278 12.4007L19.8203 12.4082L19.8126 12.4159L19.8048 12.4237L19.7969 12.4316L19.7889 12.4396L19.7808 12.4477L19.7726 12.4559L19.7643 12.4642L19.7559 12.4726L19.7474 12.4811L19.7388 12.4897L19.73 12.4985L19.7212 12.5073L19.7123 12.5162L19.7032 12.5253L19.6941 12.5344L19.6849 12.5436L19.6755 12.553L19.6661 12.5624L19.6566 12.5719L19.6469 12.5816L19.6372 12.5913L19.6273 12.6012L19.6174 12.6111L19.6074 12.6211L19.5973 12.6312L19.587 12.6415L19.5767 12.6518L19.5663 12.6622L19.5558 12.6727L19.5452 12.6833L19.5345 12.694L19.5237 12.7048L19.5128 12.7157L19.5019 12.7266L19.4908 12.7377L19.4796 12.7489L19.4684 12.7601L19.457 12.7715L19.4456 12.7829L19.4341 12.7944L19.4225 12.806L19.4108 12.8177L19.399 12.8295L19.3871 12.8414L19.3751 12.8533L19.3631 12.8654L19.351 12.8775L19.3387 12.8898L19.3264 12.9021L19.314 12.9144L19.3016 12.9269L19.289 12.9395L19.2764 12.9521L19.2636 12.9649L19.2508 12.9777L19.2379 12.9906L19.225 13.0035L19.2119 13.0166L19.1988 13.0297L19.1856 13.0429L19.1723 13.0562L19.1589 13.0696L19.1454 13.083L19.1319 13.0966L19.1183 13.1102L19.1046 13.1239L19.0909 13.1376L19.077 13.1515L19.0631 13.1654L19.0491 13.1794L19.035 13.1934L19.0209 13.2076L19.0067 13.2218L18.9924 13.2361L18.978 13.2505L18.9636 13.2649L18.9491 13.2794L18.9345 13.294L18.9199 13.3086L18.9052 13.3233L18.8904 13.3381L18.8755 13.353L18.8606 13.3679L18.8456 13.3829L18.8305 13.398L18.8154 13.4131L18.8002 13.4283L18.7849 13.4436L18.7696 13.4589L18.7542 13.4743L18.7387 13.4898L18.7232 13.5053L18.7076 13.5209L18.6919 13.5366L18.6762 13.5523L18.6604 13.5681L18.6446 13.5839L18.6287 13.5998L18.6127 13.6158L18.5967 13.6318L18.5806 13.6479L18.5644 13.6641L18.5482 13.6803L18.5319 13.6966L18.5156 13.7129L18.4992 13.7293L18.4828 13.7457L18.4662 13.7622L18.4497 13.7788L18.4331 13.7954L18.4164 13.8121L18.3997 13.8288L18.3829 13.8456L18.366 13.8625L18.3491 13.8794L18.3322 13.8963L18.3152 13.9133L18.2981 13.9304L18.281 13.9475L18.2639 13.9646L18.2467 13.9818L18.2294 13.9991L18.2121 14.0164L18.1947 14.0338L18.1773 14.0512L18.1599 14.0686L18.1423 14.0862L18.1248 14.1037L18.1072 14.1213L18.0895 14.139L18.0718 14.1567L18.0541 14.1744L18.0363 14.1922L18.0185 14.21L18.0006 14.2279L17.9827 14.2458L17.9647 14.2638L17.9467 14.2818L17.9286 14.2998L17.9106 14.3179L17.8924 14.3361L17.8742 14.3543L17.856 14.3725L17.8378 14.3907L17.8195 14.409L17.8011 14.4274L17.7828 14.4457L17.7643 14.4642L17.7459 14.4826L17.7274 14.5011L17.7089 14.5196L17.6903 14.5382L17.6717 14.5568L17.6531 14.5754L17.6344 14.5941L17.6157 14.6128L17.597 14.6315L17.5782 14.6503L17.5594 14.6691L17.5405 14.688L17.5217 14.7068L17.5028 14.7257L17.4838 14.7447L17.4649 14.7636L17.4459 14.7826L17.4268 14.8017L17.4078 14.8207L17.3887 14.8398L17.3696 14.8589L17.3504 14.8781L17.3313 14.8972L17.3121 14.9164L17.2928 14.9356L17.2736 14.9549L17.2543 14.9742L17.235 14.9935L17.2157 15.0128L17.1964 15.0321L17.177 15.0515L17.1576 15.0709L17.1382 15.0903L17.1187 15.1098L17.0993 15.1292L17.0798 15.1487L17.0603 15.1682L17.0407 15.1877L17.0212 15.2073L17.0016 15.2269L16.9821 15.2464L16.9624 15.266L16.9428 15.2857L16.9232 15.3053L16.9035 15.325L16.8839 15.3446L16.8642 15.3643L16.8445 15.384L16.8248 15.4037L16.805 15.4235L16.7853 15.4432L16.7655 15.463L16.7457 15.4828L16.7259 15.5026L16.7061 15.5224L16.6863 15.5422L16.6665 15.562L16.6467 15.5818L16.6268 15.6017L16.607 15.6215L16.5871 15.6414L16.5672 15.6613L16.5473 15.6811L16.5275 15.701L16.5076 15.7209L16.4877 15.7408L16.4677 15.7608L16.4478 15.7807L16.4279 15.8006L16.408 15.8205L16.388 15.8405L16.3681 15.8604L16.3482 15.8803L16.3282 15.9003L16.3083 15.9202L16.2883 15.9402L16.2684 15.9601L16.2484 15.9801L16.2284 16.0001L16.2085 16.02L16.1885 16.04L16.1686 16.0599L16.1486 16.0799L16.1287 16.0998L16.1087 16.1198L16.0888 16.1397L16.0688 16.1597L16.0489 16.1796L16.0289 16.1996L16.009 16.2195L15.9891 16.2394L15.9691 16.2594L15.9492 16.2793L15.9293 16.2992L15.9094 16.3191L15.8895 16.339L15.8696 16.3589L15.8497 16.3788L15.8298 16.3986L15.81 16.4185L15.7901 16.4384L15.7703 16.4582L15.7504 16.4781L15.7306 16.4979L15.7108 16.5177L15.691 16.5375L15.6712 16.5573L15.6514 16.5771L15.6317 16.5968L15.6119 16.6166L15.5922 16.6363L15.5724 16.6561L15.5527 16.6758L15.533 16.6955L15.5134 16.7151L15.4937 16.7348L15.4741 16.7544L15.4544 16.7741L15.4348 16.7937L15.4152 16.8133L15.3957 16.8328L15.3761 16.8524L15.3566 16.8719L15.3371 16.8914L15.3176 16.9109L15.2981 16.9304L15.2787 16.9498L15.2592 16.9693L15.2398 16.9887L15.2205 17.008L15.2011 17.0274L15.1818 17.0467L15.1625 17.066L15.1432 17.0853L15.1239 17.1046L15.1047 17.1238L15.0855 17.143L15.0663 17.1622L15.0472 17.1813L15.0281 17.2004L15.009 17.2195L14.9899 17.2386L14.9709 17.2576L14.9519 17.2766L14.9329 17.2956L14.9139 17.3146L14.895 17.3335L14.8762 17.3523L14.8573 17.3712L14.8385 17.39L14.8197 17.4088L14.801 17.4275L14.7822 17.4463L14.7636 17.4649L14.7449 17.4836L14.7263 17.5022L14.7077 17.5208L14.6892 17.5393L14.6707 17.5578L14.6522 17.5763L14.6338 17.5947L14.6154 17.6131L14.5971 17.6314L14.5788 17.6497L14.5605 17.668L14.5423 17.6862L14.5241 17.7044L14.5059 17.7226L14.4878 17.7407L14.4698 17.7587L14.4517 17.7768L14.4338 17.7947L14.4158 17.8127L14.3979 17.8306L14.3801 17.8484L14.3623 17.8662L14.3445 17.884L14.3268 17.9017L14.3092 17.9193L14.2916 17.9369L14.274 17.9545L14.2565 17.972L14.239 17.9895L14.2216 18.0069L14.2042 18.0243L14.1869 18.0416L14.1696 18.0589L14.1524 18.0761L14.1352 18.0933L14.1181 18.1104L14.101 18.1275L14.084 18.1445L14.067 18.1615L14.0501 18.1784L14.0333 18.1952L14.0165 18.212L13.9997 18.2288L13.983 18.2455L13.9664 18.2621L13.9498 18.2787L13.9333 18.2952L13.9168 18.3117L13.9004 18.3281L13.8841 18.3444L13.8678 18.3607L13.8516 18.3769L13.8354 18.3931L13.8193 18.4092L13.8032 18.4253L13.7872 18.4413L13.7713 18.4572L13.7554 18.4731L13.7396 18.4889L13.7239 18.5046L13.7082 18.5203L13.6926 18.5359L13.6771 18.5514L13.6616 18.5669L13.6462 18.5823L13.6308 18.5977L13.6155 18.613L13.6003 18.6282L13.5852 18.6433L13.5701 18.6584L13.5551 18.6734L13.5401 18.6884L13.5252 18.7033L13.5104 18.7181L13.4957 18.7328L13.481 18.7475L13.4664 18.7621L13.4519 18.7766L13.4374 18.791L13.4231 18.8054L13.4088 18.8197L13.3945 18.834L13.3804 18.8481L13.3663 18.8622L13.3523 18.8762L13.3383 18.8902L13.3245 18.904L13.3107 18.9178L13.297 18.9315L13.2834 18.9451L13.2698 18.9587L13.2563 18.9722L13.2429 18.9856L13.2296 18.9989L13.2164 19.0121L13.2032 19.0253L13.1902 19.0383L13.1772 19.0513L13.1643 19.0642L13.1514 19.0771L13.1387 19.0898L13.126 19.1025L13.1134 19.1151L13.1009 19.1276L13.0885 19.14L13.0762 19.1523L13.0639 19.1646L13.0518 19.1767L13.0397 19.1888L13.0277 19.2008L13.0158 19.2127L13.004 19.2245L12.9923 19.2362L12.9807 19.2478L12.9691 19.2594L12.9577 19.2708L12.9463 19.2822L12.935 19.2935L12.9238 19.3047L12.9127 19.3158L12.9017 19.3268L12.8908 19.3377L12.88 19.3485L12.8693 19.3592L12.8587 19.3698L12.8481 19.3804L12.8377 19.3908L12.8274 19.4011L12.8171 19.4114L12.807 19.4215L12.7969 19.4316L12.7869 19.4415L12.7771 19.4514L12.7673 19.4612L12.7577 19.4708L12.7481 19.4804L12.7386 19.4899L12.7293 19.4992L12.72 19.5085L12.7108 19.5177L12.7018 19.5267L12.6928 19.5357L12.684 19.5445L12.6752 19.5533L12.6666 19.5619L12.658 19.5705L12.6496 19.5789L12.6412 19.5873C11.0138 21.2147 7.70457 22.0752 5.2166 19.5873C2.72864 17.0993 3.58914 13.7901 5.2166 12.1627L13.3483 4.03092C13.9917 3.3876 14.8662 2.94078 15.8234 2.88447C16.799 2.82708 17.8006 3.17991 18.6516 4.03092C19.5026 4.88194 19.8555 5.88357 19.7981 6.8592C19.7418 7.81639 19.295 8.6909 18.6516 9.33423L18.6454 9.3405L18.639 9.34688L18.6325 9.35338L18.6259 9.35999L18.6192 9.3667L18.6123 9.37354L18.6054 9.38048L18.5983 9.38753L18.5912 9.39469L18.5839 9.40196L18.5765 9.40934L18.569 9.41682L18.5614 9.42442L18.5537 9.43212L18.5459 9.43993L18.538 9.44784L18.53 9.45586L18.5219 9.46398L18.5136 9.47221L18.5053 9.48055L18.4969 9.48898L18.4883 9.49753L18.4797 9.50617L18.4709 9.51492L18.4621 9.52376L18.4531 9.53271L18.4441 9.54176L18.4349 9.55091L18.4257 9.56017L18.4163 9.56952L18.4069 9.57897L18.3973 9.58851L18.3877 9.59816L18.378 9.6079L18.3681 9.61775L18.3582 9.62768L18.3481 9.63772L18.338 9.64785L18.3278 9.65807L18.3175 9.66839L18.307 9.67881L18.2965 9.68931L18.2859 9.69992L18.2752 9.71061L18.2645 9.7214L18.2536 9.73228L18.2426 9.74325L18.2315 9.75431L18.2204 9.76546L18.2092 9.7767L18.1978 9.78803L18.1864 9.79945L18.1749 9.81096L18.1633 9.82256L18.1516 9.83424L18.1398 9.84602L18.128 9.85787L18.116 9.86982L18.104 9.88185L18.0919 9.89397L18.0797 9.90617L18.0674 9.91845L18.055 9.93082L18.0426 9.94328L18.03 9.95581L18.0174 9.96843L18.0047 9.98113L17.9919 9.99391L17.9791 10.0068L17.9661 10.0197L17.9531 10.0327L17.94 10.0458L17.9268 10.059L17.9136 10.0723L17.9002 10.0856L17.8868 10.099L17.8733 10.1125L17.8597 10.1261L17.8461 10.1398L17.8324 10.1535L17.8186 10.1673L17.8047 10.1812L17.7908 10.1951L17.7767 10.2091L17.7626 10.2232L17.7485 10.2374L17.7342 10.2516L17.7199 10.2659L17.7055 10.2803L17.6911 10.2948L17.6766 10.3093L17.662 10.3239L17.6473 10.3386L17.6326 10.3533L17.6178 10.3681L17.6029 10.383L17.5879 10.3979L17.5729 10.4129L17.5579 10.428L17.5427 10.4431L17.5275 10.4583L17.5122 10.4736L17.4969 10.4889L17.4815 10.5043L17.466 10.5198L17.4505 10.5353L17.4349 10.5509L17.4193 10.5666L17.4036 10.5823L17.3878 10.5981L17.3719 10.6139L17.356 10.6298L17.3401 10.6458L17.3241 10.6618L17.308 10.6779L17.2918 10.694L17.2756 10.7102L17.2594 10.7265L17.2431 10.7428L17.2267 10.7591L17.2103 10.7756L17.1938 10.792L17.1773 10.8086L17.1607 10.8252L17.144 10.8418L17.1273 10.8585L17.1106 10.8753L17.0938 10.8921L17.0769 10.9089L17.06 10.9258L17.0431 10.9428L17.026 10.9598L17.009 10.9769L16.9919 10.994L16.9747 11.0112L16.9575 11.0284L16.9402 11.0456L16.9229 11.0629L16.9056 11.0803L16.8882 11.0977L16.8707 11.1152L16.8532 11.1327L16.8357 11.1502L16.8181 11.1678L16.8004 11.1854L16.7828 11.2031L16.765 11.2208L16.7473 11.2386L16.7295 11.2564L16.7116 11.2743L16.6937 11.2922L16.6758 11.3101L16.6578 11.3281L16.6398 11.3461L16.6217 11.3641L16.6036 11.3822L16.5855 11.4004L16.5673 11.4186L16.5491 11.4368L16.5308 11.455L16.5125 11.4733L16.4942 11.4916L16.4758 11.51L16.4574 11.5284L16.439 11.5468L16.4205 11.5653L16.402 11.5838L16.3835 11.6024L16.3649 11.6209L16.3463 11.6395L16.3277 11.6582L16.309 11.6769L16.2903 11.6956L16.2716 11.7143L16.2528 11.7331L16.234 11.7518L16.2152 11.7707L16.1963 11.7895L16.1774 11.8084L16.1585 11.8273L16.1396 11.8463L16.1206 11.8652L16.1016 11.8842L16.0826 11.9032L16.0636 11.9223L16.0445 11.9414L16.0254 11.9605L16.0063 11.9796L15.9871 11.9987L15.968 12.0179L15.9488 12.0371L15.9295 12.0563L15.9103 12.0755L15.891 12.0948L15.8718 12.1141L15.8525 12.1334L15.8331 12.1527L15.8138 12.1721L15.7944 12.1914L15.7751 12.2108L15.7557 12.2302L15.7362 12.2496L15.7168 12.269L15.6974 12.2885L15.6779 12.308L15.6584 12.3275L15.6389 12.347L15.6194 12.3665L15.5999 12.386L15.5803 12.4055L15.5608 12.4251L15.5412 12.4447L15.5216 12.4643L15.502 12.4838L15.4824 12.5035L15.4628 12.5231L15.4431 12.5427L15.4235 12.5623L15.4039 12.582L15.3842 12.6017L15.3645 12.6213L15.3449 12.641L15.3252 12.6607L15.3055 12.6804L15.2858 12.7001L15.2661 12.7198L15.2464 12.7395L15.2266 12.7592L15.2069 12.7789L15.1872 12.7987L15.1675 12.8184L15.1477 12.8381L15.128 12.8579L15.1082 12.8776L15.0885 12.8974L15.0687 12.9171L15.049 12.9369L15.0292 12.9566L15.0095 12.9764L14.9897 12.9961L14.97 13.0159L14.9503 13.0356L14.9305 13.0553L14.9108 13.0751L14.891 13.0948L14.8713 13.1146L14.8515 13.1343L14.8318 13.154L14.8121 13.1738L14.7924 13.1935L14.7726 13.2132L14.7529 13.2329L14.7332 13.2526L14.7135 13.2723L14.6938 13.292L14.6742 13.3117L14.6545 13.3314L14.6348 13.351L14.6152 13.3707L14.5955 13.3904L14.5759 13.41L14.5562 13.4296L14.5366 13.4492L14.517 13.4688L14.4974 13.4884L14.4778 13.508L14.4583 13.5276L14.4387 13.5471L14.4192 13.5667L14.3996 13.5862L14.3801 13.6057L14.3606 13.6252L14.3411 13.6447L14.3217 13.6642L14.3022 13.6836L14.2828 13.7031L14.2634 13.7225L14.244 13.7419L14.2246 13.7612L14.2053 13.7806L14.1859 13.7999L14.1666 13.8193L14.1473 13.8386L14.128 13.8578L14.1088 13.8771L14.0895 13.8963L14.0703 13.9155L14.0511 13.9347L14.032 13.9539L14.0128 13.973L13.9937 13.9922L13.9746 14.0113L13.9555 14.0303L13.9365 14.0494L13.9175 14.0684L13.8985 14.0874L13.8795 14.1063L13.8606 14.1253L13.8417 14.1442L13.8228 14.1631L13.8039 14.1819L13.7851 14.2007L13.7663 14.2195L13.7476 14.2383L13.7288 14.257L13.7101 14.2757L13.6915 14.2944L13.6728 14.313L13.6542 14.3316L13.6357 14.3502L13.6171 14.3687L13.5986 14.3872L13.5802 14.4057L13.5617 14.4241L13.5433 14.4425L13.525 14.4609L13.5067 14.4792L13.4884 14.4975L13.4701 14.5157L13.4519 14.5339L13.4337 14.5521L13.4156 14.5703L13.3975 14.5883L13.3795 14.6064L13.3614 14.6244L13.3435 14.6424L13.3255 14.6603L13.3077 14.6782L13.2898 14.6961L13.272 14.7139L13.2542 14.7316L13.2365 14.7493L13.2188 14.767L13.2012 14.7846L13.1836 14.8022L13.1661 14.8198L13.1486 14.8373L13.1312 14.8547L13.1138 14.8721L13.0964 14.8895L13.0791 14.9068L13.0618 14.924L13.0446 14.9412L13.0275 14.9584L13.0104 14.9755L12.9933 14.9925L12.9763 15.0095L12.9594 15.0265L12.9425 15.0434L12.9256 15.0603L12.9088 15.0771L12.8921 15.0938L12.8754 15.1105L12.8587 15.1271L12.8421 15.1437L12.8256 15.1602L12.8091 15.1767L12.7927 15.1931L12.7764 15.2095L12.7601 15.2258L12.7438 15.242L12.7276 15.2582L12.7115 15.2744L12.6954 15.2904L12.6794 15.3064L12.6635 15.3224L12.6476 15.3383L12.6317 15.3541L12.616 15.3699L12.6003 15.3856L12.5846 15.4012L12.569 15.4168L12.5535 15.4323L12.5381 15.4478L12.5227 15.4632L12.5073 15.4785L12.4921 15.4938L12.4769 15.509L12.4618 15.5241L12.4467 15.5392L12.4317 15.5542L12.4168 15.5691L12.4019 15.584L12.3871 15.5987L12.3724 15.6135L12.3577 15.6281L12.3431 15.6427L12.3286 15.6572L12.3142 15.6717L12.2998 15.6861L12.2855 15.7004L12.2713 15.7146L12.2571 15.7287L12.243 15.7428L12.229 15.7568L12.2151 15.7708L12.2012 15.7846L12.1874 15.7984L12.1737 15.8121L12.1601 15.8258L12.1465 15.8393L12.133 15.8528L12.1196 15.8662L12.1063 15.8796L12.093 15.8928L12.0799 15.906L12.0668 15.9191L12.0538 15.9321L12.0408 15.945L12.028 15.9579L12.0152 15.9706L12.0025 15.9833L11.9899 15.9959L11.9774 16.0085L11.9649 16.0209L11.9526 16.0333L11.9403 16.0455L11.9281 16.0577L11.916 16.0698L11.904 16.0819L11.8921 16.0938L11.8802 16.1056L11.8685 16.1174L11.8568 16.1291L11.8452 16.1407L11.8337 16.1522L11.8223 16.1636L11.811 16.1749L11.7997 16.1861L11.7886 16.1973L11.7776 16.2083L11.7666 16.2193L11.7557 16.2301L11.745 16.2409L11.7343 16.2516L11.7237 16.2622L11.7132 16.2727L11.7028 16.2831L11.6925 16.2934L11.6823 16.3036L11.6722 16.3137L11.6621 16.3237L11.6522 16.3337L11.6424 16.3435L11.6326 16.3532L11.623 16.3628L11.6135 16.3724L11.604 16.3818L11.5947 16.3912L11.5855 16.4004L11.5763 16.4095L11.5673 16.4186L11.5584 16.4275L11.5495 16.4363L11.5408 16.4451L11.5322 16.4537L11.5236 16.4622L11.5152 16.4706L11.5069 16.479L11.4987 16.4872L11.4906 16.4953L11.4826 16.5033L11.4747 16.5112L11.4669 16.519L11.4592 16.5267L11.4516 16.5343L11.4441 16.5417L11.4368 16.5491L11.4295 16.5564L11.4224 16.5635L11.4153 16.5705L11.4084 16.5775L11.4016 16.5843L11.3949 16.591L11.3883 16.5976L11.3818 16.6041L11.3754 16.6104L11.3692 16.6167L11.363 16.6228L11.357 16.6289L11.3511 16.6348L11.3453 16.6406L11.3396 16.6463L11.334 16.6518L11.3286 16.6573L11.3232 16.6626L11.318 16.6678L11.3129 16.6729L11.3079 16.6779L11.3031 16.6828L11.2983 16.6875L11.2937 16.6922L11.2892 16.6967L11.2848 16.701L11.2805 16.7053L11.2764 16.7095L11.2724 16.7135L11.2685 16.7174L11.2647 16.7211L11.2611 16.7248L11.2575 16.7283L11.2541 16.7317L11.2508 16.735L11.2477 16.7382L11.2447 16.7412L11.2418 16.7441L11.239 16.7469L11.2363 16.7495L11.2338 16.7521L11.2314 16.7544L11.2291 16.7567L11.227 16.7588C10.9106 17.0752 10.3893 17.3119 9.85142 17.3717C9.28326 17.4348 8.59573 17.3095 8.04503 16.7588C7.49433 16.2081 7.36907 15.5206 7.4322 14.9524C7.49197 14.4145 7.72865 13.8932 8.04503 13.5769L8.04717 13.5747L8.04945 13.5724L8.05186 13.57L8.05441 13.5675L8.05709 13.5648L8.05991 13.562L8.06287 13.559L8.06596 13.5559L8.06918 13.5527L8.07253 13.5494L8.07602 13.5459L8.07963 13.5423L8.08338 13.5385L8.08726 13.5346L8.09127 13.5306L8.09541 13.5265L8.09967 13.5222L8.10407 13.5178L8.10859 13.5133L8.11324 13.5087L8.11801 13.5039L8.12291 13.499L8.12794 13.494L8.13309 13.4888L8.13837 13.4835L8.14377 13.4781L8.14929 13.4726L8.15494 13.467L8.1607 13.4612L8.16659 13.4553L8.1726 13.4493L8.17873 13.4432L8.18498 13.4369L8.19135 13.4305L8.19784 13.4241L8.20445 13.4174L8.21117 13.4107L8.21801 13.4039L8.22497 13.3969L8.23205 13.3898L8.23923 13.3827L8.24654 13.3754L8.25396 13.3679L8.26149 13.3604L8.26914 13.3528L8.27689 13.345L8.28476 13.3371L8.29275 13.3291L8.30084 13.3211L8.30904 13.3129L8.31736 13.3045L8.32578 13.2961L8.33431 13.2876L8.34295 13.2789L8.3517 13.2702L8.36055 13.2613L8.36951 13.2524L8.37858 13.2433L8.38775 13.2341L8.39703 13.2249L8.40641 13.2155L8.4159 13.206L8.42549 13.1964L8.43518 13.1867L8.44497 13.1769L8.45487 13.167L8.46487 13.157L8.47496 13.1469L8.48516 13.1367L8.49546 13.1264L8.50585 13.116L8.51635 13.1055L8.52694 13.095L8.53763 13.0843L8.54841 13.0735L8.55929 13.0626L8.57027 13.0516L8.58134 13.0406L8.59251 13.0294L8.60377 13.0181L8.61512 13.0068L8.62657 12.9953L8.63811 12.9838L8.64973 12.9722L8.66146 12.9604L8.67327 12.9486L8.68517 12.9367L8.69716 12.9247L8.70924 12.9127L8.72141 12.9005L8.73367 12.8882L8.74601 12.8759L8.75844 12.8635L8.77096 12.8509L8.78356 12.8383L8.79624 12.8257L8.80901 12.8129L8.82187 12.8L8.83481 12.7871L8.84783 12.7741L8.86093 12.761L8.87412 12.7478L8.88738 12.7345L8.90073 12.7212L8.91416 12.7077L8.92766 12.6942L8.94125 12.6806L8.95491 12.667L8.96865 12.6532L8.98247 12.6394L8.99637 12.6255L9.01034 12.6116L9.02439 12.5975L9.03851 12.5834L9.05271 12.5692L9.06698 12.5549L9.08132 12.5406L9.09574 12.5262L9.11023 12.5117L9.12479 12.4971L9.13942 12.4825L9.15413 12.4678L9.1689 12.453L9.18374 12.4382L9.19865 12.4232L9.21363 12.4083L9.22868 12.3932L9.2438 12.3781L9.25898 12.3629L9.27423 12.3477L9.28954 12.3324L9.30492 12.317L9.32036 12.3015L9.33587 12.286L9.35144 12.2705L9.36707 12.2548L9.38277 12.2391L9.39853 12.2234L9.41435 12.2075L9.43023 12.1917L9.44617 12.1757L9.46217 12.1597L9.47822 12.1437L9.49434 12.1276L9.51052 12.1114L9.52675 12.0951L9.54304 12.0789L9.55938 12.0625L9.57578 12.0461L9.59224 12.0297L9.60875 12.0131L9.62531 11.9966L9.64193 11.98L9.6586 11.9633L9.67533 11.9466L9.6921 11.9298L9.70893 11.913L9.72581 11.8961L9.74273 11.8792L9.75971 11.8622L9.77674 11.8452L9.79381 11.8281L9.81093 11.811L9.8281 11.7938L9.84532 11.7766L9.86258 11.7593L9.87989 11.742L9.89725 11.7246L9.91465 11.7072L9.93209 11.6898L9.94957 11.6723L9.9671 11.6548L9.98468 11.6372L10.0023 11.6196L10.0199 11.6019L10.0376 11.5843L10.0554 11.5665L10.0732 11.5487L10.091 11.5309L10.1088 11.5131L10.1267 11.4952L10.1446 11.4773L10.1626 11.4593L10.1806 11.4413L10.1986 11.4233L10.2167 11.4052L10.2348 11.3871L10.253 11.3689L10.2711 11.3508L10.2893 11.3325L10.3076 11.3143L10.3259 11.296L10.3442 11.2777L10.3625 11.2594L10.3809 11.241L10.3993 11.2226L10.4177 11.2042L10.4361 11.1858L10.4546 11.1673L10.4731 11.1488L10.4917 11.1302L10.5102 11.1117L10.5288 11.0931L10.5474 11.0745L10.5661 11.0558L10.5847 11.0372L10.6034 11.0185L10.6221 10.9998L10.6408 10.9811L10.6596 10.9623L10.6784 10.9435L10.6972 10.9247L10.716 10.9059L10.7348 10.8871L10.7537 10.8682L10.7725 10.8494L10.7914 10.8305L10.8103 10.8116L10.8293 10.7926L10.8482 10.7737L10.8672 10.7547L10.8861 10.7358L10.9051 10.7168L10.9241 10.6978L10.9431 10.6788L10.9622 10.6597L10.9812 10.6407L11.0003 10.6216L11.0193 10.6026L11.0384 10.5835L11.0575 10.5644L11.0766 10.5453L11.0957 10.5262L11.1148 10.5071L11.1339 10.488L11.1531 10.4688L11.1722 10.4497L11.1913 10.4306L11.2105 10.4114L11.2296 10.3923L11.2488 10.3731L11.268 10.3539L11.2871 10.3348L11.3063 10.3156L11.3255 10.2964L11.3446 10.2773L11.3638 10.2581L11.383 10.2389L11.4022 10.2197L11.4213 10.2006L11.4405 10.1814L11.4597 10.1622L11.4789 10.143L11.498 10.1239L11.5172 10.1047L11.5364 10.0855L11.5555 10.0664L11.5747 10.0472L11.5938 10.0281L11.613 10.0089L11.6321 9.98978L11.6512 9.97064L11.6704 9.95152L11.6895 9.9324L11.7086 9.9133L11.7277 9.8942L11.7468 9.87511L11.7659 9.85603L11.7849 9.83696L11.804 9.8179L11.823 9.79886L11.8421 9.77982L11.8611 9.7608L11.8801 9.7418L11.8991 9.7228L11.9181 9.70383L11.937 9.68486L11.956 9.66592L11.9749 9.64698L11.9938 9.62807L12.0127 9.60917L12.0316 9.59029L12.0505 9.57143L12.0693 9.55259L12.0881 9.53377L12.1069 9.51497L12.1257 9.49618L12.1445 9.47742L12.1632 9.45869L12.1819 9.43997L12.2006 9.42128L12.2193 9.40261L12.2379 9.38396L12.2566 9.36534L12.2752 9.34674L12.2937 9.32817L12.3123 9.30963L12.3308 9.29111L12.3493 9.27262L12.3677 9.25415L12.3862 9.23572L12.4046 9.21731L12.423 9.19894L12.4413 9.18059L12.4596 9.16228L12.4779 9.14399L12.4962 9.12574L12.5144 9.10752L12.5326 9.08933L12.5507 9.07118L12.5688 9.05306L12.5869 9.03497L12.605 9.01692L12.623 8.99891L12.641 8.98093L12.6589 8.96298L12.6768 8.94508L12.6947 8.92721L12.7125 8.90938L12.7303 8.89159L12.7481 8.87384L12.7658 8.85613L12.7834 8.83846L12.8011 8.82083L12.8186 8.80325L12.8362 8.7857L12.8537 8.7682L12.8712 8.75074L12.8886 8.73332L12.9059 8.71595L12.9233 8.69863L12.9405 8.68135L12.9578 8.66411L12.975 8.64692L12.9921 8.62979L13.0092 8.61269L13.0262 8.59565L13.0432 8.57865L13.0602 8.56171L13.0771 8.54481L13.0939 8.52797L13.1107 8.51117L13.1275 8.49443L13.1442 8.47774L13.1608 8.4611L13.1774 8.44452L13.1939 8.42798L13.2104 8.41151L13.2268 8.39509L13.2432 8.37872L13.2595 8.36241L13.2757 8.34616L13.2919 8.32996L13.3081 8.31382L13.3242 8.29774L13.3402 8.28172L13.3561 8.26576L13.372 8.24986L13.3879 8.23401L13.4037 8.21823L13.4194 8.20252L13.435 8.18686L13.4506 8.17126L13.4662 8.15573L13.4816 8.14027L13.497 8.12486L13.5124 8.10953L13.5276 8.09425L13.5428 8.07905L13.558 8.06391L13.5731 8.04883L13.5881 8.03383L13.603 8.01889L13.6179 8.00402L13.6327 7.98922L13.6474 7.97449L13.6621 7.95984L13.6766 7.94525L13.6912 7.93073L13.7056 7.91629L13.72 7.90192L13.7343 7.88762L13.7485 7.87339L13.7626 7.85924L13.7767 7.84517L13.7907 7.83117L13.8046 7.81725L13.8185 7.8034L13.8323 7.78963L13.846 7.77594L13.8596 7.76232L13.8731 7.74878L13.8866 7.73533L13.8999 7.72195L13.9132 7.70865L13.9265 7.69544L13.9396 7.68231L13.9526 7.66925L13.9656 7.65628L13.9785 7.6434L13.9913 7.6306L14.004 7.61788L14.0166 7.60525L14.0292 7.5927L14.0417 7.58023L14.054 7.56786L14.0663 7.55557L14.0785 7.54337L14.0906 7.53126L14.1027 7.51923L14.1146 7.5073L14.1264 7.49545L14.1382 7.4837L14.1499 7.47203L14.1614 7.46046L14.1729 7.44898L14.1843 7.43759L14.1956 7.4263L14.2068 7.4151L14.2179 7.40399L14.2289 7.39298L14.2398 7.38206L14.2507 7.37124L14.2614 7.36052L14.272 7.34989L14.2825 7.33936L14.293 7.32893L14.3033 7.31859L14.3135 7.30836L14.3237 7.29822L14.3337 7.28819L14.3436 7.27826L14.3535 7.26843L14.3632 7.2587L14.3728 7.24907L14.3823 7.23954L14.3918 7.23012L14.4011 7.22081L14.4103 7.2116L14.4194 7.20249L14.4284 7.19349L14.4373 7.18459L14.4461 7.17581L14.4548 7.16713L14.4633 7.15855L14.4718 7.15009L14.4802 7.14174L14.4884 7.13349L14.4965 7.12536L14.5046 7.11734L14.5125 7.10942L14.5203 7.10162L14.528 7.09394L14.5355 7.08636L14.543 7.0789L14.5503 7.07155L14.5576 7.06432L14.5647 7.05721L14.5717 7.0502L14.5786 7.04332L14.5853 7.03655L14.592 7.0299L14.5985 7.02337L14.6049 7.01695L14.6112 7.01066L14.6174 7.00449L14.6235 6.99843L14.6294 6.9925L14.6352 6.98668L14.6409 6.98099L14.6465 6.97542L14.6519 6.96998L14.6572 6.96466L14.6624 6.95946L14.6675 6.95439L14.6725 6.94944L14.6773 6.94461L14.682 6.93992L14.6865 6.93535L14.691 6.93091L14.6953 6.92659L14.6995 6.92241L14.7035 6.91835L14.7075 6.91443L14.7113 6.91063L14.7149 6.90696L14.7185 6.90343L14.7219 6.90003L14.7251 6.89676L14.7283 6.89362L14.7313 6.89062L14.7341 6.88775L14.7369 6.88501L14.7395 6.88241L14.7419 6.87995L14.7443 6.87762L14.7465 6.87543L14.7485 6.87337L14.7504 6.87146L14.7522 6.86968L14.7539 6.86804L14.7554 6.86654L14.7567 6.86518L14.7579 6.86397L14.759 6.86289L14.7599 6.86195L14.7607 6.86116L14.7614 6.86051L14.7619 6.86L14.7623 6.85964L14.7625 6.85942C14.7625 6.85938 14.7625 6.85935 15.2929 7.38968C15.8232 7.92001 15.8232 7.92004 15.8231 7.92008L15.8229 7.9203L15.8225 7.92066L15.822 7.92117L15.8214 7.92182L15.8206 7.92261L15.8197 7.92355L15.8186 7.92463L15.8174 7.92584L15.816 7.9272L15.8145 7.9287L15.8129 7.93034L15.8111 7.93212L15.8092 7.93403L15.8071 7.93609L15.8049 7.93828L15.8026 7.94061L15.8001 7.94307L15.7975 7.94567L15.7948 7.94841L15.7919 7.95128L15.7889 7.95428L15.7858 7.95742L15.7825 7.96069L15.7791 7.96409L15.7756 7.96762L15.7719 7.97129L15.7681 7.97509L15.7642 7.97901L15.7601 7.98307L15.756 7.98725L15.7516 7.99157L15.7472 7.99601L15.7426 8.00058L15.7379 8.00527L15.7331 8.0101L15.7282 8.01505L15.7231 8.02012L15.7179 8.02532L15.7126 8.03064L15.7071 8.03608L15.7016 8.04165L15.6959 8.04734L15.6901 8.05316L15.6841 8.05909L15.6781 8.06515L15.6719 8.07132L15.6656 8.07761L15.6592 8.08403L15.6527 8.09056L15.646 8.09721L15.6392 8.10398L15.6324 8.11086L15.6253 8.11787L15.6182 8.12498L15.611 8.13221L15.6037 8.13956L15.5962 8.14702L15.5886 8.1546L15.5809 8.16228L15.5731 8.17008L15.5652 8.178L15.5572 8.18602L15.5491 8.19415L15.5408 8.2024L15.5325 8.21075L15.524 8.21921L15.5154 8.22779L15.5067 8.23647L15.498 8.24525L15.4891 8.25415L15.4801 8.26315L15.471 8.27226L15.4617 8.28147L15.4524 8.29078L15.443 8.3002L15.4335 8.30973L15.4239 8.31936L15.4141 8.32909L15.4043 8.33892L15.3944 8.34885L15.3843 8.35888L15.3742 8.36902L15.364 8.37925L15.3536 8.38959L15.3432 8.40002L15.3327 8.41055L15.322 8.42118L15.3113 8.4319L15.3005 8.44272L15.2896 8.45364L15.2786 8.46465L15.2675 8.47576L15.2563 8.48696L15.245 8.49825L15.2336 8.50964L15.2221 8.52112L15.2105 8.53269L15.1989 8.54436L15.1871 8.55611L15.1753 8.56796L15.1633 8.57989L15.1513 8.59192L15.1392 8.60403L15.127 8.61623L15.1147 8.62852L15.1023 8.64089L15.0899 8.65336L15.0773 8.6659L15.0647 8.67854L15.052 8.69126L15.0392 8.70406L15.0263 8.71694L15.0133 8.72991L15.0002 8.74297L14.9871 8.7561L14.9739 8.76932L14.9606 8.78261L14.9472 8.79599L14.9338 8.80944L14.9202 8.82298L14.9066 8.8366L14.8929 8.85029L14.8792 8.86406L14.8653 8.87791L14.8514 8.89183L14.8374 8.90583L14.8233 8.9199L14.8092 8.93405L14.7949 8.94828L14.7806 8.96258L14.7663 8.97695L14.7518 8.99139L14.7373 9.00591L14.7227 9.0205L14.7081 9.03515L14.6933 9.04988L14.6785 9.06468L14.6637 9.07955L14.6487 9.09449L14.6337 9.10949L14.6186 9.12457L14.6035 9.13971L14.5883 9.15491L14.573 9.17019L14.5577 9.18552L14.5423 9.20093L14.5268 9.21639L14.5113 9.23192L14.4957 9.24752L14.48 9.26318L14.4643 9.27889L14.4485 9.29468L14.4327 9.31052L14.4168 9.32642L14.4008 9.34238L14.3848 9.3584L14.3687 9.37448L14.3526 9.39062L14.3364 9.40682L14.3201 9.42307L14.3038 9.43938L14.2875 9.45575L14.271 9.47217L14.2546 9.48864L14.238 9.50518L14.2215 9.52176L14.2048 9.5384L14.1881 9.55509L14.1714 9.57183L14.1546 9.58863L14.1377 9.60547L14.1208 9.62237L14.1039 9.63931L14.0869 9.65631L14.0699 9.67335L14.0528 9.69044L14.0356 9.70759L14.0184 9.72477L14.0012 9.74201L13.9839 9.75929L13.9666 9.77661L13.9492 9.79398L13.9318 9.8114L13.9144 9.82886L13.8969 9.84636L13.8793 9.86391L13.8617 9.88149L13.8441 9.89912L13.8264 9.91679L13.8087 9.9345L13.791 9.95225L13.7732 9.97004L13.7553 9.98787L13.7375 10.0057L13.7196 10.0236L13.7016 10.0416L13.6836 10.0596L13.6656 10.0776L13.6476 10.0956L13.6295 10.1137L13.6114 10.1318L13.5932 10.15L13.575 10.1682L13.5568 10.1864L13.5386 10.2047L13.5203 10.2229L13.502 10.2413L13.4836 10.2596L13.4652 10.278L13.4468 10.2964L13.4284 10.3148L13.4099 10.3333L13.3914 10.3518L13.3729 10.3703L13.3544 10.3888L13.3358 10.4074L13.3172 10.426L13.2986 10.4446L13.2799 10.4633L13.2613 10.4819L13.2426 10.5006L13.2239 10.5193L13.2051 10.5381L13.1864 10.5568L13.1676 10.5756L13.1488 10.5944L13.13 10.6133L13.1111 10.6321L13.0923 10.651L13.0734 10.6698L13.0545 10.6887L13.0356 10.7076L13.0166 10.7266L12.9977 10.7455L12.9787 10.7645L12.9598 10.7835L12.9408 10.8025L12.9218 10.8215L12.9027 10.8405L12.8837 10.8595L12.8647 10.8786L12.8456 10.8976L12.8265 10.9167L12.8074 10.9358L12.7884 10.9549L12.7693 10.974L12.7502 10.9931L12.731 11.0122L12.7119 11.0313L12.6928 11.0504L12.6736 11.0696L12.6545 11.0887L12.6353 11.1079L12.6162 11.127L12.597 11.1462L12.5779 11.1653L12.5587 11.1845L12.5395 11.2037L12.5204 11.2229L12.5012 11.242L12.482 11.2612L12.4628 11.2804L12.4436 11.2996L12.4245 11.3187L12.4053 11.3379L12.3861 11.3571L12.3669 11.3763L12.3478 11.3954L12.3286 11.4146L12.3094 11.4338L12.2903 11.4529L12.2711 11.4721L12.252 11.4912L12.2328 11.5104L12.2137 11.5295L12.1946 11.5486L12.1755 11.5678L12.1563 11.5869L12.1372 11.606L12.1181 11.6251L12.0991 11.6442L12.08 11.6632L12.0609 11.6823L12.0419 11.7013L12.0228 11.7204L12.0038 11.7394L11.9848 11.7584L11.9658 11.7774L11.9468 11.7964L11.9278 11.8154L11.9089 11.8343L11.8899 11.8533L11.871 11.8722L11.8521 11.8911L11.8332 11.91L11.8143 11.9289L11.7955 11.9477L11.7766 11.9666L11.7578 11.9854L11.739 12.0042L11.7203 12.023L11.7015 12.0417L11.6828 12.0604L11.6641 12.0792L11.6454 12.0978L11.6267 12.1165L11.6081 12.1351L11.5895 12.1537L11.5709 12.1723L11.5523 12.1909L11.5338 12.2094L11.5153 12.2279L11.4968 12.2464L11.4783 12.2649L11.4599 12.2833L11.4415 12.3017L11.4232 12.3201L11.4048 12.3384L11.3865 12.3567L11.3682 12.375L11.35 12.3932L11.3318 12.4114L11.3136 12.4296L11.2955 12.4477L11.2774 12.4658L11.2593 12.4839L11.2413 12.5019L11.2233 12.5199L11.2053 12.5379L11.1874 12.5558L11.1695 12.5737L11.1516 12.5916L11.1338 12.6094L11.116 12.6272L11.0983 12.6449L11.0806 12.6626L11.0629 12.6803L11.0453 12.6979L11.0278 12.7155L11.0102 12.733L10.9927 12.7505L10.9753 12.7679L10.9579 12.7853L10.9406 12.8027L10.9232 12.82L10.906 12.8372L10.8888 12.8545L10.8716 12.8716L10.8545 12.8887L10.8374 12.9058L10.8204 12.9228L10.8034 12.9398L10.7865 12.9567L10.7696 12.9736L10.7528 12.9905L10.736 13.0072L10.7193 13.024L10.7026 13.0406L10.686 13.0572L10.6694 13.0738L10.6529 13.0903L10.6364 13.1068L10.62 13.1232L10.6037 13.1395L10.5874 13.1558L10.5712 13.172L10.555 13.1882L10.5389 13.2043L10.5228 13.2204L10.5068 13.2364L10.4909 13.2523L10.475 13.2682L10.4592 13.284L10.4434 13.2998L10.4277 13.3155L10.4121 13.3311L10.3965 13.3467L10.381 13.3622L10.3656 13.3776L10.3502 13.393L10.3349 13.4083L10.3196 13.4236L10.3045 13.4388L10.2893 13.4539L10.2743 13.4689L10.2593 13.4839L10.2444 13.4988L10.2296 13.5137L10.2148 13.5284L10.2001 13.5431L10.1855 13.5578L10.1709 13.5723L10.1564 13.5868L10.142 13.6012L10.1276 13.6156L10.1134 13.6298L10.0992 13.644L10.085 13.6582L10.071 13.6722L10.057 13.6862L10.0431 13.7001L10.0293 13.7139L10.0156 13.7276L10.0019 13.7413L9.98832 13.7549L9.97482 13.7684L9.96139 13.7818L9.94804 13.7952L9.93478 13.8084L9.92159 13.8216L9.90849 13.8347L9.89547 13.8477L9.88253 13.8607L9.86967 13.8735L9.8569 13.8863L9.84422 13.899L9.83161 13.9116L9.8191 13.9241L9.80667 13.9365L9.79433 13.9489L9.78207 13.9611L9.7699 13.9733L9.75782 13.9854L9.74583 13.9974L9.73393 14.0093L9.72212 14.0211L9.7104 14.0328L9.69877 14.0444L9.68723 14.056L9.67578 14.0674L9.66443 14.0788L9.65317 14.09L9.642 14.1012L9.63093 14.1123L9.61995 14.1233L9.60907 14.1341L9.59829 14.1449L9.5876 14.1556L9.57701 14.1662L9.56651 14.1767L9.55612 14.1871L9.54582 14.1974L9.53562 14.2076L9.52553 14.2177L9.51553 14.2277L9.50563 14.2376L9.49584 14.2474L9.48615 14.2571L9.47656 14.2667L9.46707 14.2761L9.45769 14.2855L9.44841 14.2948L9.43924 14.304L9.43017 14.313L9.42121 14.322L9.41236 14.3309L9.40361 14.3396L9.39497 14.3482L9.38644 14.3568L9.37802 14.3652L9.3697 14.3735L9.3615 14.3817L9.35341 14.3898L9.34542 14.3978L9.33755 14.4057L9.3298 14.4134L9.32215 14.4211L9.31462 14.4286L9.3072 14.436L9.2999 14.4433L9.29271 14.4505L9.28563 14.4576L9.27867 14.4645L9.27183 14.4714L9.26511 14.4781L9.2585 14.4847L9.25201 14.4912L9.24564 14.4976L9.23939 14.5038L9.23326 14.51L9.22725 14.516L9.22136 14.5219L9.2156 14.5276L9.20995 14.5333L9.20443 14.5388L9.19903 14.5442L9.19375 14.5495L9.1886 14.5546L9.18357 14.5596L9.17867 14.5645L9.1739 14.5693L9.16925 14.574L9.16473 14.5785L9.16033 14.5829L9.15606 14.5871L9.15193 14.5913L9.14792 14.5953L9.14404 14.5992L9.14029 14.6029L9.13668 14.6065L9.13319 14.61L9.12984 14.6134L9.12662 14.6166L9.12353 14.6197L9.12057 14.6226L9.11775 14.6255L9.11507 14.6281L9.11252 14.6307L9.11011 14.6331L9.10783 14.6354L9.10569 14.6375C9.06851 14.6747 8.95164 14.8605 8.92302 15.1181C8.89776 15.3454 8.94928 15.5418 9.10569 15.6982C9.26209 15.8546 9.45844 15.9061 9.68578 15.8809C9.94335 15.8522 10.1292 15.7354 10.1663 15.6982L10.1685 15.696L10.1708 15.6938L10.1731 15.6914L10.1757 15.6889L10.1783 15.6862L10.1811 15.6834L10.184 15.6805L10.187 15.6775L10.1902 15.6744L10.1935 15.6711L10.1969 15.6677L10.2004 15.6641L10.204 15.6605L10.2078 15.6567L10.2117 15.6528L10.2157 15.6488L10.2199 15.6446L10.2242 15.6404L10.2285 15.636L10.233 15.6315L10.2377 15.6269L10.2424 15.6221L10.2473 15.6173L10.2523 15.6123L10.2574 15.6072L10.2626 15.602L10.2679 15.5966L10.2734 15.5912L10.2789 15.5856L10.2846 15.5799L10.2904 15.5741L10.2963 15.5682L10.3024 15.5622L10.3085 15.556L10.3148 15.5498L10.3211 15.5434L10.3276 15.5369L10.3342 15.5303L10.3409 15.5236L10.3477 15.5168L10.3547 15.5099L10.3617 15.5028L10.3688 15.4957L10.3761 15.4884L10.3835 15.4811L10.3909 15.4736L10.3985 15.466L10.4062 15.4583L10.414 15.4505L10.4219 15.4426L10.4299 15.4346L10.438 15.4265L10.4462 15.4183L10.4545 15.41L10.463 15.4016L10.4715 15.393L10.4801 15.3844L10.4889 15.3757L10.4977 15.3668L10.5066 15.3579L10.5157 15.3489L10.5248 15.3397L10.534 15.3305L10.5434 15.3212L10.5528 15.3117L10.5624 15.3022L10.572 15.2926L10.5817 15.2828L10.5915 15.273L10.6015 15.2631L10.6115 15.253L10.6216 15.2429L10.6318 15.2327L10.6421 15.2224L10.6525 15.212L10.663 15.2015L10.6736 15.1909L10.6843 15.1802L10.6951 15.1695L10.7059 15.1586L10.7169 15.1476L10.7279 15.1366L10.7391 15.1255L10.7503 15.1142L10.7616 15.1029L10.773 15.0915L10.7845 15.08L10.7961 15.0684L10.8078 15.0567L10.8196 15.045L10.8314 15.0331L10.8433 15.0212L10.8554 15.0092L10.8675 14.9971L10.8797 14.9849L10.8919 14.9726L10.9043 14.9602L10.9167 14.9478L10.9293 14.9353L10.9419 14.9227L10.9545 14.91L10.9673 14.8972L10.9802 14.8844L10.9931 14.8714L11.0061 14.8584L11.0192 14.8453L11.0324 14.8322L11.0456 14.8189L11.059 14.8056L11.0724 14.7922L11.0859 14.7787L11.0994 14.7651L11.113 14.7515L11.1268 14.7378L11.1405 14.724L11.1544 14.7101L11.1684 14.6962L11.1824 14.6822L11.1964 14.6681L11.2106 14.6539L11.2248 14.6397L11.2391 14.6254L11.2535 14.611L11.268 14.5966L11.2825 14.5821L11.2971 14.5675L11.3117 14.5528L11.3264 14.5381L11.3412 14.5233L11.3561 14.5084L11.371 14.4935L11.386 14.4785L11.4011 14.4634L11.4162 14.4483L11.4314 14.4331L11.4467 14.4178L11.462 14.4025L11.4774 14.3871L11.4929 14.3717L11.5084 14.3562L11.524 14.3406L11.5396 14.3249L11.5553 14.3092L11.5711 14.2934L11.5869 14.2776L11.6028 14.2617L11.6188 14.2458L11.6348 14.2298L11.6508 14.2137L11.667 14.1976L11.6832 14.1814L11.6994 14.1651L11.7157 14.1488L11.7321 14.1325L11.7485 14.116L11.765 14.0996L11.7815 14.083L11.7981 14.0665L11.8147 14.0498L11.8314 14.0331L11.8481 14.0164L11.8649 13.9996L11.8818 13.9827L11.8987 13.9658L11.9157 13.9489L11.9327 13.9319L11.9497 13.9148L11.9668 13.8977L11.984 13.8806L12.0012 13.8633L12.0184 13.8461L12.0357 13.8288L12.0531 13.8114L12.0705 13.794L12.0879 13.7766L12.1054 13.7591L12.123 13.7416L12.1406 13.724L12.1582 13.7064L12.1759 13.6887L12.1936 13.671L12.2113 13.6532L12.2291 13.6354L12.247 13.6175L12.2649 13.5997L12.2828 13.5817L12.3008 13.5638L12.3188 13.5457L12.3369 13.5277L12.3549 13.5096L12.3731 13.4915L12.3912 13.4733L12.4095 13.4551L12.4277 13.4368L12.446 13.4185L12.4643 13.4002L12.4827 13.3819L12.5011 13.3635L12.5195 13.345L12.538 13.3266L12.5565 13.3081L12.575 13.2895L12.5936 13.271L12.6122 13.2524L12.6308 13.2337L12.6495 13.2151L12.6682 13.1964L12.6869 13.1776L12.7057 13.1589L12.7245 13.1401L12.7433 13.1213L12.7621 13.1024L12.781 13.0835L12.7999 13.0646L12.8189 13.0457L12.8378 13.0267L12.8568 13.0077L12.8758 12.9887L12.8949 12.9697L12.9139 12.9506L12.933 12.9315L12.9522 12.9124L12.9713 12.8932L12.9905 12.8741L13.0097 12.8549L13.0289 12.8357L13.0481 12.8164L13.0674 12.7972L13.0866 12.7779L13.1059 12.7586L13.1253 12.7393L13.1446 12.7199L13.164 12.7006L13.1833 12.6812L13.2027 12.6618L13.2221 12.6424L13.2416 12.623L13.261 12.6035L13.2805 12.584L13.3 12.5646L13.3195 12.5451L13.339 12.5256L13.3585 12.506L13.3781 12.4865L13.3976 12.4669L13.4172 12.4474L13.4368 12.4278L13.4564 12.4082L13.476 12.3886L13.4956 12.369L13.5152 12.3493L13.5348 12.3297L13.5545 12.31L13.5742 12.2904L13.5938 12.2707L13.6135 12.251L13.6332 12.2314L13.6529 12.2117L13.6726 12.192L13.6923 12.1723L13.712 12.1525L13.7317 12.1328L13.7514 12.1131L13.7712 12.0934L13.7909 12.0736L13.8106 12.0539L13.8304 12.0342L13.8501 12.0144L13.8698 11.9947L13.8896 11.9749L13.9093 11.9552L13.9291 11.9354L13.9488 11.9157L13.9686 11.8959L13.9883 11.8762L14.0081 11.8565L14.0278 11.8367L14.0476 11.817L14.0673 11.7972L14.0871 11.7775L14.1068 11.7577L14.1265 11.738L14.1463 11.7183L14.166 11.6986L14.1857 11.6788L14.2054 11.6591L14.2251 11.6394L14.2448 11.6197L14.2645 11.6L14.2842 11.5803L14.3039 11.5607L14.3235 11.541L14.3432 11.5213L14.3628 11.5017L14.3825 11.482L14.4021 11.4624L14.4217 11.4428L14.4413 11.4232L14.4609 11.4036L14.4805 11.384L14.5001 11.3644L14.5197 11.3449L14.5392 11.3253L14.5587 11.3058L14.5782 11.2863L14.5977 11.2668L14.6172 11.2473L14.6367 11.2278L14.6561 11.2084L14.6756 11.189L14.695 11.1695L14.7144 11.1501L14.7338 11.1308L14.7531 11.1114L14.7725 11.0921L14.7918 11.0727L14.8111 11.0534L14.8304 11.0341L14.8496 11.0149L14.8689 10.9956L14.8881 10.9764L14.9073 10.9572L14.9265 10.9381L14.9456 10.9189L14.9647 10.8998L14.9838 10.8807L15.0029 10.8616L15.0219 10.8426L15.041 10.8236L15.06 10.8046L15.0789 10.7856L15.0979 10.7667L15.1168 10.7478L15.1357 10.7289L15.1545 10.71L15.1733 10.6912L15.1921 10.6724L15.2109 10.6536L15.2296 10.6349L15.2483 10.6162L15.267 10.5975L15.2857 10.5789L15.3043 10.5603L15.3228 10.5417L15.3414 10.5232L15.3599 10.5047L15.3783 10.4862L15.3968 10.4678L15.4152 10.4493L15.4335 10.431L15.4519 10.4127L15.4702 10.3944L15.4884 10.3761L15.5066 10.3579L15.5248 10.3397L15.543 10.3216L15.5611 10.3035L15.5791 10.2854L15.5971 10.2674L15.6151 10.2494L15.633 10.2315L15.6509 10.2136L15.6688 10.1957L15.6866 10.1779L15.7044 10.1602L15.7221 10.1424L15.7398 10.1248L15.7574 10.1071L15.775 10.0895L15.7925 10.072L15.81 10.0545L15.8275 10.037L15.8449 10.0196L15.8623 10.0023L15.8796 9.98497L15.8968 9.96771L15.914 9.95049L15.9312 9.93333L15.9483 9.91622L15.9654 9.89915L15.9824 9.88214L15.9994 9.86518L16.0163 9.84827L16.0331 9.83141L16.0499 9.8146L16.0667 9.79785L16.0834 9.78115L16.1 9.76451L16.1166 9.74792L16.1332 9.73138L16.1496 9.7149L16.1661 9.69848L16.1824 9.68211L16.1987 9.6658L16.215 9.64955L16.2312 9.63335L16.2473 9.61721L16.2634 9.60114L16.2794 9.58512L16.2954 9.56916L16.3113 9.55326L16.3271 9.53742L16.3429 9.52164L16.3586 9.50593L16.3743 9.49027L16.3899 9.47468L16.4054 9.45915L16.4208 9.44369L16.4362 9.42829L16.4516 9.41295L16.4669 9.39768L16.4821 9.38247L16.4972 9.36733L16.5123 9.35226L16.5273 9.33725L16.5422 9.32231L16.5571 9.30744L16.5719 9.29264L16.5866 9.2779L16.6013 9.26324L16.6159 9.24864L16.6304 9.23412L16.6449 9.21966L16.6593 9.20528L16.6736 9.19096L16.6878 9.17672L16.702 9.16255L16.7161 9.14846L16.7301 9.13444L16.744 9.12049L16.7579 9.10662L16.7717 9.09282L16.7854 9.0791L16.7991 9.06545L16.8127 9.05188L16.8262 9.03838L16.8396 9.02497L16.8529 9.01163L16.8662 8.99837L16.8794 8.98518L16.8925 8.97208L16.9055 8.95906L16.9184 8.94611L16.9313 8.93325L16.9441 8.92047L16.9568 8.90777L16.9694 8.89515L16.9819 8.88262L16.9944 8.87016L17.0067 8.85779L17.019 8.84551L17.0312 8.83331L17.0433 8.82119L17.0554 8.80916L17.0673 8.79721L17.0792 8.78536L17.091 8.77358L17.1026 8.7619L17.1142 8.7503L17.1257 8.73879L17.1372 8.72737L17.1485 8.71604L17.1597 8.7048L17.1709 8.69365L17.1819 8.68259L17.1929 8.67162L17.2038 8.66074L17.2146 8.64995L17.2253 8.63926L17.2359 8.62865L17.2464 8.61815L17.2568 8.60773L17.2671 8.59741L17.2773 8.58719L17.2875 8.57706L17.2975 8.56702L17.3074 8.55709L17.3173 8.54724L17.327 8.5375L17.3367 8.52785L17.3462 8.51831L17.3557 8.50886L17.365 8.49951L17.3743 8.49025L17.3834 8.4811L17.3925 8.47205L17.4014 8.4631L17.4103 8.45426L17.419 8.44551L17.4277 8.43687L17.4362 8.42832L17.4446 8.41989L17.453 8.41155L17.4612 8.40332L17.4693 8.3952L17.4774 8.38718L17.4853 8.37927L17.4931 8.37146L17.5008 8.36376L17.5084 8.35616L17.5159 8.34868L17.5232 8.3413L17.5305 8.33403L17.5377 8.32687L17.5447 8.31982L17.5517 8.31288L17.5585 8.30605L17.5652 8.29933L17.5718 8.29272L17.5783 8.28622L17.5847 8.27984L17.591 8.27356C18.0083 7.85623 18.2686 7.31653 18.3007 6.77112C18.3317 6.24414 18.1542 5.65478 17.591 5.09158C17.0278 4.52839 16.4384 4.35088 15.9114 4.38188ZM15.8232 6.85935C16.1161 7.15224 16.1161 7.62712 15.8232 7.92001L15.2929 7.38968L14.7625 6.85935C15.0554 6.56646 15.5303 6.56646 15.8232 6.85935ZM20.0658 11.102C20.3587 11.3949 20.3587 11.8698 20.0658 12.1627L19.5355 11.6323L19.0052 11.102C19.2981 10.8091 19.7729 10.8091 20.0658 11.102Z" fill="#262626"/>
</svg>
