<svg width="24" height="24" viewBox="0 0 24 24" fill="none" xmlns="http://www.w3.org/2000/svg">
<path fill-rule="evenodd" clip-rule="evenodd" d="M6.31716 4.32036C6.04299 4.19241 5.71878 4.24174 5.49506 4.44544C5.27134 4.64914 5.19193 4.96732 5.29369 5.25225L7.7036 12L5.29369 18.7477C5.19193 19.0327 5.27134 19.3509 5.49506 19.5546C5.71878 19.7583 6.04299 19.8076 6.31716 19.6796L21.3172 12.6796C21.5812 12.5564 21.75 12.2914 21.75 12C21.75 11.7086 21.5812 11.4436 21.3172 11.3204L6.31716 4.32036ZM9.02854 11.25L7.31038 6.43916L19.2265 12L7.31038 17.5608L9.02854 12.75H12.5C12.9142 12.75 13.25 12.4142 13.25 12C13.25 11.5858 12.9142 11.25 12.5 11.25H9.02854Z" fill="#23262A"/>
</svg>
