<svg width="24" height="24" viewBox="0 0 24 24" fill="none" xmlns="http://www.w3.org/2000/svg">
<path fill-rule="evenodd" clip-rule="evenodd" d="M5.31719 4.32038C5.04302 4.19243 4.71881 4.24175 4.49509 4.44545C4.27137 4.64915 4.19196 4.96733 4.29372 5.25227L6.31726 10.9182C6.38833 11.1172 6.57682 11.25 6.78813 11.25H12C12.4142 11.25 12.75 11.5858 12.75 12C12.75 12.4142 12.4142 12.75 12 12.75H6.78814C6.57683 12.75 6.38834 12.8828 6.31727 13.0818L4.29372 18.7478C4.19196 19.0327 4.27137 19.3509 4.49509 19.5546C4.71881 19.7583 5.04302 19.8076 5.31719 19.6797L20.3172 12.6797C20.5812 12.5564 20.75 12.2914 20.75 12C20.75 11.7086 20.5812 11.4436 20.3172 11.3204L5.31719 4.32038Z" fill="#262626"/>
</svg>
