<svg width="24" height="24" viewBox="0 0 24 24" fill="none" xmlns="http://www.w3.org/2000/svg">
<path fill-rule="evenodd" clip-rule="evenodd" d="M6.31719 4.32038C6.04302 4.19243 5.71881 4.24175 5.49509 4.44545C5.27137 4.64915 5.19196 4.96733 5.29372 5.25227L7.31726 10.9182C7.38833 11.1172 7.57682 11.25 7.78813 11.25H13C13.4142 11.25 13.75 11.5858 13.75 12C13.75 12.4142 13.4142 12.75 13 12.75H7.78814C7.57683 12.75 7.38834 12.8828 7.31727 13.0818L5.29372 18.7478C5.19196 19.0327 5.27137 19.3509 5.49509 19.5546C5.71881 19.7583 6.04302 19.8076 6.31719 19.6797L21.3172 12.6797C21.5812 12.5564 21.75 12.2914 21.75 12C21.75 11.7086 21.5812 11.4436 21.3172 11.3204L6.31719 4.32038Z" fill="#23262A"/>
</svg>
