<svg width="24" height="24" viewBox="0 0 24 24" fill="none" xmlns="http://www.w3.org/2000/svg">
<path fill-rule="evenodd" clip-rule="evenodd" d="M15.9115 4.38191C15.3661 4.414 14.8264 4.67428 14.409 5.09161L6.27732 13.2233C5.07636 14.4243 4.52265 16.772 6.27732 18.5266C8.032 20.2813 10.3797 19.7276 11.5806 18.5266L19.0052 11.102C19.2981 10.8091 19.773 10.8091 20.0659 11.102C20.3588 11.3949 20.3588 11.8698 20.0659 12.1627L12.6413 19.5873C11.0138 21.2148 7.70463 22.0753 5.21666 19.5873C2.7287 17.0993 3.5892 13.7901 5.21666 12.1627L13.3484 4.03095C13.9917 3.38763 14.8662 2.94081 15.8234 2.8845C16.799 2.82711 17.8007 3.17994 18.6517 4.03095C19.5027 4.88197 19.8555 5.88361 19.7981 6.85923C19.7418 7.81642 19.295 8.69093 18.6517 9.33426L11.2271 16.7589C10.9107 17.0753 10.3894 17.3119 9.85149 17.3717C9.28333 17.4348 8.59579 17.3096 8.04509 16.7589C7.49439 16.2082 7.36913 15.5206 7.43226 14.9525C7.49203 14.4146 7.72871 13.8933 8.04509 13.5769L14.7626 6.85938C15.0555 6.56649 15.5304 6.56649 15.8233 6.85938C16.1162 7.15228 16.1162 7.62715 15.8233 7.92004L9.10575 14.6376C9.06858 14.6747 8.9517 14.8606 8.92309 15.1181C8.89783 15.3455 8.94934 15.5418 9.10575 15.6982C9.26216 15.8546 9.4585 15.9061 9.68584 15.8809C9.94341 15.8523 10.1292 15.7354 10.1664 15.6982L17.591 8.27359C18.0084 7.85626 18.2686 7.31656 18.3007 6.77115C18.3317 6.24417 18.1542 5.65481 17.591 5.09161C17.0278 4.52842 16.4385 4.35091 15.9115 4.38191Z" fill="#23262A"/>
</svg>
