<svg width="24" height="24" viewBox="0 0 24 24" fill="none" xmlns="http://www.w3.org/2000/svg">
<path fill-rule="evenodd" clip-rule="evenodd" d="M15.9114 4.38188C15.366 4.41397 14.8263 4.67425 14.409 5.09158L6.27726 13.2233C5.0763 14.4243 4.52259 16.7719 6.27726 18.5266C8.03194 20.2813 10.3796 19.7276 11.5806 18.5266L19.0052 11.102C19.2981 10.8091 19.773 10.8091 20.0658 11.102C20.3587 11.3949 20.3587 11.8698 20.0658 12.1627L12.6412 19.5873C11.0138 21.2147 7.70457 22.0752 5.2166 19.5873C2.72864 17.0993 3.58914 13.7901 5.2166 12.1627L13.3483 4.03092C13.9917 3.3876 14.8662 2.94078 15.8234 2.88447C16.799 2.82708 17.8006 3.17991 18.6516 4.03092C19.5026 4.88194 19.8555 5.88357 19.7981 6.8592C19.7418 7.81639 19.295 8.6909 18.6516 9.33422L11.227 16.7588C10.9106 17.0752 10.3893 17.3119 9.85143 17.3717C9.28326 17.4348 8.59573 17.3095 8.04503 16.7588C7.49433 16.2081 7.36907 15.5206 7.4322 14.9524C7.49197 14.4145 7.72865 13.8932 8.04503 13.5769L14.7625 6.85935C15.0554 6.56646 15.5303 6.56646 15.8232 6.85935C16.1161 7.15224 16.1161 7.62712 15.8232 7.92001L9.10569 14.6375C9.06852 14.6747 8.95164 14.8605 8.92302 15.1181C8.89776 15.3454 8.94928 15.5418 9.10569 15.6982C9.26209 15.8546 9.45844 15.9061 9.68578 15.8809C9.94335 15.8522 10.1292 15.7354 10.1663 15.6982L17.591 8.27356C18.0083 7.85623 18.2686 7.31653 18.3007 6.77112C18.3317 6.24414 18.1542 5.65478 17.591 5.09158C17.0278 4.52839 16.4384 4.35088 15.9114 4.38188Z" fill="#23262A"/>
</svg>
