<svg width="24" height="24" viewBox="0 0 24 24" fill="none" xmlns="http://www.w3.org/2000/svg">
<path fill-rule="evenodd" clip-rule="evenodd" d="M10.0487 2.57835C9.94146 2.17825 9.5302 1.94081 9.13011 2.04802C8.73001 2.15522 8.49257 2.56647 8.59977 2.96657L8.79729 3.70373C6.09066 4.6343 3.7409 6.64276 2.47388 9.53461C2.31481 9.89769 2.28404 10.3041 2.38663 10.687L2.81387 12.2815C2.92108 12.6816 3.33233 12.919 3.73243 12.8118L6.14725 12.1647C6.33938 12.1133 6.5032 11.9876 6.60265 11.8153L6.93476 11.2401L7.50998 11.5722C7.68225 11.6716 7.88696 11.6986 8.0791 11.6471L10.7353 10.9354L12.1681 16.2827C8.20608 16.6003 6.3973 19.1485 5.58912 20.287C5.51795 20.3873 5.45455 20.4766 5.39811 20.5525C5.15098 20.8849 5.22012 21.3548 5.55253 21.6019C5.88494 21.849 6.35476 21.7799 6.60189 21.4475C6.66503 21.3625 6.73289 21.2676 6.80638 21.1647C7.65263 19.9803 9.24618 17.75 13 17.75C17.1821 17.75 19.4732 20.0619 20.376 21.416C20.6057 21.7607 21.0714 21.8538 21.416 21.624C21.7607 21.3943 21.8538 20.9286 21.624 20.584C20.5825 19.0217 18.0888 16.5203 13.7177 16.2703L12.1842 10.5472L14.8406 9.83537C15.0327 9.78389 15.1965 9.65819 15.296 9.48593L15.6281 8.9107L16.2033 9.24281C16.3756 9.34227 16.5803 9.36922 16.7724 9.31773L19.1872 8.67069C19.3794 8.6192 19.5432 8.49351 19.6427 8.32124C19.7421 8.14898 19.7691 7.94426 19.7176 7.75213L19.2903 6.15764C19.1877 5.77475 18.9579 5.43819 18.6386 5.20329C16.0952 3.33221 13.0557 2.76778 10.2462 3.31545L10.0487 2.57835ZM17.7497 6.41156C12.9926 2.912 6.21777 4.72732 3.8478 10.1366C3.82541 10.1877 3.82108 10.2449 3.83552 10.2987L4.06865 11.1688L5.45894 10.7963L6.01072 9.84056C6.21783 9.48184 6.67652 9.35893 7.03524 9.56604L7.99095 10.1178L14.1523 8.46689L14.7041 7.51118C14.9112 7.15246 15.3699 7.02956 15.7286 7.23666L16.6843 7.78844L18.0746 7.41591L17.8414 6.54586C17.827 6.49198 17.7947 6.44462 17.7497 6.41156Z" fill="#23262A"/>
</svg>
