<svg width="24" height="24" viewBox="0 0 24 24" fill="none" xmlns="http://www.w3.org/2000/svg">
<path d="M10.0488 2.57829C9.94164 2.17819 9.53039 1.94075 9.13029 2.04796C8.73019 2.15516 8.49275 2.56642 8.59996 2.96652L8.79747 3.70365C6.09076 4.63419 3.74093 6.64268 2.47388 9.5346C2.31481 9.89767 2.28404 10.3041 2.38663 10.687L2.81387 12.2814C2.92108 12.6815 3.33233 12.919 3.73243 12.8118L6.14725 12.1647C6.33938 12.1132 6.5032 11.9875 6.60265 11.8153L6.93476 11.2401L7.50998 11.5722C7.68225 11.6716 7.88696 11.6986 8.0791 11.6471L10.7355 10.9353L12.1683 16.2827C8.20614 16.6003 6.39732 19.1485 5.58912 20.287C5.51795 20.3873 5.45455 20.4766 5.39811 20.5525C5.21137 20.8037 5.20025 21.1444 5.37021 21.4073C5.54017 21.6701 5.85545 21.7997 6.16111 21.7325L6.17269 21.73L6.20966 21.722C6.24253 21.7149 6.29161 21.7044 6.35539 21.691C6.48296 21.6642 6.66927 21.6257 6.90238 21.5794C7.36884 21.4868 8.0214 21.3633 8.76478 21.2399C10.2631 20.9911 12.0875 20.75 13.5 20.75C14.9125 20.75 16.7369 20.9911 18.2352 21.2399C18.9786 21.3633 19.6312 21.4868 20.0976 21.5794C20.3307 21.6257 20.517 21.6642 20.6446 21.691C20.7084 21.7044 20.7575 21.7149 20.7903 21.722L20.8273 21.73L20.8389 21.7325C21.1377 21.7982 21.4465 21.6758 21.6191 21.4233C21.7918 21.1707 21.7938 20.8386 21.624 20.584C20.5826 19.0217 18.0889 16.5204 13.7179 16.2703L12.1844 10.5471L14.8406 9.83536C15.0327 9.78388 15.1965 9.65818 15.296 9.48591L15.6281 8.91069L16.2033 9.24279C16.3756 9.34225 16.5803 9.3692 16.7724 9.31772L19.1872 8.67067C19.3794 8.61919 19.5432 8.49349 19.6427 8.32123C19.7421 8.14896 19.7691 7.94425 19.7176 7.75211L19.2903 6.15762C19.1877 5.77474 18.9579 5.43817 18.6386 5.20328C16.0952 3.33224 13.0558 2.76779 10.2464 3.31539L10.0488 2.57829Z" fill="#23262A"/>
</svg>
