<svg width="24" height="24" viewBox="0 0 24 24" fill="none" xmlns="http://www.w3.org/2000/svg">
<path fill-rule="evenodd" clip-rule="evenodd" d="M4 3.25C3.58579 3.25 3.25 3.58579 3.25 4V20C3.25 20.4142 3.58579 20.75 4 20.75H20C20.4142 20.75 20.75 20.4142 20.75 20V4C20.75 3.58579 20.4142 3.25 20 3.25H4ZM9 6.75C8.58579 6.75 8.25 7.08579 8.25 7.5V16.5C8.25 16.9142 8.58579 17.25 9 17.25C9.41421 17.25 9.75 16.9142 9.75 16.5V13.25H13C14.7949 13.25 16.25 11.7949 16.25 10C16.25 8.20507 14.7949 6.75 13 6.75H9ZM13 11.75H9.75V8.25H13C13.9665 8.25 14.75 9.0335 14.75 10C14.75 10.9665 13.9665 11.75 13 11.75Z" fill="#23262A"/>
</svg>
