<svg width="24" height="24" viewBox="0 0 24 24" fill="none" xmlns="http://www.w3.org/2000/svg">
<path fill-rule="evenodd" clip-rule="evenodd" d="M4.14893 12.5C4.14893 12.9142 4.48471 13.25 4.89893 13.25C5.31314 13.25 5.64893 12.9142 5.64893 12.5V11.7991L6.25586 12.1495C6.61458 12.3566 7.07327 12.2337 7.28038 11.875C7.48749 11.5163 7.36458 11.0576 7.00586 10.8505L6.39868 10.4999L7.00561 10.1495C7.36433 9.94241 7.48723 9.48372 7.28012 9.125C7.07302 8.76628 6.61433 8.64337 6.25561 8.85048L5.64893 9.20075V8.5C5.64893 8.08579 5.31314 7.75 4.89893 7.75C4.48471 7.75 4.14893 8.08579 4.14893 8.5V9.20103L3.54176 8.85048C3.18304 8.64337 2.72435 8.76628 2.51724 9.125C2.31013 9.48372 2.43304 9.94241 2.79176 10.1495L3.39868 10.4999L2.7915 10.8505C2.43278 11.0576 2.30988 11.5163 2.51698 11.875C2.72409 12.2337 3.18278 12.3566 3.5415 12.1495L4.14893 11.7988L4.14893 12.5ZM9.89258 10.8505C9.53386 11.0576 9.41095 11.5163 9.61806 11.875C9.82517 12.2337 10.2839 12.3566 10.6426 12.1495L11.25 11.7988V12.5C11.25 12.9142 11.5858 13.25 12 13.25C12.4142 13.25 12.75 12.9142 12.75 12.5V11.7988L13.3574 12.1495C13.7161 12.3566 14.1748 12.2337 14.3819 11.875C14.589 11.5163 14.4661 11.0576 14.1074 10.8505L13.5 10.4998L14.1067 10.1495C14.4654 9.94241 14.5883 9.48372 14.3812 9.125C14.1741 8.76628 13.7154 8.64337 13.3567 8.85048L12.75 9.20075V8.5C12.75 8.08579 12.4142 7.75 12 7.75C11.5858 7.75 11.25 8.08579 11.25 8.5V9.20075L10.6433 8.85048C10.2846 8.64337 9.82591 8.76628 9.6188 9.125C9.41169 9.48372 9.5346 9.94241 9.89332 10.1495L10.5 10.4998L9.89258 10.8505ZM16.7191 11.875C16.512 11.5163 16.6349 11.0576 16.9937 10.8505L17.6011 10.4998L16.9944 10.1495C16.6357 9.94241 16.5128 9.48372 16.7199 9.125C16.927 8.76628 17.3857 8.64337 17.7444 8.85048L18.3511 9.20075V8.5C18.3511 8.08579 18.6869 7.75 19.1011 7.75C19.5153 7.75 19.8511 8.08579 19.8511 8.5V9.20075L20.4578 8.85048C20.8165 8.64337 21.2752 8.76628 21.4823 9.125C21.6894 9.48372 21.5665 9.94241 21.2078 10.1495L20.6011 10.4998L21.2085 10.8505C21.5672 11.0576 21.6901 11.5163 21.483 11.875C21.2759 12.2337 20.8172 12.3566 20.4585 12.1495L19.8511 11.7988V12.5C19.8511 12.9142 19.5153 13.25 19.1011 13.25C18.6869 13.25 18.3511 12.9142 18.3511 12.5V11.7988L17.7437 12.1495C17.3849 12.3566 16.9262 12.2337 16.7191 11.875ZM3 15.25C2.58579 15.25 2.25 15.5858 2.25 16C2.25 16.4142 2.58579 16.75 3 16.75H21C21.4142 16.75 21.75 16.4142 21.75 16C21.75 15.5858 21.4142 15.25 21 15.25H3Z" fill="#262626"/>
</svg>
