<svg width="24" height="24" viewBox="0 0 24 24" fill="none" xmlns="http://www.w3.org/2000/svg">
<path fill-rule="evenodd" clip-rule="evenodd" d="M4.25 3C4.25 2.58579 4.58579 2.25 5 2.25H17C18.5188 2.25 19.75 3.48122 19.75 5V19C19.75 20.5188 18.5188 21.75 17 21.75H5C4.58579 21.75 4.25 21.4142 4.25 21V3ZM9.5 6.75C9.30109 6.75 9.11032 6.82902 8.96967 6.96967C8.82902 7.11032 8.75 7.30191 8.75 7.50082V11C8.75 11.5917 8.99745 12.0924 9.29616 12.4807C9.59376 12.8676 9.97233 13.1836 10.3199 13.4269C10.6713 13.6729 11.0179 13.8631 11.274 13.9911C11.4029 14.0556 11.5113 14.1055 11.5889 14.1399C11.8749 14.2665 12.1311 14.2639 12.4111 14.1399C12.4887 14.1055 12.5971 14.0556 12.726 13.9911C12.9821 13.8631 13.3287 13.6729 13.6801 13.4269C14.0277 13.1836 14.4062 12.8676 14.7038 12.4807C15.0025 12.0924 15.25 11.5917 15.25 11V7.5C15.25 7.08579 14.9142 6.75 14.5 6.75H9.5ZM10.25 11C10.25 11.1583 10.315 11.3451 10.4851 11.5662C10.6562 11.7886 10.9027 12.0039 11.1801 12.1981C11.4537 12.3896 11.7321 12.5431 11.9448 12.6495L12 12.6768C12.0178 12.6681 12.0362 12.659 12.0552 12.6495C12.2679 12.5431 12.5463 12.3896 12.8199 12.1981C13.0973 12.0039 13.3438 11.7886 13.5149 11.5662C13.685 11.3451 13.75 11.1583 13.75 11V8.25H10.25V11ZM9.5 16.25C9.08579 16.25 8.75 16.5858 8.75 17C8.75 17.4142 9.08579 17.75 9.5 17.75H14.5C14.9142 17.75 15.25 17.4142 15.25 17C15.25 16.5858 14.9142 16.25 14.5 16.25H9.5Z" fill="#23262A"/>
</svg>
