<svg width="24" height="24" viewBox="0 0 24 24" fill="none" xmlns="http://www.w3.org/2000/svg">
<path fill-rule="evenodd" clip-rule="evenodd" d="M13.2162 11.287C13.2185 11.2485 13.2297 11.211 13.2489 11.1775L16.0128 6.35887C16.0818 6.23862 16.2354 6.19745 16.3553 6.2671L19.143 7.88713C19.2619 7.95623 19.3027 8.10838 19.2342 8.22767L16.469 13.0485C16.4497 13.0822 16.4229 13.1109 16.3906 13.1324L13.3884 15.1275C13.2166 15.2417 12.9882 15.1104 13.0005 14.9044L13.2162 11.287ZM17.05 5.05026C16.9311 4.98117 16.8903 4.82901 16.9588 4.70972L17.4026 3.93594C17.916 3.04093 19.053 2.73428 19.9421 3.25101C20.8313 3.76775 21.136 4.91219 20.6226 5.8072L20.1802 6.57853C20.1112 6.69878 19.9576 6.73994 19.8377 6.67029L17.05 5.05026ZM11.7563 11.4041C11.7702 11.1718 11.8375 10.946 11.9531 10.7446L13.1692 8.62439C13.2648 8.45772 13.1445 8.25 12.9523 8.25H9.5C9.36193 8.25 9.25 8.36193 9.25 8.5V14.5V20.5C9.25 20.6381 9.36193 20.75 9.5 20.75H18C19.5188 20.75 20.75 19.5188 20.75 18V11C20.75 10.5373 20.6357 10.1013 20.4339 9.7187C20.3492 9.55815 20.1275 9.56847 20.0372 9.72593L17.578 14.0134C17.4624 14.2148 17.3019 14.3864 17.1089 14.5146L13.8434 16.6849C13.3706 16.999 12.761 17.0169 12.2692 16.7311C11.7773 16.4453 11.4879 15.9049 11.5219 15.3358L11.7563 11.4041ZM7.5 8.25C7.63807 8.25 7.75 8.36193 7.75 8.5V13.5C7.75 13.6381 7.63807 13.75 7.5 13.75H3.5C3.36193 13.75 3.25 13.6381 3.25 13.5V11C3.25 9.48122 4.48122 8.25 6 8.25H7.5ZM3.25 15.5V18C3.25 19.5188 4.48122 20.75 6 20.75H7.5C7.63807 20.75 7.75 20.6381 7.75 20.5V15.5C7.75 15.3619 7.63807 15.25 7.5 15.25H3.5C3.36193 15.25 3.25 15.3619 3.25 15.5Z" fill="#23262A"/>
</svg>
