<svg width="24" height="24" viewBox="0 0 24 24" fill="none" xmlns="http://www.w3.org/2000/svg">
<path fill-rule="evenodd" clip-rule="evenodd" d="M10.2855 11.4827C10.2925 11.3664 10.3265 11.2534 10.3847 11.1526L14.8847 3.35837C15.6441 2.04306 17.3259 1.59241 18.6412 2.3518C19.9565 3.11119 20.4072 4.79307 19.6478 6.10837L15.1478 13.9026C15.0896 14.0034 15.0087 14.0893 14.9115 14.1535L11.1795 16.6176C10.9424 16.7741 10.6373 16.7833 10.3912 16.6412C10.1452 16.4992 10.0006 16.2303 10.0176 15.9468L10.2855 11.4827ZM11.7722 11.7493L11.6048 14.5393L13.9373 12.9993L16.9648 7.75553L14.7997 6.50553L11.7722 11.7493ZM18.3488 5.35837L17.7148 6.45649L15.5497 5.20649L16.1837 4.10837C16.5289 3.5105 17.2934 3.30566 17.8912 3.65084C18.4891 3.99602 18.694 4.7605 18.3488 5.35837ZM6.49999 9.74995C5.08551 9.74995 3.74999 10.7963 3.74999 12.3911C3.74999 12.8544 3.86174 13.3055 3.94762 13.6522L3.94768 13.6524C3.95837 13.6956 3.96867 13.7371 3.9783 13.7769C4.07537 14.1778 4.12262 14.4518 4.08842 14.7028C4.01361 15.252 3.80098 15.6918 3.52261 15.9215C3.20314 16.1851 3.15789 16.6579 3.42154 16.9773C3.68519 17.2968 4.1579 17.342 4.47737 17.0784C5.15243 16.5213 5.47116 15.6652 5.57469 14.9053C5.65105 14.3448 5.53252 13.8218 5.43617 13.4239L5.40637 13.3015C5.31515 12.9276 5.24999 12.6605 5.24999 12.3911C5.24999 11.7551 5.77732 11.2499 6.49999 11.2499C6.88297 11.2499 7.12383 11.3662 7.28852 11.5167C7.46495 11.678 7.60733 11.929 7.68956 12.2694C7.8593 12.9719 7.72304 13.8541 7.40058 14.4345L5.86565 17.1974C5.46188 17.9242 5.24999 18.7419 5.24999 19.5733C5.24999 21.1387 6.55468 22.2499 7.99999 22.2499C9.31849 22.2499 10.2075 21.5704 10.6341 20.6194C11.0349 19.726 11.0079 18.6519 10.7115 17.7628C10.5805 17.3698 10.1558 17.1574 9.76282 17.2884C9.36986 17.4194 9.15749 17.8442 9.28848 18.2371C9.49209 18.848 9.48154 19.5239 9.26549 20.0055C9.07528 20.4295 8.71432 20.7499 7.99999 20.7499C7.29294 20.7499 6.74999 20.2229 6.74999 19.5733C6.74999 18.9968 6.89691 18.4298 7.17688 17.9259L8.71181 15.163C9.21324 14.2604 9.4076 12.9932 9.14761 11.9171C9.01499 11.3682 8.75242 10.8225 8.30045 10.4095C7.83673 9.98567 7.22573 9.74995 6.49999 9.74995Z" fill="#23262A"/>
</svg>
