<svg width="24" height="24" viewBox="0 0 24 24" fill="none" xmlns="http://www.w3.org/2000/svg">
<path fill-rule="evenodd" clip-rule="evenodd" d="M14.9697 4.46945C16.2406 3.19856 18.261 3.19096 19.5323 4.47138C20.7922 5.74037 20.7997 7.83866 19.5304 9.10805L18.9526 9.68581C18.7573 9.88107 18.4408 9.88107 18.2455 9.68581L14.353 5.79328C14.1577 5.59802 14.1577 5.28144 14.353 5.08618L14.9697 4.46945ZM17.1848 10.7465C17.3801 10.9417 17.3801 11.2583 17.1848 11.4536L11.0304 17.608C10.9265 17.7119 10.7945 17.7829 10.6506 17.8124L6.15057 18.7345C5.90153 18.7856 5.64358 18.707 5.46531 18.5257C5.28705 18.3445 5.21272 18.0853 5.26787 17.8371L6.26786 13.3371C6.2988 13.1979 6.36881 13.0704 6.46967 12.9695L12.5852 6.85395C12.7805 6.65869 13.097 6.65869 13.2923 6.85395L17.1848 10.7465ZM3.5 20.25C3.08579 20.25 2.75 20.5858 2.75 21C2.75 21.4142 3.08579 21.75 3.5 21.75H20.5C20.9142 21.75 21.25 21.4142 21.25 21C21.25 20.5858 20.9142 20.25 20.5 20.25H3.5Z" fill="#23262A"/>
</svg>
