<svg width="24" height="24" viewBox="0 0 24 24" fill="none" xmlns="http://www.w3.org/2000/svg">
<path fill-rule="evenodd" clip-rule="evenodd" d="M19.6381 4.41742C18.3693 3.13949 16.3036 3.13578 15.0302 4.40915L5.65182 13.7876C5.56169 13.8777 5.49602 13.9893 5.461 14.1118L4.04679 19.0616C3.97205 19.3232 4.04482 19.6047 4.23693 19.7973C4.42905 19.9899 4.7104 20.0634 4.97215 19.9893L9.91261 18.5912C10.0359 18.5563 10.1481 18.4904 10.2387 18.3999L19.6298 9.00875C20.8967 7.74183 20.9004 5.68889 19.6381 4.41742ZM16.0909 5.46981C16.777 4.78372 17.89 4.78571 18.5736 5.47427C19.2538 6.15934 19.2518 7.26547 18.5692 7.94809L18.3397 8.17752L15.8615 5.69924L16.0909 5.46981ZM14.8008 6.7599L6.8499 14.7108L5.85885 18.1795L9.31619 17.2011L17.2791 9.23818L14.8008 6.7599Z" fill="#23262A"/>
</svg>
