<svg width="24" height="24" viewBox="0 0 24 24" fill="none" xmlns="http://www.w3.org/2000/svg">
<path fill-rule="evenodd" clip-rule="evenodd" d="M12.5031 11.4512C12.5101 11.335 12.5437 11.2222 12.6015 11.1215L16.5419 4.25184C17.2296 3.05279 18.756 2.6438 19.9512 3.33833C21.1463 4.03287 21.5576 5.56793 20.8699 6.76699L16.9295 13.6366C16.8717 13.7373 16.7914 13.8231 16.695 13.8872L13.4294 16.0574C13.1931 16.2145 12.8883 16.2235 12.6423 16.0806C12.3964 15.9376 12.2517 15.6675 12.2687 15.3829L12.5031 11.4512ZM13.9862 11.722L13.8521 13.9714L15.7204 12.7298L18.314 8.20808L16.5799 7.20029L13.9862 11.722ZM19.5729 6.01331L19.0604 6.90693L17.3262 5.89914L17.8388 5.00552C18.1143 4.52507 18.726 4.36119 19.2048 4.63949C19.6837 4.91778 19.8485 5.53286 19.5729 6.01331ZM6 8.25C4.48122 8.25 3.25 9.48122 3.25 11V18C3.25 19.5188 4.48122 20.75 6 20.75H18C19.5188 20.75 20.75 19.5188 20.75 18V12.5C20.75 12.0858 20.4142 11.75 20 11.75C19.5858 11.75 19.25 12.0858 19.25 12.5V18C19.25 18.6904 18.6904 19.25 18 19.25H9.75V9.75H11.5C11.9142 9.75 12.25 9.41421 12.25 9C12.25 8.58579 11.9142 8.25 11.5 8.25H6ZM6 19.25C5.30964 19.25 4.75 18.6904 4.75 18V15.25H8.25V19.25H6ZM6 9.75C5.30964 9.75 4.75 10.3096 4.75 11V13.75H8.25V9.75H6Z" fill="#23262A"/>
</svg>
