<svg width="24" height="24" viewBox="0 0 24 24" fill="none" xmlns="http://www.w3.org/2000/svg">
<path fill-rule="evenodd" clip-rule="evenodd" d="M14.9697 4.46945C16.2406 3.19856 18.261 3.19096 19.5322 4.47138C20.7921 5.74037 20.7997 7.83866 19.5303 9.10805L11.0303 17.608C10.9265 17.7119 10.7944 17.7829 10.6506 17.8124L6.15054 18.7345C5.90149 18.7856 5.64355 18.707 5.46528 18.5257C5.28701 18.3445 5.21269 18.0853 5.26784 17.8371L6.26783 13.3371C6.29877 13.1979 6.36878 13.0704 6.46964 12.9695L14.9697 4.46945ZM18.4678 5.52823C17.7866 4.84216 16.7189 4.84152 16.0303 5.53011L15.0605 6.49989L17.5389 8.9782L18.4697 8.04739C19.1498 7.36723 19.1504 6.21577 18.4678 5.52823ZM7.68473 13.8757L13.9999 7.56055L16.4782 10.0389L10.1289 16.3882L6.98318 17.0328L7.68473 13.8757ZM3.5 20.25C3.08579 20.25 2.75 20.5858 2.75 21C2.75 21.4142 3.08579 21.75 3.5 21.75H20.5C20.9142 21.75 21.25 21.4142 21.25 21C21.25 20.5858 20.9142 20.25 20.5 20.25H3.5Z" fill="#23262A"/>
</svg>
