<svg width="24" height="24" viewBox="0 0 24 24" fill="none" xmlns="http://www.w3.org/2000/svg">
<path fill-rule="evenodd" clip-rule="evenodd" d="M10.2856 11.4827C10.2925 11.3664 10.3265 11.2534 10.3847 11.1526L14.8847 3.35837C15.6441 2.04306 17.326 1.59241 18.6413 2.3518C19.9566 3.11119 20.4072 4.79307 19.6478 6.10837L15.1478 13.9026C15.0896 14.0034 15.0087 14.0893 14.9116 14.1535L11.1795 16.6176C10.9424 16.7741 10.6373 16.7833 10.3913 16.6412C10.1453 16.4992 10.0006 16.2303 10.0176 15.9468L10.2856 11.4827ZM11.7723 11.7493L11.6048 14.5393L13.9373 12.9993L16.9648 7.75553L14.7997 6.50553L11.7723 11.7493ZM18.3488 5.35837L17.7148 6.45649L15.5497 5.20649L16.1837 4.10837C16.5289 3.5105 17.2934 3.30566 17.8913 3.65084C18.4891 3.99602 18.694 4.7605 18.3488 5.35837ZM6.50002 9.74995C5.08554 9.74995 3.75002 10.7963 3.75002 12.3911C3.75002 12.8544 3.86177 13.3055 3.94765 13.6522L3.94771 13.6524C3.9584 13.6956 3.9687 13.7371 3.97833 13.7769C4.0754 14.1778 4.12265 14.4518 4.08845 14.7028C4.01364 15.252 3.80101 15.6918 3.52264 15.9215C3.20317 16.1851 3.15792 16.6579 3.42157 16.9773C3.68522 17.2968 4.15794 17.342 4.4774 17.0784C5.15246 16.5213 5.47119 15.6652 5.57472 14.9053C5.65108 14.3448 5.53255 13.8218 5.4362 13.4239L5.4064 13.3015C5.31518 12.9276 5.25002 12.6605 5.25002 12.3911C5.25002 11.7551 5.77735 11.2499 6.50002 11.2499C6.883 11.2499 7.12386 11.3662 7.28855 11.5167C7.46498 11.678 7.60736 11.929 7.68959 12.2694C7.85933 12.9719 7.72307 13.8541 7.40061 14.4345L5.86568 17.1974C5.46191 17.9242 5.25002 18.7419 5.25002 19.5733C5.25002 21.1387 6.55471 22.2499 8.00002 22.2499C9.31852 22.2499 10.2076 21.5704 10.6341 20.6194C11.0349 19.726 11.0079 18.6519 10.7115 17.7628C10.5805 17.3698 10.1558 17.1574 9.76285 17.2884C9.36989 17.4194 9.15752 17.8442 9.28851 18.2371C9.49212 18.848 9.48157 19.5239 9.26552 20.0055C9.07531 20.4295 8.71435 20.7499 8.00002 20.7499C7.29297 20.7499 6.75002 20.2229 6.75002 19.5733C6.75002 18.9968 6.89694 18.4298 7.17691 17.9259L8.71184 15.163C9.21327 14.2604 9.40763 12.9932 9.14765 11.9171C9.01502 11.3682 8.75246 10.8225 8.30048 10.4095C7.83676 9.98567 7.22576 9.74995 6.50002 9.74995Z" fill="#23262A"/>
</svg>
