<svg width="24" height="24" viewBox="0 0 24 24" fill="none" xmlns="http://www.w3.org/2000/svg">
<path fill-rule="evenodd" clip-rule="evenodd" d="M19.6381 4.41744C18.3693 3.1395 16.3036 3.13579 15.0302 4.40916L5.65183 13.7876C5.56171 13.8777 5.49604 13.9893 5.46102 14.1119L4.04681 19.0616C3.97207 19.3232 4.04484 19.6047 4.23695 19.7973C4.42907 19.9899 4.71042 20.0634 4.97217 19.9893L9.91263 18.5912C10.0359 18.5563 10.1482 18.4905 10.2387 18.3999L19.6298 9.00877C20.8968 7.74184 20.9004 5.6889 19.6381 4.41744ZM16.0909 5.46982C16.777 4.78373 17.89 4.78573 18.5736 5.47428C19.2538 6.15935 19.2518 7.26549 18.5692 7.94811L18.3398 8.17752L15.8615 5.69924L16.0909 5.46982ZM14.8008 6.7599L6.84992 14.7108L5.85887 18.1795L9.31621 17.2011L17.2791 9.23818L14.8008 6.7599Z" fill="#23262A"/>
</svg>
