<svg width="24" height="24" viewBox="0 0 24 24" fill="none" xmlns="http://www.w3.org/2000/svg">
<path fill-rule="evenodd" clip-rule="evenodd" d="M19.6382 4.41742C18.3694 3.13949 16.3037 3.13578 15.0304 4.40915C14.9012 4.53832 14.9022 4.74808 15.0327 4.87595L15.3311 5.16844L19.172 9.00877C19.2985 9.13523 19.5035 9.13522 19.63 9.00875C20.8969 7.74183 20.9006 5.68889 19.6382 4.41742ZM17.9867 10.652C18.182 10.4567 18.182 10.1401 17.9867 9.94485L14.2731 6.23179L14.0886 6.05096C13.8928 5.85902 13.5789 5.8606 13.385 6.05448L5.65197 13.7876C5.56184 13.8777 5.49617 13.9893 5.46116 14.1118L4.04694 19.0616C3.97221 19.3232 4.04497 19.6047 4.23709 19.7973C4.4292 19.9899 4.71055 20.0634 4.97231 19.9893L9.91276 18.5912C10.036 18.5563 10.1483 18.4904 10.2389 18.3999L17.9867 10.652Z" fill="#23262A"/>
</svg>
