<svg width="24" height="24" viewBox="0 0 24 24" fill="none" xmlns="http://www.w3.org/2000/svg">
<path fill-rule="evenodd" clip-rule="evenodd" d="M10.2855 11.4827C10.2925 11.3664 10.3264 11.2534 10.3846 11.1526L14.8846 3.35837C15.644 2.04307 17.3259 1.59241 18.6412 2.3518C19.9565 3.11119 20.4072 4.79307 19.6478 6.10837L15.1478 13.9026C15.0896 14.0034 15.0087 14.0893 14.9115 14.1535L11.1794 16.6176C10.9424 16.7741 10.6372 16.7833 10.3912 16.6412C10.1452 16.4992 10.0005 16.2303 10.0175 15.9468L10.2855 11.4827ZM11.7722 11.7493L11.6047 14.5393L13.9373 12.9993L16.9647 7.75553L14.7997 6.50553L11.7722 11.7493ZM18.3487 5.35837L17.7147 6.45649L15.5497 5.20649L16.1837 4.10837C16.5288 3.5105 17.2933 3.30566 17.8912 3.65084C18.4891 3.99602 18.6939 4.7605 18.3487 5.35837ZM6.49999 9.75001C5.08551 9.75001 3.74999 10.7964 3.74999 12.3912C3.74999 12.8545 3.86173 13.3056 3.94761 13.6522C3.95833 13.6955 3.96865 13.7371 3.97829 13.777C4.07537 14.1779 4.12262 14.4518 4.08842 14.7029C4.0136 15.252 3.80098 15.6918 3.5226 15.9216C3.20313 16.1852 3.15789 16.6579 3.42154 16.9774C3.68519 17.2969 4.1579 17.3421 4.47737 17.0785C5.15242 16.5213 5.47116 15.6653 5.57469 14.9053C5.65105 14.3449 5.53252 13.8219 5.43617 13.424L5.40637 13.3015C5.31514 12.9276 5.24999 12.6606 5.24999 12.3912C5.24999 11.7551 5.77732 11.25 6.49999 11.25C6.88297 11.25 7.12383 11.3663 7.28852 11.5168C7.46495 11.678 7.60732 11.929 7.68956 12.2694C7.8593 12.972 7.72304 13.8542 7.40057 14.4346L5.86564 17.1975C5.46187 17.9243 5.24999 18.742 5.24999 19.5734C5.24999 21.1388 6.55468 22.25 7.99999 22.25C9.31849 22.25 10.2075 21.5704 10.6341 20.6195C11.0348 19.7261 11.0079 18.652 10.7115 17.7628C10.5805 17.3699 10.1558 17.1575 9.76282 17.2885C9.36986 17.4195 9.15749 17.8442 9.28848 18.2372C9.49209 18.848 9.48154 19.5239 9.26549 20.0055C9.07528 20.4296 8.71431 20.75 7.99999 20.75C7.29294 20.75 6.74999 20.2229 6.74999 19.5734C6.74999 18.9969 6.89691 18.4299 7.17688 17.9259L8.71181 15.1631C9.21324 14.2605 9.40759 12.9933 9.14761 11.9172C9.01499 11.3682 8.75242 10.8226 8.30045 10.4095C7.83673 9.98573 7.22573 9.75001 6.49999 9.75001Z" fill="#23262A"/>
</svg>
