<svg width="24" height="24" viewBox="0 0 24 24" fill="none" xmlns="http://www.w3.org/2000/svg">
<path fill-rule="evenodd" clip-rule="evenodd" d="M11.0306 11.5865C11.033 11.5478 11.0443 11.5101 11.0637 11.4765L14.0252 6.34704C14.0942 6.22747 14.2471 6.1865 14.3667 6.25554L17.3978 8.00554C17.5173 8.07457 17.5583 8.22747 17.4893 8.34704L14.5278 13.4765C14.5084 13.5101 14.4814 13.5387 14.449 13.5601L11.1835 15.7162C11.0116 15.8297 10.7838 15.6982 10.7962 15.4926L11.0306 11.5865ZM15.1167 4.9565C14.9971 4.88746 14.9561 4.73457 15.0252 4.61499L15.5342 3.73337C16.0865 2.77678 17.3096 2.44903 18.2662 3.00132C19.2228 3.5536 19.5506 4.77678 18.9983 5.73337L18.4893 6.61499C18.4202 6.73456 18.2673 6.77553 18.1478 6.7065L15.1167 4.9565ZM6.49999 9.75C5.08551 9.75 3.74999 10.7964 3.74999 12.3912C3.74999 12.8545 3.86174 13.3056 3.94762 13.6522L3.94768 13.6525C3.95837 13.6956 3.96867 13.7372 3.9783 13.777C4.07537 14.1779 4.12262 14.4518 4.08842 14.7029C4.01361 15.252 3.80098 15.6918 3.52261 15.9215C3.20314 16.1852 3.15789 16.6579 3.42154 16.9774C3.68519 17.2969 4.1579 17.3421 4.47737 17.0785C5.15243 16.5213 5.47116 15.6653 5.57469 14.9053C5.65105 14.3449 5.53252 13.8219 5.43617 13.424L5.40637 13.3015C5.31515 12.9276 5.24999 12.6606 5.24999 12.3912C5.24999 11.7551 5.77732 11.25 6.49999 11.25C6.88297 11.25 7.12383 11.3663 7.28852 11.5168C7.46495 11.678 7.60733 11.929 7.68956 12.2694C7.8593 12.972 7.72304 13.8542 7.40058 14.4346L5.86565 17.1975C5.46188 17.9243 5.24999 18.742 5.24999 19.5734C5.24999 21.1387 6.55468 22.25 7.99999 22.25C9.31849 22.25 10.2075 21.5704 10.6341 20.6195C11.0349 19.7261 11.0079 18.652 10.7115 17.7628C10.5805 17.3699 10.1558 17.1575 9.76282 17.2885C9.36986 17.4195 9.15749 17.8442 9.28848 18.2372C9.49209 18.848 9.48154 19.5239 9.26549 20.0055C9.07528 20.4296 8.71432 20.75 7.99999 20.75C7.29294 20.75 6.74999 20.2229 6.74999 19.5734C6.74999 18.9969 6.89691 18.4299 7.17688 17.9259L8.71181 15.1631C9.21324 14.2605 9.4076 12.9933 9.14761 11.9172C9.01499 11.3682 8.75242 10.8226 8.30045 10.4095C7.83673 9.98572 7.22573 9.75 6.49999 9.75Z" fill="#23262A"/>
</svg>
