<svg width="24" height="24" viewBox="0 0 24 24" fill="none" xmlns="http://www.w3.org/2000/svg">
<path fill-rule="evenodd" clip-rule="evenodd" d="M12.5032 11.4512C12.5101 11.335 12.5438 11.2222 12.6015 11.1215L16.5419 4.25184C17.2296 3.05279 18.756 2.6438 19.9512 3.33833C21.1463 4.03287 21.5576 5.56793 20.8699 6.76699L16.9295 13.6366C16.8718 13.7373 16.7915 13.8231 16.695 13.8872L13.4295 16.0574C13.1931 16.2145 12.8883 16.2235 12.6424 16.0806C12.3964 15.9376 12.2517 15.6675 12.2687 15.3829L12.5032 11.4512ZM13.9863 11.722L13.8521 13.9714L15.7205 12.7298L18.3141 8.20808L16.5799 7.20029L13.9863 11.722ZM17.3262 5.89914L19.0604 6.90693L19.573 6.01331C19.8486 5.53286 19.6837 4.91778 19.2049 4.63949C18.726 4.36119 18.1144 4.52507 17.8388 5.00552L17.3262 5.89914ZM3.25 11C3.25 9.48126 4.48122 8.25004 6 8.25004H9.00002H11.5C11.9142 8.25004 12.25 8.58583 12.25 9.00004C12.25 9.41425 11.9142 9.75004 11.5 9.75004H9.75002V19.25H18C18.6904 19.25 19.25 18.6904 19.25 18V12.5C19.25 12.0858 19.5858 11.75 20 11.75C20.4142 11.75 20.75 12.0858 20.75 12.5V18C20.75 19.5188 19.5188 20.75 18 20.75H9.00002H6C4.48122 20.75 3.25 19.5188 3.25 18V11ZM6 9.75004H8.25002V13.75H4.75V11C4.75 10.3097 5.30964 9.75004 6 9.75004ZM4.75 15.25V18C4.75 18.6904 5.30964 19.25 6 19.25H8.25002V15.25H4.75Z" fill="#23262A"/>
</svg>
