<svg width="24" height="24" viewBox="0 0 24 24" fill="none" xmlns="http://www.w3.org/2000/svg">
<path fill-rule="evenodd" clip-rule="evenodd" d="M11.0307 11.5865C11.033 11.5478 11.0443 11.5101 11.0637 11.4765L14.0252 6.34704C14.0942 6.22747 14.2471 6.1865 14.3667 6.25554L17.3978 8.00554C17.5174 8.07457 17.5583 8.22747 17.4893 8.34704L14.5278 13.4765C14.5084 13.5101 14.4815 13.5387 14.4491 13.5601L11.1835 15.7162C11.0116 15.8297 10.7839 15.6982 10.7962 15.4926L11.0307 11.5865ZM15.1167 4.9565C14.9971 4.88746 14.9562 4.73457 15.0252 4.61499L15.5342 3.73337C16.0865 2.77678 17.3097 2.44903 18.2663 3.00132C19.2229 3.5536 19.5506 4.77678 18.9983 5.73337L18.4893 6.61499C18.4203 6.73456 18.2674 6.77553 18.1478 6.7065L15.1167 4.9565ZM6.50002 9.75C5.08554 9.75 3.75002 10.7964 3.75002 12.3912C3.75002 12.8545 3.86177 13.3056 3.94765 13.6522L3.94771 13.6525C3.9584 13.6956 3.9687 13.7372 3.97833 13.777C4.0754 14.1779 4.12265 14.4518 4.08845 14.7029C4.01364 15.252 3.80101 15.6918 3.52264 15.9215C3.20317 16.1852 3.15792 16.6579 3.42157 16.9774C3.68522 17.2969 4.15794 17.3421 4.4774 17.0785C5.15246 16.5213 5.47119 15.6653 5.57472 14.9053C5.65108 14.3449 5.53255 13.8219 5.4362 13.424L5.4064 13.3015C5.31518 12.9276 5.25002 12.6606 5.25002 12.3912C5.25002 11.7551 5.77735 11.25 6.50002 11.25C6.883 11.25 7.12386 11.3663 7.28855 11.5168C7.46498 11.678 7.60736 11.929 7.68959 12.2694C7.85933 12.972 7.72307 13.8542 7.40061 14.4346L5.86568 17.1975C5.46191 17.9243 5.25002 18.742 5.25002 19.5734C5.25002 21.1387 6.55471 22.25 8.00002 22.25C9.31852 22.25 10.2076 21.5704 10.6341 20.6195C11.0349 19.7261 11.0079 18.652 10.7115 17.7628C10.5805 17.3699 10.1558 17.1575 9.76285 17.2885C9.36989 17.4195 9.15752 17.8442 9.28851 18.2372C9.49212 18.848 9.48157 19.5239 9.26552 20.0055C9.07531 20.4296 8.71435 20.75 8.00002 20.75C7.29297 20.75 6.75002 20.2229 6.75002 19.5734C6.75002 18.9969 6.89694 18.4299 7.17691 17.9259L8.71184 15.1631C9.21327 14.2605 9.40763 12.9933 9.14765 11.9172C9.01502 11.3682 8.75246 10.8226 8.30048 10.4095C7.83676 9.98572 7.22576 9.75 6.50002 9.75Z" fill="#23262A"/>
</svg>
