<svg width="24" height="24" viewBox="0 0 24 24" fill="none" xmlns="http://www.w3.org/2000/svg">
<path fill-rule="evenodd" clip-rule="evenodd" d="M7.99774 6.75C7.30863 6.75 6.75 7.30863 6.75 7.99774C6.75 8.68685 7.30863 9.24548 7.99774 9.24548C8.68685 9.24548 9.24548 8.68685 9.24548 7.99774C9.24548 7.30863 8.68685 6.75 7.99774 6.75ZM5.25 7.99774C5.25 6.48021 6.48021 5.25 7.99774 5.25C9.51528 5.25 10.7455 6.48021 10.7455 7.99774C10.7455 9.51528 9.51528 10.7455 7.99774 10.7455C6.48021 10.7455 5.25 9.51528 5.25 7.99774ZM5.46967 18.5303C5.17678 18.2374 5.17678 17.7626 5.46967 17.4697L17.4697 5.46967C17.7626 5.17678 18.2374 5.17678 18.5303 5.46967C18.8232 5.76256 18.8232 6.23744 18.5303 6.53033L6.53033 18.5303C6.23744 18.8232 5.76256 18.8232 5.46967 18.5303ZM14.75 15.9977C14.75 15.3086 15.3086 14.75 15.9977 14.75C16.6869 14.75 17.2455 15.3086 17.2455 15.9977C17.2455 16.6869 16.6869 17.2455 15.9977 17.2455C15.3086 17.2455 14.75 16.6869 14.75 15.9977ZM15.9977 13.25C14.4802 13.25 13.25 14.4802 13.25 15.9977C13.25 17.5153 14.4802 18.7455 15.9977 18.7455C17.5153 18.7455 18.7455 17.5153 18.7455 15.9977C18.7455 14.4802 17.5153 13.25 15.9977 13.25Z" fill="#23262A"/>
</svg>
