<svg width="24" height="24" viewBox="0 0 24 24" fill="none" xmlns="http://www.w3.org/2000/svg">
<path fill-rule="evenodd" clip-rule="evenodd" d="M12 2.25C9.10051 2.25 6.75 4.60051 6.75 7.5C6.75 10.3995 9.10051 12.75 12 12.75C14.8995 12.75 17.25 10.3995 17.25 7.5C17.25 4.60051 14.8995 2.25 12 2.25ZM12 14.25C10.2098 14.25 8.4929 14.9612 7.22703 16.227C5.96116 17.4929 5.25 19.2098 5.25 21C5.25 21.1989 5.32902 21.3897 5.46967 21.5303C5.61032 21.671 5.80109 21.75 6 21.75H11.5245C11.697 21.75 11.8182 21.5785 11.787 21.4088C11.7627 21.2762 11.75 21.1396 11.75 21V17C11.75 16.2477 12.126 15.5452 12.7519 15.1279L13.2691 14.7831C13.4483 14.6636 13.4013 14.3935 13.1893 14.3556C12.7994 14.2858 12.4016 14.25 12 14.25ZM16.584 14.376C16.8359 14.208 17.1641 14.208 17.416 14.376L19.6954 15.8955C19.8551 16.002 19.8402 16.2413 19.6685 16.3271L17.1118 17.6055C17.0414 17.6407 16.9585 17.6407 16.8882 17.6055L14.3315 16.3272C14.1598 16.2413 14.1449 16.002 14.3046 15.8955L16.584 14.376ZM20.3882 17.6443C20.5544 17.5612 20.75 17.6821 20.75 17.8679V21C20.75 21.4142 20.4142 21.75 20 21.75H14C13.5858 21.75 13.25 21.4142 13.25 21V17.868C13.25 17.6821 13.4456 17.5613 13.6118 17.6444L16.6646 19.1707C16.8757 19.2763 17.1242 19.2763 17.3354 19.1707L20.3882 17.6443Z" fill="#23262A"/>
</svg>
