<svg width="24" height="24" viewBox="0 0 24 24" fill="none" xmlns="http://www.w3.org/2000/svg">
<path fill-rule="evenodd" clip-rule="evenodd" d="M15.5 4.25C14.8096 4.25 14.25 4.80964 14.25 5.5V12C14.25 12.3033 14.4327 12.5768 14.713 12.6929C14.9932 12.809 15.3158 12.7448 15.5303 12.5303L17.3107 10.75H21.5C22.1904 10.75 22.75 10.1904 22.75 9.5V5.5C22.75 4.80964 22.1904 4.25 21.5 4.25H15.5ZM4.25 9C4.25 6.65279 6.15279 4.75 8.5 4.75C10.8472 4.75 12.75 6.65279 12.75 9C12.75 11.3472 10.8472 13.25 8.5 13.25C6.15279 13.25 4.25 11.3472 4.25 9ZM4.78768 15.7877C5.77224 14.8031 7.1076 14.25 8.49999 14.25C9.89237 14.25 11.2277 14.8031 12.2123 15.7877C13.0584 16.6338 13.5859 17.7389 13.7175 18.9167C13.7412 19.1288 13.6734 19.3409 13.5311 19.5C13.3889 19.6591 13.1856 19.75 12.9721 19.75H4.02784C3.81442 19.75 3.61111 19.6591 3.46883 19.5C3.32654 19.3409 3.25877 19.1288 3.28248 18.9167C3.41412 17.7389 3.94158 16.6338 4.78768 15.7877Z" fill="#23262A"/>
</svg>
