<svg width="24" height="24" viewBox="0 0 24 24" fill="none" xmlns="http://www.w3.org/2000/svg">
<path fill-rule="evenodd" clip-rule="evenodd" d="M3.75 7.5C3.75 4.60051 6.10051 2.25 9 2.25C11.8995 2.25 14.25 4.60051 14.25 7.5C14.25 10.3995 11.8995 12.75 9 12.75C6.10051 12.75 3.75 10.3995 3.75 7.5ZM4.22703 16.227C5.4929 14.9612 7.20979 14.25 9 14.25C10.7902 14.25 12.5071 14.9612 13.773 16.227C15.0388 17.4929 15.75 19.2098 15.75 21C15.75 21.1989 15.671 21.3897 15.5303 21.5303C15.3897 21.671 15.1989 21.75 15 21.75L3 21.75C2.80109 21.75 2.61032 21.671 2.46967 21.5303C2.32902 21.3897 2.25 21.1989 2.25 21C2.25 19.2098 2.96116 17.4929 4.22703 16.227ZM17.264 19.2502C17.1463 19.2502 17.045 19.168 17.0172 19.0537C16.6628 17.5941 15.9133 16.2461 14.8337 15.1665C14.2075 14.5402 13.4909 14.0251 12.7147 13.6337C12.5288 13.5399 12.5152 13.2675 12.6894 13.1536C14.5324 11.9484 15.7501 9.86647 15.7501 7.50009C15.7501 6.66433 15.5982 5.86404 15.3205 5.12533C15.2553 4.95191 15.3848 4.7633 15.5684 4.78783C17.647 5.06557 19.2502 6.84564 19.2502 9.00017C19.2502 10.802 18.1288 12.342 16.5459 12.9603C18.9708 13.6355 20.7502 15.86 20.7502 18.5002C20.7502 18.9144 20.4144 19.2502 20.0002 19.2502H17.264Z" fill="#23262A"/>
</svg>
