<svg width="24" height="24" viewBox="0 0 24 24" fill="none" xmlns="http://www.w3.org/2000/svg">
<path fill-rule="evenodd" clip-rule="evenodd" d="M12 3.75C11.0335 3.75 10.25 4.5335 10.25 5.5C10.25 6.4665 11.0335 7.25 12 7.25C12.9665 7.25 13.75 6.4665 13.75 5.5C13.75 4.5335 12.9665 3.75 12 3.75ZM8.75 5.5C8.75 3.70507 10.2051 2.25 12 2.25C13.7949 2.25 15.25 3.70507 15.25 5.5C15.25 7.29493 13.7949 8.75 12 8.75C10.2051 8.75 8.75 7.29493 8.75 5.5ZM7.75 13C7.75 11.0134 9.66207 9.25 12 9.25C14.3379 9.25 16.25 11.0134 16.25 13V21C16.25 21.4142 15.9142 21.75 15.5 21.75C15.0858 21.75 14.75 21.4142 14.75 21V13C14.75 11.9866 13.6621 10.75 12 10.75C10.3379 10.75 9.25 11.9866 9.25 13V14.75H8.5C7.70719 14.75 7.1809 15.037 6.83565 15.4685C6.47238 15.9226 6.25 16.6144 6.25 17.5C6.25 18.3856 6.47238 19.0774 6.83565 19.5315C7.1809 19.963 7.70719 20.25 8.5 20.25C8.91421 20.25 9.25 20.5858 9.25 21C9.25 21.4142 8.91421 21.75 8.5 21.75C7.29281 21.75 6.3191 21.287 5.66435 20.4685C5.02762 19.6726 4.75 18.6144 4.75 17.5C4.75 16.3856 5.02762 15.3274 5.66435 14.5315C6.17742 13.8901 6.88635 13.467 7.75 13.314V13ZM10.3839 16.1161C9.89573 15.628 9.10427 15.628 8.61612 16.1161C8.12796 16.6043 8.12796 17.3957 8.61612 17.8839L10.5 19.7678L12.3839 17.8839C12.872 17.3957 12.872 16.6043 12.3839 16.1161C11.8957 15.628 11.1043 15.628 10.6161 16.1161L10.5 16.2322L10.3839 16.1161Z" fill="#23262A"/>
</svg>
