<svg width="24" height="24" viewBox="0 0 24 24" fill="none" xmlns="http://www.w3.org/2000/svg">
<path fill-rule="evenodd" clip-rule="evenodd" d="M12 2.25C9.10051 2.25 6.75 4.60051 6.75 7.5C6.75 10.3995 9.10051 12.75 12 12.75C14.8995 12.75 17.25 10.3995 17.25 7.5C17.25 4.60051 14.8995 2.25 12 2.25ZM12 14.25C10.2098 14.25 8.4929 14.9612 7.22703 16.227C5.96116 17.4929 5.25 19.2098 5.25 21C5.25 21.1989 5.32902 21.3897 5.46967 21.5303C5.61032 21.671 5.80109 21.75 6 21.75L12.5252 21.75C12.6977 21.75 12.8189 21.5785 12.7875 21.4088C12.7362 21.1315 12.7368 20.8432 12.7937 20.5586L13.2937 18.0586C13.3808 17.6231 13.5949 17.223 13.909 16.9089L15.3325 15.4855C15.4465 15.3715 15.4244 15.1809 15.2836 15.1025C14.2883 14.5483 13.1595 14.25 12 14.25ZM20.5303 15.4696C19.6852 14.6244 18.3149 14.6244 17.4697 15.4696L14.9697 17.9696C14.865 18.0743 14.7936 18.2076 14.7646 18.3528L14.2646 20.8528C14.2154 21.0987 14.2924 21.3529 14.4697 21.5302C14.647 21.7076 14.9012 21.7845 15.1471 21.7353L17.6471 21.2353C17.7923 21.2063 17.9256 21.1349 18.0303 21.0302L20.5303 18.5302C21.3755 17.6851 21.3755 16.3148 20.5303 15.4696Z" fill="#23262A"/>
</svg>
