<svg width="24" height="24" viewBox="0 0 24 24" fill="none" xmlns="http://www.w3.org/2000/svg">
<path fill-rule="evenodd" clip-rule="evenodd" d="M6.75 5.5C6.75 4.5335 7.5335 3.75 8.5 3.75C9.4665 3.75 10.25 4.5335 10.25 5.5C10.25 6.4665 9.4665 7.25 8.5 7.25C7.5335 7.25 6.75 6.4665 6.75 5.5ZM8.5 2.25C6.70507 2.25 5.25 3.70507 5.25 5.5C5.25 7.29493 6.70507 8.75 8.5 8.75C10.2949 8.75 11.75 7.29493 11.75 5.5C11.75 3.70507 10.2949 2.25 8.5 2.25ZM15.25 12.5C15.25 11.8096 15.8096 11.25 16.5 11.25C17.1904 11.25 17.75 11.8096 17.75 12.5C17.75 13.1904 17.1904 13.75 16.5 13.75C15.8096 13.75 15.25 13.1904 15.25 12.5ZM16.5 9.75C14.9812 9.75 13.75 10.9812 13.75 12.5C13.75 14.0188 14.9812 15.25 16.5 15.25C18.0188 15.25 19.25 14.0188 19.25 12.5C19.25 10.9812 18.0188 9.75 16.5 9.75ZM14.4276 17.1717C14.9059 16.6066 15.6167 16.25 16.5 16.25C17.3833 16.25 18.0941 16.6066 18.5724 17.1717C19.0369 17.7203 19.25 18.4248 19.25 19.1V21C19.25 21.4142 18.9142 21.75 18.5 21.75C18.0858 21.75 17.75 21.4142 17.75 21V19.1C17.75 18.7252 17.6298 18.3797 17.4276 18.1408C17.2392 17.9184 16.95 17.75 16.5 17.75C16.05 17.75 15.7608 17.9184 15.5724 18.1408C15.3702 18.3797 15.25 18.7252 15.25 19.1V21C15.25 21.4142 14.9142 21.75 14.5 21.75C14.0858 21.75 13.75 21.4142 13.75 21V19.1C13.75 18.4248 13.9631 17.7203 14.4276 17.1717ZM8.5 10.25C7.29648 10.25 6.33873 10.7088 5.68944 11.4392C5.05242 12.1559 4.75 13.0902 4.75 14V21C4.75 21.4142 5.08579 21.75 5.5 21.75C5.91421 21.75 6.25 21.4142 6.25 21V14C6.25 13.4098 6.44758 12.8441 6.81056 12.4358C7.16127 12.0412 7.70352 11.75 8.5 11.75C9.29648 11.75 9.83873 12.0412 10.1894 12.4358C10.5524 12.8441 10.75 13.4098 10.75 14V21C10.75 21.4142 11.0858 21.75 11.5 21.75C11.9142 21.75 12.25 21.4142 12.25 21V14C12.25 13.0902 11.9476 12.1559 11.3106 11.4392C10.6613 10.7088 9.70352 10.25 8.5 10.25Z" fill="#23262A"/>
</svg>
