<svg width="24" height="24" viewBox="0 0 24 24" fill="none" xmlns="http://www.w3.org/2000/svg">
<path fill-rule="evenodd" clip-rule="evenodd" d="M8.25 7.5C8.25 5.42893 9.92893 3.75 12 3.75C14.0711 3.75 15.75 5.42893 15.75 7.5C15.75 9.57107 14.0711 11.25 12 11.25C9.92893 11.25 8.25 9.57107 8.25 7.5ZM12 2.25C9.1005 2.25 6.75 4.60051 6.75 7.5C6.75 10.3995 9.1005 12.75 12 12.75C14.8995 12.75 17.25 10.3995 17.25 7.5C17.25 4.60051 14.8995 2.25 12 2.25ZM9.12542 14.8323C9.0717 14.5981 8.90904 14.4039 8.68793 14.3098C8.46683 14.2158 8.21406 14.2334 8.00811 14.3571C7.47087 14.68 6.97048 15.0694 6.51992 15.5199C5.19754 16.8423 4.40241 18.5933 4.26978 20.4465C4.26914 20.4554 4.26866 20.4643 4.26834 20.4732L4.25047 20.9732C4.23568 21.3872 4.55926 21.7347 4.97321 21.7495C5.38716 21.7643 5.73472 21.4407 5.74952 21.0268L5.76689 20.5406C5.87662 19.051 6.51725 17.6439 7.58058 16.5806C7.68891 16.4723 7.8008 16.3683 7.91597 16.2689L8.92492 20.6677C9.01753 21.0714 9.41988 21.3236 9.82361 21.231C10.2273 21.1384 10.4796 20.7361 10.387 20.3323L9.12542 14.8323ZM15.9919 14.3571C15.7859 14.2334 15.5332 14.2158 15.3121 14.3098C15.091 14.4039 14.9283 14.5981 14.8746 14.8323L13.613 20.3323C13.5204 20.7361 13.7726 21.1384 14.1764 21.231C14.5801 21.3236 14.9825 21.0714 15.0751 20.6677L16.084 16.2689C16.1992 16.3683 16.3111 16.4723 16.4194 16.5806C17.4827 17.6439 18.1234 19.0509 18.2331 20.5405L18.2505 21.0268C18.2653 21.4407 18.6128 21.7643 19.0268 21.7495C19.4407 21.7347 19.7643 21.3872 19.7495 20.9732L19.7317 20.4732C19.7313 20.4643 19.7309 20.4554 19.7302 20.4465C19.5976 18.5933 18.8025 16.8423 17.4801 15.5199C17.0295 15.0694 16.5291 14.68 15.9919 14.3571ZM12 16.75C12.4142 16.75 12.75 17.0858 12.75 17.5V20.5C12.75 20.9142 12.4142 21.25 12 21.25C11.5858 21.25 11.25 20.9142 11.25 20.5V17.5C11.25 17.0858 11.5858 16.75 12 16.75ZM12.75 15C12.75 14.5858 12.4142 14.25 12 14.25C11.5858 14.25 11.25 14.5858 11.25 15V15.5C11.25 15.9142 11.5858 16.25 12 16.25C12.4142 16.25 12.75 15.9142 12.75 15.5V15Z" fill="#23262A"/>
</svg>
