<svg width="24" height="24" viewBox="0 0 24 24" fill="none" xmlns="http://www.w3.org/2000/svg">
<path fill-rule="evenodd" clip-rule="evenodd" d="M6.75 7.5C6.75 4.60051 9.10051 2.25 12 2.25C14.8995 2.25 17.25 4.60051 17.25 7.5C17.25 10.3995 14.8995 12.75 12 12.75C9.10051 12.75 6.75 10.3995 6.75 7.5ZM7.22703 16.227C8.4929 14.9612 10.2098 14.25 12 14.25C12.4753 14.25 12.9454 14.3001 13.4033 14.3975C13.5904 14.4372 13.6514 14.6667 13.5161 14.8019L13.409 14.909C12.5303 15.7877 12.5303 17.2123 13.409 18.091L13.6412 18.3232C13.7389 18.4209 13.7389 18.5791 13.6412 18.6768L12.409 19.909C11.977 20.341 11.7574 20.905 11.7502 21.4712C11.7483 21.6202 11.6335 21.75 11.4845 21.75H6C5.80109 21.75 5.61032 21.671 5.46967 21.5303C5.32902 21.3897 5.25 21.1989 5.25 21C5.25 19.2098 5.96116 17.4929 7.22703 16.227ZM16.9801 21.7019C16.9623 21.7197 16.9749 21.75 17 21.75C17.0251 21.75 17.0377 21.7197 17.0199 21.7019C17.0089 21.6909 16.9911 21.6909 16.9801 21.7019ZM17 19.5607L18.4697 21.0303C18.7626 21.3232 19.2374 21.3232 19.5303 21.0303L21.5303 19.0303C21.8232 18.7374 21.8232 18.2626 21.5303 17.9697L17.5303 13.9697C17.2374 13.6768 16.7626 13.6768 16.4697 13.9697L14.4697 15.9697C14.1768 16.2626 14.1768 16.7374 14.4697 17.0303L15.9393 18.5L13.4697 20.9697C13.1768 21.2626 13.1768 21.7374 13.4697 22.0303C13.7626 22.3232 14.2374 22.3232 14.5303 22.0303L17 19.5607Z" fill="#23262A"/>
</svg>
