<svg width="24" height="24" viewBox="0 0 24 24" fill="none" xmlns="http://www.w3.org/2000/svg">
<path fill-rule="evenodd" clip-rule="evenodd" d="M8.25 7.5C8.25 5.42893 9.92893 3.75 12 3.75C14.0711 3.75 15.75 5.42893 15.75 7.5C15.75 9.57107 14.0711 11.25 12 11.25C10.7731 11.25 9.68388 10.6608 8.99973 9.75H10.5C10.9142 9.75 11.25 9.41421 11.25 9C11.25 8.58579 10.9142 8.25 10.5 8.25H8.32501C8.27582 8.00767 8.25 7.75685 8.25 7.5ZM12 12.75C9.9057 12.75 8.09782 11.5237 7.25522 9.75H5C4.58579 9.75 4.25 9.41421 4.25 9V6.5C4.25 6.08579 4.58579 5.75 5 5.75C5.41421 5.75 5.75 6.08579 5.75 6.5V8.25H6.80317C6.76813 8.00505 6.75 7.75464 6.75 7.5C6.75 4.60051 9.1005 2.25 12 2.25C14.8995 2.25 17.25 4.60051 17.25 7.5C17.25 10.3995 14.8995 12.75 12 12.75ZM8.28769 17.2877C9.27225 16.3031 10.6076 15.75 12 15.75C13.3924 15.75 14.7277 16.3031 15.7123 17.2877C16.6969 18.2723 17.25 19.6076 17.25 21C17.25 21.4142 17.5858 21.75 18 21.75C18.4142 21.75 18.75 21.4142 18.75 21C18.75 19.2098 18.0388 17.4929 16.773 16.227C15.5071 14.9612 13.7902 14.25 12 14.25C10.2098 14.25 8.4929 14.9612 7.22703 16.227C5.96116 17.4929 5.25 19.2098 5.25 21C5.25 21.4142 5.58579 21.75 6 21.75C6.41421 21.75 6.75 21.4142 6.75 21C6.75 19.6076 7.30312 18.2723 8.28769 17.2877ZM19.75 6.5C19.75 6.08579 19.4142 5.75 19 5.75C18.5858 5.75 18.25 6.08579 18.25 6.5V8.5C18.25 8.91421 18.5858 9.25 19 9.25C19.4142 9.25 19.75 8.91421 19.75 8.5V6.5Z" fill="#23262A"/>
</svg>
