<svg width="24" height="24" viewBox="0 0 24 24" fill="none" xmlns="http://www.w3.org/2000/svg">
<path fill-rule="evenodd" clip-rule="evenodd" d="M5.75 3.75V20.25H18.25V3.75H5.75ZM4.25 3.5C4.25 2.80964 4.80964 2.25 5.5 2.25H18.5C19.1904 2.25 19.75 2.80964 19.75 3.5V20.5C19.75 21.1904 19.1904 21.75 18.5 21.75H5.5C4.80964 21.75 4.25 21.1904 4.25 20.5V3.5ZM12 7.25C10.7574 7.25 9.75 8.25736 9.75 9.5C9.75 10.7426 10.7574 11.75 12 11.75C13.2426 11.75 14.25 10.7426 14.25 9.5C14.25 8.25736 13.2426 7.25 12 7.25ZM8.25 9.5C8.25 7.42893 9.92893 5.75 12 5.75C14.0711 5.75 15.75 7.42893 15.75 9.5C15.75 11.5711 14.0711 13.25 12 13.25C9.92893 13.25 8.25 11.5711 8.25 9.5ZM10.0552 16.5555C10.5709 16.0397 11.2704 15.75 11.9998 15.75C12.7291 15.75 13.4286 16.0397 13.9443 16.5555C14.3665 16.9777 14.6373 17.523 14.7216 18.1071C14.7807 18.5171 15.161 18.8015 15.571 18.7423C15.981 18.6831 16.2654 18.3028 16.2062 17.8929C16.0759 16.9902 15.6575 16.1473 15.005 15.4948C14.2079 14.6978 13.1269 14.25 11.9998 14.25C10.8726 14.25 9.79159 14.6978 8.99456 15.4948C8.34202 16.1473 7.92362 16.9902 7.79334 17.8929C7.73417 18.3028 8.01855 18.6831 8.42852 18.7423C8.83848 18.8015 9.21879 18.5171 9.27796 18.1071C9.36226 17.523 9.63303 16.9777 10.0552 16.5555Z" fill="#23262A"/>
</svg>
