<svg width="24" height="24" viewBox="0 0 24 24" fill="none" xmlns="http://www.w3.org/2000/svg">
<path fill-rule="evenodd" clip-rule="evenodd" d="M12 3.75C9.92893 3.75 8.25 5.42893 8.25 7.5C8.25 9.57107 9.92893 11.25 12 11.25C14.0711 11.25 15.75 9.57107 15.75 7.5C15.75 5.42893 14.0711 3.75 12 3.75ZM6.75 7.5C6.75 4.60051 9.10051 2.25 12 2.25C14.8995 2.25 17.25 4.60051 17.25 7.5C17.25 10.3995 14.8995 12.75 12 12.75C9.10051 12.75 6.75 10.3995 6.75 7.5ZM19.5303 16.4697C19.8232 16.7626 19.8232 17.2374 19.5303 17.5303L17.0303 20.0303C16.7374 20.3232 16.2626 20.3232 15.9697 20.0303L14.4697 18.5303C14.1768 18.2374 14.1768 17.7626 14.4697 17.4697C14.7626 17.1768 15.2374 17.1768 15.5303 17.4697L16.5 18.4393L18.4697 16.4697C18.7626 16.1768 19.2374 16.1768 19.5303 16.4697ZM8.28769 17.2877C9.27225 16.3031 10.6076 15.75 12 15.75C12.2952 15.75 12.5878 15.7749 12.875 15.8234C13.2834 15.8924 13.6705 15.6173 13.7395 15.2089C13.8085 14.8005 13.5334 14.4134 13.125 14.3444C12.7557 14.282 12.3795 14.25 12 14.25C10.2098 14.25 8.4929 14.9612 7.22703 16.227C5.96116 17.4929 5.25 19.2098 5.25 21C5.25 21.4142 5.58579 21.75 6 21.75C6.41421 21.75 6.75 21.4142 6.75 21C6.75 19.6076 7.30312 18.2723 8.28769 17.2877Z" fill="#23262A"/>
</svg>
