<svg width="24" height="24" viewBox="0 0 24 24" fill="none" xmlns="http://www.w3.org/2000/svg">
<path fill-rule="evenodd" clip-rule="evenodd" d="M6.75 7.5C6.75 4.60051 9.10051 2.25 12 2.25C14.8995 2.25 17.25 4.60051 17.25 7.5C17.25 10.3995 14.8995 12.75 12 12.75C9.10051 12.75 6.75 10.3995 6.75 7.5ZM7.22703 16.227C8.4929 14.9612 10.2098 14.25 12 14.25C12.5018 14.25 12.9978 14.3059 13.4798 14.4142C13.6782 14.4588 13.7281 14.7136 13.5798 14.8528C12.6074 15.765 12 17.0616 12 18.5C12 19.5458 12.321 20.5165 12.87 21.3191C12.9905 21.4954 12.8706 21.75 12.6571 21.75L6 21.75C5.80109 21.75 5.61032 21.671 5.46967 21.5303C5.32902 21.3897 5.25 21.1989 5.25 21C5.25 19.2098 5.96116 17.4929 7.22703 16.227ZM19.0303 16.4697C19.3232 16.7626 19.3232 17.2374 19.0303 17.5303L18.0607 18.5L19.0303 19.4697C19.3232 19.7626 19.3232 20.2374 19.0303 20.5303C18.7374 20.8232 18.2626 20.8232 17.9697 20.5303L17 19.5607L16.0303 20.5303C15.7374 20.8232 15.2626 20.8232 14.9697 20.5303C14.6768 20.2374 14.6768 19.7626 14.9697 19.4697L15.9393 18.5L14.9697 17.5303C14.6768 17.2374 14.6768 16.7626 14.9697 16.4697C15.2626 16.1768 15.7374 16.1768 16.0303 16.4697L17 17.4393L17.9697 16.4697C18.2626 16.1768 18.7374 16.1768 19.0303 16.4697Z" fill="#23262A"/>
</svg>
