<svg width="24" height="24" viewBox="0 0 24 24" fill="none" xmlns="http://www.w3.org/2000/svg">
<path fill-rule="evenodd" clip-rule="evenodd" d="M14.75 10.1893V5.75H20.25V9.25H16C15.8011 9.25 15.6103 9.32902 15.4697 9.46967L14.75 10.1893ZM14.5 4.25C13.8097 4.25 13.25 4.80964 13.25 5.5V12C13.25 12.3033 13.4327 12.5768 13.713 12.6929C13.9932 12.809 14.3158 12.7448 14.5303 12.5303L16.3107 10.75H20.5C21.1904 10.75 21.75 10.1904 21.75 9.5V5.5C21.75 4.80964 21.1904 4.25 20.5 4.25H14.5ZM7.50001 7.25C5.98122 7.25 4.75001 8.48122 4.75001 10C4.75001 11.5188 5.98122 12.75 7.50001 12.75C9.01879 12.75 10.25 11.5188 10.25 10C10.25 8.48122 9.01879 7.25 7.50001 7.25ZM3.25001 10C3.25001 7.65279 5.1528 5.75 7.50001 5.75C9.84722 5.75 11.75 7.65279 11.75 10C11.75 12.3472 9.84722 14.25 7.50001 14.25C5.1528 14.25 3.25001 12.3472 3.25001 10ZM7.49999 16.75C6.50543 16.75 5.5516 17.1451 4.84834 17.8483C4.24401 18.4527 3.86723 19.2421 3.7732 20.0833C3.72718 20.495 3.35618 20.7914 2.94453 20.7454C2.53288 20.6993 2.23647 20.3283 2.28248 19.9167C2.41412 18.7389 2.94158 17.6338 3.78768 16.7877C4.77224 15.8031 6.1076 15.25 7.49999 15.25C8.89238 15.25 10.2277 15.8031 11.2123 16.7877C12.0584 17.6338 12.5859 18.7389 12.7175 19.9167C12.7635 20.3283 12.4671 20.6993 12.0555 20.7454C11.6438 20.7914 11.2728 20.495 11.2268 20.0833C11.1328 19.2421 10.756 18.4527 10.1516 17.8483C9.44838 17.1451 8.49455 16.75 7.49999 16.75Z" fill="#262626"/>
</svg>
