<svg width="24" height="24" viewBox="0 0 24 24" fill="none" xmlns="http://www.w3.org/2000/svg">
<path fill-rule="evenodd" clip-rule="evenodd" d="M9 3.75C6.92893 3.75 5.25 5.42893 5.25 7.5C5.25 9.57107 6.92893 11.25 9 11.25C11.0711 11.25 12.75 9.57107 12.75 7.5C12.75 5.42893 11.0711 3.75 9 3.75ZM3.75 7.5C3.75 4.60051 6.10051 2.25 9 2.25C11.8995 2.25 14.25 4.60051 14.25 7.5C14.25 10.3995 11.8995 12.75 9 12.75C6.10051 12.75 3.75 10.3995 3.75 7.5ZM9 15.75C7.60761 15.75 6.27225 16.3031 5.28769 17.2877C4.30312 18.2723 3.75 19.6076 3.75 21C3.75 21.4142 3.41421 21.75 3 21.75C2.58579 21.75 2.25 21.4142 2.25 21C2.25 19.2098 2.96116 17.4929 4.22703 16.227C5.4929 14.9612 7.20979 14.25 9 14.25C10.7902 14.25 12.5071 14.9612 13.773 16.227C15.0388 17.4929 15.75 19.2098 15.75 21C15.75 21.4142 15.4142 21.75 15 21.75C14.5858 21.75 14.25 21.4142 14.25 21C14.25 19.6076 13.6969 18.2723 12.7123 17.2877C11.7277 16.3031 10.3924 15.75 9 15.75ZM16.2139 4.92619C15.8169 4.80804 15.3993 5.03409 15.2812 5.4311C15.163 5.8281 15.3891 6.24572 15.7861 6.36387C16.9225 6.7021 17.75 7.75544 17.75 9.00009C17.75 10.5189 16.5188 11.7501 15 11.7501C14.5858 11.7501 14.25 12.0859 14.25 12.5001L14.25 13.5001C14.25 13.699 14.329 13.8898 14.4697 14.0304C14.6103 14.1711 14.8011 14.2501 15 14.2501C16.1272 14.2501 17.2082 14.6979 18.0052 15.4949C18.8022 16.2919 19.25 17.3729 19.25 18.5001C19.25 18.9143 19.5858 19.2501 20 19.2501C20.4142 19.2501 20.75 18.9143 20.75 18.5001C20.75 16.9751 20.1442 15.5126 19.0659 14.4342C18.3597 13.7281 17.4888 13.2246 16.5435 12.9611C18.1276 12.3434 19.25 10.8028 19.25 9.00009C19.25 7.07372 17.969 5.44851 16.2139 4.92619Z" fill="#23262A"/>
</svg>
