<svg width="24" height="24" viewBox="0 0 24 24" fill="none" xmlns="http://www.w3.org/2000/svg">
<path fill-rule="evenodd" clip-rule="evenodd" d="M12 3.75C9.92893 3.75 8.25 5.42893 8.25 7.5C8.25 9.57107 9.92893 11.25 12 11.25C14.0711 11.25 15.75 9.57107 15.75 7.5C15.75 5.42893 14.0711 3.75 12 3.75ZM6.75 7.5C6.75 4.60051 9.1005 2.25 12 2.25C14.8995 2.25 17.25 4.60051 17.25 7.5C17.25 10.3995 14.8995 12.75 12 12.75C9.1005 12.75 6.75 10.3995 6.75 7.5ZM11.5771 15.75C10.1848 15.75 8.8494 16.3031 7.86484 17.2877C6.88027 18.2723 6.32715 19.6076 6.32715 21C6.32715 21.4142 5.99136 21.75 5.57715 21.75C5.16293 21.75 4.82715 21.4142 4.82715 21C4.82715 19.2098 5.53831 17.4929 6.80418 16.227C8.07005 14.9612 9.78694 14.25 11.5771 14.25C12.0232 14.25 12.4647 14.2942 12.8959 14.38C13.3021 14.461 13.5658 14.8559 13.4849 15.2621C13.404 15.6684 13.009 15.9321 12.6028 15.8511C12.2675 15.7843 11.9241 15.75 11.5771 15.75ZM17 15.25C17.4142 15.25 17.75 15.5858 17.75 16V17.75H19.5C19.9142 17.75 20.25 18.0858 20.25 18.5C20.25 18.9142 19.9142 19.25 19.5 19.25H17.75V21C17.75 21.4142 17.4142 21.75 17 21.75C16.5858 21.75 16.25 21.4142 16.25 21V19.25H14.5C14.0858 19.25 13.75 18.9142 13.75 18.5C13.75 18.0858 14.0858 17.75 14.5 17.75H16.25V16C16.25 15.5858 16.5858 15.25 17 15.25Z" fill="#23262A"/>
</svg>
