<svg width="24" height="24" viewBox="0 0 24 24" fill="none" xmlns="http://www.w3.org/2000/svg">
<path fill-rule="evenodd" clip-rule="evenodd" d="M8.25 7.5C8.25 5.42893 9.92893 3.75 12 3.75C14.0711 3.75 15.75 5.42893 15.75 7.5C15.75 9.57107 14.0711 11.25 12 11.25C9.92893 11.25 8.25 9.57107 8.25 7.5ZM12 2.25C9.10051 2.25 6.75 4.60051 6.75 7.5C6.75 10.3995 9.10051 12.75 12 12.75C14.8995 12.75 17.25 10.3995 17.25 7.5C17.25 4.60051 14.8995 2.25 12 2.25ZM8.28769 17.2877C9.27225 16.3031 10.6076 15.75 12 15.75C12.4142 15.75 12.75 15.4142 12.75 15C12.75 14.5858 12.4142 14.25 12 14.25C10.2098 14.25 8.4929 14.9612 7.22703 16.227C5.96116 17.4929 5.25 19.2098 5.25 21C5.25 21.4142 5.58579 21.75 6 21.75C6.41421 21.75 6.75 21.4142 6.75 21C6.75 19.6076 7.30312 18.2723 8.28769 17.2877ZM17.5303 17.9697L19 19.4393L19.9393 18.5L17 15.5607L16.0607 16.5L17.5303 17.9697ZM17 19.5607L18.4697 21.0303C18.7626 21.3232 19.2374 21.3232 19.5303 21.0303L21.5303 19.0303C21.8232 18.7374 21.8232 18.2626 21.5303 17.9697L17.5303 13.9697C17.2374 13.6768 16.7626 13.6768 16.4697 13.9697L14.4697 15.9697C14.1768 16.2626 14.1768 16.7374 14.4697 17.0303L15.9393 18.5L13.4697 20.9697C13.1768 21.2626 13.1768 21.7374 13.4697 22.0303C13.7626 22.3232 14.2374 22.3232 14.5303 22.0303L17 19.5607Z" fill="#262626"/>
</svg>
