<svg width="24" height="24" viewBox="0 0 24 24" fill="none" xmlns="http://www.w3.org/2000/svg">
<path fill-rule="evenodd" clip-rule="evenodd" d="M8.5 2.25C6.70507 2.25 5.25 3.70507 5.25 5.5C5.25 7.29493 6.70507 8.75 8.5 8.75C10.2949 8.75 11.75 7.29493 11.75 5.5C11.75 3.70507 10.2949 2.25 8.5 2.25ZM16.5 9.75C14.9812 9.75 13.75 10.9812 13.75 12.5C13.75 14.0188 14.9812 15.25 16.5 15.25C18.0188 15.25 19.25 14.0188 19.25 12.5C19.25 10.9812 18.0188 9.75 16.5 9.75ZM14.4276 17.1717C14.9059 16.6066 15.6167 16.25 16.5 16.25C17.3833 16.25 18.0941 16.6066 18.5724 17.1717C19.0369 17.7203 19.25 18.4248 19.25 19.1V21C19.25 21.4142 18.9142 21.75 18.5 21.75H14.5C14.0858 21.75 13.75 21.4142 13.75 21V19.1C13.75 18.4248 13.9631 17.7203 14.4276 17.1717ZM8.5 10.25C7.29648 10.25 6.33873 10.7088 5.68944 11.4392C5.05242 12.1559 4.75 13.0902 4.75 14V21C4.75 21.4142 5.08579 21.75 5.5 21.75H11.5C11.9142 21.75 12.25 21.4142 12.25 21V14C12.25 13.0902 11.9476 12.1559 11.3106 11.4392C10.6613 10.7088 9.70352 10.25 8.5 10.25Z" fill="#23262A"/>
</svg>
