<svg width="24" height="24" viewBox="0 0 24 24" fill="none" xmlns="http://www.w3.org/2000/svg">
<path fill-rule="evenodd" clip-rule="evenodd" d="M2.25 12C2.25 6.61522 6.61522 2.25 12 2.25C17.3848 2.25 21.75 6.61522 21.75 12C21.75 17.3848 17.3848 21.75 12 21.75C6.61522 21.75 2.25 17.3848 2.25 12ZM12 7.25C10.7574 7.25 9.75 8.25736 9.75 9.5C9.75 10.7426 10.7574 11.75 12 11.75C13.2426 11.75 14.25 10.7426 14.25 9.5C14.25 8.25736 13.2426 7.25 12 7.25ZM8.25 9.5C8.25 7.42893 9.92893 5.75 12 5.75C14.0711 5.75 15.75 7.42893 15.75 9.5C15.75 11.5711 14.0711 13.25 12 13.25C9.92893 13.25 8.25 11.5711 8.25 9.5ZM17.1112 18.3009C17.1327 18.3923 17.098 18.4875 17.0236 18.5447C16.7278 18.772 16.4163 18.9798 16.0908 19.166C15.9324 19.2566 15.7375 19.1435 15.7113 18.9629C15.5961 18.1669 15.227 17.4238 14.6516 16.8483C13.9484 16.1451 12.9945 15.75 12 15.75C11.0054 15.75 10.0516 16.1451 9.34832 16.8483C8.77291 17.4238 8.40381 18.1669 8.28862 18.9629C8.26249 19.1435 8.06754 19.2566 7.90915 19.166C7.58367 18.9798 7.2721 18.772 6.97637 18.5447C6.90193 18.4875 6.86728 18.3923 6.88873 18.3009C7.11022 17.3569 7.5909 16.4844 8.28766 15.7877C9.27223 14.8031 10.6076 14.25 12 14.25C13.3924 14.25 14.7277 14.8031 15.7123 15.7877C16.409 16.4844 16.8897 17.3569 17.1112 18.3009Z" fill="#23262A"/>
</svg>
