<svg width="24" height="24" viewBox="0 0 24 24" fill="none" xmlns="http://www.w3.org/2000/svg">
<path fill-rule="evenodd" clip-rule="evenodd" d="M12 3.75C7.44365 3.75 3.75 7.44365 3.75 12C3.75 14.611 4.9629 16.9386 6.85598 18.4503C7.06031 17.4491 7.55431 16.5211 8.28769 15.7877C9.27226 14.8031 10.6076 14.25 12 14.25C13.3924 14.25 14.7277 14.8031 15.7123 15.7877C16.4457 16.5211 16.9397 17.4491 17.144 18.4503C19.0371 16.9386 20.25 14.611 20.25 12C20.25 7.44365 16.5563 3.75 12 3.75ZM15.7471 19.3519C15.7099 18.4112 15.3199 17.5166 14.6516 16.8483C13.9484 16.1451 12.9946 15.75 12 15.75C11.0054 15.75 10.0516 16.1451 9.34835 16.8483C8.68007 17.5166 8.29007 18.4112 8.25292 19.3519C9.37731 19.9261 10.6508 20.25 12 20.25C13.3492 20.25 14.6227 19.9261 15.7471 19.3519ZM2.25 12C2.25 6.61522 6.61522 2.25 12 2.25C17.3848 2.25 21.75 6.61522 21.75 12C21.75 17.3848 17.3848 21.75 12 21.75C6.61522 21.75 2.25 17.3848 2.25 12ZM12 7.25C10.7574 7.25 9.75 8.25736 9.75 9.5C9.75 10.7426 10.7574 11.75 12 11.75C13.2426 11.75 14.25 10.7426 14.25 9.5C14.25 8.25736 13.2426 7.25 12 7.25ZM8.25 9.5C8.25 7.42893 9.92893 5.75 12 5.75C14.0711 5.75 15.75 7.42893 15.75 9.5C15.75 11.5711 14.0711 13.25 12 13.25C9.92893 13.25 8.25 11.5711 8.25 9.5Z" fill="#23262A"/>
</svg>
