<svg width="24" height="24" viewBox="0 0 24 24" fill="none" xmlns="http://www.w3.org/2000/svg">
<path fill-rule="evenodd" clip-rule="evenodd" d="M6.75 7.5C6.75 4.60051 9.1005 2.25 12 2.25C14.8995 2.25 17.25 4.60051 17.25 7.5C17.25 10.3995 14.8995 12.75 12 12.75C9.1005 12.75 6.75 10.3995 6.75 7.5ZM8.68794 14.3098C8.90905 14.4039 9.07171 14.5981 9.12543 14.8323L10.387 20.3323C10.4349 20.5413 10.3911 20.7607 10.2667 20.9353C10.1423 21.1098 9.94916 21.2228 9.73603 21.2457L5.08008 21.7457C4.8638 21.7689 4.64809 21.6971 4.4889 21.5489C4.3297 21.4007 4.24271 21.1906 4.25048 20.9732L4.26835 20.4732C4.26867 20.4643 4.26914 20.4554 4.26978 20.4465C4.40241 18.5933 5.19754 16.8423 6.51993 15.5199C6.97049 15.0694 7.47087 14.68 8.00812 14.3571C8.21406 14.2334 8.46684 14.2158 8.68794 14.3098ZM15.9921 14.3571C15.7861 14.2334 15.5334 14.2158 15.3122 14.3098C15.0911 14.4039 14.9285 14.5981 14.8748 14.8323L13.6132 20.3323C13.5653 20.5413 13.6091 20.7607 13.7335 20.9353C13.8579 21.1098 14.051 21.2228 14.2642 21.2457L18.9201 21.7457C19.1364 21.7689 19.3521 21.6971 19.5113 21.5489C19.6705 21.4007 19.7575 21.1906 19.7497 20.9732L19.7318 20.4732L19.7311 20.4564L19.7304 20.4465C19.5978 18.5933 18.8026 16.8423 17.4803 15.5199C17.0297 15.0694 16.5293 14.68 15.9921 14.3571ZM12 16.75C12.4142 16.75 12.75 17.0858 12.75 17.5V20.5C12.75 20.9142 12.4142 21.25 12 21.25C11.5858 21.25 11.25 20.9142 11.25 20.5V17.5C11.25 17.0858 11.5858 16.75 12 16.75ZM12.75 15C12.75 14.5858 12.4142 14.25 12 14.25C11.5858 14.25 11.25 14.5858 11.25 15V15.5C11.25 15.9142 11.5858 16.25 12 16.25C12.4142 16.25 12.75 15.9142 12.75 15.5V15Z" fill="#23262A"/>
</svg>
