<svg width="24" height="24" viewBox="0 0 24 24" fill="none" xmlns="http://www.w3.org/2000/svg">
<path fill-rule="evenodd" clip-rule="evenodd" d="M12 3.75C9.92893 3.75 8.25 5.42893 8.25 7.5C8.25 9.57107 9.92893 11.25 12 11.25C14.0711 11.25 15.75 9.57107 15.75 7.5C15.75 5.42893 14.0711 3.75 12 3.75ZM6.75 7.5C6.75 4.60051 9.10051 2.25 12 2.25C14.8995 2.25 17.25 4.60051 17.25 7.5C17.25 10.3995 14.8995 12.75 12 12.75C9.10051 12.75 6.75 10.3995 6.75 7.5ZM12 15.75C10.6076 15.75 9.27225 16.3031 8.28769 17.2877C7.30312 18.2723 6.75 19.6076 6.75 21C6.75 21.4142 6.41421 21.75 6 21.75C5.58579 21.75 5.25 21.4142 5.25 21C5.25 19.2098 5.96116 17.4929 7.22703 16.227C8.4929 14.9612 10.2098 14.25 12 14.25C12.3795 14.25 12.7557 14.282 13.125 14.3444C13.5334 14.4134 13.8085 14.8005 13.7395 15.2089C13.6705 15.6173 13.2834 15.8924 12.875 15.8234C12.5878 15.7749 12.2952 15.75 12 15.75ZM20.5303 15.4696C19.6852 14.6244 18.3148 14.6244 17.4697 15.4696L14.9697 17.9696C14.865 18.0743 14.7936 18.2076 14.7646 18.3528L14.2646 20.8528C14.2154 21.0987 14.2924 21.3529 14.4697 21.5302C14.647 21.7076 14.9012 21.7845 15.1471 21.7353L17.6471 21.2353C17.7923 21.2063 17.9256 21.1349 18.0303 21.0302L20.5303 18.5302C21.3755 17.6851 21.3755 16.3148 20.5303 15.4696ZM18.5303 16.5302C18.7897 16.2708 19.2103 16.2708 19.4697 16.5302C19.7291 16.7896 19.7291 17.2102 19.4697 17.4696L17.1302 19.809L15.9561 20.0438L16.1909 18.8697L18.5303 16.5302Z" fill="#23262A"/>
</svg>
