<svg width="24" height="24" viewBox="0 0 24 24" fill="none" xmlns="http://www.w3.org/2000/svg">
<path fill-rule="evenodd" clip-rule="evenodd" d="M12 3.75C9.92893 3.75 8.25 5.42893 8.25 7.5C8.25 9.57107 9.92893 11.25 12 11.25C14.0711 11.25 15.75 9.57107 15.75 7.5C15.75 5.42893 14.0711 3.75 12 3.75ZM6.75 7.5C6.75 4.60051 9.10051 2.25 12 2.25C14.8995 2.25 17.25 4.60051 17.25 7.5C17.25 10.3995 14.8995 12.75 12 12.75C9.10051 12.75 6.75 10.3995 6.75 7.5ZM13.75 18.5C13.75 18.0858 14.0858 17.75 14.5 17.75H19.5C19.9142 17.75 20.25 18.0858 20.25 18.5C20.25 18.9142 19.9142 19.25 19.5 19.25H14.5C14.0858 19.25 13.75 18.9142 13.75 18.5ZM8.28769 17.2877C9.27225 16.3031 10.6076 15.75 12 15.75C12.4075 15.75 12.8101 15.7974 13.2004 15.8891C13.6036 15.9838 14.0073 15.7337 14.102 15.3304C14.1968 14.9272 13.9467 14.5235 13.5434 14.4288C13.0415 14.3109 12.5239 14.25 12 14.25C10.2098 14.25 8.4929 14.9612 7.22703 16.227C5.96116 17.4929 5.25 19.2098 5.25 21C5.25 21.4142 5.58579 21.75 6 21.75C6.41421 21.75 6.75 21.4142 6.75 21C6.75 19.6076 7.30312 18.2723 8.28769 17.2877Z" fill="#23262A"/>
</svg>
