<svg width="24" height="24" viewBox="0 0 24 24" fill="none" xmlns="http://www.w3.org/2000/svg">
<path fill-rule="evenodd" clip-rule="evenodd" d="M4.25 3.5C4.25 2.80964 4.80964 2.25 5.5 2.25H18.5C19.1904 2.25 19.75 2.80964 19.75 3.5V20.5C19.75 21.1904 19.1904 21.75 18.5 21.75H5.5C4.80964 21.75 4.25 21.1904 4.25 20.5V3.5ZM12 7.25C10.7574 7.25 9.75 8.25736 9.75 9.5C9.75 10.7426 10.7574 11.75 12 11.75C13.2426 11.75 14.25 10.7426 14.25 9.5C14.25 8.25736 13.2426 7.25 12 7.25ZM8.25 9.5C8.25 7.42893 9.92893 5.75 12 5.75C14.0711 5.75 15.75 7.42893 15.75 9.5C15.75 11.5711 14.0711 13.25 12 13.25C9.92893 13.25 8.25 11.5711 8.25 9.5ZM10.0553 16.5555C10.571 16.0397 11.2705 15.75 11.9999 15.75C12.7292 15.75 13.4287 16.0397 13.9444 16.5555C14.3666 16.9777 14.6374 17.523 14.7217 18.1071C14.7808 18.5171 15.1611 18.8015 15.5711 18.7423C15.9811 18.6831 16.2655 18.3028 16.2063 17.8929C16.076 16.9902 15.6576 16.1473 15.0051 15.4948C14.208 14.6978 13.127 14.25 11.9999 14.25C10.8727 14.25 9.79168 14.6978 8.99465 15.4948C8.34212 16.1473 7.92371 16.9902 7.79343 17.8929C7.73426 18.3028 8.01864 18.6831 8.42861 18.7423C8.83857 18.8015 9.21888 18.5171 9.27805 18.1071C9.36235 17.523 9.63312 16.9777 10.0553 16.5555Z" fill="#23262A"/>
</svg>
