<svg width="24" height="24" viewBox="0 0 24 24" fill="none" xmlns="http://www.w3.org/2000/svg">
<path fill-rule="evenodd" clip-rule="evenodd" d="M12 3.75C9.92893 3.75 8.25 5.42893 8.25 7.5C8.25 9.57107 9.92893 11.25 12 11.25C14.0711 11.25 15.75 9.57107 15.75 7.5C15.75 5.42893 14.0711 3.75 12 3.75ZM6.75 7.5C6.75 4.60051 9.10051 2.25 12 2.25C14.8995 2.25 17.25 4.60051 17.25 7.5C17.25 10.3995 14.8995 12.75 12 12.75C9.10051 12.75 6.75 10.3995 6.75 7.5ZM12 15.75C10.6076 15.75 9.27225 16.3031 8.28769 17.2877C7.30312 18.2723 6.75 19.6076 6.75 21C6.75 21.4142 6.41421 21.75 6 21.75C5.58579 21.75 5.25 21.4142 5.25 21C5.25 19.2098 5.96116 17.4929 7.22703 16.227C8.4929 14.9612 10.2098 14.25 12 14.25C12.4142 14.25 12.75 14.5858 12.75 15C12.75 15.4142 12.4142 15.75 12 15.75ZM16.4697 13.9697C16.7626 13.6768 17.2374 13.6768 17.5303 13.9697L21.5303 17.9697C21.8232 18.2626 21.8232 18.7374 21.5303 19.0303L19.5303 21.0303C19.2374 21.3232 18.7626 21.3232 18.4697 21.0303L17 19.5607L14.5303 22.0303C14.2374 22.3232 13.7626 22.3232 13.4697 22.0303C13.1768 21.7374 13.1768 21.2626 13.4697 20.9697L15.9393 18.5L14.4697 17.0303C14.1768 16.7374 14.1768 16.2626 14.4697 15.9697L16.4697 13.9697ZM19.9393 18.5L19 19.4393L16.0607 16.5L17 15.5607L19.9393 18.5Z" fill="#23262A"/>
</svg>
