<svg width="24" height="24" viewBox="0 0 24 24" fill="none" xmlns="http://www.w3.org/2000/svg">
<path fill-rule="evenodd" clip-rule="evenodd" d="M7.09147 6.75C6.93932 6.75 6.82204 6.61492 6.85185 6.46572C7.3322 4.06154 9.45454 2.25 12 2.25C14.8995 2.25 17.25 4.60051 17.25 7.5C17.25 10.3995 14.8995 12.75 12 12.75C10.7896 12.75 9.67494 12.3404 8.78695 11.6523C8.60993 11.5151 8.71413 11.25 8.93808 11.25H10.5C11.7426 11.25 12.75 10.2426 12.75 9C12.75 7.75736 11.7426 6.75 10.5 6.75H7.25H7.09147ZM7.22703 16.227C8.4929 14.9612 10.2098 14.25 12 14.25C13.7902 14.25 15.5071 14.9612 16.773 16.227C18.0388 17.4929 18.75 19.2098 18.75 21C18.75 21.1989 18.671 21.3897 18.5303 21.5303C18.3897 21.671 18.1989 21.75 18 21.75L6 21.75C5.80109 21.75 5.61032 21.671 5.46967 21.5303C5.32902 21.3897 5.25 21.1989 5.25 21C5.25 19.2098 5.96116 17.4929 7.22703 16.227ZM5 5.75C5.41421 5.75 5.75 6.08579 5.75 6.5V8.25H10.5C10.9142 8.25 11.25 8.58579 11.25 9C11.25 9.41421 10.9142 9.75 10.5 9.75H5C4.58579 9.75 4.25 9.41421 4.25 9V6.5C4.25 6.08579 4.58579 5.75 5 5.75ZM19.75 6.5C19.75 6.08579 19.4142 5.75 19 5.75C18.5858 5.75 18.25 6.08579 18.25 6.5V8.5C18.25 8.91421 18.5858 9.25 19 9.25C19.4142 9.25 19.75 8.91421 19.75 8.5V6.5Z" fill="#23262A"/>
</svg>
