<svg width="24" height="24" viewBox="0 0 24 24" fill="none" xmlns="http://www.w3.org/2000/svg">
<path fill-rule="evenodd" clip-rule="evenodd" d="M15.75 10.1893V5.75H21.25V9.25H17C16.8011 9.25 16.6103 9.32902 16.4697 9.46967L15.75 10.1893ZM15.5 4.25C14.8096 4.25 14.25 4.80964 14.25 5.5V12C14.25 12.3033 14.4327 12.5768 14.713 12.6929C14.9932 12.809 15.3158 12.7448 15.5303 12.5303L17.3107 10.75H21.5C22.1904 10.75 22.75 10.1904 22.75 9.5V5.5C22.75 4.80964 22.1904 4.25 21.5 4.25H15.5ZM8.49997 6.25C6.98119 6.25 5.74997 7.48122 5.74997 9C5.74997 10.5188 6.98119 11.75 8.49997 11.75C10.0188 11.75 11.25 10.5188 11.25 9C11.25 7.48122 10.0188 6.25 8.49997 6.25ZM4.24997 9C4.24997 6.65279 6.15276 4.75 8.49997 4.75C10.8472 4.75 12.75 6.65279 12.75 9C12.75 11.3472 10.8472 13.25 8.49997 13.25C6.15276 13.25 4.24997 11.3472 4.24997 9ZM8.49996 15.75C7.5054 15.75 6.55157 16.1451 5.84831 16.8483C5.24398 17.4527 4.8672 18.2421 4.77317 19.0833C4.72715 19.495 4.35614 19.7914 3.94449 19.7454C3.53284 19.6993 3.23644 19.3283 3.28245 18.9167C3.41409 17.7389 3.94155 16.6338 4.78765 15.7877C5.77221 14.8031 7.10757 14.25 8.49996 14.25C9.89234 14.25 11.2277 14.8031 12.2123 15.7877C13.0584 16.6338 13.5858 17.7389 13.7175 18.9167C13.7635 19.3283 13.4671 19.6993 13.0554 19.7454C12.6438 19.7914 12.2728 19.495 12.2268 19.0833C12.1327 18.2421 11.7559 17.4527 11.1516 16.8483C10.4483 16.1451 9.49452 15.75 8.49996 15.75Z" fill="#23262A"/>
</svg>
