<svg width="24" height="24" viewBox="0 0 24 24" fill="none" xmlns="http://www.w3.org/2000/svg">
<path fill-rule="evenodd" clip-rule="evenodd" d="M12 2.25C9.10051 2.25 6.75 4.60051 6.75 7.5C6.75 10.3995 9.10051 12.75 12 12.75C14.8995 12.75 17.25 10.3995 17.25 7.5C17.25 4.60051 14.8995 2.25 12 2.25ZM12 14.25C10.2098 14.25 8.4929 14.9612 7.22703 16.227C5.96116 17.4929 5.25 19.2098 5.25 21C5.25 21.1989 5.32902 21.3897 5.46967 21.5303C5.61032 21.671 5.80109 21.75 6 21.75L12.6571 21.75C12.8706 21.75 12.9905 21.4954 12.87 21.3191C12.321 20.5165 12 19.5458 12 18.5C12 17.0616 12.6074 15.765 13.5798 14.8528C13.7281 14.7136 13.6782 14.4588 13.4798 14.4142C12.9978 14.3059 12.5018 14.25 12 14.25ZM14.5 17.75C14.0858 17.75 13.75 18.0858 13.75 18.5C13.75 18.9142 14.0858 19.25 14.5 19.25H19.5C19.9142 19.25 20.25 18.9142 20.25 18.5C20.25 18.0858 19.9142 17.75 19.5 17.75H14.5Z" fill="#23262A"/>
</svg>
