<svg width="24" height="24" viewBox="0 0 24 24" fill="none" xmlns="http://www.w3.org/2000/svg">
<path fill-rule="evenodd" clip-rule="evenodd" d="M12 3.75C9.92893 3.75 8.25 5.42893 8.25 7.5C8.25 9.57107 9.92893 11.25 12 11.25C14.0711 11.25 15.75 9.57107 15.75 7.5C15.75 5.42893 14.0711 3.75 12 3.75ZM6.75 7.5C6.75 4.60051 9.10051 2.25 12 2.25C14.8995 2.25 17.25 4.60051 17.25 7.5C17.25 10.3995 14.8995 12.75 12 12.75C9.10051 12.75 6.75 10.3995 6.75 7.5ZM12 15.75C10.6076 15.75 9.27225 16.3031 8.28769 17.2877C7.30312 18.2723 6.75 19.6076 6.75 21C6.75 21.4142 6.41421 21.75 6 21.75C5.58579 21.75 5.25 21.4142 5.25 21C5.25 19.2098 5.96116 17.4929 7.22703 16.227C8.4929 14.9612 10.2098 14.25 12 14.25C12.3795 14.25 12.7557 14.282 13.125 14.3444C13.5334 14.4134 13.8085 14.8005 13.7395 15.2089C13.6705 15.6173 13.2834 15.8924 12.875 15.8234C12.5878 15.7749 12.2952 15.75 12 15.75ZM19.0303 16.4697C19.3232 16.7626 19.3232 17.2374 19.0303 17.5303L18.0607 18.5L19.0303 19.4697C19.3232 19.7626 19.3232 20.2374 19.0303 20.5303C18.7374 20.8232 18.2626 20.8232 17.9697 20.5303L17 19.5607L16.0303 20.5303C15.7374 20.8232 15.2626 20.8232 14.9697 20.5303C14.6768 20.2374 14.6768 19.7626 14.9697 19.4697L15.9393 18.5L14.9697 17.5303C14.6768 17.2374 14.6768 16.7626 14.9697 16.4697C15.2626 16.1768 15.7374 16.1768 16.0303 16.4697L17 17.4393L17.9697 16.4697C18.2626 16.1768 18.7374 16.1768 19.0303 16.4697Z" fill="#23262A"/>
</svg>
