<svg width="24" height="24" viewBox="0 0 24 24" fill="none" xmlns="http://www.w3.org/2000/svg">
<path fill-rule="evenodd" clip-rule="evenodd" d="M8.25 7.5C8.25 5.42893 9.92893 3.75 12 3.75C14.0711 3.75 15.75 5.42893 15.75 7.5C15.75 9.57107 14.0711 11.25 12 11.25C9.92893 11.25 8.25 9.57107 8.25 7.5ZM12 2.25C9.10051 2.25 6.75 4.60051 6.75 7.5C6.75 10.3995 9.10051 12.75 12 12.75C14.8995 12.75 17.25 10.3995 17.25 7.5C17.25 4.60051 14.8995 2.25 12 2.25ZM8.28769 17.2877C9.27225 16.3031 10.6076 15.75 12 15.75C13.3924 15.75 14.7277 16.3031 15.7123 17.2877C16.6969 18.2723 17.25 19.6076 17.25 21C17.25 21.4142 17.5858 21.75 18 21.75C18.4142 21.75 18.75 21.4142 18.75 21C18.75 19.2098 18.0388 17.4929 16.773 16.227C15.5071 14.9612 13.7902 14.25 12 14.25C10.2098 14.25 8.4929 14.9612 7.22703 16.227C5.96116 17.4929 5.25 19.2098 5.25 21C5.25 21.4142 5.58579 21.75 6 21.75C6.41421 21.75 6.75 21.4142 6.75 21C6.75 19.6076 7.30312 18.2723 8.28769 17.2877Z" fill="#23262A"/>
</svg>
