<svg width="24" height="24" viewBox="0 0 24 24" fill="none" xmlns="http://www.w3.org/2000/svg">
<path fill-rule="evenodd" clip-rule="evenodd" d="M14.5 4.25C13.8096 4.25 13.25 4.80964 13.25 5.5V12C13.25 12.3033 13.4327 12.5768 13.713 12.6929C13.9932 12.809 14.3158 12.7448 14.5303 12.5303L16.3107 10.75H20.5C21.1904 10.75 21.75 10.1904 21.75 9.5V5.5C21.75 4.80964 21.1904 4.25 20.5 4.25H14.5ZM3.25 10C3.25 7.65279 5.15279 5.75 7.5 5.75C9.84721 5.75 11.75 7.65279 11.75 10C11.75 12.3472 9.84721 14.25 7.5 14.25C5.15279 14.25 3.25 12.3472 3.25 10ZM3.78768 16.7877C4.77224 15.8031 6.1076 15.25 7.49999 15.25C8.89237 15.25 10.2277 15.8031 11.2123 16.7877C12.0584 17.6338 12.5859 18.7389 12.7175 19.9167C12.7412 20.1288 12.6734 20.3409 12.5311 20.5C12.3889 20.6591 12.1856 20.75 11.9721 20.75H3.02784C2.81442 20.75 2.61111 20.6591 2.46883 20.5C2.32654 20.3409 2.25877 20.1288 2.28248 19.9167C2.41412 18.7389 2.94158 17.6338 3.78768 16.7877Z" fill="#262626"/>
</svg>
