<svg width="24" height="24" viewBox="0 0 24 24" fill="none" xmlns="http://www.w3.org/2000/svg">
<path fill-rule="evenodd" clip-rule="evenodd" d="M6.11614 2.82315C6.6043 2.33499 7.39575 2.33499 7.88391 2.82315L11.6768 6.61604C12.165 7.1042 12.165 7.89565 11.6768 8.38381L10.0607 9.99992L14 13.9393L15.6161 12.3231C16.1043 11.835 16.8958 11.835 17.3839 12.3231L21.1768 16.116C21.665 16.6042 21.665 17.3957 21.1768 17.8838L18.3958 20.6648C17.6586 21.402 16.553 21.6289 15.585 21.2417C9.73437 18.9014 5.09851 14.2656 2.75824 8.41492C2.37105 7.44692 2.59798 6.34131 3.33519 5.6041L6.11614 2.82315L6.64647 3.35348L6.11614 2.82315ZM7.00002 4.06059L4.39585 6.66476C4.08293 6.97767 3.98661 7.44696 4.15096 7.85783C6.33876 13.3273 10.6726 17.6612 16.1421 19.849C16.553 20.0133 17.0223 19.917 17.3352 19.6041L19.9394 16.9999L16.5 13.5606L14.5304 15.5303C14.2375 15.8231 13.7626 15.8231 13.4697 15.5303L8.46969 10.5303C8.1768 10.2374 8.1768 9.76249 8.46969 9.46959L10.4394 7.49992L7.00002 4.06059Z" fill="#23262A"/>
</svg>
