<svg width="24" height="24" viewBox="0 0 24 24" fill="none" xmlns="http://www.w3.org/2000/svg">
<path d="M15.6164 12.3234C16.1046 11.8353 16.8958 11.8353 17.384 12.3234L21.1769 16.1164C21.6649 16.6046 21.665 17.3959 21.1769 17.884L18.3957 20.6652C17.6585 21.4022 16.553 21.6285 15.5851 21.2414C13.5719 20.4361 11.7041 19.357 10.0226 18.0519C9.90472 17.9604 9.89462 17.7864 10.0002 17.6808L13.7424 13.9396C13.8136 13.8684 13.929 13.8684 14.0002 13.9396L15.6164 12.3234ZM18.2746 5.16522C18.5675 4.87256 19.0423 4.87241 19.3351 5.16522C19.6278 5.45805 19.6278 5.93291 19.3351 6.22577L5.03046 20.5305C4.73762 20.8233 4.26281 20.8232 3.96991 20.5305C3.67702 20.2376 3.67703 19.7628 3.96991 19.4699L18.2746 5.16522ZM6.11639 2.82343C6.60455 2.33529 7.39582 2.33528 7.88397 2.82343L11.6769 6.61639C12.1649 7.10456 12.165 7.89589 11.6769 8.38397L10.0607 10.0002L10.5129 10.4523C10.6105 10.55 10.6105 10.7082 10.5129 10.8058L6.76288 14.5549C6.6596 14.6581 6.48991 14.6516 6.39667 14.5392C4.88828 12.7162 3.65398 10.6551 2.758 8.41522C2.37081 7.44726 2.59799 6.3409 3.33514 5.6037L6.11639 2.82343Z" fill="#202733"/>
</svg>
