<svg width="24" height="24" viewBox="0 0 24 24" fill="none" xmlns="http://www.w3.org/2000/svg">
<path d="M5.20338 4.77244C5.69995 4.27551 6.50465 4.27552 7.00123 4.77244L10.4817 8.25486C10.978 8.75174 10.978 9.55681 10.4817 10.0537L9.011 11.5254L12.8313 15.3476L14.302 13.8769C14.7986 13.3802 15.6033 13.3802 16.0999 13.8769L19.2297 17.0088C19.7263 17.5057 19.7263 18.3116 19.2297 18.8086L16.7717 21.2695C15.9968 22.045 14.8057 22.223 13.8381 21.708L11.3635 20.3896C7.92226 18.5574 5.12439 15.7139 3.34694 12.2422L2.27467 10.1484C1.78142 9.18501 1.96495 8.01254 2.72975 7.24705L5.20338 4.77244ZM3.80885 8.32712C3.5125 8.62391 3.44099 9.07867 3.63209 9.45212L4.70436 11.5459C6.33963 14.7399 8.91432 17.3563 12.0803 19.042L14.554 20.3594C14.9292 20.5591 15.3921 20.4902 15.6926 20.1894L17.971 17.9092L15.2005 15.1367L13.3704 16.9677C13.0725 17.2656 12.5901 17.2656 12.2922 16.9677L7.39284 12.0654C7.09489 11.7672 7.09489 11.2835 7.39284 10.9853L9.22291 9.15427L6.1028 6.0322L3.80885 8.32712ZM12.5198 2.03123C15.1966 1.833 17.7522 2.57398 19.5891 4.41209C21.4261 6.25041 22.1672 8.80829 21.969 11.4873C21.9376 11.9074 21.5715 12.2222 21.1516 12.1914C20.7318 12.16 20.4167 11.7941 20.4475 11.374C20.62 9.04017 19.9703 6.95274 18.511 5.49216C17.0515 4.03157 14.9654 3.38104 12.6331 3.55369C12.2132 3.58471 11.8472 3.26967 11.8157 2.84959C11.7846 2.42926 12.0999 2.06265 12.5198 2.03123ZM13.6438 5.98826C14.8638 5.96973 15.9043 6.4827 16.7122 7.29099C17.5201 8.09947 18.0334 9.14124 18.0149 10.3623C18.0083 10.7836 17.6615 11.1204 17.2405 11.1142C16.8195 11.1077 16.4825 10.7611 16.4885 10.3398C16.4999 9.59681 16.1987 8.93711 15.6331 8.37107C15.0675 7.80517 14.4086 7.50328 13.6663 7.51462C13.2453 7.52069 12.8993 7.18406 12.8928 6.76267C12.8867 6.34138 13.2228 5.99483 13.6438 5.98826Z" fill="#202733"/>
</svg>
