<svg width="24" height="24" viewBox="0 0 24 24" fill="none" xmlns="http://www.w3.org/2000/svg">
<path d="M15.7112 12.2377C16.1694 11.8643 16.8302 11.8643 17.2884 12.2377L17.3841 12.3237L21.1771 16.1166C21.6647 16.6048 21.6648 17.3962 21.1771 17.8842L18.3958 20.6655C17.6587 21.4022 16.553 21.6295 15.5853 21.2426C13.6561 20.4709 11.8581 19.4494 10.2318 18.2172C9.90177 17.9672 9.83754 17.4966 10.0872 17.1665C10.3373 16.8363 10.8078 16.7709 11.138 17.0209C12.6583 18.1728 14.3384 19.1276 16.1419 19.8491C16.5526 20.0133 17.0224 19.9175 17.3353 19.6049L19.9388 17.0004L16.4993 13.561L14.5306 15.5307C14.2377 15.8232 13.7619 15.8234 13.4691 15.5307L13.1234 15.185C12.8309 14.8923 12.8312 14.4173 13.1234 14.1245C13.3508 13.897 13.6877 13.8482 13.9642 13.9741L15.6155 12.3237L15.7112 12.2377ZM18.2737 5.16547C18.5666 4.87258 19.0424 4.87258 19.3353 5.16547C19.6277 5.45834 19.6279 5.93323 19.3353 6.22602L5.03058 20.5307C4.7378 20.8234 4.26293 20.8232 3.97003 20.5307C3.67714 20.2378 3.67714 19.7621 3.97003 19.4692L18.2737 5.16547ZM6.11554 2.82368C6.57311 2.36611 7.29743 2.33751 7.78839 2.73774L7.88409 2.82368L11.6771 6.61665C12.1647 7.10476 12.1648 7.89619 11.6771 8.38422L10.0609 10.0004L10.3392 10.2788C10.6318 10.5716 10.6318 11.0464 10.3392 11.3393C10.0463 11.6318 9.57142 11.6319 9.27863 11.3393L8.46906 10.5307C8.17658 10.238 8.17684 9.76303 8.46906 9.47016L10.4388 7.50043L6.99933 4.06098L4.39581 6.66547C4.0833 6.97829 3.98662 7.44724 4.1507 7.85786C4.95176 9.86043 6.04069 11.7114 7.36749 13.3598C7.62697 13.6824 7.57649 14.1548 7.25421 14.4145C6.93173 14.6738 6.45925 14.6233 6.19952 14.3012C4.78011 12.5378 3.61504 10.5576 2.75812 8.41547C2.37099 7.44764 2.59836 6.34213 3.33527 5.60493L6.11554 2.82368Z" fill="#202733"/>
</svg>
