<svg width="24" height="24" viewBox="0 0 24 24" fill="none" xmlns="http://www.w3.org/2000/svg">
<path fill-rule="evenodd" clip-rule="evenodd" d="M12 2.25C6.61522 2.25 2.25 6.61522 2.25 12C2.25 17.3848 6.61522 21.75 12 21.75C17.3848 21.75 21.75 17.3848 21.75 12C21.75 6.61522 17.3848 2.25 12 2.25ZM11.25 3.78363C7.04513 4.16255 3.75 7.69647 3.75 12C3.75 16.5563 7.44365 20.25 12 20.25C14.0081 20.25 15.8487 19.5325 17.2793 18.34L11.4697 12.5303C11.329 12.3897 11.25 12.1989 11.25 12V3.78363ZM18.34 17.2793C19.5325 15.8487 20.25 14.0081 20.25 12C20.25 7.69647 16.9549 4.16255 12.75 3.78363V11.6893L18.34 17.2793Z" fill="#23262A"/>
</svg>
