<svg width="24" height="24" viewBox="0 0 24 24" fill="none" xmlns="http://www.w3.org/2000/svg">
<path fill-rule="evenodd" clip-rule="evenodd" d="M10.9808 2.30263C11.1256 2.28759 11.25 2.40262 11.25 2.54816V12C11.25 12.1989 11.329 12.3897 11.4697 12.5303L18.1528 19.2135C18.2558 19.3164 18.2495 19.4855 18.1364 19.5772C16.4607 20.9359 14.3254 21.75 12 21.75C6.61522 21.75 2.25 17.3848 2.25 12C2.25 6.95941 6.07502 2.81221 10.9808 2.30263ZM13.0192 2.30263C12.8744 2.28759 12.75 2.40262 12.75 2.54816V11.5858C12.75 11.6521 12.7763 11.7157 12.8232 11.7626L19.2135 18.1528C19.3164 18.2558 19.4855 18.2495 19.5772 18.1364C20.9359 16.4607 21.75 14.3254 21.75 12C21.75 6.95941 17.925 2.81221 13.0192 2.30263Z" fill="#23262A"/>
</svg>
