<svg width="24" height="24" viewBox="0 0 24 24" fill="none" xmlns="http://www.w3.org/2000/svg">
<path fill-rule="evenodd" clip-rule="evenodd" d="M7.58136 2.37772C7.7885 2.23837 8.05139 2.21122 8.28264 2.3053L11.0696 3.43914C11.6914 3.31522 12.3375 3.25 13 3.25C17.7353 3.25 21.75 6.62886 21.75 11C21.75 13.7706 20.137 16.1426 17.75 17.5082V20.5C17.75 20.9142 17.4142 21.25 17 21.25C16.5858 21.25 16.25 20.9142 16.25 20.5V18.1954C15.2391 18.554 14.1405 18.75 13 18.75C11.8561 18.75 10.7583 18.555 9.75 18.198V20.5C9.75 20.9142 9.41421 21.25 9 21.25C8.58579 21.25 8.25 20.9142 8.25 20.5V17.511C7.04663 16.8218 6.04225 15.8755 5.3394 14.75H3C2.58579 14.75 2.25 14.4142 2.25 14V8.5C2.25 8.08579 2.58579 7.75 3 7.75H5.05333C5.57674 6.74644 6.33181 5.86549 7.25 5.15637V3C7.25 2.75035 7.37422 2.51707 7.58136 2.37772ZM15.6648 8.67083C13.8759 7.77639 12.1244 7.77639 10.3356 8.67082C9.96509 8.85606 9.51459 8.7059 9.32934 8.33541C9.1441 7.96493 9.29427 7.51442 9.66475 7.32918C11.8759 6.2236 14.1244 6.22361 16.3356 7.32919C16.7061 7.51444 16.8562 7.96494 16.671 8.33542C16.4857 8.70591 16.0352 8.85607 15.6648 8.67083Z" fill="#23262A"/>
</svg>
