<svg width="24" height="24" viewBox="0 0 24 24" fill="none" xmlns="http://www.w3.org/2000/svg">
<path fill-rule="evenodd" clip-rule="evenodd" d="M8.28264 2.3053C8.05139 2.21122 7.7885 2.23837 7.58136 2.37772C7.37422 2.51707 7.25 2.75035 7.25 3V5.15637C6.33181 5.86549 5.57674 6.74644 5.05333 7.75H3C2.58579 7.75 2.25 8.08579 2.25 8.5V14C2.25 14.4142 2.58579 14.75 3 14.75H5.3394C6.04225 15.8755 7.04663 16.8218 8.25 17.511V20.5C8.25 20.9142 8.58579 21.25 9 21.25C9.41421 21.25 9.75 20.9142 9.75 20.5V18.198C10.7583 18.555 11.8561 18.75 13 18.75C14.1405 18.75 15.2391 18.554 16.25 18.1954V20.5C16.25 20.9142 16.5858 21.25 17 21.25C17.4142 21.25 17.75 20.9142 17.75 20.5V17.5082C20.137 16.1426 21.75 13.7706 21.75 11C21.75 6.62886 17.7353 3.25 13 3.25C12.3375 3.25 11.6914 3.31522 11.0696 3.43914L8.28264 2.3053ZM8.75 4.11483L10.7174 4.91524C10.8592 4.97296 11.0154 4.98586 11.1648 4.95221C11.75 4.82041 12.3649 4.75 13 4.75C17.1013 4.75 20.25 7.63916 20.25 11C20.25 14.3608 17.1013 17.25 13 17.25C10.0565 17.25 7.56927 15.7425 6.42899 13.6422C6.29779 13.4005 6.04485 13.25 5.76986 13.25H3.75V9.25H5.52529C5.82335 9.25 6.09313 9.0735 6.21251 8.80039C6.66509 7.76498 7.43322 6.84896 8.43068 6.14932C8.63084 6.00892 8.75 5.77979 8.75 5.5353V4.11483ZM10.3354 8.67082C12.1243 7.77639 13.8757 7.77639 15.6646 8.67083C16.0351 8.85607 16.4856 8.70591 16.6708 8.33542C16.8561 7.96494 16.7059 7.51444 16.3354 7.32919C14.1243 6.22361 11.8757 6.2236 9.66458 7.32918C9.2941 7.51442 9.14393 7.96493 9.32918 8.33541C9.51442 8.7059 9.96492 8.85606 10.3354 8.67082Z" fill="#23262A"/>
</svg>
