<svg width="24" height="24" viewBox="0 0 24 24" fill="none" xmlns="http://www.w3.org/2000/svg">
<path fill-rule="evenodd" clip-rule="evenodd" d="M6.04659 11.4936C3.84094 10.6908 2.70369 8.25201 3.50649 6.04635C4.30928 3.84069 6.74811 2.70345 8.95377 3.50624C11.1594 4.30904 12.2967 6.74787 11.4939 8.95352C10.6911 11.1592 8.25225 12.2964 6.04659 11.4936ZM9.6139 6.73051C9.75556 7.11974 9.55487 7.55012 9.16564 7.69179L6.34656 8.71785C5.95733 8.85952 5.52695 8.65883 5.38528 8.2696C5.24361 7.88036 5.4443 7.44998 5.83353 7.30831L8.65261 6.28225C9.04184 6.14058 9.47223 6.34127 9.6139 6.73051ZM14.8841 7.81271C16.3486 6.34824 18.7229 6.34824 20.1874 7.81271C21.6519 9.27716 21.6519 11.6515 20.1874 13.116L17.3584 15.9452C17.2608 16.0428 17.1025 16.0428 17.0049 15.9452L12.0551 10.9954C11.9575 10.8978 11.9575 10.7395 12.0551 10.6419L14.8841 7.81271ZM15.9442 17.0059C16.0419 17.1035 16.0419 17.2618 15.9442 17.3594L13.1165 20.1872C11.652 21.6516 9.27766 21.6516 7.81319 20.1872C6.34873 18.7227 6.34873 16.3483 7.81319 14.8839L10.6409 12.0561C10.7386 11.9585 10.8969 11.9585 10.9945 12.0561L15.9442 17.0059Z" fill="#23262A"/>
</svg>
