<svg width="24" height="24" viewBox="0 0 24 24" fill="none" xmlns="http://www.w3.org/2000/svg">
<path fill-rule="evenodd" clip-rule="evenodd" d="M8.44068 4.91579C7.0135 4.39633 5.43543 5.1322 4.91597 6.55939C4.39652 7.98658 5.13238 9.56464 6.55957 10.0841C7.98676 10.6036 9.56483 9.86769 10.0843 8.4405C10.6037 7.01331 9.86787 5.43524 8.44068 4.91579ZM3.50644 6.04636C4.30923 3.8407 6.74806 2.70346 8.95371 3.50625C11.1594 4.30904 12.2966 6.74787 11.4938 8.95353C10.691 11.1592 8.2522 12.2964 6.04654 11.4936C3.84089 10.6908 2.70364 8.25201 3.50644 6.04636ZM20.1874 7.8127C18.7229 6.34823 16.3486 6.34823 14.8841 7.8127L14.8841 7.81272L11.3487 11.3483L11.3487 11.3483L7.81319 14.8839C6.34873 16.3483 6.34873 18.7227 7.81319 20.1872C9.27766 21.6516 11.652 21.6516 13.1165 20.1872L16.652 16.6516L16.652 16.6516L20.1874 13.116L20.1874 13.116C21.6519 11.6515 21.6519 9.27716 20.1874 7.8127ZM15.9448 8.87336L15.9448 8.87334C16.8235 7.99468 18.2481 7.99468 19.1268 8.87336C20.0054 9.75204 20.0054 11.1767 19.1268 12.0553L19.1267 12.0554L16.1216 15.0607L12.9396 11.8787L15.9448 8.87336ZM11.879 12.9394L8.87385 15.9445C7.99517 16.8232 7.99517 18.2478 8.87385 19.1265C9.75253 20.0052 11.1772 20.0052 12.0558 19.1265L15.061 16.1214L11.879 12.9394ZM9.16576 7.69191C9.555 7.55024 9.75569 7.11986 9.61402 6.73062C9.47235 6.34139 9.04197 6.1407 8.65273 6.28237L5.83366 7.30843C5.44442 7.4501 5.24373 7.88048 5.3854 8.26971C5.52707 8.65895 5.95745 8.85964 6.34669 8.71797L9.16576 7.69191Z" fill="#23262A"/>
</svg>
