<svg width="24" height="24" viewBox="0 0 24 24" fill="none" xmlns="http://www.w3.org/2000/svg">
<path fill-rule="evenodd" clip-rule="evenodd" d="M18.8943 5.10567C17.4298 3.64121 15.0555 3.64121 13.591 5.10567L10.0554 8.64123C9.95782 8.73887 9.95782 8.89716 10.0554 8.99479L15.0052 13.9445C15.1028 14.0422 15.2611 14.0422 15.3587 13.9445L18.8943 10.409C20.3588 8.94451 20.3588 6.57014 18.8943 5.10567ZM13.9445 15.3587C14.0422 15.2611 14.0422 15.1028 13.9445 15.0052L8.99479 10.0554C8.89716 9.95782 8.73886 9.95782 8.64123 10.0554L5.10567 13.591C3.64121 15.0555 3.64121 17.4298 5.10567 18.8943C6.57014 20.3588 8.94451 20.3588 10.409 18.8943L13.9445 15.3587Z" fill="#23262A"/>
</svg>
