<svg width="24" height="24" viewBox="0 0 24 24" fill="none" xmlns="http://www.w3.org/2000/svg">
<path fill-rule="evenodd" clip-rule="evenodd" d="M8.44071 4.91578C7.01352 4.39633 5.43545 5.13219 4.916 6.55938C4.39655 7.98657 5.13241 9.56464 6.5596 10.0841C7.98679 10.6035 9.56485 9.86768 10.0843 8.44049C10.6038 7.0133 9.8679 5.43524 8.44071 4.91578ZM3.50646 6.04635C4.30925 3.84069 6.74808 2.70345 8.95374 3.50624C11.1594 4.30904 12.2966 6.74787 11.4938 8.95352C10.6911 11.1592 8.25223 12.2964 6.04657 11.4936C3.84091 10.6908 2.70367 8.25201 3.50646 6.04635ZM20.1874 7.81269C18.723 6.34822 16.3486 6.34822 14.8841 7.81269L14.8841 7.81271L11.3488 11.3483L11.3487 11.3483L7.81322 14.8839C6.34875 16.3483 6.34875 18.7227 7.81322 20.1872C9.27768 21.6516 11.6521 21.6516 13.1165 20.1872L16.6521 16.6516L16.6521 16.6516L20.1874 13.116L20.1875 13.116C21.6519 11.6515 21.6519 9.27715 20.1874 7.81269ZM15.9448 8.87335L15.9448 8.87333C16.8235 7.99467 18.2481 7.99468 19.1268 8.87335C20.0055 9.75203 20.0055 11.1767 19.1268 12.0553L19.1268 12.0553L16.1216 15.0607L12.9396 11.8787L15.9448 8.87335ZM11.879 12.9394L8.87388 15.9445C7.9952 16.8232 7.9952 18.2478 8.87388 19.1265C9.75256 20.0052 11.1772 20.0052 12.0559 19.1265L15.061 16.1214L11.879 12.9394ZM9.16579 7.6919C9.55502 7.55023 9.75571 7.11985 9.61404 6.73062C9.47237 6.34138 9.04199 6.14069 8.65276 6.28236L5.83368 7.30842C5.44445 7.45009 5.24376 7.88047 5.38543 8.26971C5.5271 8.65894 5.95748 8.85963 6.34671 8.71796L9.16579 7.6919Z" fill="#262626"/>
</svg>
