<svg width="24" height="24" viewBox="0 0 24 24" fill="none" xmlns="http://www.w3.org/2000/svg">
<path fill-rule="evenodd" clip-rule="evenodd" d="M6.75 12C6.75 9.10051 9.10051 6.75 12 6.75C14.8995 6.75 17.25 9.10051 17.25 12C17.25 14.8995 14.8995 17.25 12 17.25C9.10051 17.25 6.75 14.8995 6.75 12ZM12 5.25C8.27208 5.25 5.25 8.27208 5.25 12C5.25 15.7279 8.27208 18.75 12 18.75C15.7279 18.75 18.75 15.7279 18.75 12C18.75 8.27208 15.7279 5.25 12 5.25ZM16.0153 11.3368C16.4045 11.1951 16.6052 10.7648 16.4635 10.3755C16.3218 9.98629 15.8915 9.7856 15.5022 9.92727L7.98469 12.6634C7.59546 12.8051 7.39477 13.2355 7.53644 13.6247C7.67811 14.0139 8.10849 14.2146 8.49772 14.073L16.0153 11.3368Z" fill="#23262A"/>
</svg>
