<svg width="24" height="24" viewBox="0 0 24 24" fill="none" xmlns="http://www.w3.org/2000/svg">
<path fill-rule="evenodd" clip-rule="evenodd" d="M8.44068 4.91578C7.0135 4.39633 5.43543 5.13219 4.91597 6.55938C4.39652 7.98657 5.13238 9.56464 6.55957 10.0841C7.98676 10.6035 9.56483 9.86768 10.0843 8.44049C10.6037 7.0133 9.86787 5.43524 8.44068 4.91578ZM3.50644 6.04635C4.30923 3.84069 6.74806 2.70345 8.95371 3.50624C11.1594 4.30904 12.2966 6.74787 11.4938 8.95352C10.691 11.1592 8.2522 12.2964 6.04654 11.4936C3.84089 10.6908 2.70364 8.25201 3.50644 6.04635ZM9.61402 6.73063C9.75569 7.11986 9.555 7.55024 9.16576 7.69191L6.34669 8.71797C5.95745 8.85964 5.52707 8.65895 5.3854 8.26972C5.24373 7.88048 5.44442 7.4501 5.83366 7.30843L8.65273 6.28237C9.04197 6.1407 9.47235 6.34139 9.61402 6.73063ZM14.8841 7.81271C16.3486 6.34824 18.7229 6.34824 20.1874 7.81271C21.6519 9.27716 21.6519 11.6515 20.1874 13.116L13.1165 20.1872C11.652 21.6516 9.27766 21.6516 7.81319 20.1872C6.34873 18.7227 6.34873 16.3483 7.81319 14.8839L14.8841 7.81271ZM15.9448 8.87337L12.9396 11.8787L16.1216 15.0606L19.1267 12.0554C20.0054 11.1767 20.0054 9.75204 19.1267 8.87337C18.2481 7.99469 16.8235 7.9947 15.9448 8.87337ZM8.87385 15.9445L11.8789 12.9393L15.0609 16.1213L12.0558 19.1265C11.1772 20.0052 9.75253 20.0052 8.87385 19.1265C7.99517 18.2478 7.99517 16.8232 8.87385 15.9445Z" fill="#23262A"/>
</svg>
