<svg width="24" height="24" viewBox="0 0 24 24" fill="none" xmlns="http://www.w3.org/2000/svg">
<path fill-rule="evenodd" clip-rule="evenodd" d="M18.8943 5.10567C17.4298 3.64121 15.0555 3.64121 13.591 5.10567L5.10567 13.591C3.64121 15.0555 3.64121 17.4298 5.10567 18.8943C6.57014 20.3588 8.94451 20.3588 10.409 18.8943L18.8943 10.409C20.3588 8.94451 20.3588 6.57014 18.8943 5.10567ZM14.6517 6.16633C15.5303 5.28765 16.955 5.28765 17.8336 6.16633C18.7123 7.04501 18.7123 8.46964 17.8336 9.34831L14.1214 13.0605L10.9395 9.87855L14.6517 6.16633ZM9.87879 10.9392L6.16633 14.6517C5.28765 15.5303 5.28765 16.955 6.16633 17.8336C7.04501 18.7123 8.46964 18.7123 9.34831 17.8336L13.0608 14.1212L9.87879 10.9392Z" fill="#23262A"/>
</svg>
