<svg width="24" height="24" viewBox="0 0 24 24" fill="none" xmlns="http://www.w3.org/2000/svg">
<path fill-rule="evenodd" clip-rule="evenodd" d="M3 5.25C2.58579 5.25 2.25 5.58579 2.25 6V18C2.25 18.4142 2.58579 18.75 3 18.75H21C21.4142 18.75 21.75 18.4142 21.75 18V6C21.75 5.58579 21.4142 5.25 21 5.25H3ZM3.75 17.25V6.75H20.25V17.25H3.75ZM12 10.5C11.1716 10.5 10.5 11.1716 10.5 12C10.5 12.8284 11.1716 13.5 12 13.5C12.8284 13.5 13.5 12.8284 13.5 12C13.5 11.1716 12.8284 10.5 12 10.5ZM15.375 12C15.375 11.1716 16.0466 10.5 16.875 10.5C17.7034 10.5 18.375 11.1716 18.375 12C18.375 12.8284 17.7034 13.5 16.875 13.5C16.0466 13.5 15.375 12.8284 15.375 12ZM7.125 10.5C6.29657 10.5 5.625 11.1716 5.625 12C5.625 12.8284 6.29657 13.5 7.125 13.5C7.95343 13.5 8.625 12.8284 8.625 12C8.625 11.1716 7.95343 10.5 7.125 10.5Z" fill="#23262A"/>
</svg>
