<svg width="24" height="24" viewBox="0 0 24 24" fill="none" xmlns="http://www.w3.org/2000/svg">
<path fill-rule="evenodd" clip-rule="evenodd" d="M12.7572 21.2567C12.8684 21.1193 13.0282 20.9217 13.223 20.6811C13.6126 20.2 14.1419 19.5472 14.7008 18.8601C15.8231 17.4805 17.0518 15.9788 17.5174 15.4403C20.2796 12.2453 20.5383 7.57786 17.4804 4.51992C14.4538 1.49336 9.54679 1.49336 6.52022 4.51992C3.46229 7.57786 3.72097 12.2453 6.4832 15.4403C6.94883 15.9788 8.17749 17.4805 9.29978 18.8601C9.85869 19.5472 10.388 20.2 10.7776 20.6811C10.9724 20.9217 11.1323 21.1193 11.2434 21.2567L11.4162 21.4704L11.4168 21.4712C11.5592 21.6475 11.7737 21.75 12.0003 21.75C12.2269 21.75 12.4414 21.6475 12.5838 21.4712L12.7572 21.2567ZM12 6.25C9.92893 6.25 8.25 7.92893 8.25 10C8.25 12.0711 9.92893 13.75 12 13.75C14.0711 13.75 15.75 12.0711 15.75 10C15.75 7.92893 14.0711 6.25 12 6.25Z" fill="#23262A"/>
</svg>
