<svg width="24" height="24" viewBox="0 0 24 24" fill="none" xmlns="http://www.w3.org/2000/svg">
<path fill-rule="evenodd" clip-rule="evenodd" d="M13.9082 8.18705C14.3721 7.97584 14.8664 7.76867 15.3396 7.60407C15.8937 7.41135 16.4929 7.24994 17.0001 7.24994C17.8974 7.24994 18.8334 7.54506 19.4939 8.12301C20.1904 8.73241 20.5695 9.66339 20.2116 10.7371C19.8763 11.7429 19.1411 12.354 18.2748 12.6656C17.4351 12.9676 16.4664 12.9952 15.5507 12.8857C14.6263 12.7752 13.6982 12.518 12.9065 12.1965C12.3982 11.9901 11.9155 11.7447 11.5175 11.4744C11.3417 11.6614 11.1213 11.9356 10.8965 12.3178C10.3981 13.165 9.86088 14.5725 9.76504 16.79C12.2086 17.0519 13.542 18.5434 14.1823 19.6154C14.3947 19.971 14.2786 20.4315 13.923 20.6439C13.5674 20.8563 13.1069 20.7402 12.8945 20.3846C12.3629 19.4947 11.241 18.25 8.99992 18.25C6.75884 18.25 5.63688 19.4947 5.1053 20.3846C4.89288 20.7402 4.43241 20.8563 4.07681 20.6439C3.72121 20.4315 3.60514 19.971 3.81755 19.6154C4.46041 18.5392 5.80176 17.04 8.2639 16.787C8.36184 14.3155 8.96294 12.6463 9.60355 11.5572C9.89589 11.0603 10.1929 10.6902 10.4465 10.4239C9.70636 9.45188 8.96436 7.99404 8.70052 6.54464C8.53529 5.63694 8.54371 4.65732 8.93212 3.78192C9.33298 2.87846 10.099 2.17639 11.2629 1.78843C11.8207 1.6025 12.3616 1.64605 12.8378 1.86584C13.2967 2.07763 13.6567 2.43375 13.927 2.81984C14.4609 3.58259 14.7501 4.61096 14.7501 5.49994C14.7501 6.01433 14.5851 6.5865 14.3884 7.10288C14.2501 7.46594 14.0826 7.83533 13.9082 8.18705ZM12.2092 3.22778C12.076 3.16633 11.9294 3.14739 11.7372 3.21145C10.9291 3.48085 10.5149 3.91325 10.3032 4.39027C10.0791 4.89536 10.0427 5.54225 10.1763 6.276C10.3827 7.41001 10.9615 8.57122 11.5227 9.35677C11.5657 9.28892 11.6167 9.2075 11.6738 9.11468C11.8558 8.81896 12.0975 8.41091 12.3383 7.9595C12.5802 7.506 12.8145 7.0208 12.9867 6.56888C13.165 6.10088 13.2501 5.73555 13.2501 5.49994C13.2501 4.88892 13.0392 4.16729 12.6981 3.68004C12.5309 3.44113 12.3597 3.29724 12.2092 3.22778ZM12.7256 10.4556C12.7853 10.4232 12.8514 10.3876 12.9233 10.3492C13.2674 10.1657 13.7402 9.92173 14.2569 9.67856C14.7756 9.43445 15.3276 9.19638 15.8324 9.02081C16.3564 8.83853 16.7572 8.74994 17.0001 8.74994C17.6027 8.74994 18.1667 8.95482 18.5062 9.25187C18.8097 9.51747 18.9306 9.8365 18.7885 10.2628C18.6233 10.7584 18.2799 11.0697 17.7671 11.2542C17.2274 11.4483 16.5163 11.4905 15.7288 11.3963C14.9499 11.3032 14.1515 11.0831 13.4709 10.8067C13.1892 10.6923 12.9393 10.573 12.7256 10.4556Z" fill="#23262A"/>
</svg>
