<svg width="24" height="24" viewBox="0 0 24 24" fill="none" xmlns="http://www.w3.org/2000/svg">
<path d="M13.9082 8.18705C14.3721 7.97584 14.8663 7.76867 15.3396 7.60407C15.8936 7.41135 16.4929 7.24994 17 7.24994C17.8974 7.24994 18.8334 7.54506 19.4939 8.12301C20.1904 8.73241 20.5694 9.66339 20.2115 10.7371C19.8763 11.7429 19.1411 12.354 18.2747 12.6656C17.4351 12.9676 16.4663 12.9952 15.5506 12.8857C14.6263 12.7752 13.6982 12.518 12.9064 12.1965C12.3982 11.9901 11.9155 11.7447 11.5175 11.4744C11.3417 11.6614 11.1213 11.9356 10.8965 12.3178C10.3981 13.165 9.86089 14.5725 9.76505 16.79C12.2087 17.0518 13.5421 18.5434 14.1824 19.6154C14.3948 19.971 14.2787 20.4315 13.9231 20.6439C13.5675 20.8563 13.1071 20.7402 12.8946 20.3846C12.3631 19.4947 11.2411 18.25 9.00003 18.25C6.75895 18.25 5.637 19.4947 5.10541 20.3846C4.893 20.7402 4.43253 20.8563 4.07693 20.6439C3.72133 20.4315 3.60525 19.971 3.81767 19.6154C4.46051 18.5392 5.80184 17.0401 8.2639 16.787C8.36185 14.3155 8.96294 12.6463 9.60355 11.5573C9.89589 11.0603 10.1929 10.6902 10.4465 10.4239C9.70635 9.45193 8.96432 7.99406 8.70048 6.54464C8.53526 5.63694 8.54367 4.65732 8.93208 3.78192C9.33295 2.87846 10.099 2.17639 11.2628 1.78843C11.8206 1.6025 12.3615 1.64605 12.8377 1.86584C13.2966 2.07763 13.6567 2.43375 13.9269 2.81984C14.4609 3.58259 14.75 4.61096 14.75 5.49994C14.75 6.01433 14.5851 6.5865 14.3884 7.10288C14.2501 7.46594 14.0826 7.83533 13.9082 8.18705Z" fill="#23262A"/>
</svg>
