<svg width="24" height="24" viewBox="0 0 24 24" fill="none" xmlns="http://www.w3.org/2000/svg">
<path fill-rule="evenodd" clip-rule="evenodd" d="M8 4.75C8.41421 4.75 8.75 5.08579 8.75 5.5V7.25H10.5C10.9142 7.25 11.25 7.58579 11.25 8C11.25 8.41421 10.9142 8.75 10.5 8.75H8.75V10.5C8.75 10.9142 8.41421 11.25 8 11.25C7.58579 11.25 7.25 10.9142 7.25 10.5V8.75H5.5C5.08579 8.75 4.75 8.41421 4.75 8C4.75 7.58579 5.08579 7.25 5.5 7.25H7.25V5.5C7.25 5.08579 7.58579 4.75 8 4.75ZM5.46967 18.5303C5.17678 18.2374 5.17678 17.7626 5.46967 17.4697L17.4697 5.46967C17.7626 5.17678 18.2374 5.17678 18.5303 5.46967C18.8232 5.76256 18.8232 6.23744 18.5303 6.53033L6.53033 18.5303C6.23744 18.8232 5.76256 18.8232 5.46967 18.5303ZM12.75 16C12.75 15.5858 13.0858 15.25 13.5 15.25H18.5C18.9142 15.25 19.25 15.5858 19.25 16C19.25 16.4142 18.9142 16.75 18.5 16.75H13.5C13.0858 16.75 12.75 16.4142 12.75 16Z" fill="#23262A"/>
</svg>
