<svg xmlns="http://www.w3.org/2000/svg" width="24" height="24" viewBox="0 0 24 24" fill="none">
  <path d="M18 6.25C18.4142 6.25 18.75 6.58579 18.75 7C18.75 7.41421 18.4142 7.75 18 7.75H6C5.58579 7.75 5.25 7.41421 5.25 7C5.25 6.58579 5.58579 6.25 6 6.25H18Z" fill="#202733"/>
  <path d="M5.25 8.5V5.5C5.25 5.08579 5.58579 4.75 6 4.75C6.41421 4.75 6.75 5.08579 6.75 5.5V8.5C6.75 8.91421 6.41421 9.25 6 9.25C5.58579 9.25 5.25 8.91421 5.25 8.5Z" fill="#202733"/>
  <path d="M17.25 8.5V5.5C17.25 5.08579 17.5858 4.75 18 4.75C18.4142 4.75 18.75 5.08579 18.75 5.5V8.5C18.75 8.91421 18.4142 9.25 18 9.25C17.5858 9.25 17.25 8.91421 17.25 8.5Z" fill="#202733"/>
  <path d="M11.25 21.5V4C11.25 3.58579 11.5858 3.25 12 3.25C12.4142 3.25 12.75 3.58579 12.75 4V21.5C12.75 21.9142 12.4142 22.25 12 22.25C11.5858 22.25 11.25 21.9142 11.25 21.5Z" fill="#202733"/>
</svg>