<svg width="24" height="24" viewBox="0 0 24 24" fill="none" xmlns="http://www.w3.org/2000/svg">
<path fill-rule="evenodd" clip-rule="evenodd" d="M6.11635 4.08947C6.63095 3.59196 7.2686 3.25 8 3.25C8.7314 3.25 9.36905 3.59196 9.88366 4.08947C10.3946 4.58348 10.8206 5.26212 11.162 6.04253C11.8458 7.60557 12.25 9.71244 12.25 12C12.25 14.2876 11.8458 16.3944 11.162 17.9575C10.8206 18.7379 10.3946 19.4165 9.88366 19.9105C9.36905 20.408 8.7314 20.75 8 20.75C7.2686 20.75 6.63095 20.408 6.11635 19.9105C5.60535 19.4165 5.17944 18.7379 4.83801 17.9575C4.15418 16.3944 3.75 14.2876 3.75 12C3.75 9.71244 4.15418 7.60557 4.83801 6.04253C5.17944 5.26212 5.60535 4.58348 6.11635 4.08947ZM11.1331 20.584C10.9553 20.5144 10.9517 20.2747 11.1019 20.1568C11.1995 20.0801 11.2935 19.9977 11.3837 19.9105C11.8946 19.4165 12.3206 18.7379 12.662 17.9575C13.3458 16.3944 13.75 14.2876 13.75 12C13.75 9.71244 13.3458 7.60557 12.662 6.04253C12.3206 5.26212 11.8946 4.58348 11.3837 4.08947C11.2935 4.00228 11.1995 3.91987 11.1019 3.84324C10.9517 3.72526 10.9553 3.48564 11.1331 3.41601C11.4042 3.30989 11.6939 3.25 12 3.25C12.7314 3.25 13.3691 3.59196 13.8837 4.08947C14.3946 4.58348 14.8206 5.26212 15.162 6.04253C15.8458 7.60557 16.25 9.71244 16.25 12C16.25 14.2876 15.8458 16.3944 15.162 17.9575C14.8206 18.7379 14.3946 19.4165 13.8837 19.9105C13.3691 20.408 12.7314 20.75 12 20.75C11.6939 20.75 11.4042 20.6901 11.1331 20.584ZM15.1019 20.1568C14.9517 20.2747 14.9553 20.5144 15.1331 20.584C15.4042 20.6901 15.6939 20.75 16 20.75C16.7314 20.75 17.3691 20.408 17.8837 19.9105C18.3946 19.4165 18.8206 18.7379 19.162 17.9575C19.8458 16.3944 20.25 14.2876 20.25 12C20.25 9.71244 19.8458 7.60557 19.162 6.04253C18.8206 5.26212 18.3946 4.58348 17.8837 4.08947C17.3691 3.59196 16.7314 3.25 16 3.25C15.6939 3.25 15.4042 3.30989 15.1331 3.41601C14.9553 3.48564 14.9517 3.72526 15.1019 3.84324C15.1995 3.91987 15.2935 4.00228 15.3837 4.08947C15.8946 4.58348 16.3206 5.26212 16.662 6.04253C17.3458 7.60557 17.75 9.71244 17.75 12C17.75 14.2876 17.3458 16.3944 16.662 17.9575C16.3206 18.7379 15.8946 19.4165 15.3837 19.9105C15.2935 19.9977 15.1995 20.0801 15.1019 20.1568Z" fill="#23262A"/>
</svg>
