<svg width="24" height="24" viewBox="0 0 24 24" fill="none" xmlns="http://www.w3.org/2000/svg">
<path fill-rule="evenodd" clip-rule="evenodd" d="M6.21224 6.64376C5.62932 7.97615 5.25 9.86928 5.25 12C5.25 14.1307 5.62932 16.0239 6.21224 17.3562C6.50419 18.0235 6.83246 18.5165 7.15894 18.8321C7.48181 19.1442 7.7649 19.25 8 19.25C8.2351 19.25 8.51819 19.1442 8.84106 18.8321C9.16754 18.5165 9.49581 18.0235 9.78776 17.3562C10.3707 16.0239 10.75 14.1307 10.75 12C10.75 9.86928 10.3707 7.97615 9.78776 6.64376C9.49581 5.97645 9.16754 5.48352 8.84106 5.16789C8.51819 4.85575 8.2351 4.75 8 4.75C7.7649 4.75 7.48181 4.85575 7.15894 5.16789C6.83246 5.48352 6.50419 5.97645 6.21224 6.64376ZM6.11635 4.08947C6.63095 3.59196 7.2686 3.25 8 3.25C8.7314 3.25 9.36905 3.59196 9.88366 4.08947C10.3946 4.58348 10.8206 5.26212 11.162 6.04253C11.8458 7.60557 12.25 9.71244 12.25 12C12.25 14.2876 11.8458 16.3944 11.162 17.9575C10.8206 18.7379 10.3946 19.4165 9.88366 19.9105C9.36905 20.408 8.7314 20.75 8 20.75C7.2686 20.75 6.63095 20.408 6.11635 19.9105C5.60535 19.4165 5.17944 18.7379 4.83801 17.9575C4.15418 16.3944 3.75 14.2876 3.75 12C3.75 9.71244 4.15418 7.60557 4.83801 6.04253C5.17944 5.26212 5.60535 4.58348 6.11635 4.08947ZM12 4.75C11.9803 4.75 11.9606 4.75072 11.941 4.75215C11.5279 4.78224 11.1686 4.47174 11.1385 4.05863C11.1084 3.64551 11.4189 3.28621 11.832 3.25611C11.8878 3.25205 11.9438 3.25 12 3.25C12.7314 3.25 13.3691 3.59196 13.8837 4.08947C14.3947 4.58348 14.8206 5.26212 15.162 6.04253C15.8458 7.60557 16.25 9.71244 16.25 12C16.25 14.2876 15.8458 16.3944 15.162 17.9575C14.8206 18.7379 14.3947 19.4165 13.8837 19.9105C13.3691 20.408 12.7314 20.75 12 20.75C11.9438 20.75 11.8878 20.748 11.832 20.7439C11.4189 20.7138 11.1084 20.3545 11.1385 19.9414C11.1686 19.5283 11.5279 19.2178 11.941 19.2479C11.9606 19.2493 11.9803 19.25 12 19.25C12.2351 19.25 12.5182 19.1442 12.8411 18.8321C13.1676 18.5165 13.4958 18.0235 13.7878 17.3562C14.3707 16.0239 14.75 14.1307 14.75 12C14.75 9.86928 14.3707 7.97615 13.7878 6.64376C13.4958 5.97645 13.1676 5.48352 12.8411 5.16789C12.5182 4.85575 12.2351 4.75 12 4.75ZM15.9433 4.75197C15.9621 4.75066 15.981 4.75 16 4.75C16.2351 4.75 16.5181 4.85575 16.841 5.16789C17.1675 5.48352 17.4958 5.97645 17.7877 6.64376C18.3706 7.97615 18.75 9.86928 18.75 12C18.75 14.1307 18.3706 16.0239 17.7877 17.3562C17.4958 18.0235 17.1675 18.5165 16.841 18.8321C16.5181 19.1442 16.2351 19.25 16 19.25C15.981 19.25 15.9621 19.2493 15.9433 19.248C15.5301 19.2192 15.1718 19.5308 15.1429 19.944C15.1141 20.3572 15.4257 20.7155 15.8389 20.7444C15.8924 20.7481 15.9461 20.75 16 20.75C16.7313 20.75 17.369 20.408 17.8836 19.9105C18.3946 19.4165 18.8205 18.7379 19.1619 17.9575C19.8458 16.3944 20.25 14.2876 20.25 12C20.25 9.71244 19.8458 7.60557 19.1619 6.04253C18.8205 5.26212 18.3946 4.58348 17.8836 4.08947C17.369 3.59196 16.7313 3.25 16 3.25C15.9461 3.25 15.8924 3.25188 15.8389 3.25562C15.4257 3.28446 15.1141 3.64282 15.1429 4.05603C15.1718 4.46924 15.5301 4.78082 15.9433 4.75197Z" fill="#23262A"/>
</svg>
