<svg xmlns="http://www.w3.org/2000/svg" width="24" height="24" viewBox="0 0 24 24" fill="none">
  <path d="M6.25 19.75H4C3.58579 19.75 3.25 19.4142 3.25 19V9C3.25 8.58579 3.58579 8.25 4 8.25H6.25V19.75Z" fill="#202733"/>
  <path d="M11.25 19.75H7.75V8.25H11.25V19.75Z" fill="#202733"/>
  <path d="M16.25 19.75H12.75V8.25H16.25V19.75Z" fill="#202733"/>
  <path d="M20 8.25C20.4142 8.25 20.75 8.58579 20.75 9V19C20.75 19.4142 20.4142 19.75 20 19.75H17.75V8.25H20Z" fill="#202733"/>
  <path d="M16 2.25C16.4142 2.25 16.75 2.58579 16.75 3V5C16.75 5.69036 17.3096 6.25 18 6.25C18.6904 6.25 19.25 5.69036 19.25 5C19.25 4.58579 19.5858 4.25 20 4.25C20.4142 4.25 20.75 4.58579 20.75 5C20.75 6.51878 19.5188 7.75 18 7.75C17.2108 7.75 16.5015 7.41534 16 6.88281C15.4985 7.41534 14.7892 7.75 14 7.75C13.2108 7.75 12.5015 7.41534 12 6.88281C11.4985 7.41534 10.7892 7.75 10 7.75C9.21077 7.75 8.50151 7.41534 8 6.88281C7.49849 7.41534 6.78923 7.75 6 7.75C4.48122 7.75 3.25 6.51878 3.25 5C3.25 4.58579 3.58579 4.25 4 4.25C4.41421 4.25 4.75 4.58579 4.75 5C4.75 5.69036 5.30964 6.25 6 6.25C6.69036 6.25 7.25 5.69036 7.25 5V3C7.25 2.58579 7.58579 2.25 8 2.25C8.41421 2.25 8.75 2.58579 8.75 3V5C8.75 5.69036 9.30964 6.25 10 6.25C10.6904 6.25 11.25 5.69036 11.25 5V3C11.25 2.58579 11.5858 2.25 12 2.25C12.4142 2.25 12.75 2.58579 12.75 3V5C12.75 5.69036 13.3096 6.25 14 6.25C14.6904 6.25 15.25 5.69036 15.25 5V3C15.25 2.58579 15.5858 2.25 16 2.25Z" fill="#202733"/>
</svg>