<svg xmlns="http://www.w3.org/2000/svg" width="24" height="24" viewBox="0 0 24 24" fill="none">
  <path d="M8.5 19.75H6C5.58579 19.75 5.25 19.4142 5.25 19V9C5.25 8.58579 5.58579 8.25 6 8.25H8.5V19.75ZM14 19.75H10V8.25H14V19.75ZM18 8.25C18.4142 8.25 18.75 8.58579 18.75 9V19C18.75 19.4142 18.4142 19.75 18 19.75H15.5V8.25H18ZM14 4.25C14.4142 4.25 14.75 4.58579 14.75 5C14.75 6.51878 13.5188 7.75 12 7.75C10.4812 7.75 9.25 6.51878 9.25 5C9.25 4.58579 9.58579 4.25 10 4.25C10.4142 4.25 10.75 4.58579 10.75 5C10.75 5.69036 11.3096 6.25 12 6.25C12.6904 6.25 13.25 5.69036 13.25 5C13.25 4.58579 13.5858 4.25 14 4.25Z" fill="#202733"/>
</svg>