<svg width="24" height="24" viewBox="0 0 24 24" fill="none" xmlns="http://www.w3.org/2000/svg">
<path fill-rule="evenodd" clip-rule="evenodd" d="M3 4.25C2.58579 4.25 2.25 4.58579 2.25 5V8C2.25 8.41421 2.58579 8.75 3 8.75H3.25V16C3.25 16.4142 3.58579 16.75 4 16.75H8.02258L7.4991 18.7037C7.39189 19.1038 7.62933 19.515 8.02943 19.6222C8.42953 19.7294 8.84078 19.492 8.94799 19.0919L9.57549 16.75H14.4245L15.052 19.0919C15.1592 19.492 15.5705 19.7294 15.9706 19.6222C16.3707 19.515 16.6081 19.1038 16.5009 18.7037L15.9774 16.75H20C20.4142 16.75 20.75 16.4142 20.75 16V8.75H21C21.4142 8.75 21.75 8.41421 21.75 8V5C21.75 4.58579 21.4142 4.25 21 4.25H3ZM8.98267 15.25C8.99388 15.2497 9.00512 15.2497 9.01639 15.25H14.9836C14.9949 15.2497 15.0061 15.2497 15.0173 15.25H19.25V8.75H4.75V15.25H8.98267ZM20.25 7.25V5.75H3.75V7.25H20.25Z" fill="#23262A"/>
</svg>
