<svg width="24" height="24" viewBox="0 0 24 24" fill="none" xmlns="http://www.w3.org/2000/svg">
<path fill-rule="evenodd" clip-rule="evenodd" d="M3 4.25C2.58579 4.25 2.25 4.58579 2.25 5V8C2.25 8.41421 2.58579 8.75 3 8.75H21C21.4142 8.75 21.75 8.41421 21.75 8V5C21.75 4.58579 21.4142 4.25 21 4.25H3ZM3.25 10C3.25 9.86193 3.36193 9.75 3.5 9.75H20.5C20.6381 9.75 20.75 9.86193 20.75 10V16C20.75 16.4142 20.4142 16.75 20 16.75H15.9775L16.501 18.7037C16.6082 19.1038 16.3708 19.5151 15.9707 19.6223C15.5706 19.7295 15.1593 19.492 15.0521 19.0919L14.4246 16.75H9.57558L8.94804 19.092C8.84084 19.4921 8.42958 19.7295 8.02949 19.6223C7.62939 19.5151 7.39195 19.1039 7.49916 18.7038L8.02267 16.75H4C3.58579 16.75 3.25 16.4142 3.25 16V10Z" fill="#23262A"/>
</svg>
