<svg width="24" height="24" viewBox="0 0 24 24" fill="none" xmlns="http://www.w3.org/2000/svg">
<path fill-rule="evenodd" clip-rule="evenodd" d="M6.25 3C6.25 2.58579 6.58579 2.25 7 2.25H17C17.4142 2.25 17.75 2.58579 17.75 3V5.5C17.75 5.63807 17.6381 5.75 17.5 5.75H6.5C6.36193 5.75 6.25 5.63807 6.25 5.5V3ZM4 7.25C3.0335 7.25 2.25 8.0335 2.25 9V18C2.25 18.4142 2.58579 18.75 3 18.75H4.5C4.63807 18.75 4.75 18.6381 4.75 18.5V12C4.75 10.7574 5.75736 9.75 7 9.75H17C18.2426 9.75 19.25 10.7574 19.25 12V18.5C19.25 18.6381 19.3619 18.75 19.5 18.75H21C21.4142 18.75 21.75 18.4142 21.75 18V9C21.75 8.0335 20.9665 7.25 20 7.25H4ZM6.25 12C6.25 11.5858 6.58579 11.25 7 11.25H17C17.4142 11.25 17.75 11.5858 17.75 12V21C17.75 21.4142 17.4142 21.75 17 21.75H7C6.58579 21.75 6.25 21.4142 6.25 21V12ZM9.25 15C9.25 14.5858 9.58579 14.25 10 14.25H14C14.4142 14.25 14.75 14.5858 14.75 15C14.75 15.4142 14.4142 15.75 14 15.75H10C9.58579 15.75 9.25 15.4142 9.25 15ZM10 17.25C9.58579 17.25 9.25 17.5858 9.25 18C9.25 18.4142 9.58579 18.75 10 18.75H12.5C12.9142 18.75 13.25 18.4142 13.25 18C13.25 17.5858 12.9142 17.25 12.5 17.25H10Z" fill="#23262A"/>
</svg>
