<svg width="24" height="24" viewBox="0 0 24 24" fill="none" xmlns="http://www.w3.org/2000/svg">
<path fill-rule="evenodd" clip-rule="evenodd" d="M7 2.25C6.58579 2.25 6.25 2.58579 6.25 3V7.25H4C3.0335 7.25 2.25 8.0335 2.25 9V18C2.25 18.4142 2.58579 18.75 3 18.75H6.25V21C6.25 21.4142 6.58579 21.75 7 21.75H17C17.4142 21.75 17.75 21.4142 17.75 21V18.75H21C21.4142 18.75 21.75 18.4142 21.75 18V9C21.75 8.0335 20.9665 7.25 20 7.25H17.75V3C17.75 2.58579 17.4142 2.25 17 2.25H7ZM3.75 9C3.75 8.86193 3.86193 8.75 4 8.75H20C20.1381 8.75 20.25 8.86193 20.25 9V17.25H17.75V12C17.75 11.5858 17.4142 11.25 17 11.25H7C6.58579 11.25 6.25 11.5858 6.25 12V17.25H3.75V9ZM16.25 7.25V3.75H7.75V7.25H16.25ZM7.75 12.75V20.25H16.25V12.75H7.75ZM9.25 15C9.25 14.5858 9.58579 14.25 10 14.25H14C14.4142 14.25 14.75 14.5858 14.75 15C14.75 15.4142 14.4142 15.75 14 15.75H10C9.58579 15.75 9.25 15.4142 9.25 15ZM9.25 18C9.25 17.5858 9.58579 17.25 10 17.25H12.5C12.9142 17.25 13.25 17.5858 13.25 18C13.25 18.4142 12.9142 18.75 12.5 18.75H10C9.58579 18.75 9.25 18.4142 9.25 18Z" fill="#23262A"/>
</svg>
