<svg width="24" height="24" viewBox="0 0 24 24" fill="none" xmlns="http://www.w3.org/2000/svg">
<path fill-rule="evenodd" clip-rule="evenodd" d="M7.33557 2.32922C6.96509 2.14398 6.51459 2.29415 6.32934 2.66463C6.1441 3.03512 6.29427 3.48562 6.66475 3.67086L11.823 6.25H5C4.58579 6.25 4.25 6.58579 4.25 7V20C4.25 20.4142 4.58579 20.75 5 20.75H16C16.4142 20.75 16.75 20.4142 16.75 20V17.4014L19.4161 15.624C19.7608 15.3942 19.8539 14.9286 19.6241 14.5839C19.3944 14.2393 18.9287 14.1462 18.5841 14.3759L16.75 15.5986V14.4014L19.4161 12.624C19.7608 12.3942 19.8539 11.9286 19.6241 11.5839C19.3944 11.2393 18.9287 11.1462 18.5841 11.3759L16.75 12.5986V7C16.75 6.58579 16.4142 6.25 16 6.25H15.1771L7.33557 2.32922ZM7.25 17C7.25 16.5858 7.58579 16.25 8 16.25H13C13.4142 16.25 13.75 16.5858 13.75 17C13.75 17.4142 13.4142 17.75 13 17.75H8C7.58579 17.75 7.25 17.4142 7.25 17Z" fill="#23262A"/>
</svg>
