<svg width="24" height="24" viewBox="0 0 24 24" fill="none" xmlns="http://www.w3.org/2000/svg">
<path fill-rule="evenodd" clip-rule="evenodd" d="M7.33541 2.32918C6.96493 2.14393 6.51442 2.2941 6.32918 2.66459C6.14394 3.03507 6.29411 3.48557 6.66459 3.67082L11.8229 6.25H5C4.58579 6.25 4.25 6.58578 4.25 7V20C4.25 20.4142 4.58579 20.75 5 20.75H16C16.4142 20.75 16.75 20.4142 16.75 20V17.4014L19.416 15.624C19.7607 15.3943 19.8538 14.9286 19.624 14.584C19.3943 14.2393 18.9286 14.1462 18.584 14.376L16.75 15.5986V14.4014L19.416 12.624C19.7607 12.3943 19.8538 11.9286 19.624 11.584C19.3943 11.2393 18.9286 11.1462 18.584 11.376L16.75 12.5986V7C16.75 6.58578 16.4142 6.25 16 6.25H15.1771L7.33541 2.32918ZM14.9838 7.75C14.9942 7.75022 15.0047 7.75022 15.0151 7.75H15.25V13.9898C15.2499 13.997 15.2499 14.0043 15.25 14.0116V16.9898C15.2499 16.997 15.2499 17.0043 15.25 17.0116V19.25H5.75V7.75H14.9838ZM7.25 17C7.25 16.5858 7.58579 16.25 8 16.25H13C13.4142 16.25 13.75 16.5858 13.75 17C13.75 17.4142 13.4142 17.75 13 17.75H8C7.58579 17.75 7.25 17.4142 7.25 17Z" fill="#23262A"/>
</svg>
