<svg width="24" height="24" viewBox="0 0 24 24" fill="none" xmlns="http://www.w3.org/2000/svg">
<path fill-rule="evenodd" clip-rule="evenodd" d="M6.32918 2.66459C6.51442 2.2941 6.96493 2.14393 7.33541 2.32918L15.1771 6.25H16C16.4142 6.25 16.75 6.58578 16.75 7V12.5986L18.584 11.376C18.9286 11.1462 19.3943 11.2393 19.624 11.584C19.8538 11.9286 19.7607 12.3943 19.416 12.624L16.75 14.4014V15.5986L18.584 14.376C18.9286 14.1462 19.3943 14.2393 19.624 14.584C19.8538 14.9286 19.7607 15.3943 19.416 15.624L16.75 17.4014V20C16.75 20.4142 16.4142 20.75 16 20.75H5C4.58579 20.75 4.25 20.4142 4.25 20V7C4.25 6.58578 4.58579 6.25 5 6.25H11.8229L6.66459 3.67082C6.29411 3.48557 6.14394 3.03507 6.32918 2.66459ZM15.0151 7.75C15.0073 7.75016 14.9994 7.7502 14.9916 7.75012L14.9838 7.75H5.75V19.25H15.25V17.0116C15.2499 17.0043 15.2499 16.997 15.25 16.9898V14.0116L15.2499 14.0066L15.25 13.9898V7.75H15.0151ZM8 16.25C7.58579 16.25 7.25 16.5858 7.25 17C7.25 17.4142 7.58579 17.75 8 17.75H13C13.4142 17.75 13.75 17.4142 13.75 17C13.75 16.5858 13.4142 16.25 13 16.25H8Z" fill="#23262A"/>
</svg>
