<svg width="24" height="24" viewBox="0 0 24 24" fill="none" xmlns="http://www.w3.org/2000/svg">
<path fill-rule="evenodd" clip-rule="evenodd" d="M16.5375 2.13577C16.4052 1.89767 16.1542 1.75 15.8818 1.75C15.6095 1.75 15.3585 1.89767 15.2262 2.13577L10.2262 11.1358C10.0972 11.3681 10.1007 11.6513 10.2354 11.8803C10.3702 12.1094 10.6161 12.25 10.8818 12.25H20.8818C21.1476 12.25 21.3935 12.1094 21.5282 11.8803C21.663 11.6513 21.6665 11.3681 21.5375 11.1358L16.5375 2.13577ZM15.8818 4.04434L19.6072 10.75H12.1565L15.8818 4.04434ZM6.32918 2.6646C6.51442 2.29412 6.96492 2.14395 7.33541 2.32919L11.3354 4.32919C11.7059 4.51443 11.8561 4.96494 11.6708 5.33542C11.4856 5.70591 11.0351 5.85607 10.6646 5.67083L6.66459 3.67083C6.2941 3.48559 6.14393 3.03509 6.32918 2.6646ZM5 6.25C4.58579 6.25 4.25 6.58579 4.25 7V20C4.25 20.4142 4.58579 20.75 5 20.75H16C16.4142 20.75 16.75 20.4142 16.75 20V17.4014L19.416 15.624C19.7607 15.3943 19.8538 14.9286 19.624 14.584C19.3943 14.2393 18.9286 14.1462 18.584 14.376L16.75 15.5986V14C16.75 13.5858 16.4142 13.25 16 13.25C15.5858 13.25 15.25 13.5858 15.25 14V16.99L15.2499 16.9994L15.25 17.0114V19.25H5.75V7.75H10.5C10.9142 7.75 11.25 7.41421 11.25 7C11.25 6.58579 10.9142 6.25 10.5 6.25H5ZM7.25 17C7.25 16.5858 7.58579 16.25 8 16.25H13C13.4142 16.25 13.75 16.5858 13.75 17C13.75 17.4142 13.4142 17.75 13 17.75H8C7.58579 17.75 7.25 17.4142 7.25 17Z" fill="#23262A"/>
</svg>
