<svg width="24" height="24" viewBox="0 0 24 24" fill="none" xmlns="http://www.w3.org/2000/svg">
<path fill-rule="evenodd" clip-rule="evenodd" d="M6.25 3C6.25 2.58579 6.58579 2.25 7 2.25H17C17.4142 2.25 17.75 2.58579 17.75 3V7.25H20C20.9665 7.25 21.75 8.0335 21.75 9V18C21.75 18.4142 21.4142 18.75 21 18.75H17.75V21C17.75 21.4142 17.4142 21.75 17 21.75H7C6.58579 21.75 6.25 21.4142 6.25 21V18.75H3C2.58579 18.75 2.25 18.4142 2.25 18V9C2.25 8.0335 3.0335 7.25 4 7.25H6.25V3ZM6.25 17.25V12C6.25 11.5858 6.58579 11.25 7 11.25H17C17.4142 11.25 17.75 11.5858 17.75 12V17.25H20.25V9C20.25 8.86193 20.1381 8.75 20 8.75H4C3.86193 8.75 3.75 8.86193 3.75 9V17.25H6.25ZM16.25 3.75V7.25H7.75V3.75H16.25ZM7.75 20.25V12.75H16.25V20.25H7.75ZM9.25 15C9.25 14.5858 9.58579 14.25 10 14.25H14C14.4142 14.25 14.75 14.5858 14.75 15C14.75 15.4142 14.4142 15.75 14 15.75H10C9.58579 15.75 9.25 15.4142 9.25 15ZM10 17.25C9.58579 17.25 9.25 17.5858 9.25 18C9.25 18.4142 9.58579 18.75 10 18.75H12.5C12.9142 18.75 13.25 18.4142 13.25 18C13.25 17.5858 12.9142 17.25 12.5 17.25H10Z" fill="#262626"/>
</svg>
