<svg width="24" height="24" viewBox="0 0 24 24" fill="none" xmlns="http://www.w3.org/2000/svg">
<path fill-rule="evenodd" clip-rule="evenodd" d="M16.5375 2.13577C16.4052 1.89767 16.1542 1.75 15.8818 1.75C15.6095 1.75 15.3585 1.89767 15.2262 2.13577L10.2262 11.1358C10.0972 11.3681 10.1007 11.6513 10.2354 11.8803C10.3702 12.1094 10.6161 12.25 10.8818 12.25H20.8818C21.1476 12.25 21.3935 12.1094 21.5282 11.8803C21.663 11.6513 21.6665 11.3681 21.5375 11.1358L16.5375 2.13577ZM13.0219 2.25C13.2126 2.25 13.3331 2.45478 13.2405 2.62141L11.5738 5.62141C11.5297 5.70078 11.4461 5.75 11.3553 5.75H6.5C6.36193 5.75 6.25 5.63807 6.25 5.5V3C6.25 2.58579 6.58579 2.25 7 2.25H13.0219ZM21.393 13.6912C21.2274 13.7299 21.056 13.75 20.8818 13.75H19.5C19.3619 13.75 19.25 13.8619 19.25 14V18.5C19.25 18.6381 19.3619 18.75 19.5 18.75H21C21.4142 18.75 21.75 18.4142 21.75 18V13.9514C21.75 13.7728 21.5669 13.6506 21.393 13.6912ZM8.63202 11.529C8.6301 11.3799 8.51533 11.25 8.36627 11.25H7C6.58579 11.25 6.25 11.5858 6.25 12V21C6.25 21.4142 6.58579 21.75 7 21.75H17C17.4142 21.75 17.75 21.4142 17.75 21V14C17.75 13.8619 17.6381 13.75 17.5 13.75H10.8818C10.0846 13.75 9.34692 13.3281 8.94263 12.641C8.74068 12.2978 8.63698 11.914 8.63202 11.529ZM9.35159 9.62141C9.3075 9.70078 9.22384 9.75 9.13305 9.75H7C5.75736 9.75 4.75 10.7574 4.75 12V18.5C4.75 18.6381 4.63807 18.75 4.5 18.75H3C2.58579 18.75 2.25 18.4142 2.25 18V9C2.25 8.0335 3.0335 7.25 4 7.25H10.2442C10.4348 7.25 10.5553 7.45478 10.4627 7.62141L9.35159 9.62141ZM9.25 16C9.25 15.5858 9.58579 15.25 10 15.25H14C14.4142 15.25 14.75 15.5858 14.75 16C14.75 16.4142 14.4142 16.75 14 16.75H10C9.58579 16.75 9.25 16.4142 9.25 16ZM10 18.25C9.58579 18.25 9.25 18.5858 9.25 19C9.25 19.4142 9.58579 19.75 10 19.75H12.5C12.9142 19.75 13.25 19.4142 13.25 19C13.25 18.5858 12.9142 18.25 12.5 18.25H10Z" fill="#23262A"/>
</svg>
