<svg width="24" height="24" viewBox="0 0 24 24" fill="none" xmlns="http://www.w3.org/2000/svg">
<path fill-rule="evenodd" clip-rule="evenodd" d="M16.5375 2.13577C16.4052 1.89767 16.1542 1.75 15.8818 1.75C15.6095 1.75 15.3585 1.89767 15.2262 2.13577L10.2262 11.1358C10.0972 11.3681 10.1007 11.6513 10.2354 11.8803C10.3702 12.1094 10.6161 12.25 10.8818 12.25H20.8818C21.1476 12.25 21.3935 12.1094 21.5282 11.8803C21.663 11.6513 21.6665 11.3681 21.5375 11.1358L16.5375 2.13577ZM11.8503 4.58652C11.9776 4.65018 12.0262 4.80712 11.9571 4.93154L11.471 5.80652C11.406 5.92353 11.2603 5.96858 11.1406 5.90872L6.66475 3.67078C6.29427 3.48554 6.1441 3.03504 6.32934 2.66455C6.51459 2.29407 6.96509 2.1439 7.33557 2.32914L11.8503 4.58652ZM10.7998 6.24992C10.9904 6.24992 11.1109 6.4547 11.0183 6.62133L8.91498 10.4073C8.52782 11.1042 8.53833 11.9539 8.94263 12.641C9.34692 13.3281 10.0846 13.75 10.8818 13.75H16.5C16.6381 13.75 16.75 13.8619 16.75 14V15.1314C16.75 15.3311 16.9725 15.4502 17.1387 15.3394L18.5841 14.3758C18.9287 14.1461 19.3944 14.2392 19.6241 14.5839C19.8539 14.9285 19.7608 15.3942 19.4161 15.6239L16.8613 17.3271C16.7918 17.3735 16.75 17.4515 16.75 17.5351V19.9999C16.75 20.4141 16.4142 20.7499 16 20.7499H5C4.58579 20.7499 4.25 20.4141 4.25 19.9999V6.99992C4.25 6.58571 4.58579 6.24992 5 6.24992H10.7998ZM8 16.2499C7.58579 16.2499 7.25 16.5857 7.25 16.9999C7.25 17.4141 7.58579 17.7499 8 17.7499H13C13.4142 17.7499 13.75 17.4141 13.75 16.9999C13.75 16.5857 13.4142 16.2499 13 16.2499H8Z" fill="#23262A"/>
</svg>
