<svg width="24" height="24" viewBox="0 0 24 24" fill="none" xmlns="http://www.w3.org/2000/svg">
<path fill-rule="evenodd" clip-rule="evenodd" d="M16.5375 2.13577C16.4052 1.89767 16.1542 1.75 15.8818 1.75C15.6095 1.75 15.3585 1.89767 15.2262 2.13577L10.2262 11.1358C10.0972 11.3681 10.1007 11.6513 10.2354 11.8803C10.3702 12.1094 10.6161 12.25 10.8818 12.25H20.8818C21.1476 12.25 21.3935 12.1094 21.5282 11.8803C21.663 11.6513 21.6665 11.3681 21.5375 11.1358L16.5375 2.13577ZM15.8818 4.04434L19.6072 10.75H12.1565L15.8818 4.04434ZM7 2.25C6.58579 2.25 6.25 2.58579 6.25 3V7.25H4C3.0335 7.25 2.25 8.0335 2.25 9V18C2.25 18.4142 2.58579 18.75 3 18.75H6.25V21C6.25 21.4142 6.58579 21.75 7 21.75H17C17.4142 21.75 17.75 21.4142 17.75 21V18.75H21C21.4142 18.75 21.75 18.4142 21.75 18V14.25C21.75 13.8358 21.4142 13.5 21 13.5C20.5858 13.5 20.25 13.8358 20.25 14.25V17.25H17.75V14.25C17.75 13.8358 17.4142 13.5 17 13.5C16.5858 13.5 16.25 13.8358 16.25 14.25V18V20.25H7.75V18V12C7.75 11.5858 7.41421 11.25 7 11.25C6.58579 11.25 6.25 11.5858 6.25 12V17.25H3.75V9C3.75 8.86193 3.86193 8.75 4 8.75H7H9.75C10.1642 8.75 10.5 8.41421 10.5 8C10.5 7.58579 10.1642 7.25 9.75 7.25H7.75V3.75H12C12.4142 3.75 12.75 3.41421 12.75 3C12.75 2.58579 12.4142 2.25 12 2.25H7ZM10 14.25C9.58579 14.25 9.25 14.5858 9.25 15C9.25 15.4142 9.58579 15.75 10 15.75H14C14.4142 15.75 14.75 15.4142 14.75 15C14.75 14.5858 14.4142 14.25 14 14.25H10ZM9.25 18C9.25 17.5858 9.58579 17.25 10 17.25H12.5C12.9142 17.25 13.25 17.5858 13.25 18C13.25 18.4142 12.9142 18.75 12.5 18.75H10C9.58579 18.75 9.25 18.4142 9.25 18Z" fill="#23262A"/>
</svg>
