<svg width="24" height="24" viewBox="0 0 24 24" fill="none" xmlns="http://www.w3.org/2000/svg">
<path fill-rule="evenodd" clip-rule="evenodd" d="M7 5.75C6.30964 5.75 5.75 6.30964 5.75 7V17C5.75 17.6904 6.30964 18.25 7 18.25H17C17.6904 18.25 18.25 17.6904 18.25 17V7C18.25 6.30964 17.6904 5.75 17 5.75H7ZM4.25 7C4.25 5.48122 5.48122 4.25 7 4.25H17C18.5188 4.25 19.75 5.48122 19.75 7V17C19.75 18.5188 18.5188 19.75 17 19.75H7C5.48122 19.75 4.25 18.5188 4.25 17V7Z" fill="#262626"/>
<path fill-rule="evenodd" clip-rule="evenodd" d="M7.25 8C7.25 7.58579 7.58579 7.25 8 7.25H16C16.4142 7.25 16.75 7.58579 16.75 8V16C16.75 16.4142 16.4142 16.75 16 16.75H8C7.58579 16.75 7.25 16.4142 7.25 16V8ZM8.75 8.75V15.25H15.25V8.75H8.75Z" fill="#262626"/>
<path fill-rule="evenodd" clip-rule="evenodd" d="M12 1.25C12.4142 1.25 12.75 1.58579 12.75 2V5C12.75 5.41421 12.4142 5.75 12 5.75C11.5858 5.75 11.25 5.41421 11.25 5V2C11.25 1.58579 11.5858 1.25 12 1.25Z" fill="#262626"/>
<path fill-rule="evenodd" clip-rule="evenodd" d="M12 18.25C12.4142 18.25 12.75 18.5858 12.75 19V22C12.75 22.4142 12.4142 22.75 12 22.75C11.5858 22.75 11.25 22.4142 11.25 22V19C11.25 18.5858 11.5858 18.25 12 18.25Z" fill="#262626"/>
<path fill-rule="evenodd" clip-rule="evenodd" d="M22.75 12C22.75 12.4142 22.4142 12.75 22 12.75L19 12.75C18.5858 12.75 18.25 12.4142 18.25 12C18.25 11.5858 18.5858 11.25 19 11.25L22 11.25C22.4142 11.25 22.75 11.5858 22.75 12Z" fill="#262626"/>
<path fill-rule="evenodd" clip-rule="evenodd" d="M5.75 12C5.75 12.4142 5.41421 12.75 5 12.75L2 12.75C1.58579 12.75 1.25 12.4142 1.25 12C1.25 11.5858 1.58579 11.25 2 11.25L5 11.25C5.41421 11.25 5.75 11.5858 5.75 12Z" fill="#262626"/>
<path fill-rule="evenodd" clip-rule="evenodd" d="M15 1.25C15.4142 1.25 15.75 1.58579 15.75 2V5C15.75 5.41421 15.4142 5.75 15 5.75C14.5858 5.75 14.25 5.41421 14.25 5V2C14.25 1.58579 14.5858 1.25 15 1.25Z" fill="#262626"/>
<path fill-rule="evenodd" clip-rule="evenodd" d="M15 18.25C15.4142 18.25 15.75 18.5858 15.75 19V22C15.75 22.4142 15.4142 22.75 15 22.75C14.5858 22.75 14.25 22.4142 14.25 22V19C14.25 18.5858 14.5858 18.25 15 18.25Z" fill="#262626"/>
<path fill-rule="evenodd" clip-rule="evenodd" d="M22.75 15C22.75 15.4142 22.4142 15.75 22 15.75L19 15.75C18.5858 15.75 18.25 15.4142 18.25 15C18.25 14.5858 18.5858 14.25 19 14.25L22 14.25C22.4142 14.25 22.75 14.5858 22.75 15Z" fill="#262626"/>
<path fill-rule="evenodd" clip-rule="evenodd" d="M5.75 15C5.75 15.4142 5.41421 15.75 5 15.75L2 15.75C1.58579 15.75 1.25 15.4142 1.25 15C1.25 14.5858 1.58579 14.25 2 14.25L5 14.25C5.41421 14.25 5.75 14.5858 5.75 15Z" fill="#262626"/>
<path fill-rule="evenodd" clip-rule="evenodd" d="M9 1.25C9.41421 1.25 9.75 1.58579 9.75 2V5C9.75 5.41421 9.41421 5.75 9 5.75C8.58579 5.75 8.25 5.41421 8.25 5V2C8.25 1.58579 8.58579 1.25 9 1.25Z" fill="#262626"/>
<path fill-rule="evenodd" clip-rule="evenodd" d="M9 18.25C9.41421 18.25 9.75 18.5858 9.75 19V22C9.75 22.4142 9.41421 22.75 9 22.75C8.58579 22.75 8.25 22.4142 8.25 22V19C8.25 18.5858 8.58579 18.25 9 18.25Z" fill="#262626"/>
<path fill-rule="evenodd" clip-rule="evenodd" d="M22.75 9C22.75 9.41421 22.4142 9.75 22 9.75L19 9.75C18.5858 9.75 18.25 9.41421 18.25 9C18.25 8.58579 18.5858 8.25 19 8.25L22 8.25C22.4142 8.25 22.75 8.58579 22.75 9Z" fill="#262626"/>
<path fill-rule="evenodd" clip-rule="evenodd" d="M5.75 9C5.75 9.41421 5.41421 9.75 5 9.75L2 9.75C1.58579 9.75 1.25 9.41421 1.25 9C1.25 8.58579 1.58579 8.25 2 8.25L5 8.25C5.41421 8.25 5.75 8.58579 5.75 9Z" fill="#262626"/>
</svg>
