<svg width="24" height="24" viewBox="0 0 24 24" fill="none" xmlns="http://www.w3.org/2000/svg">
<path fill-rule="evenodd" clip-rule="evenodd" d="M16.3117 3.25101C15.5796 2.51892 14.3754 2.57898 13.7198 3.38029L10.1358 7.76072C10.1008 7.80356 10.0525 7.83356 9.99856 7.84601L5.58942 8.8635C4.2501 9.17258 3.77356 10.8342 4.74548 11.8061L12.1939 19.2545C13.1658 20.2265 14.8274 19.7499 15.1365 18.4106L16.154 14.0015C16.1665 13.9475 16.1965 13.8992 16.2393 13.8642L20.6197 10.2802C21.421 9.62457 21.4811 8.42042 20.749 7.68833L16.3117 3.25101ZM4.53033 20.5303L8.06066 17L7 15.9393L3.46967 19.4697C3.17678 19.7626 3.17678 20.2374 3.46967 20.5303C3.76256 20.8232 4.23744 20.8232 4.53033 20.5303Z" fill="#23262A"/>
</svg>
