<svg width="24" height="24" viewBox="0 0 24 24" fill="none" xmlns="http://www.w3.org/2000/svg">
<path fill-rule="evenodd" clip-rule="evenodd" d="M3.25 5C3.25 4.58579 3.58579 4.25 4 4.25H8C8.41421 4.25 8.75 4.58579 8.75 5V5.99216C8.75019 5.99633 8.75069 6.00558 8.75191 6.01924C8.75457 6.04905 8.76049 6.09804 8.7733 6.15953C8.79943 6.28496 8.85086 6.44628 8.9485 6.6025C9.11431 6.86779 9.48987 7.25 10.5 7.25C11.5101 7.25 11.8857 6.86779 12.0515 6.6025C12.1491 6.44628 12.2006 6.28496 12.2267 6.15953C12.2395 6.09804 12.2454 6.04905 12.2481 6.01924C12.2493 6.00559 12.2498 5.99633 12.25 5.99216V5C12.25 4.58579 12.5858 4.25 13 4.25H17C17.4142 4.25 17.75 4.58579 17.75 5V8.54703C18.0962 8.39724 18.5381 8.25 19 8.25C20.5185 8.25 21.75 9.69842 21.75 11.5C21.75 13.3016 20.5185 14.75 19 14.75C18.5381 14.75 18.0962 14.6028 17.75 14.453V16.9995C17.75 17.4137 17.4142 17.75 17 17.75H13.453C13.6028 18.0962 13.75 18.5381 13.75 19C13.75 19.7177 13.408 20.5119 12.8769 21.1189C12.3334 21.74 11.516 22.25 10.5 22.25C9.48395 22.25 8.66656 21.74 8.12307 21.1189C7.59199 20.5119 7.25 19.7177 7.25 19C7.25 18.5381 7.39724 18.0962 7.54703 17.75H4C3.58579 17.75 3.25 17.4142 3.25 17V5Z" fill="#23262A"/>
</svg>
