<svg width="24" height="24" viewBox="0 0 24 24" fill="none" xmlns="http://www.w3.org/2000/svg">
<path fill-rule="evenodd" clip-rule="evenodd" d="M3.25 5C3.25 4.58579 3.58579 4.25 4 4.25H8C8.41421 4.25 8.75 4.58579 8.75 5V5.99216C8.75019 5.99633 8.75069 6.00558 8.75191 6.01924C8.75457 6.04905 8.76049 6.09804 8.7733 6.15953C8.79943 6.28496 8.85086 6.44628 8.9485 6.6025C9.11431 6.86779 9.48987 7.25 10.5 7.25C11.5101 7.25 11.8857 6.86779 12.0515 6.6025C12.1491 6.44628 12.2006 6.28496 12.2267 6.15953C12.2395 6.09804 12.2454 6.04905 12.2481 6.01924C12.2493 6.00559 12.2498 5.99633 12.25 5.99216V5C12.25 4.58579 12.5858 4.25 13 4.25H17C17.4142 4.25 17.75 4.58579 17.75 5H17L17.75 5.00005V5.00018V5.00041V5.00073V5.00114V5.00164V5.00222V5.0029V5.00367V5.00452V5.00546V5.0065V5.00761V5.00882V5.01011V5.01149V5.01295V5.01451V5.01614V5.01786V5.01967V5.02156V5.02354V5.02559V5.02774V5.02996V5.03227V5.03466V5.03714V5.03969V5.04233V5.04504V5.04784V5.05072V5.05368V5.05672V5.05984V5.06303V5.06631V5.06967V5.0731V5.07661V5.0802V5.08386V5.08761V5.09142V5.09532V5.09929V5.10333V5.10746V5.11165V5.11592V5.12027V5.12468V5.12918V5.13374V5.13838V5.14309V5.14787V5.15272V5.15765V5.16265V5.16771V5.17285V5.17806V5.18334V5.18868V5.1941V5.19958V5.20514V5.21076V5.21645V5.2222V5.22803V5.23392V5.23987V5.2459V5.25199V5.25814V5.26436V5.27064V5.27699V5.2834V5.28988V5.29642V5.30302V5.30968V5.31641V5.3232V5.33005V5.33697V5.34394V5.35097V5.35807V5.36522V5.37244V5.37971V5.38704V5.39443V5.40188V5.40939V5.41696V5.42458V5.43226V5.44V5.44779V5.45564V5.46354V5.4715V5.47952V5.48759V5.49571V5.50389V5.51212V5.52041V5.52874V5.53714V5.54558V5.55407V5.56262V5.57122V5.57987V5.58857V5.59732V5.60612V5.61497V5.62386V5.63281V5.64181V5.65085V5.65995V5.66909V5.67827V5.68751V5.69679V5.70612V5.71549V5.72491V5.73437V5.74388V5.75344V5.76304V5.77268V5.78236V5.79209V5.80186V5.81168V5.82154V5.83144V5.84138V5.85136V5.86138V5.87144V5.88155V5.89169V5.90187V5.91209V5.92236V5.93266V5.94299V5.95337V5.96378V5.97423V5.98472V5.99524V6.0058V6.0164V6.02703V6.0377V6.0484V6.05914V6.06991V6.08071V6.09155V6.10242V6.11333V6.12426V6.13523V6.14623V6.15727V6.16833V6.17942V6.19055V6.2017V6.21289V6.2241V6.23535V6.24662V6.25792V6.26925V6.28061V6.29199V6.3034V6.31484V6.32631V6.3378V6.34932V6.36086V6.37243V6.38402V6.39564V6.40728V6.41894V6.43063V6.44234V6.45408V6.46584V6.47762V6.48942V6.50124V6.51308V6.52495V6.53683V6.54874V6.56066V6.57261V6.58457V6.59655V6.60855V6.62057V6.63261V6.64466V6.65673V6.66882V6.68093V6.69305V6.70518V6.71734V6.7295V6.74169V6.75388V6.76609V6.77832V6.79055V6.8028V6.81507V6.82734V6.83963V6.85193V6.86424V6.87656V6.8889V6.90124V6.91359V6.92596V6.93833V6.95071V6.9631V6.9755V6.98791V7.00032V7.01274V7.02517V7.03761V7.05005V7.0625V7.07495V7.08741V7.09988V7.11235V7.12482V7.1373V7.14978V7.16226V7.17475V7.18724V7.19973V7.21223V7.22473V7.23722V7.24972V7.26222V7.27472V7.28722V7.29972V7.31222V7.32472V7.33722V7.34971V7.3622V7.37469V7.38718V7.39967V7.41215V7.42463V7.4371V7.44957V7.46204V7.4745V7.48695V7.4994V7.51184V7.52428V7.53671V7.54913V7.56155V7.57396V7.58636V7.59875V7.61113V7.6235V7.63587V7.64822V7.66057V7.6729V7.68523V7.69754V7.70984V7.72213V7.73441V7.74667V7.75892V7.77116V7.78339V7.7956V7.8078V7.81998V7.83215V7.84431V7.85645V7.86857V7.88067V7.89277V7.90484V7.9169V7.92893V7.94096V7.95296V7.96494V7.97691V7.98886V8.00078V8.01269V8.02458V8.03645V8.04829V8.06012V8.07192V8.08371V8.09547V8.1072V8.11892V8.13061V8.14228V8.15392V8.16554V8.17714V8.18871V8.20026V8.21178V8.22327V8.23474V8.24618V8.2576V8.26899V8.28035V8.29168V8.30299V8.31426V8.32551V8.33673V8.34792V8.35908V8.37021V8.3813V8.39237V8.40341V8.41441V8.42539V8.43633V8.44724V8.45811V8.46895V8.47976V8.49054V8.50128V8.51199V8.52266V8.53329V8.5439V8.54703C18.0962 8.39724 18.5381 8.25 19 8.25C20.5185 8.25 21.75 9.69842 21.75 11.5C21.75 13.3016 20.5185 14.75 19 14.75C18.5381 14.75 18.0962 14.6028 17.75 14.453V14.4536V14.4624V14.4712V14.48V14.4889V14.4977V14.5066V14.5155V14.5244V14.5333V14.5423V14.5512V14.5602V14.5692V14.5782V14.5873V14.5963V14.6054V14.6145V14.6236V14.6327V14.6418V14.6509V14.6601V14.6693V14.6785V14.6877V14.6969V14.7061V14.7153V14.7246V14.7338V14.7431V14.7524V14.7617V14.771V14.7804V14.7897V14.799V14.8084V14.8178V14.8271V14.8365V14.8459V14.8553V14.8648V14.8742V14.8836V14.8931V14.9025V14.912V14.9214V14.9309V14.9404V14.9499V14.9594V14.9689V14.9784V14.9879V14.9974V15.007V15.0165V15.026V15.0356V15.0451V15.0547V15.0642V15.0738V15.0834V15.0929V15.1025V15.1121V15.1216V15.1312V15.1408V15.1504V15.16V15.1696V15.1791V15.1887V15.1983V15.2079V15.2175V15.2271V15.2367V15.2463V15.2558V15.2654V15.275V15.2846V15.2942V15.3038V15.3133V15.3229V15.3325V15.342V15.3516V15.3612V15.3707V15.3803V15.3898V15.3994V15.4089V15.4184V15.428V15.4375V15.447V15.4565V15.466V15.4755V15.485V15.4945V15.504V15.5135V15.5229V15.5324V15.5418V15.5513V15.5607V15.5701V15.5795V15.5889V15.5983V15.6077V15.6171V15.6265V15.6358V15.6452V15.6545V15.6638V15.6731V15.6824V15.6917V15.701V15.7102V15.7195V15.7287V15.7379V15.7471V15.7563V15.7655V15.7747V15.7838V15.7929V15.8021V15.8112V15.8202V15.8293V15.8384V15.8474V15.8564V15.8654V15.8744V15.8834V15.8924V15.9013V15.9102V15.9191V15.928V15.9369V15.9457V15.9545V15.9633V15.9721V15.9809V15.9896V15.9984V16.0071V16.0158V16.0244V16.0331V16.0417V16.0503V16.0588V16.0674V16.0759V16.0844V16.0929V16.1014V16.1098V16.1182V16.1266V16.135V16.1433V16.1516V16.1599V16.1682V16.1764V16.1846V16.1928V16.201V16.2091V16.2172V16.2253V16.2334V16.2414V16.2494V16.2574V16.2653V16.2732V16.2811V16.2889V16.2968V16.3046V16.3123V16.3201V16.3278V16.3354V16.3431V16.3507V16.3583V16.3658V16.3733V16.3808V16.3883V16.3957V16.4031V16.4104V16.4178V16.4251V16.4323V16.4395V16.4467V16.4539V16.461V16.4681V16.4751V16.4821V16.4891V16.496V16.5029V16.5098V16.5166V16.5234V16.5302V16.5369V16.5436V16.5502V16.5568V16.5634V16.5699V16.5764V16.5829V16.5893V16.5957V16.602V16.6083V16.6145V16.6207V16.6269V16.633V16.6391V16.6452V16.6512V16.6571V16.663V16.6689V16.6748V16.6805V16.6863V16.692V16.6977V16.7033V16.7088V16.7144V16.7198V16.7253V16.7307V16.736V16.7413V16.7466V16.7518V16.7569V16.7621V16.7671V16.7721V16.7771V16.782V16.7869V16.7917V16.7965V16.8013V16.8059V16.8106V16.8152V16.8197V16.8242V16.8286V16.833V16.8373V16.8416V16.8458V16.85V16.8541V16.8582V16.8622V16.8662V16.8701V16.874V16.8778V16.8816V16.8853V16.8889V16.8925V16.896V16.8995V16.903V16.9063V16.9097V16.9129V16.9161V16.9193V16.9224V16.9254V16.9284V16.9313V16.9342V16.937V16.9398V16.9425V16.9451V16.9477V16.9502V16.9527V16.9551V16.9574V16.9597V16.9619V16.9641V16.9662V16.9682V16.9702V16.9721V16.974V16.9758V16.9775V16.9792V16.9808V16.9823V16.9838V16.9852V16.9866V16.9879V16.9891V16.9903V16.9914V16.9924V16.9934V16.9943V16.9951V16.9959V16.9966V16.9972V16.9978V16.9983V16.9988V16.9991V16.9995V16.9997V16.9999V17L17 17H17.75C17.75 17.4142 17.4142 17.75 17 17.75H13.453C13.6028 18.0962 13.75 18.5381 13.75 19C13.75 19.7177 13.408 20.5119 12.8769 21.1189C12.3334 21.74 11.516 22.25 10.5 22.25C9.48395 22.25 8.66656 21.74 8.12307 21.1189C7.59199 20.5119 7.25 19.7177 7.25 19C7.25 18.5381 7.39724 18.0962 7.54703 17.75H4C3.58579 17.75 3.25 17.4142 3.25 17V5ZM16.25 16.25V16.2494V16.2414V16.2334V16.2253V16.2172V16.2091V16.201V16.1928V16.1846V16.1764V16.1682V16.1599V16.1516V16.1433V16.135V16.1266V16.1182V16.1098V16.1014V16.0929V16.0844V16.0759V16.0674V16.0588V16.0503V16.0417V16.0331V16.0244V16.0158V16.0071V15.9984V15.9896V15.9809V15.9721V15.9633V15.9545V15.9457V15.9369V15.928V15.9191V15.9102V15.9013V15.8924V15.8834V15.8744V15.8654V15.8564V15.8474V15.8384V15.8293V15.8202V15.8112V15.8021V15.7929V15.7838V15.7747V15.7655V15.7563V15.7471V15.7379V15.7287V15.7195V15.7102V15.701V15.6917V15.6824V15.6731V15.6638V15.6545V15.6452V15.6358V15.6265V15.6171V15.6077V15.5983V15.5889V15.5795V15.5701V15.5607V15.5513V15.5418V15.5324V15.5229V15.5135V15.504V15.4945V15.485V15.4755V15.466V15.4565V15.447V15.4375V15.428V15.4184V15.4089V15.3994V15.3898V15.3803V15.3707V15.3612V15.3516V15.342V15.3325V15.3229V15.3133V15.3038V15.2942V15.2846V15.275V15.2654V15.2558V15.2463V15.2367V15.2271V15.2175V15.2079V15.1983V15.1887V15.1791V15.1696V15.16V15.1504V15.1408V15.1312V15.1216V15.1121V15.1025V15.0929V15.0834V15.0738V15.0642V15.0547V15.0451V15.0356V15.026V15.0165V15.007V14.9974V14.9879V14.9784V14.9689V14.9594V14.9499V14.9404V14.9309V14.9214V14.912V14.9025V14.8931V14.8836V14.8742V14.8648V14.8553V14.8459V14.8365V14.8271V14.8178V14.8084V14.799V14.7897V14.7804V14.771V14.7617V14.7524V14.7431V14.7338V14.7246V14.7153V14.7061V14.6969V14.6877V14.6785V14.6693V14.6601V14.6509V14.6418V14.6327V14.6236V14.6145V14.6054V14.5963V14.5873V14.5782V14.5692V14.5602V14.5512V14.5423V14.5333V14.5244V14.5155V14.5066V14.4977V14.4889V14.48V14.4712V14.4624V14.4536V14.4449V14.4361V14.4274V14.4187V14.4101V14.4014V14.3928V14.3842V14.3756V14.367V14.3585V14.35V14.3415V14.333V14.3245V14.3161V14.3077V14.2993V14.291V14.2826V14.2743V14.2661V14.2578V14.2496V14.2414V14.2332V14.2251V14.2169V14.2088V14.2008V14.1927V14.1847V14.1767V14.1688V14.1609V14.153V14.1451V14.1373V14.1294V14.1217V14.1139V14.1062V14.0985V14.0908V14.0832V14.0756V14.068V14.0605V14.053V14.0455V14.0381V14.0307V14.0233V14.016V14.0087V14.0014V13.9942V13.9869V13.9798V13.9726V13.9655V13.9585V13.9514V13.9444V13.9375V13.9306V13.9237V13.9168V13.91V13.9032V13.8965V13.8898V13.8831V13.8765V13.8699V13.8634V13.8569V13.8504V13.844V13.8376V13.8312V13.8249V13.8186V13.8124V13.8062V13.8001V13.7939V13.7879V13.7819V13.7759V13.7699V13.764V13.7582V13.7524V13.7466V13.7409V13.7352V13.7295V13.7239V13.7184V13.7129V13.7074V13.702V13.6966V13.6913V13.686V13.6808V13.6756V13.6705V13.6654V13.6603V13.6553V13.6504V13.6455V13.6406V13.6358V13.6311V13.6264V13.6217V13.6171V13.6125V13.608V13.6036V13.5992V13.5948V13.5905V13.5862V13.582V13.5779V13.5738V13.5697V13.5657V13.5618V13.5579V13.554V13.5502V13.5465V13.5428V13.5392V13.5356V13.5321V13.5287V13.5252V13.5219V13.5186V13.5154V13.5122V13.509V13.506V13.503V13.5C16.25 13.3441 16.2868 12.9931 16.6148 12.7635C16.9104 12.5566 17.223 12.6111 17.329 12.6338C17.464 12.6628 17.5893 12.7152 17.6762 12.7542C17.7669 12.7949 17.8648 12.8439 17.9525 12.8877L17.9604 12.8917C18.3688 13.0959 18.7079 13.25 19 13.25C19.4815 13.25 20.25 12.6984 20.25 11.5C20.25 10.3016 19.4815 9.75 19 9.75C18.7079 9.75 18.3688 9.90415 17.9604 10.1083L17.9525 10.1123C17.8648 10.1561 17.7669 10.2051 17.6762 10.2458C17.5893 10.2848 17.464 10.3372 17.329 10.3662C17.223 10.3889 16.9104 10.4434 16.6148 10.2365C16.2868 10.0069 16.25 9.65587 16.25 9.5V9.49703V9.49398V9.49085V9.48764V9.48436V9.48099V9.47755V9.47403V9.47043V9.46675V9.463V9.45917V9.45527V9.45129V9.44723V9.4431V9.43889V9.43461V9.43026V9.42583V9.42133V9.41676V9.41211V9.40739V9.4026V9.39773V9.3928V9.38779V9.38272V9.37757V9.37235V9.36707V9.36171V9.35628V9.35079V9.34523V9.3396V9.3339V9.32813V9.3223V9.3164V9.31044V9.30441V9.29831V9.29215V9.28592V9.27963V9.27327V9.26685V9.26036V9.25382V9.24721V9.24053V9.2338V9.227V9.22014V9.21322V9.20624V9.1992V9.19209V9.18493V9.17771V9.17043V9.16309V9.15569V9.14823V9.14071V9.13314V9.12551V9.11782V9.11008V9.10228V9.09442V9.08651V9.07854V9.07052V9.06244V9.05431V9.04613V9.03789V9.0296V9.02125V9.01285V9.0044V8.9959V8.98735V8.97874V8.97009V8.96138V8.95262V8.94382V8.93496V8.92606V8.9171V8.9081V8.89905V8.88995V8.8808V8.87161V8.86237V8.85308V8.84375V8.83437V8.82494V8.81547V8.80596V8.7964V8.78679V8.77714V8.76745V8.75772V8.74794V8.73812V8.72826V8.71835V8.70841V8.69842V8.68839V8.67832V8.66821V8.65807V8.64788V8.63765V8.62738V8.61708V8.60674V8.59636V8.58594V8.57548V8.56499V8.55446V8.5439V8.53329V8.52266V8.51199V8.50128V8.49054V8.47976V8.46895V8.45811V8.44724V8.43633V8.42539V8.41441V8.40341V8.39237V8.3813V8.37021V8.35908V8.34792V8.33673V8.32551V8.31426V8.30299V8.29168V8.28035V8.26899V8.2576V8.24618V8.23474V8.22327V8.21178V8.20026V8.18871V8.17714V8.16554V8.15392V8.14228V8.13061V8.11892V8.1072V8.09547V8.08371V8.07192V8.06012V8.04829V8.03645V8.02458V8.01269V8.00078V7.98886V7.97691V7.96494V7.95296V7.94096V7.92893V7.9169V7.90484V7.89277V7.88067V7.86857V7.85645V7.84431V7.83215V7.81998V7.8078V7.7956V7.78339V7.77116V7.75892V7.74667V7.73441V7.72213V7.70984V7.69754V7.68523V7.6729V7.66057V7.64822V7.63587V7.6235V7.61113V7.59875V7.58636V7.57396V7.56155V7.54913V7.53671V7.52428V7.51184V7.4994V7.48695V7.4745V7.46204V7.44957V7.4371V7.42463V7.41215V7.39967V7.38718V7.37469V7.3622V7.34971V7.33722V7.32472V7.31222V7.29972V7.28722V7.27472V7.26222V7.24972V7.23722V7.22473V7.21223V7.19973V7.18724V7.17475V7.16226V7.14978V7.1373V7.12482V7.11235V7.09988V7.08741V7.07495V7.0625V7.05005V7.03761V7.02517V7.01274V7.00032V6.98791V6.9755V6.9631V6.95071V6.93833V6.92596V6.91359V6.90124V6.8889V6.87656V6.86424V6.85193V6.83963V6.82734V6.81507V6.8028V6.79055V6.77832V6.76609V6.75388V6.74169V6.7295V6.71734V6.70518V6.69305V6.68093V6.66882V6.65673V6.64466V6.63261V6.62057V6.60855V6.59655V6.58457V6.57261V6.56066V6.54874V6.53683V6.52495V6.51308V6.50124V6.48942V6.47762V6.46584V6.45408V6.44234V6.43063V6.41894V6.40728V6.39564V6.38402V6.37243V6.36086V6.34932V6.3378V6.32631V6.31484V6.3034V6.29199V6.28061V6.26925V6.25792V6.24662V6.23535V6.2241V6.21289V6.2017V6.19055V6.17942V6.16833V6.15727V6.14623V6.13523V6.12426V6.11333V6.10242V6.09155V6.08071V6.06991V6.05914V6.0484V6.0377V6.02703V6.0164V6.0058V5.99524V5.98472V5.97423V5.96378V5.95337V5.94299V5.93266V5.92236V5.91209V5.90187V5.89169V5.88155V5.87144V5.86138V5.85136V5.84138V5.83144V5.82154V5.81168V5.80186V5.79209V5.78236V5.77268V5.76304V5.75344V5.75H13.75V6H13C13.75 6 13.75 6.00047 13.75 6.00094L13.75 6.00193L13.75 6.00406L13.75 6.00889L13.7498 6.02086C13.7496 6.02984 13.7493 6.04082 13.7487 6.05368C13.7477 6.07938 13.7457 6.11272 13.7421 6.15264C13.735 6.2322 13.7214 6.33946 13.6952 6.46547C13.6432 6.71504 13.5384 7.05372 13.3235 7.3975C12.8643 8.13221 11.9899 8.75 10.5 8.75C9.01013 8.75 8.13569 8.13221 7.6765 7.3975C7.46164 7.05372 7.35682 6.71504 7.30483 6.46547C7.27858 6.33946 7.26496 6.2322 7.25785 6.15264C7.25429 6.11272 7.25233 6.07938 7.25126 6.05368C7.25072 6.04082 7.25041 6.02984 7.25023 6.02086L7.25005 6.00889L7.25001 6.00406L7.25 6.00193L7.25 6.00094C7.25 6.00047 7.25 6 8 6H7.25V5.75H4.75V16.25H8.5C8.65587 16.25 9.00688 16.2868 9.23649 16.6148C9.4434 16.9104 9.38889 17.223 9.36616 17.329C9.33725 17.464 9.28476 17.5893 9.24579 17.6762C9.2051 17.7669 9.15613 17.8648 9.1123 17.9525L9.10832 17.9604C8.90415 18.3688 8.75 18.7079 8.75 19C8.75 19.2823 8.90801 19.7381 9.25193 20.1311C9.58344 20.51 10.016 20.75 10.5 20.75C10.984 20.75 11.4166 20.51 11.7481 20.1311C12.092 19.7381 12.25 19.2823 12.25 19C12.25 18.7079 12.0959 18.3688 11.8917 17.9604L11.8877 17.9525C11.8439 17.8648 11.7949 17.7669 11.7542 17.6762C11.7152 17.5893 11.6628 17.464 11.6338 17.329C11.6111 17.223 11.5566 16.9104 11.7635 16.6148C11.9931 16.2868 12.3441 16.25 12.5 16.25H16.25Z" fill="#262626"/>
</svg>
