<svg width="24" height="24" viewBox="0 0 24 24" fill="none" xmlns="http://www.w3.org/2000/svg">
<path fill-rule="evenodd" clip-rule="evenodd" d="M3.25 5C3.25 4.58579 3.58579 4.25 4 4.25H8C8.41421 4.25 8.75 4.58579 8.75 5V5.99216C8.75019 5.99633 8.75069 6.00558 8.75191 6.01924C8.75457 6.04905 8.76049 6.09804 8.7733 6.15953C8.79943 6.28496 8.85086 6.44628 8.9485 6.6025C9.11431 6.86779 9.48987 7.25 10.5 7.25C11.5101 7.25 11.8857 6.86779 12.0515 6.6025C12.1491 6.44628 12.2006 6.28496 12.2267 6.15953C12.2395 6.09804 12.2454 6.04905 12.2481 6.01924C12.2493 6.00559 12.2498 5.99633 12.25 5.99216V5C12.25 4.58579 12.5858 4.25 13 4.25H17C17.4142 4.25 17.75 4.58579 17.75 5V8.54703C18.0962 8.39724 18.5381 8.25 19 8.25C20.5185 8.25 21.75 9.69842 21.75 11.5C21.75 13.3016 20.5185 14.75 19 14.75C18.5381 14.75 18.0962 14.6028 17.75 14.453V16.9995C17.75 17.4137 17.4142 17.75 17 17.75H13.453C13.6028 18.0962 13.75 18.5381 13.75 19C13.75 19.7177 13.408 20.5119 12.8769 21.1189C12.3334 21.74 11.516 22.25 10.5 22.25C9.48395 22.25 8.66656 21.74 8.12307 21.1189C7.59199 20.5119 7.25 19.7177 7.25 19C7.25 18.5381 7.39724 18.0962 7.54703 17.75H4C3.58579 17.75 3.25 17.4142 3.25 17V5ZM16.25 16.2494V13.5C16.25 13.3441 16.2868 12.9931 16.6148 12.7635C16.9104 12.5566 17.223 12.6111 17.329 12.6338C17.464 12.6628 17.5893 12.7152 17.6762 12.7542C17.7669 12.7949 17.8648 12.8439 17.9525 12.8877L17.9604 12.8917C18.3688 13.0959 18.7079 13.25 19 13.25C19.4815 13.25 20.25 12.6984 20.25 11.5C20.25 10.3016 19.4815 9.75 19 9.75C18.7079 9.75 18.3688 9.90415 17.9604 10.1083L17.9525 10.1123C17.8648 10.1561 17.7669 10.2051 17.6762 10.2458C17.5893 10.2848 17.464 10.3372 17.329 10.3662C17.223 10.3889 16.9104 10.4434 16.6148 10.2365C16.2868 10.0069 16.25 9.65587 16.25 9.5V5.75H13.75V6H13C13.75 6 13.75 5.99953 13.75 6L13.75 6.00193L13.75 6.00406L13.75 6.00889L13.7498 6.02086C13.7496 6.02984 13.7493 6.04082 13.7487 6.05368C13.7477 6.07938 13.7457 6.11272 13.7421 6.15264C13.735 6.2322 13.7214 6.33946 13.6952 6.46547C13.6432 6.71504 13.5384 7.05372 13.3235 7.3975C12.8643 8.13221 11.9899 8.75 10.5 8.75C9.01013 8.75 8.13569 8.13221 7.6765 7.3975C7.46164 7.05372 7.35682 6.71504 7.30483 6.46547C7.27858 6.33946 7.26496 6.2322 7.25785 6.15264C7.25429 6.11272 7.25233 6.07938 7.25126 6.05368C7.25072 6.04082 7.25041 6.02984 7.25023 6.02086L7.25005 6.00889L7.25001 6.00406L7.25 6.00193C7.25 6.00146 7.25 6 8 6H7.25V5.75H4.75V16.25H8.5C8.65587 16.25 9.00688 16.2868 9.23649 16.6148C9.4434 16.9104 9.38889 17.223 9.36616 17.329C9.33725 17.464 9.28476 17.5893 9.24579 17.6762C9.2051 17.7669 9.15613 17.8648 9.1123 17.9525L9.10832 17.9604C8.90415 18.3688 8.75 18.7079 8.75 19C8.75 19.2823 8.90801 19.7381 9.25193 20.1311C9.58344 20.51 10.016 20.75 10.5 20.75C10.984 20.75 11.4166 20.51 11.7481 20.1311C12.092 19.7381 12.25 19.2823 12.25 19C12.25 18.7079 12.0959 18.3688 11.8917 17.9604L11.8877 17.9525C11.8439 17.8648 11.7949 17.7669 11.7542 17.6762C11.7152 17.5893 11.6628 17.464 11.6338 17.329C11.6111 17.223 11.5566 16.9104 11.7635 16.6148C11.9931 16.2868 12.3441 16.25 12.5 16.25L16.25 16.2494Z" fill="#23262A"/>
</svg>
