<svg width="24" height="24" viewBox="0 0 24 24" fill="none" xmlns="http://www.w3.org/2000/svg">
<path fill-rule="evenodd" clip-rule="evenodd" d="M4 3.25C3.58579 3.25 3.25 3.58579 3.25 4V10C3.25 10.4142 3.58579 10.75 4 10.75H10C10.4142 10.75 10.75 10.4142 10.75 10V4C10.75 3.58579 10.4142 3.25 10 3.25H4ZM4.75 9.25V4.75H9.25V9.25H4.75ZM14 3.25C13.5858 3.25 13.25 3.58579 13.25 4V10C13.25 10.4142 13.5858 10.75 14 10.75H20C20.4142 10.75 20.75 10.4142 20.75 10V4C20.75 3.58579 20.4142 3.25 20 3.25H14ZM14.75 9.25V4.75H19.25V9.25H14.75ZM3.25 14C3.25 13.5858 3.58579 13.25 4 13.25H10C10.4142 13.25 10.75 13.5858 10.75 14V20C10.75 20.4142 10.4142 20.75 10 20.75H4C3.58579 20.75 3.25 20.4142 3.25 20V14ZM4.75 14.75V19.25H9.25V14.75H4.75ZM14 13.25C13.5858 13.25 13.25 13.5858 13.25 14V16C13.25 16.4142 13.5858 16.75 14 16.75H16C16.4142 16.75 16.75 16.4142 16.75 16V14C16.75 13.5858 16.4142 13.25 16 13.25H14ZM17.25 14C17.25 13.5858 17.5858 13.25 18 13.25H20C20.4142 13.25 20.75 13.5858 20.75 14V16C20.75 16.4142 20.4142 16.75 20 16.75H18C17.5858 16.75 17.25 16.4142 17.25 16V14ZM14 17.25C13.5858 17.25 13.25 17.5858 13.25 18V20C13.25 20.4142 13.5858 20.75 14 20.75H16C16.4142 20.75 16.75 20.4142 16.75 20V18C16.75 17.5858 16.4142 17.25 16 17.25H14Z" fill="#23262A"/>
</svg>
