<svg width="24" height="24" viewBox="0 0 24 24" fill="none" xmlns="http://www.w3.org/2000/svg">
<path fill-rule="evenodd" clip-rule="evenodd" d="M19.25 4.75V8C19.25 8.41421 19.5858 8.75 20 8.75C20.4142 8.75 20.75 8.41421 20.75 8L20.75 4C20.75 3.58579 20.4142 3.25 20 3.25H16C15.5858 3.25 15.25 3.58579 15.25 4C15.25 4.41421 15.5858 4.75 16 4.75L19.25 4.75ZM4.75 16L4.75 19.25H8C8.41421 19.25 8.75 19.5858 8.75 20C8.75 20.4142 8.41421 20.75 8 20.75H4C3.58579 20.75 3.25 20.4142 3.25 20V16C3.25 15.5858 3.58579 15.25 4 15.25C4.41421 15.25 4.75 15.5858 4.75 16ZM19.25 16V19.25H16C15.5858 19.25 15.25 19.5858 15.25 20C15.25 20.4142 15.5858 20.75 16 20.75H20C20.4142 20.75 20.75 20.4142 20.75 20L20.75 16C20.75 15.5858 20.4142 15.25 20 15.25C19.5858 15.25 19.25 15.5858 19.25 16ZM4.75 8L4.75 4.75L8 4.75C8.41421 4.75 8.75 4.41421 8.75 4C8.75 3.58579 8.41421 3.25 8 3.25H4C3.58579 3.25 3.25 3.58579 3.25 4V8C3.25 8.41421 3.58579 8.75 4 8.75C4.41421 8.75 4.75 8.41421 4.75 8ZM5.75 6.5C5.75 6.08579 6.08579 5.75 6.5 5.75H10.5C10.9142 5.75 11.25 6.08579 11.25 6.5V10.5C11.25 10.9142 10.9142 11.25 10.5 11.25H6.5C6.08579 11.25 5.75 10.9142 5.75 10.5V6.5ZM7.25 7.25V9.75H9.75V7.25H7.25ZM13.5 5.75C13.0858 5.75 12.75 6.08579 12.75 6.5V10.5C12.75 10.9142 13.0858 11.25 13.5 11.25H17.5C17.9142 11.25 18.25 10.9142 18.25 10.5V6.5C18.25 6.08579 17.9142 5.75 17.5 5.75H13.5ZM14.25 9.75V7.25H16.75V9.75H14.25ZM5.75 13.5C5.75 13.0858 6.08579 12.75 6.5 12.75H10.5C10.9142 12.75 11.25 13.0858 11.25 13.5V17.5C11.25 17.9142 10.9142 18.25 10.5 18.25H6.5C6.08579 18.25 5.75 17.9142 5.75 17.5V13.5ZM7.25 14.25V16.75H9.75V14.25H7.25ZM13.5 12.75C13.0858 12.75 12.75 13.0858 12.75 13.5V14.5C12.75 14.9142 13.0858 15.25 13.5 15.25H14.5C14.9142 15.25 15.25 14.9142 15.25 14.5V13.5C15.25 13.0858 14.9142 12.75 14.5 12.75H13.5ZM12.75 16.5C12.75 16.0858 13.0858 15.75 13.5 15.75H14.5C14.9142 15.75 15.25 16.0858 15.25 16.5V17.5C15.25 17.9142 14.9142 18.25 14.5 18.25H13.5C13.0858 18.25 12.75 17.9142 12.75 17.5V16.5ZM16.5 12.75C16.0858 12.75 15.75 13.0858 15.75 13.5V14.5C15.75 14.9142 16.0858 15.25 16.5 15.25H17.5C17.9142 15.25 18.25 14.9142 18.25 14.5V13.5C18.25 13.0858 17.9142 12.75 17.5 12.75H16.5Z" fill="#23262A"/>
</svg>
