<svg width="24" height="24" viewBox="0 0 24 24" fill="none" xmlns="http://www.w3.org/2000/svg">
<path fill-rule="evenodd" clip-rule="evenodd" d="M12 21.75C17.3848 21.75 21.75 17.3848 21.75 12C21.75 6.61522 17.3848 2.25 12 2.25C6.61522 2.25 2.25 6.61522 2.25 12C2.25 17.3848 6.61522 21.75 12 21.75ZM12 7.75C11.0335 7.75 10.25 8.5335 10.25 9.5C10.25 9.91421 9.91421 10.25 9.5 10.25C9.08579 10.25 8.75 9.91421 8.75 9.5C8.75 7.70507 10.2051 6.25 12 6.25H12.1361C13.8559 6.25 15.25 7.64413 15.25 9.36387C15.25 10.3098 14.82 11.2045 14.0814 11.7954L13.6398 12.1486C13.0774 12.5985 12.75 13.2797 12.75 14C12.75 14.4142 12.4142 14.75 12 14.75C11.5858 14.75 11.25 14.4142 11.25 14C11.25 12.8241 11.7845 11.7119 12.7028 10.9773L13.1443 10.6241C13.5271 10.3178 13.75 9.85413 13.75 9.36387C13.75 8.47255 13.0274 7.75 12.1361 7.75H12ZM11.0498 16.9C11.0498 16.3753 11.4751 15.95 11.9998 15.95C12.5245 15.95 12.9498 16.3753 12.9498 16.9C12.9498 17.4247 12.5245 17.85 11.9998 17.85C11.4751 17.85 11.0498 17.4247 11.0498 16.9Z" fill="#23262A"/>
</svg>
