<svg width="24" height="24" viewBox="0 0 24 24" fill="none" xmlns="http://www.w3.org/2000/svg">
<path fill-rule="evenodd" clip-rule="evenodd" d="M12.5304 1.57026C12.2375 1.27736 11.7626 1.27736 11.4698 1.57026L1.57026 11.4698C1.27736 11.7626 1.27736 12.2375 1.57026 12.5304L11.4698 22.4299C11.7626 22.7228 12.2375 22.7228 12.5304 22.4299L22.4299 12.5304C22.7228 12.2375 22.7228 11.7626 22.4299 11.4698L12.5304 1.57026ZM12.0001 20.8389L3.16125 12.0001L12.0001 3.16125L20.8389 12.0001L12.0001 20.8389ZM11.0803 8.97901C10.8899 9.16943 10.75 9.46912 10.75 9.89868C10.75 10.3129 10.4142 10.6487 10 10.6487C9.58579 10.6487 9.25 10.3129 9.25 9.89868C9.25 9.12825 9.51009 8.42794 10.0197 7.91835C10.5293 7.40877 11.2296 7.14868 12 7.14868C12.7704 7.14868 13.4707 7.40877 13.9803 7.91835C14.4899 8.42794 14.75 9.12825 14.75 9.89868C14.75 10.4159 14.5328 10.8431 14.2978 11.1721C14.0738 11.4857 13.7863 11.7731 13.5504 12.009L13.5303 12.029C13.2699 12.2894 13.0674 12.4946 12.9228 12.6971C12.7828 12.8931 12.75 13.0159 12.75 13.0987V13.4987C12.75 13.9129 12.4142 14.2487 12 14.2487C11.5858 14.2487 11.25 13.9129 11.25 13.4987V13.0987C11.25 12.5814 11.4672 12.1543 11.7022 11.8253C11.9262 11.5117 12.2137 11.2243 12.4496 10.9884L12.4496 10.9884L12.4697 10.9684C12.7301 10.7079 12.9326 10.5027 13.0772 10.3003C13.2172 10.1043 13.25 9.98145 13.25 9.89868C13.25 9.46912 13.1101 9.16943 12.9197 8.97901C12.7293 8.7886 12.4296 8.64868 12 8.64868C11.5704 8.64868 11.2707 8.7886 11.0803 8.97901ZM11.0498 15.9017C11.0498 15.377 11.4751 14.9517 11.9998 14.9517C12.5245 14.9517 12.9498 15.377 12.9498 15.9017C12.9498 16.4263 12.5245 16.8517 11.9998 16.8517C11.4751 16.8517 11.0498 16.4263 11.0498 15.9017Z" fill="#23262A"/>
</svg>
