<svg width="24" height="24" viewBox="0 0 24 24" fill="none" xmlns="http://www.w3.org/2000/svg">
<path fill-rule="evenodd" clip-rule="evenodd" d="M10.25 9.5C10.25 8.92044 10.4399 8.49575 10.7178 8.21783C10.9957 7.93991 11.4204 7.75 12 7.75C12.5796 7.75 13.0043 7.93991 13.2822 8.21783C13.5601 8.49575 13.75 8.92044 13.75 9.5C13.75 9.65777 13.6859 9.84934 13.4991 10.1109C13.3076 10.379 13.0426 10.6467 12.7197 10.9697L12.6985 10.9909C12.4009 11.2884 12.0511 11.6381 11.7803 12.0172C11.4984 12.4118 11.25 12.9078 11.25 13.5V14C11.25 14.4142 11.5858 14.75 12 14.75C12.4142 14.75 12.75 14.4142 12.75 14V13.5C12.75 13.3422 12.8141 13.1507 13.0009 12.8891C13.1924 12.621 13.4574 12.3533 13.7803 12.0303L13.8015 12.0091C14.0991 11.7116 14.4489 11.3619 14.7197 10.9828C15.0016 10.5882 15.25 10.0922 15.25 9.5C15.25 8.57956 14.9399 7.75425 14.3428 7.15717C13.7457 6.56009 12.9204 6.25 12 6.25C11.0796 6.25 10.2543 6.56009 9.65717 7.15717C9.06009 7.75425 8.75 8.57956 8.75 9.5C8.75 9.91421 9.08579 10.25 9.5 10.25C9.91421 10.25 10.25 9.91421 10.25 9.5ZM12 15.5C11.4477 15.5 11 15.9477 11 16.5C11 17.0523 11.4477 17.5 12 17.5C12.5523 17.5 13 17.0523 13 16.5C13 15.9477 12.5523 15.5 12 15.5Z" fill="#262626"/>
</svg>
