<svg width="24" height="24" viewBox="0 0 24 24" fill="none" xmlns="http://www.w3.org/2000/svg">
<path fill-rule="evenodd" clip-rule="evenodd" d="M12 3.75C7.44365 3.75 3.75 7.44365 3.75 12C3.75 16.5563 7.44365 20.25 12 20.25C16.5563 20.25 20.25 16.5563 20.25 12C20.25 7.44365 16.5563 3.75 12 3.75ZM2.25 12C2.25 6.61522 6.61522 2.25 12 2.25C17.3848 2.25 21.75 6.61522 21.75 12C21.75 17.3848 17.3848 21.75 12 21.75C6.61522 21.75 2.25 17.3848 2.25 12ZM11.0498 16.9C11.0498 16.3753 11.4751 15.95 11.9998 15.95C12.5245 15.95 12.9498 16.3753 12.9498 16.9C12.9498 17.4247 12.5245 17.85 11.9998 17.85C11.4751 17.85 11.0498 17.4247 11.0498 16.9ZM10.25 9.5C10.25 8.5335 11.0335 7.75 12 7.75H12.1361C13.0274 7.75 13.75 8.47255 13.75 9.36387C13.75 9.85413 13.5271 10.3178 13.1443 10.6241L12.7028 10.9773C11.7845 11.7119 11.25 12.8241 11.25 14C11.25 14.4142 11.5858 14.75 12 14.75C12.4142 14.75 12.75 14.4142 12.75 14C12.75 13.2797 13.0774 12.5985 13.6398 12.1486L14.0814 11.7954C14.82 11.2045 15.25 10.3098 15.25 9.36387C15.25 7.64413 13.8559 6.25 12.1361 6.25H12C10.2051 6.25 8.75 7.70507 8.75 9.5C8.75 9.91421 9.08579 10.25 9.5 10.25C9.91421 10.25 10.25 9.91421 10.25 9.5Z" fill="#23262A"/>
</svg>
