<svg width="24" height="24" viewBox="0 0 24 24" fill="none" xmlns="http://www.w3.org/2000/svg">
<path fill-rule="evenodd" clip-rule="evenodd" d="M1.57026 12.5303C1.27736 12.2374 1.27736 11.7625 1.57026 11.4696L11.4698 1.57013C11.7626 1.27724 12.2375 1.27724 12.5304 1.57013L22.4299 11.4696C22.7228 11.7625 22.7228 12.2374 22.4299 12.5303L12.5304 22.4298C12.2375 22.7227 11.7626 22.7227 11.4698 22.4298L1.57026 12.5303ZM10.749 9.89832C10.749 9.46875 10.8889 9.16906 11.0794 8.97865C11.2698 8.78823 11.5695 8.64832 11.999 8.64832C12.4286 8.64832 12.7283 8.78823 12.9187 8.97865C13.1091 9.16906 13.249 9.46875 13.249 9.89832C13.249 9.98108 13.2162 10.1039 13.0762 10.2999C12.9316 10.5024 12.7291 10.7075 12.4687 10.968L12.4487 10.988C12.2127 11.2239 11.9252 11.5113 11.7012 11.8249C11.4662 12.1539 11.249 12.5811 11.249 13.0983V13.4983C11.249 13.9125 11.5848 14.2483 11.999 14.2483C12.4132 14.2483 12.749 13.9125 12.749 13.4983V13.0983C12.749 13.0156 12.7818 12.8927 12.9218 12.6967C13.0664 12.4943 13.2689 12.2891 13.5294 12.0286L13.5494 12.0086L13.5494 12.0086C13.7854 11.7727 14.0728 11.4853 14.2968 11.1717C14.5318 10.8427 14.749 10.4156 14.749 9.89832C14.749 9.12788 14.4889 8.42757 13.9794 7.91799C13.4698 7.4084 12.7695 7.14832 11.999 7.14832C11.2286 7.14832 10.5283 7.4084 10.0187 7.91799C9.50911 8.42757 9.24902 9.12788 9.24902 9.89832C9.24902 10.3125 9.58481 10.6483 9.99902 10.6483C10.4132 10.6483 10.749 10.3125 10.749 9.89832ZM11.9998 14.9515C11.4751 14.9515 11.0498 15.3769 11.0498 15.9015C11.0498 16.4262 11.4751 16.8515 11.9998 16.8515C12.5245 16.8515 12.9498 16.4262 12.9498 15.9015C12.9498 15.3769 12.5245 14.9515 11.9998 14.9515Z" fill="#23262A"/>
</svg>
