<svg width="24" height="24" viewBox="0 0 24 24" fill="none" xmlns="http://www.w3.org/2000/svg">
<path fill-rule="evenodd" clip-rule="evenodd" d="M3.25 4C3.25 3.58579 3.58579 3.25 4 3.25H14.8506H16.5782H20C20.4142 3.25 20.75 3.58579 20.75 4V15.2499V16.7499V20C20.75 20.4142 20.4142 20.75 20 20.75H13.75H12.25H6.75H5.25H4C3.58579 20.75 3.25 20.4142 3.25 20V4ZM5.25 19C5.25 19.1381 5.36193 19.25 5.5 19.25H6.5C6.63807 19.25 6.75 19.1381 6.75 19V18.5616C6.75 17.988 7.14037 17.488 7.69683 17.3489L10.1819 16.7276C10.5158 16.6441 10.75 16.3442 10.75 16V12.5C10.75 12.0858 11.0858 11.75 11.5 11.75C11.9142 11.75 12.25 12.0858 12.25 12.5V19C12.25 19.1381 12.3619 19.25 12.5 19.25H13.5C13.6381 19.25 13.75 19.1381 13.75 19V12.5C13.75 11.2574 12.7426 10.25 11.5 10.25C10.2574 10.25 9.25 11.2574 9.25 12.5V15.2192C9.25 15.3339 9.17193 15.4339 9.06063 15.4618L7.33303 15.8937C6.10882 16.1997 5.25 17.2997 5.25 18.5616V19ZM19 16.7499C19.1381 16.7499 19.25 16.638 19.25 16.4999V15.4999C19.25 15.3618 19.1381 15.2499 19 15.2499H18.0003C17.3099 15.2499 16.7503 14.6902 16.7503 13.9999V13C16.7503 12.8619 16.8622 12.75 17.0003 12.75H18C18.4142 12.75 18.75 12.4142 18.75 12C18.75 11.5858 18.4142 11.25 18 11.25H17.0003C16.8622 11.25 16.7503 11.1381 16.7503 11V8.99988C16.7503 8.58567 16.4145 8.24988 16.0003 8.24988H14.1998C14.0092 8.24988 13.8887 8.04511 13.9812 7.87847L15.6537 4.86805C15.6838 4.81545 15.6458 4.75 15.5852 4.75H14.1504C14.0597 4.75 13.976 4.79922 13.9319 4.87859L12.67 7.15001C12.022 8.31644 12.8654 9.74988 14.1998 9.74988H15.0003C15.1383 9.74988 15.2503 9.86181 15.2503 9.99989V11.9798L15.25 12L15.2503 12.0202V13.9999C15.2503 15.5187 16.4815 16.7499 18.0003 16.7499H19Z" fill="#23262A"/>
</svg>
