<svg width="24" height="24" viewBox="0 0 24 24" fill="none" xmlns="http://www.w3.org/2000/svg">
<path fill-rule="evenodd" clip-rule="evenodd" d="M4 3.25C3.58579 3.25 3.25 3.58579 3.25 4V20C3.25 20.4142 3.58579 20.75 4 20.75H20C20.4142 20.75 20.75 20.4142 20.75 20V4C20.75 3.58579 20.4142 3.25 20 3.25H4ZM7.33303 15.8937C6.10882 16.1997 5.25 17.2997 5.25 18.5616V19.25H4.75V4.75H14.0033L12.6699 7.15012C12.0219 8.31655 12.8653 9.75 14.1997 9.75H15.2502V11.9841L15.25 12L15.2502 12.0159V14C15.2502 15.5188 16.4814 16.75 18.0002 16.75H19.25V19.25H13.75V12.5C13.75 11.2574 12.7426 10.25 11.5 10.25C10.2574 10.25 9.25 11.2574 9.25 12.5V15.4144L7.33303 15.8937ZM7.69683 17.3489C7.14037 17.488 6.75 17.988 6.75 18.5616V19.25H12.25V12.5C12.25 12.0858 11.9142 11.75 11.5 11.75C11.0858 11.75 10.75 12.0858 10.75 12.5V16C10.75 16.3442 10.5158 16.6441 10.1819 16.7276L7.69683 17.3489ZM18.75 12C18.75 12.4142 18.4142 12.75 18 12.75H16.7502V14C16.7502 14.6904 17.3098 15.25 18.0002 15.25H19.25V4.75H15.7074C15.6936 4.78882 15.6765 4.82703 15.6558 4.86423L13.9811 7.87859C13.8886 8.04522 14.0091 8.25 14.1997 8.25H16.0002C16.4144 8.25 16.7502 8.58579 16.7502 9V11.25H18C18.4142 11.25 18.75 11.5858 18.75 12Z" fill="#23262A"/>
</svg>
