<svg width="24" height="24" viewBox="0 0 24 24" fill="none" xmlns="http://www.w3.org/2000/svg">
<path fill-rule="evenodd" clip-rule="evenodd" d="M12.0051 4.43163L9.09024 10.0794C8.07905 12.094 7.25 13.7582 7.25 15.4365C7.25 18.1463 9.35607 20.25 11.9908 20.25C14.6288 20.25 16.75 18.143 16.75 15.4365C16.75 13.7609 15.9052 12.0984 14.8738 10.0805L14.8729 10.0788L12.0051 4.43163ZM12.0022 2.25C12.4538 2.25 12.7244 2.56422 12.8425 2.76989L12.8521 2.78661L16.2094 9.39783C16.2096 9.3982 16.2098 9.39856 16.21 9.39892C16.2375 9.45279 16.2651 9.50672 16.2927 9.56072C17.2502 11.4321 18.25 13.3863 18.25 15.4365C18.25 18.9627 15.4658 21.75 11.9908 21.75C8.51248 21.75 5.75 18.9594 5.75 15.4365C5.75 13.387 6.73177 11.4327 7.67378 9.55757C7.69973 9.5059 7.72566 9.45429 7.75154 9.40273L7.75533 9.39519L11.1561 2.80617C11.2696 2.57771 11.5379 2.25 12.0022 2.25Z" fill="#23262A"/>
</svg>
