<svg width="24" height="24" viewBox="0 0 24 24" fill="none" xmlns="http://www.w3.org/2000/svg">
<path fill-rule="evenodd" clip-rule="evenodd" d="M13.75 7C13.75 5.48122 14.9812 4.25 16.5 4.25C18.0188 4.25 19.25 5.48122 19.25 7C19.25 8.51878 18.0188 9.75 16.5 9.75C14.9812 9.75 13.75 8.51878 13.75 7ZM6.25 8C6.25 6.48122 7.48122 5.25 9 5.25C10.5188 5.25 11.75 6.48122 11.75 8C11.75 9.51878 10.5188 10.75 9 10.75C7.48122 10.75 6.25 9.51878 6.25 8ZM9 11.25C7.91051 11.25 7.06905 11.753 6.52233 12.4911C5.99163 13.2075 5.75 14.1231 5.75 15V19C5.75 19.4142 6.08579 19.75 6.5 19.75H11.5C11.9142 19.75 12.25 19.4142 12.25 19V15C12.25 14.1231 12.0084 13.2075 11.4777 12.4911C10.931 11.753 10.0895 11.25 9 11.25ZM16.5 10.25C15.4105 10.25 14.569 10.753 14.0223 11.4911C13.4916 12.2075 13.25 13.1231 13.25 14C13.25 14.1381 13.3619 14.25 13.5 14.25H19.5C19.6381 14.25 19.75 14.1381 19.75 14C19.75 13.1231 19.5084 12.2075 18.9777 11.4911C18.431 10.753 17.5895 10.25 16.5 10.25ZM4.5 15.25C4.63807 15.25 4.75 15.3619 4.75 15.5V19.5C4.75 19.6381 4.63807 19.75 4.5 19.75H3C2.58579 19.75 2.25 19.4142 2.25 19V16C2.25 15.5858 2.58579 15.25 3 15.25H4.5ZM13.5 19.75C13.3619 19.75 13.25 19.6381 13.25 19.5V15.5C13.25 15.3619 13.3619 15.25 13.5 15.25H21C21.4142 15.25 21.75 15.5858 21.75 16V19C21.75 19.4142 21.4142 19.75 21 19.75H13.5Z" fill="#23262A"/>
</svg>
