<svg width="24" height="24" viewBox="0 0 24 24" fill="none" xmlns="http://www.w3.org/2000/svg">
<path fill-rule="evenodd" clip-rule="evenodd" d="M16.5 5.75C15.8096 5.75 15.25 6.30964 15.25 7C15.25 7.69036 15.8096 8.25 16.5 8.25C17.1904 8.25 17.75 7.69036 17.75 7C17.75 6.30964 17.1904 5.75 16.5 5.75ZM13.75 7C13.75 5.48122 14.9812 4.25 16.5 4.25C18.0188 4.25 19.25 5.48122 19.25 7C19.25 8.51878 18.0188 9.75 16.5 9.75C14.9812 9.75 13.75 8.51878 13.75 7ZM9 6.75C8.30964 6.75 7.75 7.30964 7.75 8C7.75 8.69036 8.30964 9.25 9 9.25C9.69036 9.25 10.25 8.69036 10.25 8C10.25 7.30964 9.69036 6.75 9 6.75ZM6.25 8C6.25 6.48122 7.48122 5.25 9 5.25C10.5188 5.25 11.75 6.48122 11.75 8C11.75 9.51878 10.5188 10.75 9 10.75C7.48122 10.75 6.25 9.51878 6.25 8ZM14.0223 11.4911C14.569 10.753 15.4105 10.25 16.5 10.25C17.5895 10.25 18.431 10.753 18.9777 11.4911C19.5084 12.2075 19.75 13.1231 19.75 14V15.25H21C21.4142 15.25 21.75 15.5858 21.75 16V19C21.75 19.4142 21.4142 19.75 21 19.75C20.5858 19.75 20.25 19.4142 20.25 19V16.75H12.25V19C12.25 19.4142 11.9142 19.75 11.5 19.75C11.0858 19.75 10.75 19.4142 10.75 19V15C10.75 14.3769 10.575 13.7925 10.2723 13.3839C9.98572 12.997 9.57717 12.75 9 12.75C8.42283 12.75 8.01428 12.997 7.72767 13.3839C7.42504 13.7925 7.25 14.3769 7.25 15V19C7.25 19.4142 6.91421 19.75 6.5 19.75C6.08579 19.75 5.75 19.4142 5.75 19V16.75H3.75V19C3.75 19.4142 3.41421 19.75 3 19.75C2.58579 19.75 2.25 19.4142 2.25 19V16C2.25 15.5858 2.58579 15.25 3 15.25H5.75V15C5.75 14.1231 5.99163 13.2075 6.52233 12.4911C7.06905 11.753 7.91051 11.25 9 11.25C10.0895 11.25 10.931 11.753 11.4777 12.4911C12.0084 13.2075 12.25 14.1231 12.25 15V15.25H13.25V14C13.25 13.1231 13.4916 12.2075 14.0223 11.4911ZM14.75 14C14.75 13.3769 14.925 12.7925 15.2277 12.3839C15.5143 11.997 15.9228 11.75 16.5 11.75C17.0772 11.75 17.4857 11.997 17.7723 12.3839C18.075 12.7925 18.25 13.3769 18.25 14V15.25H14.75V14Z" fill="#23262A"/>
</svg>
