<svg width="24" height="24" viewBox="0 0 24 24" fill="none" xmlns="http://www.w3.org/2000/svg">
<path fill-rule="evenodd" clip-rule="evenodd" d="M6.53033 3.46969C6.31583 3.25519 5.99324 3.19103 5.71299 3.30711C5.43273 3.4232 5.25 3.69668 5.25 4.00002V20C5.25 20.4142 5.58579 20.75 6 20.75H18C18.4142 20.75 18.75 20.4142 18.75 20V4.00002C18.75 3.69668 18.5673 3.4232 18.287 3.30711C18.0068 3.19103 17.6842 3.25519 17.4697 3.46969L16 4.93936L14.5303 3.46969C14.2374 3.1768 13.7626 3.1768 13.4697 3.46969L12 4.93936L10.5303 3.46969C10.2374 3.1768 9.76256 3.1768 9.46967 3.46969L8 4.93936L6.53033 3.46969ZM9.5 9.25C9.08579 9.25 8.75 9.58579 8.75 10C8.75 10.4142 9.08579 10.75 9.5 10.75H14.5C14.9142 10.75 15.25 10.4142 15.25 10C15.25 9.58579 14.9142 9.25 14.5 9.25H9.5ZM8.75 13C8.75 12.5858 9.08579 12.25 9.5 12.25H12.5C12.9142 12.25 13.25 12.5858 13.25 13C13.25 13.4142 12.9142 13.75 12.5 13.75H9.5C9.08579 13.75 8.75 13.4142 8.75 13ZM9.5 15.25C9.08579 15.25 8.75 15.5858 8.75 16C8.75 16.4142 9.08579 16.75 9.5 16.75H14.5C14.9142 16.75 15.25 16.4142 15.25 16C15.25 15.5858 14.9142 15.25 14.5 15.25H9.5Z" fill="#23262A"/>
</svg>
