<svg width="24" height="24" viewBox="0 0 24 24" fill="none" xmlns="http://www.w3.org/2000/svg">
<path fill-rule="evenodd" clip-rule="evenodd" d="M6.53033 3.46966C6.31583 3.25516 5.99324 3.191 5.71299 3.30708C5.43273 3.42317 5.25 3.69664 5.25 3.99999V20C5.25 20.4142 5.58579 20.75 6 20.75H18C18.4142 20.75 18.75 20.4142 18.75 20V3.99999C18.75 3.69664 18.5673 3.42317 18.287 3.30708C18.0068 3.191 17.6842 3.25516 17.4697 3.46966L16 4.93933L14.5303 3.46966C14.2374 3.17677 13.7626 3.17677 13.4697 3.46966L12 4.93933L10.5303 3.46966C10.2374 3.17677 9.76256 3.17677 9.46967 3.46966L8 4.93933L6.53033 3.46966ZM6.75 19.25V5.81065L7.46967 6.53032C7.76256 6.82321 8.23744 6.82321 8.53033 6.53032L10 5.06065L11.4697 6.53032C11.7626 6.82321 12.2374 6.82321 12.5303 6.53032L14 5.06065L15.4697 6.53032C15.7626 6.82321 16.2374 6.82321 16.5303 6.53032L17.25 5.81065V19.25H6.75ZM9.5 9.25C9.08579 9.25 8.75 9.58579 8.75 10C8.75 10.4142 9.08579 10.75 9.5 10.75H14.5C14.9142 10.75 15.25 10.4142 15.25 10C15.25 9.58579 14.9142 9.25 14.5 9.25H9.5ZM8.75 13C8.75 12.5858 9.08579 12.25 9.5 12.25H12.5C12.9142 12.25 13.25 12.5858 13.25 13C13.25 13.4142 12.9142 13.75 12.5 13.75H9.5C9.08579 13.75 8.75 13.4142 8.75 13ZM9.5 15.25C9.08579 15.25 8.75 15.5858 8.75 16C8.75 16.4142 9.08579 16.75 9.5 16.75H14.5C14.9142 16.75 15.25 16.4142 15.25 16C15.25 15.5858 14.9142 15.25 14.5 15.25H9.5Z" fill="#23262A"/>
</svg>
