<svg width="24" height="24" viewBox="0 0 24 24" fill="none" xmlns="http://www.w3.org/2000/svg">
<path fill-rule="evenodd" clip-rule="evenodd" d="M11.25 2.75C11.25 2.47386 11.0261 2.25 10.75 2.25H3.00195C2.58774 2.25 2.25195 2.58579 2.25195 3V13.75C2.25195 14.0261 2.47581 14.25 2.75195 14.25H10.75C11.0261 14.25 11.25 14.0261 11.25 13.75V9.00072V9V8.99928V2.75ZM2.75195 15.75C2.47581 15.75 2.25195 15.9739 2.25195 16.25V21C2.25195 21.4142 2.58774 21.75 3.00195 21.75H10.75C11.0261 21.75 11.25 21.5261 11.25 21.25V16.25C11.25 15.9739 11.0261 15.75 10.75 15.75H2.75195ZM12.75 21.25C12.75 21.5261 12.9739 21.75 13.25 21.75H20.9983C21.4125 21.75 21.7483 21.4142 21.7483 21V10.25C21.7483 9.97386 21.5244 9.75 21.2483 9.75H13.25C12.9739 9.75 12.75 9.97386 12.75 10.25V15L12.75 21.25ZM21.2483 8.25C21.5244 8.25 21.7483 8.02614 21.7483 7.75V3C21.7483 2.58579 21.4125 2.25 20.9983 2.25H13.25C12.9739 2.25 12.75 2.47386 12.75 2.75V7.75C12.75 8.02614 12.9739 8.25 13.25 8.25H21.2483Z" fill="#23262A"/>
</svg>
