<svg width="24" height="24" viewBox="0 0 24 24" fill="none" xmlns="http://www.w3.org/2000/svg">
<path fill-rule="evenodd" clip-rule="evenodd" d="M3.00195 2.25C2.58774 2.25 2.25195 2.58579 2.25195 3V21C2.25195 21.4142 2.58774 21.75 3.00195 21.75H20.9983C21.4125 21.75 21.7483 21.4142 21.7483 21V9.01108L21.7484 9L21.7483 8.98892V3C21.7483 2.58579 21.4125 2.25 20.9983 2.25H3.00195ZM12.75 15.0223C12.7502 15.0149 12.7503 15.0075 12.7503 15C12.7503 14.9925 12.7502 14.9851 12.75 14.9777V9.75H20.2483V20.25H12.75V15.0223ZM3.75195 15.75V20.25H11.25V15.75H3.75195ZM11.25 14.25H3.75195V3.75H11.25V14.25ZM20.2483 8.25H12.75V3.75H20.2483V8.25Z" fill="#23262A"/>
</svg>
