<svg width="24" height="24" viewBox="0 0 24 24" fill="none" xmlns="http://www.w3.org/2000/svg">
<path fill-rule="evenodd" clip-rule="evenodd" d="M14.3444 4.0022C14.4322 4.00214 14.5136 4.04817 14.5589 4.12344L15.8124 6.20962C15.9148 6.38012 16.0808 6.50294 16.2738 6.55106C16.4668 6.59918 16.671 6.56866 16.8415 6.46622L17.1391 6.28741L16.6431 9.0483L13.9724 8.19014L14.27 8.01133C14.4405 7.90888 14.5633 7.7429 14.6115 7.5499C14.6596 7.35689 14.6291 7.15268 14.5266 6.98218L12.7367 4.00321L14.3444 4.0022ZM9.6286 4.00518L10.9874 4.00432L12.8546 7.11186L11.7831 7.75566C11.5309 7.90722 11.3906 8.19231 11.4244 8.48464C11.4582 8.77698 11.6598 9.02254 11.94 9.11257L17.0002 10.7386C17.2061 10.8048 17.4305 10.7788 17.6159 10.6674C17.8013 10.5561 17.9296 10.3701 17.9678 10.1572L18.9078 4.9259C18.9598 4.63625 18.8376 4.34294 18.5954 4.17586C18.3531 4.00878 18.0356 3.99882 17.7833 4.15039L16.7118 4.79419L15.8446 3.35088C15.528 2.82397 14.9582 2.50181 14.3435 2.5022L9.62765 2.50518C9.02933 2.50556 8.47267 2.81159 8.15176 3.31658L7.24689 4.74051C7.02473 5.09011 7.12803 5.55361 7.47763 5.77577C7.82723 5.99793 8.29073 5.89462 8.51289 5.54503L9.41776 4.12109C9.4636 4.04895 9.54313 4.00524 9.6286 4.00518ZM7.89412 7.94381C8.08682 8.04199 8.22776 8.21858 8.28076 8.42826L9.58332 13.5813C9.65544 13.8666 9.55404 14.1677 9.32403 14.3513C9.09402 14.5348 8.7779 14.5669 8.5157 14.4333L7.40194 13.8658L5.75606 17.096L6.47684 18.2479C6.52218 18.3204 6.6014 18.3646 6.68687 18.3653L8.37394 18.3781C8.78815 18.3812 9.12137 18.7196 9.11823 19.1338C9.11508 19.548 8.77676 19.8812 8.36256 19.878L6.67548 19.8652C6.07717 19.8607 5.52266 19.5508 5.20527 19.0436L2.70374 15.0459C2.37766 14.5248 2.3489 13.8709 2.62798 13.3231L3.39241 11.8229L2.27865 11.2554C2.01644 11.1218 1.8566 10.8472 1.86991 10.5532C1.88323 10.2592 2.06724 10.0002 2.34045 9.89082L7.27493 7.91577C7.47572 7.8354 7.70142 7.84562 7.89412 7.94381ZM4.82814 15.6131L6.40592 12.5166C6.59397 12.1475 7.0456 12.0008 7.41467 12.1888L7.724 12.3464L7.03656 9.62687L4.43232 10.6692L4.74165 10.8268C5.11072 11.0149 5.25746 11.4665 5.06941 11.8356L3.96449 14.0041C3.92462 14.0824 3.92873 14.1758 3.97531 14.2502L4.82814 15.6131ZM19.6646 11.3292C20.0351 11.1439 20.4856 11.2941 20.6708 11.6646L21.4253 13.1736C21.6929 13.7088 21.6685 14.3435 21.3607 14.8566L18.9344 18.9004C18.6182 19.4275 18.0485 19.75 17.4338 19.75H15.75V21C15.75 21.2943 15.5779 21.5614 15.3099 21.683C15.0419 21.8046 14.7276 21.7582 14.5061 21.5644L10.5061 18.0644C10.3434 17.922 10.25 17.7163 10.25 17.5C10.25 17.2837 10.3434 17.078 10.5061 16.9356L14.5061 13.4356C14.7276 13.2418 15.0419 13.1954 15.3099 13.317C15.5779 13.4386 15.75 13.7057 15.75 14V15.25H19.3754L20.0744 14.0848C20.1184 14.0115 20.1219 13.9209 20.0837 13.8444L19.3292 12.3354C19.1439 11.9649 19.2941 11.5144 19.6646 11.3292ZM18.4754 16.75H15C14.5858 16.75 14.25 16.4142 14.25 16V15.6528L12.1389 17.5L14.25 19.3472V19C14.25 18.5858 14.5858 18.25 15 18.25H17.4338C17.5216 18.25 17.603 18.2039 17.6482 18.1286L18.4754 16.75Z" fill="#23262A"/>
</svg>
