<svg width="24" height="24" viewBox="0 0 24 24" fill="none" xmlns="http://www.w3.org/2000/svg">
<path fill-rule="evenodd" clip-rule="evenodd" d="M9.62869 4.00518L10.9875 4.00432L12.8547 7.11186L11.7832 7.75566C11.531 7.90722 11.3907 8.19231 11.4245 8.48464C11.4583 8.77698 11.6599 9.02254 11.9401 9.11257L17.0003 10.7386C17.2062 10.8048 17.4306 10.7788 17.616 10.6674C17.8014 10.5561 17.9297 10.3701 17.9679 10.1572L18.9079 4.9259C18.9599 4.63625 18.8377 4.34294 18.5955 4.17586C18.3532 4.00878 18.0356 3.99882 17.7834 4.15039L16.7119 4.79419L15.8447 3.35088C15.5281 2.82397 14.9583 2.50181 14.3436 2.5022L9.62775 2.50518C9.02942 2.50556 8.47276 2.81159 8.15185 3.31658L7.24698 4.74051C7.02482 5.09011 7.12813 5.55361 7.47772 5.77577C7.82732 5.99793 8.29082 5.89462 8.51298 5.54503L9.41785 4.12109C9.4637 4.04895 9.54322 4.00523 9.62869 4.00518ZM7.89412 7.94381C8.08682 8.04199 8.22776 8.21858 8.28076 8.42826L9.58332 13.5813C9.65544 13.8666 9.55404 14.1677 9.32403 14.3513C9.09402 14.5348 8.7779 14.5669 8.5157 14.4333L7.40194 13.8658L5.75606 17.096L6.47684 18.2479C6.52218 18.3204 6.6014 18.3646 6.68687 18.3653L8.37394 18.3781C8.78815 18.3812 9.12137 18.7196 9.11823 19.1338C9.11508 19.548 8.77676 19.8812 8.36256 19.878L6.67548 19.8652C6.07717 19.8607 5.52266 19.5508 5.20527 19.0436L2.70374 15.0459C2.37766 14.5248 2.3489 13.8709 2.62798 13.3231L3.39241 11.8229L2.27865 11.2554C2.01644 11.1218 1.8566 10.8472 1.86991 10.5532C1.88323 10.2592 2.06724 10.0002 2.34045 9.89082L7.27493 7.91576C7.47572 7.8354 7.70142 7.84562 7.89412 7.94381ZM19.6646 11.3291C20.0351 11.1439 20.4856 11.294 20.6708 11.6645L21.4253 13.1735C21.6929 13.7087 21.6685 14.3435 21.3607 14.8565L18.9344 18.9003C18.6182 19.4274 18.0485 19.7499 17.4338 19.7499H15.75V20.9999C15.75 21.2942 15.5779 21.5613 15.3099 21.6829C15.0419 21.8045 14.7276 21.7581 14.5061 21.5644L10.5061 18.0644C10.3434 17.9219 10.25 17.7162 10.25 17.4999C10.25 17.2836 10.3434 17.0779 10.5061 16.9355L14.5061 13.4355C14.7276 13.2417 15.0419 13.1953 15.3099 13.3169C15.5779 13.4385 15.75 13.7056 15.75 13.9999V15.2499H19.3754L20.0744 14.0848C20.1184 14.0115 20.1219 13.9208 20.0837 13.8443L19.3292 12.3353C19.1439 11.9648 19.2941 11.5143 19.6646 11.3291Z" fill="#23262A"/>
</svg>
