<svg width="24" height="24" viewBox="0 0 24 24" fill="none" xmlns="http://www.w3.org/2000/svg">
<path fill-rule="evenodd" clip-rule="evenodd" d="M5.25 3C5.25 2.58579 5.58579 2.25 6 2.25H18C18.4142 2.25 18.75 2.58579 18.75 3V21C18.75 21.4142 18.4142 21.75 18 21.75H6C5.58579 21.75 5.25 21.4142 5.25 21V14.5C5.25 14.3619 5.36193 14.25 5.5 14.25H7C7.41421 14.25 7.75 13.9142 7.75 13.5V10.5C7.75 10.0858 7.41421 9.75 7 9.75H5.5C5.36193 9.75 5.25 9.63807 5.25 9.5V3ZM5.5 12.75C5.36193 12.75 5.25 12.6381 5.25 12.5V11.5C5.25 11.3619 5.36193 11.25 5.5 11.25H6C6.13807 11.25 6.25 11.3619 6.25 11.5V12.5C6.25 12.6381 6.13807 12.75 6 12.75H5.5ZM13.5303 4.78033L13 4.25L12.4697 4.78033C12.1961 5.05389 11.7882 5.50781 11.4426 6.01538C11.1218 6.48644 10.75 7.15128 10.75 7.81066C10.75 9.0533 11.7574 10.0607 13 10.0607C14.2426 10.0607 15.25 9.0533 15.25 7.81066C15.25 7.15128 14.8782 6.48644 14.5574 6.01538C14.2118 5.50781 13.8039 5.05389 13.5303 4.78033ZM12.25 7.81066C12.25 7.64161 12.3782 7.30645 12.6824 6.85962C12.7829 6.712 12.8916 6.56807 13 6.43374C13.1084 6.56807 13.2171 6.712 13.3176 6.85962C13.6218 7.30645 13.75 7.64161 13.75 7.81066C13.75 8.22487 13.4142 8.56066 13 8.56066C12.5858 8.56066 12.25 8.22487 12.25 7.81066Z" fill="#23262A"/>
</svg>
