<svg width="24" height="24" viewBox="0 0 24 24" fill="none" xmlns="http://www.w3.org/2000/svg">
<path fill-rule="evenodd" clip-rule="evenodd" d="M5.25 3C5.25 2.58579 5.58579 2.25 6 2.25H18C18.4142 2.25 18.75 2.58579 18.75 3V21C18.75 21.4142 18.4142 21.75 18 21.75H6C5.58579 21.75 5.25 21.4142 5.25 21V3ZM8 14.25C8.41421 14.25 8.75 13.9142 8.75 13.5V10.5C8.75 10.0858 8.41421 9.75 8 9.75H6.75V3.75H17.25V20.25H6.75V14.25H8ZM7.25 11.25H6.75V12.75H7.25V11.25ZM13.5303 4.96967L13 4.43934L12.4697 4.96967C12.1961 5.24323 11.7882 5.69715 11.4426 6.20472C11.1218 6.67578 10.75 7.34062 10.75 8C10.75 9.24264 11.7574 10.25 13 10.25C14.2426 10.25 15.25 9.24264 15.25 8C15.25 7.34062 14.8782 6.67578 14.5574 6.20472C14.2118 5.69715 13.8039 5.24323 13.5303 4.96967ZM12.25 8C12.25 7.83095 12.3782 7.49579 12.6824 7.04896C12.7829 6.90134 12.8916 6.75741 13 6.62307C13.1084 6.75741 13.2171 6.90134 13.3176 7.04896C13.6218 7.49579 13.75 7.83095 13.75 8C13.75 8.41421 13.4142 8.75 13 8.75C12.5858 8.75 12.25 8.41421 12.25 8Z" fill="#23262A"/>
</svg>
