<svg width="24" height="24" viewBox="0 0 24 24" fill="none" xmlns="http://www.w3.org/2000/svg">
<path fill-rule="evenodd" clip-rule="evenodd" d="M4.75 4C4.75 3.58579 4.41421 3.25 4 3.25C3.58579 3.25 3.25 3.58579 3.25 4V6V11.9953V12.0036V20C3.25 20.4142 3.58579 20.75 4 20.75C4.41421 20.75 4.75 20.4142 4.75 20V12.7515L19.25 12.7515V20C19.25 20.4142 19.5858 20.75 20 20.75C20.4142 20.75 20.75 20.4142 20.75 20V12.0015V6.01165C20.7501 6.00434 20.7501 5.99703 20.75 5.98973V4C20.75 3.58579 20.4142 3.25 20 3.25C19.5858 3.25 19.25 3.58579 19.25 4V5.25L16.0116 5.25C16.0043 5.24989 15.997 5.24989 15.9898 5.25L12.0116 5.25C12.0043 5.24989 11.997 5.24989 11.9898 5.25L8.01159 5.25C8.00432 5.24989 7.99705 5.24989 7.98979 5.25L4.75 5.25V4ZM18.5986 6.75H16.4014L13.4005 11.2515H15.5978L18.5986 6.75ZM17.4005 11.2515H19.25V8.47716L17.4005 11.2515ZM12.4014 6.75H14.5986L11.5978 11.2515H9.40053L12.4014 6.75ZM10.5986 6.75H8.4014L5.40053 11.2515H7.59777L10.5986 6.75ZM4.75 9.52306L6.59864 6.75H4.75V9.52306Z" fill="#262626"/>
</svg>
