<svg width="24" height="24" viewBox="0 0 24 24" fill="none" xmlns="http://www.w3.org/2000/svg">
<path fill-rule="evenodd" clip-rule="evenodd" d="M4.75 4C4.75 3.58579 4.41421 3.25 4 3.25C3.58579 3.25 3.25 3.58579 3.25 4V20C3.25 20.4142 3.58579 20.75 4 20.75C4.41421 20.75 4.75 20.4142 4.75 20V12.75H19.25V20C19.25 20.4142 19.5858 20.75 20 20.75C20.4142 20.75 20.75 20.4142 20.75 20V4C20.75 3.58579 20.4142 3.25 20 3.25C19.5858 3.25 19.25 3.58579 19.25 4V5.25H4.75V4ZM7.63384 6.75C7.83351 6.75 7.95261 6.97253 7.84185 7.13867L5.16895 11.1482C5.12654 11.2118 5.05514 11.25 4.97868 11.25C4.85238 11.25 4.75 11.1476 4.75 11.0213V10.0495C4.75 10.0001 4.76461 9.95188 4.79199 9.91082L6.8249 6.86133C6.87127 6.79178 6.94933 6.75 7.03292 6.75H7.63384ZM8.96727 11.25C9.05086 11.25 9.12892 11.2082 9.17528 11.1387L11.8419 7.13867C11.9526 6.97253 11.8335 6.75 11.6338 6.75H11.0329C10.9493 6.75 10.8713 6.79178 10.8249 6.86133L8.15834 10.8613C8.04758 11.0275 8.16668 11.25 8.36635 11.25H8.96727ZM12.9673 11.25C13.0509 11.25 13.1289 11.2082 13.1753 11.1387L15.8419 7.13867C15.9526 6.97253 15.8335 6.75 15.6338 6.75H15.0329C14.9493 6.75 14.8713 6.79178 14.8249 6.86133L12.1583 10.8613C12.0476 11.0275 12.1667 11.25 12.3664 11.25H12.9673ZM16.9673 11.25C17.0509 11.25 17.1289 11.2082 17.1753 11.1387L19.208 8.08946C19.2354 8.0484 19.25 8.00015 19.25 7.95079V6.97856C19.25 6.85233 19.1477 6.75 19.0214 6.75C18.945 6.75 18.8737 6.78819 18.8313 6.85178L16.1583 10.8613C16.0476 11.0275 16.1667 11.25 16.3664 11.25H16.9673Z" fill="#23262A"/>
</svg>
