<svg width="24" height="24" viewBox="0 0 24 24" fill="none" xmlns="http://www.w3.org/2000/svg">
<path fill-rule="evenodd" clip-rule="evenodd" d="M4.00001 3.25C4.41422 3.25 4.75001 3.58579 4.75001 4V20C4.75001 20.4142 4.41422 20.75 4.00001 20.75C3.5858 20.75 3.25001 20.4142 3.25001 20V4C3.25001 3.58579 3.5858 3.25 4.00001 3.25Z" fill="#23262A"/>
<path fill-rule="evenodd" clip-rule="evenodd" d="M20 3.25C20.4142 3.25 20.75 3.58579 20.75 4V20C20.75 20.4142 20.4142 20.75 20 20.75C19.5858 20.75 19.25 20.4142 19.25 20V4C19.25 3.58579 19.5858 3.25 20 3.25Z" fill="#23262A"/>
<path fill-rule="evenodd" clip-rule="evenodd" d="M20.75 6C20.75 6.41421 20.4142 6.75 20 6.75L4.00001 6.75C3.5858 6.75 3.25001 6.41421 3.25001 6C3.25001 5.58579 3.5858 5.25 4.00001 5.25L20 5.25C20.4142 5.25 20.75 5.58579 20.75 6Z" fill="#23262A"/>
<path fill-rule="evenodd" clip-rule="evenodd" d="M20.75 12.0015C20.75 12.4157 20.4142 12.7515 20 12.7515L4.00001 12.7515C3.5858 12.7515 3.25001 12.4157 3.25001 12.0015C3.25001 11.5873 3.5858 11.2515 4.00001 11.2515L20 11.2515C20.4142 11.2515 20.75 11.5873 20.75 12.0015Z" fill="#23262A"/>
<path fill-rule="evenodd" clip-rule="evenodd" d="M8.41603 5.37596C8.76068 5.60571 8.85381 6.07136 8.62406 6.41601L4.62412 12.4161C4.39437 12.7608 3.92872 12.8539 3.58407 12.6242C3.23941 12.3944 3.14628 11.9288 3.37603 11.5841L7.37597 5.58399C7.60572 5.23934 8.07138 5.1462 8.41603 5.37596Z" fill="#23262A"/>
<path fill-rule="evenodd" clip-rule="evenodd" d="M12.416 5.37596C12.7607 5.60571 12.8538 6.07136 12.6241 6.41601L8.62412 12.4161C8.39437 12.7608 7.92872 12.8539 7.58407 12.6242C7.23941 12.3944 7.14628 11.9288 7.37603 11.5841L11.376 5.58399C11.6057 5.23934 12.0714 5.1462 12.416 5.37596Z" fill="#23262A"/>
<path fill-rule="evenodd" clip-rule="evenodd" d="M16.416 5.37596C16.7607 5.60571 16.8538 6.07136 16.6241 6.41601L12.6241 12.4161C12.3944 12.7608 11.9287 12.8539 11.5841 12.6242C11.2394 12.3944 11.1463 11.9288 11.376 11.5841L15.376 5.58399C15.6057 5.23934 16.0714 5.1462 16.416 5.37596Z" fill="#23262A"/>
<path fill-rule="evenodd" clip-rule="evenodd" d="M20.416 5.37596C20.7607 5.60571 20.8538 6.07136 20.6241 6.41601L16.6241 12.4161C16.3944 12.7608 15.9287 12.8539 15.5841 12.6242C15.2394 12.3944 15.1463 11.9288 15.376 11.5841L19.376 5.58399C19.6057 5.23934 20.0714 5.1462 20.416 5.37596Z" fill="#23262A"/>
</svg>
