<svg width="24" height="24" viewBox="0 0 24 24" fill="none" xmlns="http://www.w3.org/2000/svg">
<path fill-rule="evenodd" clip-rule="evenodd" d="M12 0.5C12.8284 0.5 13.5 1.17157 13.5 2C13.5 2.55495 13.198 3.0384 12.75 3.29785V5H18.25C18.6642 5 19 5.33579 19 5.75V9.25H21.2402C21.6543 9.25013 21.9902 9.58587 21.9902 10V14C21.9902 14.4141 21.6543 14.7499 21.2402 14.75H19V18.25C19 18.6642 18.6642 19 18.25 19H5.75C5.33579 19 5 18.6642 5 18.25V14.75H2.75C2.33579 14.75 2 14.4142 2 14V10C2 9.58579 2.33579 9.25 2.75 9.25H5V5.75C5 5.33579 5.33579 5 5.75 5H11.25V3.29785C10.802 3.0384 10.5 2.55495 10.5 2C10.5 1.17157 11.1716 0.5 12 0.5ZM9 14C8.58579 14 8.25 14.3358 8.25 14.75C8.25 15.1642 8.58579 15.5 9 15.5H15C15.4142 15.5 15.75 15.1642 15.75 14.75C15.75 14.3358 15.4142 14 15 14H9ZM3.5 13.25H5V10.75H3.5V13.25ZM19 13.25H20.4902V10.75H19V13.25ZM9.5 9C8.67157 9 8 9.67157 8 10.5C8 11.3284 8.67157 12 9.5 12C10.3284 12 11 11.3284 11 10.5C11 9.67157 10.3284 9 9.5 9ZM14.5 9C13.6716 9 13 9.67157 13 10.5C13 11.3284 13.6716 12 14.5 12C15.3284 12 16 11.3284 16 10.5C16 9.67157 15.3284 9 14.5 9Z" fill="#202733"/>
</svg>
