<svg width="24" height="24" viewBox="0 0 24 24" fill="none" xmlns="http://www.w3.org/2000/svg">
<path d="M8.21973 13.7197C8.51259 13.4272 8.98747 13.4271 9.28027 13.7197C9.28502 13.7242 9.29529 13.7332 9.30859 13.7451C9.33586 13.7696 9.38076 13.8086 9.44141 13.8564C9.56349 13.9528 9.74899 14.0862 9.98926 14.2197C10.4714 14.4875 11.1593 14.7499 12 14.75C12.8406 14.7499 13.5286 14.4875 14.0107 14.2197C14.2509 14.0863 14.4365 13.9528 14.5586 13.8564C14.6191 13.8087 14.6641 13.7696 14.6914 13.7451C14.7045 13.7333 14.714 13.7243 14.7188 13.7197L14.7764 13.668C15.0709 13.428 15.5058 13.4454 15.7803 13.7197C16.0547 13.9942 16.072 14.4291 15.832 14.7236L15.7803 14.7803L15.7695 14.791C15.765 14.7954 15.7587 14.8012 15.752 14.8076C15.7375 14.8213 15.7175 14.8406 15.6934 14.8623C15.6446 14.9061 15.5754 14.9654 15.4883 15.0342C15.3137 15.172 15.0608 15.3516 14.7393 15.5303C14.0966 15.8872 13.1585 16.2499 12 16.25C10.8414 16.2499 9.90339 15.8873 9.26074 15.5303C8.9391 15.3515 8.68637 15.172 8.51172 15.0342C8.42445 14.9653 8.35546 14.9061 8.30664 14.8623C8.28234 14.8405 8.26252 14.8214 8.24805 14.8076C8.24121 14.8011 8.23505 14.7955 8.23047 14.791L8.21973 14.7803C7.92709 14.4874 7.92714 14.0126 8.21973 13.7197Z" fill="#202733"/>
<path d="M9.5 9C10.3284 9 11 9.67157 11 10.5C11 11.3284 10.3284 12 9.5 12C8.67157 12 8 11.3284 8 10.5C8 9.67157 8.67157 9 9.5 9Z" fill="#202733"/>
<path d="M14.5 9C15.3284 9 16 9.67157 16 10.5C16 11.3284 15.3284 12 14.5 12C13.6716 12 13 11.3284 13 10.5C13 9.67157 13.6716 9 14.5 9Z" fill="#202733"/>
<path fill-rule="evenodd" clip-rule="evenodd" d="M12 0.5C12.8284 0.5 13.5 1.17157 13.5 2C13.5 2.55495 13.198 3.0384 12.75 3.29785V5H18.25C18.6642 5 19 5.33579 19 5.75V9.25H21.2402C21.6543 9.25013 21.9902 9.58587 21.9902 10V14C21.9902 14.4141 21.6543 14.7499 21.2402 14.75H19V18.25C19 18.6642 18.6642 19 18.25 19H5.75C5.33579 19 5 18.6642 5 18.25V14.75H2.75C2.33579 14.75 2 14.4142 2 14V10C2 9.58579 2.33579 9.25 2.75 9.25H5V5.75C5 5.33579 5.33579 5 5.75 5H11.25V3.29785C10.802 3.0384 10.5 2.55495 10.5 2C10.5 1.17157 11.1716 0.5 12 0.5ZM6.5 17.5H17.5V6.5H6.5V17.5ZM3.5 13.25H5V10.75H3.5V13.25ZM19 13.25H20.4902V10.75H19V13.25Z" fill="#202733"/>
</svg>
