<svg width="24" height="24" viewBox="0 0 24 24" fill="none" xmlns="http://www.w3.org/2000/svg">
<path fill-rule="evenodd" clip-rule="evenodd" d="M19 4.25H13.5254C13.517 4.23635 13.5082 4.22267 13.499 4.20897C13.2179 3.78732 12.7185 3.5 12 3.5C11.2815 3.5 10.7821 3.78732 10.501 4.20897C10.4918 4.22267 10.483 4.23635 10.4746 4.25H5C4.58579 4.25 4.25 4.58579 4.25 5V19C4.25 19.4142 4.58579 19.75 5 19.75H19C19.4142 19.75 19.75 19.4142 19.75 19V5C19.75 4.58579 19.4142 4.25 19 4.25ZM5.75 18.25V5.75H18.25V18.25H5.75ZM9.75 9.125C8.92157 9.125 8.25 9.79657 8.25 10.625C8.25 11.4534 8.92157 12.125 9.75 12.125C10.5784 12.125 11.25 11.4534 11.25 10.625C11.25 9.79657 10.5784 9.125 9.75 9.125ZM14.25 9.125C13.4216 9.125 12.75 9.79657 12.75 10.625C12.75 11.4534 13.4216 12.125 14.25 12.125C15.0784 12.125 15.75 11.4534 15.75 10.625C15.75 9.79657 15.0784 9.125 14.25 9.125ZM15.7115 15.2372C15.5805 15.6301 15.1558 15.8425 14.7628 15.7115C12.909 15.0936 11.1025 15.0897 9.23717 15.7115C8.84422 15.8425 8.41948 15.6301 8.28849 15.2372C8.1575 14.8442 8.36987 14.4195 8.76283 14.2885C10.9371 13.5637 13.0765 13.5682 15.2372 14.2885C15.6301 14.4195 15.8425 14.8442 15.7115 15.2372Z" fill="#23262A"/>
</svg>
