<svg width="24" height="24" viewBox="0 0 24 24" fill="none" xmlns="http://www.w3.org/2000/svg">
<path fill-rule="evenodd" clip-rule="evenodd" d="M12 0.5C12.8284 0.5 13.5 1.17157 13.5 2C13.5 2.55495 13.198 3.0384 12.75 3.29785V5H18.25C18.6642 5 19 5.33579 19 5.75V9.25H21.2402C21.6543 9.25013 21.9902 9.58587 21.9902 10V14C21.9902 14.4141 21.6543 14.7499 21.2402 14.75H19V18.25C19 18.6642 18.6642 19 18.25 19H5.75C5.33579 19 5 18.6642 5 18.25V14.75H2.75C2.33579 14.75 2 14.4142 2 14V10C2 9.58579 2.33579 9.25 2.75 9.25H5V5.75C5 5.33579 5.33579 5 5.75 5H11.25V3.29785C10.802 3.0384 10.5 2.55495 10.5 2C10.5 1.17157 11.1716 0.5 12 0.5ZM9.28027 13.7197C8.98741 13.4272 8.51253 13.4271 8.21973 13.7197C7.92706 14.0125 7.92719 14.4874 8.21973 14.7803L8.23047 14.791C8.23501 14.7954 8.24135 14.8013 8.24805 14.8076C8.26248 14.8213 8.2825 14.8406 8.30664 14.8623C8.35542 14.9061 8.42461 14.9654 8.51172 15.0342C8.68634 15.172 8.93925 15.3516 9.26074 15.5303C9.90338 15.8872 10.8415 16.2499 12 16.25C13.1586 16.2499 14.0966 15.8873 14.7393 15.5303C15.0609 15.3515 15.3136 15.172 15.4883 15.0342C15.5755 14.9653 15.6445 14.9061 15.6934 14.8623C15.7177 14.8405 15.7375 14.8214 15.752 14.8076C15.7588 14.8011 15.765 14.7955 15.7695 14.791L15.7803 14.7803L15.832 14.7236C16.0721 14.4291 16.0546 13.9943 15.7803 13.7197C15.5057 13.4455 15.0708 13.4279 14.7764 13.668L14.7197 13.7197C14.715 13.7242 14.7047 13.7332 14.6914 13.7451C14.6641 13.7696 14.6192 13.8086 14.5586 13.8564C14.4365 13.9528 14.251 14.0862 14.0107 14.2197C13.5286 14.4875 12.8406 14.7499 12 14.75C11.1594 14.7499 10.4714 14.4875 9.98926 14.2197C9.74915 14.0863 9.56347 13.9528 9.44141 13.8564C9.38095 13.8087 9.33585 13.7696 9.30859 13.7451C9.29551 13.7334 9.28506 13.7243 9.28027 13.7197ZM14.7217 13.7168L14.7207 13.7188C14.7215 13.718 14.7214 13.7171 14.7217 13.7168ZM3.5 13.25H5V10.75H3.5V13.25ZM19 13.25H20.4902V10.75H19V13.25ZM9.5 9C8.67157 9 8 9.67157 8 10.5C8 11.3284 8.67157 12 9.5 12C10.3284 12 11 11.3284 11 10.5C11 9.67157 10.3284 9 9.5 9ZM14.5 9C13.6716 9 13 9.67157 13 10.5C13 11.3284 13.6716 12 14.5 12C15.3284 12 16 11.3284 16 10.5C16 9.67157 15.3284 9 14.5 9Z" fill="#202733"/>
</svg>
