<svg width="24" height="24" viewBox="0 0 24 24" fill="none" xmlns="http://www.w3.org/2000/svg">
<path d="M12 13.5C13.1589 13.5 14.0965 13.8627 14.7393 14.2197C15.0611 14.3986 15.3136 14.5779 15.4883 14.7158C15.5757 14.7849 15.6445 14.8438 15.6934 14.8877C15.7178 14.9096 15.7374 14.9286 15.752 14.9424C15.7589 14.949 15.7649 14.9545 15.7695 14.959L15.7803 14.9697L15.832 15.0264C16.0723 15.3209 16.0549 15.7557 15.7803 16.0303C15.5057 16.3049 15.0709 16.3223 14.7764 16.082L14.7227 16.0332L14.7207 16.0322L14.7188 16.0303C14.714 16.0258 14.7049 16.017 14.6914 16.0049C14.6641 15.9804 14.6194 15.9416 14.5586 15.8936C14.4365 15.7971 14.2513 15.6639 14.0107 15.5303C13.5285 15.2624 12.841 15 12 15C11.159 15 10.4715 15.2624 9.98926 15.5303C9.74874 15.6639 9.56354 15.7971 9.44141 15.8936C9.38055 15.9416 9.33588 15.9804 9.30859 16.0049C9.29507 16.017 9.28599 16.0258 9.28125 16.0303L9.2793 16.0312L9.27832 16.0332L9.22363 16.082C8.92906 16.3223 8.49433 16.3049 8.21973 16.0303C7.92684 15.7374 7.92684 15.2626 8.21973 14.9697L8.23047 14.959C8.23511 14.9545 8.24107 14.949 8.24805 14.9424C8.26257 14.9286 8.28218 14.9096 8.30664 14.8877C8.35551 14.8438 8.42426 14.7849 8.51172 14.7158C8.68643 14.5779 8.93886 14.3986 9.26074 14.2197C9.90347 13.8627 10.8411 13.5 12 13.5Z" fill="#202733"/>
<path d="M9.5 9C10.3284 9 11 9.67157 11 10.5C11 11.3284 10.3284 12 9.5 12C8.67157 12 8 11.3284 8 10.5C8 9.67157 8.67157 9 9.5 9Z" fill="#202733"/>
<path d="M14.5 9C15.3284 9 16 9.67157 16 10.5C16 11.3284 15.3284 12 14.5 12C13.6716 12 13 11.3284 13 10.5C13 9.67157 13.6716 9 14.5 9Z" fill="#202733"/>
<path fill-rule="evenodd" clip-rule="evenodd" d="M12 0.5C12.8284 0.5 13.5 1.17157 13.5 2C13.5 2.55495 13.198 3.0384 12.75 3.29785V5H18.25C18.6642 5 19 5.33579 19 5.75V9.25H21.2402C21.6543 9.25013 21.9902 9.58587 21.9902 10V14C21.9902 14.4141 21.6543 14.7499 21.2402 14.75H19V18.25C19 18.6642 18.6642 19 18.25 19H5.75C5.33579 19 5 18.6642 5 18.25V14.75H2.75C2.33579 14.75 2 14.4142 2 14V10C2 9.58579 2.33579 9.25 2.75 9.25H5V5.75C5 5.33579 5.33579 5 5.75 5H11.25V3.29785C10.802 3.0384 10.5 2.55495 10.5 2C10.5 1.17157 11.1716 0.5 12 0.5ZM6.5 17.5H17.5V6.5H6.5V17.5ZM3.5 13.25H5V10.75H3.5V13.25ZM19 13.25H20.4902V10.75H19V13.25Z" fill="#202733"/>
</svg>
