<svg width="24" height="24" viewBox="0 0 24 24" fill="none" xmlns="http://www.w3.org/2000/svg">
<path fill-rule="evenodd" clip-rule="evenodd" d="M13.5254 4.25H19C19.4142 4.25 19.75 4.58579 19.75 5V19C19.75 19.4142 19.4142 19.75 19 19.75H5C4.58579 19.75 4.25 19.4142 4.25 19V5C4.25 4.58579 4.58579 4.25 5 4.25H10.4746C10.483 4.23635 10.4918 4.22267 10.501 4.20897C10.7821 3.78732 11.2815 3.5 12 3.5C12.7185 3.5 13.2179 3.78732 13.499 4.20897C13.5082 4.22267 13.517 4.23635 13.5254 4.25ZM8.25 10.625C8.25 9.79657 8.92157 9.125 9.75 9.125C10.5784 9.125 11.25 9.79657 11.25 10.625C11.25 11.4534 10.5784 12.125 9.75 12.125C8.92157 12.125 8.25 11.4534 8.25 10.625ZM12.75 10.625C12.75 9.79657 13.4216 9.125 14.25 9.125C15.0784 9.125 15.75 9.79657 15.75 10.625C15.75 11.4534 15.0784 12.125 14.25 12.125C13.4216 12.125 12.75 11.4534 12.75 10.625ZM8.28869 14.7628C8.41968 14.3698 8.84442 14.1575 9.23737 14.2884C11.0912 14.9064 12.8977 14.9102 14.763 14.2884C15.156 14.1575 15.5807 14.3698 15.7117 14.7628C15.8427 15.1557 15.6303 15.5805 15.2374 15.7115C13.0631 16.4362 10.9237 16.4317 8.76303 15.7115C8.37008 15.5805 8.15771 15.1557 8.28869 14.7628Z" fill="#23262A"/>
</svg>
