<svg width="24" height="24" viewBox="0 0 24 24" fill="none" xmlns="http://www.w3.org/2000/svg">
<path fill-rule="evenodd" clip-rule="evenodd" d="M13.5254 4.25H19C19.4142 4.25 19.75 4.58579 19.75 5V19C19.75 19.4142 19.4142 19.75 19 19.75H5C4.58579 19.75 4.25 19.4142 4.25 19V5C4.25 4.58579 4.58579 4.25 5 4.25H10.4746C10.483 4.23635 10.4918 4.22267 10.501 4.20897C10.7821 3.78732 11.2815 3.5 12 3.5C12.7185 3.5 13.2179 3.78732 13.499 4.20897C13.5082 4.22267 13.517 4.23635 13.5254 4.25ZM8.25 10.625C8.25 9.79657 8.92157 9.125 9.75 9.125C10.5784 9.125 11.25 9.79657 11.25 10.625C11.25 11.4534 10.5784 12.125 9.75 12.125C8.92157 12.125 8.25 11.4534 8.25 10.625ZM12.75 10.625C12.75 9.79657 13.4216 9.125 14.25 9.125C15.0784 9.125 15.75 9.79657 15.75 10.625C15.75 11.4534 15.0784 12.125 14.25 12.125C13.4216 12.125 12.75 11.4534 12.75 10.625ZM15.7113 15.2372C15.5803 15.6302 15.1556 15.8425 14.7626 15.7116C12.9088 15.0936 11.1023 15.0898 9.23697 15.7116C8.84401 15.8425 8.41927 15.6302 8.28828 15.2372C8.1573 14.8443 8.36967 14.4195 8.76263 14.2885C10.9369 13.5638 13.0763 13.5683 15.237 14.2885C15.6299 14.4195 15.8423 14.8443 15.7113 15.2372Z" fill="#23262A"/>
</svg>
