<svg width="24" height="24" viewBox="0 0 24 24" fill="none" xmlns="http://www.w3.org/2000/svg">
<path fill-rule="evenodd" clip-rule="evenodd" d="M10 2.25C10.4142 2.25 10.75 2.58579 10.75 3V4.82964C11.0167 5.40541 11.3637 6.33848 11.6438 7.1228C11.7975 7.55318 11.9361 7.95318 12.0377 8.25005H16C17.3068 8.25005 18.1565 8.92814 18.6431 9.73918C18.7427 9.90522 18.8276 10.0769 18.8994 10.25H20C20.9665 10.25 21.75 11.0335 21.75 12V15C21.75 15.4142 21.4142 15.75 21 15.75C20.5858 15.75 20.25 15.4142 20.25 15V12C20.25 11.8619 20.1381 11.75 20 11.75H19.2421C19.2475 11.8379 19.25 11.9216 19.25 12.0001C19.25 12.5957 19.1062 13.4891 18.6431 14.2609C18.2467 14.9215 17.6095 15.494 16.6805 15.6836L17.94 18.2025C18.2937 17.892 18.6206 17.5517 18.917 17.1855C19.1776 16.8635 19.6498 16.8137 19.9718 17.0742C20.2938 17.3348 20.3436 17.807 20.083 18.129C18.2968 20.3364 15.5632 21.7499 12.5 21.7499C9.43684 21.7499 6.70323 20.3364 4.917 18.129C4.65644 17.807 4.70624 17.3348 5.02824 17.0742C5.35024 16.8137 5.82249 16.8635 6.08305 17.1855C6.37941 17.5517 6.70637 17.892 7.06003 18.2025L8.33448 15.6536C7.85552 15.5146 7.427 15.2377 7.09467 14.9054C6.61441 14.4251 6.25 13.744 6.25 13V9.88539L4.1233 10.2398C3.96694 10.2659 3.80635 10.2418 3.66457 10.1709C3.66457 10.1709 3.69865 10.1892 3.62732 10.1512C3.61103 10.1423 3.59101 10.1308 3.56779 10.1167C3.52141 10.0886 3.46187 10.0496 3.39374 9.99848C3.25781 9.89652 3.0849 9.74425 2.91434 9.53105C2.56563 9.09515 2.25 8.43222 2.25 7.50004C2.25 6.56785 2.56563 5.90492 2.91435 5.46903C3.0849 5.25584 3.25782 5.10356 3.39375 5.00162C3.46189 4.95052 3.52143 4.91154 3.5678 4.88338C3.59719 4.86554 3.62719 4.84895 3.65753 4.83281C3.65801 4.83257 3.65802 4.83256 3.65775 4.83269L3.6541 4.8345L3.6516 4.83574L6.66459 3.32924C7.38276 2.97015 8.22095 2.99147 8.92467 3.22605C9.03399 3.26249 9.14281 3.30499 9.25 3.35348V3C9.25 2.58579 9.58579 2.25 10 2.25ZM8.29004 19.0966C9.52266 19.8294 10.9621 20.2499 12.5 20.2499C14.0379 20.2499 15.4774 19.8294 16.71 19.0966L15.0367 15.75H9.9633L8.29004 19.0966Z" fill="#23262A"/>
</svg>
