<svg width="24" height="24" viewBox="0 0 24 24" fill="none" xmlns="http://www.w3.org/2000/svg">
<path fill-rule="evenodd" clip-rule="evenodd" d="M12.9697 5.96953C14.7104 4.22882 17.1691 3.40925 19.6061 3.75739C19.9361 3.80454 20.1953 4.06381 20.2425 4.39379C20.5906 6.83079 19.7711 9.28948 18.0303 11.0302L16.3232 12.7373C16.2764 12.7842 16.25 12.8478 16.25 12.9141V17.4999C16.25 17.6988 16.171 17.8895 16.0303 18.0302L13.0303 21.0302C12.8348 21.2258 12.5474 21.2978 12.2827 21.2177C12.018 21.1375 11.8188 20.9182 11.7646 20.6469L11.049 17.0693C11.0092 16.8703 10.9584 16.6754 10.8971 16.4854C10.8674 16.3935 10.8898 16.2922 10.958 16.224L13.591 13.591C14.4697 12.7123 14.4697 11.2877 13.591 10.409C12.7123 9.53033 11.2877 9.53033 10.409 10.409L7.77611 13.0419C7.70784 13.1102 7.60653 13.1325 7.51465 13.1029C7.32458 13.0416 7.12968 12.9907 6.93063 12.9508L3.35293 12.2353C3.0817 12.181 2.86235 11.9819 2.7822 11.7172C2.70205 11.4525 2.77411 11.1651 2.96969 10.9695L5.96969 7.96953C6.11034 7.82887 6.30111 7.74986 6.50002 7.74986H11.0858C11.1521 7.74986 11.2157 7.72352 11.2626 7.67663L12.9697 5.96953ZM12.5303 12.5303C12.8232 12.2374 12.8232 11.7626 12.5303 11.4697C12.2374 11.1768 11.7626 11.1768 11.4697 11.4697L7.46967 15.4697C7.17678 15.7626 7.17678 16.2374 7.46967 16.5303C7.76256 16.8232 8.23744 16.8232 8.53033 16.5303L12.5303 12.5303Z" fill="#23262A"/>
</svg>
