<svg width="24" height="24" viewBox="0 0 24 24" fill="none" xmlns="http://www.w3.org/2000/svg">
<path fill-rule="evenodd" clip-rule="evenodd" d="M10.75 3C10.75 2.58579 10.4142 2.25 10 2.25C9.58579 2.25 9.25 2.58579 9.25 3V3.35354C9.14281 3.30505 9.03399 3.26255 8.92467 3.22611C8.22095 2.99154 7.38276 2.97022 6.66459 3.3293L3.6648 4.8292L3.5678 4.88344C3.52143 4.9116 3.46189 4.95058 3.39375 5.00168C3.25782 5.10363 3.0849 5.2559 2.91435 5.46909C2.56563 5.90498 2.25 6.56792 2.25 7.5001C2.25 8.43228 2.56563 9.09522 2.91434 9.53112C3.0849 9.74431 3.25781 9.89659 3.39374 9.99854C3.50839 10.0845 3.58386 10.1284 3.66457 10.1709C3.80635 10.2418 3.96694 10.266 4.1233 10.2399L6.25 9.88546V13.0001C6.25 13.744 6.61441 14.4252 7.09467 14.9054C7.42704 15.2378 7.85561 15.5147 8.33463 15.6537L7.06018 18.2026C6.70645 17.8921 6.37943 17.5517 6.08303 17.1854C5.82247 16.8634 5.35021 16.8136 5.02822 17.0742C4.70622 17.3348 4.65641 17.807 4.91697 18.129C6.70321 20.3364 9.43681 21.7499 12.5 21.7499C15.5632 21.7499 18.2968 20.3364 20.083 18.129C20.3436 17.807 20.2938 17.3348 19.9718 17.0742C19.6498 16.8136 19.1775 16.8634 18.917 17.1854C18.6206 17.5517 18.2936 17.8921 17.9398 18.2026L16.6804 15.6837C17.6094 15.4941 18.2467 14.9216 18.6431 14.261C19.1062 13.4891 19.25 12.5957 19.25 12.0001C19.25 11.9216 19.2475 11.8379 19.2421 11.75H20C20.1381 11.75 20.25 11.8619 20.25 12V15C20.25 15.4142 20.5858 15.75 21 15.75C21.4142 15.75 21.75 15.4142 21.75 15V12C21.75 11.0335 20.9665 10.25 20 10.25H18.8994C18.8276 10.0769 18.7427 9.90526 18.6431 9.73924C18.1565 8.92821 17.3068 8.25011 16 8.25011H12.0377C11.9361 7.95324 11.7975 7.55324 11.6438 7.12286C11.3637 6.33855 11.0167 5.40547 10.75 4.8297V3ZM8.29021 19.0966C9.52278 19.8295 10.9622 20.2499 12.5 20.2499C14.0378 20.2499 15.4772 19.8295 16.7098 19.0966L15.0365 15.7501H9.96347L8.29021 19.0966ZM9.33411 5.34543L9.32474 5.32678C9.18169 5.04825 8.86724 4.78811 8.45033 4.64914C8.02905 4.50871 7.61724 4.53003 7.33541 4.67094L4.34733 6.16498C4.3288 6.17618 4.31106 6.1887 4.29375 6.20169C4.24218 6.24036 4.1651 6.30683 4.08565 6.40614C3.93437 6.59524 3.75 6.9323 3.75 7.5001C3.75 8.0679 3.93437 8.40497 4.08566 8.59408C4.12126 8.63859 4.15639 8.6765 4.18896 8.70827L6.8767 8.26031C7.09417 8.22407 7.31656 8.28534 7.48478 8.42784C7.653 8.57035 7.75 8.77964 7.75 9.00011V13.0001C7.75 13.2562 7.88559 13.575 8.15533 13.8448C8.42507 14.1145 8.74392 14.2501 9 14.2501C9.17342 14.2501 9.34748 14.2454 9.52083 14.2501H15.4792C15.6525 14.2454 15.8266 14.2501 16 14.2501C16.6932 14.2501 17.0935 13.9282 17.3569 13.4892C17.6438 13.0111 17.75 12.4045 17.75 12.0001C17.75 11.5957 17.6438 10.9891 17.3569 10.511C17.0935 10.072 16.6932 9.75011 16 9.75011H11.5007C11.1779 9.75011 10.8906 9.54354 10.7885 9.23728L10.7775 9.20452L10.7454 9.1089C10.7174 9.02583 10.6767 8.90578 10.6263 8.7585C10.5255 8.46378 10.386 8.06084 10.2312 7.62737C9.91726 6.74837 9.56027 5.80112 9.33411 5.34543Z" fill="#23262A"/>
</svg>
