<svg width="24" height="24" viewBox="0 0 24 24" fill="none" xmlns="http://www.w3.org/2000/svg">
<path fill-rule="evenodd" clip-rule="evenodd" d="M19.6061 3.75751C17.1691 3.40937 14.7104 4.22893 12.9697 5.96964L11.1893 7.74997H6.5C6.30109 7.74997 6.11033 7.82899 5.96967 7.96964L2.96967 10.9696C2.77409 11.1652 2.70203 11.4526 2.78218 11.7173C2.86234 11.982 3.08169 12.1812 3.35291 12.2354L6.93061 12.951C7.71317 13.1075 8.43139 13.4354 9.04496 13.8944L7.46967 15.4697C7.17677 15.7626 7.17677 16.2374 7.46967 16.5303C7.76256 16.8232 8.23743 16.8232 8.53033 16.5303L10.1056 14.955C10.5646 15.5686 10.8925 16.2868 11.049 17.0694L11.7646 20.6471C11.8188 20.9183 12.0179 21.1376 12.2827 21.2178C12.5474 21.2979 12.8348 21.2259 13.0303 21.0303L16.0303 18.0303C16.171 17.8896 16.25 17.6989 16.25 17.5V12.8106L18.0303 11.0303C19.771 9.28959 20.5906 6.8309 20.2425 4.39391C20.1953 4.06392 19.9361 3.80465 19.6061 3.75751ZM11.1748 13.8859C11.8342 14.711 12.304 15.6955 12.5199 16.7752L12.9606 18.9787L14.75 17.1893V12.5C14.75 12.3011 14.829 12.1103 14.9697 11.9696L16.9697 9.96964C18.2383 8.70103 18.9015 6.96059 18.8133 5.18663C17.0394 5.09843 15.2989 5.76169 14.0303 7.0303L12.0303 9.0303C11.8897 9.17095 11.6989 9.24997 11.5 9.24997H6.81066L5.02126 11.0394L7.22479 11.4801C8.30451 11.696 9.28898 12.1658 10.1141 12.8252L11.4697 11.4697C11.7626 11.1768 12.2374 11.1768 12.5303 11.4697C12.8232 11.7626 12.8232 12.2374 12.5303 12.5303L11.1748 13.8859Z" fill="#23262A"/>
</svg>
