<svg width="24" height="24" viewBox="0 0 24 24" fill="none" xmlns="http://www.w3.org/2000/svg">
<path fill-rule="evenodd" clip-rule="evenodd" d="M10 2.25C10.4142 2.25 10.75 2.58579 10.75 3V4.8297C11.0167 5.40547 11.3637 6.33855 11.6438 7.12286C11.7975 7.55324 11.9361 7.95324 12.0377 8.25011H12.0403H12.0472H12.0542H12.0612H12.0683H12.0754H12.0825H12.0897H12.0969H12.1041H12.1114H12.1187H12.1261H12.1334H12.1409H12.1483H12.1558H12.1633H12.1709H12.1785H12.1861H12.1938H12.2015H12.2092H12.217H12.2248H12.2327H12.2405H12.2485H12.2564H12.2644H12.2724H12.2804H12.2885H12.2966H12.3048H12.3129H12.3211H12.3294H12.3377H12.346H12.3543H12.3627H12.3711H12.3795H12.388H12.3965H12.405H12.4136H12.4222H12.4308H12.4394H12.4481H12.4568H12.4656H12.4744H12.4832H12.492H12.5009H12.5098H12.5187H12.5277H12.5367H12.5457H12.5547H12.5638H12.5729H12.582H12.5912H12.6004H12.6096H12.6188H12.6281H12.6374H12.6467H12.6561H12.6655H12.6749H12.6843H12.6938H12.7033H12.7128H12.7224H12.7319H12.7415H12.7512H12.7608H12.7705H12.7802H12.7899H12.7997H12.8095H12.8193H12.8291H12.839H12.8488H12.8587H12.8687H12.8786H12.8886H12.8986H12.9087H12.9187H12.9288H12.9389H12.949H12.9592H12.9693H12.9795H12.9898H13H13.0103H13.0206H13.0309H13.0412H13.0516H13.0619H13.0723H13.0828H13.0932H13.1037H13.1141H13.1247H13.1352H13.1457H13.1563H13.1669H13.1775H13.1881H13.1988H13.2095H13.2202H13.2309H13.2416H13.2524H13.2632H13.2739H13.2848H13.2956H13.3064H13.3173H13.3282H13.3391H13.35H13.361H13.3719H13.3829H13.3939H13.4049H13.416H13.427H13.4381H13.4492H13.4603H13.4714H13.4826H13.4937H13.5049H13.5161H13.5273H13.5385H13.5498H13.561H13.5723H13.5836H13.5949H13.6062H13.6175H13.6289H13.6402H13.6516H13.663H13.6744H13.6858H13.6973H13.7087H13.7202H13.7317H13.7432H13.7547H13.7662H13.7777H13.7893H13.8008H13.8124H13.824H13.8356H13.8472H13.8588H13.8705H13.8821H13.8938H13.9054H13.9171H13.9288H13.9405H13.9523H13.964H13.9757H13.9875H13.9993H14.011H14.0228H14.0346H14.0464H14.0582H14.0701H14.0819H14.0938H14.1056H14.1175H14.1294H14.1412H14.1531H14.165H14.177H14.1889H14.2008H14.2127H14.2247H14.2367H14.2486H14.2606H14.2726H14.2846H14.2966H14.3086H14.3206H14.3326H14.3446H14.3566H14.3687H14.3807H14.3928H14.4048H14.4169H14.429H14.441H14.4531H14.4652H14.4773H14.4894H14.5015H14.5136H14.5257H14.5379H14.55H14.5621H14.5742H14.5864H14.5985H14.6107H14.6228H14.635H14.6471H14.6593H14.6715H14.6836H14.6958H14.708H14.7201H14.7323H14.7445H14.7567H14.7689H14.7811H14.7933H14.8054H14.8176H14.8298H14.842H14.8542H14.8664H14.8786H14.8908H14.9031H14.9153H14.9275H14.9397H14.9519H14.9641H14.9763H14.9885H15.0007H15.0129H15.0251H15.0373H15.0495H15.0617H15.0739H15.0861H15.0983H15.1105H15.1227H15.1349H15.1471H15.1593H15.1715H15.1837H15.1959H15.2081H15.2202H15.2324H15.2446H15.2568H15.2689H15.2811H15.2933H15.3054H15.3176H15.3297H15.3419H15.354H15.3662H15.3783H15.3904H15.4026H15.4147H15.4268H15.4389H15.451H15.4631H15.4752H15.4873H15.4994H15.5115H15.5235H15.5356H15.5477H15.5597H15.5718H15.5838H15.5958H15.6079H15.6199H15.6319H15.6439H15.6559H15.6679H15.6799H15.6918H15.7038H15.7158H15.7277H15.7397H15.7516H15.7635H15.7754H15.7873H15.7992H15.8111H15.823H15.8349H15.8467H15.8586H15.8704H15.8823H15.8941H15.9059H15.9177H15.9295H15.9413H15.953H15.9648H15.9765H15.9883H16C17.3068 8.25011 18.1565 8.92821 18.6431 9.73924C18.7427 9.90526 18.8276 10.0769 18.8994 10.25H20C20.9665 10.25 21.75 11.0335 21.75 12V15C21.75 15.4142 21.4142 15.75 21 15.75C20.5858 15.75 20.25 15.4142 20.25 15V12C20.25 11.8619 20.1381 11.75 20 11.75H19.2421C19.2475 11.8379 19.25 11.9216 19.25 12.0001C19.25 12.5957 19.1062 13.4891 18.6431 14.261C18.2467 14.9216 17.6094 15.4941 16.6804 15.6837L17.9398 18.2026C18.2936 17.8921 18.6206 17.5517 18.917 17.1854C19.1775 16.8634 19.6498 16.8136 19.9718 17.0742C20.2938 17.3348 20.3436 17.807 20.083 18.129C18.2968 20.3364 15.5632 21.7499 12.5 21.7499C9.43681 21.7499 6.70321 20.3364 4.91697 18.129C4.65641 17.807 4.70622 17.3348 5.02822 17.0742C5.35021 16.8136 5.82247 16.8634 6.08303 17.1854C6.37943 17.5517 6.70645 17.8921 7.06018 18.2026L8.33463 15.6537C7.85561 15.5147 7.42704 15.2378 7.09467 14.9054C6.61441 14.4252 6.25 13.744 6.25 13.0001V12.9942V12.9883V12.9823V12.9763V12.9702V12.9641V12.958V12.9518V12.9455V12.9393V12.9329V12.9266V12.9202V12.9137V12.9072V12.9007V12.8941V12.8874V12.8808V12.8741V12.8673V12.8605V12.8537V12.8468V12.8399V12.8329V12.826V12.8189V12.8118V12.8047V12.7976V12.7904V12.7832V12.7759V12.7686V12.7612V12.7539V12.7464V12.739V12.7315V12.724V12.7164V12.7088V12.7012V12.6935V12.6858V12.678V12.6702V12.6624V12.6546V12.6467V12.6388V12.6308V12.6228V12.6148V12.6067V12.5987V12.5905V12.5824V12.5742V12.566V12.5577V12.5494V12.5411V12.5328V12.5244V12.516V12.5076V12.4991V12.4906V12.482V12.4735V12.4649V12.4563V12.4476V12.4389V12.4302V12.4215V12.4127V12.4039V12.3951V12.3863V12.3774V12.3685V12.3596V12.3506V12.3416V12.3326V12.3236V12.3145V12.3054V12.2963V12.2872V12.278V12.2688V12.2596V12.2504V12.2411V12.2319V12.2225V12.2132V12.2039V12.1945V12.1851V12.1757V12.1662V12.1567V12.1473V12.1377V12.1282V12.1187V12.1091V12.0995V12.0899V12.0802V12.0706V12.0609V12.0512V12.0415V12.0318V12.022V12.0122V12.0025V11.9926V11.9828V11.973V11.9631V11.9532V11.9433V11.9334V11.9235V11.9135V11.9036V11.8936V11.8836V11.8736V11.8636V11.8535V11.8435V11.8334V11.8233V11.8132V11.8031V11.793V11.7828V11.7727V11.7625V11.7523V11.7422V11.7319V11.7217V11.7115V11.7013V11.691V11.6807V11.6705V11.6602V11.6499V11.6396V11.6293V11.6189V11.6086V11.5982V11.5879V11.5775V11.5672V11.5568V11.5464V11.536V11.5256V11.5152V11.5047V11.4943V11.4839V11.4734V11.463V11.4525V11.442V11.4316V11.4211V11.4106V11.4001V11.3896V11.3791V11.3686V11.3581V11.3476V11.3371V11.3266V11.3161V11.3056V11.295V11.2845V11.274V11.2634V11.2529V11.2424V11.2318V11.2213V11.2107V11.2002V11.1896V11.1791V11.1685V11.158V11.1475V11.1369V11.1264V11.1158V11.1053V11.0947V11.0842V11.0736V11.0631V11.0526V11.042V11.0315V11.021V11.0105V10.9999V10.9894V10.9789V10.9684V10.9579V10.9474V10.9369V10.9264V10.9159V10.9054V10.8949V10.8845V10.874V10.8635V10.8531V10.8426V10.8322V10.8217V10.8113V10.8009V10.7905V10.7801V10.7697V10.7593V10.7489V10.7385V10.7282V10.7178V10.7075V10.6972V10.6868V10.6765V10.6662V10.6559V10.6456V10.6354V10.6251V10.6149V10.6046V10.5944V10.5842V10.574V10.5638V10.5536V10.5435V10.5333V10.5232V10.5131V10.503V10.4929V10.4828V10.4727V10.4627V10.4526V10.4426V10.4326V10.4226V10.4126V10.4027V10.3927V10.3828V10.3729V10.363V10.3532V10.3433V10.3335V10.3236V10.3138V10.3041V10.2943V10.2846V10.2748V10.2651V10.2554V10.2458V10.2361V10.2265V10.2169V10.2073V10.1977V10.1882V10.1787V10.1692V10.1597V10.1502V10.1408V10.1314V10.122V10.1126V10.1033V10.0939V10.0847V10.0754V10.0661V10.0569V10.0477V10.0385V10.0294V10.0202V10.0111V10.0021V9.99301V9.98399V9.97499V9.96602V9.95707V9.94815V9.93926V9.9304V9.92156V9.91275V9.90397V9.89522V9.88649V9.88546L4.1233 10.2399C3.96694 10.266 3.80635 10.2418 3.66457 10.1709L4 9.50011C3.66457 10.1709 3.66418 10.1707 3.66378 10.1705L3.66295 10.1701L3.66123 10.1692L3.65751 10.1673L3.64891 10.1629L3.62732 10.1513C3.61103 10.1423 3.59101 10.1309 3.56779 10.1168C3.52141 10.0886 3.46187 10.0496 3.39374 9.99854C3.25781 9.89659 3.0849 9.74431 2.91434 9.53112C2.56563 9.09522 2.25 8.43228 2.25 7.5001C2.25 6.56792 2.56563 5.90498 2.91435 5.46909C3.0849 5.2559 3.25782 5.10363 3.39375 5.00168C3.46189 4.95058 3.52143 4.9116 3.5678 4.88344C3.59102 4.86934 3.61105 4.85789 3.62734 4.84894L3.64893 4.83733L3.65753 4.83288L3.66125 4.83098L3.66297 4.83011L3.6638 4.8297C3.6642 4.8295 3.66459 4.8293 4 5.50012L3.66461 4.82929L3.66468 4.82926L3.6648 4.8292L3.66495 4.82912L3.66516 4.82902L3.66541 4.82889L3.6657 4.82874L3.66604 4.82858L3.66643 4.82838L3.66686 4.82817L3.66733 4.82793L3.66785 4.82767L3.66841 4.82739L3.66901 4.82709L3.66966 4.82676L3.67036 4.82642L3.67109 4.82605L3.67188 4.82566L3.6727 4.82525L3.67357 4.82481L3.67448 4.82436L3.67543 4.82388L3.67643 4.82338L3.67746 4.82286L3.67855 4.82232L3.67967 4.82176L3.68084 4.82118L3.68204 4.82057L3.68329 4.81995L3.68459 4.8193L3.68592 4.81864L3.68729 4.81795L3.68871 4.81724L3.69017 4.81651L3.69167 4.81576L3.69321 4.81499L3.69479 4.8142L3.69641 4.81339L3.69808 4.81256L3.69978 4.81171L3.70152 4.81083L3.70331 4.80994L3.70513 4.80903L3.707 4.8081L3.7089 4.80715L3.71085 4.80617L3.71283 4.80518L3.71485 4.80417L3.71691 4.80314L3.71902 4.80209L3.72116 4.80102L3.72334 4.79993L3.72556 4.79882L3.72781 4.79769L3.73011 4.79654L3.73244 4.79538L3.73481 4.79419L3.73722 4.79298L3.73967 4.79176L3.74216 4.79052L3.74468 4.78925L3.74724 4.78797L3.74984 4.78667L3.75248 4.78536L3.75515 4.78402L3.75786 4.78266L3.76061 4.78129L3.7634 4.7799L3.76622 4.77849L3.76908 4.77706L3.77197 4.77561L3.7749 4.77415L3.77787 4.77266L3.78087 4.77116L3.78391 4.76964L3.78698 4.76811L3.79009 4.76655L3.79323 4.76498L3.79641 4.76339L3.79963 4.76178L3.80288 4.76016L3.80617 4.75851L3.80949 4.75685L3.81284 4.75518L3.81623 4.75348L3.81965 4.75177L3.82311 4.75004L3.8266 4.74829L3.83013 4.74653L3.83369 4.74475L3.83728 4.74295L3.84091 4.74114L3.84457 4.73931L3.84826 4.73746L3.85199 4.7356L3.85575 4.73372L3.85954 4.73182L3.86337 4.72991L3.86723 4.72798L3.87112 4.72604L3.87504 4.72408L3.879 4.7221L3.88299 4.7201L3.88701 4.71809L3.89106 4.71607L3.89514 4.71403L3.89925 4.71197L3.9034 4.7099L3.90758 4.70781L3.91179 4.7057L3.91603 4.70358L3.9203 4.70145L3.9246 4.6993L3.92893 4.69713L3.93329 4.69495L3.93768 4.69275L3.94211 4.69054L3.94656 4.68832L3.95104 4.68607L3.95556 4.68382L3.9601 4.68155L3.96467 4.67926L3.96927 4.67696L3.9739 4.67465L3.97856 4.67232L3.98325 4.66997L3.98797 4.66761L3.99271 4.66524L3.99749 4.66285L4.00229 4.66045L4.00713 4.65803L4.01199 4.6556L4.01687 4.65316L4.02179 4.6507L4.02673 4.64823L4.0317 4.64574L4.0367 4.64324L4.04173 4.64073L4.04678 4.6382L4.05186 4.63566L4.05697 4.63311L4.06211 4.63054L4.06727 4.62796L4.07246 4.62537L4.07767 4.62276L4.08291 4.62014L4.08818 4.61751L4.09347 4.61486L4.09879 4.6122L4.10414 4.60953L4.10951 4.60684L4.1149 4.60414L4.12032 4.60143L4.12577 4.59871L4.13124 4.59597L4.13674 4.59323L4.14226 4.59047L4.14781 4.58769L4.15338 4.58491L4.15897 4.58211L4.16459 4.5793L4.17024 4.57648L4.17591 4.57364L4.1816 4.5708L4.18731 4.56794L4.19305 4.56507L4.19882 4.56219L4.2046 4.5593L4.21041 4.55639L4.21624 4.55347L4.2221 4.55055L4.22798 4.54761L4.23388 4.54466L4.2398 4.5417L4.24575 4.53872L4.25172 4.53574L4.25771 4.53274L4.26372 4.52974L4.26976 4.52672L4.27581 4.52369L4.28189 4.52065L4.28799 4.5176L4.29411 4.51454L4.30025 4.51147L4.30642 4.50839L4.3126 4.5053L4.3188 4.50219L4.32503 4.49908L4.33128 4.49596L4.33754 4.49283L4.34383 4.48968L4.35014 4.48653L4.35646 4.48336L4.36281 4.48019L4.36918 4.47701L4.37556 4.47381L4.38197 4.47061L4.3884 4.4674L4.39484 4.46418L4.4013 4.46094L4.40779 4.4577L4.41429 4.45445L4.42081 4.45119L4.42735 4.44792L4.4339 4.44465L4.44048 4.44136L4.44707 4.43806L4.45368 4.43476L4.46031 4.43144L4.46696 4.42812L4.47362 4.42478L4.48031 4.42144L4.48701 4.41809L4.49372 4.41474L4.50046 4.41137L4.50721 4.40799L4.51397 4.40461L4.52076 4.40122L4.52756 4.39782L4.53438 4.39441L4.54121 4.39099L4.54806 4.38757L4.55493 4.38413L4.56181 4.38069L4.5687 4.37724L4.57562 4.37379L4.58254 4.37032L4.58949 4.36685L4.59645 4.36337L4.60342 4.35989L4.61041 4.35639L4.61741 4.35289L4.62443 4.34938L4.63146 4.34586L4.63851 4.34234L4.64557 4.33881L4.65265 4.33527L4.65974 4.33173L4.66684 4.32818L4.67396 4.32462L4.68109 4.32105L4.68823 4.31748L4.69539 4.3139L4.70256 4.31032L4.70975 4.30672L4.71694 4.30313L4.72415 4.29952L4.73137 4.29591L4.73861 4.29229L4.74586 4.28867L4.75311 4.28504L4.76039 4.2814L4.76767 4.27776L4.77496 4.27411L4.78227 4.27046L4.78959 4.2668L4.79692 4.26314L4.80426 4.25947L4.81161 4.25579L4.81898 4.25211L4.82635 4.24842L4.83374 4.24473L4.84113 4.24103L4.84854 4.23733L4.85596 4.23362L4.86338 4.22991L4.87082 4.22619L4.87827 4.22246L4.88572 4.21874L4.89319 4.215L4.90067 4.21126L4.90815 4.20752L4.91565 4.20377L4.92315 4.20002L4.93066 4.19627L4.93818 4.1925L4.94571 4.18874L4.95325 4.18497L4.9608 4.1812L4.96836 4.17742L4.97592 4.17364L4.98349 4.16985L4.99108 4.16606L4.99866 4.16226L5.00626 4.15847L5.01386 4.15467L5.02147 4.15086L5.02909 4.14705L5.03672 4.14324L5.04435 4.13942L5.05199 4.1356L5.05963 4.13178L5.06729 4.12795L5.07495 4.12412L5.08261 4.12029L5.09028 4.11645L5.09796 4.11262L5.10564 4.10877L5.11333 4.10493L5.12103 4.10108L5.12873 4.09723L5.13644 4.09338L5.14415 4.08952L5.15186 4.08566L5.15959 4.0818L5.16731 4.07794L5.17504 4.07408L5.18278 4.07021L5.19052 4.06634L5.19826 4.06246L5.20601 4.05859L5.21377 4.05471L5.22152 4.05084L5.22928 4.04696L5.23705 4.04307L5.24481 4.03919L5.25259 4.0353L5.26036 4.03142L5.26814 4.02753L5.27592 4.02364L5.2837 4.01975L5.29149 4.01585L5.29928 4.01196L5.30707 4.00806L5.31486 4.00417L5.32266 4.00027L5.33045 3.99637L5.33825 3.99247L5.34606 3.98857L5.35386 3.98467L5.36166 3.98077L5.36947 3.97686L5.37728 3.97296L5.38508 3.96905L5.39289 3.96515L5.4007 3.96124L5.40852 3.95734L5.41633 3.95343L5.42414 3.94953L5.43195 3.94562L5.43976 3.94171L5.44758 3.93781L5.45539 3.9339L5.4632 3.93L5.47101 3.92609L5.47882 3.92218L5.48663 3.91828L5.49444 3.91437L5.50225 3.91047L5.51006 3.90657L5.51787 3.90266L5.52567 3.89876L5.53348 3.89486L5.54128 3.89096L5.54908 3.88706L5.55688 3.88316L5.56468 3.87926L5.57247 3.87536L5.58027 3.87146L5.58806 3.86757L5.59584 3.86367L5.60363 3.85978L5.61141 3.85589L5.61919 3.852L5.62697 3.84811L5.63474 3.84423L5.64251 3.84034L5.65028 3.83646L5.65804 3.83258L5.6658 3.8287L5.67355 3.82482L5.68131 3.82094L5.68905 3.81707L5.6968 3.8132L5.70454 3.80933L5.71227 3.80546L5.72 3.8016L5.72772 3.79773L5.73544 3.79387L5.74316 3.79002L5.75087 3.78616L5.75857 3.78231L5.76627 3.77846L5.77396 3.77461L5.78165 3.77077L5.78933 3.76693L5.79701 3.76309L5.80468 3.75926L5.81234 3.75543L5.82 3.7516L5.82765 3.74777L5.83529 3.74395L5.84293 3.74013L5.85056 3.73632L5.85818 3.7325L5.8658 3.7287L5.87341 3.72489L5.88101 3.72109L5.8886 3.7173L5.89619 3.7135L5.90377 3.70971L5.91134 3.70593L5.9189 3.70215L5.92645 3.69837L5.934 3.6946L5.94153 3.69083L5.94906 3.68707L5.95658 3.68331L5.96409 3.67955L5.97159 3.6758L5.97908 3.67206L5.98656 3.66832L5.99404 3.66458L6.0015 3.66085L6.00895 3.65712L6.0164 3.6534L6.02383 3.64968L6.03125 3.64597L6.03867 3.64226L6.04607 3.63856L6.05346 3.63487L6.06084 3.63117L6.06821 3.62749L6.07557 3.62381L6.08292 3.62014L6.09026 3.61647L6.09759 3.6128L6.1049 3.60915L6.1122 3.60549L6.11949 3.60185L6.12677 3.59821L6.13404 3.59458L6.1413 3.59095L6.14854 3.58733L6.15577 3.58371L6.16299 3.5801L6.17019 3.5765L6.17739 3.5729L6.18457 3.56931L6.19173 3.56573L6.19888 3.56215L6.20602 3.55858L6.21315 3.55502L6.22026 3.55147L6.22736 3.54792L6.23445 3.54437L6.24152 3.54084L6.24857 3.53731L6.25562 3.53379L6.26264 3.53027L6.26966 3.52677L6.27666 3.52327L6.28364 3.51978L6.29061 3.51629L6.29756 3.51282L6.3045 3.50935L6.31142 3.50588L6.31833 3.50243L6.32522 3.49898L6.3321 3.49555L6.33896 3.49212L6.3458 3.48869L6.35263 3.48528L6.35944 3.48187L6.36624 3.47848L6.37302 3.47509L6.37978 3.47171L6.38653 3.46833L6.39325 3.46497L6.39996 3.46161L6.40666 3.45827L6.41333 3.45493L6.41999 3.4516L6.42663 3.44828L6.43326 3.44497L6.43986 3.44166L6.44645 3.43837L6.45302 3.43509L6.45957 3.43181L6.4661 3.42854L6.47262 3.42529L6.47911 3.42204L6.48559 3.4188L6.49205 3.41557L6.49848 3.41235L6.5049 3.40915L6.5113 3.40595L6.51768 3.40276L6.52404 3.39958L6.53038 3.39641L6.5367 3.39324L6.543 3.39009L6.54928 3.38695L6.55554 3.38382L6.56178 3.38071L6.568 3.3776L6.5742 3.3745L6.58038 3.37141L6.58653 3.36833L6.59267 3.36526L6.59878 3.36221L6.60487 3.35916L6.61094 3.35612L6.61699 3.3531L6.62302 3.35009L6.62903 3.34708L6.63501 3.34409L6.64097 3.34111L6.64691 3.33814L6.65283 3.33518L6.65872 3.33224L6.66459 3.3293C7.38276 2.97022 8.22095 2.99154 8.92467 3.22611C9.03399 3.26255 9.14281 3.30505 9.25 3.35354V3C9.25 2.58579 9.58579 2.25 10 2.25ZM8.29021 19.0966C9.52278 19.8295 10.9622 20.2499 12.5 20.2499C14.0378 20.2499 15.4772 19.8295 16.7098 19.0966L15.0365 15.7501H15.0226H15.0081H14.9935H14.979H14.9644H14.9497H14.9351H14.9204H14.9057H14.891H14.8762H14.8614H14.8466H14.8318H14.8169H14.802H14.7871H14.7721H14.7572H14.7422H14.7271H14.7121H14.697H14.6819H14.6668H14.6517H14.6365H14.6213H14.6061H14.5909H14.5756H14.5603H14.545H14.5297H14.5143H14.499H14.4836H14.4682H14.4527H14.4373H14.4218H14.4063H14.3908H14.3753H14.3597H14.3441H14.3285H14.3129H14.2973H14.2816H14.266H14.2503H14.2346H14.2189H14.2031H14.1874H14.1716H14.1558H14.14H14.1242H14.1083H14.0925H14.0766H14.0607H14.0448H14.0289H14.013H13.997H13.9811H13.9651H13.9491H13.9331H13.9171H13.9011H13.885H13.869H13.8529H13.8369H13.8208H13.8047H13.7886H13.7724H13.7563H13.7402H13.724H13.7078H13.6917H13.6755H13.6593H13.6431H13.6268H13.6106H13.5944H13.5781H13.5619H13.5456H13.5294H13.5131H13.4968H13.4805H13.4642H13.4479H13.4316H13.4153H13.399H13.3826H13.3663H13.35H13.3336H13.3173H13.3009H13.2846H13.2682H13.2518H13.2354H13.2191H13.2027H13.1863H13.1699H13.1535H13.1371H13.1207H13.1044H13.088H13.0716H13.0551H13.0387H13.0223H13.0059H12.9895H12.9731H12.9567H12.9403H12.9239H12.9075H12.8911H12.8747H12.8583H12.8419H12.8255H12.8091H12.7927H12.7763H12.7599H12.7435H12.7271H12.7108H12.6944H12.678H12.6616H12.6453H12.6289H12.6125H12.5962H12.5798H12.5635H12.5472H12.5308H12.5145H12.4982H12.4819H12.4656H12.4493H12.433H12.4167H12.4004H12.3841H12.3679H12.3516H12.3354H12.3191H12.3029H12.2867H12.2705H12.2543H12.2381H12.2219H12.2057H12.1895H12.1734H12.1572H12.1411H12.125H12.1089H12.0928H12.0767H12.0606H12.0446H12.0285H12.0125H11.9965H11.9805H11.9645H11.9485H11.9325H11.9166H11.9006H11.8847H11.8688H11.8529H11.837H11.8212H11.8053H11.7895H11.7737H11.7579H11.7421H11.7263H11.7106H11.6948H11.6791H11.6634H11.6478H11.6321H11.6165H11.6008H11.5852H11.5696H11.5541H11.5385H11.523H11.5075H11.492H11.4765H11.4611H11.4457H11.4303H11.4149H11.3995H11.3842H11.3689H11.3536H11.3383H11.323H11.3078H11.2926H11.2774H11.2623H11.2471H11.232H11.2169H11.2019H11.1868H11.1718H11.1569H11.1419H11.127H11.112H11.0972H11.0823H11.0675H11.0527H11.0379H11.0231H11.0084H10.9937H10.979H10.9644H10.9498H10.9352H10.9207H10.9061H10.8916H10.8772H10.8627H10.8483H10.8339H10.8196H10.8053H10.791H10.7767H10.7625H10.7483H10.7341H10.72H10.7059H10.6919H10.6778H10.6638H10.6499H10.6359H10.622H10.6081H10.5943H10.5805H10.5667H10.553H10.5393H10.5257H10.512H10.4984H10.4849H10.4714H10.4579H10.4444H10.431H10.4176H10.4043H10.391H10.3777H10.3645H10.3513H10.3382H10.3251H10.312H10.299H10.286H10.273H10.2601H10.2472H10.2344H10.2216H10.2088H10.1961H10.1834H10.1708H10.1582H10.1456H10.1331H10.1207H10.1082H10.0959H10.0835H10.0712H10.059H10.0467H10.0346H10.0225H10.0104H9.99833H9.98634H9.97439H9.96347L8.29021 19.0966ZM9.33411 5.34543L9.32474 5.32678C9.18169 5.04825 8.86724 4.78811 8.45033 4.64914C8.02905 4.50871 7.61724 4.53003 7.33541 4.67094L7.32954 4.67388L7.32365 4.67682L7.31773 4.67978L7.31179 4.68275L7.30583 4.68573L7.29985 4.68872L7.29384 4.69173L7.28781 4.69474L7.28176 4.69776L7.27569 4.7008L7.2696 4.70385L7.26349 4.7069L7.25735 4.70997L7.2512 4.71305L7.24502 4.71614L7.23882 4.71924L7.2326 4.72235L7.22636 4.72547L7.2201 4.7286L7.21382 4.73174L7.20752 4.73489L7.2012 4.73805L7.19486 4.74122L7.1885 4.7444L7.18212 4.74759L7.17572 4.75079L7.1693 4.754L7.16287 4.75721L7.15641 4.76044L7.14993 4.76368L7.14344 4.76693L7.13692 4.77019L7.13039 4.77345L7.12384 4.77673L7.11727 4.78001L7.11068 4.78331L7.10408 4.78661L7.09746 4.78992L7.09081 4.79324L7.08416 4.79657L7.07748 4.79991L7.07079 4.80326L7.06407 4.80661L7.05735 4.80997L7.0506 4.81335L7.04384 4.81673L7.03706 4.82012L7.03026 4.82351L7.02345 4.82692L7.01663 4.83034L7.00978 4.83376L7.00292 4.83719L6.99604 4.84063L6.98915 4.84407L6.98224 4.84753L6.97532 4.85099L6.96838 4.85446L6.96143 4.85793L6.95446 4.86142L6.94748 4.86491L6.94048 4.86841L6.93347 4.87192L6.92644 4.87543L6.91939 4.87895L6.91234 4.88248L6.90527 4.88601L6.89818 4.88956L6.89108 4.89311L6.88397 4.89666L6.87684 4.90023L6.8697 4.9038L6.86255 4.90737L6.85539 4.91095L6.84821 4.91454L6.84101 4.91814L6.83381 4.92174L6.82659 4.92535L6.81936 4.92897L6.81212 4.93259L6.80486 4.93622L6.7976 4.93985L6.79032 4.94349L6.78302 4.94714L6.77572 4.95079L6.76841 4.95444L6.76108 4.95811L6.75374 4.96178L6.74639 4.96545L6.73903 4.96913L6.73166 4.97282L6.72428 4.97651L6.71689 4.9802L6.70949 4.9839L6.70207 4.98761L6.69465 4.99132L6.68722 4.99504L6.67977 4.99876L6.67232 5.00249L6.66486 5.00622L6.65738 5.00996L6.6499 5.0137L6.64241 5.01744L6.63491 5.02119L6.6274 5.02495L6.61988 5.02871L6.61235 5.03247L6.60482 5.03624L6.59727 5.04001L6.58972 5.04379L6.58216 5.04757L6.57459 5.05135L6.56701 5.05514L6.55942 5.05894L6.55183 5.06273L6.54423 5.06653L6.53662 5.07034L6.529 5.07415L6.52138 5.07796L6.51375 5.08177L6.50611 5.08559L6.49847 5.08941L6.49082 5.09324L6.48316 5.09707L6.4755 5.1009L6.46783 5.10473L6.46015 5.10857L6.45247 5.11241L6.44479 5.11625L6.43709 5.1201L6.42939 5.12395L6.42169 5.1278L6.41398 5.13166L6.40626 5.13552L6.39854 5.13938L6.39082 5.14324L6.38309 5.1471L6.37536 5.15097L6.36762 5.15484L6.35987 5.15871L6.35213 5.16258L6.34438 5.16646L6.33662 5.17034L6.32886 5.17422L6.3211 5.1781L6.31333 5.18198L6.30556 5.18587L6.29779 5.18975L6.29001 5.19364L6.28223 5.19753L6.27445 5.20142L6.26666 5.20532L6.25888 5.20921L6.25109 5.2131L6.24329 5.217L6.2355 5.2209L6.2277 5.2248L6.2199 5.2287L6.2121 5.2326L6.2043 5.2365L6.19649 5.2404L6.18869 5.2443L6.18088 5.24821L6.17307 5.25211L6.16526 5.25602L6.15745 5.25992L6.14964 5.26383L6.14183 5.26773L6.13402 5.27164L6.12621 5.27554L6.1184 5.27945L6.11058 5.28336L6.10277 5.28726L6.09496 5.29117L6.08715 5.29507L6.07934 5.29898L6.07152 5.30289L6.06371 5.30679L6.05591 5.3107L6.0481 5.3146L6.04029 5.3185L6.03248 5.32241L6.02468 5.32631L6.01688 5.33021L6.00907 5.33411L6.00127 5.33801L5.99348 5.34191L5.98568 5.34581L5.97789 5.3497L5.9701 5.3536L5.96231 5.35749L5.95452 5.36139L5.94674 5.36528L5.93896 5.36917L5.93118 5.37306L5.92341 5.37694L5.91563 5.38083L5.90787 5.38471L5.9001 5.3886L5.89234 5.39248L5.88459 5.39635L5.87683 5.40023L5.86908 5.40411L5.86134 5.40798L5.8536 5.41185L5.84586 5.41572L5.83813 5.41958L5.83041 5.42344L5.82268 5.42731L5.81497 5.43116L5.80726 5.43502L5.79955 5.43887L5.79185 5.44272L5.78415 5.44657L5.77647 5.45042L5.76878 5.45426L5.7611 5.4581L5.75343 5.46193L5.74577 5.46576L5.73811 5.46959L5.73045 5.47342L5.72281 5.47724L5.71517 5.48106L5.70754 5.48488L5.69991 5.48869L5.69229 5.4925L5.68468 5.49631L5.67708 5.50011L5.66948 5.50391L5.6619 5.5077L5.65432 5.51149L5.64674 5.51528L5.63918 5.51906L5.63162 5.52284L5.62407 5.52661L5.61654 5.53038L5.609 5.53415L5.60148 5.53791L5.59397 5.54166L5.58647 5.54541L5.57897 5.54916L5.57149 5.5529L5.56401 5.55664L5.55654 5.56038L5.54909 5.5641L5.54164 5.56783L5.5342 5.57155L5.52678 5.57526L5.51936 5.57897L5.51195 5.58267L5.50456 5.58637L5.49717 5.59006L5.4898 5.59375L5.48243 5.59743L5.47508 5.60111L5.46774 5.60478L5.46041 5.60844L5.45309 5.6121L5.44578 5.61576L5.43849 5.6194L5.43121 5.62304L5.42393 5.62668L5.41668 5.63031L5.40943 5.63393L5.40219 5.63755L5.39497 5.64116L5.38776 5.64477L5.38057 5.64836L5.37338 5.65196L5.36621 5.65554L5.35905 5.65912L5.35191 5.66269L5.34478 5.66626L5.33766 5.66982L5.33056 5.67337L5.32347 5.67691L5.31639 5.68045L5.30933 5.68398L5.30228 5.68751L5.29525 5.69102L5.28823 5.69453L5.28123 5.69803L5.27424 5.70153L5.26727 5.70501L5.26031 5.70849L5.25337 5.71197L5.24644 5.71543L5.23952 5.71889L5.23263 5.72233L5.22575 5.72577L5.21888 5.72921L5.21203 5.73263L5.2052 5.73605L5.19838 5.73946L5.19158 5.74286L5.18479 5.74625L5.17803 5.74963L5.17128 5.75301L5.16454 5.75638L5.15783 5.75973L5.15113 5.76308L5.14444 5.76643L5.13778 5.76976L5.13113 5.77308L5.1245 5.7764L5.11789 5.7797L5.1113 5.783L5.10472 5.78629L5.09817 5.78956L5.09163 5.79283L5.08511 5.79609L5.07861 5.79934L5.07212 5.80259L5.06566 5.80582L5.05922 5.80904L5.05279 5.81225L5.04638 5.81546L5.04 5.81865L5.03363 5.82183L5.02728 5.82501L5.02096 5.82817L5.01465 5.83132L5.00836 5.83447L5.0021 5.8376L4.99585 5.84072L4.98962 5.84384L4.98342 5.84694L4.97724 5.85003L4.97107 5.85311L4.96493 5.85618L4.95881 5.85924L4.95271 5.86229L4.94663 5.86533L4.94058 5.86836L4.93454 5.87138L4.92853 5.87438L4.92254 5.87738L4.91657 5.88036L4.91062 5.88334L4.9047 5.8863L4.8988 5.88925L4.89292 5.89219L4.88706 5.89512L4.88123 5.89803L4.87542 5.90094L4.86964 5.90383L4.86387 5.90671L4.85813 5.90958L4.85242 5.91244L4.84673 5.91528L4.84106 5.91812L4.83541 5.92094L4.82979 5.92375L4.8242 5.92655L4.81863 5.92933L4.81308 5.93211L4.80756 5.93487L4.80206 5.93762L4.79659 5.94035L4.79115 5.94307L4.78572 5.94579L4.78033 5.94848L4.77496 5.95117L4.76961 5.95384L4.76429 5.9565L4.759 5.95915L4.75373 5.96178L4.74849 5.9644L4.74328 5.96701L4.73809 5.9696L4.73293 5.97218L4.72779 5.97475L4.72269 5.9773L4.7176 5.97985L4.71255 5.98237L4.70752 5.98489L4.70253 5.98739L4.69755 5.98987L4.69261 5.99234L4.68769 5.9948L4.68281 5.99724L4.67795 5.99967L4.67311 6.00209L4.66831 6.00449L4.66354 6.00688L4.65879 6.00925L4.65407 6.01161L4.64938 6.01396L4.64472 6.01629L4.64009 6.0186L4.63549 6.0209L4.63092 6.02319L4.62638 6.02546L4.62186 6.02772L4.61738 6.02996L4.61293 6.03218L4.6085 6.0344L4.60411 6.03659L4.59975 6.03877L4.59542 6.04094L4.59112 6.04309L4.58685 6.04522L4.58261 6.04734L4.5784 6.04945L4.57422 6.05154L4.57008 6.05361L4.56596 6.05567L4.56188 6.05771L4.55783 6.05973L4.55381 6.06174L4.54982 6.06374L4.54586 6.06572L4.54194 6.06768L4.53805 6.06962L4.53419 6.07155L4.53037 6.07346L4.52657 6.07536L4.52281 6.07724L4.51909 6.0791L4.51539 6.08095L4.51173 6.08278L4.5081 6.0846L4.50451 6.08639L4.50095 6.08817L4.49742 6.08994L4.49393 6.09168L4.49047 6.09341L4.48705 6.09512L4.48366 6.09682L4.48031 6.09849L4.47699 6.10015L4.4737 6.1018L4.47045 6.10342L4.46724 6.10503L4.46405 6.10662L4.46091 6.10819L4.4578 6.10975L4.45473 6.11128L4.45169 6.1128L4.44869 6.1143L4.44572 6.11579L4.44279 6.11725L4.4399 6.1187L4.43704 6.12013L4.43422 6.12154L4.43143 6.12293L4.42869 6.12431L4.42597 6.12566L4.4233 6.127L4.42066 6.12832L4.41807 6.12961L4.4155 6.1309L4.41298 6.13216L4.41049 6.1334L4.40804 6.13463L4.40563 6.13583L4.40326 6.13702L4.40093 6.13818L4.39863 6.13933L4.39638 6.14046L4.39416 6.14157L4.39198 6.14266L4.38984 6.14373L4.38773 6.14478L4.38567 6.14581L4.38365 6.14682L4.38167 6.14781L4.37972 6.14879L4.37782 6.14974L4.37595 6.15067L4.37413 6.15158L4.37234 6.15248L4.3706 6.15335L4.3689 6.1542L4.36723 6.15503L4.36561 6.15584L4.36403 6.15663L4.36249 6.1574L4.36099 6.15815L4.35953 6.15888L4.35812 6.15959L4.35674 6.16028L4.35541 6.16094L4.35411 6.16159L4.35286 6.16222L4.35166 6.16282L4.35049 6.1634L4.34937 6.16396L4.34828 6.16451L4.34733 6.16498L4.34626 6.16563C4.33795 6.17068 4.31936 6.18247 4.29375 6.20169C4.24218 6.24036 4.1651 6.30683 4.08565 6.40614C3.93437 6.59524 3.75 6.9323 3.75 7.5001C3.75 8.0679 3.93437 8.40497 4.08566 8.59408C4.12126 8.63859 4.15639 8.6765 4.18896 8.70827L6.8767 8.26031C7.09417 8.22407 7.31656 8.28534 7.48478 8.42784C7.653 8.57035 7.75 8.77964 7.75 9.00011H7L7.75 9.00014V9.00025V9.00042V9.00066V9.00096V9.00134V9.00178V9.00229V9.00286V9.00351V9.00421V9.00499V9.00583V9.00674V9.00771V9.00875V9.00985V9.01102V9.01225V9.01354V9.0149V9.01633V9.01782V9.01937V9.02098V9.02266V9.0244V9.02621V9.02807V9.03V9.03199V9.03404V9.03616V9.03833V9.04057V9.04287V9.04522V9.04764V9.05012V9.05266V9.05525V9.05791V9.06063V9.0634V9.06624V9.06913V9.07208V9.07509V9.07816V9.08128V9.08447V9.08771V9.091V9.09436V9.09777V9.10123V9.10476V9.10833V9.11197V9.11566V9.1194V9.1232V9.12706V9.13097V9.13493V9.13895V9.14302V9.14715V9.15133V9.15556V9.15984V9.16418V9.16857V9.17302V9.17751V9.18206V9.18666V9.19131V9.19601V9.20076V9.20557V9.21042V9.21532V9.22028V9.22528V9.23034V9.23544V9.24059V9.24579V9.25104V9.25634V9.26169V9.26708V9.27253V9.27802V9.28356V9.28914V9.29477V9.30045V9.30618V9.31195V9.31777V9.32363V9.32954V9.3355V9.3415V9.34754V9.35363V9.35977V9.36595V9.37217V9.37844V9.38475V9.3911V9.3975V9.40394V9.41042V9.41694V9.42351V9.43012V9.43677V9.44347V9.4502V9.45697V9.46379V9.47065V9.47755V9.48448V9.49146V9.49848V9.50554V9.51263V9.51977V9.52695V9.53416V9.54141V9.5487V9.55603V9.5634V9.5708V9.57824V9.58572V9.59323V9.60079V9.60838V9.616V9.62366V9.63136V9.63909V9.64686V9.65466V9.6625V9.67037V9.67828V9.68622V9.69419V9.7022V9.71024V9.71832V9.72643V9.73457V9.74274V9.75095V9.75919V9.76746V9.77576V9.7841V9.79246V9.80086V9.80929V9.81775V9.82624V9.83475V9.8433V9.85188V9.86049V9.86913V9.8778V9.88649V9.89522V9.90397V9.91275V9.92156V9.9304V9.93926V9.94815V9.95707V9.96602V9.97499V9.98399V9.99301V10.0021V10.0111V10.0202V10.0294V10.0385V10.0477V10.0569V10.0661V10.0754V10.0847V10.0939V10.1033V10.1126V10.122V10.1314V10.1408V10.1502V10.1597V10.1692V10.1787V10.1882V10.1977V10.2073V10.2169V10.2265V10.2361V10.2458V10.2554V10.2651V10.2748V10.2846V10.2943V10.3041V10.3138V10.3236V10.3335V10.3433V10.3532V10.363V10.3729V10.3828V10.3927V10.4027V10.4126V10.4226V10.4326V10.4426V10.4526V10.4627V10.4727V10.4828V10.4929V10.503V10.5131V10.5232V10.5333V10.5435V10.5536V10.5638V10.574V10.5842V10.5944V10.6046V10.6149V10.6251V10.6354V10.6456V10.6559V10.6662V10.6765V10.6868V10.6972V10.7075V10.7178V10.7282V10.7385V10.7489V10.7593V10.7697V10.7801V10.7905V10.8009V10.8113V10.8217V10.8322V10.8426V10.8531V10.8635V10.874V10.8845V10.8949V10.9054V10.9159V10.9264V10.9369V10.9474V10.9579V10.9684V10.9789V10.9894V10.9999V11.0105V11.021V11.0315V11.042V11.0526V11.0631V11.0736V11.0842V11.0947V11.1053V11.1158V11.1264V11.1369V11.1475V11.158V11.1685V11.1791V11.1896V11.2002V11.2107V11.2213V11.2318V11.2424V11.2529V11.2634V11.274V11.2845V11.295V11.3056V11.3161V11.3266V11.3371V11.3476V11.3581V11.3686V11.3791V11.3896V11.4001V11.4106V11.4211V11.4316V11.442V11.4525V11.463V11.4734V11.4839V11.4943V11.5047V11.5152V11.5256V11.536V11.5464V11.5568V11.5672V11.5775V11.5879V11.5982V11.6086V11.6189V11.6293V11.6396V11.6499V11.6602V11.6705V11.6807V11.691V11.7013V11.7115V11.7217V11.7319V11.7422V11.7523V11.7625V11.7727V11.7828V11.793V11.8031V11.8132V11.8233V11.8334V11.8435V11.8535V11.8636V11.8736V11.8836V11.8936V11.9036V11.9135V11.9235V11.9334V11.9433V11.9532V11.9631V11.973V11.9828V11.9926V12.0025V12.0122V12.022V12.0318V12.0415V12.0512V12.0609V12.0706V12.0802V12.0899V12.0995V12.1091V12.1187V12.1282V12.1377V12.1473V12.1567V12.1662V12.1757V12.1851V12.1945V12.2039V12.2132V12.2225V12.2319V12.2411V12.2504V12.2596V12.2688V12.278V12.2872V12.2963V12.3054V12.3145V12.3236V12.3326V12.3416V12.3506V12.3596V12.3685V12.3774V12.3863V12.3951V12.4039V12.4127V12.4215V12.4302V12.4389V12.4476V12.4563V12.4649V12.4735V12.482V12.4906V12.4991V12.5076V12.516V12.5244V12.5328V12.5411V12.5494V12.5577V12.566V12.5742V12.5824V12.5905V12.5987V12.6067V12.6148V12.6228V12.6308V12.6388V12.6467V12.6546V12.6624V12.6702V12.678V12.6858V12.6935V12.7012V12.7088V12.7164V12.724V12.7315V12.739V12.7464V12.7539V12.7612V12.7686V12.7759V12.7832V12.7904V12.7976V12.8047V12.8118V12.8189V12.826V12.8329V12.8399V12.8468V12.8537V12.8605V12.8673V12.8741V12.8808V12.8874V12.8941V12.9007V12.9072V12.9137V12.9202V12.9266V12.9329V12.9393V12.9455V12.9518V12.958V12.9641V12.9702V12.9763V12.9823V12.9883V12.9942V13.0001C7.75 13.2562 7.88559 13.575 8.15533 13.8448C8.42507 14.1145 8.74392 14.2501 9 14.2501H9.00589H9.01186H9.01789H9.02398H9.03015H9.03638H9.04269H9.04905H9.05549H9.06199H9.06856H9.07519H9.08189H9.08866H9.09549H9.10239H9.10935H9.11638H9.12347H9.13062H9.13784H9.14513H9.15247H9.15989H9.16736H9.1749H9.1825H9.19016H9.19789H9.20567H9.21352H9.22144H9.22941H9.23744H9.24554H9.25369H9.26191H9.27019H9.27853H9.28692H9.29538H9.3039H9.31247H9.32111H9.3298H9.33855H9.34736H9.35623H9.36516H9.37414H9.38318H9.39228H9.40144H9.41065H9.41992H9.42925H9.43863H9.44807H9.45756H9.46711H9.47672H9.48032C9.4938 14.2497 9.50731 14.2497 9.52084 14.2501H9.52556H9.53549H9.54548H9.55552H9.56561H9.57575H9.58595H9.5962H9.6065H9.61686H9.62726H9.63772H9.64823H9.65879H9.6694H9.68007H9.69078H9.70154H9.71236H9.72322H9.73413H9.7451H9.75611H9.76717H9.77828H9.78944H9.80064H9.8119H9.8232H9.83455H9.84595H9.85739H9.86888H9.88042H9.89201H9.90364H9.91532H9.92704H9.93881H9.95062H9.96248H9.97439H9.98634H9.99833H10.0104H10.0225H10.0346H10.0467H10.059H10.0712H10.0835H10.0959H10.1082H10.1207H10.1331H10.1456H10.1582H10.1708H10.1834H10.1961H10.2088H10.2216H10.2344H10.2472H10.2601H10.273H10.286H10.299H10.312H10.3251H10.3382H10.3513H10.3645H10.3777H10.391H10.4043H10.4176H10.431H10.4444H10.4579H10.4714H10.4849H10.4984H10.512H10.5257H10.5393H10.553H10.5667H10.5805H10.5943H10.6081H10.622H10.6359H10.6499H10.6638H10.6778H10.6919H10.7059H10.72H10.7341H10.7483H10.7625H10.7767H10.791H10.8053H10.8196H10.8339H10.8483H10.8627H10.8772H10.8916H10.9061H10.9207H10.9352H10.9498H10.9644H10.979H10.9937H11.0084H11.0231H11.0379H11.0527H11.0675H11.0823H11.0972H11.112H11.127H11.1419H11.1569H11.1718H11.1868H11.2019H11.2169H11.232H11.2471H11.2623H11.2774H11.2926H11.3078H11.323H11.3383H11.3536H11.3689H11.3842H11.3995H11.4149H11.4303H11.4457H11.4611H11.4765H11.492H11.5075H11.523H11.5385H11.5541H11.5696H11.5852H11.6008H11.6165H11.6321H11.6478H11.6634H11.6791H11.6948H11.7106H11.7263H11.7421H11.7579H11.7737H11.7895H11.8053H11.8212H11.837H11.8529H11.8688H11.8847H11.9006H11.9166H11.9325H11.9485H11.9645H11.9805H11.9965H12.0125H12.0285H12.0446H12.0606H12.0767H12.0928H12.1089H12.125H12.1411H12.1572H12.1734H12.1895H12.2057H12.2219H12.2381H12.2543H12.2705H12.2867H12.3029H12.3191H12.3354H12.3516H12.3679H12.3841H12.4004H12.4167H12.433H12.4493H12.4656H12.4819H12.4982H12.5145H12.5308H12.5472H12.5635H12.5798H12.5962H12.6125H12.6289H12.6453H12.6616H12.678H12.6944H12.7108H12.7271H12.7435H12.7599H12.7763H12.7927H12.8091H12.8255H12.8419H12.8583H12.8747H12.8911H12.9075H12.9239H12.9403H12.9567H12.9731H12.9895H13.0059H13.0223H13.0387H13.0551H13.0716H13.088H13.1044H13.1207H13.1371H13.1535H13.1699H13.1863H13.2027H13.2191H13.2354H13.2518H13.2682H13.2846H13.3009H13.3173H13.3336H13.35H13.3663H13.3826H13.399H13.4153H13.4316H13.4479H13.4642H13.4805H13.4968H13.5131H13.5294H13.5456H13.5619H13.5781H13.5944H13.6106H13.6268H13.6431H13.6593H13.6755H13.6917H13.7078H13.724H13.7402H13.7563H13.7724H13.7886H13.8047H13.8208H13.8369H13.8529H13.869H13.885H13.9011H13.9171H13.9331H13.9491H13.9651H13.9811H13.997H14.013H14.0289H14.0448H14.0607H14.0766H14.0925H14.1083H14.1242H14.14H14.1558H14.1716H14.1874H14.2031H14.2189H14.2346H14.2503H14.266H14.2816H14.2973H14.3129H14.3285H14.3441H14.3597H14.3753H14.3908H14.4063H14.4218H14.4373H14.4527H14.4682H14.4836H14.499H14.5143H14.5297H14.545H14.5603H14.5756H14.5909H14.6061H14.6213H14.6365H14.6517H14.6668H14.6819H14.697H14.7121H14.7271H14.7422H14.7572H14.7721H14.7871H14.802H14.8169H14.8318H14.8466H14.8614H14.8762H14.891H14.9057H14.9204H14.9351H14.9497H14.9644H14.979H14.9935H15.0081H15.0226H15.0371H15.0515H15.0659H15.0803H15.0947H15.109H15.1233H15.1376H15.1518H15.166H15.1802H15.1943H15.2084H15.2225H15.2366H15.2506H15.2646H15.2785H15.2924H15.3063H15.3202H15.334H15.3478H15.3615H15.3752H15.3889H15.4025H15.4161H15.4297H15.4432H15.4567H15.4702H15.4792C15.4927 14.2497 15.5062 14.2497 15.5197 14.2501H15.5237H15.537H15.5502H15.5634H15.5766H15.5897H15.6028H15.6158H15.6288H15.6418H15.6547H15.6676H15.6805H15.6933H15.7061H15.7188H15.7315H15.7442H15.7568H15.7693H15.7819H15.7943H15.8068H15.8192H15.8316H15.8439H15.8561H15.8684H15.8806H15.8927H15.9048H15.9169H15.9289H15.9408H15.9528H15.9646H15.9765H15.9883H16C16.6932 14.2501 17.0935 13.9282 17.3569 13.4892C17.6438 13.0111 17.75 12.4045 17.75 12.0001C17.75 11.5957 17.6438 10.9891 17.3569 10.511C17.0935 10.072 16.6932 9.75011 16 9.75011H15.9883H15.9765H15.9648H15.953H15.9413H15.9295H15.9177H15.9059H15.8941H15.8823H15.8704H15.8586H15.8467H15.8349H15.823H15.8111H15.7992H15.7873H15.7754H15.7635H15.7516H15.7397H15.7277H15.7158H15.7038H15.6918H15.6799H15.6679H15.6559H15.6439H15.6319H15.6199H15.6079H15.5958H15.5838H15.5718H15.5597H15.5477H15.5356H15.5235H15.5115H15.4994H15.4873H15.4752H15.4631H15.451H15.4389H15.4268H15.4147H15.4026H15.3904H15.3783H15.3662H15.354H15.3419H15.3297H15.3176H15.3054H15.2933H15.2811H15.2689H15.2568H15.2446H15.2324H15.2202H15.2081H15.1959H15.1837H15.1715H15.1593H15.1471H15.1349H15.1227H15.1105H15.0983H15.0861H15.0739H15.0617H15.0495H15.0373H15.0251H15.0129H15.0007H14.9885H14.9763H14.9641H14.9519H14.9397H14.9275H14.9153H14.9031H14.8908H14.8786H14.8664H14.8542H14.842H14.8298H14.8176H14.8054H14.7933H14.7811H14.7689H14.7567H14.7445H14.7323H14.7201H14.708H14.6958H14.6836H14.6715H14.6593H14.6471H14.635H14.6228H14.6107H14.5985H14.5864H14.5742H14.5621H14.55H14.5379H14.5257H14.5136H14.5015H14.4894H14.4773H14.4652H14.4531H14.441H14.429H14.4169H14.4048H14.3928H14.3807H14.3687H14.3566H14.3446H14.3326H14.3206H14.3086H14.2966H14.2846H14.2726H14.2606H14.2486H14.2367H14.2247H14.2127H14.2008H14.1889H14.177H14.165H14.1531H14.1412H14.1294H14.1175H14.1056H14.0938H14.0819H14.0701H14.0582H14.0464H14.0346H14.0228H14.011H13.9993H13.9875H13.9757H13.964H13.9523H13.9405H13.9288H13.9171H13.9054H13.8938H13.8821H13.8705H13.8588H13.8472H13.8356H13.824H13.8124H13.8008H13.7893H13.7777H13.7662H13.7547H13.7432H13.7317H13.7202H13.7087H13.6973H13.6858H13.6744H13.663H13.6516H13.6402H13.6289H13.6175H13.6062H13.5949H13.5836H13.5723H13.561H13.5498H13.5385H13.5273H13.5161H13.5049H13.4937H13.4826H13.4714H13.4603H13.4492H13.4381H13.427H13.416H13.4049H13.3939H13.3829H13.3719H13.361H13.35H13.3391H13.3282H13.3173H13.3064H13.2956H13.2848H13.2739H13.2632H13.2524H13.2416H13.2309H13.2202H13.2095H13.1988H13.1881H13.1775H13.1669H13.1563H13.1457H13.1352H13.1247H13.1141H13.1037H13.0932H13.0828H13.0723H13.0619H13.0516H13.0412H13.0309H13.0206H13.0103H13H12.9898H12.9795H12.9693H12.9592H12.949H12.9389H12.9288H12.9187H12.9087H12.8986H12.8886H12.8786H12.8687H12.8587H12.8488H12.839H12.8291H12.8193H12.8095H12.7997H12.7899H12.7802H12.7705H12.7608H12.7512H12.7415H12.7319H12.7224H12.7128H12.7033H12.6938H12.6843H12.6749H12.6655H12.6561H12.6467H12.6374H12.6281H12.6188H12.6096H12.6004H12.5912H12.582H12.5729H12.5638H12.5547H12.5457H12.5367H12.5277H12.5187H12.5098H12.5009H12.492H12.4832H12.4744H12.4656H12.4568H12.4481H12.4394H12.4308H12.4222H12.4136H12.405H12.3965H12.388H12.3795H12.3711H12.3627H12.3543H12.346H12.3377H12.3294H12.3211H12.3129H12.3048H12.2966H12.2885H12.2804H12.2724H12.2644H12.2564H12.2485H12.2405H12.2327H12.2248H12.217H12.2092H12.2015H12.1938H12.1861H12.1785H12.1709H12.1633H12.1558H12.1483H12.1409H12.1334H12.1261H12.1187H12.1114H12.1041H12.0969H12.0897H12.0825H12.0754H12.0683H12.0612H12.0542H12.0472H12.0403H12.0334H12.0265H12.0197H12.0129H12.0061H11.9994H11.9928H11.9861H11.9795H11.9729H11.9664H11.9599H11.9535H11.9471H11.9407H11.9344H11.9281H11.9219H11.9157H11.9095H11.9034H11.8973H11.8913H11.8852H11.8793H11.8734H11.8675H11.8616H11.8558H11.8501H11.8444H11.8387H11.8331H11.8275H11.8219H11.8164H11.811H11.8056H11.8002H11.7948H11.7896H11.7843H11.7791H11.7739H11.7688H11.7638H11.7587H11.7537H11.7488H11.7439H11.739H11.7342H11.7295H11.7248H11.7201H11.7154H11.7109H11.7063H11.7018H11.6974H11.693H11.6886H11.6843H11.6801H11.6758H11.6717H11.6675H11.6635H11.6594H11.6554H11.6515H11.6476H11.6438H11.64H11.6362H11.6325H11.6289H11.6253H11.6217H11.6182H11.6147H11.6113H11.608H11.6047H11.6014H11.5982H11.595H11.5919H11.5888H11.5858H11.5828H11.5799H11.577H11.5742H11.5715H11.5687H11.5661H11.5634H11.5609H11.5584H11.5559H11.5535H11.5511H11.5488H11.5466H11.5443H11.5422H11.5401H11.538H11.536H11.5341H11.5322H11.5304H11.5286H11.5268H11.5251H11.5235H11.5219H11.5204H11.5189H11.5175H11.5162H11.5149H11.5136H11.5124H11.5113H11.5102H11.5091H11.5082H11.5072H11.5064H11.5055H11.5048H11.5041H11.5034H11.5028H11.5023H11.5018H11.5014H11.501H11.5007H11.5005H11.5003H11.5001H11.5L11.5 9.00011V9.75011C11.1772 9.75011 10.8906 9.54354 10.7885 9.23728L10.7885 9.23721L10.7884 9.23687L10.7879 9.23538L10.7858 9.22922L10.7775 9.20452L10.7454 9.1089C10.7174 9.02583 10.6767 8.90578 10.6263 8.7585C10.5255 8.46378 10.386 8.06084 10.2312 7.62737C9.91726 6.74837 9.56027 5.80112 9.33411 5.34543Z" fill="#262626"/>
</svg>
