<svg width="24" height="24" viewBox="0 0 24 24" fill="none" xmlns="http://www.w3.org/2000/svg">
<path fill-rule="evenodd" clip-rule="evenodd" d="M14.0303 2.96967C14.3232 3.26256 14.3232 3.73744 14.0303 4.03033L12.8107 5.25H17C19.0711 5.25 20.75 6.92893 20.75 9V13.5C20.75 13.9142 20.4142 14.25 20 14.25C19.5858 14.25 19.25 13.9142 19.25 13.5V9C19.25 7.75736 18.2426 6.75 17 6.75H12.8107L14.0303 7.96967C14.3232 8.26256 14.3232 8.73744 14.0303 9.03033C13.7374 9.32322 13.2626 9.32322 12.9697 9.03033L10.4697 6.53033C10.3978 6.45842 10.3435 6.37555 10.3069 6.28709C10.2702 6.19866 10.25 6.10169 10.25 6C10.25 5.80806 10.3232 5.61612 10.4697 5.46967L12.9697 2.96967C13.2626 2.67678 13.7374 2.67678 14.0303 2.96967ZM5 11.25C4.0335 11.25 3.25 12.0335 3.25 13V19C3.25 19.9665 4.0335 20.75 5 20.75H11C11.9665 20.75 12.75 19.9665 12.75 19V13C12.75 12.0335 11.9665 11.25 11 11.25H5Z" fill="#23262A"/>
</svg>
