<svg width="24" height="24" viewBox="0 0 24 24" fill="none" xmlns="http://www.w3.org/2000/svg">
<path fill-rule="evenodd" clip-rule="evenodd" d="M8.96967 2.96967C8.67678 3.26256 8.67678 3.73744 8.96967 4.03033L10.1893 5.25L7 5.25C4.92893 5.25 3.25 6.92893 3.25 9L3.25 13.5C3.25 13.9142 3.58579 14.25 4 14.25C4.41421 14.25 4.75 13.9142 4.75 13.5L4.75 9C4.75 7.75736 5.75736 6.75 7 6.75L10.1893 6.75L8.96967 7.96967C8.67678 8.26256 8.67678 8.73744 8.96967 9.03033C9.26256 9.32322 9.73744 9.32322 10.0303 9.03033L12.5303 6.53033C12.8232 6.23744 12.8232 5.76256 12.5303 5.46967L10.0303 2.96967C9.73744 2.67678 9.26256 2.67678 8.96967 2.96967ZM13 11.25C12.0335 11.25 11.25 12.0335 11.25 13L11.25 19C11.25 19.9665 12.0335 20.75 13 20.75L19 20.75C19.9665 20.75 20.75 19.9665 20.75 19L20.75 13C20.75 12.0335 19.9665 11.25 19 11.25L13 11.25ZM12.75 13C12.75 12.8619 12.8619 12.75 13 12.75L19 12.75C19.1381 12.75 19.25 12.8619 19.25 13L19.25 19C19.25 19.1381 19.1381 19.25 19 19.25L13 19.25C12.8619 19.25 12.75 19.1381 12.75 19L12.75 13Z" fill="#262626"/>
</svg>
