<svg width="24" height="24" viewBox="0 0 24 24" fill="none" xmlns="http://www.w3.org/2000/svg">
<path fill-rule="evenodd" clip-rule="evenodd" d="M8.96967 2.96967C9.26256 2.67678 9.73744 2.67678 10.0303 2.96967L12.5303 5.46967C12.6024 5.54179 12.6568 5.62494 12.6934 5.71369C12.729 5.7999 12.7491 5.8942 12.75 5.99308L12.75 6L12.75 6.00692C12.7482 6.19655 12.675 6.38564 12.5303 6.53033L10.0303 9.03033C9.73744 9.32322 9.26256 9.32322 8.96967 9.03033C8.67678 8.73744 8.67678 8.26256 8.96967 7.96967L10.1893 6.75H7C5.75736 6.75 4.75 7.75736 4.75 9V13.5C4.75 13.9142 4.41421 14.25 4 14.25C3.58579 14.25 3.25 13.9142 3.25 13.5V9C3.25 6.92893 4.92893 5.25 7 5.25H10.1893L8.96967 4.03033C8.67678 3.73744 8.67678 3.26256 8.96967 2.96967ZM13 11.25C12.0335 11.25 11.25 12.0335 11.25 13V19C11.25 19.9665 12.0335 20.75 13 20.75H19C19.9665 20.75 20.75 19.9665 20.75 19V13C20.75 12.0335 19.9665 11.25 19 11.25H13ZM12.75 13C12.75 12.8619 12.8619 12.75 13 12.75H19C19.1381 12.75 19.25 12.8619 19.25 13V19C19.25 19.1381 19.1381 19.25 19 19.25H13C12.8619 19.25 12.75 19.1381 12.75 19V13Z" fill="#23262A"/>
</svg>
