<svg width="24" height="24" viewBox="0 0 24 24" fill="none" xmlns="http://www.w3.org/2000/svg">
<path fill-rule="evenodd" clip-rule="evenodd" d="M3.25 9C3.25 6.92893 4.92893 5.25 7 5.25L11.5 5.25C11.9142 5.25 12.25 5.58579 12.25 6C12.25 6.41421 11.9142 6.75 11.5 6.75L7 6.75C5.75736 6.75 4.75 7.75736 4.75 9V13.5C4.75 13.9142 4.41421 14.25 4 14.25C3.58579 14.25 3.25 13.9142 3.25 13.5V9Z" fill="#262626"/>
<path fill-rule="evenodd" clip-rule="evenodd" d="M8.96967 2.96967C8.67678 3.26256 8.67678 3.73744 8.96967 4.03033L10.9393 6L8.96967 7.96967C8.67678 8.26256 8.67678 8.73744 8.96967 9.03033C9.26256 9.32322 9.73744 9.32322 10.0303 9.03033L12.5303 6.53033C12.8232 6.23744 12.8232 5.76256 12.5303 5.46967L10.0303 2.96967C9.73744 2.67678 9.26256 2.67678 8.96967 2.96967Z" fill="#262626"/>
<path fill-rule="evenodd" clip-rule="evenodd" d="M11.25 13C11.25 12.0335 12.0335 11.25 13 11.25L19 11.25C19.9665 11.25 20.75 12.0335 20.75 13L20.75 19C20.75 19.9665 19.9665 20.75 19 20.75L13 20.75C12.0335 20.75 11.25 19.9665 11.25 19L11.25 13Z" fill="#262626"/>
</svg>
