<svg width="24" height="24" viewBox="0 0 24 24" fill="none" xmlns="http://www.w3.org/2000/svg">
<path fill-rule="evenodd" clip-rule="evenodd" d="M10.4697 6.53033C10.1768 6.23744 10.1768 5.76257 10.4697 5.46967L12.9697 2.96967C13.2626 2.67678 13.7374 2.67678 14.0303 2.96967C14.3232 3.26256 14.3232 3.73744 14.0303 4.03033L12.8107 5.25L17 5.25C19.0711 5.25 20.75 6.92893 20.75 9L20.75 13.5C20.75 13.9142 20.4142 14.25 20 14.25C19.5858 14.25 19.25 13.9142 19.25 13.5L19.25 9C19.25 7.75736 18.2426 6.75 17 6.75L12.8107 6.75L14.0303 7.96967C14.3232 8.26256 14.3232 8.73744 14.0303 9.03033C13.7374 9.32322 13.2626 9.32323 12.9697 9.03033L10.4697 6.53033ZM3.25 13C3.25 12.0335 4.0335 11.25 5 11.25L11 11.25C11.9665 11.25 12.75 12.0335 12.75 13L12.75 19C12.75 19.9665 11.9665 20.75 11 20.75L5 20.75C4.0335 20.75 3.25 19.9665 3.25 19L3.25 13ZM5 12.75C4.86193 12.75 4.75 12.8619 4.75 13L4.75 19C4.75 19.1381 4.86193 19.25 5 19.25L11 19.25C11.1381 19.25 11.25 19.1381 11.25 19L11.25 13C11.25 12.8619 11.1381 12.75 11 12.75L5 12.75Z" fill="#262626"/>
</svg>
