<svg width="24" height="24" viewBox="0 0 24 24" fill="none" xmlns="http://www.w3.org/2000/svg">
<path fill-rule="evenodd" clip-rule="evenodd" d="M6.16477 6.16816C7.65869 4.67333 9.7209 3.75 12.0002 3.75C14.2795 3.75 16.3417 4.67333 17.8356 6.16816C18.1284 6.46114 18.6033 6.46129 18.8963 6.16848C19.1893 5.87568 19.1894 5.40081 18.8966 5.10782C17.1329 3.343 14.6935 2.25 12.0002 2.25C9.30693 2.25 6.86753 3.343 5.10379 5.10782C4.81098 5.40081 4.81113 5.87568 5.10411 6.16848C5.39709 6.46129 5.87197 6.46114 6.16477 6.16816ZM11.9998 7.75C10.8254 7.75 9.76345 8.22537 8.99343 8.99601C8.70066 9.28902 8.22578 9.28921 7.93277 8.99643C7.63976 8.70365 7.63957 8.22878 7.93235 7.93577C8.9722 6.89509 10.4114 6.25 11.9998 6.25C13.5883 6.25 15.0275 6.89509 16.0673 7.93577C16.3601 8.22878 16.3599 8.70365 16.0669 8.99643C15.7739 9.28921 15.299 9.28902 15.0063 8.99601C14.2362 8.22537 13.1743 7.75 11.9998 7.75ZM14.25 12C14.25 12.9797 13.6239 13.8131 12.75 14.122V19.25H16C16.4142 19.25 16.75 19.5858 16.75 20C16.75 20.4142 16.4142 20.75 16 20.75H8C7.58579 20.75 7.25 20.4142 7.25 20C7.25 19.5858 7.58579 19.25 8 19.25H11.25V14.122C10.3761 13.8131 9.75 12.9797 9.75 12C9.75 10.7574 10.7574 9.75 12 9.75C13.2426 9.75 14.25 10.7574 14.25 12ZM12 11.25C11.5858 11.25 11.25 11.5858 11.25 12C11.25 12.4142 11.5858 12.75 12 12.75C12.4142 12.75 12.75 12.4142 12.75 12C12.75 11.5858 12.4142 11.25 12 11.25Z" fill="#23262A"/>
</svg>
