<svg width="24" height="24" viewBox="0 0 24 24" fill="none" xmlns="http://www.w3.org/2000/svg">
<path fill-rule="evenodd" clip-rule="evenodd" d="M8.39243 3.46967C8.09954 3.17678 7.62466 3.17678 7.33177 3.46967L4.24996 6.55148C3.52614 7.2753 3.52614 8.44884 4.24995 9.17265L14.8274 19.7501C15.5512 20.4739 16.7247 20.4739 17.4485 19.7501L20.5304 16.6683C20.8233 16.3754 20.8233 15.9005 20.5304 15.6076L8.39243 3.46967ZM5.31062 7.61214L7.8621 5.06066L10.1123 7.31091C10.105 7.31768 10.0978 7.32462 10.0907 7.33173L8.98725 8.43518C8.69436 8.72807 8.69436 9.20295 8.98725 9.49584C9.28014 9.78873 9.75501 9.78873 10.0479 9.49584L11.1514 8.39239C11.1585 8.38528 11.1654 8.37806 11.1722 8.37074L12.8708 10.0693C12.8634 10.0761 12.8562 10.0831 12.849 10.0903L11.7455 11.1937C11.4527 11.4866 11.4527 11.9615 11.7455 12.2544C12.0384 12.5473 12.5133 12.5473 12.8062 12.2544L13.9097 11.1509C13.9168 11.1438 13.9238 11.1365 13.9306 11.1292L15.6293 12.8279C15.6219 12.8348 15.6145 12.8418 15.6073 12.8491L14.5038 13.9525C14.211 14.2454 14.211 14.7203 14.5038 15.0132C14.7967 15.3061 15.2716 15.3061 15.5645 15.0132L16.668 13.9097C16.6752 13.9025 16.6823 13.8951 16.6891 13.8877L18.9394 16.1379L16.3879 18.6894C16.2499 18.8274 16.0261 18.8274 15.888 18.6894L5.31061 8.11199C5.17259 7.97396 5.17258 7.75017 5.31062 7.61214Z" fill="#23262A"/>
</svg>
