<svg width="24" height="24" viewBox="0 0 24 24" fill="none" xmlns="http://www.w3.org/2000/svg">
<path fill-rule="evenodd" clip-rule="evenodd" d="M7.81018 3.70563C7.92811 3.4293 8.19956 3.25 8.5 3.25H20C20.4142 3.25 20.75 3.58579 20.75 4V16C20.75 16.3063 20.5638 16.5817 20.2796 16.6959C19.9955 16.8101 19.6704 16.74 19.4585 16.5189L7.95851 4.51893C7.75063 4.30201 7.69226 3.98197 7.81018 3.70563ZM10.2575 4.75L19.25 14.1334V4.75H10.2575ZM7.03033 5.96967C6.73744 5.67678 6.26256 5.67678 5.96967 5.96967L3.17678 8.76256C2.49336 9.44598 2.49336 10.554 3.17678 11.2374L12.7626 20.8232C13.446 21.5066 14.554 21.5066 15.2374 20.8232L18.0303 18.0303C18.3232 17.7374 18.3232 17.2626 18.0303 16.9697L7.03033 5.96967ZM4.23744 9.82322L6.5 7.56066L8.43934 9.5L7.46967 10.4697C7.17678 10.7626 7.17678 11.2374 7.46967 11.5303C7.76256 11.8232 8.23744 11.8232 8.53033 11.5303L9.5 10.5607L10.9393 12L9.96967 12.9697C9.67678 13.2626 9.67678 13.7374 9.96967 14.0303C10.2626 14.3232 10.7374 14.3232 11.0303 14.0303L12 13.0607L13.4393 14.5L12.4697 15.4697C12.1768 15.7626 12.1768 16.2374 12.4697 16.5303C12.7626 16.8232 13.2374 16.8232 13.5303 16.5303L14.5 15.5607L16.4393 17.5L14.1768 19.7626C14.0791 19.8602 13.9209 19.8602 13.8232 19.7626L4.23744 10.1768C4.13981 10.0791 4.13981 9.92085 4.23744 9.82322ZM16 6.5C15.6967 6.5 15.4232 6.68273 15.3071 6.96299C15.191 7.24324 15.2552 7.56583 15.4697 7.78033L16.2197 8.53033C16.4342 8.74483 16.7568 8.809 17.037 8.69291C17.3173 8.57682 17.5 8.30335 17.5 8V7.25C17.5 6.83579 17.1642 6.5 16.75 6.5H16Z" fill="#23262A"/>
</svg>
