<svg width="24" height="24" viewBox="0 0 24 24" fill="none" xmlns="http://www.w3.org/2000/svg">
<path fill-rule="evenodd" clip-rule="evenodd" d="M7.8102 3.70563C7.92812 3.4293 8.19957 3.25 8.50002 3.25H20C20.4142 3.25 20.75 3.58579 20.75 4V16C20.75 16.3063 20.5638 16.5817 20.2796 16.6959C19.9955 16.8101 19.6704 16.74 19.4585 16.5189L7.95853 4.51893C7.75065 4.30201 7.69228 3.98197 7.8102 3.70563ZM15.3071 6.96299C15.4232 6.68273 15.6967 6.5 16 6.5H16.75C17.1642 6.5 17.5 6.83579 17.5 7.25V8C17.5 8.30335 17.3173 8.57682 17.037 8.69291C16.7568 8.809 16.4342 8.74483 16.2197 8.53033L15.4697 7.78033C15.2552 7.56583 15.191 7.24324 15.3071 6.96299ZM5.96952 5.96967C6.26241 5.67678 6.73729 5.67678 7.03018 5.96967L18.0302 16.9697C18.3231 17.2626 18.3231 17.7374 18.0302 18.0303L15.2373 20.8232C14.5539 21.5066 13.4458 21.5066 12.7624 20.8232L3.17663 11.2374C2.49321 10.554 2.49321 9.44598 3.17663 8.76256L5.96952 5.96967ZM8.61604 9.67678C8.51841 9.57915 8.36012 9.57915 8.26249 9.67678L7.46967 10.4696C7.17678 10.7625 7.17678 11.2374 7.46967 11.5303C7.76256 11.8231 8.23744 11.8231 8.53033 11.5303L9.32315 10.7374C9.42078 10.6398 9.42078 10.4815 9.32315 10.3839L8.61604 9.67678ZM11.116 12.1768C11.0184 12.0791 10.8601 12.0791 10.7625 12.1768L9.96967 12.9696C9.67678 13.2625 9.67678 13.7374 9.96967 14.0303C10.2626 14.3231 10.7374 14.3231 11.0303 14.0303L11.8231 13.2374C11.9208 13.1398 11.9208 12.9815 11.8231 12.8839L11.116 12.1768ZM13.616 14.6768C13.5184 14.5791 13.3601 14.5791 13.2625 14.6768L12.4697 15.4696C12.1768 15.7625 12.1768 16.2374 12.4697 16.5303C12.7626 16.8231 13.2374 16.8231 13.5303 16.5303L14.3231 15.7374C14.4208 15.6398 14.4208 15.4815 14.3231 15.3839L13.616 14.6768Z" fill="#23262A"/>
</svg>
