<svg width="24" height="24" viewBox="0 0 24 24" fill="none" xmlns="http://www.w3.org/2000/svg">
<path fill-rule="evenodd" clip-rule="evenodd" d="M7.81017 3.70563C7.92809 3.4293 8.19954 3.25 8.49999 3.25H20C20.4142 3.25 20.75 3.58579 20.75 4V16C20.75 16.3063 20.5638 16.5817 20.2796 16.6959C19.9954 16.8101 19.6704 16.74 19.4585 16.5189L7.9585 4.51893C7.75062 4.30201 7.69225 3.98197 7.81017 3.70563ZM10.2575 4.75L19.25 14.1334V4.75H10.2575ZM15.3071 6.96299C15.4232 6.68273 15.6966 6.5 16 6.5H16.75C17.1642 6.5 17.5 6.83579 17.5 7.25V8C17.5 8.30335 17.3173 8.57682 17.037 8.69291C16.7567 8.809 16.4342 8.74483 16.2197 8.53033L15.4697 7.78033C15.2552 7.56583 15.191 7.24324 15.3071 6.96299ZM5.96967 5.96967C6.26256 5.67678 6.73744 5.67678 7.03033 5.96967L18.0303 16.9697C18.3232 17.2626 18.3232 17.7374 18.0303 18.0303L15.2374 20.8232C14.554 21.5066 13.446 21.5066 12.7626 20.8232L3.17678 11.2374C2.49336 10.554 2.49336 9.44598 3.17678 8.76256L5.96967 5.96967ZM6.5 7.56066L4.23744 9.82322C4.13981 9.92085 4.13981 10.0791 4.23744 10.1768L13.8232 19.7626C13.9209 19.8602 14.0791 19.8602 14.1768 19.7626L16.4393 17.5L14.5 15.5607L13.5303 16.5303C13.2374 16.8232 12.7626 16.8232 12.4697 16.5303C12.1768 16.2374 12.1768 15.7626 12.4697 15.4697L13.4393 14.5L12 13.0607L11.0303 14.0303C10.7374 14.3232 10.2626 14.3232 9.96967 14.0303C9.67678 13.7374 9.67678 13.2626 9.96967 12.9697L10.9393 12L9.5 10.5607L8.53033 11.5303C8.23744 11.8232 7.76256 11.8232 7.46967 11.5303C7.17678 11.2374 7.17678 10.7626 7.46967 10.4697L8.43934 9.5L6.5 7.56066Z" fill="#23262A"/>
</svg>
