<svg width="24" height="24" viewBox="0 0 24 24" fill="none" xmlns="http://www.w3.org/2000/svg">
<path fill-rule="evenodd" clip-rule="evenodd" d="M8.39237 3.46967C8.09947 3.17678 7.6246 3.17678 7.33171 3.46967L4.24989 6.55148C3.52608 7.2753 3.52608 8.44884 4.24989 9.17265L14.8273 19.7501C15.5511 20.4739 16.7247 20.4739 17.4485 19.7501L20.5303 16.6683C20.8232 16.3754 20.8232 15.9005 20.5303 15.6076L8.39237 3.46967ZM10.0907 7.33182C10.1025 7.31998 10.1217 7.3204 10.1335 7.33225L11.1509 8.34965C11.1628 8.3615 11.1632 8.38064 11.1514 8.39248L10.0479 9.49593C9.75501 9.78883 9.28014 9.78883 8.98725 9.49593C8.69436 9.20304 8.69436 8.72817 8.98725 8.43527L10.0907 7.33182ZM12.849 10.0904C12.8609 10.0785 12.8802 10.0789 12.8921 10.0908L13.9092 11.1079C13.9211 11.1199 13.9216 11.1391 13.9097 11.151L12.8062 12.2545C12.5133 12.5474 12.0384 12.5474 11.7455 12.2545C11.4527 11.9616 11.4527 11.4867 11.7455 11.1938L12.849 10.0904ZM15.6073 12.8492C15.6194 12.8371 15.6388 12.8375 15.6509 12.8496L16.6675 13.8662C16.6796 13.8783 16.68 13.8978 16.668 13.9098L15.5645 15.0133C15.2716 15.3062 14.7967 15.3062 14.5038 15.0133C14.211 14.7204 14.211 14.2455 14.5038 13.9526L15.6073 12.8492Z" fill="#23262A"/>
</svg>
