<svg width="24" height="24" viewBox="0 0 24 24" fill="none" xmlns="http://www.w3.org/2000/svg">
<path fill-rule="evenodd" clip-rule="evenodd" d="M15.2636 4.25391C15.3982 4.30056 15.5468 4.23067 15.5919 4.09549L15.6664 3.87186C16.0946 2.58714 14.9765 1.35741 13.6864 1.56134C13.0138 1.66768 12.3623 1.74994 11.9998 1.74994C11.6373 1.74994 10.9859 1.66768 10.3132 1.56134C9.02312 1.35741 7.90497 2.58714 8.33321 3.87186L8.40782 4.09567C8.45288 4.23085 8.6015 4.30075 8.73614 4.25408C9.71696 3.91412 10.8085 3.75 12.0001 3.75C13.1915 3.75 14.2829 3.91406 15.2636 4.25391ZM12 5.25C10.261 5.25 8.88379 5.64344 7.81654 6.3791C6.74891 7.11501 6.05887 8.1469 5.61268 9.30457C4.79574 11.4242 4.75232 14.1048 4.75011 16.5087C4.62251 16.5736 4.47928 16.6541 4.33397 16.751C3.91368 17.0312 3.25 17.6019 3.25 18.5C3.25 19.2691 3.63792 19.8236 3.96967 20.1553C4.13758 20.3232 4.30348 20.4475 4.42772 20.5303C4.49048 20.5721 4.54435 20.6046 4.58493 20.6277C4.60527 20.6394 4.62241 20.6488 4.63583 20.6559C4.74857 20.7151 4.87208 20.75 5 20.75H19C19.1164 20.75 19.2313 20.7229 19.3354 20.6708L19.3365 20.6703C19.3631 20.6569 19.3892 20.6425 19.4151 20.6277C19.4557 20.6046 19.5095 20.5721 19.5723 20.5303C19.6965 20.4475 19.8624 20.3232 20.0303 20.1553C20.3621 19.8236 20.75 19.2691 20.75 18.5C20.75 17.6019 20.0863 17.0312 19.666 16.751C19.5207 16.6541 19.3775 16.5736 19.2499 16.5087C19.2477 14.1048 19.2043 11.4242 18.3873 9.30457C17.9411 8.1469 17.2511 7.11501 16.1835 6.3791C15.1162 5.64344 13.739 5.25 12 5.25ZM11.4064 11.9555C11.655 11.6241 11.5878 11.154 11.2564 10.9055C10.9251 10.657 10.455 10.7241 10.2064 11.0555L9.03018 12.6238V11.5055C9.03018 11.0913 8.6944 10.7555 8.28018 10.7555C7.86597 10.7555 7.53018 11.0913 7.53018 11.5055V16.558C7.53018 16.9722 7.86597 17.308 8.28018 17.308C8.6944 17.308 9.03018 16.9722 9.03018 16.558V15.4397L10.2064 17.008C10.455 17.3394 10.9251 17.4065 11.2564 17.158C11.5878 16.9095 11.655 16.4394 11.4064 16.108L9.84924 14.0318L11.4064 11.9555ZM12.1278 11.5055C12.1278 11.0913 12.4636 10.7555 12.8778 10.7555H14.4567C15.5685 10.7555 16.4698 11.6568 16.4698 12.7686C16.4698 13.4906 16.0898 14.1237 15.5189 14.479L16.3906 16.2226C16.5759 16.5931 16.4257 17.0436 16.0552 17.2288C15.6848 17.4141 15.2342 17.2639 15.049 16.8934L13.9932 14.7818H13.6278V16.558C13.6278 16.9722 13.292 17.308 12.8778 17.308C12.4636 17.308 12.1278 16.9722 12.1278 16.558V11.5055ZM14.467 13.2817C14.4579 13.2815 14.4488 13.2816 14.4397 13.2818H13.6278V12.2555H14.4567C14.7401 12.2555 14.9698 12.4852 14.9698 12.7686C14.9698 13.0486 14.7456 13.2762 14.467 13.2817Z" fill="#23262A"/>
</svg>
