<svg width="24" height="24" viewBox="0 0 24 24" fill="none" xmlns="http://www.w3.org/2000/svg">
<path fill-rule="evenodd" clip-rule="evenodd" d="M15.2636 4.25391C15.3982 4.30056 15.5468 4.23067 15.5919 4.09549L15.6664 3.87186C16.0946 2.58714 14.9765 1.35741 13.6864 1.56134C13.0138 1.66768 12.3623 1.74994 11.9998 1.74994C11.6373 1.74994 10.9859 1.66768 10.3132 1.56134C9.02312 1.35741 7.90497 2.58714 8.33321 3.87186L8.40782 4.09567C8.45288 4.23085 8.6015 4.30075 8.73614 4.25408C9.71696 3.91412 10.8085 3.75 12.0001 3.75C13.1915 3.75 14.2829 3.91406 15.2636 4.25391ZM12 5.25C10.261 5.25 8.88379 5.64344 7.81654 6.3791C6.74891 7.11501 6.05887 8.1469 5.61268 9.30457C4.79574 11.4242 4.75232 14.1048 4.75011 16.5087C4.62251 16.5736 4.47928 16.6541 4.33397 16.751C3.91368 17.0312 3.25 17.6019 3.25 18.5C3.25 19.2691 3.63792 19.8236 3.96967 20.1553C4.13758 20.3232 4.30348 20.4475 4.42772 20.5303C4.49048 20.5721 4.54435 20.6046 4.58493 20.6277C4.60527 20.6394 4.62241 20.6488 4.63583 20.6559C4.74857 20.7151 4.87208 20.75 5 20.75H19C19.1164 20.75 19.2313 20.7229 19.3354 20.6708L19.3377 20.6697C19.3637 20.6561 19.3896 20.6423 19.4151 20.6277C19.4557 20.6046 19.5095 20.5721 19.5723 20.5303C19.6965 20.4475 19.8624 20.3232 20.0303 20.1553C20.3621 19.8236 20.75 19.2691 20.75 18.5C20.75 17.6019 20.0863 17.0312 19.666 16.751C19.5207 16.6541 19.3775 16.5736 19.2499 16.5087C19.2477 14.1048 19.2043 11.4242 18.3873 9.30457C17.9411 8.1469 17.2511 7.11501 16.1835 6.3791C15.1162 5.64344 13.739 5.25 12 5.25Z" fill="#23262A"/>
</svg>
