<svg width="24" height="24" viewBox="0 0 24 24" fill="none" xmlns="http://www.w3.org/2000/svg">
<path fill-rule="evenodd" clip-rule="evenodd" d="M15.2636 4.25391C15.3982 4.30056 15.5468 4.23067 15.5919 4.09549L15.6664 3.87186C16.0946 2.58714 14.9765 1.35741 13.6864 1.56134C13.0138 1.66768 12.3623 1.74994 11.9998 1.74994C11.6373 1.74994 10.9859 1.66768 10.3132 1.56134C9.02312 1.35741 7.90497 2.58714 8.33321 3.87186L8.40782 4.09567C8.45288 4.23085 8.6015 4.30075 8.73614 4.25408C9.71696 3.91412 10.8085 3.75 12.0001 3.75C13.1915 3.75 14.2829 3.91406 15.2636 4.25391ZM7.81654 6.3791C8.88379 5.64344 10.261 5.25 12 5.25C13.739 5.25 15.1162 5.64344 16.1835 6.3791C17.2511 7.11501 17.9411 8.1469 18.3873 9.30457C19.2043 11.4242 19.2477 14.1048 19.2499 16.5087C19.3775 16.5736 19.5207 16.6541 19.666 16.751C20.0863 17.0312 20.75 17.6019 20.75 18.5C20.75 19.2691 20.3621 19.8236 20.0303 20.1553C19.8624 20.3232 19.6965 20.4475 19.5723 20.5303C19.5095 20.5721 19.4557 20.6046 19.4151 20.6277C19.3892 20.6425 19.3631 20.6569 19.3365 20.6703L19.3354 20.6708C19.2313 20.7229 19.1164 20.75 19 20.75H5C4.87208 20.75 4.74857 20.7151 4.63583 20.6559C4.62241 20.6488 4.60527 20.6394 4.58493 20.6277C4.54435 20.6046 4.49048 20.5721 4.42772 20.5303C4.30348 20.4475 4.13758 20.3232 3.96967 20.1553C3.63792 19.8236 3.25 19.2691 3.25 18.5C3.25 17.6019 3.91368 17.0312 4.33397 16.751C4.47928 16.6541 4.62251 16.5736 4.75011 16.5087C4.75232 14.1048 4.79574 11.4242 5.61268 9.30457C6.05887 8.1469 6.74891 7.11501 7.81654 6.3791ZM10.25 10.5C10.25 10.0858 10.5858 9.75 11 9.75H12.5V10.5C12.5 9.75 12.5004 9.75 12.5008 9.75L12.5015 9.75L12.5032 9.75001L12.507 9.75003L12.5164 9.75014L12.5418 9.75078C12.5617 9.75144 12.5873 9.75265 12.6179 9.75484C12.6788 9.75919 12.761 9.76753 12.8577 9.78364C13.0474 9.81527 13.3119 9.87991 13.5854 10.0167C13.8619 10.1549 14.1612 10.374 14.3897 10.7168C14.6213 11.0642 14.75 11.4938 14.75 12C14.75 12.5062 14.6213 12.9358 14.3897 13.2832C14.1612 13.626 13.8619 13.8451 13.5854 13.9833C13.3119 14.1201 13.0474 14.1847 12.8577 14.2164C12.761 14.2325 12.6788 14.2408 12.6179 14.2452C12.5873 14.2474 12.5617 14.2486 12.5418 14.2492L12.5164 14.2499L12.507 14.25L12.5032 14.25L12.5015 14.25L12.5008 14.25C12.5004 14.25 12.5 14.25 12.5 13.5V14.25H11.75V16C11.75 16.4142 11.4142 16.75 11 16.75C10.5858 16.75 10.25 16.4142 10.25 16V10.5ZM11.75 12.75H12.4932C12.4962 12.7499 12.5023 12.7496 12.511 12.749C12.5321 12.7475 12.5671 12.7441 12.6111 12.7368C12.7026 12.7215 12.8131 12.6924 12.9146 12.6417C13.0131 12.5924 13.0888 12.5303 13.1416 12.4512C13.1912 12.3767 13.25 12.2438 13.25 12C13.25 11.7562 13.1912 11.6233 13.1416 11.5488C13.0888 11.4697 13.0131 11.4076 12.9146 11.3583C12.8131 11.3076 12.7026 11.2785 12.6111 11.2632C12.5671 11.2559 12.5321 11.2525 12.511 11.251C12.5023 11.2504 12.4962 11.2501 12.4932 11.25H11.75V12.75Z" fill="#23262A"/>
</svg>
