<svg width="24" height="24" viewBox="0 0 24 24" fill="none" xmlns="http://www.w3.org/2000/svg">
<path fill-rule="evenodd" clip-rule="evenodd" d="M10.0792 3.04301C9.85243 3.00716 9.69906 3.22547 9.75643 3.39758L10.415 5.3733C10.9062 5.29169 11.4339 5.25 12 5.25C12.5661 5.25 13.0938 5.29169 13.585 5.3733L14.2436 3.39758C14.3009 3.22547 14.1476 3.00716 13.9208 3.04301C13.2603 3.14742 12.4973 3.25 12 3.25C11.5027 3.25 10.7397 3.14742 10.0792 3.04301ZM8.3334 3.87192L8.96564 5.76864C8.54821 5.93428 8.16578 6.13837 7.81654 6.3791C6.74891 7.11501 6.05887 8.1469 5.61268 9.30457C4.79574 11.4242 4.75232 14.1048 4.75011 16.5087C4.62251 16.5736 4.47928 16.6541 4.33397 16.751C3.91368 17.0312 3.25 17.6019 3.25 18.5C3.25 19.2691 3.63792 19.8236 3.96967 20.1553C4.13758 20.3232 4.30348 20.4475 4.42772 20.5303C4.49048 20.5721 4.54435 20.6046 4.58493 20.6277C4.60527 20.6394 4.62241 20.6488 4.63583 20.6559L4.65315 20.665L4.65963 20.6683L4.6623 20.6697L4.66349 20.6703L4.66405 20.6706C4.66432 20.6707 4.66459 20.6708 5 20L4.66459 20.6708C4.76873 20.7229 4.88357 20.75 5 20.75H19C19.1164 20.75 19.2313 20.7229 19.3354 20.6708L19 20C19.3354 20.6708 19.3357 20.6707 19.3359 20.6706L19.3365 20.6703L19.3377 20.6697L19.3404 20.6683L19.3469 20.665L19.3642 20.6559C19.3776 20.6488 19.3947 20.6394 19.4151 20.6277C19.4557 20.6046 19.5095 20.5721 19.5723 20.5303C19.6965 20.4475 19.8624 20.3232 20.0303 20.1553C20.3621 19.8236 20.75 19.2691 20.75 18.5C20.75 17.6019 20.0863 17.0312 19.666 16.751C19.5207 16.6541 19.3775 16.5736 19.2499 16.5087C19.2477 14.1048 19.2043 11.4242 18.3873 9.30457C17.9411 8.1469 17.2511 7.11501 16.1835 6.3791C15.8342 6.13837 15.4518 5.93428 15.0344 5.76864L15.6666 3.87192C16.0948 2.5872 14.9767 1.35747 13.6866 1.5614C13.014 1.66774 12.3625 1.75 12 1.75C11.6375 1.75 10.986 1.66774 10.3134 1.5614C9.02331 1.35747 7.90516 2.5872 8.3334 3.87192ZM18.7866 19.25C18.8418 19.2101 18.9063 19.158 18.9697 19.0947C19.1379 18.9264 19.25 18.7309 19.25 18.5C19.25 18.3982 19.1637 18.2188 18.834 17.999C18.6919 17.9044 18.5446 17.8301 18.4298 17.7791C18.3734 17.7541 18.3275 17.7358 18.2975 17.7243C18.2825 17.7186 18.2716 17.7147 18.2656 17.7125L18.2624 17.7114L18.2621 17.7113L18.2614 17.711L18.2604 17.7107C17.9555 17.6079 17.75 17.322 17.75 17C17.75 14.3891 17.7396 11.795 16.9877 9.84402C16.6214 8.89359 16.0927 8.13833 15.3322 7.61412C14.5713 7.08966 13.511 6.75 12 6.75C10.489 6.75 9.42871 7.08966 8.66784 7.61412C7.90734 8.13833 7.37863 8.89359 7.01232 9.84402C6.26038 11.795 6.25 14.3891 6.25 17C6.25 17.322 6.04452 17.6079 5.7396 17.7107L5.73858 17.711L5.73794 17.7113L5.73772 17.7113L5.73441 17.7125C5.72837 17.7147 5.71751 17.7186 5.70254 17.7243C5.67248 17.7358 5.62657 17.7541 5.57023 17.7791C5.45542 17.8301 5.30805 17.9044 5.16603 17.999C4.83632 18.2188 4.75 18.3982 4.75 18.5C4.75 18.7309 4.86208 18.9264 5.03033 19.0947C5.09365 19.158 5.15816 19.2101 5.21339 19.25H18.7866ZM11.2564 10.9055C11.5878 11.154 11.655 11.6241 11.4064 11.9555L9.84924 14.0318L11.4064 16.108C11.655 16.4394 11.5878 16.9095 11.2564 17.158C10.9251 17.4065 10.455 17.3394 10.2064 17.008L9.03018 15.4397V16.558C9.03018 16.9722 8.6944 17.308 8.28018 17.308C7.86597 17.308 7.53018 16.9722 7.53018 16.558V11.5055C7.53018 11.0913 7.86597 10.7555 8.28018 10.7555C8.6944 10.7555 9.03018 11.0913 9.03018 11.5055V12.6238L10.2064 11.0555C10.455 10.7241 10.9251 10.657 11.2564 10.9055ZM12.8778 10.7555C12.4636 10.7555 12.1278 11.0913 12.1278 11.5055V16.558C12.1278 16.9722 12.4636 17.308 12.8778 17.308C13.292 17.308 13.6278 16.9722 13.6278 16.558V14.7818H13.9932L15.049 16.8934C15.2342 17.2639 15.6848 17.4141 16.0552 17.2288C16.4257 17.0436 16.5759 16.5931 16.3906 16.2226L15.5189 14.479C16.0898 14.1238 16.4698 13.4906 16.4698 12.7686C16.4698 11.6568 15.5685 10.7555 14.4567 10.7555H12.8778ZM14.4397 13.2818C14.4488 13.2816 14.4579 13.2815 14.467 13.2817C14.7456 13.2762 14.9698 13.0486 14.9698 12.7686C14.9698 12.4852 14.7401 12.2555 14.4567 12.2555H13.6278V13.2818H14.4397Z" fill="#23262A"/>
</svg>
