<svg width="24" height="24" viewBox="0 0 24 24" fill="none" xmlns="http://www.w3.org/2000/svg">
<path fill-rule="evenodd" clip-rule="evenodd" d="M8.3334 3.87192L8.96564 5.76864C8.54821 5.93428 8.16578 6.13837 7.81654 6.3791C6.74891 7.11501 6.05887 8.1469 5.61268 9.30457C4.79574 11.4242 4.75232 14.1048 4.75011 16.5087C4.62251 16.5736 4.47928 16.6541 4.33397 16.751C3.91368 17.0312 3.25 17.6019 3.25 18.5C3.25 19.2691 3.63792 19.8236 3.96967 20.1553C4.13758 20.3232 4.30348 20.4475 4.42772 20.5303C4.49048 20.5721 4.54435 20.6046 4.58493 20.6277C4.60527 20.6394 4.62241 20.6488 4.63583 20.6559L4.65315 20.665L4.65963 20.6683L4.6623 20.6697L4.66459 20.6708C4.76873 20.7229 4.88357 20.75 5 20.75H19C19.1164 20.75 19.2313 20.7229 19.3354 20.6708L19 20C19.3354 20.6708 19.3365 20.6703 19.3365 20.6703L19.3377 20.6697L19.3404 20.6683L19.3469 20.665L19.3642 20.6559C19.3776 20.6488 19.3947 20.6394 19.4151 20.6277C19.4557 20.6046 19.5095 20.5721 19.5723 20.5303C19.6965 20.4475 19.8624 20.3232 20.0303 20.1553C20.3621 19.8236 20.75 19.2691 20.75 18.5C20.75 17.6019 20.0863 17.0312 19.666 16.751C19.5207 16.6541 19.3775 16.5736 19.2499 16.5087C19.2477 14.1048 19.2043 11.4242 18.3873 9.30457C17.9411 8.1469 17.2511 7.11501 16.1835 6.3791C15.8342 6.13837 15.4518 5.93428 15.0344 5.76863L15.6666 3.87192C16.0948 2.5872 14.9767 1.35747 13.6866 1.5614C13.014 1.66774 12.3625 1.75 12 1.75C11.6375 1.75 10.986 1.66774 10.3134 1.5614C9.02331 1.35747 7.90516 2.5872 8.3334 3.87192ZM10.0792 3.04301C9.85243 3.00716 9.69906 3.22547 9.75643 3.39758L10.415 5.3733C10.9062 5.29169 11.4339 5.25 12 5.25C12.5661 5.25 13.0938 5.29169 13.585 5.3733L14.2436 3.39758C14.3009 3.22547 14.1476 3.00716 13.9208 3.04301C13.2603 3.14742 12.4973 3.25 12 3.25C11.5027 3.25 10.7397 3.14742 10.0792 3.04301ZM18.7866 19.25C18.8418 19.2101 18.9063 19.158 18.9697 19.0947C19.1379 18.9264 19.25 18.7309 19.25 18.5C19.25 18.3981 19.1637 18.2188 18.834 17.999C18.6919 17.9044 18.5446 17.8301 18.4298 17.7791C18.3734 17.7541 18.3275 17.7358 18.2975 17.7243C18.2825 17.7186 18.2716 17.7147 18.2656 17.7125L18.2624 17.7114L18.2604 17.7107C17.9555 17.6079 17.75 17.322 17.75 17C17.75 14.3891 17.7396 11.795 16.9877 9.84402C16.6214 8.89359 16.0927 8.13833 15.3322 7.61412C14.5713 7.08966 13.511 6.75 12 6.75C10.489 6.75 9.42871 7.08966 8.66784 7.61412C7.90734 8.13833 7.37863 8.89359 7.01232 9.84402C6.26038 11.795 6.25 14.3891 6.25 17C6.25 17.322 6.04452 17.6079 5.7396 17.7107L5.73772 17.7113L5.73441 17.7125L5.71299 17.7204L5.70254 17.7243C5.67248 17.7358 5.62657 17.7541 5.57023 17.7791C5.45542 17.8301 5.30805 17.9044 5.16603 17.999C4.83632 18.2188 4.75 18.3981 4.75 18.5C4.75 18.7309 4.86208 18.9264 5.03033 19.0947C5.09365 19.158 5.15816 19.2101 5.21339 19.25H18.7866ZM11 9.75C10.5858 9.75 10.25 10.0858 10.25 10.5V16C10.25 16.4142 10.5858 16.75 11 16.75C11.4142 16.75 11.75 16.4142 11.75 16V14.25H12.5V13.5C12.5 14.25 12.5004 14.25 12.5008 14.25L12.5015 14.25L12.5032 14.25L12.507 14.25L12.5164 14.2499L12.5418 14.2492C12.5617 14.2486 12.5873 14.2474 12.6179 14.2452C12.6788 14.2408 12.761 14.2325 12.8577 14.2164C13.0474 14.1847 13.3119 14.1201 13.5854 13.9833C13.8619 13.8451 14.1612 13.626 14.3897 13.2832C14.6213 12.9358 14.75 12.5062 14.75 12C14.75 11.4938 14.6213 11.0642 14.3897 10.7168C14.1612 10.374 13.8619 10.1549 13.5854 10.0167C13.3119 9.87991 13.0474 9.81527 12.8577 9.78364C12.761 9.76753 12.6788 9.75919 12.6179 9.75484C12.5873 9.75265 12.5617 9.75144 12.5418 9.75078L12.5164 9.75014L12.507 9.75003L12.5032 9.75001L12.5015 9.75L12.5008 9.75C12.5004 9.75 12.5 9.75 12.5 10.5V9.75H11ZM12.4932 12.75H11.75V11.25H12.4932C12.4962 11.2501 12.5023 11.2504 12.511 11.251C12.5321 11.2525 12.5671 11.2559 12.6111 11.2632C12.7026 11.2785 12.8131 11.3076 12.9146 11.3583C13.0131 11.4076 13.0888 11.4697 13.1416 11.5488C13.1912 11.6233 13.25 11.7562 13.25 12C13.25 12.2438 13.1912 12.3767 13.1416 12.4512C13.0888 12.5303 13.0131 12.5924 12.9146 12.6417C12.8131 12.6924 12.7026 12.7215 12.6111 12.7368C12.5671 12.7441 12.5321 12.7475 12.511 12.749C12.5023 12.7496 12.4962 12.7499 12.4932 12.75Z" fill="#23262A"/>
</svg>
