<svg width="24" height="24" viewBox="0 0 24 24" fill="none" xmlns="http://www.w3.org/2000/svg">
<path fill-rule="evenodd" clip-rule="evenodd" d="M8.96564 5.76864L8.3334 3.87192C7.90516 2.5872 9.02331 1.35747 10.3134 1.5614C10.986 1.66774 11.6375 1.75 12 1.75C12.3625 1.75 13.014 1.66774 13.6866 1.5614C14.9767 1.35747 16.0948 2.5872 15.6666 3.87192L15.0344 5.76863C15.4518 5.93428 15.8342 6.13837 16.1835 6.3791C17.2511 7.11501 17.9411 8.1469 18.3873 9.30457C19.2043 11.4242 19.2477 14.1048 19.2499 16.5087C19.3775 16.5736 19.5207 16.6541 19.666 16.751C20.0863 17.0312 20.75 17.6019 20.75 18.5C20.75 19.2691 20.3621 19.8236 20.0303 20.1553C19.8624 20.3232 19.6965 20.4475 19.5723 20.5303C19.5095 20.5721 19.4557 20.6046 19.4151 20.6277C19.3947 20.6394 19.3776 20.6488 19.3642 20.6559L19.3469 20.665L19.3404 20.6683L19.3377 20.6697L19.3365 20.6703C19.3365 20.6703 19.3354 20.6708 19 20L19.3354 20.6708C19.2313 20.7229 19.1164 20.75 19 20.75H5C4.88357 20.75 4.76873 20.7229 4.66459 20.6708L4.6623 20.6697L4.65963 20.6683L4.65315 20.665L4.63583 20.6559C4.62241 20.6488 4.60527 20.6394 4.58493 20.6277C4.54435 20.6046 4.49048 20.5721 4.42772 20.5303C4.30348 20.4475 4.13758 20.3232 3.96967 20.1553C3.63792 19.8236 3.25 19.2691 3.25 18.5C3.25 17.6019 3.91368 17.0312 4.33397 16.751C4.47928 16.6541 4.62251 16.5736 4.75011 16.5087C4.75232 14.1048 4.79574 11.4242 5.61268 9.30457C6.05887 8.1469 6.74891 7.11501 7.81654 6.3791C8.16578 6.13837 8.54821 5.93428 8.96564 5.76864ZM9.75643 3.39758C9.69906 3.22547 9.85243 3.00716 10.0792 3.04301C10.7397 3.14742 11.5027 3.25 12 3.25C12.4973 3.25 13.2603 3.14742 13.9208 3.04301C14.1476 3.00716 14.3009 3.22547 14.2436 3.39758L13.585 5.3733C13.0938 5.29169 12.5661 5.25 12 5.25C11.4339 5.25 10.9062 5.29169 10.415 5.3733L9.75643 3.39758ZM18.9697 19.0947C18.9063 19.158 18.8418 19.2101 18.7866 19.25H5.21339C5.15816 19.2101 5.09365 19.158 5.03033 19.0947C4.86208 18.9264 4.75 18.7309 4.75 18.5C4.75 18.3981 4.83632 18.2188 5.16603 17.999C5.30805 17.9044 5.45542 17.8301 5.57023 17.7791C5.62657 17.7541 5.67248 17.7358 5.70254 17.7243C5.70629 17.7229 5.70977 17.7216 5.71299 17.7204C5.72264 17.7167 5.72988 17.7141 5.73441 17.7125L5.73772 17.7113L5.7396 17.7107C6.04452 17.6079 6.25 17.322 6.25 17C6.25 14.3891 6.26038 11.795 7.01232 9.84402C7.37863 8.89359 7.90734 8.13833 8.66784 7.61412C9.42871 7.08966 10.489 6.75 12 6.75C13.511 6.75 14.5713 7.08966 15.3322 7.61412C16.0927 8.13833 16.6214 8.89359 16.9877 9.84402C17.7396 11.795 17.75 14.3891 17.75 17C17.75 17.322 17.9555 17.6079 18.2604 17.7107L18.2624 17.7114L18.2656 17.7125C18.2716 17.7147 18.2825 17.7186 18.2975 17.7243C18.3275 17.7358 18.3734 17.7541 18.4298 17.7791C18.5446 17.8301 18.6919 17.9044 18.834 17.999C19.1637 18.2188 19.25 18.3981 19.25 18.5C19.25 18.7309 19.1379 18.9264 18.9697 19.0947Z" fill="#23262A"/>
</svg>
