<svg width="24" height="24" viewBox="0 0 24 24" fill="none" xmlns="http://www.w3.org/2000/svg">
<path fill-rule="evenodd" clip-rule="evenodd" d="M12.3753 2.35048C12.1432 2.21651 11.8573 2.21651 11.6253 2.35048L7.7423 4.59232C7.74043 4.59335 7.73855 4.59439 7.73668 4.59543C7.72858 4.59995 7.72056 4.60463 7.71262 4.60946L3.85047 6.83927C3.7316 6.90301 3.62845 6.9996 3.55605 7.125C3.48244 7.25251 3.45051 7.39264 3.45606 7.52962V16.5C3.45606 16.7679 3.59901 17.0155 3.83106 17.1495L7.71141 19.3898C7.72266 19.3967 7.7341 19.4033 7.74573 19.4097L11.6084 21.6397C11.7224 21.7097 11.8565 21.75 12 21.75C12.0201 21.75 12.0405 21.7492 12.0605 21.7476C12.1653 21.7392 12.2688 21.7087 12.3637 21.6561L12.3753 21.6495L20.1695 17.1495C20.4016 17.0155 20.5445 16.7679 20.5445 16.5V7.5C20.5445 7.23205 20.4016 6.98446 20.1695 6.85048L12.3753 2.35048ZM11.25 12.4331L4.95606 8.79932V11.5704C4.9755 11.5795 4.99472 11.5895 5.01367 11.6005L8.47789 13.6005C8.70995 13.7344 8.8529 13.982 8.8529 14.25V18.3168L11.25 19.7008V12.4331ZM12.75 12.4329L12.75 19.7011L15.147 18.3172V14.25C15.147 13.982 15.2899 13.7344 15.522 13.6005L18.9862 11.6005C19.0054 11.5894 19.0248 11.5793 19.0445 11.5701V8.79876L12.75 12.4329ZM18.2943 7.49986L15.8971 6.11587L12.3748 8.14952C12.1427 8.2835 11.8568 8.28349 11.6247 8.1495L8.10308 6.11608L5.70582 7.50014L11.9998 11.134L18.2943 7.49986ZM11.9998 6.63396L14.3971 5.24985L12.0003 3.86603L9.60304 5.25007L11.9998 6.63396ZM16.647 17.4512L19.0445 16.067V13.2989L16.647 14.683V17.4512ZM7.3529 14.683L4.95606 13.2993V16.067L7.3529 17.4508L7.3529 14.683Z" fill="#23262A"/>
</svg>
