<svg width="24" height="24" viewBox="0 0 24 24" fill="none" xmlns="http://www.w3.org/2000/svg">
<path fill-rule="evenodd" clip-rule="evenodd" d="M12.3753 2.35048C12.1432 2.21651 11.8573 2.21651 11.6253 2.35048L8.45922 4.17841C8.29887 4.27099 8.30142 4.50332 8.46378 4.59235L8.4782 4.60046L11.8749 6.56175C11.9523 6.60641 12.0476 6.60642 12.1249 6.56175L15.522 4.60044L15.5364 4.59235C15.6988 4.50327 15.7014 4.27082 15.541 4.17818L12.3753 2.35048ZM17.5482 5.33705C17.4725 5.29337 17.3796 5.29235 17.303 5.33435L16.2649 5.90361L12.3749 8.14948C12.1428 8.28346 11.8569 8.28346 11.6249 8.14947L7.7353 5.9036L6.63953 5.30272C6.60056 5.28135 6.5531 5.27891 6.51461 5.30113L4.57998 6.41809C4.4133 6.51432 4.41331 6.7549 4.58 6.85112L11.875 11.0618C11.9523 11.1064 12.0476 11.1064 12.1249 11.0618L19.4191 6.85044C19.4277 6.8455 19.4364 6.84072 19.4451 6.83612C19.6041 6.75256 19.6085 6.5266 19.453 6.43682L17.5482 5.33705ZM20.5445 8.36668C20.5445 8.1786 20.3446 8.05788 20.1782 8.1454L20.1563 8.1569L12.875 12.3608C12.7977 12.4054 12.75 12.488 12.75 12.5773L12.75 21.0002C12.75 21.1926 12.9583 21.3129 13.125 21.2167L15.022 20.1215C15.0993 20.0768 15.147 19.9943 15.147 19.9049V14.25C15.147 13.982 15.2899 13.7344 15.522 13.6004L18.9825 11.6026L20.422 10.7492C20.4979 10.7042 20.5445 10.6224 20.5445 10.5342V8.36668ZM20.5445 12.8592C20.5445 12.6655 20.3337 12.5453 20.167 12.6441L19.7362 12.8995L16.772 14.6108C16.6946 14.6555 16.647 14.738 16.647 14.8273V18.7502C16.647 18.9427 16.8553 19.063 17.022 18.9668L20.1695 17.1495C20.4016 17.0155 20.5445 16.7679 20.5445 16.5V12.8592ZM10.875 21.2163C11.0417 21.3126 11.25 21.1923 11.25 20.9998L11.25 12.5774C11.25 12.4881 11.2023 12.4055 11.125 12.3609L3.83103 8.15076C3.66437 8.05456 3.45605 8.17484 3.45605 8.36728V10.5345C3.45605 10.6228 3.50262 10.7046 3.57856 10.7496L5.01753 11.6027L8.478 13.6005C8.71006 13.7345 8.85301 13.9821 8.85301 14.25V19.9046C8.85301 19.9939 8.90066 20.0765 8.97801 20.1211L10.875 21.2163ZM6.97801 18.9664C7.14468 19.0626 7.35301 18.9424 7.35301 18.7499V14.8274C7.35301 14.7381 7.30536 14.6555 7.22801 14.6109L4.25629 12.8952L3.83355 12.6446C3.6669 12.5458 3.45605 12.6659 3.45605 12.8596V16.5C3.45605 16.7679 3.599 17.0155 3.83105 17.1495L6.97801 18.9664Z" fill="#23262A"/>
</svg>
