<svg width="24" height="24" viewBox="0 0 24 24" fill="none" xmlns="http://www.w3.org/2000/svg">
<path fill-rule="evenodd" clip-rule="evenodd" d="M7.96979 10.0853C7.42326 10.5023 6.74056 10.75 6 10.75C4.20507 10.75 2.75 9.29493 2.75 7.5C2.75 5.70507 4.20507 4.25 6 4.25C7.79493 4.25 9.25 5.70507 9.25 7.5C9.25 7.84074 9.19756 8.16923 9.10032 8.47784L10.5556 9.30038L17.062 7.34846C17.3182 7.27159 17.5886 7.25449 17.8525 7.29847L20.6233 7.76027C20.9393 7.81293 21.187 8.06046 21.2398 8.37641C21.2926 8.69235 21.1389 9.00697 20.8572 9.15953L9.10185 15.527C9.19811 15.8342 9.25 16.1611 9.25 16.5C9.25 18.2949 7.79493 19.75 6 19.75C4.20507 19.75 2.75 18.2949 2.75 16.5C2.75 14.7051 4.20507 13.25 6 13.25C6.74056 13.25 7.42326 13.4977 7.96979 13.9147C8.45261 13.2541 8.65495 12.4525 8.57682 11.6737L8.46517 11.0948C8.3622 10.7384 8.19707 10.3962 7.96979 10.0853ZM4.25 7.5C4.25 6.5335 5.0335 5.75 6 5.75C6.9665 5.75 7.75 6.5335 7.75 7.5C7.75 7.88891 7.62314 8.24819 7.40854 8.53871L7.39653 8.55449L7.39122 8.56175C7.07145 8.98012 6.56724 9.25 6 9.25C5.0335 9.25 4.25 8.4665 4.25 7.5ZM7.39123 15.4383C7.07145 15.0199 6.56724 14.75 6 14.75C5.0335 14.75 4.25 15.5335 4.25 16.5C4.25 17.4665 5.0335 18.25 6 18.25C6.9665 18.25 7.75 17.4665 7.75 16.5C7.75 16.1111 7.62314 15.7518 7.40854 15.4613C7.4026 15.4537 7.39683 15.446 7.39123 15.4383ZM12.479 14.8315C12.2835 14.9374 12.3132 15.2269 12.5263 15.2908L17.062 16.6515C17.3183 16.7284 17.5887 16.7455 17.8526 16.7015L20.6234 16.2397C20.9413 16.1867 21.1899 15.9365 21.2407 15.6182C21.2915 15.2999 21.1333 14.9847 20.8477 14.8353L16.7043 12.6684C16.6306 12.6298 16.5425 12.6304 16.4694 12.6701L12.479 14.8315Z" fill="#23262A"/>
</svg>
