<svg width="24" height="24" viewBox="0 0 24 24" fill="none" xmlns="http://www.w3.org/2000/svg">
<path fill-rule="evenodd" clip-rule="evenodd" d="M7.96979 10.0853C7.42326 10.5023 6.74056 10.75 6 10.75C4.20507 10.75 2.75 9.29493 2.75 7.5C2.75 5.70507 4.20507 4.25 6 4.25C7.79493 4.25 9.25 5.70507 9.25 7.5C9.25 7.84072 9.19757 8.1692 9.10033 8.47781L10.5555 9.30031L17.0619 7.3484C17.3182 7.27153 17.5886 7.25442 17.8525 7.2984L20.6233 7.7602C20.9393 7.81287 21.1869 8.06039 21.2397 8.37634C21.2925 8.69229 21.1389 9.0069 20.8572 9.15947L15.5212 12.0498L20.8475 14.8354C21.1331 14.9848 21.2913 15.3 21.2405 15.6183C21.1897 15.9366 20.9412 16.1868 20.6232 16.2398L17.8524 16.7016C17.5885 16.7456 17.3181 16.7285 17.0618 16.6516L10.6029 14.7139L9.10183 15.527C9.19811 15.8342 9.25 16.161 9.25 16.5C9.25 18.2949 7.79493 19.75 6 19.75C4.20507 19.75 2.75 18.2949 2.75 16.5C2.75 14.7051 4.20507 13.25 6 13.25C6.74056 13.25 7.42326 13.4977 7.96979 13.9147C8.80093 12.7775 8.80093 11.2225 7.96979 10.0853ZM4.25 7.5C4.25 6.5335 5.0335 5.75 6 5.75C6.9665 5.75 7.75 6.5335 7.75 7.5C7.75 7.88891 7.62314 8.24819 7.40854 8.53871C7.4026 8.5463 7.39683 8.55398 7.39123 8.56175C7.07145 8.98012 6.56724 9.25 6 9.25C5.0335 9.25 4.25 8.4665 4.25 7.5ZM12.4635 13.7061L13.9312 12.911L18.1702 15.1279L17.6058 15.222C17.5681 15.2283 17.5295 15.2258 17.4929 15.2149L12.4635 13.7061ZM7.39123 15.4383C7.39683 15.446 7.4026 15.4537 7.40854 15.4613C7.62314 15.7518 7.75 16.1111 7.75 16.5C7.75 17.4665 6.9665 18.25 6 18.25C5.0335 18.25 4.25 17.4665 4.25 16.5C4.25 15.5335 5.0335 14.75 6 14.75C6.56724 14.75 7.07145 15.0199 7.39123 15.4383ZM9.88393 13.3974C10.1191 12.6307 10.156 11.8163 9.99456 11.0347L17.493 8.78514C17.5296 8.77415 17.5682 8.77171 17.6059 8.77799L18.2224 8.88074L9.88393 13.3974Z" fill="#23262A"/>
</svg>
