<svg width="24" height="24" viewBox="0 0 24 24" fill="none" xmlns="http://www.w3.org/2000/svg">
<path fill-rule="evenodd" clip-rule="evenodd" d="M14.0088 3.0512C12.9218 1.88821 11.0775 1.88821 9.99057 3.0512L9.20212 3.8948C8.9557 4.15846 8.60735 4.30275 8.24667 4.29056L7.09263 4.25156C5.50168 4.1978 4.19755 5.50193 4.25132 7.09288L4.29032 8.24691C4.30251 8.60759 4.15822 8.95594 3.89456 9.20237L3.05096 9.99081C1.88796 11.0778 1.88796 12.9221 3.05096 14.009L3.89456 14.7975C4.15822 15.0439 4.30251 15.3923 4.29032 15.7529L4.25132 16.907C4.19755 18.4979 5.50168 19.8021 7.09263 19.7483L8.24667 19.7093C8.60735 19.6971 8.9557 19.8414 9.20212 20.105L9.99057 20.9487C11.0775 22.1116 12.9218 22.1116 14.0088 20.9487L14.7972 20.105C15.0437 19.8414 15.392 19.6971 15.7527 19.7093L16.9067 19.7483C18.4977 19.8021 19.8018 18.4979 19.748 16.907L19.709 15.7529C19.6969 15.3923 19.8411 15.0439 20.1048 14.7975L20.9484 14.009C22.1114 12.9221 22.1114 11.0778 20.9484 9.99081L20.1048 9.20237C19.8411 8.95594 19.6969 8.60759 19.709 8.24691L19.748 7.09288C19.8018 5.50192 18.4977 4.1978 16.9067 4.25156L15.7527 4.29056C15.392 4.30275 15.0437 4.15846 14.7972 3.8948L14.0088 3.0512ZM8.71967 8.71967C9.01256 8.42678 9.48744 8.42678 9.78033 8.71967L12 10.9393L14.2197 8.71967C14.5126 8.42678 14.9874 8.42678 15.2803 8.71967C15.5732 9.01256 15.5732 9.48744 15.2803 9.78033L13.0607 12L15.2803 14.2197C15.5732 14.5126 15.5732 14.9874 15.2803 15.2803C14.9874 15.5732 14.5126 15.5732 14.2197 15.2803L12 13.0607L9.78033 15.2803C9.48744 15.5732 9.01256 15.5732 8.71967 15.2803C8.42678 14.9874 8.42678 14.5126 8.71967 14.2197L10.9393 12L8.71967 9.78033C8.42678 9.48744 8.42678 9.01256 8.71967 8.71967Z" fill="#23262A"/>
</svg>
