<svg width="24" height="24" viewBox="0 0 24 24" fill="none" xmlns="http://www.w3.org/2000/svg">
<path fill-rule="evenodd" clip-rule="evenodd" d="M14.0088 3.0512C12.9218 1.88821 11.0775 1.88821 9.99057 3.0512L9.20212 3.8948C8.9557 4.15846 8.60735 4.30275 8.24667 4.29056L7.09263 4.25156C5.50168 4.1978 4.19755 5.50193 4.25132 7.09288L4.29032 8.24691C4.30251 8.60759 4.15822 8.95594 3.89456 9.20237L3.05096 9.99081C1.88796 11.0778 1.88796 12.9221 3.05096 14.009L3.89456 14.7975C4.15822 15.0439 4.30251 15.3923 4.29032 15.7529L4.25132 16.907C4.19755 18.4979 5.50168 19.8021 7.09263 19.7483L8.24667 19.7093C8.60735 19.6971 8.9557 19.8414 9.20212 20.105L9.99057 20.9487C11.0775 22.1116 12.9218 22.1116 14.0088 20.9487L14.7972 20.105C15.0437 19.8414 15.392 19.6971 15.7527 19.7093L16.9067 19.7483C18.4977 19.8021 19.8018 18.4979 19.748 16.907L19.709 15.7529C19.6969 15.3923 19.8411 15.0439 20.1048 14.7975L20.9484 14.009C22.1114 12.9221 22.1114 11.0778 20.9484 9.99081L20.1048 9.20237C19.8411 8.95594 19.6969 8.60759 19.709 8.24691L19.748 7.09288C19.8018 5.50192 18.4977 4.1978 16.9067 4.25156L15.7527 4.29056C15.392 4.30275 15.0437 4.15846 14.7972 3.8948L14.0088 3.0512ZM15.7803 10.2803C16.0732 9.98744 16.0732 9.51256 15.7803 9.21967C15.4874 8.92678 15.0126 8.92678 14.7197 9.21967L11 12.9393L9.28033 11.2197C8.98744 10.9268 8.51256 10.9268 8.21967 11.2197C7.92678 11.5126 7.92678 11.9874 8.21967 12.2803L10.4697 14.5303C10.7626 14.8232 11.2374 14.8232 11.5303 14.5303L15.7803 10.2803Z" fill="#23262A"/>
</svg>
