<svg width="24" height="24" viewBox="0 0 24 24" fill="none" xmlns="http://www.w3.org/2000/svg">
<path fill-rule="evenodd" clip-rule="evenodd" d="M9.99081 3.05132C11.0778 1.88833 12.9221 1.88833 14.009 3.05132L14.7975 3.89492C15.0439 4.15858 15.3923 4.30288 15.7529 4.29069L16.907 4.25169C18.4979 4.19792 19.8021 5.50205 19.7483 7.093L19.7093 8.24703C19.6971 8.60772 19.8414 8.95607 20.105 9.20249L20.9487 9.99093C22.1116 11.0779 22.1116 12.9222 20.9487 14.0092L20.105 14.7976C19.8414 15.044 19.6971 15.3924 19.7093 15.7531L19.7483 16.9071C19.8021 18.4981 18.4979 19.8022 16.907 19.7484L15.7529 19.7094C15.3923 19.6972 15.0439 19.8415 14.7975 20.1052L14.009 20.9488C12.9221 22.1118 11.0778 22.1118 9.99081 20.9488L9.20237 20.1052C8.95594 19.8415 8.60759 19.6972 8.24691 19.7094L7.09288 19.7484C5.50193 19.8022 4.1978 18.4981 4.25156 16.9071L4.29056 15.7531C4.30275 15.3924 4.15846 15.044 3.8948 14.7976L3.0512 14.0092C1.88821 12.9222 1.88821 11.0779 3.0512 9.99094L3.8948 9.20249C4.15846 8.95607 4.30275 8.60772 4.29056 8.24703L4.25156 7.093C4.1978 5.50205 5.50192 4.19792 7.09288 4.25169L8.24691 4.29069C8.60759 4.30288 8.95594 4.15858 9.20237 3.89492L9.99081 3.05132Z" fill="#23262A"/>
</svg>
