<svg width="24" height="24" viewBox="0 0 24 24" fill="none" xmlns="http://www.w3.org/2000/svg">
<path fill-rule="evenodd" clip-rule="evenodd" d="M9.99089 3.05126C11.0778 1.88827 12.9222 1.88827 14.0091 3.05126L14.7976 3.89486C15.044 4.15852 15.3923 4.30281 15.753 4.29063L16.9071 4.25162C18.498 4.19786 19.8021 5.50199 19.7484 7.09294L19.7094 8.24697C19.6972 8.60766 19.8415 8.95601 20.1051 9.20243L20.9487 9.99087C22.1117 11.0778 22.1117 12.9221 20.9487 14.0091L20.1051 14.7975C19.8415 15.044 19.6972 15.3923 19.7094 15.753L19.7484 16.907C19.8021 18.498 18.498 19.8021 16.9071 19.7483L15.753 19.7093C15.3923 19.6972 15.044 19.8414 14.7976 20.1051L14.0091 20.9487C12.9222 22.1117 11.0778 22.1117 9.99089 20.9487L9.20244 20.1051C8.95602 19.8414 8.60767 19.6972 8.24699 19.7093L7.09296 19.7483C5.502 19.8021 4.19787 18.498 4.25164 16.907L4.29064 15.753C4.30283 15.3923 4.15854 15.044 3.89488 14.7975L3.05128 14.0091C1.88828 12.9221 1.88828 11.0778 3.05128 9.99087L3.89488 9.20243C4.15854 8.95601 4.30283 8.60766 4.29064 8.24697L4.25164 7.09294C4.19787 5.50199 5.502 4.19786 7.09295 4.25162L8.24699 4.29063C8.60767 4.30281 8.95602 4.15852 9.20244 3.89486L9.99089 3.05126ZM12.9132 4.07549C12.4192 3.54686 11.5808 3.54686 11.0868 4.07549L10.2983 4.91909C9.75619 5.49915 8.98982 5.81659 8.19632 5.78977L7.04229 5.75077C6.31913 5.72633 5.72634 6.31912 5.75078 7.04228L5.78978 8.19631C5.8166 8.98981 5.49916 9.75618 4.91911 10.2983L4.07551 11.0868C3.54687 11.5808 3.54687 12.4192 4.07551 12.9132L4.91911 13.7017C5.49916 14.2438 5.8166 15.0102 5.78978 15.8037L5.75078 16.9577C5.72634 17.6809 6.31913 18.2736 7.04229 18.2492L8.19632 18.2102C8.98983 18.1834 9.7562 18.5008 10.2983 19.0809L11.0868 19.9245C11.5808 20.4531 12.4192 20.4531 12.9132 19.9245L13.7017 19.0809C14.2438 18.5008 15.0102 18.1834 15.8037 18.2102L16.9577 18.2492C17.6809 18.2736 18.2737 17.6809 18.2492 16.9577L18.2102 15.8037C18.1834 15.0102 18.5008 14.2438 19.0809 13.7017L19.9245 12.9132C20.4531 12.4192 20.4531 11.5808 19.9245 11.0868L19.0809 10.2983C18.5008 9.75618 18.1834 8.98981 18.2102 8.19631L18.2492 7.04228C18.2737 6.31912 17.6809 5.72633 16.9577 5.75077L15.8037 5.78977C15.0102 5.81659 14.2438 5.49914 13.7017 4.91909L12.9132 4.07549Z" fill="#23262A"/>
</svg>
