<svg width="24" height="24" viewBox="0 0 24 24" fill="none" xmlns="http://www.w3.org/2000/svg">
<path fill-rule="evenodd" clip-rule="evenodd" d="M14.0091 3.05126C12.9222 1.88827 11.0778 1.88827 9.99089 3.05126L9.20244 3.89486C8.95602 4.15852 8.60767 4.30281 8.24698 4.29063L7.09295 4.25162C5.502 4.19786 4.19787 5.50199 4.25164 7.09294L4.29064 8.24697C4.30283 8.60766 4.15853 8.95601 3.89487 9.20243L3.05127 9.99087C1.88828 11.0778 1.88828 12.9221 3.05127 14.0091L3.89487 14.7975C4.15853 15.044 4.30283 15.3923 4.29064 15.753L4.25164 16.907C4.19787 18.498 5.502 19.8021 7.09295 19.7483L8.24698 19.7093C8.60767 19.6972 8.95602 19.8414 9.20244 20.1051L9.99089 20.9487C11.0778 22.1117 12.9222 22.1117 14.0091 20.9487L14.7976 20.1051C15.044 19.8414 15.3923 19.6972 15.753 19.7093L16.907 19.7483C18.498 19.8021 19.8021 18.498 19.7484 16.907L19.7094 15.753C19.6972 15.3923 19.8415 15.044 20.1051 14.7975L20.9487 14.0091C22.1117 12.9221 22.1117 11.0778 20.9487 9.99087L20.1051 9.20243C19.8415 8.95601 19.6972 8.60766 19.7094 8.24697L19.7484 7.09294C19.8021 5.50199 18.498 4.19786 16.907 4.25162L15.753 4.29063C15.3923 4.30281 15.044 4.15852 14.7976 3.89486L14.0091 3.05126ZM11.0868 4.07549C11.5808 3.54686 12.4192 3.54686 12.9132 4.07549L13.7017 4.91909C14.2438 5.49914 15.0102 5.81659 15.8037 5.78977L16.9577 5.75077C17.6809 5.72633 18.2737 6.31912 18.2492 7.04228L18.2102 8.19631C18.1834 8.98981 18.5008 9.75618 19.0809 10.2983L19.9245 11.0868C20.4531 11.5808 20.4531 12.4192 19.9245 12.9132L19.0809 13.7017C18.5008 14.2438 18.1834 15.0102 18.2102 15.8037L18.2492 16.9577C18.2737 17.6809 17.6809 18.2736 16.9577 18.2492L15.8037 18.2102C15.0102 18.1834 14.2438 18.5008 13.7017 19.0809L12.9132 19.9245C12.4192 20.4531 11.5808 20.4531 11.0868 19.9245L10.2983 19.0809C9.75619 18.5008 8.98982 18.1834 8.19632 18.2102L7.04229 18.2492C6.31913 18.2736 5.72634 17.6809 5.75078 16.9577L5.78978 15.8037C5.8166 15.0102 5.49916 14.2438 4.91911 13.7017L4.0755 12.9132C3.54687 12.4192 3.54687 11.5808 4.0755 11.0868L4.91911 10.2983C5.49916 9.75618 5.8166 8.98981 5.78978 8.19631L5.75078 7.04228C5.72634 6.31912 6.31913 5.72633 7.04229 5.75077L8.19632 5.78977C8.98982 5.81659 9.75619 5.49915 10.2983 4.91909L11.0868 4.07549ZM15.7803 10.2803C16.0732 9.98744 16.0732 9.51256 15.7803 9.21967C15.4874 8.92678 15.0126 8.92678 14.7197 9.21967L11 12.9393L9.28033 11.2197C8.98743 10.9268 8.51256 10.9268 8.21967 11.2197C7.92677 11.5126 7.92677 11.9874 8.21967 12.2803L10.4697 14.5303C10.7626 14.8232 11.2374 14.8232 11.5303 14.5303L15.7803 10.2803Z" fill="#23262A"/>
</svg>
