<svg width="24" height="24" viewBox="0 0 24 24" fill="none" xmlns="http://www.w3.org/2000/svg">
<path fill-rule="evenodd" clip-rule="evenodd" d="M14.0091 3.05126C12.9222 1.88827 11.0778 1.88827 9.99089 3.05126L9.20244 3.89486C8.95602 4.15852 8.60767 4.30281 8.24699 4.29063L7.09295 4.25162C5.502 4.19786 4.19787 5.50199 4.25164 7.09294L4.29064 8.24697C4.30283 8.60766 4.15854 8.95601 3.89488 9.20243L3.05128 9.99087C1.88828 11.0778 1.88828 12.9221 3.05128 14.0091L3.89488 14.7975C4.15854 15.044 4.30283 15.3923 4.29064 15.753L4.25164 16.907C4.19787 18.498 5.502 19.8021 7.09296 19.7483L8.24699 19.7093C8.60767 19.6972 8.95602 19.8414 9.20244 20.1051L9.99089 20.9487C11.0778 22.1117 12.9222 22.1117 14.0091 20.9487L14.7976 20.1051C15.044 19.8414 15.3923 19.6972 15.753 19.7093L16.9071 19.7483C18.498 19.8021 19.8021 18.498 19.7484 16.907L19.7094 15.753C19.6972 15.3923 19.8415 15.044 20.1051 14.7975L20.9487 14.0091C22.1117 12.9221 22.1117 11.0778 20.9487 9.99087L20.1051 9.20243C19.8415 8.95601 19.6972 8.60766 19.7094 8.24697L19.7484 7.09294C19.8021 5.50199 18.498 4.19786 16.9071 4.25162L15.753 4.29063C15.3923 4.30281 15.044 4.15852 14.7976 3.89486L14.0091 3.05126ZM11.0868 4.07549C11.5808 3.54686 12.4192 3.54686 12.9132 4.07549L13.7017 4.91909C14.2438 5.49914 15.0102 5.81659 15.8037 5.78977L16.9577 5.75077C17.6809 5.72633 18.2737 6.31912 18.2492 7.04228L18.2102 8.19631C18.1834 8.98981 18.5008 9.75618 19.0809 10.2983L19.9245 11.0868C20.4531 11.5808 20.4531 12.4192 19.9245 12.9132L19.0809 13.7017C18.5008 14.2438 18.1834 15.0102 18.2102 15.8037L18.2492 16.9577C18.2737 17.6809 17.6809 18.2736 16.9577 18.2492L15.8037 18.2102C15.0102 18.1834 14.2438 18.5008 13.7017 19.0809L12.9132 19.9245C12.4192 20.4531 11.5808 20.4531 11.0868 19.9245L10.2983 19.0809C9.7562 18.5008 8.98983 18.1834 8.19632 18.2102L7.04229 18.2492C6.31913 18.2736 5.72634 17.6809 5.75078 16.9577L5.78978 15.8037C5.8166 15.0102 5.49916 14.2438 4.91911 13.7017L4.07551 12.9132C3.54687 12.4192 3.54687 11.5808 4.07551 11.0868L4.91911 10.2983C5.49916 9.75618 5.8166 8.98981 5.78978 8.19631L5.75078 7.04228C5.72634 6.31912 6.31913 5.72633 7.04229 5.75077L8.19632 5.78977C8.98982 5.81659 9.75619 5.49915 10.2983 4.91909L11.0868 4.07549ZM8.7195 8.71973C9.0124 8.42684 9.48727 8.42684 9.78016 8.71973L11.9998 10.9394L14.2195 8.71973C14.5124 8.42684 14.9873 8.42684 15.2802 8.71973C15.5731 9.01262 15.5731 9.4875 15.2802 9.78039L13.0605 12.0001L15.2802 14.2197C15.5731 14.5126 15.5731 14.9875 15.2802 15.2804C14.9873 15.5733 14.5124 15.5733 14.2195 15.2804L11.9998 13.0607L9.78016 15.2804C9.48727 15.5733 9.0124 15.5733 8.7195 15.2804C8.42661 14.9875 8.42661 14.5126 8.7195 14.2197L10.9392 12.0001L8.7195 9.78039C8.42661 9.4875 8.42661 9.01262 8.7195 8.71973Z" fill="#23262A"/>
</svg>
