<svg width="24" height="24" viewBox="0 0 24 24" fill="none" xmlns="http://www.w3.org/2000/svg">
<path fill-rule="evenodd" clip-rule="evenodd" d="M13.6241 2.38485C13.4065 2.34835 13.1839 2.40948 13.0155 2.55199C12.8471 2.69449 12.75 2.9039 12.75 3.12451L12.75 10.5001C12.75 10.699 12.829 10.8898 12.9697 11.0304C13.1103 11.1711 13.3011 11.2501 13.5 11.2501H20.8756C21.0962 11.2501 21.3056 11.153 21.4481 10.9845C21.5906 10.8161 21.6517 10.5935 21.6152 10.376C20.93 6.29176 17.7083 3.07005 13.6241 2.38485ZM14.25 9.75007L14.25 4.06044C16.9971 4.83737 19.1627 7.00297 19.9396 9.75007H14.25ZM10.9845 2.55199C11.1529 2.69449 11.25 2.90391 11.25 3.12451V20.8756C11.25 21.0962 11.1529 21.3057 10.9845 21.4482C10.8161 21.5907 10.5935 21.6518 10.3759 21.6153C5.76405 20.8416 2.25 16.8319 2.25 12.0001C2.25 7.16821 5.76405 3.15857 10.3759 2.38485C10.5935 2.34835 10.8161 2.40948 10.9845 2.55199ZM9.75 4.06043C6.28734 5.03959 3.75 8.22414 3.75 12.0001C3.75 15.776 6.28734 18.9606 9.75 19.9397V4.06043ZM12.75 13.5C12.75 13.0858 13.0858 12.75 13.5 12.75H20.8756C21.0962 12.75 21.3056 12.8471 21.4481 13.0155C21.5906 13.1839 21.6517 13.4065 21.6152 13.6241C20.93 17.7083 17.7083 20.93 13.6241 21.6152C13.4065 21.6517 13.1839 21.5906 13.0155 21.4481C12.8471 21.3056 12.75 21.0962 12.75 20.8756L12.75 13.5ZM14.25 14.25L14.25 19.9396C16.9971 19.1627 19.1627 16.9971 19.9396 14.25H14.25Z" fill="#262626"/>
</svg>
