<svg width="24" height="24" viewBox="0 0 24 24" fill="none" xmlns="http://www.w3.org/2000/svg">
<path fill-rule="evenodd" clip-rule="evenodd" d="M19.75 4.01992C19.75 3.53224 19.3003 3.16875 18.8235 3.27093L18.4572 3.34943C14.2007 4.26153 9.79929 4.26153 5.54282 3.34943L5.17649 3.27093C4.69967 3.16875 4.25 3.53223 4.25 4.01992V13.0001C4.25 17.2803 7.71979 20.7501 12 20.7501C16.2802 20.7501 19.75 17.2803 19.75 13.0001V4.01992ZM5.75 4.92339C9.87693 5.73687 14.1231 5.73687 18.25 4.92339V13.0001C18.25 16.4519 15.4518 19.2501 12 19.2501C8.54822 19.2501 5.75 16.4519 5.75 13.0001V4.92339ZM9.75024 9.49997C9.75024 8.25733 10.7576 7.24997 12.0002 7.24997C13.2429 7.24997 14.2502 8.25733 14.2502 9.49997V10.25H14.5C15.1904 10.25 15.75 10.8096 15.75 11.5V15C15.75 15.4142 15.4142 15.75 15 15.75H9C8.58579 15.75 8.25 15.4142 8.25 15V11.5C8.25 10.8096 8.80964 10.25 9.5 10.25H9.75024V9.49997ZM12.7502 9.49997V10.25H11.2502V9.49997C11.2502 9.08576 11.586 8.74997 12.0002 8.74997C12.4145 8.74997 12.7502 9.08576 12.7502 9.49997ZM9.75 11.75V14.25H14.25V11.75H9.75Z" fill="#23262A"/>
</svg>
