<svg width="24" height="24" viewBox="0 0 24 24" fill="none" xmlns="http://www.w3.org/2000/svg">
<path fill-rule="evenodd" clip-rule="evenodd" d="M18.8235 3.27071C19.3003 3.16854 19.75 3.53202 19.75 4.01971V12.9999C19.75 17.2801 16.2802 20.7499 12 20.7499C7.71979 20.7499 4.25 17.2801 4.25 12.9999V4.01971C4.25 3.53202 4.69967 3.16854 5.17649 3.27071L5.54282 3.34921C9.79929 4.26131 14.2007 4.26131 18.4572 3.34921L18.8235 3.27071ZM8.25 11.5C8.25 10.8096 8.80964 10.25 9.5 10.25H9.75V9.5C9.75 8.25736 10.7574 7.25 12 7.25C13.2426 7.25 14.25 8.25736 14.25 9.5V10.25H14.5C15.1904 10.25 15.75 10.8096 15.75 11.5V15C15.75 15.4142 15.4142 15.75 15 15.75H9C8.58579 15.75 8.25 15.4142 8.25 15V11.5ZM12.75 10.25V9.5C12.75 9.08579 12.4142 8.75 12 8.75C11.5858 8.75 11.25 9.08579 11.25 9.5V10.25H12.75ZM9.75 11.75V14.25H14.25V11.75H9.75Z" fill="#23262A"/>
</svg>
