<svg width="24" height="24" viewBox="0 0 24 24" fill="none" xmlns="http://www.w3.org/2000/svg">
<path fill-rule="evenodd" clip-rule="evenodd" d="M19.75 4.01992C19.75 3.53224 19.3003 3.16875 18.8235 3.27093L18.4572 3.34943C14.2007 4.26153 9.79929 4.26153 5.54282 3.34943L5.17649 3.27093C4.69967 3.16875 4.25 3.53223 4.25 4.01992V13.0001C4.25 17.2803 7.71979 20.7501 12 20.7501C16.2802 20.7501 19.75 17.2803 19.75 13.0001V4.01992ZM5.75 4.92339C9.87693 5.73687 14.1231 5.73687 18.25 4.92339V13.0001C18.25 16.4519 15.4518 19.2501 12 19.2501C8.54822 19.2501 5.75 16.4519 5.75 13.0001V4.92339ZM15.7803 10.2803C16.0732 9.98744 16.0732 9.51256 15.7803 9.21967C15.4874 8.92678 15.0126 8.92678 14.7197 9.21967L11 12.9393L9.28033 11.2197C8.98744 10.9268 8.51256 10.9268 8.21967 11.2197C7.92678 11.5126 7.92678 11.9874 8.21967 12.2803L10.4697 14.5303C10.7626 14.8232 11.2374 14.8232 11.5303 14.5303L15.7803 10.2803Z" fill="#23262A"/>
</svg>
