<svg width="24" height="24" viewBox="0 0 24 24" fill="none" xmlns="http://www.w3.org/2000/svg">
<path fill-rule="evenodd" clip-rule="evenodd" d="M19.75 4.01971C19.75 3.53202 19.3003 3.16854 18.8235 3.27071L18.4572 3.34921C14.2007 4.26131 9.79929 4.26131 5.54282 3.34921L5.17649 3.27071C4.69967 3.16854 4.25 3.53202 4.25 4.01971V12.9999C4.25 17.2801 7.71979 20.7499 12 20.7499C16.2802 20.7499 19.75 17.2801 19.75 12.9999V4.01971ZM15.7803 10.2803C16.0732 9.98744 16.0732 9.51256 15.7803 9.21967C15.4874 8.92678 15.0126 8.92678 14.7197 9.21967L11 12.9393L9.28033 11.2197C8.98744 10.9268 8.51256 10.9268 8.21967 11.2197C7.92678 11.5126 7.92678 11.9874 8.21967 12.2803L10.4697 14.5303C10.7626 14.8232 11.2374 14.8232 11.5303 14.5303L15.7803 10.2803Z" fill="#23262A"/>
</svg>
