<svg width="24" height="24" viewBox="0 0 24 24" fill="none" xmlns="http://www.w3.org/2000/svg">
<path fill-rule="evenodd" clip-rule="evenodd" d="M6 3.25C5.58579 3.25 5.25 3.58579 5.25 4V8.25H4C3.58579 8.25 3.25 8.58579 3.25 9V12C3.25 12.4142 3.58579 12.75 4 12.75H20C20.4142 12.75 20.75 12.4142 20.75 12V9C20.75 8.58579 20.4142 8.25 20 8.25H18.75V4C18.75 3.58579 18.4142 3.25 18 3.25H6ZM17.25 8.25V4.75H6.75V8.25H17.25ZM4.74612 13.75C4.59574 13.75 4.47939 13.8818 4.49805 14.031L5.2558 20.093C5.30271 20.4683 5.62176 20.75 6.00001 20.75H18C18.3782 20.75 18.6973 20.4683 18.7442 20.093L19.502 14.031C19.5206 13.8818 19.4043 13.75 19.2539 13.75H4.74612ZM12 14.75C12.4142 14.75 12.75 15.0858 12.75 15.5V18.5C12.75 18.9142 12.4142 19.25 12 19.25C11.5858 19.25 11.25 18.9142 11.25 18.5V15.5C11.25 15.0858 11.5858 14.75 12 14.75ZM9.58909 15.4298C9.54579 15.0179 9.17675 14.719 8.7648 14.7623C8.35286 14.8056 8.05401 15.1747 8.09731 15.5866L8.41089 18.5702C8.45419 18.9821 8.82324 19.281 9.23518 19.2377C9.64713 19.1944 9.94597 18.8253 9.90268 18.4134L9.58909 15.4298ZM15.2352 14.7623C15.6471 14.8056 15.946 15.1747 15.9027 15.5866L15.5891 18.5702C15.5458 18.9821 15.1768 19.281 14.7648 19.2377C14.3529 19.1944 14.054 18.8253 14.0973 18.4134L14.4109 15.4298C14.4542 15.0179 14.8233 14.719 15.2352 14.7623Z" fill="#23262A"/>
</svg>
