<svg width="24" height="24" viewBox="0 0 24 24" fill="none" xmlns="http://www.w3.org/2000/svg">
<path fill-rule="evenodd" clip-rule="evenodd" d="M5.25 4C5.25 3.58579 5.58579 3.25 6 3.25H18C18.4142 3.25 18.75 3.58579 18.75 4V8.25H20C20.4142 8.25 20.75 8.58579 20.75 9V12C20.75 12.4142 20.4142 12.75 20 12.75H19.6621L18.7442 20.093C18.6973 20.4683 18.3782 20.75 18 20.75H6C5.62176 20.75 5.30271 20.4683 5.25579 20.093L4.33791 12.75H4C3.58579 12.75 3.25 12.4142 3.25 12V9C3.25 8.58579 3.58579 8.25 4 8.25H5.25V4ZM4.99006 11.25C4.99733 11.2499 5.00459 11.2499 5.01182 11.25H18.9882C18.9954 11.2499 19.0027 11.2499 19.0099 11.25H19.25V9.75H4.75V11.25H4.99006ZM18.1504 12.75L17.3379 19.25H6.66209L5.84959 12.75H18.1504ZM17.25 4.75V8.25H6.75V4.75H17.25ZM12.75 14.5C12.75 14.0858 12.4142 13.75 12 13.75C11.5858 13.75 11.25 14.0858 11.25 14.5V17.5C11.25 17.9142 11.5858 18.25 12 18.25C12.4142 18.25 12.75 17.9142 12.75 17.5V14.5ZM9.58909 14.4298C9.54579 14.0179 9.17675 13.719 8.7648 13.7623C8.35286 13.8056 8.05401 14.1747 8.09731 14.5866L8.41089 17.5702C8.45419 17.9821 8.82324 18.281 9.23518 18.2377C9.64713 18.1944 9.94597 17.8253 9.90268 17.4134L9.58909 14.4298ZM15.2352 13.7623C15.6471 13.8056 15.946 14.1747 15.9027 14.5866L15.5891 17.5702C15.5458 17.9821 15.1768 18.281 14.7648 18.2377C14.3529 18.1944 14.054 17.8253 14.0973 17.4134L14.4109 14.4298C14.4542 14.0179 14.8233 13.719 15.2352 13.7623Z" fill="#23262A"/>
</svg>
