<svg width="24" height="24" viewBox="0 0 24 24" fill="none" xmlns="http://www.w3.org/2000/svg">
<path fill-rule="evenodd" clip-rule="evenodd" d="M4 3.25C3.58579 3.25 3.25 3.58579 3.25 4C3.25 4.41421 3.58579 4.75 4 4.75H10.5C11.3963 4.75 12.1352 5.42383 12.2378 6.29255C8.86873 6.67116 6.25 9.52976 6.25 13C6.25 13.4142 6.58579 13.75 7 13.75H19C19.4142 13.75 19.75 13.4142 19.75 13C19.75 9.5233 17.1215 6.66052 13.7434 6.29047C13.6354 4.59319 12.2245 3.25 10.5 3.25H4ZM9 14.75C9.41421 14.75 9.75 15.0858 9.75 15.5V16.5C9.75 16.9142 9.41421 17.25 9 17.25C8.58579 17.25 8.25 16.9142 8.25 16.5V15.5C8.25 15.0858 8.58579 14.75 9 14.75ZM9.75 19C9.75 18.5858 9.41421 18.25 9 18.25C8.58579 18.25 8.25 18.5858 8.25 19V20C8.25 20.4142 8.58579 20.75 9 20.75C9.41421 20.75 9.75 20.4142 9.75 20V19ZM13 14.75C13.4142 14.75 13.75 15.0858 13.75 15.5V16.5C13.75 16.9142 13.4142 17.25 13 17.25C12.5858 17.25 12.25 16.9142 12.25 16.5V15.5C12.25 15.0858 12.5858 14.75 13 14.75ZM13.75 19C13.75 18.5858 13.4142 18.25 13 18.25C12.5858 18.25 12.25 18.5858 12.25 19V20C12.25 20.4142 12.5858 20.75 13 20.75C13.4142 20.75 13.75 20.4142 13.75 20V19ZM17 14.75C17.4142 14.75 17.75 15.0858 17.75 15.5V16.5C17.75 16.9142 17.4142 17.25 17 17.25C16.5858 17.25 16.25 16.9142 16.25 16.5V15.5C16.25 15.0858 16.5858 14.75 17 14.75ZM17.75 19C17.75 18.5858 17.4142 18.25 17 18.25C16.5858 18.25 16.25 18.5858 16.25 19V20C16.25 20.4142 16.5858 20.75 17 20.75C17.4142 20.75 17.75 20.4142 17.75 20V19Z" fill="#23262A"/>
</svg>
