<svg width="24" height="24" viewBox="0 0 24 24" fill="none" xmlns="http://www.w3.org/2000/svg">
<path fill-rule="evenodd" clip-rule="evenodd" d="M10.5 20.25C10.0858 20.25 9.74998 19.9142 9.74998 19.5L9.74999 15.3107L5.03035 20.0303C4.73745 20.3232 4.26258 20.3232 3.96969 20.0303C3.67679 19.7374 3.67679 19.2626 3.96968 18.9697L8.68935 14.25L4.5 14.25C4.08579 14.25 3.75 13.9142 3.75 13.5C3.75 13.0858 4.08579 12.75 4.5 12.75L10.5 12.75C10.6989 12.75 10.8897 12.829 11.0303 12.9697C11.171 13.1103 11.25 13.3011 11.25 13.5L11.25 19.5C11.25 19.9142 10.9142 20.25 10.5 20.25ZM20.25 10.5C20.25 10.9142 19.9142 11.25 19.5 11.25H13.5C13.0858 11.25 12.75 10.9142 12.75 10.5V4.5C12.75 4.08579 13.0858 3.75 13.5 3.75C13.9142 3.75 14.25 4.08579 14.25 4.5V8.68935L18.9697 3.96967C19.2626 3.67678 19.7375 3.67678 20.0303 3.96967C20.3232 4.26256 20.3232 4.73744 20.0303 5.03033L15.3107 9.74999H19.5C19.9142 9.74999 20.25 10.0858 20.25 10.5Z" fill="#23262A"/>
</svg>
