<svg width="24" height="24" viewBox="0 0 24 24" fill="none" xmlns="http://www.w3.org/2000/svg">
<path d="M19.5 11.25C19.9142 11.25 20.25 10.9142 20.25 10.5C20.25 10.0858 19.9142 9.75 19.5 9.75H15.3105L20.0303 5.03027C20.3232 4.73738 20.3232 4.26262 20.0303 3.96973C19.7374 3.67685 19.2626 3.67684 18.9697 3.96973L14.25 8.68945V4.5C14.25 4.08579 13.9142 3.75 13.5 3.75C13.0858 3.75001 12.75 4.08579 12.75 4.5V10.5C12.75 10.9142 13.0858 11.25 13.5 11.25H19.5Z" fill="#202733"/>
<path d="M10.5 20.25C10.9142 20.25 11.25 19.9142 11.25 19.5V13.5C11.25 13.3011 11.1709 13.1104 11.0303 12.9697C10.8896 12.8291 10.6989 12.75 10.5 12.75H4.5C4.08579 12.75 3.75 13.0858 3.75 13.5C3.75001 13.9142 4.0858 14.25 4.5 14.25H8.68945L3.96973 18.9697C3.67685 19.2626 3.67685 19.7374 3.96973 20.0303C4.26261 20.3232 4.73738 20.3232 5.03027 20.0303L9.75 15.3105V19.5C9.75 19.9142 10.0858 20.25 10.5 20.25Z" fill="#202733"/>
</svg>
