<svg width="24" height="24" viewBox="0 0 24 24" fill="none" xmlns="http://www.w3.org/2000/svg">
<path fill-rule="evenodd" clip-rule="evenodd" d="M13.5 3.75C13.9142 3.75 14.25 4.08579 14.25 4.5L14.25 8.68933L18.9697 3.96967C19.2625 3.67678 19.7374 3.67678 20.0303 3.96967C20.3232 4.26256 20.3232 4.73744 20.0303 5.03033L15.3106 9.75002L19.5 9.75002C19.9142 9.75002 20.25 10.0858 20.25 10.5C20.25 10.9142 19.9142 11.25 19.5 11.25L13.5 11.25C13.3011 11.25 13.1103 11.171 12.9697 11.0303C12.829 10.8897 12.75 10.6989 12.75 10.5L12.75 4.5C12.75 4.08579 13.0858 3.75 13.5 3.75ZM3.74999 13.5C3.74999 13.0858 4.08577 12.75 4.49999 12.75L10.5 12.75C10.9142 12.75 11.25 13.0858 11.25 13.5L11.25 19.5C11.25 19.9142 10.9142 20.25 10.5 20.25C10.0858 20.25 9.75 19.9142 9.75 19.5L9.75 15.3106L5.03031 20.0303C4.73742 20.3232 4.26255 20.3232 3.96966 20.0303C3.67676 19.7374 3.67676 19.2626 3.96966 18.9697L8.68931 14.25L4.49999 14.25C4.08577 14.25 3.74999 13.9142 3.74999 13.5Z" fill="#23262A"/>
</svg>
