<svg width="24" height="24" viewBox="0 0 24 24" fill="none" xmlns="http://www.w3.org/2000/svg">
<path fill-rule="evenodd" clip-rule="evenodd" d="M14.25 4.5C14.25 4.08579 13.9142 3.75 13.5 3.75C13.0858 3.75 12.75 4.08579 12.75 4.5L12.75 10.5C12.75 10.6989 12.829 10.8897 12.9697 11.0303C13.1103 11.171 13.3011 11.25 13.5 11.25L19.5 11.25C19.9142 11.25 20.25 10.9142 20.25 10.5C20.25 10.0858 19.9142 9.75002 19.5 9.75002L15.3106 9.75002L20.0303 5.03033C20.3232 4.73744 20.3232 4.26256 20.0303 3.96967C19.7374 3.67678 19.2625 3.67678 18.9697 3.96967L14.25 8.68933L14.25 4.5ZM4.5 12.75C4.08579 12.75 3.75 13.0858 3.75 13.5C3.75 13.9142 4.08579 14.25 4.5 14.25L8.68932 14.25L3.96967 18.9697C3.67678 19.2626 3.67678 19.7374 3.96967 20.0303C4.26256 20.3232 4.73744 20.3232 5.03033 20.0303L9.75001 15.3106L9.75001 19.5C9.75001 19.9142 10.0858 20.25 10.5 20.25C10.9142 20.25 11.25 19.9142 11.25 19.5L11.25 13.5C11.25 13.0858 10.9142 12.75 10.5 12.75L4.5 12.75Z" fill="#262626"/>
</svg>
