<svg width="24" height="24" viewBox="0 0 24 24" fill="none" xmlns="http://www.w3.org/2000/svg">
<path fill-rule="evenodd" clip-rule="evenodd" d="M13.9523 5.18263C14.122 4.99172 14.3891 4.92031 14.6314 5.00108C15.0817 5.15119 15.2167 5.72271 14.881 6.05835L13.4697 7.46971C13.2018 7.73754 13.1757 8.16304 13.4088 8.4616C13.6419 8.76015 14.0611 8.83803 14.3859 8.64316L18.0075 6.47016C18.3344 6.27406 18.7591 6.41714 18.9006 6.77102C19.0074 7.03787 18.9163 7.3431 18.6809 7.50792L14.5699 10.3856C14.3158 10.5635 14.1974 10.8795 14.2721 11.1806C14.3468 11.4817 14.5991 11.7058 14.907 11.7442L16.9559 12.0004C17.7918 12.1048 18.4631 12.7399 18.6138 13.5688L18.9912 15.6444C19.0653 16.0519 18.7916 16.4411 18.3831 16.5092C17.9722 16.5777 17.5854 16.2945 17.5265 15.8821L17.2861 14.1996C17.2117 13.6785 16.7912 13.2754 16.2674 13.223L12.6741 12.8637C11.6439 12.7607 10.75 13.5697 10.75 14.605V15.5945C10.75 16.4922 11.425 17.2463 12.3172 17.3454L14.5089 17.589C14.9308 17.6359 15.25 17.9925 15.25 18.417C15.25 18.8771 14.877 19.25 14.4169 19.25H12.2229C12.1928 19.25 12.163 19.243 12.136 19.2295L8.33541 17.3292C8.23127 17.2771 8.11643 17.25 8 17.25H6.75V9.28519L9.89807 5.7436C10.069 5.55126 10.3465 5.49492 10.5789 5.60534C10.9273 5.77081 11.0194 6.22432 10.7632 6.51257L9.43944 8.00176C9.16425 8.31135 9.19214 8.7854 9.50173 9.06059C9.81131 9.33578 10.2854 9.3079 10.5606 8.99831L11.8843 7.50912L13.9523 5.18263ZM5.66323 8.25L8.77696 4.74706C9.39106 4.0562 10.3876 3.85382 11.2225 4.25042C11.5974 4.42849 11.8897 4.69942 12.0904 5.01943L12.8312 4.18608C13.3995 3.5467 14.2942 3.30753 15.1058 3.57806L14.8686 4.28957L15.1058 3.57806C16.0294 3.88594 16.5569 4.72318 16.5688 5.58413L17.2358 5.18392C18.3547 4.51257 19.8087 5.00239 20.2933 6.21393C20.6588 7.12753 20.3472 8.17249 19.5411 8.73677L17.0259 10.4974L17.1419 10.5119C18.6281 10.6977 19.8217 11.8268 20.0896 13.3004L20.467 15.3761C20.6908 16.6071 19.8639 17.7831 18.6297 17.9888C17.3882 18.1957 16.2196 17.3403 16.0416 16.0943L15.8406 14.6878L12.5249 14.3563C12.3777 14.3415 12.25 14.4571 12.25 14.605V15.5945C12.25 15.7279 12.3503 15.8399 12.4828 15.8546L14.6746 16.0981C15.8561 16.2294 16.75 17.2281 16.75 18.417C16.75 19.7055 15.7054 20.75 14.4169 20.75H12.2229C11.9599 20.75 11.7005 20.6888 11.4652 20.5712L7.82295 18.75H6C5.99755 18.75 5.9951 18.75 5.99265 18.75H3.5C3.08579 18.75 2.75 18.4142 2.75 18V9C2.75 8.58579 3.08579 8.25 3.5 8.25H5.66323ZM4.25 17.25V9.75H5.25V17.25H4.25Z" fill="#262626"/>
</svg>
