<svg width="24" height="24" viewBox="0 0 24 24" fill="none" xmlns="http://www.w3.org/2000/svg">
<path fill-rule="evenodd" clip-rule="evenodd" d="M15.4009 3.06625C15.5481 2.94165 15.7522 2.90853 15.9313 2.98018C16.2788 3.11919 16.371 3.56826 16.1063 3.83293L12.4697 7.46957C12.1813 7.75797 12.1762 8.22398 12.4583 8.51858C12.7403 8.81318 13.2061 8.82837 13.5068 8.55276L18.7174 3.77641C18.909 3.6007 19.1987 3.58643 19.4067 3.74245C19.6629 3.93456 19.6968 4.30601 19.4796 4.54128L14.4489 9.99119C14.289 10.1645 14.2198 10.4029 14.2622 10.6348C14.3046 10.8668 14.4537 11.0653 14.6646 11.1707L16.1895 11.9332C16.3841 12.0305 16.5499 12.1769 16.6706 12.3578L17.0401 12.9121C17.177 13.1174 17.25 13.3587 17.25 13.6054V13.7811C17.25 14.1953 17.5858 14.5311 18 14.5311C18.4142 14.5311 18.75 14.1953 18.75 13.7811V13.6054C18.75 13.0625 18.5893 12.5318 18.2881 12.08L17.9187 11.5258C17.6532 11.1276 17.2884 10.8056 16.8604 10.5915L16.228 10.2754L20.5818 5.5587C21.4018 4.67035 21.2739 3.26783 20.3067 2.54245C19.5212 1.95333 18.4276 2.00721 17.7038 2.67068L17.626 2.74198C17.4359 2.24151 17.0473 1.81105 16.4884 1.58746C15.7939 1.3097 15.0029 1.43807 14.4319 1.92117L9.49053 6.10237C9.64123 4.86284 8.94029 3.66834 7.77144 3.20081C6.83211 2.82507 5.77024 3.31756 5.45032 4.27734L4.69902 6.53123C4.40162 7.42344 4.25 8.35776 4.25 9.29823V10.6706C4.25 11.0848 4.58579 11.4206 5 11.4206C5.41421 11.4206 5.75 11.0848 5.75 10.6706V9.29823C5.75 8.51898 5.87563 7.74483 6.12205 7.00558L6.87334 4.75168C6.92035 4.61068 7.07635 4.53832 7.21436 4.59352C7.76703 4.81459 8.09121 5.39067 7.99335 5.97782L7.86507 6.74749C7.80231 7.12405 7.89607 7.46055 8.01207 7.71527C8.12755 7.96883 8.28565 8.18678 8.41663 8.35026C8.51771 8.47643 8.81379 8.94609 8.30364 10.2215L8.30095 10.2282L8.2984 10.235L8.17836 10.5527C8.03198 10.9402 8.22743 11.373 8.61491 11.5193C9.0024 11.6657 9.43519 11.4703 9.58157 11.0828L9.69911 10.7717C10.2332 9.43251 10.1725 8.45829 9.82677 7.78279L15.4009 3.06625ZM3.73081 15.1242C3.73069 15.1242 3.73142 15.1221 3.7334 15.1178C3.73193 15.122 3.73094 15.1241 3.73081 15.1242ZM3.75 15.0864C3.76809 15.0555 3.79892 15.0094 3.84705 14.9503C3.96959 14.7999 4.1665 14.6114 4.4301 14.4269C4.95882 14.0568 5.68663 13.75 6.5 13.75C6.91383 13.75 7.30634 13.7989 7.66609 13.875C8.09966 13.9666 8.49795 14.0685 8.9126 14.1746C9.22664 14.2549 9.55007 14.3377 9.90532 14.4202C10.6792 14.5999 11.5018 14.75 12.3537 14.75C12.6506 14.75 12.9132 14.8658 13.0638 15.0123C13.1958 15.1407 13.2281 15.2664 13.1833 15.4147C13.0815 15.752 12.9151 15.988 12.6603 16.1175C12.5173 16.1901 12.3086 16.25 12 16.25L9 16.25C8.58579 16.25 8.25 16.5858 8.25 17C8.25 17.4142 8.58579 17.75 9 17.75H12C12.4478 17.75 12.8489 17.6722 13.2008 17.52L19.4019 16.9107C19.8562 16.866 20.25 17.223 20.25 17.6795C20.25 18.064 19.9673 18.3899 19.5867 18.4443L13.9467 19.25H3.75L3.75 15.0864ZM14.6114 15.8742L14.6193 15.8481C14.849 15.0869 14.5824 14.3969 14.1096 13.937C13.6552 13.4951 13.0068 13.25 12.3537 13.25C11.6709 13.25 10.9779 13.1294 10.2447 12.9591C9.96649 12.8945 9.66125 12.8169 9.34717 12.7371L9.34707 12.737C8.89018 12.6209 8.41458 12.5001 7.97631 12.4074C7.52874 12.3128 7.03164 12.25 6.5 12.25C5.31337 12.25 4.29118 12.6932 3.5699 13.1981C3.2085 13.4511 2.90541 13.7313 2.6842 14.0028C2.57394 14.1381 2.47439 14.283 2.39902 14.4322C2.33006 14.5686 2.25 14.7692 2.25 15V20C2.25 20.1989 2.32902 20.3897 2.46967 20.5303C2.61032 20.671 2.80109 20.75 3 20.75H14C14.0355 20.75 14.0709 20.7475 14.1061 20.7425L19.7988 19.9292C20.9184 19.7693 21.75 18.8104 21.75 17.6795C21.75 16.3366 20.5917 15.2865 19.2552 15.4178L14.6114 15.8742Z" fill="#262626"/>
</svg>
