<svg width="24" height="24" viewBox="0 0 24 24" fill="none" xmlns="http://www.w3.org/2000/svg">
<path fill-rule="evenodd" clip-rule="evenodd" d="M15.9313 2.98018C15.7522 2.90853 15.5481 2.94165 15.4009 3.06625L9.82677 7.78279C10.1725 8.45829 10.2332 9.43251 9.69911 10.7717L9.58157 11.0828C9.43519 11.4703 9.0024 11.6657 8.61491 11.5193C8.22743 11.373 8.03198 10.9402 8.17836 10.5527L8.30095 10.2282L8.30364 10.2215C8.81379 8.94609 8.51771 8.47643 8.41663 8.35026C8.28565 8.18679 8.12755 7.96884 8.01207 7.71527C7.89607 7.46055 7.80231 7.12405 7.86507 6.74749L7.99335 5.97782C8.09121 5.39067 7.76703 4.81459 7.21436 4.59352C7.07635 4.53832 6.92035 4.61068 6.87334 4.75168L6.12205 7.00558C5.87563 7.74483 5.75 8.51898 5.75 9.29823V10.6706C5.75 11.0848 5.41421 11.4206 5 11.4206C4.58579 11.4206 4.25 11.0848 4.25 10.6706V9.29823C4.25 8.35776 4.40162 7.42344 4.69902 6.53123L5.45032 4.27734C5.77025 3.31756 6.83211 2.82508 7.77144 3.20081C8.94029 3.66835 9.64123 4.86284 9.49053 6.10237L14.4319 1.92117C15.0029 1.43807 15.7939 1.3097 16.4884 1.58746C17.0473 1.81105 17.4359 2.24151 17.626 2.74198L17.7038 2.67068C18.4276 2.00721 19.5212 1.95333 20.3067 2.54245C21.2739 3.26783 21.4018 4.67035 20.5818 5.5587L16.228 10.2754L16.8604 10.5915C17.2884 10.8056 17.6532 11.1276 17.9187 11.5258L18.2881 12.08C18.5893 12.5318 18.75 13.0625 18.75 13.6054V13.7811C18.75 14.1953 18.4142 14.5311 18 14.5311C17.5858 14.5311 17.25 14.1953 17.25 13.7811V13.6054C17.25 13.3587 17.177 13.1174 17.0401 12.9121L16.6706 12.3578C16.5499 12.1769 16.3841 12.0305 16.1895 11.9332L14.6646 11.1707C14.4537 11.0653 14.3046 10.8668 14.2622 10.6348C14.2198 10.4029 14.289 10.1645 14.4489 9.99119L19.4796 4.54128C19.6968 4.30601 19.6629 3.93456 19.4067 3.74245C19.1987 3.58643 18.909 3.6007 18.7174 3.77641L13.5068 8.55276C13.2061 8.82837 12.7403 8.81318 12.4583 8.51858C12.1762 8.22398 12.1813 7.75797 12.4697 7.46957L16.1063 3.83293C16.371 3.56826 16.2788 3.11919 15.9313 2.98018ZM3.73081 15.1242C3.73069 15.1242 3.73142 15.1221 3.7334 15.1178C3.73193 15.122 3.73094 15.1241 3.73081 15.1242ZM3.84705 14.9503C3.79892 15.0094 3.76809 15.0555 3.75 15.0864L3.75 19.25H13.9467L19.5867 18.4443C19.9673 18.3899 20.25 18.064 20.25 17.6795C20.25 17.223 19.8562 16.866 19.4019 16.9107L13.2008 17.52C12.8489 17.6722 12.4478 17.75 12 17.75H9C8.58579 17.75 8.25 17.4142 8.25 17C8.25 16.5858 8.58579 16.25 9 16.25L12 16.25C12.3086 16.25 12.5173 16.1901 12.6603 16.1175C12.9151 15.988 13.0815 15.752 13.1833 15.4147C13.2281 15.2664 13.1958 15.1407 13.0638 15.0123C12.9132 14.8658 12.6506 14.75 12.3537 14.75C11.5018 14.75 10.6792 14.5999 9.90532 14.4202C9.55007 14.3377 9.22664 14.2549 8.9126 14.1746C8.49795 14.0685 8.09966 13.9666 7.66609 13.875C7.30634 13.7989 6.91383 13.75 6.5 13.75C5.68663 13.75 4.95882 14.0568 4.4301 14.4269C4.1665 14.6114 3.96959 14.7999 3.84705 14.9503ZM14.6193 15.8481L14.6114 15.8742L19.2552 15.4178C20.5917 15.2865 21.75 16.3366 21.75 17.6795C21.75 18.8104 20.9184 19.7693 19.7988 19.9292L14.1061 20.7425C14.0709 20.7475 14.0355 20.75 14 20.75H3C2.80109 20.75 2.61032 20.671 2.46967 20.5303C2.32902 20.3897 2.25 20.1989 2.25 20V15C2.25 14.7692 2.33006 14.5686 2.39902 14.4322C2.47439 14.283 2.57394 14.1381 2.6842 14.0028C2.90541 13.7313 3.2085 13.4511 3.5699 13.1981C4.29118 12.6932 5.31337 12.25 6.5 12.25C7.03164 12.25 7.52874 12.3128 7.97631 12.4074C8.41458 12.5001 8.89018 12.6209 9.34707 12.737L9.34717 12.7371C9.66125 12.8169 9.96649 12.8945 10.2447 12.9591C10.9779 13.1294 11.6709 13.25 12.3537 13.25C13.0068 13.25 13.6552 13.4951 14.1096 13.937C14.5824 14.3969 14.849 15.0869 14.6193 15.8481Z" fill="#23262A"/>
</svg>
