<svg width="24" height="24" viewBox="0 0 24 24" fill="none" xmlns="http://www.w3.org/2000/svg">
<path fill-rule="evenodd" clip-rule="evenodd" d="M10.2582 6.43516C10.213 6.47342 10.1828 6.52649 10.1731 6.58491L10.1369 6.8021C10.1285 6.85222 10.1406 6.90378 10.1724 6.94343C10.9267 7.88484 11.1032 9.27074 10.3982 11.043L10.251 11.4327L10.0473 11.822C9.97238 11.9653 10.0511 12.1412 10.2082 12.1794C10.2802 12.1969 10.3492 12.2134 10.4143 12.2285C11.1273 12.3941 11.7555 12.5 12.3537 12.5C13.1849 12.5 14.0263 12.8097 14.6325 13.3993C15.0065 13.7631 15.2928 14.2439 15.4036 14.7926C15.4309 14.9277 15.5518 15.0281 15.689 15.0147L17.7743 14.8097C17.9023 14.7972 17.9999 14.6895 17.9999 14.5609V13.7811V13.6054C17.9999 13.2106 17.883 12.8246 17.664 12.496L17.2945 11.9418C17.1014 11.6522 16.8361 11.418 16.5248 11.2624L15.2974 10.6487C15.1485 10.5742 15.1126 10.3778 15.2255 10.2555L20.0305 5.04999C20.5491 4.48818 20.4683 3.60119 19.8566 3.14245C19.3598 2.76988 18.6682 2.80395 18.2104 3.22355L12.9999 7.9999L16.6365 4.36326C17.2819 3.71786 17.0571 2.62281 16.2097 2.28382C15.7729 2.10912 15.2754 2.18986 14.9163 2.49371L10.2582 6.43516ZM8.49047 11.5624C8.43785 11.6629 8.32412 11.7152 8.21319 11.6912L8.13142 11.6736C7.63993 11.5697 7.09054 11.5 6.5 11.5C6.08646 11.5 5.6914 11.5464 5.31887 11.6268C5.15741 11.6617 5 11.542 5 11.3768V10.6706V9.29823C5 8.43837 5.13862 7.58414 5.41053 6.7684L6.16183 4.51451C6.3453 3.96412 6.95423 3.6817 7.4929 3.89717C8.37282 4.24913 8.88895 5.16631 8.73315 6.10112L8.60487 6.87079C8.54448 7.23313 8.77225 7.59463 9.00194 7.88131C9.32141 8.28006 9.5773 9.05676 9 10.5L8.87997 10.8177L8.49047 11.5624ZM13 16.7861C13.4961 16.534 13.7626 16.091 13.9013 15.6314C14.0214 15.2335 13.922 14.8715 13.6927 14.5901C13.6599 14.55 13.6245 14.5114 13.5867 14.4746L13.5846 14.4726C13.2821 14.1796 12.8276 14 12.3537 14C11.2643 14 10.1944 13.7272 9.12811 13.4554L9.12807 13.4554C8.69218 13.3443 8.25691 13.2333 7.8212 13.1412C7.41754 13.0559 6.97274 13 6.5 13C4.5 13 3 14.5 3 15V20.5289C3 20.7935 3.20522 21.0119 3.4695 21.0253C5.0682 21.1066 10.4003 21.3365 14 21C15.6967 20.8414 18.0963 19.8794 19.1551 19.4246C19.2944 19.3648 19.439 19.3163 19.5835 19.2679C19.8116 19.1914 20.0395 19.1149 20.246 18.9941C20.7009 18.7279 21 18.2346 21 17.6795C21 16.7798 20.224 16.0763 19.3286 16.1642L14.6778 16.6212C14.5981 16.6291 14.5276 16.675 14.4842 16.7424C14.2514 17.1034 13.9204 17.4401 13.453 17.6777C13.0287 17.8932 12.5411 18 12 18L8.75 18C8.47386 18 8.25 17.7762 8.25 17.5C8.25 17.2239 8.47386 17 8.75 17L12 17C12.4083 17 12.7365 16.92 13 16.7861L13 16.7861Z" fill="#23262A"/>
</svg>
