<svg width="24" height="24" viewBox="0 0 24 24" fill="none" xmlns="http://www.w3.org/2000/svg">
<path d="M18.5844 14.7912C19.3393 14.5414 20.1228 14.9559 20.3986 15.6855C20.6701 16.4038 20.3808 17.2399 19.6914 17.5992L14.4129 20.3491C14.2225 20.4482 14.0112 20.4998 13.7963 20.4999L4.99953 20.4998C4.17132 20.4995 3.49981 19.8281 3.49981 18.9999L3.50023 16.2369C3.50043 14.4184 4.95036 12.9776 6.65554 12.9775C6.91032 12.9774 7.23978 12.9014 7.53153 12.8111C7.67146 12.7678 7.79281 12.7243 7.87876 12.6919C7.92113 12.6758 7.95468 12.6622 7.97706 12.6531C7.98825 12.6486 7.99795 12.6459 8.00318 12.6437C8.00554 12.6427 8.00826 12.6408 8.00826 12.6408L8.02277 12.6346L10.6858 11.5967C11.4507 11.2988 12.2751 11.7089 12.5595 12.4612C12.8226 13.1576 12.5564 13.9679 11.9018 14.3396L9.93257 15.4562C9.76392 15.5521 9.69634 15.7362 9.74331 15.9331C9.79018 16.128 9.92379 16.2387 10.0968 16.2387L14.213 16.2393L18.5844 14.7912ZM9.93845 2.8492C10.8711 3.3393 11.4661 4.38548 10.9771 5.3494L10.5589 6.17385C10.5076 6.2753 10.4931 6.39152 10.5165 6.50278L10.7441 7.58248L10.7442 7.58466C10.8546 8.12412 10.8939 8.56658 10.8426 8.95431C10.7893 9.35687 10.6426 9.67172 10.4357 9.96052C10.3689 10.0537 10.2945 10.1323 10.2272 10.197C10.22 10.2043 10.218 10.2165 10.2224 10.2258L10.5273 10.8594C10.4895 10.8718 10.451 10.8835 10.4133 10.8982L7.75111 11.9356L7.73189 11.9433L7.71484 11.9509C7.71163 11.9523 7.70559 11.9543 7.69731 11.9577C7.67957 11.9648 7.6506 11.9762 7.61351 11.9902C7.53846 12.0186 7.43181 12.0569 7.30958 12.0947C7.03658 12.1791 6.79481 12.2275 6.65559 12.2276C6.15415 12.2276 5.67265 12.3272 5.22945 12.5074L5.22951 10.5622C5.22953 10.2648 5.28224 9.96922 5.38588 9.69048L6.80643 5.86968C6.88372 5.662 6.98908 5.46502 7.11827 5.28482C7.46242 4.80504 8.28999 3.65146 8.69986 3.0828L8.76312 3.00681C8.91546 2.84207 9.11763 2.7605 9.29984 2.73527C9.51129 2.70607 9.73768 2.74382 9.93845 2.8492ZM21.5212 6.28807C21.734 6.65678 21.824 7.11092 21.7204 7.55892C21.6145 8.01676 21.3157 8.42746 20.8265 8.70987L15.2422 11.934L15.1829 11.966C15.5703 12.2526 16.105 12.3015 16.5492 12.0454L21.2015 9.35939C21.3 9.30253 21.3924 9.23884 21.4809 9.1733C21.6774 9.32102 21.8403 9.50681 21.9596 9.71334C22.1724 10.082 22.2629 10.537 22.1593 10.985C22.0532 11.4427 21.7539 11.8528 21.2649 12.1351L17.2917 14.4291L14.0901 15.4893L11.395 15.4892L12.2708 14.9925C13.2021 14.4645 13.5977 13.3686 13.3243 12.3895L13.2611 12.196L13.1727 11.9921C12.8161 11.2713 12.0998 10.7919 11.3088 10.7521L11.0989 10.3162C11.3381 9.96234 11.5188 9.5572 11.5857 9.0519C11.6525 8.54614 11.5975 8.01127 11.4794 7.43421L11.4777 7.42731L11.2827 6.50361L16.017 3.77021C16.5061 3.488 17.0114 3.43444 17.4607 3.57155C17.9003 3.70589 18.2489 4.01095 18.4617 4.3795C18.6745 4.74813 18.7644 5.20246 18.6609 5.65035C18.555 6.10808 18.256 6.51888 17.767 6.8013L13.8327 9.07278L13.7764 9.1256C14.1624 9.40115 14.6877 9.44515 15.1253 9.19251L18.142 7.45082C18.7965 7.07284 19.2357 6.49516 19.3921 5.81909C19.4158 5.71654 19.4301 5.61353 19.4402 5.5117C19.8113 5.38209 20.1815 5.37687 20.5202 5.48012C20.9599 5.61438 21.3083 5.91954 21.5212 6.28807Z" fill="#202733"/>
</svg>
