<svg width="24" height="24" viewBox="0 0 24 24" fill="none" xmlns="http://www.w3.org/2000/svg">
<path fill-rule="evenodd" clip-rule="evenodd" d="M14.4169 20H12.2229C12.0763 20 11.9317 19.9659 11.8006 19.9003L8 18L6.75 18V8.15629L9.33752 5.24533C9.73005 4.80373 10.367 4.67437 10.9007 4.92788C11.7006 5.3078 11.912 6.34903 11.3237 7.01085L13.3917 4.68436C13.7607 4.26921 14.3417 4.11392 14.8686 4.28957C15.8478 4.61598 16.1412 5.8588 15.4114 6.58868L14 8.00004L17.6217 5.82704C18.3445 5.39332 19.2839 5.70976 19.597 6.49248C19.8331 7.0827 19.6318 7.7578 19.111 8.12234L15 11L17.0489 11.2561C18.21 11.4013 19.1424 12.2834 19.3517 13.4346L19.7291 15.5103C19.8781 16.3295 19.3277 17.1121 18.5064 17.249C17.6802 17.3867 16.9025 16.8174 16.784 15.9882L16.5437 14.3057C16.518 14.1262 16.3732 13.9874 16.1928 13.9693L12.5995 13.61C12.0108 13.5511 11.5 14.0134 11.5 14.605V15.5945C11.5 16.11 11.8876 16.5431 12.4 16.6L14.5917 16.8436C15.3935 16.9326 16 17.6103 16 18.417C16 19.2913 15.2912 20 14.4169 20ZM5.25 9.00003L3.50001 9.00001C3.22386 9 3 9.22386 3 9.50001V17.5C3 17.7761 3.22386 18 3.5 18L5.25 18V9.00003Z" fill="#23262A"/>
</svg>
