<svg width="24" height="24" viewBox="0 0 24 24" fill="none" xmlns="http://www.w3.org/2000/svg">
<path fill-rule="evenodd" clip-rule="evenodd" d="M5.66323 8.25L8.77696 4.74706C9.39106 4.0562 10.3876 3.85382 11.2225 4.25042C11.2459 4.26155 11.2691 4.27304 11.2918 4.28489C11.6336 4.46255 11.9022 4.71942 12.0904 5.01943L12.8312 4.18608C13.3995 3.5467 14.2942 3.30753 15.1058 3.57806C15.1635 3.5973 15.2197 3.61861 15.2743 3.64187C16.0933 3.99069 16.5576 4.77699 16.5688 5.58413L17.2358 5.18392C18.3547 4.51257 19.8087 5.00239 20.2933 6.21393C20.339 6.32813 20.3741 6.44439 20.399 6.56149C20.5732 7.38126 20.2464 8.24303 19.5411 8.73677L17.0259 10.4974L17.1419 10.5119C17.2348 10.5236 17.3266 10.5388 17.417 10.5577C18.7737 10.8402 19.8385 11.9189 20.0896 13.3004L20.467 15.3761C20.481 15.453 20.4909 15.5298 20.4968 15.606C20.5859 16.7503 19.7867 17.7959 18.6297 17.9888C18.5521 18.0017 18.4748 18.0105 18.398 18.0153C17.246 18.0872 16.2084 17.2624 16.0416 16.0943L15.8406 14.6878L12.5249 14.3563C12.3777 14.3415 12.25 14.4571 12.25 14.605V15.5945C12.25 15.6028 12.2504 15.6111 12.2512 15.6192C12.2627 15.7415 12.3586 15.8408 12.4828 15.8546L14.6746 16.0981C14.8223 16.1146 14.9655 16.1445 15.103 16.1867C16.0656 16.4821 16.75 17.3767 16.75 18.417C16.75 18.4975 16.7459 18.5771 16.738 18.6555C16.6185 19.832 15.6249 20.75 14.4169 20.75H12.2229C11.9599 20.75 11.7005 20.6888 11.4652 20.5712C11.4652 20.5712 11.4652 20.5712 11.4652 20.5712L7.82295 18.75L3.5 18.75C3.13823 18.75 2.83628 18.4939 2.76563 18.153C2.75791 18.1158 2.75295 18.0776 2.75098 18.0386C2.75033 18.0258 2.75 18.0129 2.75 18V9C2.75 8.98398 2.7505 8.96808 2.75149 8.95231C2.7545 8.90437 2.76201 8.85765 2.77361 8.81256C2.85685 8.48905 3.15051 8.25 3.5 8.25H5.66323ZM13.9523 5.18263C14.122 4.99172 14.3891 4.92031 14.6314 5.00108C14.6877 5.01985 14.7391 5.04519 14.7852 5.07584C15.1081 5.29038 15.1747 5.76467 14.881 6.05835L13.4697 7.46971C13.4362 7.50319 13.4065 7.53913 13.3806 7.57698C13.1994 7.84193 13.2049 8.20036 13.4088 8.4616C13.438 8.49891 13.47 8.53279 13.5044 8.56311C13.7453 8.77536 14.1017 8.81367 14.3859 8.64316L18.0075 6.47016C18.3344 6.27406 18.7591 6.41714 18.9006 6.77102C18.914 6.80438 18.9242 6.83833 18.9315 6.87254C18.9824 7.11199 18.8869 7.3637 18.6809 7.50792L14.5699 10.3856C14.5381 10.4079 14.5085 10.4322 14.4811 10.4585C14.2892 10.6423 14.2067 10.9172 14.2721 11.1806C14.2814 11.2183 14.2935 11.2547 14.3082 11.2897C14.4107 11.5348 14.6376 11.7106 14.907 11.7442L16.9559 12.0004C17.0081 12.0069 17.0597 12.0155 17.1106 12.0261C17.8737 12.185 18.4726 12.7917 18.6138 13.5688L18.9912 15.6444C18.9959 15.6699 18.9991 15.6953 19.0011 15.7205C19.0306 16.0993 18.7661 16.4453 18.3831 16.5092C18.3574 16.5135 18.3318 16.5164 18.3064 16.5179C17.9251 16.5418 17.5817 16.2688 17.5265 15.8821L17.2861 14.1996C17.2117 13.6785 16.7912 13.2754 16.2674 13.223L12.6741 12.8637C11.6439 12.7607 10.75 13.5697 10.75 14.605V15.5945C10.75 15.6506 10.7526 15.7061 10.7578 15.761C10.8352 16.5839 11.4807 17.2525 12.3172 17.3454L14.5089 17.589C14.5617 17.5948 14.6128 17.6055 14.6619 17.6206C15.0056 17.7261 15.25 18.0455 15.25 18.417C15.25 18.4188 15.25 18.4206 15.25 18.4223C15.2471 18.88 14.8752 19.25 14.4169 19.25H12.2229C12.1928 19.25 12.163 19.243 12.136 19.2295L8.33541 17.3292C8.23127 17.2771 8.11643 17.25 8 17.25H6.75V9.28519L9.89807 5.7436C10.069 5.55126 10.3465 5.49492 10.5789 5.60534C10.6225 5.62602 10.662 5.65121 10.6974 5.68001C10.9449 5.88161 10.9874 6.26035 10.7632 6.51257L9.43944 8.00176C9.40504 8.04046 9.37538 8.08173 9.35041 8.12486C9.17563 8.42676 9.23084 8.8198 9.50173 9.06059C9.54043 9.09499 9.58169 9.12465 9.62482 9.14962C9.92672 9.32441 10.3198 9.2692 10.5606 8.99831L13.9523 5.18263ZM4.25 17.25V9.75H5.25V17.25H4.25Z" fill="#23262A"/>
</svg>
