<svg width="24" height="24" viewBox="0 0 24 24" fill="none" xmlns="http://www.w3.org/2000/svg">
<path d="M10.5947 11.3638C11.498 11.0119 12.4627 11.4993 12.793 12.3726C13.0975 13.1785 12.7922 14.1218 12.0244 14.5572L10.0557 15.6724C10.0155 15.6953 9.99948 15.7196 9.99023 15.7437C9.97834 15.7751 9.97418 15.8223 9.98633 15.8736C9.99857 15.9249 10.0215 15.9573 10.0371 15.9713C10.0458 15.9789 10.0587 15.9888 10.0967 15.9888H14.1709L18.5059 14.5533C19.3965 14.2586 20.3128 14.751 20.6328 15.5972C20.9463 16.4273 20.6145 17.3999 19.8066 17.8209L14.5283 20.5699C14.3025 20.6874 14.0517 20.7496 13.7959 20.7496H5C4.0335 20.7496 3.25 19.9661 3.25 18.9996V16.2369C3.25023 14.285 4.80746 12.7272 6.65527 12.7271C6.87151 12.7271 7.17144 12.6602 7.45703 12.5718C7.59109 12.5304 7.70769 12.4887 7.79004 12.4576C7.83096 12.4421 7.86393 12.4299 7.88477 12.4215C7.89499 12.4173 7.90276 12.4135 7.90723 12.4117C7.90914 12.4109 7.91048 12.41 7.91113 12.4097L7.92188 12.4058L7.93164 12.4019L10.5947 11.3638ZM11.1396 12.7613L8.47656 13.7994C8.46853 13.8027 8.45837 13.8072 8.44629 13.8121C8.4162 13.8242 8.37352 13.8412 8.32129 13.8609C8.217 13.9003 8.07028 13.9529 7.90039 14.0054C7.57749 14.1053 7.10274 14.2271 6.65527 14.2271C5.66333 14.2272 4.75022 15.0857 4.75 16.2369V18.9996C4.75 19.1376 4.86193 19.2496 5 19.2496H13.7959C13.8078 19.2496 13.8216 19.2463 13.8359 19.2388L19.1133 16.4908C19.2106 16.44 19.2894 16.2867 19.2295 16.1275C19.1743 15.9818 19.0534 15.9532 18.9775 15.9781L14.5293 17.4507L14.415 17.4888H10.0967C9.23163 17.4888 8.68021 16.8622 8.52734 16.2222C8.37531 15.5844 8.57897 14.7858 9.31641 14.3677L11.2842 13.2525C11.3759 13.2004 11.4464 13.0532 11.3896 12.9029C11.362 12.83 11.3154 12.7868 11.2715 12.7662C11.2287 12.7461 11.1842 12.744 11.1396 12.7613ZM9.26562 2.48786C9.49583 2.45609 9.73831 2.48814 9.96094 2.58356L10.0557 2.62751L10.2402 2.73395C11.1433 3.30172 11.7383 4.40166 11.2012 5.46149L10.7822 6.28571C10.7565 6.33642 10.7491 6.39509 10.7607 6.45075L10.7725 6.50837L15.8916 3.55426C16.4359 3.24003 17.0123 3.17366 17.5332 3.33258C18.0396 3.48721 18.4365 3.83674 18.6777 4.25446C18.7689 4.41232 18.8393 4.58513 18.8867 4.76618C19.2958 4.62957 19.7098 4.62366 20.0938 4.74079C20.6002 4.89545 20.9971 5.24583 21.2383 5.66364C21.4794 6.08144 21.5842 6.59993 21.4648 7.11579C21.3743 7.50671 21.1615 7.86111 20.8389 8.14704C20.9722 8.27874 21.0864 8.42646 21.1777 8.58454C21.419 9.0024 21.5237 9.52166 21.4043 10.0377C21.2814 10.5681 20.9358 11.034 20.3916 11.3482L16.1914 13.773C15.8327 13.9799 15.3741 13.8572 15.167 13.4986C14.96 13.14 15.083 12.6814 15.4414 12.4742L19.6416 10.0494C19.855 9.92618 19.9216 9.7928 19.9434 9.6988C19.9684 9.59016 19.9501 9.45782 19.8789 9.33454C19.8077 9.21133 19.7023 9.12887 19.5957 9.09626C19.5034 9.06815 19.3548 9.06009 19.1416 9.18317L14.8721 11.648C14.5134 11.8549 14.0547 11.7322 13.8477 11.3736C13.6406 11.015 13.7637 10.5564 14.1221 10.3492L15.3633 9.63239L19.7021 7.12751C19.9155 7.0043 19.9822 6.87093 20.0039 6.77692C20.0288 6.66847 20.0104 6.5367 19.9395 6.41364C19.8683 6.29035 19.7628 6.20799 19.6562 6.17536C19.564 6.14719 19.4155 6.13815 19.2021 6.2613L14.8613 8.76813C14.859 8.76948 14.8559 8.76974 14.8535 8.77106L13.9062 9.31891C13.5476 9.52575 13.0889 9.40305 12.8818 9.0445C12.6748 8.68591 12.7978 8.2273 13.1562 8.02008L14.1055 7.47126C14.1072 7.47024 14.1096 7.46933 14.1113 7.46833L17.1436 5.71735C17.3553 5.59449 17.4217 5.46241 17.4434 5.36872C17.4684 5.26008 17.4501 5.12775 17.3789 5.00446C17.3077 4.88124 17.2023 4.79879 17.0957 4.76618C17.0034 4.73807 16.8548 4.73001 16.6416 4.85309L11.0752 8.06598C11.1146 8.3802 11.1261 8.66721 11.0957 8.9361C11.0466 9.37027 10.9008 9.71868 10.6885 10.0338C10.5791 10.196 10.4547 10.3262 10.3535 10.4234L10.127 10.6412C9.82827 10.9277 9.35327 10.9182 9.06641 10.6197C8.77941 10.321 8.78922 9.84517 9.08789 9.55817L9.31348 9.34235C9.38307 9.27548 9.42215 9.23013 9.44531 9.19587C9.53667 9.06024 9.58619 8.93758 9.60547 8.76715C9.62699 8.57617 9.61341 8.29473 9.52051 7.83942L9.29297 6.76032C9.21077 6.37017 9.264 5.96358 9.44434 5.60798L9.86328 4.78376C9.90734 4.69666 9.91877 4.58229 9.85254 4.43512C9.79982 4.31816 9.6963 4.18429 9.5332 4.06501C9.09621 4.67236 8.43288 5.59628 8.13379 6.01325C8.0694 6.10308 8.01814 6.20148 7.97949 6.30524L6.55664 10.1265C6.50489 10.2658 6.47852 10.4135 6.47852 10.5621V10.9996C6.47852 11.4138 6.14273 11.7506 5.72852 11.7506C5.31464 11.7504 4.97979 11.4144 4.97949 11.0006V10.5621C4.97953 10.2349 5.03731 9.90975 5.15137 9.60309L6.57324 5.7818C6.6583 5.55334 6.77382 5.33748 6.91602 5.13923C7.26019 4.65941 8.08809 3.50487 8.49805 2.9361L8.5791 2.83649C8.77843 2.62061 9.03966 2.51918 9.26562 2.48786Z" fill="#202733"/>
</svg>
