<svg width="24" height="24" viewBox="0 0 24 24" fill="none" xmlns="http://www.w3.org/2000/svg">
<path fill-rule="evenodd" clip-rule="evenodd" d="M10.75 5C10.75 4.30964 11.3096 3.75 12 3.75C12.6904 3.75 13.25 4.30964 13.25 5C13.25 5.69036 12.6904 6.25 12 6.25C11.3096 6.25 10.75 5.69036 10.75 5ZM12 2.25C10.4812 2.25 9.25 3.48122 9.25 5C9.25 6.51878 10.4812 7.75 12 7.75C13.5188 7.75 14.75 6.51878 14.75 5C14.75 3.48122 13.5188 2.25 12 2.25ZM9 8.25C8.58579 8.25 8.25 8.58579 8.25 9V16C8.25 16.4142 8.58579 16.75 9 16.75H9.75V21C9.75 21.4142 10.0858 21.75 10.5 21.75C10.9142 21.75 11.25 21.4142 11.25 21V16C11.25 15.5858 10.9142 15.25 10.5 15.25H9.75V9.75H14.25V15.25H13.5C13.0858 15.25 12.75 15.5858 12.75 16V21C12.75 21.4142 13.0858 21.75 13.5 21.75C13.9142 21.75 14.25 21.4142 14.25 21V16.75H15C15.4142 16.75 15.75 16.4142 15.75 16V9C15.75 8.58579 15.4142 8.25 15 8.25H9Z" fill="#23262A"/>
</svg>
