<svg width="24" height="24" viewBox="0 0 24 24" fill="none" xmlns="http://www.w3.org/2000/svg">
<path fill-rule="evenodd" clip-rule="evenodd" d="M12 2.25C10.4812 2.25 9.25 3.48122 9.25 5C9.25 6.51878 10.4812 7.75 12 7.75C13.5188 7.75 14.75 6.51878 14.75 5C14.75 3.48122 13.5188 2.25 12 2.25ZM8.25 9C8.25 8.58579 8.58579 8.25 9 8.25H15C15.4142 8.25 15.75 8.58579 15.75 9V16C15.75 16.4142 15.4142 16.75 15 16.75H14.25V21C14.25 21.4142 13.9142 21.75 13.5 21.75C13.0858 21.75 12.75 21.4142 12.75 21V16.75H11.25V21C11.25 21.4142 10.9142 21.75 10.5 21.75C10.0858 21.75 9.75 21.4142 9.75 21V16.75H9C8.58579 16.75 8.25 16.4142 8.25 16V9Z" fill="#23262A"/>
</svg>
