<svg width="24" height="24" viewBox="0 0 24 24" fill="none" xmlns="http://www.w3.org/2000/svg">
<path fill-rule="evenodd" clip-rule="evenodd" d="M20 6.25C20.4142 6.25 20.75 6.58579 20.75 7V17C20.75 17.4142 20.4142 17.75 20 17.75C19.5858 17.75 19.25 17.4142 19.25 17V7C19.25 6.58579 19.5858 6.25 20 6.25ZM10.3547 14.6115C10.289 14.6585 10.25 14.7342 10.25 14.815V17C10.25 17.2809 10.407 17.5383 10.6568 17.6669C10.9066 17.7954 11.2073 17.7736 11.4359 17.6103L18.4359 12.6103C18.633 12.4695 18.75 12.2422 18.75 12C18.75 11.7578 18.633 11.5305 18.4359 11.3897L11.4359 6.3897C11.2073 6.22641 10.9066 6.20457 10.6568 6.33313C10.407 6.46168 10.25 6.71906 10.25 7V9.18506C10.25 9.2658 10.289 9.34156 10.3547 9.38849L12.0172 10.576C12.4771 10.9045 12.75 11.4348 12.75 12C12.75 12.5652 12.4771 13.0955 12.0172 13.424L10.3547 14.6115ZM4.43593 6.3897C4.20732 6.22641 3.90662 6.20457 3.65681 6.33313C3.40701 6.46168 3.25 6.71906 3.25 7V17C3.25 17.2809 3.40701 17.5383 3.65681 17.6669C3.90662 17.7954 4.20732 17.7736 4.43593 17.6103L11.4359 12.6103C11.633 12.4695 11.75 12.2422 11.75 12C11.75 11.7578 11.633 11.5305 11.4359 11.3897L4.43593 6.3897Z" fill="#23262A"/>
</svg>
