<svg width="24" height="24" viewBox="0 0 24 24" fill="none" xmlns="http://www.w3.org/2000/svg">
<path fill-rule="evenodd" clip-rule="evenodd" d="M4 6.25C4.41421 6.25 4.75 6.58579 4.75 7V17C4.75 17.4142 4.41421 17.75 4 17.75C3.58579 17.75 3.25 17.4142 3.25 17V7C3.25 6.58579 3.58579 6.25 4 6.25ZM13.3432 6.33313C13.593 6.46168 13.75 6.71906 13.75 7V9C13.75 9.41422 13.4142 9.75 13 9.75C12.5858 9.75 12.25 9.41422 12.25 9V8.45739L7.29035 12L12.25 15.5426V15C12.25 14.5858 12.5858 14.25 13 14.25C13.4142 14.25 13.75 14.5858 13.75 15V17C13.75 17.2809 13.593 17.5383 13.3432 17.6669C13.0934 17.7954 12.7927 17.7736 12.5641 17.6103L5.56407 12.6103C5.36697 12.4695 5.25 12.2422 5.25 12C5.25 11.7578 5.36697 11.5305 5.56407 11.3897L12.5641 6.3897C12.7927 6.22641 13.0934 6.20457 13.3432 6.33313ZM20.75 7C20.75 6.71906 20.593 6.46168 20.3432 6.33313C20.0934 6.20457 19.7927 6.22641 19.5641 6.3897L12.5641 11.3897C12.367 11.5305 12.25 11.7578 12.25 12C12.25 12.2422 12.367 12.4695 12.5641 12.6103L19.5641 17.6103C19.7927 17.7736 20.0934 17.7954 20.3432 17.6669C20.593 17.5383 20.75 17.2809 20.75 17V7ZM19.25 15.5426L14.2903 12L19.25 8.45739V15.5426Z" fill="#23262A"/>
</svg>
