<svg width="24" height="24" viewBox="0 0 24 24" fill="none" xmlns="http://www.w3.org/2000/svg">
<path fill-rule="evenodd" clip-rule="evenodd" d="M4 6.25C3.58579 6.25 3.25 6.58579 3.25 7V17C3.25 17.4142 3.58579 17.75 4 17.75C4.41421 17.75 4.75 17.4142 4.75 17V7C4.75 6.58579 4.41421 6.25 4 6.25ZM13.75 9.31371L11.9828 10.576C11.5229 10.9045 11.25 11.4348 11.25 12C11.25 12.5652 11.5229 13.0955 11.9828 13.424L13.75 14.6863V17C13.75 17.2809 13.593 17.5383 13.3432 17.6669C13.0934 17.7954 12.7927 17.7736 12.5641 17.6103L5.56407 12.6103C5.36697 12.4695 5.25 12.2422 5.25 12C5.25 11.7578 5.36697 11.5305 5.56407 11.3897L12.5641 6.3897C12.7927 6.22641 13.0934 6.20457 13.3432 6.33313C13.593 6.46168 13.75 6.71906 13.75 7V9.31371ZM19.5641 6.3897C19.7927 6.22641 20.0934 6.20457 20.3432 6.33313C20.593 6.46168 20.75 6.71906 20.75 7V17C20.75 17.2809 20.593 17.5383 20.3432 17.6669C20.0934 17.7954 19.7927 17.7736 19.5641 17.6103L12.5641 12.6103C12.367 12.4695 12.25 12.2422 12.25 12C12.25 11.7578 12.367 11.5305 12.5641 11.3897L19.5641 6.3897Z" fill="#23262A"/>
</svg>
