<svg width="24" height="24" viewBox="0 0 24 24" fill="none" xmlns="http://www.w3.org/2000/svg">
<path d="M12.0303 3.08301C12.7306 3.08301 13.4132 3.15958 14.0703 3.30371C14.2228 3.33716 14.1962 3.53125 14.04 3.53125C12.8746 3.53125 11.9173 4.41718 11.8018 5.55078L11.79 5.78027C11.79 6.23766 11.9282 6.6626 12.1631 7.01758C12.2192 7.10242 12.2245 7.21328 12.168 7.29785C11.7082 7.98803 11.6653 8.87606 12.0566 9.60742C12.4474 10.3372 13.2086 10.7959 14.04 10.7959H15.8838C17.1252 10.7951 18.1321 9.78853 18.1328 8.54688V8.54492C18.1327 8.418 18.2306 8.30788 18.3574 8.30762H20.3066C20.4283 8.30755 20.544 8.36793 20.5967 8.47754C21.1936 9.72036 21.5303 11.1121 21.5303 12.583C21.5303 17.8297 17.277 22.083 12.0303 22.083C6.78368 22.0829 2.53027 17.8296 2.53027 12.583C2.53027 7.33638 6.78368 3.08314 12.0303 3.08301ZM10.9482 12.623C10.6554 12.3303 10.1806 12.3304 9.8877 12.623C9.16282 13.3474 7.98745 13.3476 7.2627 12.623C6.96985 12.3302 6.49504 12.3303 6.20215 12.623C5.90962 12.916 5.90941 13.3908 6.20215 13.6836C7.51269 14.994 9.63758 14.9938 10.9482 13.6836C11.2409 13.3907 11.2409 12.9159 10.9482 12.623ZM17.8594 12.623C17.5665 12.3303 17.0917 12.3303 16.7988 12.623C16.074 13.3476 14.8987 13.3475 14.1738 12.623C13.881 12.3302 13.4062 12.3303 13.1133 12.623C12.8206 12.916 12.8204 13.3908 13.1133 13.6836C14.4239 14.9939 16.5488 14.9939 17.8594 13.6836C18.152 13.3908 18.1519 12.9159 17.8594 12.623ZM15.8828 5.03125C16.1592 5.03142 16.4135 5.18405 16.5439 5.42773C16.6742 5.6714 16.6599 5.96726 16.5068 6.19727L15.4414 7.7959H15.8828C16.2967 7.79615 16.6326 8.13199 16.6328 8.5459C16.6328 8.64938 16.6122 8.74819 16.5742 8.83789C16.5362 8.92758 16.4809 9.00831 16.4131 9.07617C16.2942 9.19503 16.1355 9.27406 15.959 9.29199C15.9339 9.29454 15.9085 9.29588 15.8828 9.2959H14.04C13.798 9.2959 13.5734 9.1789 13.4336 8.98633C13.4136 8.95882 13.3952 8.92989 13.3789 8.89941C13.3626 8.86893 13.3487 8.83755 13.3369 8.80566C13.2662 8.61441 13.2763 8.40227 13.3652 8.21875C13.38 8.18827 13.3969 8.15855 13.416 8.12988L14.4814 6.53125H14.04C13.6258 6.53125 13.29 6.19546 13.29 5.78125C13.2902 5.36718 13.6259 5.03125 14.04 5.03125H15.8828ZM20.3057 2.08301C20.5865 2.08313 20.8442 2.24053 20.9727 2.49023C21.1008 2.73978 21.0789 3.04015 20.916 3.26855L19.46 5.30762H20.3057C20.7196 5.30779 21.0555 5.64369 21.0557 6.05762C21.0557 6.47172 20.7197 6.80744 20.3057 6.80762H18.002C17.8966 6.80762 17.7944 6.78583 17.7012 6.74512C17.6081 6.70447 17.524 6.6449 17.4541 6.57031C17.4306 6.54527 17.4087 6.5186 17.3887 6.49023C17.3689 6.46216 17.351 6.43245 17.335 6.40137C17.2868 6.30774 17.2593 6.20696 17.2529 6.10547C17.2444 5.97005 17.273 5.83335 17.3369 5.71094C17.3529 5.68034 17.3712 5.65065 17.3916 5.62207L18.8486 3.58301H18.002C17.5877 3.58301 17.252 3.24722 17.252 2.83301C17.252 2.41879 17.5877 2.08301 18.002 2.08301H20.3057Z" fill="#202733"/>
</svg>
