<svg width="24" height="24" viewBox="0 0 24 24" fill="none" xmlns="http://www.w3.org/2000/svg">
<path d="M12.0303 3.35547C12.4444 3.35547 12.7801 3.69137 12.7803 4.10547C12.7803 4.51968 12.4445 4.85547 12.0303 4.85547C7.73347 4.85555 4.25023 8.33897 4.25 12.6357C4.25 16.9327 7.73333 20.4159 12.0303 20.416C16.3273 20.416 19.8105 16.9328 19.8105 12.6357C19.8105 11.671 19.6352 10.7489 19.3154 9.89844C19.1698 9.51078 19.3663 9.07739 19.7539 8.93164C20.1415 8.78614 20.5739 8.98267 20.7197 9.37012C21.102 10.3868 21.3105 11.4879 21.3105 12.6357C21.3105 17.7612 17.1557 21.916 12.0303 21.916C6.90491 21.9159 2.75 17.7611 2.75 12.6357C2.75023 7.51055 6.90504 3.35555 12.0303 3.35547ZM9.87988 12.79C10.1727 12.4972 10.6475 12.4973 10.9404 12.79C11.2333 13.0829 11.2333 13.5577 10.9404 13.8506C9.62972 15.1608 7.50487 15.1611 6.19434 13.8506C5.9016 13.5578 5.90181 13.0829 6.19434 12.79C6.48722 12.4972 6.96199 12.4972 7.25488 12.79C7.97963 13.5148 9.15496 13.5145 9.87988 12.79ZM16.791 12.79C17.0839 12.4972 17.5587 12.4972 17.8516 12.79C18.1443 13.0829 18.1444 13.5577 17.8516 13.8506C16.5409 15.161 14.4161 15.161 13.1055 13.8506C12.8126 13.5577 12.8127 13.0829 13.1055 12.79C13.3984 12.4971 13.8731 12.4971 14.166 12.79C14.8908 13.5147 16.0662 13.5146 16.791 12.79ZM15.6631 5.19824C15.9395 5.19839 16.1938 5.35102 16.3242 5.59473C16.4545 5.83841 16.4402 6.13424 16.2871 6.36426L15.2217 7.96289H15.6631C16.077 7.96311 16.4129 8.29896 16.4131 8.71289C16.4129 9.1268 16.077 9.46267 15.6631 9.46289H13.8203C13.5437 9.46289 13.2897 9.31025 13.1592 9.06641C13.0288 8.82264 13.043 8.52696 13.1963 8.29688L14.2617 6.69824H13.8203C13.4061 6.69824 13.0703 6.36246 13.0703 5.94824C13.0705 5.53418 13.4062 5.19824 13.8203 5.19824H15.6631ZM20.0859 2.25C20.3668 2.2501 20.6244 2.4075 20.7529 2.65723C20.8811 2.90679 20.8592 3.20713 20.6963 3.43555L19.2402 5.47461H20.0859C20.4999 5.47475 20.8357 5.81066 20.8359 6.22461C20.8359 6.63874 20.5 6.97447 20.0859 6.97461H17.7822C17.5013 6.97461 17.2438 6.81808 17.1152 6.56836C16.9867 6.31856 17.0086 6.01767 17.1719 5.78906L18.6289 3.75H17.7822C17.368 3.75 17.0322 3.41421 17.0322 3C17.0322 2.58579 17.368 2.25 17.7822 2.25H20.0859Z" fill="#202733"/>
</svg>
