<svg width="24" height="24" viewBox="0 0 24 24" fill="none" xmlns="http://www.w3.org/2000/svg">
<path d="M20 3.75C20.9665 3.75 21.75 4.5335 21.75 5.5V19.5C21.75 19.9142 21.4142 20.25 21 20.25C20.5858 20.25 20.25 19.9142 20.25 19.5V18.25H16.75V19.5C16.75 19.9142 16.4142 20.25 16 20.25C15.5858 20.25 15.25 19.9142 15.25 19.5V16.3311C14.0102 17.8006 12.5478 19.0857 10.9023 20.1328C10.8705 20.1531 10.8372 20.1697 10.8037 20.1846C10.7962 20.1879 10.7888 20.1913 10.7812 20.1943C10.7593 20.2033 10.7363 20.2081 10.7139 20.2148C10.6859 20.2232 10.6581 20.2322 10.6289 20.2373C10.625 20.238 10.6211 20.2386 10.6172 20.2393C10.5789 20.2453 10.54 20.25 10.5 20.25H2.5L2.49512 20.249C2.49218 20.249 2.48926 20.2491 2.48633 20.249C2.43922 20.2482 2.39323 20.2435 2.34863 20.2344C2.30107 20.2245 2.2546 20.2101 2.20996 20.1914C2.07449 20.1345 1.95916 20.0393 1.87793 19.9189C1.86411 19.8984 1.85174 19.8767 1.83984 19.8545L1.80859 19.792C1.80711 19.7885 1.80612 19.7848 1.80469 19.7812C1.78911 19.7427 1.7784 19.7033 1.76953 19.6641C1.7577 19.6112 1.75 19.5565 1.75 19.5C1.75 19.241 1.88136 19.0127 2.08105 18.8779C2.11437 18.8555 2.14992 18.8356 2.1875 18.8184C2.19689 18.814 2.20623 18.8096 2.21582 18.8057C7.411 16.666 11.4186 12.3723 13.1953 7.04199L13.25 6.87695V5.5C13.25 4.5335 14.0335 3.75 15 3.75C15.9665 3.75 16.75 4.5335 16.75 5.5V6.25H18.25V5.5C18.25 4.5335 19.0335 3.75 20 3.75ZM14.5371 7.75C12.9358 12.3709 9.77231 16.2491 5.64062 18.75H10.2773C13.5996 16.5784 16.0931 13.3475 17.3496 9.57812L17.959 7.75H14.5371ZM16.75 16.75H20.25V14.75H16.75V16.75ZM18.3291 11.25C18.0478 11.937 17.7269 12.6043 17.3701 13.25H20.25V11.25H18.3291ZM18.874 9.75H20.25V7.75H19.541L18.874 9.75ZM15 5.25C14.8619 5.25 14.75 5.36193 14.75 5.5V6.25H15.25V5.5C15.25 5.36193 15.1381 5.25 15 5.25ZM20 5.25C19.8619 5.25 19.75 5.36193 19.75 5.5V6.25H20.25V5.5C20.25 5.36193 20.1381 5.25 20 5.25Z" fill="#202733"/>
</svg>
