<svg width="24" height="24" viewBox="0 0 24 24" fill="none" xmlns="http://www.w3.org/2000/svg">
<path d="M13.9775 3.32475C14.3764 3.2131 14.7903 3.44595 14.9019 3.84483L15.1763 4.82499L15.7596 3.78823C15.9627 3.42724 16.42 3.29924 16.781 3.50235C17.142 3.70547 17.27 4.16276 17.0669 4.52376L16.4836 5.56043L17.4637 5.28615C17.8625 5.17451 18.2764 5.40738 18.388 5.80626C18.4997 6.20515 18.2668 6.61901 17.8679 6.73064L15.4434 7.40918L13.2826 11.2497L17.6893 11.2497L19.4696 9.46943C19.7625 9.17653 20.2373 9.17652 20.5302 9.46941C20.8231 9.7623 20.8232 10.2372 20.5303 10.5301L19.8106 11.2497H21C21.4142 11.2497 21.75 11.5855 21.75 11.9997C21.75 12.414 21.4142 12.7497 21 12.7497H19.8106L20.5303 13.4694C20.8232 13.7623 20.8231 14.2372 20.5302 14.5301C20.2373 14.823 19.7625 14.823 19.4696 14.5301L17.6893 12.7497H13.299L15.4941 16.5518L17.9263 17.2035C18.3264 17.3107 18.5638 17.7219 18.4566 18.122C18.3494 18.5221 17.9382 18.7595 17.5381 18.6524L16.5548 18.3889L17.1495 19.419C17.3566 19.7777 17.2337 20.2364 16.875 20.4435C16.5163 20.6506 16.0576 20.5277 15.8505 20.169L15.2559 19.1392L14.9925 20.122C14.8853 20.5221 14.474 20.7596 14.0739 20.6523C13.6738 20.5451 13.4364 20.1339 13.5436 19.7338L14.1952 17.3021L12.0084 13.5144L9.86379 17.3262L10.5423 19.7503C10.654 20.1492 10.4211 20.563 10.0222 20.6747C9.62336 20.7863 9.20949 20.5535 9.09784 20.1546L8.82362 19.1749L8.24056 20.2112C8.03745 20.5722 7.58015 20.7002 7.21915 20.4971C6.85815 20.294 6.73016 19.8367 6.93327 19.4757L7.51662 18.4389L6.53612 18.7133C6.13723 18.8249 5.72337 18.5921 5.61174 18.1932C5.5001 17.7943 5.73296 17.3804 6.13185 17.2688L8.55679 16.5901L10.7175 12.7497H6.31059L4.53034 14.5301C4.23745 14.823 3.76258 14.823 3.46968 14.5301C3.17678 14.2372 3.17677 13.7623 3.46966 13.4694L4.18931 12.7497H3C2.58579 12.7497 2.25 12.414 2.25 11.9997C2.25 11.5855 2.58579 11.2497 3 11.2497H4.18931L3.46966 10.5301C3.17677 10.2372 3.17678 9.7623 3.46968 9.46941C3.76258 9.17652 4.23745 9.17653 4.53034 9.46943L6.3106 11.2497L10.7009 11.2497L8.50572 7.44751L6.07397 6.79597C5.67386 6.68877 5.43642 6.27753 5.54362 5.87742C5.65082 5.47732 6.06207 5.23988 6.46217 5.34708L7.44508 5.61043L6.85048 4.58056C6.64337 4.22184 6.76628 3.76315 7.125 3.55604C7.48372 3.34893 7.94241 3.47184 8.14952 3.83056L8.74425 4.86066L9.00773 3.8774C9.11494 3.4773 9.5262 3.23987 9.9263 3.34708C10.3264 3.4543 10.5638 3.86556 10.4566 4.26565L9.80489 6.69774L11.9916 10.4853L14.1361 6.67374L13.4574 4.24915C13.3458 3.85027 13.5786 3.4364 13.9775 3.32475Z" fill="#23262A"/>
</svg>
