<svg xmlns="http://www.w3.org/2000/svg" width="24" height="24" viewBox="0 0 24 24" fill="none">
  <path fill-rule="evenodd" clip-rule="evenodd" d="M9 10.25C9.9665 10.25 10.75 11.0335 10.75 12C10.75 12.9665 9.9665 13.75 9 13.75C8.0335 13.75 7.25 12.9665 7.25 12C7.25 11.0335 8.0335 10.25 9 10.25ZM9 11.75C8.86193 11.75 8.75 11.8619 8.75 12C8.75 12.1381 8.86193 12.25 9 12.25C9.13807 12.25 9.25 12.1381 9.25 12C9.25 11.8619 9.13807 11.75 9 11.75Z" fill="#202733"/>
  <path fill-rule="evenodd" clip-rule="evenodd" d="M15 10.25C15.9665 10.25 16.75 11.0335 16.75 12C16.75 12.9665 15.9665 13.75 15 13.75C14.0335 13.75 13.25 12.9665 13.25 12C13.25 11.0335 14.0335 10.25 15 10.25ZM15 11.75C14.8619 11.75 14.75 11.8619 14.75 12C14.75 12.1381 14.8619 12.25 15 12.25C15.1381 12.25 15.25 12.1381 15.25 12C15.25 11.8619 15.1381 11.75 15 11.75Z" fill="#202733"/>
  <path fill-rule="evenodd" clip-rule="evenodd" d="M12 3.25C16.8325 3.25 20.75 7.16751 20.75 12C20.75 16.8325 16.8325 20.75 12 20.75C7.16751 20.75 3.25 16.8325 3.25 12C3.25 7.16751 7.16751 3.25 12 3.25ZM13 5H11V4.82031C8.923 5.10694 7.12693 6.27171 6 7.92969V10H5.03223C4.85015 10.6355 4.75 11.306 4.75 12C4.75 12.694 4.85015 13.3645 5.03223 14H6V16.0693C7.12688 17.7276 8.92277 18.892 11 19.1787V19H13V19.1787C15.0772 18.892 16.8731 17.7276 18 16.0693V14H18.9678C19.1498 13.3645 19.25 12.694 19.25 12C19.25 11.306 19.1498 10.6355 18.9678 10H18V7.92969C16.8731 6.27171 15.077 5.10694 13 4.82031V5Z" fill="#202733"/>
</svg>