<svg width="24" height="24" viewBox="0 0 24 24" fill="none" xmlns="http://www.w3.org/2000/svg">
<path fill-rule="evenodd" clip-rule="evenodd" d="M18.0303 18.5303C17.8897 18.671 17.6989 18.75 17.5 18.75C17.3011 18.75 17.1103 18.671 16.9697 18.5303L13.4697 15.0303C13.1768 14.7374 13.1768 14.2626 13.4697 13.9697C13.7626 13.6768 14.2374 13.6768 14.5303 13.9697L16.75 16.1893V6C16.75 5.58579 17.0858 5.25 17.5 5.25C17.9142 5.25 18.25 5.58579 18.25 6V16.1893L20.4697 13.9697C20.7626 13.6768 21.2374 13.6768 21.5303 13.9697C21.8232 14.2626 21.8232 14.7374 21.5303 15.0303L18.0303 18.5303ZM2.75 6.25C2.33579 6.25 2 6.58579 2 7C2 7.41421 2.33579 7.75 2.75 7.75L12.25 7.75C12.6642 7.75 13 7.41421 13 7C13 6.58579 12.6642 6.25 12.25 6.25L2.75 6.25ZM2.75 11.25C2.33579 11.25 2 11.5858 2 12C2 12.4142 2.33579 12.75 2.75 12.75L10.25 12.75C10.6642 12.75 11 12.4142 11 12C11 11.5858 10.6642 11.25 10.25 11.25H2.75ZM2 17C2 16.5858 2.33579 16.25 2.75 16.25H8.25C8.66421 16.25 9 16.5858 9 17C9 17.4142 8.66421 17.75 8.25 17.75H2.75C2.33579 17.75 2 17.4142 2 17Z" fill="#23262A"/>
</svg>
