<svg width="24" height="24" viewBox="0 0 24 24" fill="none" xmlns="http://www.w3.org/2000/svg">
<path fill-rule="evenodd" clip-rule="evenodd" d="M18.0303 5.46967C17.8897 5.32902 17.6989 5.25 17.5 5.25C17.3011 5.25 17.1103 5.32902 16.9697 5.46967L13.4697 8.96967C13.1768 9.26256 13.1768 9.73744 13.4697 10.0303C13.7626 10.3232 14.2374 10.3232 14.5303 10.0303L16.75 7.81066V18C16.75 18.4142 17.0858 18.75 17.5 18.75C17.9142 18.75 18.25 18.4142 18.25 18V7.81066L20.4697 10.0303C20.7626 10.3232 21.2374 10.3232 21.5303 10.0303C21.8232 9.73744 21.8232 9.26256 21.5303 8.96967L18.0303 5.46967ZM2.75 17.75C2.33579 17.75 2 17.4142 2 17C2 16.5858 2.33579 16.25 2.75 16.25L12.25 16.25C12.6642 16.25 13 16.5858 13 17C13 17.4142 12.6642 17.75 12.25 17.75L2.75 17.75ZM2.75 12.75C2.33579 12.75 2 12.4142 2 12C2 11.5858 2.33579 11.25 2.75 11.25L10.25 11.25C10.6642 11.25 11 11.5858 11 12C11 12.4142 10.6642 12.75 10.25 12.75H2.75ZM2 7C2 7.41421 2.33579 7.75 2.75 7.75H8.25C8.66421 7.75 9 7.41421 9 7C9 6.58579 8.66421 6.25 8.25 6.25H2.75C2.33579 6.25 2 6.58579 2 7Z" fill="#23262A"/>
</svg>
