<svg width="24" height="24" viewBox="0 0 24 24" fill="none" xmlns="http://www.w3.org/2000/svg">
<path fill-rule="evenodd" clip-rule="evenodd" d="M4 4C4.41421 4 4.75 4.33579 4.75 4.75V11.25H6.75C7.16421 11.25 7.5 11.5858 7.5 12C7.5 12.4142 7.16421 12.75 6.75 12.75H4.75V19.25C4.75 19.6642 4.41421 20 4 20C3.58579 20 3.25 19.6642 3.25 19.25V4.75C3.25 4.33579 3.58579 4 4 4ZM9.25 11.25C8.83579 11.25 8.5 11.5858 8.5 12C8.5 12.4142 8.83579 12.75 9.25 12.75H10.75C11.1642 12.75 11.5 12.4142 11.5 12C11.5 11.5858 11.1642 11.25 10.75 11.25H9.25ZM12.5 12C12.5 11.5858 12.8358 11.25 13.25 11.25H14.75C15.1642 11.25 15.5 11.5858 15.5 12C15.5 12.4142 15.1642 12.75 14.75 12.75H13.25C12.8358 12.75 12.5 12.4142 12.5 12ZM17.25 11.25C16.8358 11.25 16.5 11.5858 16.5 12C16.5 12.4142 16.8358 12.75 17.25 12.75H19.25V19.25C19.25 19.6642 19.5858 20 20 20C20.4142 20 20.75 19.6642 20.75 19.25V4.75C20.75 4.33579 20.4142 4 20 4C19.5858 4 19.25 4.33579 19.25 4.75V11.25H17.25Z" fill="#23262A"/>
</svg>
