<svg width="24" height="24" viewBox="0 0 24 24" fill="none" xmlns="http://www.w3.org/2000/svg">
<path fill-rule="evenodd" clip-rule="evenodd" d="M4.75 3.25C4.33579 3.25 4 3.58579 4 4C4 4.41421 4.33579 4.75 4.75 4.75H11.25V6.75C11.25 7.16421 11.5858 7.5 12 7.5C12.4142 7.5 12.75 7.16421 12.75 6.75V4.75H19.25C19.6642 4.75 20 4.41421 20 4C20 3.58579 19.6642 3.25 19.25 3.25H4.75ZM12 11.5C11.5858 11.5 11.25 11.1642 11.25 10.75V9.25C11.25 8.83579 11.5858 8.5 12 8.5C12.4142 8.5 12.75 8.83579 12.75 9.25V10.75C12.75 11.1642 12.4142 11.5 12 11.5ZM11.25 14.75C11.25 15.1642 11.5858 15.5 12 15.5C12.4142 15.5 12.75 15.1642 12.75 14.75V13.25C12.75 12.8358 12.4142 12.5 12 12.5C11.5858 12.5 11.25 12.8358 11.25 13.25V14.75ZM4.75 19.25H11.25V17.25C11.25 16.8358 11.5858 16.5 12 16.5C12.4142 16.5 12.75 16.8358 12.75 17.25V19.25H19.25C19.6642 19.25 20 19.5858 20 20C20 20.4142 19.6642 20.75 19.25 20.75H4.75C4.33579 20.75 4 20.4142 4 20C4 19.5858 4.33579 19.25 4.75 19.25Z" fill="#23262A"/>
</svg>
