<svg width="24" height="24" viewBox="0 0 24 24" fill="none" xmlns="http://www.w3.org/2000/svg">
<path fill-rule="evenodd" clip-rule="evenodd" d="M7.125 3.55629C7.48372 3.34919 7.94242 3.47209 8.14952 3.83081L11.1495 9.02697C11.3566 9.38569 11.2337 9.84438 10.875 10.0515C10.5163 10.2586 10.0576 10.1357 9.85048 9.77697L6.85048 4.58081C6.64338 4.22209 6.76628 3.7634 7.125 3.55629ZM3 12.75H9C9.41421 12.75 9.75 12.4142 9.75 12C9.75 11.5858 9.41421 11.25 9 11.25H3C2.58579 11.25 2.25 11.5858 2.25 12C2.25 12.4142 2.58579 12.75 3 12.75ZM21 11.25H15C14.5858 11.25 14.25 11.5858 14.25 12C14.25 12.4142 14.5858 12.75 15 12.75H21C21.4142 12.75 21.75 12.4142 21.75 12C21.75 11.5858 21.4142 11.25 21 11.25ZM14.1495 14.223C13.9424 13.8643 13.4837 13.7414 13.125 13.9485C12.7663 14.1556 12.6434 14.6143 12.8505 14.973L15.8505 20.1692C16.0576 20.5279 16.5163 20.6508 16.875 20.4437C17.2337 20.2366 17.3566 19.7779 17.1495 19.4192L14.1495 14.223ZM16.875 3.55629C17.2337 3.7634 17.3566 4.22209 17.1495 4.58081L14.1495 9.77697C13.9424 10.1357 13.4837 10.2586 13.125 10.0515C12.7663 9.84438 12.6434 9.38569 12.8505 9.02697L15.8505 3.83081C16.0576 3.47209 16.5163 3.34919 16.875 3.55629ZM11.1495 14.973C11.3566 14.6143 11.2337 14.1556 10.875 13.9485C10.5163 13.7414 10.0576 13.8643 9.85048 14.223L6.85048 19.4192C6.64338 19.7779 6.76628 20.2366 7.125 20.4437C7.48372 20.6508 7.94242 20.5279 8.14952 20.1692L11.1495 14.973Z" fill="#23262A"/>
</svg>
