<svg width="24" height="24" viewBox="0 0 24 24" fill="none" xmlns="http://www.w3.org/2000/svg">
<path fill-rule="evenodd" clip-rule="evenodd" d="M12.75 3C12.75 2.58579 12.4142 2.25 12 2.25C11.5858 2.25 11.25 2.58579 11.25 3V9C11.25 9.41421 11.5858 9.75 12 9.75C12.4142 9.75 12.75 9.41421 12.75 9V3ZM15 11.25C14.5858 11.25 14.25 11.5858 14.25 12C14.25 12.4142 14.5858 12.75 15 12.75H21C21.4142 12.75 21.75 12.4142 21.75 12C21.75 11.5858 21.4142 11.25 21 11.25H15ZM12 14.25C12.4142 14.25 12.75 14.5858 12.75 15V21C12.75 21.4142 12.4142 21.75 12 21.75C11.5858 21.75 11.25 21.4142 11.25 21V15C11.25 14.5858 11.5858 14.25 12 14.25ZM3 11.25C2.58579 11.25 2.25 11.5858 2.25 12C2.25 12.4142 2.58579 12.75 3 12.75H9C9.41421 12.75 9.75 12.4142 9.75 12C9.75 11.5858 9.41421 11.25 9 11.25H3ZM18.8941 5.10566C19.187 5.39855 19.187 5.87342 18.8941 6.16632L14.6514 10.409C14.3585 10.7018 13.8837 10.7018 13.5908 10.409C13.2979 10.1161 13.2979 9.64119 13.5908 9.3483L17.8334 5.10566C18.1263 4.81276 18.6012 4.81276 18.8941 5.10566ZM14.6514 13.591C14.3585 13.2981 13.8837 13.2981 13.5908 13.591C13.2979 13.8839 13.2979 14.3588 13.5908 14.6517L17.8334 18.8943C18.1263 19.1872 18.6012 19.1872 18.8941 18.8943C19.187 18.6014 19.187 18.1265 18.8941 17.8336L14.6514 13.591ZM10.4092 13.591C10.7021 13.8839 10.7021 14.3588 10.4092 14.6517L6.16656 18.8943C5.87367 19.1872 5.39879 19.1872 5.1059 18.8943C4.81301 18.6014 4.81301 18.1265 5.1059 17.8336L9.34854 13.591C9.64143 13.2981 10.1163 13.2981 10.4092 13.591ZM6.16656 5.10566C5.87367 4.81276 5.39879 4.81276 5.1059 5.10566C4.81301 5.39855 4.81301 5.87342 5.1059 6.16632L9.34854 10.409C9.64143 10.7019 10.1163 10.7019 10.4092 10.409C10.7021 10.1161 10.7021 9.64119 10.4092 9.3483L6.16656 5.10566Z" fill="#23262A"/>
</svg>
