<svg width="24" height="24" viewBox="0 0 24 24" fill="none" xmlns="http://www.w3.org/2000/svg">
<path fill-rule="evenodd" clip-rule="evenodd" d="M13 1.75C13.2914 1.75 13.5564 1.91877 13.6796 2.18282L14.2007 3.2993L15.3172 3.82037C15.5812 3.9436 15.75 4.20861 15.75 4.5C15.75 4.79139 15.5812 5.0564 15.3172 5.17963L14.2007 5.7007L13.6796 6.81718C13.5564 7.08123 13.2914 7.25 13 7.25C12.7086 7.25 12.4436 7.08123 12.3204 6.81718L11.7993 5.7007L10.6828 5.17963C10.4188 5.0564 10.25 4.79139 10.25 4.5C10.25 4.20861 10.4188 3.9436 10.6828 3.82037L11.7993 3.2993L12.3204 2.18282C12.4436 1.91877 12.7086 1.75 13 1.75ZM13 4.26047C12.9395 4.35752 12.8575 4.43948 12.7605 4.5C12.8575 4.56052 12.9395 4.64248 13 4.73953C13.0605 4.64248 13.1425 4.56052 13.2395 4.5C13.1425 4.43948 13.0605 4.35752 13 4.26047ZM7 4.25C7.29139 4.25 7.5564 4.41877 7.67963 4.68282L8.83709 7.16291L11.3172 8.32037C11.5812 8.4436 11.75 8.70861 11.75 9C11.75 9.29139 11.5812 9.5564 11.3172 9.67963L8.83709 10.8371L7.67963 13.3172C7.5564 13.5812 7.29139 13.75 7 13.75C6.70861 13.75 6.4436 13.5812 6.32037 13.3172L5.16291 10.8371L2.68282 9.67963C2.41877 9.5564 2.25 9.29139 2.25 9C2.25 8.70861 2.41877 8.4436 2.68282 8.32037L5.16291 7.16291L6.32037 4.68282C6.4436 4.41877 6.70861 4.25 7 4.25ZM7 6.77342L6.40684 8.04439C6.33234 8.20402 6.20402 8.33234 6.04439 8.40684L4.77342 9L6.04439 9.59316C6.20402 9.66766 6.33234 9.79598 6.40684 9.95561L7 11.2266L7.59316 9.95561C7.66766 9.79598 7.79598 9.66766 7.95561 9.59316L9.22658 9L7.95561 8.40684C7.79598 8.33234 7.66766 8.20402 7.59316 8.04439L7 6.77342ZM15.6796 8.68282C15.5564 8.41877 15.2914 8.25 15 8.25C14.7086 8.25 14.4436 8.41877 14.3204 8.68282L12.5265 12.5265L8.68282 14.3204C8.41877 14.4436 8.25 14.7086 8.25 15C8.25 15.2914 8.41877 15.5564 8.68282 15.6796L12.5265 17.4735L14.3204 21.3172C14.4436 21.5812 14.7086 21.75 15 21.75C15.2914 21.75 15.5564 21.5812 15.6796 21.3172L17.4735 17.4735L21.3172 15.6796C21.5812 15.5564 21.75 15.2914 21.75 15C21.75 14.7086 21.5812 14.4436 21.3172 14.3204L17.4735 12.5265L15.6796 8.68282ZM13.7704 13.408L15 10.7734L16.2296 13.408C16.3041 13.5676 16.4324 13.6959 16.592 13.7704L19.2266 15L16.592 16.2296C16.4324 16.3041 16.3041 16.4324 16.2296 16.592L15 19.2266L13.7704 16.592C13.6959 16.4324 13.5676 16.3041 13.408 16.2296L10.7734 15L13.408 13.7704C13.5676 13.6959 13.6959 13.5676 13.7704 13.408Z" fill="#23262A"/>
</svg>
