<svg width="24" height="24" viewBox="0 0 24 24" fill="none" xmlns="http://www.w3.org/2000/svg">
<path fill-rule="evenodd" clip-rule="evenodd" d="M12.3249 4.32403C12.5847 4.44892 12.75 4.7117 12.75 5.00001V19C12.75 19.2883 12.5847 19.5511 12.3249 19.676C12.065 19.8009 11.7566 19.7658 11.5315 19.5857L6.73691 15.75H3C2.58579 15.75 2.25 15.4142 2.25 15V9.00001C2.25 8.58579 2.58579 8.25001 3 8.25001H6.73691L11.5315 4.41436C11.7566 4.23425 12.065 4.19914 12.3249 4.32403ZM13.8132 9.05731C14.1059 8.76428 14.5808 8.76407 14.8738 9.05684C15.6267 9.80903 16.0938 10.8507 16.0938 12.0001C16.0938 13.1495 15.6267 14.1912 14.8738 14.9434C14.5808 15.2362 14.1059 15.2359 13.8132 14.9429C13.5204 14.6499 13.5206 14.175 13.8137 13.8823C14.2964 13.3999 14.5938 12.7354 14.5938 12.0001C14.5938 11.2648 14.2964 10.6003 13.8137 10.118C13.5206 9.8252 13.5204 9.35033 13.8132 9.05731ZM16.7708 7.2248C16.4778 6.93204 16.0029 6.93226 15.7102 7.22528C15.4174 7.51831 15.4176 7.99318 15.7106 8.28594C16.6625 9.23696 17.25 10.5491 17.25 12C17.25 13.4508 16.6625 14.763 15.7106 15.714C15.4176 16.0067 15.4174 16.4816 15.7102 16.7746C16.0029 17.0677 16.4778 17.0679 16.7708 16.7751C17.9928 15.5543 18.75 13.8648 18.75 12C18.75 10.1351 17.9928 8.44566 16.7708 7.2248Z" fill="#23262A"/>
</svg>
