<svg width="24" height="24" viewBox="0 0 24 24" fill="none" xmlns="http://www.w3.org/2000/svg">
<path fill-rule="evenodd" clip-rule="evenodd" d="M20.5303 4.53033C20.8232 4.23744 20.8232 3.76256 20.5303 3.46967C20.2374 3.17678 19.7626 3.17678 19.4697 3.46967L3.46967 19.4697C3.17678 19.7626 3.17678 20.2374 3.46967 20.5303C3.76256 20.8232 4.23744 20.8232 4.53033 20.5303L20.5303 4.53033ZM12.75 5C12.75 4.7117 12.5847 4.44891 12.3249 4.32402C12.065 4.19913 11.7566 4.23425 11.5315 4.41435L6.73691 8.25H3C2.58579 8.25 2.25 8.58579 2.25 9V15C2.25 15.4142 2.58579 15.75 3 15.75H5.11395C5.52816 15.75 5.86395 15.4142 5.86395 15C5.86395 14.5858 5.52816 14.25 5.11395 14.25H3.75V9.75H7C7.1703 9.75 7.33554 9.69204 7.46852 9.58565L11.25 6.56047V8.10937C11.25 8.52359 11.5858 8.85937 12 8.85937C12.4142 8.85937 12.75 8.52359 12.75 8.10937V5ZM12.7498 15.8867C12.7498 15.4725 12.414 15.1367 11.9998 15.1367C11.5856 15.1367 11.2498 15.4725 11.2498 15.8867V17.4395L10.7405 17.0321C10.417 16.7733 9.94508 16.8258 9.68632 17.1492C9.42756 17.4727 9.48 17.9447 9.80345 18.2034L11.5312 19.5857C11.7564 19.7658 12.0648 19.8009 12.3247 19.676C12.5845 19.5511 12.7498 19.2883 12.7498 19V15.8867ZM19.6556 7.20679C20.0236 7.01659 20.4761 7.1607 20.6663 7.52867C21.3589 8.86876 21.7498 10.3898 21.7498 11.9999C21.7498 14.6931 20.6568 17.1325 18.892 18.8963C18.599 19.1891 18.1241 19.1889 17.8313 18.896C17.5385 18.603 17.5387 18.1281 17.8316 17.8353C19.3265 16.3414 20.2498 14.2792 20.2498 11.9999C20.2498 10.635 19.919 9.34963 19.3337 8.21743C19.1435 7.84946 19.2877 7.39698 19.6556 7.20679ZM18.4294 9.93919C18.3031 9.54472 17.8809 9.32736 17.4864 9.45371C17.0919 9.58007 16.8746 10.0023 17.0009 10.3967C17.1625 10.9012 17.25 11.4397 17.25 12.0001C17.25 13.4509 16.6625 14.7631 15.7106 15.7141C15.4176 16.0068 15.4174 16.4817 15.7102 16.7747C16.0029 17.0678 16.4778 17.068 16.7708 16.7752C17.9928 15.5544 18.75 13.8649 18.75 12.0001C18.75 11.2825 18.6378 10.5898 18.4294 9.93919ZM15.4221 11.8604C15.83 11.9326 16.1021 12.3218 16.0299 12.7296C15.8779 13.5881 15.4633 14.3546 14.8738 14.9435C14.5808 15.2363 14.1059 15.2361 13.8132 14.943C13.5204 14.65 13.5206 14.1751 13.8137 13.8824C14.1921 13.5043 14.4561 13.0145 14.5529 12.4681C14.6251 12.0602 15.0143 11.7881 15.4221 11.8604Z" fill="#23262A"/>
</svg>
