<svg width="24" height="24" viewBox="0 0 24 24" fill="none" xmlns="http://www.w3.org/2000/svg">
<path fill-rule="evenodd" clip-rule="evenodd" d="M12.3249 4.32402C12.5847 4.44891 12.75 4.7117 12.75 5V19C12.75 19.2883 12.5847 19.5511 12.3249 19.676C12.065 19.8009 11.7566 19.7658 11.5315 19.5857L6.73691 15.75H3C2.58579 15.75 2.25 15.4142 2.25 15V9C2.25 8.58579 2.58579 8.25 3 8.25H6.73691L11.5315 4.41435C11.7566 4.23425 12.065 4.19913 12.3249 4.32402ZM11.25 6.56047L7.46852 9.58565C7.33554 9.69204 7.1703 9.75 7 9.75H3.75V14.25H7C7.1703 14.25 7.33554 14.308 7.46852 14.4143L11.25 17.4395V6.56047ZM15.7102 7.22528C16.0029 6.93226 16.4778 6.93204 16.7708 7.2248C17.9928 8.44566 18.75 10.1351 18.75 12C18.75 13.8648 17.9928 15.5543 16.7708 16.7751C16.4778 17.0679 16.0029 17.0677 15.7102 16.7746C15.4174 16.4816 15.4176 16.0067 15.7106 15.714C16.6625 14.763 17.25 13.4508 17.25 12C17.25 10.5491 16.6625 9.23696 15.7106 8.28594C15.4176 7.99318 15.4174 7.51831 15.7102 7.22528ZM14.8738 9.05683C14.5808 8.76407 14.1059 8.76428 13.8132 9.0573C13.5204 9.35032 13.5206 9.8252 13.8137 10.118C14.2964 10.6003 14.5938 11.2648 14.5938 12.0001C14.5938 12.7354 14.2964 13.3999 13.8137 13.8823C13.5206 14.175 13.5204 14.6499 13.8132 14.9429C14.1059 15.2359 14.5808 15.2361 14.8738 14.9434C15.6267 14.1912 16.0938 13.1495 16.0938 12.0001C16.0938 10.8507 15.6267 9.80902 14.8738 9.05683Z" fill="#23262A"/>
</svg>
