<svg width="24" height="24" viewBox="0 0 24 24" fill="none" xmlns="http://www.w3.org/2000/svg">
<path fill-rule="evenodd" clip-rule="evenodd" d="M12.75 5.00001C12.75 4.7117 12.5847 4.44892 12.3249 4.32403C12.065 4.19914 11.7566 4.23425 11.5315 4.41436L6.73691 8.25001H3C2.58579 8.25001 2.25 8.58579 2.25 9.00001V15C2.25 15.4142 2.58579 15.75 3 15.75H6.73691L11.5315 19.5857C11.7566 19.7658 12.065 19.8009 12.3249 19.676C12.5847 19.5511 12.75 19.2883 12.75 19V5.00001ZM14.8738 9.05684C14.5808 8.76407 14.1059 8.76428 13.8132 9.05731C13.5204 9.35033 13.5206 9.8252 13.8137 10.118C14.2964 10.6003 14.5938 11.2648 14.5938 12.0001C14.5938 12.7354 14.2964 13.3999 13.8137 13.8823C13.5206 14.175 13.5204 14.6499 13.8132 14.9429C14.1059 15.2359 14.5808 15.2362 14.8738 14.9434C15.6267 14.1912 16.0938 13.1495 16.0938 12.0001C16.0938 10.8507 15.6267 9.80903 14.8738 9.05684ZM15.7102 7.22528C16.0029 6.93226 16.4778 6.93204 16.7708 7.2248C17.9928 8.44566 18.75 10.1351 18.75 12C18.75 13.8648 17.9928 15.5543 16.7708 16.7751C16.4778 17.0679 16.0029 17.0677 15.7102 16.7746C15.4174 16.4816 15.4176 16.0067 15.7106 15.714C16.6625 14.763 17.25 13.4508 17.25 12C17.25 10.5491 16.6625 9.23696 15.7106 8.28594C15.4176 7.99318 15.4174 7.51831 15.7102 7.22528ZM18.892 5.10354C18.599 4.81074 18.1241 4.81088 17.8313 5.10386C17.5385 5.39685 17.5387 5.87172 17.8316 6.16452C19.3265 7.65845 20.2498 9.72066 20.2498 11.9999C20.2498 14.2792 19.3265 16.3414 17.8316 17.8354C17.5387 18.1282 17.5385 18.603 17.8313 18.896C18.1241 19.189 18.599 19.1892 18.892 18.8964C20.6568 17.1326 21.7498 14.6932 21.7498 11.9999C21.7498 9.30669 20.6568 6.86729 18.892 5.10354Z" fill="#23262A"/>
</svg>
