<svg width="24" height="24" viewBox="0 0 24 24" fill="none" xmlns="http://www.w3.org/2000/svg">
<path fill-rule="evenodd" clip-rule="evenodd" d="M15.8249 4.32403C16.0847 4.44892 16.25 4.7117 16.25 5.00001V19C16.25 19.2883 16.0847 19.5511 15.8249 19.676C15.565 19.8009 15.2566 19.7658 15.0315 19.5857L10.2369 15.75H6.5C6.08579 15.75 5.75 15.4142 5.75 15V9.00001C5.75 8.58579 6.08579 8.25001 6.5 8.25001H10.2369L15.0315 4.41436C15.2566 4.23425 15.565 4.19914 15.8249 4.32403ZM14.75 6.56048L10.9685 9.58566C10.8355 9.69205 10.6703 9.75001 10.5 9.75001H7.25V14.25H10.5C10.6703 14.25 10.8355 14.308 10.9685 14.4144L14.75 17.4395V6.56048Z" fill="#23262A"/>
</svg>
