<svg width="24" height="24" viewBox="0 0 24 24" fill="none" xmlns="http://www.w3.org/2000/svg">
<path fill-rule="evenodd" clip-rule="evenodd" d="M12.75 5.00001C12.75 4.7117 12.5847 4.44892 12.3249 4.32403C12.065 4.19914 11.7566 4.23425 11.5315 4.41436L6.73691 8.25001H3C2.58579 8.25001 2.25 8.58579 2.25 9.00001V15C2.25 15.4142 2.58579 15.75 3 15.75H6.73691L11.5315 19.5857C11.7566 19.7658 12.065 19.8009 12.3249 19.676C12.5847 19.5511 12.75 19.2883 12.75 19V5.00001ZM14.8738 9.05684C14.5808 8.76407 14.1059 8.76428 13.8132 9.05731C13.5204 9.35033 13.5206 9.8252 13.8137 10.118C14.2964 10.6003 14.5938 11.2648 14.5938 12.0001C14.5938 12.7354 14.2964 13.3999 13.8137 13.8823C13.5206 14.175 13.5204 14.6499 13.8132 14.9429C14.1059 15.2359 14.5808 15.2362 14.8738 14.9434C15.6267 14.1912 16.0938 13.1495 16.0938 12.0001C16.0938 10.8507 15.6267 9.80903 14.8738 9.05684Z" fill="#23262A"/>
</svg>
