<svg width="24" height="24" viewBox="0 0 24 24" fill="none" xmlns="http://www.w3.org/2000/svg">
<path fill-rule="evenodd" clip-rule="evenodd" d="M20.5303 4.53033C20.8232 4.23744 20.8232 3.76256 20.5303 3.46967C20.2374 3.17678 19.7626 3.17678 19.4697 3.46967L3.46967 19.4697C3.17678 19.7626 3.17678 20.2374 3.46967 20.5303C3.76256 20.8232 4.23744 20.8232 4.53033 20.5303L20.5303 4.53033ZM9.56339 18.0112C9.44704 17.9181 9.43743 17.7446 9.54279 17.6392L12.3232 14.8588C12.4807 14.7013 12.75 14.8128 12.75 15.0355V19C12.75 19.2883 12.5847 19.5511 12.3249 19.676C12.065 19.8009 11.7566 19.7658 11.5315 19.5857L9.56339 18.0112ZM19.3384 7.84363C19.2592 7.92276 19.2427 8.04464 19.2951 8.14352C19.9048 9.29439 20.2498 10.6066 20.2498 11.9999C20.2498 14.2792 19.3265 16.3414 17.8316 17.8354C17.5387 18.1282 17.5385 18.603 17.8313 18.896C18.1241 19.189 18.599 19.1892 18.892 18.8964C20.6568 17.1326 21.7498 14.6932 21.7498 11.9999C21.7498 10.2361 21.281 8.58105 20.4617 7.15342C20.3814 7.01352 20.1906 6.99134 20.0766 7.1054L19.3384 7.84363ZM17.0582 10.1238C16.9899 10.1921 16.9676 10.2934 16.9972 10.3853C17.1614 10.8939 17.25 11.4365 17.25 12C17.25 13.4508 16.6625 14.763 15.7106 15.714C15.4176 16.0067 15.4174 16.4816 15.7102 16.7746C16.0029 17.0677 16.4778 17.0679 16.7708 16.7751C17.9928 15.5543 18.75 13.8648 18.75 12C18.75 11.0835 18.5672 10.2094 18.2361 9.41245C18.1699 9.25318 17.9642 9.21777 17.8423 9.33973L17.0582 10.1238ZM14.5558 12.6262C14.5243 12.6577 14.5021 12.697 14.4898 12.7397C14.3635 13.1772 14.1279 13.5683 13.8137 13.8823C13.5206 14.175 13.5204 14.6499 13.8132 14.9429C14.1059 15.2359 14.5808 15.2362 14.8738 14.9434C15.6267 14.1912 16.0938 13.1495 16.0938 12.0001C16.0938 11.876 16.0883 11.7531 16.0776 11.6318C16.0602 11.4331 15.8226 11.3594 15.6816 11.5004L14.5558 12.6262ZM12.6768 8.14124C12.7237 8.09436 12.75 8.03077 12.75 7.96447V5.00001C12.75 4.7117 12.5847 4.44892 12.3249 4.32403C12.065 4.19914 11.7566 4.23425 11.5315 4.41436L6.80539 8.19522C6.76106 8.23069 6.70599 8.25001 6.64922 8.25001H3C2.58579 8.25001 2.25 8.58579 2.25 9.00001V15C2.25 15.4142 2.58579 15.75 3 15.75H4.96446C5.03076 15.75 5.09435 15.7237 5.14124 15.6768L12.6768 8.14124Z" fill="#23262A"/>
</svg>
