<svg width="24" height="24" viewBox="0 0 24 24" fill="none" xmlns="http://www.w3.org/2000/svg">
<path fill-rule="evenodd" clip-rule="evenodd" d="M17.5 16V20.75C17.5 21.4404 16.9404 22 16.25 22H7.75C7.05964 22 6.5 21.4404 6.5 20.75L6.5 16H17.5Z" fill="#23262A"/>
<path fill-rule="evenodd" clip-rule="evenodd" d="M17.5 8V3.25C17.5 2.55965 16.9404 2 16.25 2L7.75 2C7.05965 2 6.5 2.55964 6.5 3.25L6.5 8L17.5 8Z" fill="#23262A"/>
<path fill-rule="evenodd" clip-rule="evenodd" d="M18 12C18 11.5858 18.3358 11.25 18.75 11.25L20.25 11.25C20.6642 11.25 21 11.5858 21 12C21 12.4142 20.6642 12.75 20.25 12.75L18.75 12.75C18.3358 12.75 18 12.4142 18 12Z" fill="#23262A"/>
<path fill-rule="evenodd" clip-rule="evenodd" d="M13 12C13 11.5858 13.3358 11.25 13.75 11.25H15.25C15.6642 11.25 16 11.5858 16 12C16 12.4142 15.6642 12.75 15.25 12.75H13.75C13.3358 12.75 13 12.4142 13 12Z" fill="#23262A"/>
<path fill-rule="evenodd" clip-rule="evenodd" d="M8 12C8 11.5858 8.33579 11.25 8.75 11.25H10.25C10.6642 11.25 11 11.5858 11 12C11 12.4142 10.6642 12.75 10.25 12.75H8.75C8.33579 12.75 8 12.4142 8 12Z" fill="#23262A"/>
<path fill-rule="evenodd" clip-rule="evenodd" d="M3 12C3 11.5858 3.33579 11.25 3.75 11.25H5.25C5.66421 11.25 6 11.5858 6 12C6 12.4142 5.66421 12.75 5.25 12.75H3.75C3.33579 12.75 3 12.4142 3 12Z" fill="#23262A"/>
</svg>
