<svg width="24" height="24" viewBox="0 0 24 24" fill="none" xmlns="http://www.w3.org/2000/svg">
<path fill-rule="evenodd" clip-rule="evenodd" d="M16 6.5H20.75C21.4404 6.5 22 7.05964 22 7.75V16.25C22 16.9404 21.4404 17.5 20.75 17.5H16V6.5Z" fill="#23262A"/>
<path fill-rule="evenodd" clip-rule="evenodd" d="M8 6.5H3.25C2.55964 6.5 2 7.05964 2 7.75V16.25C2 16.9404 2.55964 17.5 3.25 17.5H8V6.5Z" fill="#23262A"/>
<path fill-rule="evenodd" clip-rule="evenodd" d="M12 6C11.5858 6 11.25 5.66421 11.25 5.25V3.75C11.25 3.33579 11.5858 3 12 3C12.4142 3 12.75 3.33579 12.75 3.75V5.25C12.75 5.66421 12.4142 6 12 6Z" fill="#23262A"/>
<path fill-rule="evenodd" clip-rule="evenodd" d="M12 11C11.5858 11 11.25 10.6642 11.25 10.25V8.75C11.25 8.33579 11.5858 8 12 8C12.4142 8 12.75 8.33579 12.75 8.75V10.25C12.75 10.6642 12.4142 11 12 11Z" fill="#23262A"/>
<path fill-rule="evenodd" clip-rule="evenodd" d="M12 16C11.5858 16 11.25 15.6642 11.25 15.25V13.75C11.25 13.3358 11.5858 13 12 13C12.4142 13 12.75 13.3358 12.75 13.75V15.25C12.75 15.6642 12.4142 16 12 16Z" fill="#23262A"/>
<path fill-rule="evenodd" clip-rule="evenodd" d="M12 21C11.5858 21 11.25 20.6642 11.25 20.25V18.75C11.25 18.3358 11.5858 18 12 18C12.4142 18 12.75 18.3358 12.75 18.75V20.25C12.75 20.6642 12.4142 21 12 21Z" fill="#23262A"/>
</svg>
