<svg width="24" height="24" viewBox="0 0 24 24" fill="none" xmlns="http://www.w3.org/2000/svg">
<path d="M11.9999 3.25C11.0298 3.25 10.3946 3.95027 10.0146 4.67802C9.62753 5.41942 9.38854 6.38769 9.25785 7.39042C9.1239 8.20441 9.10811 9.2314 9.46201 10.0965C9.64496 10.5437 9.9358 10.9681 10.3779 11.2781C10.6358 11.459 10.9277 11.5886 11.25 11.6657V20C11.25 20.4142 11.5858 20.75 12 20.75C12.4142 20.75 12.75 20.4142 12.75 20V11.6657C13.0723 11.5886 13.3641 11.459 13.622 11.2781C14.064 10.9681 14.3549 10.5437 14.5378 10.0965C14.8915 9.23197 14.8759 8.20576 14.7423 7.39204C14.6118 6.35716 14.373 5.38574 13.9833 4.64925C13.5957 3.91656 12.9574 3.25 11.9999 3.25Z" fill="#23262A"/>
</svg>
