<svg width="24" height="24" viewBox="0 0 24 24" fill="none" xmlns="http://www.w3.org/2000/svg">
<path fill-rule="evenodd" clip-rule="evenodd" d="M12.75 11.6657C13.0723 11.5886 13.3641 11.459 13.622 11.2781C14.0641 10.9681 14.3549 10.5437 14.5378 10.0965C14.8915 9.23197 14.876 8.20576 14.7423 7.39204C14.6118 6.35716 14.373 5.38574 13.9833 4.64925C13.5957 3.91656 12.9575 3.25 11.9999 3.25C11.0298 3.25 10.3946 3.95027 10.0146 4.67802C9.62755 5.41942 9.38855 6.38769 9.25786 7.39042C9.12392 8.20441 9.10812 9.2314 9.46202 10.0965C9.64498 10.5437 9.93582 10.9681 10.3779 11.2781C10.6358 11.459 10.9277 11.5886 11.25 11.6657V20C11.25 20.4142 11.5858 20.75 12 20.75C12.4142 20.75 12.75 20.4142 12.75 20V11.6657ZM10.7437 7.5962C10.8634 6.6707 11.0718 5.89429 11.3443 5.37223C11.6257 4.83324 11.8655 4.75 11.9999 4.75C12.147 4.75 12.3838 4.83344 12.6575 5.35075C12.9273 5.86072 13.1358 6.63349 13.2557 7.59303L13.2576 7.60821L13.2601 7.6233C13.3741 8.30716 13.3561 9.02347 13.1495 9.52853C13.0512 9.76881 12.9202 9.93817 12.7607 10.05C12.6046 10.1595 12.3701 10.25 12 10.25C11.6299 10.25 11.3953 10.1595 11.2392 10.05C11.0797 9.93817 10.9486 9.76881 10.8503 9.52852C10.6437 9.02347 10.6257 8.30716 10.7397 7.62331L10.742 7.60979L10.7437 7.5962Z" fill="#23262A"/>
</svg>
