<svg width="24" height="24" viewBox="0 0 24 24" fill="none" xmlns="http://www.w3.org/2000/svg">
<path d="M10 13.25C10.4142 13.25 10.75 13.5858 10.75 14V20C10.75 20.4142 10.4142 20.75 10 20.75H4C3.58579 20.75 3.25 20.4142 3.25 20V14C3.25 13.5858 3.58579 13.25 4 13.25H10ZM20 13.25C20.4142 13.25 20.75 13.5858 20.75 14V20C20.75 20.4142 20.4142 20.75 20 20.75H14C13.5858 20.75 13.25 20.4142 13.25 20V14C13.25 13.5858 13.5858 13.25 14 13.25H20ZM4.75 19.25H9.25V14.75H4.75V19.25ZM14.75 19.25H19.25V14.75H14.75V19.25ZM10 3.25C10.4142 3.25 10.75 3.58579 10.75 4V10C10.75 10.4142 10.4142 10.75 10 10.75H4C3.58579 10.75 3.25 10.4142 3.25 10V4C3.25 3.58579 3.58579 3.25 4 3.25H10ZM20 3.25C20.4142 3.25 20.75 3.58579 20.75 4V10C20.75 10.4142 20.4142 10.75 20 10.75H14C13.5858 10.75 13.25 10.4142 13.25 10V4C13.25 3.58579 13.5858 3.25 14 3.25H20ZM4.75 9.25H9.25V4.75H4.75V9.25ZM14.75 9.25H19.25V4.75H14.75V9.25Z" fill="#202733"/>
</svg>
