<svg width="24" height="24" viewBox="0 0 24 24" fill="none" xmlns="http://www.w3.org/2000/svg">
<path fill-rule="evenodd" clip-rule="evenodd" d="M8.27239 4.8181C8.35586 4.48422 8.65585 4.25 9 4.25H21C21.4142 4.25 21.75 4.58579 21.75 5C21.75 5.41421 21.4142 5.75 21 5.75H9.58558L6.22761 19.1819C6.14745 19.5025 5.86685 19.7329 5.53675 19.7491C5.20665 19.7653 4.90485 19.5635 4.79369 19.2523L2.29369 12.2523C2.15438 11.8622 2.35766 11.433 2.74775 11.2937C3.13783 11.1544 3.56699 11.3577 3.7063 11.7477L5.37317 16.415L8.27239 4.8181ZM12.6025 8.36401C12.9538 8.14448 13.4165 8.25126 13.636 8.60251L15.5 11.5849L17.364 8.60251C17.5835 8.25126 18.0462 8.14448 18.3975 8.36401C18.7488 8.58354 18.8555 9.04626 18.636 9.39751L16.3844 13L18.636 16.6025C18.8555 16.9538 18.7488 17.4165 18.3975 17.636C18.0462 17.8555 17.5835 17.7488 17.364 17.3975L15.5 14.4151L13.636 17.3975C13.4165 17.7488 12.9538 17.8555 12.6025 17.636C12.2512 17.4165 12.1445 16.9538 12.364 16.6025L14.6156 13L12.364 9.39751C12.1445 9.04626 12.2512 8.58354 12.6025 8.36401Z" fill="#23262A"/>
</svg>
