<svg width="24" height="24" viewBox="0 0 24 24" fill="none" xmlns="http://www.w3.org/2000/svg">
<path fill-rule="evenodd" clip-rule="evenodd" d="M16.25 6C16.25 5.58579 16.5858 5.25 17 5.25H21C21.4142 5.25 21.75 5.58579 21.75 6C21.75 6.41421 21.4142 6.75 21 6.75H17.75V10C17.75 10.4142 17.4142 10.75 17 10.75H12.75V14C12.75 14.4142 12.4142 14.75 12 14.75H7.75V18C7.75 18.4142 7.41421 18.75 7 18.75H3C2.58579 18.75 2.25 18.4142 2.25 18C2.25 17.5858 2.58579 17.25 3 17.25H6.25V14C6.25 13.5858 6.58579 13.25 7 13.25H11.25V10C11.25 9.58579 11.5858 9.25 12 9.25H16.25V6Z" fill="#23262A"/>
</svg>
