<svg width="24" height="24" viewBox="0 0 24 24" fill="none" xmlns="http://www.w3.org/2000/svg">
<path fill-rule="evenodd" clip-rule="evenodd" d="M10.982 3.73043L11.3325 3.7312L11.3686 3.73127C11.4121 3.73137 11.4507 3.70335 11.464 3.66197L11.4751 3.6276L11.5827 3.29401L11.8827 2.36362L11.9048 2.29511C11.9346 2.2027 12.0654 2.2027 12.0952 2.29511L12.1173 2.36362L12.4173 3.29401L12.5249 3.6276L12.536 3.66197C12.5493 3.70335 12.5879 3.73137 12.6314 3.73127L12.6675 3.7312L13.018 3.73043L13.9956 3.72829L14.0676 3.72814C14.1647 3.72792 14.2051 3.85227 14.1264 3.90917L14.0681 3.95135L13.2759 4.52423L12.9919 4.72963L12.9626 4.75079C12.9274 4.77628 12.9127 4.82161 12.9262 4.86293L12.9374 4.89726L13.0465 5.23037L13.3506 6.15944L13.373 6.22786C13.4032 6.32013 13.2974 6.39698 13.219 6.33974L13.1609 6.2973L12.3712 5.72096L12.0881 5.51432L12.059 5.49303C12.0238 5.4674 11.9762 5.4674 11.941 5.49303L11.9119 5.51432L11.6288 5.72096L10.8391 6.2973L10.781 6.33974C10.7026 6.39698 10.5968 6.32013 10.627 6.22786L10.6494 6.15944L10.9535 5.23037L11.0626 4.89726L11.0738 4.86293C11.0873 4.82161 11.0726 4.77628 11.0374 4.75079L11.0081 4.72963L10.7241 4.52423L9.93194 3.95135L9.87361 3.90917C9.79494 3.85227 9.83534 3.72792 9.93243 3.72814L10.0044 3.72829L10.982 3.73043ZM3.48199 10.7304L3.8325 10.7312L3.86862 10.7313C3.9121 10.7314 3.95066 10.7034 3.96401 10.662L3.97509 10.6276L4.08268 10.294L4.38273 9.36362L4.40483 9.29511C4.43463 9.2027 4.56537 9.2027 4.59517 9.29511L4.61727 9.36362L4.91732 10.294L5.02491 10.6276L5.03599 10.662C5.04934 10.7034 5.0879 10.7314 5.13138 10.7313L5.1675 10.7312L5.51801 10.7304L6.49558 10.7283L6.56757 10.7281C6.66466 10.7279 6.70507 10.8523 6.62639 10.9092L6.56806 10.9514L5.77593 11.5242L5.49191 11.7296L5.46265 11.7508C5.42741 11.7763 5.41268 11.8216 5.42621 11.8629L5.43745 11.8973L5.54649 12.2304L5.85061 13.1594L5.873 13.2279C5.90321 13.3201 5.79744 13.397 5.71901 13.3397L5.66086 13.2973L4.87124 12.721L4.58813 12.5143L4.55896 12.493C4.52383 12.4674 4.47617 12.4674 4.44105 12.493L4.41188 12.5143L4.12876 12.721L3.33914 13.2973L3.28099 13.3397C3.20257 13.397 3.09679 13.3201 3.127 13.2279L3.14939 13.1594L3.45351 12.2304L3.56255 11.8973L3.57379 11.8629C3.58732 11.8216 3.57259 11.7763 3.53735 11.7508L3.50809 11.7296L3.22407 11.5242L2.43194 10.9514L2.37361 10.9092C2.29494 10.8523 2.33534 10.7279 2.43243 10.7281L2.50442 10.7283L3.48199 10.7304ZM18.8325 10.7312L18.482 10.7304L17.5044 10.7283L17.4324 10.7281C17.3353 10.7279 17.2949 10.8523 17.3736 10.9092L17.4319 10.9514L18.2241 11.5242L18.5081 11.7296L18.5374 11.7508C18.5726 11.7763 18.5873 11.8216 18.5738 11.8629L18.5626 11.8973L18.4535 12.2304L18.1494 13.1594L18.127 13.2279C18.0968 13.3201 18.2026 13.397 18.281 13.3397L18.3391 13.2973L19.1288 12.721L19.4119 12.5143L19.441 12.493C19.4762 12.4674 19.5238 12.4674 19.559 12.493L19.5881 12.5143L19.8712 12.721L20.6609 13.2973L20.719 13.3397C20.7974 13.397 20.9032 13.3201 20.873 13.2279L20.8506 13.1594L20.5465 12.2304L20.4374 11.8973L20.4262 11.8629C20.4127 11.8216 20.4274 11.7763 20.4626 11.7508L20.4919 11.7296L20.7759 11.5242L21.5681 10.9514L21.6264 10.9092C21.7051 10.8523 21.6647 10.7279 21.5676 10.7281L21.4956 10.7283L20.518 10.7304L20.1675 10.7312L20.1314 10.7313C20.0879 10.7314 20.0493 10.7034 20.036 10.662L20.0249 10.6276L19.9173 10.294L19.6173 9.36362L19.5952 9.29511C19.5654 9.2027 19.4346 9.2027 19.4048 9.29511L19.3827 9.36362L19.0827 10.294L18.9751 10.6276L18.964 10.662C18.9507 10.7034 18.9121 10.7314 18.8686 10.7313L18.8325 10.7312ZM15.982 6.23043L16.3325 6.2312L16.3686 6.23127C16.4121 6.23137 16.4507 6.20335 16.464 6.16197L16.4751 6.1276L16.5827 5.79401L16.8827 4.86362L16.9048 4.79511C16.9346 4.7027 17.0654 4.7027 17.0952 4.79511L17.1173 4.86362L17.4173 5.79401L17.5249 6.1276L17.536 6.16197C17.5493 6.20335 17.5879 6.23137 17.6314 6.23127L17.6675 6.2312L18.018 6.23043L18.9956 6.22829L19.0676 6.22814C19.1647 6.22792 19.2051 6.35227 19.1264 6.40917L19.0681 6.45135L18.2759 7.02423L17.9919 7.22963L17.9626 7.25079C17.9274 7.27628 17.9127 7.32161 17.9262 7.36293L17.9374 7.39725L18.0465 7.73037L18.3506 8.65944L18.373 8.72786C18.4032 8.82013 18.2974 8.89698 18.219 8.83974L18.1609 8.7973L17.3712 8.22096L17.0881 8.01432L17.059 7.99303C17.0238 7.96739 16.9762 7.96739 16.941 7.99303L16.9119 8.01432L16.6288 8.22096L15.8391 8.7973L15.781 8.83974C15.7026 8.89698 15.5968 8.82013 15.627 8.72786L15.6494 8.65944L15.9535 7.73037L16.0626 7.39726L16.0738 7.36293C16.0873 7.32161 16.0726 7.27628 16.0374 7.25079L16.0081 7.22963L15.7241 7.02423L14.9319 6.45135L14.8736 6.40917C14.7949 6.35227 14.8353 6.22792 14.9324 6.22814L15.0044 6.22829L15.982 6.23043ZM16.3325 16.2312L15.982 16.2304L15.0044 16.2283L14.9324 16.2281C14.8353 16.2279 14.7949 16.3523 14.8736 16.4092L14.9319 16.4514L15.7241 17.0242L16.0081 17.2296L16.0374 17.2508C16.0726 17.2763 16.0873 17.3216 16.0738 17.3629L16.0626 17.3973L15.9535 17.7304L15.6494 18.6594L15.627 18.7279C15.5968 18.8201 15.7026 18.897 15.781 18.8397L15.8391 18.7973L16.6288 18.221L16.9119 18.0143L16.941 17.993C16.9762 17.9674 17.0238 17.9674 17.059 17.993L17.0881 18.0143L17.3712 18.221L18.1609 18.7973L18.219 18.8397C18.2974 18.897 18.4032 18.8201 18.373 18.7279L18.3506 18.6594L18.0465 17.7304L17.9374 17.3973L17.9262 17.3629C17.9127 17.3216 17.9274 17.2763 17.9626 17.2508L17.9919 17.2296L18.2759 17.0242L19.0681 16.4514L19.1264 16.4092C19.2051 16.3523 19.1647 16.2279 19.0676 16.2281L18.9956 16.2283L18.018 16.2304L17.6675 16.2312L17.6314 16.2313C17.5879 16.2314 17.5493 16.2034 17.536 16.162L17.5249 16.1276L17.4173 15.794L17.1173 14.8636L17.0952 14.7951C17.0654 14.7027 16.9346 14.7027 16.9048 14.7951L16.8827 14.8636L16.5827 15.794L16.4751 16.1276L16.464 16.162C16.4507 16.2034 16.4121 16.2314 16.3686 16.2313L16.3325 16.2312ZM5.98199 16.2304L6.3325 16.2312L6.36862 16.2313C6.4121 16.2314 6.45066 16.2034 6.46401 16.162L6.47509 16.1276L6.58268 15.794L6.88273 14.8636L6.90483 14.7951C6.93463 14.7027 7.06537 14.7027 7.09517 14.7951L7.11727 14.8636L7.41733 15.794L7.52491 16.1276L7.53599 16.162C7.54934 16.2034 7.5879 16.2314 7.63138 16.2313L7.6675 16.2312L8.01801 16.2304L8.99558 16.2283L9.06757 16.2281C9.16466 16.2279 9.20507 16.3523 9.12639 16.4092L9.06806 16.4514L8.27593 17.0242L7.99191 17.2296L7.96265 17.2508C7.92741 17.2763 7.91268 17.3216 7.92621 17.3629L7.93745 17.3973L8.04649 17.7304L8.35061 18.6594L8.373 18.7279C8.40321 18.8201 8.29744 18.897 8.21901 18.8397L8.16086 18.7973L7.37124 18.221L7.08813 18.0143L7.05896 17.993C7.02383 17.9674 6.97617 17.9674 6.94105 17.993L6.91188 18.0143L6.62876 18.221L5.83914 18.7973L5.78099 18.8397C5.70257 18.897 5.59679 18.8201 5.627 18.7279L5.64939 18.6594L5.95351 17.7304L6.06256 17.3973L6.07379 17.3629C6.08732 17.3216 6.07259 17.2763 6.03735 17.2508L6.00809 17.2296L5.72407 17.0242L4.93194 16.4514L4.87361 16.4092C4.79494 16.3523 4.83534 16.2279 4.93243 16.2281L5.00442 16.2283L5.98199 16.2304ZM6.3325 6.2312L5.98199 6.23043L5.00442 6.22829L4.93243 6.22814C4.83534 6.22792 4.79494 6.35227 4.87361 6.40917L4.93194 6.45135L5.72407 7.02423L6.00809 7.22963L6.03735 7.25079C6.07259 7.27628 6.08732 7.32161 6.07379 7.36293L6.06256 7.39726L5.95351 7.73037L5.64939 8.65944L5.627 8.72786C5.59679 8.82013 5.70257 8.89698 5.78099 8.83974L5.83914 8.7973L6.62876 8.22096L6.91188 8.01432L6.94105 7.99303C6.97617 7.96739 7.02383 7.96739 7.05896 7.99303L7.08813 8.01432L7.37124 8.22096L8.16086 8.7973L8.21901 8.83974C8.29744 8.89698 8.40321 8.82013 8.373 8.72786L8.35061 8.65944L8.04649 7.73037L7.93745 7.39725L7.92621 7.36293C7.91268 7.32161 7.92741 7.27628 7.96265 7.25079L7.99191 7.22963L8.27593 7.02423L9.06806 6.45135L9.12639 6.40917C9.20507 6.35227 9.16466 6.22792 9.06757 6.22814L8.99558 6.22829L8.01801 6.23043L7.6675 6.2312L7.63138 6.23127C7.5879 6.23137 7.54934 6.20335 7.53599 6.16197L7.52491 6.1276L7.41733 5.79401L7.11727 4.86362L7.09517 4.79511C7.06537 4.7027 6.93463 4.7027 6.90483 4.79511L6.88273 4.86362L6.58268 5.79401L6.47509 6.1276L6.46401 6.16197C6.45066 6.20335 6.4121 6.23137 6.36862 6.23127L6.3325 6.2312ZM10.982 18.7304L11.3325 18.7312L11.3686 18.7313C11.4121 18.7314 11.4507 18.7034 11.464 18.662L11.4751 18.6276L11.5827 18.294L11.8827 17.3636L11.9048 17.2951C11.9346 17.2027 12.0654 17.2027 12.0952 17.2951L12.1173 17.3636L12.4173 18.294L12.5249 18.6276L12.536 18.662C12.5493 18.7034 12.5879 18.7314 12.6314 18.7313L12.6675 18.7312L13.018 18.7304L13.9956 18.7283L14.0676 18.7281C14.1647 18.7279 14.2051 18.8523 14.1264 18.9092L14.0681 18.9514L13.2759 19.5242L12.9919 19.7296L12.9626 19.7508C12.9274 19.7763 12.9127 19.8216 12.9262 19.8629L12.9374 19.8973L13.0465 20.2304L13.3506 21.1594L13.373 21.2279C13.4032 21.3201 13.2974 21.397 13.219 21.3397L13.1609 21.2973L12.3712 20.721L12.0881 20.5143L12.059 20.493C12.0238 20.4674 11.9762 20.4674 11.941 20.493L11.9119 20.5143L11.6288 20.721L10.8391 21.2973L10.781 21.3397C10.7026 21.397 10.5968 21.3201 10.627 21.2279L10.6494 21.1594L10.9535 20.2304L11.0626 19.8973L11.0738 19.8629C11.0873 19.8216 11.0726 19.7763 11.0374 19.7508L11.0081 19.7296L10.7241 19.5242L9.93194 18.9514L9.87361 18.9092C9.79494 18.8523 9.83534 18.7279 9.93243 18.7281L10.0044 18.7283L10.982 18.7304Z" fill="#262626"/>
</svg>
