<svg width="24" height="24" viewBox="0 0 24 24" fill="none" xmlns="http://www.w3.org/2000/svg">
<path fill-rule="evenodd" clip-rule="evenodd" d="M12 2.25C12.2855 2.25 12.5462 2.41207 12.6725 2.66808L15.437 8.26941L21.6184 9.16762C21.9009 9.20868 22.1356 9.40656 22.2239 9.67807C22.3121 9.94958 22.2385 10.2476 22.0341 10.4469L17.5611 14.8069L18.6171 20.9634C18.6653 21.2448 18.5496 21.5291 18.3187 21.6969C18.0877 21.8647 17.7815 21.8869 17.5288 21.754L12 18.8473L6.47115 21.754C6.21846 21.8869 5.91227 21.8647 5.68131 21.6969C5.45035 21.5291 5.33468 21.2448 5.38294 20.9634L6.43885 14.8069L1.96592 10.4469C1.76149 10.2476 1.68792 9.94958 1.77614 9.67807C1.86436 9.40656 2.09907 9.20868 2.38158 9.16762L8.56302 8.26941L11.3274 2.66808C11.4538 2.41207 11.7145 2.25 12 2.25ZM12 4.69466L9.73362 9.28684C9.62438 9.5082 9.4132 9.66162 9.16892 9.69712L4.10115 10.4335L7.76822 14.008C7.94499 14.1803 8.02565 14.4286 7.98392 14.6719L7.11824 19.7192L11.651 17.3362C11.8695 17.2213 12.1305 17.2213 12.349 17.3362L16.8818 19.7192L16.0161 14.6719C15.9743 14.4286 16.055 14.1803 16.2318 14.008L19.8988 10.4335L14.8311 9.69712C14.5868 9.66162 14.3756 9.5082 14.2664 9.28684L12 4.69466Z" fill="#23262A"/>
</svg>
