<svg width="24" height="24" viewBox="0 0 24 24" fill="none" xmlns="http://www.w3.org/2000/svg">
<path fill-rule="evenodd" clip-rule="evenodd" d="M9.7498 3C9.7498 2.58579 10.0856 2.25 10.4998 2.25H13.4998C13.914 2.25 14.2498 2.58579 14.2498 3V8.10289L18.669 5.55144C19.0277 5.34434 19.4864 5.46724 19.6935 5.82596L21.1935 8.42404C21.293 8.5963 21.32 8.80102 21.2685 8.99315C21.217 9.18529 21.0913 9.3491 20.919 9.44856L16.4998 12L20.919 14.5514C21.2777 14.7585 21.4007 15.2172 21.1935 15.576L19.6935 18.174C19.4864 18.5328 19.0277 18.6557 18.669 18.4486L14.2498 15.8971V21C14.2498 21.4142 13.914 21.75 13.4998 21.75H10.4998C10.0856 21.75 9.7498 21.4142 9.7498 21V15.8971L5.33057 18.4486C4.97185 18.6557 4.51316 18.5328 4.30605 18.174L2.80605 15.576C2.70659 15.4037 2.67964 15.199 2.73112 15.0068C2.78261 14.8147 2.90831 14.6509 3.08057 14.5514L7.4998 12L3.08057 9.44856C2.90831 9.3491 2.78261 9.18529 2.73112 8.99315C2.67964 8.80102 2.70659 8.5963 2.80605 8.42404L4.30605 5.82596C4.40551 5.6537 4.56932 5.528 4.76145 5.47652C4.95359 5.42503 5.15831 5.45199 5.33057 5.55144L9.7498 8.10289V3ZM11.2498 3.75V9.40192C11.2498 9.66987 11.1068 9.91747 10.8748 10.0514C10.6427 10.1854 10.3568 10.1854 10.1248 10.0514L5.23009 7.22548L4.48009 8.52452L9.3748 11.3505C9.60685 11.4845 9.7498 11.7321 9.7498 12C9.7498 12.2679 9.60685 12.5155 9.3748 12.6495L4.48009 15.4755L5.23009 16.7745L10.1248 13.9486C10.3568 13.8146 10.6427 13.8146 10.8748 13.9486C11.1068 14.0825 11.2498 14.3301 11.2498 14.5981V20.25H12.7498V14.5981C12.7498 14.3301 12.8927 14.0825 13.1248 13.9486C13.3568 13.8146 13.6427 13.8146 13.8748 13.9486L18.7695 16.7745L19.5195 15.4755L14.6248 12.6495C14.3927 12.5155 14.2498 12.2679 14.2498 12C14.2498 11.7321 14.3927 11.4845 14.6248 11.3505L19.5195 8.52452L18.7695 7.22548L13.8748 10.0514C13.6427 10.1854 13.3568 10.1854 13.1248 10.0514C12.8927 9.91747 12.7498 9.66987 12.7498 9.40192V3.75H11.2498Z" fill="#23262A"/>
</svg>
