<svg width="24" height="24" viewBox="0 0 24 24" fill="none" xmlns="http://www.w3.org/2000/svg">
<path fill-rule="evenodd" clip-rule="evenodd" d="M9.7498 3C9.7498 2.58579 10.0856 2.25 10.4998 2.25H13.4998C13.914 2.25 14.2498 2.58579 14.2498 3V8.10289L18.669 5.55144C19.0277 5.34434 19.4864 5.46724 19.6935 5.82596L21.1935 8.42404C21.293 8.5963 21.32 8.80102 21.2685 8.99315C21.217 9.18529 21.0913 9.3491 20.919 9.44856L16.4998 12L20.919 14.5514C21.2777 14.7585 21.4007 15.2172 21.1935 15.576L19.6935 18.174C19.4864 18.5328 19.0277 18.6557 18.669 18.4486L14.2498 15.8971V21C14.2498 21.4142 13.914 21.75 13.4998 21.75H10.4998C10.0856 21.75 9.7498 21.4142 9.7498 21V15.8971L5.33057 18.4486C4.97185 18.6557 4.51316 18.5328 4.30605 18.174L2.80605 15.576C2.70659 15.4037 2.67964 15.199 2.73112 15.0068C2.78261 14.8147 2.90831 14.6509 3.08057 14.5514L7.4998 12L3.08057 9.44856C2.90831 9.3491 2.78261 9.18529 2.73112 8.99315C2.67964 8.80102 2.70659 8.5963 2.80605 8.42404L4.30605 5.82596C4.40551 5.6537 4.56932 5.528 4.76145 5.47652C4.95359 5.42503 5.15831 5.45199 5.33057 5.55144L9.7498 8.10289V3Z" fill="#23262A"/>
</svg>
