<svg width="24" height="24" viewBox="0 0 24 24" fill="none" xmlns="http://www.w3.org/2000/svg">
<path fill-rule="evenodd" clip-rule="evenodd" d="M11.9998 2.25C12.2853 2.25 12.5461 2.41207 12.6724 2.66808L15.4368 8.26941L21.6183 9.16762C21.9008 9.20868 22.1355 9.40656 22.2237 9.67807C22.3119 9.94958 22.2383 10.2476 22.0339 10.4469L17.561 14.8069L18.6169 20.9634C18.6652 21.2448 18.5495 21.5291 18.3185 21.6969C18.0876 21.8647 17.7814 21.8869 17.5287 21.754L11.9998 18.8473L6.471 21.754C6.21831 21.8869 5.91211 21.8647 5.68115 21.6969C5.45019 21.5291 5.33453 21.2448 5.38279 20.9634L6.4387 14.8069L1.96577 10.4469C1.76134 10.2476 1.68777 9.94958 1.77599 9.67807C1.86421 9.40656 2.09892 9.20868 2.38143 9.16762L8.56287 8.26941L11.3273 2.66808C11.4536 2.41207 11.7144 2.25 11.9998 2.25Z" fill="#23262A"/>
</svg>
