<svg width="24" height="24" viewBox="0 0 24 24" fill="none" xmlns="http://www.w3.org/2000/svg">
<path fill-rule="evenodd" clip-rule="evenodd" d="M9.87361 3.90917C9.79494 3.85227 9.83534 3.72792 9.93243 3.72814L11.3686 3.73127C11.4121 3.73137 11.4507 3.70335 11.464 3.66197L11.9048 2.29511C11.9346 2.2027 12.0654 2.2027 12.0952 2.29511L12.536 3.66197C12.5493 3.70335 12.5879 3.73137 12.6314 3.73127L14.0676 3.72814C14.1647 3.72792 14.2051 3.85227 14.1264 3.90917L12.9626 4.75079C12.9274 4.77628 12.9127 4.82161 12.9262 4.86293L13.373 6.22786C13.4032 6.32013 13.2974 6.39698 13.219 6.33974L12.059 5.49303C12.0238 5.4674 11.9762 5.4674 11.941 5.49303L10.781 6.33974C10.7026 6.39698 10.5968 6.32013 10.627 6.22786L11.0738 4.86293C11.0873 4.82161 11.0726 4.77628 11.0374 4.75079L9.87361 3.90917ZM2.37361 10.9092C2.29494 10.8523 2.33534 10.7279 2.43243 10.7281L3.86862 10.7313C3.9121 10.7314 3.95066 10.7034 3.96401 10.662L4.40483 9.29511C4.43463 9.2027 4.56537 9.2027 4.59517 9.29511L5.03599 10.662C5.04934 10.7034 5.0879 10.7314 5.13139 10.7313L6.56757 10.7281C6.66466 10.7279 6.70507 10.8523 6.62639 10.9092L5.46265 11.7508C5.42741 11.7763 5.41268 11.8216 5.42621 11.8629L5.873 13.2279C5.90321 13.3201 5.79744 13.397 5.71901 13.3397L4.55896 12.493C4.52383 12.4674 4.47617 12.4674 4.44105 12.493L3.28099 13.3397C3.20257 13.397 3.09679 13.3201 3.127 13.2279L3.57379 11.8629C3.58732 11.8216 3.57259 11.7763 3.53735 11.7508L2.37361 10.9092ZM17.4324 10.7281C17.3353 10.7279 17.2949 10.8523 17.3736 10.9092L18.5374 11.7508C18.5726 11.7763 18.5873 11.8216 18.5738 11.8629L18.127 13.2279C18.0968 13.3201 18.2026 13.397 18.281 13.3397L19.441 12.493C19.4762 12.4674 19.5238 12.4674 19.559 12.493L20.719 13.3397C20.7974 13.397 20.9032 13.3201 20.873 13.2279L20.4262 11.8629C20.4127 11.8216 20.4274 11.7763 20.4626 11.7508L21.6264 10.9092C21.7051 10.8523 21.6647 10.7279 21.5676 10.7281L20.1314 10.7313C20.0879 10.7314 20.0493 10.7034 20.036 10.662L19.5952 9.29511C19.5654 9.2027 19.4346 9.2027 19.4048 9.29511L18.964 10.662C18.9507 10.7034 18.9121 10.7314 18.8686 10.7313L17.4324 10.7281ZM14.8736 6.40917C14.7949 6.35227 14.8353 6.22792 14.9324 6.22814L16.3686 6.23127C16.4121 6.23137 16.4507 6.20335 16.464 6.16197L16.9048 4.79511C16.9346 4.7027 17.0654 4.7027 17.0952 4.79511L17.536 6.16197C17.5493 6.20335 17.5879 6.23137 17.6314 6.23127L19.0676 6.22814C19.1647 6.22792 19.2051 6.35227 19.1264 6.40917L17.9626 7.25079C17.9274 7.27628 17.9127 7.32161 17.9262 7.36293L18.373 8.72786C18.4032 8.82013 18.2974 8.89698 18.219 8.83974L17.059 7.99303C17.0238 7.96739 16.9762 7.96739 16.941 7.99303L15.781 8.83974C15.7026 8.89698 15.5968 8.82013 15.627 8.72786L16.0738 7.36293C16.0873 7.32161 16.0726 7.27628 16.0374 7.25079L14.8736 6.40917ZM14.9324 16.2281C14.8353 16.2279 14.7949 16.3523 14.8736 16.4092L16.0374 17.2508C16.0726 17.2763 16.0873 17.3216 16.0738 17.3629L15.627 18.7279C15.5968 18.8201 15.7026 18.897 15.781 18.8397L16.941 17.993C16.9762 17.9674 17.0238 17.9674 17.059 17.993L18.219 18.8397C18.2974 18.897 18.4032 18.8201 18.373 18.7279L17.9262 17.3629C17.9127 17.3216 17.9274 17.2763 17.9626 17.2508L19.1264 16.4092C19.2051 16.3523 19.1647 16.2279 19.0676 16.2281L17.6314 16.2313C17.5879 16.2314 17.5493 16.2034 17.536 16.162L17.0952 14.7951C17.0654 14.7027 16.9346 14.7027 16.9048 14.7951L16.464 16.162C16.4507 16.2034 16.4121 16.2314 16.3686 16.2313L14.9324 16.2281ZM4.87361 16.4092C4.79494 16.3523 4.83534 16.2279 4.93243 16.2281L6.36862 16.2313C6.4121 16.2314 6.45066 16.2034 6.46401 16.162L6.90483 14.7951C6.93463 14.7027 7.06537 14.7027 7.09517 14.7951L7.53599 16.162C7.54934 16.2034 7.5879 16.2314 7.63138 16.2313L9.06757 16.2281C9.16466 16.2279 9.20507 16.3523 9.12639 16.4092L7.96265 17.2508C7.92741 17.2763 7.91268 17.3216 7.92621 17.3629L8.373 18.7279C8.40321 18.8201 8.29744 18.897 8.21901 18.8397L7.05896 17.993C7.02383 17.9674 6.97617 17.9674 6.94105 17.993L5.78099 18.8397C5.70257 18.897 5.59679 18.8201 5.627 18.7279L6.07379 17.3629C6.08732 17.3216 6.07259 17.2763 6.03735 17.2508L4.87361 16.4092ZM4.93243 6.22814C4.83534 6.22792 4.79494 6.35227 4.87361 6.40917L6.03735 7.25079C6.07259 7.27628 6.08732 7.32161 6.07379 7.36293L5.627 8.72786C5.59679 8.82013 5.70257 8.89698 5.78099 8.83974L6.94105 7.99303C6.97617 7.96739 7.02383 7.96739 7.05896 7.99303L8.21901 8.83974C8.29744 8.89698 8.40321 8.82013 8.373 8.72786L7.92621 7.36293C7.91268 7.32161 7.92741 7.27628 7.96265 7.25079L9.12639 6.40917C9.20507 6.35227 9.16466 6.22792 9.06757 6.22814L7.63138 6.23127C7.5879 6.23137 7.54934 6.20335 7.53599 6.16197L7.09517 4.79511C7.06537 4.7027 6.93463 4.7027 6.90483 4.79511L6.46401 6.16197C6.45066 6.20335 6.4121 6.23137 6.36862 6.23127L4.93243 6.22814ZM9.87361 18.9092C9.79494 18.8523 9.83534 18.7279 9.93243 18.7281L11.3686 18.7313C11.4121 18.7314 11.4507 18.7034 11.464 18.662L11.9048 17.2951C11.9346 17.2027 12.0654 17.2027 12.0952 17.2951L12.536 18.662C12.5493 18.7034 12.5879 18.7314 12.6314 18.7313L14.0676 18.7281C14.1647 18.7279 14.2051 18.8523 14.1264 18.9092L12.9626 19.7508C12.9274 19.7763 12.9127 19.8216 12.9262 19.8629L13.373 21.2279C13.4032 21.3201 13.2974 21.397 13.219 21.3397L12.059 20.493C12.0238 20.4674 11.9762 20.4674 11.941 20.493L10.781 21.3397C10.7026 21.397 10.5968 21.3201 10.627 21.2279L11.0738 19.8629C11.0873 19.8216 11.0726 19.7763 11.0374 19.7508L9.87361 18.9092Z" fill="#23262A"/>
</svg>
