<svg width="24" height="24" viewBox="0 0 24 24" fill="none" xmlns="http://www.w3.org/2000/svg">
<path fill-rule="evenodd" clip-rule="evenodd" d="M6 3.75C5.8608 3.75 5.75 3.8619 5.75 3.99884V4.00385V4.00888V4.01393V4.01898V4.02406V4.02915V4.03425V4.03937V4.04451V4.04966V4.05483V4.06001V4.06521V4.07042V4.07565V4.08089V4.08615V4.09143V4.09672V4.10203V4.10735V4.11269V4.11804V4.12341V4.1288V4.1342V4.13962V4.14505V4.1505V4.15596V4.16144V4.16694V4.17245V4.17798V4.18352V4.18909V4.19466V4.20025V4.20586V4.21149V4.21713V4.22278V4.22846V4.23414V4.23985V4.24557V4.25131V4.25706V4.26283V4.26862V4.27442V4.28024V4.28607V4.29192V4.29779V4.30367V4.30957V4.31549V4.32142V4.32737V4.33334V4.33932V4.34532V4.35134V4.35737V4.36342V4.36948V4.37556V4.38166V4.38778V4.39391V4.40006V4.40622V4.4124V4.4186V4.42482V4.43105V4.4373V4.44356V4.44984V4.45614V4.46246V4.46879V4.47514V4.48151V4.48789V4.49429V4.50071V4.50714V4.5136V4.52006V4.52655V4.53305V4.53957V4.54611V4.55266V4.55924V4.56582V4.57243V4.57905V4.58569V4.59235V4.59902V4.60572V4.61243V4.61915V4.6259V4.63266V4.63944V4.64623V4.65305V4.65988V4.66672V4.67359V4.68047V4.68738V4.69429V4.70123V4.70818V4.71515V4.72214V4.72915V4.73617V4.74322V4.75028V4.75735V4.76445V4.77156V4.77869V4.78584V4.79301V4.80019V4.80739V4.81461V4.82185V4.8291V4.83638V4.84367V4.85098V4.85831V4.86565V4.87301V4.8804V4.8878V4.89521V4.90265V4.9101V4.91757V4.92506V4.93257V4.9401V4.94764V4.95521V4.96279V4.97039V4.97801V4.98564V4.9933V5.00097V5.00866V5.01637V5.0241V5.03185V5.03961V5.04739V5.0552V5.06302V5.07085V5.07871V5.08659V5.09448V5.1024V5.11033V5.11828V5.12625V5.13424V5.14224V5.15027V5.15831V5.16638V5.17446V5.18256V5.19068V5.19882V5.20697V5.21515V5.22334V5.23156V5.23979V5.24804V5.25631V5.2646V5.27291V5.28124V5.28958V5.29795V5.30633V5.31474V5.32316V5.3316V5.34007V5.34855V5.35705V5.36557V5.3741V5.38266V5.39124V5.39983V5.40845V5.41709V5.42574V5.43441V5.44311V5.45182V5.46055V5.4693V5.47807V5.48686V5.49567V5.5045V5.51335V5.52222V5.53111V5.54002V5.54894V5.55789V5.56686V5.57584V5.58485V5.59388V5.60292V5.61199V5.62107V5.63018V5.6393V5.64845V5.65761V5.6668V5.676V5.68523V5.69447V5.70373V5.71302V5.72232V5.73165V5.74099V5.75036V5.75974V5.76915V5.77857V5.78801V5.79748V5.80697V5.81647V5.826V5.83554V5.84511V5.85469V5.8643V5.87393V5.88358V5.89324V5.90293V5.91264V5.92237V5.93212V5.94189V5.95168V5.96149V5.97132V5.98117V5.99105V6.00094V6.01085V6.02079V6.03074V6.04072V6.05071V6.06073V6.07077V6.08082V6.0909V6.101V6.11112V6.12127V6.13143V6.14161V6.15181V6.16204V6.17228V6.18255V6.19284V6.20315V6.21348V6.22383V6.2342V6.24459V6.255V6.26544V6.27589V6.28637V6.29687V6.30739V6.31793V6.32849V6.33907V6.34968V6.3603V6.37095V6.38162V6.3923V6.40302V6.41375V6.4245V6.43527V6.44607V6.45689V6.46773V6.47859V6.48947V6.50037V6.5113V6.52224V6.53321V6.5442V6.55521V6.56624V6.5773V6.58837V6.59947V6.61059V6.62173V6.63289V6.64408V6.65528V6.66651V6.67776V6.68903V6.70033V6.71164V6.72298V6.73434V6.74572V6.75712V6.76855V6.77999V6.79146V6.80295V6.81447V6.826V6.83756V6.84914V6.86074V6.87236V6.88401V6.89568V6.90737V6.91908V6.93081V6.94257V6.95435V6.96615V6.97798V6.98982V7.00169V7.01358V7.02549V7.03743V7.04939V7.06137V7.07337V7.0854V7.09744V7.10952V7.12161V7.13372V7.14586V7.15802V7.17021V7.18241V7.19464V7.20689V7.21917V7.23146V7.24378V7.25612V7.26849V7.28088V7.29329V7.30572V7.31818V7.33066V7.34316V7.35569V7.36823V7.3808V7.3934V7.40602V7.41866V7.43132V7.44401V7.45671V7.46945V7.4822V7.49498V7.50778V7.52061V7.53345V7.54633V7.55922V7.57214V7.58508V7.59804V7.61103V7.62404V7.63708V7.65013V7.66321V7.67632V7.68945V7.7026V7.71577V7.72897V7.74219V7.75544V7.76871V7.782V7.79531V7.80865V7.82202V7.8354V7.84881V7.86225V7.87571V7.88919V7.90269V7.91622V7.92977V7.94335V7.95695V7.97057V7.98422V7.99789V8.01159V8.02531V8.03905V8.05282V8.06661V8.08043V8.09427V8.10813V8.12202V8.13593V8.14987V8.16383V8.17781V8.19182V8.20585V8.21991V8.23399V8.24809V8.26222V8.27637V8.29055V8.30475V8.31898V8.33323V8.3475V8.3618V8.37613V8.39047V8.40485V8.41924V8.43367V8.44811V8.46258V8.47708V8.4916V8.50614V8.52071V8.5353V8.54992V8.56456V8.57923V8.59392V8.60864V8.62338V8.63814V8.65294V8.66775V8.68259V8.69746V8.71235V8.72726V8.7422V8.75716V8.77215V8.78717V8.80221V8.81727V8.83236V8.84748V8.86262V8.87778V8.89297V8.90818V8.92342V8.93869V8.95398V8.96929V8.98463V9C5.75 10.1496 5.97944 10.9561 6.29624 11.5264C6.61112 12.0932 7.03445 12.4667 7.48923 12.7194C8.42834 13.2411 9.49986 13.25 10 13.25C10.5001 13.25 11.5717 13.2411 12.5108 12.7194C12.9655 12.4667 13.3889 12.0932 13.7038 11.5264C14.0206 10.9561 14.25 10.1496 14.25 9V8.98463V8.96929V8.95398V8.93869V8.92342V8.90818V8.89297V8.87778V8.86262V8.84748V8.83236V8.81727V8.80221V8.78717V8.77215V8.75716V8.7422V8.72726V8.71235V8.69746V8.68259V8.66775V8.65294V8.63814V8.62338V8.60864V8.59392V8.57923V8.56456V8.54992V8.5353V8.52071V8.50614V8.4916V8.47708V8.46258V8.44811V8.43367V8.41924V8.40485V8.39047V8.37613V8.3618V8.3475V8.33323V8.31898V8.30475V8.29055V8.27637V8.26222V8.24809V8.23399V8.21991V8.20585V8.19182V8.17781V8.16383V8.14987V8.13593V8.12202V8.10813V8.09427V8.08043V8.06661V8.05282V8.03905V8.02531V8.01159V7.99789V7.98422V7.97057V7.95695V7.94335V7.92977V7.91622V7.90269V7.88919V7.87571V7.86225V7.84881V7.8354V7.82202V7.80865V7.79531V7.782V7.76871V7.75544V7.74219V7.72897V7.71577V7.7026V7.68945V7.67632V7.66321V7.65013V7.63708V7.62404V7.61103V7.59804V7.58508V7.57214V7.55922V7.54633V7.53345V7.52061V7.50778V7.49498V7.4822V7.46945V7.45671V7.44401V7.43132V7.41866V7.40602V7.3934V7.3808V7.36823V7.35569V7.34316V7.33066V7.31818V7.30572V7.29329V7.28088V7.26849V7.25612V7.24378V7.23146V7.21917V7.20689V7.19464V7.18241V7.17021V7.15802V7.14586V7.13372V7.12161V7.10952V7.09744V7.0854V7.07337V7.06137V7.04939V7.03743V7.02549V7.01358V7.00169V6.98982V6.97798V6.96615V6.95435V6.94257V6.93081V6.91908V6.90737V6.89568V6.88401V6.87236V6.86074V6.84914V6.83756V6.826V6.81447V6.80295V6.79146V6.77999V6.76855V6.75712V6.74572V6.73434V6.72298V6.71164V6.70033V6.68903V6.67776V6.66651V6.65528V6.64408V6.63289V6.62173V6.61059V6.59947V6.58837V6.5773V6.56624V6.55521V6.5442V6.53321V6.52224V6.5113V6.50037V6.48947V6.47859V6.46773V6.45689V6.44607V6.43527V6.4245V6.41375V6.40302V6.3923V6.38162V6.37095V6.3603V6.34968V6.33907V6.32849V6.31793V6.30739V6.29687V6.28637V6.27589V6.26544V6.255V6.24459V6.2342V6.22383V6.21348V6.20315V6.19284V6.18255V6.17228V6.16204V6.15181V6.14161V6.13143V6.12127V6.11112V6.101V6.0909V6.08082V6.07077V6.06073V6.05071V6.04072V6.03074V6.02079V6.01085V6.00094V5.99105V5.98117V5.97132V5.96149V5.95168V5.94189V5.93212V5.92237V5.91264V5.90293V5.89324V5.88358V5.87393V5.8643V5.85469V5.84511V5.83554V5.826V5.81647V5.80697V5.79748V5.78801V5.77857V5.76915V5.75974V5.75036V5.74099V5.73165V5.72232V5.71302V5.70373V5.69447V5.68523V5.676V5.6668V5.65761V5.64845V5.6393V5.63018V5.62107V5.61199V5.60292V5.59388V5.58485V5.57584V5.56686V5.55789V5.54894V5.54002V5.53111V5.52222V5.51335V5.5045V5.49567V5.48686V5.47807V5.4693V5.46055V5.45182V5.44311V5.43441V5.42574V5.41709V5.40845V5.39983V5.39124V5.38266V5.3741V5.36557V5.35705V5.34855V5.34007V5.3316V5.32316V5.31474V5.30633V5.29795V5.28958V5.28124V5.27291V5.2646V5.25631V5.24804V5.23979V5.23156V5.22334V5.21515V5.20697V5.19882V5.19068V5.18256V5.17446V5.16638V5.15831V5.15027V5.14224V5.13424V5.12625V5.11828V5.11033V5.1024V5.09448V5.08659V5.07871V5.07085V5.06302V5.0552V5.04739V5.03961V5.03185V5.0241V5.01637V5.00866V5.00097V4.9933V4.98564V4.97801V4.97039V4.96279V4.95521V4.94764V4.9401V4.93257V4.92506V4.91757V4.9101V4.90265V4.89521V4.8878V4.8804V4.87301V4.86565V4.85831V4.85098V4.84367V4.83638V4.8291V4.82185V4.81461V4.80739V4.80019V4.79301V4.78584V4.77869V4.77156V4.76445V4.75735V4.75028V4.74322V4.73617V4.72915V4.72214V4.71515V4.70818V4.70123V4.69429V4.68738V4.68047V4.67359V4.66672V4.65988V4.65305V4.64623V4.63944V4.63266V4.6259V4.61915V4.61243V4.60572V4.59902V4.59235V4.58569V4.57905V4.57243V4.56582V4.55924V4.55266V4.54611V4.53957V4.53305V4.52655V4.52006V4.5136V4.50714V4.50071V4.49429V4.48789V4.48151V4.47514V4.46879V4.46246V4.45614V4.44984V4.44356V4.4373V4.43105V4.42482V4.4186V4.4124V4.40622V4.40006V4.39391V4.38778V4.38166V4.37556V4.36948V4.36342V4.35737V4.35134V4.34532V4.33932V4.33334V4.32737V4.32142V4.31549V4.30957V4.30367V4.29779V4.29192V4.28607V4.28024V4.27442V4.26862V4.26283V4.25706V4.25131V4.24557V4.23985V4.23414V4.22846V4.22278V4.21713V4.21149V4.20586V4.20025V4.19466V4.18909V4.18352V4.17798V4.17245V4.16694V4.16144V4.15596V4.1505V4.14505V4.13962V4.1342V4.1288V4.12341V4.11804V4.11269V4.10735V4.10203V4.09672V4.09143V4.08615V4.08089V4.07565V4.07042V4.06521V4.06001V4.05483V4.04966V4.04451V4.03937V4.03425V4.02915V4.02406V4.01898V4.01393V4.00888V4.00385V3.99884C14.25 3.8619 14.1392 3.75 14 3.75H12C11.5858 3.75 11.25 3.41421 11.25 3C11.25 2.58579 11.5858 2.25 12 2.25H14C14.9654 2.25 15.75 3.03121 15.75 3.99884V4.00385V4.00888V4.01393V4.01898V4.02406V4.02915V4.03425V4.03937V4.04451V4.04966V4.05483V4.06001V4.06521V4.07042V4.07565V4.08089V4.08615V4.09143V4.09672V4.10203V4.10735V4.11269V4.11804V4.12341V4.1288V4.1342V4.13962V4.14505V4.1505V4.15596V4.16144V4.16694V4.17245V4.17798V4.18352V4.18909V4.19466V4.20025V4.20586V4.21149V4.21713V4.22278V4.22846V4.23414V4.23985V4.24557V4.25131V4.25706V4.26283V4.26862V4.27442V4.28024V4.28607V4.29192V4.29779V4.30367V4.30957V4.31549V4.32142V4.32737V4.33334V4.33932V4.34532V4.35134V4.35737V4.36342V4.36948V4.37556V4.38166V4.38778V4.39391V4.40006V4.40622V4.4124V4.4186V4.42482V4.43105V4.4373V4.44356V4.44984V4.45614V4.46246V4.46879V4.47514V4.48151V4.48789V4.49429V4.50071V4.50714V4.5136V4.52006V4.52655V4.53305V4.53957V4.54611V4.55266V4.55924V4.56582V4.57243V4.57905V4.58569V4.59235V4.59902V4.60572V4.61243V4.61915V4.6259V4.63266V4.63944V4.64623V4.65305V4.65988V4.66672V4.67359V4.68047V4.68738V4.69429V4.70123V4.70818V4.71515V4.72214V4.72915V4.73617V4.74322V4.75028V4.75735V4.76445V4.77156V4.77869V4.78584V4.79301V4.80019V4.80739V4.81461V4.82185V4.8291V4.83638V4.84367V4.85098V4.85831V4.86565V4.87301V4.8804V4.8878V4.89521V4.90265V4.9101V4.91757V4.92506V4.93257V4.9401V4.94764V4.95521V4.96279V4.97039V4.97801V4.98564V4.9933V5.00097V5.00866V5.01637V5.0241V5.03185V5.03961V5.04739V5.0552V5.06302V5.07085V5.07871V5.08659V5.09448V5.1024V5.11033V5.11828V5.12625V5.13424V5.14224V5.15027V5.15831V5.16638V5.17446V5.18256V5.19068V5.19882V5.20697V5.21515V5.22334V5.23156V5.23979V5.24804V5.25631V5.2646V5.27291V5.28124V5.28958V5.29795V5.30633V5.31474V5.32316V5.3316V5.34007V5.34855V5.35705V5.36557V5.3741V5.38266V5.39124V5.39983V5.40845V5.41709V5.42574V5.43441V5.44311V5.45182V5.46055V5.4693V5.47807V5.48686V5.49567V5.5045V5.51335V5.52222V5.53111V5.54002V5.54894V5.55789V5.56686V5.57584V5.58485V5.59388V5.60292V5.61199V5.62107V5.63018V5.6393V5.64845V5.65761V5.6668V5.676V5.68523V5.69447V5.70373V5.71302V5.72232V5.73165V5.74099V5.75036V5.75974V5.76915V5.77857V5.78801V5.79748V5.80697V5.81647V5.826V5.83554V5.84511V5.85469V5.8643V5.87393V5.88358V5.89324V5.90293V5.91264V5.92237V5.93212V5.94189V5.95168V5.96149V5.97132V5.98117V5.99105V6.00094V6.01085V6.02079V6.03074V6.04072V6.05071V6.06073V6.07077V6.08082V6.0909V6.101V6.11112V6.12127V6.13143V6.14161V6.15181V6.16204V6.17228V6.18255V6.19284V6.20315V6.21348V6.22383V6.2342V6.24459V6.255V6.26544V6.27589V6.28637V6.29687V6.30739V6.31793V6.32849V6.33907V6.34968V6.3603V6.37095V6.38162V6.3923V6.40302V6.41375V6.4245V6.43527V6.44607V6.45689V6.46773V6.47859V6.48947V6.50037V6.5113V6.52224V6.53321V6.5442V6.55521V6.56624V6.5773V6.58837V6.59947V6.61059V6.62173V6.63289V6.64408V6.65528V6.66651V6.67776V6.68903V6.70033V6.71164V6.72298V6.73434V6.74572V6.75712V6.76855V6.77999V6.79146V6.80295V6.81447V6.826V6.83756V6.84914V6.86074V6.87236V6.88401V6.89568V6.90737V6.91908V6.93081V6.94257V6.95435V6.96615V6.97798V6.98982V7.00169V7.01358V7.02549V7.03743V7.04939V7.06137V7.07337V7.0854V7.09744V7.10952V7.12161V7.13372V7.14586V7.15802V7.17021V7.18241V7.19464V7.20689V7.21917V7.23146V7.24378V7.25612V7.26849V7.28088V7.29329V7.30572V7.31818V7.33066V7.34316V7.35569V7.36823V7.3808V7.3934V7.40602V7.41866V7.43132V7.44401V7.45671V7.46945V7.4822V7.49498V7.50778V7.52061V7.53345V7.54633V7.55922V7.57214V7.58508V7.59804V7.61103V7.62404V7.63708V7.65013V7.66321V7.67632V7.68945V7.7026V7.71577V7.72897V7.74219V7.75544V7.76871V7.782V7.79531V7.80865V7.82202V7.8354V7.84881V7.86225V7.87571V7.88919V7.90269V7.91622V7.92977V7.94335V7.95695V7.97057V7.98422V7.99789V8.01159V8.02531V8.03905V8.05282V8.06661V8.08043V8.09427V8.10813V8.12202V8.13593V8.14987V8.16383V8.17781V8.19182V8.20585V8.21991V8.23399V8.24809V8.26222V8.27637V8.29055V8.30475V8.31898V8.33323V8.3475V8.3618V8.37613V8.39047V8.40485V8.41924V8.43367V8.44811V8.46258V8.47708V8.4916V8.50614V8.52071V8.5353V8.54992V8.56456V8.57923V8.59392V8.60864V8.62338V8.63814V8.65294V8.66775V8.68259V8.69746V8.71235V8.72726V8.7422V8.75716V8.77215V8.78717V8.80221V8.81727V8.83236V8.84748V8.86262V8.87778V8.89297V8.90818V8.92342V8.93869V8.95398V8.96929V8.98463V9C15.75 10.3504 15.4794 11.4189 15.015 12.2549C14.5486 13.0943 13.9095 13.6583 13.2392 14.0306C12.3563 14.5212 11.42 14.6773 10.75 14.7269V19.5C10.75 19.9142 11.0858 20.25 11.5 20.25C11.9142 20.25 12.25 19.9142 12.25 19.5V19C12.25 17.7117 13.1359 16.6303 14.3318 16.3318C14.6303 15.1359 15.7117 14.25 17 14.25C18.5188 14.25 19.75 15.4812 19.75 17C19.75 18.5188 18.5188 19.75 17 19.75C15.7973 19.75 14.7749 18.9779 14.4015 17.9023C14.0133 18.1145 13.75 18.5265 13.75 19V19.5C13.75 20.7426 12.7426 21.75 11.5 21.75C10.2574 21.75 9.25 20.7426 9.25 19.5V14.7269C8.58004 14.6773 7.64373 14.5212 6.76077 14.0306C6.09055 13.6583 5.45138 13.0943 4.98501 12.2549C4.52056 11.4189 4.25 10.3504 4.25 9V8.98463V8.96929V8.95398V8.93869V8.92342V8.90818V8.89297V8.87778V8.86262V8.84748V8.83236V8.81727V8.80221V8.78717V8.77215V8.75716V8.7422V8.72726V8.71235V8.69746V8.68259V8.66775V8.65294V8.63814V8.62338V8.60864V8.59392V8.57923V8.56456V8.54992V8.5353V8.52071V8.50614V8.4916V8.47708V8.46258V8.44811V8.43367V8.41924V8.40485V8.39047V8.37613V8.3618V8.3475V8.33323V8.31898V8.30475V8.29055V8.27637V8.26222V8.24809V8.23399V8.21991V8.20585V8.19182V8.17781V8.16383V8.14987V8.13593V8.12202V8.10813V8.09427V8.08043V8.06661V8.05282V8.03905V8.02531V8.01159V7.99789V7.98422V7.97057V7.95695V7.94335V7.92977V7.91622V7.90269V7.88919V7.87571V7.86225V7.84881V7.8354V7.82202V7.80865V7.79531V7.782V7.76871V7.75544V7.74219V7.72897V7.71577V7.7026V7.68945V7.67632V7.66321V7.65013V7.63708V7.62404V7.61103V7.59804V7.58508V7.57214V7.55922V7.54633V7.53345V7.52061V7.50778V7.49498V7.4822V7.46945V7.45671V7.44401V7.43132V7.41866V7.40602V7.3934V7.3808V7.36823V7.35569V7.34316V7.33066V7.31818V7.30572V7.29329V7.28088V7.26849V7.25612V7.24378V7.23146V7.21917V7.20689V7.19464V7.18241V7.17021V7.15802V7.14586V7.13372V7.12161V7.10952V7.09744V7.0854V7.07337V7.06137V7.04939V7.03743V7.02549V7.01358V7.00169V6.98982V6.97798V6.96615V6.95435V6.94257V6.93081V6.91908V6.90737V6.89568V6.88401V6.87236V6.86074V6.84914V6.83756V6.826V6.81447V6.80295V6.79146V6.77999V6.76855V6.75712V6.74572V6.73434V6.72298V6.71164V6.70033V6.68903V6.67776V6.66651V6.65528V6.64408V6.63289V6.62173V6.61059V6.59947V6.58837V6.5773V6.56624V6.55521V6.5442V6.53321V6.52224V6.5113V6.50037V6.48947V6.47859V6.46773V6.45689V6.44607V6.43527V6.4245V6.41375V6.40302V6.3923V6.38162V6.37095V6.3603V6.34968V6.33907V6.32849V6.31793V6.30739V6.29687V6.28637V6.27589V6.26544V6.255V6.24459V6.2342V6.22383V6.21348V6.20315V6.19284V6.18255V6.17228V6.16204V6.15181V6.14161V6.13143V6.12127V6.11112V6.101V6.0909V6.08082V6.07077V6.06073V6.05071V6.04072V6.03074V6.02079V6.01085V6.00094V5.99105V5.98117V5.97132V5.96149V5.95168V5.94189V5.93212V5.92237V5.91264V5.90293V5.89324V5.88358V5.87393V5.8643V5.85469V5.84511V5.83554V5.826V5.81647V5.80697V5.79748V5.78801V5.77857V5.76915V5.75974V5.75036V5.74099V5.73165V5.72232V5.71302V5.70373V5.69447V5.68523V5.676V5.6668V5.65761V5.64845V5.6393V5.63018V5.62107V5.61199V5.60292V5.59388V5.58485V5.57584V5.56686V5.55789V5.54894V5.54002V5.53111V5.52222V5.51335V5.5045V5.49567V5.48686V5.47807V5.4693V5.46055V5.45182V5.44311V5.43441V5.42574V5.41709V5.40845V5.39983V5.39124V5.38266V5.3741V5.36557V5.35705V5.34855V5.34007V5.3316V5.32316V5.31474V5.30633V5.29795V5.28958V5.28124V5.27291V5.2646V5.25631V5.24804V5.23979V5.23156V5.22334V5.21515V5.20697V5.19882V5.19068V5.18256V5.17446V5.16638V5.15831V5.15027V5.14224V5.13424V5.12625V5.11828V5.11033V5.1024V5.09448V5.08659V5.07871V5.07085V5.06302V5.0552V5.04739V5.03961V5.03185V5.0241V5.01637V5.00866V5.00097V4.9933V4.98564V4.97801V4.97039V4.96279V4.95521V4.94764V4.9401V4.93257V4.92506V4.91757V4.9101V4.90265V4.89521V4.8878V4.8804V4.87301V4.86565V4.85831V4.85098V4.84367V4.83638V4.8291V4.82185V4.81461V4.80739V4.80019V4.79301V4.78584V4.77869V4.77156V4.76445V4.75735V4.75028V4.74322V4.73617V4.72915V4.72214V4.71515V4.70818V4.70123V4.69429V4.68738V4.68047V4.67359V4.66672V4.65988V4.65305V4.64623V4.63944V4.63266V4.6259V4.61915V4.61243V4.60572V4.59902V4.59235V4.58569V4.57905V4.57243V4.56582V4.55924V4.55266V4.54611V4.53957V4.53305V4.52655V4.52006V4.5136V4.50714V4.50071V4.49429V4.48789V4.48151V4.47514V4.46879V4.46246V4.45614V4.44984V4.44356V4.4373V4.43105V4.42482V4.4186V4.4124V4.40622V4.40006V4.39391V4.38778V4.38166V4.37556V4.36948V4.36342V4.35737V4.35134V4.34532V4.33932V4.33334V4.32737V4.32142V4.31549V4.30957V4.30367V4.29779V4.29192V4.28607V4.28024V4.27442V4.26862V4.26283V4.25706V4.25131V4.24557V4.23985V4.23414V4.22846V4.22278V4.21713V4.21149V4.20586V4.20025V4.19466V4.18909V4.18352V4.17798V4.17245V4.16694V4.16144V4.15596V4.1505V4.14505V4.13962V4.1342V4.1288V4.12341V4.11804V4.11269V4.10735V4.10203V4.09672V4.09143V4.08615V4.08089V4.07565V4.07042V4.06521V4.06001V4.05483V4.04966V4.04451V4.03937V4.03425V4.02915V4.02406V4.01898V4.01393V4.00888V4.00385V3.99884C4.25 3.03121 5.03463 2.25 6 2.25H8C8.41421 2.25 8.75 2.58579 8.75 3C8.75 3.41421 8.41421 3.75 8 3.75H6ZM15.75 17C15.75 16.3096 16.3096 15.75 17 15.75C17.6904 15.75 18.25 16.3096 18.25 17C18.25 17.6904 17.6904 18.25 17 18.25C16.3096 18.25 15.75 17.6904 15.75 17Z" fill="#23262A"/>
</svg>
