<svg width="24" height="24" viewBox="0 0 24 24" fill="none" xmlns="http://www.w3.org/2000/svg">
<path fill-rule="evenodd" clip-rule="evenodd" d="M6 3.75C5.8608 3.75 5.75 3.8619 5.75 3.99884V9C5.75 10.1496 5.97944 10.9561 6.29624 11.5264C6.61112 12.0932 7.03445 12.4667 7.48923 12.7194C8.42834 13.2411 9.49986 13.25 10 13.25C10.5001 13.25 11.5717 13.2411 12.5108 12.7194C12.9655 12.4667 13.3889 12.0932 13.7038 11.5264C14.0206 10.9561 14.25 10.1496 14.25 9V3.99884C14.25 3.8619 14.1392 3.75 14 3.75H12C11.5858 3.75 11.25 3.41421 11.25 3C11.25 2.58579 11.5858 2.25 12 2.25H14C14.9654 2.25 15.75 3.03121 15.75 3.99884V9C15.75 10.3504 15.4794 11.4189 15.015 12.2549C14.5486 13.0943 13.9095 13.6583 13.2392 14.0306C12.3563 14.5212 11.42 14.6773 10.75 14.7269V19.5C10.75 19.9142 11.0858 20.25 11.5 20.25C11.9142 20.25 12.25 19.9142 12.25 19.5V19C12.25 17.7117 13.1359 16.6303 14.3318 16.3318C14.6303 15.1359 15.7117 14.25 17 14.25C18.5188 14.25 19.75 15.4812 19.75 17C19.75 18.5188 18.5188 19.75 17 19.75C15.7973 19.75 14.7749 18.9779 14.4015 17.9023C14.0133 18.1145 13.75 18.5265 13.75 19V19.5C13.75 20.7426 12.7426 21.75 11.5 21.75C10.2574 21.75 9.25 20.7426 9.25 19.5V14.7269C8.58004 14.6773 7.64373 14.5212 6.76077 14.0306C6.09055 13.6583 5.45138 13.0943 4.98501 12.2549C4.52056 11.4189 4.25 10.3504 4.25 9V3.99884C4.25 3.03121 5.03463 2.25 6 2.25H8C8.41421 2.25 8.75 2.58579 8.75 3C8.75 3.41421 8.41421 3.75 8 3.75H6ZM15.75 17C15.75 16.3096 16.3096 15.75 17 15.75C17.6904 15.75 18.25 16.3096 18.25 17C18.25 17.6904 17.6904 18.25 17 18.25C16.3096 18.25 15.75 17.6904 15.75 17Z" fill="#23262A"/>
</svg>
