<svg width="24" height="24" viewBox="0 0 24 24" fill="none" xmlns="http://www.w3.org/2000/svg">
<path fill-rule="evenodd" clip-rule="evenodd" d="M14 2.75C13.8011 2.75 13.6103 2.82902 13.4697 2.96967C13.329 3.11032 13.25 3.30109 13.25 3.5V3.51172V3.52346V3.53521V3.54697V3.55873V3.57051V3.5823V3.59411V3.60592V3.61774V3.62957V3.64141V3.65326V3.66512V3.67699V3.68887V3.70076V3.71266V3.72457V3.73649V3.74841V3.76035V3.77229V3.78424V3.7962V3.80816V3.82014V3.83212V3.84411V3.85611V3.86812V3.88013V3.89215V3.90418V3.91621V3.92825V3.9403V3.95235V3.96441V3.97648V3.98855V4.00063V4.01271V4.0248V4.0369V4.049V4.0611V4.07321V4.08533V4.09745V4.10958V4.12171V4.13384V4.14598V4.15812V4.17027V4.18242V4.19458V4.20674V4.2189V4.23106V4.24323V4.25541V4.26758V4.27976V4.29194V4.30412V4.31631V4.3285V4.34069V4.35288V4.36507V4.37727V4.38947V4.40167V4.41387V4.42607V4.43827V4.45048V4.46268V4.47489V4.48709V4.4993V4.51151V4.52371V4.53592V4.54813V4.56033V4.57254V4.58475V4.59695V4.60915V4.62136V4.63356V4.64576V4.65796V4.67016V4.68236V4.69455V4.70675V4.71894V4.73113V4.74332V4.7555V4.76768V4.77986V4.79204V4.80421V4.81638V4.82855V4.84072V4.85288V4.86504V4.87719V4.88934V4.90149V4.91363V4.92577V4.9379V4.95003V4.96215V4.97427V4.98639V4.99849V5.0106V5.0227V5.03479V5.04688V5.05896V5.07104V5.08311V5.09517V5.10723V5.11928V5.13133V5.14336V5.1554V5.16742V5.17944V5.19145V5.20345V5.21545V5.22743V5.23941V5.25139V5.26335V5.27531V5.28726V5.29919V5.31113V5.32305V5.33496V5.34687V5.35876V5.37065V5.38252V5.39439V5.40625V5.4181V5.42994V5.44176V5.45358V5.46539V5.47719V5.48897V5.50075V5.51252V5.52427V5.53601V5.54774V5.55947V5.57117V5.58287V5.59456V5.60623V5.61789V5.62954V5.64118V5.65281V5.66442V5.67602V5.6876V5.69918V5.71074V5.72229V5.73382V5.74534V5.75685V5.76834V5.77982V5.79129V5.80274V5.81418V5.8256V5.83701V5.8484V5.85978V5.87114V5.88249V5.89382V5.90514V5.91644V5.92773V5.939V5.95025V5.96149V5.97271V5.98392V5.99511V6.00628V6.01744V6.02858V6.0397V6.05081V6.0619V6.07297V6.08402V6.09506V6.10607V6.11707V6.12806V6.13902V6.14997V6.16089V6.1718V6.18269V6.19356V6.20441V6.21525V6.22606V6.23685V6.24763V6.25838V6.26912V6.27983V6.29053V6.3012V6.31186V6.32249V6.3331V6.3437V6.35427V6.36482V6.37535V6.38586V6.39634V6.40681V6.41725V6.42767V6.43807V6.44845V6.45881V6.46914V6.47945V6.48974V6.5V6.51025V6.52047V6.53066V6.54083V6.55098V6.56111V6.57121V6.58129V6.59135V6.60138V6.61138V6.62136V6.63132V6.64125V6.65116V6.66104V6.6709V6.68074V6.69054V6.70032V6.71008V6.71981V6.72952V6.7392V6.74885V6.75848V6.76808V6.77765V6.7872V6.79672V6.80621V6.81568V6.82512V6.83453V6.84391V6.85327V6.8626V6.8719V6.88117V6.89042V6.89963V6.90882V6.91798V6.92711V6.93622V6.94529V6.95434V6.96335V6.97234V6.98129V6.99022V6.99912V7.00799V7.01682V7.02563V7.03441V7.04315V7.05187V7.06056V7.06921V7.07783V7.08643V7.09499V7.10352V7.11202V7.12048V7.12892V7.13732V7.14569V7.15403V7.16234V7.17061V7.17886V7.18707V7.19524V7.20339V7.2115V7.21957V7.22762V7.23563V7.2436V7.25H6.75V6.5C6.75 4.70507 5.29493 3.25 3.5 3.25C3.08579 3.25 2.75 3.58579 2.75 4C2.75 4.41421 3.08579 4.75 3.5 4.75C4.4665 4.75 5.25 5.5335 5.25 6.5V8V9C5.25 10.5575 5.50465 11.9969 6.2647 13.0609C7.06077 14.1754 8.31506 14.75 10 14.75H10.0176H10.0351H10.0526H10.07H10.0874H10.1048H10.1221H10.1394H10.1567H10.1739H10.1911H10.2082H10.2253H10.2424H10.2595H10.2765H10.2934H10.3104H10.3272H10.3441H10.3609H10.3777H10.3944H10.4112H10.4278H10.4445H10.4611H10.4776H10.4942H10.5107H10.5271H10.5436H10.56H10.5763H10.5926H10.6089H10.6252H10.6414H10.6576H10.6737H10.6899H10.7059H10.722H10.738H10.754H10.7699H10.7858H10.8017H10.8175H10.8334H10.8491H10.8649H10.8806H10.8963H10.9119H10.9275H10.9431H10.9586H10.9741H10.9896H11.0051H11.0205H11.0359H11.0512H11.0665H11.0818H11.0971H11.1123H11.1275H11.1426H11.1577H11.1728H11.1879H11.2029H11.2179H11.2329H11.2478H11.2627H11.2776H11.2925H11.3073H11.322H11.3368H11.3515H11.3662H11.3809H11.3955H11.4101H11.4247H11.4392H11.4537H11.4682H11.4826H11.497H11.5114H11.5258H11.5401H11.5544H11.5687H11.5829H11.5972H11.6113H11.6255H11.6396H11.6537H11.6678H11.6818H11.6958H11.7098H11.7238H11.7377H11.7516H11.7655H11.7793H11.7931H11.8069H11.8207H11.8344H11.8481H11.8618H11.8754H11.8891H11.9026H11.9162H11.9298H11.9433H11.9568H11.9702H11.9836H11.9971H12.0104H12.0238H12.0371H12.0504H12.0637H12.0769H12.0902H12.1034H12.1165H12.1297H12.1428H12.1559H12.169H12.182H12.195H12.208H12.221H12.2339H12.2469H12.2598H12.2726H12.2855H12.2983H12.3111H12.3239H12.3366H12.3493H12.362H12.3747H12.3874H12.4H12.4126H12.4252H12.4377H12.4503H12.4628H12.4752H12.4877H12.5002H12.5126H12.525H12.5373H12.5497H12.562H12.5743H12.5866H12.5988H12.6111H12.6233H12.6355H12.6477H12.6598H12.6719H12.684H12.6961H12.7082H12.7202H12.7322H12.7442H12.7562H12.7682H12.7801H12.792H12.8039H12.8158H12.8276H12.8394H12.8512H12.863H12.8748H12.8865H12.8983H12.91H12.9217H12.9333H12.945H12.9566H12.9682H12.9798H12.9914H13.0029H13.0144H13.026H13.0374H13.0489H13.0604H13.0718H13.0832H13.0946H13.106H13.1173H13.1287H13.14H13.1513H13.1626H13.1739H13.1851H13.1963H13.2076H13.2188H13.2299H13.2411H13.2522H13.2634H13.2745H13.2856H13.2966H13.3077H13.3187H13.3298H13.3408H13.3518H13.3627H13.3737H13.3846H13.3955H13.4065H13.4173H13.4282H13.4391H13.4499H13.4608H13.4716H13.4824H13.4931H13.5039H13.5147H13.5254H13.5361H13.5468H13.5575H13.5682H13.5788H13.5895H13.6001H13.6107H13.6213H13.6319H13.6425H13.653H13.6636H13.6741H13.6846H13.6951H13.7056H13.7161H13.7266H13.737H13.7474H13.7579H13.7683H13.7787H13.789H13.7994H13.8098H13.8201H13.8304H13.8408H13.8511H13.8613H13.8716H13.8819H13.8921H13.9024H13.9126H13.9228H13.933H13.9432H13.9534H13.9636H13.9738H13.9839H13.994H14.0042H14.0143H14.0244H14.0345H14.0446H14.0546H14.0647H14.0747H14.0848H14.0948H14.1048H14.1148H14.1248H14.1348H14.1448H14.1548H14.1647H14.1747H14.1846H14.1946H14.2045H14.2144H14.2243H14.2342H14.2441H14.2539H14.2638H14.2737H14.2835H14.2933H14.3032H14.313H14.3228H14.3326H14.3424H14.3522H14.362H14.3717H14.3815H14.3913H14.401H14.4108H14.4205H14.4302H14.4399H14.4496H14.4593H14.469H14.4787H14.4884H14.4981H14.5078H14.5174H14.5271H14.5367H14.5464H14.556H14.5656H14.5753H14.5849H14.5945H14.6041H14.6137H14.6233H14.6329H14.6425H14.6521H14.6616H14.6712H14.6808H14.6903H14.6999H14.7094H14.719H14.7285H14.738H14.7476H14.7571H14.7666H14.7761H14.7856H14.7952H14.8047H14.8142H14.8237H14.8331H14.8426H14.8521H14.8616H14.8711H14.8806H14.89H14.8995H14.909H14.9184H14.9279H14.9373H14.9468H14.9562H14.9657H14.9751H14.9846H14.994H15.0035H15.0129H15.0223H15.0318H15.0412H15.0506H15.0601H15.0695H15.0789H15.0883H15.0978H15.1072H15.1166H15.126H15.1354H15.1449H15.1543H15.1637H15.1731H15.1825H15.1919H15.2014H15.2108H15.2202H15.2296H15.239H15.2484H15.2578H15.2673H15.2767H15.2861H15.2955H15.3049H15.3143H15.3238H15.3332H15.3426H15.352H15.3614H15.3709H15.3803H15.3897H15.3991H15.4086H15.418H15.4274H15.4369H15.4463H15.4557H15.4652H15.4746H15.4841H15.4935H15.503H15.5124H15.5219H15.5313H15.5408H15.5503H15.5597H15.5692H15.5787H15.5881H15.5976H15.6071H15.6166H15.6261H15.6356H15.6451H15.6546H15.6641H15.6736H15.6831H15.6926H15.7022H15.7117H15.7212H15.7308H15.7403H15.7498H15.7594H15.7689H15.7785H15.7881H15.7976H15.8072H15.8168H15.8264H15.836H15.8456H15.8552H15.8648H15.8744H15.884H15.8937H15.9033H15.9129H15.9226H15.9322H15.9419H15.9516H15.9612H15.9709H15.9806H15.9903H16C17.6849 14.75 18.9392 14.1754 19.7353 13.0609C20.4953 11.9969 20.75 10.5575 20.75 9V8.5C20.75 6.38628 20.219 4.85173 18.95 3.9C17.7394 2.99204 16.0185 2.75 14 2.75ZM14.75 8H14L14.75 7.99997V7.99989V7.99974V7.99954V7.99929V7.99897V7.99861V7.99818V7.9977V7.99716V7.99657V7.99592V7.99521V7.99445V7.99364V7.99277V7.99184V7.99086V7.98982V7.98873V7.98759V7.98639V7.98514V7.98383V7.98247V7.98105V7.97958V7.97806V7.97648V7.97485V7.97317V7.97144V7.96965V7.9678V7.96591V7.96396V7.96196V7.95991V7.95781V7.95565V7.95345V7.95119V7.94888V7.94651V7.9441V7.94164V7.93912V7.93655V7.93394V7.93127V7.92855V7.92578V7.92296V7.92009V7.91717V7.9142V7.91118V7.90812V7.905V7.90183V7.89861V7.89535V7.89204V7.88867V7.88526V7.8818V7.87829V7.87473V7.87113V7.86748V7.86378V7.86003V7.85623V7.85239V7.8485V7.84456V7.84057V7.83654V7.83246V7.82834V7.82417V7.81995V7.81568V7.81137V7.80702V7.80262V7.79817V7.79367V7.78914V7.78455V7.77992V7.77525V7.77053V7.76577V7.76096V7.7561V7.75121V7.74626V7.74128V7.73625V7.73118V7.72606V7.7209V7.71569V7.71045V7.70516V7.69982V7.69445V7.68903V7.68357V7.67806V7.67252V7.66693V7.6613V7.65562V7.64991V7.64415V7.63836V7.63252V7.62664V7.62072V7.61475V7.60875V7.60271V7.59662V7.5905V7.58433V7.57813V7.57188V7.56559V7.55927V7.5529V7.5465V7.54006V7.53357V7.52705V7.52049V7.51389V7.50725V7.50057V7.49386V7.4871V7.48031V7.47348V7.46661V7.45971V7.45276V7.44578V7.43876V7.43171V7.42462V7.41749V7.41032V7.40312V7.39588V7.3886V7.38129V7.37394V7.36655V7.35913V7.35168V7.34418V7.33666V7.32909V7.3215V7.31386V7.30619V7.29849V7.29075V7.28298V7.27517V7.26733V7.25946V7.25155V7.2436V7.23563V7.22762V7.21957V7.2115V7.20339V7.19524V7.18707V7.17886V7.17061V7.16234V7.15403V7.14569V7.13732V7.12892V7.12048V7.11202V7.10352V7.09499V7.08643V7.07783V7.06921V7.06056V7.05187V7.04315V7.03441V7.02563V7.01682V7.00799V6.99912V6.99022V6.98129V6.97234V6.96335V6.95434V6.94529V6.93622V6.92711V6.91798V6.90882V6.89963V6.89042V6.88117V6.8719V6.8626V6.85327V6.84391V6.83453V6.82512V6.81568V6.80621V6.79672V6.7872V6.77765V6.76808V6.75848V6.74885V6.7392V6.72952V6.71981V6.71008V6.70032V6.69054V6.68074V6.6709V6.66104V6.65116V6.64125V6.63132V6.62136V6.61138V6.60138V6.59135V6.58129V6.57121V6.56111V6.55098V6.54083V6.53066V6.52047V6.51025V6.5V6.48974V6.47945V6.46914V6.45881V6.44845V6.43807V6.42767V6.41725V6.40681V6.39634V6.38586V6.37535V6.36482V6.35427V6.3437V6.3331V6.32249V6.31186V6.3012V6.29053V6.27983V6.26912V6.25838V6.24763V6.23685V6.22606V6.21525V6.20441V6.19356V6.18269V6.1718V6.16089V6.14997V6.13902V6.12806V6.11707V6.10607V6.09506V6.08402V6.07297V6.0619V6.05081V6.0397V6.02858V6.01744V6.00628V5.99511V5.98392V5.97271V5.96149V5.95025V5.939V5.92773V5.91644V5.90514V5.89382V5.88249V5.87114V5.85978V5.8484V5.83701V5.8256V5.81418V5.80274V5.79129V5.77982V5.76834V5.75685V5.74534V5.73382V5.72229V5.71074V5.69918V5.6876V5.67602V5.66442V5.65281V5.64118V5.62954V5.61789V5.60623V5.59456V5.58287V5.57117V5.55947V5.54774V5.53601V5.52427V5.51252V5.50075V5.48897V5.47719V5.46539V5.45358V5.44176V5.42994V5.4181V5.40625V5.39439V5.38252V5.37065V5.35876V5.34687V5.33496V5.32305V5.31113V5.29919V5.28726V5.27531V5.26335V5.25139V5.23941V5.22743V5.21545V5.20345V5.19145V5.17944V5.16742V5.1554V5.14336V5.13133V5.11928V5.10723V5.09517V5.08311V5.07104V5.05896V5.04688V5.03479V5.0227V5.0106V4.99849V4.98639V4.97427V4.96215V4.95003V4.9379V4.92577V4.91363V4.90149V4.88934V4.87719V4.86504V4.85288V4.84072V4.82855V4.81638V4.80421V4.79204V4.77986V4.76768V4.7555V4.74332V4.73113V4.71894V4.70675V4.69455V4.68236V4.67016V4.65796V4.64576V4.63356V4.62136V4.60915V4.59695V4.58475V4.57254V4.56033V4.54813V4.53592V4.52371V4.51151V4.4993V4.48709V4.47489V4.46268V4.45048V4.43827V4.42607V4.41387V4.40167V4.38947V4.37727V4.36507V4.35288V4.34069V4.3285V4.31631V4.30412V4.29194V4.27976V4.26758V4.26372C16.3113 4.3241 17.365 4.58628 18.05 5.1C18.781 5.64827 19.25 6.61372 19.25 8.5V9C19.25 10.4425 19.0047 11.5031 18.5147 12.1891C18.0608 12.8246 17.3151 13.25 16 13.25H15.9903H15.9806H15.9709H15.9612H15.9516H15.9419H15.9322H15.9226H15.9129H15.9033H15.8937H15.884H15.8744H15.8648H15.8552H15.8456H15.836H15.8264H15.8168H15.8072H15.7976H15.7881H15.7785H15.7689H15.7594H15.7498H15.7403H15.7308H15.7212H15.7117H15.7022H15.6926H15.6831H15.6736H15.6641H15.6546H15.6451H15.6356H15.6261H15.6166H15.6071H15.5976H15.5881H15.5787H15.5692H15.5597H15.5503H15.5408H15.5313H15.5219H15.5124H15.503H15.4935H15.4841H15.4746H15.4652H15.4557H15.4463H15.4369H15.4274H15.418H15.4086H15.3991H15.3897H15.3803H15.3709H15.3614H15.352H15.3426H15.3332H15.3238H15.3143H15.3049H15.2955H15.2861H15.2767H15.2673H15.2578H15.2484H15.239H15.2296H15.2202H15.2108H15.2014H15.1919H15.1825H15.1731H15.1637H15.1543H15.1449H15.1354H15.126H15.1166H15.1072H15.0978H15.0883H15.0789H15.0695H15.0601H15.0506H15.0412H15.0318H15.0223H15.0129H15.0035H14.994H14.9846H14.9751H14.9657H14.9562H14.9468H14.9373H14.9279H14.9184H14.909H14.8995H14.89H14.8806H14.8711H14.8616H14.8521H14.8426H14.8331H14.8237H14.8142H14.8047H14.7952H14.7856H14.7761H14.7666H14.7571H14.7476H14.738H14.7285H14.719H14.7094H14.6999H14.6903H14.6808H14.6712H14.6616H14.6521H14.6425H14.6329H14.6233H14.6137H14.6041H14.5945H14.5849H14.5753H14.5656H14.556H14.5464H14.5367H14.5271H14.5174H14.5078H14.4981H14.4884H14.4787H14.469H14.4593H14.4496H14.4399H14.4302H14.4205H14.4108H14.401H14.3913H14.3815H14.3717H14.362H14.3522H14.3424H14.3326H14.3228H14.313H14.3032H14.2933H14.2835H14.2737H14.2638H14.2539H14.2441H14.2342H14.2243H14.2144H14.2045H14.1946H14.1846H14.1747H14.1647H14.1548H14.1448H14.1348H14.1248H14.1148H14.1048H14.0948H14.0848H14.0747H14.0647H14.0546H14.0446H14.0345H14.0244H14.0143H14.0042H13.994H13.9839H13.9738H13.9636H13.9534H13.9432H13.933H13.9228H13.9126H13.9024H13.8921H13.8819H13.8716H13.8613H13.8511H13.8408H13.8304H13.8201H13.8098H13.7994H13.789H13.7787H13.7683H13.7579H13.7474H13.737H13.7266H13.7161H13.7056H13.6951H13.6846H13.6741H13.6636H13.653H13.6425H13.6319H13.6213H13.6107H13.6001H13.5895H13.5788H13.5682H13.5575H13.5468H13.5361H13.5254H13.5147H13.5039H13.4931H13.4824H13.4716H13.4608H13.4499H13.4391H13.4282H13.4173H13.4065H13.3955H13.3846H13.3737H13.3627H13.3518H13.3408H13.3298H13.3187H13.3077H13.2966H13.2856H13.2745H13.2634H13.2522H13.2411H13.2299H13.2188H13.2076H13.1963H13.1851H13.1739H13.1626H13.1513H13.14H13.1287H13.1173H13.106H13.0946H13.0832H13.0718H13.0604H13.0489H13.0374H13.026H13.0144H13.0029H12.9914H12.9798H12.9682H12.9566H12.945H12.9333H12.9217H12.91H12.8983H12.8865H12.8748H12.863H12.8512H12.8394H12.8276H12.8158H12.8039H12.792H12.7801H12.7682H12.7562H12.7442H12.7322H12.7202H12.7082H12.6961H12.684H12.6719H12.6598H12.6477H12.6355H12.6233H12.6111H12.5988H12.5866H12.5743H12.562H12.5497H12.5373H12.525H12.5126H12.5002H12.4877H12.4752H12.4628H12.4503H12.4377H12.4252H12.4126H12.4H12.3874H12.3747H12.362H12.3493H12.3366H12.3239H12.3111H12.2983H12.2855H12.2726H12.2598H12.2469H12.2339H12.221H12.208H12.195H12.182H12.169H12.1559H12.1428H12.1297H12.1165H12.1034H12.0902H12.0769H12.0637H12.0504H12.0371H12.0238H12.0104H11.9971H11.9836H11.9702H11.9568H11.9433H11.9298H11.9162H11.9026H11.8891H11.8754H11.8618H11.8481H11.8344H11.8207H11.8069H11.7931H11.7793H11.7655H11.7516H11.7377H11.7238H11.7098H11.6958H11.6818H11.6678H11.6537H11.6396H11.6255H11.6113H11.5972H11.5829H11.5687H11.5544H11.5401H11.5258H11.5114H11.497H11.4826H11.4682H11.4537H11.4392H11.4247H11.4101H11.3955H11.3809H11.3662H11.3515H11.3368H11.322H11.3073H11.2925H11.2776H11.2627H11.2478H11.2329H11.2179H11.2029H11.1879H11.1728H11.1577H11.1426H11.1275H11.1123H11.0971H11.0818H11.0665H11.0512H11.0359H11.0205H11.0051H10.9896H10.9741H10.9586H10.9431H10.9275H10.9119H10.8963H10.8806H10.8649H10.8491H10.8334H10.8175H10.8017H10.7858H10.7699H10.754H10.738H10.722H10.7059H10.6899H10.6737H10.6576H10.6414H10.6252H10.6089H10.5926H10.5763H10.56H10.5436H10.5271H10.5107H10.4942H10.4776H10.4611H10.4445H10.4278H10.4112H10.3944H10.3777H10.3609H10.3441H10.3272H10.3104H10.2934H10.2765H10.2595H10.2424H10.2253H10.2082H10.1911H10.1739H10.1567H10.1394H10.1221H10.1048H10.0874H10.07H10.0526H10.0351H10.0176H10C8.68494 13.25 7.93923 12.8246 7.4853 12.1891C6.99535 11.5031 6.75 10.4425 6.75 9V8.75H14C14.4142 8.75 14.75 8.41421 14.75 8ZM15.25 18.5C15.25 17.8096 15.8096 17.25 16.5 17.25C17.1904 17.25 17.75 17.8096 17.75 18.5C17.75 19.1904 17.1904 19.75 16.5 19.75C15.8096 19.75 15.25 19.1904 15.25 18.5ZM16.5 15.75C14.9812 15.75 13.75 16.9812 13.75 18.5C13.75 20.0188 14.9812 21.25 16.5 21.25C18.0188 21.25 19.25 20.0188 19.25 18.5C19.25 16.9812 18.0188 15.75 16.5 15.75ZM9.5 17.25C8.80964 17.25 8.25 17.8096 8.25 18.5C8.25 19.1904 8.80964 19.75 9.5 19.75C10.1904 19.75 10.75 19.1904 10.75 18.5C10.75 17.8096 10.1904 17.25 9.5 17.25ZM6.75 18.5C6.75 16.9812 7.98122 15.75 9.5 15.75C11.0188 15.75 12.25 16.9812 12.25 18.5C12.25 20.0188 11.0188 21.25 9.5 21.25C7.98122 21.25 6.75 20.0188 6.75 18.5Z" fill="#262626"/>
</svg>
