<svg width="24" height="24" viewBox="0 0 24 24" fill="none" xmlns="http://www.w3.org/2000/svg">
<path fill-rule="evenodd" clip-rule="evenodd" d="M14 2.75C13.8011 2.75 13.6103 2.82902 13.4697 2.96967C13.329 3.11032 13.25 3.30109 13.25 3.5V7.25H6.75V6.5C6.75 4.70507 5.29493 3.25 3.5 3.25C3.08579 3.25 2.75 3.58579 2.75 4C2.75 4.41421 3.08579 4.75 3.5 4.75C4.4665 4.75 5.25 5.5335 5.25 6.5V8V9C5.25 10.5575 5.50465 11.9969 6.2647 13.0609C7.06077 14.1754 8.31506 14.75 10 14.75H16C17.6849 14.75 18.9392 14.1754 19.7353 13.0609C20.4953 11.9969 20.75 10.5575 20.75 9V8.5C20.75 6.38628 20.219 4.85173 18.95 3.9C17.7394 2.99204 16.0185 2.75 14 2.75ZM16.5 15.75C14.9812 15.75 13.75 16.9812 13.75 18.5C13.75 20.0188 14.9812 21.25 16.5 21.25C18.0188 21.25 19.25 20.0188 19.25 18.5C19.25 16.9812 18.0188 15.75 16.5 15.75ZM6.75 18.5C6.75 16.9812 7.98122 15.75 9.5 15.75C11.0188 15.75 12.25 16.9812 12.25 18.5C12.25 20.0188 11.0188 21.25 9.5 21.25C7.98122 21.25 6.75 20.0188 6.75 18.5Z" fill="#23262A"/>
</svg>
