<svg xmlns="http://www.w3.org/2000/svg" width="24" height="24" viewBox="0 0 24 24" fill="none">
  <path fill-rule="evenodd" clip-rule="evenodd" d="M16.0068 9.625C16.214 9.26639 16.6726 9.14351 17.0312 9.35059C17.3898 9.5577 17.5126 10.0163 17.3057 10.375L14.4902 15.25C15.2628 15.9368 15.7499 16.9377 15.75 18.0527L15.7451 18.2461C15.6445 20.2273 14.0062 21.8027 12 21.8027C9.99378 21.8027 8.35551 20.2273 8.25488 18.2461L8.25 18.0527C8.25013 15.9818 9.92901 14.3027 12 14.3027C12.4169 14.3027 12.8178 14.3715 13.1924 14.4971L16.0068 9.625ZM12 15.8027C10.7574 15.8027 9.75013 16.8102 9.75 18.0527L9.76172 18.2832C9.87714 19.4176 10.8352 20.3027 12 20.3027C13.2426 20.3027 14.25 19.2954 14.25 18.0527C14.2499 17.2479 13.8259 16.5441 13.1904 16.1465C13.1688 16.1366 13.147 16.1254 13.126 16.1133C13.0998 16.0982 13.0754 16.0811 13.0518 16.0635C12.7379 15.8972 12.3799 15.8027 12 15.8027Z" fill="#202733"/>
  <path fill-rule="evenodd" clip-rule="evenodd" d="M12 2.25C14.0711 2.25 15.75 3.92893 15.75 6L15.7451 6.19336C15.6445 8.17457 14.0062 9.75 12 9.75C9.99378 9.75 8.35551 8.17457 8.25488 6.19336L8.25 6C8.25 3.92893 9.92893 2.25 12 2.25ZM12 3.75C10.7574 3.75 9.75 4.75736 9.75 6L9.76172 6.23047C9.87714 7.36484 10.8352 8.25 12 8.25C13.2426 8.25 14.25 7.24264 14.25 6L14.2383 5.76953C14.1229 4.63516 13.1648 3.75 12 3.75Z" fill="#202733"/>
</svg>