<svg width="24" height="24" viewBox="0 0 24 24" fill="none" xmlns="http://www.w3.org/2000/svg">
<path d="M14.25 18C14.25 16.7574 13.2426 15.75 12 15.75C10.7574 15.75 9.75 16.7574 9.75 18L9.76172 18.2305C9.87714 19.3648 10.8352 20.25 12 20.25C13.2426 20.25 14.25 19.2426 14.25 18ZM15.7451 18.1934C15.6445 20.1746 14.0062 21.75 12 21.75C9.99378 21.75 8.35551 20.1746 8.25488 18.1934L8.25 18C8.25 15.9289 9.92893 14.25 12 14.25C14.0711 14.25 15.75 15.9289 15.75 18L15.7451 18.1934Z" fill="#202733"/>
<path d="M14.25 6C14.25 4.75736 13.2426 3.75 12 3.75C10.7574 3.75 9.75 4.75736 9.75 6L9.76172 6.23047C9.87714 7.36484 10.8352 8.25 12 8.25C13.2426 8.25 14.25 7.24264 14.25 6ZM15.7451 6.19336C15.6445 8.17457 14.0062 9.75 12 9.75C9.99378 9.75 8.35551 8.17457 8.25488 6.19336L8.25 6C8.25 3.92893 9.92893 2.25 12 2.25C14.0711 2.25 15.75 3.92893 15.75 6L15.7451 6.19336Z" fill="#202733"/>
<path d="M12.75 15C12.75 15.4142 12.4142 15.75 12 15.75C11.5858 15.75 11.25 15.4142 11.25 15V9C11.25 8.58579 11.5858 8.25 12 8.25C12.4142 8.25 12.75 8.58579 12.75 9V15Z" fill="#202733"/>
</svg>
