<svg width="24" height="24" viewBox="0 0 24 24" fill="none" xmlns="http://www.w3.org/2000/svg">
<path d="M12 2.25C14.0711 2.25 15.75 3.92893 15.75 6L15.7451 6.19336C15.6574 7.92084 14.4004 9.33871 12.75 9.67383V14.3242C14.4618 14.6716 15.75 16.1857 15.75 18L15.7451 18.1934C15.6445 20.1746 14.0062 21.75 12 21.75C9.99378 21.75 8.35551 20.1746 8.25488 18.1934L8.25 18C8.25 16.1857 9.53824 14.6716 11.25 14.3242V9.67383C9.59961 9.33871 8.34262 7.92084 8.25488 6.19336L8.25 6C8.25 3.92893 9.92893 2.25 12 2.25Z" fill="#202733"/>
</svg>
