<svg width="24" height="24" viewBox="0 0 24 24" fill="none" xmlns="http://www.w3.org/2000/svg">
<path fill-rule="evenodd" clip-rule="evenodd" d="M6 3.25C4.48122 3.25 3.25 4.48122 3.25 6V18C3.25 19.5188 4.48122 20.75 6 20.75H18C19.5188 20.75 20.75 19.5188 20.75 18V6C20.75 4.48122 19.5188 3.25 18 3.25H6ZM18 19.25C18.6904 19.25 19.25 18.6904 19.25 18V9.75H15.75V19.25H18ZM6 4.75C5.30964 4.75 4.75 5.30964 4.75 6V8.25H19.25V6C19.25 5.30964 18.6904 4.75 18 4.75H6ZM4.75 18C4.75 18.6904 5.30964 19.25 6 19.25H8.25V9.75H4.75V18ZM14.25 9.75V19.25H9.75V9.75H14.25Z" fill="#23262A"/>
</svg>
