<svg width="24" height="24" viewBox="0 0 24 24" fill="none" xmlns="http://www.w3.org/2000/svg">
<path fill-rule="evenodd" clip-rule="evenodd" d="M6 3.25C4.48122 3.25 3.25 4.48122 3.25 6V8C3.25 8.13807 3.36193 8.25 3.5 8.25H9H15H20.5C20.6381 8.25 20.75 8.13807 20.75 8V6C20.75 4.48122 19.5188 3.25 18 3.25H6ZM14.25 10C14.25 9.86193 14.1381 9.75 14 9.75H10C9.86193 9.75 9.75 9.86193 9.75 10V20.5C9.75 20.6381 9.86193 20.75 10 20.75H14C14.1381 20.75 14.25 20.6381 14.25 20.5V10ZM16 20.75C15.8619 20.75 15.75 20.6381 15.75 20.5V10C15.75 9.86193 15.8619 9.75 16 9.75H20.5C20.6381 9.75 20.75 9.86193 20.75 10V18C20.75 19.5188 19.5188 20.75 18 20.75H16ZM3.25 10C3.25 9.86193 3.36193 9.75 3.5 9.75H8C8.13807 9.75 8.25 9.86193 8.25 10V20.5C8.25 20.6381 8.13807 20.75 8 20.75H6C4.48122 20.75 3.25 19.5188 3.25 18V10Z" fill="#23262A"/>
</svg>
