<svg width="24" height="24" viewBox="0 0 24 24" fill="none" xmlns="http://www.w3.org/2000/svg">
<path fill-rule="evenodd" clip-rule="evenodd" d="M6.25 4C6.25 3.0335 7.0335 2.25 8 2.25H20C20.9665 2.25 21.75 3.0335 21.75 4V16C21.75 16.9665 20.9665 17.75 20 17.75H8C7.0335 17.75 6.25 16.9665 6.25 16V4ZM8 3.75C7.86193 3.75 7.75 3.86193 7.75 4V16C7.75 16.1381 7.86193 16.25 8 16.25H20C20.1381 16.25 20.25 16.1381 20.25 16V4C20.25 3.86193 20.1381 3.75 20 3.75H8ZM4 7.75C3.86193 7.75 3.75 7.86193 3.75 8V20C3.75 20.1381 3.86193 20.25 4 20.25H16C16.1381 20.25 16.25 20.1381 16.25 20V19.5C16.25 19.0858 16.5858 18.75 17 18.75C17.4142 18.75 17.75 19.0858 17.75 19.5V20C17.75 20.9665 16.9665 21.75 16 21.75H4C3.0335 21.75 2.25 20.9665 2.25 20V8C2.25 7.0335 3.0335 6.25 4 6.25H4.5C4.91421 6.25 5.25 6.58579 5.25 7C5.25 7.41421 4.91421 7.75 4.5 7.75H4ZM14 5.25C14.4142 5.25 14.75 5.58579 14.75 6V9.25H18C18.4142 9.25 18.75 9.58579 18.75 10C18.75 10.4142 18.4142 10.75 18 10.75H14.75V14C14.75 14.4142 14.4142 14.75 14 14.75C13.5858 14.75 13.25 14.4142 13.25 14V10.75H10C9.58579 10.75 9.25 10.4142 9.25 10C9.25 9.58579 9.58579 9.25 10 9.25H13.25V6C13.25 5.58579 13.5858 5.25 14 5.25Z" fill="#23262A"/>
</svg>
