<svg width="24" height="24" viewBox="0 0 24 24" fill="none" xmlns="http://www.w3.org/2000/svg">
<path fill-rule="evenodd" clip-rule="evenodd" d="M8 2.25C7.0335 2.25 6.25 3.0335 6.25 4V16C6.25 16.9665 7.0335 17.75 8 17.75H20C20.9665 17.75 21.75 16.9665 21.75 16V4C21.75 3.0335 20.9665 2.25 20 2.25H8ZM7.75 4C7.75 3.86193 7.86193 3.75 8 3.75H20C20.1381 3.75 20.25 3.86193 20.25 4V16C20.25 16.1381 20.1381 16.25 20 16.25H8C7.86193 16.25 7.75 16.1381 7.75 16V4ZM3.75 8C3.75 7.86193 3.86193 7.75 4 7.75H4.5C4.91421 7.75 5.25 7.41421 5.25 7C5.25 6.58579 4.91421 6.25 4.5 6.25H4C3.0335 6.25 2.25 7.0335 2.25 8V20C2.25 20.9665 3.0335 21.75 4 21.75H16C16.9665 21.75 17.75 20.9665 17.75 20V19.5C17.75 19.0858 17.4142 18.75 17 18.75C16.5858 18.75 16.25 19.0858 16.25 19.5V20C16.25 20.1381 16.1381 20.25 16 20.25H4C3.86193 20.25 3.75 20.1381 3.75 20V8Z" fill="#23262A"/>
</svg>
