<svg width="24" height="24" viewBox="0 0 24 24" fill="none" xmlns="http://www.w3.org/2000/svg">
<path fill-rule="evenodd" clip-rule="evenodd" d="M6.25 4C6.25 3.0335 7.0335 2.25 8 2.25H20C20.9665 2.25 21.75 3.0335 21.75 4V16C21.75 16.9665 20.9665 17.75 20 17.75H8C7.0335 17.75 6.25 16.9665 6.25 16V4ZM14.75 6C14.75 5.58579 14.4142 5.25 14 5.25C13.5858 5.25 13.25 5.58579 13.25 6V9.25H10C9.58579 9.25 9.25 9.58579 9.25 10C9.25 10.4142 9.58579 10.75 10 10.75H13.25V14C13.25 14.4142 13.5858 14.75 14 14.75C14.4142 14.75 14.75 14.4142 14.75 14V10.75H18C18.4142 10.75 18.75 10.4142 18.75 10C18.75 9.58579 18.4142 9.25 18 9.25H14.75V6ZM4.75 16C4.75 17.7949 6.20508 19.25 8 19.25H17.25C17.5261 19.25 17.75 19.4739 17.75 19.75V20C17.75 20.9665 16.9665 21.75 16 21.75H4C3.0335 21.75 2.25 20.9665 2.25 20V8C2.25 7.0335 3.0335 6.25 4 6.25H4.25C4.52614 6.25 4.75 6.47386 4.75 6.75V16Z" fill="#23262A"/>
</svg>
