<svg width="24" height="24" viewBox="0 0 24 24" fill="none" xmlns="http://www.w3.org/2000/svg">
<path fill-rule="evenodd" clip-rule="evenodd" d="M12.4445 6.61612C12.679 6.3817 12.9969 6.25 13.3284 6.25H17.5C17.6381 6.25 17.75 6.36193 17.75 6.5V10.6716C17.75 11.0031 17.6183 11.321 17.3839 11.5555L9.17678 19.7626C9.07915 19.8602 8.92086 19.8602 8.82322 19.7626L4.23744 15.1768C4.13981 15.0791 4.13981 14.9209 4.23744 14.8232L12.4445 6.61612ZM13.3284 4.75C12.5991 4.75 11.8996 5.03973 11.3839 5.55546L3.17678 13.7626C2.49336 14.446 2.49336 15.554 3.17678 16.2374L7.76256 20.8232C8.44598 21.5066 9.55402 21.5066 10.2374 20.8232L18.4445 12.6161C18.9603 12.1004 19.25 11.4009 19.25 10.6716V6.5C19.25 5.5335 18.4665 4.75 17.5 4.75H13.3284ZM14.5 11C15.3284 11 16 10.3284 16 9.5C16 8.67157 15.3284 8 14.5 8C13.6716 8 13 8.67157 13 9.5C13 10.3284 13.6716 11 14.5 11Z" fill="#23262A"/>
</svg>
