<svg width="24" height="24" viewBox="0 0 24 24" fill="none" xmlns="http://www.w3.org/2000/svg">
<path fill-rule="evenodd" clip-rule="evenodd" d="M13.4403 5.61612C13.6748 5.3817 13.9927 5.25 14.3242 5.25H18.4958C18.6339 5.25 18.7458 5.36193 18.7458 5.5V9.67157C18.7458 10.0031 18.6141 10.321 18.3797 10.5555L10.1726 18.7626C10.0749 18.8602 9.91664 18.8602 9.81901 18.7626L5.23323 14.1768C5.1356 14.0791 5.1356 13.9209 5.23323 13.8232L13.4403 5.61612ZM14.3242 3.75C13.5949 3.75 12.8954 4.03973 12.3797 4.55546L4.17257 12.7626C3.48915 13.446 3.48915 14.554 4.17257 15.2374L8.75835 19.8232C9.44177 20.5066 10.5498 20.5066 11.2332 19.8232L19.4403 11.6161C19.9561 11.1004 20.2458 10.4009 20.2458 9.67157V5.5C20.2458 4.5335 19.4623 3.75 18.4958 3.75H14.3242ZM15.4958 10C16.3242 10 16.9958 9.32843 16.9958 8.5C16.9958 7.67157 16.3242 7 15.4958 7C14.6674 7 13.9958 7.67157 13.9958 8.5C13.9958 9.32843 14.6674 10 15.4958 10Z" fill="#23262A"/>
</svg>
