<svg width="24" height="24" viewBox="0 0 24 24" fill="none" xmlns="http://www.w3.org/2000/svg">
<path fill-rule="evenodd" clip-rule="evenodd" d="M5.59756 17.7395C5.6363 18.0881 5.91151 18.3633 6.26015 18.4021L11.3513 18.9678C11.5778 18.9929 11.8034 18.9138 11.9645 18.7527L21.0154 9.70171C21.3083 9.40882 21.3083 8.93394 21.0154 8.64105L15.3586 2.9842C15.0657 2.6913 14.5908 2.6913 14.2979 2.9842L5.24696 12.0352C5.08585 12.1963 5.00671 12.4219 5.03187 12.6483L5.59756 17.7395ZM11.1587 17.4371L7.02213 16.9775L6.56251 12.8409L14.8283 4.57519L19.4244 9.17138L11.1587 17.4371ZM10 12.5C9.17159 12.5 8.50001 13.1716 8.50001 14C8.50001 14.8284 9.17159 15.5 10 15.5C10.8284 15.5 11.5 14.8284 11.5 14C11.5 13.1716 10.8284 12.5 10 12.5Z" fill="#262626"/>
</svg>
