<svg width="24" height="24" viewBox="0 0 24 24" fill="none" xmlns="http://www.w3.org/2000/svg">
<path fill-rule="evenodd" clip-rule="evenodd" d="M5.59756 17.7394C5.6363 18.088 5.91151 18.3632 6.26015 18.402L11.3513 18.9676C11.5778 18.9928 11.8034 18.9137 11.9645 18.7526L21.0154 9.70159C21.3083 9.4087 21.3083 8.93382 21.0154 8.64093L15.3586 2.98407C15.0657 2.69118 14.5908 2.69118 14.2979 2.98407L5.24696 12.035C5.08585 12.1961 5.00671 12.4218 5.03187 12.6482L5.59756 17.7394ZM10 12.5C9.17159 12.5 8.50001 13.1715 8.50001 14C8.50001 14.8284 9.17159 15.5 10 15.5C10.8284 15.5 11.5 14.8284 11.5 14C11.5 13.1715 10.8284 12.5 10 12.5Z" fill="#262626"/>
</svg>
