<svg width="24" height="24" viewBox="0 0 24 24" fill="none" xmlns="http://www.w3.org/2000/svg">
<path fill-rule="evenodd" clip-rule="evenodd" d="M13.3284 4.75C12.5991 4.75 11.8996 5.03973 11.3839 5.55546L3.17678 13.7626C2.49336 14.446 2.49336 15.554 3.17678 16.2374L7.76256 20.8232C8.44598 21.5066 9.55402 21.5066 10.2374 20.8232L18.4445 12.6161C18.9603 12.1004 19.25 11.4009 19.25 10.6716V6.5C19.25 5.5335 18.4665 4.75 17.5 4.75H13.3284ZM14.5 11C15.3284 11 16 10.3284 16 9.5C16 8.67157 15.3284 8 14.5 8C13.6716 8 13 8.67157 13 9.5C13 10.3284 13.6716 11 14.5 11Z" fill="#23262A"/>
</svg>
