<svg width="24" height="24" viewBox="0 0 24 24" fill="none" xmlns="http://www.w3.org/2000/svg">
<path fill-rule="evenodd" clip-rule="evenodd" d="M9.75 6C9.75 3.92893 11.4289 2.25 13.5 2.25H15C17.0711 2.25 18.75 3.92893 18.75 6V21C18.75 21.4142 18.4142 21.75 18 21.75C17.5858 21.75 17.25 21.4142 17.25 21V6C17.25 4.75736 16.2426 3.75 15 3.75H13.5C12.2574 3.75 11.25 4.75736 11.25 6V6.5C11.25 6.91421 10.9142 7.25 10.5 7.25C10.0858 7.25 9.75 6.91421 9.75 6.5V6ZM6.74692 9.9321C6.70942 9.51959 6.34461 9.21558 5.9321 9.25308C5.51959 9.29058 5.21558 9.65539 5.25308 10.0679L6.1704 20.1584C6.25235 21.0598 7.00811 21.75 7.91322 21.75H13.0868C13.9919 21.75 14.7477 21.0598 14.8296 20.1584L15.7469 10.0679C15.7844 9.65539 15.4804 9.29058 15.0679 9.25308C14.6554 9.21558 14.2906 9.51959 14.2531 9.9321L13.7003 16.013C12.5796 15.4907 11.2648 15.5887 10.2321 16.2771C9.50904 16.7591 8.56057 16.7328 7.86534 16.2114L7.45 15.8999L7.2777 15.7707L6.74692 9.9321ZM7.4549 17.7198L7.66424 20.0226C7.67595 20.1514 7.78392 20.25 7.91322 20.25H13.0868C13.2161 20.25 13.3241 20.1514 13.3358 20.0226L13.5546 17.6157L13.1178 17.3973C12.4599 17.0684 11.6762 17.1172 11.0642 17.5252C9.97459 18.2516 8.58948 18.3114 7.4549 17.7198ZM11.0303 8.46967L10.5 7.93934L9.96967 8.46967C9.69611 8.74323 9.28818 9.19715 8.94257 9.70472C8.62182 10.1758 8.25 10.8406 8.25 11.5C8.25 12.7426 9.25736 13.75 10.5 13.75C11.7426 13.75 12.75 12.7426 12.75 11.5C12.75 10.8406 12.3782 10.1758 12.0574 9.70472C11.7118 9.19715 11.3039 8.74323 11.0303 8.46967ZM9.75 11.5C9.75 11.3309 9.87818 10.9958 10.1824 10.549C10.2829 10.4013 10.3916 10.2574 10.5 10.1231C10.6084 10.2574 10.7171 10.4013 10.8176 10.549C11.1218 10.9958 11.25 11.3309 11.25 11.5C11.25 11.9142 10.9142 12.25 10.5 12.25C10.0858 12.25 9.75 11.9142 9.75 11.5Z" fill="#23262A"/>
</svg>
