<svg width="24" height="24" viewBox="0 0 24 24" fill="none" xmlns="http://www.w3.org/2000/svg">
<path fill-rule="evenodd" clip-rule="evenodd" d="M13.5 2.25C11.4289 2.25 9.75 3.92893 9.75 6V6.5C9.75 6.91421 10.0858 7.25 10.5 7.25C10.9142 7.25 11.25 6.91421 11.25 6.5V6C11.25 4.75736 12.2574 3.75 13.5 3.75H15C16.2426 3.75 17.25 4.75736 17.25 6V21C17.25 21.4142 17.5858 21.75 18 21.75C18.4142 21.75 18.75 21.4142 18.75 21V6C18.75 3.92893 17.0711 2.25 15 2.25H13.5ZM10.5 7.93945L11.0303 8.46978C11.3039 8.74334 11.7118 9.19726 12.0574 9.70484C12.3782 10.1759 12.75 10.8407 12.75 11.5001C12.75 12.7428 11.7426 13.7501 10.5 13.7501C9.25736 13.7501 8.25 12.7428 8.25 11.5001C8.25 10.8407 8.62182 10.1759 8.94257 9.70484C9.28818 9.19726 9.69611 8.74334 9.96967 8.46978L10.5 7.93945ZM5.93215 9.25313C6.34466 9.21563 6.70947 9.51963 6.74697 9.93215L7.27775 15.7707L7.86539 16.2114C8.56062 16.7329 9.50909 16.7592 10.2322 16.2771C11.2648 15.5887 12.5797 15.4908 13.7003 16.0131L14.2531 9.93215C14.2906 9.51963 14.6554 9.21563 15.0679 9.25313C15.4805 9.29063 15.7845 9.65544 15.747 10.0679L14.8296 20.1585C14.7477 21.0599 13.9919 21.75 13.0868 21.75H7.91326C7.00816 21.75 6.25239 21.0599 6.17045 20.1585L5.25313 10.0679C5.21563 9.65544 5.51963 9.29063 5.93215 9.25313Z" fill="#23262A"/>
</svg>
