<svg width="24" height="24" viewBox="0 0 24 24" fill="none" xmlns="http://www.w3.org/2000/svg">
<path fill-rule="evenodd" clip-rule="evenodd" d="M9.75 6C9.75 3.92893 11.4289 2.25 13.5 2.25H15C17.0711 2.25 18.75 3.92893 18.75 6V21C18.75 21.4142 18.4142 21.75 18 21.75C17.5858 21.75 17.25 21.4142 17.25 21V6C17.25 4.75736 16.2426 3.75 15 3.75H13.5C12.2574 3.75 11.25 4.75736 11.25 6V6.5C11.25 6.91421 10.9142 7.25 10.5 7.25C10.0858 7.25 9.75 6.91421 9.75 6.5V6ZM10.5 7.93935L11.0303 8.46968C11.3039 8.74324 11.7118 9.19716 12.0574 9.70473C12.3782 10.1758 12.75 10.8406 12.75 11.5C12.75 12.7426 11.7426 13.75 10.5 13.75C9.25736 13.75 8.25 12.7426 8.25 11.5C8.25 10.8406 8.62182 10.1758 8.94257 9.70473C9.28818 9.19716 9.69611 8.74324 9.96967 8.46968L10.5 7.93935ZM10.1824 10.549C9.87818 10.9958 9.75 11.331 9.75 11.5C9.75 11.9142 10.0858 12.25 10.5 12.25C10.9142 12.25 11.25 11.9142 11.25 11.5C11.25 11.331 11.1218 10.9958 10.8176 10.549C10.7171 10.4014 10.6084 10.2574 10.5 10.1231C10.3916 10.2574 10.2829 10.4014 10.1824 10.549ZM5.93209 9.25308C6.3446 9.21558 6.70941 9.51959 6.74691 9.9321L7.27769 15.7707L7.86533 16.2114C8.56055 16.7328 9.50903 16.7591 10.2321 16.2771C11.2647 15.5887 12.5796 15.4908 13.7003 16.013L14.2531 9.9321C14.2906 9.51959 14.6554 9.21558 15.0679 9.25308C15.4804 9.29058 15.7844 9.65539 15.7469 10.0679L14.8296 20.1584C14.7476 21.0598 13.9919 21.75 13.0868 21.75H7.9132C7.0081 21.75 6.25233 21.0598 6.17039 20.1584L5.25307 10.0679C5.21557 9.65539 5.51957 9.29058 5.93209 9.25308ZM7.66423 20.0226L7.45488 17.7198C8.58946 18.3114 9.97457 18.2516 11.0642 17.5252C11.6762 17.1172 12.4599 17.0684 13.1178 17.3973L13.5546 17.6157L13.3357 20.0226C13.324 20.1514 13.2161 20.25 13.0868 20.25H7.9132C7.7839 20.25 7.67593 20.1514 7.66423 20.0226Z" fill="#23262A"/>
</svg>
