<svg width="24" height="24" viewBox="0 0 24 24" fill="none" xmlns="http://www.w3.org/2000/svg">
<path fill-rule="evenodd" clip-rule="evenodd" d="M5.75 20.25V3.75H18.25V20.25H5.75ZM5.5 2.25C4.80964 2.25 4.25 2.80964 4.25 3.5V20.5C4.25 21.1904 4.80964 21.75 5.5 21.75H18.5C19.1904 21.75 19.75 21.1904 19.75 20.5V3.5C19.75 2.80964 19.1904 2.25 18.5 2.25H5.5ZM10.95 5.4C11.2814 5.64853 11.3485 6.11863 11.1 6.45L9.6 8.45C9.46955 8.62393 9.27004 8.7327 9.05317 8.74811C8.8363 8.76353 8.62341 8.68407 8.46967 8.53033L7.46967 7.53033C7.17678 7.23744 7.17678 6.76256 7.46967 6.46967C7.76256 6.17678 8.23744 6.17678 8.53033 6.46967L8.91885 6.85819L9.9 5.55C10.1485 5.21863 10.6186 5.15147 10.95 5.4ZM13 6.25C12.5858 6.25 12.25 6.58579 12.25 7C12.25 7.41421 12.5858 7.75 13 7.75H15.5C15.9142 7.75 16.25 7.41421 16.25 7C16.25 6.58579 15.9142 6.25 15.5 6.25H13ZM9 11.25C8.58579 11.25 8.25 11.5858 8.25 12C8.25 12.4142 8.58579 12.75 9 12.75H9.01C9.42421 12.75 9.76 12.4142 9.76 12C9.76 11.5858 9.42421 11.25 9.01 11.25H9ZM11.25 12C11.25 11.5858 11.5858 11.25 12 11.25H15.5C15.9142 11.25 16.25 11.5858 16.25 12C16.25 12.4142 15.9142 12.75 15.5 12.75H12C11.5858 12.75 11.25 12.4142 11.25 12ZM11.25 16C11.25 15.5858 11.5858 15.25 12 15.25H15.5C15.9142 15.25 16.25 15.5858 16.25 16C16.25 16.4142 15.9142 16.75 15.5 16.75H12C11.5858 16.75 11.25 16.4142 11.25 16ZM8.25 16C8.25 15.5858 8.58579 15.25 9 15.25H9.01C9.42421 15.25 9.76 15.5858 9.76 16C9.76 16.4142 9.42421 16.75 9.01 16.75H9C8.58579 16.75 8.25 16.4142 8.25 16Z" fill="#262626"/>
</svg>
