<svg width="24" height="24" viewBox="0 0 24 24" fill="none" xmlns="http://www.w3.org/2000/svg">
<path fill-rule="evenodd" clip-rule="evenodd" d="M5.75 3.75V20.25H8C8.41421 20.25 8.75 20.5858 8.75 21C8.75 21.4142 8.41421 21.75 8 21.75H5.5C4.80964 21.75 4.25 21.1904 4.25 20.5V3.5C4.25 2.80964 4.80964 2.25 5.5 2.25H18.5C19.1904 2.25 19.75 2.80964 19.75 3.5V13C19.75 13.4142 19.4142 13.75 19 13.75C18.5858 13.75 18.25 13.4142 18.25 13V3.75H5.75ZM11.2187 6.45C11.4672 6.11863 11.4 5.64853 11.0687 5.4C10.7373 5.15147 10.2672 5.21863 10.0187 5.55L9.03751 6.85819L8.64898 6.46967C8.35609 6.17678 7.88122 6.17678 7.58832 6.46967C7.29543 6.76256 7.29543 7.23744 7.58832 7.53033L8.58832 8.53033C8.74206 8.68407 8.95495 8.76353 9.17182 8.74811C9.38869 8.7327 9.5882 8.62393 9.71865 8.45L11.2187 6.45ZM13.1187 6.25C12.7044 6.25 12.3687 6.58579 12.3687 7C12.3687 7.41421 12.7044 7.75 13.1187 7.75H15.6187C16.0329 7.75 16.3687 7.41421 16.3687 7C16.3687 6.58579 16.0329 6.25 15.6187 6.25H13.1187ZM12.8532 12.2481C12.8532 11.973 13.0762 11.75 13.3513 11.75C13.6264 11.75 13.8494 11.973 13.8494 12.2481V14.9524C13.8494 15.3099 14.1018 15.6177 14.4523 15.6878L17.2636 16.2501C17.9722 16.3918 18.4052 17.1126 18.1976 17.8048L17.4997 20.131H12.0365L9.8168 16.8013C9.71166 16.6436 9.73246 16.4336 9.86648 16.2996C10.0225 16.1436 10.2757 16.1444 10.4306 16.3015L11.5694 17.4554C11.7831 17.672 12.1064 17.7379 12.3879 17.6224C12.6694 17.5069 12.8532 17.2328 12.8532 16.9286V12.2481ZM13.3513 10.25C12.2478 10.25 11.3532 11.1446 11.3532 12.2481V15.1151C10.6083 14.5009 9.50346 14.5413 8.80582 15.2389C8.1662 15.8786 8.06697 16.8807 8.56872 17.6334L11.0111 21.297C11.1502 21.5057 11.3844 21.631 11.6352 21.631H18.0577C18.389 21.631 18.6809 21.4137 18.7761 21.0965L19.6343 18.2358C20.096 16.6968 19.1333 15.0943 17.5578 14.7792L15.3494 14.3375V12.2481C15.3494 11.1446 14.4549 10.25 13.3513 10.25Z" fill="#262626"/>
</svg>
