<svg width="24" height="24" viewBox="0 0 24 24" fill="none" xmlns="http://www.w3.org/2000/svg">
<path fill-rule="evenodd" clip-rule="evenodd" d="M5.75 20.25V3.75H18.25V13.5C18.25 13.9142 18.5858 14.25 19 14.25C19.4142 14.25 19.75 13.9142 19.75 13.5V3.5C19.75 2.80964 19.1904 2.25 18.5 2.25H5.5C4.80964 2.25 4.25 2.80964 4.25 3.5V20.5C4.25 21.1904 4.80964 21.75 5.5 21.75H7.24195C7.65616 21.75 7.99195 21.4142 7.99195 21C7.99195 20.5858 7.65616 20.25 7.24195 20.25H5.75ZM11.0687 5.9C11.4 6.14853 11.4672 6.61863 11.2187 6.95L9.71865 8.95C9.5882 9.12393 9.38869 9.2327 9.17182 9.24811C8.95495 9.26353 8.74206 9.18407 8.58832 9.03033L7.58832 8.03033C7.29543 7.73744 7.29543 7.26256 7.58832 6.96967C7.88122 6.67678 8.35609 6.67678 8.64898 6.96967L9.03751 7.35819L10.0187 6.05C10.2672 5.71863 10.7373 5.65147 11.0687 5.9ZM12.3687 8C12.3687 7.58579 12.7044 7.25 13.1187 7.25H15.6187C16.0329 7.25 16.3687 7.58579 16.3687 8C16.3687 8.41421 16.0329 8.75 15.6187 8.75H13.1187C12.7044 8.75 12.3687 8.41421 12.3687 8ZM9.48567 12.4541C9.70561 12.2469 10.0285 12.1919 10.3046 12.3146L19.3046 16.3146C19.5754 16.435 19.75 16.7036 19.75 17C19.75 17.2964 19.5754 17.565 19.3046 17.6854L10.3046 21.6854C10.0285 21.8081 9.70561 21.7531 9.48567 21.5459C9.26572 21.3386 9.19164 21.0196 9.29775 20.7367L10.699 17L9.29775 13.2633C9.19164 12.9804 9.26572 12.6614 9.48567 12.4541ZM12.0198 16.25H14C14.4142 16.25 14.75 16.5858 14.75 17C14.75 17.4142 14.4142 17.75 14 17.75H12.0198L11.3305 19.5879L17.1533 17L11.3305 14.4121L12.0198 16.25Z" fill="#262626"/>
</svg>
