<svg width="24" height="24" viewBox="0 0 24 24" fill="none" xmlns="http://www.w3.org/2000/svg">
<path fill-rule="evenodd" clip-rule="evenodd" d="M5.75 3.75V20.25H8C8.41421 20.25 8.75 20.5858 8.75 21C8.75 21.4142 8.41421 21.75 8 21.75H5.5C4.80964 21.75 4.25 21.1904 4.25 20.5V3.5C4.25 2.80964 4.80964 2.25 5.5 2.25H18.5C19.1904 2.25 19.75 2.80964 19.75 3.5V13C19.75 13.4142 19.4142 13.75 19 13.75C18.5858 13.75 18.25 13.4142 18.25 13V3.75H5.75ZM11.1 7.20004C11.3485 6.86867 11.2814 6.39857 10.95 6.15004C10.6186 5.90152 10.1485 5.96867 9.9 6.30004L8.91885 7.60824L8.53033 7.21971C8.23744 6.92682 7.76256 6.92682 7.46967 7.21971C7.17678 7.51261 7.17678 7.98748 7.46967 8.28037L8.46967 9.28037C8.62341 9.43411 8.8363 9.51357 9.05317 9.49816C9.27004 9.48274 9.46955 9.37398 9.6 9.20004L11.1 7.20004ZM13 7.25C12.5858 7.25 12.25 7.58579 12.25 8C12.25 8.41421 12.5858 8.75 13 8.75H15.5C15.9142 8.75 16.25 8.41421 16.25 8C16.25 7.58579 15.9142 7.25 15.5 7.25H13ZM12.8532 12.2481C12.8532 11.973 13.0762 11.75 13.3513 11.75C13.6264 11.75 13.8494 11.973 13.8494 12.2481V14.9524C13.8494 15.3099 14.1018 15.6177 14.4524 15.6878L17.2636 16.2501C17.9722 16.3918 18.4052 17.1126 18.1976 17.8048L17.4997 20.131H12.0366L9.81681 16.8013C9.71167 16.6436 9.73247 16.4336 9.86649 16.2996C10.0225 16.1436 10.2757 16.1444 10.4307 16.3015L11.5694 17.4554C11.7831 17.672 12.1065 17.7379 12.3879 17.6224C12.6694 17.5069 12.8532 17.2328 12.8532 16.9286V12.2481ZM13.3513 10.25C12.2478 10.25 11.3532 11.1446 11.3532 12.2481V15.1151C10.6083 14.5009 9.50347 14.5413 8.80583 15.2389C8.16621 15.8786 8.06698 16.8807 8.56873 17.6334L11.0111 21.297C11.1502 21.5057 11.3844 21.631 11.6352 21.631H18.0578C18.389 21.631 18.681 21.4137 18.7761 21.0965L19.6343 18.2358C20.096 16.6968 19.1333 15.0943 17.5578 14.7792L15.3494 14.3375V12.2481C15.3494 11.1446 14.4549 10.25 13.3513 10.25Z" fill="#23262A"/>
</svg>
