<svg width="24" height="24" viewBox="0 0 24 24" fill="none" xmlns="http://www.w3.org/2000/svg">
<path fill-rule="evenodd" clip-rule="evenodd" d="M4.25 3.5C4.25 2.80964 4.80964 2.25 5.5 2.25H18.5C19.1904 2.25 19.75 2.80964 19.75 3.5V14.4979C19.75 14.679 19.5636 14.8 19.3982 14.7263L10.9139 10.944C10.0854 10.5758 9.11691 10.7408 8.45708 11.3625C7.79725 11.9842 7.57501 12.9412 7.89334 13.7901L9.06416 16.9123C9.08538 16.9689 9.08538 17.0312 9.06416 17.0878L7.89334 20.21C7.74667 20.6011 7.71476 21.0152 7.78753 21.4089C7.81889 21.5785 7.69776 21.75 7.52524 21.75H5.5C4.80964 21.75 4.25 21.1904 4.25 20.5V3.5ZM12.3691 7C12.3691 6.58579 12.7049 6.25 13.1191 6.25H15.6191C16.0334 6.25 16.3691 6.58579 16.3691 7C16.3691 7.41421 16.0334 7.75 15.6191 7.75H13.1191C12.7049 7.75 12.3691 7.41421 12.3691 7ZM11.2191 6.45004C11.4677 6.11867 11.4005 5.64857 11.0691 5.40004C10.7378 5.15152 10.2677 5.21867 10.0191 5.55004L9.21095 6.62764C9.11966 6.74935 8.94175 6.76199 8.83417 6.65441L8.64947 6.46971C8.35658 6.17682 7.8817 6.17682 7.58881 6.46971C7.29592 6.76261 7.29592 7.23748 7.58881 7.53037L8.58881 8.53037C8.74255 8.68411 8.95544 8.76357 9.17231 8.74816C9.38918 8.73274 9.58869 8.62398 9.71914 8.45004L11.2191 6.45004ZM9.48569 12.4542C9.70564 12.2469 10.0285 12.1919 10.3046 12.3147L19.3046 16.3147C19.5755 16.435 19.75 16.7036 19.75 17C19.75 17.2964 19.5755 17.565 19.3046 17.6854L10.3046 21.6854C10.0285 21.8081 9.70564 21.7531 9.48569 21.5459C9.26575 21.3386 9.19167 21.0196 9.29778 20.7367L10.357 17.9122C10.3935 17.8146 10.4868 17.75 10.591 17.75H13.5C13.9142 17.75 14.25 17.4142 14.25 17C14.25 16.5858 13.9142 16.25 13.5 16.25H10.591C10.4868 16.25 10.3935 16.1854 10.3569 16.0878L9.29778 13.2634C9.19167 12.9804 9.26575 12.6614 9.48569 12.4542Z" fill="#262626"/>
</svg>
