<svg width="24" height="24" viewBox="0 0 24 24" fill="none" xmlns="http://www.w3.org/2000/svg">
<path fill-rule="evenodd" clip-rule="evenodd" d="M5.75 20.25V3.75H18.25V9.5C18.25 9.91421 18.5858 10.25 19 10.25C19.4142 10.25 19.75 9.91421 19.75 9.5V3.5C19.75 2.80964 19.1904 2.25 18.5 2.25H5.5C4.80964 2.25 4.25 2.80964 4.25 3.5V20.5C4.25 21.1904 4.80964 21.75 5.5 21.75H7C7.41421 21.75 7.75 21.4142 7.75 21C7.75 20.5858 7.41421 20.25 7 20.25H5.75ZM13 7.25C12.5858 7.25 12.25 7.58579 12.25 8C12.25 8.41421 12.5858 8.75 13 8.75H15.5C15.9142 8.75 16.25 8.41421 16.25 8C16.25 7.58579 15.9142 7.25 15.5 7.25H13ZM10.95 6.15004C11.2814 6.39857 11.3485 6.86867 11.1 7.20004L9.6 9.20004C9.46955 9.37398 9.27004 9.48274 9.05317 9.49816C8.8363 9.51357 8.62341 9.43411 8.46967 9.28037L7.46967 8.28037C7.17678 7.98748 7.17678 7.51261 7.46967 7.21971C7.76256 6.92682 8.23744 6.92682 8.53033 7.21971L8.91885 7.60824L9.9 6.30004C10.1485 5.96867 10.6186 5.90152 10.95 6.15004ZM10 11.25C9.58579 11.25 9.25 11.5858 9.25 12V21C9.25 21.4142 9.58579 21.75 10 21.75H19C19.4142 21.75 19.75 21.4142 19.75 21V13.5C19.75 13.3011 19.671 13.1103 19.5303 12.9697L18.0303 11.4697C17.8897 11.329 17.6989 11.25 17.5 11.25H10ZM18.25 13.8107L17.1893 12.75H16.75V14C16.75 14.4142 16.4142 14.75 16 14.75H13C12.5858 14.75 12.25 14.4142 12.25 14V12.75H10.75V20.25H11.75V17C11.75 16.5858 12.0858 16.25 12.5 16.25H16.5C16.9142 16.25 17.25 16.5858 17.25 17V20.25H18.25V13.8107ZM15.75 20.25H13.25V17.75H15.75V20.25ZM15.25 12.75V13.25H13.75V12.75H15.25Z" fill="#23262A"/>
</svg>
