<svg width="24" height="24" viewBox="0 0 24 24" fill="none" xmlns="http://www.w3.org/2000/svg">
<path fill-rule="evenodd" clip-rule="evenodd" d="M4.25 3.5C4.25 2.80964 4.80964 2.25 5.5 2.25H18.5C19.1904 2.25 19.75 2.80964 19.75 3.5V14.7471C19.75 14.9592 19.4966 15.0813 19.3148 14.972C18.9822 14.7721 18.6093 14.6247 18.2049 14.5438L16.8004 14.2629C16.6836 14.2395 16.5995 14.1369 16.5995 14.0177V12.7481C16.5995 11.2304 15.3691 10 13.8513 10C12.3336 10 11.1032 11.2304 11.1032 12.7481V14.1753C11.1032 14.3305 10.9631 14.4475 10.8082 14.4381C10.0786 14.394 9.33383 14.6503 8.77551 15.2086C7.8831 16.101 7.74464 17.4993 8.44471 18.5494L10.3193 21.3613C10.4301 21.5275 10.311 21.75 10.1113 21.75H5.5C4.80964 21.75 4.25 21.1904 4.25 20.5V3.5ZM12.3691 7C12.3691 6.58579 12.7049 6.25 13.1191 6.25H15.6191C16.0334 6.25 16.3691 6.58579 16.3691 7C16.3691 7.41421 16.0334 7.75 15.6191 7.75H13.1191C12.7049 7.75 12.3691 7.41421 12.3691 7ZM11.2191 6.45004C11.4677 6.11867 11.4005 5.64857 11.0691 5.40004C10.7378 5.15152 10.2677 5.21867 10.0191 5.55004L9.21095 6.62764C9.11966 6.74935 8.94175 6.76199 8.83417 6.65441L8.64947 6.46971C8.35658 6.17682 7.8817 6.17682 7.58881 6.46971C7.29592 6.76261 7.29592 7.23748 7.58881 7.53037L8.58881 8.53037C8.74255 8.68411 8.95544 8.76357 9.17231 8.74816C9.38918 8.73274 9.58869 8.62398 9.71914 8.45004L11.2191 6.45004ZM12.1753 16.9949C12.3323 17.154 12.6032 17.0429 12.6032 16.8193V12.7481C12.6032 12.0588 13.162 11.5 13.8513 11.5C14.5406 11.5 15.0994 12.0588 15.0994 12.7481V15.4524L17.9107 16.0146C19.0528 16.2431 19.7506 17.4047 19.4159 18.5203L18.6112 21.2028C18.5795 21.3086 18.4821 21.381 18.3717 21.381H12.269C12.1854 21.381 12.1073 21.3392 12.0609 21.2697L9.69276 17.7174C9.38931 17.2622 9.44933 16.6561 9.83615 16.2693C10.2864 15.819 11.0172 15.8214 11.4645 16.2747L12.1753 16.9949Z" fill="#23262A"/>
</svg>
