<svg width="24" height="24" viewBox="0 0 24 24" fill="none" xmlns="http://www.w3.org/2000/svg">
<path fill-rule="evenodd" clip-rule="evenodd" d="M4.25 3.5C4.25 2.80964 4.80964 2.25 5.5 2.25H18.5C19.1904 2.25 19.75 2.80964 19.75 3.5V10.818C19.75 11.0407 19.4807 11.1523 19.3232 10.9948L18.9142 10.5858C18.5391 10.2107 18.0304 10 17.5 10H10C8.89543 10 8 10.8954 8 12V21C8 21.1353 8.01344 21.2675 8.03905 21.3952C8.07389 21.5691 7.95178 21.75 7.77448 21.75H5.5C4.80964 21.75 4.25 21.1904 4.25 20.5V3.5ZM12.3691 7C12.3691 6.58579 12.7049 6.25 13.1191 6.25H15.6191C16.0334 6.25 16.3691 6.58579 16.3691 7C16.3691 7.41421 16.0334 7.75 15.6191 7.75H13.1191C12.7049 7.75 12.3691 7.41421 12.3691 7ZM11.2191 6.45004C11.4677 6.11867 11.4005 5.64857 11.0691 5.40004C10.7378 5.15152 10.2677 5.21867 10.0191 5.55004L9.21095 6.62764C9.11966 6.74935 8.94175 6.76199 8.83417 6.65441L8.64947 6.46971C8.35658 6.17682 7.8817 6.17682 7.58881 6.46971C7.29592 6.76261 7.29592 7.23748 7.58881 7.53037L8.58881 8.53037C8.74255 8.68411 8.95544 8.76357 9.17231 8.74816C9.38918 8.73274 9.58869 8.62398 9.71914 8.45004L11.2191 6.45004ZM12 11.5H10C9.72386 11.5 9.5 11.7239 9.5 12V21C9.5 21.2761 9.72386 21.5 10 21.5H11.5C11.6381 21.5 11.75 21.3881 11.75 21.25V17C11.75 16.5858 12.0858 16.25 12.5 16.25H16.5C16.9142 16.25 17.25 16.5858 17.25 17V21.25C17.25 21.3881 17.3619 21.5 17.5 21.5H19C19.2761 21.5 19.5 21.2761 19.5 21V13.5C19.5 13.3674 19.4473 13.2402 19.3536 13.1464L17.8536 11.6464C17.7598 11.5527 17.6326 11.5 17.5 11.5H17C16.8619 11.5 16.75 11.6119 16.75 11.75V13.5C16.75 13.9142 16.4142 14.25 16 14.25H13C12.5858 14.25 12.25 13.9142 12.25 13.5V11.75C12.25 11.6119 12.1381 11.5 12 11.5ZM13.5 21.5C13.3619 21.5 13.25 21.3881 13.25 21.25V18C13.25 17.8619 13.3619 17.75 13.5 17.75H15.5C15.6381 17.75 15.75 17.8619 15.75 18V21.25C15.75 21.3881 15.6381 21.5 15.5 21.5H13.5ZM14 11.5C13.8619 11.5 13.75 11.6119 13.75 11.75V12.5C13.75 12.6381 13.8619 12.75 14 12.75H15C15.1381 12.75 15.25 12.6381 15.25 12.5V11.75C15.25 11.6119 15.1381 11.5 15 11.5H14Z" fill="#23262A"/>
</svg>
