<svg width="24" height="24" viewBox="0 0 24 24" fill="none" xmlns="http://www.w3.org/2000/svg">
<path fill-rule="evenodd" clip-rule="evenodd" d="M5.75 20.25V3.75H18.25V13.5C18.25 13.9142 18.5858 14.25 19 14.25C19.4142 14.25 19.75 13.9142 19.75 13.5V3.5C19.75 2.80964 19.1904 2.25 18.5 2.25H5.5C4.80964 2.25 4.25 2.80964 4.25 3.5V20.5C4.25 21.1904 4.80964 21.75 5.5 21.75H7.24195C7.65616 21.75 7.99195 21.4142 7.99195 21C7.99195 20.5858 7.65616 20.25 7.24195 20.25H5.75ZM10.95 6.15004C11.2814 6.39857 11.3485 6.86867 11.1 7.20004L9.6 9.20004C9.46955 9.37398 9.27004 9.48274 9.05317 9.49816C8.8363 9.51357 8.62341 9.43411 8.46967 9.28037L7.46967 8.28037C7.17678 7.98748 7.17678 7.51261 7.46967 7.21971C7.76256 6.92682 8.23744 6.92682 8.53033 7.21971L8.91885 7.60824L9.9 6.30004C10.1485 5.96867 10.6186 5.90152 10.95 6.15004ZM13 7.25C12.5858 7.25 12.25 7.58579 12.25 8C12.25 8.41421 12.5858 8.75 13 8.75H15.5C15.9142 8.75 16.25 8.41421 16.25 8C16.25 7.58579 15.9142 7.25 15.5 7.25H13ZM9.48569 12.4541C9.70564 12.2469 10.0285 12.1919 10.3046 12.3146L19.3046 16.3146C19.5755 16.435 19.75 16.7036 19.75 17C19.75 17.2964 19.5755 17.565 19.3046 17.6853L10.3046 21.6853C10.0285 21.8081 9.70564 21.7531 9.48569 21.5458C9.26575 21.3386 9.19167 21.0196 9.29778 20.7366L10.699 17L9.29778 13.2633C9.19167 12.9804 9.26575 12.6614 9.48569 12.4541ZM11.3306 14.4121L12.0198 16.25H14C14.4142 16.25 14.75 16.5858 14.75 17C14.75 17.4142 14.4142 17.75 14 17.75H12.0198L11.3306 19.5879L17.1534 17L11.3306 14.4121Z" fill="#23262A"/>
</svg>
