<svg width="24" height="24" viewBox="0 0 24 24" fill="none" xmlns="http://www.w3.org/2000/svg">
<path fill-rule="evenodd" clip-rule="evenodd" d="M4.25 3.5C4.25 2.80964 4.80964 2.25 5.5 2.25H18.5C19.1904 2.25 19.75 2.80964 19.75 3.5V20.5C19.75 21.1904 19.1904 21.75 18.5 21.75H5.5C4.80964 21.75 4.25 21.1904 4.25 20.5V3.5ZM11.25 16C11.25 15.5858 11.5858 15.25 12 15.25H15.5C15.9142 15.25 16.25 15.5858 16.25 16C16.25 16.4142 15.9142 16.75 15.5 16.75H12C11.5858 16.75 11.25 16.4142 11.25 16ZM12 11.25C11.5858 11.25 11.25 11.5858 11.25 12C11.25 12.4142 11.5858 12.75 12 12.75H15.5C15.9142 12.75 16.25 12.4142 16.25 12C16.25 11.5858 15.9142 11.25 15.5 11.25H12ZM8.25 12C8.25 11.5858 8.58579 11.25 9 11.25H9.01C9.42421 11.25 9.76 11.5858 9.76 12C9.76 12.4142 9.42421 12.75 9.01 12.75H9C8.58579 12.75 8.25 12.4142 8.25 12ZM9 15.25C8.58579 15.25 8.25 15.5858 8.25 16C8.25 16.4142 8.58579 16.75 9 16.75H9.01C9.42421 16.75 9.76 16.4142 9.76 16C9.76 15.5858 9.42421 15.25 9.01 15.25H9ZM12.25 8C12.25 7.58579 12.5858 7.25 13 7.25H15.5C15.9142 7.25 16.25 7.58579 16.25 8C16.25 8.41421 15.9142 8.75 15.5 8.75H13C12.5858 8.75 12.25 8.41421 12.25 8ZM11.1 7.20004C11.3485 6.86867 11.2814 6.39857 10.95 6.15004C10.6186 5.90152 10.1485 5.96867 9.9 6.30004L8.91885 7.60824L8.53033 7.21971C8.23744 6.92682 7.76256 6.92682 7.46967 7.21971C7.17678 7.51261 7.17678 7.98748 7.46967 8.28037L8.46967 9.28037C8.62341 9.43411 8.8363 9.51357 9.05317 9.49816C9.27004 9.48274 9.46955 9.37398 9.6 9.20004L11.1 7.20004Z" fill="#23262A"/>
</svg>
