<svg width="24" height="24" viewBox="0 0 24 24" fill="none" xmlns="http://www.w3.org/2000/svg">
<path fill-rule="evenodd" clip-rule="evenodd" d="M5.75 20.25V3.75H18.25V9.5C18.25 9.91421 18.5858 10.25 19 10.25C19.4142 10.25 19.75 9.91421 19.75 9.5V3.5C19.75 2.80964 19.1904 2.25 18.5 2.25H5.5C4.80964 2.25 4.25 2.80964 4.25 3.5V20.5C4.25 21.1904 4.80964 21.75 5.5 21.75H7C7.41421 21.75 7.75 21.4142 7.75 21C7.75 20.5858 7.41421 20.25 7 20.25H5.75ZM13.1187 6.25C12.7044 6.25 12.3687 6.58579 12.3687 7C12.3687 7.41421 12.7044 7.75 13.1187 7.75H15.6187C16.0329 7.75 16.3687 7.41421 16.3687 7C16.3687 6.58579 16.0329 6.25 15.6187 6.25H13.1187ZM11.0687 5.40001C11.4 5.64854 11.4672 6.11864 11.2187 6.45001L9.71865 8.45001C9.5882 8.62395 9.38869 8.73271 9.17182 8.74813C8.95495 8.76354 8.74206 8.68408 8.58832 8.53034L7.58832 7.53034C7.29543 7.23745 7.29543 6.76258 7.58832 6.46968C7.88122 6.17679 8.35609 6.17679 8.64898 6.46968L9.03751 6.85821L10.0187 5.55001C10.2672 5.21864 10.7373 5.15149 11.0687 5.40001ZM10 11.25C9.58579 11.25 9.25 11.5858 9.25 12V21C9.25 21.4142 9.58579 21.75 10 21.75H19C19.4142 21.75 19.75 21.4142 19.75 21V13.5C19.75 13.3011 19.671 13.1103 19.5303 12.9697L18.0303 11.4697C17.8897 11.329 17.6989 11.25 17.5 11.25H10ZM18.25 13.8107L17.1893 12.75H16.75V14C16.75 14.4142 16.4142 14.75 16 14.75H13C12.5858 14.75 12.25 14.4142 12.25 14V12.75H10.75V20.25H11.75V17C11.75 16.5858 12.0858 16.25 12.5 16.25H16.5C16.9142 16.25 17.25 16.5858 17.25 17V20.25H18.25V13.8107ZM15.75 20.25H13.25V17.75H15.75V20.25ZM15.25 12.75V13.25H13.75V12.75H15.25Z" fill="#23262A"/>
</svg>
