<svg width="24" height="24" viewBox="0 0 24 24" fill="none" xmlns="http://www.w3.org/2000/svg">
<path fill-rule="evenodd" clip-rule="evenodd" d="M9.73337 2.3625C8.70223 1.58915 7.27231 1.63573 6.29369 2.47455L6.11862 2.62461C4.76888 3.78153 4.86826 5.86881 6.24989 6.90686V7.26383C6.24989 8.49087 6.62505 9.66087 7.29074 10.6369L7.09589 10.5287C6.05543 9.95065 4.74403 10.3018 4.13166 11.3224C3.48975 12.3923 3.86165 13.7812 4.95231 14.3871L5.62942 14.7633C5.2053 14.8978 4.80626 15.1333 4.4699 15.4697C3.34858 16.591 3.34857 18.409 4.4699 19.5303L5.4699 20.5303C6.59122 21.6516 8.40924 21.6516 9.53056 20.5303C9.61817 20.4427 9.69894 20.3508 9.77287 20.2554C10.4494 20.5727 11.2046 20.75 12 20.75C12.7955 20.75 13.5509 20.5726 14.2275 20.2552C14.3014 20.3507 14.3822 20.4427 14.4699 20.5303C15.5912 21.6516 17.4092 21.6516 18.5306 20.5303L19.5306 19.5303C20.6519 18.409 20.6519 16.591 19.5306 15.4697C19.1941 15.1332 18.7948 14.8976 18.3705 14.7631L19.0473 14.3871C20.1379 13.7812 20.5099 12.3923 19.8679 11.3224C19.2556 10.3018 17.9442 9.95065 16.9037 10.5287L16.7092 10.6368C17.3748 9.66074 17.7499 8.4908 17.7499 7.26383V6.86725C18.9524 5.83446 19.0388 3.97817 17.8996 2.83897L17.7568 2.69611C16.7891 1.72841 15.257 1.61953 14.1622 2.44065L13.9157 2.62552C12.6955 2.08754 11.3043 2.08754 10.0841 2.62552L9.73337 2.3625ZM16.5306 16.5303L15.5306 17.5303C15.4818 17.5791 15.4375 17.6306 15.3976 17.6844C14.9995 18.2212 15.0438 18.9829 15.5306 19.4697C16.0661 20.0052 16.9344 20.0052 17.4699 19.4697L18.4699 18.4697C19.0054 17.9341 19.0054 17.0658 18.4699 16.5303C17.9344 15.9948 17.0661 15.9948 16.5306 16.5303ZM15.7405 15.2307C15.7356 15.1615 15.7289 15.0929 15.7203 15.025C15.675 14.666 15.8924 14.326 16.2371 14.2163C16.281 14.2024 16.3246 14.1838 16.3674 14.16L18.3188 13.0758C18.6682 12.8818 18.7873 12.4369 18.5817 12.0942C18.3855 11.7672 17.9655 11.6548 17.6322 11.8399L15.6808 12.924C15.6612 12.9349 15.6425 12.9465 15.6246 12.9586C15.3253 13.1624 14.9232 13.1233 14.6688 12.8656C14.4851 12.6795 14.2822 12.5127 14.0634 12.3682C13.8489 12.2264 13.7219 11.9847 13.7269 11.7276C13.732 11.4705 13.8684 11.2339 14.0883 11.1008C15.4226 10.2929 16.2499 8.84112 16.2499 7.26383V6.4999C16.2499 6.26383 16.361 6.04154 16.5499 5.8999L16.7051 5.78351C17.3136 5.3271 17.3768 4.43751 16.839 3.89963L16.6961 3.75677C16.2562 3.3169 15.5599 3.26742 15.0622 3.64065L14.4499 4.0999C14.2226 4.27035 13.9186 4.29776 13.6645 4.17072L13.4533 4.06515C12.5384 3.60766 11.4614 3.60766 10.5464 4.06515L10.3353 4.17072C10.0812 4.29776 9.77715 4.27035 9.54989 4.0999L8.83337 3.56251L9.28337 2.9625L8.83336 3.5625C8.36467 3.21098 7.7147 3.23215 7.26988 3.61343L6.78178 3.04399L7.26988 3.61343L7.09481 3.76349C6.44701 4.31875 6.53357 5.34546 7.26518 5.78443L7.38576 5.85678C7.61167 5.99232 7.74989 6.23645 7.74989 6.4999V7.26383C7.74989 8.84116 8.57722 10.293 9.91156 11.1008C10.1315 11.234 10.2679 11.4706 10.273 11.7277C10.278 11.9847 10.151 12.2265 9.93647 12.3682C9.71766 12.5127 9.51476 12.6797 9.33108 12.8657C9.07666 13.1235 8.6744 13.1626 8.37509 12.9587C8.3572 12.9465 8.33846 12.9349 8.31884 12.924L8.6774 12.2786L8.31883 12.924L6.36742 11.8399C6.03413 11.6548 5.61406 11.7672 5.4179 12.0942C5.21228 12.4369 5.33141 12.8818 5.68078 13.0759L7.6322 14.16C7.67509 14.1838 7.71876 14.2025 7.76269 14.2164C8.10752 14.326 8.32499 14.6661 8.27971 15.0251C8.27115 15.0929 8.2644 15.1613 8.25951 15.2304C8.35357 15.3035 8.44414 15.3832 8.53056 15.4697L9.53056 16.4697C9.61243 16.5515 9.68831 16.6371 9.7582 16.7258C10.2471 17.3465 10.4438 18.1223 10.348 18.8677C10.846 19.1125 11.4063 19.25 12 19.25C12.5939 19.25 13.1543 19.1124 13.6524 18.8675C13.5567 18.1221 13.7534 17.3464 14.2423 16.7258C14.3116 16.6378 14.3869 16.5529 14.468 16.4716C14.4686 16.4709 14.4693 16.4703 14.4699 16.4697L15.4699 15.4697C15.4807 15.4589 15.4915 15.4482 15.5024 15.4377C15.5788 15.3636 15.6583 15.2946 15.7405 15.2307ZM8.60287 17.6844C8.56297 17.6306 8.51865 17.5791 8.4699 17.5303L7.4699 16.5303C6.93436 15.9948 6.06609 15.9948 5.53056 16.5303C4.99502 17.0658 4.99502 17.9341 5.53056 18.4697L6.53056 19.4697C7.06609 20.0052 7.93436 20.0052 8.4699 19.4697C8.95667 18.9829 9.001 18.2212 8.60287 17.6844ZM10.5 6.75C10.0858 6.75 9.75 7.08579 9.75 7.5C9.75 7.91422 10.0858 8.25 10.5 8.25H10.51C10.9242 8.25 11.26 7.91422 11.26 7.5C11.26 7.08579 10.9242 6.75 10.51 6.75H10.5ZM10.9697 8.96967C11.2527 8.68668 11.7055 8.67711 12 8.94096C12.2945 8.67711 12.7473 8.68668 13.0303 8.96967C13.3232 9.26256 13.3232 9.73744 13.0303 10.0303L12.5303 10.5303C12.2374 10.8232 11.7626 10.8232 11.4697 10.5303L10.9697 10.0303C10.6768 9.73744 10.6768 9.26256 10.9697 8.96967ZM12.75 7.5C12.75 7.08579 13.0858 6.75 13.5 6.75H13.51C13.9242 6.75 14.26 7.08579 14.26 7.5C14.26 7.91422 13.9242 8.25 13.51 8.25H13.5C13.0858 8.25 12.75 7.91422 12.75 7.5Z" fill="#23262A"/>
</svg>
