<svg width="24" height="24" viewBox="0 0 24 24" fill="none" xmlns="http://www.w3.org/2000/svg">
<path fill-rule="evenodd" clip-rule="evenodd" d="M6.29369 2.47455C7.27231 1.63573 8.70223 1.58915 9.73337 2.3625L10.0841 2.62552C11.3043 2.08754 12.6955 2.08754 13.9157 2.62552L14.1622 2.44065C15.257 1.61953 16.7891 1.72841 17.7568 2.69611L17.8996 2.83897C19.0388 3.97817 18.9524 5.83446 17.7499 6.86725V7.26383C17.7499 8.4908 17.3748 9.66074 16.7092 10.6368L16.9037 10.5287C17.9442 9.95065 19.2556 10.3018 19.8679 11.3224C20.5099 12.3923 20.1379 13.7812 19.0473 14.3871L18.3705 14.7631C18.7948 14.8976 19.1941 15.1332 19.5306 15.4697C20.6519 16.591 20.6519 18.409 19.5306 19.5303L18.5306 20.5303C17.4092 21.6516 15.5912 21.6516 14.4699 20.5303C14.3822 20.4427 14.3014 20.3507 14.2275 20.2552C13.5509 20.5726 12.7955 20.75 12 20.75C11.2046 20.75 10.4494 20.5727 9.77287 20.2554C9.69894 20.3508 9.61817 20.4427 9.53056 20.5303C8.40924 21.6516 6.59122 21.6516 5.4699 20.5303L4.4699 19.5303C3.34857 18.409 3.34858 16.591 4.4699 15.4697C4.80626 15.1333 5.2053 14.8978 5.62942 14.7633L4.95231 14.3871C3.86165 13.7812 3.48975 12.3923 4.13166 11.3224C4.74403 10.3018 6.05543 9.95065 7.09589 10.5287L7.29074 10.6369C6.62505 9.66087 6.24989 8.49087 6.24989 7.26383V6.90686C4.86826 5.86881 4.76888 3.78153 6.11862 2.62461L6.29369 2.47455ZM15.5306 17.5303L16.5306 16.5303C17.0661 15.9948 17.9344 15.9948 18.4699 16.5303C19.0054 17.0658 19.0054 17.9341 18.4699 18.4697L17.4699 19.4697C16.9344 20.0052 16.0661 20.0052 15.5306 19.4697C15.0438 18.9829 14.9995 18.2212 15.3976 17.6844C15.4375 17.6306 15.4818 17.5791 15.5306 17.5303ZM15.7203 15.025C15.7289 15.0929 15.7356 15.1615 15.7405 15.2307C15.6583 15.2946 15.5788 15.3636 15.5024 15.4377L15.4867 15.453L15.4699 15.4697L14.4699 16.4697C14.3303 16.6093 14.2081 16.7597 14.1033 16.9181C13.7167 17.5026 13.5664 18.1973 13.6524 18.8675C13.1543 19.1124 12.5939 19.25 12 19.25C11.4063 19.25 10.846 19.1125 10.348 18.8677C10.4438 18.1223 10.2471 17.3465 9.7582 16.7258C9.68831 16.6371 9.61243 16.5515 9.53056 16.4697L8.53056 15.4697C8.44414 15.3832 8.35357 15.3035 8.25951 15.2304C8.2644 15.1613 8.27115 15.0929 8.27971 15.0251C8.32499 14.6661 8.10752 14.326 7.76269 14.2164C7.71876 14.2025 7.67509 14.1838 7.6322 14.16L5.68078 13.0759C5.33141 12.8818 5.21228 12.4369 5.4179 12.0942C5.61406 11.7672 6.03413 11.6548 6.36742 11.8399L8.31884 12.924C8.33846 12.9349 8.3572 12.9465 8.37509 12.9587C8.6744 13.1626 9.07666 13.1235 9.33108 12.8657C9.51476 12.6797 9.71766 12.5127 9.93647 12.3682C10.151 12.2265 10.278 11.9847 10.273 11.7277C10.2679 11.4706 10.1315 11.234 9.91156 11.1008C8.57722 10.293 7.74989 8.84116 7.74989 7.26383V6.4999C7.74989 6.23645 7.61167 5.99232 7.38576 5.85678L7.26518 5.78443C6.53357 5.34546 6.44701 4.31875 7.09481 3.76349L7.26988 3.61343C7.7147 3.23215 8.36467 3.21098 8.83337 3.56251L9.54989 4.0999C9.77715 4.27035 10.0812 4.29776 10.3353 4.17072L10.5464 4.06515C11.4614 3.60766 12.5384 3.60766 13.4533 4.06515L13.6645 4.17072C13.9186 4.29776 14.2226 4.27035 14.4499 4.0999L15.0622 3.64065C15.5599 3.26742 16.2562 3.3169 16.6961 3.75677L16.839 3.89963C17.3768 4.43751 17.3136 5.3271 16.7051 5.78351L16.5499 5.8999C16.361 6.04154 16.2499 6.26383 16.2499 6.4999V7.26383C16.2499 8.84112 15.4226 10.2929 14.0883 11.1008C13.8684 11.2339 13.732 11.4705 13.7269 11.7276C13.7219 11.9847 13.8489 12.2264 14.0634 12.3682C14.2822 12.5127 14.4851 12.6795 14.6688 12.8656C14.9232 13.1233 15.3253 13.1624 15.6246 12.9586C15.6425 12.9465 15.6612 12.9349 15.6808 12.924L17.6322 11.8399C17.9655 11.6548 18.3855 11.7672 18.5817 12.0942C18.7873 12.4369 18.6682 12.8818 18.3188 13.0758L16.3674 14.16C16.3246 14.1838 16.281 14.2024 16.2371 14.2163C15.8924 14.326 15.675 14.666 15.7203 15.025ZM5.53056 16.5303C6.06609 15.9948 6.93436 15.9948 7.4699 16.5303L8.4699 17.5303C8.53934 17.5998 8.59982 17.6748 8.65129 17.7541C8.99643 18.2855 8.93596 19.0036 8.4699 19.4697C7.93436 20.0052 7.06609 20.0052 6.53056 19.4697L5.53056 18.4697C4.99502 17.9341 4.99502 17.0658 5.53056 16.5303ZM10.5 6.75C10.0858 6.75 9.75 7.08579 9.75 7.5C9.75 7.91421 10.0858 8.25 10.5 8.25H10.51C10.9242 8.25 11.26 7.91421 11.26 7.5C11.26 7.08579 10.9242 6.75 10.51 6.75H10.5ZM10.9697 8.96967C11.2527 8.68668 11.7055 8.67711 12 8.94096C12.2945 8.67711 12.7473 8.68668 13.0303 8.96967C13.3232 9.26256 13.3232 9.73744 13.0303 10.0303L12.5303 10.5303C12.2374 10.8232 11.7626 10.8232 11.4697 10.5303L10.9697 10.0303C10.6768 9.73744 10.6768 9.26256 10.9697 8.96967ZM12.75 7.5C12.75 7.08579 13.0858 6.75 13.5 6.75H13.51C13.9242 6.75 14.26 7.08579 14.26 7.5C14.26 7.91421 13.9242 8.25 13.51 8.25H13.5C13.0858 8.25 12.75 7.91421 12.75 7.5Z" fill="#23262A"/>
</svg>
