<svg width="24" height="24" viewBox="0 0 24 24" fill="none" xmlns="http://www.w3.org/2000/svg">
<path fill-rule="evenodd" clip-rule="evenodd" d="M8.25 7C8.25 8.60626 9.25989 9.97664 10.6794 10.5108L6.98791 15.4328C6.68131 15.3147 6.34821 15.25 6 15.25C4.48122 15.25 3.25 16.4812 3.25 18C3.25 19.5188 4.48122 20.75 6 20.75C7.51878 20.75 8.75 19.5188 8.75 18C8.75 17.3734 8.54042 16.7957 8.18754 16.3333L11.25 12.25V15.3535C10.0957 15.68 9.25 16.7412 9.25 18C9.25 19.5188 10.4812 20.75 12 20.75C13.5188 20.75 14.75 19.5188 14.75 18C14.75 16.7412 13.9043 15.68 12.75 15.3535V12.25L15.8125 16.3333C15.4596 16.7957 15.25 17.3734 15.25 18C15.25 19.5188 16.4812 20.75 18 20.75C19.5188 20.75 20.75 19.5188 20.75 18C20.75 16.4812 19.5188 15.25 18 15.25C17.6518 15.25 17.3187 15.3147 17.0121 15.4328L13.3206 10.5108C14.7401 9.97664 15.75 8.60626 15.75 7C15.75 4.92893 14.0711 3.25 12 3.25C9.92893 3.25 8.25 4.92893 8.25 7ZM12 4.75C10.7574 4.75 9.75 5.75736 9.75 7C9.75 8.24014 10.7533 9.24595 11.9925 9.24999H12.0075C13.2467 9.24595 14.25 8.24014 14.25 7C14.25 5.75736 13.2426 4.75 12 4.75ZM12 16.75C11.3096 16.75 10.75 17.3096 10.75 18C10.75 18.6904 11.3096 19.25 12 19.25C12.6904 19.25 13.25 18.6904 13.25 18C13.25 17.3096 12.6904 16.75 12 16.75ZM6 16.75C5.30964 16.75 4.75 17.3096 4.75 18C4.75 18.6904 5.30964 19.25 6 19.25C6.69036 19.25 7.25 18.6904 7.25 18C7.25 17.3096 6.69036 16.75 6 16.75ZM18 16.75C17.3096 16.75 16.75 17.3096 16.75 18C16.75 18.6904 17.3096 19.25 18 19.25C18.6904 19.25 19.25 18.6904 19.25 18C19.25 17.3096 18.6904 16.75 18 16.75Z" fill="#23262A"/>
</svg>
