<svg width="24" height="24" viewBox="0 0 24 24" fill="none" xmlns="http://www.w3.org/2000/svg">
<path d="M8.25 7C8.25 4.92893 9.92893 3.25 12 3.25C14.0711 3.25 15.75 4.92893 15.75 7C15.75 8.60625 14.7401 9.97663 13.3206 10.5108L17.0121 15.4328C17.3187 15.3147 17.6518 15.25 18 15.25C19.5188 15.25 20.75 16.4812 20.75 18C20.75 19.5188 19.5188 20.75 18 20.75C16.4812 20.75 15.25 19.5188 15.25 18C15.25 17.3734 15.4596 16.7957 15.8125 16.3333L12.75 12.25V15.3535C13.9043 15.68 14.75 16.7412 14.75 18C14.75 19.5188 13.5188 20.75 12 20.75C10.4812 20.75 9.25 19.5188 9.25 18C9.25 16.7412 10.0957 15.68 11.25 15.3535V12.25L8.18754 16.3333C8.54042 16.7957 8.75 17.3734 8.75 18C8.75 19.5188 7.51878 20.75 6 20.75C4.48122 20.75 3.25 19.5188 3.25 18C3.25 16.4812 4.48122 15.25 6 15.25C6.34821 15.25 6.6813 15.3147 6.9879 15.4328L10.6794 10.5108C9.25989 9.97663 8.25 8.60625 8.25 7Z" fill="#23262A"/>
</svg>
