<svg width="24" height="24" viewBox="0 0 24 24" fill="none" xmlns="http://www.w3.org/2000/svg">
<path fill-rule="evenodd" clip-rule="evenodd" d="M2.25 5C2.25 4.58579 2.58579 4.25 3 4.25H21C21.4142 4.25 21.75 4.58579 21.75 5V19C21.75 19.4142 21.4142 19.75 21 19.75H3C2.58579 19.75 2.25 19.4142 2.25 19V5ZM3.75 5.75V18.25H20.25V5.75H3.75ZM11 16C11 15.5858 11.3358 15.25 11.75 15.25H17.75C18.1642 15.25 18.5 15.5858 18.5 16C18.5 16.4142 18.1642 16.75 17.75 16.75H11.75C11.3358 16.75 11 16.4142 11 16ZM6.78033 7.46967C6.48744 7.17678 6.01256 7.17678 5.71967 7.46967C5.42678 7.76256 5.42678 8.23744 5.71967 8.53033L9.18934 12L5.71967 15.4697C5.42678 15.7626 5.42678 16.2374 5.71967 16.5303C6.01256 16.8232 6.48744 16.8232 6.78033 16.5303L10.7803 12.5303C11.0732 12.2374 11.0732 11.7626 10.7803 11.4697L6.78033 7.46967Z" fill="#23262A"/>
</svg>
