<svg width="24" height="24" viewBox="0 0 24 24" fill="none" xmlns="http://www.w3.org/2000/svg">
<path fill-rule="evenodd" clip-rule="evenodd" d="M8.25001 4C8.25001 4.41421 8.5858 4.75 9.00001 4.75H9.20286V9.23937L3.73033 16.7308C3.09479 17.6008 3.12728 18.637 3.60922 19.4315C4.08527 20.2164 4.98256 20.75 6.05055 20.75H17.9495C19.0175 20.75 19.9148 20.2164 20.3908 19.4315C20.8727 18.637 20.9052 17.6008 20.2697 16.7308L14.7971 9.23937V4.75H15C15.4142 4.75 15.75 4.41421 15.75 4C15.75 3.58579 15.4142 3.25 15 3.25H9.00001C8.5858 3.25 8.25001 3.58579 8.25001 4ZM10.5585 9.92655C10.6523 9.79812 10.7029 9.64318 10.7029 9.48414V4.75H13.2971V9.48414C13.2971 9.64319 13.3477 9.79812 13.4415 9.92655L14.4083 11.25L9.59169 11.25L10.5585 9.92655ZM8.49592 12.75L4.94157 17.6156C4.68885 17.9616 4.70077 18.3388 4.89174 18.6536C5.08861 18.9782 5.49275 19.25 6.05055 19.25H17.9495C18.5073 19.25 18.9114 18.9782 19.1083 18.6536C19.2993 18.3388 19.3112 17.9616 19.0585 17.6156L15.5041 12.75L8.49592 12.75Z" fill="#23262A"/>
</svg>
