<svg width="24" height="24" viewBox="0 0 24 24" fill="none" xmlns="http://www.w3.org/2000/svg">
<path fill-rule="evenodd" clip-rule="evenodd" d="M9.20314 9.23937V4.75H9C8.58579 4.75 8.25 4.41421 8.25 4C8.25 3.58579 8.58579 3.25 9 3.25H15C15.4142 3.25 15.75 3.58579 15.75 4C15.75 4.41421 15.4142 4.75 15 4.75H14.7974V9.23937L20.2696 16.7308C20.9052 17.6008 20.8727 18.637 20.3907 19.4315C19.9147 20.2164 19.0174 20.75 17.9494 20.75H6.05049C4.9825 20.75 4.08521 20.2164 3.60916 19.4315C3.12722 18.637 3.09473 17.6008 3.73027 16.7308L9.20314 9.23937ZM13.4418 9.92655C13.348 9.79812 13.2974 9.64319 13.2974 9.48414V4.75H10.7031V9.48414C10.7031 9.64318 10.6526 9.79812 10.5588 9.92655L9.59196 11.25L14.4086 11.25L13.4418 9.92655Z" fill="#23262A"/>
</svg>
