<svg width="24" height="24" viewBox="0 0 24 24" fill="none" xmlns="http://www.w3.org/2000/svg">
<path d="M12 18.75C12.4142 18.75 12.75 19.0858 12.75 19.5V21.5C12.75 21.9142 12.4142 22.25 12 22.25C11.5858 22.25 11.25 21.9142 11.25 21.5V19.5C11.25 19.0858 11.5858 18.75 12 18.75ZM6.16602 16.7734C6.45891 16.4805 6.93465 16.4805 7.22754 16.7734C7.51998 17.0663 7.52023 17.5412 7.22754 17.834L5.8125 19.248C5.51958 19.5407 5.04475 19.5408 4.75195 19.248C4.45921 18.9552 4.45936 18.4804 4.75195 18.1875L6.16602 16.7734ZM16.7725 16.7734C17.0654 16.4805 17.5411 16.4805 17.834 16.7734L19.248 18.1875C19.5406 18.4804 19.5408 18.9552 19.248 19.248C18.9552 19.5408 18.4804 19.5407 18.1875 19.248L16.7725 17.834C16.4798 17.5412 16.48 17.0663 16.7725 16.7734ZM12 6.75C14.8995 6.75 17.25 9.1005 17.25 12C17.25 14.8995 14.8995 17.25 12 17.25C9.1005 17.25 6.75 14.8995 6.75 12C6.75 9.1005 9.1005 6.75 12 6.75ZM11.4844 8.28516C9.65729 8.53642 8.25 10.1039 8.25 12C8.25 13.9042 9.66941 15.4757 11.5078 15.7168C12.0473 14.332 12.2945 13.1044 12.292 12C12.2894 10.8803 12.0309 9.83212 11.4844 8.28516ZM4.5 11.25C4.91421 11.25 5.25 11.5858 5.25 12C5.25 12.4142 4.91421 12.75 4.5 12.75H2.5C2.08579 12.75 1.75 12.4142 1.75 12C1.75 11.5858 2.08579 11.25 2.5 11.25H4.5ZM21.5 11.25C21.9142 11.25 22.25 11.5858 22.25 12C22.25 12.4142 21.9142 12.75 21.5 12.75H19.5C19.0858 12.75 18.75 12.4142 18.75 12C18.75 11.5858 19.0858 11.25 19.5 11.25H21.5ZM4.75195 4.75195C5.04485 4.45906 5.52058 4.45906 5.81348 4.75195L7.22754 6.16602C7.52031 6.45879 7.52007 6.93364 7.22754 7.22656C6.93465 7.51946 6.45989 7.51946 6.16699 7.22656L4.75195 5.8125C4.45947 5.51962 4.4593 5.04473 4.75195 4.75195ZM18.1865 4.75195C18.4794 4.45906 18.9552 4.45906 19.248 4.75195C19.5407 5.04473 19.5405 5.51962 19.248 5.8125L17.833 7.22656C17.5401 7.51946 17.0654 7.51946 16.7725 7.22656C16.4799 6.93364 16.4797 6.45879 16.7725 6.16602L18.1865 4.75195ZM12 1.75C12.4142 1.75 12.75 2.08579 12.75 2.5V4.5C12.75 4.91421 12.4142 5.25 12 5.25C11.5858 5.25 11.25 4.91421 11.25 4.5V2.5C11.25 2.08579 11.5858 1.75 12 1.75Z" fill="#202733"/>
</svg>
