<svg width="24" height="24" viewBox="0 0 24 24" fill="none" xmlns="http://www.w3.org/2000/svg">
<path fill-rule="evenodd" clip-rule="evenodd" d="M9.75 4.4999C9.75 3.25728 10.7573 2.24988 12 2.24988C13.2427 2.24988 14.25 3.25728 14.25 4.4999V14.9997C15.1597 15.683 15.75 16.7722 15.75 17.9999C15.75 20.0709 14.0711 21.7499 12 21.7499C9.92893 21.7499 8.25 20.0709 8.25 17.9999C8.25 16.7722 8.84026 15.683 9.75 14.9997V4.4999ZM10.5 18C10.5 17.1716 11.1716 16.5 12 16.5C12.8284 16.5 13.5 17.1716 13.5 18C13.5 18.8284 12.8284 19.5 12 19.5C11.1716 19.5 10.5 18.8284 10.5 18Z" fill="#23262A"/>
</svg>
