<svg width="24" height="24" viewBox="0 0 24 24" fill="none" xmlns="http://www.w3.org/2000/svg">
<path fill-rule="evenodd" clip-rule="evenodd" d="M12 2.24988C10.7573 2.24988 9.75 3.25728 9.75 4.4999V14.9997C8.84026 15.683 8.25 16.7722 8.25 17.9999C8.25 20.0709 9.92893 21.7499 12 21.7499C14.0711 21.7499 15.75 20.0709 15.75 17.9999C15.75 16.7722 15.1597 15.683 14.25 14.9997V4.4999C14.25 3.25728 13.2427 2.24988 12 2.24988ZM11.25 4.4999C11.25 4.08567 11.5858 3.74988 12 3.74988C12.4142 3.74988 12.75 4.08567 12.75 4.4999V15.4012C12.75 15.6689 12.8927 15.9164 13.1245 16.0504C13.7989 16.4406 14.25 17.168 14.25 17.9999C14.25 19.2425 13.2426 20.2499 12 20.2499C10.7574 20.2499 9.75 19.2425 9.75 17.9999C9.75 17.168 10.2011 16.4406 10.8755 16.0504C11.1073 15.9164 11.25 15.6689 11.25 15.4012V4.4999ZM12 16.5C11.1716 16.5 10.5 17.1716 10.5 18C10.5 18.8284 11.1716 19.5 12 19.5C12.8284 19.5 13.5 18.8284 13.5 18C13.5 17.1716 12.8284 16.5 12 16.5Z" fill="#23262A"/>
</svg>
