<svg width="24" height="24" viewBox="0 0 24 24" fill="none" xmlns="http://www.w3.org/2000/svg">
<path fill-rule="evenodd" clip-rule="evenodd" d="M18.2374 3.17678C17.554 2.49336 16.446 2.49336 15.7626 3.17678L8.34835 10.591C7.64509 11.2943 7.25 12.2481 7.25 13.2426V15.6893L5.96967 16.9697C5.67678 17.2626 5.67678 17.7374 5.96967 18.0303C6.26256 18.3232 6.73744 18.3232 7.03033 18.0303L8.31066 16.75H10.7574C11.7519 16.75 12.7057 16.3549 13.409 15.6517L20.8232 8.23744C21.5066 7.55402 21.5066 6.44598 20.8232 5.76257L18.2374 3.17678ZM16.8232 4.23744C16.9209 4.13981 17.0791 4.13981 17.1768 4.23744L19.7626 6.82323C19.8602 6.92086 19.8602 7.07915 19.7626 7.17678L12.3483 14.591C11.9264 15.0129 11.3541 15.25 10.7574 15.25H8.75V13.2426C8.75 12.6459 8.98705 12.0736 9.40901 11.6517L16.8232 4.23744ZM17.0303 8.03033C17.3232 7.73744 17.3232 7.26257 17.0303 6.96967C16.7374 6.67678 16.2626 6.67678 15.9697 6.96967L12.9697 9.96967C12.6768 10.2626 12.6768 10.7374 12.9697 11.0303C13.2626 11.3232 13.7374 11.3232 14.0303 11.0303L17.0303 8.03033ZM5.03033 20.0303C5.32322 19.7374 5.32322 19.2626 5.03033 18.9697C4.73744 18.6768 4.26256 18.6768 3.96967 18.9697L2.96967 19.9697C2.67678 20.2626 2.67678 20.7374 2.96967 21.0303C3.26256 21.3232 3.73744 21.3232 4.03033 21.0303L5.03033 20.0303Z" fill="#23262A"/>
</svg>
