<svg width="24" height="24" viewBox="0 0 24 24" fill="none" xmlns="http://www.w3.org/2000/svg">
<path fill-rule="evenodd" clip-rule="evenodd" d="M11.3529 3.26456C11.4013 3.25488 11.4506 3.25 11.5 3.25H16.9724C18.2125 3.25 19.2992 4.08001 19.6255 5.27643L21.5346 12.2764C22.0117 14.0258 20.6948 15.75 18.8815 15.75H13.5406L14.334 18.1304C14.9276 19.9111 13.6022 21.75 11.7251 21.75H10.5C10.2492 21.75 10.0151 21.6247 9.87596 21.416L6.09861 15.75H3C2.58579 15.75 2.25 15.4142 2.25 15V5C2.25 4.58579 2.58579 4.25 3 4.25H6.42574L11.3529 3.26456Z" fill="#23262A"/>
</svg>
