<svg width="24" height="24" viewBox="0 0 24 24" fill="none" xmlns="http://www.w3.org/2000/svg">
<path d="M16.9727 2.25C18.2127 2.25011 19.2997 3.08003 19.626 4.27637L21.5342 11.2764C22.0113 13.0256 20.6949 14.7498 18.8818 14.75H13.541L14.334 17.1309C14.9272 18.9113 13.6022 20.7497 11.7256 20.75H10.5C10.2492 20.75 10.0151 20.6247 9.87598 20.416L6.09863 14.75H3C2.58579 14.75 2.25 14.4142 2.25 14V4C2.25 3.58579 2.58579 3.25 3 3.25H6.42578L11.3525 2.26465C11.401 2.25496 11.4506 2.25 11.5 2.25H16.9727Z" fill="#202733"/>
</svg>
