<svg width="24" height="24" viewBox="0 0 24 24" fill="none" xmlns="http://www.w3.org/2000/svg">
<path fill-rule="evenodd" clip-rule="evenodd" d="M9.87596 2.58397C10.0151 2.37533 10.2492 2.25 10.5 2.25H11.7251C13.6022 2.25 14.9276 4.08892 14.334 5.86963L13.5406 8.25H18.8815C20.6948 8.25 22.0117 9.97419 21.5346 11.7236L19.6255 18.7236C19.2992 19.92 18.2125 20.75 16.9724 20.75H11.5C11.4506 20.75 11.4013 20.7451 11.3529 20.7354L6.42574 19.75H3C2.58579 19.75 2.25 19.4142 2.25 19V9C2.25 8.58579 2.58579 8.25 3 8.25H6.09861L9.87596 2.58397ZM10.9014 3.75L7.12404 9.41603C6.98494 9.62467 6.75076 9.75 6.5 9.75H3.75V18.25H6.5C6.54939 18.25 6.59866 18.2549 6.64709 18.2646L11.5743 19.25H16.9724C17.5361 19.25 18.03 18.8727 18.1784 18.3289L20.0875 11.3289C20.3043 10.5337 19.7057 9.75 18.8815 9.75H12.5C12.2589 9.75 12.0325 9.63411 11.8916 9.43853C11.7506 9.24296 11.7123 8.99154 11.7885 8.76283L12.911 5.39528C13.1808 4.58587 12.5783 3.75 11.7251 3.75H10.9014Z" fill="#23262A"/>
</svg>
