<svg width="24" height="24" viewBox="0 0 24 24" fill="none" xmlns="http://www.w3.org/2000/svg">
<path d="M16.9727 2.25C18.2127 2.25011 19.2997 3.08003 19.626 4.27637L21.5342 11.2764C22.0113 13.0256 20.6949 14.7498 18.8818 14.75H13.541L14.334 17.1309C14.9272 18.9113 13.6022 20.7497 11.7256 20.75H10.5C10.2492 20.75 10.0151 20.6247 9.87598 20.416L6.09863 14.75H3C2.58579 14.75 2.25 14.4142 2.25 14V4C2.25 3.58579 2.58579 3.25 3 3.25H6.42578L11.3525 2.26465C11.401 2.25496 11.4506 2.25 11.5 2.25H16.9727ZM6.64746 4.73535C6.59903 4.74504 6.54939 4.75 6.5 4.75H3.75V13.25H6.5C6.75076 13.25 6.98492 13.3753 7.12402 13.584L10.9014 19.25H11.7256C12.5786 19.2497 13.1809 18.4138 12.9111 17.6045L11.7881 14.2373C11.7119 14.0086 11.7507 13.7571 11.8916 13.5615C12.0326 13.3659 12.2589 13.25 12.5 13.25H18.8818C19.7059 13.2498 20.3047 12.466 20.0879 11.6709L18.1787 4.6709C18.0304 4.12721 17.5362 3.75011 16.9727 3.75H11.5742L6.64746 4.73535Z" fill="#202733"/>
</svg>
