<svg width="24" height="24" viewBox="0 0 24 24" fill="none" xmlns="http://www.w3.org/2000/svg">
<path fill-rule="evenodd" clip-rule="evenodd" d="M9.87596 2.58397C10.0151 2.37533 10.2492 2.25 10.5 2.25H11.7251C13.6022 2.25 14.9276 4.08892 14.334 5.86963L13.5406 8.25H18.8815C20.6948 8.25 22.0117 9.97419 21.5346 11.7236L19.6255 18.7236C19.2992 19.92 18.2125 20.75 16.9724 20.75H11.5C11.4506 20.75 11.4013 20.7451 11.3529 20.7354L6.42574 19.75H3C2.58579 19.75 2.25 19.4142 2.25 19V9C2.25 8.58579 2.58579 8.25 3 8.25H6.09861L9.87596 2.58397Z" fill="#23262A"/>
</svg>
