<svg width="24" height="24" viewBox="0 0 24 24" fill="none" xmlns="http://www.w3.org/2000/svg">
<path fill-rule="evenodd" clip-rule="evenodd" d="M11.3529 3.26456C11.4013 3.25488 11.4506 3.25 11.5 3.25H16.9724C18.2125 3.25 19.2992 4.08001 19.6255 5.27643L21.5346 12.2764C22.0117 14.0258 20.6948 15.75 18.8815 15.75H13.5406L14.334 18.1304C14.9276 19.9111 13.6022 21.75 11.7251 21.75H10.5C10.2492 21.75 10.0151 21.6247 9.87596 21.416L6.09861 15.75H3C2.58579 15.75 2.25 15.4142 2.25 15V5C2.25 4.58579 2.58579 4.25 3 4.25H6.42574L11.3529 3.26456ZM11.5743 4.75L6.64709 5.73544C6.59866 5.74512 6.54939 5.75 6.5 5.75H3.75V14.25H6.5C6.75076 14.25 6.98494 14.3753 7.12404 14.584L10.9014 20.25H11.7251C12.5783 20.25 13.1808 19.4141 12.911 18.6047L11.7885 15.2372C11.7123 15.0085 11.7506 14.757 11.8916 14.5615C12.0325 14.3659 12.2589 14.25 12.5 14.25H18.8815C19.7057 14.25 20.3043 13.4663 20.0875 12.6711L18.1784 5.6711C18.03 5.12728 17.5361 4.75 16.9724 4.75H11.5743Z" fill="#23262A"/>
</svg>
