<svg width="24" height="24" viewBox="0 0 24 24" fill="none" xmlns="http://www.w3.org/2000/svg">
<path fill-rule="evenodd" clip-rule="evenodd" d="M10 1.25C9.58579 1.25 9.25 1.58579 9.25 2C9.25 2.41421 9.58579 2.75 10 2.75H11.25V4.28169C6.7686 4.66212 3.25 8.42015 3.25 13C3.25 17.8325 7.16751 21.75 12 21.75C16.8325 21.75 20.75 17.8325 20.75 13C20.75 8.42015 17.2314 4.66212 12.75 4.28169V2.75H14C14.4142 2.75 14.75 2.41421 14.75 2C14.75 1.58579 14.4142 1.25 14 1.25H10ZM4.75 13C4.75 8.99594 7.99594 5.75 12 5.75C16.0041 5.75 19.25 8.99594 19.25 13C19.25 17.0041 16.0041 20.25 12 20.25C7.99594 20.25 4.75 17.0041 4.75 13ZM18.8941 3.27729C18.6012 2.98439 18.1263 2.98439 17.8334 3.27729C17.5405 3.57018 17.5405 4.04505 17.8334 4.33795L20.6619 7.16637C20.9548 7.45927 21.4296 7.45927 21.7225 7.16637C22.0154 6.87348 22.0154 6.39861 21.7225 6.10571L18.8941 3.27729Z" fill="#23262A"/>
</svg>
