<svg width="24" height="24" viewBox="0 0 24 24" fill="none" xmlns="http://www.w3.org/2000/svg">
<path fill-rule="evenodd" clip-rule="evenodd" d="M10 1.25C9.58579 1.25 9.25 1.58579 9.25 2C9.25 2.41421 9.58579 2.75 10 2.75H11.25V4.28169C6.7686 4.66212 3.25 8.42015 3.25 13C3.25 17.8325 7.16751 21.75 12 21.75C16.8325 21.75 20.75 17.8325 20.75 13C20.75 8.42015 17.2314 4.66212 12.75 4.28169V2.75H14C14.4142 2.75 14.75 2.41421 14.75 2C14.75 1.58579 14.4142 1.25 14 1.25H10ZM12 5.75C7.99594 5.75 4.75 8.99594 4.75 13C4.75 17.0041 7.99594 20.25 12 20.25C16.0041 20.25 19.25 17.0041 19.25 13C19.25 8.99594 16.0041 5.75 12 5.75ZM5.75 13C5.75 9.54822 8.54822 6.75 12 6.75C15.4518 6.75 18.25 9.54822 18.25 13C18.25 16.4518 15.4518 19.25 12 19.25C8.54822 19.25 5.75 16.4518 5.75 13ZM17.833 3.27729C18.1258 2.98439 18.6007 2.98439 18.8936 3.27729L21.722 6.10571C22.0149 6.39861 22.0149 6.87348 21.722 7.16637C21.4291 7.45927 20.9543 7.45927 20.6614 7.16637L17.833 4.33795C17.5401 4.04505 17.5401 3.57018 17.833 3.27729Z" fill="#23262A"/>
</svg>
