<svg width="24" height="24" viewBox="0 0 24 24" fill="none" xmlns="http://www.w3.org/2000/svg">
<path fill-rule="evenodd" clip-rule="evenodd" d="M9.25 2C9.25 1.58579 9.58579 1.25 10 1.25H14C14.4142 1.25 14.75 1.58579 14.75 2C14.75 2.41421 14.4142 2.75 14 2.75H12.75V4.28169C17.2314 4.66212 20.75 8.42015 20.75 13C20.75 17.8325 16.8325 21.75 12 21.75C7.16751 21.75 3.25 17.8325 3.25 13C3.25 8.42015 6.7686 4.66212 11.25 4.28169V2.75H10C9.58579 2.75 9.25 2.41421 9.25 2ZM12 5.75C7.99594 5.75 4.75 8.99594 4.75 13C4.75 17.0041 7.99594 20.25 12 20.25C16.0041 20.25 19.25 17.0041 19.25 13C19.25 8.99594 16.0041 5.75 12 5.75ZM18.8936 3.27729C18.6007 2.98439 18.1258 2.98439 17.833 3.27729C17.5401 3.57018 17.5401 4.04505 17.833 4.33795L20.6614 7.16637C20.9543 7.45927 21.4291 7.45927 21.722 7.16637C22.0149 6.87348 22.0149 6.39861 21.722 6.10571L18.8936 3.27729ZM5.75 13C5.75 9.54822 8.54822 6.75 12 6.75C15.4518 6.75 18.25 9.54822 18.25 13C18.25 16.4518 15.4518 19.25 12 19.25C8.54822 19.25 5.75 16.4518 5.75 13ZM10.1197 9.8536C10.3487 9.71883 10.6319 9.71533 10.8642 9.84438L15.3642 12.3444C15.6023 12.4767 15.75 12.7276 15.75 13C15.75 13.2724 15.6023 13.5233 15.3642 13.6556L10.8642 16.1556C10.6319 16.2847 10.3487 16.2812 10.1197 16.1464C9.89062 16.0116 9.75 15.7657 9.75 15.5V10.5C9.75 10.2343 9.89062 9.98836 10.1197 9.8536Z" fill="#23262A"/>
</svg>
