<svg width="24" height="24" viewBox="0 0 24 24" fill="none" xmlns="http://www.w3.org/2000/svg">
<path fill-rule="evenodd" clip-rule="evenodd" d="M9.25 2C9.25 1.58579 9.58579 1.25 10 1.25H14C14.4142 1.25 14.75 1.58579 14.75 2C14.75 2.41421 14.4142 2.75 14 2.75H12.75V4.28169C17.2314 4.66212 20.75 8.42015 20.75 13C20.75 17.8325 16.8325 21.75 12 21.75C7.16751 21.75 3.25 17.8325 3.25 13C3.25 8.42015 6.7686 4.66212 11.25 4.28169V2.75H10C9.58579 2.75 9.25 2.41421 9.25 2ZM12 5.75C7.99594 5.75 4.75 8.99594 4.75 13C4.75 17.0041 7.99594 20.25 12 20.25C16.0041 20.25 19.25 17.0041 19.25 13C19.25 8.99594 16.0041 5.75 12 5.75ZM18.8936 3.27729C18.6007 2.98439 18.1258 2.98439 17.833 3.27729C17.5401 3.57018 17.5401 4.04505 17.833 4.33795L20.6614 7.16637C20.9543 7.45927 21.4291 7.45927 21.722 7.16637C22.0149 6.87348 22.0149 6.39861 21.722 6.10571L18.8936 3.27729ZM12 6.75C8.54822 6.75 5.75 9.54822 5.75 13C5.75 16.4518 8.54822 19.25 12 19.25C15.4518 19.25 18.25 16.4518 18.25 13C18.25 9.54822 15.4518 6.75 12 6.75ZM9.25 15.5C9.25 15.9142 9.58579 16.25 10 16.25C10.4142 16.25 10.75 15.9142 10.75 15.5V10.5C10.75 10.0858 10.4142 9.75 10 9.75C9.58579 9.75 9.25 10.0858 9.25 10.5V15.5ZM14 16.25C13.5858 16.25 13.25 15.9142 13.25 15.5V10.5C13.25 10.0858 13.5858 9.75 14 9.75C14.4142 9.75 14.75 10.0858 14.75 10.5V15.5C14.75 15.9142 14.4142 16.25 14 16.25Z" fill="#23262A"/>
</svg>
