<svg width="24" height="24" viewBox="0 0 24 24" fill="none" xmlns="http://www.w3.org/2000/svg">
<path fill-rule="evenodd" clip-rule="evenodd" d="M6.51026 4.75H6C5.58579 4.75 5.25 4.41421 5.25 4C5.25 3.58579 5.58579 3.25 6 3.25H7.19971H16.7997H18C18.4142 3.25 18.75 3.58579 18.75 4C18.75 4.41421 18.4142 4.75 18 4.75H17.4892L17.1716 8.52098C17.1607 8.65046 17.0524 8.75 16.9225 8.75H7.07722C6.94729 8.75 6.83902 8.65047 6.82811 8.521L6.51026 4.75ZM5.25 11C5.25 10.5858 5.58579 10.25 6 10.25H18C18.4142 10.25 18.75 10.5858 18.75 11C18.75 12.5603 17.5337 13.9486 15.9391 14.7962L16.7388 19.3709C16.7769 19.589 16.7167 19.8129 16.5742 19.9825C16.4317 20.1521 16.2215 20.25 16 20.25H8C7.7785 20.25 7.56833 20.1521 7.42583 19.9825C7.28332 19.8129 7.22306 19.5891 7.2612 19.3709L8.0608 14.7962C6.46628 13.9485 5.25 12.5603 5.25 11Z" fill="#23262A"/>
</svg>
