<svg width="24" height="24" viewBox="0 0 24 24" fill="none" xmlns="http://www.w3.org/2000/svg">
<path fill-rule="evenodd" clip-rule="evenodd" d="M6.97408 10.25L6.51051 4.75H6C5.58579 4.75 5.25 4.41421 5.25 4C5.25 3.58579 5.58579 3.25 6 3.25H18C18.4142 3.25 18.75 3.58579 18.75 4C18.75 4.41421 18.4142 4.75 18 4.75H17.4894L17.0262 10.25H18C18.4142 10.25 18.75 10.5858 18.75 11C18.75 12.5603 17.5337 13.9486 15.9391 14.7962L16.7388 19.3709C16.7769 19.589 16.7167 19.8129 16.5742 19.9825C16.4317 20.1521 16.2215 20.25 16 20.25H8C7.7785 20.25 7.56833 20.1521 7.42583 19.9825C7.28332 19.8129 7.22306 19.5891 7.2612 19.3709L8.0608 14.7962C6.46628 13.9485 5.25 12.5603 5.25 11C5.25 10.5858 5.58579 10.25 6 10.25H6.97408ZM15.5209 10.25L15.9841 4.75H8.01583L8.4794 10.25H15.5209ZM9.19609 13.6795C8.02029 13.1686 7.26415 12.4373 6.93685 11.75H17.0632C16.7359 12.4373 15.9797 13.1686 14.8039 13.6795C14.4863 13.8176 14.3045 14.1551 14.364 14.4963L15.1075 18.75H8.89246L9.63592 14.4968C9.6957 14.1555 9.51388 13.8176 9.19609 13.6795Z" fill="#23262A"/>
</svg>
