<svg width="24" height="24" viewBox="0 0 24 24" fill="none" xmlns="http://www.w3.org/2000/svg">
<path fill-rule="evenodd" clip-rule="evenodd" d="M12.3748 2.35048C12.1427 2.21651 11.8568 2.21651 11.6248 2.35048L4.55571 6.43182C4.39727 6.52329 4.40057 6.7531 4.56157 6.83999C4.56788 6.84339 4.57414 6.84689 4.58035 6.85048L9.01598 9.41137C9.11883 9.47076 9.24864 9.44892 9.33212 9.36444C10.012 8.67637 10.9561 8.25 11.9998 8.25C13.0434 8.25 13.9875 8.67635 14.6673 9.36437C14.7508 9.44885 14.8806 9.47068 14.9835 9.4113L19.2345 6.95696L19.2524 6.94696L19.4185 6.85698C19.5905 6.76389 19.5938 6.51838 19.4245 6.42063L12.3748 2.35048ZM20.544 8.37301C20.544 8.18358 20.3416 8.06297 20.175 8.15317L19.9756 8.26112L15.7344 10.7098C15.6315 10.7692 15.5855 10.8926 15.6169 11.0071C15.7035 11.3234 15.7498 11.6563 15.7498 12C15.7498 13.7432 14.5604 15.2085 12.9489 15.6288C12.8339 15.6588 12.7498 15.7604 12.7498 15.8793L12.7498 21C12.7498 21.1925 12.9581 21.3128 13.1248 21.2165L20.169 17.1495C20.4011 17.0155 20.544 16.7679 20.544 16.5V8.37301ZM10.8748 21.2165C11.0414 21.3127 11.2498 21.1924 11.2498 21L11.2498 15.8793C11.2498 15.7604 11.1657 15.6588 11.0506 15.6288C9.43912 15.2085 8.24976 13.7432 8.24976 12C8.24976 11.6563 8.29599 11.3234 8.38258 11.0072C8.41395 10.8927 8.36797 10.7693 8.2651 10.7099L3.83967 8.15489L3.8243 8.1466C3.65774 8.0567 3.45557 8.17733 3.45557 8.3666V16.5C3.45557 16.7679 3.59852 17.0155 3.83057 17.1495L10.8748 21.2165ZM13.936 10.8533C13.544 10.1928 12.8236 9.75 11.9998 9.75C11.1725 9.75 10.4494 10.1965 10.0585 10.8617L10.051 10.875L10.0427 10.889C9.85627 11.2168 9.74976 11.5959 9.74976 12C9.74976 13.2426 10.7571 14.25 11.9998 14.25C13.2424 14.25 14.2498 13.2426 14.2498 12C14.2498 11.5994 14.1451 11.2232 13.9615 10.8974C13.957 10.89 13.9525 10.8826 13.9481 10.8751C13.944 10.8679 13.9399 10.8606 13.936 10.8533Z" fill="#23262A"/>
</svg>
