<svg width="24" height="24" viewBox="0 0 24 24" fill="none" xmlns="http://www.w3.org/2000/svg">
<path fill-rule="evenodd" clip-rule="evenodd" d="M11.6248 2.35048C11.8568 2.21651 12.1427 2.21651 12.3748 2.35048L20.169 6.85048C20.4011 6.98446 20.544 7.23205 20.544 7.5V16.5C20.544 16.7679 20.4011 17.0155 20.169 17.1495L12.3903 21.6405C12.2766 21.71 12.143 21.75 12 21.75C11.998 21.75 11.9959 21.75 11.9939 21.75C11.9797 21.7499 11.9655 21.7493 11.9513 21.7484C11.8311 21.7407 11.7187 21.7047 11.6205 21.6471L3.83057 17.1495C3.59852 17.0155 3.45557 16.7679 3.45557 16.5V7.5L3.45559 7.49352C3.4571 7.31856 3.51952 7.15263 3.6278 7.02177C3.68746 6.94951 3.75888 6.89066 3.83758 6.84643L11.6248 2.35048ZM11.25 19.7011L4.95557 16.067V8.79897L8.44211 10.8119C8.31749 11.1853 8.25 11.5848 8.25 12C8.25 13.8142 9.53832 15.3275 11.25 15.675L11.25 19.7011ZM15.75 12C15.75 13.8142 14.4617 15.3275 12.75 15.675V19.7008L19.044 16.067V8.79916L15.5579 10.8119C15.6825 11.1853 15.75 11.5847 15.75 12ZM13.9603 10.8948C14.1447 11.2212 14.25 11.5983 14.25 12C14.25 13.2426 13.2426 14.25 12 14.25C10.7574 14.25 9.75 13.2426 9.75 12C9.75 11.5971 9.8559 11.2189 10.0414 10.8918L10.0514 10.875L10.0604 10.8589C10.4517 10.1953 11.1738 9.75 12 9.75C12.8249 9.75 13.5461 10.1939 13.9378 10.8558C13.9412 10.8623 13.9448 10.8687 13.9485 10.875C13.9524 10.8817 13.9563 10.8883 13.9603 10.8948ZM14.807 9.51335L18.2941 7.50006L11.9998 3.86603L5.70562 7.49997L9.19296 9.51337C9.87995 8.73843 10.8829 8.25 12 8.25C13.1171 8.25 14.12 8.73842 14.807 9.51335Z" fill="#23262A"/>
</svg>
