<svg width="24" height="24" viewBox="0 0 24 24" fill="none" xmlns="http://www.w3.org/2000/svg">
<path fill-rule="evenodd" clip-rule="evenodd" d="M5.18592 4.50551C6.12101 3.3834 7.56294 2.8144 9.01232 2.99557L10.0734 3.12821C10.7395 3.21147 11.3888 3.39353 12.0002 3.66795C12.6116 3.39353 13.261 3.21147 13.927 3.12821L14.9881 2.99557C16.4375 2.8144 17.8794 3.3834 18.8145 4.50551C19.7653 5.64644 20.0581 7.19808 19.5884 8.60703L18.5103 11.8413C18.2771 12.5408 17.8843 13.1765 17.3628 13.6979L17.2284 13.8324L16.8436 19.2186C16.7619 20.3631 15.8095 21.2499 14.662 21.2499C13.6307 21.2499 12.7395 20.5294 12.5234 19.521L12.0002 17.0794L11.477 19.521C11.2609 20.5294 10.3697 21.2499 9.33839 21.2499C8.19092 21.2499 7.23853 20.3631 7.15678 19.2186L6.77205 13.8324L6.63758 13.6979C6.11615 13.1765 5.72329 12.5408 5.4901 11.8413L4.41202 8.60703C3.94237 7.19808 4.23515 5.64644 5.18592 4.50551Z" fill="#23262A"/>
</svg>
