<svg width="24" height="24" viewBox="0 0 24 24" fill="none" xmlns="http://www.w3.org/2000/svg">
<path fill-rule="evenodd" clip-rule="evenodd" d="M8.82627 4.48399C7.88385 4.36619 6.94627 4.73616 6.33826 5.46578C5.72004 6.20765 5.52967 7.21656 5.83505 8.13269L6.91312 11.3669C7.07267 11.8456 7.34148 12.2805 7.69824 12.6373L8.03054 12.9696C8.15814 13.0972 8.23545 13.2665 8.24831 13.4465L8.65297 19.1117C8.67865 19.4713 8.97787 19.7499 9.33839 19.7499C9.66241 19.7499 9.94241 19.5235 10.0103 19.2067L11.2669 13.3428C11.341 12.9969 11.6466 12.7499 12.0002 12.7499C12.3539 12.7499 12.6595 12.9969 12.7336 13.3428L13.9901 19.2067C14.058 19.5235 14.338 19.7499 14.662 19.7499C15.0226 19.7499 15.3218 19.4713 15.3475 19.1117L15.7521 13.4465C15.765 13.2665 15.8423 13.0972 15.9699 12.9696L16.3022 12.6373C16.659 12.2805 16.9278 11.8456 17.0873 11.3669L18.1654 8.13269C18.4708 7.21656 18.2804 6.20765 17.6622 5.46578C17.0542 4.73616 16.1166 4.36619 15.1742 4.48399L14.1131 4.61663C13.5225 4.69045 12.9487 4.86417 12.4164 5.13034L12.3356 5.17072C12.1245 5.27629 11.8759 5.27629 11.6648 5.17072L11.5841 5.13034C11.0517 4.86417 10.478 4.69045 9.88737 4.61663L8.82627 4.48399ZM5.18592 4.50551C6.12101 3.3834 7.56294 2.8144 9.01232 2.99557L10.0734 3.12821C10.7395 3.21147 11.3888 3.39353 12.0002 3.66795C12.6116 3.39353 13.261 3.21147 13.927 3.12821L14.9881 2.99557C16.4375 2.8144 17.8794 3.3834 18.8145 4.50551C19.7653 5.64644 20.0581 7.19808 19.5884 8.60703L18.5103 11.8413C18.2771 12.5408 17.8843 13.1765 17.3628 13.6979L17.2284 13.8324L16.8436 19.2186C16.7619 20.3631 15.8095 21.2499 14.662 21.2499C13.6307 21.2499 12.7395 20.5294 12.5234 19.521L12.0002 17.0794L11.477 19.521C11.2609 20.5294 10.3697 21.2499 9.33839 21.2499C8.19092 21.2499 7.23853 20.3631 7.15678 19.2186L6.77205 13.8324L6.63758 13.6979C6.11615 13.1765 5.72329 12.5408 5.4901 11.8413L4.41202 8.60703C3.94237 7.19808 4.23515 5.64644 5.18592 4.50551Z" fill="#23262A"/>
</svg>
