<svg width="24" height="24" viewBox="0 0 24 24" fill="none" xmlns="http://www.w3.org/2000/svg">
<path fill-rule="evenodd" clip-rule="evenodd" d="M2.25 6C2.25 5.58579 2.58579 5.25 3 5.25H13.8C17.74 5.25 21.0092 8.11538 21.6401 11.8759C21.7124 12.307 21.75 12.7494 21.75 13.2C21.75 14.6083 20.6083 15.75 19.2 15.75H3C2.58579 15.75 2.25 15.4142 2.25 15V6ZM14 6.75483C13.862 6.7495 13.75 6.86193 13.75 7V11C13.75 11.1381 13.8619 11.25 14 11.25H19.6088C19.7778 11.25 19.898 11.0855 19.8383 10.9273C18.9222 8.50036 16.5877 6.85485 14 6.75483ZM3 17.25C2.58579 17.25 2.25 17.5858 2.25 18C2.25 18.4142 2.58579 18.75 3 18.75H21C21.4142 18.75 21.75 18.4142 21.75 18C21.75 17.5858 21.4142 17.25 21 17.25H3Z" fill="#23262A"/>
</svg>
