<svg width="24" height="24" viewBox="0 0 24 24" fill="none" xmlns="http://www.w3.org/2000/svg">
<path fill-rule="evenodd" clip-rule="evenodd" d="M2.25 6C2.25 5.58579 2.58579 5.25 3 5.25H13.8C17.7348 5.25 21.0007 8.10792 21.6376 11.8612L21.6409 11.8801L21.6422 11.8887C21.7132 12.3157 21.75 12.7538 21.75 13.2C21.75 14.6083 20.6083 15.75 19.2 15.75H3C2.58579 15.75 2.25 15.4142 2.25 15V6ZM12.25 12C12.25 12.4142 12.5858 12.75 13 12.75H20.2346C20.2448 12.8986 20.25 13.0486 20.25 13.2C20.25 13.7799 19.7799 14.25 19.2 14.25H3.75V6.75H12.25V12ZM19.9502 11.25C19.1239 8.64101 16.6822 6.75 13.8 6.75H13.75V11.25H19.9502ZM3 17.25C2.58579 17.25 2.25 17.5858 2.25 18C2.25 18.4142 2.58579 18.75 3 18.75H21C21.4142 18.75 21.75 18.4142 21.75 18C21.75 17.5858 21.4142 17.25 21 17.25H3Z" fill="#23262A"/>
</svg>
