<svg width="24" height="24" viewBox="0 0 24 24" fill="none" xmlns="http://www.w3.org/2000/svg">
<path fill-rule="evenodd" clip-rule="evenodd" d="M2.25 6C2.25 5.58579 2.58579 5.25 3 5.25H18.7778C19.1227 5.25 19.4232 5.48531 19.5059 5.82021L21.7281 14.8202C21.7834 15.0441 21.7326 15.2809 21.5905 15.4624C21.4483 15.6439 21.2306 15.75 21 15.75H3C2.58579 15.75 2.25 15.4142 2.25 15V6ZM13.25 12C13.25 12.4142 13.5858 12.75 14 12.75H19.6719L20.0423 14.25H3.75V6.75H13.25V12ZM19.3016 11.25L18.1904 6.75H14.75V11.25H19.3016ZM3 17.25C2.58579 17.25 2.25 17.5858 2.25 18C2.25 18.4142 2.58579 18.75 3 18.75H21C21.4142 18.75 21.75 18.4142 21.75 18C21.75 17.5858 21.4142 17.25 21 17.25H3Z" fill="#23262A"/>
</svg>
