<svg width="24" height="24" viewBox="0 0 24 24" fill="none" xmlns="http://www.w3.org/2000/svg">
<path fill-rule="evenodd" clip-rule="evenodd" d="M10 4.75C9.30964 4.75 8.75 5.30964 8.75 6V6.25H15.25V6C15.25 5.30964 14.6904 4.75 14 4.75H10ZM16.75 6.25V6C16.75 4.48122 15.5188 3.25 14 3.25H10C8.48122 3.25 7.25 4.48122 7.25 6V6.25H5.18994H4.5C4.08579 6.25 3.75 6.58579 3.75 7C3.75 7.41421 4.08579 7.75 4.5 7.75H5.30533L6.18104 19.1342C6.25117 20.046 7.01144 20.75 7.92588 20.75H16.0738C16.9883 20.75 17.7485 20.046 17.8187 19.1342L18.6944 7.75H19.5C19.9142 7.75 20.25 7.41421 20.25 7C20.25 6.58579 19.9142 6.25 19.5 6.25H18.8098H16.75ZM10.7505 10.5C10.7505 10.0858 10.4147 9.75 10.0005 9.75C9.58627 9.75 9.25049 10.0858 9.25049 10.5V16.5C9.25049 16.9142 9.58627 17.25 10.0005 17.25C10.4147 17.25 10.7505 16.9142 10.7505 16.5V10.5ZM14.0005 9.75C14.4147 9.75 14.7505 10.0858 14.7505 10.5V16.5C14.7505 16.9142 14.4147 17.25 14.0005 17.25C13.5863 17.25 13.2505 16.9142 13.2505 16.5V10.5C13.2505 10.0858 13.5863 9.75 14.0005 9.75Z" fill="#23262A"/>
</svg>
