<svg width="24" height="24" viewBox="0 0 24 24" fill="none" xmlns="http://www.w3.org/2000/svg">
<path fill-rule="evenodd" clip-rule="evenodd" d="M3.75 7C3.75 6.58579 4.08579 6.25 4.5 6.25H19.5C19.9142 6.25 20.25 6.58579 20.25 7C20.25 7.41421 19.9142 7.75 19.5 7.75H4.5C4.08579 7.75 3.75 7.41421 3.75 7Z" fill="#262626"/>
<path fill-rule="evenodd" clip-rule="evenodd" d="M10 4.75C9.30964 4.75 8.75 5.30964 8.75 6V7H7.25V6C7.25 4.48122 8.48122 3.25 10 3.25H14C15.5188 3.25 16.75 4.48122 16.75 6V7H15.25V6C15.25 5.30964 14.6904 4.75 14 4.75H10Z" fill="#262626"/>
<path fill-rule="evenodd" clip-rule="evenodd" d="M5.18994 6.25H18.8098L17.8187 19.1342C17.7485 20.046 16.9883 20.75 16.0738 20.75H7.92588C7.01144 20.75 6.25117 20.046 6.18104 19.1342L5.18994 6.25ZM10.0005 9.75C10.4147 9.75 10.7505 10.0858 10.7505 10.5V16.5C10.7505 16.9142 10.4147 17.25 10.0005 17.25C9.58627 17.25 9.25049 16.9142 9.25049 16.5V10.5C9.25049 10.0858 9.58627 9.75 10.0005 9.75ZM14.7505 10.5C14.7505 10.0858 14.4147 9.75 14.0005 9.75C13.5863 9.75 13.2505 10.0858 13.2505 10.5V16.5C13.2505 16.9142 13.5863 17.25 14.0005 17.25C14.4147 17.25 14.7505 16.9142 14.7505 16.5V10.5Z" fill="#262626"/>
</svg>
