<svg width="24" height="24" viewBox="0 0 24 24" fill="none" xmlns="http://www.w3.org/2000/svg">
<path fill-rule="evenodd" clip-rule="evenodd" d="M8.75 6C8.75 5.30964 9.30964 4.75 10 4.75H14C14.6904 4.75 15.25 5.30964 15.25 6V6.25H8.75V6ZM7.25 6.25V6C7.25 4.48122 8.48122 3.25 10 3.25H14C15.5188 3.25 16.75 4.48122 16.75 6V6.25H19.5C19.9142 6.25 20.25 6.58579 20.25 7C20.25 7.41421 19.9142 7.75 19.5 7.75H18.6945L17.8188 19.1342C17.7487 20.046 16.9884 20.75 16.074 20.75H7.92603C7.01159 20.75 6.25132 20.046 6.18119 19.1342L5.30548 7.75H4.5C4.08579 7.75 3.75 7.41421 3.75 7C3.75 6.58579 4.08579 6.25 4.5 6.25H7.25ZM6.80991 7.75H17.1901L16.3232 19.0192C16.3132 19.1494 16.2046 19.25 16.074 19.25H7.92603C7.7954 19.25 7.68679 19.1494 7.67677 19.0192L6.80991 7.75ZM10 9.75C10.4142 9.75 10.75 10.0858 10.75 10.5V16.5C10.75 16.9142 10.4142 17.25 10 17.25C9.58579 17.25 9.25 16.9142 9.25 16.5V10.5C9.25 10.0858 9.58579 9.75 10 9.75ZM14.75 10.5C14.75 10.0858 14.4142 9.75 14 9.75C13.5858 9.75 13.25 10.0858 13.25 10.5V16.5C13.25 16.9142 13.5858 17.25 14 17.25C14.4142 17.25 14.75 16.9142 14.75 16.5V10.5Z" fill="#262626"/>
</svg>
