<svg width="24" height="24" viewBox="0 0 24 24" fill="none" xmlns="http://www.w3.org/2000/svg">
<path fill-rule="evenodd" clip-rule="evenodd" d="M9.44391 5.49675C9.5861 5.33963 9.78811 5.25 10 5.25H15C15.2119 5.25 15.4139 5.33963 15.5561 5.49675C15.6983 5.65386 15.7674 5.86378 15.7463 6.07463L15.4007 9.5303C15.3881 9.65629 15.2833 9.75242 15.1568 9.75926C13.1887 9.86577 11.4627 10.8828 10.3927 12.3966C10.2495 12.5993 9.89872 12.5246 9.87402 12.2776L9.82955 11.8328L9.25373 6.07463C9.23264 5.86378 9.30173 5.65386 9.44391 5.49675ZM4.75 7C4.75 6.58579 4.41421 6.25 4 6.25C3.58579 6.25 3.25 6.58579 3.25 7V7.38197C3.25 8.04482 3.6245 8.65078 4.21738 8.94721L5.1118 9.39443C5.1965 9.43678 5.25 9.52334 5.25 9.61803V10C5.25 10.4142 5.58579 10.75 6 10.75C6.41421 10.75 6.75 10.4142 6.75 10V9.61803C6.75 8.95518 6.3755 8.34922 5.78262 8.05279L4.8882 7.60557C4.8035 7.56322 4.75 7.47666 4.75 7.38197V7ZM2.93775 11.5036C3.08011 11.3424 3.28488 11.25 3.5 11.25H8.5C8.71513 11.25 8.91989 11.3424 9.06226 11.5036C9.20463 11.6649 9.2709 11.8796 9.24421 12.093L8.9632 14.3411C8.79118 15.7173 7.62133 16.75 6.23444 16.75H5.76557C4.37868 16.75 3.20883 15.7173 3.0368 14.3411L2.7558 12.093C2.72911 11.8796 2.79538 11.6649 2.93775 11.5036ZM2.25 18C2.25 17.5858 2.58579 17.25 3 17.25H21C21.4142 17.25 21.75 17.5858 21.75 18C21.75 18.4142 21.4142 18.75 21 18.75H3C2.58579 18.75 2.25 18.4142 2.25 18ZM20.75 16C20.75 16.4142 20.4142 16.75 20 16.75H11C10.5858 16.75 10.25 16.4142 10.25 16C10.25 15.6533 10.4853 15.3615 10.8049 15.2756C11.1537 12.9961 13.1229 11.25 15.5 11.25C17.8771 11.25 19.8463 12.9961 20.1951 15.2756C20.5147 15.3615 20.75 15.6533 20.75 16Z" fill="#23262A"/>
</svg>
