<svg width="24" height="24" viewBox="0 0 24 24" fill="none" xmlns="http://www.w3.org/2000/svg">
<path d="M14 11.0607L18.4215 15.4822H16.7676C16.3534 15.4822 16.0176 15.818 16.0176 16.2322C16.0176 16.6464 16.3534 16.9822 16.7676 16.9822H20.3031C20.7173 16.9822 21.0531 16.6464 21.0531 16.2322V12.6967C21.0531 12.2824 20.7173 11.9467 20.3031 11.9467C19.8889 11.9467 19.5531 12.2824 19.5531 12.6967V14.4925L14.5303 9.46967C14.2374 9.17678 13.7626 9.17678 13.4697 9.46967L10 12.9393L4.53033 7.46967C4.23744 7.17678 3.76256 7.17678 3.46967 7.46967C3.17678 7.76256 3.17678 8.23744 3.46967 8.53033L9.46967 14.5303C9.76256 14.8232 10.2374 14.8232 10.5303 14.5303L14 11.0607Z" fill="#23262A"/>
</svg>
