<svg width="24" height="24" viewBox="0 0 24 24" fill="none" xmlns="http://www.w3.org/2000/svg">
<path d="M18.0303 8.96967C17.7374 8.67678 17.2626 8.67678 16.9697 8.96967C16.6768 9.26256 16.6768 9.73744 16.9697 10.0303L18.1893 11.25H4C3.58579 11.25 3.25 11.5858 3.25 12C3.25 12.4142 3.58579 12.75 4 12.75H18.1893L16.9697 13.9697C16.6768 14.2626 16.6768 14.7374 16.9697 15.0303C17.2626 15.3232 17.7374 15.3232 18.0303 15.0303L20.5303 12.5303C20.6768 12.3839 20.75 12.1919 20.75 12C20.75 11.8983 20.7298 11.8013 20.6931 11.7129C20.6565 11.6245 20.6022 11.5416 20.5303 11.4697L18.0303 8.96967Z" fill="#23262A"/>
</svg>
