<svg width="24" height="24" viewBox="0 0 24 24" fill="none" xmlns="http://www.w3.org/2000/svg">
<path d="M16.7676 7.01782C16.3534 7.01782 16.0176 7.35361 16.0176 7.76782C16.0176 8.18204 16.3534 8.51782 16.7676 8.51782H18.4215L14 12.9393L10.5303 9.46967C10.2374 9.17678 9.76256 9.17678 9.46967 9.46967L3.46967 15.4697C3.17678 15.7626 3.17678 16.2374 3.46967 16.5303C3.76256 16.8232 4.23744 16.8232 4.53033 16.5303L10 11.0607L13.4697 14.5303C13.7626 14.8232 14.2374 14.8232 14.5303 14.5303L19.5531 9.50755V11.3034C19.5531 11.7176 19.8889 12.0534 20.3031 12.0534C20.7173 12.0534 21.0531 11.7176 21.0531 11.3034V7.76782C21.0531 7.35361 20.7173 7.01782 20.3031 7.01782H16.7676Z" fill="#23262A"/>
</svg>
