<svg width="24" height="24" viewBox="0 0 24 24" fill="none" xmlns="http://www.w3.org/2000/svg">
<path fill-rule="evenodd" clip-rule="evenodd" d="M2.25 5.5C2.25 4.80964 2.80964 4.25 3.5 4.25H14.5C15.1904 4.25 15.75 4.80964 15.75 5.5V7.25H18.6615C19.1726 7.25 19.6322 7.56119 19.8221 8.03576L21.75 12.8556V16.5C21.75 17.1904 21.1904 17.75 20.5 17.75H19.75C19.75 19.1307 18.6307 20.25 17.25 20.25C15.8693 20.25 14.75 19.1307 14.75 17.75H9.75C9.75 19.1307 8.63071 20.25 7.25 20.25C5.86929 20.25 4.75 19.1307 4.75 17.75H3.5C2.80964 17.75 2.25 17.1904 2.25 16.5V5.5ZM9.25018 16.25C8.79408 15.6428 8.06791 15.25 7.25 15.25C6.43209 15.25 5.70592 15.6428 5.24982 16.25H3.75V5.75H14.25V16.25H9.25018ZM15.75 15.7498C16.1678 15.436 16.6872 15.25 17.25 15.25C18.0679 15.25 18.7941 15.6428 19.2502 16.25H20.25V13.1444L18.4922 8.75H15.75V15.7498ZM16.25 17.75C16.25 17.1977 16.6977 16.75 17.25 16.75C17.8023 16.75 18.25 17.1977 18.25 17.75C18.25 18.3023 17.8023 18.75 17.25 18.75C16.6977 18.75 16.25 18.3023 16.25 17.75ZM7.25 16.75C6.69772 16.75 6.25 17.1977 6.25 17.75C6.25 18.3023 6.69772 18.75 7.25 18.75C7.80228 18.75 8.25 18.3023 8.25 17.75C8.25 17.1977 7.80228 16.75 7.25 16.75ZM5.96968 12.9697C5.67678 13.2626 5.67678 13.7374 5.96968 14.0303C6.26257 14.3232 6.73744 14.3232 7.03034 14.0303L12.0303 9.03033C12.3232 8.73744 12.3232 8.26256 12.0303 7.96967C11.7374 7.67678 11.2626 7.67678 10.9697 7.96967L5.96968 12.9697ZM7 7.875C6.37868 7.875 5.875 8.37868 5.875 9C5.875 9.62132 6.37868 10.125 7 10.125C7.62132 10.125 8.125 9.62132 8.125 9C8.125 8.37868 7.62132 7.875 7 7.875ZM9.875 13C9.875 12.3787 10.3787 11.875 11 11.875C11.6213 11.875 12.125 12.3787 12.125 13C12.125 13.6213 11.6213 14.125 11 14.125C10.3787 14.125 9.875 13.6213 9.875 13Z" fill="#23262A"/>
</svg>
