<svg width="24" height="24" viewBox="0 0 24 24" fill="none" xmlns="http://www.w3.org/2000/svg">
<path fill-rule="evenodd" clip-rule="evenodd" d="M2.25 5.5C2.25 4.80964 2.74746 4.25 3.36111 4.25H13.1389C13.7525 4.25 14.25 4.80964 14.25 5.5V15.8767C14.25 15.9222 14.2374 15.9667 14.2147 16.0061C13.9582 16.4516 13.7969 16.9589 13.7588 17.5002C13.7491 17.6379 13.6381 17.75 13.5 17.75H11C10.8619 17.75 10.7509 17.6377 10.7412 17.5C10.613 15.6837 9.09893 14.25 7.25 14.25C5.40107 14.25 3.887 15.6837 3.75879 17.5C3.74907 17.6377 3.63807 17.75 3.5 17.75H3.36111C2.74746 17.75 2.25 17.1904 2.25 16.5V5.5ZM21.0372 17.629C21.4587 17.4281 21.75 16.998 21.75 16.5V12.9037C21.75 12.8719 21.7439 12.8404 21.7321 12.8109L19.8221 8.03576C19.6322 7.56119 19.1726 7.25 18.6615 7.25H16C15.8619 7.25 15.75 7.36193 15.75 7.5V8.75V14.1913C15.75 14.3749 15.9424 14.4972 16.1161 14.4377C16.4717 14.316 16.8532 14.25 17.25 14.25C19.0723 14.25 20.5693 15.6426 20.7348 17.4216C20.7494 17.5783 20.8952 17.6967 21.0372 17.629ZM17.25 15.25C15.8693 15.25 14.75 16.3693 14.75 17.75C14.75 19.1307 15.8693 20.25 17.25 20.25C18.6307 20.25 19.75 19.1307 19.75 17.75C19.75 16.3693 18.6307 15.25 17.25 15.25ZM4.75 17.75C4.75 16.3693 5.86929 15.25 7.25 15.25C8.63071 15.25 9.75 16.3693 9.75 17.75C9.75 19.1307 8.63071 20.25 7.25 20.25C5.86929 20.25 4.75 19.1307 4.75 17.75ZM5.21968 11.9697C4.92678 12.2626 4.92678 12.7374 5.21968 13.0303C5.51257 13.3232 5.98744 13.3232 6.28034 13.0303L11.2803 8.03033C11.5732 7.73744 11.5732 7.26256 11.2803 6.96967C10.9874 6.67678 10.5126 6.67678 10.2197 6.96967L5.21968 11.9697ZM6.25 6.875C5.62868 6.875 5.125 7.37868 5.125 8C5.125 8.62132 5.62868 9.125 6.25 9.125C6.87132 9.125 7.375 8.62132 7.375 8C7.375 7.37868 6.87132 6.875 6.25 6.875ZM9.125 12C9.125 11.3787 9.62868 10.875 10.25 10.875C10.8713 10.875 11.375 11.3787 11.375 12C11.375 12.6213 10.8713 13.125 10.25 13.125C9.62868 13.125 9.125 12.6213 9.125 12Z" fill="#23262A"/>
</svg>
