<svg width="24" height="24" viewBox="0 0 24 24" fill="none" xmlns="http://www.w3.org/2000/svg">
<path fill-rule="evenodd" clip-rule="evenodd" d="M3.5 4.25C2.80964 4.25 2.25 4.80964 2.25 5.5V16.5C2.25 17.1904 2.80964 17.75 3.5 17.75H4.75C4.75 19.1307 5.86929 20.25 7.25 20.25C8.63071 20.25 9.75 19.1307 9.75 17.75H14.75C14.75 19.1307 15.8693 20.25 17.25 20.25C18.6307 20.25 19.75 19.1307 19.75 17.75H20.5C21.1904 17.75 21.75 17.1904 21.75 16.5V12.8556L19.8221 8.03576C19.6322 7.56119 19.1726 7.25 18.6615 7.25H15.75V5.5C15.75 4.80964 15.1904 4.25 14.5 4.25H3.5ZM7.25 15.25C8.06791 15.25 8.79408 15.6428 9.25018 16.25H14.25V5.75H3.75V16.25H5.24982C5.70592 15.6428 6.43209 15.25 7.25 15.25ZM17.25 15.25C16.6872 15.25 16.1678 15.436 15.75 15.7498V8.75H18.4922L20.25 13.1444V16.25H19.2502C18.7941 15.6428 18.0679 15.25 17.25 15.25ZM17.25 16.75C16.6977 16.75 16.25 17.1977 16.25 17.75C16.25 18.3023 16.6977 18.75 17.25 18.75C17.8023 18.75 18.25 18.3023 18.25 17.75C18.25 17.1977 17.8023 16.75 17.25 16.75ZM6.25 17.75C6.25 17.1977 6.69772 16.75 7.25 16.75C7.80228 16.75 8.25 17.1977 8.25 17.75C8.25 18.3023 7.80228 18.75 7.25 18.75C6.69772 18.75 6.25 18.3023 6.25 17.75Z" fill="#23262A"/>
</svg>
