<svg width="24" height="24" viewBox="0 0 24 24" fill="none" xmlns="http://www.w3.org/2000/svg">
<path fill-rule="evenodd" clip-rule="evenodd" d="M3.36111 4.25C2.74746 4.25 2.25 4.80964 2.25 5.5V16.5C2.25 17.1904 2.74746 17.75 3.36111 17.75H3.5C3.63807 17.75 3.74907 17.6377 3.75879 17.5C3.887 15.6837 5.40107 14.25 7.25 14.25C9.09893 14.25 10.613 15.6837 10.7412 17.5C10.7509 17.6377 10.8619 17.75 11 17.75H13.5C13.6381 17.75 13.7491 17.6379 13.7588 17.5002C13.7969 16.9589 13.9582 16.4516 14.2147 16.0061C14.2374 15.9667 14.25 15.9222 14.25 15.8767V5.5C14.25 4.80964 13.7525 4.25 13.1389 4.25H3.36111ZM21.75 16.5C21.75 16.998 21.4587 17.4281 21.0372 17.629C20.8952 17.6967 20.7494 17.5783 20.7348 17.4216C20.5693 15.6426 19.0723 14.25 17.25 14.25C16.8532 14.25 16.4717 14.316 16.1161 14.4377C15.9424 14.4972 15.75 14.3749 15.75 14.1913V8.75V7.5C15.75 7.36193 15.8619 7.25 16 7.25H18.6615C19.1726 7.25 19.6322 7.56119 19.8221 8.03576L21.7321 12.8109C21.7439 12.8404 21.75 12.8719 21.75 12.9037V16.5ZM14.75 17.75C14.75 16.3693 15.8693 15.25 17.25 15.25C18.6307 15.25 19.75 16.3693 19.75 17.75C19.75 19.1307 18.6307 20.25 17.25 20.25C15.8693 20.25 14.75 19.1307 14.75 17.75ZM7.25 15.25C5.86929 15.25 4.75 16.3693 4.75 17.75C4.75 19.1307 5.86929 20.25 7.25 20.25C8.63071 20.25 9.75 19.1307 9.75 17.75C9.75 16.3693 8.63071 15.25 7.25 15.25Z" fill="#23262A"/>
</svg>
