<svg width="24" height="24" viewBox="0 0 24 24" fill="none" xmlns="http://www.w3.org/2000/svg">
<path fill-rule="evenodd" clip-rule="evenodd" d="M5.99996 8.25C5.49004 8.25 4.98924 8.34522 4.53658 8.47918C5.85769 5.68368 8.70368 3.75 12 3.75C15.2962 3.75 18.1422 5.68368 19.4633 8.47918C19.0107 8.34523 18.5099 8.25 18 8.25C17.0988 8.25 16.2373 8.54598 15.6329 8.81464C15.3842 8.92517 15.169 9.03561 15 9.12852C14.8309 9.03561 14.6158 8.92517 14.3671 8.81464C13.7626 8.54598 12.9011 8.25 12 8.25C11.0988 8.25 10.2373 8.54598 9.63285 8.81464C9.38417 8.92517 9.16898 9.03561 8.99996 9.12852C8.83093 9.03561 8.61575 8.92517 8.36706 8.81464C7.76258 8.54598 6.90113 8.25 5.99996 8.25ZM14.37 10.4949C14.475 10.5549 14.5319 10.5903 14.5839 10.624C14.8357 10.7917 15.1642 10.7917 15.416 10.624C15.4681 10.5903 15.5249 10.5549 15.6299 10.4949C15.7767 10.411 15.9884 10.2981 16.2421 10.1854C16.7626 9.95402 17.4011 9.75 18 9.75C18.9161 9.75 19.8943 10.2234 20.3678 10.4937C20.6283 10.6423 20.9522 10.6216 21.1916 10.4409C21.4309 10.2602 21.5396 9.95433 21.4679 9.66314C20.4208 5.40729 16.58 2.25 12 2.25C7.4199 2.25 3.57913 5.40729 2.53198 9.66314C2.46033 9.95433 2.56903 10.2602 2.80836 10.4409C3.0477 10.6216 3.37166 10.6423 3.63209 10.4937C4.10559 10.2234 5.0838 9.75 5.99996 9.75C6.59879 9.75 7.23734 9.95402 7.75785 10.1854C8.01156 10.2981 8.22317 10.411 8.37004 10.4949C8.47526 10.5551 8.53214 10.5904 8.58433 10.6243C8.83611 10.7919 9.16423 10.7917 9.41598 10.624C9.46805 10.5903 9.52492 10.5549 9.62987 10.4949C9.77675 10.411 9.98836 10.2981 10.2421 10.1854C10.7626 9.95402 11.4011 9.75 12 9.75C12.5988 9.75 13.2373 9.95402 13.7579 10.1854C14.0116 10.2981 14.2232 10.411 14.37 10.4949ZM12 11.25C12.4142 11.25 12.75 11.5858 12.75 12V18.9951C12.7514 19.0424 12.7558 19.0976 12.771 19.1892C12.7941 19.3276 12.8388 19.5006 12.9208 19.6646C13.0013 19.8256 13.1103 19.9638 13.2598 20.0635C13.4045 20.16 13.6312 20.25 14 20.25C14.3688 20.25 14.5955 20.16 14.7402 20.0635C14.8897 19.9638 14.9987 19.8256 15.0792 19.6646C15.1612 19.5006 15.2059 19.3276 15.229 19.1892C15.2442 19.0976 15.2486 19.0424 15.25 18.9951V18.5C15.25 18.0858 15.5858 17.75 16 17.75C16.4142 17.75 16.75 18.0858 16.75 18.5L16.7491 19.0474C16.7468 19.1178 16.7386 19.2555 16.7085 19.4358C16.6691 19.6724 16.5888 19.9994 16.4208 20.3354C16.2513 20.6744 15.9853 21.0362 15.5723 21.3115C15.1545 21.59 14.6312 21.75 14 21.75C13.3688 21.75 12.8455 21.59 12.4277 21.3115C12.0147 21.0362 11.7487 20.6744 11.5792 20.3354C11.4112 19.9994 11.3309 19.6724 11.2915 19.4358C11.2674 19.2916 11.2528 19.1462 11.25 19V12C11.25 11.5858 11.5858 11.25 12 11.25Z" fill="#23262A"/>
</svg>
