<svg width="24" height="24" viewBox="0 0 24 24" fill="none" xmlns="http://www.w3.org/2000/svg">
<path fill-rule="evenodd" clip-rule="evenodd" d="M5.99996 8.25C5.49004 8.25 4.98924 8.34522 4.53658 8.47918C5.85769 5.68368 8.70368 3.75 12 3.75C15.2962 3.75 18.1422 5.68368 19.4633 8.47918C19.0107 8.34523 18.5099 8.25 18 8.25C17.0988 8.25 16.2373 8.54598 15.6329 8.81464C15.3842 8.92517 15.169 9.03561 15 9.12852C14.8309 9.03561 14.6158 8.92517 14.3671 8.81464C13.7626 8.54598 12.9011 8.25 12 8.25C11.0988 8.25 10.2373 8.54598 9.63285 8.81464C9.38417 8.92517 9.16898 9.03561 8.99996 9.12852C8.83093 9.03561 8.61575 8.92517 8.36706 8.81464C7.76258 8.54598 6.90113 8.25 5.99996 8.25ZM14.5762 10.619L14.5839 10.624L14.5842 10.6242C14.5842 10.6242 14.5842 10.6242 14.5843 10.624L15.4157 10.6242L15.416 10.624L15.4238 10.619C15.4318 10.6138 15.4452 10.6052 15.4636 10.5938C15.5003 10.571 15.5567 10.5367 15.6299 10.4949C15.7767 10.411 15.9884 10.2981 16.2421 10.1854C16.7626 9.95402 17.4011 9.75 18 9.75C18.9161 9.75 19.8943 10.2234 20.3678 10.4937C20.6283 10.6423 20.9522 10.6216 21.1916 10.4409C21.4309 10.2602 21.5396 9.95433 21.4679 9.66314C20.4208 5.40729 16.58 2.25 12 2.25C7.4199 2.25 3.57913 5.40729 2.53198 9.66314C2.46033 9.95433 2.56903 10.2602 2.80836 10.4409C3.0477 10.6216 3.37166 10.6423 3.63209 10.4937C4.10559 10.2234 5.0838 9.75 5.99996 9.75C6.59879 9.75 7.23734 9.95402 7.75785 10.1854C8.01156 10.2981 8.22317 10.411 8.37004 10.4949C8.44322 10.5367 8.49961 10.571 8.53635 10.5938C8.5547 10.6052 8.56809 10.6138 8.57615 10.619L8.58419 10.6242L8.58433 10.6243C8.83611 10.7919 9.16396 10.7919 9.41572 10.6242H9.41573L9.41598 10.624L9.42377 10.619C9.43183 10.6138 9.44522 10.6052 9.46357 10.5938C9.5003 10.571 9.5567 10.5367 9.62987 10.4949C9.77675 10.411 9.98836 10.2981 10.2421 10.1854C10.7626 9.95402 11.4011 9.75 12 9.75C12.5988 9.75 13.2373 9.95402 13.7579 10.1854C14.0116 10.2981 14.2232 10.411 14.37 10.4949C14.4432 10.5367 14.4996 10.571 14.5363 10.5938C14.5547 10.6052 14.5681 10.6138 14.5762 10.619ZM14.5843 10.624C14.5857 10.6216 14.6104 10.5844 15 10L14.5839 10.624H14.5843ZM12.75 12C12.75 11.5858 12.4142 11.25 12 11.25C11.5858 11.25 11.25 11.5858 11.25 12V19H12C11.25 19 11.25 19.0004 11.25 19.0008L11.25 19.0016L11.25 19.0033L11.25 19.0074L11.2502 19.0178L11.2509 19.0474C11.2517 19.0709 11.2531 19.1019 11.2558 19.1394C11.2611 19.214 11.2714 19.3157 11.2915 19.4358C11.3309 19.6724 11.4112 19.9994 11.5792 20.3354C11.7487 20.6744 12.0147 21.0362 12.4277 21.3115C12.8455 21.59 13.3688 21.75 14 21.75C14.6312 21.75 15.1545 21.59 15.5723 21.3115C15.9853 21.0362 16.2513 20.6744 16.4208 20.3354C16.5888 19.9994 16.6691 19.6724 16.7085 19.4358C16.7286 19.3157 16.7389 19.214 16.7442 19.1394C16.7469 19.1019 16.7483 19.0709 16.7491 19.0474L16.7498 19.0178L16.75 19.0074L16.75 19.0033L16.75 19.0016L16.75 19.0008C16.75 19.0004 16.75 19 16 19H16.75V18.5C16.75 18.0858 16.4142 17.75 16 17.75C15.5858 17.75 15.25 18.0858 15.25 18.5V18.9951L15.2499 18.9975C15.2497 19.0033 15.2492 19.0153 15.248 19.0325C15.2455 19.0673 15.2402 19.1218 15.229 19.1892C15.2059 19.3276 15.1612 19.5006 15.0792 19.6646C14.9987 19.8256 14.8897 19.9638 14.7402 20.0635C14.5955 20.16 14.3688 20.25 14 20.25C13.6312 20.25 13.4045 20.16 13.2598 20.0635C13.1103 19.9638 13.0013 19.8256 12.9208 19.6646C12.8388 19.5006 12.7941 19.3276 12.771 19.1892C12.7598 19.1218 12.7545 19.0673 12.752 19.0325C12.7508 19.0153 12.7503 19.0033 12.7501 18.9975L12.75 18.9951V12ZM15.25 18.9974L15.25 18.9955L15.25 18.9936L15.25 18.9951L15.25 18.9974ZM15.25 18.9986L15.2499 18.9975L15.25 18.9974L15.25 18.9986ZM15.25 18.9993V18.9986L15.25 18.9986L15.25 18.9993ZM15.25 18.9993C15.25 18.9996 15.25 19 16 19H15.25V18.9993Z" fill="#262626"/>
</svg>
