<svg width="24" height="24" viewBox="0 0 24 24" fill="none" xmlns="http://www.w3.org/2000/svg">
<path fill-rule="evenodd" clip-rule="evenodd" d="M14.5364 10.5938C14.5523 10.6038 14.5682 10.6138 14.584 10.624H15.416L15.4238 10.619C15.4319 10.6138 15.4452 10.6052 15.4636 10.5938C15.5003 10.571 15.5567 10.5367 15.6299 10.4949C15.7768 10.411 15.9884 10.2981 16.2421 10.1854C16.7626 9.95402 17.4012 9.75 18 9.75C18.9161 9.75 19.8944 10.2234 20.3679 10.4937C20.6283 10.6423 20.9522 10.6216 21.1916 10.4409C21.4309 10.2602 21.5396 9.95433 21.468 9.66314C20.4208 5.40729 16.58 2.25 12 2.25C7.41993 2.25 3.57916 5.40729 2.53201 9.66314C2.46036 9.95433 2.56906 10.2602 2.80839 10.4409C3.04773 10.6216 3.37169 10.6423 3.63212 10.4937C4.10562 10.2234 5.08383 9.75 5.99999 9.75C6.59882 9.75 7.23737 9.95402 7.75788 10.1854C8.01159 10.2981 8.2232 10.411 8.37007 10.4949C8.44325 10.5367 8.49964 10.571 8.53638 10.5938C8.55473 10.6052 8.56812 10.6138 8.57618 10.619L8.58436 10.6243C8.83614 10.7919 9.16426 10.7917 9.41601 10.624L9.4238 10.619C9.43186 10.6138 9.44525 10.6052 9.4636 10.5938C9.50034 10.571 9.55673 10.5367 9.62991 10.4949C9.77678 10.411 9.98839 10.2981 10.2421 10.1854C10.7626 9.95402 11.4012 9.75 12 9.75C12.5988 9.75 13.2374 9.95402 13.7579 10.1854C14.0116 10.2981 14.2232 10.411 14.3701 10.4949C14.4432 10.5367 14.4996 10.571 14.5364 10.5938ZM12.75 12C12.75 11.5858 12.4142 11.25 12 11.25C11.5858 11.25 11.25 11.5858 11.25 12V19.0016L11.2509 19.0474C11.2517 19.0709 11.2531 19.1019 11.2558 19.1394C11.2611 19.214 11.2714 19.3157 11.2915 19.4358C11.3309 19.6724 11.4112 19.9994 11.5792 20.3354C11.7487 20.6744 12.0147 21.0362 12.4277 21.3115C12.8455 21.59 13.3688 21.75 14 21.75C14.6312 21.75 15.1545 21.59 15.5723 21.3115C15.9853 21.0362 16.2513 20.6744 16.4208 20.3354C16.5888 19.9994 16.6691 19.6724 16.7085 19.4358C16.7286 19.3157 16.7389 19.214 16.7442 19.1394C16.7469 19.1019 16.7483 19.0709 16.7491 19.0474L16.7498 19.0178L16.75 18.5C16.75 18.0858 16.4142 17.75 16 17.75C15.5858 17.75 15.25 18.0858 15.25 18.5L15.25 18.9986L15.248 19.0325C15.2455 19.0673 15.2402 19.1218 15.229 19.1892C15.2059 19.3276 15.1612 19.5006 15.0792 19.6646C14.9987 19.8256 14.8897 19.9638 14.7402 20.0635C14.5955 20.16 14.3688 20.25 14 20.25C13.6312 20.25 13.4045 20.16 13.2598 20.0635C13.1103 19.9638 13.0013 19.8256 12.9208 19.6646C12.8388 19.5006 12.7941 19.3276 12.771 19.1892C12.7598 19.1218 12.7545 19.0673 12.752 19.0325C12.7508 19.0153 12.7503 19.0033 12.7501 18.9975L12.75 18.9951V12Z" fill="#23262A"/>
</svg>
