<svg width="24" height="24" viewBox="0 0 24 24" fill="none" xmlns="http://www.w3.org/2000/svg">
<path fill-rule="evenodd" clip-rule="evenodd" d="M6.96967 9.03033C7.26256 9.32322 7.73744 9.32322 8.03033 9.03033L11.25 5.81066V14.5C11.25 14.9142 11.5858 15.25 12 15.25C12.4142 15.25 12.75 14.9142 12.75 14.5V5.81066L15.9697 9.03033C16.2626 9.32322 16.7374 9.32322 17.0303 9.03033C17.3232 8.73744 17.3232 8.26256 17.0303 7.96967L12.5303 3.46967C12.2374 3.17678 11.7626 3.17678 11.4697 3.46967L6.96967 7.96967C6.67678 8.26256 6.67678 8.73744 6.96967 9.03033ZM4.75 15.5C4.75 15.0858 4.41421 14.75 4 14.75C3.58579 14.75 3.25 15.0858 3.25 15.5V19C3.25 19.9665 4.0335 20.75 5 20.75H19C19.9665 20.75 20.75 19.9665 20.75 19V15.5C20.75 15.0858 20.4142 14.75 20 14.75C19.5858 14.75 19.25 15.0858 19.25 15.5V19C19.25 19.1381 19.1381 19.25 19 19.25H5C4.86193 19.25 4.75 19.1381 4.75 19V15.5Z" fill="#23262A"/>
</svg>
