<svg width="24" height="24" viewBox="0 0 24 24" fill="none" xmlns="http://www.w3.org/2000/svg">
<path fill-rule="evenodd" clip-rule="evenodd" d="M4 5.25C3.0335 5.25 2.25 6.0335 2.25 7V17C2.25 17.9665 3.0335 18.75 4 18.75H15C15.9665 18.75 16.75 17.9665 16.75 17V7C16.75 6.0335 15.9665 5.25 15 5.25H4ZM18.4238 15.9631C18.3203 15.93 18.25 15.8337 18.25 15.725V8.27503C18.25 8.16631 18.3203 8.07006 18.4238 8.03692L20.7714 7.28569C20.9995 7.2127 21.2488 7.25303 21.4422 7.39423C21.6356 7.53543 21.75 7.76052 21.75 8.00001V16C21.75 16.2395 21.6356 16.4646 21.4422 16.6058C21.2488 16.747 20.9995 16.7873 20.7714 16.7143L18.4238 15.9631Z" fill="#23262A"/>
</svg>
