<svg width="24" height="24" viewBox="0 0 24 24" fill="none" xmlns="http://www.w3.org/2000/svg">
<path fill-rule="evenodd" clip-rule="evenodd" d="M2.67678 8.35876C2.51929 8.20127 2.25 8.31281 2.25 8.53553V17C2.25 17.9665 3.0335 18.75 4 18.75H12.4645C12.6872 18.75 12.7987 18.4807 12.6412 18.3232L2.67678 8.35876ZM16.3232 15.6412C16.4807 15.7987 16.75 15.6872 16.75 15.4645V7C16.75 6.0335 15.9665 5.25 15 5.25H6.53553C6.31281 5.25 6.20127 5.51929 6.35876 5.67678L16.3232 15.6412ZM18.25 15.725C18.25 15.8337 18.3203 15.93 18.4238 15.9631L20.7714 16.7143C20.9995 16.7873 21.2488 16.747 21.4422 16.6058C21.6356 16.4646 21.75 16.2395 21.75 16V8.00001C21.75 7.76052 21.6356 7.53543 21.4422 7.39423C21.2488 7.25303 20.9995 7.2127 20.7714 7.28569L18.4238 8.03692C18.3203 8.07006 18.25 8.16631 18.25 8.27503V15.725ZM4.03033 5.46967C3.73744 5.17678 3.26256 5.17678 2.96967 5.46967C2.67678 5.76256 2.67678 6.23744 2.96967 6.53033L14.9697 18.5303C15.2626 18.8232 15.7374 18.8232 16.0303 18.5303C16.3232 18.2374 16.3232 17.7626 16.0303 17.4697L4.03033 5.46967Z" fill="#23262A"/>
</svg>
