<svg width="24" height="24" viewBox="0 0 24 24" fill="none" xmlns="http://www.w3.org/2000/svg">
<path fill-rule="evenodd" clip-rule="evenodd" d="M4 5.25C3.0335 5.25 2.25 6.0335 2.25 7V17C2.25 17.9665 3.0335 18.75 4 18.75H15C15.9665 18.75 16.75 17.9665 16.75 17V15.4275L20.7714 16.7143C20.9995 16.7873 21.2488 16.747 21.4422 16.6058C21.6356 16.4646 21.75 16.2395 21.75 16V8C21.75 7.76051 21.6356 7.53542 21.4422 7.39422C21.2488 7.25302 20.9995 7.21269 20.7714 7.28568L16.75 8.57254V7C16.75 6.0335 15.9665 5.25 15 5.25H4ZM20.25 9.02746L16.75 10.1475V13.8525L20.25 14.9725V9.02746ZM15 17.25C15.1381 17.25 15.25 17.1381 15.25 17V7C15.25 6.86193 15.1381 6.75 15 6.75H4C3.86193 6.75 3.75 6.86193 3.75 7V17C3.75 17.1381 3.86193 17.25 4 17.25H15Z" fill="#23262A"/>
</svg>
