<svg width="24" height="24" viewBox="0 0 24 24" fill="none" xmlns="http://www.w3.org/2000/svg">
<path fill-rule="evenodd" clip-rule="evenodd" d="M4 5.25C3.0335 5.25 2.25 6.0335 2.25 7V17C2.25 17.9665 3.0335 18.75 4 18.75H20C20.9665 18.75 21.75 17.9665 21.75 17V7C21.75 6.0335 20.9665 5.25 20 5.25H4ZM3.75 7C3.75 6.86193 3.86193 6.75 4 6.75H20C20.1381 6.75 20.25 6.86193 20.25 7V17C20.25 17.1381 20.1381 17.25 20 17.25H4C3.86193 17.25 3.75 17.1381 3.75 17V7ZM10.3642 8.84438C10.1319 8.71533 9.84869 8.71883 9.61965 8.8536C9.39062 8.98836 9.25 9.23426 9.25 9.5V14.5C9.25 14.7657 9.39062 15.0116 9.61965 15.1464C9.84869 15.2812 10.1319 15.2847 10.3642 15.1556L14.8642 12.6556C15.1023 12.5233 15.25 12.2724 15.25 12C15.25 11.7276 15.1023 11.4767 14.8642 11.3444L10.3642 8.84438ZM12.9557 12L10.75 13.2254V10.7746L12.9557 12Z" fill="#23262A"/>
</svg>
