<svg width="24" height="24" viewBox="0 0 24 24" fill="none" xmlns="http://www.w3.org/2000/svg">
<path fill-rule="evenodd" clip-rule="evenodd" d="M2.6749 5.85688C2.41013 6.16353 2.25 6.56307 2.25 7V17C2.25 17.9665 3.0335 18.75 4 18.75H15C15.1725 18.75 15.3391 18.725 15.4966 18.6785L2.6749 5.85688ZM19.4845 16.3025L20.7714 16.7143C20.9995 16.7873 21.2488 16.747 21.4422 16.6058C21.6356 16.4646 21.75 16.2395 21.75 16V8.00001C21.75 7.76052 21.6356 7.53543 21.4422 7.39423C21.2488 7.25303 20.9995 7.2127 20.7714 7.28569L16.75 8.57254V7C16.75 6.0335 15.9665 5.25 15 5.25H8.43198L19.4845 16.3025Z" fill="#262626"/>
<path fill-rule="evenodd" clip-rule="evenodd" d="M3.46967 3.46967C3.76256 3.17678 4.23744 3.17678 4.53033 3.46967L19.5303 18.4697C19.8232 18.7626 19.8232 19.2374 19.5303 19.5303C19.2374 19.8232 18.7626 19.8232 18.4697 19.5303L3.46967 4.53033C3.17678 4.23744 3.17678 3.76256 3.46967 3.46967Z" fill="#262626"/>
</svg>
