<svg width="24" height="24" viewBox="0 0 24 24" fill="none" xmlns="http://www.w3.org/2000/svg">
<path fill-rule="evenodd" clip-rule="evenodd" d="M2.96967 5.46967C3.26256 5.17678 3.73744 5.17678 4.03033 5.46967L16.0303 17.4697C16.3232 17.7626 16.3232 18.2374 16.0303 18.5303C15.7374 18.8232 15.2626 18.8232 14.9697 18.5303L2.96967 6.53033C2.67678 6.23744 2.67678 5.76256 2.96967 5.46967ZM3 9.75C3.41421 9.75 3.75 10.0858 3.75 10.5V17C3.75 17.1381 3.86193 17.25 4 17.25H11.125C11.5392 17.25 11.875 17.5858 11.875 18C11.875 18.4142 11.5392 18.75 11.125 18.75H4C3.0335 18.75 2.25 17.9665 2.25 17V10.5C2.25 10.0858 2.58579 9.75 3 9.75ZM15 6.75H7.875C7.46079 6.75 7.125 6.41421 7.125 6C7.125 5.58579 7.46079 5.25 7.875 5.25H15C15.9665 5.25 16.75 6.0335 16.75 7V8.57254L20.7714 7.28568C20.9995 7.21269 21.2488 7.25302 21.4422 7.39422C21.6356 7.53542 21.75 7.76051 21.75 8V16C21.75 16.2395 21.6356 16.4646 21.4422 16.6058C21.2488 16.747 20.9995 16.7873 20.7714 16.7143L15.7877 15.1195C15.7044 15.095 15.6272 15.0564 15.5587 15.0065C15.5141 14.974 15.4734 14.9369 15.4373 14.8959C15.3207 14.7637 15.25 14.5901 15.25 14.4V7C15.25 6.86193 15.1381 6.75 15 6.75ZM16.75 10.1475L20.25 9.02746V14.9725L16.75 13.8525V10.1475Z" fill="#23262A"/>
</svg>
