<svg width="24" height="24" viewBox="0 0 24 24" fill="none" xmlns="http://www.w3.org/2000/svg">
<path fill-rule="evenodd" clip-rule="evenodd" d="M15 5.25H7.875C7.46079 5.25 7.125 5.58579 7.125 6C7.125 6.41421 7.46079 6.75 7.875 6.75H15C15.1381 6.75 15.25 6.86193 15.25 7V9.6V14.4C15.25 14.5901 15.3207 14.7637 15.4373 14.8959C15.4739 14.9375 15.5152 14.975 15.5605 15.0078C15.6286 15.0571 15.7052 15.0952 15.7877 15.1195L20.7714 16.7143C20.9995 16.7873 21.2488 16.747 21.4422 16.6058C21.6356 16.4646 21.75 16.2395 21.75 16V8C21.75 7.76051 21.6356 7.53542 21.4422 7.39422C21.2488 7.25302 20.9995 7.21269 20.7714 7.28568L16.75 8.57254V7C16.75 6.0335 15.9665 5.25 15 5.25ZM20.25 14.9725L16.75 13.8525V10.1475L20.25 9.02746V14.9725ZM3.75 10.5C3.75 10.0858 3.41421 9.75 3 9.75C2.58579 9.75 2.25 10.0858 2.25 10.5V17C2.25 17.9665 3.0335 18.75 4 18.75H11.125C11.5392 18.75 11.875 18.4142 11.875 18C11.875 17.5858 11.5392 17.25 11.125 17.25H4C3.86193 17.25 3.75 17.1381 3.75 17V10.5ZM4.03033 5.46967C3.73744 5.17678 3.26256 5.17678 2.96967 5.46967C2.67678 5.76256 2.67678 6.23744 2.96967 6.53033L14.9697 18.5303C15.2626 18.8232 15.7374 18.8232 16.0303 18.5303C16.3232 18.2374 16.3232 17.7626 16.0303 17.4697L4.03033 5.46967Z" fill="#262626"/>
</svg>
