<svg width="24" height="24" viewBox="0 0 24 24" fill="none" xmlns="http://www.w3.org/2000/svg">
<path fill-rule="evenodd" clip-rule="evenodd" d="M9.75 2.5C9.75 2.08579 10.0858 1.75 10.5 1.75H13.5C13.9142 1.75 14.25 2.08579 14.25 2.5C14.25 2.91421 13.9142 3.25 13.5 3.25H12.75V4.28582C14.3018 4.43484 15.7199 5.04146 16.8678 5.96914L17.7305 5.10645L17.4645 4.84046C17.1716 4.54757 17.1716 4.0727 17.4645 3.7798C17.7574 3.48691 18.2323 3.48691 18.5252 3.7798L20.1162 5.37079C20.409 5.66369 20.409 6.13856 20.1162 6.43145C19.8233 6.72435 19.3484 6.72435 19.0555 6.43145L18.7911 6.16711L17.9383 7.01991C18.9182 8.18704 19.5603 9.64722 19.7142 11.25H20.75V10.5C20.75 10.0858 21.0858 9.75 21.5 9.75C21.9142 9.75 22.25 10.0858 22.25 10.5V13.5C22.25 13.9142 21.9142 14.25 21.5 14.25C21.0858 14.25 20.75 13.9142 20.75 13.5V12.75H19.7142C19.5687 14.2646 18.9873 15.6519 18.0969 16.7849L18.7913 17.4793L19.0556 17.215C19.3485 16.9221 19.8234 16.9221 20.1163 17.215C20.4092 17.5079 20.4092 17.9828 20.1163 18.2757L18.5253 19.8667C18.2324 20.1596 17.7575 20.1596 17.4646 19.8667C17.1717 19.5738 17.1717 19.0989 17.4646 18.806L17.7307 18.54L17.0606 17.8699C15.8804 18.8882 14.3898 19.5567 12.75 19.7142V20.75H13.5C13.9142 20.75 14.25 21.0858 14.25 21.5C14.25 21.9142 13.9142 22.25 13.5 22.25H10.5C10.0858 22.25 9.75 21.9142 9.75 21.5C9.75 21.0858 10.0858 20.75 10.5 20.75H11.25V19.7142C9.64704 19.5602 8.1867 18.918 7.01951 17.938L6.41711 18.5404L6.68256 18.8059C6.97545 19.0987 6.97545 19.5736 6.68256 19.8665C6.38967 20.1594 5.91479 20.1594 5.6219 19.8665L4.03091 18.2755C3.73802 17.9826 3.73802 17.5078 4.03091 17.2149C4.3238 16.922 4.79868 16.922 5.09157 17.2149L5.35645 17.4797L5.96882 16.8674C5.04132 15.7196 4.43482 14.3016 4.28582 12.75H3.25V13.5C3.25 13.9142 2.91421 14.25 2.5 14.25C2.08579 14.25 1.75 13.9142 1.75 13.5V10.5C1.75 10.0858 2.08579 9.75 2.5 9.75C2.91421 9.75 3.25 10.0858 3.25 10.5V11.25H4.28582C4.44328 9.61035 5.11163 8.11994 6.1298 6.93984L5.35663 6.16667L5.09168 6.43161C4.79879 6.72451 4.32392 6.72451 4.03102 6.43161C3.73813 6.13872 3.73813 5.66385 4.03102 5.37095L5.62201 3.77996C5.91491 3.48707 6.38978 3.48707 6.68267 3.77996C6.97557 4.07286 6.97557 4.54773 6.68267 4.84062L6.41729 5.10601L7.21469 5.90341C8.34774 5.01282 9.73518 4.43129 11.25 4.28582V3.25H10.5C10.0858 3.25 9.75 2.91421 9.75 2.5ZM8.75 11C8.75 10.5858 9.08579 10.25 9.5 10.25C9.91421 10.25 10.25 10.5858 10.25 11C10.25 11.4142 9.91421 11.75 9.5 11.75C9.08579 11.75 8.75 11.4142 8.75 11ZM9.5 8.75C8.25736 8.75 7.25 9.75736 7.25 11C7.25 12.2426 8.25736 13.25 9.5 13.25C10.7426 13.25 11.75 12.2426 11.75 11C11.75 9.75736 10.7426 8.75 9.5 8.75ZM14 10C14 9.44772 14.4477 9 15 9C15.5523 9 16 9.44772 16 10C16 10.5523 15.5523 11 15 11C14.4477 11 14 10.5523 14 10ZM13 14C12.1716 14 11.5 14.6716 11.5 15.5C11.5 16.3284 12.1716 17 13 17C13.8284 17 14.5 16.3284 14.5 15.5C14.5 14.6716 13.8284 14 13 14Z" fill="#23262A"/>
</svg>
