<svg width="24" height="24" viewBox="0 0 24 24" fill="none" xmlns="http://www.w3.org/2000/svg">
<path fill-rule="evenodd" clip-rule="evenodd" d="M9.75 2.5C9.75 2.08579 10.0858 1.75 10.5 1.75H13.5C13.9142 1.75 14.25 2.08579 14.25 2.5C14.25 2.91421 13.9142 3.25 13.5 3.25H12.75V4.28582C14.3016 4.43482 15.7195 5.04129 16.8673 5.96876L17.7304 5.10571L17.4651 4.84046C17.1722 4.54757 17.1722 4.0727 17.4651 3.7798C17.758 3.48691 18.2329 3.48691 18.5258 3.7798L20.1168 5.37079C20.4096 5.66369 20.4096 6.13856 20.1168 6.43145C19.8239 6.72435 19.349 6.72435 19.0561 6.43145L18.791 6.16637L17.938 7.01944C18.918 8.18664 19.5602 9.647 19.7142 11.25H20.75V10.5C20.75 10.0858 21.0858 9.75 21.5 9.75C21.9142 9.75 22.25 10.0858 22.25 10.5V13.5C22.25 13.9142 21.9142 14.25 21.5 14.25C21.0858 14.25 20.75 13.9142 20.75 13.5V12.75H19.7142C19.5687 14.265 18.9871 15.6525 18.0963 16.7857L18.7909 17.4802L19.0561 17.215C19.349 16.9221 19.8239 16.9221 20.1168 17.215C20.4096 17.5079 20.4096 17.9828 20.1168 18.2757L18.5258 19.8667C18.2329 20.1596 17.758 20.1596 17.4651 19.8667C17.1722 19.5738 17.1722 19.0989 17.4651 18.806L17.7302 18.5409L17.0598 17.8705C15.8798 18.8885 14.3895 19.5567 12.75 19.7142V20.75H13.5C13.9142 20.75 14.25 21.0858 14.25 21.5C14.25 21.9142 13.9142 22.25 13.5 22.25H10.5C10.0858 22.25 9.75 21.9142 9.75 21.5C9.75 21.0858 10.0858 20.75 10.5 20.75H11.25V19.7142C9.64694 19.5602 8.18653 18.9179 7.0193 17.9378L6.4165 18.5406L6.6817 18.8059C6.97459 19.0987 6.97459 19.5736 6.6817 19.8665C6.3888 20.1594 5.91393 20.1594 5.62104 19.8665L4.03005 18.2755C3.73715 17.9826 3.73715 17.5078 4.03005 17.2149C4.32294 16.922 4.79781 16.922 5.09071 17.2149L5.35584 17.48L5.96865 16.8672C5.04124 15.7194 4.43481 14.3015 4.28582 12.75H3.25V13.5C3.25 13.9142 2.91421 14.25 2.5 14.25C2.08579 14.25 1.75 13.9142 1.75 13.5V10.5C1.75 10.0858 2.08579 9.75 2.5 9.75C2.91421 9.75 3.25 10.0858 3.25 10.5V11.25H4.28582C4.44326 9.61057 5.11145 8.12033 6.1294 6.9403L5.35571 6.16662L5.09071 6.43162C4.79781 6.72452 4.32294 6.72452 4.03005 6.43162C3.73715 6.13873 3.73715 5.66386 4.03005 5.37096L5.62104 3.77997C5.91393 3.48708 6.3888 3.48708 6.6817 3.77997C6.97459 4.07287 6.97459 4.54774 6.6817 4.84063L6.41637 5.10596L7.21421 5.90379C8.34734 5.01299 9.73496 4.43131 11.25 4.28582V3.25H10.5C10.0858 3.25 9.75 2.91421 9.75 2.5ZM12 5.75C8.54822 5.75 5.75 8.54822 5.75 12C5.75 15.4518 8.54822 18.25 12 18.25C15.4518 18.25 18.25 15.4518 18.25 12C18.25 8.54822 15.4518 5.75 12 5.75ZM8.75 11C8.75 10.5858 9.08579 10.25 9.5 10.25C9.91421 10.25 10.25 10.5858 10.25 11C10.25 11.4142 9.91421 11.75 9.5 11.75C9.08579 11.75 8.75 11.4142 8.75 11ZM9.5 8.75C8.25736 8.75 7.25 9.75736 7.25 11C7.25 12.2426 8.25736 13.25 9.5 13.25C10.7426 13.25 11.75 12.2426 11.75 11C11.75 9.75736 10.7426 8.75 9.5 8.75ZM15 9C14.4477 9 14 9.44772 14 10C14 10.5523 14.4477 11 15 11C15.5523 11 16 10.5523 16 10C16 9.44772 15.5523 9 15 9ZM11.5 15.5C11.5 14.6716 12.1716 14 13 14C13.8284 14 14.5 14.6716 14.5 15.5C14.5 16.3284 13.8284 17 13 17C12.1716 17 11.5 16.3284 11.5 15.5Z" fill="#23262A"/>
</svg>
