<svg width="24" height="24" viewBox="0 0 24 24" fill="none" xmlns="http://www.w3.org/2000/svg">
<path fill-rule="evenodd" clip-rule="evenodd" d="M11.0282 4.25053C11.3346 4.26206 11.6032 4.45897 11.7063 4.74775L15.9756 16.7016L18.2885 9.76283C18.3906 9.45658 18.6772 9.25 19 9.25H21C21.4142 9.25 21.75 9.58579 21.75 10C21.75 10.4142 21.4142 10.75 21 10.75H19.5406L16.7115 19.2372C16.6104 19.5406 16.3278 19.7466 16.008 19.75C15.6881 19.7534 15.4013 19.5535 15.2937 19.2523L10.9241 7.01742L7.68536 14.3046C7.56749 14.5698 7.30718 14.7432 7.01703 14.7498C6.72688 14.7564 6.45897 14.595 6.32918 14.3354L4.53647 10.75H3C2.58579 10.75 2.25 10.4142 2.25 10C2.25 9.58579 2.58579 9.25 3 9.25H5C5.28408 9.25 5.54378 9.41051 5.67082 9.66459L6.96009 12.2431L10.3146 4.6954C10.4392 4.41518 10.7218 4.23901 11.0282 4.25053Z" fill="#23262A"/>
</svg>
