<svg width="24" height="24" viewBox="0 0 24 24" fill="none" xmlns="http://www.w3.org/2000/svg">
<path fill-rule="evenodd" clip-rule="evenodd" d="M8 4.75C6.20507 4.75 4.75 6.20507 4.75 8C4.75 9.79493 6.20507 11.25 8 11.25C9.79493 11.25 11.25 9.79493 11.25 8C11.25 6.20507 9.79493 4.75 8 4.75ZM3.25 8C3.25 5.37665 5.37665 3.25 8 3.25C10.6234 3.25 12.75 5.37665 12.75 8C12.75 10.6234 10.6234 12.75 8 12.75C5.37665 12.75 3.25 10.6234 3.25 8ZM18 5.25C17.5858 5.25 17.25 5.58579 17.25 6C17.25 6.41421 17.5858 6.75 18 6.75C18.4142 6.75 18.75 6.41421 18.75 6C18.75 5.58579 18.4142 5.25 18 5.25ZM15.75 6C15.75 4.75736 16.7574 3.75 18 3.75C19.2426 3.75 20.25 4.75736 20.25 6C20.25 7.24264 19.2426 8.25 18 8.25C16.7574 8.25 15.75 7.24264 15.75 6ZM8.75 6C8.75 5.58579 8.41421 5.25 8 5.25C7.58579 5.25 7.25 5.58579 7.25 6V8C7.25 8.19891 7.32902 8.38968 7.46967 8.53033L8.46967 9.53033C8.76256 9.82322 9.23744 9.82322 9.53033 9.53033C9.82322 9.23744 9.82322 8.76256 9.53033 8.46967L8.75 7.68934V6ZM20.6819 9.27239C21.0837 9.37285 21.3281 9.78006 21.2276 10.1819L20.1063 14.667C19.8003 15.8912 18.7003 16.75 17.4384 16.75H16.75V20C16.75 20.4142 16.4142 20.75 16 20.75C15.5858 20.75 15.25 20.4142 15.25 20V16.75H14C13.5858 16.75 13.25 16.4142 13.25 16C13.25 15.5858 13.5858 15.25 14 15.25H17.4384C18.012 15.25 18.512 14.8596 18.6511 14.3032L19.7724 9.8181C19.8729 9.41625 20.2801 9.17193 20.6819 9.27239ZM18.206 8.77886C18.6043 8.89265 18.8349 9.30776 18.7211 9.70604L17.8993 12.5825C17.7096 13.2463 17.1475 13.7365 16.4641 13.8342L13.6061 14.2425C13.196 14.301 12.8161 14.0161 12.7575 13.6061C12.699 13.196 12.9839 12.8161 13.3939 12.7575L16.252 12.3492C16.3496 12.3353 16.4299 12.2653 16.457 12.1704L17.2789 9.29396C17.3927 8.89568 17.8078 8.66506 18.206 8.77886ZM12.6431 15.3859C12.8562 15.0307 12.7411 14.57 12.3859 14.3569C12.0307 14.1438 11.57 14.2589 11.3569 14.6141L8.35688 19.6141C8.14377 19.9693 8.25894 20.43 8.61413 20.6431C8.96931 20.8562 9.43001 20.7411 9.64312 20.3859L12.6431 15.3859Z" fill="#262626"/>
</svg>
