<svg width="24" height="24" viewBox="0 0 24 24" fill="none" xmlns="http://www.w3.org/2000/svg">
<path fill-rule="evenodd" clip-rule="evenodd" d="M8 3.25C5.37665 3.25 3.25 5.37665 3.25 8C3.25 10.6234 5.37665 12.75 8 12.75C10.6234 12.75 12.75 10.6234 12.75 8C12.75 5.37665 10.6234 3.25 8 3.25ZM8.75 6C8.75 5.58579 8.41421 5.25 8 5.25C7.58579 5.25 7.25 5.58579 7.25 6V8C7.25 8.19891 7.32902 8.38968 7.46967 8.53033L8.46967 9.53033C8.76256 9.82322 9.23744 9.82322 9.53033 9.53033C9.82322 9.23744 9.82322 8.76256 9.53033 8.46967L8.75 7.68934V6ZM15.75 6C15.75 4.75736 16.7574 3.75 18 3.75C19.2426 3.75 20.25 4.75736 20.25 6C20.25 7.24264 19.2426 8.25 18 8.25C16.7574 8.25 15.75 7.24264 15.75 6ZM21.2276 10.1818C21.3281 9.77999 21.0837 9.37279 20.6819 9.27233C20.2801 9.17186 19.8729 9.41619 19.7724 9.81803L18.6511 14.3031C18.512 14.8596 18.012 15.2499 17.4384 15.2499H14C13.5858 15.2499 13.25 15.5857 13.25 15.9999C13.25 16.4141 13.5858 16.7499 14 16.7499H15.25V19.9999C15.25 20.4141 15.5858 20.7499 16 20.7499C16.4142 20.7499 16.75 20.4141 16.75 19.9999V16.7499H17.4384C18.7003 16.7499 19.8003 15.8911 20.1063 14.6669L21.2276 10.1818ZM18.2061 8.77881C18.6044 8.8926 18.835 9.30771 18.7212 9.70599L17.8994 12.5825C17.7097 13.2462 17.1476 13.7365 16.4642 13.8341L13.6062 14.2424C13.1961 14.301 12.8162 14.0161 12.7576 13.606C12.6991 13.196 12.984 12.8161 13.394 12.7575L16.2521 12.3492C16.3497 12.3352 16.43 12.2652 16.4571 12.1704L17.279 9.29391C17.3927 8.89563 17.8079 8.66501 18.2061 8.77881ZM12.6432 15.386C12.8563 15.0308 12.7412 14.5701 12.386 14.357C12.0308 14.1439 11.5701 14.2591 11.357 14.6142L8.35699 19.6142C8.14388 19.9694 8.25906 20.4301 8.61424 20.6432C8.96943 20.8563 9.43012 20.7412 9.64323 20.386L12.6432 15.386Z" fill="#23262A"/>
</svg>
