<svg width="24" height="24" viewBox="0 0 24 24" fill="none" xmlns="http://www.w3.org/2000/svg">
<path fill-rule="evenodd" clip-rule="evenodd" d="M16.6708 2.66468C16.5109 2.34491 16.1476 2.18245 15.8027 2.27652L11.2843 3.50881C11.0029 3.58555 11.0584 4 11.35 4H16.934C17.1198 4 17.2407 3.80442 17.1576 3.6382L16.6708 2.66468ZM4 5.25C3.0335 5.25 2.25 6.0335 2.25 7V18C2.25 18.9665 3.0335 19.75 4 19.75H19C19.9665 19.75 20.75 18.9665 20.75 18V16.75C20.75 16.6119 20.6381 16.5 20.5 16.5L15.3462 16.5C15.2768 16.4995 15.2075 16.4961 15.1383 16.4908C15.0316 16.4827 14.8897 16.4674 14.7237 16.438C14.3984 16.3804 13.9439 16.2625 13.4727 16.0122C12.994 15.7578 12.4831 15.3578 12.0971 14.7425C11.7078 14.1222 11.5 13.3695 11.5 12.5C11.5 11.6305 11.7078 10.8778 12.0971 10.2575C12.4831 9.64221 12.994 9.24217 13.4727 8.98783C13.9439 8.73755 14.3984 8.61965 14.7237 8.56204C14.8897 8.53265 15.0316 8.51728 15.1383 8.50918C15.2048 8.50414 15.3341 8.50048 15.3498 8.50004L15.3529 8.5H20.5C20.6381 8.5 20.75 8.38807 20.75 8.25V7C20.75 6.0335 19.9665 5.25 19 5.25H4ZM20 10H15.3529C15.3529 10 13 10 13 12.5C13 15 15.3529 15 15.3529 15H20C20.5523 15 21 14.5523 21 14V11C21 10.4477 20.5523 10 20 10ZM15.5 11.75C15.0858 11.75 14.75 12.0858 14.75 12.5C14.75 12.9142 15.0858 13.25 15.5 13.25H15.51C15.9242 13.25 16.26 12.9142 16.26 12.5C16.26 12.0858 15.9242 11.75 15.51 11.75H15.5Z" fill="#23262A"/>
</svg>
