<svg width="24" height="24" viewBox="0 0 24 24" fill="none" xmlns="http://www.w3.org/2000/svg">
<path fill-rule="evenodd" clip-rule="evenodd" d="M15.8027 2.27643C16.1476 2.18236 16.5109 2.34482 16.6708 2.66459L17.9635 5.25H19C19.9665 5.25 20.75 6.0335 20.75 7V9.41841C21.3412 9.69927 21.75 10.3019 21.75 11V14C21.75 14.6981 21.3412 15.3007 20.75 15.5816V18C20.75 18.9665 19.9665 19.75 19 19.75H4C3.0335 19.75 2.25 18.9665 2.25 18V7C2.25 6.0335 3.0335 5.25 4 5.25H4.89956L15.8027 2.27643ZM15.6042 3.88535L16.2865 5.25H10.6004L15.6042 3.88535ZM3.75 7C3.75 6.86193 3.86193 6.75 4 6.75H19C19.1381 6.75 19.25 6.86193 19.25 7V9.25H15.3529L15.3513 9.25L15.3494 9.25001L15.3449 9.25003L15.3333 9.25018C15.3245 9.25034 15.3133 9.25061 15.3 9.25108C15.2733 9.25202 15.238 9.25378 15.1951 9.25703C15.1096 9.26352 14.9927 9.27609 14.8545 9.30055C14.5816 9.34889 14.2072 9.4469 13.8246 9.65016C13.4382 9.85546 13.0357 10.1727 12.7323 10.6561C12.4274 11.142 12.25 11.7527 12.25 12.5C12.25 13.2473 12.4274 13.858 12.7323 14.3439C13.0357 14.8273 13.4382 15.1445 13.8246 15.3498C14.2072 15.5531 14.5816 15.6511 14.8545 15.6994C14.9927 15.7239 15.1096 15.7365 15.1951 15.743C15.238 15.7462 15.2733 15.748 15.3 15.7489C15.3133 15.7494 15.3245 15.7497 15.3333 15.7498L15.3449 15.75L15.3494 15.75L15.3513 15.75L15.3529 15.75H19.25V18C19.25 18.1381 19.1381 18.25 19 18.25H4C3.86193 18.25 3.75 18.1381 3.75 18V7ZM15.3531 10.7501L15.3579 10.75H20C20.1381 10.75 20.25 10.8619 20.25 11V14C20.25 14.1381 20.1381 14.25 20 14.25H15.3579L15.3531 14.2499C15.3462 14.2496 15.3337 14.2491 15.3163 14.2478L15.3086 14.2473C15.2654 14.244 15.1985 14.237 15.1161 14.2224C14.9478 14.1926 14.734 14.1344 14.5283 14.0252C14.3265 13.918 14.1408 13.7664 14.0029 13.5467C13.8667 13.3295 13.75 13.0027 13.75 12.5C13.75 11.9973 13.8667 11.6705 14.0029 11.4533C14.1408 11.2336 14.3265 11.082 14.5283 10.9748C14.734 10.8656 14.9478 10.8074 15.1161 10.7776C15.1985 10.763 15.2654 10.756 15.3086 10.7527C15.33 10.7511 15.3452 10.7504 15.3531 10.7501ZM15.5 11.75C15.0858 11.75 14.75 12.0858 14.75 12.5C14.75 12.9142 15.0858 13.25 15.5 13.25H15.51C15.9242 13.25 16.26 12.9142 16.26 12.5C16.26 12.0858 15.9242 11.75 15.51 11.75H15.5Z" fill="#23262A"/>
</svg>
