<svg width="24" height="24" viewBox="0 0 24 24" fill="none" xmlns="http://www.w3.org/2000/svg">
<path fill-rule="evenodd" clip-rule="evenodd" d="M9.73988 6.78582C9.73873 6.64009 9.74475 6.44628 9.77033 6.22032C9.8251 5.73653 9.97243 5.08003 10.3535 4.43222C10.7405 3.77433 11.3568 3.14687 12.3066 2.72785C13.2471 2.31292 14.4733 2.12015 16.0622 2.25257C17.6762 2.38707 18.8281 2.86762 19.5979 3.60779C20.3714 4.35156 20.6734 5.27496 20.7471 6.12251C20.82 6.96067 20.6742 7.75762 20.5212 8.32739C20.4478 8.60051 20.3704 8.82988 20.3085 8.99747C20.5919 9.60601 20.7501 10.2846 20.7501 11.0001V19.5001C20.7501 20.1904 20.1904 20.7501 19.5001 20.7501H10.5001C9.80971 20.7501 9.25007 20.1904 9.25007 19.5001V16.2716L4.54536 10.626L2.92556 9.97805C2.09235 9.64477 1.87136 8.56813 2.50591 7.93357L4.43356 6.00593C5.06811 5.37138 6.14475 5.59236 6.47804 6.42557L7.11481 8.01751L9.25007 9.54269V8.00008C9.25007 7.52851 9.43659 7.10051 9.73988 6.78582ZM19.179 7.47062C19.2496 7.09171 19.2891 6.66967 19.2528 6.25245C19.2015 5.66251 19.0035 5.11715 18.5583 4.68904C18.1093 4.25734 17.3237 3.86289 15.9377 3.74738C14.5266 3.6298 13.5653 3.81203 12.912 4.10023C12.2681 4.38434 11.8844 4.78813 11.6464 5.19275C11.4342 5.55345 11.3289 5.93123 11.2794 6.25008H16.0001C17.2226 6.25008 18.3372 6.71191 19.179 7.47062ZM5.22613 7.33468L3.83466 8.72614L5.17648 9.26287L5.76286 8.67649L5.22613 7.33468ZM10.7501 15.7285L6.24191 10.3188L6.87273 9.68794L10.7501 12.4575V8.00008C10.7501 7.86201 10.862 7.75008 11.0001 7.75008H16.0001C17.795 7.75008 19.2501 9.20515 19.2501 11.0001V19.2501H10.7501V15.7285Z" fill="#23262A"/>
</svg>
