<svg width="24" height="24" viewBox="0 0 24 24" fill="none" xmlns="http://www.w3.org/2000/svg">
<path fill-rule="evenodd" clip-rule="evenodd" d="M9.77033 6.22029C9.74475 6.44625 9.73873 6.64007 9.73988 6.7858C9.43662 7.10048 9.25012 7.52846 9.25012 8V9.54261L8.12049 8.73573C8.02105 8.6647 7.88482 8.67597 7.79841 8.76239L5.33844 11.2224C5.24701 11.3138 5.24038 11.4598 5.32316 11.5592L9.25012 16.2715V19.5C9.25012 20.1904 9.80977 20.75 10.5001 20.75H19.5001C20.1905 20.75 20.7501 20.1904 20.7501 19.5V11C20.7501 10.2845 20.5919 9.60589 20.3086 8.99734C20.3704 8.82976 20.4478 8.60043 20.5212 8.32736C20.6742 7.75759 20.82 6.96064 20.7471 6.12248C20.6734 5.27493 20.3714 4.35153 19.5979 3.60776C18.8281 2.86759 17.6762 2.38704 16.0622 2.25254C14.4733 2.12012 13.2471 2.31289 12.3066 2.72782C11.3568 3.14684 10.7405 3.7743 10.3535 4.43219C9.97243 5.08 9.8251 5.7365 9.77033 6.22029ZM19.2528 6.25242C19.2891 6.66961 19.2496 7.09161 19.179 7.4705C18.3372 6.71182 17.2226 6.25 16.0001 6.25H11.2795C11.3289 5.93116 11.4342 5.5534 11.6464 5.19272C11.8844 4.7881 12.2681 4.3843 12.9121 4.1002C13.5653 3.812 14.5266 3.62977 15.9377 3.74735C17.3237 3.86286 18.1093 4.25731 18.5583 4.68901C19.0035 5.11712 19.2015 5.66247 19.2528 6.25242ZM4.43354 6.0059C5.0681 5.37135 6.14474 5.59233 6.47802 6.42554L6.85562 7.36955C6.89277 7.4624 6.871 7.56846 6.80028 7.63917L4.13917 10.3003C4.06846 10.371 3.9624 10.3928 3.86955 10.3556L2.92554 9.97802C2.09234 9.64474 1.87134 8.5681 2.5059 7.93354L4.43354 6.0059Z" fill="#23262A"/>
</svg>
