<svg width="24" height="24" viewBox="0 0 24 24" fill="none" xmlns="http://www.w3.org/2000/svg">
<path fill-rule="evenodd" clip-rule="evenodd" d="M9.73988 6.7858C9.73873 6.64007 9.74475 6.44625 9.77033 6.22029C9.8251 5.7365 9.97243 5.08 10.3535 4.43219C10.7405 3.7743 11.3568 3.14684 12.3066 2.72782C13.2471 2.31289 14.4733 2.12012 16.0622 2.25254C17.6762 2.38704 18.8281 2.86759 19.5979 3.60776C20.3714 4.35153 20.6734 5.27493 20.7471 6.12248C20.82 6.96064 20.6742 7.75759 20.5212 8.32736C20.4478 8.60043 20.3704 8.82977 20.3086 8.99735C20.5919 9.6059 20.7501 10.2845 20.7501 11V19.5C20.7501 20.1904 20.1905 20.75 19.5001 20.75H10.5001C9.80977 20.75 9.25012 20.1904 9.25012 19.5V16.2715L5.32316 11.5592C5.24038 11.4598 5.24701 11.3138 5.33844 11.2224L7.79841 8.76239C7.88482 8.67597 8.02105 8.6647 8.12049 8.73573L9.25012 9.54261V8C9.25012 7.52846 9.43662 7.10048 9.73988 6.7858ZM19.179 7.4705C19.2496 7.09161 19.2891 6.66961 19.2528 6.25242C19.2015 5.66247 19.0035 5.11712 18.5583 4.68901C18.1093 4.25731 17.3237 3.86286 15.9377 3.74735C14.5266 3.62977 13.5653 3.812 12.9121 4.1002C12.2681 4.3843 11.8844 4.7881 11.6464 5.19272C11.4342 5.5534 11.3289 5.93116 11.2795 6.25H16.0001C17.2226 6.25 18.3372 6.71182 19.179 7.4705ZM6.47802 6.42554C6.14474 5.59233 5.0681 5.37135 4.43354 6.0059L2.5059 7.93354C1.87134 8.5681 2.09234 9.64474 2.92554 9.97802L3.86955 10.3556C3.9624 10.3928 4.06846 10.371 4.13917 10.3003L6.80028 7.63917C6.871 7.56846 6.89277 7.4624 6.85562 7.36955L6.47802 6.42554Z" fill="#262626"/>
</svg>
