<svg width="24" height="24" viewBox="0 0 24 24" fill="none" xmlns="http://www.w3.org/2000/svg">
<path fill-rule="evenodd" clip-rule="evenodd" d="M11.25 6C11.25 5.58579 10.9142 5.25 10.5 5.25C10.0858 5.25 9.75 5.58579 9.75 6V18C9.75 18.4142 10.0858 18.75 10.5 18.75C10.9142 18.75 11.25 18.4142 11.25 18V6ZM8.25 8C8.25 7.58579 7.91421 7.25 7.5 7.25C7.08579 7.25 6.75 7.58579 6.75 8V16C6.75 16.4142 7.08579 16.75 7.5 16.75C7.91421 16.75 8.25 16.4142 8.25 16V8ZM5.25 10.5C5.25 10.0858 4.91421 9.75 4.5 9.75C4.08579 9.75 3.75 10.0858 3.75 10.5V13.5C3.75 13.9142 4.08579 14.25 4.5 14.25C4.91421 14.25 5.25 13.9142 5.25 13.5V10.5ZM13.5 9.75C13.9142 9.75 14.25 10.0858 14.25 10.5V13.5C14.25 13.9142 13.9142 14.25 13.5 14.25C13.0858 14.25 12.75 13.9142 12.75 13.5V10.5C12.75 10.0858 13.0858 9.75 13.5 9.75ZM20.25 10.5C20.25 10.0858 19.9142 9.75 19.5 9.75C19.0858 9.75 18.75 10.0858 18.75 10.5V13.5C18.75 13.9142 19.0858 14.25 19.5 14.25C19.9142 14.25 20.25 13.9142 20.25 13.5V10.5ZM16.5 7.25C16.9142 7.25 17.25 7.58579 17.25 8V16C17.25 16.4142 16.9142 16.75 16.5 16.75C16.0858 16.75 15.75 16.4142 15.75 16V8C15.75 7.58579 16.0858 7.25 16.5 7.25Z" fill="#23262A"/>
</svg>
