<svg xmlns="http://www.w3.org/2000/svg" width="24" height="24" viewBox="0 0 24 24" fill="none">
  <path d="M14.7754 5.97661C16.426 5.81154 18.3126 6.25213 20.0302 7.96977C21.0138 8.95335 21.3112 9.93744 21.2099 10.7237C21.1622 11.0941 21.0205 11.4395 20.7968 11.6827C20.6947 11.7936 20.5062 11.9575 20.2324 12.0049C20.0823 12.0309 19.9012 12.0207 19.7226 11.9356C19.5442 11.8506 19.4223 11.7164 19.3476 11.585C19.0071 10.9869 18.4796 10.7824 17.9511 10.7481C17.3636 10.71 16.7749 10.8064 16.2314 11.0293C15.6879 11.2523 15.2043 11.5963 14.8173 12.0332C14.4305 12.4702 14.1506 12.9888 13.999 13.5489C13.8474 14.1089 13.8282 14.6961 13.9423 15.2647C14.0565 15.8333 14.3011 16.3692 14.6582 16.8301C15.0153 17.291 15.4755 17.6653 16.0029 17.9229C16.4029 18.1182 17.4844 18.4524 18.6211 18.7481C19.174 18.8919 19.7159 19.0205 20.1582 19.1123C20.6306 19.2105 20.9149 19.25 21 19.25C21.3787 19.25 21.6977 19.5324 21.7441 19.9082C21.7904 20.2842 21.5491 20.6357 21.1816 20.7276L19.1816 21.2276C19.0623 21.2574 18.9376 21.2574 18.8183 21.2276L17 20.7725L15.1816 21.2276C15.0623 21.2574 14.9376 21.2574 14.8183 21.2276L13 20.7725L11.1816 21.2276C11.0623 21.2574 10.9376 21.2574 10.8183 21.2276L8.99996 20.7725L7.1816 21.2276C7.06234 21.2574 6.93758 21.2574 6.81832 21.2276L4.98141 20.7676L2.64742 21.2354C2.33636 21.2976 2.01935 21.157 1.85641 20.8848C1.69372 20.6127 1.71919 20.2672 1.92086 20.0225C4.34289 17.0838 5.86462 14.5564 7.1484 12.461C8.41438 10.3946 9.50402 8.64473 11.042 7.46C11.8052 6.87212 13.1611 6.13807 14.7754 5.97661Z" fill="#202733"/>
  <path d="M17.7197 12.9698C18.0126 12.6771 18.4874 12.6769 18.7802 12.9698C19.0729 13.2626 19.0729 13.7374 18.7802 14.0303L18.3105 14.5L18.7802 14.9698C19.0729 15.2626 19.0729 15.7375 18.7802 16.0303L17.7802 17.0303C17.4874 17.3231 17.0126 17.323 16.7197 17.0303C16.4269 16.7374 16.4269 16.2626 16.7197 15.9698L17.1894 15.5L16.7197 15.0303C16.4268 14.7375 16.427 14.2627 16.7197 13.9698L17.7197 12.9698Z" fill="#202733"/>
</svg>