<svg width="24" height="24" viewBox="0 0 24 24" fill="none" xmlns="http://www.w3.org/2000/svg">
<path fill-rule="evenodd" clip-rule="evenodd" d="M7.10526 7.99676C7.62632 7.8665 8.1768 7.92693 8.65719 8.16712L10.3229 9C11.3787 9.52786 12.6213 9.52786 13.677 9L15.3428 8.16712C15.8232 7.92693 16.3737 7.8665 16.8947 7.99676L19.8181 8.72761C20.2199 8.82807 20.6271 8.58375 20.7276 8.1819C20.8281 7.78005 20.5837 7.37285 20.1819 7.27239L17.2585 6.54155C16.3901 6.32444 15.4726 6.42515 14.672 6.82548L13.0062 7.65836C12.3728 7.97508 11.6272 7.97508 10.9938 7.65836L9.32801 6.82548C8.52735 6.42515 7.6099 6.32444 6.74146 6.54155L3.81809 7.27239C3.41625 7.37285 3.17193 7.78005 3.27239 8.1819C3.37285 8.58375 3.78005 8.82807 4.1819 8.72761L7.10526 7.99676ZM8.65719 12.1671C8.1768 11.9269 7.62632 11.8665 7.10526 11.9968L4.1819 12.7276C3.78005 12.8281 3.37285 12.5837 3.27239 12.1819C3.17193 11.7801 3.41625 11.3729 3.81809 11.2724L6.74146 10.5416C7.6099 10.3244 8.52735 10.4252 9.32801 10.8255L10.9938 11.6584C11.6272 11.9751 12.3728 11.9751 13.0062 11.6584L14.672 10.8255C15.4726 10.4252 16.3901 10.3244 17.2585 10.5416L20.1819 11.2724C20.5837 11.3729 20.8281 11.7801 20.7276 12.1819C20.6271 12.5837 20.2199 12.8281 19.8181 12.7276L16.8947 11.9968C16.3737 11.8665 15.8232 11.9269 15.3428 12.1671L13.677 13C12.6213 13.5279 11.3787 13.5279 10.3229 13L8.65719 12.1671ZM8.65719 16.1671C8.1768 15.9269 7.62632 15.8665 7.10526 15.9968L4.1819 16.7276C3.78005 16.8281 3.37285 16.5837 3.27239 16.1819C3.17193 15.7801 3.41625 15.3729 3.81809 15.2724L6.74146 14.5416C7.6099 14.3244 8.52735 14.4252 9.32801 14.8255L10.9938 15.6584C11.6272 15.9751 12.3728 15.9751 13.0062 15.6584L14.672 14.8255C15.4726 14.4252 16.3901 14.3244 17.2585 14.5416L20.1819 15.2724C20.5837 15.3729 20.8281 15.7801 20.7276 16.1819C20.6271 16.5837 20.2199 16.8281 19.8181 16.7276L16.8947 15.9968C16.3737 15.8665 15.8232 15.9269 15.3428 16.1671L13.677 17C12.6213 17.5279 11.3787 17.5279 10.3229 17L8.65719 16.1671Z" fill="#23262A"/>
</svg>
