<svg width="24" height="24" viewBox="0 0 24 24" fill="none" xmlns="http://www.w3.org/2000/svg">
<path fill-rule="evenodd" clip-rule="evenodd" d="M7 6.75C7.41421 6.75 7.75 7.08579 7.75 7.5V11.25H16.25V7.5C16.25 7.08579 16.5858 6.75 17 6.75C17.4142 6.75 17.75 7.08579 17.75 7.5V16.5C17.75 16.9142 17.4142 17.25 17 17.25C16.5858 17.25 16.25 16.9142 16.25 16.5V12.75H7.75V16.5C7.75 16.9142 7.41421 17.25 7 17.25C6.58579 17.25 6.25 16.9142 6.25 16.5V7.5C6.25 7.08579 6.58579 6.75 7 6.75ZM19.75 9C19.75 8.58579 19.4142 8.25 19 8.25C18.5858 8.25 18.25 8.58579 18.25 9V15C18.25 15.4142 18.5858 15.75 19 15.75C19.4142 15.75 19.75 15.4142 19.75 15V12.75H21C21.4142 12.75 21.75 12.4142 21.75 12C21.75 11.5858 21.4142 11.25 21 11.25H19.75V9ZM5 8.25C5.41421 8.25 5.75 8.58579 5.75 9V15C5.75 15.4142 5.41421 15.75 5 15.75C4.58579 15.75 4.25 15.4142 4.25 15V12.75H3C2.58579 12.75 2.25 12.4142 2.25 12C2.25 11.5858 2.58579 11.25 3 11.25H4.25V9C4.25 8.58579 4.58579 8.25 5 8.25Z" fill="#23262A"/>
</svg>
