<svg width="24" height="24" viewBox="0 0 24 24" fill="none" xmlns="http://www.w3.org/2000/svg">
<path fill-rule="evenodd" clip-rule="evenodd" d="M4.25 4C4.25 3.58579 4.58579 3.25 5 3.25H7C7.41421 3.25 7.75 3.58579 7.75 4V8.25H14C15.5188 8.25 16.75 9.48122 16.75 11V13.25H20C20.4142 13.25 20.75 13.5858 20.75 14C20.75 14.4142 20.4142 14.75 20 14.75H16C15.5858 14.75 15.25 14.4142 15.25 14V11C15.25 10.3096 14.6904 9.75 14 9.75H7C6.58579 9.75 6.25 9.41421 6.25 9V4.75H5C4.58579 4.75 4.25 4.41421 4.25 4ZM2.75 16C2.75 13.1005 5.10051 10.75 8 10.75C10.8995 10.75 13.25 13.1005 13.25 16C13.25 18.8995 10.8995 21.25 8 21.25C5.10051 21.25 2.75 18.8995 2.75 16ZM17.5 15.75C15.9812 15.75 14.75 16.9812 14.75 18.5C14.75 20.0188 15.9812 21.25 17.5 21.25C19.0188 21.25 20.25 20.0188 20.25 18.5C20.25 16.9812 19.0188 15.75 17.5 15.75Z" fill="#23262A"/>
</svg>
