<svg xmlns="http://www.w3.org/2000/svg" width="24" height="24" viewBox="0 0 24 24" fill="none">
  <path fill-rule="evenodd" clip-rule="evenodd" d="M11.5006 1.25C11.9073 1.25024 12.1952 1.48292 12.359 1.66406C12.529 1.85215 12.6617 2.08624 12.7662 2.31348C12.9781 2.77392 13.1533 3.37632 13.2936 4.00879C13.5759 5.2816 13.7506 6.83657 13.7506 8C13.7506 8.27422 13.7192 8.54389 13.6598 8.80078C13.8231 9.00802 13.9566 9.23913 14.0553 9.48828C14.3118 9.56538 14.5658 9.6741 14.8073 9.81348C15.8148 10.3952 17.0739 11.3249 18.0348 12.2061C18.5124 12.6441 18.9472 13.0977 19.2399 13.5117C19.3842 13.716 19.5206 13.9472 19.5983 14.1885C19.6732 14.4213 19.7302 14.7874 19.527 15.1396C19.3238 15.4912 18.9789 15.6241 18.7399 15.6758C18.4921 15.7292 18.2233 15.727 17.9742 15.7041C17.4693 15.6576 16.859 15.5081 16.2409 15.3135C15.2839 15.0121 14.2145 14.5709 13.3131 14.1191L13.7487 21.958C13.7716 22.3713 13.4548 22.7256 13.0416 22.749C12.6285 22.7715 12.2738 22.4551 12.2506 22.042L11.7594 13.2363C11.6743 13.2443 11.5878 13.25 11.5006 13.25C11.4118 13.25 11.3236 13.2436 11.2369 13.2354L10.7487 22.042C10.7255 22.4552 10.3709 22.7717 9.95765 22.749C9.54467 22.7254 9.22769 22.3712 9.25062 21.958L9.68519 14.1338C8.78701 14.583 7.72386 15.0206 6.7721 15.3203C6.15402 15.5149 5.54365 15.6644 5.0387 15.7109C4.78969 15.7338 4.52088 15.7359 4.27308 15.6826C4.03413 15.631 3.68935 15.498 3.48597 15.1465C3.28265 14.7943 3.3398 14.4282 3.41468 14.1953C3.49236 13.9542 3.62787 13.7227 3.7721 13.5186C4.06486 13.1044 4.49948 12.65 4.97718 12.2119C5.93807 11.3307 7.19721 10.402 8.20472 9.82031C8.44109 9.68388 8.68916 9.57579 8.94007 9.49902C9.0392 9.2457 9.17481 9.01106 9.34046 8.80078C9.28103 8.5439 9.25062 8.27421 9.25062 8C9.25062 6.83653 9.42534 5.28162 9.70765 4.00879C9.84796 3.37626 10.0231 2.77392 10.235 2.31348C10.3396 2.08619 10.4721 1.85214 10.6422 1.66406C10.8062 1.48287 11.0938 1.25 11.5006 1.25ZM8.83948 11.1875C7.95179 11.7149 6.84139 12.5393 5.99183 13.3184C5.64427 13.6371 5.3582 13.9332 5.15296 14.1836C5.47243 14.1311 5.8722 14.0312 6.32191 13.8896C7.42472 13.5423 8.69726 12.9888 9.59827 12.4824C9.23574 12.1345 8.96878 11.6893 8.83948 11.1875ZM14.1627 11.1768C14.0356 11.6785 13.772 12.1246 13.4117 12.4736C14.3131 12.9805 15.5871 13.5352 16.691 13.8828C17.1404 14.0243 17.5397 14.1232 17.859 14.1758C17.6538 13.9255 17.3683 13.6299 17.0211 13.3115C16.1686 12.5297 15.0521 11.704 14.1627 11.1768ZM11.4996 9.25C10.8095 9.2502 10.2496 9.80976 10.2496 10.5C10.2496 11.1902 10.8095 11.7498 11.4996 11.75C12.19 11.75 12.7496 11.1904 12.7496 10.5C12.7496 9.80964 12.19 9.25 11.4996 9.25ZM11.4616 3.29199C11.3616 3.57717 11.2621 3.93011 11.1725 4.33398C11.0422 4.92149 10.9368 5.5768 10.8639 6.21582C10.8275 6.53519 10.7991 6.85054 10.7799 7.15137C10.7703 7.30193 10.7624 7.44884 10.7575 7.59082C10.7543 7.68114 10.7537 7.76949 10.7526 7.85547C10.9904 7.78837 11.2413 7.75 11.5006 7.75C11.7593 7.75006 12.0094 7.78863 12.2467 7.85547C12.2329 6.82394 12.0765 5.4556 11.8278 4.33398C11.7337 3.9101 11.6289 3.54221 11.5241 3.25C11.5155 3.22626 11.5091 3.20242 11.5006 3.17969C11.4871 3.21562 11.475 3.25354 11.4616 3.29199Z" fill="#202733"/>
</svg>