<svg width="24" height="24" viewBox="0 0 24 24" fill="none" xmlns="http://www.w3.org/2000/svg">
<path fill-rule="evenodd" clip-rule="evenodd" d="M11.8231 4.39876C10.469 3.04465 8.46027 2.78918 6.72 3.46296C6.48353 3.55451 6.30933 3.75937 6.25696 4.00749C6.20459 4.25561 6.28115 4.51338 6.46046 4.6927L8.22079 6.45302C8.30279 6.53502 8.31195 6.65274 8.25837 6.73744C8.08514 7.01131 7.83356 7.37868 7.60612 7.60612C7.37868 7.83356 7.01131 8.08514 6.73744 8.25837C6.65274 8.31195 6.53502 8.30279 6.45302 8.22079L4.69259 6.46035C4.51328 6.28105 4.25552 6.20449 4.00741 6.25684C3.7593 6.3092 3.55444 6.48338 3.46287 6.71984C2.7889 8.46021 3.0443 10.4692 4.39851 11.8234C5.62437 13.0492 7.38678 13.3747 9.00075 12.9255L15.0221 19.5203C15.8357 20.4114 17.2221 20.7292 18.3199 19.9883C18.6358 19.775 18.9756 19.5203 19.2478 19.2481C19.52 18.9759 19.7748 18.6361 19.988 18.3202C20.7289 17.2224 20.4111 15.8359 19.52 15.0223L12.9252 9.001C13.3745 7.38703 13.049 5.62462 11.8231 4.39876ZM16.9111 16.2383C16.4969 16.2383 16.1611 16.5741 16.1611 16.9883C16.1611 17.4025 16.4969 17.7383 16.9111 17.7383H16.9211C17.3353 17.7383 17.6711 17.4025 17.6711 16.9883C17.6711 16.5741 17.3353 16.2383 16.9211 16.2383H16.9111Z" fill="#23262A"/>
</svg>
