<svg width="24" height="24" viewBox="0 0 24 24" fill="none" xmlns="http://www.w3.org/2000/svg">
<path fill-rule="evenodd" clip-rule="evenodd" d="M11.8232 4.39883C10.32 2.89565 8.01827 2.74689 6.15727 3.718C5.94556 3.82847 5.79912 4.03315 5.76291 4.26919C5.7267 4.50522 5.80505 4.74439 5.9739 4.91324L8.22061 7.15995C8.07127 7.38336 7.90171 7.61334 7.75752 7.75752C7.61334 7.90171 7.38336 8.07127 7.15995 8.22061L4.91317 5.97383C4.74432 5.80498 4.50516 5.72663 4.26914 5.76283C4.03311 5.79903 3.82843 5.94545 3.71795 6.15714C2.74663 8.01821 2.8953 10.3202 4.39859 11.8235C5.62445 13.0493 7.38685 13.3748 9.00082 12.9255L15.0222 19.5203C15.8358 20.4114 17.2222 20.7293 18.32 19.9883C18.6359 19.7751 18.9757 19.5203 19.2479 19.2481C19.5201 18.9759 19.7749 18.6362 19.9881 18.3202C20.729 17.2225 20.4112 15.836 19.5201 15.0224L12.9253 9.00107C13.3745 7.3871 13.0491 5.62469 11.8232 4.39883ZM9.43285 6.25087L7.86375 4.68177C8.95048 4.45245 10.0318 4.72871 10.7625 5.45949C11.6287 6.32569 11.8557 7.67743 11.3614 8.95732C11.25 9.24572 11.327 9.57293 11.5553 9.78139L18.5087 16.1301C18.9396 16.5236 19.0053 17.0951 18.7448 17.4811C18.5546 17.7628 18.3616 18.0131 18.1872 18.1875L18.7176 18.7178L18.1872 18.1875C18.0129 18.3618 17.7626 18.5549 17.4809 18.745C17.0948 19.0055 16.5233 18.9398 16.1299 18.5089L9.78115 11.5556C9.57268 11.3272 9.24548 11.2502 8.95707 11.3616C7.67719 11.8559 6.32545 11.629 5.45925 10.7628C4.72838 10.0319 4.45214 8.95046 4.68161 7.86359L6.25087 9.43285C6.64514 9.82712 7.27541 9.92571 7.77697 9.60845C8.05518 9.43247 8.50565 9.13072 8.81818 8.81818C9.13072 8.50565 9.43247 8.05518 9.60845 7.77697C9.92571 7.27541 9.82712 6.64514 9.43285 6.25087ZM16.9111 16.2383C16.4969 16.2383 16.1611 16.5741 16.1611 16.9883C16.1611 17.4025 16.4969 17.7383 16.9111 17.7383H16.9211C17.3353 17.7383 17.6711 17.4025 17.6711 16.9883C17.6711 16.5741 17.3353 16.2383 16.9211 16.2383H16.9111Z" fill="#23262A"/>
</svg>
