<svg width="24" height="24" viewBox="0 0 24 24" fill="none" xmlns="http://www.w3.org/2000/svg">
<path fill-rule="evenodd" clip-rule="evenodd" d="M8.27208 2.25C8.07317 2.25 7.8824 2.32902 7.74175 2.46967L2.46967 7.74175C2.32902 7.8824 2.25 8.07317 2.25 8.27208V15.7279C2.25 15.9268 2.32902 16.1176 2.46967 16.2583L7.74175 21.5303C7.8824 21.671 8.07316 21.75 8.27208 21.75H15.7279C15.9268 21.75 16.1176 21.671 16.2583 21.5303L21.5303 16.2583C21.671 16.1176 21.75 15.9268 21.75 15.7279V8.27208C21.75 8.07317 21.671 7.8824 21.5303 7.74175L16.2583 2.46967C16.1176 2.32902 15.9268 2.25 15.7279 2.25H8.27208ZM3.75 8.58274L8.58274 3.75H15.4173L20.25 8.58274V15.4173L15.4173 20.25H8.58274L3.75 15.4173V8.58274ZM9.03033 7.96967C8.73744 7.67678 8.26256 7.67678 7.96967 7.96967C7.67678 8.26256 7.67678 8.73744 7.96967 9.03033L10.9393 12L7.96967 14.9697C7.67678 15.2626 7.67678 15.7374 7.96967 16.0303C8.26256 16.3232 8.73744 16.3232 9.03033 16.0303L12 13.0607L14.9697 16.0303C15.2626 16.3232 15.7374 16.3232 16.0303 16.0303C16.3232 15.7374 16.3232 15.2626 16.0303 14.9697L13.0607 12L16.0303 9.03033C16.3232 8.73744 16.3232 8.26256 16.0303 7.96967C15.7374 7.67678 15.2626 7.67678 14.9697 7.96967L12 10.9393L9.03033 7.96967Z" fill="#23262A"/>
</svg>
