<svg width="24" height="24" viewBox="0 0 24 24" fill="none" xmlns="http://www.w3.org/2000/svg">
<path fill-rule="evenodd" clip-rule="evenodd" d="M3.25 10.5C3.25 6.49594 6.49594 3.25 10.5 3.25C14.5041 3.25 17.75 6.49594 17.75 10.5C17.75 12.2317 17.1429 13.8215 16.1299 15.0684L21.5417 20.4801C21.8346 20.773 21.8346 21.2479 21.5417 21.5408C21.2488 21.8337 20.7739 21.8337 20.481 21.5408L15.0693 16.1291C13.8224 17.1426 12.2321 17.75 10.5 17.75C6.49594 17.75 3.25 14.5041 3.25 10.5ZM6.25 10.5C6.25 10.0858 6.58579 9.75 7 9.75H14C14.4142 9.75 14.75 10.0858 14.75 10.5C14.75 10.9142 14.4142 11.25 14 11.25H7C6.58579 11.25 6.25 10.9142 6.25 10.5Z" fill="#23262A"/>
</svg>
