<svg
  width="32"
  height="32"
  viewBox="0 0 32 32"
  fill="none"
  xmlns="http://www.w3.org/2000/svg"
>
  <style>
    path[data-path="1"] {
      fill: #00243a;
    }
    path[data-path="2"] {
      fill: #ffd799;
    }
    @media (prefers-color-scheme: dark) {
      path[data-path="1"] {
        fill: #00243a;
      }
      path[data-path="2"] {
        fill: #ffd799;
      }
    }
  </style>
  <path
    data-path="1"
    d="M0 4C0 1.79086 1.79086 0 4 0H28C30.2091 0 32 1.79086 32 4V28C32 30.2091 30.2091 32 28 32H4C1.79086 32 0 30.2091 0 28V4Z"
  />
  <path
    data-path="2"
    fill-rule="evenodd"
    clip-rule="evenodd"
    d="M4.43934 9.93931C4.1476 10.2311 4.00115 10.6131 4.00001 10.9955C3.99885 11.3808 4.14527 11.7666 4.43929 12.0606C5.02505 12.6464 5.9748 12.6465 6.56061 12.0607L11.3112 7.31056C11.7029 6.93797 12.3226 6.94391 12.7071 7.3284L24.6716 19.2929C25.0621 19.6834 25.0621 20.3166 24.6716 20.7071L19.9393 25.4393C19.3536 26.0251 19.3536 26.9748 19.9393 27.5606C20.2083 27.8296 20.5539 27.975 20.9058 27.997C21.3206 28.0231 21.7442 27.8776 22.0611 27.5607L26.8289 22.7929C27.5791 22.0427 28.0005 21.0253 28.0005 19.9644L28.0001 7.99987C28 5.79078 26.2092 4 24.0001 4H12.036C10.9753 4 9.95813 4.42124 9.20803 5.17108C9.19582 5.18298 9.18367 5.19498 9.17157 5.20708L4.43934 9.93931ZM25.0003 15.379L16.6214 7H24.0001C24.5524 7 25.0001 7.4477 25.0001 7.99997L25.0003 15.379ZM14.5607 19.5606C15.1464 18.9749 15.1464 18.0251 14.5607 17.4393C13.9749 16.8535 13.0251 16.8535 12.4393 17.4393L4.43934 25.4393C3.85355 26.0251 3.85355 26.9749 4.43934 27.5606C5.02513 28.1464 5.97487 28.1464 6.56066 27.5606L14.5607 19.5606Z"
  />
</svg>
