<svg viewBox="0 0 24 24" xmlns="http://www.w3.org/2000/svg">
    <g stroke="none" stroke-width="1" fill="none" fill-rule="evenodd">
        <g transform="translate(-16.000000, -20.000000)">
            <g transform="translate(16.000000, 20.000000)">
                <path d="M12.2047909,-0.004 L11.990873,-0.00191299528 C8.77688569,0.054436132 5.75177235,1.35359657 3.47380671,3.65660627 C1.17914502,5.97631201 -0.0532312621,9.01290387 0.00207436285,12.2081081 C0.116859622,18.8207825 5.29784883,24.0007282 11.7967815,24.0007282 L12.0086125,23.9986412 C18.7350287,23.8828125 24.1142833,18.4044251 23.9984546,11.7896636 C23.8836693,5.17698921 18.7026801,-0.004 12.2047909,-0.004 Z" fill="#FFA733" fill-rule="nonzero"></path>
                <path d="M12.0271658,18.9998332 C12.0181663,18.9998332 12.0091668,18.9998332 12.0001673,18.9998332 C11.1827127,18.9998332 10.5137499,18.3458695 10.5002507,17.5269151 C10.4852515,16.6989611 11.1452148,16.0149992 11.9731688,16.0014999 C11.9821683,16.0014999 11.9911678,16 12.0001673,16 C12.8176218,16 13.4850847,16.6554636 13.5000839,17.474418 C13.515083,18.302372 12.8536198,18.984834 12.0271658,18.9998332 Z" fill="#3E3832" fill-rule="evenodd"></path>
                <path d="M12,5 C12.5522847,5 13,5.44771525 13,6 L13,13 C13,13.5522847 12.5522847,14 12,14 C11.4477153,14 11,13.5522847 11,13 L11,6 C11,5.44771525 11.4477153,5 12,5 Z" fill="#3E3832" fill-rule="nonzero"></path>
            </g>
        </g>
    </g>
</svg>