<svg xmlns="http://www.w3.org/2000/svg" width="24" height="24" viewBox="0 0 24 24" fill="none">
  <path d="M7.85938 3.76308C11.0369 3.15803 12.8831 3.14659 16.1397 3.76308C16.4937 3.83017 16.75 4.14001 16.75 4.50039V9.85488L20.6963 19.7211C20.7887 19.9521 20.7605 20.2143 20.6211 20.4203C20.4816 20.6264 20.2489 20.7504 20 20.7504H4C3.75114 20.7504 3.51843 20.6264 3.37891 20.4203C3.23946 20.2142 3.21131 19.9521 3.30371 19.7211L7.25 9.85488V4.50039C7.25 4.14037 7.50578 3.83056 7.85938 3.76308ZM15.25 5.12636C12.7597 4.6951 11.1802 4.70169 8.75 5.12539V10.0004C8.74995 10.0957 8.73168 10.1902 8.69629 10.2787L5.10743 19.2504H18.8926L15.3037 10.2787C15.2683 10.1902 15.2501 10.0957 15.25 10.0004V5.12636Z" fill="#202733"/>
  <path d="M13 14C13 14.5523 12.5523 15 12 15C11.4477 15 11 14.5523 11 14C11 13.4477 11.4477 13 12 13C12.5523 13 13 13.4477 13 14Z" fill="#202733"/>
  <path d="M16 14C16 14.7021 15.8152 15.3919 15.4641 16C15.113 16.6081 14.6081 17.113 14 17.4641L13 15.7321C13.304 15.5565 13.5565 15.304 13.7321 15C13.9076 14.696 14 14.3511 14 14H16Z" fill="#202733"/>
  <path d="M10 17.4641C9.39193 17.113 8.88698 16.6081 8.5359 16C8.18483 15.3919 8 14.7021 8 14H10C10 14.3511 10.0924 14.696 10.268 15C10.4435 15.304 10.696 15.5565 11 15.7321L10 17.4641Z" fill="#202733"/>
  <path d="M10 10.5359C10.6081 10.1848 11.2979 10 12 10C12.7022 10 13.3919 10.1848 14 10.5359L13 12.268C12.696 12.0924 12.3511 12 12 12C11.6489 12 11.304 12.0924 11 12.268L10 10.5359Z" fill="#202733"/>
</svg>