<svg xmlns="http://www.w3.org/2000/svg" width="24" height="24" viewBox="0 0 24 24" fill="none">
  <path d="M16 5.25C16.4142 5.25 16.75 5.58579 16.75 6V21C16.75 21.4142 16.4142 21.75 16 21.75H8C7.58579 21.75 7.25 21.4142 7.25 21V6C7.25 5.58579 7.58579 5.25 8 5.25H16ZM13.5186 11.4697C13.2257 11.1768 12.7499 11.1768 12.457 11.4697L10.4639 13.4639C10.1712 13.7568 10.171 14.2316 10.4639 14.5244L11.9277 15.9883L10.4639 17.4521C10.1711 17.745 10.171 18.2198 10.4639 18.5127C10.7567 18.8053 11.2316 18.8054 11.5244 18.5127L13.5186 16.5186C13.8112 16.2257 13.8112 15.7508 13.5186 15.458L12.0547 13.9941L13.5186 12.5303C13.8111 12.2374 13.8112 11.7625 13.5186 11.4697ZM8.75 8.25H15.25V6.75H8.75V8.25ZM14 3.25C14.4142 3.25 14.75 3.58579 14.75 4V4.75H9.25V4C9.25 3.58579 9.58579 3.25 10 3.25H14Z" fill="#202733"/>
</svg>