<svg xmlns="http://www.w3.org/2000/svg" width="24" height="24" viewBox="0 0 24 24" fill="none">
  <path fill-rule="evenodd" clip-rule="evenodd" d="M21 3.25C21.4142 3.25 21.75 3.58579 21.75 4C21.75 4.41421 21.4142 4.75 21 4.75H11.75V10C11.75 10.4142 11.4142 10.75 11 10.75H9.75V21C9.75 21.4142 9.41421 21.75 9 21.75C8.58579 21.75 8.25 21.4142 8.25 21V10.75H7C6.58579 10.75 6.25 10.4142 6.25 10V4.75H3C2.58579 4.75 2.25 4.41421 2.25 4C2.25 3.58579 2.58579 3.25 3 3.25H21ZM7.75 9.25H8.25V8C8.25 7.58579 8.58579 7.25 9 7.25C9.41421 7.25 9.75 7.58579 9.75 8V9.25H10.25V4.75H7.75V9.25Z" fill="#202733"/>
  <path fill-rule="evenodd" clip-rule="evenodd" d="M21.0771 8.25391C21.4551 8.29253 21.75 8.61183 21.75 9C21.75 9.38817 21.4551 9.70747 21.0771 9.74609L21 9.75H20.75V15C20.75 15.4142 20.4142 15.75 20 15.75H18.75V21C18.75 21.4142 18.4142 21.75 18 21.75C17.5858 21.75 17.25 21.4142 17.25 21V15.75H16C15.5858 15.75 15.25 15.4142 15.25 15V9.75H14C13.5858 9.75 13.25 9.41421 13.25 9C13.25 8.58579 13.5858 8.25 14 8.25H21L21.0771 8.25391ZM16.75 9.75V14.25H17.25V13C17.25 12.5858 17.5858 12.25 18 12.25C18.4142 12.25 18.75 12.5858 18.75 13V14.25H19.25V9.75H16.75Z" fill="#202733"/>
  <path d="M4 8.25C4.41421 8.25 4.75 8.58579 4.75 9C4.75 9.41421 4.41421 9.75 4 9.75H3C2.58579 9.75 2.25 9.41421 2.25 9C2.25 8.58579 2.58579 8.25 3 8.25H4Z" fill="#202733"/>
</svg>