<svg xmlns="http://www.w3.org/2000/svg" width="24" height="24" viewBox="0 0 24 24" fill="none">
  <path fill-rule="evenodd" clip-rule="evenodd" d="M12 4.25C12.4142 4.25 12.75 4.58579 12.75 5C12.75 5.08804 12.732 5.17152 12.7041 5.25H21.75C22.6008 5.25 23.4765 8.22086 23.5 11.5C23.5249 14.9657 22.6492 18.75 21.75 18.75H12.7041C12.732 18.8285 12.75 18.912 12.75 19C12.75 19.4142 12.4142 19.75 12 19.75H3C2.58579 19.75 2.25 19.4142 2.25 19C2.25 14.3451 2.25 9.66417 2.25 5C2.25 4.58579 2.58579 4.25 3 4.25H12ZM9.96484 15.251C10.009 15.4013 10.4651 16.5706 10.5283 16.75H17C17.4142 16.75 17.75 16.4142 17.75 16C17.75 15.5858 17.4142 15.25 17 15.25H10C9.98821 15.25 9.9765 15.2504 9.96484 15.251ZM18.75 15.25C18.3358 15.25 18 15.5858 18 16C18 16.4142 18.3358 16.75 18.75 16.75C19.1642 16.75 19.5 16.4142 19.5 16C19.5 15.5858 19.1642 15.25 18.75 15.25ZM20.75 15.25C20.3358 15.25 20 15.5858 20 16C20 16.4142 20.3358 16.75 20.75 16.75C21.1642 16.75 21.5 16.4142 21.5 16C21.5 15.5858 21.1642 15.25 20.75 15.25ZM19.5 13.75C19.0858 13.75 18.75 14.0858 18.75 14.5C18.75 14.9142 19.0858 15.25 19.5 15.25C19.9142 15.25 20.25 14.9142 20.25 14.5C20.25 14.0858 19.9142 13.75 19.5 13.75ZM9.83008 14.75H16C16.4142 14.75 16.75 14.4142 16.75 14C16.75 13.5858 16.4142 13.25 16 13.25H9.56738L9.83008 14.75ZM17.75 13.25C17.3358 13.25 17 13.5858 17 14C17 14.4142 17.3358 14.75 17.75 14.75C18.1642 14.75 18.5 14.4142 18.5 14C18.5 13.5858 18.1642 13.25 17.75 13.25ZM21.25 13.25C20.8358 13.25 20.5 13.5858 20.5 14C20.5 14.4142 20.8358 14.75 21.25 14.75C21.6642 14.75 22 14.4142 22 14C22 13.5858 21.6642 13.25 21.25 13.25ZM19.75 12C19.3358 12 19 12.3358 19 12.75C19 13.1642 19.3358 13.5 19.75 13.5C20.1642 13.5 20.5 13.1642 20.5 12.75C20.5 12.3358 20.1642 12 19.75 12ZM9.52539 12.75H16C16.4142 12.75 16.75 12.4142 16.75 12C16.75 11.5858 16.4142 11.25 16 11.25H9.52539V12.75ZM17.75 11.25C17.3358 11.25 17 11.5858 17 12C17 12.4142 17.3358 12.75 17.75 12.75C18.1642 12.75 18.5 12.4142 18.5 12C18.5 11.5858 18.1642 11.25 17.75 11.25ZM21.75 11.25C21.3358 11.25 21 11.5858 21 12C21 12.4142 21.3358 12.75 21.75 12.75C22.1642 12.75 22.5 12.4142 22.5 12C22.5 11.5858 22.1642 11.25 21.75 11.25ZM19.75 10.5C19.3358 10.5 19 10.8358 19 11.25C19 11.6642 19.3358 12 19.75 12C20.1642 12 20.5 11.6642 20.5 11.25C20.5 10.8358 20.1642 10.5 19.75 10.5ZM9.56738 10.75H16C16.4142 10.75 16.75 10.4142 16.75 10C16.75 9.58579 16.4142 9.25 16 9.25H9.83008L9.56738 10.75ZM17.75 9.25C17.3358 9.25 17 9.58579 17 10C17 10.4142 17.3358 10.75 17.75 10.75C18.1642 10.75 18.5 10.4142 18.5 10C18.5 9.58579 18.1642 9.25 17.75 9.25ZM21.25 9.25C20.8358 9.25 20.5 9.58579 20.5 10C20.5 10.4142 20.8358 10.75 21.25 10.75C21.6642 10.75 22 10.4142 22 10C22 9.58579 21.6642 9.25 21.25 9.25ZM19.5 8.75C19.0858 8.75 18.75 9.08579 18.75 9.5C18.75 9.91421 19.0858 10.25 19.5 10.25C19.9142 10.25 20.25 9.91421 20.25 9.5C20.25 9.08579 19.9142 8.75 19.5 8.75ZM9.96484 8.74805C9.97651 8.74859 9.9882 8.75 10 8.75H17C17.4142 8.75 17.75 8.41421 17.75 8C17.75 7.58579 17.4142 7.25 17 7.25H10.5283L9.96484 8.74805ZM18.75 7.25C18.3358 7.25 18 7.58579 18 8C18 8.41421 18.3358 8.75 18.75 8.75C19.1642 8.75 19.5 8.41421 19.5 8C19.5 7.58579 19.1642 7.25 18.75 7.25ZM20.75 7.25C20.3358 7.25 20 7.58579 20 8C20 8.41421 20.3358 8.75 20.75 8.75C21.1642 8.75 21.5 8.41421 21.5 8C21.5 7.58579 21.1642 7.25 20.75 7.25Z" fill="#202733"/>
</svg>