<svg xmlns="http://www.w3.org/2000/svg" width="24" height="24" viewBox="0 0 24 24" fill="none">
  <path d="M12 4.25C12.4142 4.25 12.75 4.58579 12.75 5C12.75 5.08804 12.732 5.17152 12.7041 5.25H18C18.4142 5.25 18.75 5.58579 18.75 6C18.75 6.41421 18.4142 6.75 18 6.75H11C10.9282 6.75 10.8597 6.73661 10.7939 6.71777C10.7002 6.89257 10.6118 7.07008 10.5283 7.25H17C17.4142 7.25 17.75 7.58579 17.75 8C17.75 8.41421 17.4142 8.75 17 8.75H10C9.9882 8.75 9.97651 8.74859 9.96484 8.74805C9.91597 8.9142 9.87123 9.08158 9.83008 9.25H16C16.4142 9.25 16.75 9.58579 16.75 10C16.75 10.4142 16.4142 10.75 16 10.75H9.56738C9.54954 10.9163 9.53608 11.083 9.52539 11.25H16C16.4142 11.25 16.75 11.5858 16.75 12C16.75 12.4142 16.4142 12.75 16 12.75H9.52539C9.53608 12.917 9.54954 13.0837 9.56738 13.25H16C16.4142 13.25 16.75 13.5858 16.75 14C16.75 14.4142 16.4142 14.75 16 14.75H9.83008C9.87115 14.9181 9.91607 15.0851 9.96484 15.251C9.9765 15.2504 9.98821 15.25 10 15.25H17C17.4142 15.25 17.75 15.5858 17.75 16C17.75 16.4142 17.4142 16.75 17 16.75H10.5283C10.6117 16.9297 10.7004 17.1067 10.7939 17.2812C10.8596 17.2625 10.9283 17.25 11 17.25H18C18.4142 17.25 18.75 17.5858 18.75 18C18.75 18.4142 18.4142 18.75 18 18.75H12.7041C12.732 18.8285 12.75 18.912 12.75 19C12.75 19.4142 12.4142 19.75 12 19.75H3C2.58579 19.75 2.25 19.4142 2.25 19C2.25 18.5858 2.58579 18.25 3 18.25H9.61426C7.46243 14.4692 7.46243 9.53082 9.61426 5.75H3C2.58579 5.75 2.25 5.41421 2.25 5C2.25 4.58579 2.58579 4.25 3 4.25H12Z" fill="#202733"/>
  <path d="M19.75 17C20.1642 17 20.5 17.3358 20.5 17.75C20.5 18.1642 20.1642 18.5 19.75 18.5C19.3358 18.5 19 18.1642 19 17.75C19 17.3358 19.3358 17 19.75 17Z" fill="#202733"/>
  <path d="M18.75 15.25C19.1642 15.25 19.5 15.5858 19.5 16C19.5 16.4142 19.1642 16.75 18.75 16.75C18.3358 16.75 18 16.4142 18 16C18 15.5858 18.3358 15.25 18.75 15.25Z" fill="#202733"/>
  <path d="M20.75 15.25C21.1642 15.25 21.5 15.5858 21.5 16C21.5 16.4142 21.1642 16.75 20.75 16.75C20.3358 16.75 20 16.4142 20 16C20 15.5858 20.3358 15.25 20.75 15.25Z" fill="#202733"/>
  <path d="M19.5 13.75C19.9142 13.75 20.25 14.0858 20.25 14.5C20.25 14.9142 19.9142 15.25 19.5 15.25C19.0858 15.25 18.75 14.9142 18.75 14.5C18.75 14.0858 19.0858 13.75 19.5 13.75Z" fill="#202733"/>
  <path d="M17.75 13.25C18.1642 13.25 18.5 13.5858 18.5 14C18.5 14.4142 18.1642 14.75 17.75 14.75C17.3358 14.75 17 14.4142 17 14C17 13.5858 17.3358 13.25 17.75 13.25Z" fill="#202733"/>
  <path d="M21.25 13.25C21.6642 13.25 22 13.5858 22 14C22 14.4142 21.6642 14.75 21.25 14.75C20.8358 14.75 20.5 14.4142 20.5 14C20.5 13.5858 20.8358 13.25 21.25 13.25Z" fill="#202733"/>
  <path d="M19.75 12C20.1642 12 20.5 12.3358 20.5 12.75C20.5 13.1642 20.1642 13.5 19.75 13.5C19.3358 13.5 19 13.1642 19 12.75C19 12.3358 19.3358 12 19.75 12Z" fill="#202733"/>
  <path d="M17.75 11.25C18.1642 11.25 18.5 11.5858 18.5 12C18.5 12.4142 18.1642 12.75 17.75 12.75C17.3358 12.75 17 12.4142 17 12C17 11.5858 17.3358 11.25 17.75 11.25Z" fill="#202733"/>
  <path d="M21.75 11.25C22.1642 11.25 22.5 11.5858 22.5 12C22.5 12.4142 22.1642 12.75 21.75 12.75C21.3358 12.75 21 12.4142 21 12C21 11.5858 21.3358 11.25 21.75 11.25Z" fill="#202733"/>
  <path d="M19.75 10.5C20.1642 10.5 20.5 10.8358 20.5 11.25C20.5 11.6642 20.1642 12 19.75 12C19.3358 12 19 11.6642 19 11.25C19 10.8358 19.3358 10.5 19.75 10.5Z" fill="#202733"/>
  <path d="M17.75 9.25C18.1642 9.25 18.5 9.58579 18.5 10C18.5 10.4142 18.1642 10.75 17.75 10.75C17.3358 10.75 17 10.4142 17 10C17 9.58579 17.3358 9.25 17.75 9.25Z" fill="#202733"/>
  <path d="M21.25 9.25C21.6642 9.25 22 9.58579 22 10C22 10.4142 21.6642 10.75 21.25 10.75C20.8358 10.75 20.5 10.4142 20.5 10C20.5 9.58579 20.8358 9.25 21.25 9.25Z" fill="#202733"/>
  <path d="M19.5 8.75C19.9142 8.75 20.25 9.08579 20.25 9.5C20.25 9.91421 19.9142 10.25 19.5 10.25C19.0858 10.25 18.75 9.91421 18.75 9.5C18.75 9.08579 19.0858 8.75 19.5 8.75Z" fill="#202733"/>
  <path d="M18.75 7.25C19.1642 7.25 19.5 7.58579 19.5 8C19.5 8.41421 19.1642 8.75 18.75 8.75C18.3358 8.75 18 8.41421 18 8C18 7.58579 18.3358 7.25 18.75 7.25Z" fill="#202733"/>
  <path d="M20.75 7.25C21.1642 7.25 21.5 7.58579 21.5 8C21.5 8.41421 21.1642 8.75 20.75 8.75C20.3358 8.75 20 8.41421 20 8C20 7.58579 20.3358 7.25 20.75 7.25Z" fill="#202733"/>
  <path d="M19.75 5.5C20.1642 5.5 20.5 5.83579 20.5 6.25C20.5 6.66421 20.1642 7 19.75 7C19.3358 7 19 6.66421 19 6.25C19 5.83579 19.3358 5.5 19.75 5.5Z" fill="#202733"/>
</svg>