<svg width="24" height="24" viewBox="0 0 24 24" fill="none" xmlns="http://www.w3.org/2000/svg">
<path fill-rule="evenodd" clip-rule="evenodd" d="M15.8506 3.83101C16.0577 3.47229 16.5163 3.34949 16.875 3.5566L21.2051 6.0566C21.5637 6.26373 21.6866 6.72233 21.4795 7.08101C21.2723 7.43954 20.8137 7.56247 20.4551 7.35542L16.7744 5.23042L16.3047 6.04292C17.184 6.72919 17.75 7.79814 17.75 8.99996L17.7451 9.19331C17.6868 10.3408 17.1117 11.351 16.249 11.999C17.1604 12.6831 17.75 13.7727 17.75 15L17.7451 15.1933C17.6881 16.3161 17.1365 17.3077 16.3047 17.957L17.1494 19.4189C17.2488 19.5911 17.276 19.7961 17.2246 19.9882C17.1731 20.1803 17.0472 20.3438 16.875 20.4433L12.5449 22.9433C12.1862 23.1504 11.7276 23.0276 11.5205 22.6689C11.3136 22.3102 11.4363 21.8516 11.7949 21.6445L15.4756 19.5195L14.958 18.625C14.6521 18.7056 14.3313 18.75 14 18.75C11.9938 18.75 10.3555 17.1745 10.2549 15.1933L10.25 15C9.62314 15.471 8.84449 15.75 8 15.75C6.18578 15.75 4.67264 14.4616 4.3252 12.75H3C2.58579 12.75 2.25 12.4142 2.25 12V6.99996C2.25003 6.58577 2.58581 6.24996 3 6.24996C3.41419 6.24996 3.74997 6.58577 3.75 6.99996V11.25H4.3252C4.67268 9.53832 6.18581 8.24996 8 8.24996C8.84404 8.24996 9.62332 8.52838 10.25 8.99898C10.2506 6.92839 11.9293 5.24996 14 5.24996C14.3315 5.24996 14.6529 5.29323 14.959 5.37398L15.8506 3.83101ZM14 12.75C12.7574 12.75 11.75 13.7573 11.75 15L11.7617 15.2304C11.8771 16.3648 12.8352 17.25 14 17.25C15.2426 17.25 16.25 16.2426 16.25 15C16.25 13.7573 15.2426 12.75 14 12.75ZM8 9.74996C6.75738 9.74996 5.75003 10.7573 5.75 12L5.76172 12.2304C5.87714 13.3648 6.83517 14.25 8 14.25C9.24264 14.25 10.25 13.2426 10.25 12C10.25 10.7573 9.24262 9.74996 8 9.74996ZM14 6.74996C12.7574 6.74996 11.75 7.75734 11.75 8.99996L11.7617 9.23042C11.8771 10.3648 12.8352 11.25 14 11.25C15.2426 11.25 16.25 10.2426 16.25 8.99996C16.25 7.75734 15.2426 6.74996 14 6.74996Z" fill="#202733"/>
</svg>
