<svg width="24" height="24" viewBox="0 0 24 24" fill="none" xmlns="http://www.w3.org/2000/svg">
<path d="M15.3115 13.3046C16.3103 13.7915 17 14.8139 17 15.9999C17 16.7395 16.7308 17.4154 16.2871 17.9384L17.0713 19.285L17.1494 19.4188C17.2488 19.591 17.276 19.7961 17.2246 19.9882C17.1731 20.1802 17.0471 20.3438 16.875 20.4433L12.5449 22.9433C12.4553 22.995 12.3593 23.026 12.2627 23.038C12.1659 23.05 12.0684 23.0433 11.9756 23.0184C11.7903 22.9688 11.624 22.8481 11.5205 22.6688C11.3654 22.4 11.3954 22.0748 11.5713 21.8417C11.6153 21.7833 11.6688 21.7309 11.7305 21.6864C11.751 21.6716 11.7725 21.6574 11.7949 21.6444L15.4756 19.5194L15.0566 18.8046C14.7276 18.9286 14.3724 18.9999 14 18.9999C12.3431 18.9999 11 17.6567 11 15.9999C11 15.746 11.0344 15.5 11.0938 15.2645C11.58 14.8036 11.9635 14.2363 12.2061 13.5985C12.3564 13.4861 12.5172 13.3876 12.6875 13.3046C13.1028 13.431 13.5433 13.4999 14 13.4999C14.4563 13.4999 14.8965 13.4309 15.3115 13.3046Z" fill="#202733"/>
<path d="M3 6.24989C3.41415 6.24989 3.7499 6.58577 3.75 6.99989V11.2499H5.09863C5.43205 9.95653 6.60252 8.99989 8 8.99989C8.55526 8.99989 9.07348 9.15393 9.51953 9.41689C9.62565 10.5717 10.168 11.6 10.9805 12.3358C10.9653 12.4719 10.938 12.6044 10.9053 12.7343C10.4192 13.1951 10.0355 13.7628 9.79297 14.4003C9.29236 14.7748 8.67331 14.9999 8 14.9999C6.60236 14.9999 5.43092 14.0435 5.09766 12.7499H3C2.58581 12.7499 2.25003 12.4141 2.25 11.9999V6.99989C2.2501 6.58577 2.58585 6.24989 3 6.24989Z" fill="#202733"/>
<path d="M16.3057 3.48134C16.3984 3.45647 16.496 3.44978 16.5928 3.46181C16.6894 3.47381 16.7854 3.50479 16.875 3.55653L21.2051 6.05653C21.2948 6.10838 21.37 6.17595 21.4287 6.2538C21.6047 6.48694 21.6347 6.81206 21.4795 7.08095C21.3499 7.3051 21.1221 7.43711 20.8818 7.45399C20.786 7.46073 20.6881 7.44928 20.5938 7.41786C20.5464 7.4021 20.5 7.38127 20.4551 7.35536L16.7744 5.23036L16.7471 5.27821L15.9199 6.69618C16.5795 7.24647 17 8.07373 17 8.99989C17 10.1857 16.3101 11.2072 15.3115 11.6942C14.8966 11.568 14.4562 11.4999 14 11.4999C13.5434 11.4999 13.1027 11.5678 12.6875 11.6942C12.6164 11.6595 12.5473 11.6219 12.4795 11.5819C12.3731 10.4271 11.8313 9.39867 11.0186 8.66298C11.186 7.16476 12.4571 5.99989 14 5.99989C14.1909 5.99989 14.3776 6.01853 14.5586 6.05263L15.8506 3.83095C15.9541 3.6517 16.1204 3.53101 16.3057 3.48134Z" fill="#202733"/>
</svg>
