<svg xmlns="http://www.w3.org/2000/svg" width="24" height="24" viewBox="0 0 24 24" fill="none">
  <path d="M18.1475 3.26465C18.2913 3.29353 18.425 3.36446 18.5303 3.46973C18.6708 3.61033 18.75 3.80121 18.75 4V11.7861L19.665 11.3291C19.8974 11.2131 20.1736 11.2258 20.3945 11.3623C20.6153 11.499 20.7499 11.7403 20.75 12V19.75H22C22.4142 19.75 22.75 20.0858 22.75 20.5C22.75 20.9142 22.4142 21.25 22 21.25H18.75V22C18.75 22.4142 18.4142 22.75 18 22.75C17.5858 22.75 17.25 22.4142 17.25 22V21.25H15.75V22C15.75 22.4142 15.4142 22.75 15 22.75C14.5858 22.75 14.25 22.4142 14.25 22V21.25H12.75V22C12.75 22.4142 12.4142 22.75 12 22.75C11.5858 22.75 11.25 22.4142 11.25 22V21.25H9.75V22C9.75 22.4142 9.41421 22.75 9 22.75C8.58579 22.75 8.25 22.4142 8.25 22V21.25H6.75V22C6.75 22.4142 6.41421 22.75 6 22.75C5.58579 22.75 5.25 22.4142 5.25 22V21.25H2C1.58579 21.25 1.25 20.9142 1.25 20.5C1.25 20.0858 1.58579 19.75 2 19.75H3.25V12C3.25005 11.7402 3.38459 11.499 3.60547 11.3623C3.82641 11.2258 4.10259 11.2131 4.33496 11.3291L5.25 11.7861V8L5.25488 7.91309C5.26494 7.82701 5.29021 7.74296 5.3291 7.66504L6.3291 5.66504C6.45614 5.41103 6.716 5.25004 7 5.25H14.25V4C14.2501 3.58589 14.5859 3.25006 15 3.25H18L18.1475 3.26465ZM13.0303 14.4697C12.7374 14.177 12.2626 14.1771 11.9697 14.4697L10.9697 15.4697C10.677 15.7626 10.677 16.2374 10.9697 16.5303L11.4395 17L10.9697 17.4697C10.6769 17.7625 10.6771 18.2374 10.9697 18.5303C11.2626 18.8229 11.7375 18.8231 12.0303 18.5303L13.0303 17.5303C13.323 17.2375 13.3229 16.7626 13.0303 16.4697L12.5605 16L13.0303 15.5303C13.3229 15.2374 13.3229 14.7626 13.0303 14.4697ZM9 8.25C8.58591 8.25009 8.25008 8.58591 8.25 9V11.5254C8.62283 11.5567 8.99148 11.6574 9.33496 11.8291C9.46714 11.8952 9.60758 11.9376 9.75 11.9619V9C9.74992 8.58591 9.41409 8.25009 9 8.25ZM11 8.25C10.5859 8.25009 10.2501 8.58591 10.25 9V11.9619C10.3925 11.9376 10.5328 11.8952 10.665 11.8291C11.0086 11.6574 11.3771 11.5567 11.75 11.5254V9C11.7499 8.58591 11.4141 8.25009 11 8.25ZM13 8.25C12.5859 8.25009 12.2501 8.58591 12.25 9V11.5254C12.6228 11.5567 12.9915 11.6574 13.335 11.8291C13.4671 11.8952 13.6076 11.9376 13.75 11.9619V9C13.7499 8.58591 13.4141 8.25009 13 8.25Z" fill="#202733"/>
</svg>