<svg width="24" height="24" viewBox="0 0 24 24" fill="none" xmlns="http://www.w3.org/2000/svg">
<path fill-rule="evenodd" clip-rule="evenodd" d="M17 1.25C17.4142 1.25 17.75 1.58579 17.75 2V4.35645C18.6652 4.61559 19.3844 5.33478 19.6436 6.25H22C22.4142 6.25 22.75 6.58579 22.75 7C22.75 7.41421 22.4142 7.75 22 7.75H19.6436C19.3844 8.66513 18.6651 9.38337 17.75 9.64258V14.3564C18.6652 14.6156 19.3844 15.3348 19.6436 16.25H22C22.4142 16.25 22.75 16.5858 22.75 17C22.75 17.4142 22.4142 17.75 22 17.75H19.6436C19.3844 18.6651 18.6651 19.3834 17.75 19.6426V22C17.75 22.4142 17.4142 22.75 17 22.75C16.5858 22.75 16.25 22.4142 16.25 22V19.6426C15.3349 19.3834 14.6156 18.6651 14.3564 17.75H9.64355C9.38443 18.6651 8.66509 19.3834 7.75 19.6426V22C7.75 22.4142 7.41421 22.75 7 22.75C6.58579 22.75 6.25 22.4142 6.25 22V19.6426C5.33491 19.3834 4.61557 18.6651 4.35645 17.75H2C1.58579 17.75 1.25 17.4142 1.25 17C1.25 16.5858 1.58579 16.25 2 16.25H4.35645C4.61559 15.3348 5.33478 14.6156 6.25 14.3564V9.64258C5.33491 9.38337 4.61557 8.66513 4.35645 7.75H2C1.58579 7.75 1.25 7.41421 1.25 7C1.25 6.58579 1.58579 6.25 2 6.25H4.35645C4.61559 5.33478 5.33478 4.61559 6.25 4.35645V2C6.25 1.58579 6.58579 1.25 7 1.25C7.41421 1.25 7.75 1.58579 7.75 2V4.35645C8.66522 4.61559 9.38441 5.33478 9.64355 6.25H14.3564C14.6156 5.33478 15.3348 4.61559 16.25 4.35645V2C16.25 1.58579 16.5858 1.25 17 1.25ZM9.64355 7.75C9.38443 8.66513 8.66509 9.38337 7.75 9.64258V14.3564C8.66522 14.6156 9.38441 15.3348 9.64355 16.25H14.3564C14.6156 15.3348 15.3348 14.6156 16.25 14.3564V9.64258C15.3349 9.38337 14.6156 8.66513 14.3564 7.75H9.64355Z" fill="#202733"/>
</svg>
