<svg xmlns="http://www.w3.org/2000/svg" width="24" height="24" viewBox="0 0 24 24" fill="none">
  <path fill-rule="evenodd" clip-rule="evenodd" d="M12.0002 1.25C12.268 1.25007 12.5156 1.39303 12.6496 1.625L23.0422 19.625C23.176 19.857 23.176 20.143 23.0422 20.375C22.9083 20.6069 22.6605 20.7498 22.3928 20.75H1.60761C1.33979 20.7499 1.09213 20.6069 0.958193 20.375C0.824274 20.143 0.824274 19.857 0.958193 19.625L11.3508 1.625L11.4064 1.54199C11.5473 1.35944 11.7659 1.25 12.0002 1.25ZM12.8351 8.3291C12.4648 8.14418 12.0145 8.29475 11.8293 8.66504L9.82929 12.665C9.69386 12.9363 9.73513 13.2622 9.93378 13.4912C10.1325 13.7203 10.4497 13.8078 10.7375 13.7119L12.2023 13.2227L11.3391 15.3818C11.1951 15.0435 10.8206 14.8533 10.4553 14.9512C10.0556 15.0586 9.81802 15.4703 9.92499 15.8701L10.4426 17.8018C10.5497 18.2017 10.9615 18.439 11.3615 18.332L13.2932 17.8145C13.6932 17.7072 13.9306 17.2956 13.8234 16.8955C13.716 16.496 13.3052 16.2585 12.9055 16.3652L12.5197 16.4678L14.1965 12.2783C14.3048 12.0073 14.2463 11.6978 14.0461 11.4854C13.8458 11.2729 13.5399 11.1958 13.2629 11.2881L11.9807 11.7148L13.1711 9.33496C13.3559 8.96461 13.2054 8.51431 12.8351 8.3291Z" fill="#202733"/>
</svg>