<svg xmlns="http://www.w3.org/2000/svg" width="24" height="24" viewBox="0 0 24 24" fill="none">
  <path d="M18 17.25C19.5188 17.25 20.75 18.4812 20.75 20C20.75 20.4142 20.4142 20.75 20 20.75C19.5858 20.75 19.25 20.4142 19.25 20C19.25 19.3096 18.6904 18.75 18 18.75C17.3096 18.75 16.75 19.3096 16.75 20C16.75 20.4142 16.4142 20.75 16 20.75C15.5858 20.75 15.25 20.4142 15.25 20C15.25 19.3096 14.6904 18.75 14 18.75C13.3096 18.75 12.75 19.3096 12.75 20C12.75 20.4142 12.4142 20.75 12 20.75C11.5858 20.75 11.25 20.4142 11.25 20C11.25 19.3096 10.6904 18.75 10 18.75C9.30964 18.75 8.75 19.3096 8.75 20C8.75 20.4142 8.41421 20.75 8 20.75C7.58579 20.75 7.25 20.4142 7.25 20C7.25 19.3096 6.69036 18.75 6 18.75C5.95716 18.75 5.91477 18.7517 5.87305 18.7559C5.86549 18.7566 5.85811 18.7589 5.85059 18.7598C5.81901 18.7635 5.78764 18.7674 5.75684 18.7734C5.73873 18.777 5.72095 18.7818 5.70312 18.7861C5.6811 18.7915 5.65925 18.7972 5.6377 18.8037C5.62288 18.8082 5.60833 18.8133 5.59375 18.8184C5.57068 18.8263 5.54783 18.8345 5.52539 18.8438C5.50755 18.8511 5.49007 18.8591 5.47266 18.8672C5.46089 18.8727 5.44906 18.8779 5.4375 18.8838L5.4043 18.9004C5.39364 18.9062 5.38351 18.9129 5.37305 18.9189C5.35294 18.9306 5.33285 18.9423 5.31348 18.9551C5.30374 18.9615 5.2947 18.9689 5.28516 18.9756C5.26507 18.9896 5.24478 19.0034 5.22559 19.0186C5.21868 19.024 5.21186 19.0296 5.20508 19.0352L5.16016 19.0742C5.15249 19.0812 5.14519 19.0885 5.1377 19.0957C5.12336 19.1094 5.10937 19.1234 5.0957 19.1377C5.08456 19.1494 5.07416 19.1617 5.06348 19.1738C5.04789 19.1915 5.03216 19.209 5.01758 19.2275C5.00852 19.239 4.99987 19.2509 4.99121 19.2627C4.9549 19.3123 4.92138 19.3642 4.89258 19.4189C4.88055 19.4418 4.87 19.4656 4.85938 19.4893C4.85497 19.4991 4.84986 19.5086 4.8457 19.5186C4.82149 19.5766 4.80244 19.6372 4.78711 19.6992C4.78248 19.718 4.77819 19.7368 4.77441 19.7559C4.76686 19.794 4.76083 19.8328 4.75684 19.8721C4.75256 19.9141 4.75 19.9568 4.75 20C4.75 20.4142 4.41421 20.75 4 20.75C3.58579 20.75 3.25 20.4142 3.25 20C3.25 18.4812 4.48122 17.25 6 17.25C6.78898 17.25 7.49851 17.584 8 18.1162C8.50149 17.584 9.21102 17.25 10 17.25C10.789 17.25 11.4985 17.584 12 18.1162C12.5015 17.584 13.211 17.25 14 17.25C14.789 17.25 15.4985 17.584 16 18.1162C16.5015 17.584 17.211 17.25 18 17.25Z" fill="#202733"/>
  <path fill-rule="evenodd" clip-rule="evenodd" d="M19.1426 3.26367C19.4665 3.32614 19.7186 3.59742 19.7471 3.9375L20.7471 15.9375C20.7675 16.1829 20.6654 16.4081 20.4941 16.5596C19.7935 16.0508 18.9321 15.75 18 15.75C17.5643 15.75 17.1448 15.8171 16.75 15.9395V15C16.75 14.5858 16.4142 14.25 16 14.25C15.5858 14.25 15.25 14.5858 15.25 15V15.9395C14.8552 15.8171 14.4357 15.75 14 15.75C13.5643 15.75 13.1448 15.8171 12.75 15.9395V15C12.75 14.5858 12.4142 14.25 12 14.25C11.5858 14.25 11.25 14.5858 11.25 15V15.9395C10.8552 15.8171 10.4357 15.75 10 15.75C9.56428 15.75 9.14476 15.8171 8.75 15.9395V15C8.75 14.5858 8.41421 14.25 8 14.25C7.58579 14.25 7.25 14.5858 7.25 15V15.9395C6.85524 15.8171 6.43572 15.75 6 15.75C5.06764 15.75 4.2056 16.0505 3.50488 16.5596C3.334 16.4081 3.2325 16.1827 3.25293 15.9375L4.25293 3.9375L4.27832 3.79688C4.36748 3.47912 4.65862 3.25 5 3.25H19L19.1426 3.26367ZM8 10.25C7.58579 10.25 7.25 10.5858 7.25 11V13C7.25 13.4142 7.58579 13.75 8 13.75C8.41421 13.75 8.75 13.4142 8.75 13V11C8.75 10.5858 8.41421 10.25 8 10.25ZM12 10.25C11.5858 10.25 11.25 10.5858 11.25 11V13C11.25 13.4142 11.5858 13.75 12 13.75C12.4142 13.75 12.75 13.4142 12.75 13V11C12.75 10.5858 12.4142 10.25 12 10.25ZM16 10.25C15.5858 10.25 15.25 10.5858 15.25 11V13C15.25 13.4142 15.5858 13.75 16 13.75C16.4142 13.75 16.75 13.4142 16.75 13V11C16.75 10.5858 16.4142 10.25 16 10.25ZM5.56445 6.25H18.4355L18.3105 4.75H5.68945L5.56445 6.25Z" fill="#202733"/>
</svg>