<svg xmlns="http://www.w3.org/2000/svg" width="24" height="24" viewBox="0 0 24 24" fill="none">
  <path d="M18 17.25C19.5188 17.25 20.75 18.4812 20.75 20C20.75 20.4142 20.4142 20.75 20 20.75C19.5858 20.75 19.25 20.4142 19.25 20C19.25 19.3096 18.6904 18.75 18 18.75C17.3096 18.75 16.75 19.3096 16.75 20C16.75 20.4142 16.4142 20.75 16 20.75C15.5858 20.75 15.25 20.4142 15.25 20C15.25 19.3096 14.6904 18.75 14 18.75C13.3096 18.75 12.75 19.3096 12.75 20C12.75 20.4142 12.4142 20.75 12 20.75C11.5858 20.75 11.25 20.4142 11.25 20C11.25 19.3096 10.6904 18.75 10 18.75C9.30964 18.75 8.75 19.3096 8.75 20C8.75 20.4142 8.41421 20.75 8 20.75C7.58579 20.75 7.25 20.4142 7.25 20C7.25 19.3096 6.69036 18.75 6 18.75C5.30964 18.75 4.75 19.3096 4.75 20C4.75 20.4142 4.41421 20.75 4 20.75C3.58579 20.75 3.25 20.4142 3.25 20C3.25 18.4812 4.48122 17.25 6 17.25C6.78898 17.25 7.49851 17.584 8 18.1162C8.50149 17.584 9.21102 17.25 10 17.25C10.789 17.25 11.4985 17.584 12 18.1162C12.5015 17.584 13.211 17.25 14 17.25C14.789 17.25 15.4985 17.584 16 18.1162C16.5015 17.584 17.211 17.25 18 17.25Z" fill="#202733"/>
  <path fill-rule="evenodd" clip-rule="evenodd" d="M19.1426 3.26367C19.4665 3.32614 19.7186 3.59742 19.7471 3.9375L20.7471 15.9375C20.7815 16.3502 20.4752 16.7126 20.0625 16.7471C19.6498 16.7815 19.2875 16.4752 19.2529 16.0625L18.5605 7.75H5.43945L4.74707 16.0625C4.71255 16.4752 4.3502 16.7815 3.9375 16.7471C3.52484 16.7126 3.21854 16.3502 3.25293 15.9375L4.25293 3.9375L4.27832 3.79688C4.36748 3.47912 4.65862 3.25 5 3.25H19L19.1426 3.26367ZM5.56445 6.25H18.4355L18.3105 4.75H5.68945L5.56445 6.25Z" fill="#202733"/>
  <path d="M8 14.25C8.41421 14.25 8.75 14.5858 8.75 15V16C8.75 16.4142 8.41421 16.75 8 16.75C7.58579 16.75 7.25 16.4142 7.25 16V15C7.25 14.5858 7.58579 14.25 8 14.25Z" fill="#202733"/>
  <path d="M12 14.25C12.4142 14.25 12.75 14.5858 12.75 15V16C12.75 16.4142 12.4142 16.75 12 16.75C11.5858 16.75 11.25 16.4142 11.25 16V15C11.25 14.5858 11.5858 14.25 12 14.25Z" fill="#202733"/>
  <path d="M16 14.25C16.4142 14.25 16.75 14.5858 16.75 15V16C16.75 16.4142 16.4142 16.75 16 16.75C15.5858 16.75 15.25 16.4142 15.25 16V15C15.25 14.5858 15.5858 14.25 16 14.25Z" fill="#202733"/>
  <path d="M8 10.25C8.41421 10.25 8.75 10.5858 8.75 11V13C8.75 13.4142 8.41421 13.75 8 13.75C7.58579 13.75 7.25 13.4142 7.25 13V11C7.25 10.5858 7.58579 10.25 8 10.25Z" fill="#202733"/>
  <path d="M12 10.25C12.4142 10.25 12.75 10.5858 12.75 11V13C12.75 13.4142 12.4142 13.75 12 13.75C11.5858 13.75 11.25 13.4142 11.25 13V11C11.25 10.5858 11.5858 10.25 12 10.25Z" fill="#202733"/>
  <path d="M16 10.25C16.4142 10.25 16.75 10.5858 16.75 11V13C16.75 13.4142 16.4142 13.75 16 13.75C15.5858 13.75 15.25 13.4142 15.25 13V11C15.25 10.5858 15.5858 10.25 16 10.25Z" fill="#202733"/>
</svg>