<svg xmlns="http://www.w3.org/2000/svg" width="24" height="24" viewBox="0 0 24 24" fill="none">
  <path fill-rule="evenodd" clip-rule="evenodd" d="M20 3.25C20.4142 3.25 20.75 3.58579 20.75 4V20C20.75 20.4142 20.4142 20.75 20 20.75H4C3.58579 20.75 3.25 20.4142 3.25 20V4C3.25 3.58579 3.58579 3.25 4 3.25H20ZM6 5.25C5.94713 5.25 5.89548 5.25522 5.8457 5.26562C5.8039 5.27441 5.76312 5.28709 5.72363 5.30273C5.7152 5.30608 5.70653 5.30886 5.69824 5.3125C5.61643 5.3484 5.54145 5.39965 5.47656 5.46289C5.47079 5.46852 5.46555 5.47466 5.45996 5.48047C5.45009 5.49073 5.43999 5.50084 5.43066 5.51172C5.38332 5.567 5.3446 5.62822 5.31543 5.69336C5.31222 5.70052 5.30866 5.70756 5.30566 5.71484C5.28896 5.75551 5.27693 5.79791 5.26758 5.84082C5.26638 5.84637 5.26475 5.85183 5.26367 5.85742C5.26085 5.87197 5.2588 5.88666 5.25684 5.90137C5.25547 5.91174 5.25386 5.92212 5.25293 5.93262C5.25149 5.9485 5.2514 5.96448 5.25098 5.98047C5.25081 5.98697 5.25 5.99346 5.25 6V17.0664C5.25 17.2653 5.32916 17.456 5.46973 17.5967L6.40332 18.5303C6.54396 18.6708 6.73474 18.75 6.93359 18.75H20C20.2189 18.75 20.4269 18.6544 20.5693 18.4883C20.7118 18.3219 20.7749 18.1012 20.7412 17.8848L18.8848 5.95312L18.875 5.88574C18.8257 5.56582 18.5783 5.31953 18.2695 5.2627L18.1338 5.25H6Z" fill="#202733"/>
  <path d="M19.124 16.25H8.50879L6.87598 6.75H17.4912L19.124 16.25Z" fill="#202733"/>
</svg>