<svg xmlns="http://www.w3.org/2000/svg" width="24" height="24" viewBox="0 0 24 24" fill="none">
  <path fill-rule="evenodd" clip-rule="evenodd" d="M20 3.25C20.4142 3.25 20.75 3.58579 20.75 4V20C20.75 20.4142 20.4142 20.75 20 20.75H4C3.58579 20.75 3.25 20.4142 3.25 20V4C3.25 3.58579 3.58579 3.25 4 3.25H20ZM6.75 18.7559L7.24414 19.25H18.6025L18.8525 18.75H7.86621C7.49671 18.7498 7.18279 18.4804 7.12598 18.1152L6.75 15.6982V18.7559ZM4.75 19.25H5.27637C5.26117 19.1902 5.25 19.1291 5.25 19.0664V6C5.25 5.99346 5.25081 5.98697 5.25098 5.98047C5.2514 5.96448 5.25149 5.9485 5.25293 5.93262C5.25386 5.92212 5.25547 5.91174 5.25684 5.90137C5.2588 5.88666 5.26085 5.87197 5.26367 5.85742C5.26475 5.85183 5.26638 5.84637 5.26758 5.84082C5.27693 5.79791 5.28896 5.75551 5.30566 5.71484C5.30866 5.70756 5.31222 5.70052 5.31543 5.69336C5.3446 5.62822 5.38332 5.567 5.43066 5.51172C5.43999 5.50084 5.45009 5.49073 5.45996 5.48047C5.46555 5.47466 5.47079 5.46852 5.47656 5.46289C5.50759 5.43265 5.5408 5.40506 5.57617 5.38086C5.5793 5.37872 5.58278 5.3771 5.58594 5.375C5.62176 5.35128 5.65901 5.32972 5.69824 5.3125C5.70653 5.30886 5.7152 5.30608 5.72363 5.30273C5.76312 5.28709 5.8039 5.27441 5.8457 5.26562C5.89548 5.25522 5.94713 5.25 6 5.25H18.1338L18.2695 5.2627C18.5783 5.31953 18.8257 5.56582 18.875 5.88574L18.8975 6.03418L19.25 8.2998V4.75H4.75V19.25ZM8.50879 17.25H19.1045L17.4893 6.75H6.87598L8.50879 17.25Z" fill="#202733"/>
</svg>