<svg xmlns="http://www.w3.org/2000/svg" width="24" height="24" viewBox="0 0 24 24" fill="none">
  <path fill-rule="evenodd" clip-rule="evenodd" d="M18 20.75C18.4142 20.75 18.75 20.4142 18.75 20C18.75 19.5858 18.4142 19.25 18 19.25H17.75V16.75H18C18.4142 16.75 18.75 16.4142 18.75 16C18.75 15.5858 18.4142 15.25 18 15.25H17.75V8.75H18C18.4142 8.75 18.75 8.41421 18.75 8C18.75 7.58579 18.4142 7.25 18 7.25H17.75V4.75H18C18.4142 4.75 18.75 4.41421 18.75 4C18.75 3.58579 18.4142 3.25 18 3.25H6C5.58579 3.25 5.25 3.58579 5.25 4C5.25 4.41421 5.58579 4.75 6 4.75H6.25V7.25H6C5.58579 7.25 5.25 7.58579 5.25 8C5.25 8.41421 5.58579 8.75 6 8.75H6.25V15.25H6C5.58579 15.25 5.25 15.5858 5.25 16C5.25 16.4142 5.58579 16.75 6 16.75H6.25V19.25H6C5.58579 19.25 5.25 19.5858 5.25 20C5.25 20.4142 5.58579 20.75 6 20.75H18ZM13.7031 14.0449C12.7626 14.9851 11.2374 14.9851 10.2969 14.0449C9.35643 13.1044 9.3566 11.5793 10.2969 10.6387L11.4697 9.46582C11.7626 9.17298 12.2374 9.17308 12.5303 9.46582L13.7031 10.6387C14.6434 11.5793 14.6436 13.1045 13.7031 14.0449Z" fill="#202733"/>
</svg>