<svg xmlns="http://www.w3.org/2000/svg" width="24" height="24" viewBox="0 0 24 24" fill="none">
  <path fill-rule="evenodd" clip-rule="evenodd" d="M12 2.25C12.3821 2.25002 12.7029 2.53729 12.7451 2.91699L13.2266 7.25H15.25V6.75H15C14.5858 6.75 14.25 6.41421 14.25 6C14.25 5.58579 14.5858 5.25 15 5.25H19C19.4142 5.25002 19.75 5.5858 19.75 6C19.75 6.4142 19.4142 6.74998 19 6.75H18.75V7.25H19C19.4142 7.25002 19.75 7.5858 19.75 8V11.25H20C20.4142 11.25 20.75 11.5858 20.75 12V14C20.75 14.4142 20.4142 14.75 20 14.75H19.75V17.6895L20.1475 18.0869L21.6651 17.3291C22.0355 17.1442 22.4858 17.2947 22.6709 17.665C22.8559 18.0354 22.7053 18.4857 22.335 18.6709L20.335 19.6709C20.0463 19.815 19.6979 19.7584 19.4698 19.5303L18.8516 18.9121L17.335 19.6709C17.0463 19.815 16.6979 19.7584 16.4698 19.5303L15.8516 18.9121L14.335 19.6709C14.0463 19.815 13.6979 19.7584 13.4698 19.5303L12.8516 18.9121L11.335 19.6709C11.0463 19.815 10.6979 19.7584 10.4698 19.5303L9.85159 18.9121L8.33499 19.6709C8.04633 19.815 7.69793 19.7584 7.46976 19.5303L6.85159 18.9121L5.33499 19.6709C5.04633 19.815 4.69793 19.7584 4.46976 19.5303L3.85159 18.9121L2.33499 19.6709C1.96458 19.8558 1.51431 19.7053 1.32913 19.335C1.14421 18.9646 1.29472 18.5143 1.66507 18.3291L3.66507 17.3291L3.77542 17.2842C3.93208 17.235 4.09855 17.2403 4.25003 17.2939V14.75H4.00003C3.58582 14.75 3.25003 14.4142 3.25003 14V12C3.25003 11.5858 3.58582 11.25 4.00003 11.25H5.25003L5.24905 9.24805L2.39945 5.4502C2.15106 5.11886 2.21857 4.64792 2.54984 4.39941C2.88119 4.15111 3.35215 4.21852 3.60062 4.5498L6.37503 8.24902H8.66214L9.25491 2.91699L9.28323 2.7793C9.37824 2.46995 9.66571 2.25 10 2.25H12ZM7.75003 17.6895L8.14749 18.0869L9.66507 17.3291L9.77542 17.2842C10.0387 17.2015 10.3306 17.2701 10.5303 17.4697L11.1475 18.0869L11.251 18.0342C11.2505 18.0228 11.25 18.0115 11.25 18V15.75H11C10.5858 15.75 10.25 15.4142 10.25 15V14.75H7.75003V17.6895ZM13.75 15C13.75 15.4142 13.4142 15.75 13 15.75H12.75V17.2939L12.7754 17.2842C13.0387 17.2015 13.3306 17.2701 13.5303 17.4697L14.1475 18.0869L15.6651 17.3291L15.7754 17.2842C15.9321 17.235 16.0986 17.2403 16.25 17.2939V14.75H13.75V15ZM5.75003 17.7852L6.25003 17.5361V14.75H5.75003V17.7852ZM17.75 17.7852L18.25 17.5361V14.75H17.75V17.7852ZM4.75003 13.25H19.25V12.75H4.75003V13.25ZM6.75003 11.249L8.25003 11.25V9.74902H6.75003V11.249ZM9.83792 11.25H12.1621L12.1524 11.1641C12.1292 11.1519 12.1063 11.1388 12.084 11.124L10.0049 9.73828L9.83792 11.25ZM13.75 11.25H18.25V8.75H13.75V11.25ZM10.1914 8.05957L11.9366 9.22266L11.7686 7.70898C11.6923 7.68411 11.6176 7.6504 11.5498 7.59961L10.3438 6.69434L10.1914 8.05957ZM16.75 7.25H17.25V6.75H16.75V7.25ZM10.5352 4.96387L11.5479 5.72363L11.3291 3.75H10.6709L10.5352 4.96387Z" fill="#202733"/>
</svg>