<svg xmlns="http://www.w3.org/2000/svg" width="24" height="24" viewBox="0 0 24 24" fill="none">
  <path d="M16.6241 19.4159C16.3944 19.7605 15.9287 19.8537 15.5841 19.6239C15.2394 19.3941 15.1463 18.9285 15.3761 18.5838L19.376 12.584C19.6057 12.2393 20.0714 12.1462 20.416 12.376C20.7607 12.6057 20.8538 13.0714 20.6241 13.416L16.6241 19.4159Z" fill="#202733"/>
  <path d="M14.1237 18.2603L17.1233 18.7602C17.5319 18.8283 17.8079 19.2147 17.7398 19.6233C17.6717 20.0319 17.2853 20.3079 16.8767 20.2398L13.8771 19.7399C13.4685 19.6718 13.1925 19.2853 13.2606 18.8768C13.3287 18.4682 13.7151 18.1922 14.1237 18.2603Z" fill="#202733"/>
  <path d="M21.5839 14.624L18.584 12.624C18.2393 12.3943 18.1462 11.9286 18.376 11.584C18.6057 11.2393 19.0714 11.1462 19.416 11.376L22.416 13.3759C22.7606 13.6057 22.8538 14.0713 22.624 14.416C22.3942 14.7606 21.9286 14.8538 21.5839 14.624Z" fill="#202733"/>
  <path d="M12.4358 11.3896L19.4359 16.3897C19.773 16.6305 19.8511 17.0989 19.6103 17.4359C19.3696 17.773 18.9011 17.8511 18.5641 17.6103L11.5639 12.6102C11.227 12.3694 11.1488 11.901 11.3895 11.564C11.6303 11.227 12.0987 11.149 12.4358 11.3896Z" fill="#202733"/>
  <path d="M10.25 22L10.25 14C10.25 13.5858 10.5858 13.25 11 13.25C11.4142 13.25 11.75 13.5858 11.75 14L11.75 22C11.75 22.4142 11.4142 22.75 11 22.75C10.5858 22.75 10.25 22.4142 10.25 22Z" fill="#202733"/>
  <path d="M5.584 2.62403C5.23935 2.39426 5.14623 1.92864 5.37599 1.58399C5.60576 1.23934 6.07138 1.14622 6.41603 1.37598L9.41603 3.37598C9.62468 3.51508 9.75001 3.74924 9.75001 4.00001C9.75001 4.25077 9.62468 4.48493 9.41603 4.62403L7.49123 5.90723L10.335 7.32911C10.5798 7.45153 10.7385 7.69815 10.749 7.97169C10.7594 8.24505 10.6204 8.5028 10.3858 8.64356L8.95802 9.50001L10.3858 10.3565C10.7408 10.5695 10.8564 11.0306 10.6436 11.3857C10.4305 11.7408 9.96942 11.8564 9.61427 11.6436L7.11427 10.1436L7.03322 10.0869C6.85571 9.94578 6.75001 9.73031 6.75001 9.50001C6.75001 9.23656 6.88837 8.99199 7.11427 8.85645L8.4424 8.05958L5.66505 6.6709C5.426 6.55138 5.26768 6.31362 5.25099 6.04688C5.23438 5.78004 5.36155 5.52428 5.584 5.37598L7.64748 4.00001L5.584 2.62403Z" fill="#202733"/>
</svg>