<svg width="24" height="24" viewBox="0 0 24 24" fill="none" xmlns="http://www.w3.org/2000/svg">
<path fill-rule="evenodd" clip-rule="evenodd" d="M10 15.25C10.4142 15.25 10.75 15.5858 10.75 16V18C10.75 18.4142 10.4142 18.75 10 18.75H8C7.58579 18.75 7.25 18.4142 7.25 18V16C7.25 15.5858 7.58579 15.25 8 15.25H10ZM8.75 17.25H9.25V16.75H8.75V17.25Z" fill="#202733"/>
<path fill-rule="evenodd" clip-rule="evenodd" d="M17 9.25C17.4142 9.25 17.75 9.58579 17.75 10V14C17.75 14.4142 17.4142 14.75 17 14.75H7C6.58579 14.75 6.25 14.4142 6.25 14V10C6.25 9.58579 6.58579 9.25 7 9.25H17ZM7.75 13.25H16.25V10.75H7.75V13.25Z" fill="#202733"/>
<path d="M11.9697 4.46973C12.2626 4.17683 12.7374 4.17684 13.0303 4.46973C13.3232 4.76262 13.3232 5.23738 13.0303 5.53027L12.5605 6L13.0303 6.46973C13.3232 6.76262 13.3232 7.23738 13.0303 7.53027L12.0303 8.53027C11.7374 8.82317 11.2626 8.82317 10.9697 8.53027C10.6768 8.23738 10.6768 7.76262 10.9697 7.46973L11.4395 7L10.9697 6.53027C10.6768 6.23738 10.6768 5.76262 10.9697 5.46973L11.9697 4.46973Z" fill="#202733"/>
<path fill-rule="evenodd" clip-rule="evenodd" d="M21 1.25C21.4142 1.25 21.75 1.58579 21.75 2V22C21.75 22.4142 21.4142 22.75 21 22.75H3C2.58579 22.75 2.25 22.4142 2.25 22V2C2.25 1.58579 2.58579 1.25 3 1.25H21ZM3.75 21.25H20.25V2.75H3.75V21.25Z" fill="#202733"/>
<path fill-rule="evenodd" clip-rule="evenodd" d="M16 15.25C16.4142 15.25 16.75 15.5858 16.75 16V18C16.75 18.4142 16.4142 18.75 16 18.75H14C13.5858 18.75 13.25 18.4142 13.25 18V16C13.25 15.5858 13.5858 15.25 14 15.25H16ZM14.75 17.25H15.25V16.75H14.75V17.25Z" fill="#202733"/>
</svg>