<svg xmlns="http://www.w3.org/2000/svg" width="24" height="24" viewBox="0 0 24 24" fill="none">
  <path fill-rule="evenodd" clip-rule="evenodd" d="M20 8.25C20.4142 8.25 20.75 8.58579 20.75 9V19C20.75 19.4142 20.4142 19.75 20 19.75H4C3.58579 19.75 3.25 19.4142 3.25 19V9C3.25 8.58579 3.58579 8.25 4 8.25H20ZM16.75 18.25H19.25V9.75H16.75V18.25ZM12.75 18.25H15.25V9.75H12.75V18.25ZM8.75 18.25H11.25V9.75H8.75V18.25ZM4.75 18.25H7.25V9.75H4.75V18.25Z" fill="#202733"/>
  <path d="M18 4.25C18.4142 4.25 18.75 4.58579 18.75 5C18.75 6.51878 17.5188 7.75 16 7.75C15.2108 7.75 14.5015 7.41534 14 6.88281C13.4985 7.41534 12.7892 7.75 12 7.75C11.2108 7.75 10.5015 7.41534 10 6.88281C9.49849 7.41534 8.78923 7.75 8 7.75C6.48122 7.75 5.25 6.51878 5.25 5C5.25 4.58579 5.58579 4.25 6 4.25C6.41421 4.25 6.75 4.58579 6.75 5C6.75 5.69036 7.30964 6.25 8 6.25C8.69036 6.25 9.25 5.69036 9.25 5C9.25 4.58579 9.58579 4.25 10 4.25C10.4142 4.25 10.75 4.58579 10.75 5C10.75 5.69036 11.3096 6.25 12 6.25C12.6904 6.25 13.25 5.69036 13.25 5C13.25 4.58579 13.5858 4.25 14 4.25C14.4142 4.25 14.75 4.58579 14.75 5C14.75 5.69036 15.3096 6.25 16 6.25C16.6904 6.25 17.25 5.69036 17.25 5C17.25 4.58579 17.5858 4.25 18 4.25Z" fill="#202733"/>
</svg>