<svg width="24" height="24" viewBox="0 0 24 24" fill="none" xmlns="http://www.w3.org/2000/svg">
<path d="M21 1.25C21.4142 1.25 21.75 1.58579 21.75 2V22C21.75 22.4142 21.4142 22.75 21 22.75H3C2.58579 22.75 2.25 22.4142 2.25 22V2C2.25 1.58579 2.58579 1.25 3 1.25H21ZM8 15.25C7.58579 15.25 7.25 15.5858 7.25 16V18C7.25 18.4142 7.58579 18.75 8 18.75H10C10.4142 18.75 10.75 18.4142 10.75 18V16C10.75 15.5858 10.4142 15.25 10 15.25H8ZM14 15.25C13.5858 15.25 13.25 15.5858 13.25 16V18C13.25 18.4142 13.5858 18.75 14 18.75H16C16.4142 18.75 16.75 18.4142 16.75 18V16C16.75 15.5858 16.4142 15.25 16 15.25H14ZM8 10.25C7.58579 10.25 7.25 10.5858 7.25 11V13C7.25 13.4142 7.58579 13.75 8 13.75H16C16.4142 13.75 16.75 13.4142 16.75 13V11C16.75 10.5858 16.4142 10.25 16 10.25H8ZM13.0303 4.46973C12.7374 4.17684 12.2626 4.17684 11.9697 4.46973L10.9697 5.46973C10.6768 5.76262 10.6768 6.23738 10.9697 6.53027L11.4395 7L10.9697 7.46973C10.6768 7.76262 10.6768 8.23738 10.9697 8.53027C11.2626 8.82317 11.7374 8.82317 12.0303 8.53027L13.0303 7.53027C13.3232 7.23738 13.3232 6.76262 13.0303 6.46973L12.5605 6L13.0303 5.53027C13.3232 5.23738 13.3232 4.76262 13.0303 4.46973Z" fill="#202733"/>
</svg>