<svg xmlns="http://www.w3.org/2000/svg" width="24" height="24" viewBox="0 0 24 24" fill="none">
  <path d="M12 14C12.8284 14 13.5 14.6716 13.5 15.5V16H10.5V15.5C10.5 14.6716 11.1716 14 12 14Z" fill="#202733"/>
  <path d="M10 13H8V9H10V13Z" fill="#202733"/>
  <path d="M16 13H14V9H16V13Z" fill="#202733"/>
  <path fill-rule="evenodd" clip-rule="evenodd" d="M12 3.25C16.8325 3.25 20.75 7.16751 20.75 12C20.75 16.8325 16.8325 20.75 12 20.75C7.16751 20.75 3.25 16.8325 3.25 12C3.25 7.16751 7.16751 3.25 12 3.25ZM12 4.75C7.99594 4.75 4.75 7.99594 4.75 12C4.75 16.0041 7.99594 19.25 12 19.25C16.0041 19.25 19.25 16.0041 19.25 12C19.25 7.99594 16.0041 4.75 12 4.75Z" fill="#202733"/>
</svg>