<svg xmlns="http://www.w3.org/2000/svg" width="24" height="24" viewBox="0 0 24 24" fill="none">
  <path d="M12 3.25C16.8325 3.25 20.75 7.16751 20.75 12C20.75 16.8325 16.8325 20.75 12 20.75C7.16751 20.75 3.25 16.8325 3.25 12C3.25 7.16751 7.16751 3.25 12 3.25ZM9 10.25C8.0335 10.25 7.25 11.0335 7.25 12C7.25 12.9665 8.0335 13.75 9 13.75C9.9665 13.75 10.75 12.9665 10.75 12C10.75 11.0335 9.9665 10.25 9 10.25ZM15 10.25C14.0335 10.25 13.25 11.0335 13.25 12C13.25 12.9665 14.0335 13.75 15 13.75C15.9665 13.75 16.75 12.9665 16.75 12C16.75 11.0335 15.9665 10.25 15 10.25Z" fill="#202733"/>
</svg>