<svg xmlns="http://www.w3.org/2000/svg" width="24" height="24" viewBox="0 0 24 24" fill="none">
  <path fill-rule="evenodd" clip-rule="evenodd" d="M20 12.25C20.2598 12.25 20.501 12.3845 20.6377 12.6055C20.7743 12.8265 20.7869 13.1026 20.6709 13.335L17.6709 19.335C17.6605 19.3557 17.6478 19.375 17.6357 19.3945C17.63 19.4038 17.6243 19.4129 17.6182 19.4219C17.5942 19.457 17.5673 19.4893 17.5381 19.5195C17.5304 19.5275 17.5227 19.5353 17.5146 19.543C17.4912 19.5652 17.4664 19.5855 17.4404 19.6045C17.4295 19.6125 17.4186 19.6205 17.4072 19.6279C17.3729 19.6502 17.3373 19.6701 17.2998 19.6865C17.2881 19.6916 17.2757 19.6947 17.2637 19.6992C17.2334 19.7107 17.2026 19.7201 17.1709 19.7275C17.1525 19.7318 17.1341 19.7363 17.1152 19.7393C17.1097 19.7401 17.1042 19.7414 17.0986 19.7422C17.0663 19.7464 17.0335 19.75 17 19.75H5C4.74019 19.75 4.49899 19.6155 4.3623 19.3945C4.22573 19.1735 4.21307 18.8974 4.3291 18.665L7.3291 12.665C7.45615 12.411 7.71592 12.25 8 12.25H20ZM6.21387 18.25H7.53613L8.28613 16.75H7C6.98787 16.75 6.97586 16.7486 6.96387 16.748L6.21387 18.25ZM9.21387 18.25H10.5361L11.2861 16.75H9.96387L9.21387 18.25ZM12.2139 18.25H13.5361L14.2861 16.75H12.9639L12.2139 18.25ZM15.2139 18.25H16.5361L17.2861 16.75H15.9639L15.2139 18.25ZM7.71387 15.25H9.03613L9.78613 13.75H8.46387L7.71387 15.25ZM10.7139 15.25H12.0361L12.7861 13.75H11.4639L10.7139 15.25ZM13.7139 15.25H15.0361L15.7861 13.75H14.4639L13.7139 15.25ZM16.7139 15.25H18.0361L18.7861 13.75H17.4639L16.7139 15.25Z" fill="#202733"/>
  <path fill-rule="evenodd" clip-rule="evenodd" d="M6.99805 2.25977C7.41211 2.25977 7.74781 2.59576 7.74805 3.00977V4.35547C7.95671 4.41438 8.15547 4.49585 8.34082 4.59961L9.29492 3.64648C9.58782 3.35359 10.0626 3.35359 10.3555 3.64648C10.6483 3.93938 10.6484 4.41414 10.3555 4.70703L9.40039 5.66113C9.50342 5.84545 9.58484 6.04265 9.64355 6.25H11C11.4142 6.25 11.75 6.58579 11.75 7C11.75 7.41421 11.4142 7.75 11 7.75H9.64355C9.58525 7.95592 9.50438 8.15174 9.40234 8.33496L10.3643 9.29688C10.657 9.58977 10.6571 10.0646 10.3643 10.3574C10.0714 10.6503 9.59661 10.6502 9.30371 10.3574L8.34375 9.39746C8.16092 9.50015 7.9654 9.58157 7.75977 9.64062V11.002C7.75953 11.416 7.42383 11.752 7.00977 11.752C6.59591 11.7517 6.26 11.4158 6.25977 11.002V9.64551C6.0528 9.58772 5.85508 9.50914 5.6709 9.40723L4.71387 10.3652C4.42097 10.6581 3.94524 10.6581 3.65234 10.3652C3.35994 10.0723 3.35967 9.59743 3.65234 9.30469L4.60645 8.35059C4.50225 8.16633 4.41914 7.96926 4.35938 7.76172H3.00879C2.59458 7.76172 2.25879 7.42593 2.25879 7.01172C2.2588 6.59751 2.59458 6.26172 3.00879 6.26172H4.35352C4.41186 6.05214 4.49216 5.85224 4.5957 5.66602L3.64453 4.71484C3.3517 4.42195 3.35166 3.94717 3.64453 3.6543C3.93741 3.36145 4.41219 3.36148 4.70508 3.6543L5.65332 4.60254C5.83915 4.49793 6.03865 4.41589 6.24805 4.35645V3.00977C6.24829 2.5959 6.58418 2.26 6.99805 2.25977ZM7 5.75C6.30965 5.75 5.75 6.30965 5.75 7C5.75 7.69035 6.30965 8.25 7 8.25C7.69036 8.25 8.25 7.69035 8.25 7C8.25 6.30964 7.69036 5.75 7 5.75Z" fill="#202733"/>
</svg>