<svg xmlns="http://www.w3.org/2000/svg" width="24" height="24" viewBox="0 0 24 24" fill="none">
  <path fill-rule="evenodd" clip-rule="evenodd" d="M16.0068 9.625C16.214 9.26639 16.6726 9.14351 17.0312 9.35059C17.3898 9.5577 17.5126 10.0163 17.3057 10.375L14.4902 15.25C15.2628 15.9368 15.7499 16.9377 15.75 18.0527L15.7451 18.2461C15.6445 20.2273 14.0062 21.8027 12 21.8027C9.99378 21.8027 8.35551 20.2273 8.25488 18.2461L8.25 18.0527C8.25013 15.9818 9.92901 14.3027 12 14.3027C12.4169 14.3027 12.8178 14.3715 13.1924 14.4971L16.0068 9.625Z" fill="#202733"/>
  <path fill-rule="evenodd" clip-rule="evenodd" d="M12 2.25C14.0711 2.25 15.75 3.92893 15.75 6L15.7451 6.19336C15.6445 8.17457 14.0062 9.75 12 9.75C9.99378 9.75 8.35551 8.17457 8.25488 6.19336L8.25 6C8.25 3.92893 9.92893 2.25 12 2.25Z" fill="#202733"/>
</svg>