<svg width="24" height="24" viewBox="0 0 24 24" fill="none" xmlns="http://www.w3.org/2000/svg">
<path d="M17.25 12C17.25 9.10052 14.8995 6.75001 12 6.75001C9.1005 6.75001 6.75 9.10052 6.75 12L6.75684 12.2705C6.89762 15.0443 9.19123 17.25 12 17.25C14.8995 17.25 17.25 14.8995 17.25 12ZM18.7412 12.3477C18.5603 15.914 15.6113 18.75 12 18.75C8.38868 18.75 5.43973 15.914 5.25879 12.3477L5.25 12C5.25 8.27209 8.27208 5.25001 12 5.25001C15.7279 5.25001 18.75 8.27209 18.75 12L18.7412 12.3477Z" fill="#202733"/>
<path d="M2.25 7.00001C2.25 6.5858 2.58579 6.25001 3 6.25001C3.41421 6.25001 3.75 6.5858 3.75 7.00001V11.25H5.75C6.16421 11.25 6.5 11.5858 6.5 12C6.5 12.4142 6.16421 12.75 5.75 12.75H3C2.58579 12.75 2.25 12.4142 2.25 12V7.00001Z" fill="#202733"/>
<path d="M21.2051 6.05627C21.5638 6.26337 21.6868 6.72207 21.4796 7.08079C21.2725 7.43951 20.8138 7.56241 20.4551 7.3553L16.7745 5.2303L15.7528 7C15.5457 7.35872 15.087 7.48163 14.7283 7.27452C14.3695 7.06741 14.2466 6.60872 14.4537 6.25L15.8505 3.83079C15.9499 3.65852 16.1138 3.5329 16.3059 3.48142C16.498 3.42994 16.7027 3.45681 16.875 3.55627L21.2051 6.05627Z" fill="#202733"/>
<path d="M12.5449 22.9438C12.1862 23.1509 11.7275 23.028 11.5204 22.6692C11.3132 22.3105 11.4362 21.8518 11.7949 21.6447L15.4755 19.5197L14.5 17.8301C14.2931 17.4715 14.4159 17.0127 14.7745 16.8056C15.1332 16.5986 15.5919 16.7216 15.799 17.0801L17.1495 19.4192C17.249 19.5915 17.2758 19.7962 17.2244 19.9883C17.1729 20.1805 17.0473 20.3443 16.875 20.4438L12.5449 22.9438Z" fill="#202733"/>
<path d="M12 5.25C15.7279 5.25 18.75 8.27208 18.75 12C18.75 15.7279 15.7279 18.75 12 18.75C8.27208 18.75 5.25 15.7279 5.25 12C5.25 8.27208 8.27208 5.25 12 5.25ZM14.3818 14.625C14.1747 14.2666 13.716 14.1438 13.3574 14.3506C12.9989 14.5576 12.8752 15.0163 13.082 15.375L13.9482 16.875C14.4189 16.6867 14.8552 16.4321 15.2471 16.123L14.3818 14.625ZM6.80469 11.25C6.76963 11.495 6.75 11.7453 6.75 12C6.75 12.2547 6.76964 12.505 6.80469 12.75H9C9.41418 12.75 9.74995 12.4142 9.75 12C9.74989 11.5859 9.41415 11.25 9 11.25H6.80469ZM12.8506 9.02734C12.6437 9.38601 12.7664 9.84469 13.125 10.0518C13.4836 10.2587 13.9422 10.1357 14.1494 9.77734L15.2461 7.87598C14.8545 7.56731 14.4184 7.31307 13.9482 7.125L12.8506 9.02734Z" fill="#202733"/>
</svg>
