<svg width="24" height="24" viewBox="0 0 24 24" fill="none" xmlns="http://www.w3.org/2000/svg">
<path fill-rule="evenodd" clip-rule="evenodd" d="M16.3057 3.48136C16.4978 3.42988 16.7027 3.4571 16.875 3.55655L21.2051 6.05656C21.5637 6.26368 21.6866 6.72228 21.4795 7.08097C21.2723 7.43954 20.8137 7.56245 20.4551 7.35538L16.7744 5.23038L16.0029 6.56534C17.6689 7.79448 18.75 9.77072 18.75 11.9999L18.7412 12.3476C18.6354 14.4336 17.5815 16.2686 16.0029 17.4335L17.1494 19.4189C17.2488 19.5911 17.276 19.7961 17.2246 19.9882C17.1731 20.1803 17.0473 20.3448 16.875 20.4443L12.5449 22.9443C12.1862 23.1512 11.7276 23.0275 11.5205 22.6689C11.3136 22.3102 11.4363 21.8515 11.7949 21.6444L15.4756 19.5194L14.7041 18.1835C13.8759 18.5462 12.962 18.7499 12 18.7499C8.52561 18.7499 5.66609 16.1248 5.29297 12.7499H3C2.58579 12.7499 2.25 12.4141 2.25 11.9999V6.99991C2.25006 6.58575 2.58582 6.24991 3 6.24991C3.41418 6.24991 3.74994 6.58575 3.75 6.99991V11.2499H5.29297C5.66619 7.8751 8.52569 5.24991 12 5.24991C12.9618 5.24991 13.876 5.45277 14.7041 5.81534L15.8506 3.83097C15.95 3.65877 16.1136 3.53288 16.3057 3.48136ZM12 6.74991C9.35526 6.74991 7.16875 8.70585 6.80469 11.2499H9C9.41418 11.2499 9.74994 11.5858 9.75 11.9999C9.75 12.4141 9.41421 12.7499 9 12.7499H6.80371C7.16762 15.2941 9.35514 17.2499 12 17.2499C12.6886 17.2499 13.3457 17.1159 13.9482 16.8749L13.082 15.3749C12.8752 15.0162 12.9988 14.5575 13.3574 14.3505C13.716 14.1437 14.1747 14.2664 14.3818 14.6249L15.2471 16.123C16.4661 15.1616 17.25 13.6729 17.25 11.9999C17.25 10.3264 16.4658 8.83723 15.2461 7.87589L14.1494 9.77726C13.9422 10.1357 13.4836 10.2587 13.125 10.0517C12.7663 9.8446 12.6436 9.38595 12.8506 9.02726L13.9482 7.12491C13.3457 6.8839 12.6886 6.74991 12 6.74991Z" fill="#202733"/>
</svg>
