<svg xmlns="http://www.w3.org/2000/svg" width="24" height="24" viewBox="0 0 24 24" fill="none">
  <path fill-rule="evenodd" clip-rule="evenodd" d="M12 2.25C15.7279 2.25 18.75 5.27208 18.75 9C18.75 10.078 18.4953 11.096 18.0459 12C18.4953 12.904 18.75 13.922 18.75 15C18.75 18.7279 15.7279 21.75 12 21.75C8.27208 21.75 5.25 18.7279 5.25 15C5.25 13.9221 5.50383 12.9039 5.95312 12C5.50383 11.0961 5.25 10.0779 5.25 9C5.25 5.27208 8.27208 2.25 12 2.25ZM17.0303 13.498C15.7943 14.8793 13.9994 15.75 12 15.75C10.0003 15.75 8.20475 14.8796 6.96875 13.498C6.82689 13.974 6.75 14.478 6.75 15C6.75 17.8995 9.10051 20.25 12 20.25C14.8995 20.25 17.25 17.8995 17.25 15C17.25 14.4779 17.1722 13.974 17.0303 13.498ZM12 9.75C10.216 9.75 8.64013 10.64 7.69141 12C8.64013 13.36 10.216 14.25 12 14.25C13.7838 14.25 15.3589 13.3598 16.3076 12C15.3589 10.6402 13.7838 9.75 12 9.75ZM12 3.75C9.10051 3.75 6.75 6.10051 6.75 9C6.75 9.52169 6.82706 10.0253 6.96875 10.501C8.20474 9.11972 10.0006 8.25 12 8.25C13.9992 8.25 15.7943 9.12 17.0303 10.501C17.172 10.0252 17.25 9.52179 17.25 9C17.25 6.10051 14.8995 3.75 12 3.75Z" fill="#202733"/>
</svg>