<svg xmlns="http://www.w3.org/2000/svg" width="24" height="24" viewBox="0 0 24 24" fill="none">
  <path fill-rule="evenodd" clip-rule="evenodd" d="M14.7753 5.97661C16.426 5.81154 18.3125 6.25212 20.0302 7.96977C21.0138 8.95336 21.3112 9.93743 21.2099 10.7237C21.1621 11.0941 21.0205 11.4395 20.7968 11.6827C20.6947 11.7936 20.5062 11.9575 20.2324 12.0049C20.0823 12.0309 19.9012 12.0207 19.7226 11.9356C19.5442 11.8506 19.4223 11.7164 19.3476 11.585C19.0071 10.9869 18.4796 10.7824 17.9511 10.7481C17.3636 10.71 16.7749 10.8064 16.2314 11.0293C15.6879 11.2523 15.2043 11.5963 14.8173 12.0332C14.4304 12.4702 14.1505 12.9888 13.999 13.5489C13.8474 14.109 13.8282 14.6961 13.9423 15.2647C14.0565 15.8333 14.3011 16.3692 14.6582 16.8301C15.0153 17.291 15.4754 17.6653 16.0029 17.9229C16.4029 18.1182 17.4844 18.4524 18.621 18.7481C19.174 18.8919 19.7159 19.0205 20.1582 19.1123C20.6305 19.2105 20.9148 19.25 21 19.25C21.3787 19.25 21.6977 19.5324 21.7441 19.9082C21.7904 20.2842 21.5491 20.6357 21.1816 20.7276L19.1816 21.2276C19.0623 21.2573 18.9376 21.2574 18.8183 21.2276L17 20.7725L15.1816 21.2276C15.0623 21.2573 14.9376 21.2574 14.8183 21.2276L13 20.7725L11.1816 21.2276C11.0623 21.2573 10.9376 21.2574 10.8183 21.2276L8.99995 20.7725L7.18159 21.2276C7.06233 21.2573 6.93757 21.2574 6.81831 21.2276L4.9814 20.7676L2.64741 21.2354C2.33636 21.2976 2.01934 21.157 1.8564 20.8848C1.6937 20.6127 1.71918 20.2672 1.92085 20.0225C4.34289 17.0838 5.86461 14.5564 7.14839 12.461C8.41437 10.3946 9.50401 8.64474 11.0419 7.46001C11.8052 6.87212 13.1611 6.13807 14.7753 5.97661ZM18.9697 9.03032C17.5923 7.65298 16.1598 7.34534 14.9248 7.46879C13.6533 7.59598 12.5564 8.18753 11.958 8.64848C10.6796 9.6332 9.72776 11.1222 8.42769 13.2442C7.37877 14.9563 6.1362 17.0138 4.35249 19.3643L4.85249 19.2647L4.9355 19.253C5.01786 19.2459 5.10102 19.2524 5.18159 19.2725L6.99995 19.7266L8.81831 19.2725L8.90816 19.2559C8.9993 19.2447 9.09199 19.2501 9.18159 19.2725L11 19.7266L12.8183 19.2725L12.9082 19.2559C12.9993 19.2447 13.092 19.2501 13.1816 19.2725L15 19.7266L15.9062 19.5C15.6827 19.419 15.4905 19.3418 15.3447 19.2706C14.6118 18.9126 13.971 18.3923 13.4726 17.7491C12.9742 17.1058 12.6316 16.3569 12.4716 15.5606C12.3117 14.7642 12.3386 13.9415 12.5507 13.1573C12.7629 12.3731 13.1547 11.6485 13.6943 11.0391C14.2339 10.4297 14.9073 9.95132 15.6621 9.64165C16.4169 9.33199 17.234 9.19912 18.0488 9.252C18.4981 9.2812 18.9991 9.3951 19.4697 9.65629C19.3559 9.4691 19.1973 9.2579 18.9697 9.03032Z" fill="#202733"/>
  <path d="M17.7197 12.9698C18.0126 12.6771 18.4874 12.6769 18.7802 12.9698C19.0729 13.2626 19.0729 13.7374 18.7802 14.0303L18.3105 14.5L18.7802 14.9698C19.0729 15.2626 19.0729 15.7375 18.7802 16.0303L17.7802 17.0303C17.4874 17.3231 17.0126 17.323 16.7197 17.0303C16.4269 16.7374 16.4269 16.2626 16.7197 15.9698L17.1894 15.5L16.7197 15.0303C16.4268 14.7375 16.427 14.2627 16.7197 13.9698L17.7197 12.9698Z" fill="#202733"/>
</svg>