<svg xmlns="http://www.w3.org/2000/svg" width="24" height="24" viewBox="0 0 24 24" fill="none">
  <path d="M11.8049 15.0137C12.2776 15.2866 12.8283 15.5626 13.4075 15.8242L13.7483 21.958C13.7712 22.3713 13.4544 22.7256 13.0412 22.749C12.0149 22.8049 10.9836 22.8054 9.95726 22.749C9.54448 22.7252 9.22732 22.371 9.25023 21.958L9.59007 15.8369C10.174 15.5733 10.73 15.2955 11.2063 15.0205C11.3095 14.9609 11.4117 14.8971 11.511 14.8301C11.607 14.8946 11.7052 14.9561 11.8049 15.0137Z" fill="#202733"/>
  <path fill-rule="evenodd" clip-rule="evenodd" d="M11.5002 1.25C11.9068 1.25024 12.1947 1.48295 12.3586 1.66406C12.5286 1.85211 12.6613 2.08629 12.7659 2.31348C12.9777 2.7739 13.1529 3.37635 13.2932 4.00879C13.5755 5.2816 13.7502 6.83657 13.7502 8C13.7502 8.27422 13.7188 8.54389 13.6594 8.80078C13.8227 9.00798 13.9562 9.23918 14.0549 9.48828C14.3113 9.56535 14.5655 9.67418 14.8069 9.81348C15.8143 10.3952 17.0736 11.325 18.0344 12.2061C18.3635 12.5079 18.671 12.8186 18.927 13.1172C19.0424 13.2517 19.1485 13.3831 19.2395 13.5117L19.345 13.6699C19.3909 13.7426 19.4336 13.8183 19.4729 13.8955C19.4813 13.912 19.4893 13.9287 19.4973 13.9453C19.5356 14.0252 19.5702 14.1066 19.5969 14.1895L19.6467 14.3867C19.6558 14.4386 19.6616 14.4936 19.6643 14.5508C19.6646 14.5573 19.6651 14.5638 19.6653 14.5703C19.6673 14.6354 19.6639 14.7031 19.6536 14.7725C19.6357 14.8923 19.5974 15.0169 19.5266 15.1396C19.3414 15.46 19.038 15.5961 18.8049 15.6572C18.7818 15.6633 18.7601 15.6711 18.7385 15.6758C18.6148 15.7024 18.4857 15.7145 18.3567 15.7178C18.2277 15.721 18.0981 15.7155 17.9739 15.7041C17.469 15.6576 16.8585 15.508 16.2405 15.3135C15.2836 15.0121 14.214 14.5709 13.3127 14.1191C13.0426 13.9838 12.7872 13.849 12.5549 13.7148C12.3104 13.5736 12.0871 13.4056 11.8909 13.2188C11.7632 13.2369 11.6329 13.25 11.5002 13.25C11.3726 13.25 11.2473 13.2375 11.1243 13.2207C10.927 13.4091 10.7026 13.5795 10.4563 13.7217C10.2201 13.858 9.95994 13.9962 9.6848 14.1338C9.05783 14.4473 8.35019 14.7544 7.65648 15.0137C7.35602 15.1259 7.05841 15.2297 6.77074 15.3203C6.15291 15.5148 5.54306 15.6644 5.03832 15.7109L4.84789 15.7236C4.79036 15.7259 4.73212 15.7256 4.67406 15.7246C4.53855 15.7221 4.40253 15.7106 4.27269 15.6826C4.03375 15.631 3.68886 15.4978 3.48558 15.1465C3.28241 14.7944 3.33945 14.4282 3.41429 14.1953C3.49195 13.9542 3.62753 13.7227 3.77172 13.5186C4.01214 13.1784 4.34972 12.8123 4.72679 12.4492L4.97679 12.2129C5.93759 11.3318 7.19688 10.402 8.20433 9.82031C8.44059 9.68394 8.68889 9.57578 8.93968 9.49902C9.03878 9.24577 9.1745 9.01101 9.34007 8.80078C9.28066 8.54392 9.25023 8.27418 9.25023 8C9.25023 6.83656 9.42496 5.28161 9.70726 4.00879C9.84756 3.37633 10.0228 2.7739 10.2346 2.31348C10.3392 2.08627 10.4718 1.85211 10.6418 1.66406C10.8058 1.48293 11.0937 1.25015 11.5002 1.25ZM11.4993 9.25C10.8092 9.2504 10.2493 9.80989 10.2493 10.5C10.2493 11.1901 10.8092 11.7496 11.4993 11.75C12.1896 11.75 12.7493 11.1904 12.7493 10.5C12.7493 9.80964 12.1896 9.25 11.4993 9.25Z" fill="#202733"/>
</svg>