<svg
  width="64"
  height="64"
  viewBox="0 0 64 64"
  fill="none"
  xmlns="http://www.w3.org/2000/svg"
>
  <rect x="27" y="7.27148" width="37" height="37" rx="4" fill="#AEF4E4" />
  <path
    d="M39.5654 41.7642C39.5654 36.98 35.7579 33.1016 31.0612 33.1016C28.6812 33.1016 26.5296 34.0974 24.9875 35.7024C23.444 34.0974 21.2923 33.1016 18.9124 33.1016C14.2157 33.1016 10.4082 36.98 10.4082 41.7642C10.4082 44.1891 11.3864 46.3813 12.9627 47.9538L24.9868 59.0895L37.0109 47.9538C38.5872 46.3813 39.5654 44.1891 39.5654 41.7642Z"
    stroke="#262626"
    stroke-width="3"
  />
  <path
    fill-rule="evenodd"
    clip-rule="evenodd"
    d="M20.7713 12.9237C20.7713 15.218 18.9114 17.0779 16.6171 17.0779C14.3228 17.0779 12.4629 15.218 12.4629 12.9237C12.4629 10.6294 14.3228 8.76947 16.6171 8.76947C18.9114 8.76947 20.7713 10.6294 20.7713 12.9237ZM23.5408 12.9237C23.5408 16.7475 20.4409 19.8473 16.6171 19.8473C12.7933 19.8473 9.69342 16.7475 9.69342 12.9237C9.69342 9.09983 12.7933 6 16.6171 6C20.4409 6 23.5408 9.09983 23.5408 12.9237ZM16.2248 22.0783C19.1634 22.0783 21.8127 23.3171 23.6788 25.301L21.6104 27.3695C20.2744 25.914 18.3562 25.0016 16.2248 25.0016C12.1885 25.0016 8.91649 28.2737 8.91649 32.31H5.99316C5.99316 26.6592 10.574 22.0783 16.2248 22.0783Z"
    fill="#262626"
  />
</svg>
