<svg width="24" height="24" viewBox="0 0 24 24" fill="none" xmlns="http://www.w3.org/2000/svg">
<path fill-rule="evenodd" clip-rule="evenodd" d="M5 2H19V22H5V2ZM3 24V0H21V24H3ZM12 7C12.5523 7 13 6.55228 13 6C13 5.44772 12.5523 5 12 5C11.4477 5 11 5.44772 11 6C11 6.55228 11.4477 7 12 7ZM15 6C15 6.98512 14.5252 7.85933 13.7919 8.40627C14.1761 8.59438 14.5286 8.84629 14.8352 9.15885C15.5388 9.87616 15.9518 10.8623 15.996 12H16V12.2051H14C14 11.4468 13.7476 10.9062 13.4074 10.5594C13.0647 10.21 12.5777 10 12 10C11.4223 10 10.9353 10.21 10.5926 10.5594C10.2524 10.9062 10 11.4468 10 12.2051H8V12H8.00397C8.04822 10.8623 8.46117 9.87616 9.16479 9.15885C9.47138 8.84629 9.82392 8.59438 10.2081 8.40627C9.47482 7.85933 9 6.98512 9 6C9 4.34315 10.3431 3 12 3C13.6569 3 15 4.34315 15 6ZM14 16H7V14H14V16ZM7 18V20H17V18H7Z" fill="#262626"/>
</svg>
