<svg width="24" height="24" viewBox="0 0 24 24" fill="none" xmlns="http://www.w3.org/2000/svg">
<path fill-rule="evenodd" clip-rule="evenodd" d="M3 0V24H21V0H3ZM13.7919 8.40627C14.5252 7.85933 15 6.98512 15 6C15 4.34315 13.6569 3 12 3C10.3431 3 9 4.34315 9 6C9 6.98512 9.47482 7.85933 10.2081 8.40627C9.82391 8.59437 9.47138 8.84629 9.16479 9.15885C8.46117 9.87616 8.04822 10.8623 8.00397 12H15.996C15.9518 10.8623 15.5388 9.87616 14.8352 9.15885C14.5286 8.84629 14.1761 8.59437 13.7919 8.40627ZM14 16H7V14H14V16ZM7 18V20H17V18H7Z" fill="#262626"/>
</svg>
