<svg width="24" height="24" viewBox="0 0 24 24" fill="none" xmlns="http://www.w3.org/2000/svg">
<path fill-rule="evenodd" clip-rule="evenodd" d="M13.001 2.07103L13 0H11V2.07089C10.6584 2.11975 10.3248 2.19327 10.001 2.2896L9.30344 0.722945L7.47635 1.53642L8.18487 3.13006C6.26758 4.37874 5 6.54134 5 9C5 11.6113 6.42981 13.8886 8.54968 15.0907C7.00754 16.1765 6 17.9706 6 20V24H6.96875H8H16H17.0938H18V20C18 17.9706 16.9925 16.1765 15.4508 15.0917C17.5702 13.8886 19 11.6113 19 9C19 6.54134 17.7324 4.37874 15.8151 3.13006L16.5237 1.53642L14.6966 0.722945L13.999 2.2896C13.6755 2.19337 13.3422 2.11989 13.001 2.07103ZM8.84589 17.5397C9.57796 16.6025 10.7186 16 12 16L12.1996 16.0049C13.3996 16.0639 14.4605 16.6516 15.1539 17.541C14.515 18.7145 13.3417 19.5009 12 19.5009C10.6584 19.5009 9.48515 18.7145 8.84589 17.5397ZM7 9C7 6.23858 9.23858 4 12 4C14.7614 4 17 6.23858 17 9C17 11.7614 14.7614 14 12 14C9.23858 14 7 11.7614 7 9ZM11 9C11 8.44771 10.5523 8 10 8C9.44772 8 9 8.44771 9 9C9 9.55229 9.44772 10 10 10C10.5523 10 11 9.55229 11 9ZM15 9C15 8.44771 14.5523 8 14 8C13.4477 8 13 8.44771 13 9C13 9.55229 13.4477 10 14 10C14.5523 10 15 9.55229 15 9Z" fill="#3E3832"/>
</svg>
