<svg width="24" height="24" viewBox="0 0 24 24" fill="none" xmlns="http://www.w3.org/2000/svg">
<path fill-rule="evenodd" clip-rule="evenodd" d="M12 3C12 4.65685 10.6569 6 9 6C7.34315 6 6 4.65685 6 3C6 1.34315 7.34315 0 9 0C10.6569 0 12 1.34315 12 3ZM23 14.5C23 15.3284 22.3284 16 21.5 16C20.6716 16 20 15.3284 20 14.5C20 13.6716 20.6716 13 21.5 13C22.3284 13 23 13.6716 23 14.5ZM4.68636 6C3.98108 6 3.36366 6.47353 3.18079 7.15469L0.000732422 19H1H3.25773V24H5.25773V19H7.25773V24H9.25773V19H11H12.0018L10.1893 11H13C13.5523 11 14 10.5523 14 10C14 9.44771 13.5523 9 13 9H9.5682C8.65406 7.19312 6.78502 6 4.68636 6ZM20 12C20 11.4477 19.5523 11 19 11C18.4477 11 18 11.4477 18 12V14H16.618L16.1708 13.1056C15.832 12.428 15.1395 12 14.382 12H14C13.4477 12 13 12.4477 13 13C13 13.5523 13.4477 14 14 14H14.382L14.8292 14.8944C15.168 15.572 15.8605 16 16.618 16H18C19.1046 16 20 15.1046 20 14V12ZM13 18C13 17.4477 13.4477 17 14 17H22C22.5523 17 23 17.4477 23 18C23 18.5523 22.5523 19 22 19H14C13.4477 19 13 18.5523 13 18Z" fill="#262626"/>
</svg>
