<svg width="24" height="24" viewBox="0 0 24 24" fill="none" xmlns="http://www.w3.org/2000/svg">
<path fill-rule="evenodd" clip-rule="evenodd" d="M14 3H10C9.44772 3 9 3.44772 9 4V5H15V4C15 3.44772 14.5523 3 14 3ZM7 4V5H1C0.447715 5 0 5.44772 0 6V13C0 13.7403 0.402199 14.3866 1 14.7324V21C1 22.1046 1.89543 23 3 23H21C22.1046 23 23 22.1046 23 21V14.7324C23.5978 14.3866 24 13.7403 24 13V6C24 5.44772 23.5523 5 23 5H17V4C17 2.34315 15.6569 1 14 1H10C8.34315 1 7 2.34315 7 4ZM7 7H17H22V13H13V12C13 11.4477 12.5523 11 12 11C11.4477 11 11 11.4477 11 12V13H2L2 7H7ZM11 15H3L3 21H21V15H13V16C13 16.5523 12.5523 17 12 17C11.4477 17 11 16.5523 11 16V15Z" fill="#262626"/>
</svg>
