<svg width="24" height="24" viewBox="0 0 24 24" fill="none" xmlns="http://www.w3.org/2000/svg">
<path fill-rule="evenodd" clip-rule="evenodd" d="M14 4H10C9.44772 4 9 4.44772 9 5V6H15V5C15 4.44772 14.5523 4 14 4ZM7 5V6H1C0.447715 6 0 6.44772 0 7V13C0 13.7403 0.402199 14.3866 1 14.7324V20C1 21.1046 1.89543 22 3 22H21C22.1046 22 23 21.1046 23 20V14.7324C23.5978 14.3866 24 13.7403 24 13V7C24 6.44772 23.5523 6 23 6H17V5C17 3.34315 15.6569 2 14 2H10C8.34315 2 7 3.34315 7 5ZM7 8H17H22V13H13V12C13 11.4477 12.5523 11 12 11C11.4477 11 11 11.4477 11 12V13H2L2 8H7ZM11 15H3L3 20H21V15H13V16C13 16.5523 12.5523 17 12 17C11.4477 17 11 16.5523 11 16V15Z" fill="#262626"/>
</svg>
