<svg width="24" height="24" viewBox="0 0 24 24" fill="none" xmlns="http://www.w3.org/2000/svg">
<path fill-rule="evenodd" clip-rule="evenodd" d="M14 4H10C9.44772 4 9 4.44772 9 5V6H15V5C15 4.44772 14.5523 4 14 4ZM7 5V6H1C0.447715 6 0 6.44772 0 7V12C0 12.5523 0.447716 13 1 13H11V12C11 11.4477 11.4477 11 12 11C12.5523 11 13 11.4477 13 12V13H23C23.5523 13 24 12.5523 24 12V7C24 6.44772 23.5523 6 23 6H17V5C17 3.34315 15.6569 2 14 2H10C8.34315 2 7 3.34315 7 5ZM11 15V16C11 16.5523 11.4477 17 12 17C12.5523 17 13 16.5523 13 16V15H23V20C23 21.1046 22.1046 22 21 22H3C1.89543 22 1 21.1046 1 20V15H11Z" fill="currentColor"/>
</svg>
