<svg width="24" height="24" viewBox="0 0 24 24" fill="none" xmlns="http://www.w3.org/2000/svg">
<path fill-rule="evenodd" clip-rule="evenodd" d="M11 0H13V3.08197C15.8497 3.51786 18.0968 5.64555 18.3797 8.34007L18.5037 9.54994C18.6344 10.8614 18.7161 11.8225 18.7487 12.4333L18.7629 12.7778C18.7871 13.7392 19.4928 15.375 20.8803 17.6852C21.139 18.1161 20.9645 18.6561 20.4904 18.8913C20.3467 18.9626 20.1856 19 20.0218 19H3.978C3.43787 19 3 18.602 3 18.1111C3 17.9452 3.0511 17.7826 3.14752 17.6416C4.40461 15.8045 5.04585 14.1833 5.07124 12.7778C5.08901 11.7944 5.20058 10.328 5.40595 8.37841C5.69763 5.60978 8.04742 3.43564 11 3.05816V0ZM12 24C10.1362 24 8.57006 22.7252 8.12602 21H15.874C15.4299 22.7252 13.8638 24 12 24Z" fill="#262626"/>
</svg>
