<svg width="24" height="24" viewBox="0 0 24 24" fill="none" xmlns="http://www.w3.org/2000/svg">
<path fill-rule="evenodd" clip-rule="evenodd" d="M11 0H13V3.07506C15.9647 3.52406 18.3154 5.93912 18.6082 9.00758L18.735 10.3687C18.8686 11.844 18.9521 12.9253 18.9855 13.6125L19 14C19.0247 15.0816 19.7464 16.9218 21.1651 19.5209C21.4297 20.0056 21.2512 20.6131 20.7664 20.8778C20.6195 20.958 20.4547 21 20.2873 21H15.874C15.4299 22.7252 13.8638 24 12 24C10.1362 24 8.57006 22.7252 8.12602 21H3.88213C3.32983 21 2.88211 20.5523 2.88211 20C2.88211 19.8133 2.93436 19.6304 3.03295 19.4719C4.31835 17.4051 4.97403 15.5812 5 14C5.01817 12.8938 5.13225 11.244 5.34224 9.05071C5.63845 5.95746 8.01022 3.52381 11 3.07449V0ZM10.2676 21C10.6134 21.5978 11.2597 22 12 22C12.7403 22 13.3866 21.5978 13.7324 21H10.2676ZM12 5C9.58388 5 7.56345 6.83622 7.33314 9.24133L7.22757 10.3908C7.12133 11.6042 7.05195 12.6046 7.01926 13.3873L6.99973 14.0328C6.97612 15.4708 6.56545 16.9944 5.78873 18.6148L5.598 19H18.634L18.5293 18.7884C17.5919 16.8806 17.0829 15.3987 17.0088 14.2365L16.979 13.5388C16.9314 12.6794 16.8104 11.2222 16.6172 9.19758C16.3901 6.81747 14.3909 5 12 5Z" fill="#3E3832"/>
</svg>
