<svg width="1em" height="1em" viewBox="0 0 24 24" fill="none" xmlns="http://www.w3.org/2000/svg">
<path fill-rule="evenodd" clip-rule="evenodd" d="M13 0C17.4183 0 21 3.58172 21 8C21 10.9219 19.4336 13.4779 17.0947 14.8741C20.5758 16.4383 23 19.936 23 24H21C21 19.5817 17.4183 16 13 16C8.58172 16 5 19.5817 5 24H3C3 19.936 5.42424 16.4383 8.9055 14.874C6.5664 13.4779 5 10.9219 5 8H2C1.44772 8 1 7.55228 1 7C1 6.44772 1.44772 6 2 6L5.25187 6.00064C6.13973 2.54986 9.27209 0 13 0ZM19 8H7C7 11.3137 9.68629 14 13 14C16.3137 14 19 11.3137 19 8ZM13 2C10.3874 2 8.16488 3.66977 7.3413 6.00032H18.6587C17.8351 3.66977 15.6126 2 13 2Z" fill="currentColor"/>
</svg>
