<svg width="24" height="24" viewBox="0 0 24 24" fill="none" xmlns="http://www.w3.org/2000/svg">
<path fill-rule="evenodd" clip-rule="evenodd" d="M12 0C13.6569 0 15 1.34315 15 3V9L19.7576 9.46509C22.3164 9.80542 24.1721 12.1379 23.9873 14.7818L22.3697 24H8.74161L2.67411 16.2086C1.69493 14.9512 1.69753 13.206 2.90101 12C4.05636 10.8422 5.77348 11.0077 6.86476 11.6803L9.00001 13V3C9.00001 1.34315 10.3432 0 12 0ZM12 2C11.4872 2 11.0645 2.38604 11.0067 2.88338L11 3V16.5806L5.94903 13.4698L5.86435 13.4147C5.35635 13.0652 4.66307 13.0656 4.31671 13.4127C3.90496 13.8253 3.8554 14.3776 4.17241 14.8678L4.25207 14.9798L9.49737 21.7157L15.4112 11.0497L13 10.814V3C13 2.48716 12.614 2.06449 12.1166 2.00673L12 2ZM2 2C2 2.55228 1.55228 3 1 3C0.447715 3 0 2.55228 0 2C0 1.44771 0.447715 1 1 1C1.55228 1 2 1.44771 2 2ZM6 4C7.10457 4 8 3.10457 8 2C8 0.89543 7.10457 0 6 0C4.89543 0 4 0.89543 4 2C4 3.10457 4.89543 4 6 4ZM7 7C7 7.55228 6.55228 8 6 8C5.44771 8 5 7.55228 5 7C5 6.44771 5.44771 6 6 6C6.55228 6 7 6.44771 7 7ZM19 8C20.1046 8 21 7.10457 21 6C21 4.89543 20.1046 4 19 4C17.8954 4 17 4.89543 17 6C17 7.10457 17.8954 8 19 8ZM23 2C23 2.55228 22.5523 3 22 3C21.4477 3 21 2.55228 21 2C21 1.44771 21.4477 1 22 1C22.5523 1 23 1.44771 23 2Z" fill="#3E3832"/>
</svg>
