<svg width="24" height="24" viewBox="0 0 24 24" fill="none" xmlns="http://www.w3.org/2000/svg">
<path fill-rule="evenodd" clip-rule="evenodd" d="M15 3C15 1.34315 13.6569 0 12 0C10.3432 0 9.00001 1.34315 9.00001 3V13L6.86476 11.6803C5.77348 11.0077 4.05636 10.8422 2.90101 12C1.69753 13.206 1.69493 14.9512 2.67411 16.2086L8.74161 24H22.3697L23.9873 14.7818C24.1721 12.1379 22.3164 9.80542 19.7576 9.46509L15 9V3ZM11.0067 2.88338C11.0645 2.38604 11.4872 2 12 2L12.1166 2.00673C12.614 2.06449 13 2.48716 13 3V10.814L19.563 11.4556L19.7267 11.483C21.0244 11.7439 22.0175 12.9968 21.9997 14.4586L21.995 14.561L20.689 21.999H9.71801L4.25207 14.9798L4.17241 14.8678C3.8554 14.3776 3.90496 13.8253 4.31671 13.4127C4.66307 13.0656 5.35635 13.0652 5.86435 13.4147L5.94903 13.4698L11 16.5806V3L11.0067 2.88338ZM1 3C1.55228 3 2 2.55228 2 2C2 1.44771 1.55228 1 1 1C0.447715 1 0 1.44771 0 2C0 2.55228 0.447715 3 1 3ZM8 2C8 3.10457 7.10457 4 6 4C4.89543 4 4 3.10457 4 2C4 0.89543 4.89543 0 6 0C7.10457 0 8 0.89543 8 2ZM6 8C6.55228 8 7 7.55228 7 7C7 6.44771 6.55228 6 6 6C5.44771 6 5 6.44771 5 7C5 7.55228 5.44771 8 6 8ZM21 6C21 7.10457 20.1046 8 19 8C17.8954 8 17 7.10457 17 6C17 4.89543 17.8954 4 19 4C20.1046 4 21 4.89543 21 6ZM22 3C22.5523 3 23 2.55228 23 2C23 1.44771 22.5523 1 22 1C21.4477 1 21 1.44771 21 2C21 2.55228 21.4477 3 22 3Z" fill="#3E3832"/>
</svg>
