<svg width="24" height="24" viewBox="0 0 24 24" fill="none" xmlns="http://www.w3.org/2000/svg">
<path fill-rule="evenodd" clip-rule="evenodd" d="M19 0C20.1046 0 21 0.89543 21 2V22C21 23.1046 20.1046 24 19 24H5C3.89543 24 3 23.1046 3 22V2C3 0.89543 3.89543 0 5 0H19ZM8 17C8.55228 17 9 17.4477 9 18C9 18.5523 8.55228 19 8 19C7.44772 19 7 18.5523 7 18C7 17.4477 7.44772 17 8 17ZM12 17C12.5523 17 13 17.4477 13 18C13 18.5523 12.5523 19 12 19C11.4477 19 11 18.5523 11 18C11 17.4477 11.4477 17 12 17ZM16 17C16.5523 17 17 17.4477 17 18C17 18.5523 16.5523 19 16 19C15.4477 19 15 18.5523 15 18C15 17.4477 15.4477 17 16 17ZM8 13C8.55228 13 9 13.4477 9 14C9 14.5523 8.55228 15 8 15C7.44772 15 7 14.5523 7 14C7 13.4477 7.44772 13 8 13ZM12 13C12.5523 13 13 13.4477 13 14C13 14.5523 12.5523 15 12 15C11.4477 15 11 14.5523 11 14C11 13.4477 11.4477 13 12 13ZM16 13C16.5523 13 17 13.4477 17 14C17 14.5523 16.5523 15 16 15C15.4477 15 15 14.5523 15 14C15 13.4477 15.4477 13 16 13ZM8 9C8.55228 9 9 9.44771 9 10C9 10.5523 8.55228 11 8 11C7.44772 11 7 10.5523 7 10C7 9.44771 7.44772 9 8 9ZM12 9C12.5523 9 13 9.44771 13 10C13 10.5523 12.5523 11 12 11C11.4477 11 11 10.5523 11 10C11 9.44771 11.4477 9 12 9ZM16 9C16.5523 9 17 9.44771 17 10C17 10.5523 16.5523 11 16 11C15.4477 11 15 10.5523 15 10C15 9.44771 15.4477 9 16 9ZM17 5V7H7V5H17Z" fill="#262626"/>
</svg>
