<svg width="24" height="24" viewBox="0 0 24 24" fill="none" xmlns="http://www.w3.org/2000/svg">
<path fill-rule="evenodd" clip-rule="evenodd" d="M19.5168 11H4.48317C3.28864 11 2.36047 12.0403 2.4961 13.2271L2.72467 15.2271C2.84012 16.2372 3.69503 17 4.71174 17H19.2882C20.3049 17 21.1599 16.2372 21.2753 15.2271L21.5039 13.2271C21.6395 12.0403 20.7113 11 19.5168 11ZM18.5701 4.8912L20.2295 9.06304C22.2624 9.42749 23.7345 11.3227 23.4909 13.4542L23.2624 15.4542C23.059 17.2335 21.7084 18.6291 20 18.9367V20.5C20 21.3284 19.3284 22 18.5 22C17.6716 22 17 21.3284 17 20.5V19H7V20.5C7 21.3284 6.32843 22 5.5 22C4.67157 22 4 21.3284 4 20.5V18.9367C2.29154 18.6291 0.940958 17.2335 0.737606 15.4542L0.509035 13.4542C0.265434 11.3227 1.73756 9.42747 3.77046 9.06304L5.42989 4.89119C5.88406 3.74939 6.98863 3 8.21746 3H15.7825C17.0114 3 18.1159 3.74939 18.5701 4.8912ZM18.0521 9L16.7117 5.6304C16.5603 5.2498 16.1922 5 15.7825 5L8.21746 5C7.80785 5 7.43966 5.2498 7.28827 5.6304L5.94795 9L18.0521 9ZM7 14C7 14.5523 6.55228 15 6 15C5.44772 15 5 14.5523 5 14C5 13.4477 5.44772 13 6 13C6.55228 13 7 13.4477 7 14ZM18 15C18.5523 15 19 14.5523 19 14C19 13.4477 18.5523 13 18 13C17.4477 13 17 13.4477 17 14C17 14.5523 17.4477 15 18 15Z" fill="#262626"/>
</svg>
