<svg width="24" height="24" viewBox="0 0 24 24" fill="none" xmlns="http://www.w3.org/2000/svg">
<path fill-rule="evenodd" clip-rule="evenodd" d="M17 5.25C17 8.1495 14.6495 10.5 11.75 10.5C8.85047 10.5 6.49996 8.1495 6.49996 5.25C6.49996 2.35051 8.85047 0 11.75 0C14.6495 0 17 2.35051 17 5.25ZM11.6618 11.6111C7.58101 11.6111 4.27289 14.9192 4.27289 19H14.4367L18.0873 15.3494C16.8161 13.1167 14.4148 11.6111 11.6618 11.6111ZM22.3478 16.6522C21.4782 15.7826 20.0683 15.7826 19.1987 16.6522L15.4065 20.4444L15 24L18.5555 23.5935L22.3478 19.8013C23.2174 18.9317 23.2174 17.5218 22.3478 16.6522Z" fill="#262626"/>
</svg>
