<svg width="24" height="24" viewBox="0 0 24 24" fill="none" xmlns="http://www.w3.org/2000/svg">
<path fill-rule="evenodd" clip-rule="evenodd" d="M7 6C7 7.10457 6.10457 8 5 8C3.89543 8 3 7.10457 3 6C3 4.89543 3.89543 4 5 4C6.10457 4 7 4.89543 7 6ZM9 6C9 8.20914 7.20914 10 5 10C2.79086 10 1 8.20914 1 6C1 3.79086 2.79086 2 5 2C7.20914 2 9 3.79086 9 6ZM2 16.3651C2 15.2417 2.36855 14.4086 2.89284 13.8627C3.4182 13.3156 4.15299 13 5 13C5.84701 13 6.5818 13.3156 7.10716 13.8627C7.63145 14.4086 8 15.2417 8 16.3651V23H10V16.3651C10 14.7884 9.47312 13.4389 8.5497 12.4774C7.62734 11.5169 6.36213 11 5 11C3.63787 11 2.37266 11.5169 1.4503 12.4774C0.526881 13.4389 0 14.7884 0 16.3651V23H2V16.3651ZM17 16V14H14V20H22V16H17ZM12 13V21C12 21.5523 12.4477 22 13 22H23C23.5523 22 24 21.5523 24 21V15C24 14.4477 23.5523 14 23 14H19V13C19 12.4477 18.5523 12 18 12H13C12.4477 12 12 12.4477 12 13ZM23 3H13V10H15V5H21V12H23V3Z" fill="#262626"/>
</svg>
