<svg width="24" height="24" viewBox="0 0 24 24" fill="none" xmlns="http://www.w3.org/2000/svg">
<path fill-rule="evenodd" clip-rule="evenodd" d="M11.75 8.5C13.5449 8.5 15 7.04493 15 5.25C15 3.45507 13.5449 2 11.75 2C9.95504 2 8.49996 3.45507 8.49996 5.25C8.49996 7.04493 9.95504 8.5 11.75 8.5ZM11.75 10.5C14.6495 10.5 17 8.1495 17 5.25C17 2.35051 14.6495 0 11.75 0C8.85047 0 6.49996 2.35051 6.49996 5.25C6.49996 8.1495 8.85047 10.5 11.75 10.5ZM17.0996 13.9384C15.752 12.5057 13.8388 11.6111 11.7166 11.6111C7.63588 11.6111 4.32776 14.9192 4.32776 19H6.43887C6.43887 16.0852 8.80181 13.7222 11.7166 13.7222C13.2558 13.7222 14.6411 14.3811 15.6059 15.4322L17.0996 13.9384ZM20.8991 17.4659L16.8884 21.4766L15.2352 21.7648L15.5234 20.1116L19.534 16.1009C19.911 15.7239 20.5221 15.7239 20.8991 16.1009C21.276 16.4778 21.276 17.089 20.8991 17.4659ZM22.1847 18.7516L17.7673 23.169L13 24L13.831 19.2327L18.2484 14.8152C19.3354 13.7283 21.0977 13.7283 22.1847 14.8152C23.2717 15.9022 23.2717 17.6646 22.1847 18.7516Z" fill="#262626"/>
</svg>
