<svg width="24" height="24" viewBox="0 0 24 24" fill="none" xmlns="http://www.w3.org/2000/svg">
<path fill-rule="evenodd" clip-rule="evenodd" d="M17 4.99999C17 7.7614 14.7614 9.99998 12 9.99998C9.23855 9.99998 6.99998 7.7614 6.99998 4.99999C6.99998 2.23857 9.23855 0 12 0C14.7614 0 17 2.23857 17 4.99999ZM12 11C8.13399 11 4.99999 14.134 4.99999 18H14.6289L18.0873 14.5415C16.883 12.4263 14.6081 11 12 11ZM23.2663 15.7337C22.288 14.7554 20.7019 14.7554 19.7236 15.7337L15.4573 20L15 23.9999L19 23.5426L23.2663 19.2764C24.2446 18.2981 24.2446 16.712 23.2663 15.7337Z" fill="#262626"/>
</svg>
