<svg width="24" height="24" viewBox="0 0 24 24" fill="none" xmlns="http://www.w3.org/2000/svg">
<path fill-rule="evenodd" clip-rule="evenodd" d="M12 8C13.6569 8 15 6.65685 15 5C15 3.34315 13.6569 2 12 2C10.3431 2 9 3.34315 9 5C9 6.65685 10.3431 8 12 8ZM12 10C14.7614 10 17 7.76142 17 5C17 2.23858 14.7614 0 12 0C9.23858 0 7 2.23858 7 5C7 7.76142 9.23858 10 12 10ZM17.0997 13.2048C15.823 11.8476 14.0105 11 12 11C8.13401 11 5 14.134 5 18H7C7 15.2386 9.23858 13 12 13C13.4582 13 14.7706 13.6242 15.6845 14.62L17.0997 13.2048ZM21.689 16.8125L17.2773 21.2243L15.4587 21.5413L15.7757 19.7227L20.1875 15.311C20.6021 14.8963 21.2744 14.8963 21.689 15.311C22.1037 15.7256 22.1037 16.3979 21.689 16.8125ZM23.1032 18.2267L18.2441 23.0859L13 24L13.9141 18.7559L18.7733 13.8968C19.969 12.7011 21.9076 12.7011 23.1032 13.8968C24.2989 15.0924 24.2989 17.031 23.1032 18.2267Z" fill="#262626"/>
</svg>
