<svg width="25" height="1em" viewBox="0 0 25 24" fill="none" xmlns="http://www.w3.org/2000/svg">
<path fill-rule="evenodd" clip-rule="evenodd" d="M1.99241 10.8232C1.74982 4.92563 6.46657 0 12.3818 0H13.0082C19.0799 0 24.0021 4.92214 24.0021 10.9939V13.1353C24.0021 15.1744 23.5273 17.1856 22.6154 19.0095L21.4965 21.2472C21.1714 21.8975 21.0021 22.6146 21.0021 23.3416V24H19.0021V23.3416C19.0021 22.3041 19.2436 21.2808 19.7077 20.3528L20.8265 18.1151C21.5996 16.5689 22.0021 14.8639 22.0021 13.1353V10.9939C22.0021 6.02671 17.9754 2 13.0082 2H12.3818C7.57894 2 3.75436 6.02059 3.9942 10.8174C4.006 11.0534 3.96496 11.2891 3.87407 11.5072L2.00208 16H5.00208V19C5.00208 20.1046 5.89751 21 7.00208 21H9.00208C10.1066 21 11.0021 21.8954 11.0021 23V24H9.00208V23H7.00208C4.79294 23 3.00208 21.2091 3.00208 19V18H2.00208C0.574923 18 -0.392981 16.5481 0.155925 15.2308L1.99241 10.8232ZM8.5022 8C8.77834 8 9.0022 7.77614 9.0022 7.5C9.0022 7.22386 8.77834 7 8.5022 7C8.22606 7 8.0022 7.22386 8.0022 7.5C8.0022 7.77614 8.22606 8 8.5022 8ZM8.5022 10C9.18978 10 9.81253 9.72242 10.2645 9.27321L12.1642 10.2864L11.7299 11.0102C11.6549 11.0035 11.579 11 11.5022 11C10.1215 11 9.0022 12.1193 9.0022 13.5C9.0022 14.8807 10.1215 16 11.5022 16C12.8829 16 14.0022 14.8807 14.0022 13.5C14.0022 12.9259 13.8087 12.3971 13.4834 11.9751L13.9312 11.2288L16.0075 12.3361C16.004 12.3903 16.0022 12.4449 16.0022 12.5C16.0022 13.8807 17.1215 15 18.5022 15C19.8829 15 21.0022 13.8807 21.0022 12.5C21.0022 11.1193 19.8829 10 18.5022 10C17.9047 10 17.3561 10.2096 16.926 10.5594L14.9615 9.51161L15.2746 8.98978C15.3496 8.99654 15.4255 9 15.5022 9C16.8829 9 18.0022 7.88071 18.0022 6.5C18.0022 5.11929 16.8829 4 15.5022 4C14.1215 4 13.0022 5.11929 13.0022 6.5C13.0022 7.07409 13.1957 7.60299 13.5211 8.02502L13.1945 8.56923L11.0002 7.39892C10.9471 6.06507 9.84905 5 8.5022 5C7.12149 5 6.0022 6.11929 6.0022 7.5C6.0022 8.88071 7.12149 10 8.5022 10ZM19.0022 12.5C19.0022 12.7761 18.7783 13 18.5022 13C18.2261 13 18.0022 12.7761 18.0022 12.5C18.0022 12.2239 18.2261 12 18.5022 12C18.7783 12 19.0022 12.2239 19.0022 12.5ZM11.5022 14C11.7783 14 12.0022 13.7761 12.0022 13.5C12.0022 13.2239 11.7783 13 11.5022 13C11.2261 13 11.0022 13.2239 11.0022 13.5C11.0022 13.7761 11.2261 14 11.5022 14ZM16.0022 6.5C16.0022 6.77614 15.7783 7 15.5022 7C15.2261 7 15.0022 6.77614 15.0022 6.5C15.0022 6.22386 15.2261 6 15.5022 6C15.7783 6 16.0022 6.22386 16.0022 6.5Z" fill="currentColor"/>
</svg>
