<svg width="24" height="24" viewBox="0 0 24 24" fill="none" xmlns="http://www.w3.org/2000/svg">
<path fill-rule="evenodd" clip-rule="evenodd" d="M2.03257 10.3099C2.13321 4.59864 6.76058 0 12.4542 0H13.0077C21.3397 0 26.634 8.98403 22.6442 16.3525L21.8848 17.755V24H19.8994V17.245L20.9012 15.3948C24.1694 9.35908 19.8327 2 13.0077 2H12.4542C7.79406 2 4.01628 5.80558 4.01628 10.5V10.6857L1.98725 16H5.00898V19C5.00898 20.1046 5.89787 21 6.99437 21H10.9651V24H8.97976V23H6.99437C4.80137 23 3.02359 21.2091 3.02359 19V18H1.98725C0.593943 18 -0.365973 16.592 0.134194 15.282L2.03257 10.3099ZM8.48346 8C8.75759 8 8.97981 7.77614 8.97981 7.5C8.97981 7.22386 8.75759 7 8.48346 7C8.20934 7 7.98712 7.22386 7.98712 7.5C7.98712 7.77614 8.20934 8 8.48346 8ZM8.48346 10C9.16602 10 9.78422 9.72242 10.2329 9.27321L12.1186 10.2863L11.6874 11.0102C11.613 11.0035 11.5377 11 11.4615 11C10.0909 11 8.97981 12.1193 8.97981 13.5C8.97981 14.8807 10.0909 16 11.4615 16C12.8322 16 13.9433 14.8807 13.9433 13.5C13.9433 12.9259 13.7512 12.3969 13.4281 11.9749L13.8726 11.2287L15.9339 12.3361C15.9304 12.3903 15.9287 12.4449 15.9287 12.5C15.9287 13.8807 17.0398 15 18.4104 15C19.781 15 20.8921 13.8807 20.8921 12.5C20.8921 11.1193 19.781 10 18.4104 10C17.8172 10 17.2727 10.2096 16.8458 10.5594L14.8954 9.51151L15.2061 8.98976C15.2806 8.99654 15.3561 9 15.4323 9C16.8029 9 17.9141 7.88071 17.9141 6.5C17.9141 5.11929 16.8029 4 15.4323 4C14.0617 4 12.9506 5.11929 12.9506 6.5C12.9506 7.07401 13.1426 7.60284 13.4655 8.02485L13.1413 8.56913L10.9632 7.39891C10.9105 6.06507 9.82048 5 8.48346 5C7.11284 5 6.00173 6.11929 6.00173 7.5C6.00173 8.88071 7.11284 10 8.48346 10ZM18.9068 12.5C18.9068 12.7761 18.6845 13 18.4104 13C18.1363 13 17.9141 12.7761 17.9141 12.5C17.9141 12.2239 18.1363 12 18.4104 12C18.6845 12 18.9068 12.2239 18.9068 12.5ZM11.4615 14C11.7357 14 11.9579 13.7761 11.9579 13.5C11.9579 13.2239 11.7357 13 11.4615 13C11.1874 13 10.9652 13.2239 10.9652 13.5C10.9652 13.7761 11.1874 14 11.4615 14ZM15.9287 6.5C15.9287 6.77614 15.7064 7 15.4323 7C15.1582 7 14.936 6.77614 14.936 6.5C14.936 6.22386 15.1582 6 15.4323 6C15.7064 6 15.9287 6.22386 15.9287 6.5Z" fill="#262626"/>
</svg>
