<svg width="18" height="24" viewBox="0 0 18 24" fill="none" xmlns="http://www.w3.org/2000/svg">
<path fill-rule="evenodd" clip-rule="evenodd" d="M8 0H10V3.08197C12.8497 3.51786 15.0968 5.64555 15.3797 8.34007L15.5037 9.54994C15.6344 10.8614 15.7161 11.8225 15.7487 12.4333L15.7629 12.7778C15.7871 13.7392 16.4928 15.375 17.8803 17.6852C18.139 18.1161 17.9645 18.6561 17.4904 18.8913C17.3467 18.9626 17.1856 19 17.0218 19H0.978C0.437865 19 0 18.602 0 18.1111C0 17.9452 0.0511009 17.7826 0.147519 17.6416C1.40461 15.8045 2.04585 14.1833 2.07124 12.7778C2.08901 11.7944 2.20058 10.328 2.40595 8.37841C2.69763 5.60978 5.04742 3.43564 8 3.05816V0ZM9 24C7.13616 24 5.57006 22.7252 5.12602 21H12.874C12.4299 22.7252 10.8638 24 9 24Z" fill="#262626"/>
</svg>
