<svg width="24" height="24" viewBox="0 0 24 24" fill="none" xmlns="http://www.w3.org/2000/svg">
<path fill-rule="evenodd" clip-rule="evenodd" d="M4 2C4 0.89543 4.89543 0 6 0H18C19.1046 0 20 0.895431 20 2V11H8V9H6V11H4V2ZM4 13V22C4 23.1046 4.89543 24 6 24H18C19.1046 24 20 23.1046 20 22V13H8V15H6V13H4ZM14.4981 14V15.6959L15.9363 14.7972L16.9962 16.4933L15.3852 17.5L16.9962 18.5067L15.9363 20.2028L14.4981 19.3041V21H12.4981V19.304L11.0598 20.2028L10 18.5067L11.611 17.5L9.99998 16.4933L11.0598 14.7972L12.4981 15.696V14H14.4981ZM13.4981 3L15.2847 6.86951C15.9487 8.30777 14.983 10 13.4981 10C12.0133 10 11.0475 8.30777 11.7116 6.86951L13.4981 3Z" fill="#262626"/>
</svg>
