<svg width="24" height="24" viewBox="0 0 24 24" fill="none" xmlns="http://www.w3.org/2000/svg">
<path fill-rule="evenodd" clip-rule="evenodd" d="M6 2H18V11H8V9H6V2ZM4 13V11V2C4 0.89543 4.89543 0 6 0H18C19.1046 0 20 0.895431 20 2V11V13V22C20 23.1046 19.1046 24 18 24H6C4.89543 24 4 23.1046 4 22V13ZM18 13V22H6V15H8V13H18ZM14.4981 14H12.4981V15.696L11.0598 14.7972L9.99998 16.4933L11.611 17.5L10 18.5067L11.0598 20.2028L12.4981 19.304V21H14.4981V19.3041L15.9363 20.2028L16.9962 18.5067L15.3852 17.5L16.9962 16.4933L15.9363 14.7972L14.4981 15.6959V14ZM15.2847 6.86951L13.4981 3L11.7116 6.86951C11.0475 8.30777 12.0133 10 13.4981 10C14.983 10 15.9487 8.30777 15.2847 6.86951Z" fill="#262626"/>
</svg>
