<svg width="24" height="24" viewBox="0 0 24 24" fill="none" xmlns="http://www.w3.org/2000/svg">
<path fill-rule="evenodd" clip-rule="evenodd" d="M3.35447 4.79411L7.95487 0L9.39794 1.38476L3.44279 7.59065L0 4.42891L1.35281 2.95585L3.35447 4.79411ZM14 10C14 11.1046 13.1046 12 12 12C10.8954 12 10 11.1046 10 10C10 8.89543 10.8954 8 12 8C13.1046 8 14 8.89543 14 10ZM16 10C16 12.2091 14.2091 14 12 14C9.79086 14 8 12.2091 8 10C8 7.79086 9.79086 6 12 6C14.2091 6 16 7.79086 16 10ZM9 20.4444C9 19.2913 9.37201 18.4362 9.89905 17.8774C10.426 17.3188 11.1589 17 12 17C12.8411 17 13.574 17.3188 14.101 17.8774C14.628 18.4362 15 19.2913 15 20.4444V24H17V20.4444C17 18.8484 16.4766 17.4813 15.5559 16.5052C14.6351 15.5289 13.3681 15 12 15C10.6319 15 9.36488 15.5289 8.4441 16.5052C7.52342 17.4813 7 18.8484 7 20.4444V24H9V20.4444ZM18.0446 7.64282L20.2852 5.29046L22.5258 7.64282L24 6.25L21.6826 3.82336L23.9922 1.39844L22.5391 0L20.2852 2.36014L18.0312 0L16.5781 1.39844L18.8878 3.82336L16.5704 6.25L18.0446 7.64282Z" fill="#262626"/>
</svg>
