<svg width="25" height="25" viewBox="0 0 25 25" fill="none" xmlns="http://www.w3.org/2000/svg">
<path fill-rule="evenodd" clip-rule="evenodd" d="M22.5876 3.98008L24.9919 1.45576L23.4792 0L21.1329 2.45688L18.7866 0L17.2739 1.45576L19.6783 3.98008L17.2658 6.50618L18.8005 7.95609L21.1329 5.50731L23.4653 7.95609L25 6.50618L22.5876 3.98008ZM8.28093 0.0162655L3.49196 5.00688L1.40826 3.09327L0 4.62671L3.5839 7.91805L9.78315 1.45779L8.28093 0.0162655ZM12.4919 14.5901C14.7916 14.5901 16.6558 12.7258 16.6558 10.4262C16.6558 8.12647 14.7916 6.2622 12.4919 6.2622C10.1922 6.2622 8.32791 8.12647 8.32791 10.4262C8.32791 12.7258 10.1922 14.5901 12.4919 14.5901ZM7.28692 25V21.2987C7.28692 19.6372 7.83179 18.2141 8.79021 17.1979C9.74874 16.1817 11.0677 15.6311 12.4919 15.6311C13.916 15.6311 15.235 16.1817 16.1935 17.1979C17.1519 18.2141 17.6968 19.6372 17.6968 21.2987V25H7.28692Z" fill="#262626"/>
</svg>
