<svg width="24" height="24" viewBox="0 0 24 24" fill="none" xmlns="http://www.w3.org/2000/svg">
<path fill-rule="evenodd" clip-rule="evenodd" d="M3.35447 4.79411L7.95487 0L9.39794 1.38476L3.44279 7.59065L0 4.42891L1.35281 2.95585L3.35447 4.79411ZM15.9844 10C15.9844 12.2091 14.1935 14 11.9844 14C9.77524 14 7.98438 12.2091 7.98438 10C7.98438 7.79086 9.77524 6 11.9844 6C14.1935 6 15.9844 7.79086 15.9844 10ZM6.98438 20.4444V24H16.9844V20.4444C16.9844 18.8484 16.461 17.4813 15.5403 16.5052C14.6195 15.5289 13.3524 15 11.9844 15C10.6163 15 9.34926 15.5289 8.42847 16.5052C7.50779 17.4813 6.98438 18.8484 6.98438 20.4444ZM18.0446 7.64282L20.2852 5.29046L22.5258 7.64282L24 6.25L21.6826 3.82336L23.9922 1.39844L22.5391 0L20.2852 2.36014L18.0312 0L16.5781 1.39844L18.8878 3.82336L16.5704 6.25L18.0446 7.64282Z" fill="#262626"/>
</svg>
