<svg width="24" height="24" viewBox="0 0 24 24" fill="none" xmlns="http://www.w3.org/2000/svg">
<path fill-rule="evenodd" clip-rule="evenodd" d="M12 0C14.4189 0 16.4366 1.71767 16.8999 3.99981L23 4V6H21V20C21 22.2091 19.2091 24 17 24H7C4.79086 24 3 22.2091 3 20V6H1V4L7.10006 3.99981C7.5634 1.71767 9.58111 0 12 0ZM9.66856 4H9.17004L9.24235 3.8169C9.3716 3.51603 9.54865 3.24054 9.76394 3C10.3133 2.38625 11.1115 2 12 2L12.1763 2.00509L12.3786 2.02365C13.1137 2.11621 13.7661 2.47481 14.2362 3C14.449 3.23782 14.6245 3.50979 14.7533 3.80669L14.829 4H14.3079H14.2598H13.7327H10.2674H9.70601H9.66856ZM10 9V19H8V9H10ZM16 9V19H14V9H16Z" fill="#262626"/>
</svg>
