<svg width="24" height="24" viewBox="0 0 24 24" fill="none" xmlns="http://www.w3.org/2000/svg">
<path fill-rule="evenodd" clip-rule="evenodd" d="M14 0C16.2091 0 18 1.79086 18 4V5H10C6.68629 5 4 7.68629 4 11V14.6667L0 17V10V4C0 1.79086 1.79086 0 4 0H14ZM10 7C7.79086 7 6 8.79086 6 11V17C6 19.2091 7.79086 21 10 21H18.8571L24 24V17V11C24 8.79086 22.2091 7 20 7H10ZM12 14C12 14.5523 11.5523 15 11 15C10.4477 15 10 14.5523 10 14C10 13.4477 10.4477 13 11 13C11.5523 13 12 13.4477 12 14ZM15 15C15.5523 15 16 14.5523 16 14C16 13.4477 15.5523 13 15 13C14.4477 13 14 13.4477 14 14C14 14.5523 14.4477 15 15 15ZM20 14C20 14.5523 19.5523 15 19 15C18.4477 15 18 14.5523 18 14C18 13.4477 18.4477 13 19 13C19.5523 13 20 13.4477 20 14Z" fill="#262626"/>
</svg>
