<svg width="24" height="24" viewBox="0 0 24 24" fill="none" xmlns="http://www.w3.org/2000/svg">
<path fill-rule="evenodd" clip-rule="evenodd" d="M13 1V3H11V1C11 0.447715 11.4477 0 12 0C12.5523 0 13 0.447715 13 1ZM0.518226 4.77735C0.296708 4.44507 0.534904 4 0.934252 4H19.4648C19.7992 4 20.1114 4.1671 20.2969 4.4453L24 10L20.2969 15.5547C20.1114 15.8329 19.7992 16 19.4648 16H0.934253C0.534905 16 0.296708 15.5549 0.518226 15.2227L3.99999 10L0.518226 4.77735ZM11 17V24H13V17H11Z" fill="#262626"/>
</svg>
