<svg width="24" height="24" viewBox="0 0 24 24" fill="none" xmlns="http://www.w3.org/2000/svg">
<path fill-rule="evenodd" clip-rule="evenodd" d="M1 1C1 0.447715 1.44772 0 2 0H4C5.65685 0 7 1.34315 7 3V7H16C17.6569 7 19 8.34315 19 10V15H22C22.5523 15 23 15.4477 23 16C23 16.5523 22.5523 17 22 17H17V10C17 9.44772 16.5523 9 16 9H5V3C5 2.44772 4.55228 2 4 2H2C1.44772 2 1 1.55228 1 1ZM8 22C10.7614 22 13 19.7614 13 17C13 14.2386 10.7614 12 8 12C5.23858 12 3 14.2386 3 17C3 19.7614 5.23858 22 8 22ZM8 24C11.866 24 15 20.866 15 17C15 13.134 11.866 10 8 10C4.13401 10 1 13.134 1 17C1 20.866 4.13401 24 8 24ZM20 21C20 21.5523 19.5523 22 19 22C18.4477 22 18 21.5523 18 21C18 20.4477 18.4477 20 19 20C19.5523 20 20 20.4477 20 21ZM22 21C22 22.6569 20.6569 24 19 24C17.3431 24 16 22.6569 16 21C16 19.3431 17.3431 18 19 18C20.6569 18 22 19.3431 22 21Z" fill="#262626"/>
</svg>
