<svg width="1em" height="1em" viewBox="0 0 24 24" fill="none" xmlns="http://www.w3.org/2000/svg">
<path d="M12.6372 8.21183L13.4385 11H19.0484C19.6024 11 20.0514 11.4477 20.0514 12C20.0514 12.5523 19.6024 13 19.0484 13L14.2245 13.0002C15.3485 14.1681 16.0393 15.7536 16.0393 17.5C16.0393 21.0899 13.1204 24 9.51967 24C5.91896 24 3 21.0899 3 17.5C3 14.6909 4.78731 12.298 7.29001 11.39L6.8522 9.86565C6.39413 8.27298 7.31781 6.61164 8.9153 6.15495C10.5128 5.69826 12.1792 6.61916 12.6372 8.21183ZM19.471 14.6913L21.9506 22.2997C22.1218 22.825 21.8335 23.3891 21.3067 23.5598C20.7798 23.7304 20.214 23.443 20.0428 22.9177L17.5632 15.3093C17.392 14.784 17.6803 14.2199 18.2071 14.0492C18.734 13.8785 19.2998 14.166 19.471 14.6913ZM9.51967 13C7.02687 13 5.00605 15.0147 5.00605 17.5C5.00605 19.9853 7.02687 22 9.51967 22C12.0125 22 14.0333 19.9853 14.0333 17.5C14.0333 15.0147 12.0125 13 9.51967 13ZM9.58254 8.0518L9.46824 8.07748C8.97378 8.21883 8.67298 8.70642 8.75479 9.20042L8.78054 9.31438L9.2649 11H11.3522L10.7089 8.7631C10.5671 8.27013 10.078 7.97024 9.58254 8.0518ZM9.01816 0C10.68 0 12.0272 1.34315 12.0272 3C12.0272 4.65685 10.68 6 9.01816 6C7.35629 6 6.00908 4.65685 6.00908 3C6.00908 1.34315 7.35629 0 9.01816 0ZM9.01816 2C8.4642 2 8.01513 2.44772 8.01513 3C8.01513 3.55228 8.4642 4 9.01816 4C9.57211 4 10.0212 3.55228 10.0212 3C10.0212 2.44772 9.57211 2 9.01816 2Z" fill="currentColor"/>
</svg>
