<svg width="24" height="24" viewBox="0 0 24 24" fill="none" xmlns="http://www.w3.org/2000/svg">
<path fill-rule="evenodd" clip-rule="evenodd" d="M2 12C2 6.81465 5.94668 2.5511 11 2.04938V12.4142L18.3288 19.743C16.6044 21.1544 14.4017 22 12 22C6.47715 22 2 17.5228 2 12ZM19.7488 21.163C17.6587 22.9321 14.9533 24 12 24C5.37258 24 0 18.6274 0 12C0 5.70934 4.84047 0.549225 11 0.0410738V0H12H13V0.0410738C19.1595 0.549225 24 5.70934 24 12C24 14.9533 22.9321 17.6587 21.163 19.7488L21.1924 19.7782L20.4853 20.4853L19.7782 21.1924L19.7488 21.163ZM19.743 18.3288C21.1543 16.6044 22 14.4017 22 12C22 6.81465 18.0533 2.5511 13 2.04938V11.5858L19.743 18.3288Z" fill="#262626"/>
</svg>
