<svg width="24" height="24" viewBox="0 0 24 24" fill="none" xmlns="http://www.w3.org/2000/svg">
<path fill-rule="evenodd" clip-rule="evenodd" d="M14 2C12.3431 2 11 3.34315 11 5H9C9 2.23858 11.2386 0 14 0H16C18.7614 0 21 2.23858 21 5V24H19V5C19 3.34315 17.6569 2 16 2H14Z" fill="#262626"/>
<path d="M5 16C5 16 5.58716 16.1892 5.60366 16.1998C5.63673 16.2208 5.68867 16.2531 5.75678 16.293C5.89368 16.373 6.092 16.4811 6.33036 16.5891C6.82404 16.8127 7.41198 17 7.95356 17C8.48817 17 8.9679 16.8251 9.67383 16.5627C10.3418 16.3143 11.1895 16 12.2226 16C13.2567 16 14.1087 16.3098 14.6938 16.6107C14.9879 16.7619 15.2212 16.9143 15.385 17.0322C15.4671 17.0914 15.5325 17.1424 15.5801 17.1811C15.6039 17.2004 15.6234 17.2167 15.6382 17.2295L15.6572 17.2459L15.6641 17.2521L15.6669 17.2546L15.6682 17.2557L15 23H5V16Z" fill="#262626"/>
<path fill-rule="evenodd" clip-rule="evenodd" d="M14.1269 21.0665L15 8H17L16.1225 21.1996C16.0174 22.7755 14.7085 24 13.1291 24H6.87133C5.29194 24 3.98304 22.7755 3.87798 21.1996L3 8H5L5.87355 21.0665C5.90857 21.5918 6.34487 22 6.87133 22H13.1291C13.6556 22 14.0919 21.5918 14.1269 21.0665Z" fill="#262626"/>
<path fill-rule="evenodd" clip-rule="evenodd" d="M10.0001 6.05635L12.3141 9.91303C13.3933 11.7117 12.0977 14 10.0001 14C7.90252 14 6.6069 11.7117 7.6861 9.91303L10.0001 6.05635Z" fill="#262626"/>
</svg>
