<svg width="24" height="24" viewBox="0 0 24 24" fill="none" xmlns="http://www.w3.org/2000/svg">
<path fill-rule="evenodd" clip-rule="evenodd" d="M22 2H2L2 22H22V2ZM2 0C0.895431 0 0 0.89543 0 2V22C0 23.1046 0.89543 24 2 24H22C23.1046 24 24 23.1046 24 22V2C24 0.895431 23.1046 0 22 0H2ZM16 7C16.5523 7 17 6.55228 17 6C17 5.44772 16.5523 5 16 5C15.4477 5 15 5.44772 15 6C15 6.55228 15.4477 7 16 7ZM16 9C17.6569 9 19 7.65685 19 6C19 4.34315 17.6569 3 16 3C14.3431 3 13 4.34315 13 6C13 7.65685 14.3431 9 16 9ZM16 9H18C19.1046 9 20 9.89543 20 11V17H19V21H17V15H18V11H14V15H15V21H13V17H12V11C12 9.89543 12.8954 9 14 9H16ZM7.00008 3L10.7072 6.70711L9.29297 8.12132L8 6.82835V11H6V6.8285L4.70718 8.12132L3.29297 6.70711L7.00008 3ZM3.29282 17.4142L6.99992 21.1213L10.707 17.4142L9.29282 16L8 17.2928V13H6V17.293L4.70703 16L3.29282 17.4142Z" fill="#262626"/>
</svg>
