<svg width="24" height="24" viewBox="0 0 24 24" fill="none" xmlns="http://www.w3.org/2000/svg">
<path fill-rule="evenodd" clip-rule="evenodd" d="M22 2H2L2 22H22V2ZM2 0C0.895431 0 0 0.89543 0 2V22C0 23.1046 0.89543 24 2 24H22C23.1046 24 24 23.1046 24 22V2C24 0.895431 23.1046 0 22 0H2ZM16 7C16.5523 7 17 6.55228 17 6C17 5.44772 16.5523 5 16 5C15.4477 5 15 5.44772 15 6C15 6.55228 15.4477 7 16 7ZM16 9C17.6569 9 19 7.65685 19 6C19 4.34315 17.6569 3 16 3C14.3431 3 13 4.34315 13 6C13 7.65685 14.3431 9 16 9ZM16 9H18C19.1046 9 20 9.89543 20 11V17H19V21H17V15H18V11H14V15H15V21H13V17H12V11C12 9.89543 12.8954 9 14 9H16ZM7.00008 4.58578L10.7072 8.29289L9.29297 9.70711L7.00008 7.41421L4.70718 9.70711L3.29297 8.29289L7.00008 4.58578ZM3.29282 15.7071L6.99992 19.4142L10.707 15.7071L9.29282 14.2929L6.99992 16.5858L4.70703 14.2929L3.29282 15.7071Z" fill="#3E3832"/>
</svg>
