<svg width="24" height="24" viewBox="0 0 24 24" fill="none" xmlns="http://www.w3.org/2000/svg">
<path fill-rule="evenodd" clip-rule="evenodd" d="M12 4.23607L2.4102 8.03097L12 13.2254L21.5898 8.03097L12 4.23607ZM0 7.80877V7L12 2L24 7V7.80878C24 7.87303 23.9969 7.93683 23.9909 8H24V19C24 20.6569 22.6569 22 21 22H3C1.34314 22 0 20.6569 0 19V8H0.00913671C0.00308106 7.93683 0 7.87303 0 7.80877ZM2 17.1315L7.83295 13.2428L2 10.0833V17.1315ZM9.82222 14.3204L2.11208 19.4605C2.27866 19.781 2.61376 20 3 20H21C21.3862 20 21.7213 19.781 21.8879 19.4605L14.1778 14.3204L12 15.5L9.82222 14.3204ZM22 10.0833V17.1315L16.1671 13.2428L22 10.0833Z" fill="#262626"/>
</svg>
