<svg width="16" height="24" viewBox="0 0 16 24" fill="none" xmlns="http://www.w3.org/2000/svg">
<path fill-rule="evenodd" clip-rule="evenodd" d="M8 24C9.10457 24 10 23.1046 10 22H6L6.00549 22.1493C6.08183 23.1841 6.94564 24 8 24ZM11 21V19H5V21H11ZM16 8.1C16 3.62649 12.4183 0 8 0C3.58172 0 0 3.62649 0 8.1C0 9.92409 0.595506 11.6073 1.60041 12.9613L1.817 13.2661C2.36013 14.0599 3.05829 15.2869 3.91148 16.947L4.44444 18H11.5556C12.6629 15.7854 13.5426 14.2021 14.1946 13.25L14.5867 12.6985C15.478 11.3922 16 9.80782 16 8.1ZM11 8C12.1046 8 13 7.10457 13 6C13 4.89543 12.1046 4 11 4C9.89543 4 9 4.89543 9 6C9 7.10457 9.89543 8 11 8Z" fill="#262626"/>
</svg>
