<svg width="24" height="24" viewBox="0 0 24 24" fill="none" xmlns="http://www.w3.org/2000/svg">
<path fill-rule="evenodd" clip-rule="evenodd" d="M18.5334 6.88086L22.2071 3.20718L20.7929 1.79297L16.6584 5.9275C15.161 5.30922 13.6082 5.00008 12 5.00008C7.58172 5.00008 3.58172 7.33341 0 12.0001C1.72515 14.2478 3.54734 15.9542 5.46657 17.1193L1.79291 20.793L3.20712 22.2072L7.34164 18.0727C8.83901 18.6909 10.3918 19.0001 12 19.0001C16.4183 19.0001 20.4183 16.6667 24 12.0001C22.2749 9.75236 20.4527 8.04595 18.5334 6.88086ZM15.1001 7.48577C14.0778 7.15698 13.0445 7.00008 12 7.00008C8.75272 7.00008 5.6128 8.51673 2.58044 12.0001C4.00639 13.6381 5.45612 14.8412 6.92962 15.6563L7.82809 14.7578C6.54188 12.8164 6.754 10.175 8.46447 8.46454C9.44078 7.48823 10.7204 7.00008 12 7.00008C12.9622 7.00008 13.9245 7.2761 14.7577 7.82816L15.1001 7.48577ZM13.2935 9.29236C12.1784 8.75965 10.8023 8.95512 9.87868 9.87876C8.95504 10.8024 8.75957 12.1785 9.29228 13.2936L13.2935 9.29236ZM8.89992 16.5144L17.0704 8.3439C18.5439 9.15894 19.9936 10.3621 21.4196 12.0001C18.3872 15.4834 15.2473 17.0001 12 17.0001C10.9555 17.0001 9.92217 16.8432 8.89992 16.5144Z" fill="#262626"/>
</svg>
