<svg width="1em" height="1em" viewBox="0 0 24 24" fill="none" xmlns="http://www.w3.org/2000/svg">
<path fill-rule="evenodd" clip-rule="evenodd" d="M20.4142 2.17157L21.8284 3.58579L18.5328 6.88041C20.4523 8.04552 22.2747 9.75205 24 12C20.4183 16.6667 16.4183 19 12 19C10.3922 19 8.83976 18.691 7.34273 18.073L3.58579 21.8284L2.17157 20.4142L5.46716 17.1196C3.54772 15.9545 1.72533 14.248 0 12C3.58172 7.33333 7.58172 5 12 5C13.6078 5 15.1602 5.30899 16.6573 5.92697L20.4142 2.17157ZM11.7831 7.00462L12 7C8.68897 7 5.60745 8.57682 2.7024 11.8609L2.581 12L2.7024 12.1391C5.51373 15.3172 8.49034 16.8965 11.6803 16.9951L12 17C9.23858 17 7 14.7614 7 12C7 9.31125 9.12231 7.11818 11.7831 7.00462ZM12.3197 7.00493L12.002 7C14.7614 7 17 9.23858 17 12C17 14.6881 14.8787 16.8807 12.2188 16.9953L12.002 17C15.311 17 18.3926 15.4232 21.2976 12.1391L21.418 12L21.2976 11.8609C18.4863 8.68276 15.5097 7.10351 12.3197 7.00493ZM14.7076 10.7065L10.7063 14.7075C11.098 14.895 11.5367 15 12 15C13.6569 15 15 13.6569 15 12C15 11.5368 14.895 11.0981 14.7076 10.7065ZM12 9C10.3431 9 9 10.3431 9 12C9 12.4632 9.10498 12.9019 9.29243 13.2935L13.2927 9.29204C12.9013 9.10483 12.4629 9 12 9Z" fill="currentColor"/>
</svg>
