<svg width="24" height="24" viewBox="0 0 24 24" fill="none" xmlns="http://www.w3.org/2000/svg">
<path fill-rule="evenodd" clip-rule="evenodd" d="M17.0007 7.2676C16.3815 6.91044 16 6.24996 16 5.53513V2H13.6291C13.4207 4.37363 11.4277 6.23529 9 6.23529C6.57226 6.23529 4.57934 4.37363 4.37093 2H2V16H5.53513C6.24996 16 6.91044 16.3815 7.2676 17.0007C7.62475 17.6199 7.62428 18.3827 7.26634 19.0015C7.09735 19.2936 7 19.6324 7 20C7 21.1046 7.89543 22 9 22C10.1046 22 11 21.1046 11 20C11 19.6324 10.9027 19.2936 10.7337 19.0015C10.3757 18.3827 10.3752 17.6199 10.7324 17.0007C11.0896 16.3815 11.75 16 12.4649 16H16V12.4649C16 11.75 16.3815 11.0896 17.0007 10.7324C17.6199 10.3752 18.3827 10.3757 19.0015 10.7337C19.2936 10.9027 19.6324 11 20 11C21.1046 11 22 10.1046 22 9C22 7.89543 21.1046 7 20 7C19.6324 7 19.2936 7.09735 19.0015 7.26634C18.3827 7.62428 17.6199 7.62475 17.0007 7.2676ZM13.6479 1.619C13.6479 1.61901 13.6478 1.61946 13.6473 1.62036L13.6479 1.619ZM18 1.05882C18 0.474051 17.5259 0 16.9412 0H12.8214C12.1198 0 11.6471 0.886695 11.6471 1.58824C11.6471 3.05017 10.4619 4.23529 9 4.23529C7.53807 4.23529 6.35294 3.05017 6.35294 1.58824C6.35294 0.886695 5.88017 0 5.17863 0H1.05882C0.474051 0 0 0.474051 0 1.05882V16.9412C0 17.5259 0.474051 18 1.05882 18H5.53513C5.19479 18.5883 5 19.2714 5 20C5 22.2091 6.79086 24 9 24C11.2091 24 13 22.2091 13 20C13 19.2714 12.8052 18.5883 12.4649 18H16.9412C17.5259 18 18 17.5259 18 16.9412V12.4649C18.5883 12.8052 19.2714 13 20 13C22.2091 13 24 11.2091 24 9C24 6.79086 22.2091 5 20 5C19.2714 5 18.5883 5.19479 18 5.53513V1.05882Z" fill="#262626"/>
</svg>
