<svg width="24" height="24" viewBox="0 0 24 24" fill="none" xmlns="http://www.w3.org/2000/svg">
<path fill-rule="evenodd" clip-rule="evenodd" d="M0 23.9992V14.9995C0 12.4934 1.53653 10.3461 3.71892 9.44845C2.10463 8.62141 0.999966 6.93963 0.999966 4.99983C0.999966 2.2385 3.23847 0 5.9998 0C8.76113 0 10.9996 2.2385 10.9996 4.99983C10.9996 6.93963 9.89496 8.62141 8.28039 9.45042C9.46961 9.93746 10.467 10.7975 11.1286 11.8844C11.6666 12.4274 11.9996 13.1746 11.9996 13.9995C11.9996 14.9914 11.5182 15.8709 10.7763 16.417C11.1213 16.5861 11.4376 16.8054 11.7169 17.0641C12.1697 16.3586 12.8168 15.7882 13.5822 15.4272C12.6302 14.8026 12.0009 13.7246 12.0009 12.4996C12.0009 10.5666 13.5678 8.9997 15.5007 8.9997L15.6768 9.00453C14.6539 8.17968 13.9995 6.91617 13.9995 5.49982C13.9995 3.01462 16.0142 0.999966 18.4994 0.999966C20.9846 0.999966 22.9992 3.01462 22.9992 5.49982C22.9992 7.27175 21.9751 8.80447 20.4864 9.53831C22.4875 10.4496 23.8999 12.4297 23.9949 14.7497L24 14.9995V23.9992H0ZM8.9997 17.9994C7.94537 17.9994 7.0816 18.8152 7.00525 19.8501L6.99976 19.9993V21.9993H10.9996V19.9993C10.9996 18.945 10.1838 18.0812 9.14895 18.0049L8.9997 17.9994ZM15.4995 16.9994C14.174 16.9994 13.0895 18.0309 13.0049 19.335L12.9996 19.4993V21.9993H17.9994V19.4993C17.9994 18.1739 16.9679 17.0894 15.6638 17.0047L15.4995 16.9994ZM8.9997 12.9996C8.44743 12.9996 7.99973 13.4473 7.99973 13.9995C7.99973 14.5518 8.44743 14.9995 8.9997 14.9995C9.55196 14.9995 9.99966 14.5518 9.99966 13.9995C9.99966 13.4473 9.55196 12.9996 8.9997 12.9996ZM15.5007 10.9996C14.6723 10.9996 14.0008 11.6712 14.0008 12.4996C14.0008 13.328 14.6723 13.9995 15.5007 13.9995C16.3291 13.9995 17.0007 13.328 17.0007 12.4996C17.0007 11.6712 16.3291 10.9996 15.5007 10.9996ZM5.9998 1.99993C4.343 1.99993 2.9999 3.34303 2.9999 4.99983C2.9999 6.65663 4.343 7.99973 5.9998 7.99973C7.6566 7.99973 8.9997 6.65663 8.9997 4.99983C8.9997 3.34303 7.6566 1.99993 5.9998 1.99993ZM18.4994 2.9999C17.1187 2.9999 15.9995 4.11915 15.9995 5.49982C15.9995 6.88048 17.1187 7.99973 18.4994 7.99973C19.88 7.99973 20.9993 6.88048 20.9993 5.49982C20.9993 4.11915 19.88 2.9999 18.4994 2.9999Z" fill="#3E3832"/>
</svg>
