<svg width="24" height="24" viewBox="0 0 24 24" fill="none" xmlns="http://www.w3.org/2000/svg">
<path fill-rule="evenodd" clip-rule="evenodd" d="M23.1247 0.875328C24.2918 2.04243 24.2918 3.93468 23.1247 5.10179C22.6902 5.53626 22.1552 5.80899 21.5946 5.91999C22.0417 7.5822 21.6123 9.43175 20.307 10.7371C20.6961 11.1261 20.6961 11.7569 20.307 12.1459L19.6026 12.8503L18.8003 12.048L18.2601 14.3387C18.0051 15.4193 17.4542 16.4075 16.6692 17.1925L10.4453 23.4164C9.66722 24.1945 8.40572 24.1945 7.62765 23.4164L0.583552 16.3723C-0.194517 15.5943 -0.194517 14.3328 0.583552 13.5547L6.80745 7.33081C7.59251 6.54575 8.58071 5.99486 9.66127 5.7399L11.9513 5.199L11.1497 4.39738L11.8541 3.69297C12.2431 3.30393 12.8739 3.30393 13.2629 3.69297C14.5682 2.38765 16.4178 1.95827 18.0812 2.40483C18.191 1.84476 18.4637 1.3098 18.8982 0.875328C20.0653 -0.291776 21.9576 -0.291776 23.1247 0.875328ZM13.6074 6.85506L10.1188 7.67902C9.47848 7.83011 8.8868 8.13708 8.39564 8.57101L8.21627 8.73963L6.955 10H16.753L13.6074 6.85506Z" fill="#262626"/>
</svg>
