<svg width="24" height="24" viewBox="0 0 24 24" fill="none" xmlns="http://www.w3.org/2000/svg">
<path fill-rule="evenodd" clip-rule="evenodd" d="M12.0001 6C13.6569 6 16.0001 7.03217 16.0001 9V12L18.4027 17.6061C18.6202 18.1137 18.3851 18.7016 17.8774 18.9191C17.753 18.9725 17.619 19 17.4835 19H14.9996L15.0001 24H13.0001L12.9996 17H15.9671L14.0001 12.4105C14.0001 10.3269 14.0001 9.19002 14.0001 9C14.0001 8.71497 13.4039 8 12.0001 8C10.5963 8 10.0001 8.70612 10.0001 9C10.0001 9.19592 10.0001 10.3328 10.0001 12.4105L8.03206 17H10.9996L11.0001 24H9.00006L8.9996 19H6.5166C5.96432 19 5.5166 18.5523 5.5166 18C5.5166 17.8646 5.54411 17.7306 5.59746 17.6061L8.00006 12V9C8.00006 7 10.3432 6 12.0001 6ZM12.0001 0C13.6569 0 15.0001 1.34315 15.0001 3C15.0001 4.65685 13.6569 6 12.0001 6C10.3432 6 9.00006 4.65685 9.00006 3C9.00006 1.34315 10.3432 0 12.0001 0ZM12.0001 2C11.4478 2 11.0001 2.44772 11.0001 3C11.0001 3.55228 11.4478 4 12.0001 4C12.5523 4 13.0001 3.55228 13.0001 3C13.0001 2.44772 12.5523 2 12.0001 2Z" fill="#3E3832"/>
</svg>
