<svg width="24" height="24" viewBox="0 0 24 24" fill="none" xmlns="http://www.w3.org/2000/svg">
<path fill-rule="evenodd" clip-rule="evenodd" d="M16.0001 9C16.0001 7.03217 13.6569 6 12.0001 6C13.6569 6 15.0001 4.65685 15.0001 3C15.0001 1.34315 13.6569 0 12.0001 0C10.3432 0 9.00006 1.34315 9.00006 3C9.00006 4.65685 10.3432 6 12.0001 6C10.3432 6 8.00006 7 8.00006 9V12L5.59746 17.6061C5.54411 17.7306 5.5166 17.8646 5.5166 18C5.5166 18.5523 5.96432 19 6.5166 19H8.9996L9.00006 24H11.0001L10.9997 18.875H12.9997L13.0001 24H15.0001L14.9996 19H17.4835C17.619 19 17.753 18.9725 17.8774 18.9191C18.3851 18.7016 18.6202 18.1137 18.4027 17.6061L16.0001 12V9ZM11.0001 3C11.0001 2.44772 11.4478 2 12.0001 2C12.5523 2 13.0001 2.44772 13.0001 3C13.0001 3.55228 12.5523 4 12.0001 4C11.4478 4 11.0001 3.55228 11.0001 3Z" fill="#3E3832"/>
</svg>
