<svg width="24" height="24" viewBox="0 0 24 24" fill="none" xmlns="http://www.w3.org/2000/svg">
<path fill-rule="evenodd" clip-rule="evenodd" d="M22.7876 0.808039C24.2423 2.0532 24.4119 4.2901 23.1663 5.8043L18.07 11.999L24 12V24H0V12L9.092 11.999L17.8981 1.29519C19.1437 -0.219011 21.3328 -0.437117 22.7876 0.808039ZM16.424 13.999L14.1448 16.7711L7 20L8.455 13.999L2 14V22H22V14L16.424 13.999ZM16.736 5.825L10.6749 13.1929L9.87015 16.5098L12.9327 15.1254L19.012 7.735L16.736 5.825ZM19.4992 2.47669L19.4033 2.58351L18.007 4.28L20.283 6.19L21.6611 4.51599C22.1841 3.88027 22.1474 2.97819 21.6223 2.43534L21.5246 2.3434C20.9422 1.84497 20.0617 1.90179 19.4992 2.47669Z" fill="#3E3832"/>
</svg>
