<svg width="25" height="1em" viewBox="0 0 25 24" fill="none" xmlns="http://www.w3.org/2000/svg">
<path fill-rule="evenodd" clip-rule="evenodd" d="M18.0394 1.10889L18.0696 1.07797C19.3139 -0.193723 21.3848 -0.408751 22.8251 0.823966L22.8608 0.854537L23.0271 1.01096L23.0598 1.04481C24.3286 2.3565 24.3404 4.40707 23.2057 5.78656L21.7172 7.59456L14.1812 16.7559L6.96045 20.0199L8.83932 12.2761L15.2042 4.53889L15.2039 4.53857L16.4075 3.07614L16.4745 2.99468L17.8862 1.27963L18.0394 1.10889ZM18.007 4.28L19.4033 2.58351L19.4991 2.47669C20.0617 1.90179 20.9422 1.84497 21.5246 2.3434L21.6223 2.43534C22.1474 2.9782 22.184 3.88027 21.6611 4.51599L20.283 6.19L18.007 4.28ZM10.6749 13.1929L16.736 5.82501L19.012 7.73501L12.9327 15.1254L9.87014 16.5098L10.6749 13.1929ZM0 24H24V22H0V24Z" fill="currentColor"/>
</svg>
