<svg width="24" height="24" viewBox="0 0 24 24" fill="none" xmlns="http://www.w3.org/2000/svg">
<path fill-rule="evenodd" clip-rule="evenodd" d="M17.5 5.15051C17.3931 5.15051 17.2819 5.15618 17.1673 5.16706C17.2341 5.07396 17.2946 4.98129 17.3481 4.88946C18.4526 2.99145 17.9349 1.21613 16.5 0.394265C15.0651 -0.4276 13.1519 0.194895 12.1519 1.91323C12.0985 2.00506 12.0478 2.1034 12 2.20738C11.9521 2.1034 11.9015 2.00506 11.8481 1.91323C10.7435 0.0152112 8.93487 -0.427598 7.49999 0.394266C6.06511 1.21613 5.65192 3.17113 6.65192 4.88946C6.70536 4.98129 6.76588 5.07396 6.83272 5.16705C6.71804 5.15618 6.60688 5.15051 6.5 5.15051C4.29086 5.15051 3 6.48302 3 8.12675C3 9.52002 4.07772 10.6897 5.62416 11.0138C3.37936 12.5856 2.00001 15.1609 2.00001 17.9538L2.00001 24H4.00001V17.9538C4.00001 16.1291 4.76819 14.4256 6.06058 13.2164C6.00274 14.3543 6.55063 15.3155 7.49999 15.8592C8.93487 16.6811 10.8481 16.0586 11.8481 14.3403C12.3137 13.5401 12.5664 12.2454 12.6161 11.0402C13.2532 10.9082 13.816 10.5758 14.2346 10.1125C15.3117 10.6726 16.5685 11.103 17.5 11.103C19.7091 11.103 21 9.77047 21 8.12675C21 6.48302 19.5 5.15051 17.5 5.15051ZM13 8.12675C13 8.67465 12.5523 9.11882 12 9.11882C11.4477 9.11882 11 8.67465 11 8.12675C11 7.57884 11.4477 7.13467 12 7.13467C12.5523 7.13467 13 7.57884 13 8.12675ZM11 20.5277C11 18.5436 13 15.0713 14 15.0713C15 15.0713 17 18.5436 17 20.5277C17 22.5119 15.6569 24 14 24C12.3431 24 11 22.7194 11 20.5277Z" fill="#262626"/>
</svg>
