<svg width="1em" height="1em" viewBox="0 0 24 25" fill="none" xmlns="http://www.w3.org/2000/svg">
<path fill-rule="evenodd" clip-rule="evenodd" d="M17.5 5.19164C17.3931 5.19164 17.2819 5.19735 17.1673 5.20831C17.2341 5.11448 17.2946 5.02106 17.3481 4.9285C18.4526 3.01533 17.9349 1.22584 16.5 0.397414C15.0651 -0.431013 13.1519 0.196452 12.1519 1.9285C12.0985 2.02107 12.0478 2.1202 12 2.225C11.9521 2.1202 11.9015 2.02107 11.8481 1.9285C10.7435 0.0153333 8.93486 -0.431012 7.49999 0.397415C6.06511 1.22584 5.65191 3.19645 6.65191 4.9285C6.70535 5.02106 6.76588 5.11448 6.83271 5.20831C6.71803 5.19735 6.60687 5.19164 6.49999 5.19164C4.29085 5.19164 2.99999 6.53478 2.99999 8.19164C2.99999 9.59604 4.07772 10.7751 5.62415 11.1017C3.37935 12.686 2 15.2819 2 18.0971V24.1916H4V18.0971C4 16.2579 4.76818 14.5408 6.06057 13.3219C6.00274 14.4689 6.55063 15.4378 7.49999 15.9859C8.93486 16.8143 10.8481 16.1868 11.8481 14.4548C12.3137 13.6482 12.5664 12.3432 12.6161 11.1283C13.2532 10.9953 13.816 10.6603 14.2346 10.1933C15.3117 10.7578 16.5685 11.1916 17.5 11.1916C19.7091 11.1916 21 9.84849 21 8.19164C21 6.53478 19.5 5.19164 17.5 5.19164ZM13 8.19164C13 8.74392 12.5523 9.19164 12 9.19164C11.4477 9.19164 11 8.74392 11 8.19164C11 7.63935 11.4477 7.19164 12 7.19164C12.5523 7.19164 13 7.63935 13 8.19164ZM11 20.6916C11 18.6916 13 15.1916 14 15.1916C15 15.1916 17 18.6916 17 20.6916C17 22.6916 15.6569 24.1916 14 24.1916C12.3431 24.1916 11 22.9008 11 20.6916Z" fill="currentColor"/>
</svg>
