<svg width="1em" height="1em" viewBox="0 0 24 25" fill="none" xmlns="http://www.w3.org/2000/svg">
<path fill-rule="evenodd" clip-rule="evenodd" d="M10.3794 5.66659C10.4583 5.61584 10.5398 5.56868 10.6235 5.52536C10.6008 4.37804 10.3624 3.35532 10.116 2.9285C9.7674 2.3247 9.40452 2.10914 9.18629 2.03905C8.97687 1.97179 8.74966 1.98532 8.49999 2.12947C8.2427 2.27801 7.79936 2.91595 8.38396 3.9285C8.6304 4.35535 9.39703 5.07324 10.3794 5.66659ZM9.00324 8.05086C7.9981 7.49667 6.99293 7.19164 6.49999 7.19164C5.80278 7.19164 5.43466 7.39812 5.26485 7.55207C5.10188 7.69981 4.99999 7.90334 4.99999 8.19164C4.99999 8.48873 5.3308 9.19164 6.49999 9.19164C6.99293 9.19164 7.9981 8.8866 9.00324 8.33241C9.00109 8.28576 8.99999 8.23882 8.99999 8.19164C8.99999 8.14445 9.00109 8.09751 9.00324 8.05086ZM10.3794 10.7167C9.39703 11.31 8.6304 12.0279 8.38396 12.4548C8.03535 13.0586 8.03012 13.4806 8.07853 13.7047C8.12499 13.9197 8.25031 14.1097 8.49999 14.2538C8.75728 14.4024 9.53141 14.4673 10.116 13.4548C10.3624 13.028 10.6008 12.0052 10.6235 10.8579C10.5398 10.8146 10.4583 10.7674 10.3794 10.7167ZM12.6161 11.1283C12.5664 12.3432 12.3137 13.6482 11.8481 14.4548C10.8481 16.1868 8.93486 16.8143 7.49999 15.9859C6.55063 15.4378 6.00274 14.4689 6.06057 13.3219C4.76818 14.5408 4 16.2579 4 18.0971V24.1916H2V18.0971C2 15.2819 3.37935 12.686 5.62415 11.1017C4.07772 10.7751 2.99999 9.59604 2.99999 8.19164C2.99999 6.53478 4.29085 5.19164 6.49999 5.19164C6.60687 5.19164 6.71803 5.19735 6.83271 5.20831C6.76588 5.11448 6.70535 5.02106 6.65191 4.9285C5.65191 3.19645 6.06511 1.22584 7.49999 0.397415C8.93486 -0.431012 10.7435 0.0153333 11.8481 1.9285C11.9015 2.02107 11.9521 2.1202 12 2.225C12.0478 2.1202 12.0985 2.02107 12.1519 1.9285C13.1519 0.196452 15.0651 -0.431013 16.5 0.397414C17.9349 1.22584 18.4526 3.01533 17.3481 4.9285C17.2946 5.02106 17.2341 5.11448 17.1673 5.20831C17.2819 5.19735 17.3931 5.19164 17.5 5.19164C19.5 5.19164 21 6.53478 21 8.19164C21 9.84849 19.7091 11.1916 17.5 11.1916C16.5685 11.1916 15.3117 10.7578 14.2346 10.1933C13.816 10.6603 13.2532 10.9953 12.6161 11.1283ZM14.9967 8.33242C16.0019 8.8866 17.0071 9.19164 17.5 9.19164C18.1972 9.19164 18.5653 8.98515 18.7351 8.8312C18.8981 8.68347 19 8.47993 19 8.19164C19 7.89454 18.6692 7.19164 17.5 7.19164C17.0071 7.19164 16.0019 7.49667 14.9967 8.05086C14.9989 8.09751 15 8.14445 15 8.19164C15 8.23882 14.9989 8.28576 14.9967 8.33242ZM13.6206 5.66659C14.603 5.07324 15.3696 4.35535 15.616 3.9285C15.9646 3.32469 15.9699 2.90266 15.9214 2.67862C15.875 2.46362 15.7497 2.27361 15.5 2.12946C15.2427 1.98092 14.4686 1.91595 13.884 2.9285C13.6375 3.35532 13.3992 4.37803 13.3765 5.52535C13.4602 5.56867 13.5417 5.61583 13.6206 5.66659ZM13 8.19164C13 8.74392 12.5523 9.19164 12 9.19164C11.4477 9.19164 11 8.74392 11 8.19164C11 7.63935 11.4477 7.19164 12 7.19164C12.5523 7.19164 13 7.63935 13 8.19164ZM13 20.6916C13 20.1945 13.3102 19.1765 13.8733 18.1629C13.9158 18.0865 13.9581 18.013 14 17.9427C14.0419 18.013 14.0842 18.0865 14.1267 18.1629C14.6898 19.1765 15 20.1945 15 20.6916C15 21.8608 14.2971 22.1916 14 22.1916C13.7117 22.1916 13.5082 22.0897 13.3604 21.9268C13.2065 21.757 13 21.3889 13 20.6916ZM11 20.6916C11 18.6916 13 15.1916 14 15.1916C15 15.1916 17 18.6916 17 20.6916C17 22.6916 15.6569 24.1916 14 24.1916C12.3431 24.1916 11 22.9008 11 20.6916Z" fill="currentColor"/>
</svg>
