<svg width="24" height="24" viewBox="0 0 24 24" fill="none" xmlns="http://www.w3.org/2000/svg">
<path fill-rule="evenodd" clip-rule="evenodd" d="M2 1C2 0.447715 1.55228 0 1 0C0.447715 0 0 0.447715 0 1V8C0 9.86384 1.27477 11.4299 3 11.874V24H5V11.874C6.72523 11.4299 8 9.86384 8 8V1C8 0.447715 7.55228 0 7 0C6.44772 0 6 0.447715 6 1V7H5V1C5 0.447715 4.55228 0 4 0C3.44772 0 3 0.447715 3 1V7H2V1ZM14 11.8572C15.7252 11.3503 17 9.53109 17 7C17 3.68629 16 0 13 0C10 0 9 3.68629 9 7C9 9.53109 10.2748 11.3503 12 11.8572V24H14V11.8572ZM24 0.396207V2V16V24H22V15.1667L20.2038 14.4183C18.8693 13.8622 18 12.5577 18 11.112V6.68517C18 3.40371 20.3724 0.604604 23.6092 0.065136C23.8138 0.031039 24 0.188803 24 0.396207Z" fill="#262626"/>
</svg>
