<svg width="1em" height="1em" viewBox="0 0 24 24" fill="none" xmlns="http://www.w3.org/2000/svg">
<path fill-rule="evenodd" clip-rule="evenodd" d="M12 0C16.4183 0 20 3.58172 20 8C20 8.70372 19.9091 9.38622 19.7385 10.0364C19.8202 10.0122 19.9087 10 20 10C20.5523 10 21 10.4477 21 11C21 11.429 20.7299 11.7948 20.3505 11.9368L23.1213 14.7071L21.7071 16.1213L18.3948 12.8077C17.7707 13.6365 16.9892 14.3401 16.0947 14.8741C19.5758 16.4383 22 19.936 22 24H2C2 19.936 4.42424 16.4383 7.9055 14.874C7.11385 14.4018 6.41008 13.7958 5.82582 13.0875L2.79289 16.1213L1.37868 14.7071L4.09068 11.995L4 12C3.48716 12 3.06449 11.614 3.00673 11.1166L3 11C3 10.4477 3.44771 10 4 10C4.09095 10 4.17906 10.0121 4.26281 10.0349C4.09086 9.38622 4 8.70372 4 8C4 3.58172 7.58172 0 12 0ZM12 14C15.3137 14 18 11.3137 18 8H6C6 11.3137 8.68629 14 12 14Z" fill="currentColor"/>
</svg>
