<svg width="24" height="24" viewBox="0 0 24 24" fill="none" xmlns="http://www.w3.org/2000/svg">
<path fill-rule="evenodd" clip-rule="evenodd" d="M4 3C2.89543 3 2 3.89543 2 5V15H9H15H22V5C22 3.89543 21.1046 3 20 3C18.8954 3 18 3.89543 18 5V6C18 6.55228 17.5523 7 17 7C16.4477 7 16 6.55228 16 6V5C16 2.79086 17.7909 1 20 1C22.2091 1 24 2.79086 24 5V17V18V19C24 21.2091 22.2091 23 20 23H17C14.7909 23 13 21.2091 13 19V17H11V19C11 21.2091 9.20914 23 7 23H4C1.79086 23 0 21.2091 0 19V18V17V5C0 2.79086 1.79086 1 4 1C6.20914 1 8 2.79086 8 5V6C8 6.55228 7.55228 7 7 7C6.44772 7 6 6.55228 6 6V5C6 3.89543 5.10457 3 4 3ZM22 18V17H15V19C15 20.1046 15.8954 21 17 21H20C21.1046 21 22 20.1046 22 19V18ZM2 18V17H9V19C9 20.1046 8.10457 21 7 21H4C2.89543 21 2 20.1046 2 19V18Z" fill="#262626"/>
</svg>
