<svg width="24" height="24" viewBox="0 0 24 24" fill="none" xmlns="http://www.w3.org/2000/svg">
<path fill-rule="evenodd" clip-rule="evenodd" d="M6.2517 6L6.08503 2H17.9149L17.7482 6H6.2517ZM6.33503 8L6.87843 21.0416C6.90075 21.5773 7.34148 22 7.87757 22H16.1224C16.6585 22 17.0992 21.5773 17.1215 21.0416L17.6649 8H6.33503ZM4.04337 1.04163C4.01969 0.473506 4.47388 0 5.0425 0H18.9574C19.526 0 19.9802 0.473505 19.9566 1.04163L19.1198 21.1249C19.0528 22.7318 17.7306 24 16.1224 24H7.87757C6.26929 24 4.94712 22.7318 4.88017 21.1249L4.04337 1.04163Z" fill="#262626"/>
</svg>
