<svg width="24" height="24" viewBox="0 0 24 24" fill="none" xmlns="http://www.w3.org/2000/svg">
<path fill-rule="evenodd" clip-rule="evenodd" d="M9.03825 8.99995L7.91185 14.7325C7.52168 16.7182 7.40344 18.7433 7.55685 20.7523L15.8918 13.9328L14.9284 10.7217L14.637 8.93043C14.2234 8.98374 13.7795 9.00702 13.3361 8.99831C12.6756 8.98532 11.9726 8.90049 11.3394 8.71131C10.7283 8.52872 10.0569 8.21159 9.61323 7.64335C8.69338 6.46508 8.97335 5.24998 9.38722 4.47516C9.58962 4.09625 9.83408 3.79217 10.0204 3.58734C10.1153 3.4831 10.1993 3.3999 10.2621 3.34068C10.2936 3.31098 10.32 3.28702 10.3401 3.26919L10.3655 3.247L10.3744 3.23938L10.3779 3.23644L10.3794 3.2352L10.38 3.23463C10.3804 3.23436 10.3807 3.2341 11.0235 4.00009C11.6664 4.76609 11.6667 4.76583 11.667 4.76559L11.6675 4.76513L11.6685 4.7643L11.67 4.76302L11.6712 4.76197L11.6669 4.76573C11.6612 4.77082 11.65 4.78087 11.6345 4.79552C11.6032 4.82501 11.5556 4.87191 11.4998 4.93327C11.3848 5.05961 11.2522 5.22864 11.1513 5.41745C10.9587 5.77808 10.9277 6.07693 11.1897 6.41261C11.2639 6.50758 11.4734 6.66399 11.9119 6.79501C12.3283 6.91942 12.8436 6.98824 13.3754 6.99869C13.7069 7.00521 14.0278 6.98873 14.3157 6.95493L13.7349 3.38501C13.5991 2.55004 12.9127 2 12.1787 2H9.5C8.97488 2 8.25427 2.14684 7.62223 2.45573C6.97915 2.77002 6.65734 3.13333 6.54243 3.41715L6.03657 4.66658H2V7.33325C2 8.29965 2.7523 8.99992 3.57896 8.99992L9.03825 8.99995ZM18.1908 14.6359L18.75 16.5L22 24H6C5.33999 20.8178 5.32278 17.5358 5.94938 14.3469L6.60703 10.9999L3.57895 10.9999C1.60235 10.9999 0 9.35829 0 7.33325V4.49992C0 3.48739 0.801175 2.66658 1.78947 2.66658H4.68861C5.41679 0.868043 7.83783 0 9.5 0H12.1787C13.9282 0 15.4213 1.29585 15.709 3.06387L16.4795 7.80052L16.5629 7.86904L18.3927 6.40518C19.6346 5.41164 21.425 5.5108 22.5496 6.63542C23.8554 7.94117 23.7483 10.0889 22.3191 11.2582L18.1908 14.6359ZM16.5142 16.0077L9.19027 22H18.9536L16.8681 17.1873L16.5142 16.0077ZM16.8677 10.1865L19.6421 7.96692C20.0883 7.61 20.7314 7.64562 21.1354 8.04963C21.6045 8.51871 21.566 9.29025 21.0526 9.71033L17.5683 12.5611L16.8816 10.2718L16.8677 10.1865Z" fill="#262626"/>
</svg>
