<svg width="24" height="24" viewBox="0 0 24 24" fill="none" xmlns="http://www.w3.org/2000/svg">
<mask id="path-1-inside-1" fill="white">
<path fill-rule="evenodd" clip-rule="evenodd" d="M13.4941 0C12.6652 0 11.9931 0.672023 11.9931 1.501V9H14.9951V1.501C14.9951 0.672023 14.3231 0 13.4941 0ZM9.49146 1C8.66248 1 7.99045 1.67202 7.99045 2.501V9H10.9925V2.501C10.9925 1.67202 10.3204 1 9.49146 1ZM21.9998 13V10H7.99045V11L21.9998 13ZM2.3963 12.0974C1.8679 11.569 1.8679 10.7123 2.3963 10.1839C3.45309 9.12709 5.16648 9.12709 6.22327 10.1839L7.98865 11.9493L5.11842 14.8195L2.3963 12.0974ZM15.9958 2.501C15.9958 1.67202 16.6678 1 17.4968 1C18.3258 1 18.9978 1.67202 18.9978 2.501V9H15.9958V2.501ZM20.9992 3C20.4465 3 19.9985 3.44801 19.9985 4.00067V9H21.9998V4.00067C21.9998 3.44801 21.5518 3 20.9992 3ZM5.83276 15.8438L8.99112 20L18.3064 19.2839C20.3905 19.1237 21.9998 17.3859 21.9998 15.2957V14L8.99112 12.2344L5.83276 15.8438ZM19.9985 20L8.99112 21V24H19.9985V20Z"/>
</mask>
<path fill-rule="evenodd" clip-rule="evenodd" d="M13.4941 0C12.6652 0 11.9931 0.672023 11.9931 1.501V9H14.9951V1.501C14.9951 0.672023 14.3231 0 13.4941 0ZM9.49146 1C8.66248 1 7.99045 1.67202 7.99045 2.501V9H10.9925V2.501C10.9925 1.67202 10.3204 1 9.49146 1ZM21.9998 13V10H7.99045V11L21.9998 13ZM2.3963 12.0974C1.8679 11.569 1.8679 10.7123 2.3963 10.1839C3.45309 9.12709 5.16648 9.12709 6.22327 10.1839L7.98865 11.9493L5.11842 14.8195L2.3963 12.0974ZM15.9958 2.501C15.9958 1.67202 16.6678 1 17.4968 1C18.3258 1 18.9978 1.67202 18.9978 2.501V9H15.9958V2.501ZM20.9992 3C20.4465 3 19.9985 3.44801 19.9985 4.00067V9H21.9998V4.00067C21.9998 3.44801 21.5518 3 20.9992 3ZM5.83276 15.8438L8.99112 20L18.3064 19.2839C20.3905 19.1237 21.9998 17.3859 21.9998 15.2957V14L8.99112 12.2344L5.83276 15.8438ZM19.9985 20L8.99112 21V24H19.9985V20Z" fill="#262626"/>
<path d="M11.9931 9H9.99313V11H11.9931V9ZM14.9951 9V11H16.9951V9H14.9951ZM7.99045 9H5.99045V11H7.99045V9ZM10.9925 9V11H12.9925V9H10.9925ZM21.9998 10H23.9998V8H21.9998V10ZM21.9998 13L21.7172 14.9799L23.9998 15.3058V13H21.9998ZM7.99045 10V8H5.99045V10H7.99045ZM7.99045 11H5.99045V12.7348L7.7078 12.9799L7.99045 11ZM2.3963 10.1839L0.982083 8.76966L0.982082 8.76967L2.3963 10.1839ZM2.3963 12.0974L3.81051 10.6832L3.81051 10.6832L2.3963 12.0974ZM6.22327 10.1839L7.63749 8.76967L6.22327 10.1839ZM7.98865 11.9493L9.40287 13.3635L10.8171 11.9493L9.40287 10.535L7.98865 11.9493ZM5.11842 14.8195L3.70421 16.2337L5.11842 17.6479L6.53264 16.2337L5.11842 14.8195ZM18.9978 9V11H20.9978V9H18.9978ZM15.9958 9H13.9958V11H15.9958V9ZM19.9985 9H17.9985V11H19.9985V9ZM21.9998 9V11H23.9998V9H21.9998ZM8.99112 20L7.39873 21.2101L8.05799 22.0776L9.14441 21.9941L8.99112 20ZM5.83276 15.8438L4.32764 14.5267L3.25312 15.7547L4.24036 17.0538L5.83276 15.8438ZM18.3064 19.2839L18.1531 17.2898H18.1531L18.3064 19.2839ZM21.9998 14H23.9998V12.2531L22.2688 12.0182L21.9998 14ZM8.99112 12.2344L9.26011 10.2525L8.1943 10.1079L7.486 10.9173L8.99112 12.2344ZM8.99112 21L8.81017 19.0082L6.99112 19.1735V21H8.99112ZM19.9985 20H21.9985V17.8101L19.8175 18.0082L19.9985 20ZM8.99112 24H6.99112V26H8.99112V24ZM19.9985 24V26H21.9985V24H19.9985ZM13.9931 1.501C13.9931 1.77659 13.7697 2 13.4941 2V-2C11.5606 -2 9.99313 -0.432547 9.99313 1.501H13.9931ZM13.9931 9V1.501H9.99313V9H13.9931ZM14.9951 7H11.9931V11H14.9951V7ZM12.9951 1.501V9H16.9951V1.501H12.9951ZM13.4941 2C13.2185 2 12.9951 1.77659 12.9951 1.501H16.9951C16.9951 -0.432546 15.4277 -2 13.4941 -2V2ZM9.99045 2.501C9.99045 2.77659 9.76705 3 9.49146 3V-1C7.55791 -1 5.99045 0.567453 5.99045 2.501H9.99045ZM9.99045 9V2.501H5.99045V9H9.99045ZM10.9925 7H7.99045V11H10.9925V7ZM8.99246 2.501V9H12.9925V2.501H8.99246ZM9.49146 3C9.21587 3 8.99246 2.77659 8.99246 2.501H12.9925C12.9925 0.567452 11.425 -1 9.49146 -1V3ZM19.9998 10V13H23.9998V10H19.9998ZM7.99045 12H21.9998V8H7.99045V12ZM9.99045 11V10H5.99045V11H9.99045ZM22.2825 11.0201L8.27311 9.02007L7.7078 12.9799L21.7172 14.9799L22.2825 11.0201ZM0.982082 8.76967C-0.327358 10.0791 -0.327363 12.2021 0.982083 13.5116L3.81051 10.6832C4.06317 10.9358 4.06316 11.3454 3.81051 11.5981L0.982082 8.76967ZM7.63749 8.76967C5.79965 6.93183 2.81992 6.93183 0.982083 8.76966L3.81051 11.5981C4.08625 11.3224 4.53332 11.3224 4.80906 11.5981L7.63749 8.76967ZM9.40287 10.535L7.63749 8.76967L4.80906 11.5981L6.57444 13.3635L9.40287 10.535ZM6.53264 16.2337L9.40287 13.3635L6.57444 10.535L3.70421 13.4053L6.53264 16.2337ZM0.982082 13.5116L3.70421 16.2337L6.53264 13.4053L3.81051 10.6832L0.982082 13.5116ZM17.4968 -1C15.5633 -1 13.9958 0.567453 13.9958 2.501H17.9958C17.9958 2.77659 17.7724 3 17.4968 3V-1ZM20.9978 2.501C20.9978 0.567454 19.4304 -1 17.4968 -1V3C17.2212 3 16.9978 2.77659 16.9978 2.501H20.9978ZM20.9978 9V2.501H16.9978V9H20.9978ZM15.9958 11H18.9978V7H15.9958V11ZM13.9958 2.501V9H17.9958V2.501H13.9958ZM21.9985 4.00067C21.9985 4.55258 21.5511 5 20.9992 5V1C19.3419 1 17.9985 2.34345 17.9985 4.00067H21.9985ZM21.9985 9V4.00067H17.9985V9H21.9985ZM21.9998 7H19.9985V11H21.9998V7ZM19.9998 4.00067V9H23.9998V4.00067H19.9998ZM20.9992 5C20.4472 5 19.9998 4.55258 19.9998 4.00067H23.9998C23.9998 2.34345 22.6564 1 20.9992 1V5ZM10.5835 18.7899L7.42516 14.6337L4.24036 17.0538L7.39873 21.2101L10.5835 18.7899ZM18.1531 17.2898L8.83783 18.0059L9.14441 21.9941L18.4597 21.278L18.1531 17.2898ZM19.9998 15.2957C19.9998 16.3408 19.1952 17.2097 18.1531 17.2898L18.4597 21.278C21.5858 21.0377 23.9998 18.431 23.9998 15.2957H19.9998ZM19.9998 14V15.2957H23.9998V14H19.9998ZM8.72214 14.2162L21.7308 15.9818L22.2688 12.0182L9.26011 10.2525L8.72214 14.2162ZM7.33788 17.1608L10.4962 13.5514L7.486 10.9173L4.32764 14.5267L7.33788 17.1608ZM9.17208 22.9918L20.1794 21.9918L19.8175 18.0082L8.81017 19.0082L9.17208 22.9918ZM10.9911 24V21H6.99112V24H10.9911ZM19.9985 22H8.99112V26H19.9985V22ZM17.9985 20V24H21.9985V20H17.9985Z" fill="#262626" mask="url(#path-1-inside-1)"/>
</svg>
