<svg width="1em" height="1em" viewBox="0 0 24 24" fill="none" xmlns="http://www.w3.org/2000/svg">
<path fill-rule="evenodd" clip-rule="evenodd" d="M13.5766 0C14.4577 0 15.2314 0.464122 15.6706 1.1633C15.9433 1.05737 16.2398 1 16.5496 1C17.7688 1 18.7823 1.88872 18.9887 3.05921C19.16 3.02016 19.3389 3 19.5225 3C20.8361 3 21.9109 4.03154 21.9947 5.33562L22 5.5V15C22 16.4805 21.2029 17.7732 20.0182 18.4648L20.018 24H9.11722L9.11625 19.985L2.5805 13.2929C1.8065 12.5118 1.8065 11.2455 2.5805 10.4645L3.28124 9.75736C4.44224 8.58579 6.32461 8.58579 7.48562 9.75736L8.12527 10.4043L8.12624 3.5C8.12624 2.11929 9.23543 1 10.6037 1C10.9135 1 11.21 1.05737 11.4833 1.16215C11.9219 0.464122 12.6956 0 13.5766 0ZM18.0351 19.063L11.0982 21.07V22H18.0361L18.0351 19.063ZM14.8996 14.896L10.9654 18.866L11.0903 18.991L19.1332 16.6659C19.4677 16.4411 19.7306 16.1165 19.8802 15.7342L14.8996 14.896ZM10.6523 14.182L8.47707 16.377L9.55823 17.458L12.4965 14.492L10.6523 14.182ZM4.6827 11.1716L3.98197 11.8787L7.07086 14.968L8.46005 13.567L6.08416 11.1716C5.69716 10.781 5.0697 10.781 4.6827 11.1716ZM20.0171 10.909H10.1072V11.926L20.0171 13.744V10.909ZM19.5225 5C19.2793 5 19.077 5.17688 19.035 5.41012L19.0271 5.5L19.0261 8.909H20.0171L20.018 5.5C20.018 5.22386 19.7962 5 19.5225 5ZM10.6037 3C10.3604 3 10.1581 3.17688 10.1162 3.41012L10.1082 3.5L10.1072 8.909H11.0982L11.0992 3.5C11.0992 3.22386 10.8773 3 10.6037 3ZM16.5496 3C16.3063 3 16.104 3.17688 16.0621 3.41012L16.0541 3.5L16.0531 8.909H17.0441L17.0451 3.5C17.0451 3.22386 16.8232 3 16.5496 3ZM13.5766 2C13.3334 2 13.1311 2.17688 13.0891 2.41012L13.0812 2.5L13.0802 8.909H14.0712L14.0721 2.5C14.0721 2.22386 13.8503 2 13.5766 2Z" fill="currentColor"/>
</svg>
