<svg width="1em" height="1em" viewBox="0 0 24 24" fill="none" xmlns="http://www.w3.org/2000/svg">
<path fill-rule="evenodd" clip-rule="evenodd" d="M12.2959 1.4557C12.2959 0.651739 12.9476 0 13.7516 0C14.5555 0 15.2073 0.651739 15.2073 1.4557V9H12.2959V1.4557ZM8.41399 2.4557C8.41399 1.65174 9.06573 1 9.86969 1C10.6737 1 11.3254 1.65174 11.3254 2.4557V9H8.41399V2.4557ZM21.0301 3C20.4941 3 20.0596 3.43449 20.0596 3.97047V9H22.0005V3.97047C22.0005 3.43449 21.5661 3 21.0301 3ZM16.1777 2.4557C16.1777 1.65174 16.8295 1 17.6334 1C18.4374 1 19.0891 1.65174 19.0891 2.4557V9H16.1777V2.4557ZM22.0005 10H8.41399V10.8125L11.2496 12.9062L22.0005 15.5V10ZM6.07845 16.5781L9.96032 13.1406L7.13838 11.0169C5.65948 9.90398 3.58766 10.046 2.27445 11.3503C1.91217 11.7102 1.90729 12.2947 2.26353 12.6605L6.07845 16.5781ZM10.7033 13.7812L14.0545 14.5938L8.77756 19.2344L6.74565 17.2656L10.7033 13.7812ZM15.1917 14.875L22.0002 16.5C21.5149 18 19.574 19 19.574 19L9.3841 20L15.1917 14.875ZM20.0596 19.9375L9.38447 21V24H20.0596V19.9375Z" fill="currentColor"/>
</svg>
