<svg width="24" height="24" viewBox="0 0 24 24" fill="none" xmlns="http://www.w3.org/2000/svg">
<path fill-rule="evenodd" clip-rule="evenodd" d="M11.9992 0C14.2052 0 16 1.65666 16 3.69307C16 4.67934 15.5837 5.60672 14.8282 6.30464L14.235 6.84594L13.9408 7.12451C13.5382 7.51827 13.1958 7.91805 13.0586 8.32044L16.7865 9.44998C16.8645 9.19231 16.9222 8.92586 16.9578 8.65247L21.2649 10.0883C22.8983 10.6328 24 12.1613 24 13.883V24H0V13.883C0 12.1613 1.10172 10.6328 2.73509 10.0883L7.04219 8.65247C7.07786 8.92621 7.13568 9.193 7.21378 9.45097L11.0319 8.29149C11.1845 7.22804 11.9342 6.38737 12.6791 5.68392L13.4199 5.00478C13.7997 4.6541 14.0089 4.18831 14.0089 3.69307C14.0089 2.67047 13.1076 1.83831 11.9992 1.83831C10.9447 1.83831 10.0774 2.5931 9.99715 3.54835L9.99109 3.69307H8C8 1.65666 9.79393 0 11.9992 0ZM18.234 11.185L18.1617 11.3254C16.9725 13.5257 14.6448 15 12 15C9.35524 15 7.02751 13.5257 5.83827 11.3254L5.765 11.185L3.36754 11.9857C2.6019 12.2409 2.0699 12.9286 2.00639 13.7229L2 13.883V22L4 21.999V18H6V21.999H18V18H20V21.999L22 22V13.883C22 13.076 21.5158 12.3538 20.7824 12.0424L20.6324 11.9857L18.234 11.185ZM12 10.09L8.19453 11.2434C9.11163 12.3184 10.4762 13 12 13C13.5238 13 14.8884 12.3184 15.8055 11.2434L12 10.09Z" fill="#262626"/>
</svg>
