<svg width="25" height="25" viewBox="0 0 25 25" fill="none" xmlns="http://www.w3.org/2000/svg">
<path fill-rule="evenodd" clip-rule="evenodd" d="M17.5597 0.051048C12.6432 -0.494188 8.35649 3.39949 8.32206 8.32275L10.4025 8.33729C10.4285 4.62468 13.6634 1.71222 17.3304 2.11888C21.2857 2.55752 23.8252 6.53682 22.5571 10.309L19.373 19.7806C18.6169 22.0298 16.2755 23.3363 13.9643 22.7986L13.5558 22.7036C11.7093 22.274 10.4025 20.6284 10.4025 18.7326H8.32203C8.32203 21.5958 10.2956 24.0812 13.0844 24.73L13.4929 24.825C16.8482 25.6056 20.2474 23.7089 21.3451 20.4436L24.5292 10.9719C26.2201 5.94205 22.8338 0.635945 17.5597 0.051048ZM17.8315 4.36711C15.1748 3.56996 12.502 5.55428 12.4831 8.32292L12.483 11.1603L13.1775 11.3918L13.1806 11.3931C13.1941 11.3989 13.2229 11.412 13.2619 11.4337C13.341 11.4776 13.4539 11.5523 13.5679 11.6662C13.7761 11.8744 14.0434 12.2648 14.0434 13.0112C14.0434 13.7672 13.39 14.5716 12.483 14.5716C11.9085 14.5716 11.4428 15.0373 11.4428 15.6118C11.4428 16.1863 11.9085 16.6521 12.483 16.6521C14.6968 16.6521 16.1239 14.7518 16.1239 13.0112C16.1239 11.677 15.6111 10.7671 15.0391 10.1951C14.8765 10.0326 14.7136 9.90145 14.5636 9.7969V8.33393C14.5751 6.94976 15.9119 5.96327 17.2335 6.35984C18.3508 6.69509 18.972 7.8855 18.6078 8.99371L17.7363 11.6462C17.557 12.192 17.854 12.7799 18.3999 12.9592C18.9457 13.1385 19.5335 12.8414 19.7128 12.2956L20.5844 9.64315C21.3138 7.42324 20.0696 5.03866 17.8315 4.36711ZM3.42545 6.55419C3.83169 6.14795 4.49034 6.14795 4.89659 6.55419C8.74993 10.4075 8.74993 16.655 4.89659 20.5084C4.49034 20.9146 3.83169 20.9146 3.42545 20.5084C3.0192 20.1021 3.0192 19.4435 3.42545 19.0372C6.4663 15.9964 6.4663 11.0662 3.42545 8.02533C3.0192 7.61909 3.0192 6.96044 3.42545 6.55419ZM1.77582 9.67495C1.36958 9.26871 0.710928 9.26871 0.304683 9.67495C-0.101561 10.0812 -0.101561 10.7399 0.304683 11.1461C1.62199 12.4634 1.62199 14.5992 0.304683 15.9165C-0.101561 16.3227 -0.101561 16.9814 0.304683 17.3876C0.710928 17.7939 1.36958 17.7939 1.77582 17.3876C3.90562 15.2578 3.90562 11.8047 1.77582 9.67495Z" fill="currentColor"/>
</svg>
