<svg width="24" height="24" viewBox="0 0 24 24" fill="none" xmlns="http://www.w3.org/2000/svg">
<path fill-rule="evenodd" clip-rule="evenodd" d="M24 8.33333C24 4.28325 20.866 1 17 1C15.041 1 13.2699 1.84305 12.0006 3.20174C10.7301 1.84305 8.95901 1 7 1C3.13401 1 0 4.28325 0 8.33333C0 10.3862 0.702493 12.2403 2 13.5714L12 23L22 13.5714C23.2975 12.2403 24 10.3862 24 8.33333ZM13.6411 4.38457C14.5547 3.49785 15.7404 3 17 3C19.7401 3 22 5.36754 22 8.33333L21.9935 8.60859C21.9282 9.97808 21.3776 11.241 20.4652 12.1771L19.362 13.308L12.3751 19.8963L15.344 10H11.3016L12.4661 5.63323L13.4621 4.56706L13.6411 4.38457ZM10.6491 4.68465L10.5398 4.56778C9.60348 3.56649 8.34359 3 7 3C4.25992 3 2 5.36754 2 8.33333C2 9.71606 2.49358 11.0069 3.35721 11.9856L3.53484 12.1771L4.637 13.308L10.582 18.9131L12.6559 12H8.69836L10.6491 4.68465Z" fill="#262626"/>
</svg>
