<svg width="24" height="24" viewBox="0 0 24 24" fill="none" xmlns="http://www.w3.org/2000/svg">
<path d="M23.5 8.33333C23.5 10.2683 22.8402 11.9889 21.6492 13.215L12 22.3128L2.35084 13.215C1.15976 11.9889 0.5 10.2683 0.5 8.33333C0.5 4.53721 3.43181 1.5 7 1.5C8.81121 1.5 10.4528 2.27861 11.6354 3.54325L12.0008 3.93397L12.366 3.54307C13.5473 2.27863 15.1888 1.5 17 1.5C20.5682 1.5 23.5 4.53721 23.5 8.33333ZM13.2929 4.02578L13.2928 4.02568L13.2842 4.03443L13.1052 4.21693L13.105 4.21682L13.0967 4.22573L12.0012 5.39843L10.905 4.22627C9.87863 3.12868 8.48846 2.5 7 2.5C3.95641 2.5 1.5 5.11958 1.5 8.33333C1.5 9.83556 2.03654 11.2447 2.98231 12.3164L2.9822 12.3165L2.99062 12.3256L3.16825 12.5171L3.16814 12.5172L3.17676 12.5261L4.27893 13.657L4.28631 13.6645L4.294 13.6718L11.657 20.6138L12 20.9372L12.343 20.6138L19.705 13.6718L19.7126 13.6646L19.7199 13.6571L20.8231 12.5262L20.8232 12.5261C21.8228 11.5006 22.4219 10.1212 22.4929 8.63239L22.493 8.63239L22.4933 8.62047L22.4999 8.34522L22.5 8.34522V8.33333C22.5 5.11958 20.0436 2.5 17 2.5C15.6051 2.5 14.2958 3.05227 13.2929 4.02578Z" fill="#262626" stroke="#A0A0A0"/>
<path d="M12 3.5L10 10H14L11 20" stroke="#A0A0A0" stroke-width="2"/>
</svg>
