<svg width="25" height="24" viewBox="0 0 25 24" fill="none" xmlns="http://www.w3.org/2000/svg">
<path fill-rule="evenodd" clip-rule="evenodd" d="M12 8.16944C12.0182 5.51155 14.5876 3.6066 17.1415 4.37186C19.2929 5.01655 20.489 7.30574 19.7878 9.43686L18.95 11.9832C18.7776 12.5072 18.2125 12.7924 17.6878 12.6203C17.1632 12.4481 16.8776 11.8838 17.05 11.3598L17.8878 8.8134C18.2378 7.74952 17.6407 6.60672 16.5667 6.28488C15.2962 5.90417 14.0111 6.85121 14 8.18001V9.58446C14.1443 9.68482 14.3009 9.81069 14.4571 9.96673C15.007 10.5159 15.5 11.3893 15.5 12.6702C15.5 14.3412 14.1281 16.1654 12 16.1654C11.4477 16.1654 11 15.7183 11 15.1668C11 14.6152 11.4477 14.1681 12 14.1681C12.8719 14.1681 13.5 13.3959 13.5 12.6702C13.5 11.9537 13.243 11.5788 13.0429 11.379C12.9333 11.2696 12.8248 11.1979 12.7487 11.1557C12.7112 11.1349 12.6836 11.1224 12.6705 11.1168L12.6676 11.1156L12 10.8933L12 8.16944ZM8.03174 7.32677C8.42394 2.91975 12.3773 -0.449686 16.8802 0.0490061C21.9503 0.610507 25.2055 5.70436 23.58 10.533L20.5191 19.6258C19.4639 22.7605 16.1962 24.5814 12.9708 23.832L12.5781 23.7408C10.2118 23.191 8.45601 21.2676 8.07656 18.9336C9.98373 15.5581 10.0878 11.452 8.38873 7.99682H9L8.38663 7.99254C8.27597 7.76773 8.15767 7.54568 8.03174 7.32677ZM3.29289 6.47147C3.68342 6.08147 4.31658 6.08147 4.70711 6.47147C8.41134 10.1707 8.41134 16.1683 4.70711 19.8675C4.31658 20.2575 3.68342 20.2575 3.29289 19.8675C2.90237 19.4775 2.90237 18.8452 3.29289 18.4552C6.21608 15.536 6.21608 10.803 3.29289 7.88376C2.90237 7.49377 2.90237 6.86146 3.29289 6.47147ZM1.70711 9.4674C1.31658 9.0774 0.683418 9.0774 0.292893 9.4674C-0.0976311 9.85739 -0.0976311 10.4897 0.292893 10.8797C1.55922 12.1443 1.55922 14.1947 0.292893 15.4593C-0.0976311 15.8493 -0.0976311 16.4816 0.292893 16.8716C0.683417 17.2616 1.31658 17.2616 1.70711 16.8716C3.75448 14.827 3.75448 11.512 1.70711 9.4674Z" fill="#262626"/>
</svg>
