<svg width="25" height="24" viewBox="0 0 25 24" fill="none" xmlns="http://www.w3.org/2000/svg">
<path fill-rule="evenodd" clip-rule="evenodd" d="M16.8802 0.0490061C12.1539 -0.47442 8.03312 3.26351 8.00002 7.98984L9.99998 8.0038C10.0249 4.43969 13.1347 1.64373 16.6597 2.03412C20.462 2.45522 22.9033 6.27535 21.6842 9.89661L18.6234 18.9894C17.8965 21.1486 15.6457 22.4029 13.4239 21.8867L13.0312 21.7954C11.2562 21.3831 10 19.8032 10 17.9833H8C8 20.732 9.89722 23.118 12.5781 23.7408L12.9708 23.832C16.1962 24.5814 19.4639 22.7605 20.5191 19.6258L23.58 10.533C25.2055 5.70436 21.9503 0.610507 16.8802 0.0490061ZM17.1415 4.19242C14.5876 3.42716 12.0182 5.33211 12 7.99L12 10.7139L12.6676 10.9361L12.6705 10.9374C12.6836 10.943 12.7112 10.9555 12.7487 10.9763C12.8248 11.0185 12.9333 11.0902 13.0429 11.1996C13.243 11.3994 13.5 11.7743 13.5 12.4907C13.5 13.2165 12.8719 13.9887 12 13.9887C11.4477 13.9887 11 14.4358 11 14.9873C11 15.5389 11.4477 15.986 12 15.986C14.1281 15.986 15.5 14.1617 15.5 12.4907C15.5 11.2099 15.007 10.3365 14.4571 9.78729C14.3009 9.63125 14.1443 9.50539 14 9.40502V8.00057C14.0111 6.67177 15.2962 5.72474 16.5667 6.10545C17.6407 6.42729 18.2378 7.57008 17.8878 8.63396L17.05 11.1804C16.8776 11.7043 17.1632 12.2687 17.6878 12.4408C18.2125 12.613 18.7776 12.3278 18.95 11.8038L19.7878 9.25742C20.489 7.12631 19.2929 4.83711 17.1415 4.19242ZM3.29289 6.29202C3.68342 5.90203 4.31658 5.90203 4.70711 6.29202C8.41134 9.99123 8.41134 15.9888 4.70711 19.688C4.31658 20.078 3.68342 20.078 3.29289 19.688C2.90237 19.2981 2.90237 18.6657 3.29289 18.2758C6.21608 15.3565 6.21608 10.6235 3.29289 7.70432C2.90237 7.31432 2.90237 6.68202 3.29289 6.29202ZM1.70711 9.28796C1.31658 8.89796 0.683418 8.89796 0.292893 9.28796C-0.0976311 9.67795 -0.0976311 10.3103 0.292893 10.7003C1.55922 11.9649 1.55922 14.0152 0.292893 15.2798C-0.0976311 15.6698 -0.0976311 16.3021 0.292893 16.6921C0.683417 17.0821 1.31658 17.0821 1.70711 16.6921C3.75448 14.6475 3.75448 11.3326 1.70711 9.28796Z" fill="#262626"/>
</svg>
