<svg width="24" height="24" viewBox="0 0 24 24" fill="none" xmlns="http://www.w3.org/2000/svg">
<path fill-rule="evenodd" clip-rule="evenodd" d="M10.4932 1C8.57399 1 7.14833 2.77725 7.56467 4.65079L7.62138 4.90598C3.72497 6.59851 1 10.481 1 15V17.7991C0.356827 18.1668 0 18.573 0 19C0 20.6569 5.37258 22 12 22C18.6274 22 24 20.6569 24 19C24 18.573 23.6432 18.1668 23 17.7991V15C23 10.481 20.275 6.59851 16.3786 4.90598L16.4353 4.65079C16.8517 2.77725 15.426 1 13.5068 1H10.4932ZM13.2534 9.75L14.483 4.21693C14.6217 3.59242 14.1465 3 13.5068 3H10.4932C9.85348 3 9.37826 3.59242 9.51704 4.21693L10.7466 9.75H13.2534Z" fill="#3E3832"/>
</svg>
