<svg width="24" height="24" viewBox="0 0 24 24" fill="none" xmlns="http://www.w3.org/2000/svg">
<path fill-rule="evenodd" clip-rule="evenodd" d="M7.56467 4.65079C7.14833 2.77725 8.57399 1 10.4932 1H13.5068C15.426 1 16.8517 2.77725 16.4353 4.65079L16.3786 4.90598C20.275 6.59851 23 10.481 23 15V17.7991C23.6432 18.1668 24 18.573 24 19C24 20.6569 18.6274 22 12 22C5.37258 22 0 20.6569 0 19C0 18.573 0.356827 18.1668 1 17.7991V15C1 10.481 3.72497 6.59851 7.62138 4.90598L7.56467 4.65079ZM3 17.0156V19C3.10725 19.0323 3.31596 19.0646 3.52375 19.0967C3.70627 19.125 3.88807 19.1531 3.99979 19.181C5.97116 19.6739 8.80056 20 12 20C15.1994 20 18.0288 19.6739 20.0002 19.181C20.2391 19.1213 21 19 21 19V18V17.0156V15C21 11.4404 18.9335 8.36346 15.9347 6.90342L15.1984 10.2169L13.246 9.78307L14.483 4.21693C14.6217 3.59242 14.1465 3 13.5068 3H10.4932C9.85348 3 9.37826 3.59242 9.51704 4.21693L10.754 9.78307L8.80159 10.2169L8.06525 6.90342C5.0665 8.36346 3 11.4404 3 15V17.0156Z" fill="#3E3832"/>
</svg>
