<svg width="24" height="24" viewBox="0 0 24 24" fill="none" xmlns="http://www.w3.org/2000/svg">
<path fill-rule="evenodd" clip-rule="evenodd" d="M3 4.06273V0H0.999999V7.99999H8.99999V5.99999H3.99914C5.82465 3.56964 8.72948 2 12 2C17.5229 2 22 6.47715 22 12C22 14.411 21.148 16.6204 19.7276 18.3474L21.2723 19.6178C22.9762 17.5461 24 14.8913 24 12C24 5.37258 18.6274 0 12 0C8.41498 0 5.19798 1.57244 3 4.06273ZM16.3753 16.7809L11 12.4806L11 5.99999L13 5.99999L13 11.5194L17.6247 15.2191L16.3753 16.7809ZM0 11V13H2V11H0ZM0.999999 18V16H3V18H0.999999ZM5 22H6.99999V20H5V22ZM13 24H11V22H13V24ZM17 22H19V20H17V22Z" fill="#262626"/>
</svg>
