<svg width="24" height="24" viewBox="0 0 24 24" fill="none" xmlns="http://www.w3.org/2000/svg">
<path fill-rule="evenodd" clip-rule="evenodd" d="M11.0472 4.01852C10.8228 3.30693 10.4355 2.70141 9.94244 2.22355V2C9.94244 1.25972 9.53859 0.613374 8.93833 0.267564C8.64295 0.0973943 8.3 0 7.93422 0V1.12023C6.8747 0.863862 5.71059 1.00058 4.67977 1.61997L1.71171 3.40342C0.00864163 4.42676 -0.51372 6.64514 0.555157 8.31509C1.09615 9.1603 1.9596 9.71941 2.91542 9.89061C3.31013 9.96131 3.72058 9.96586 4.13059 9.89709L4.92482 9.76387V11.9803L4.92478 12V13C4.92478 14.7499 6.05369 16.2373 7.62617 16.7801L6.39484 20.535C5.69649 20.1757 5.0956 19.7588 4.62779 19.2929C4.23566 18.9024 3.59989 18.9024 3.20776 19.2929C2.81563 19.6834 2.81563 20.3166 3.20776 20.7071C4.36608 21.8607 5.98566 22.6761 7.68235 23.2044C9.38946 23.736 11.248 24 12.9548 24C14.6616 24 16.5201 23.736 18.2272 23.2044C19.9239 22.6761 21.5435 21.8607 22.7018 20.7071C23.0939 20.3166 23.0939 19.6834 22.7018 19.2929C22.3097 18.9024 21.6739 18.9024 21.2818 19.2929C20.7938 19.7789 20.161 20.2115 19.4238 20.5811L18.1892 16.8161C19.8184 16.3057 21 14.7902 21 13V12L21.9918 12V15C21.9918 16.1046 22.8909 17 24 17V12C24 10.8954 23.1009 10 21.9918 10H20.4624C19.7675 8.8044 18.4687 8 16.9812 8H12.4168L11.4743 5.37324L11.0472 4.01852ZM9.56875 6.00921L9.12994 4.6173C8.67988 3.1897 7.00521 2.55886 5.71828 3.33216L2.75022 5.1156C2.01344 5.55832 1.78745 6.51804 2.24987 7.24049C2.58056 7.75714 3.18976 8.02669 3.79667 7.92489L6.93423 7.39864V11.99L6.93418 12V13C6.93418 14.1046 7.83382 15 8.94358 15H16.9812C18.091 15 18.9906 14.1046 18.9906 13V12C18.9906 10.8954 18.091 10 16.9812 10H11.0007L9.56875 6.00921ZM9.66667 17H16.1369L17.5531 21.3186C16.0687 21.7718 14.4426 22 12.9548 22C11.4419 22 9.78605 21.764 8.28163 21.2956L8.26021 21.2889L9.66667 17Z" fill="#262626"/>
</svg>
