<svg width="24" height="24" viewBox="0 0 24 24" fill="none" xmlns="http://www.w3.org/2000/svg">
<path fill-rule="evenodd" clip-rule="evenodd" d="M11.0937 4.01852C10.8713 3.30975 10.488 2.7062 10 2.22923V2C10 1.25972 9.5978 0.613374 9 0.267564C8.70583 0.0973943 8.36429 0 8 0V1.12136C6.94419 0.863462 5.78364 0.999667 4.75614 1.61997L1.80196 3.40342C0.106868 4.42676 -0.413049 6.64514 0.650826 8.31509C1.18928 9.1603 2.0487 9.71941 3.00004 9.89061C3.3929 9.96131 3.80144 9.96586 4.20952 9.89709L5.00004 9.76387V11.9803L5 12V13C5 14.7514 6.12555 16.2398 7.69276 16.7815L6.46692 20.535C5.77143 20.1757 5.17301 19.7588 4.70711 19.2929C4.31658 18.9024 3.68342 18.9024 3.29289 19.2929C2.90237 19.6834 2.90237 20.3166 3.29289 20.7071C4.44647 21.8607 6.05942 22.6761 7.74916 23.2044C9.44928 23.736 11.3002 24 13 24C14.6998 24 16.5507 23.736 18.2508 23.2044C19.9406 22.6761 21.5535 21.8607 22.7071 20.7071C23.0976 20.3166 23.0976 19.6834 22.7071 19.2929C22.3166 18.9024 21.6834 18.9024 21.2929 19.2929C20.8069 19.7789 20.1767 20.2115 19.4426 20.5811L18.212 16.8131C19.8286 16.2997 21 14.7866 21 13V12L22 12V15C22 16.1046 22.8954 17 24 17V12C24 10.8954 23.1046 10 22 10H20.4649C19.7732 8.8044 18.4806 8 17 8H12.457L11.5188 5.37324L11.0937 4.01852ZM9.62224 6.00921L9.18548 4.6173C8.73753 3.1897 7.0707 2.55886 5.78979 3.33216L2.83561 5.1156C2.10228 5.55832 1.87735 6.51804 2.33761 7.24049C2.66675 7.75714 3.2731 8.02669 3.87717 7.92489L7.00004 7.39864V11.99L7 12V13C7 14.1046 7.89543 15 9 15H17C18.1046 15 19 14.1046 19 13V12C19 10.8954 18.1046 10 17 10H11.0475L9.62224 6.00921ZM9.72536 17H16.1691L17.5795 21.3186C16.1012 21.7718 14.4817 22 13 22C11.4933 22 9.84425 21.764 8.34599 21.2956L8.32466 21.2889L9.72536 17Z" fill="#262626"/>
</svg>
