<svg width="25" height="24" viewBox="0 0 25 24" fill="none" xmlns="http://www.w3.org/2000/svg">
<path fill-rule="evenodd" clip-rule="evenodd" d="M8.30859 0C9.41316 0 10.3086 0.895431 10.3086 2V2.27751C10.7982 2.75962 11.1821 3.36873 11.4038 4.08332L11.643 4.8544L11.648 4.87059L12.7656 8H17.3086C18.7892 8 20.0819 8.8044 20.7735 10H22.3086C23.4132 10 24.3086 10.8954 24.3086 12V17C23.204 17 22.3086 16.1046 22.3086 15V12L21.3086 12V13C21.3086 14.7867 20.1372 16.2997 18.5206 16.8131L19.7512 20.5811C20.4853 20.2115 21.1155 19.7789 21.6015 19.2929C21.992 18.9024 22.6252 18.9024 23.0157 19.2929C23.4062 19.6834 23.4062 20.3166 23.0157 20.7071C21.8621 21.8607 20.2492 22.6761 18.5594 23.2044C16.8593 23.736 15.0084 24 13.3086 24C11.6088 24 9.75788 23.736 8.05776 23.2044C6.36802 22.6761 4.75507 21.8607 3.60149 20.7071C3.21096 20.3166 3.21096 19.6834 3.60149 19.2929C3.99201 18.9024 4.62518 18.9024 5.0157 19.2929C5.4816 19.7588 6.08002 20.1757 6.77551 20.535L8.00135 16.7815C6.43417 16.2398 5.30863 14.7513 5.30863 13V12L5.30868 11.9803V8.27271L3.05058 8.68328C2.00044 8.87422 0.940827 8.4007 0.38254 7.49099C-0.368742 6.26681 0.0208963 4.66498 1.25053 3.92265L5.01145 1.65216C6.05625 1.02141 7.23721 0.887294 8.30859 1.15635V0ZM10.0339 17H16.4776L17.8881 21.3186C16.4098 21.7718 14.7903 22 13.3086 22C11.8019 22 10.1528 21.764 8.65458 21.2956L8.63325 21.2889L10.0339 17Z" fill="#262626"/>
</svg>
