<svg width="24" height="24" viewBox="0 0 24 24" fill="none" xmlns="http://www.w3.org/2000/svg">
<path fill-rule="evenodd" clip-rule="evenodd" d="M20 8C20 3.58172 16.4183 0 12 0C7.58172 0 4 3.58172 4 8V16C4 20.4183 7.58172 24 12 24C12.7853 24 13.5442 23.8868 14.2612 23.676V22.137L14.2599 22.1321V14.9238C14.2599 14.3732 13.9327 13.9461 13.1066 13.5813L13.0625 13.563C13.0625 13.563 13.75 13.4219 14.3125 13.2188C14.875 13.0156 15.3588 12.7188 15.3588 12.7188C15.8999 13.2677 16.2089 13.9397 16.2541 14.7215L16.2599 14.9238L16.26 21.0477L16.2612 21.0467L16.2612 22.7719C18.5076 21.3554 20 18.852 20 16V8ZM7 7C7 4.03125 9 2 12 2C15 2 17 4 17 7C17 10 15 12 12 12C9 12 7 9.96875 7 7ZM11 7C11 6.44772 10.5523 6 10 6C9.44772 6 9 6.44772 9 7C9 7.55228 9.44772 8 10 8C10.5523 8 11 7.55228 11 7ZM15 7C15 6.44772 14.5523 6 14 6C13.4477 6 13 6.44772 13 7C13 7.55228 13.4477 8 14 8C14.5523 8 15 7.55228 15 7Z" fill="#3E3832"/>
</svg>
