<svg width="1em" height="1em" viewBox="0 0 24 24" fill="none" xmlns="http://www.w3.org/2000/svg">
<path fill-rule="evenodd" clip-rule="evenodd" d="M12 0C16.4183 0 20 3.58172 20 8V16C20 20.4183 16.4183 24 12 24C7.58172 24 4 20.4183 4 16V8C4 3.58172 7.58172 0 12 0ZM6.02061 7.5009L6.01646 7.55221C6.011 7.62613 6.00689 7.70042 6.00414 7.77506L6 8V16C6 19.3137 8.68629 22 12 22C12.7008 22 13.3735 21.8799 13.9987 21.6591V14.3494C13.9987 13.7987 13.6715 13.3717 12.8454 13.0068L12.7247 12.9567C12.4871 12.9853 12.2453 13 12 13C8.85498 13 6.27512 10.5802 6.02061 7.5009ZM17.9794 7.4991L17.9632 7.6684C17.7527 9.56784 16.6555 11.1999 15.0947 12.1413C15.6376 12.6909 15.9476 13.3638 15.9929 14.1471L15.9987 14.3494L15.9989 20.4732C17.175 19.4211 17.9337 17.912 17.9959 16.2249L18 16V8C18 7.83132 17.993 7.66426 17.9794 7.4991ZM12 3C9.79086 3 8 4.79086 8 7C8 9.20914 9.79086 11 12 11C14.2091 11 16 9.20914 16 7C16 4.79086 14.2091 3 12 3ZM10 6C10.5523 6 11 6.44772 11 7C11 7.55228 10.5523 8 10 8C9.44772 8 9 7.55228 9 7C9 6.44772 9.44772 6 10 6ZM14 6C14.5523 6 15 6.44772 15 7C15 7.55228 14.5523 8 14 8C13.4477 8 13 7.55228 13 7C13 6.44772 13.4477 6 14 6Z" fill="currentColor"/>
</svg>
