<svg width="1em" height="1em" viewBox="0 0 24 24" fill="none" xmlns="http://www.w3.org/2000/svg">
<path fill-rule="evenodd" clip-rule="evenodd" d="M12 19C13.1046 19 14 19.8954 14 21V24H0V21C0 19.8954 0.89543 19 2 19H12ZM11.9355 0L20.4516 8.51613L17.6129 11.3548C17.221 11.7468 16.5855 11.7468 16.1935 11.3548L15.4839 10.6452L14.7742 11.3548L24 20.5806L22.5806 22L13.3548 12.7742L12.6452 13.4839L13.3548 14.1935C13.7468 14.5855 13.7468 15.221 13.3548 15.6129L10.5161 18.4516L2 9.93548L4.83871 7.09677C5.23065 6.70483 5.86612 6.70483 6.25806 7.09677L6.96774 7.80645L9.80645 4.96774L9.09677 4.25806C8.70483 3.86612 8.70483 3.23065 9.09677 2.83871L11.9355 0ZM11.2258 6.3871L8.3871 9.22581L11.2258 12.0645L14.0645 9.22581L11.2258 6.3871Z" fill="currentColor"/>
</svg>
