<svg width="25" height="1em" viewBox="0 0 25 24" fill="none" xmlns="http://www.w3.org/2000/svg">
<path fill-rule="evenodd" clip-rule="evenodd" d="M4 8H0V23H6V21.6476L8.71308 22.72C9.1812 22.905 9.68003 23 10.1834 23H18.9451C20.3248 23 21.5266 22.059 21.8575 20.7195L24.0811 11.7195C24.5483 9.82813 23.1169 8 21.1686 8H14.303L15.4009 3.4712C15.7061 2.21241 14.7525 1 13.4572 1H11.3448C10.7466 1 10.1799 1.26774 9.79995 1.72979L4.64444 8H4ZM6 9.50043V19.4971L9.44824 20.86C9.68229 20.9525 9.93171 21 10.1834 21H18.9451C19.405 21 19.8056 20.6863 19.9159 20.2398L22.1394 11.2398C22.2952 10.6094 21.8181 10 21.1686 10H11.7603L13.4572 3L11.3448 3L6 9.50043ZM4 20.8571V10H3H2V21H4V20.8571Z" fill="currentColor"/>
</svg>
