<svg width="1em" height="1em" viewBox="0 0 24 24" fill="none" xmlns="http://www.w3.org/2000/svg">
<path fill-rule="evenodd" clip-rule="evenodd" d="M12.6665 1.5446C13.6025 0.738169 14.6515 0.813779 15.6889 1.86218C17.0925 3.28069 17.1393 6.46082 15.8237 8.00234L15.77 8.06L19.7917 8.06205C21.4899 8.06205 22.8792 9.34781 23.0628 10.9914L23.0781 11.1754L23.0833 11.3621L23.0812 11.4823L23.0747 11.6018L23.05 11.8245L23.1144 11.8887C23.576 12.3841 23.8787 13.0149 23.9705 13.6994L23.9933 13.9294L24 14.1414C24 14.9234 23.7259 15.6602 23.2489 16.2403L23.1138 16.3945L23.05 16.4584L23.0747 16.6799L23.0833 16.9207C23.0833 18.0789 22.4833 19.1153 21.5589 19.7058L21.3818 19.8112L21.244 19.8819C21.1602 21.4148 20.0308 22.6824 18.5135 22.9499L18.3296 22.9772L18.1422 22.9945L17.9583 23H10.1667C8.79193 23 7.52335 22.3976 6.65334 21.3976L6.49496 21.2056L6.45 21.1464L0 21.1471V8.98867L5.179 8.9875L12.015 2.19115L12.4995 1.69699L12.6665 1.5446ZM14.256 3.23516C13.9671 2.94325 14.0743 2.92838 14.0071 3.00292L13.8276 3.17311L13.4852 3.52608L6.01443 10.9556L6 10.955V19.179L7.57505 19.1792L7.86188 19.6803C8.30678 20.4575 9.09523 20.9613 9.9765 21.025L10.1667 21.0319L17.9251 21.0324L18.0425 21.0292C18.7134 20.9851 19.25 20.4087 19.25 19.6999C19.25 19.6332 19.2453 19.5682 19.2362 19.5051L19.2191 19.4122L18.9964 18.4161L20.016 18.2328C20.624 18.1235 21.0833 17.5748 21.0833 16.9207C21.0833 16.809 21.0702 16.7005 21.0447 16.5966L20.9972 16.4443L20.7157 15.705L21.388 15.2743C21.7647 15.033 22 14.6101 22 14.1414C22 13.7249 21.8141 13.3444 21.5089 13.0959L21.389 13.0091L20.7197 12.5802L20.9968 11.8431C21.0537 11.6917 21.0833 11.5298 21.0833 11.3621C21.0833 10.6671 20.5697 10.1046 19.9226 10.037L19.7915 10.0302L10.981 10.0289L14.256 6.77668C14.9519 6.07338 14.9519 3.93846 14.256 3.23516ZM4 10.955L2 10.9556V19.1783L4 19.178V10.955Z" fill="currentColor"/>
</svg>
