<svg width="24" height="24" viewBox="0 0 24 24" fill="none" xmlns="http://www.w3.org/2000/svg">
<path d="M21.7454 1.48842C19.7297 -0.496138 16.468 -0.496139 14.4522 1.48842L11.8753 4.02547C11.4818 4.41294 11.4768 5.04609 11.8643 5.43964C12.2518 5.8332 12.8849 5.83813 13.2785 5.45066L15.8554 2.9136C17.0927 1.69546 19.105 1.69547 20.3423 2.91361L21.0786 3.63848C22.3071 4.84808 22.3071 6.80268 21.0786 8.01228L15.9247 13.0864C14.6875 14.3045 12.6751 14.3045 11.4378 13.0864L10.7016 12.3615C10.308 11.9741 9.67487 11.979 9.28741 12.3725C8.89993 12.7661 8.90487 13.3992 9.29842 13.7867L10.0347 14.5116C12.0504 16.4961 15.3122 16.4961 17.3279 14.5116L22.4817 9.43747C24.5061 7.44438 24.5061 4.20638 22.4817 2.21329L21.7454 1.48842Z" fill="#262626"/>
<path d="M2.25455 22.5116C4.27028 24.4961 7.53205 24.4961 9.54777 22.5116L12.1247 19.9745C12.5182 19.5871 12.5232 18.9539 12.1357 18.5604C11.7482 18.1668 11.1151 18.1619 10.7215 18.5493L8.14462 21.0864C6.90735 22.3045 4.89498 22.3045 3.65771 21.0864L2.92145 20.3615C1.69285 19.1519 1.69285 17.1973 2.92145 15.9877L8.07525 10.9136C9.31253 9.69546 11.3249 9.69547 12.5622 10.9136L13.2984 11.6385C13.692 12.0259 14.3251 12.021 14.7126 11.6275C15.1001 11.2339 15.0951 10.6008 14.7016 10.2133L13.9653 9.48842C11.9496 7.50386 8.68783 7.50386 6.6721 9.48841L1.5183 14.5625C-0.506099 16.5556 -0.506098 19.7936 1.5183 21.7867L2.25455 22.5116Z" fill="#262626"/>
</svg>
