<svg width="24" height="24" viewBox="0 0 24 24" fill="none" xmlns="http://www.w3.org/2000/svg">
<path fill-rule="evenodd" clip-rule="evenodd" d="M15 13.75V8H9V13.754L11 17V24H9V17L7 14V8C7 6.89543 7.89543 6 9 6H15C16.1046 6 17 6.89543 17 8V14L15 17V24H13V17L15 13.75ZM12 0C13.6569 0 15 1.34315 15 3C15 4.65685 13.6569 6 12 6C10.3431 6 9 4.65685 9 3C9 1.34315 10.3431 0 12 0ZM12 2C11.4477 2 11 2.44772 11 3C11 3.55228 11.4477 4 12 4C12.5523 4 13 3.55228 13 3C13 2.44772 12.5523 2 12 2Z" fill="#3E3832"/>
</svg>
