<svg width="24" height="24" viewBox="0 0 24 24" fill="none" xmlns="http://www.w3.org/2000/svg">
<path fill-rule="evenodd" clip-rule="evenodd" d="M19 4C19 1.79086 17.2091 0 15 0H8.99999C6.79085 0 4.99999 1.79086 4.99999 4V10C4.99999 12.4132 6.22111 14.5412 8.07859 15.7981C4.79686 17.1985 2.41646 20.303 2.04938 23.9999H10.3324L11 20L10.2954 17.182H13.7045L13 20L13.6664 23.9999H21.9506C21.5835 20.303 19.2031 17.1985 15.9208 15.7997C17.7789 14.5412 19 12.4132 19 10V4ZM6.99939 7.977L10.215 5.143L16.9994 7.618L17 10L16.9954 10.2169C16.8818 12.8777 14.6888 15 12 15C9.23858 15 7 12.7614 7 10L6.99939 7.977Z" fill="#3E3832"/>
</svg>
