<svg width="24" height="24" viewBox="0 0 24 24" fill="none" xmlns="http://www.w3.org/2000/svg">
<path fill-rule="evenodd" clip-rule="evenodd" d="M14.9998 0C17.2089 0 18.9997 1.79083 18.9997 3.99994V9.99985C18.9997 12.413 17.7786 14.5409 15.9206 15.7995C19.2028 17.1982 21.5832 20.3027 21.9503 23.9995L19.9378 24C19.5164 20.6194 16.9858 17.8938 13.7043 17.1817L12.9998 19.9997L13.6662 23.9996H10.3322L10.9998 19.9997L10.2953 17.1817C7.01384 17.8938 4.48317 20.6194 4.06178 24L2.04935 23.9995C2.41643 20.3027 4.79679 17.1982 8.07847 15.7979C6.22102 14.5409 4.99992 12.413 4.99992 9.99985V3.99994C4.99992 1.79083 6.79075 0 8.99986 0H14.9998ZM10.2148 5.14292L6.99927 7.97688L6.99989 9.99985C6.99989 12.7612 9.23843 14.9998 11.9998 14.9998C14.6885 14.9998 16.8816 12.8775 16.9951 10.2167L16.9997 9.99985L16.9991 7.61789L10.2148 5.14292ZM14.9998 1.99997H8.99986C7.94551 1.99997 7.08172 2.81584 7.00537 3.85068L6.99989 3.99994L6.99927 5.31092L9.78439 2.85686L16.9991 5.48892L16.9997 3.99994C16.9997 2.94559 16.1839 2.0818 15.149 2.00546L14.9998 1.99997Z" fill="#3E3832"/>
</svg>
