<svg width="24" height="24" viewBox="0 0 24 24" fill="none" xmlns="http://www.w3.org/2000/svg">
<path fill-rule="evenodd" clip-rule="evenodd" d="M15 0C17.2091 0 19 1.79086 19 4V10C19 12.4132 17.7789 14.5412 15.9208 15.7997C19.2031 17.1985 21.5835 20.303 21.9506 23.9999L19.9381 24.0004C19.5167 20.6197 16.986 17.8941 13.7045 17.182L13 20L13.6664 24H10.3324L11 20L10.2954 17.182C7.01395 17.8941 4.48324 20.6197 4.06184 24.0004L2.04938 23.9999C2.41646 20.303 4.79686 17.1985 8.07859 15.7981C6.22111 14.5412 4.99999 12.4132 4.99999 10V4C4.99999 1.79086 6.79085 0 8.99999 0H15ZM10.215 5.143L6.99938 7.977L6.99999 10C6.99999 12.7614 9.23857 15 12 15C14.6887 15 16.8818 12.8777 16.9954 10.2169L17 10L16.9994 7.618L10.215 5.143ZM15 2H8.99999C7.94563 2 7.08183 2.81588 7.00548 3.85074L6.99999 4L6.99938 5.311L9.78454 2.8569L16.9994 5.489L17 4C17 2.94564 16.1841 2.08183 15.1493 2.00549L15 2Z" fill="#3E3832"/>
</svg>
