<svg width="24" height="24" viewBox="0 0 24 24" fill="none" xmlns="http://www.w3.org/2000/svg">
<path fill-rule="evenodd" clip-rule="evenodd" d="M4 3C3.44772 3 3 3.44772 3 4H1C1 2.34315 2.34315 1 4 1C5.65685 1 7 2.34315 7 4H5C5 3.44772 4.55229 3 4 3ZM4 21C3.44772 21 3 20.5523 3 20H1C1 21.6569 2.34315 23 4 23C5.65685 23 7 21.6569 7 20H5C5 20.5523 4.55229 21 4 21ZM11 4C11 3.44772 11.4477 3 12 3C12.5523 3 13 3.44772 13 4H15C15 2.34315 13.6569 1 12 1C10.3431 1 9 2.34315 9 4H11ZM12 21C11.4477 21 11 20.5523 11 20H9C9 21.6569 10.3431 23 12 23C13.6569 23 15 21.6569 15 20H13C13 20.5523 12.5523 21 12 21ZM19 4C19 3.44772 19.4477 3 20 3C20.5523 3 21 3.44772 21 4H23C23 2.34315 21.6569 1 20 1C18.3431 1 17 2.34315 17 4H19ZM20 21C19.4477 21 19 20.5523 19 20H17C17 21.6569 18.3431 23 20 23C21.6569 23 23 21.6569 23 20H21C21 20.5523 20.5523 21 20 21ZM0 7C0 6.44771 0.447715 6 1 6H23C23.5523 6 24 6.44772 24 7V17C24 17.5523 23.5523 18 23 18H1C0.447716 18 0 17.5523 0 17V7Z" fill="#262626"/>
</svg>
