<svg width="24" height="24" viewBox="0 0 24 24" fill="none" xmlns="http://www.w3.org/2000/svg">
<path fill-rule="evenodd" clip-rule="evenodd" d="M24 5C24 2.23858 21.7614 0 19 0C17.4013 0 15.9778 0.750326 15.0625 1.91804L15 2C12.2386 2 10 4.23858 10 7H0V21H24V7L23.5837 7.00053C23.8515 6.38793 24 5.71131 24 5ZM8.157 13.535V11.132H6.834V17H8.157V15.425L8.841 14.525L10.272 17H11.721L9.624 13.472L11.397 11.132H9.939L8.193 13.535H8.157ZM12 7C12 5.34315 13.3431 4 15 4C16.6569 4 18 5.34315 18 7C18 8.65685 16.6569 10 15 10C13.3431 10 12 8.65685 12 7ZM17.2736 2.54622C17.7618 2.2021 18.3573 2 19 2C20.6569 2 22 3.34315 22 5C22 6.30181 21.1708 7.40996 20.0118 7.8251L20.0541 7.80851L19.9305 7.83573C19.9762 7.56397 20 7.28477 20 7C20 5.1106 18.952 3.46598 17.4056 2.61568L17.2736 2.54622ZM12.443 11.132V17H13.766V14.885H14.495L15.62 17H17.105L15.773 14.651C16.091 14.513 16.343 14.306 16.529 14.03C16.721 13.748 16.817 13.391 16.817 12.959C16.817 12.611 16.757 12.32 16.637 12.086C16.517 11.852 16.355 11.666 16.151 11.528C15.947 11.384 15.707 11.282 15.431 11.222C15.161 11.162 14.87 11.132 14.558 11.132H12.443ZM14.45 13.832H13.766V12.185H14.45C14.798 12.185 15.062 12.242 15.242 12.356C15.428 12.47 15.521 12.671 15.521 12.959C15.521 13.247 15.428 13.466 15.242 13.616C15.062 13.76 14.798 13.832 14.45 13.832Z" fill="#3E3832"/>
</svg>
