<svg width="24" height="24" viewBox="0 0 24 24" fill="none" xmlns="http://www.w3.org/2000/svg">
<path fill-rule="evenodd" clip-rule="evenodd" d="M3 3C3 2.44772 3.44772 2 4 2H6C6.26522 2 6.51957 2.10536 6.70711 2.29289L8.05202 3.3854C8.24647 3.27497 8.45385 3.18202 8.67256 3.10912L9.4701 2.84327C11.1122 2.2959 12.8876 2.2959 14.5297 2.84327L15.3273 3.10912C15.5299 3.17666 15.7228 3.26142 15.9047 3.36135L17.2391 2.29289C17.4294 2.10536 17.6874 2 17.9565 2H20C20.5523 2 21 2.44772 21 3C21 3.55228 20.5523 4 20 4H18.3767L17.3212 4.81526C17.6287 5.40988 17.767 6.09609 17.6888 6.79998L17.6666 7H19C19.5523 7 20 7.44772 20 8C20 8.55228 19.5523 9 19 9H17.357C17.0955 9.88548 16.6229 10.6747 16 11.3133V17C16 18.8638 14.7252 20.4299 13 20.874V23C13 23.5523 12.5523 24 12 24C11.4477 24 11 23.5523 11 23V20.874C9.27477 20.4299 8 18.8638 8 17V11.3135C7.37699 10.6748 6.90435 9.88556 6.64286 9H5C4.44772 9 4 8.55228 4 8C4 7.44772 4.44772 7 5 7H6.33325L6.31103 6.79998C6.2341 6.10764 6.36663 5.4324 6.66361 4.8446L5.58579 4H4C3.44772 4 3 3.55228 3 3ZM15.701 6.57911L15.5643 7.80972C15.4924 8.45665 15.2514 9.04748 14.8882 9.5401C14.7217 9.21923 14.3865 9 14 9C13.4477 9 13 9.44772 13 10C13 10.2955 13.1282 10.561 13.3319 10.7441C12.9189 10.9094 12.469 11 11.9999 11C11.5308 11 11.081 10.9095 10.668 10.7441C10.8718 10.5611 11 10.2955 11 10C11 9.44772 10.5523 9 10 9C9.61349 9 9.27819 9.21928 9.11173 9.54023C8.74851 9.04758 8.50742 8.45671 8.43553 7.80972L8.29879 6.57911C8.22147 5.88323 8.64078 5.2279 9.30501 5.00649L10.1026 4.74064C11.3342 4.33011 12.6657 4.33011 13.8973 4.74064L14.6948 5.00649C15.3591 5.2279 15.7784 5.88323 15.701 6.57911ZM10 12.6307V17C10 17.7403 10.4022 18.3866 11 18.7324V17C11 16.4477 11.4477 16 12 16C12.5523 16 13 16.4477 13 17V18.7324C13.5978 18.3866 14 17.7403 14 17V12.6307C13.3773 12.8696 12.7025 13 11.9999 13C11.2974 13 10.6227 12.8696 10 12.6307Z" fill="#3E3832"/>
</svg>
