<svg width="24" height="24" viewBox="0 0 24 24" fill="none" xmlns="http://www.w3.org/2000/svg">
<path fill-rule="evenodd" clip-rule="evenodd" d="M8.91548 2L8.8918 2.00004C7.64661 2.0043 6.4255 2.3447 5.35749 2.9855C3.27451 4.23529 2 6.48633 2 8.91548V10.0451C2 10.5725 2.42752 11 2.9549 11H4.03651C4.21438 11 4.38982 11.0091 4.56245 11.0268L4.20666 12.0052C4.13822 12.0018 4.06931 12 4 12C1.79086 12 0 13.7909 0 16C0 18.2091 1.79086 20 4 20C6.20914 20 8 18.2091 8 16C8 14.5681 7.24761 13.3119 6.1166 12.6053L6.47335 11.6242C8.27693 12.6197 9.38659 14.6804 9.01961 16.8824C9.00934 16.9439 9.05684 17 9.11927 17H14H14.9398H16.126C16.5701 18.7252 18.1362 20 20 20C22.2091 20 24 18.2091 24 16C24 13.7909 22.2091 12 20 12C18.1362 12 16.5701 13.2748 16.126 15H15.0385C15.5372 12.745 17.5473 11 20.0225 11H20.4589C20.7905 11 21.0937 10.8127 21.242 10.5161L24 5H20.4222C18.8428 5 17.2987 5.4675 15.9846 6.3436L15 7H13L12.8944 6.78885C12.6578 6.3156 12.3145 5.9176 11.9022 5.61806C11.3593 5.22369 10.6966 5 10 5L11 2H8.91548ZM3.45385 14.0755L3.06011 15.1583C2.87137 15.6773 3.13913 16.2511 3.65816 16.4398C4.1772 16.6285 4.75096 16.3608 4.9397 15.8417L5.40113 14.5728C5.77074 14.9357 6 15.4411 6 16C6 17.1046 5.10457 18 4 18C2.89543 18 2 17.1046 2 16C2 15.0848 2.61475 14.3131 3.45385 14.0755ZM20 18C19.2597 18 18.6134 17.5978 18.2676 17H20C20.5523 17 21 16.5523 21 16C21 15.4477 20.5523 15 20 15H18.2676C18.6134 14.4022 19.2597 14 20 14C21.1046 14 22 14.8954 22 16C22 17.1046 21.1046 18 20 18ZM6.38648 4.70049C6.9467 4.36436 7.56619 4.14451 8.20809 4.05116L7.22515 7H10C10.4682 7 10.8962 7.26452 11.1056 7.68328L11.7639 9H15.6056L17.094 8.0077C18.0796 7.35063 19.2377 7 20.4222 7H20.7639L19.7616 9.00466C16.2814 9.12924 13.5133 11.736 13.0032 15H11.0128C10.5116 11.6585 7.62836 9 4.03651 9H4V8.91548C4 7.18885 4.90592 5.58883 6.38648 4.70049Z" fill="#262626"/>
</svg>
