<svg width="24" height="24" viewBox="0 0 24 24" fill="none" xmlns="http://www.w3.org/2000/svg">
<path fill-rule="evenodd" clip-rule="evenodd" d="M13.1818 6.57556V2.9091C13.1818 2.55636 12.9777 2.23546 12.6583 2.08584C12.3389 1.93622 11.9617 1.9849 11.6907 2.21072L5.1254 7.68182H0.90909C0.407013 7.68182 0 8.08884 0 8.59091V15.4091C0 15.9112 0.407013 16.3182 0.90909 16.3182H3.43918L5.25736 14.5H1.81818V9.5H5.45454C5.66721 9.5 5.87315 9.42544 6.03652 9.28929L11.3636 4.85005V8.39374L13.1818 6.57556ZM13.1818 15.0608L11.3636 16.879V19.15L10.1249 18.1177L8.83398 19.4087L11.6907 21.7893C11.9617 22.0151 12.3389 22.0638 12.6583 21.9142C12.9777 21.7645 13.1818 21.4436 13.1818 21.0909V15.0608Z" fill="#262626"/>
<path fill-rule="evenodd" clip-rule="evenodd" d="M18.0399 10.2027C18.3162 10.7539 18.4639 11.3669 18.4639 11.995C18.4639 13.0557 18.0427 14.0729 17.2928 14.823C16.9023 15.2136 16.9024 15.8467 17.293 16.2372C17.6836 16.6277 18.3167 16.6276 18.7072 16.237C19.832 15.1118 20.4639 13.586 20.4639 11.995C20.4639 10.831 20.1257 9.70186 19.5036 8.739L18.0399 10.2027Z" fill="#262626"/>
<path d="M23 1L1 23" stroke="#262626" stroke-width="2" stroke-linecap="round" stroke-linejoin="round"/>
</svg>
