<svg width="24" height="24" viewBox="0 0 24 24" fill="none" xmlns="http://www.w3.org/2000/svg">
<path fill-rule="evenodd" clip-rule="evenodd" d="M11 4C11.5523 4 12 3.55228 12 3C12 2.44772 11.5523 2 11 2C10.4477 2 10 2.44772 10 3C10 3.55228 10.4477 4 11 4ZM11 6C12.6569 6 14 4.65685 14 3C14 1.34315 12.6569 0 11 0C9.34314 0 8 1.34315 8 3C8 4.65685 9.34314 6 11 6ZM10 5.87104H8C6.89543 5.87104 6 6.77288 6 7.88536V13.9283L8 16.9498V23.9999H10V17.5V16.9498V7.88536V7V5.87104ZM12.0005 24L12.0157 17V5.98271C13.6129 6.3036 15.2826 7.28953 15.2826 8.88941V11.9115L17.9112 17.5589C18.1492 18.0703 17.8919 18.6625 17.3366 18.8817C17.2004 18.9354 17.0538 18.9631 16.9056 18.9631H14.1881L14.1886 24H12.0005Z" fill="#3E3832"/>
</svg>
