<svg width="24" height="24" viewBox="0 0 24 24" fill="none" xmlns="http://www.w3.org/2000/svg">
<path fill-rule="evenodd" clip-rule="evenodd" d="M12 3C12 3.55228 11.5523 4 11 4C10.4477 4 10 3.55228 10 3C10 2.44772 10.4477 2 11 2C11.5523 2 12 2.44772 12 3ZM12 5.82929C13.1652 5.41746 14 4.30622 14 3C14 1.34315 12.6569 0 11 0C9.34314 0 8 1.34315 8 3C8 4.30622 8.83481 5.41746 10 5.82929V5.87104H8C6.89543 5.87104 6 6.77288 6 7.88536V13.9283L8 16.9498V23.9999H10V17H12L12.0005 24H14.1886L14.1881 18.9631H16.9056C17.0538 18.9631 17.2004 18.9354 17.3366 18.8817C17.8919 18.6625 18.1492 18.0703 17.9112 17.5589L15.2826 11.9115V8.88941C15.2826 7.28953 13.6129 6.3036 12.0157 5.98271V8.03267C12.7629 8.25968 13.0945 8.68466 13.0945 8.88941V12.3251L15.2465 16.9484H12V5.82929ZM8 7.88536H10V16.9498L8 13.6806V7.88536Z" fill="#3E3832"/>
</svg>
