<svg width="24" height="24" viewBox="0 0 24 24" fill="none" xmlns="http://www.w3.org/2000/svg">
<path fill-rule="evenodd" clip-rule="evenodd" d="M12 4C12.5523 4 13 3.55228 13 3C13 2.44772 12.5523 2 12 2C11.4477 2 11 2.44772 11 3C11 3.55228 11.4477 4 12 4ZM12 6C13.6569 6 15 4.65685 15 3C15 1.34315 13.6569 0 12 0C10.3431 0 9 1.34315 9 3C9 4.65685 10.3431 6 12 6ZM7 9C7 7.89543 7.89543 7 9 7H11V9H9V16H11V24H9V18H7V9ZM13 9H14.3757L17.7967 16H13V24H15V18H21.0002L16.1726 8.12183C15.8371 7.43535 15.1398 7 14.3757 7H13V9Z" fill="#262626"/>
</svg>
