<svg width="24" height="24" viewBox="0 0 24 24" fill="none" xmlns="http://www.w3.org/2000/svg">
<path fill-rule="evenodd" clip-rule="evenodd" d="M18 1.78778C18 2.87823 18.6354 3.86748 19.6243 4.32182L19.6249 4.32056C21.3543 5.08917 22.4688 6.80413 22.4688 8.69659V11H20.4688V8.69659C20.4688 7.60614 19.8334 6.61689 18.8444 6.16255L18.8439 6.16381C17.1145 5.39521 16 3.68025 16 1.78778V0H18V1.78778ZM15.3846 13L18 10.3846L16.6154 9L11 14.6154L5.38462 9L4 10.3846L6.61539 13H2H0V15V17V19H2H6.61539L4 21.6154L5.38462 23L11 17.3846L16.6154 23L18 21.6154L15.3846 19H22C23.1046 19 24 18.1046 24 17V15C24 13.8954 23.1046 13 22 13H15.3846ZM13.3846 15L12.3846 16L13.3846 17H19V15H13.3846ZM22 17H21V15H22V17ZM8.61539 17L9.61539 16L8.61539 15H2V17H8.61539Z" fill="#262626"/>
</svg>
