<svg width="25" height="24" viewBox="0 0 25 24" fill="none" xmlns="http://www.w3.org/2000/svg">
<path fill-rule="evenodd" clip-rule="evenodd" d="M23.0271 1.00735L23.0598 1.04119C24.3286 2.35288 24.3404 4.40345 23.2057 5.78294L21.708 7.60217L14.1812 16.7523L22 7.24842V24H2V2H17.2903L17.7456 1.44681L17.8862 1.27601L18.0394 1.10527L18.0696 1.07435C19.3139 -0.197341 21.3848 -0.412369 22.8251 0.820347L22.8608 0.850919L23.0271 1.00735ZM21.6612 4.51222L21.6611 4.51237L20.1639 6.33103L20.1634 6.33162L12.9327 15.1218L9.87014 16.5062L10.6749 13.1893L16.7488 5.80585L17.939 4.35898L17.9393 4.35859L17.9394 4.35853L17.9405 4.35718L18.0188 4.26206L19.4033 2.5799L19.4991 2.47307C20.0702 1.88943 20.9511 1.84893 21.5246 2.33977L21.5246 2.33978L21.6223 2.43171L21.6223 2.43172C22.1422 2.96916 22.1888 3.87027 21.6616 4.5118L21.6612 4.51222Z" fill="#262626"/>
</svg>
