<svg width="25" height="24" viewBox="0 0 25 24" fill="none" xmlns="http://www.w3.org/2000/svg">
<path fill-rule="evenodd" clip-rule="evenodd" d="M23.0271 1.01096L23.0598 1.04481C24.3286 2.3565 24.3404 4.40707 23.2057 5.78656L22 7.25109V24H2V2H17.2933L17.7456 1.45042L17.8862 1.27963L18.0394 1.10889L18.0696 1.07797C19.3139 -0.193727 21.3848 -0.408755 22.8251 0.823961L22.8608 0.854533L23.0271 1.01096ZM15.6471 4H4V22H20V9.68214L14.1812 16.7559L9.272 18.975L6.96045 20.0199L7.55858 17.5547L8.83932 12.2761L15.2039 4.53926L15.2042 4.53888L15.2039 4.53857L15.6471 4ZM21.6612 4.51583L21.6611 4.51599L20.1639 6.33464L20.1634 6.33523L12.9327 15.1254L9.87014 16.5098L10.6749 13.1929L16.7488 5.80947L17.939 4.3626L17.9393 4.3622L17.9394 4.36215L17.9405 4.3608L18.0188 4.26567L19.4033 2.58351L19.4991 2.47669C20.0702 1.89304 20.9511 1.85255 21.5246 2.34338L21.5246 2.3434L21.6223 2.43532L21.6223 2.43534C22.1422 2.97278 22.1888 3.87388 21.6616 4.51541L21.6612 4.51583Z" fill="#262626"/>
</svg>
