<svg width="20" height="24" viewBox="0 0 20 24" fill="none" xmlns="http://www.w3.org/2000/svg">
<path fill-rule="evenodd" clip-rule="evenodd" d="M7.24466 0.874004L10.1931 5.07052C10.8444 5.99759 10.6183 7.27536 9.68813 7.92451L8.84598 8.51219C8.38087 8.83676 8.26783 9.47565 8.59351 9.93918L11.5419 14.1357C11.8676 14.5992 12.5086 14.7119 12.9737 14.3873L13.8159 13.7996C14.7461 13.1505 16.0282 13.3758 16.6796 14.3029L19.628 18.4994C20.2793 19.4265 20.0532 20.7042 19.123 21.3534L16.3926 23.2588C14.849 24.336 12.7683 24.2297 11.3433 23.001C9.47796 21.3927 7.45947 19.0431 5.2878 15.9521C2.97451 12.6596 1.30417 9.68836 0.276755 7.03843C-0.40494 5.28015 0.204631 3.2852 1.75394 2.20403L4.381 0.37077C5.31121 -0.278371 6.59332 -0.0530659 7.24466 0.874004Z" fill="#262626"/>
</svg>
