<svg width="24" height="24" viewBox="0 0 24 24" fill="none" xmlns="http://www.w3.org/2000/svg">
<path fill-rule="evenodd" clip-rule="evenodd" d="M17.34 1.37199C17.6296 0.648119 17.0162 -0.113964 16.2472 0.0142072L13.3152 0.502868C12.4444 0.647999 11.5556 0.647999 10.6848 0.502868L7.75286 0.0142072C6.98384 -0.113964 6.37044 0.64812 6.65999 1.37199L7.78083 4.1741C9.05144 3.4271 10.5305 3 12.105 3C13.6079 3 15.0257 3.38961 16.2583 4.07643L17.34 1.37199ZM12.105 5C7.56144 5 3.81281 8.55652 3.57401 13.0938L3.31389 18.036C2.50685 18.7679 2 19.8247 2 21C2 22.6569 3.34315 24 5 24H5.2381H19H19.152C19.4482 24 19.7296 23.9409 19.9858 23.8343C21.1584 23.4265 22 22.3115 22 21C22 20.0184 21.6464 19.1194 21.0597 18.4234L20.6214 12.8705C20.2706 8.42698 16.5624 5 12.105 5ZM9 20V9.568H12.084C12.66 9.568 13.1987 9.62667 13.7 9.744C14.1421 9.83806 14.3571 9.99431 14.6577 10.2128C14.698 10.2421 14.7399 10.2725 14.784 10.304C15.1573 10.56 15.4507 10.9067 15.664 11.344C15.888 11.7707 16 12.2987 16 12.928C16 13.536 15.888 14.064 15.664 14.512C15.4507 14.96 15.1573 15.328 14.784 15.616C14.7219 15.6639 14.6645 15.7097 14.6097 15.7535C14.3349 15.9729 14.1251 16.1404 13.716 16.256C13.2253 16.3947 12.7027 16.464 12.148 16.464H11V20H9ZM11 14.592H12.004C13.284 14.592 13.924 14.0373 13.924 12.928C13.924 12.384 13.7533 12 13.412 11.776C13.0707 11.552 12.58 11.44 11.94 11.44H11V14.592Z" fill="#262626"/>
</svg>
