<svg width="1em" height="1em" viewBox="0 0 24 24" fill="none" xmlns="http://www.w3.org/2000/svg">
<path fill-rule="evenodd" clip-rule="evenodd" d="M12.7683 4C13.3206 4 13.7683 3.55228 13.7683 3C13.7683 2.44772 13.3206 2 12.7683 2C12.2161 2 11.7683 2.44772 11.7683 3C11.7683 3.55228 12.2161 4 12.7683 4ZM12.7683 6C14.4252 6 15.7683 4.65685 15.7683 3C15.7683 1.34315 14.4252 0 12.7683 0C11.1115 0 9.76834 1.34315 9.76834 3C9.76834 4.65685 11.1115 6 12.7683 6ZM8.63255 12.7774L9.72525 7.70787C9.84475 7.15348 9.48365 6.60963 8.92633 6.50463C8.39162 6.40389 7.87343 6.74559 7.75542 7.27676L7.01466 10.6108C6.99411 10.7034 6.9955 10.7979 7.01699 10.8875L7.0423 10.8668L8.36271 12.4806L8.63255 12.7774ZM5.67995 12.5028L6.84779 13.7874L9.09021 16.5281C9.52875 17.0641 9.76834 17.7353 9.76834 18.4279V24H11.7683V18.4279C11.7683 17.2736 11.369 16.155 10.6381 15.2617L10.2463 14.7827L11.4328 9.27794L12.1988 10.1533C12.6771 10.7001 13.2546 11.1382 13.8927 11.4502C13.8127 11.6292 13.7683 11.8146 13.7683 12V13C13.7683 13.5523 14.2161 14 14.7683 14C15.3206 14 15.7683 13.5523 15.7683 13V12.5C15.7683 12.2239 15.9922 12 16.2683 12C16.5445 12 16.7683 12.2239 16.7683 12.5V24H18.7683V12.5C18.7683 11.1193 17.6491 10 16.2683 10C15.2857 10 14.351 9.57583 13.7039 8.83634L11.5209 6.34149L11.5189 6.34329C11.1431 5.4393 10.3337 4.7346 9.29662 4.53921C7.70123 4.23863 6.15514 5.25816 5.80303 6.84298L5.06227 10.1771C4.87796 11.0066 5.10833 11.874 5.67995 12.5028Z" fill="currentColor"/>
</svg>
