<svg width="24" height="24" viewBox="0 0 24 24" fill="none" xmlns="http://www.w3.org/2000/svg">
<path fill-rule="evenodd" clip-rule="evenodd" d="M12 14C15.3137 14 18 11.3137 18 8C18 4.68629 15.3137 2 12 2C8.68629 2 6 4.68629 6 8C6 11.3137 8.68629 14 12 14ZM20 8C20 12.0796 16.9463 15.446 13 15.9381V23.9871C13.0003 23.8766 13.0087 23.0662 13.1818 21.9959C13.4234 20.5022 13.986 18.5023 15.2956 17.1927C16.5943 15.894 18.5392 15.3626 20 15.1464C20.4203 15.0842 20.8005 15.048 21.1138 15.0273C21.657 14.9912 21.9987 15.0013 21.9987 15.0013C21.9987 15.0013 22.0088 15.343 21.9727 15.8862C21.9519 16.1994 21.9158 16.5797 21.8536 17C21.6374 18.4608 21.106 20.4056 19.8073 21.7043C18.4977 23.014 16.4978 23.5766 15.004 23.8182C13.8513 24.0047 13 24 13 24H11C11 24 10.1487 24.0047 8.99595 23.8182C7.5022 23.5766 5.5023 23.014 4.19267 21.7043C2.89398 20.4056 2.36257 18.4608 2.14637 17C2.08416 16.5797 2.04805 16.1994 2.02727 15.8862C1.99124 15.343 2.00129 15.0013 2.00129 15.0013C2.00129 15.0013 2.34303 14.9912 2.88619 15.0273C3.19945 15.048 3.5797 15.0842 4.00003 15.1464C5.46084 15.3626 7.40565 15.894 8.70434 17.1927C10.014 18.5023 10.5766 20.5022 10.8182 21.9959C10.9913 23.0662 10.9997 23.8766 11 23.9871V15.9381C7.05369 15.446 4 12.0796 4 8C4 3.58172 7.58172 0 12 0C16.4183 0 20 3.58172 20 8ZM7.29013 18.6069C8.00704 19.3238 8.47273 20.4993 8.73566 21.7356C7.49929 21.4727 6.3238 21.007 5.60688 20.2901C4.89098 19.5742 4.44711 18.4194 4.21109 17.2111C5.4194 17.4471 6.57422 17.891 7.29013 18.6069ZM15.2643 21.7356C15.5273 20.4993 15.9929 19.3238 16.7099 18.6069C17.4258 17.891 18.5806 17.4471 19.7889 17.2111C19.5529 18.4194 19.109 19.5742 18.3931 20.2901C17.6762 21.007 16.5007 21.4727 15.2643 21.7356ZM9.375 4V12.5H11.375V10.034H12.567C13.0523 10.034 13.357 9.97333 13.7864 9.852C14.2157 9.73066 14.5937 9.544 14.9204 9.292C15.247 9.04 15.5037 8.718 15.6904 8.326C15.8864 7.934 15.9844 7.472 15.9844 6.94C15.9844 6.38933 15.8864 5.92733 15.6904 5.554C15.5037 5.17133 15.247 4.868 14.9204 4.644C14.5937 4.41066 14.211 4.24733 13.7724 4.154C13.3337 4.05133 13.015 4 12.511 4H9.375ZM12.441 8.396H11.375V5.638H12.385C12.945 5.638 13.3743 5.736 13.673 5.932C13.9717 6.128 14.121 6.464 14.121 6.94C14.121 7.91066 13.561 8.396 12.441 8.396Z" fill="#262626"/>
</svg>
