<svg width="24" height="24" viewBox="0 0 24 24" fill="none" xmlns="http://www.w3.org/2000/svg">
<path fill-rule="evenodd" clip-rule="evenodd" d="M17 7C17 9.76142 14.7614 12 12 12C9.23858 12 7 9.76142 7 7C7 4.23858 9.23858 2 12 2C14.7614 2 17 4.23858 17 7ZM19 7C19 10.866 15.866 14 12 14C8.13401 14 5 10.866 5 7C5 3.13401 8.13401 0 12 0C15.866 0 19 3.13401 19 7ZM12 17C16.355 17 19.9994 19.992 20.9241 24H23C22.0437 18.8798 17.4825 15 12 15C6.51746 15 1.95628 18.8798 1 24H3.07587C4.00057 19.992 7.64502 17 12 17Z" fill="#262626"/>
</svg>
