<svg width="24" height="24" viewBox="0 0 24 24" fill="none" xmlns="http://www.w3.org/2000/svg">
<path fill-rule="evenodd" clip-rule="evenodd" d="M22 5H2L2 19H7.45455L14 10L20.5455 19H22V5ZM20.0362 21H6H2C0.89543 21 0 20.1046 0 19V5C0 3.89543 0.895431 3 2 3H22C23.1046 3 24 3.89543 24 5V19C24 20.1046 23.1046 21 22 21H20.0362ZM18.0725 19L14 13.4004L9.92754 19H18.0725ZM7.5 12C8.32843 12 9 11.3284 9 10.5C9 9.67157 8.32843 9 7.5 9C6.67157 9 6 9.67157 6 10.5C6 11.3284 6.67157 12 7.5 12ZM7.5 14C9.433 14 11 12.433 11 10.5C11 8.567 9.433 7 7.5 7C5.567 7 4 8.567 4 10.5C4 12.433 5.567 14 7.5 14Z" fill="#262626"/>
</svg>
