<svg width="24" height="24" viewBox="0 0 24 24" fill="none" xmlns="http://www.w3.org/2000/svg">
<path fill-rule="evenodd" clip-rule="evenodd" d="M12 0C16.4183 0 20 3.59678 20 8.03364L19.9986 8.656C19.9877 10.2346 19.8889 11.2222 19 13L18.8404 13.3053L18.5471 13.8277C17.5369 15.5774 15.3545 18.9682 12 24L9.75465 20.6111L8.17389 18.1892C6.47226 15.5583 5.4143 13.8286 5 13C4 11 4 10 4 8.03364C4 3.59678 7.58172 0 12 0ZM12 2C8.68817 2 6 4.69948 6 8.03364L6.00688 9.018L6.01942 9.41306C6.03322 9.70541 6.05606 9.91825 6.09297 10.1462C6.18594 10.7203 6.38301 11.2939 6.78885 12.1056L6.89278 12.3061L7.09598 12.6738C7.68769 13.7162 8.83368 15.5431 10.5167 18.124L12 20.383L13.7046 17.7844L14.7372 16.1859C15.8756 14.4094 16.6504 13.1445 17.0521 12.4081L17.2111 12.1056C17.617 11.2939 17.8141 10.7203 17.907 10.1462L17.9465 9.85997L17.9656 9.65726C17.9931 9.30283 18 8.8482 18 8.03364C18 4.69948 15.3118 2 12 2ZM12 4C14.2091 4 16 5.79086 16 8C16 10.2091 14.2091 12 12 12C9.79086 12 8 10.2091 8 8C8 5.79086 9.79086 4 12 4ZM12 6C10.8954 6 10 6.89543 10 8C10 9.10457 10.8954 10 12 10C13.1046 10 14 9.10457 14 8C14 6.89543 13.1046 6 12 6Z" fill="#262626"/>
</svg>
