<svg width="24" height="24" viewBox="0 0 24 24" fill="none" xmlns="http://www.w3.org/2000/svg">
<path fill-rule="evenodd" clip-rule="evenodd" d="M12 0C16.4183 0 20 3.59678 20 8.03364L19.9986 8.656C19.9877 10.2346 19.8889 11.2222 19 13L18.8404 13.3053L18.5471 13.8277C17.5369 15.5774 15.3545 18.9682 12 24L9.75465 20.6111L8.17389 18.1892C6.47226 15.5583 5.4143 13.8286 5 13C4 11 4 10 4 8.03364C4 3.59678 7.58172 0 12 0ZM12 4C14.2091 4 16 5.79086 16 8C16 10.2091 14.2091 12 12 12C9.79086 12 8 10.2091 8 8C8 5.79086 9.79086 4 12 4Z" fill="#262626"/>
</svg>
