<svg width="24" height="24" viewBox="0 0 24 24" fill="none" xmlns="http://www.w3.org/2000/svg">
<path fill-rule="evenodd" clip-rule="evenodd" d="M5.49348 0.301235L13.208 5.13345L18.018 3.73648C19.8869 3.19347 21.9303 3.79492 23.3962 5.31952C24.1385 6.09153 24.2056 7.34928 23.5462 8.12879C23.3312 8.38292 23.0549 8.56438 22.7464 8.65402L8.51231 12.7898C6.67449 13.3238 4.74872 12.813 3.27685 11.5686L1.16121 12.1823L0.612838 10.2445L1.84763 9.88648C1.76929 9.75703 1.69455 9.62419 1.62362 9.48809L0 5.82603L2.51275 5.09594C3.09005 4.9282 3.72078 5.09537 4.19356 5.54142L6.56177 7.06516L6.84472 6.98202L1.79678 1.41307L3.32232 0.353247C3.97205 -0.0981305 4.82343 -0.118526 5.49348 0.301235ZM21.9291 24C21.9758 23.6734 22 23.3395 22 23C22 19.134 18.866 16 15 16C13.1192 16 11.4116 16.7418 10.1539 17.9487C12.3116 19.1547 13.8122 21.3958 13.9836 24H21.9291ZM1.0001 24H12.0001C11.7464 21.1968 9.38085 19 6.50009 19C3.61933 19 1.25375 21.1968 1.0001 24Z" fill="#262626"/>
</svg>
