<svg width="24" height="25" viewBox="0 0 24 25" fill="none" xmlns="http://www.w3.org/2000/svg">
<path fill-rule="evenodd" clip-rule="evenodd" d="M15 16C18.866 16 22 19.134 22 23C22 23.3399 21.9758 23.6741 21.929 24.001L19.8997 24.0012C19.9655 23.6777 20 23.3429 20 23C20 20.2386 17.7614 18 15 18C13.0448 18 11.3517 19.1223 10.5297 20.7578C11.3362 21.625 11.8653 22.7526 11.9776 24.0004L9.96456 24C9.72197 22.3039 8.26325 21 6.5 21C4.73675 21 3.27803 22.3039 3.03544 24L1.02239 24.0004C1.27482 21.197 3.63084 19 6.5 19C7.36293 19 8.17945 19.1987 8.90628 19.5529C10.1085 17.4316 12.3871 16 15 16ZM5.49348 0.301235L13.208 5.13345L18.018 3.73648C19.8869 3.19347 21.9303 3.79492 23.3962 5.31952C24.1385 6.09153 24.2056 7.34928 23.5462 8.12879C23.3312 8.38292 23.0549 8.56438 22.7464 8.65402L8.51231 12.7898C6.67449 13.3238 4.74872 12.813 3.27685 11.5686L1.16121 12.1823L0.612838 10.2445L1.84763 9.88648C1.76929 9.75703 1.69455 9.62419 1.62362 9.48809L0 5.82603L2.51275 5.09594C3.09005 4.9282 3.72078 5.09537 4.19356 5.54142L6.56177 7.06516L6.84472 6.98202L1.79678 1.41307L3.32232 0.353247C3.97205 -0.0981305 4.82343 -0.118526 5.49348 0.301235Z" fill="#3E3832"/>
</svg>
