<svg width="24" height="24" viewBox="0 0 24 24" fill="none" xmlns="http://www.w3.org/2000/svg">
<path fill-rule="evenodd" clip-rule="evenodd" d="M15 8C17.2091 8 19 6.20914 19 4C19 1.79086 17.2091 0 15 0C12.7909 0 11 1.79086 11 4C11 6.20914 12.7909 8 15 8ZM11 13C11 10.7909 12.7909 9 15 9C17.2091 9 19 10.7909 19 13V24H11.5H11V23.9776C8.19675 23.725 6 21.369 6 18.5C6 15.631 8.19675 13.275 11 13.0224V13ZM9.23387 18.9378C8.68725 18.1766 9.15872 17 10.0287 17C10.2866 17 10.5358 17.1193 10.7171 17.3297L11 17.658L11.2829 17.3297C11.4642 17.1193 11.7134 17 11.9713 17C12.8413 17 13.3128 18.1766 12.7661 18.9378L12.7112 19.0142L11 21L9.28875 19.0142L9.23387 18.9378Z" fill="currentColor"/>
</svg>
