<svg width="24" height="24" viewBox="0 0 24 24" fill="none" xmlns="http://www.w3.org/2000/svg">
<path fill-rule="evenodd" clip-rule="evenodd" d="M14 8C16.2091 8 18 6.20914 18 4C18 1.79086 16.2091 0 14 0C11.7909 0 10 1.79086 10 4C10 6.20914 11.7909 8 14 8ZM10 13C10 10.7909 11.7909 9 14 9C16.2091 9 18 10.7909 18 13V24H10.5H10V23.9776C7.19675 23.725 5 21.369 5 18.5C5 15.631 7.19675 13.275 10 13.0224V13ZM8.23387 18.9378C7.68725 18.1766 8.15872 17 9.02866 17C9.2866 17 9.5358 17.1193 9.71712 17.3297L10 17.658L10.2829 17.3297C10.4642 17.1193 10.7134 17 10.9713 17C11.8413 17 12.3128 18.1766 11.7661 18.9378L11.7112 19.0142L10 21L8.28875 19.0142L8.23387 18.9378Z" fill="#262626"/>
</svg>
