<svg width="1em" height="1em" viewBox="0 0 24 24" fill="none" xmlns="http://www.w3.org/2000/svg">
<path fill-rule="evenodd" clip-rule="evenodd" d="M15 0C17.2091 0 19 1.79086 19 4C19 5.50705 18.1666 6.81944 16.9355 7.5014C18.1666 8.18056 19 9.49295 19 11V24H17V11C17 9.94564 16.1841 9.08183 15.1493 9.00549L15 9C13.9456 9 13.0818 9.81588 13.0055 10.8507L13 11V14H12C9.79086 14 8 15.7909 8 18C8 20.2091 9.79086 22 12 22V24C8.68629 24 6 21.3137 6 18C6 15.0269 8.16238 12.5589 11.0002 12.0829L11 11C11 9.49295 11.8334 8.18056 13.0645 7.4986C11.8334 6.81944 11 5.50705 11 4C11 1.79086 12.7909 0 15 0ZM13.532 16.2865L13.5871 16.3365L13.638 16.3883C13.87 16.6388 13.9995 16.9708 14 17.3209C14.0005 17.6891 13.8584 18.0432 13.6053 18.3171L13.0412 18.9168L12 20L10.7978 18.7474L10.3945 18.3172C10.1415 18.0436 9.99952 17.6894 10 17.3218C10 16.9714 10.1296 16.6387 10.3624 16.3879C10.7766 15.942 11.4131 15.8808 11.8889 16.2036L11.9475 16.2459L11.9997 16.2884L12.0523 16.2458C12.4954 15.9052 13.1015 15.9184 13.532 16.2865ZM15 2C13.8954 2 13 2.89543 13 4C13 5.10457 13.8954 6 15 6C16.1046 6 17 5.10457 17 4C17 2.89543 16.1046 2 15 2Z" fill="currentColor"/>
</svg>
