<svg width="24" height="24" viewBox="0 0 24 24" fill="none" xmlns="http://www.w3.org/2000/svg">
<path fill-rule="evenodd" clip-rule="evenodd" d="M15 6C16.1046 6 17 5.10457 17 4C17 2.89543 16.1046 2 15 2C13.8954 2 13 2.89543 13 4C13 5.10457 13.8954 6 15 6ZM15 8C17.2091 8 19 6.20914 19 4C19 1.79086 17.2091 0 15 0C12.7909 0 11 1.79086 11 4C11 6.20914 12.7909 8 15 8ZM11.0287 17C10.1587 17 9.68725 18.1766 10.2339 18.9378L10.2888 19.0142L12 21L13.7112 19.0142L13.7661 18.9378C14.3128 18.1766 13.8413 17 12.9713 17C12.7134 17 12.4642 17.1193 12.2829 17.3297L12 17.658L11.7171 17.3297C11.5358 17.1193 11.2866 17 11.0287 17ZM13 14.8503L11.1795 15.0143C9.39773 15.1749 8 16.6754 8 18.5C8 20.3246 9.39773 21.8251 11.1795 21.9856L11.3387 22H11.5V24H11V23.9776C8.19675 23.725 6 21.369 6 18.5C6 15.631 8.19675 13.275 11 13.0224V13C11 10.7909 12.7909 9 15 9C17.2091 9 19 10.7909 19 13V22V24H17V22V13C17 11.8954 16.1046 11 15 11C13.8954 11 13 11.8954 13 13V13.0224V14.8503Z" fill="#3E3832"/>
</svg>
