<svg width="24" height="24" viewBox="0 0 24 24" fill="none" xmlns="http://www.w3.org/2000/svg">
<path fill-rule="evenodd" clip-rule="evenodd" d="M15 0C17.2091 0 19 1.79086 19 4C19 5.50705 18.1666 6.81944 16.9355 7.5014C18.1666 8.18056 19 9.49295 19 11V24H12C8.68629 24 6 21.3137 6 18C6 15.0269 8.16238 12.5589 11.0002 12.0829L11 11C11 9.49295 11.8334 8.18056 13.0645 7.4986C11.8334 6.81944 11 5.50705 11 4C11 1.79086 12.7909 0 15 0ZM13.5871 16.3365L13.532 16.2865C13.1015 15.9184 12.4954 15.9052 12.0523 16.2458L11.9997 16.2884L11.9475 16.2459L11.8889 16.2036C11.4131 15.8808 10.7766 15.942 10.3624 16.3879C10.1296 16.6387 10 16.9714 10 17.3218C9.99952 17.6894 10.1415 18.0436 10.3945 18.3172L10.7978 18.7474L12 20L13.0412 18.9168L13.6053 18.3171C13.8584 18.0432 14.0005 17.6891 14 17.3209C13.9995 16.9708 13.87 16.6388 13.638 16.3883L13.5871 16.3365ZM13 4C13 2.89543 13.8954 2 15 2C16.1046 2 17 2.89543 17 4C17 5.10457 16.1046 6 15 6C13.8954 6 13 5.10457 13 4Z" fill="#3E3832"/>
</svg>
