<svg width="1em" height="1em" viewBox="0 0 24 24" fill="none" xmlns="http://www.w3.org/2000/svg">
<path fill-rule="evenodd" clip-rule="evenodd" d="M18 8C18 11.3137 15.3137 14 12 14C8.68629 14 6 11.3137 6 8C6 4.68629 8.68629 2 12 2C15.3137 2 18 4.68629 18 8ZM16.0947 14.8741C18.4336 13.4779 20 10.9219 20 8C20 3.58172 16.4183 0 12 0C7.58172 0 4 3.58172 4 8C4 10.9219 5.5664 13.4779 7.90527 14.8741C4.42413 16.4384 2 19.9361 2 24H4C4 19.5817 7.58172 16 12 16C16.4183 16 20 19.5817 20 24H22C22 19.9361 19.5759 16.4384 16.0947 14.8741Z" fill="currentColor"/>
</svg>
