<svg width="24" height="24" viewBox="0 0 24 24" fill="none" xmlns="http://www.w3.org/2000/svg">
<path fill-rule="evenodd" clip-rule="evenodd" d="M18 6C18.5523 6 19 5.55228 19 5C19 4.44772 18.5523 4 18 4C17.4477 4 17 4.44772 17 5C17 5.55228 17.4477 6 18 6ZM18 8C19.6569 8 21 6.65685 21 5C21 3.34315 19.6569 2 18 2C16.3431 2 15 3.34315 15 5C15 6.65685 16.3431 8 18 8ZM16 13C16 11.8954 16.8954 11 18 11C19.1046 11 20 11.8954 20 13V16H16V13ZM24 16L22 16V13C22 10.7909 20.2091 9 18 9C15.7909 9 14 10.7909 14 13V16L12 16V15C12 12.7909 10.2091 11 8 11C5.79086 11 4 12.7909 4 15V16L0 16V22H2V18L4 18V22H6V15C6 13.8954 6.89543 13 8 13C9.10457 13 10 13.8954 10 15V16V18V22H12V18L22 18V22H24V16ZM9 7C9 7.55228 8.55228 8 8 8C7.44772 8 7 7.55228 7 7C7 6.44772 7.44772 6 8 6C8.55228 6 9 6.44772 9 7ZM11 7C11 8.65685 9.65685 10 8 10C6.34315 10 5 8.65685 5 7C5 5.34315 6.34315 4 8 4C9.65685 4 11 5.34315 11 7Z" fill="#262626"/>
</svg>
