<svg width="24" height="24" viewBox="0 0 24 24" fill="none" xmlns="http://www.w3.org/2000/svg">
<rect width="24" height="24" fill="white"/>
<path fill-rule="evenodd" clip-rule="evenodd" d="M8.67081 3.47738L7.90972 4.60779L5.03125 5.62905L6.98986 2.39367C7.52515 1.56338 8.4349 1.04983 9.42235 1.02055L10.1996 0.998047L16.1003 1.02074C16.497 1.02227 16.8553 1.25817 17.0135 1.62199L18.6926 5.4835L20.7066 4.60779L18.932 13.5577L11.1762 8.75171L13.1902 7.876L11.0583 2.97292L9.48164 3.01967C9.15249 3.02943 8.84924 3.20061 8.67081 3.47738ZM7.49981 19.9981L6.21832 19.9892C5.88903 19.9874 5.58172 19.8236 5.39663 19.5513L4.51008 18.2467L7.49981 13.8142L9.3205 15.0423L9.20665 5.91886L0.704894 9.23099L2.52559 10.4591L0.170963 13.9499C-0.0508809 14.2788 -0.0573217 14.7078 0.154548 15.0432L3.30587 20.032L3.74244 20.6754C4.2977 21.4925 5.21962 21.9838 6.2075 21.9892H10.0625L7.49981 19.9981ZM20.9249 12.0524L21.832 13.413C22.0147 13.687 22.0507 14.0333 21.9284 14.3391L21.3426 15.8036H15.9961V13.6075L8.49609 18.8036L15.9961 23.9998V21.8036H20.2068C20.6036 21.8036 20.9628 21.5691 21.1224 21.2059L23.4961 15.8036L23.7854 15.0819C24.1523 14.1646 24.0441 13.1256 23.4961 12.3036L21.4591 9.24805L20.9249 12.0524Z" fill="#262626"/>
</svg>
