<svg width="24" height="24" viewBox="0 0 24 24" fill="none" xmlns="http://www.w3.org/2000/svg">
<path fill-rule="evenodd" clip-rule="evenodd" d="M7.27265 4.0625L8.48026 2C10.0452 -0.666667 13.9575 -0.666667 15.5225 2L18.4672 7.01797L20.6681 5.76789L20.6365 12.714L14.5061 9.26789L16.7067 8.01797L13.7619 3C12.9794 1.66667 11.0233 1.66667 10.2408 3L9.04829 5.03207L7.27265 4.0625ZM4.07188 21.4641L6.44683 21.464L6.44675 19.4638L4.07188 19.4641C2.50694 19.4641 1.52886 17.7975 2.31133 16.4641L5.2561 11.4462L7.4567 12.6962L7.4251 5.75L1.29478 9.19615L3.49555 10.4462L0.550781 15.4641C-1.01415 18.1308 0.942014 21.4641 4.07188 21.4641ZM23.4491 15.4998L22.2335 13.4062L20.496 14.4678L21.6885 16.4998C22.471 17.8332 21.4929 19.4998 19.928 19.4998H14.0384V17L7.93969 20.5L14.0384 24V21.4998H19.928C23.0578 21.4998 25.014 18.1665 23.4491 15.4998Z" fill="#3E3832"/>
</svg>
