<svg width="1em" height="1em" viewBox="0 0 24 24" fill="none" xmlns="http://www.w3.org/2000/svg">
<path fill-rule="evenodd" clip-rule="evenodd" d="M0 4H4.99914C2.57187 5.82363 1 8.72755 1 11.9999C1 15.9231 3.25942 19.3168 6.54346 20.9541L7.43584 19.1643C4.80423 17.8522 3 15.1358 3 11.9999C3 9.04021 4.60709 6.45426 7 5.06992V11H9V2H0V4ZM23 12.0595C23 15.3318 21.4281 18.2357 19.0009 20.0594H24V22.0594H15V13.0594H17V18.9894C19.3929 17.6051 21 15.0192 21 12.0595C21 8.92353 19.1958 6.20714 16.5642 4.8951L17.4565 3.10522C20.7406 4.74254 23 8.13625 23 12.0595Z" fill="currentColor"/>
</svg>
