<svg width="24" height="24" viewBox="0 0 24 24" fill="none" xmlns="http://www.w3.org/2000/svg">
<path fill-rule="evenodd" clip-rule="evenodd" d="M0 4.00484H4.99914C2.57187 5.83288 1 8.74382 1 12.0241C1 15.9568 3.25942 19.3587 6.54346 21L7.43584 19.2058C4.80423 17.8906 3 15.1676 3 12.0241C3 9.05724 4.60709 6.46503 7 5.07735V11.0218H9V2H0V4.00484ZM23 11.9759C23 15.2562 21.4281 18.1671 19.0009 19.9952H24V22H15V12.9782L17 12.9782V18.9227C19.3929 17.535 21 14.9428 21 11.9759C21 8.83238 19.1958 6.10942 16.5642 4.79421L17.4565 3C20.7406 4.64128 23 8.04319 23 11.9759Z" fill="#262626"/>
</svg>
