<svg width="24" height="24" viewBox="0 0 24 24" fill="none" xmlns="http://www.w3.org/2000/svg">
<path fill-rule="evenodd" clip-rule="evenodd" d="M9 2H0L3.44658 5.44658C1.92298 7.20114 1 9.49235 1 11.9999C1 15.9231 3.25942 19.3168 6.54346 20.9541L7.43584 19.1643C4.80423 17.8522 3 15.1358 3 11.9999C3 10.046 3.70043 8.25493 4.86499 6.86499L9 11V2ZM23 12.0595C23 14.567 22.077 16.8582 20.5534 18.6128L24 22.0594H15V13.0594L19.135 17.1944C20.2996 15.8044 21 14.0134 21 12.0595C21 8.92353 19.1958 6.20714 16.5642 4.8951L17.4565 3.10522C20.7406 4.74254 23 8.13625 23 12.0595Z" fill="#3E3832"/>
</svg>
