<svg width="24" height="24" viewBox="0 0 24 24" fill="none" xmlns="http://www.w3.org/2000/svg">
<path fill-rule="evenodd" clip-rule="evenodd" d="M15 22H24L21.262 19.3018C22.9653 17.3937 24 14.8895 24 12.1456C24 7.89133 21.5128 4.21336 17.9027 2.43968L17.0078 1.99999L15.223 5.52766L16.118 5.96736C18.4232 7.09992 20 9.44293 20 12.1456C20 13.7984 19.4102 15.3167 18.4248 16.5059L15 13.1309L15 22ZM9 1.99999L0 1.99999L2.73799 4.69814C1.03467 6.60628 0 9.11046 0 11.8544C0 16.1087 2.48719 19.7866 6.09728 21.5603L6.99222 22L8.77696 18.4723L7.88202 18.0326C5.57684 16.9001 4 14.557 4 11.8544C4 10.2016 4.58976 8.68324 5.57516 7.49403L9 10.869L9 1.99999Z" fill="#262626"/>
</svg>
