<svg width="24" height="24" viewBox="0 0 24 24" fill="none" xmlns="http://www.w3.org/2000/svg">
<path fill-rule="evenodd" clip-rule="evenodd" d="M24 0H6L24 18V0ZM18.8284 4H18H16L18 6L20 8V6V5.17157V4H18.8284ZM4.94975 3.4939C5.34027 3.10338 5.97344 3.10338 6.36396 3.4939L8.4853 5.61525L5.65685 8.44364L7.07105 9.85787L9.89952 7.02946L11.3137 8.44362L8.48525 11.2721L9.89947 12.6863L12.7279 9.85783L14.1422 11.2721L11.3137 14.1005L12.728 15.5147L15.5564 12.6863L16.9705 14.1005L14.1421 16.9289L15.5563 18.3431L18.3847 15.5147L20.5061 17.636C20.8966 18.0266 20.8966 18.6597 20.5061 19.0503L15.5563 24L0 8.44365L4.94975 3.4939Z" fill="#262626"/>
</svg>
