<svg width="24" height="24" viewBox="0 0 24 24" fill="none" xmlns="http://www.w3.org/2000/svg">
<path fill-rule="evenodd" clip-rule="evenodd" d="M6 0L24 18V0H6ZM10.8284 2L22 13.1716V2H10.8284ZM5.65686 5.61522L2.82843 8.44365L15.5564 21.1716L18.3848 18.3431L5.65686 5.61522ZM6.36397 3.4939C5.97344 3.10338 5.34028 3.10338 4.94975 3.4939L6.19888e-06 8.44365L15.5564 24L20.5061 19.0503C20.8966 18.6597 20.8966 18.0266 20.5061 17.636L6.36397 3.4939ZM5.6568 8.44365L7.07102 7.02944L8.48523 8.44365L7.07102 9.85786L5.6568 8.44365ZM9.89939 9.85786L8.48517 11.2721L9.89939 12.6863L11.3136 11.2721L9.89939 9.85786ZM14.142 16.9289L15.5562 15.5147L16.9705 16.9289L15.5562 18.3431L14.142 16.9289ZM12.7279 12.6863L11.3137 14.1005L12.7279 15.5147L14.1421 14.1005L12.7279 12.6863ZM20 8L16 4H20V8Z" fill="#262626"/>
</svg>
