<svg width="24" height="24" viewBox="0 0 24 24" fill="none" xmlns="http://www.w3.org/2000/svg">
<path fill-rule="evenodd" clip-rule="evenodd" d="M14 14L20 8.37455L18.5454 7L15 10.295V0H13V10.295L9.45454 7L8 8.37455L14 14ZM5.52102 24C4.688 24 3.9422 23.4837 3.649 22.7039L0 14.352L0.00393643 14.1433C0.0249307 13.7091 0.157895 13 1 13L4 12.999V9.88889C4 8.84569 4.89543 8.00001 6 8.00001H7V10H6V12.999L8.58578 13C8.851 13 9.10535 13.1054 9.29289 13.2929L12 16H20.1816C20.593 16 20.9624 16.252 21.1126 16.635L22 18.9V9.833H21V7.83301L22 7.83334C23.1046 7.83334 24 8.67902 24 9.72223V22.9917C24 23.5 23.4963 24 23 24H5.52102ZM8.171 15H2.5L5.52102 22H21.067L19.499 18H11.1716L8.171 15Z" fill="#3E3832"/>
</svg>
