<svg width="24" height="24" viewBox="0 0 24 24" fill="none" xmlns="http://www.w3.org/2000/svg">
<path fill-rule="evenodd" clip-rule="evenodd" d="M20 8.37455L14 14L8 8.37455H13V0H15V8.37455H20ZM3.649 22.7039C3.9422 23.4837 4.688 24 5.52102 24H23C23.4963 24 24 23.5 24 22.9917V9.72223C24 8.67902 23.1046 7.83334 22 7.83334L21 7.83301V9.833H22V18.9L21.1126 16.635C20.9624 16.252 20.593 16 20.1816 16H12L9.29289 13.2929C9.10535 13.1054 8.851 13 8.58578 13L6 12.999V10H7V8.00001H6C4.89543 8.00001 4 8.84569 4 9.88889V12.999L1 13C0.157895 13 0.0249307 13.7091 0.00393643 14.1433L0 14.352L3.649 22.7039Z" fill="#3E3832"/>
</svg>
