<svg width="24" height="24" viewBox="0 0 24 24" fill="none" xmlns="http://www.w3.org/2000/svg">
<path fill-rule="evenodd" clip-rule="evenodd" d="M8.00004 2.74987L7.99991 4.93556C5.03652 6.40829 3 9.46632 3 13C3 17.9706 7.02944 22 12 22C16.9706 22 21 17.9706 21 13C21 9.46671 18.9639 6.40897 16.0011 4.93606L16.001 2.75026C20.0978 4.35064 23 8.3364 23 13C23 19.0751 18.0751 24 12 24C5.92487 24 1 19.0751 1 13C1 8.43966 3.77509 4.52749 7.72867 2.86006L8.00004 2.74987ZM13 0V14.295L17.5455 10L19 11.3746L12 18L5 11.3746L6.45455 10L11 14.295V0H13Z" fill="#3E3832"/>
</svg>
