<svg width="24" height="24" viewBox="0 0 24 24" fill="none" xmlns="http://www.w3.org/2000/svg">
<path fill-rule="evenodd" clip-rule="evenodd" d="M13 0V11.3746H19L12 18L5 11.3746H11V0H13ZM7.99991 4.93556L8.00004 2.74987L7.72867 2.86006C3.77509 4.52749 1 8.43966 1 13C1 19.0751 5.92487 24 12 24C18.0751 24 23 19.0751 23 13C23 8.3364 20.0978 4.35064 16.001 2.75026L16.0011 4.93606C18.9639 6.40897 21 9.46671 21 13C21 17.9706 16.9706 22 12 22C7.02944 22 3 17.9706 3 13C3 9.46632 5.03652 6.40829 7.99991 4.93556Z" fill="#3E3832"/>
</svg>
