<svg width="24" height="24" viewBox="0 0 24 24" fill="none" xmlns="http://www.w3.org/2000/svg">
<path fill-rule="evenodd" clip-rule="evenodd" d="M6 1C6.18124 1 6.35908 1.04876 6.5145 1.14107L9.26829 2.77637C10.4335 2.41717 11.69 2.22139 13 2.22139C19.0751 2.22139 24 6.43189 24 11.6258C24 14.9269 22.0106 17.8308 19.0008 19.5088L19 24H17L17.0008 20.3888C15.7609 20.8029 14.4115 21.0302 13 21.0302C11.96 21.0302 10.9538 20.9068 10.0002 20.6762L10 24H8L8.00017 20.0048C6.00944 19.1348 4.36964 17.7615 3.31037 16.0812L0 16.0805V8.16101L2.77027 8.16171C3.28861 7.04381 4.0504 6.03108 4.99971 5.17132L5 1.98994C5 1.44321 5.44772 1 6 1ZM6.999 3.73699L6.99963 6.0435L6.34972 6.6321C5.67127 7.24655 5.12356 7.94692 4.72877 8.70198L4.58793 8.98763L4.05273 10.1419L2 10.1409V14.1006L4.4199 14.1016L5.00708 15.033C6.5387 17.4626 9.58376 19.0503 13 19.0503C18.0304 19.0503 22 15.6565 22 11.6258C22 7.59508 18.0304 4.20127 13 4.20127C12.0495 4.20127 11.1214 4.32307 10.2385 4.55875L9.86295 4.66671L9.00766 4.93038L6.999 3.73699ZM13 6.18114C14.4745 6.18114 15.8425 6.53575 16.9708 7.1413L16.2775 9.02627C15.4125 8.49564 14.277 8.16101 13 8.16101C11.723 8.16101 10.5875 8.49564 9.72254 9.02627L9.03003 7.14085C10.1581 6.53557 11.5259 6.18114 13 6.18114Z" fill="#262626"/>
</svg>
