<svg width="24" height="24" viewBox="0 0 24 24" fill="none" xmlns="http://www.w3.org/2000/svg">
<path fill-rule="evenodd" clip-rule="evenodd" d="M15 3C15 1.34315 13.6569 0 12 0C10.3432 0 9.00001 1.34315 9.00001 3V13L6.86476 11.6803C5.77348 11.0077 4.05636 10.8422 2.90101 12C1.69753 13.206 1.69493 14.9512 2.67411 16.2086L8.74161 24H22.3697L23.9873 14.7818C24.1721 12.1379 22.3164 9.80542 19.7576 9.46509L15 9V3ZM11.0067 2.88338C11.0645 2.38604 11.4872 2 12 2L12.1166 2.00673C12.614 2.06449 13 2.48716 13 3V10.814L15.4112 11.0497L9.49737 21.7157L4.25207 14.9798L4.17241 14.8678C3.8554 14.3776 3.90496 13.8253 4.31671 13.4127C4.66307 13.0656 5.35635 13.0652 5.86435 13.4147L5.94903 13.4698L11 16.5806V3L11.0067 2.88338Z" fill="#3E3832"/>
</svg>
