<svg width="24" height="24" viewBox="0 0 24 24" fill="none" xmlns="http://www.w3.org/2000/svg">
<path d="M14 14.3865H13V15.2646L13.8708 15.3781L14 14.3865ZM16.4969 14.7119L16.3676 15.7035L16.3694 15.7037L16.4969 14.7119ZM18.9925 17.7436L19.9764 17.9222L19.986 17.8693L19.9899 17.8157L18.9925 17.7436ZM18.0381 23V24H18.8728L19.022 23.1787L18.0381 23ZM9.99726 23L9.2186 23.6274L9.5188 24H9.99726V23ZM6.41733 18.5572L5.63866 19.1846H5.63866L6.41733 18.5572ZM6.55121 16.1574L5.85551 15.439H5.85551L6.55121 16.1574ZM8.88989 15.975L9.50575 15.1872L9.45593 15.1482L9.40161 15.1159L8.88989 15.975ZM10 16.8428L9.38414 17.6307L11 18.8938V16.8428H10ZM13 10V14.3865H15V10H13ZM13.8708 15.3781L16.3676 15.7035L16.6261 13.7203L14.1292 13.3949L13.8708 15.3781ZM16.3694 15.7037C17.3589 15.8309 18.0654 16.6993 17.9951 17.6715L19.9899 17.8157C20.1376 15.7728 18.6544 13.981 16.6244 13.7201L16.3694 15.7037ZM18.0086 17.5649L17.0542 22.8213L19.022 23.1787L19.9764 17.9222L18.0086 17.5649ZM18.0381 22H9.99726V24H18.0381V22ZM10.7759 22.3726L7.196 17.9298L5.63866 19.1846L9.2186 23.6274L10.7759 22.3726ZM7.196 17.9298C6.91778 17.5845 6.93604 17.1768 7.2469 16.8757L5.85551 15.439C4.74621 16.5134 4.76141 18.096 5.63866 19.1846L7.196 17.9298ZM7.2469 16.8757C7.38047 16.7463 7.55181 16.68 7.76096 16.6745C7.98294 16.6686 8.21165 16.735 8.37818 16.8342L9.40161 15.1159C8.50672 14.5829 6.96355 14.3659 5.85551 15.439L7.2469 16.8757ZM8.27403 16.7629L9.38414 17.6307L10.6159 16.0549L9.50575 15.1872L8.27403 16.7629ZM11 16.8428V10H9V16.8428H11ZM11 10C11 9.44772 11.4477 9 12 9V7C10.3431 7 9 8.34314 9 10H11ZM15 10C15 8.34315 13.6569 7 12 7V9C12.5523 9 13 9.44772 13 10H15Z" fill="#A0A0A0"/>
<path d="M18 15V3C18 1.89543 17.1046 1 16 1H8C6.89543 1 6 1.89543 6 3V17.5" stroke="#A0A0A0" stroke-width="2"/>
<path d="M9 3L15 3" stroke="#A0A0A0" stroke-width="2"/>
</svg>
