<svg width="24" height="24" viewBox="0 0 24 24" fill="none" xmlns="http://www.w3.org/2000/svg">
<path fill-rule="evenodd" clip-rule="evenodd" d="M0 2C0 0.895431 0.895431 0 2 0H22C23.1046 0 24 0.895431 24 2V9C24 10.1046 23.1046 11 22 11H15.873V7.97321C15.873 5.71449 13.9976 4 11.8306 4C9.66355 4 7.78822 5.71449 7.78822 7.97321V11H2C0.89543 11 0 10.1046 0 9V2ZM13.8729 7.97321C13.8729 6.88344 12.9585 6 11.8305 6C10.7025 6 9.78814 6.88344 9.78814 7.97321V15.7649L8.33449 14.8968C7.59156 14.4545 6.42256 14.3456 5.63601 15.1071C4.81668 15.9004 4.81492 17.0483 5.48153 17.8753L10 24H18.5L19.9914 16.9368C20.1172 15.1979 18.8538 13.6637 17.1118 13.4398L13.8729 13.1339V7.97321Z" fill="#262626"/>
</svg>
