<svg width="24" height="24" viewBox="0 0 24 24" fill="none" xmlns="http://www.w3.org/2000/svg">
<path fill-rule="evenodd" clip-rule="evenodd" d="M14 0L15.195 3.58361C15.363 3.64741 15.5285 3.71608 15.6915 3.78947L19.0711 2.10051L21.8995 4.92893L20.2105 8.30849C20.2839 8.47146 20.3526 8.63702 20.4164 8.80497L24 10V14L20.416 15.196C20.3522 15.364 20.2835 15.5295 20.2101 15.6925L21.8995 19.0711L19.0711 21.8995L15.6925 20.2101C15.5295 20.2835 15.364 20.3522 15.196 20.416L14 24H10L8.80497 20.4164C8.63702 20.3526 8.47146 20.2839 8.30849 20.2105L4.92893 21.8995L2.10051 19.0711L3.78947 15.6915C3.71608 15.5285 3.64741 15.363 3.58361 15.195L0 14V10L3.58323 8.80597C3.64713 8.63767 3.71594 8.47179 3.78947 8.30849L2.10051 4.92893L4.92893 2.10051L8.30849 3.78947C8.47179 3.71594 8.63767 3.64713 8.80597 3.58323L10 0H14ZM12.558 2H11.441L10.4033 5.11605L9.51591 5.45299L9.32156 5.53015L9.12968 5.61311L8.26383 6.00301L5.324 4.533L4.533 5.324L6.00301 8.26383L5.61311 9.12968L5.53015 9.32156L5.45299 9.51591L5.11605 10.4033L2 11.441V12.558L5.11638 13.5979L5.45328 14.4849L5.53031 14.6788L5.61311 14.8703L6.00301 15.7362L4.533 18.675L5.324 19.466L8.26383 17.997L9.12968 18.3869L9.32118 18.4697L9.51513 18.5467L10.4021 18.8836L11.441 22H12.558L13.5991 18.8833L14.4856 18.5464L14.6796 18.4694L14.8711 18.3865L15.7373 17.9964L18.676 19.465L19.465 18.676L17.9964 15.7373L18.3865 14.8711L18.4694 14.6796L18.5464 14.4856L18.8833 13.5991L22 12.558V11.441L18.8836 10.4021L18.5467 9.51513L18.4697 9.32118L18.3869 9.12968L17.997 8.26383L19.466 5.324L18.675 4.533L15.7362 6.00301L14.8703 5.61311L14.6788 5.53031L14.4849 5.45328L13.5979 5.11638L12.558 2ZM12 8C14.2091 8 16 9.79086 16 12C16 14.2091 14.2091 16 12 16C9.79086 16 8 14.2091 8 12C8 9.79086 9.79086 8 12 8ZM12 10C10.8954 10 10 10.8954 10 12C10 13.1046 10.8954 14 12 14C13.1046 14 14 13.1046 14 12C14 10.8954 13.1046 10 12 10Z" fill="#262626"/>
</svg>
