<svg width="24" height="24" viewBox="0 0 24 24" fill="none" xmlns="http://www.w3.org/2000/svg">
<path fill-rule="evenodd" clip-rule="evenodd" d="M0 5.14207L6.757 5.14175L10 1.8831C11.1247 0.752731 12.9203 0.707516 14.0987 1.74746L17.693 5.14175L24 5.14207V15.1924L20.937 15.1921L21.1924 15.4467C22.1687 16.428 22.1687 18.0189 21.1924 19.0001C20.5637 19.6319 19.6835 19.8569 18.8757 19.675C18.756 19.9459 18.585 20.1993 18.364 20.4214C17.7353 21.0533 16.8551 21.2782 16.0473 21.0963C15.9276 21.3672 15.7566 21.6206 15.5355 21.8427C14.9068 22.4746 14.0266 22.6996 13.2188 22.5177C13.0991 22.7885 12.9281 23.0419 12.7071 23.2641C11.7698 24.2061 10.2735 24.2437 9.29156 23.3771L9.17157 23.2641L1.6 15.6547L0 15.6549V5.14207ZM4.757 7.15182L2 7.152L2.00106 13.6852C2.31944 13.7504 2.61846 13.893 2.87103 14.102L3 14.2185L10.5858 21.8427C10.7377 21.9954 10.9629 22.0293 11.1474 21.9445L11.2236 21.9009L11.2929 21.8427C11.4665 21.6683 11.4857 21.3975 11.3507 21.2017L11.2929 21.1321L10.2322 20.0661L11.6464 18.6447L13.4142 20.4214C13.5661 20.574 13.7913 20.608 13.9758 20.5232L14.0521 20.4796L14.1213 20.4214C14.2949 20.247 14.3142 19.9762 14.1792 19.7803L14.1213 19.7107L12.3536 17.9341L13.7678 16.5127L16.2426 19.0001C16.3945 19.1527 16.6198 19.1866 16.8043 19.1018L16.8805 19.0582L16.9497 19.0001C17.1233 18.8256 17.1426 18.5549 17.0076 18.359L16.9497 18.2894L14.4749 15.8021L15.8891 14.3807L19.0711 17.5787C19.2229 17.7314 19.4482 17.7653 19.6327 17.6805L19.7089 17.6369L19.7782 17.5787C19.9517 17.4043 19.971 17.1335 19.836 16.9377L19.7782 16.8681L11.648 8.75384L10 10.4111C8.82843 11.5886 6.92893 11.5886 5.75736 10.4111L4.34315 8.98977C3.95262 8.59728 3.95262 7.96093 4.34315 7.56844L4.757 7.15182Z" fill="#3E3832"/>
</svg>
