<svg width="24" height="24" viewBox="0 0 24 24" fill="none" xmlns="http://www.w3.org/2000/svg">
<path fill-rule="evenodd" clip-rule="evenodd" d="M24 22C24 23.1046 23.1046 24 22 24H2C0.89543 24 0 23.1046 0 22V5C0 3.89543 0.89543 3 2 3H6V1C6 0.447715 6.44772 0 7 0C7.51284 0 7.93551 0.38604 7.99327 0.883379L8 1V3H15.999L16 1C16 0.447715 16.4477 0 17 0C17.5128 0 17.9355 0.38604 17.9933 0.883379L18 1L17.999 3H22C23.1046 3 24 3.89543 24 5V22ZM6 5H2V10H22V5H17.999L18 7C18 7.55228 17.5523 8 17 8C16.4872 8 16.0645 7.61396 16.0067 7.11662L16 7L15.999 5H8V7C8 7.55228 7.55228 8 7 8C6.48716 8 6.06449 7.61396 6.00673 7.11662L6 7V5Z" fill="#3E3832"/>
</svg>
