<svg width="18" height="24" viewBox="0 0 18 24" fill="none" xmlns="http://www.w3.org/2000/svg">
<path fill-rule="evenodd" clip-rule="evenodd" d="M16 0C17.1046 0 18 0.89543 18 2V22C18 23.1046 17.1046 24 16 24H2C0.89543 24 0 23.1046 0 22V2C0 0.89543 0.89543 0 2 0H16ZM5 17C5.55228 17 6 17.4477 6 18C6 18.5523 5.55228 19 5 19C4.44772 19 4 18.5523 4 18C4 17.4477 4.44772 17 5 17ZM9 17C9.55228 17 10 17.4477 10 18C10 18.5523 9.55228 19 9 19C8.44771 19 8 18.5523 8 18C8 17.4477 8.44771 17 9 17ZM13 17C13.5523 17 14 17.4477 14 18C14 18.5523 13.5523 19 13 19C12.4477 19 12 18.5523 12 18C12 17.4477 12.4477 17 13 17ZM5 13C5.55228 13 6 13.4477 6 14C6 14.5523 5.55228 15 5 15C4.44772 15 4 14.5523 4 14C4 13.4477 4.44772 13 5 13ZM9 13C9.55228 13 10 13.4477 10 14C10 14.5523 9.55228 15 9 15C8.44771 15 8 14.5523 8 14C8 13.4477 8.44771 13 9 13ZM13 13C13.5523 13 14 13.4477 14 14C14 14.5523 13.5523 15 13 15C12.4477 15 12 14.5523 12 14C12 13.4477 12.4477 13 13 13ZM5 9C5.55228 9 6 9.44771 6 10C6 10.5523 5.55228 11 5 11C4.44772 11 4 10.5523 4 10C4 9.44771 4.44772 9 5 9ZM9 9C9.55228 9 10 9.44771 10 10C10 10.5523 9.55228 11 9 11C8.44771 11 8 10.5523 8 10C8 9.44771 8.44771 9 9 9ZM13 9C13.5523 9 14 9.44771 14 10C14 10.5523 13.5523 11 13 11C12.4477 11 12 10.5523 12 10C12 9.44771 12.4477 9 13 9ZM14 5V7H4V5H14Z" fill="#262626"/>
</svg>
