<svg width="13" height="24" viewBox="0 0 13 24" fill="none" xmlns="http://www.w3.org/2000/svg">
<path fill-rule="evenodd" clip-rule="evenodd" d="M13 0V6.5C13 8.81605 11.7887 10.8492 9.96502 12.0004C11.7185 13.1066 12.9059 15.0289 12.9947 17.2341L13 17.5V24H0V17.5C0 15.184 1.21131 13.1508 3.03498 11.9996C1.21131 10.8492 0 8.81605 0 6.5V0H13ZM5.49982 13.1115C3.56502 13.5507 2.10377 15.2365 2.0053 17.2798L2 17.5V18H5.5V16.5H7.5V18H11V17.5L10.9951 17.2882C10.9003 15.2415 9.43817 13.5519 7.50124 13.1118L7.5 14.5H5.5L5.49982 13.1115ZM11 2H2V6.5C2 6.66933 2.00935 6.83648 2.02757 7.00096L10.9725 7.00069C10.983 6.90527 10.9906 6.80896 10.9951 6.71184L11 6.5V2Z" fill="#3E3832"/>
</svg>
