<svg width="24" height="24" viewBox="0 0 24 24" fill="none" xmlns="http://www.w3.org/2000/svg">
<path fill-rule="evenodd" clip-rule="evenodd" d="M14 6.93671L12.2673 7.17036C8.69604 7.65193 6.1851 9.64766 4.51125 12.423C3.60163 13.9312 2.9476 15.6631 2.53546 17.4722C3.01938 16.8564 3.54509 16.2463 4.1131 15.6615C6.02443 13.6938 8.51404 11.9122 11.5955 11.2759L14 10.7794V14.1589L21.2613 9.04409L14 3.92931V6.93671ZM2.00483 21.8319C1.98661 21.8633 1.96852 21.8946 1.95055 21.9259C1.87942 22.0496 1.81022 22.1719 1.74298 22.2926C1.6773 22.4105 1.61348 22.5269 1.55151 22.6415C1.20695 23.279 0 23.0173 0 22.2926C0 22.1308 0.00164753 21.9684 0.00495931 21.8056C0.00785945 21.6631 0.0120358 21.5202 0.0174997 21.377C0.0188241 21.3423 0.0202242 21.3076 0.0217002 21.2728C0.32595 14.1118 3.85178 6.28706 12 5.1883V2.00175C12 1.19139 12.9134 0.717542 13.5759 1.1842L23.5737 8.22654C24.1392 8.62488 24.1392 9.46329 23.5737 9.86163L13.5759 16.904C12.9134 17.3706 12 16.8968 12 16.0864V13.2346C11.3031 13.3785 10.6364 13.5944 10 13.8685C6.32101 15.4535 3.65449 18.9871 2.00483 21.8319Z" fill="#262626"/>
</svg>
