<svg width="24" height="24" viewBox="0 0 24 24" fill="none" xmlns="http://www.w3.org/2000/svg">
<path fill-rule="evenodd" clip-rule="evenodd" d="M0 2H9C10.6569 2 12 3.34315 12 5V6.06189C8.05369 6.55399 5 9.92038 5 14H21C21 9.92038 17.9463 6.55399 14 6.06189V5C14 2.23858 11.7614 0 9 0H0V2ZM9 17C9 16.4477 8.55228 16 8 16C7.44772 16 7 16.4477 7 17V18C7 18.5523 7.44772 19 8 19C8.55228 19 9 18.5523 9 18V17ZM18 16C18.5523 16 19 16.4477 19 17V18C19 18.5523 18.5523 19 18 19C17.4477 19 17 18.5523 17 18V17C17 16.4477 17.4477 16 18 16ZM14 17C14 16.4477 13.5523 16 13 16C12.4477 16 12 16.4477 12 17V18C12 18.5523 12.4477 19 13 19C13.5523 19 14 18.5523 14 18V17ZM13 21C13.5523 21 14 21.4477 14 22V23C14 23.5523 13.5523 24 13 24C12.4477 24 12 23.5523 12 23V22C12 21.4477 12.4477 21 13 21ZM9 22C9 21.4477 8.55228 21 8 21C7.44772 21 7 21.4477 7 22V23C7 23.5523 7.44772 24 8 24C8.55228 24 9 23.5523 9 23V22ZM18 21C18.5523 21 19 21.4477 19 22V23C19 23.5523 18.5523 24 18 24C17.4477 24 17 23.5523 17 23V22C17 21.4477 17.4477 21 18 21Z" fill="#262626"/>
</svg>
