<svg width="1em" height="1em" viewBox="0 0 24 24" fill="none" xmlns="http://www.w3.org/2000/svg">
<path fill-rule="evenodd" clip-rule="evenodd" d="M12.5442 4.44167L9.875 7.56059L17.5532 2.25331C18.2435 1.79227 19.1768 1.97808 19.6379 2.66835C20.0933 3.35018 19.9182 4.2712 19.2443 4.73835L14.737 7.71684L21.0931 5.47121C21.8891 5.2137 22.7372 5.67593 22.9537 6.484C23.1626 7.26375 22.6999 8.06524 21.9201 8.27417L16.1875 10.1543L20.3509 10.8737C20.6873 10.9502 20.9537 11.2066 21.0429 11.5398L22.5813 17.2809C22.795 18.0787 22.3216 18.8988 21.5238 19.1126C20.7226 19.3272 19.8997 18.8489 19.6898 18.0465L18.6375 14.0237C18.5565 13.714 18.2768 13.4981 17.9568 13.4981L14.737 13.4981C14.5852 13.4981 14.4397 13.5584 14.3324 13.6656L12.8512 15.1469C12.3429 15.6552 12.2169 16.4318 12.5384 17.0748C12.8213 17.6407 13.3996 17.9981 14.0323 17.9981H17.5C18.3284 17.9981 19 18.6697 19 19.4981C19 20.3265 18.3284 20.9981 17.5 20.9981H11.117C10.3772 20.9981 9.64219 20.8788 8.94036 20.6449L4 18.9981V9.99809L10.2794 2.54219C10.8096 1.9216 11.7426 1.84838 12.3632 2.37865C12.9757 2.90205 13.0562 3.81961 12.5442 4.44167ZM3 9H0V20H3V9Z" fill="currentColor"/>
</svg>
