<svg width="24" height="24" viewBox="0 0 24 24" fill="none" xmlns="http://www.w3.org/2000/svg">
<path fill-rule="evenodd" clip-rule="evenodd" d="M20.403 2.25443C20.8524 2.98848 20.8573 3.87621 20.4757 4.59958L20.4203 4.69802L20.7015 4.60167C21.9713 4.16464 23.3775 4.79239 23.8468 6.01211L23.9001 6.1665C24.2641 7.35411 23.6053 8.61908 22.378 9.04151L20.1905 9.79462L20.2763 9.82457C21.284 10.2013 22.0177 11.0032 22.1795 11.9757L22.9371 17.2188C23.1584 18.547 22.4056 20.0121 20.9998 20.1891L20.8298 20.2059C20.5474 20.2263 20.2697 20.2086 20.0059 20.1555L19.8765 20.1252C19.7007 21.3654 18.548 22.3014 16.9956 22.4705L11.8126 22.9725C10.6799 23.0753 8.89403 22.8867 6.19711 22.4642L6.07081 22.4361C5.98813 22.4121 5.90884 22.3778 5.835 22.3339L3.5944 21H0V9H3.57142L9.76081 1.83953C10.6197 0.845858 12.1469 0.715384 13.1706 1.54925L13.2937 1.6566C13.8071 2.13568 14.0583 2.79038 14.0321 3.44598L16.8418 1.51816C17.9679 0.745529 19.522 1.01084 20.3072 2.10977L20.403 2.25443ZM5 10.3499L11.2872 3.07638C11.4398 2.89991 11.7087 2.87694 11.8892 3.02392C12.0712 3.17217 12.0949 3.43758 11.9411 3.61552L9.17138 6.81964C8.42284 7.68557 9.55841 8.87714 10.51 8.22427L17.9927 3.09053C18.2147 2.93821 18.5155 2.98956 18.6703 3.20621C18.8301 3.42984 18.7731 3.74298 18.5439 3.90023L14.2082 6.87523C13.265 7.52241 14.0278 8.94424 15.117 8.5693L21.3683 6.41749C21.6168 6.33196 21.8933 6.45542 21.9816 6.68491C22.0658 6.90371 21.9488 7.14393 21.7111 7.22575L15.8469 9.24539C14.8667 9.58296 15.0112 10.9666 16.0413 11.1074L19.3761 11.5636C19.8267 11.6543 20.1614 11.9638 20.2113 12.2624L20.9689 17.5055C21.0345 17.8996 20.8468 18.265 20.7432 18.278C20.3573 18.3266 20.1157 18.1927 20.0741 17.9568L18.9489 13.249C18.8457 12.8175 18.452 12.5096 17.9945 12.5028C14.2891 12.4478 13.8752 12.4478 13.552 12.6025L13.4541 12.654C12.6607 13.1045 10.9263 14.8043 10.7396 15.8294C10.4779 17.2664 11.5928 18.6821 13.0744 18.9351C13.3883 18.9887 13.6626 19.0045 14.0964 18.9852L14.5118 18.9603L15.7902 18.8534C16.3821 18.8069 16.7596 18.7977 17.058 18.8277C17.5542 18.8776 17.9077 19.3276 17.9077 19.8075C17.9077 20.1294 17.5239 20.4736 16.7835 20.5543L11.4864 21.064C10.6558 21.111 9.23974 20.9707 7.24364 20.6732L6.70856 20.5914L5 19.575V10.3499Z" fill="#3E3832"/>
</svg>
