<svg width="1em" height="1em" viewBox="0 0 24 24" fill="none" xmlns="http://www.w3.org/2000/svg">
<path fill-rule="evenodd" clip-rule="evenodd" d="M23.2987 11.0717C24.3627 12.3409 24.1973 14.2332 22.9293 15.2982L22.2139 16.1271L21.4913 16.9522C19.0047 19.7686 16.9657 21.8362 15.3743 23.155C15.0737 23.4041 14.3761 23.5414 13.2816 23.5669L0 23.5712V15C0.21875 15 0.5856 14.6752 1.10055 14.0255L1.23237 13.8563C2.10928 12.7126 3.66901 11.5712 5.42791 11.5712C7.01383 11.5712 8.42714 12.311 9.34222 13.4645L9.42419 13.5712H13.4205C14.0298 13.5712 14.5966 13.7532 15.0697 14.0658L19.0761 10.7019C20.3442 9.63693 22.2347 9.80248 23.2987 11.0717ZM20.4541 12.1642L20.3605 12.234L16.2779 15.663C16.3687 15.9495 16.4177 16.2546 16.4177 16.5712C16.4177 18.2281 15.0758 19.5712 13.4205 19.5712H9.00244V17.5712H13.4205C13.9722 17.5712 14.4195 17.1235 14.4195 16.5712C14.4195 16.0584 14.0339 15.6357 13.537 15.5779L13.4205 15.5712L8.2546 15.5713C7.24016 14.2379 6.29793 13.5712 5.42791 13.5712C4.35314 13.5712 3.50085 14.071 2.87177 14.863L2.20427 15.6941C2.12157 15.7951 2.05315 15.8774 1.999 15.941L2 21.571L13.1608 21.5711C13.9243 21.5615 14.4238 21.4511 14.6594 21.2397L15.0742 20.8598L15.514 20.442L16.0028 19.9625C17.5106 18.4613 19.3913 16.3959 21.6449 13.7661C22.0374 13.4365 22.113 12.8691 21.8378 12.4509L21.7681 12.3573C21.4387 11.9644 20.8718 11.8888 20.4541 12.1642ZM12.1568 0.675911C13.4863 -0.260704 15.3044 -0.224374 16.5959 0.787774L16.7612 0.925328L16.9139 1.06779C17.6101 1.75682 17.9985 2.66979 18 3.63254C18.0015 4.64497 17.5753 5.6189 16.8159 6.37213L16.1651 7.01208C15.69 7.47584 15.1384 8.0083 14.5461 8.57614L12 11L9.78914 8.89717C9.29521 8.42482 8.82338 7.97139 8.39346 7.55532L8.07919 7.25057L7.18336 6.37244C6.42447 5.61979 5.99854 4.64578 6 3.63501C6 2.67125 6.38887 1.75635 7.08711 1.06676C8.32982 -0.15945 10.2393 -0.327936 11.6666 0.559795L11.8424 0.676263L11.999 0.793155L12.1568 0.675911Z" fill="currentColor"/>
</svg>
