<svg width="24" height="24" viewBox="0 0 24 24" fill="none" xmlns="http://www.w3.org/2000/svg">
<path fill-rule="evenodd" clip-rule="evenodd" d="M9.5 17C11.433 17 13 18.567 13 20.5C13 22.433 11.433 24 9.5 24C7.567 24 6 22.433 6 20.5C6 18.567 7.567 17 9.5 17ZM18.5 17C20.433 17 22 18.567 22 20.5C22 22.433 20.433 24 18.5 24C16.567 24 15 22.433 15 20.5C15 18.567 16.567 17 18.5 17ZM16 0C20.0793 0 23.4455 3.0532 23.938 6.99904L24 7V10C24 13.3137 21.3137 16 18 16H10C6.68629 16 4 13.3137 4 10V8.14286C4 5.91814 2.31001 4.11245 0.199093 4.00505L0 4V2C2.93761 2 5.37402 4.15791 5.89641 7.00078L13.629 6.999L13.6296 0H16Z" fill="#262626"/>
</svg>
