<svg width="24" height="24" viewBox="0 0 24 24" fill="none" xmlns="http://www.w3.org/2000/svg">
<path fill-rule="evenodd" clip-rule="evenodd" d="M2.10079 5.88388C1.47919 2.84492 3.80109 0 6.90298 0H7.76034C9.35759 0 10.8522 0.448692 12.1225 1.22672C13.3928 0.448692 14.8875 0 16.4847 0H17.3421C20.444 0 22.7659 2.84492 22.1443 5.88388L21.4753 9.15424C21.0518 11.2249 19.9654 13.0198 18.4659 14.3347L17.9877 18.1603L17.1729 22.2347C16.9676 23.2611 16.0663 24 15.0195 24C13.9409 24 13.022 23.2167 12.8512 22.1517L12 16.8439L11.1488 22.1517C10.978 23.2167 10.0591 24 8.98049 24C7.93369 24 7.03241 23.2611 6.82711 22.2347L6.01224 18.1603L5.50248 14.0822C4.14624 12.794 3.16674 11.0952 2.76973 9.15424L2.10079 5.88388ZM6.90298 2C5.06675 2 3.69225 3.68411 4.06022 5.48309L4.72916 8.75345C5.06349 10.388 5.92124 11.8028 7.10706 12.8391L7.39401 13.0899L7.98773 17.8397L8.78828 21.8424C8.8066 21.934 8.88705 22 8.98049 22C9.07676 22 9.15879 21.9301 9.17403 21.835L10.0177 16.5741C10.0636 15.9815 10.1979 15.2507 10.395 14.6424C10.4943 14.3357 10.6273 14.004 10.8062 13.7282C10.9383 13.5245 11.3189 13 12 13C12.6568 13 13.0326 13.489 13.1703 13.6938C13.3488 13.9592 13.4806 14.2779 13.5791 14.5726C13.7762 15.1625 13.9125 15.8791 13.9695 16.4943L14.8259 21.835C14.8412 21.9301 14.9232 22 15.0195 22C15.1129 22 15.1934 21.934 15.2117 21.8424L16.0122 17.8397L16.5804 13.2948L16.8968 13.0411C18.2073 11.9903 19.1593 10.4966 19.5159 8.75345L20.1848 5.48309C20.5528 3.68411 19.1783 2 17.3421 2H16.4847C15.0726 2 13.7705 2.4589 12.7156 3.23601L12.1225 3.67295L11.5294 3.23601C10.4745 2.4589 9.17249 2 7.76034 2H6.90298Z" fill="#262626"/>
</svg>
