<svg width="24" height="24" viewBox="0 0 24 24" fill="none" xmlns="http://www.w3.org/2000/svg">
<path fill-rule="evenodd" clip-rule="evenodd" d="M2.10499 5.11444C1.56281 2.47361 3.58017 0 6.27608 0H7.28952C9.05257 0 10.6824 0.570312 12.0046 1.53652C13.3268 0.570312 14.9567 0 16.7197 0H17.7332C20.4291 0 22.4464 2.47361 21.9043 5.11443L21.1779 8.65251C20.733 10.8194 19.5473 12.6765 17.9178 13.9816L17.3452 18.5455L16.4616 22.9475C16.3387 23.5596 15.801 24 15.1767 24C14.5334 24 13.9852 23.533 13.8829 22.8978L12.9398 17.0385C12.8318 15.8175 12.394 14.1818 11.8704 14.1818C11.323 14.1818 10.8694 15.9696 10.7883 17.1177L9.85795 22.8978C9.75571 23.533 9.2075 24 8.56414 24C7.93982 24 7.40219 23.5596 7.27931 22.9475L6.39564 18.5455L5.79157 13.7308C4.31683 12.4435 3.24849 10.6842 2.83138 8.65252L2.10499 5.11444Z" fill="#262626"/>
</svg>
