<svg width="24" height="24" viewBox="0 0 24 24" fill="none" xmlns="http://www.w3.org/2000/svg">
<path fill-rule="evenodd" clip-rule="evenodd" d="M17.293 7.75278C17.6836 7.36231 18.3167 7.36241 18.7072 7.75299C19.832 8.87816 20.4639 10.404 20.4639 11.995C20.4639 13.586 19.832 15.1118 18.7072 16.237C18.3167 16.6276 17.6836 16.6277 17.293 16.2372C16.9024 15.8467 16.9023 15.2136 17.2928 14.823C18.0427 14.0729 18.4639 13.0556 18.4639 11.995C18.4639 10.9343 18.0427 9.9171 17.2928 9.16699C16.9023 8.77641 16.9024 8.14324 17.293 7.75278Z" fill="#262626"/>
<path fill-rule="evenodd" clip-rule="evenodd" d="M12.6583 2.08584C12.9777 2.23546 13.1818 2.55636 13.1818 2.9091V21.0909C13.1818 21.4436 12.9777 21.7645 12.6583 21.9142C12.3389 22.0638 11.9617 22.0151 11.6907 21.7893L5.1254 16.3182H0.90909C0.407013 16.3182 0 15.9112 0 15.4091V8.59092C0 8.08884 0.407013 7.68183 0.90909 7.68183H5.1254L11.6907 2.21072C11.9617 1.9849 12.3389 1.93622 12.6583 2.08584ZM11.3636 4.85005L6.03652 9.2893C5.87315 9.42545 5.66721 9.50001 5.45454 9.50001H1.81818V14.5H5.45454C5.66721 14.5 5.87315 14.5746 6.03652 14.7107L11.3636 19.15V4.85005Z" fill="#262626"/>
</svg>
