<svg width="24" height="24" viewBox="0 0 24 24" fill="none" xmlns="http://www.w3.org/2000/svg">
<path fill-rule="evenodd" clip-rule="evenodd" d="M10 6C10 8.20914 8.20914 10 6 10C3.79086 10 2 8.20914 2 6C2 3.79086 3.79086 2 6 2C8.20914 2 10 3.79086 10 6ZM12 6C12 9.31371 9.31371 12 6 12C2.68629 12 0 9.31371 0 6C0 2.68629 2.68629 0 6 0C9.31371 0 12 2.68629 12 6ZM20.2423 8.02986C19.7065 7.89591 19.1636 8.22167 19.0296 8.75746L18.1831 12.1435L13.8036 13.0194C13.2621 13.1277 12.9109 13.6546 13.0192 14.1961C13.1275 14.7377 13.6543 15.0889 14.1959 14.9806L18.5753 14.1047C19.3332 13.9531 19.9359 13.3784 20.1234 12.6286L20.9699 9.24254C21.1039 8.70674 20.7781 8.16381 20.2423 8.02986ZM23.0921 8.00426C22.5422 7.95335 22.0551 8.3579 22.0042 8.90783L21.445 14.9493C21.3974 15.4637 20.9658 15.8571 20.4492 15.8571H14.9999C14.4476 15.8571 13.9999 16.3049 13.9999 16.8571C13.9999 17.4094 14.4476 17.8571 14.9999 17.8571H17V24H19V17.8571H20.4492C21.999 17.8571 23.2936 16.6768 23.4365 15.1336L23.9957 9.09217C24.0466 8.54223 23.642 8.05516 23.0921 8.00426ZM12.4494 15.1065C11.956 14.8585 11.3549 15.0574 11.1068 15.5509L7.74082 22.247C7.49277 22.7405 7.69171 23.3416 8.18516 23.5896C8.67861 23.8377 9.27971 23.6387 9.52775 23.1453L12.8938 16.4491C13.1418 15.9557 12.9429 15.3546 12.4494 15.1065ZM6 3C6.55228 3 7 3.44772 7 4V5.58579L7.70711 6.29289C8.09763 6.68342 8.09763 7.31658 7.70711 7.70711C7.31658 8.09763 6.68342 8.09763 6.29289 7.70711L5 6.41421V4C5 3.44772 5.44772 3 6 3ZM21 4C21 4.55228 20.5523 5 20 5C19.4477 5 19 4.55228 19 4C19 3.44772 19.4477 3 20 3C20.5523 3 21 3.44772 21 4ZM23 4C23 5.65685 21.6569 7 20 7C18.3431 7 17 5.65685 17 4C17 2.34315 18.3431 1 20 1C21.6569 1 23 2.34315 23 4Z" fill="#262626"/>
</svg>
