<svg width="24" height="24" viewBox="0 0 24 24" fill="none" xmlns="http://www.w3.org/2000/svg">
<path fill-rule="evenodd" clip-rule="evenodd" d="M6 12C9.31371 12 12 9.31371 12 6C12 2.68629 9.31371 0 6 0C2.68629 0 0 2.68629 0 6C0 9.31371 2.68629 12 6 12ZM6 3C6.55228 3 7 3.44772 7 4V5.58579L7.70711 6.29289C8.09763 6.68342 8.09763 7.31658 7.70711 7.70711C7.31658 8.09763 6.68342 8.09763 6.29289 7.70711L5 6.41421V4C5 3.44772 5.44772 3 6 3ZM19.0296 8.75746C19.1636 8.22167 19.7065 7.89591 20.2423 8.02986C20.7781 8.16381 21.1039 8.70674 20.9699 9.24254L20.1234 12.6286C19.9359 13.3784 19.3332 13.9531 18.5753 14.1047L14.1959 14.9806C13.6543 15.0889 13.1275 14.7377 13.0192 14.1961C12.9109 13.6546 13.2621 13.1277 13.8036 13.0194L18.1831 12.1435L19.0296 8.75746ZM22.0042 8.90783C22.0551 8.3579 22.5422 7.95335 23.0921 8.00426C23.642 8.05516 24.0466 8.54223 23.9957 9.09217L23.4365 15.1336C23.2936 16.6768 21.999 17.8571 20.4492 17.8571H19V24H17V17.8571H14.9999C14.4476 17.8571 13.9999 17.4094 13.9999 16.8571C13.9999 16.3049 14.4476 15.8571 14.9999 15.8571H20.4492C20.9658 15.8571 21.3974 15.4637 21.445 14.9493L22.0042 8.90783ZM11.1068 15.5509C11.3549 15.0574 11.956 14.8585 12.4494 15.1065C12.9429 15.3546 13.1418 15.9557 12.8938 16.4491L9.52775 23.1453C9.27971 23.6387 8.67861 23.8377 8.18516 23.5896C7.69171 23.3416 7.49277 22.7405 7.74082 22.247L11.1068 15.5509ZM23 4.5C23 5.88071 21.8807 7 20.5 7C19.1193 7 18 5.88071 18 4.5C18 3.11929 19.1193 2 20.5 2C21.8807 2 23 3.11929 23 4.5Z" fill="#262626"/>
</svg>
