<svg width="24" height="24" viewBox="0 0 24 24" fill="none" xmlns="http://www.w3.org/2000/svg">
<path fill-rule="evenodd" clip-rule="evenodd" d="M10 7C10 5.89543 10.8954 5 12 5C13.1046 5 14 5.89543 14 7C14 7.87376 13.4391 8.6191 12.6547 8.89066C11.9238 9.14372 11 9.84749 11 11V11.6908C10.0546 11.7699 9.11625 11.9613 8.20527 12.2649L2.3842 14.2053C0.960379 14.6799 0 16.0123 0 17.5132C0 19.4389 1.56111 21 3.48683 21H20.5132C22.4389 21 24 19.4389 24 17.5132C24 16.0123 23.0396 14.6799 21.6158 14.2053L15.7947 12.2649C14.8838 11.9613 13.9454 11.7699 13 11.6908V11.0027C13.0026 10.9952 13.0114 10.9774 13.0372 10.9489C13.0903 10.8901 13.186 10.8232 13.3091 10.7806C14.874 10.2388 16 8.75219 16 7C16 4.79086 14.2091 3 12 3C9.79086 3 8 4.79086 8 7C8 7.55228 8.44771 8 9 8C9.55229 8 10 7.55228 10 7ZM12.9991 11.006C12.999 11.0066 12.999 11.0069 12.9991 11.0069C12.9992 11.0069 12.9997 11.0056 12.9999 11.003C12.9994 11.0044 12.9992 11.0054 12.9991 11.006Z" fill="#262626"/>
</svg>
