<svg width="24" height="24" viewBox="0 0 24 24" fill="none" xmlns="http://www.w3.org/2000/svg">
<path fill-rule="evenodd" clip-rule="evenodd" d="M17 1C17 0.447716 17.4477 0 18 0C18.5523 0 19 0.447715 19 1V18H22.0001H23V20H22.6667L23.5613 22.6838C23.7772 23.3313 23.2952 24 22.6126 24H13.3875C12.7049 24 12.223 23.3313 12.4388 22.6838L13.3334 20H13V18H14.0001H17V1ZM5.99996 16C4.69374 16 3.5825 15.1652 3.17066 14H1.16667H0V12H1H11H12V14H10.8333H8.82925C8.41742 15.1652 7.30618 16 5.99996 16ZM1.20056 14.4067L1.92359 23.083C1.96678 23.6013 2.40004 24 2.92013 24H9.07987C9.59996 24 10.0332 23.6013 10.0764 23.083L10.7995 14.4063C10.192 16.4831 8.27311 18 5.99996 18C3.72695 18 1.8082 16.4833 1.20056 14.4067Z" fill="#262626"/>
</svg>
