<svg width="24" height="24" viewBox="0 0 24 24" fill="none" xmlns="http://www.w3.org/2000/svg">
<path fill-rule="evenodd" clip-rule="evenodd" d="M17.5 3C15.4049 3 13.7127 4.29773 13.1773 5.99999H18C19.5286 5.99999 20.9237 6.57163 21.9832 7.5128C21.9943 7.39367 22 7.27314 22 7.15143C22 4.91932 20.0479 3 17.5 3ZM17.5 0.999999C14.0464 0.999999 11.1242 3.58224 11.0038 6.93606C10.8099 7.24421 10.6977 7.60899 10.6977 7.99999V11.0465L7.99999 9.99999L5.99999 14L10.6977 18.1074V21C10.6977 22.1046 11.5931 23 12.6977 23H22C23.1046 23 24 22.1046 24 21V12C24 11.131 23.8153 10.3052 23.4829 9.55966C23.815 8.82126 24 8.00711 24 7.15143C24 3.69342 21.0271 0.999999 17.5 0.999999ZM5 13.5L0.858317 13.2257C0.158084 13.1249 -0.218836 12.3486 0.134896 11.736L3.15786 6.50003C3.51159 5.88735 4.37227 5.82567 4.80976 6.38164L6.99999 9.49999L5 13.5Z" fill="#262626"/>
</svg>
