<svg width="24" height="24" viewBox="0 0 24 24" fill="none" xmlns="http://www.w3.org/2000/svg">
<path fill-rule="evenodd" clip-rule="evenodd" d="M12.0238 0C15.6284 0 18.7507 2.50011 19.5389 6.01743L22 17L19.1417 17.0003C20.9098 18.804 22 21.2747 22 24H20C20 19.5817 16.4183 16 12 16C7.58172 16 4 19.5817 4 24H2C2 21.2747 3.0902 18.804 4.85828 17.0003L2 17L4.49266 6.01382C5.29071 2.49651 8.4171 0 12.0238 0ZM16.0978 14.6758L15.9223 14.7986C16.071 14.862 16.2178 14.929 16.3627 14.9993L19.502 15L18.65 11.1918C18.1842 12.606 17.2798 13.821 16.0978 14.6758ZM5.36026 11.2227L4.504 15L7.63732 14.9993C7.78218 14.929 7.92899 14.862 8.07766 14.7986C6.81831 13.945 5.85208 12.6925 5.36026 11.2227ZM12.002 5.36621L7 8.546V9C7 11.7614 9.23858 14 12 14C14.6888 14 16.8818 11.8777 16.9954 9.21689L17 9V8.511L12.002 5.36621ZM12.0238 2C9.43216 2 7.17519 3.73954 6.50157 6.22152L6.44309 6.45635L6.423 6.543L11.9973 3L17.603 6.527L17.5873 6.45476C17.0215 3.92977 14.8308 2.11286 12.2654 2.00507L12.0238 2Z" fill="#3E3832"/>
</svg>
