<svg width="24" height="24" viewBox="0 0 24 24" fill="none" xmlns="http://www.w3.org/2000/svg">
<path d="M16.949 11L17.2403 9.93517C17.6501 8.43685 16.6981 6.90663 15.1728 6.61229C13.5273 6.29473 12 7.55546 12 9.23136V11C13.1046 11 14 11.8954 14 13C14 14.1046 13.1046 15 12 15" stroke="#262626" stroke-width="1.5" stroke-linecap="round" stroke-linejoin="round"/>
<path d="M9 16.424C9 18.9512 11.0488 21 13.576 21C15.606 21 17.3933 19.6627 17.9661 17.7152L20.1624 10.2479C21.1351 6.94059 18.9705 3.53393 15.5632 3.00973C12.1122 2.47881 9 5.14885 9 8.64042" stroke="#262626" stroke-width="1.5" stroke-linecap="round"/>
<path d="M4.33063 6.5C5.95636 7.78183 7.00003 9.76904 7.00003 12C7.00003 14.231 5.95636 16.2182 4.33063 17.5" stroke="#262626" stroke-width="1.5" stroke-linecap="round"/>
<path d="M3 9.35413C3.62236 10.0593 4 10.9855 4 12C4 13.0144 3.62236 13.9406 3 14.6458" stroke="#262626" stroke-width="1.5" stroke-linecap="round"/>
</svg>
