<svg width="24" height="24" viewBox="0 0 24 24" fill="none" xmlns="http://www.w3.org/2000/svg">
<path d="M18.1103 10.425L15.9661 17.7151C15.3933 19.6626 13.606 21 11.576 21C10.4486 21 9.41636 20.5922 8.61879 19.9162" stroke="#262626" stroke-width="1.5" stroke-linecap="round"/>
<path d="M14.3248 7.14037C14.0003 6.88267 13.6101 6.69668 13.1728 6.61229C11.5273 6.29473 10 7.55546 10 9.23136V11C10.1456 11 10.2875 11.0155 10.4242 11.0451" stroke="#262626" stroke-width="1.5" stroke-linecap="round" stroke-linejoin="round"/>
<path d="M7 8.64042C7 5.14885 10.1122 2.47881 13.5632 3.00973C14.7601 3.19387 15.8037 3.73372 16.6118 4.5C16.6729 4.55796 16.7327 4.61721 16.7911 4.67771" stroke="#262626" stroke-width="1.5" stroke-linecap="round"/>
<path d="M20 5L5 20" stroke="#262626" stroke-width="1.5" stroke-miterlimit="3.13764" stroke-linecap="round"/>
</svg>
