<svg width="1200" height="675" viewBox="0 0 1200 675" fill="none" xmlns="http://www.w3.org/2000/svg">
<g clip-path="url(#clip0_1090_180386)">
<rect width="1200" height="675" fill="#99F6E4"/>
<path opacity="0.8" d="M781.57 336.458L420.056 -25.056L780.486 -24.5145L1142 337L781.57 336.458Z" stroke="#2DD4BF" stroke-width="8" stroke-linejoin="round"/>
<path opacity="0.8" d="M780.67 -24.3296L419.34 337L780.67 698.33L1142 337L780.67 -24.3296Z" stroke="#2DD4BF" stroke-width="8" stroke-linejoin="round"/>
<path opacity="0.8" d="M419.514 -24.514L58.0001 337L418.972 337L780.486 -24.514L419.514 -24.514Z" stroke="#2DD4BF" stroke-width="8" stroke-linejoin="round"/>
<path opacity="0.8" d="M419.334 -24.333L58.001 337L419.334 698.333L780.667 337L419.334 -24.333Z" stroke="#2DD4BF" stroke-width="8" stroke-linejoin="round"/>
<path opacity="0.8" d="M781.028 337L419.514 698.514L780.486 698.514L1142 337L781.028 337Z" stroke="#2DD4BF" stroke-width="8" stroke-linejoin="round"/>
<path opacity="0.8" d="M419.514 698.514L58.0003 337L418.972 337L780.486 698.514L419.514 698.514Z" stroke="#2DD4BF" stroke-width="8" stroke-linejoin="round"/>
</g>
<defs>
<clipPath id="clip0_1090_180386">
<rect width="1200" height="675" fill="white"/>
</clipPath>
</defs>
</svg>
