<svg width="1200" height="675" viewBox="0 0 1200 675" fill="none" xmlns="http://www.w3.org/2000/svg">
<g clip-path="url(#clip0_1090_180341)">
<rect width="1200" height="675" fill="#8669C6"/>
<path d="M935 548L268 -119L932.999 -118.001L1600 549L935 548Z" stroke="#D6C3EE" stroke-width="8" stroke-linejoin="round"/>
<path d="M933.34 -117.66L266.68 549L933.34 1215.66L1600 549L933.34 -117.66Z" stroke="#D6C3EE" stroke-width="8" stroke-linejoin="round"/>
<path d="M267 -118L-400 549L266 549L933 -118L267 -118Z" stroke="#D6C3EE" stroke-width="8" stroke-linejoin="round"/>
<path d="M266.666 -117.666L-400 549L266.666 1215.67L933.332 549L266.666 -117.666Z" stroke="#D6C3EE" stroke-width="8" stroke-linejoin="round"/>
<path d="M934 548.999L267 1216L933 1216L1600 548.999L934 548.999Z" stroke="#D6C3EE" stroke-width="8" stroke-linejoin="round"/>
<path d="M267 1216L-400 549L265.999 548.999L933 1216L267 1216Z" stroke="#D6C3EE" stroke-width="8" stroke-linejoin="round"/>
</g>
<defs>
<clipPath id="clip0_1090_180341">
<rect width="1200" height="675" fill="white"/>
</clipPath>
</defs>
</svg>
