<svg width="64" height="64" viewBox="0 0 64 64" fill="none" xmlns="http://www.w3.org/2000/svg">
<rect width="64" height="64" fill="#E5E5E5"/>
<path fill-rule="evenodd" clip-rule="evenodd" d="M32 64C49.6731 64 64 49.6731 64 32C64 14.3269 49.6731 0 32 0C14.3269 0 0 14.3269 0 32C0 49.6731 14.3269 64 32 64Z" fill="#99C3FF"/>
<mask id="mask0" style="mask-type:alpha" maskUnits="userSpaceOnUse" x="0" y="0" width="64" height="64">
<path fill-rule="evenodd" clip-rule="evenodd" d="M32 64C49.6731 64 64 49.6731 64 32C64 14.3269 49.6731 0 32 0C14.3269 0 0 14.3269 0 32C0 49.6731 14.3269 64 32 64Z" fill="white"/>
</mask>
<g mask="url(#mask0)">
<path fill-rule="evenodd" clip-rule="evenodd" d="M43.8313 30.4421C42.7718 33.868 40.6975 36.7117 38.0391 38.452L38.1752 39.9777L38.1745 40.0397L36.7375 52.6154H27.6236L27.5857 52.3512L25.8238 40.0181L25.8891 38.4756C23.2173 36.7398 21.1312 33.8914 20.0657 30.4564C20.0295 30.4598 19.9929 30.4616 19.9559 30.4616C19.2666 30.4616 18.7206 29.8614 18.7206 29.1343V25.0202C18.7206 24.5328 18.9659 24.1022 19.3353 23.8712C19.9115 16.1905 25.3251 10.1539 31.946 10.1539C38.5491 10.1539 43.9517 16.1579 44.5525 23.8089C44.9838 24.0179 45.2794 24.4845 45.2794 25.0202V29.1343C45.2794 29.8618 44.7341 30.4616 44.0441 30.4616C43.9714 30.4616 43.9003 30.4549 43.8313 30.4421Z" fill="#F1F1F1"/>
<path fill-rule="evenodd" clip-rule="evenodd" d="M37.7182 38.8777C37.6663 41.624 35.1261 44.4415 32 44.4415C28.8604 44.4415 26.3116 41.5994 26.2813 38.8419C24.6546 39.2527 22.1714 40.4917 20.1218 42.5623C18.137 44.5674 16.5588 47.5814 16.5588 49.9194V64H47.4412V49.9194C47.4412 47.5766 45.829 44.5575 43.8075 42.5501C41.7861 40.5427 39.3553 39.3205 37.7182 38.8777Z" fill="#0056B4"/>
<path fill-rule="evenodd" clip-rule="evenodd" d="M26.1787 38.9372C24.6802 39.4793 22.1664 40.6641 20.2648 42.4632C14.7059 41.2308 12.2354 38.3022 12.2354 38.3022C12.2354 38.3022 17.3568 33.325 17.3599 24.6197V24.6105C17.3599 14.4173 22.8831 7.38464 31.9828 7.38464C41.0836 7.38464 46.6069 14.4173 46.6069 24.6105H46.6396C46.6396 33.3219 51.7648 38.3022 51.7648 38.3022C51.7648 38.3022 49.2942 41.2308 43.7354 42.4616L43.727 42.4632C41.8902 40.7984 39.2262 39.5144 37.7769 38.9715L37.7786 38.971L37.721 38.3257L37.7521 38.2722C40.4868 36.5294 42.6087 33.5933 43.6317 30.0454C43.7569 30.1148 43.8984 30.1539 44.0481 30.1539C44.5602 30.1539 44.9746 29.6985 44.9746 29.1343V25.0202C44.9746 24.5375 44.6712 24.134 44.2628 24.0275C44.2625 24.0219 44.2621 24.0164 44.2617 24.0108C31.3323 25.4483 26.6749 16.616 26.2926 16.6154C26.2926 16.6154 21.9988 19.6923 19.9466 23.3506C19.9466 23.3506 19.6339 24.0412 19.6323 24.0644C19.281 24.2092 19.0304 24.5821 19.0304 25.0202V29.1343C19.0304 29.6985 19.4459 30.1539 19.957 30.1539C20.0703 30.1539 20.1787 30.1316 20.279 30.0908C21.3133 33.6404 23.4487 36.5733 26.1962 38.3046L26.2064 38.3257L26.1805 38.9372H26.1787Z" fill="#C86151"/>
<path fill-rule="evenodd" clip-rule="evenodd" d="M27.5841 26.9976C26.786 27.0619 26.5626 25.8029 26.8031 24.9807C26.8483 24.8248 27.1125 24.1154 27.5802 24.1154C28.0474 24.1154 28.2537 24.5032 28.2824 24.5699C28.626 25.3714 28.4572 26.9268 27.5841 26.9976Z" fill="#262626"/>
<path fill-rule="evenodd" clip-rule="evenodd" d="M36.8405 26.9976C37.6386 27.0619 37.862 25.8029 37.6215 24.9807C37.5763 24.8248 37.3121 24.1154 36.8444 24.1154C36.3772 24.1154 36.171 24.5032 36.1423 24.5699C35.7987 25.3714 35.9674 26.9268 36.8405 26.9976Z" fill="#262626"/>
<path d="M32.5082 28.2384C32.9854 28.1569 33.3114 28.208 33.4281 28.3669C33.8687 28.9672 33.7278 29.6023 32.9719 30.1237C32.5744 30.3977 32.0273 30.4942 31.7377 30.3521C31.5961 30.2826 31.4305 30.3535 31.3678 30.5105C31.3051 30.6675 31.3691 30.8511 31.5108 30.9206C31.9894 31.1555 32.7255 31.0257 33.2681 30.6516C34.2953 29.9431 34.5304 28.8837 33.863 27.9743C33.5806 27.59 33.0806 27.5116 32.4228 27.6239C32.2698 27.65 32.1648 27.8087 32.1883 27.9784C32.2119 28.1481 32.3551 28.2645 32.5082 28.2384Z" fill="#262626"/>
<path d="M35.9596 32.3642C35.9316 32.4233 35.8673 32.5366 35.764 32.6859C35.5891 32.9385 35.3695 33.1918 35.1028 33.428C34.308 34.1319 33.2736 34.5389 31.957 34.5017C30.6732 34.4654 29.6433 34.0646 28.8359 33.4185C28.5394 33.1812 28.2947 32.9271 28.0991 32.6739C27.9837 32.5245 27.9117 32.4113 27.8802 32.3523C27.8044 32.2104 27.6181 32.1519 27.4641 32.2218C27.3101 32.2916 27.2468 32.4633 27.3225 32.6052C27.3682 32.6907 27.457 32.8304 27.5928 33.0061C27.8157 33.2947 28.0929 33.5825 28.4284 33.851C29.3399 34.5805 30.5048 35.0337 31.9379 35.0743C33.4303 35.1164 34.6234 34.647 35.5334 33.8411C35.8377 33.5717 36.0878 33.2832 36.2879 32.994C36.4096 32.8182 36.4888 32.6787 36.5292 32.5934C36.5979 32.4484 36.526 32.2796 36.3687 32.2163C36.2115 32.153 36.0283 32.2192 35.9596 32.3642Z" fill="#262626"/>
<path fill-rule="evenodd" clip-rule="evenodd" d="M43.1651 58H32.8343C32.3733 58 32 57.6211 32 57.153V51.5143C32 51.0463 32.3733 50.6667 32.8343 50.6667H43.1651C43.6261 50.6667 44 51.0463 44 51.5143V57.153C44 57.6211 43.6261 58 43.1651 58Z" fill="white"/>
<path fill-rule="evenodd" clip-rule="evenodd" d="M38.6207 51.8307H37.5502C37.4709 51.8307 37.407 51.7671 37.407 51.6882V51.5086C37.407 51.4303 37.4709 51.3661 37.5502 51.3661H38.6207C38.7 51.3661 38.764 51.4303 38.764 51.5086V51.6882C38.764 51.7671 38.7 51.8307 38.6207 51.8307Z" fill="#262626"/>
<path fill-rule="evenodd" clip-rule="evenodd" d="M37.7755 51.6667H38.3957V50H37.7755V51.6667Z" fill="#6A6A6A"/>
<path fill-rule="evenodd" clip-rule="evenodd" d="M38.1268 56.6651C36.8389 56.6651 35.7946 55.6208 35.7946 54.3327C35.7946 53.0444 36.8389 52 38.1268 52C39.4152 52 40.4596 53.0444 40.4596 54.3327C40.4596 55.6208 39.4152 56.6651 38.1268 56.6651Z" fill="#C30000"/>
<path fill-rule="evenodd" clip-rule="evenodd" d="M34.6666 55.3511L35.1434 54.1712H35.6015L35.1253 55.3511H34.6666Z" fill="#C30000"/>
<path fill-rule="evenodd" clip-rule="evenodd" d="M40.5494 55.3511L41.0201 54.1712H41.2698L40.7992 55.3511H40.5494Z" fill="#C30000"/>
<path fill-rule="evenodd" clip-rule="evenodd" d="M41.4751 55.3511L41.9457 54.1712H42.0783L41.6077 55.3511H41.4751Z" fill="#C30000"/>
<path fill-rule="evenodd" clip-rule="evenodd" d="M40.1164 54.1712H39.7018C39.7018 54.1712 39.6732 54.1712 39.6631 54.1964L39.4336 54.8989L39.2044 54.1964C39.1943 54.1712 39.1655 54.1712 39.1655 54.1712H38.3683C38.351 54.1712 38.3365 54.1856 38.3365 54.2028V54.4413C38.3365 54.2521 38.1352 54.1712 38.0173 54.1712C37.7532 54.1712 37.5765 54.3451 37.5214 54.6095C37.5185 54.4341 37.5039 54.3713 37.4566 54.3069C37.4349 54.2754 37.4036 54.2489 37.3694 54.2269C37.2991 54.1857 37.2359 54.1712 37.1002 54.1712H36.9408C36.9408 54.1712 36.912 54.1712 36.9019 54.1964L36.7569 54.5558V54.2028C36.7569 54.1856 36.7425 54.1712 36.7253 54.1712H36.3565C36.3565 54.1712 36.3281 54.1712 36.3177 54.1964L36.167 54.5701C36.167 54.5701 36.1519 54.6074 36.1863 54.6074H36.3281V55.3194C36.3281 55.3371 36.342 55.3511 36.3597 55.3511H36.7253C36.7425 55.3511 36.7569 55.3371 36.7569 55.3194V54.6074H36.8994C36.9811 54.6074 36.9984 54.6097 37.0303 54.6245C37.0494 54.6317 37.0667 54.6464 37.0761 54.6632C37.0954 54.6995 37.1002 54.7431 37.1002 54.8716V55.3194C37.1002 55.3371 37.1144 55.3511 37.1319 55.3511H37.4823C37.4823 55.3511 37.5219 55.3511 37.5375 55.312L37.6152 55.1201C37.7184 55.2647 37.8884 55.3511 38.0996 55.3511H38.1457C38.1457 55.3511 38.1855 55.3511 38.2013 55.312L38.3365 54.9771V55.3194C38.3365 55.3371 38.351 55.3511 38.3683 55.3511H38.7259C38.7259 55.3511 38.7654 55.3511 38.7812 55.312C38.7812 55.312 38.9243 54.9569 38.9248 54.9542H38.925C38.9305 54.9246 38.8932 54.9246 38.8932 54.9246H38.7655V54.3153L39.1672 55.312C39.1829 55.3511 39.2224 55.3511 39.2224 55.3511H39.6449C39.6449 55.3511 39.6847 55.3511 39.7004 55.312L40.1456 54.2094C40.161 54.1712 40.1164 54.1712 40.1164 54.1712ZM38.3365 54.9246H38.0963C38.0007 54.9246 37.9229 54.8472 37.9229 54.7515C37.9229 54.6559 38.0007 54.578 38.0963 54.578H38.1635C38.2589 54.578 38.3365 54.6559 38.3365 54.7515V54.9246Z" fill="white"/>
</g>
<rect x="-15.5" y="-15.5" width="259" height="95" rx="4.5" stroke="#7B61FF" stroke-dasharray="10 5"/>
</svg>
