<svg
  width="64"
  height="64"
  viewBox="0 0 64 64"
  fill="none"
  xmlns="http://www.w3.org/2000/svg"
>
  <path
    d="M31.3332 41.791C31.3332 35.3802 37.5554 24.1613 40.6665 24.1613C43.7777 24.1613 49.9999 35.3802 49.9999 41.791C49.9999 48.2017 45.8212 53.0098 40.6665 53.0098C35.5119 53.0098 31.3332 48.8721 31.3332 41.791Z"
    fill="#FFECCC"
  />
  <path
    d="M39.825 25.4844C40.2522 25.9492 40.9751 25.9796 41.4398 25.5525C41.9046 25.1254 41.935 24.4024 41.5079 23.9377L39.825 25.4844ZM30.4271 17.5238L23.3331 17.5238L23.3331 19.8095L30.4271 19.8095L30.4271 17.5238ZM6.19028 34.6666L6.19028 64L8.476 64L8.476 34.6666L6.19028 34.6666ZM37.439 22.8885L39.825 25.4844L41.5079 23.9377L39.1219 21.3417L37.439 22.8885ZM23.3331 17.5238C13.8654 17.5238 6.19028 25.1989 6.19028 34.6666L8.476 34.6666C8.47599 26.4612 15.1278 19.8095 23.3331 19.8095L23.3331 17.5238ZM30.4271 19.8095C33.0923 19.8095 35.6355 20.9262 37.439 22.8885L39.1219 21.3417C36.8855 18.9085 33.7319 17.5238 30.4271 17.5238L30.4271 19.8095Z"
    fill="#FFECCC"
  />
  <path
    d="M13.8571 42.744C13.8571 44.042 13.1875 45.9912 12.2658 47.6744C11.8135 48.5002 11.3322 49.2031 10.8996 49.6838C10.6824 49.9251 10.4999 50.0852 10.3619 50.178C10.331 50.1987 10.3057 50.2139 10.2857 50.2249C10.2658 50.2139 10.2404 50.1987 10.2095 50.178C10.0715 50.0852 9.88904 49.9251 9.67187 49.6838C9.23923 49.2031 8.75791 48.5002 8.30567 47.6744C7.38392 45.9912 6.71429 44.042 6.71429 42.744C6.71429 40.0533 8.45327 38.3334 10.2857 38.3334C11.273 38.3334 12.1413 38.718 12.7725 39.4244C13.4078 40.1352 13.8571 41.2363 13.8571 42.744Z"
    stroke="#262626"
    stroke-width="2"
  />
  <path
    d="M18.6667 47.6085C17.3979 47.6085 15.4832 48.2838 13.8244 49.2188C13.0115 49.6769 12.3196 50.1645 11.8462 50.603C11.6088 50.823 11.4505 51.0084 11.3582 51.1497C11.3312 51.1911 11.3135 51.2231 11.302 51.2462C11.3135 51.2693 11.3312 51.3012 11.3582 51.3426C11.4505 51.4839 11.6088 51.6694 11.8462 51.8894C12.3196 52.3278 13.0115 52.8155 13.8244 53.2736C15.4832 54.2085 17.3979 54.8839 18.6667 54.8839C21.2846 54.8839 23 53.1402 23 51.2462C23 50.2306 22.6149 49.3431 21.9188 48.7029C21.2203 48.0605 20.1423 47.6085 18.6667 47.6085Z"
    stroke="#262626"
    stroke-width="2"
  />
  <path
    d="M11.9764 50.0867V50.0867C8.85957 51.4986 6.85728 54.6037 6.85728 58.0254L6.85728 60.5216"
    stroke="#262626"
    stroke-width="2"
  />
  <path
    d="M3.87373e-05 64.0002V64.0002C3.08423 58.7853 10.6301 58.7853 13.7143 64.0002V64.0002"
    stroke="#262626"
    stroke-width="2"
  />
  <path
    d="M52.6224 26.9825V26.9825C57.4166 26.9258 61.3335 30.7966 61.3335 35.5912L61.3335 64.667"
    stroke="#262626"
    stroke-width="2"
  />
  <path
    d="M54.0742 15.5883C52.2506 15.5883 49.5767 16.527 47.2991 17.7872C46.1764 18.4083 45.2094 19.0755 44.5387 19.6854C44.2024 19.9911 43.9655 20.2602 43.8195 20.4797C43.6933 20.6694 43.6714 20.7672 43.6676 20.7852C43.6714 20.8032 43.6933 20.9011 43.8195 21.0908C43.9655 21.3103 44.2024 21.5793 44.5387 21.8851C45.2094 22.495 46.1764 23.1621 47.2991 23.7833C49.5767 25.0435 52.2506 25.9821 54.0742 25.9821C57.811 25.9821 60.3335 23.5243 60.3335 20.7852C60.3335 19.3455 59.7756 18.0698 58.7519 17.1456C57.7245 16.2179 56.1626 15.5883 54.0742 15.5883Z"
    stroke="#262626"
    stroke-width="2"
  />
  <path
    d="M31.2594 25.9823C33.0831 25.9823 35.757 25.0436 38.0346 23.7834C39.1573 23.1622 40.1243 22.4951 40.795 21.8852C41.1312 21.5795 41.3682 21.3104 41.5141 21.0909C41.6403 20.9012 41.6622 20.8034 41.666 20.7854C41.6622 20.7674 41.6403 20.6695 41.5141 20.4798C41.3682 20.2603 41.1312 19.9913 40.795 19.6855C40.1243 19.0756 39.1573 18.4085 38.0346 17.7873C35.757 16.5271 33.0831 15.5884 31.2594 15.5884C27.5226 15.5884 25.0002 18.0463 25.0002 20.7854C25.0002 22.2251 25.558 23.5007 26.5817 24.425C27.6092 25.3526 29.1711 25.9823 31.2594 25.9823Z"
    stroke="#262626"
    stroke-width="2"
  />
  <path
    d="M43.8491 8.75968C42.9384 10.3306 42.4176 13.1046 42.3746 15.699C42.3535 16.9776 42.45 18.145 42.645 19.0283C42.7427 19.4711 42.8582 19.8101 42.9762 20.046C43.0806 20.2547 43.1564 20.322 43.1689 20.3329C43.1847 20.3382 43.281 20.37 43.5147 20.3557C43.7789 20.3395 44.1314 20.2696 44.5653 20.1325C45.4309 19.859 46.4942 19.3586 47.5955 18.701C49.83 17.3667 51.9818 15.5306 52.8924 13.9597C54.7572 10.743 53.887 7.33688 51.4989 5.96367C50.2443 5.24233 48.8543 5.08606 47.5388 5.50687C46.2191 5.92903 44.8921 6.9604 43.8491 8.75968Z"
    stroke="#262626"
    stroke-width="2"
  />
  <path
    d="M52.892 28.4375C51.9813 26.8665 49.8296 25.0304 47.5951 23.6961C46.4938 23.0385 45.4304 22.5381 44.5648 22.2646C44.1309 22.1275 43.7784 22.0576 43.5143 22.0415C43.2806 22.0272 43.1842 22.0589 43.1685 22.0642C43.156 22.0751 43.0802 22.1424 42.9758 22.3511C42.8578 22.587 42.7423 22.926 42.6446 23.3688C42.4496 24.2521 42.353 25.4195 42.3742 26.6981C42.4172 29.2925 42.938 32.0665 43.8486 33.6374C45.7134 36.8541 49.1102 37.8066 51.4984 36.4334C52.7529 35.7121 53.5838 34.5913 53.8757 33.2463C54.1684 31.8969 53.9351 30.2367 52.892 28.4375Z"
    stroke="#262626"
    stroke-width="2"
  />
  <path
    d="M32.4416 28.4375C33.3523 26.8665 35.504 25.0304 37.7385 23.6961C38.8398 23.0385 39.9032 22.5381 40.7688 22.2646C41.2027 22.1275 41.5552 22.0576 41.8194 22.0415C42.053 22.0272 42.1494 22.0589 42.1651 22.0642C42.1776 22.0751 42.2534 22.1424 42.3578 22.3511C42.4758 22.587 42.5913 22.926 42.689 23.3688C42.884 24.2521 42.9806 25.4195 42.9594 26.6981C42.9164 29.2925 42.3957 32.0665 41.485 33.6374C39.6203 36.8541 36.2234 37.8066 33.8352 36.4334C32.5807 35.7121 31.7498 34.5913 31.458 33.2463C31.1652 31.8969 31.3985 30.2367 32.4416 28.4375Z"
    stroke="#262626"
    stroke-width="2"
  />
  <path
    d="M32.4416 13.9599C33.3523 15.5308 35.504 17.3669 37.7385 18.7012C38.8398 19.3588 39.9032 19.8592 40.7688 20.1327C41.2027 20.2698 41.5552 20.3397 41.8194 20.3558C42.053 20.3702 42.1494 20.3384 42.1651 20.3331C42.1776 20.3222 42.2534 20.2549 42.3578 20.0462C42.4758 19.8103 42.5913 19.4713 42.689 19.0285C42.884 18.1452 42.9806 16.9778 42.9594 15.6992C42.9164 13.1048 42.3957 10.3308 41.485 8.75988C39.6203 5.54323 36.2234 4.59067 33.8352 5.96387C32.5807 6.68522 31.7498 7.80597 31.458 9.15102C31.1652 10.5004 31.3985 12.1606 32.4416 13.9599Z"
    stroke="#262626"
    stroke-width="2"
  />
</svg>
