<svg
  width="96"
  height="96"
  viewBox="0 0 96 96"
  fill="none"
  xmlns="http://www.w3.org/2000/svg"
>
  <path
    d="M47 62.6869C47 53.0707 56.3333 36.2424 61 36.2424C65.6667 36.2424 75 53.0707 75 62.6869C75 72.303 68.732 79.5151 61 79.5151C53.268 79.5151 47 73.3086 47 62.6869Z"
    fill="#FFECCC"
  />
  <path
    d="M60.2638 37.7434C60.6375 38.15 61.2701 38.1767 61.6768 37.8029C62.0834 37.4292 62.11 36.7966 61.7363 36.39L60.2638 37.7434ZM45.641 27L35.0001 27L35.0001 29L45.641 29L45.641 27ZM10.0001 52L10.0001 96L12.0001 96L12.0001 52L10.0001 52ZM56.6848 33.8494L60.2638 37.7434L61.7363 36.39L58.1573 32.496L56.6848 33.8494ZM35.0001 27C21.1929 27 10.0001 38.1929 10.0001 52L12.0001 52C12.0001 39.2974 22.2975 29 35.0001 29L35.0001 27ZM45.641 29C49.8386 29 53.8442 30.7589 56.6848 33.8494L58.1573 32.496C54.938 28.9934 50.3983 27 45.641 27L45.641 29Z"
    fill="#FFECCC"
  />
  <path
    d="M20.7856 64.116C20.7856 66.063 19.7812 68.9867 18.3986 71.5115C17.7202 72.7503 16.9982 73.8046 16.3493 74.5257C16.0235 74.8876 15.7498 75.1278 15.5428 75.2669C15.4964 75.2981 15.4584 75.3208 15.4285 75.3372C15.3986 75.3208 15.3606 75.2981 15.3142 75.2669C15.1072 75.1278 14.8335 74.8876 14.5077 74.5257C13.8588 73.8046 13.1368 72.7503 12.4585 71.5115C11.0758 68.9867 10.0714 66.063 10.0714 64.116C10.0714 60.0798 12.6798 57.5 15.4285 57.5C16.9095 57.5 18.2119 58.0769 19.1587 59.1365C20.1116 60.2028 20.7856 61.8545 20.7856 64.116Z"
    stroke="#262626"
    stroke-width="3"
  />
  <path
    d="M28 71.4127C26.0969 71.4127 23.2248 72.4257 20.7365 73.8281C19.5173 74.5153 18.4794 75.2467 17.7694 75.9045C17.4131 76.2344 17.1757 76.5126 17.0373 76.7246C16.9968 76.7866 16.9702 76.8346 16.953 76.8692C16.9702 76.9039 16.9968 76.9519 17.0373 77.0139C17.1757 77.2259 17.4131 77.5041 17.7694 77.834C18.4794 78.4917 19.5173 79.2232 20.7365 79.9104C23.2248 81.3128 26.0969 82.3258 28 82.3258C31.9269 82.3258 34.5 79.7102 34.5 76.8692C34.5 75.346 33.9224 74.0146 32.8781 73.0543C31.8304 72.0907 30.2134 71.4127 28 71.4127Z"
    stroke="#262626"
    stroke-width="3"
  />
  <path
    d="M17.9645 75.1302V75.1302C13.2893 77.248 10.2858 81.9057 10.2858 87.0383L10.2858 90.7825"
    stroke="#262626"
    stroke-width="3"
  />
  <path
    d="M2.61579e-05 96V96C4.62632 88.1777 15.9451 88.1777 20.5714 96V96"
    stroke="#262626"
    stroke-width="3"
  />
  <path
    d="M78.9333 40.4731V40.4731C86.1247 40.3881 92 46.1943 92 53.3862L92 97"
    stroke="#262626"
    stroke-width="3"
  />
  <path
    d="M81.1111 23.3827C78.3756 23.3827 74.3647 24.7907 70.9484 26.681C69.2643 27.6128 67.8138 28.6135 66.8077 29.5283C66.3034 29.987 65.948 30.3905 65.729 30.7197C65.5397 31.0044 65.5068 31.1511 65.5012 31.1781C65.5068 31.2051 65.5397 31.3519 65.729 31.6365C65.948 31.9657 66.3034 32.3692 66.8077 32.8279C67.8138 33.7428 69.2643 34.7434 70.9484 35.6752C74.3647 37.5655 78.3756 38.9735 81.1111 38.9735C86.7163 38.9735 90.4999 35.2867 90.4999 31.1781C90.4999 29.0185 89.6632 27.105 88.1276 25.7186C86.5865 24.3272 84.2436 23.3827 81.1111 23.3827Z"
    stroke="#262626"
    stroke-width="3"
  />
  <path
    d="M46.8889 38.9736C49.6243 38.9736 53.6352 37.5656 57.0516 35.6754C58.7356 34.7436 60.1861 33.7429 61.1922 32.828C61.6966 32.3694 62.052 31.9658 62.2709 31.6366C62.4602 31.352 62.4931 31.2052 62.4988 31.1782C62.4931 31.1513 62.4602 31.0045 62.2709 30.7199C62.052 30.3907 61.6966 29.9871 61.1922 29.5285C60.1861 28.6136 58.7356 27.6129 57.0516 26.6811C53.6352 24.7909 49.6243 23.3829 46.8889 23.3829C41.2837 23.3829 37.5 27.0697 37.5 31.1782C37.5 33.3379 38.3368 35.2513 39.8723 36.6377C41.4135 38.0292 43.7563 38.9736 46.8889 38.9736Z"
    stroke="#262626"
    stroke-width="3"
  />
  <path
    d="M65.7733 13.1394C64.4073 15.4957 63.6262 19.6567 63.5617 23.5483C63.5299 25.4663 63.6748 27.2173 63.9672 28.5423C64.1138 29.2065 64.2871 29.715 64.4641 30.0689C64.6207 30.382 64.7343 30.4828 64.7531 30.4992C64.7767 30.5072 64.9212 30.5548 65.2717 30.5333C65.668 30.509 66.1968 30.4042 66.8476 30.1986C68.146 29.7883 69.7411 29.0377 71.393 28.0513C74.7447 26.0499 77.9724 23.2957 79.3384 20.9393C82.1355 16.1143 80.8303 11.0052 77.248 8.94534C75.3662 7.86333 73.2812 7.62893 71.308 8.26014C69.3284 8.89337 67.3379 10.4404 65.7733 13.1394Z"
    stroke="#262626"
    stroke-width="3"
  />
  <path
    d="M79.3378 42.6561C77.9718 40.2997 74.7441 37.5455 71.3924 35.544C69.7405 34.5577 68.1454 33.8071 66.847 33.3968C66.1962 33.1912 65.6674 33.0863 65.2712 33.0621C64.9206 33.0406 64.7761 33.0882 64.7525 33.0962C64.7337 33.1126 64.6201 33.2134 64.4635 33.5265C64.2865 33.8804 64.1132 34.3889 63.9666 35.0531C63.6742 36.378 63.5293 38.1291 63.5611 40.047C63.6256 43.9387 64.4067 48.0996 65.7727 50.456C68.5698 55.281 73.6651 56.7098 77.2474 54.65C79.1292 53.568 80.3755 51.8869 80.8133 49.8693C81.2524 47.8453 80.9024 45.355 79.3378 42.6561Z"
    stroke="#262626"
    stroke-width="3"
  />
  <path
    d="M48.6621 42.6561C50.0281 40.2997 53.2558 37.5455 56.6076 35.544C58.2594 34.5577 59.8545 33.8071 61.1529 33.3968C61.8038 33.1912 62.3325 33.0863 62.7288 33.0621C63.0793 33.0406 63.2238 33.0882 63.2475 33.0962C63.2662 33.1126 63.3798 33.2134 63.5364 33.5265C63.7135 33.8804 63.8867 34.3889 64.0333 35.0531C64.3258 36.378 64.4706 38.1291 64.4388 40.047C64.3744 43.9387 63.5932 48.0996 62.2272 50.456C59.4301 55.281 54.3348 56.7098 50.7525 54.65C48.8708 53.568 47.6244 51.8869 47.1867 49.8693C46.7475 47.8453 47.0976 45.355 48.6621 42.6561Z"
    stroke="#262626"
    stroke-width="3"
  />
  <path
    d="M48.6621 20.9399C50.0281 23.2962 53.2558 26.0505 56.6076 28.0519C58.2594 29.0383 59.8545 29.7888 61.1529 30.1991C61.8038 30.4048 62.3325 30.5096 62.7288 30.5338C63.0793 30.5553 63.2238 30.5077 63.2475 30.4998C63.2662 30.4834 63.3798 30.3825 63.5364 30.0694C63.7135 29.7155 63.8867 29.2071 64.0333 28.5429C64.3258 27.2179 64.4706 25.4668 64.4388 23.5489C64.3744 19.6573 63.5932 15.4963 62.2272 13.1399C59.4301 8.31492 54.3348 6.88607 50.7525 8.94589C48.8708 10.0279 47.6244 11.709 47.1867 13.7266C46.7475 15.7506 47.0976 18.2409 48.6621 20.9399Z"
    stroke="#262626"
    stroke-width="3"
  />
</svg>
