<svg width="600" height="338" viewBox="0 0 600 338" fill="none" xmlns="http://www.w3.org/2000/svg">
<g clip-path="url(#clip0_680_102618)">
<rect width="600" height="337.5" rx="8" transform="matrix(-1 8.74228e-08 8.74228e-08 1 600 0)" fill="#E0D8E9"/>
<path d="M457.292 168.75L143.179 -145.362L456.82 -145.363L770.933 168.75L457.292 168.75Z" stroke="#A18DBB" stroke-width="4.5" stroke-linejoin="round"/>
<path d="M456.822 -145.361L142.711 168.75L456.822 482.861L770.933 168.75L456.822 -145.361Z" stroke="#A18DBB" stroke-width="4.5" stroke-linejoin="round"/>
<path d="M143.179 -145.362L-170.933 168.75L142.708 168.75L456.821 -145.362L143.179 -145.362Z" stroke="#A18DBB" stroke-width="4.5" stroke-linejoin="round"/>
<path d="M143.178 -145.361L-170.933 168.75L143.178 482.861L457.289 168.75L143.178 -145.361Z" stroke="#A18DBB" stroke-width="4.5" stroke-linejoin="round"/>
<path d="M457.292 168.75L143.179 482.862L456.821 482.862L770.933 168.75L457.292 168.75Z" stroke="#A18DBB" stroke-width="4.5" stroke-linejoin="round"/>
<path d="M143.179 482.862L-170.933 168.75L142.708 168.749L456.821 482.862L143.179 482.862Z" stroke="#A18DBB" stroke-width="4.5" stroke-linejoin="round"/>
</g>
<defs>
<clipPath id="clip0_680_102618">
<rect width="600" height="337.5" rx="8" transform="matrix(-1 8.74228e-08 8.74228e-08 1 600 0)" fill="white"/>
</clipPath>
</defs>
</svg>
