<svg width="600" height="338" viewBox="0 0 600 338" fill="none" xmlns="http://www.w3.org/2000/svg">
<g clip-path="url(#clip0_680_102619)">
<rect width="600" height="337.5" rx="8" transform="matrix(-1 8.74228e-08 8.74228e-08 1 600 0)" fill="#FFF9F0"/>
<path d="M736.598 -110.557L422.486 -424.669L736.127 -424.67L1050.24 -110.557L736.598 -110.557Z" stroke="#A18DBB" stroke-width="4.5" stroke-linejoin="round"/>
<path d="M624.406 -312.945L310.295 1.1657L624.406 315.277L938.517 1.16564L624.406 -312.945Z" stroke="#A18DBB" stroke-width="4.5" stroke-linejoin="round"/>
<path d="M199.041 -201.224L-115.072 112.889L198.57 112.889L512.682 -201.224L199.041 -201.224Z" stroke="#A18DBB" stroke-width="4.5" stroke-linejoin="round"/>
<path d="M87.3154 -89.4993L-226.796 224.612L87.3155 538.723L401.426 224.612L87.3154 -89.4993Z" stroke="#A18DBB" stroke-width="4.5" stroke-linejoin="round"/>
<path d="M289.707 336.334L-24.4057 650.447L289.236 650.447L603.348 336.334L289.707 336.334Z" stroke="#A18DBB" stroke-width="4.5" stroke-linejoin="round"/>
<path d="M-136.128 762.17L-450.241 448.057L-136.6 448.057L177.513 762.17L-136.128 762.17Z" stroke="#A18DBB" stroke-width="4.5" stroke-linejoin="round"/>
</g>
<defs>
<clipPath id="clip0_680_102619">
<rect width="600" height="337.5" rx="8" transform="matrix(-1 8.74228e-08 8.74228e-08 1 600 0)" fill="white"/>
</clipPath>
</defs>
</svg>
