<svg width="600" height="338" viewBox="0 0 600 338" fill="none" xmlns="http://www.w3.org/2000/svg">
<g clip-path="url(#clip0_680_102616)">
<rect width="600" height="337.5" rx="8" transform="matrix(-1 8.74228e-08 8.74228e-08 1 600 0)" fill="#FFECCC"/>
<path d="M653.513 -27.4722L339.401 -341.585L653.042 -341.585L967.155 -27.4722L653.513 -27.4722Z" stroke="#A18DBB" stroke-width="4.5" stroke-linejoin="round"/>
<path d="M574.555 -263.094L260.444 51.0165L574.555 365.127L888.666 51.0165L574.555 -263.094Z" stroke="#A18DBB" stroke-width="4.5" stroke-linejoin="round"/>
<path d="M182.423 -184.607L-131.689 129.506L181.953 129.506L496.065 -184.607L182.423 -184.607Z" stroke="#A18DBB" stroke-width="4.5" stroke-linejoin="round"/>
<path d="M103.933 -106.116L-210.178 207.995L103.933 522.106L418.044 207.995L103.933 -106.116Z" stroke="#A18DBB" stroke-width="4.5" stroke-linejoin="round"/>
<path d="M339.558 286.483L25.4458 600.596L339.087 600.595L653.2 286.483L339.558 286.483Z" stroke="#A18DBB" stroke-width="4.5" stroke-linejoin="round"/>
<path d="M-53.0432 679.084L-367.156 364.972L-53.5147 364.972L260.598 679.084L-53.0432 679.084Z" stroke="#A18DBB" stroke-width="4.5" stroke-linejoin="round"/>
</g>
<defs>
<clipPath id="clip0_680_102616">
<rect width="600" height="337.5" rx="8" transform="matrix(-1 8.74228e-08 8.74228e-08 1 600 0)" fill="white"/>
</clipPath>
</defs>
</svg>
