<svg width="24" height="24" viewBox="0 0 24 24" fill="none" xmlns="http://www.w3.org/2000/svg">
<path fill-rule="evenodd" clip-rule="evenodd" d="M17 5C17 7.76142 14.7614 10 12 10C9.23858 10 7 7.76142 7 5C7 2.23858 9.23858 0 12 0C14.7614 0 17 2.23858 17 5ZM12.8702 17.2748L18 18.8946L23.1298 17.2748L18.6402 13.5335C18.2693 13.2245 17.7307 13.2245 17.3598 13.5335L12.8702 17.2748ZM24 19.1541L18 21.0028L12 19.1541V23C12 23.5523 12.4477 24 13 24H23C23.5523 24 24 23.5523 24 23V19.1541ZM5 18C5 14.134 8.13401 11 12 11C13.4274 11 14.7549 11.4272 15.8619 12.1608L8.86795 18H5Z" fill="#262626"/>
</svg>
