<svg width="24" height="24" viewBox="0 0 24 24" fill="none" xmlns="http://www.w3.org/2000/svg">
<path fill-rule="evenodd" clip-rule="evenodd" d="M15 5C15 6.65685 13.6569 8 12 8C10.3431 8 9 6.65685 9 5C9 3.34315 10.3431 2 12 2C13.6569 2 15 3.34315 15 5ZM17 5C17 7.76142 14.7614 10 12 10C9.23858 10 7 7.76142 7 5C7 2.23858 9.23858 0 12 0C14.7614 0 17 2.23858 17 5ZM18 15.6034L20.517 17.7009L18 18.456L15.483 17.7009L18 15.6034ZM18 20.544L22 19.344V22H14V19.344L18 20.544ZM12 18.4684C12 18.1716 12.1318 17.8901 12.3598 17.7002L17.3598 13.5335C17.7307 13.2244 18.2693 13.2244 18.6402 13.5335L23.6402 17.7002C23.8682 17.8901 24 18.1716 24 18.4684V23C24 23.5523 23.5523 24 23 24H13C12.4477 24 12 23.5523 12 23V18.4684ZM12 13C9.23858 13 7 15.2386 7 18H5C5 14.134 8.13401 11 12 11C13.4274 11 14.7549 11.4272 15.8619 12.1608L14.2297 13.5235C13.5584 13.1885 12.8012 13 12 13Z" fill="#262626"/>
</svg>
