<svg width="24" height="24" viewBox="0 0 24 24" fill="none" xmlns="http://www.w3.org/2000/svg">
<path fill-rule="evenodd" clip-rule="evenodd" d="M19.4858 7.11515C20.7324 5.94459 20.7324 4.04674 19.4858 2.87619C18.2838 1.74743 16.3616 1.70712 15.1081 2.75525L14.9716 2.87619L3.6862 13.4736L3.52649 13.6301C1.61004 15.5902 1.66328 18.6389 3.6862 20.5385C5.70912 22.4381 8.95584 22.4881 11.0432 20.6885L11.2098 20.5385L22.4953 9.94113L24 11.3541L12.7146 21.9515L12.5304 22.1187C9.61022 24.6816 5.02951 24.6259 2.18147 21.9515C-0.666561 19.2771 -0.725895 14.9757 2.00347 12.2335L2.18147 12.0606L13.4669 1.4632C15.5445 -0.487732 18.913 -0.487732 20.9905 1.4632C23.0135 3.36279 23.0667 6.41157 21.1503 8.37164L20.9905 8.52814L9.7051 19.1255L9.56865 19.2465C8.31517 20.2946 6.39296 20.2543 5.19092 19.1255C3.98889 17.9968 3.94596 16.1918 5.06214 15.0147L5.19092 14.8866L16.4764 4.28917L17.9811 5.70216L6.69565 16.2996L6.61297 16.3867C6.28225 16.7789 6.30981 17.3502 6.69565 17.7126C7.08149 18.0749 7.68993 18.1008 8.10757 17.7902L8.20038 17.7126L19.4858 7.11515Z" fill="#262626"/>
</svg>
