<svg width="24" height="24" viewBox="0 0 24 24" fill="none" xmlns="http://www.w3.org/2000/svg">
<path fill-rule="evenodd" clip-rule="evenodd" d="M16.3472 0.00138792C17.7614 -0.0288776 19.2813 0.434034 20.4223 1.56794L19.3387 2.6448L20.4223 1.56794C21.5633 2.70184 22.0291 4.21243 21.9986 5.61786C21.9684 7.01063 21.4486 8.445 20.4223 9.46495L11.0314 18.7978C10.358 19.467 9.43759 19.7854 8.57056 19.8039C7.69079 19.8227 6.71672 19.5352 5.97471 18.7978C5.23271 18.0604 4.94338 17.0923 4.96233 16.218C4.981 15.3563 5.30134 14.4416 5.97472 13.7724L12.4761 7.31122C13.0746 6.71649 14.0448 6.71649 14.6433 7.31122C15.2417 7.90596 15.2417 8.87022 14.6433 9.46495L8.14185 15.9261C8.10938 15.9584 8.03076 16.083 8.02641 16.2836C8.02234 16.4715 8.08594 16.5885 8.14185 16.6441C8.19777 16.6996 8.31553 16.7628 8.50458 16.7588C8.70636 16.7545 8.83176 16.6763 8.86423 16.6441L18.2552 7.31122C18.6406 6.92821 18.9187 6.28392 18.9345 5.55228C18.9501 4.8333 18.71 4.17373 18.2552 3.72167C17.8003 3.26961 17.1366 3.03104 16.4132 3.04652C15.677 3.06227 15.0287 3.33865 14.6433 3.72167L5.25234 13.0545C4.67063 13.6326 4.14756 14.7746 4.07345 16.1004C4.00113 17.3941 4.36759 18.6364 5.25234 19.5157C7.18223 21.4337 9.82386 21.4337 11.7538 19.5157L18.2829 13.0269C18.8814 12.4322 19.8516 12.4322 20.4501 13.0269C21.0485 13.6216 21.0485 14.5859 20.4501 15.1806L13.9209 21.6694C10.7941 24.7769 6.21196 24.7769 3.0852 21.6694C1.44161 20.036 0.9051 17.8683 1.01337 15.9314C1.11986 14.0266 1.86096 12.1174 3.0852 10.9008L12.4761 1.56794C13.5024 0.547983 14.9457 0.0313808 16.3472 0.00138792Z" fill="#262626"/>
</svg>
