<svg width="24" height="24" viewBox="0 0 24 24" fill="none" xmlns="http://www.w3.org/2000/svg">
<path fill-rule="evenodd" clip-rule="evenodd" d="M16.8634 1.00122C18.1639 0.974609 19.5426 1.3819 20.5704 2.35845C21.5981 3.33501 22.0267 4.64511 21.9987 5.88083C21.9709 7.10846 21.4908 8.35534 20.5704 9.22999L11.1693 18.163C10.6021 18.7019 9.81338 18.9683 9.05641 18.9838C8.29093 18.9995 7.45868 18.76 6.83035 18.163C6.20202 17.5659 5.95004 16.7751 5.96653 16.0478C5.98283 15.3285 6.26318 14.579 6.83035 14.0401L13.3388 7.85568C13.7382 7.47618 14.3857 7.47618 14.7851 7.85568C15.1845 8.23518 15.1845 8.85048 14.7851 9.22999L8.27667 15.4144C8.13723 15.5469 8.01819 15.7922 8.01145 16.0896C8.0049 16.3789 8.10622 16.6267 8.27667 16.7887C8.44712 16.9506 8.70788 17.0469 9.01237 17.0407C9.32537 17.0343 9.58355 16.9212 9.72299 16.7887L19.1241 7.85568C19.6168 7.38747 19.9355 6.64474 19.9538 5.83898C19.9719 5.0413 19.6939 4.27422 19.1241 3.73276C18.5542 3.19129 17.7469 2.92716 16.9075 2.94433C16.0595 2.96168 15.2778 3.26454 14.7851 3.73276L5.38403 12.6658C4.6945 13.321 4.13449 14.5364 4.05489 15.8977C3.9765 17.2386 4.37172 18.5754 5.38403 19.5373C7.5157 21.5628 10.484 21.5628 12.6156 19.5373L19.1519 13.3265C19.5513 12.947 20.1988 12.947 20.5982 13.3265C20.9976 13.706 20.9976 14.3213 20.5982 14.7008L14.0619 20.9116C11.1315 23.6961 6.86816 23.6961 3.93772 20.9116C2.41897 19.4685 1.91025 17.5412 2.01264 15.7899C2.11384 14.0591 2.81936 12.3541 3.93772 11.2914L13.3388 2.35845C14.2593 1.4838 15.5715 1.02766 16.8634 1.00122Z" fill="#262626"/>
</svg>
