<svg width="24" height="24" viewBox="0 0 24 24" fill="none" xmlns="http://www.w3.org/2000/svg">
<path fill-rule="evenodd" clip-rule="evenodd" d="M19.4858 7.11888C20.7324 5.94771 20.7324 4.04887 19.4858 2.87769C18.2838 1.74835 16.3616 1.70802 15.1081 2.75669L14.9716 2.87769L3.6862 13.4807L3.52649 13.6372C1.61004 15.5983 1.66328 18.6487 3.6862 20.5493C4.61095 21.4181 5.79143 21.9002 7 21.9956V22H24V24L7 24C5.24586 23.9013 3.52179 23.2223 2.18147 21.963C-0.666561 19.2872 -0.725895 14.9835 2.00347 12.2399L2.18147 12.0669L13.4669 1.46396C15.5445 -0.487988 18.913 -0.487988 20.9905 1.46396C23.0135 3.36455 23.0667 6.41493 21.1502 8.37603L20.9905 8.53261L9.7051 19.1356L9.56865 19.2566C8.31517 20.3053 6.39296 20.2649 5.19092 19.1356C3.98889 18.0062 3.94596 16.2003 5.06213 15.0226L5.19092 14.8944L16.4764 4.29142L17.9811 5.70515L6.69565 16.3081L6.61297 16.3953C6.28225 16.7877 6.30981 17.3593 6.69565 17.7219C7.08149 18.0844 7.68993 18.1103 8.10757 17.7995L8.20038 17.7219L19.4858 7.11888Z" fill="#262626"/>
</svg>
