<svg width="24" height="24" viewBox="0 0 24 24" fill="none" xmlns="http://www.w3.org/2000/svg">
<path fill-rule="evenodd" clip-rule="evenodd" d="M12 2C7.96771 2 4.49075 4.38664 2.90861 7.82867L1 7.41103V2H3V4.06279C5.19821 1.57211 8.41494 0 12 0C18.6274 0 24 5.37258 24 12H22C22 6.47715 17.5228 2 12 2ZM12 22C16.0323 22 19.5093 19.6134 21.0914 16.1713L23 16.589V22H21V19.9372C18.8018 22.4279 15.5851 24 12 24C5.37258 24 0 18.6274 0 12H2C2 17.5228 6.47715 22 12 22ZM13.8873 4H10.1125L9.47678 5.90777L7.67765 5.00864L5.00864 7.67765L5.90777 9.47678L4 10.1125V13.8873L5.90764 14.5235L5.00864 16.3223L7.67765 18.9914L9.47653 18.0924L10.1127 20H13.8872L14.5238 18.0922L16.3222 18.9915L18.9915 16.3222L18.0922 14.5238L20 13.8872V10.1127L18.0924 9.47653L18.9914 7.67765L16.3223 5.00864L14.5235 5.90764L13.8873 4ZM13 12C13 12.5523 12.5523 13 12 13C11.4477 13 11 12.5523 11 12C11 11.4477 11.4477 11 12 11C12.5523 11 13 11.4477 13 12Z" fill="#262626"/>
</svg>
