<svg width="24" height="24" viewBox="0 0 24 24" fill="none" xmlns="http://www.w3.org/2000/svg">
<path fill-rule="evenodd" clip-rule="evenodd" d="M10 3C10 3.55228 9.55228 4 9 4C8.44772 4 8 3.55228 8 3C8 2.44772 8.44772 2 9 2C9.55228 2 10 2.44772 10 3ZM12 3C12 4.65685 10.6569 6 9 6C7.34315 6 6 4.65685 6 3C6 1.34315 7.34315 0 9 0C10.6569 0 12 1.34315 12 3ZM21.5 16C22.3284 16 23 15.3284 23 14.5C23 13.6716 22.3284 13 21.5 13C20.6716 13 20 13.6716 20 14.5C20 15.3284 20.6716 16 21.5 16ZM3.18079 7.15469C3.36366 6.47353 3.98108 6 4.68636 6C6.78502 6 8.65406 7.19312 9.5682 9H13C13.5523 9 14 9.44771 14 10C14 10.5523 13.5523 11 13 11H10.1893L12.0018 19H9.25773V24H7.25773V17H9.49801L8.07159 10.7041C7.73815 9.23234 6.49779 8.15795 5.02038 8.01598L2.60848 17H5.25773V24H3.25773V19H0.000732422L3.18079 7.15469ZM19 11C19.5523 11 20 11.4477 20 12V14C20 15.1046 19.1046 16 18 16H16.618C15.8605 16 15.168 15.572 14.8292 14.8944L14.382 14H14C13.4477 14 13 13.5523 13 13C13 12.4477 13.4477 12 14 12H14.382C15.1395 12 15.832 12.428 16.1708 13.1056L16.618 14H18V12C18 11.4477 18.4477 11 19 11ZM14 17C13.4477 17 13 17.4477 13 18C13 18.5523 13.4477 19 14 19H22C22.5523 19 23 18.5523 23 18C23 17.4477 22.5523 17 22 17H14Z" fill="#262626"/>
</svg>
