<svg width="24" height="24" viewBox="0 0 24 24" fill="none" xmlns="http://www.w3.org/2000/svg">
<path fill-rule="evenodd" clip-rule="evenodd" d="M13 3C13 4.65685 11.6569 6 10 6C8.34315 6 7 4.65685 7 3C7 1.34315 8.34315 0 10 0C11.6569 0 13 1.34315 13 3ZM24 14.5C24 15.3284 23.3284 16 22.5 16C21.6716 16 21 15.3284 21 14.5C21 13.6716 21.6716 13 22.5 13C23.3284 13 24 13.6716 24 14.5ZM5.68636 6C4.98108 6 4.36366 6.47353 4.18079 7.15469L1.00073 19H2H4.25773V24H6.25773V19H8.25773V24H10.2577V19H12H13.0018L11.1893 11H14C14.5523 11 15 10.5523 15 10C15 9.44771 14.5523 9 14 9H10.5682C9.65406 7.19312 7.78502 6 5.68636 6ZM21 12C21 11.4477 20.5523 11 20 11C19.4477 11 19 11.4477 19 12V14H17.618L17.1708 13.1056C16.832 12.428 16.1395 12 15.382 12H15C14.4477 12 14 12.4477 14 13C14 13.5523 14.4477 14 15 14H15.382L15.8292 14.8944C16.168 15.572 16.8605 16 17.618 16H19C20.1046 16 21 15.1046 21 14V12ZM14 18C14 17.4477 14.4477 17 15 17H23C23.5523 17 24 17.4477 24 18C24 18.5523 23.5523 19 23 19H15C14.4477 19 14 18.5523 14 18Z" fill="#262626"/>
</svg>
