<svg width="24" height="24" viewBox="0 0 24 24" fill="none" xmlns="http://www.w3.org/2000/svg">
<path fill-rule="evenodd" clip-rule="evenodd" d="M14 3H10C9.44772 3 9 3.44772 9 4V5H15V4C15 3.44772 14.5523 3 14 3ZM7 4V5H1C0.447715 5 0 5.44772 0 6V12C0 12.5523 0.447716 13 1 13H11V12C11 11.4477 11.4477 11 12 11C12.5523 11 13 11.4477 13 12V13H23C23.5523 13 24 12.5523 24 12V6C24 5.44772 23.5523 5 23 5H17V4C17 2.34315 15.6569 1 14 1H10C8.34315 1 7 2.34315 7 4ZM11 15V16C11 16.5523 11.4477 17 12 17C12.5523 17 13 16.5523 13 16V15H23V21C23 22.1046 22.1046 23 21 23H3C1.89543 23 1 22.1046 1 21V15H11Z" fill="#262626"/>
</svg>
