<svg width="24" height="24" viewBox="0 0 24 24" fill="none" xmlns="http://www.w3.org/2000/svg">
<path fill-rule="evenodd" clip-rule="evenodd" d="M13 2V4.07089C16.3923 4.55612 19 7.47353 19 11V12.3767C19 13.6798 19.3992 14.9517 20.1439 16.021L21.8206 18.4285C22.0335 18.7341 22.0588 19.1327 21.8864 19.4629C21.714 19.793 21.3724 20 21 20H15C15 21.6569 13.6569 23 12 23C10.3431 23 9 21.6569 9 20H3C2.62756 20 2.28597 19.793 2.11358 19.4629C1.94118 19.1327 1.96654 18.7341 2.17939 18.4285L3.85606 16.021C4.60077 14.9517 5 13.6798 5 12.3767V11C5 7.47353 7.60771 4.55612 11 4.07089V2H13ZM11 20C11 20.5523 11.4477 21 12 21C12.5523 21 13 20.5523 13 20H11ZM12 6C9.23858 6 7 8.23858 7 11V12.3767C7 14.0885 6.47556 15.7593 5.49727 17.164L4.91504 18H19.085L18.5027 17.164C17.5244 15.7593 17 14.0885 17 12.3767V11C17 8.23857 14.7614 6 12 6Z" fill="#262626"/>
</svg>
