<svg width="24" height="24" viewBox="0 0 24 24" fill="none" xmlns="http://www.w3.org/2000/svg">
<path fill-rule="evenodd" clip-rule="evenodd" d="M11 0H13V3.08197C15.8497 3.51786 18.0968 5.64555 18.3797 8.34007L18.5037 9.54994C18.6344 10.8614 18.7161 11.8225 18.7487 12.4333L18.7629 12.7778C18.7871 13.7392 19.4928 15.375 20.8803 17.6852C21.139 18.1161 20.9645 18.6561 20.4904 18.8913C20.3467 18.9626 20.1856 19 20.0218 19H15.874C15.9562 19.3196 16 19.6547 16 20C16 22.2091 14.2091 24 12 24C9.79086 24 8 22.2091 8 20C8 19.6547 8.04375 19.3196 8.12602 19H3.978C3.43787 19 3 18.602 3 18.1111C3 17.9452 3.0511 17.7826 3.14752 17.6416C4.40461 15.8045 5.04585 14.1833 5.07124 12.7778C5.08901 11.7944 5.20058 10.328 5.40595 8.37841C5.69763 5.60978 8.04742 3.43564 11 3.05816V0ZM10.2676 19C10.0974 19.2942 10 19.6357 10 20C10 21.1046 10.8954 22 12 22C13.1046 22 14 21.1046 14 20C14 19.6357 13.9026 19.2942 13.7324 19H10.2676ZM11.9171 4.77778C9.55416 4.77778 7.57822 6.40998 7.35299 8.54785L7.24974 9.56957C7.14584 10.6481 7.078 11.5374 7.04602 12.2332L7.02693 12.807C7.00383 14.0852 6.60221 15.4394 5.8426 16.8798L5.65607 17.2222H18.4049L18.3026 17.0342C17.3858 15.3383 16.888 14.0211 16.8156 12.988L16.7864 12.3678C16.7398 11.6039 16.6215 10.3086 16.4326 8.50896C16.2105 6.3933 14.2553 4.77778 11.9171 4.77778Z" fill="#262626"/>
</svg>
