<svg width="24" height="24" viewBox="0 0 24 24" fill="none" xmlns="http://www.w3.org/2000/svg">
<path fill-rule="evenodd" clip-rule="evenodd" d="M8.04321 2.70884C8.17136 2.28777 8.55975 2 8.99989 2H11.9999C12.5522 2 12.9999 2.44772 12.9999 3C12.9999 3.55228 12.5522 4 11.9999 4H9.74083L8.03161 9.616C9.79525 10.532 11 12.3753 11 14.5C11 17.5376 8.53757 20 5.5 20C2.46243 20 0 17.5376 0 14.5C0 11.4624 2.46243 9 5.5 9C5.70895 9 5.91517 9.01165 6.11806 9.03434L8.04321 2.70884ZM4.83437 13.2522L5.5198 11.0001L5.5 11C3.567 11 2 12.567 2 14.5C2 16.433 3.567 18 5.5 18C7.433 18 9 16.433 9 14.5C9 13.2817 8.37753 12.2088 7.43328 11.5819L6.74772 13.8345C6.58692 14.3628 6.02824 14.6608 5.49989 14.5C4.97153 14.3392 4.67357 13.7805 4.83437 13.2522ZM22 14.5C22 16.433 20.433 18 18.5 18C16.567 18 15 16.433 15 14.5C15 13.2361 15.6699 12.1287 16.6741 11.5134L17.6261 14.2665C17.8066 14.7884 18.3761 15.0653 18.898 14.8848C19.42 14.7043 19.6968 14.1348 19.5163 13.6128L18.6134 11.0018C20.4939 11.0616 22 12.6049 22 14.5ZM17.9312 9.02906C18.1182 9.00985 18.3079 9 18.5 9C21.5376 9 24 11.4624 24 14.5C24 17.5376 21.5376 20 18.5 20C15.4624 20 13 17.5376 13 14.5C13 12.3585 14.2239 10.5028 16.0104 9.59439L15.4591 8H11C10.4477 8 10 7.55228 10 7C10 6.44772 10.4477 6 11 6H16C16.3601 6 16.6757 6.19034 16.8518 6.47589C17.0158 6.59237 17.1462 6.75926 17.217 6.96382L17.9312 9.02906Z" fill="#262626"/>
</svg>
