<svg width="24" height="24" viewBox="0 0 24 24" fill="none" xmlns="http://www.w3.org/2000/svg">
<path fill-rule="evenodd" clip-rule="evenodd" d="M6 4L6 1C6 0.447715 6.44771 0 7 0C7.55228 0 8 0.447715 8 1V4C8 4.55228 7.55228 5 7 5C6.44772 5 6 4.55228 6 4ZM2 3H4V4C4 5.65685 5.34315 7 7 7C8.65685 7 10 5.65685 10 4V3H14V4C14 5.65685 15.3431 7 17 7C18.6569 7 20 5.65685 20 4V3H22C23.1046 3 24 3.89543 24 5V10H0V5C0 3.89543 0.895431 3 2 3ZM0 12H24V22C24 23.1046 23.1046 24 22 24H2C0.89543 24 0 23.1046 0 22V12ZM5 14C4.44772 14 4 14.4477 4 15C4 15.5523 4.44772 16 5 16H7C7.55229 16 8 15.5523 8 15C8 14.4477 7.55228 14 7 14H5ZM5 18C4.44772 18 4 18.4477 4 19C4 19.5523 4.44772 20 5 20H7C7.55229 20 8 19.5523 8 19C8 18.4477 7.55228 18 7 18H5ZM11 14H13C13.5523 14 14 14.4477 14 15C14 15.5523 13.5523 16 13 16H11C10.4477 16 10 15.5523 10 15C10 14.4477 10.4477 14 11 14ZM13 18H11C10.4477 18 10 18.4477 10 19C10 19.5523 10.4477 20 11 20H13C13.5523 20 14 19.5523 14 19C14 18.4477 13.5523 18 13 18ZM16 15C16 14.4477 16.4477 14 17 14H19C19.5523 14 20 14.4477 20 15C20 15.5523 19.5523 16 19 16H17C16.4477 16 16 15.5523 16 15ZM20 19C20 18.4477 19.5523 18 19 18H17C16.4477 18 16 18.4477 16 19C16 19.5523 16.4477 20 17 20H19C19.5523 20 20 19.5523 20 19ZM16 1V4C16 4.55228 16.4477 5 17 5C17.5523 5 18 4.55228 18 4V1C18 0.447715 17.5523 0 17 0C16.4477 0 16 0.447715 16 1Z" fill="#262626"/>
</svg>
