<svg width="24" height="24" viewBox="0 0 24 24" fill="none" xmlns="http://www.w3.org/2000/svg">
<path fill-rule="evenodd" clip-rule="evenodd" d="M6 7V5H2L2 10H22V5H18V7C18 7.55228 17.5523 8 17 8C16.4477 8 16 7.55228 16 7V5H8V7C8 7.55228 7.55229 8 7 8C6.44772 8 6 7.55228 6 7ZM16 3H8V1C8 0.447715 7.55229 0 7 0C6.44772 0 6 0.447715 6 1V3H2C0.895431 3 0 3.89543 0 5V22C0 23.1046 0.89543 24 2 24H22C23.1046 24 24 23.1046 24 22V5C24 3.89543 23.1046 3 22 3H18V1C18 0.447715 17.5523 0 17 0C16.4477 0 16 0.447715 16 1V3ZM2 12L2 22H22V12H2ZM8 15C8 14.4477 7.55228 14 7 14L5 14C4.44772 14 4 14.4477 4 15C4 15.5523 4.44772 16 5 16L7 16C7.55229 16 8 15.5523 8 15ZM7 18C7.55228 18 8 18.4477 8 19C8 19.5523 7.55229 20 7 20H5C4.44772 20 4 19.5523 4 19C4 18.4477 4.44772 18 5 18H7ZM13 14L11 14C10.4477 14 10 14.4477 10 15C10 15.5523 10.4477 16 11 16L13 16C13.5523 16 14 15.5523 14 15C14 14.4477 13.5523 14 13 14ZM11 18H13C13.5523 18 14 18.4477 14 19C14 19.5523 13.5523 20 13 20H11C10.4477 20 10 19.5523 10 19C10 18.4477 10.4477 18 11 18ZM20 15C20 14.4477 19.5523 14 19 14L17 14C16.4477 14 16 14.4477 16 15C16 15.5523 16.4477 16 17 16L19 16C19.5523 16 20 15.5523 20 15ZM16 19C16 18.4477 16.4477 18 17 18H19C19.5523 18 20 18.4477 20 19C20 19.5523 19.5523 20 19 20H17C16.4477 20 16 19.5523 16 19Z" fill="#262626"/>
</svg>
