<svg width="24" height="24" viewBox="0 0 24 24" fill="none" xmlns="http://www.w3.org/2000/svg">
<path fill-rule="evenodd" clip-rule="evenodd" d="M6.39538 4.64168L7.82668 5.59019L8.98091 4.31896C9.71037 3.51556 10.7854 3 11.9999 3C13.2145 3 14.2895 3.51558 15.019 4.31901L16.1732 5.59031L17.6046 4.64172C18.0536 4.34415 18.6003 4.16667 19.2 4.16667C20.7999 4.16667 22 5.41331 22 6.83333C22 7.86096 21.3832 8.7872 20.4241 9.23265L19.3649 9.72459L18.5519 20H5.44793L4.63492 9.72457L3.57581 9.2326C2.6168 8.78714 2 7.86093 2 6.83333C2 5.41331 3.20012 4.16667 4.8 4.16667C5.39965 4.16667 5.94639 4.34413 6.39538 4.64168ZM3.59992 22H20.3999L21.2666 11.0465C22.8832 10.2957 24 8.69132 24 6.83333C24 4.256 21.851 2.16667 19.2 2.16667C18.1987 2.16667 17.269 2.46474 16.4997 2.9746C15.4003 1.76371 13.7918 1 11.9999 1C10.208 1 8.59961 1.76368 7.5002 2.97453C6.7309 2.46471 5.80125 2.16667 4.8 2.16667C2.14903 2.16667 0 4.256 0 6.83333C0 8.69126 1.11676 10.2956 2.73326 11.0465L3.59992 22ZM17 10H7V12H17V10Z" fill="#262626"/>
</svg>
