<svg width="24" height="24" viewBox="0 0 24 24" fill="none" xmlns="http://www.w3.org/2000/svg">
<path fill-rule="evenodd" clip-rule="evenodd" d="M3.77046 9.06304C1.73756 9.42747 0.265434 11.3227 0.509035 13.4542L0.737606 15.4542C0.940958 17.2335 2.29154 18.6291 4 18.9367V20.5C4 21.3284 4.67157 22 5.5 22C6.32843 22 7 21.3284 7 20.5V19H17V20.5C17 21.3284 17.6716 22 18.5 22C19.3284 22 20 21.3284 20 20.5V18.9367C21.7084 18.6291 23.059 17.2335 23.2624 15.4542L23.4909 13.4542C23.7345 11.3227 22.2624 9.42749 20.2295 9.06304L18.5701 4.8912C18.1159 3.74939 17.0114 3 15.7825 3H8.21746C6.98863 3 5.88406 3.74939 5.42989 4.89119L3.77046 9.06304ZM18.0521 9L16.7117 5.6304C16.5603 5.2498 16.1922 5 15.7825 5L8.21746 5C7.80785 5 7.43966 5.2498 7.28827 5.6304L5.94795 9L18.0521 9ZM7 14C7 14.5523 6.55228 15 6 15C5.44772 15 5 14.5523 5 14C5 13.4477 5.44772 13 6 13C6.55228 13 7 13.4477 7 14ZM19 14C19 14.5523 18.5523 15 18 15C17.4477 15 17 14.5523 17 14C17 13.4477 17.4477 13 18 13C18.5523 13 19 13.4477 19 14Z" fill="#262626"/>
</svg>
