<svg width="24" height="24" viewBox="0 0 24 24" fill="none" xmlns="http://www.w3.org/2000/svg">
<path fill-rule="evenodd" clip-rule="evenodd" d="M11.7167 11.6111C13.8389 11.6111 15.752 12.5057 17.0997 13.9384L15.6059 15.4322C14.6412 14.3811 13.2559 13.7222 11.7167 13.7222C8.80187 13.7222 6.43893 16.0852 6.43893 19H4.32782C4.32782 14.9192 7.63594 11.6111 11.7167 11.6111ZM20.8991 17.4659L16.8884 21.4766L15.2352 21.7648L15.5234 20.1116L19.5341 16.1009C19.911 15.7239 20.5222 15.7239 20.8991 16.1009C21.2761 16.4778 21.2761 17.089 20.8991 17.4659ZM22.1848 18.7516L17.7674 23.169L13 24L13.831 19.2327L18.2485 14.8152C19.3354 13.7283 21.0978 13.7283 22.1848 14.8152C23.2718 15.9022 23.2718 17.6646 22.1848 18.7516Z" fill="#262626"/>
<path fill-rule="evenodd" clip-rule="evenodd" d="M12 8C13.6569 8 15 6.65685 15 5C15 3.34315 13.6569 2 12 2C10.3431 2 9 3.34315 9 5C9 6.65685 10.3431 8 12 8ZM12 10C14.7614 10 17 7.76142 17 5C17 2.23858 14.7614 0 12 0C9.23858 0 7 2.23858 7 5C7 7.76142 9.23858 10 12 10Z" fill="#262626"/>
</svg>
