<svg width="24" height="24" viewBox="0 0 24 24" fill="none" xmlns="http://www.w3.org/2000/svg">
<path fill-rule="evenodd" clip-rule="evenodd" d="M18 8C18 11.3137 15.3137 14 12 14C8.68629 14 6 11.3137 6 8C6 4.68629 8.68629 2 12 2C15.3137 2 18 4.68629 18 8ZM20 8C20 12.4183 16.4183 16 12 16C7.58172 16 4 12.4183 4 8C4 3.58172 7.58172 0 12 0C16.4183 0 20 3.58172 20 8ZM12 17C8.13401 17 5 20.134 5 24H7C7 21.2386 9.23858 19 12 19C14.7614 19 17 21.2386 17 24H19C19 20.134 15.866 17 12 17ZM11 8C11 8.55229 10.5523 9 10 9C9.44772 9 9 8.55229 9 8C9 7.44772 9.44772 7 10 7C10.5523 7 11 7.44772 11 8ZM14 9C14.5523 9 15 8.55229 15 8C15 7.44772 14.5523 7 14 7C13.4477 7 13 7.44772 13 8C13 8.55229 13.4477 9 14 9Z" fill="#262626"/>
</svg>
