<svg width="24" height="24" viewBox="0 0 24 24" fill="none" xmlns="http://www.w3.org/2000/svg">
<path fill-rule="evenodd" clip-rule="evenodd" d="M13 6C13 8.20914 11.2091 10 9 10C6.79086 10 5 8.20914 5 6C5 3.79086 6.79086 2 9 2C11.2091 2 13 3.79086 13 6ZM15 6C15 9.31371 12.3137 12 9 12C5.68629 12 3 9.31371 3 6C3 2.68629 5.68629 0 9 0C12.3137 0 15 2.68629 15 6ZM2 22C2 18.134 5.13401 15 9 15C12.866 15 16 18.134 16 22V24H18V22C18 17.0294 13.9706 13 9 13C4.02944 13 0 17.0294 0 22V24H2V22ZM19 7C19 5.34315 17.6569 4 16 4V2C18.7614 2 21 4.23858 21 7C21 8.90071 19.9394 10.5537 18.3778 11.3995C21.6942 12.5511 24 16.0483 24 20H22C22 16.0044 19.1925 13 16 13V12V11V10C17.6569 10 19 8.65685 19 7Z" fill="#262626"/>
</svg>
