<svg width="25" height="24" viewBox="0 0 25 24" fill="none" xmlns="http://www.w3.org/2000/svg">
<path fill-rule="evenodd" clip-rule="evenodd" d="M3.48673 19V17H1.0044C0.237047 17 -0.244376 16.1714 0.135641 15.5048L2.98855 10.5C2.98855 4.70126 7.68936 0 13.4881 0C21.9282 0 26.9188 9.45374 22.1574 16.4226L21.4214 17.5V24H8.96676V22H6.48673C4.82988 22 3.48673 20.6569 3.48673 19ZM15.4447 7C15.7198 7 15.9428 6.77614 15.9428 6.5C15.9428 6.22386 15.7198 6 15.4447 6C15.1695 6 14.9465 6.22386 14.9465 6.5C14.9465 6.77614 15.1695 7 15.4447 7ZM15.4447 9C16.8204 9 17.9356 7.88071 17.9356 6.5C17.9356 5.11929 16.8204 4 15.4447 4C14.069 4 12.9537 5.11929 12.9537 6.5C12.9537 7.0739 13.1464 7.60264 13.4704 8.0246L13.1449 8.56898L10.9587 7.39873C10.9057 6.06497 9.81166 5 8.46976 5C7.09407 5 5.97884 6.11929 5.97884 7.5C5.97884 8.88071 7.09407 10 8.46976 10C9.15491 10 9.77545 9.72237 10.2258 9.27309L12.1184 10.2861L11.6856 11.0101C11.6112 11.0034 11.536 11 11.4599 11C10.0842 11 8.96899 12.1193 8.96899 13.5C8.96899 14.8807 10.0842 16 11.4599 16C12.8356 16 13.9508 14.8807 13.9508 13.5C13.9508 12.9257 13.7579 12.3966 13.4335 11.9745L13.8793 11.2287L15.9478 12.336C15.9443 12.3902 15.9425 12.4449 15.9425 12.5C15.9425 13.8807 17.0578 15 18.4335 15C19.8092 15 20.9244 13.8807 20.9244 12.5C20.9244 11.1193 19.8092 10 18.4335 10C17.8382 10 17.2916 10.2096 16.8631 10.5592L14.9059 9.51158L15.2178 8.98977C15.2925 8.99654 15.3682 9 15.4447 9ZM8.46976 8C8.7449 8 8.96795 7.77614 8.96795 7.5C8.96795 7.22386 8.7449 7 8.46976 7C8.19462 7 7.97158 7.22386 7.97158 7.5C7.97158 7.77614 8.19462 8 8.46976 8ZM18.4335 13C18.7086 13 18.9316 12.7761 18.9316 12.5C18.9316 12.2239 18.7086 12 18.4335 12C18.1583 12 17.9353 12.2239 17.9353 12.5C17.9353 12.7761 18.1583 13 18.4335 13ZM11.9581 13.5C11.9581 13.7761 11.7351 14 11.4599 14C11.1848 14 10.9617 13.7761 10.9617 13.5C10.9617 13.2239 11.1848 13 11.4599 13C11.7351 13 11.9581 13.2239 11.9581 13.5Z" fill="#262626"/>
</svg>
