<svg width="24" height="24" viewBox="0 0 24 24" fill="none" xmlns="http://www.w3.org/2000/svg">
<path fill-rule="evenodd" clip-rule="evenodd" d="M6 2H18V11H8V9H6V2ZM4 13V11V2C4 0.89543 4.89543 0 6 0H18C19.1046 0 20 0.895431 20 2V11V13V22C20 23.1046 19.1046 24 18 24H6C4.89543 24 4 23.1046 4 22V13ZM18 13V22H6V15H8V13H18ZM13.4981 14L15.2847 17.8695C15.9487 19.3078 14.983 21 13.4981 21C12.0133 21 11.0475 19.3078 11.7116 17.8695L13.4981 14ZM12.4981 3H14.4981V4.69594L15.9363 3.79723L16.9962 5.49333L15.3852 6.50001L16.9962 7.50667L15.9363 9.20276L14.4981 8.30407V10H12.4981V8.30403L11.0598 9.20276L10 7.50667L11.611 6.50001L9.99998 5.49333L11.0598 3.79723L12.4981 4.69598V3Z" fill="#262626"/>
</svg>
