<svg width="24" height="24" viewBox="0 0 24 24" fill="none" xmlns="http://www.w3.org/2000/svg">
<path fill-rule="evenodd" clip-rule="evenodd" d="M2 15H0V9H2L1.999 11L3.0549 11.0003C3.24671 9.26456 3.93214 7.67757 4.96769 6.38282L4 5.414L3.29289 6.12132L1.87868 4.70711L4.70711 1.87868L6.12132 3.29289L5.414 4L6.38282 4.96769C7.67757 3.93214 9.26456 3.24671 11.0003 3.0549L11 2H9V0H15V2H13L13.0007 3.05501C14.736 3.24698 16.3227 3.93234 17.6172 4.96769L18.586 4L17.8787 3.29289L19.2929 1.87868L22.1213 4.70711L20.7071 6.12132L20 5.414L19.0323 6.38282C20.0679 7.67757 20.7533 9.26456 20.9451 11.0003L22 11V9H24V15H22V13L20.945 13.0007C20.7497 14.7663 20.0436 16.378 18.9778 17.6846L19.939 18.646L20.7071 17.8787L22.1213 19.2929L19.2929 22.1213L17.8787 20.7071L18.525 20.06L17.5496 19.0858C16.2677 20.0913 14.706 20.7563 13.0007 20.945L13 22H15V24H9V22H11L11.0003 20.9451C9.29463 20.7566 7.7326 20.0915 6.45037 19.0858L5.474 20.06L6.12132 20.7071L4.70711 22.1213L1.87868 19.2929L3.29289 17.8787L4.06 18.646L5.02218 17.6846C3.95639 16.378 3.25032 14.7663 3.05501 13.0007L2 13V15ZM12 5C8.13401 5 5 8.13401 5 12C5 15.866 8.13401 19 12 19C15.866 19 19 15.866 19 12C19 8.13401 15.866 5 12 5ZM10 15C10.5523 15 11 15.4477 11 16C11 16.5523 10.5523 17 10 17C9.44771 17 9 16.5523 9 16C9 15.4477 9.44771 15 10 15ZM15 14C15.5523 14 16 14.4477 16 15C16 15.5523 15.5523 16 15 16C14.4477 16 14 15.5523 14 15C14 14.4477 14.4477 14 15 14ZM10 7C11.6569 7 13 8.34315 13 10C13 11.6569 11.6569 13 10 13C8.34315 13 7 11.6569 7 10C7 8.34315 8.34315 7 10 7ZM16 9C16.5523 9 17 9.44771 17 10C17 10.5523 16.5523 11 16 11C15.4477 11 15 10.5523 15 10C15 9.44771 15.4477 9 16 9ZM10 9C9.44771 9 9 9.44771 9 10C9 10.5523 9.44771 11 10 11C10.5523 11 11 10.5523 11 10C11 9.44771 10.5523 9 10 9Z" fill="#262626"/>
</svg>
