<svg width="24" height="24" viewBox="0 0 24 24" fill="none" xmlns="http://www.w3.org/2000/svg">
<mask id="path-1-inside-1" fill="white">
<path fill-rule="evenodd" clip-rule="evenodd" d="M9 1C9 0.447715 9.44772 0 10 0H14C14.5523 0 15 0.447715 15 1V20H9V1ZM2 12C1.44772 12 1 12.4477 1 13V20H7V13C7 12.4477 6.55228 12 6 12H2ZM24 22H0V24H24V22ZM18 6C17.4477 6 17 6.44772 17 7V20H23V7C23 6.44772 22.5523 6 22 6H18Z"/>
</mask>
<path fill-rule="evenodd" clip-rule="evenodd" d="M9 1C9 0.447715 9.44772 0 10 0H14C14.5523 0 15 0.447715 15 1V20H9V1ZM2 12C1.44772 12 1 12.4477 1 13V20H7V13C7 12.4477 6.55228 12 6 12H2ZM24 22H0V24H24V22ZM18 6C17.4477 6 17 6.44772 17 7V20H23V7C23 6.44772 22.5523 6 22 6H18Z" fill="#262626"/>
<path d="M15 20V22H17V20H15ZM9 20H7V22H9V20ZM1 20H-1V22H1V20ZM7 20V22H9V20H7ZM0 22V20H-2V22H0ZM24 22H26V20H24V22ZM0 24H-2V26H0V24ZM24 24V26H26V24H24ZM17 20H15V22H17V20ZM23 20V22H25V20H23ZM10 -2C8.34315 -2 7 -0.656854 7 1H11C11 1.55229 10.5523 2 10 2V-2ZM14 -2H10V2H14V-2ZM17 1C17 -0.656855 15.6569 -2 14 -2V2C13.4477 2 13 1.55229 13 1H17ZM17 20V1H13V20H17ZM9 22H15V18H9V22ZM7 1V20H11V1H7ZM3 13C3 13.5523 2.55229 14 2 14V10C0.343145 10 -1 11.3431 -1 13H3ZM3 20V13H-1V20H3ZM7 18H1V22H7V18ZM5 13V20H9V13H5ZM6 14C5.44771 14 5 13.5523 5 13H9C9 11.3431 7.65685 10 6 10V14ZM2 14H6V10H2V14ZM0 24H24V20H0V24ZM2 24V22H-2V24H2ZM24 22H0V26H24V22ZM22 22V24H26V22H22ZM19 7C19 7.55228 18.5523 8 18 8V4C16.3431 4 15 5.34315 15 7H19ZM19 20V7H15V20H19ZM23 18H17V22H23V18ZM21 7V20H25V7H21ZM22 8C21.4477 8 21 7.55229 21 7H25C25 5.34315 23.6569 4 22 4V8ZM18 8H22V4H18V8Z" fill="#262626" mask="url(#path-1-inside-1)"/>
</svg>
