<svg width="24" height="24" viewBox="0 0 24 24" fill="none" xmlns="http://www.w3.org/2000/svg">
<path fill-rule="evenodd" clip-rule="evenodd" d="M10.9565 8C12.6134 8 13.9565 6.65685 13.9565 5C13.9565 3.34315 12.6134 2 10.9565 2C9.29969 2 7.95654 3.34315 7.95654 5C7.95654 6.65685 9.29969 8 10.9565 8ZM10.9565 10C13.718 10 15.9565 7.76142 15.9565 5C15.9565 2.23858 13.718 0 10.9565 0C8.19512 0 5.95654 2.23858 5.95654 5C5.95654 7.76142 8.19512 10 10.9565 10ZM20.0569 11.5858C19.2758 10.8047 18.0095 10.8047 17.2285 11.5858L15.8143 13C15.0332 13.781 15.0332 15.0474 15.8143 15.8284L16.6856 16.6997L12.1071 21.2782L11.4 21.9853L12.8142 23.3995L13.5213 22.6924L18.0998 18.114L19.0496 19.0637C19.8306 19.8448 21.0969 19.8448 21.878 19.0637L23.2922 17.6495C24.0733 16.8685 24.0733 15.6021 23.2922 14.8211L20.0569 11.5858ZM18.6427 13L21.878 16.2353L20.4638 17.6495L17.2285 14.4142L18.6427 13ZM11 11C12.1352 11 13.2095 11.2709 14.1594 11.7521L12.6014 13.2617C12.0993 13.092 11.5609 13 11 13C8.23858 13 6 15.2386 6 18H4C4 14.134 7.13401 11 11 11Z" fill="#262626"/>
</svg>
