<svg width="24" height="24" viewBox="0 0 24 24" fill="none" xmlns="http://www.w3.org/2000/svg">
<path fill-rule="evenodd" clip-rule="evenodd" d="M12 8C13.6569 8 15 6.65685 15 5C15 3.34315 13.6569 2 12 2C10.3431 2 9 3.34315 9 5C9 6.65685 10.3431 8 12 8ZM12 10C14.7614 10 17 7.76142 17 5C17 2.23858 14.7614 0 12 0C9.23858 0 7 2.23858 7 5C7 7.76142 9.23858 10 12 10ZM14.0829 21.0029L21.2929 13.7929L22.7071 15.2071L13.9171 23.9971L11.2191 20.6247L12.7809 19.3753L14.0829 21.0029ZM12 13C9.23858 13 7 15.2386 7 18H5C5 14.134 8.13401 11 12 11C14.5234 11 16.735 12.3353 17.9667 14.3378L16.4956 15.8089C15.6835 14.1457 13.9755 13 12 13Z" fill="#262626"/>
</svg>
