<svg width="24" height="24" viewBox="0 0 24 24" fill="none" xmlns="http://www.w3.org/2000/svg">
<path fill-rule="evenodd" clip-rule="evenodd" d="M9.99998 3C9.44769 3 8.99998 3.44772 8.99998 4V5H15V4C15 3.44772 14.5523 3 14 3H9.99998ZM17 5V4C17 2.34315 15.6568 1 14 1H9.99998C8.34312 1 6.99998 2.34315 6.99998 4V5H3.93109H2V7H4.06442L4.87773 19.1996C4.98279 20.7754 6.29169 22 7.87108 22H16.1289C17.7083 22 19.0172 20.7754 19.1222 19.1996L19.9355 7H22V5H20.0689H17ZM17.9311 7H6.06886L6.8733 19.0665C6.90832 19.5918 7.34462 20 7.87108 20H16.1289C16.6553 20 17.0916 19.5918 17.1267 19.0665L17.9311 7ZM9 18V9H11V18H9ZM13 18V9H15V18H13Z" fill="#262626"/>
</svg>
