<svg width="24" height="24" viewBox="0 0 24 24" fill="none" xmlns="http://www.w3.org/2000/svg">
<path fill-rule="evenodd" clip-rule="evenodd" d="M20 0C22.1422 0 23.8911 1.68397 23.9951 3.80036L24 4V15C24 17.1422 22.316 18.8911 20.1996 18.9951L20 19H7L0 24V4C0 1.8578 1.68397 0.108921 3.80036 0.00489531L4 0H20ZM20 2L3.85074 2.00549C2.86762 2.07802 2.08214 2.86123 2.00604 3.84335L2 4V20L6 17H20C20.9856 16.9273 21.9079 16.1354 21.9935 15.1493L22 15L21.9945 3.85074C21.922 2.86762 21.1388 2.08214 20.1567 2.00604L20 2ZM17.0465 5L18.4456 6.4292L9.71768 14.828L6 11.347L7.39515 9.91401L9.71359 12.0322L17.0465 5Z" fill="#262626"/>
</svg>
