<svg width="24" height="24" viewBox="0 0 24 24" fill="none" xmlns="http://www.w3.org/2000/svg">
<path fill-rule="evenodd" clip-rule="evenodd" d="M0 4C0 1.79086 1.79086 0 4 0H20C22.2091 0 24 1.79086 24 4V15C24 17.2091 22.2091 19 20 19H7L0 24V4ZM21.9945 3.85074C21.9182 2.81588 21.0544 2 20 2L3.85074 2.00549C2.81588 2.08183 2 2.94564 2 4V20L6 17H20C21.0349 16.9237 22 16.0544 22 15L21.9945 3.85074ZM10.5 13.5C10.5 12.6716 11.1716 12 12 12C12.8284 12 13.5 12.6716 13.5 13.5C13.5 14.3284 12.8284 15 12 15C11.1716 15 10.5 14.3284 10.5 13.5ZM11 4H13V10H11V4Z" fill="#262626"/>
</svg>
