<svg width="24" height="24" viewBox="0 0 24 24" fill="none" xmlns="http://www.w3.org/2000/svg">
<path fill-rule="evenodd" clip-rule="evenodd" d="M4 0C1.79086 0 0 1.79086 0 4V24L7 19H20C22.2091 19 24 17.2091 24 15V4C24 1.79086 22.2091 0 20 0H4ZM7 9C6.44772 9 6 9.44771 6 10C6 10.5523 6.44772 11 7 11C7.55228 11 8 10.5523 8 10C8 9.44771 7.55228 9 7 9ZM12 9C11.4477 9 11 9.44771 11 10C11 10.5523 11.4477 11 12 11C12.5523 11 13 10.5523 13 10C13 9.44771 12.5523 9 12 9ZM17 9C16.4477 9 16 9.44771 16 10C16 10.5523 16.4477 11 17 11C17.5523 11 18 10.5523 18 10C18 9.44771 17.5523 9 17 9Z" fill="#262626"/>
</svg>
