<svg width="24" height="24" viewBox="0 0 24 24" fill="none" xmlns="http://www.w3.org/2000/svg">
<path fill-rule="evenodd" clip-rule="evenodd" d="M1 1C1 0.447715 1.44772 0 2 0H4C5.65685 0 7 1.34315 7 3V7H16C17.6569 7 19 8.34315 19 10V15H22C22.5523 15 23 15.4477 23 16C23 16.5523 22.5523 17 22 17H17V10C17 9.44772 16.5523 9 16 9H5V3C5 2.44772 4.55228 2 4 2H2C1.44772 2 1 1.55228 1 1ZM15 17C15 20.866 11.866 24 8 24C4.13401 24 1 20.866 1 17C1 13.134 4.13401 10 8 10C11.866 10 15 13.134 15 17ZM19 24C20.6569 24 22 22.6569 22 21C22 19.3431 20.6569 18 19 18C17.3431 18 16 19.3431 16 21C16 22.6569 17.3431 24 19 24Z" fill="#262626"/>
</svg>
