<svg width="24" height="24" viewBox="0 0 24 24" fill="none" xmlns="http://www.w3.org/2000/svg">
<path fill-rule="evenodd" clip-rule="evenodd" d="M4 3V5H20V3H4ZM4 12V7H20V12C20 9.79086 18.2091 8 16 8C15.2714 8 14.5883 8.19479 14 8.53513C13.4117 8.19479 12.7286 8 12 8C11.2714 8 10.5883 8.19479 10 8.53513C9.41165 8.19479 8.72858 8 8 8C5.79086 8 4 9.79086 4 12ZM12.4995 10.0629C12.3398 10.0218 12.1725 10 12 10C10.8954 10 10 10.8954 10 12H12C12 11.2972 12.1812 10.6368 12.4995 10.0629ZM14 12H18C18 10.8954 17.1046 10 16 10C14.8954 10 14 10.8954 14 12ZM8 10C8.17247 10 8.33985 10.0218 8.49951 10.0629C8.18123 10.6368 8 11.2972 8 12H6C6 10.8954 6.89543 10 8 10ZM2 2V12H1.30922C0.649847 12 0.170964 12.627 0.344457 13.2631L2.799 22.2631C2.91766 22.6982 3.31281 23 3.76377 23H20.2362C20.6871 23 21.0823 22.6982 21.2009 22.2631L23.6555 13.2631C23.829 12.627 23.3501 12 22.6907 12H22V2C22 1.44772 21.5523 1 21 1H3C2.44772 1 2 1.44772 2 2ZM4.52756 21L2.61847 14H21.3815L19.4724 21H4.52756ZM15 18V16H9V18H15Z" fill="#262626"/>
</svg>
