<svg width="24" height="24" viewBox="0 0 24 24" fill="none" xmlns="http://www.w3.org/2000/svg">
<path fill-rule="evenodd" clip-rule="evenodd" d="M11 5C11 3.34315 12.3431 2 14 2H16C17.6569 2 19 3.34315 19 5V24H21V5C21 2.23858 18.7614 0 16 0H14C11.2386 0 9 2.23858 9 5H11ZM5.60366 16.1998C5.60072 16.1979 5.57956 16.1903 5.54681 16.1791L5 8H3L3.87798 21.1996C3.98304 22.7755 5.29194 24 6.87133 24H13.1291C14.7085 24 16.0174 22.7755 16.1225 21.1996L17 8H15L14.433 16.4849C13.867 16.2293 13.1122 16 12.2226 16C11.1895 16 10.3418 16.3143 9.67383 16.5627C8.9679 16.8251 8.48817 17 7.95356 17C7.41198 17 6.82404 16.8127 6.33036 16.5891C6.092 16.4811 5.89368 16.373 5.75678 16.293C5.68867 16.2531 5.63673 16.2208 5.60366 16.1998ZM12.3141 9.91303L10.0001 6.05635L7.6861 9.91303C6.6069 11.7117 7.90252 14 10.0001 14C12.0977 14 13.3933 11.7117 12.3141 9.91303Z" fill="#262626"/>
</svg>
