<svg width="24" height="24" viewBox="0 0 24 24" fill="none" xmlns="http://www.w3.org/2000/svg">
<path fill-rule="evenodd" clip-rule="evenodd" d="M2 0C0.895431 0 0 0.89543 0 2V22C0 23.1046 0.89543 24 2 24H22C23.1046 24 24 23.1046 24 22V2C24 0.895431 23.1046 0 22 0H2ZM10.7072 6.70695L7.00008 2.99985L3.29297 6.70695L4.70718 8.12117L6 6.82835V11H8V6.8282L9.29297 8.12117L10.7072 6.70695ZM18.0001 6C18.0001 7.10457 17.1047 8 16.0001 8C14.8955 8 14.0001 7.10457 14.0001 6C14.0001 4.89543 14.8955 4 16.0001 4C17.1047 4 18.0001 4.89543 18.0001 6ZM14.0001 9C13.4478 9 13.0001 9.44772 13.0001 10V15H14.0001V20H18.0001V15H19.0001V10C19.0001 9.44772 18.5524 9 18.0001 9H14.0001ZM6.99992 21.0041L3.29282 17.297L4.70703 15.8827L6 17.1757V13H8V17.1756L9.29282 15.8827L10.707 17.297L6.99992 21.0041Z" fill="#262626"/>
</svg>
