<svg width="24" height="24" viewBox="0 0 24 24" fill="none" xmlns="http://www.w3.org/2000/svg">
<path fill-rule="evenodd" clip-rule="evenodd" d="M24 1C24 0.447715 23.5523 -1.95703e-08 23 -4.37114e-08L1 -1.00536e-06C0.447716 -1.0295e-06 -1.95703e-08 0.447715 -4.37114e-08 0.999999L-1.00536e-06 23C-1.0295e-06 23.5523 0.447715 24 0.999999 24L23 24C23.5523 24 24 23.5523 24 23L24 1ZM10.5 6.5C10.5 7.32843 11.1716 8 12 8C12.8284 8 13.5 7.32843 13.5 6.5C13.5 5.67157 12.8284 5 12 5C11.1716 5 10.5 5.67157 10.5 6.5ZM10.5 12C10.5 12.8284 11.1716 13.5 12 13.5C12.8284 13.5 13.5 12.8284 13.5 12C13.5 11.1716 12.8284 10.5 12 10.5C11.1716 10.5 10.5 11.1716 10.5 12ZM12 19C11.1716 19 10.5 18.3284 10.5 17.5C10.5 16.6716 11.1716 16 12 16C12.8284 16 13.5 16.6716 13.5 17.5C13.5 18.3284 12.8284 19 12 19Z" fill="#262626"/>
</svg>
