<svg width="24" height="24" viewBox="0 0 24 24" fill="none" xmlns="http://www.w3.org/2000/svg">
<path fill-rule="evenodd" clip-rule="evenodd" d="M0.210623 7.51518L10.4732 13.0282L10.4789 13.0312L10.4789 13.0312L12 13.8609L13.5211 13.0312L13.5268 13.0281L13.5268 13.0282L23.7894 7.51518L12 1L0.210623 7.51518ZM24 9.67234L15.9314 14.0067L24 19.4557V9.67234ZM23.3783 21.4492L13.9446 15.0784L12.4789 15.8779L12 16.1391L11.5211 15.8779L10.0554 15.0784L0.621651 21.4492C0.980399 21.7905 1.46574 22 2 22H22C22.5343 22 23.0196 21.7905 23.3783 21.4492ZM0 19.4557L8.06862 14.0067L0 9.67234V19.4557Z" fill="#262626"/>
</svg>
