<svg width="24" height="24" viewBox="0 0 24 24" fill="none" xmlns="http://www.w3.org/2000/svg">
<path d="M1 8.2L0.518081 7.32378L0 7.60873V8.2H1ZM23 8.2H24V7.60873L23.4819 7.32378L23 8.2ZM12 2.15L12.4819 1.27378L12 1.00873L11.5181 1.27378L12 2.15ZM12 15L11.5211 15.8779L12 16.1391L12.4789 15.8779L12 15ZM22 20H2V22H22V20ZM1.48192 9.07622L12.4819 3.02622L11.5181 1.27378L0.518081 7.32378L1.48192 9.07622ZM11.5181 3.02622L22.5181 9.07622L23.4819 7.32378L12.4819 1.27378L11.5181 3.02622ZM22 8.2V9H24V8.2H22ZM2 9V8.2H0V9H2ZM22 9V20H24V9H22ZM22.5211 8.1221L13.5211 13.0312L14.4789 14.787L23.4789 9.8779L22.5211 8.1221ZM13.5211 13.0312L11.5211 14.1221L12.4789 15.8779L14.4789 14.787L13.5211 13.0312ZM23.5605 19.1718L14.5605 13.0809L13.4395 14.7373L22.4395 20.8282L23.5605 19.1718ZM2 20V9H0V20H2ZM12.4789 14.1221L10.4789 13.0312L9.52115 14.787L11.5211 15.8779L12.4789 14.1221ZM10.4789 13.0312L1.47885 8.1221L0.521148 9.8779L9.52115 14.787L10.4789 13.0312ZM1.56048 20.8282L10.5605 14.7373L9.43952 13.0809L0.439522 19.1718L1.56048 20.8282ZM2 20H2H0C0 21.1046 0.895431 22 2 22V20ZM22 22C23.1046 22 24 21.1046 24 20H22V22Z" fill="#262626"/>
</svg>
