<svg width="24" height="24" viewBox="0 0 24 24" fill="none" xmlns="http://www.w3.org/2000/svg">
<path fill-rule="evenodd" clip-rule="evenodd" d="M18.3208 19.7494C16.5981 21.1562 14.3976 22 12 22C6.47715 22 2 17.5228 2 12C2 9.6024 2.84378 7.40187 4.2506 5.67917L18.3208 19.7494ZM19.7494 18.3208L5.67917 4.2506C7.40187 2.84378 9.6024 2 12 2C17.5228 2 22 6.47715 22 12C22 14.3976 21.1562 16.5981 19.7494 18.3208ZM24 12C24 18.6274 18.6274 24 12 24C5.37258 24 0 18.6274 0 12C0 5.37258 5.37258 0 12 0C18.6274 0 24 5.37258 24 12Z" fill="#262626"/>
</svg>
