<svg width="24" height="24" viewBox="0 0 24 24" fill="none" xmlns="http://www.w3.org/2000/svg">
<path d="M11.6836 0.585361C11.7435 0.401105 12.0041 0.401105 12.064 0.585362L12.5383 2.04506C12.5651 2.12746 12.6419 2.18325 12.7286 2.18325H14.2632C14.4569 2.18325 14.5375 2.43117 14.3807 2.54505L13.1391 3.44712C13.069 3.49805 13.0397 3.58833 13.0664 3.67074L13.5407 5.13034C13.6006 5.3146 13.3897 5.46783 13.233 5.35394L11.9914 4.45183C11.9213 4.4009 11.8263 4.4009 11.7563 4.45183L10.5146 5.35397C10.3578 5.46785 10.1469 5.31462 10.2068 5.13036L10.6811 3.67074C10.7079 3.58833 10.6785 3.49805 10.6084 3.44712L9.36682 2.54505C9.21008 2.43117 9.29063 2.18325 9.48438 2.18325H11.0191C11.1057 2.18325 11.1825 2.12746 11.2093 2.04506L11.6836 0.585361Z" fill="#262626"/>
<path d="M3.72187 3.991C3.63391 3.81837 3.81823 3.63404 3.99086 3.72199L5.38403 4.43175C5.46122 4.47108 5.55497 4.45623 5.61623 4.39497L6.72162 3.28964C6.85862 3.15264 7.09089 3.271 7.06057 3.46236L6.81595 5.00634C6.80239 5.09192 6.84548 5.1765 6.92269 5.21584L8.31573 5.92562C8.48835 6.01358 8.44758 6.27105 8.25622 6.30136L6.71211 6.54594C6.62654 6.55949 6.55942 6.62661 6.54587 6.71219L6.30129 8.25637C6.27098 8.44773 6.01351 8.48851 5.92555 8.31588L5.21577 6.92284C5.17643 6.84564 5.09185 6.80254 5.00627 6.8161L3.46232 7.06072C3.27095 7.09104 3.1526 6.85877 3.2896 6.72177L4.39497 5.61639C4.45624 5.55513 4.47109 5.46137 4.43175 5.38417L3.72187 3.991Z" fill="#262626"/>
<path d="M0.585361 12.2186C0.401105 12.1587 0.401105 11.898 0.585362 11.8381L2.15739 11.3273C2.23979 11.3005 2.29558 11.2238 2.29558 11.1371V9.48437C2.29558 9.29062 2.54351 9.21007 2.65739 9.36682L3.62879 10.704C3.67971 10.7741 3.76999 10.8034 3.8524 10.7767L5.42439 10.2659C5.60866 10.206 5.76189 10.4169 5.64799 10.5737L4.6764 11.9108C4.62546 11.9809 4.62546 12.0758 4.6764 12.1459L5.64802 13.4831C5.76191 13.6398 5.60869 13.8507 5.42442 13.7909L3.85239 13.2801C3.76999 13.2533 3.67971 13.2827 3.62879 13.3528L2.65739 14.6899C2.54351 14.8467 2.29558 14.7661 2.29558 14.5724V12.9196C2.29558 12.8329 2.23979 12.7562 2.15739 12.7294L0.585361 12.2186Z" fill="#262626"/>
<path d="M3.99086 20.0891C3.81823 20.177 3.63391 19.9927 3.72186 19.8201L4.43169 18.4269C4.47103 18.3497 4.45618 18.2559 4.39492 18.1947L3.28959 17.0893C3.15259 16.9523 3.27096 16.72 3.46232 16.7503L5.00638 16.995C5.09197 17.0086 5.17655 16.9655 5.21589 16.8883L5.92553 15.4953C6.01348 15.3226 6.27096 15.3634 6.30128 15.5548L6.54591 17.0989C6.55947 17.1845 6.62659 17.2516 6.71216 17.2651L8.25628 17.5097C8.44763 17.54 8.48841 17.7975 8.31579 17.8854L6.92289 18.5952C6.8457 18.6346 6.80261 18.7191 6.81616 18.8047L7.06069 20.3488C7.09099 20.5401 6.85872 20.6585 6.72173 20.5215L5.61627 19.416C5.55501 19.3548 5.46126 19.3399 5.38406 19.3793L3.99086 20.0891Z" fill="#262626"/>
<path d="M12.064 23.1204C12.0041 23.3047 11.7435 23.3047 11.6836 23.1205L11.2092 21.6608C11.1824 21.5784 11.1056 21.5226 11.019 21.5226H9.4844C9.29066 21.5226 9.2101 21.2746 9.36685 21.1608L10.6085 20.2587C10.6786 20.2078 10.7079 20.1175 10.6812 20.0351L10.2068 18.5756C10.1469 18.3914 10.3578 18.2381 10.5146 18.352L11.7563 19.254C11.8264 19.3049 11.9213 19.3049 11.9914 19.254L13.233 18.352C13.3897 18.2381 13.6006 18.3914 13.5407 18.5756L13.0665 20.0351C13.0397 20.1175 13.069 20.2078 13.1391 20.2587L14.3807 21.1608C14.5375 21.2746 14.4569 21.5226 14.2632 21.5226H12.7285C12.6418 21.5226 12.565 21.5784 12.5383 21.6608L12.064 23.1204Z" fill="#262626"/>
<path d="M20.0891 19.8201C20.177 19.9928 19.9927 20.1771 19.8201 20.0892L18.427 19.3794C18.3498 19.3401 18.2561 19.3549 18.1948 19.4162L17.0893 20.5217C16.9523 20.6587 16.72 20.5403 16.7503 20.3489L16.995 18.8047C17.0085 18.7191 16.9654 18.6345 16.8882 18.5952L15.4953 17.8855C15.3227 17.7975 15.3634 17.54 15.5548 17.5097L17.0989 17.2652C17.1845 17.2516 17.2516 17.1845 17.2651 17.0989L17.5097 15.5548C17.54 15.3634 17.7975 15.3226 17.8854 15.4953L18.5952 16.8883C18.6345 16.9655 18.7191 17.0086 18.8047 16.9951L20.3487 16.7504C20.5401 16.72 20.6584 16.9523 20.5214 17.0893L19.416 18.1949C19.3547 18.2562 19.3399 18.3499 19.3792 18.4271L20.0891 19.8201Z" fill="#262626"/>
<path d="M23.4144 11.8382C23.5987 11.8981 23.5987 12.1588 23.4145 12.2187L21.8424 12.7295C21.76 12.7563 21.7042 12.8331 21.7042 12.9197V14.5726C21.7042 14.7663 21.4563 14.8469 21.3424 14.6901L20.3709 13.3528C20.3199 13.2827 20.2297 13.2534 20.1473 13.2802L18.5754 13.791C18.3912 13.8508 18.2379 13.64 18.3518 13.4832L19.3233 12.146C19.3743 12.0759 19.3743 11.981 19.3233 11.9109L18.3518 10.5737C18.2379 10.4169 18.3912 10.206 18.5754 10.2659L20.1473 10.7767C20.2297 10.8035 20.32 10.7742 20.371 10.7041L21.3424 9.36682C21.4563 9.21007 21.7042 9.29062 21.7042 9.48437V11.1373C21.7042 11.2239 21.76 11.3007 21.8424 11.3275L23.4144 11.8382Z" fill="#262626"/>
<path d="M19.82 3.72203C19.9927 3.63407 20.177 3.8184 20.089 3.99102L19.3792 5.38419C19.3399 5.46139 19.3547 5.55514 19.416 5.61641L20.5214 6.72179C20.6584 6.85879 20.54 7.09107 20.3487 7.06075L18.8045 6.81606C18.719 6.8025 18.6344 6.8456 18.595 6.92281L17.8854 8.31578C17.7975 8.48842 17.54 8.44765 17.5097 8.25629L17.2651 6.71221C17.2515 6.62664 17.1844 6.55952 17.0988 6.54596L15.5547 6.30132C15.3634 6.271 15.3226 6.01354 15.4952 5.92558L16.8882 5.21585C16.9654 5.17652 17.0085 5.09194 16.9949 5.00635L16.7503 3.46238C16.72 3.27102 16.9522 3.15266 17.0892 3.28965L18.1948 4.39506C18.2561 4.45632 18.3498 4.47116 18.427 4.43183L19.82 3.72203Z" fill="#262626"/>
</svg>
