<svg width="24" height="24" viewBox="0 0 24 24" fill="none" xmlns="http://www.w3.org/2000/svg">
<path fill-rule="evenodd" clip-rule="evenodd" d="M0 2C0 0.89543 0.895431 0 2 0H22C23.1046 0 24 0.895431 24 2V22C24 23.1046 23.1046 24 22 24H2C0.89543 24 0 23.1046 0 22V2ZM11.6942 1.58536C11.754 1.4011 12.0147 1.40111 12.0746 1.58536L12.4898 2.86313C12.5166 2.94553 12.5934 3.00132 12.68 3.00132H14.0233C14.2171 3.00132 14.2976 3.24925 14.1409 3.36313L13.054 4.15276C12.9839 4.20369 12.9546 4.29397 12.9814 4.37637L13.3966 5.65405C13.4564 5.83831 13.2455 5.99154 13.0888 5.87766L12.0019 5.08798C11.9318 5.03705 11.8369 5.03705 11.7668 5.08798L10.6799 5.87768C10.5231 5.99156 10.3123 5.83833 10.3721 5.65407L10.7873 4.37637C10.8141 4.29397 10.7848 4.20369 10.7147 4.15276L9.6278 3.36313C9.47105 3.24925 9.55161 3.00132 9.74535 3.00132H11.0888C11.1754 3.00132 11.2522 2.94553 11.279 2.86313L11.6942 1.58536ZM4.704 4.43512C4.53138 4.34717 4.34706 4.5315 4.43502 4.70413L5.05696 5.92473C5.0963 6.00193 5.08145 6.09568 5.02018 6.15695L4.05175 7.12538C3.91475 7.26238 4.03311 7.49465 4.22447 7.46433L5.57715 7.25002C5.66273 7.23646 5.74731 7.27955 5.78664 7.35676L6.40849 8.57722C6.49645 8.74985 6.75392 8.70907 6.78423 8.51772L6.99851 7.16483C7.01207 7.07925 7.07919 7.01213 7.16476 6.99858L8.51758 6.7843C8.70894 6.75399 8.74972 6.49652 8.57709 6.40856L7.35662 5.78671C7.27941 5.74737 7.23632 5.66279 7.24988 5.57721L7.4642 4.22451C7.49452 4.03315 7.26225 3.91479 7.12524 4.05178L6.1568 5.02018C6.09553 5.08144 6.00179 5.09629 5.92459 5.05696L4.704 4.43512ZM1.58536 12.2163C1.40111 12.1564 1.40111 11.8957 1.58536 11.8358L2.9661 11.3872C3.0485 11.3604 3.10429 11.2836 3.10429 11.197V9.74534C3.10429 9.55159 3.35223 9.47104 3.4661 9.6278L4.31929 10.8023C4.37021 10.8724 4.46049 10.9017 4.5429 10.8749L5.9236 10.4263C6.10787 10.3664 6.26109 10.5773 6.1472 10.7341L5.29384 11.9085C5.24291 11.9786 5.24291 12.0735 5.29384 12.1436L6.14722 13.3181C6.26111 13.4748 6.10789 13.6857 5.92363 13.6258L4.5429 13.1772C4.46049 13.1505 4.37022 13.1798 4.31929 13.2499L3.4661 14.4243C3.35222 14.5811 3.10429 14.5005 3.10429 14.3068V12.8551C3.10429 12.7685 3.0485 12.6917 2.9661 12.6649L1.58536 12.2163ZM4.43501 19.1228C4.34705 19.2954 4.53138 19.4798 4.704 19.3918L5.92462 18.7699C6.00182 18.7306 6.09557 18.7454 6.15684 18.8067L7.12535 19.7752C7.26234 19.9122 7.49461 19.7938 7.46431 19.6025L7.25008 18.2497C7.23652 18.1641 7.27961 18.0796 7.35681 18.0402L8.57716 17.4184C8.74977 17.3304 8.70899 17.0729 8.51764 17.0426L7.1648 16.8283C7.07923 16.8148 7.01212 16.7477 6.99856 16.6621L6.78423 15.3093C6.75391 15.1179 6.49643 15.0771 6.40848 15.2498L5.78675 16.4702C5.74742 16.5474 5.66283 16.5905 5.57724 16.577L4.22447 16.3626C4.03311 16.3323 3.91475 16.5645 4.05174 16.7015L5.02013 17.67C5.0814 17.7312 5.09624 17.825 5.05691 17.9022L4.43501 19.1228ZM12.0746 22.1451C12.0147 22.3293 11.754 22.3293 11.6942 22.1451L11.2789 20.8673C11.2521 20.7849 11.1753 20.7291 11.0887 20.7291H9.74537C9.55163 20.7291 9.47107 20.4812 9.62782 20.3673L10.7147 19.5777C10.7848 19.5268 10.8142 19.4365 10.7874 19.3541L10.3722 18.0765C10.3123 17.8923 10.5232 17.739 10.6799 17.8529L11.7668 18.6425C11.8369 18.6934 11.9318 18.6934 12.0019 18.6425L13.0888 17.8529C13.2455 17.739 13.4564 17.8923 13.3965 18.0765L12.9814 19.3541C12.9546 19.4365 12.9839 19.5268 13.054 19.5777L14.1409 20.3673C14.2976 20.4812 14.2171 20.7291 14.0233 20.7291H12.6799C12.5933 20.7291 12.5165 20.7849 12.4897 20.8673L12.0746 22.1451ZM19.1228 19.3919C19.2954 19.4798 19.4798 19.2955 19.3918 19.1229L18.7699 17.9024C18.7305 17.8252 18.7454 17.7314 18.8066 17.6702L19.7752 16.7016C19.9121 16.5646 19.7938 16.3323 19.6024 16.3626L18.2497 16.577C18.1641 16.5905 18.0795 16.5475 18.0402 16.4702L17.4184 15.2498C17.3304 15.0771 17.0729 15.1179 17.0426 15.3093L16.8283 16.6621C16.8148 16.7477 16.7477 16.8148 16.6621 16.8284L15.3093 17.0426C15.1179 17.073 15.0772 17.3304 15.2498 17.4184L16.4702 18.0402C16.5474 18.0795 16.5905 18.1641 16.5769 18.2497L16.3626 19.6026C16.3322 19.794 16.5645 19.9123 16.7015 19.7753L17.6701 18.8068C17.7313 18.7456 17.8251 18.7307 17.9023 18.77L19.1228 19.3919ZM22.4146 11.8359C22.5988 11.8958 22.5988 12.1565 22.4146 12.2164L21.0338 12.665C20.9514 12.6918 20.8956 12.7686 20.8956 12.8552V14.3069C20.8956 14.5007 20.6477 14.5812 20.5338 14.4245L19.6805 13.25C19.6296 13.1798 19.5393 13.1505 19.4569 13.1773L18.0763 13.6259C17.8921 13.6858 17.7389 13.4749 17.8527 13.3182L18.706 12.1437C18.757 12.0736 18.757 11.9787 18.706 11.9086L17.8527 10.7341C17.7388 10.5773 17.8921 10.3664 18.0763 10.4263L19.457 10.875C19.5394 10.9017 19.6297 10.8724 19.6806 10.8023L20.5338 9.6278C20.6477 9.47104 20.8956 9.55159 20.8956 9.74534V11.1971C20.8956 11.2838 20.9514 11.3605 21.0338 11.3873L22.4146 11.8359ZM19.3918 4.70416C19.4797 4.53153 19.2954 4.34721 19.1228 4.43517L17.9023 5.05703C17.8251 5.09637 17.7314 5.08152 17.6701 5.02027L16.7015 4.05179C16.5645 3.9148 16.3322 4.03316 16.3625 4.22452L16.5769 5.57722C16.5904 5.6628 16.5473 5.74738 16.4701 5.78672L15.2497 6.40853C15.0771 6.49648 15.1179 6.75395 15.3092 6.78427L16.6621 6.9986C16.7476 7.01216 16.8148 7.07928 16.8283 7.16485L17.0426 8.51764C17.0729 8.709 17.3304 8.74977 17.4183 8.57713L18.04 7.35673C18.0794 7.27952 18.164 7.23642 18.2496 7.24998L19.6024 7.46436C19.7937 7.49468 19.9121 7.2624 19.7751 7.1254L18.8067 6.15696C18.7454 6.0957 18.7306 6.00195 18.7699 5.92475L19.3918 4.70416Z" fill="#262626"/>
</svg>
