<svg width="24" height="24" viewBox="0 0 24 24" fill="none" xmlns="http://www.w3.org/2000/svg">
<path d="M0 2C0 0.89543 0.895431 0 2 0H22C23.1046 0 24 0.895431 24 2V22C24 23.1046 23.1046 24 22 24H2C0.89543 24 0 23.1046 0 22V2Z" fill="#262626"/>
<path d="M11.6942 1.58536C11.7541 1.4011 12.0147 1.40111 12.0746 1.58536L12.4898 2.86313C12.5166 2.94553 12.5934 3.00132 12.68 3.00132H14.0233C14.2171 3.00132 14.2976 3.24925 14.1409 3.36313L13.054 4.15276C12.9839 4.20369 12.9546 4.29397 12.9814 4.37637L13.3966 5.65405C13.4564 5.83831 13.2455 5.99154 13.0888 5.87766L12.002 5.08798C11.9319 5.03705 11.8369 5.03705 11.7668 5.08798L10.6799 5.87768C10.5232 5.99156 10.3123 5.83833 10.3721 5.65407L10.7873 4.37637C10.8141 4.29397 10.7848 4.20369 10.7147 4.15276L9.62781 3.36313C9.47107 3.24925 9.55162 3.00132 9.74537 3.00132H11.0888C11.1754 3.00132 11.2522 2.94553 11.279 2.86313L11.6942 1.58536Z" fill="white"/>
<path d="M4.43501 4.70412C4.34705 4.5315 4.53137 4.34717 4.704 4.43512L5.92459 5.05696C6.00178 5.09628 6.09553 5.08144 6.15679 5.02017L7.12523 4.05178C7.26224 3.91479 7.49451 4.03314 7.46419 4.2245L7.24987 5.57721C7.23631 5.66279 7.2794 5.74737 7.35661 5.7867L8.57708 6.40856C8.74971 6.49651 8.70893 6.75399 8.51757 6.7843L7.16475 6.99857C7.07918 7.01213 7.01206 7.07925 6.99851 7.16482L6.78423 8.51771C6.75392 8.70907 6.49644 8.74985 6.40849 8.57722L5.78664 7.35676C5.7473 7.27955 5.66272 7.23646 5.57714 7.25002L4.22446 7.46433C4.0331 7.49465 3.91474 7.26238 4.05174 7.12537L5.02017 6.15695C5.08144 6.09568 5.09629 6.00193 5.05695 5.92472L4.43501 4.70412Z" fill="white"/>
<path d="M1.58536 12.2163C1.40111 12.1564 1.40111 11.8957 1.58536 11.8358L2.9661 11.3872C3.0485 11.3604 3.10429 11.2836 3.10429 11.197V9.74534C3.10429 9.55159 3.35223 9.47104 3.4661 9.6278L4.31929 10.8023C4.37021 10.8724 4.46049 10.9017 4.5429 10.8749L5.9236 10.4263C6.10787 10.3664 6.26109 10.5773 6.1472 10.7341L5.29384 11.9085C5.24291 11.9786 5.24291 12.0735 5.29384 12.1436L6.14722 13.3181C6.26111 13.4748 6.10789 13.6857 5.92363 13.6258L4.5429 13.1772C4.46049 13.1505 4.37022 13.1798 4.31929 13.2499L3.4661 14.4243C3.35222 14.5811 3.10429 14.5005 3.10429 14.3068V12.8551C3.10429 12.7685 3.0485 12.6917 2.9661 12.6649L1.58536 12.2163Z" fill="white"/>
<path d="M4.70399 19.3918C4.53137 19.4798 4.34704 19.2954 4.435 19.1228L5.0569 17.9022C5.09623 17.825 5.08139 17.7312 5.02012 17.67L4.05174 16.7015C3.91474 16.5645 4.0331 16.3323 4.22446 16.3626L5.57723 16.577C5.66282 16.5905 5.74741 16.5474 5.78674 16.4702L6.40847 15.2498C6.49642 15.0771 6.7539 15.1179 6.78422 15.3093L6.99855 16.6621C7.01211 16.7477 7.07922 16.8148 7.1648 16.8283L8.51763 17.0426C8.70898 17.0729 8.74976 17.3304 8.57715 17.4184L7.3568 18.0402C7.2796 18.0796 7.23652 18.1641 7.25007 18.2497L7.4643 19.6025C7.4946 19.7939 7.26233 19.9122 7.12534 19.7752L6.15683 18.8067C6.09556 18.7454 6.00182 18.7306 5.92461 18.7699L4.70399 19.3918Z" fill="white"/>
<path d="M12.0746 22.1451C12.0147 22.3293 11.754 22.3293 11.6942 22.1451L11.2789 20.8673C11.2521 20.7849 11.1753 20.7291 11.0887 20.7291H9.74539C9.55164 20.7291 9.47109 20.4812 9.62784 20.3673L10.7147 19.5777C10.7848 19.5268 10.8142 19.4365 10.7874 19.3541L10.3722 18.0765C10.3123 17.8923 10.5232 17.739 10.6799 17.8529L11.7668 18.6425C11.8369 18.6934 11.9319 18.6934 12.0019 18.6425L13.0888 17.8529C13.2456 17.739 13.4564 17.8923 13.3966 18.0765L12.9814 19.3541C12.9546 19.4365 12.9839 19.5268 13.054 19.5777L14.1409 20.3673C14.2976 20.4812 14.2171 20.7291 14.0233 20.7291H12.6799C12.5933 20.7291 12.5165 20.7849 12.4897 20.8673L12.0746 22.1451Z" fill="white"/>
<path d="M19.3918 19.1229C19.4798 19.2955 19.2955 19.4798 19.1228 19.3919L17.9023 18.77C17.8251 18.7307 17.7314 18.7456 17.6701 18.8068L16.7015 19.7753C16.5645 19.9123 16.3323 19.794 16.3626 19.6026L16.5769 18.2497C16.5905 18.1641 16.5474 18.0795 16.4702 18.0402L15.2498 17.4184C15.0772 17.3304 15.1179 17.073 15.3093 17.0427L16.6621 16.8284C16.7477 16.8148 16.8148 16.7477 16.8284 16.6621L17.0426 15.3093C17.0729 15.1179 17.3304 15.0771 17.4184 15.2498L18.0402 16.4702C18.0795 16.5475 18.1641 16.5906 18.2497 16.577L19.6024 16.3626C19.7938 16.3323 19.9122 16.5646 19.7752 16.7016L18.8067 17.6702C18.7454 17.7314 18.7305 17.8252 18.7699 17.9024L19.3918 19.1229Z" fill="white"/>
<path d="M22.4146 11.8359C22.5988 11.8958 22.5988 12.1565 22.4146 12.2164L21.0338 12.665C20.9514 12.6918 20.8956 12.7686 20.8956 12.8552V14.3069C20.8956 14.5007 20.6477 14.5812 20.5338 14.4245L19.6805 13.25C19.6296 13.1798 19.5393 13.1505 19.4569 13.1773L18.0763 13.6259C17.8921 13.6858 17.7388 13.4749 17.8527 13.3182L18.706 12.1437C18.757 12.0736 18.757 11.9787 18.706 11.9086L17.8527 10.7341C17.7388 10.5773 17.8921 10.3664 18.0763 10.4263L19.457 10.875C19.5394 10.9017 19.6297 10.8724 19.6806 10.8023L20.5338 9.6278C20.6477 9.47104 20.8956 9.55159 20.8956 9.74535V11.1971C20.8956 11.2838 20.9514 11.3605 21.0338 11.3873L22.4146 11.8359Z" fill="white"/>
<path d="M19.1228 4.43517C19.2954 4.34721 19.4797 4.53153 19.3918 4.70416L18.7699 5.92475C18.7306 6.00195 18.7454 6.0957 18.8067 6.15697L19.7751 7.1254C19.9121 7.26241 19.7938 7.49468 19.6024 7.46436L18.2496 7.24999C18.164 7.23642 18.0794 7.27952 18.0401 7.35674L17.4183 8.57714C17.3304 8.74978 17.0729 8.70901 17.0426 8.51764L16.8283 7.16486C16.8148 7.07928 16.7477 7.01217 16.6621 6.99861L15.3093 6.78427C15.1179 6.75395 15.0771 6.49649 15.2498 6.40853L16.4701 5.78673C16.5473 5.74739 16.5904 5.66281 16.5769 5.57722L16.3626 4.22452C16.3322 4.03317 16.5645 3.91481 16.7015 4.05179L17.6701 5.02027C17.7314 5.08153 17.8251 5.09637 17.9023 5.05704L19.1228 4.43517Z" fill="white"/>
</svg>
