<svg width="24" height="24" viewBox="0 0 24 24" fill="none" xmlns="http://www.w3.org/2000/svg">
<path fill-rule="evenodd" clip-rule="evenodd" d="M18.5334 6.88078L22.2071 3.20711L20.7929 1.79289L16.6584 5.92742C15.161 5.30914 13.6082 5 12 5C7.58172 5 3.58172 7.33333 0 12C1.72515 14.2477 3.54734 15.9541 5.46657 17.1192L1.79291 20.7929L3.20712 22.2071L7.34164 18.0726C8.83901 18.6909 10.3918 19 12 19C16.4183 19 20.4183 16.6667 24 12C22.2749 9.75228 20.4527 8.04588 18.5334 6.88078ZM15.1001 7.4857C14.0778 7.15691 13.0445 7 12 7C8.75272 7 5.6128 8.51665 2.58044 12C4.00639 13.638 5.45612 14.8411 6.92962 15.6562L7.82809 14.7577C6.54188 12.8163 6.754 10.1749 8.46447 8.46447C9.44078 7.48816 10.7204 7 12 7C12.9622 7 13.9245 7.27603 14.7577 7.82809L15.1001 7.4857ZM13.2935 9.29228C12.1784 8.75958 10.8023 8.95504 9.87868 9.87868C8.95504 10.8023 8.75957 12.1784 9.29228 13.2935L13.2935 9.29228ZM8.89992 16.5143L17.0704 8.34383C18.5439 9.15886 19.9936 10.362 21.4196 12C18.3872 15.4833 15.2473 17 12 17C10.9555 17 9.92217 16.8431 8.89992 16.5143Z" fill="#262626"/>
</svg>
