<svg width="24" height="24" viewBox="0 0 24 24" fill="none" xmlns="http://www.w3.org/2000/svg">
<path fill-rule="evenodd" clip-rule="evenodd" d="M9 4.23529C10.4619 4.23529 11.6471 3.05017 11.6471 1.58824C11.6471 0.886695 12.1198 0 12.8214 0H16.9412C17.5259 0 18 0.474052 18 1.05882V5.53513C18.5883 5.19479 19.2714 5 20 5C22.2091 5 24 6.79086 24 9C24 11.2091 22.2091 13 20 13C19.2714 13 18.5883 12.8052 18 12.4649V16.9412C18 17.5259 17.5259 18 16.9412 18H12.4649C12.8052 18.5883 13 19.2714 13 20C13 22.2091 11.2091 24 9 24C6.79086 24 5 22.2091 5 20C5 19.2714 5.19479 18.5883 5.53513 18H1.05882C0.474051 18 0 17.5259 0 16.9412V1.05882C0 0.474051 0.474052 0 1.05882 0H5.17863C5.88017 0 6.35294 0.886695 6.35294 1.58824C6.35294 3.05017 7.53807 4.23529 9 4.23529Z" fill="#262626"/>
</svg>
