<svg width="25" height="24" viewBox="0 0 25 24" fill="none" xmlns="http://www.w3.org/2000/svg">
<path fill-rule="evenodd" clip-rule="evenodd" d="M14.4142 0H2V22H11V20H4V2H12V7H17V11H19V4.58579L14.4142 0ZM16.5858 5L14 2.41421V5H16.5858ZM20.2122 20.7723C18.8453 22.1391 16.6293 22.1391 15.2624 20.7723C13.8956 19.4054 13.8956 17.1893 15.2624 15.8225C16.6293 14.4557 18.8453 14.4557 20.2122 15.8225L20.3897 16H19V18H24.0406V13L22.0406 13V14.8225L21.6264 14.4083C19.4785 12.2604 15.9961 12.2604 13.8482 14.4083C11.7003 16.5562 11.7003 20.0386 13.8482 22.1865C15.9961 24.3344 19.4785 24.3344 21.6264 22.1865L20.2122 20.7723Z" fill="#262626"/>
</svg>
