<svg width="24" height="24" viewBox="0 0 24 24" fill="none" xmlns="http://www.w3.org/2000/svg">
<path fill-rule="evenodd" clip-rule="evenodd" d="M4 3C4 2.44772 4.44772 2 5 2H14V6C14 7.10457 14.8954 8 16 8H20V21C20 21.5523 19.5523 22 19 22H5C4.44772 22 4 21.5523 4 21V3ZM14.2929 16.7071C14.6834 17.0976 15.3166 17.0976 15.7071 16.7071C16.0976 16.3166 16.0976 15.6834 15.7071 15.2929L13.4142 13L15.7071 10.7071C16.0976 10.3166 16.0976 9.68342 15.7071 9.29289C15.3166 8.90237 14.6834 8.90237 14.2929 9.29289L12 11.5858L9.70711 9.29289C9.31658 8.90237 8.68342 8.90237 8.29289 9.29289C7.90237 9.68342 7.90237 10.3166 8.29289 10.7071L10.5858 13L8.29289 15.2929C7.90237 15.6834 7.90237 16.3166 8.29289 16.7071C8.68342 17.0976 9.31658 17.0976 9.70711 16.7071L12 14.4142L14.2929 16.7071Z" fill="#262626"/>
<path d="M16 2V6H20C20 5.73478 19.8946 5.48043 19.7071 5.29289L16.7071 2.29289C16.5196 2.10536 16.2652 2 16 2Z" fill="#262626"/>
</svg>
