<svg width="24" height="24" viewBox="0 0 24 24" fill="none" xmlns="http://www.w3.org/2000/svg">
<path fill-rule="evenodd" clip-rule="evenodd" d="M4 3C4 2.44772 4.44772 2 5 2H14V6C14 7.10457 14.8954 8 16 8H20V21C20 21.5523 19.5523 22 19 22H5C4.44772 22 4 21.5523 4 21V3ZM12 11C10.8954 11 10 11.8954 10 13C10 14.1046 10.8954 15 12 15C12.5523 15 13 15.4477 13 16C13 16.5523 12.5523 17 12 17C9.79086 17 8 15.2091 8 13C8 10.7909 9.79086 9 12 9C14.2091 9 16 10.7909 16 13C16 13.5523 15.5523 14 15 14C14.4477 14 14 13.5523 14 13C14 11.8954 13.1046 11 12 11Z" fill="#262626"/>
<path d="M20 6C20 5.73478 19.8946 5.48043 19.7071 5.29289L16.7071 2.29289C16.5196 2.10536 16.2652 2 16 2V6H20Z" fill="#262626"/>
</svg>
