<svg width="24" height="24" viewBox="0 0 24 24" fill="none" xmlns="http://www.w3.org/2000/svg">
<path fill-rule="evenodd" clip-rule="evenodd" d="M4 3C4 2.44772 4.44772 2 5 2H14V6C14 7.10457 14.8954 8 16 8H20V21C20 21.5523 19.5523 22 19 22H5C4.44772 22 4 21.5523 4 21V3ZM15.7071 10.2929C16.0976 10.6834 16.0976 11.3166 15.7071 11.7071L11.7071 15.7071C11.3166 16.0976 10.6834 16.0976 10.2929 15.7071L8.29289 13.7071C7.90237 13.3166 7.90237 12.6834 8.29289 12.2929C8.68342 11.9024 9.31658 11.9024 9.70711 12.2929L11 13.5858L14.2929 10.2929C14.6834 9.90237 15.3166 9.90237 15.7071 10.2929Z" fill="#262626"/>
<path d="M20 6C20 5.73478 19.8946 5.48043 19.7071 5.29289L16.7071 2.29289C16.5196 2.10536 16.2652 2 16 2V6H20Z" fill="#262626"/>
</svg>
