<svg width="24" height="24" viewBox="0 0 24 24" fill="none" xmlns="http://www.w3.org/2000/svg">
<path fill-rule="evenodd" clip-rule="evenodd" d="M18.013 1.10889L18.0433 1.07797C19.2857 -0.193723 21.3537 -0.408751 22.7918 0.823966L22.8275 0.854537L22.9935 1.01096L23.0262 1.04481C24.2931 2.3565 24.3049 4.40707 23.1718 5.78656L21.6845 7.59584L14.1605 16.7559L6.9503 20.0199L8.82643 12.2761L15.1821 4.53888L15.1817 4.53857L16.3832 3.07665L16.4505 2.99468L17.8601 1.27963L18.013 1.10889ZM17.9807 4.28L19.375 2.58351L19.4707 2.47669C20.0324 1.90179 20.9117 1.84497 21.4932 2.3434L21.5908 2.43534C22.1151 2.9782 22.1517 3.88027 21.6295 4.51599L20.2534 6.19L17.9807 4.28ZM10.6593 13.1929L16.7116 5.82501L18.9843 7.73501L12.9138 15.1254L9.85574 16.5098L10.6593 13.1929ZM0 24H23.965V22H0V24Z" fill="#262626"/>
</svg>
