<svg width="24" height="25" viewBox="0 0 24 25" fill="none" xmlns="http://www.w3.org/2000/svg">
<mask id="path-1-inside-1_4312_6358" fill="white">
<path d="M0 3.5V4.67546C0 4.95187 0.114409 5.21595 0.316059 5.405L8.34783 12.9348V23.0384C8.34783 23.6911 8.96302 24.1689 9.59542 24.0073L15.4215 22.5184C15.8642 22.4052 16.1739 22.0064 16.1739 21.5495V12.9348L23.7071 5.40159C23.8946 5.21405 24 4.9597 24 4.69448V3.5C24 2.94772 23.5523 2.5 23 2.5H1C0.447715 2.5 0 2.94772 0 3.5Z"/>
</mask>
<path d="M23.7071 5.40159L25.1213 6.8158V6.8158L23.7071 5.40159ZM16.1739 12.9348L14.7597 11.5206L14.1739 12.1064V12.9348H16.1739ZM15.4215 22.5184L14.9263 20.5806H14.9263L15.4215 22.5184ZM9.59542 24.0073L10.0906 25.945L10.0906 25.945L9.59542 24.0073ZM8.34783 12.9348H10.3478V12.0683L9.71571 11.4757L8.34783 12.9348ZM0.316059 5.405L1.68394 3.94593L1.68394 3.94593L0.316059 5.405ZM2 4.67546V3.5H-2V4.67546H2ZM1 4.5H23V0.5H1V4.5ZM22 3.5V4.69448H26V3.5H22ZM22.2929 3.98737L14.7597 11.5206L17.5881 14.349L25.1213 6.8158L22.2929 3.98737ZM14.1739 12.9348V21.5495H18.1739V12.9348H14.1739ZM14.9263 20.5806L9.10023 22.0695L10.0906 25.945L15.9167 24.4561L14.9263 20.5806ZM10.3478 23.0384V12.9348H6.34783V23.0384H10.3478ZM9.71571 11.4757L1.68394 3.94593L-1.05182 6.86408L6.97994 14.3939L9.71571 11.4757ZM9.10023 22.0695C9.73263 21.9079 10.3478 22.3857 10.3478 23.0384H6.34783C6.34783 24.9966 8.19341 26.4298 10.0906 25.945L9.10023 22.0695ZM22 4.69448C22 4.42927 22.1054 4.17491 22.2929 3.98738L25.1213 6.8158C25.6839 6.25319 26 5.49013 26 4.69448H22ZM23 4.5C22.4477 4.5 22 4.05229 22 3.5H26C26 1.84314 24.6569 0.5 23 0.5V4.5ZM2 3.5C2 4.05228 1.55228 4.5 1 4.5V0.5C-0.656854 0.5 -2 1.84315 -2 3.5H2ZM14.1739 21.5495C14.1739 21.0926 14.4836 20.6938 14.9263 20.5806L15.9167 24.4561C17.2448 24.1167 18.1739 22.9203 18.1739 21.5495H14.1739ZM-2 4.67546C-2 5.50469 -1.65677 6.29693 -1.05182 6.86408L1.68394 3.94593C1.88559 4.13497 2 4.39905 2 4.67546H-2Z" fill="#262626" mask="url(#path-1-inside-1_4312_6358)"/>
</svg>
