<svg width="24" height="24" viewBox="0 0 24 24" fill="none" xmlns="http://www.w3.org/2000/svg">
<path fill-rule="evenodd" clip-rule="evenodd" d="M1 0C1.55228 0 2 0.447715 2 1V8C2 9.10457 2.89543 10 4 10C5.10457 10 6 9.10457 6 8V1C6 0.447715 6.44772 0 7 0C7.55228 0 8 0.447715 8 1V8C8 9.86384 6.72523 11.4299 5 11.874V24H3V11.874C1.27477 11.4299 0 9.86384 0 8V1C0 0.447715 0.447715 0 1 0ZM3 1C3 0.447715 3.44772 0 4 0C4.55228 0 5 0.447715 5 1V7H3V1ZM15 7C15 9.26709 13.7664 10 13 10C12.2336 10 11 9.26709 11 7C11 5.49334 11.2345 4.07097 11.6865 3.10495C12.1114 2.19681 12.5403 2 13 2C13.4597 2 13.8886 2.19681 14.3135 3.10495C14.7655 4.07097 15 5.49334 15 7ZM14 11.8572C15.7252 11.3503 17 9.53109 17 7C17 3.68629 16 0 13 0C10 0 9 3.68629 9 7C9 9.53109 10.2748 11.3503 12 11.8572V24H14V11.8572ZM22.0063 0.5425L22 0.545271C19.6159 1.59731 18 3.97697 18 6.68517V11.112C18 12.5577 18.8693 13.8622 20.2038 14.4183L22 15.1667V24H24V16V13.8333V2V0.396207C24 0.188803 23.8138 0.031039 23.6092 0.065136C23.1786 0.1369 22.7633 0.248652 22.3669 0.396207C22.2449 0.44162 22.1246 0.490426 22.0063 0.5425ZM22 2.83196V13L20.9731 12.5721C20.3841 12.3267 20 11.7507 20 11.112V6.68517C20 5.10917 20.7796 3.69148 22 2.83196Z" fill="#262626"/>
</svg>
