<svg width="24" height="24" viewBox="0 0 24 24" fill="none" xmlns="http://www.w3.org/2000/svg">
<path d="M3 17V18H5V17H3ZM20 10L20.7071 10.7071L21.4142 10L20.7071 9.29289L20 10ZM16.7071 5.29289L16 4.58579L14.5858 6L15.2929 6.70711L16.7071 5.29289ZM15.2929 13.2929L14.5858 14L16 15.4142L16.7071 14.7071L15.2929 13.2929ZM5 17V14H3V17H5ZM8 11H20V9H8V11ZM20.7071 9.29289L16.7071 5.29289L15.2929 6.70711L19.2929 10.7071L20.7071 9.29289ZM19.2929 9.29289L15.2929 13.2929L16.7071 14.7071L20.7071 10.7071L19.2929 9.29289ZM5 14C5 12.3431 6.34315 11 8 11V9C5.23858 9 3 11.2386 3 14H5Z" fill="#262626"/>
</svg>
