<svg width="24" height="24" viewBox="0 0 24 24" fill="none" xmlns="http://www.w3.org/2000/svg">
<path fill-rule="evenodd" clip-rule="evenodd" d="M18 2H6V9H8V13H6V22H18V2ZM6 0C4.89543 0 4 0.89543 4 2V22C4 23.1046 4.89543 24 6 24H18C19.1046 24 20 23.1046 20 22V2C20 0.895431 19.1046 0 18 0H6ZM14.4981 3H12.4981V4.69598L11.0598 3.79723L9.99998 5.49333L11.611 6.50001L10 7.50667L11.0598 9.20276L12.4981 8.30403V10H14.4981V8.30407L15.9363 9.20276L16.9962 7.50667L15.3852 6.50001L16.9962 5.49333L15.9363 3.79723L14.4981 4.69594V3Z" fill="#262626"/>
</svg>
