<svg width="24" height="24" viewBox="0 0 24 24" fill="none" xmlns="http://www.w3.org/2000/svg">
<path fill-rule="evenodd" clip-rule="evenodd" d="M1.08863 17.0012L7.45354 17.0009C8.24362 21.1315 9.98223 24 12 24C14.0178 24 15.7564 21.1315 16.5465 17.0009L22.9114 17.0012C21.0151 21.1316 16.8425 24 12 24C7.15747 24 2.9849 21.1316 1.08863 17.0012ZM14.5034 17.0011C13.8792 20.0161 12.7935 22 12 22C11.2065 22 10.1208 20.0161 9.49661 17.0011H14.5034ZM14.923 10.0006C14.9728 10.6445 15 11.3129 15 12C15 13.0509 14.9365 14.0581 14.8254 15.0012H9.17457C9.06354 14.0581 9 13.0509 9 12C9 11.3129 9.02716 10.6445 9.07699 10.0006H14.923ZM23.8341 10.0002C23.9432 10.6505 24 11.3186 24 12C24 13.0362 23.8687 14.0418 23.6217 15.0009L16.8424 15.0004C16.9453 14.0415 17 13.0361 17 12C17 11.3187 16.9763 10.6507 16.9309 10.0005L23.8341 10.0002ZM0.165885 10.0002L7.0691 10.0005C7.02365 10.6507 7 11.3187 7 12C7 13.0361 7.05471 14.0415 7.15757 15.0004L0.378292 15.0009C0.131344 14.0418 0 13.0362 0 12C0 11.3186 0.0567867 10.6505 0.165885 10.0002ZM12 0C17.2249 0 21.6699 3.33927 23.3172 8.00008L16.7155 8.00039C16.0292 3.33942 14.1771 0 12 0ZM12 0L11.8521 0.00515103C9.73932 0.152474 7.9552 3.44535 7.28445 8.00039L0.682795 8.00008C2.33012 3.33927 6.77509 0 12 0ZM12 2C12.8784 2 14.1147 4.43084 14.6869 8.0002H9.31313C9.8853 4.43084 11.1216 2 12 2Z" fill="#262626"/>
</svg>
