<svg width="24" height="24" viewBox="0 0 24 24" fill="none" xmlns="http://www.w3.org/2000/svg">
<path fill-rule="evenodd" clip-rule="evenodd" d="M6.61619 24H22L18.75 16.5L18.1889 14.6296L22.3191 11.2582C23.7483 10.0889 23.8554 7.94117 22.5497 6.63542C21.425 5.5108 19.6346 5.41164 18.3927 6.40518L17.6406 7.20312L18 9.5L19.6421 7.96692C20.0883 7.61 20.7314 7.64562 21.1354 8.04963C21.6045 8.51871 21.566 9.29025 21.0526 9.71033L17.5509 12.5031L16.8816 10.2718L16.5542 8.25933C16.3794 8.404 16.1896 8.50476 16.0287 8.5761C15.7801 8.6863 15.5026 8.76866 15.2224 8.83005C14.6608 8.95306 13.9978 9.01131 13.3361 8.99831C12.6756 8.98533 11.9726 8.9005 11.3394 8.71131C10.7283 8.52872 10.0569 8.2116 9.61323 7.64335C8.69338 6.46509 8.97335 5.24999 9.38722 4.47516C9.58962 4.09625 9.83408 3.79217 10.0204 3.58734C10.1153 3.48311 10.1993 3.3999 10.2621 3.34069C10.2936 3.31098 10.32 3.28703 10.3401 3.2692L10.3655 3.247L10.3744 3.23938L10.3779 3.23644L10.3794 3.2352C10.3794 3.2352 10.3807 3.2341 11.0235 4.00009C11.6664 4.76609 11.667 4.76559 11.667 4.76559C11.6612 4.77068 11.65 4.78088 11.6345 4.79552C11.6032 4.82502 11.5556 4.87191 11.4998 4.93327C11.3848 5.05961 11.2522 5.22864 11.1513 5.41745C10.9587 5.77809 10.9277 6.07693 11.1897 6.41261C11.2639 6.50758 11.4734 6.664 11.9119 6.79501C12.3283 6.91942 12.8436 6.98824 13.3754 6.99869C13.9062 7.00913 14.4098 6.96061 14.7945 6.87636C14.9873 6.83412 15.1278 6.78774 15.218 6.74778C15.7244 6.52323 16.0369 6.36562 16.2281 6.25517L15.709 3.06387C15.4213 1.29585 13.9282 0 12.1787 0H9.5C7.83783 0 5.41679 0.868043 4.68861 2.66658H1.78947C0.801175 2.66658 0 3.48739 0 4.49992V7.33325C0 9.35829 1.60235 10.9999 3.57895 10.9999L6.60703 10.9999L5.94938 14.3469C5.44204 16.9289 5.35676 19.5719 5.69301 22.1735L17.5275 12.5707L18.1514 14.64L6.61619 24Z" fill="#262626"/>
</svg>
