<svg width="24" height="24" viewBox="0 0 24 24" fill="none" xmlns="http://www.w3.org/2000/svg">
<path fill-rule="evenodd" clip-rule="evenodd" d="M11.8782 2.55164C14.5221 0.525043 18.2832 0.44271 21.04 2.54645C24.7767 5.39801 25.0135 10.9328 21.5339 14.092L21.4473 14.1707C21.3995 14.7825 21.138 15.3811 20.6615 15.8449C20.2053 16.289 19.6274 16.5344 19.0367 16.5805C18.9509 17.0274 18.7398 17.4559 18.401 17.8101L18.3569 17.8562C17.9703 18.2603 17.4774 18.502 16.9637 18.5789C16.8949 19.0522 16.6898 19.5108 16.3457 19.892C15.9127 20.3716 15.3375 20.6435 14.7435 20.7036C14.663 21.2227 14.431 21.7241 14.0421 22.1374C13.0077 23.2366 11.2735 23.286 10.178 22.2474L2.63895 15.1011C-0.334695 12.2823 -0.84583 7.72291 1.36331 4.29332C3.68982 0.681511 8.63769 -0.0622641 11.8782 2.55164ZM20.6808 12.1031C22.7043 9.73581 22.376 6.08317 19.8237 4.13548C17.4612 2.33267 14.0942 2.71641 12.1994 5.00442L8.82301 9.0816L9.98237 10.1215C10.3854 10.483 11.0033 10.4589 11.3769 10.0672L14.7099 6.57259L15.4284 7.25576L15.4465 7.23622L20.6177 12.0425C20.6392 12.0625 20.6602 12.0827 20.6808 12.1031ZM14.8063 9.37162L19.2561 13.5075C19.5176 13.7505 19.5223 14.1628 19.2666 14.4117C19.0262 14.6456 18.644 14.6478 18.4011 14.4165L16.2833 12.4006L14.9044 13.8492L16.9302 15.7776L16.9294 15.7786C17.1204 15.9484 17.1324 16.2429 16.9557 16.4277L16.9116 16.4737C16.7494 16.6433 16.4808 16.6505 16.3098 16.4898L16.3031 16.497C16.2672 16.4592 16.2299 16.4224 16.1912 16.3864L14.2118 14.5484L12.8509 16.014L14.8303 17.852C15.0302 18.0376 15.0439 18.3494 14.8611 18.5518C14.696 18.7347 14.4274 18.7663 14.2268 18.641C14.13 18.5125 14.0205 18.391 13.8985 18.2782L13.8693 18.3097L12.165 16.657L10.7727 18.0928L12.705 19.9666C12.8302 20.2315 12.7885 20.5551 12.5835 20.7729C12.3085 21.0652 11.8473 21.0784 11.556 20.8022L4.01698 13.6558C1.74961 11.5065 1.34735 8.00822 3.04612 5.37095C4.6914 2.81673 8.13134 2.26339 10.4532 3.97454L7.2793 7.80714C6.5947 8.63383 6.68519 9.85258 7.48442 10.5694L8.64378 11.6093C9.85292 12.6938 11.7066 12.6216 12.8275 11.4464L14.8063 9.37162Z" fill="#262626"/>
</svg>
