<svg width="24" height="24" viewBox="0 0 24 24" fill="none" xmlns="http://www.w3.org/2000/svg">
<path fill-rule="evenodd" clip-rule="evenodd" d="M10.4958 3C10.772 3 10.9959 3.22386 10.9959 3.5V9H9.99558V3.5C9.99558 3.22386 10.2195 3 10.4958 3ZM7.99487 9V3.5C7.99487 2.11929 9.11456 1 10.4958 1C10.8085 1 11.1078 1.05738 11.3838 1.16218C11.8273 0.463627 12.6079 0 13.4968 0C14.3858 0 15.1664 0.463627 15.6099 1.16218C15.8858 1.05738 16.1852 1 16.4979 1C17.7283 1 18.7512 1.88823 18.9598 3.05823C19.1335 3.0201 19.3139 3 19.4989 3C20.8801 3 21.9998 4.11929 21.9998 5.5V9V11V14V15V15.6115C21.9998 17.0754 21.2072 18.3787 19.9991 19.0762V24H8.99523V20L4.8375 15.8438L4.83884 15.8423L2.6819 13.6854C1.7727 12.7762 1.7727 11.3021 2.6819 10.3929C4.10969 8.96508 6.42461 8.96507 7.8524 10.3929L7.99487 10.5353V9ZM19.3051 17.1261L10.5429 18.7187L7.61513 15.792L8.25367 15.1042L9.66966 13.6882L13.5536 14.4277L19.9897 15.8064C19.9389 16.3284 19.6863 16.7971 19.3051 17.1261ZM10.9959 20.8333V22H17.9984V19.6667L10.9959 20.8333ZM19.9991 11V13.619L13.9505 12.4673L9.99558 11.6202V11H10.9959H12.9966H13.997H15.9977H16.9981H18.9988H19.9991ZM6.43794 11.8073L7.55126 12.9207L6.81246 13.7165L6.17719 14.3517L4.09636 12.2709C3.96835 12.1429 3.96835 11.9353 4.09636 11.8073C4.74297 11.1607 5.79133 11.1607 6.43794 11.8073ZM19.9991 9V5.5C19.9991 5.22386 19.7752 5 19.4989 5C19.2227 5 18.9988 5.22386 18.9988 5.5V9H19.9991ZM16.9981 9L16.9981 5.5L16.9981 5.49779V3.5C16.9981 3.22386 16.7741 3 16.4979 3C16.2216 3 15.9977 3.22386 15.9977 3.5V9H16.9981ZM13.997 9L13.997 3.5L13.997 2.5C13.997 2.22386 13.7731 2 13.4968 2C13.2206 2 12.9966 2.22386 12.9966 2.5V3.5V9H13.997Z" fill="#262626"/>
</svg>
