<svg width="25" height="24" viewBox="0 0 25 24" fill="none" xmlns="http://www.w3.org/2000/svg">
<path fill-rule="evenodd" clip-rule="evenodd" d="M7.00966 7.69902L10.4929 3.17357C10.7697 2.81386 11.0777 2.49229 11.41 2.20971C8.17802 0.018759 3.5804 0.85612 1.36332 4.29804C-0.845834 7.72765 -0.334697 12.287 2.63896 15.1058L10.178 22.2522C11.2736 23.2908 13.0078 23.2414 14.0421 22.1422C14.431 21.7289 14.6631 21.2275 14.7436 20.7084C15.3376 20.6483 15.9128 20.3764 16.3457 19.8968C16.6899 19.5156 16.895 19.057 16.9637 18.5837C17.4775 18.5068 17.9704 18.2651 18.357 17.861L18.401 17.8149C18.7399 17.4607 18.951 17.0321 19.0368 16.5853C19.6275 16.5392 20.2054 16.2938 20.6616 15.8497C21.1381 15.3859 21.4259 14.8774 21.4474 14.1754C21.4689 13.4734 21.0626 13.0359 21.0626 13.0359L17.5861 9.06919L16.375 7.71875L13.5162 10.7833C12.4104 11.9687 10.5628 12.0612 9.34409 10.992L7.14262 9.06068C6.74616 8.71287 6.68797 8.11695 7.00966 7.69902ZM11.8334 3.67844L9.00765 7.43908C8.70103 7.84714 8.75094 8.42061 9.12342 8.76958L9.97504 9.56741C10.7823 10.3237 12.05 10.2811 12.8047 9.47234L16.4531 5.5625L22.0625 12.1875C24.8854 9.47881 24.5841 4.87943 21.4319 2.5622L21.0946 2.31429C18.1555 0.153665 14.0247 0.762115 11.8334 3.67844Z" fill="#262626"/>
</svg>
