<svg width="24" height="24" viewBox="0 0 24 24" fill="none" xmlns="http://www.w3.org/2000/svg">
<path fill-rule="evenodd" clip-rule="evenodd" d="M16 3.69307C16 1.65666 14.2052 0 11.9992 0C9.79393 0 8 1.65666 8 3.69307H9.99109L9.99715 3.54835C10.0774 2.5931 10.9447 1.83831 11.9992 1.83831C13.1076 1.83831 14.0089 2.67047 14.0089 3.69307C14.0089 4.18831 13.7997 4.6541 13.4199 5.00478L12.6791 5.68392C11.9342 6.38737 11.1845 7.22804 11.0319 8.29149L7.21378 9.45097C7.13568 9.193 7.07786 8.92621 7.04219 8.65247L2.73509 10.0883C1.10172 10.6328 0 12.1613 0 13.883V24H4V18H6V24H18V18H20V24H24V13.883C24 12.1613 22.8983 10.6328 21.2649 10.0883L16.9578 8.65247C16.9222 8.92586 16.8645 9.19231 16.7865 9.44998L13.0586 8.32044C13.1958 7.91805 13.5382 7.51827 13.9408 7.12451L14.235 6.84594L14.8282 6.30464C15.5837 5.60672 16 4.67934 16 3.69307ZM8.19453 11.2434L12 10.09L15.8055 11.2434C14.8884 12.3184 13.5238 13 12 13C10.4762 13 9.11163 12.3184 8.19453 11.2434Z" fill="#262626"/>
</svg>
