<svg width="25" height="25" viewBox="0 0 25 25" fill="none" xmlns="http://www.w3.org/2000/svg">
<path fill-rule="evenodd" clip-rule="evenodd" d="M0 7.64058C0.0316034 3.12129 3.96644 -0.453788 8.48108 0.0468793C9.64266 0.175697 10.6679 0.428839 11.6137 0.949961C12.5623 1.47261 13.361 2.22595 14.1309 3.25251C14.4702 3.70493 14.3785 4.34676 13.9261 4.68608C13.4737 5.0254 12.8318 4.93371 12.4925 4.48128C11.8446 3.61742 11.2533 3.08959 10.6255 2.74368C9.99487 2.39626 9.25727 2.19347 8.25535 2.08236C4.97074 1.7181 2.07118 4.32732 2.04791 7.6549L0 7.64058ZM3.78095 7.64074C3.7985 5.07271 6.27769 3.23198 8.74211 3.97145C9.99798 4.34828 10.9159 5.3076 11.2953 6.45775C11.4725 6.99482 11.1807 7.5738 10.6436 7.75095C10.1066 7.9281 9.52757 7.63633 9.35042 7.09926C9.17117 6.5558 8.7408 6.10922 8.15353 5.933C7.00319 5.58784 5.83912 6.44638 5.82888 7.65162V8.46718C5.95916 8.56044 6.09867 8.6749 6.23788 8.8141C6.77144 9.34766 7.2467 10.1941 7.2467 11.4286C7.2467 11.9941 6.78825 12.4526 6.22272 12.4526C5.65719 12.4526 5.19874 11.9941 5.19874 11.4286C5.19874 10.7727 4.9651 10.4376 4.78975 10.2622C4.69233 10.1648 4.59595 10.1012 4.52915 10.0641C4.49668 10.046 4.47316 10.0353 4.46284 10.0309L3.78092 9.8036L3.78095 7.64074ZM1.74812 21.2115L18.1318 4.82785L16.6837 3.37973L0.299994 19.7634L1.74812 21.2115ZM13.9117 17.4155L14.6358 16.6915C17.2978 14.0295 21.6137 14.0295 24.2757 16.6915L24.9998 17.4155L23.5517 18.8636L22.8276 18.1396C20.9654 16.2774 17.9461 16.2774 16.0839 18.1396L15.3598 18.8636L13.9117 17.4155ZM16.6837 19.7634L15.9597 20.4875L17.4078 21.9356L18.1319 21.2115C18.863 20.4804 20.0485 20.4804 20.7797 21.2115L21.5037 21.9356L22.9518 20.4875L22.2278 19.7634C20.6968 18.2325 18.2147 18.2325 16.6837 19.7634ZM20.4796 23.5594C20.4796 24.1249 20.0211 24.5834 19.4556 24.5834C18.8901 24.5834 18.4316 24.1249 18.4316 23.5594C18.4316 22.9939 18.8901 22.5354 19.4556 22.5354C20.0211 22.5354 20.4796 22.9939 20.4796 23.5594ZM14.2834 11.7508C14.4614 11.214 14.1705 10.6346 13.6337 10.4566C13.0969 10.2787 12.5175 10.5696 12.3395 11.1064L10.0452 18.0271L10.0445 18.029C9.73734 18.9418 9.261 19.6315 8.66074 20.0918C8.06654 20.5475 7.29177 20.8243 6.29791 20.8203C5.65887 20.8177 5.05669 20.5937 4.62558 20.1963C4.6078 20.1799 4.59509 20.1678 4.58789 20.1609L4.58298 20.1562L4.58207 20.1553L4.5813 20.1545C4.18124 19.7568 3.53449 19.7575 3.13531 20.1566C2.73542 20.5565 2.73552 21.205 3.13541 21.6049L3.13726 21.6067L3.13983 21.6093L3.14678 21.6161L3.16782 21.6366C3.18497 21.6531 3.20835 21.6752 3.23751 21.7021C4.08255 22.4811 5.19298 22.8637 6.28956 22.8682C7.69218 22.8739 8.91897 22.4746 9.90695 21.717C10.8885 20.9643 11.5747 19.9044 11.9864 18.6796L14.2834 11.7508Z" fill="#262626"/>
</svg>
