<svg width="24" height="25" viewBox="0 0 24 25" fill="none" xmlns="http://www.w3.org/2000/svg">
<path fill-rule="evenodd" clip-rule="evenodd" d="M4 8.00069C4.0331 3.26794 8.15389 -0.475065 12.8802 0.0490726C14.1026 0.184637 15.1755 0.450403 16.1634 0.994663C17.1539 1.54041 17.9904 2.32824 18.8 3.40769C19.1313 3.84951 19.0418 4.47632 18.6 4.80769C18.1581 5.13906 17.5313 5.04951 17.2 4.60769C16.5096 3.68713 15.8755 3.11953 15.1982 2.74638C14.5183 2.37175 13.7262 2.15516 12.6597 2.03689C9.13467 1.64596 6.02491 4.44572 5.99995 8.01467L4 8.00069ZM18.3147 11.0585C18.8389 11.2323 19.123 11.7981 18.9492 12.3224L16.5204 19.6485L16.5191 19.6525C16.0817 20.9535 15.3501 22.0728 14.3046 22.8588C13.2528 23.6495 11.9457 24.0554 10.4489 24.0256C9.3869 24.0044 8.32234 23.6332 7.49354 22.9011C7.43449 22.8489 7.38734 22.8054 7.35353 22.7734C7.33661 22.7574 7.32298 22.7443 7.31282 22.7344L7.30019 22.7221L7.29586 22.7178L7.29419 22.7161L7.29316 22.7151C6.90264 22.3246 6.90235 21.6911 7.29287 21.3006C7.68272 20.9107 8.31436 20.9101 8.70505 21.2985L8.70608 21.2996L8.70681 21.3003L8.70763 21.3011L8.72702 21.3196C8.74601 21.3376 8.77665 21.366 8.81757 21.4021C9.25916 21.7922 9.8561 22.0134 10.4887 22.026C11.5863 22.0478 12.4448 21.7548 13.1028 21.2601C13.7667 20.761 14.2888 20.0091 14.6227 19.0172L14.6233 19.0152L17.0508 11.693C17.2246 11.1688 17.7904 10.8847 18.3147 11.0585ZM8.00002 8.00085C8.01822 5.33935 10.5876 3.43182 13.1415 4.19811C14.4429 4.58863 15.3943 5.58269 15.7875 6.77482C15.9605 7.29931 15.6755 7.86474 15.1511 8.03774C14.6266 8.21074 14.0611 7.9258 13.8881 7.40131C13.6903 6.80166 13.2152 6.30833 12.5667 6.11374C11.2962 5.73251 10.0111 6.68083 10 8.01144V8.91779C10.1443 9.01829 10.3009 9.14433 10.4571 9.30058C11.007 9.85049 11.5 10.7251 11.5 12.0077C11.5 12.56 11.0523 13.0077 10.5 13.0077C9.94772 13.0077 9.5 12.56 9.5 12.0077C9.5 11.2902 9.24298 10.9149 9.04289 10.7148C8.93333 10.6052 8.82479 10.5335 8.74873 10.4912C8.71123 10.4704 8.68357 10.4578 8.67053 10.4522L8.66761 10.451L8 10.2284L8.00002 8.00085ZM3.70718 23.7148L22.7072 4.71479L21.293 3.30057L2.29297 22.3006L3.70718 23.7148Z" fill="#262626"/>
</svg>
