<svg width="24" height="24" viewBox="0 0 24 24" fill="none" xmlns="http://www.w3.org/2000/svg">
<path fill-rule="evenodd" clip-rule="evenodd" d="M9.37825 0.0434101C5.79106 -0.353864 2.59764 2.02012 1.73832 5.34162C4.53202 8.40883 5.23613 14.1616 1.87857 17.8543L1.88267 17.8646L0 19.7473L1.25272 21L18.0831 4.1696L16.8304 2.91688L15.2115 4.53575C14.299 2.17766 12.1433 0.349634 9.37825 0.0434101ZM4.94122 7.07965C4.95785 4.64617 7.30714 2.90179 9.64257 3.60255C10.8327 3.95966 11.7026 4.8688 12.0621 5.95863C12.2351 6.48312 11.9501 7.04854 11.4256 7.22155C10.9011 7.39455 10.3357 7.10961 10.1627 6.58512C9.99866 6.08777 9.60496 5.67936 9.06777 5.51817C8.01565 5.20248 6.95067 5.98768 6.94119 7.09029V7.83376C7.06004 7.92006 7.18649 8.02483 7.31266 8.151C7.81975 8.65809 8.26991 9.46136 8.26991 10.6297C8.26991 11.182 7.82219 11.6297 7.26991 11.6297C6.71762 11.6297 6.26991 11.182 6.26991 10.6297C6.26991 10.0265 6.05571 9.72248 5.89844 9.56521C5.81029 9.47705 5.72316 9.41957 5.66316 9.38624C5.63564 9.37095 5.61553 9.3617 5.60619 9.35762L4.94119 9.13596V8.4152V7.08648V7.07965L4.94122 7.07965ZM7.00179 20.2697C9.9273 20.8165 11.8585 19.4672 12.6478 17.1193L14.7993 9.74391L5.05535 19.4878C5.05535 19.4878 5.94116 19.9307 7.00179 20.2697ZM19 16H16V14H24V16H21V24H19V16Z" fill="#262626"/>
</svg>
