<svg width="24" height="24" viewBox="0 0 24 24" fill="none" xmlns="http://www.w3.org/2000/svg">
<path fill-rule="evenodd" clip-rule="evenodd" d="M8 0C9.10457 0 10 0.895431 10 2V2.00153C10.6368 2.51826 11.1374 3.22464 11.4038 4.08332L11.643 4.8544L11.648 4.87059L12.7656 8H17.3086C18.7892 8 20.0819 8.8044 20.7735 10H22C23.1046 10 24 10.8954 24 12V17C22.8954 17 22 16.1046 22 15V12L21.3086 12V13C21.3086 14.8893 19.9988 16.4727 18.2376 16.8916L19.4426 20.5811C20.1767 20.2115 20.8069 19.7789 21.2929 19.2929C21.6834 18.9024 22.3166 18.9024 22.7071 19.2929C23.0976 19.6834 23.0976 20.3166 22.7071 20.7071C21.5535 21.8607 19.9406 22.6761 18.2508 23.2044C16.5507 23.736 14.6998 24 13 24C11.3002 24 9.44928 23.736 7.74916 23.2044C6.05942 22.6761 4.44647 21.8607 3.29289 20.7071C2.90237 20.3166 2.90237 19.6834 3.29289 19.2929C3.68342 18.9024 4.31658 18.9024 4.70711 19.2929C5.17301 19.7588 5.77143 20.1756 6.46692 20.535L7.72743 16.6753C6.30467 16.0624 5.30863 14.6475 5.30863 13V12L5.30868 11.9803V8.27272L3.05058 8.68328C2.00044 8.87422 0.940827 8.4007 0.38254 7.49099C-0.368742 6.26681 0.0208965 4.66498 1.25053 3.92265L5.01145 1.65217C5.95684 1.08143 7.0137 0.917314 8 1.09058V0ZM9.72535 17H16.1691L17.5795 21.3186C16.1012 21.7718 14.4817 22 13 22C11.4933 22 9.84425 21.764 8.34599 21.2956L8.32466 21.2889L9.72535 17Z" fill="#262626"/>
</svg>
