<svg width="24" height="24" viewBox="0 0 24 24" fill="none" xmlns="http://www.w3.org/2000/svg">
<path fill-rule="evenodd" clip-rule="evenodd" d="M12.4332 6.59807L7.23495 3.59807L7.73515 2.73205L12.9334 5.73205L12.4332 6.59807ZM5.50221 2.59808C5.13192 3.23918 5.15707 4.00003 5.50202 4.59841L3.23354 8.52595C2.54265 8.52653 1.87089 8.88518 1.5006 9.52629L0 12.1244L8.66373 17.1244L10.1643 14.5263C10.5346 13.8852 10.5095 13.1243 10.1645 12.526L10.8165 11.3971L22.9996 18.4282L24 16.6962L11.8169 9.66507L12.433 8.59841C13.1239 8.59783 13.7956 8.23918 14.1659 7.59808L15.6665 5L7.00281 0L5.50221 2.59808ZM5.10012 9.29424L7.10092 5.83014L10.5664 7.83014L8.56561 11.2942L5.10012 9.29424ZM2.73315 11.3923L3.23335 10.5263L8.43158 13.5263L7.93138 14.3923L2.73315 11.3923ZM10.0001 21H1.99987V22H10.0001V21ZM1.99987 19C0.895371 19 0 19.8954 0 21V24H12V21C12 19.8954 11.1046 19 10.0001 19H1.99987Z" fill="#262626"/>
</svg>
