<svg width="24" height="25" viewBox="0 0 24 25" fill="none" xmlns="http://www.w3.org/2000/svg">
<path fill-rule="evenodd" clip-rule="evenodd" d="M11.9376 7.46323C12.8943 8.01522 14.1179 7.68738 14.6705 6.73096L15.6712 4.99887L7.00681 0L6.00608 1.73209C5.4692 2.66134 5.76325 3.84207 6.6579 4.41467L3.65609 9.6103C2.71264 9.12224 1.5426 9.45808 1.00589 10.3874L0.00546028 12.1197L8.66897 17.12L9.6694 15.3878C10.2218 14.4313 9.89411 13.2082 8.93745 12.6561L8.85489 12.6084L11.8551 7.41563L11.9376 7.46323ZM0 21.0027C0 19.8981 0.895431 19.0027 2 19.0027H10.0048C11.1094 19.0027 12.0048 19.8981 12.0048 21.0027V24.0012H0V21.0027ZM11.5046 11.8709L22.9996 18.5028L24 16.7713L12.505 10.1393L11.5046 11.8709Z" fill="#262626"/>
</svg>
