<svg width="24" height="24" viewBox="0 0 24 24" fill="none" xmlns="http://www.w3.org/2000/svg">
<path fill-rule="evenodd" clip-rule="evenodd" d="M12 24C13.1046 24 14 23.1046 14 22H10L10.0055 22.1493C10.0818 23.1841 10.9456 24 12 24ZM15 21V19H9V21H15ZM20 8.1C20 3.62649 16.4183 0 12 0C7.58172 0 4 3.62649 4 8.1C4 9.92409 4.59551 11.6073 5.60041 12.9613L5.817 13.2661C6.36013 14.0599 7.05829 15.2869 7.91148 16.947L8.44444 18H15.5556C16.6629 15.7854 17.5426 14.2021 18.1946 13.25L18.5867 12.6985C19.478 11.3922 20 9.80782 20 8.1ZM15 8C16.1046 8 17 7.10457 17 6C17 4.89543 16.1046 4 15 4C13.8954 4 13 4.89543 13 6C13 7.10457 13.8954 8 15 8Z" fill="#262626"/>
</svg>
