<svg width="24" height="24" viewBox="0 0 24 24" fill="none" xmlns="http://www.w3.org/2000/svg">
<path fill-rule="evenodd" clip-rule="evenodd" d="M14 22C14 23.1046 13.1046 24 12 24C10.9456 24 10.0818 23.1841 10.0055 22.1493L10 22H14ZM15 19V21H9V19H15ZM12 0C16.4183 0 20 3.62649 20 8.1C20 9.80782 19.478 11.3922 18.5867 12.6985L18.1946 13.25C17.5426 14.2021 16.6629 15.7854 15.5556 18H8.44444L7.91148 16.947C7.05829 15.2869 6.36013 14.0599 5.817 13.2661L5.60041 12.9613C4.59551 11.6073 4 9.92409 4 8.1C4 3.62649 7.58172 0 12 0ZM12 2C8.69189 2 6 4.72554 6 8.1C6 9.34968 6.3686 10.5375 7.04492 11.5411L7.4573 12.1218L7.72453 12.525C8.22967 13.3109 8.81905 14.355 9.50219 15.6687L9.673 16H14.327L14.5004 15.6658C15.3133 14.1046 15.9924 12.9246 16.5539 12.1064L16.7966 11.7654C17.5736 10.7166 18 9.44406 18 8.1C18 4.72554 15.3081 2 12 2Z" fill="#262626"/>
</svg>
