<svg width="24" height="24" viewBox="0 0 24 24" fill="none" xmlns="http://www.w3.org/2000/svg">
<path fill-rule="evenodd" clip-rule="evenodd" d="M3.97185 8H0V23H5.95778V21.6476L8.65177 22.72C9.1166 22.905 9.61192 23 10.1117 23H18.8118C20.1818 23 21.3751 22.059 21.7037 20.7195L23.9116 11.7195C24.3756 9.82813 22.9542 8 21.0197 8H14.2024L15.2926 3.4712C15.5956 2.21241 14.6487 1 13.3625 1H11.265C10.671 1 10.1082 1.26774 9.73099 1.72979L4.61176 8H3.97185ZM5.95778 9.50043V19.4971L9.38175 20.86C9.61416 20.9525 9.86182 21 10.1117 21H18.8118C19.2685 21 19.6662 20.6863 19.7758 20.2398L21.9836 11.2398C22.1383 10.6094 21.6645 10 21.0197 10H11.6775L13.3625 3L11.265 3L5.95778 9.50043ZM3.97185 20.8571V10H2.97889H1.98593V21H3.97185V20.8571Z" fill="#262626"/>
</svg>
