<svg width="24" height="24" viewBox="0 0 24 24" fill="none" xmlns="http://www.w3.org/2000/svg">
<path d="M9.51472 15.906C11.8579 18.2501 15.6569 18.2501 18 15.906L22.2426 11.6616C24.5858 9.31754 24.5858 5.51699 22.2426 3.17288L20.8284 1.75808C18.4853 -0.586027 14.6863 -0.586027 12.3431 1.75808L11.2825 2.81918C10.5014 3.60055 10.5014 4.8674 11.2825 5.64877C12.0635 6.43014 13.3299 6.43014 14.1109 5.64877L15.1716 4.58767C15.9526 3.8063 17.219 3.8063 18 4.58767L19.4142 6.00247C20.1953 6.78384 20.1953 8.05069 19.4142 8.83206L15.1716 13.0764C14.3905 13.8578 13.1242 13.8578 12.3431 13.0764L11.636 12.369C10.855 11.5877 9.58866 11.5877 8.80761 12.369C8.02656 13.1504 8.02656 14.4173 8.80761 15.1986L9.51472 15.906Z" fill="#262626"/>
<path d="M14.4853 8.09396C12.1421 5.74986 8.34314 5.74985 6 8.09396L1.75736 12.3384C-0.585786 14.6825 -0.585787 18.483 1.75736 20.8271L3.17157 22.2419C5.51472 24.586 9.31371 24.586 11.6569 22.2419L12.7175 21.1808C13.4986 20.3995 13.4986 19.1326 12.7175 18.3512C11.9365 17.5699 10.6701 17.5699 9.88909 18.3512L8.82843 19.4123C8.04738 20.1937 6.78105 20.1937 6 19.4123L4.58579 17.9975C3.80474 17.2162 3.80474 15.9493 4.58579 15.1679L8.82843 10.9236C9.60948 10.1422 10.8758 10.1422 11.6569 10.9236L12.364 11.631C13.145 12.4123 14.4113 12.4123 15.1924 11.631C15.9734 10.8496 15.9734 9.58273 15.1924 8.80136L14.4853 8.09396Z" fill="#262626"/>
</svg>
