<svg width="24" height="24" viewBox="0 0 24 24" fill="none" xmlns="http://www.w3.org/2000/svg">
<path fill-rule="evenodd" clip-rule="evenodd" d="M12 0C14.7614 0 17 2.23858 17 5V8H18C19.1046 8 20 8.89543 20 10V22C20 23.1046 19.1046 24 18 24H6C4.89543 24 4 23.1046 4 22V10C4 8.89543 4.89543 8 6 8H7V5C7 2.23858 9.23858 0 12 0ZM18 10H6V22H18V10ZM12 13C13.1046 13 14 13.8954 14 15C14 15.7398 13.5983 16.3858 13.0011 16.7318L13 20H11L10.9999 16.7324C10.4022 16.3866 10 15.7403 10 15C10 13.8954 10.8954 13 12 13ZM12 2C10.4023 2 9.09634 3.24892 9.00509 4.82373L9 5V8H15V5C15 3.40232 13.7511 2.09634 12.1763 2.00509L12 2Z" fill="#262626"/>
</svg>
