<svg width="24" height="24" viewBox="0 0 24 24" fill="none" xmlns="http://www.w3.org/2000/svg">
<path fill-rule="evenodd" clip-rule="evenodd" d="M24 0H0V24H24V0ZM16.7072 17.7071L22.4143 12L16.7072 6.29289L15.293 7.70711L18.5859 11L8.00009 11L8.00009 13L18.5859 13L15.293 16.2929L16.7072 17.7071ZM5.00009 22H10.0001V20H5.00009C4.44781 20 4.00009 19.5523 4.00009 19L4.00009 5C4.00009 4.44771 4.44781 4 5.00009 4L10.0001 4V2H5.00009C3.34324 2 2.00009 3.34314 2.00009 5L2.00009 19C2.00009 20.6569 3.34324 22 5.00009 22Z" fill="#262626"/>
</svg>
