<svg width="24" height="24" viewBox="0 0 24 24" fill="none" xmlns="http://www.w3.org/2000/svg">
<path fill-rule="evenodd" clip-rule="evenodd" d="M22.4143 12L16.7072 17.7071L15.293 16.2929L18.5859 13L8.00009 13L8.00009 11L18.5859 11L15.293 7.70711L16.7072 6.29289L22.4143 12ZM10.0001 22L5.00009 22C3.34324 22 2.00009 20.6569 2.00009 19L2.00009 5C2.00009 3.34314 3.34324 2 5.00009 2L10.0001 2L10.0001 4L5.00009 4C4.44781 4 4.00009 4.44771 4.00009 5L4.00009 19C4.00009 19.5523 4.44781 20 5.00009 20L10.0001 20L10.0001 22Z" fill="#262626"/>
</svg>
