<svg width="24" height="24" viewBox="0 0 24 24" fill="none" xmlns="http://www.w3.org/2000/svg">
<circle cx="4" cy="16" r="3" stroke="#262626" stroke-width="2"/>
<circle cx="20" cy="16" r="3" stroke="#262626" stroke-width="2"/>
<path d="M20.4589 11H20.0225C16.8699 11 14.4718 13.8309 14.9901 16.9406C14.9953 16.9717 14.9713 17 14.9398 17H9C9.52347 13.8592 7.1014 11 3.91724 11H2.9549C2.42752 11 2 10.5725 2 10.0451V8.91548C2 6.48633 3.27451 4.23529 5.35749 2.9855C6.43226 2.34064 7.66209 2 8.91548 2H11L10 5C11.2257 5 12.3463 5.69253 12.8944 6.78885L13 7H15L15.9846 6.3436C17.2987 5.4675 18.8428 5 20.4222 5H24L21.242 10.5161C21.0937 10.8127 20.7905 11 20.4589 11Z" fill="#262626"/>
<path d="M20 17C20.5523 17 21 16.5523 21 16C21 15.4477 20.5523 15 20 15V17ZM14 17H20V15H14V17Z" fill="#262626"/>
<path d="M3.06021 15.1583C2.87147 15.6773 3.13922 16.2511 3.65826 16.4398C4.17729 16.6285 4.75105 16.3608 4.93979 15.8417L3.06021 15.1583ZM5.06021 9.65826L3.06021 15.1583L4.93979 15.8417L6.93979 10.3417L5.06021 9.65826Z" fill="#262626"/>
</svg>
