<svg width="24" height="24" viewBox="0 0 24 24" fill="none" xmlns="http://www.w3.org/2000/svg">
<path fill-rule="evenodd" clip-rule="evenodd" d="M22 5H2L2 19H22V5ZM2 3C0.895431 3 0 3.89543 0 5V19C0 20.1046 0.89543 21 2 21H22C23.1046 21 24 20.1046 24 19V5C24 3.89543 23.1046 3 22 3H2Z" fill="#262626"/>
<path fill-rule="evenodd" clip-rule="evenodd" d="M8 4.5V11H1.5V9H6V4.5H8Z" fill="#262626"/>
<path fill-rule="evenodd" clip-rule="evenodd" d="M10 4.5V11H23V9H12V4.5H10Z" fill="#262626"/>
<path fill-rule="evenodd" clip-rule="evenodd" d="M8 19.5V13H1.5V15H6V19.5H8Z" fill="#262626"/>
<path fill-rule="evenodd" clip-rule="evenodd" d="M10 19.5V13H22.5V15H12V19.5H10Z" fill="#262626"/>
</svg>
