<svg width="25" height="24" viewBox="0 0 25 24" fill="none" xmlns="http://www.w3.org/2000/svg">
<path fill-rule="evenodd" clip-rule="evenodd" d="M23.0271 1.01096L23.0598 1.04481C24.3286 2.3565 24.3404 4.40707 23.2057 5.78656L14.1812 16.7559L6.96045 20.0199L8.83932 12.2761L16.4721 2.9977L16.4746 2.99469L17.8862 1.27962L18.0394 1.10889L18.0696 1.07796C19.3139 -0.193727 21.3848 -0.408755 22.8251 0.823961L22.8608 0.854533L23.0271 1.01096ZM21.6223 2.43534C22.1422 2.97278 22.1884 3.87445 21.6611 4.51599L12.9327 15.1254L9.87014 16.5098L10.6749 13.1929L19.4033 2.58351L19.4991 2.47669C20.0702 1.89304 20.9511 1.85256 21.5246 2.3434L21.6223 2.43534ZM2 2H14.7037L13.0583 4H4V22H20V12.8311L22 10.4001V24H2V2Z" fill="#262626"/>
</svg>
