<svg width="24" height="24" viewBox="0 0 24 24" fill="none" xmlns="http://www.w3.org/2000/svg">
<path fill-rule="evenodd" clip-rule="evenodd" d="M2 12C2 6.47715 6.47715 2 12 2C12.9471 2 13.8619 2.13139 14.7278 2.37632L15.2722 0.451813C14.2308 0.157283 13.1329 0 12 0C5.37258 0 0 5.37258 0 12C0 18.6274 5.37258 24 12 24C18.6274 24 24 18.6274 24 12C24 10.9656 23.8689 9.96044 23.6219 9.00074L21.685 9.49926C21.8905 10.2975 22 11.1352 22 12C22 17.5228 17.5228 22 12 22C6.47715 22 2 17.5228 2 12ZM9 7.5C9 7.1312 8.79702 6.79234 8.47186 6.61833C8.1467 6.44431 7.75216 6.46338 7.4453 6.66795L5.9453 7.66795C5.48577 7.9743 5.3616 8.59517 5.66795 9.0547C5.96231 9.49623 6.54703 9.62816 7 9.36607V17C7 17.5523 7.44772 18 8 18C8.55229 18 9 17.5523 9 17V7.5ZM14.5 8C13.6716 8 13 8.67157 13 9.5C13 10.3284 13.6716 11 14.5 11C15.3284 11 16 10.3284 16 9.5C16 8.67157 15.3284 8 14.5 8ZM16.9495 12C17.5978 11.3647 18 10.4793 18 9.5C18 7.567 16.433 6 14.5 6C12.567 6 11 7.567 11 9.5C11 10.4793 11.4022 11.3647 12.0505 12C11.4022 12.6353 11 13.5207 11 14.5C11 16.433 12.567 18 14.5 18C16.433 18 18 16.433 18 14.5C18 13.5207 17.5978 12.6353 16.9495 12ZM14.5 13C13.6716 13 13 13.6716 13 14.5C13 15.3284 13.6716 16 14.5 16C15.3284 16 16 15.3284 16 14.5C16 13.6716 15.3284 13 14.5 13ZM19 5H17V3H19V1L21 1V3H23V5H21V7H19V5Z" fill="#262626"/>
</svg>
