<svg width="24" height="24" viewBox="0 0 24 24" fill="none" xmlns="http://www.w3.org/2000/svg">
<path fill-rule="evenodd" clip-rule="evenodd" d="M13 15.9381C16.9463 15.446 20 12.0796 20 8C20 3.58172 16.4183 0 12 0C7.58172 0 4 3.58172 4 8C4 12.0796 7.05369 15.446 11 15.9381V23.9871C10.9997 23.8766 10.9913 23.0662 10.8182 21.9959C10.5766 20.5022 10.014 18.5023 8.70434 17.1927C7.40565 15.894 5.46084 15.3626 4.00003 15.1464C3.5797 15.0842 3.19945 15.048 2.88619 15.0273C2.34303 14.9912 2.00129 15.0013 2.00129 15.0013C2.00129 15.0013 1.99124 15.343 2.02727 15.8862C2.04805 16.1994 2.08416 16.5797 2.14637 17C2.36257 18.4608 2.89398 20.4056 4.19267 21.7043C5.5023 23.014 7.5022 23.5766 8.99595 23.8182C10.1487 24.0047 11 24 11 24H13C13 24 13.8513 24.0047 15.004 23.8182C16.4978 23.5766 18.4977 23.014 19.8073 21.7043C21.106 20.4056 21.6374 18.4608 21.8536 17C21.9158 16.5797 21.9519 16.1994 21.9727 15.8862C22.0088 15.343 21.9987 15.0013 21.9987 15.0013C21.9987 15.0013 21.657 14.9912 21.1138 15.0273C20.8005 15.048 20.4203 15.0842 20 15.1464C18.5392 15.3626 16.5943 15.894 15.2956 17.1927C13.986 18.5023 13.4234 20.5022 13.1818 21.9959C13.0087 23.0662 13.0003 23.8766 13 23.9871V15.9381ZM9.375 12.5V4H12.511C13.015 4 13.3337 4.05133 13.7724 4.154C14.211 4.24733 14.5937 4.41066 14.9204 4.644C15.247 4.868 15.5037 5.17133 15.6904 5.554C15.8864 5.92733 15.9844 6.38933 15.9844 6.94C15.9844 7.472 15.8864 7.934 15.6904 8.326C15.5037 8.718 15.247 9.04 14.9204 9.292C14.5937 9.544 14.2157 9.73066 13.7864 9.852C13.357 9.97333 13.0523 10.034 12.567 10.034H11.375V12.5H9.375ZM11.375 8.396H12.441C13.561 8.396 14.121 7.91066 14.121 6.94C14.121 6.464 13.9717 6.128 13.673 5.932C13.3743 5.736 12.945 5.638 12.385 5.638H11.375V8.396Z" fill="#262626"/>
</svg>
