<svg width="24" height="24" viewBox="0 0 24 24" fill="none" xmlns="http://www.w3.org/2000/svg">
<path fill-rule="evenodd" clip-rule="evenodd" d="M3 12C3 7.02944 7.02944 3 12 3C16.9706 3 21 7.02944 21 12C21 14.7218 19.7918 17.1615 17.8824 18.8118C17.331 16.0672 14.9069 14 12 14C9.09309 14 6.669 16.0672 6.11764 18.8118C4.20824 17.1615 3 14.7218 3 12ZM8 20.0645C9.20496 20.6633 10.5632 21 12 21C13.4368 21 14.795 20.6633 16 20.0645V20C16 17.7909 14.2091 16 12 16C9.79086 16 8 17.7909 8 20V20.0645ZM12 1C5.92487 1 1 5.92487 1 12C1 18.0751 5.92487 23 12 23C18.0751 23 23 18.0751 23 12C23 5.92487 18.0751 1 12 1ZM12 11C10.8954 11 10 10.1046 10 9C10 7.89543 10.8954 7 12 7C13.1046 7 14 7.89543 14 9C14 10.1046 13.1046 11 12 11ZM8 9C8 11.2091 9.79086 13 12 13C14.2091 13 16 11.2091 16 9C16 6.79086 14.2091 5 12 5C9.79086 5 8 6.79086 8 9Z" fill="#262626"/>
</svg>
