<svg width="24" height="24" viewBox="0 0 24 24" fill="none" xmlns="http://www.w3.org/2000/svg">
<path fill-rule="evenodd" clip-rule="evenodd" d="M9.45029 10.1268C9.44092 10.1331 9.44241 10.1311 9.4542 10.1242L9.45029 10.1268ZM6 4.66667C6 6.7546 7.63481 10.0686 8.9844 11.4088C7.12016 13.0097 6.00001 15.3685 6.00001 17.9055L6.00001 19.9115C3.92385 20.3507 2.01815 21.7135 1 24H14C12.82 21.3501 10.448 19.9408 8.00001 19.7721V17.9055C8.00001 15.9055 8.90834 14.0499 10.4113 12.8224C11.6085 14.2035 15.1446 16 17.3333 16C20 16 22 14.2091 22 12C22 9.79086 20.2789 8 17.3333 8C15.8807 8 13.8347 8.79128 12.2727 9.72728C13.2087 8.16533 14 6.11927 14 4.66667C14 1.72115 12.2091 0 10 0C7.79086 0 6 2 6 4.66667Z" fill="#262626"/>
</svg>
