<svg width="24" height="24" viewBox="0 0 24 24" fill="none" xmlns="http://www.w3.org/2000/svg">
<path fill-rule="evenodd" clip-rule="evenodd" d="M12 4.66667C12 5.4971 11.5231 6.97345 10.7517 8.36205C10.4947 8.8246 10.2356 9.22109 10 9.5306C9.7644 9.22109 9.50529 8.8246 9.24831 8.36205C8.47687 6.97345 8 5.4971 8 4.66667C8 2.83081 9.15062 2 10 2C10.5644 2 11.018 2.20946 11.3467 2.57205C11.6816 2.94148 12 3.60126 12 4.66667ZM9.45029 10.1268C9.44092 10.1331 9.44241 10.1311 9.4542 10.1242L9.45029 10.1268ZM10.5458 10.1242C10.5576 10.1311 10.5591 10.1331 10.5497 10.1268L10.5458 10.1242ZM6 4.66667C6 6.7546 7.63481 10.0686 8.9844 11.4088C7.12016 13.0097 6.00001 15.3685 6.00001 17.9055L6.00001 19.9115C3.92384 20.3507 2.01815 21.7135 1 24H3.23463C5.2612 21.0065 9.7388 21.0065 11.7654 24H14C12.82 21.3501 10.448 19.9408 8.00001 19.7721V17.9055C8.00001 15.9055 8.90834 14.0499 10.4113 12.8224C11.6085 14.2035 15.1446 16 17.3333 16C20 16 22 14.2091 22 12C22 9.79086 20.2789 8 17.3333 8C15.8807 8 13.8347 8.79128 12.2727 9.72728C13.2087 8.16533 14 6.11927 14 4.66667C14 1.72115 12.2091 0 10 0C7.79086 0 6 2 6 4.66667ZM17.3333 10C16.5029 10 15.0265 10.4769 13.638 11.2483C13.1754 11.5053 12.7789 11.7644 12.4694 12C12.7789 12.2356 13.1754 12.4947 13.638 12.7517C15.0265 13.5231 16.5029 14 17.3333 14C19.1692 14 20 12.8494 20 12C20 11.4356 19.7905 10.982 19.428 10.6533C19.0585 10.3184 18.3987 10 17.3333 10ZM11.8732 12.5497C11.8669 12.5591 11.8689 12.5576 11.8758 12.5458L11.8732 12.5497ZM11.8758 11.4542C11.8689 11.4424 11.8669 11.4409 11.8732 11.4503L11.8758 11.4542Z" fill="#262626"/>
</svg>
