<svg width="24" height="24" viewBox="0 0 24 24" fill="none" xmlns="http://www.w3.org/2000/svg">
<path fill-rule="evenodd" clip-rule="evenodd" d="M17.9998 17.1959V14.5544L21.5299 12.3481C21.9983 12.0553 22.1406 11.4384 21.8479 10.9701C21.5552 10.5017 20.9383 10.3594 20.4699 10.6521L17.9998 12.1959V7.02724C18.0043 6.85811 17.9656 6.69086 17.8888 6.54166C17.7914 6.35317 17.6358 6.19963 17.4457 6.10481L5.92689 0.113051C5.43694 -0.141811 4.83314 0.0487713 4.57828 0.538729C4.32342 1.02869 4.514 1.63248 5.00396 1.88734L12.9106 6.00015H2.99997C2.44769 6.00015 1.99998 6.44787 1.99998 7.00015V23C1.99998 23.5523 2.44769 24 2.99997 24H16.9999C17.5521 24 17.9998 23.5523 17.9998 23V19.5544L21.5299 17.3481C21.9982 17.0553 22.1406 16.4384 21.8479 15.9701C21.5552 15.5017 20.9383 15.3594 20.4699 15.6521L17.9998 17.1959ZM15.9999 18.9974V14.0047V13.9973V8.00014H3.99997V22H15.9999V19.0046V18.9974ZM6.99994 18.0001C6.44766 18.0001 5.99995 18.4478 5.99995 19C5.99995 19.5523 6.44766 20 6.99994 20H12.9999C13.5522 20 13.9999 19.5523 13.9999 19C13.9999 18.4478 13.5522 18.0001 12.9999 18.0001L6.99994 18.0001Z" fill="#262626"/>
</svg>
