<svg width="24" height="24" viewBox="0 0 24 24" fill="none" xmlns="http://www.w3.org/2000/svg">
<path fill-rule="evenodd" clip-rule="evenodd" d="M17.9998 7.02724V12.1959L20.4699 10.6521C20.9383 10.3594 21.5552 10.5017 21.8479 10.9701C22.1406 11.4384 21.9983 12.0554 21.5299 12.3481L17.9998 14.5544V17.1959L20.4699 15.6521C20.9383 15.3594 21.5552 15.5017 21.8479 15.9701C22.1406 16.4384 21.9982 17.0553 21.5299 17.3481L17.9998 19.5544V23C17.9998 23.5523 17.5521 24 16.9999 24H2.99997C2.44769 24 1.99998 23.5523 1.99998 23V7.00015C1.99998 6.44787 2.44769 6.00015 2.99997 6.00015H12.9106L5.00396 1.88734C4.514 1.63248 4.32342 1.02869 4.57828 0.538729C4.83314 0.0487713 5.43694 -0.141811 5.92689 0.113051L17.4457 6.10481C17.6358 6.19963 17.7914 6.35317 17.8888 6.54166C17.9656 6.69086 18.0043 6.85811 17.9998 7.02724ZM6.99994 18.0001C6.44766 18.0001 5.99995 18.4478 5.99995 19C5.99995 19.5523 6.44766 20 6.99994 20H12.9999C13.5522 20 13.9999 19.5523 13.9999 19C13.9999 18.4478 13.5522 18.0001 12.9999 18.0001L6.99994 18.0001Z" fill="#262626"/>
</svg>
