<svg width="24" height="24" viewBox="0 0 24 24" fill="none" xmlns="http://www.w3.org/2000/svg">
<path fill-rule="evenodd" clip-rule="evenodd" d="M8.67081 3.47762L7.90972 4.60803L5.03125 5.62929L6.98986 2.39391C7.52515 1.56362 8.4349 1.05008 9.42235 1.02079L10.1996 0.998291L16.1003 1.02099C16.497 1.02251 16.8553 1.25842 17.0135 1.62223L18.6926 5.48375L20.7066 4.60803L18.932 13.5579L11.1762 8.75195L13.1902 7.87624L11.0583 2.97316L9.48164 3.01992C9.15249 3.02968 8.84924 3.20086 8.67081 3.47762ZM7.49981 19.9983L6.21832 19.9895C5.88903 19.9877 5.58172 19.8239 5.39663 19.5515L4.51008 18.2469L7.49981 13.8145L9.3205 15.0425L9.20665 5.9191L0.704894 9.23123L2.52559 10.4593L0.170963 13.9502C-0.0508809 14.2791 -0.0573217 14.708 0.154548 15.0434L3.30587 20.0322L3.74244 20.6757C4.2977 21.4927 5.21962 21.9841 6.2075 21.9894H10.0625L7.49981 19.9983ZM20.9249 12.0526L21.832 13.4132C22.0147 13.6872 22.0507 14.0336 21.9284 14.3393L21.3426 15.8038H15.9961V13.6077L8.49609 18.8038L15.9961 24V21.8038H20.2068C20.6036 21.8038 20.9628 21.5693 21.1224 21.2061L23.4961 15.8038L23.7854 15.0821C24.1523 14.1649 24.0441 13.1258 23.4961 12.3038L21.4591 9.24829L20.9249 12.0526Z" fill="#262626"/>
</svg>
