<svg width="24" height="24" viewBox="0 0 24 24" fill="none" xmlns="http://www.w3.org/2000/svg">
<path fill-rule="evenodd" clip-rule="evenodd" d="M2 0C0.895431 0 0 0.89543 0 2V22C0 23.1046 0.89543 24 2 24H22C23.1046 24 24 23.1046 24 22V2C24 0.895431 23.1046 0 22 0H2ZM9.70711 2.29289C10.0976 2.68342 10.0976 3.31658 9.70711 3.70711L8.41421 5H17C19.7614 5 22 7.23858 22 10V12C22 12.5523 21.5523 13 21 13C20.4477 13 20 12.5523 20 12V10C20 8.34315 18.6569 7 17 7H8.41421L9.70711 8.29289C10.0976 8.68342 10.0976 9.31658 9.70711 9.70711C9.31658 10.0976 8.68342 10.0976 8.29289 9.70711L5.29289 6.70711C5.10535 6.51957 5 6.26522 5 6C5 5.73479 5.10535 5.48043 5.29289 5.2929L8.29289 2.29289C8.68342 1.90237 9.31658 1.90237 9.70711 2.29289ZM14.2929 21.7071C13.9024 21.3166 13.9024 20.6834 14.2929 20.2929L15.5858 19H7C4.23858 19 2 16.7614 2 14V12C2 11.4477 2.44771 11 3 11C3.55228 11 4 11.4477 4 12V14C4 15.6569 5.34314 17 7 17H15.5858L14.2929 15.7071C13.9024 15.3166 13.9024 14.6834 14.2929 14.2929C14.6834 13.9024 15.3166 13.9024 15.7071 14.2929L18.7071 17.2929C18.8946 17.4804 19 17.7348 19 18C19 18.2652 18.8946 18.5196 18.7071 18.7071L15.7071 21.7071C15.3166 22.0976 14.6834 22.0976 14.2929 21.7071Z" fill="#262626"/>
</svg>
