<svg width="24" height="24" viewBox="0 0 24 24" fill="none" xmlns="http://www.w3.org/2000/svg">
<path fill-rule="evenodd" clip-rule="evenodd" d="M1 0C0.447715 0 0 0.447716 0 1V23C0 23.5523 0.447716 24 1 24H23C23.5523 24 24 23.5523 24 23V1C24 0.447715 23.5523 0 23 0H1ZM12.7931 1.79289L9.29314 5.29289L8.58603 6L9.29314 6.70711L12.7931 10.2071L14.2074 8.79289L12.4145 7H15C17.2091 7 19 8.79086 19 11V15H21V11C21 7.68629 18.3137 5 15 5H12.4145L14.2074 3.20711L12.7931 1.79289ZM3 13.5C3 12.6716 3.67157 12 4.5 12H10.5C11.3284 12 12 12.6716 12 13.5V19.5C12 20.3284 11.3284 21 10.5 21H4.5C3.67157 21 3 20.3284 3 19.5V13.5Z" fill="#262626"/>
</svg>
