<svg width="24" height="24" viewBox="0 0 24 24" fill="none" xmlns="http://www.w3.org/2000/svg">
<path fill-rule="evenodd" clip-rule="evenodd" d="M8 7H10.5859L8.79299 8.79289L10.2072 10.2071L13.7072 6.7071L14.4143 6.00002L13.7072 5.29292L10.2072 1.79267L8.79297 3.20684L10.586 5H8C4.68629 5 2 7.68629 2 11V15H4V11C4 8.79086 5.79086 7 8 7ZM13 11C11.8954 11 11 11.8954 11 13V20C11 21.1046 11.8954 22 13 22H20C21.1046 22 22 21.1046 22 20V13C22 11.8954 21.1046 11 20 11H13ZM13 13H20V20H13V13Z" fill="#262626"/>
</svg>
