<svg width="24" height="24" viewBox="0 0 24 24" fill="none" xmlns="http://www.w3.org/2000/svg">
<path fill-rule="evenodd" clip-rule="evenodd" d="M10.2931 5.29289L13.7931 1.79289L15.2074 3.20711L13.4145 5H16C19.3137 5 22 7.68629 22 11V15H20V11C20 8.79086 18.2091 7 16 7H13.4145L15.2074 8.79289L13.7931 10.2071L10.2931 6.70711L9.58603 6L10.2931 5.29289ZM4 11C2.89543 11 2 11.8954 2 13V20C2 21.1046 2.89543 22 4 22H11C12.1046 22 13 21.1046 13 20V13C13 11.8954 12.1046 11 11 11H4ZM4 13H11V20H4V13Z" fill="#262626"/>
</svg>
