<svg width="24" height="24" viewBox="0 0 24 24" fill="none" xmlns="http://www.w3.org/2000/svg">
<path fill-rule="evenodd" clip-rule="evenodd" d="M3 3C2.44772 3 2 3.44772 2 4V19C2 19.5523 2.44772 20 3 20H21C21.5523 20 22 19.5523 22 19V7C22 6.44771 21.5523 6 21 6H15V4H21C22.6569 4 24 5.34315 24 7V19C24 20.6569 22.6569 22 21 22H3C1.34315 22 0 20.6569 0 19V4C0 2.34315 1.34315 1 3 1H10C11.6569 1 13 2.34315 13 4V5V6V14.071L15.5355 11.5355L16.9497 12.9498L11.9999 17.8995L7.05017 12.9498L8.46438 11.5355L11 14.0712V6V5V4C11 3.44772 10.5523 3 10 3H3Z" fill="#262626"/>
</svg>
