<svg width="24" height="24" viewBox="0 0 24 24" fill="none" xmlns="http://www.w3.org/2000/svg">
<path fill-rule="evenodd" clip-rule="evenodd" d="M22 4H18C14.6863 4 12 6.68629 12 10V14H22V4ZM18 2C13.5817 2 10 5.58172 10 10V15C10 15.5523 10.4477 16 11 16H23C23.5523 16 24 15.5523 24 15V4C24 2.89543 23.1046 2 22 2H18ZM2 15C0.895431 15 0 14.1046 0 13V10H2L2 13H9V15H2ZM1 22H5V20H1V22ZM7 22V20H11V22H7ZM13 22H17V20H13V22ZM23 20V22H19V20H23ZM19 9.5C19 10.3284 18.3284 11 17.5 11C16.6716 11 16 10.3284 16 9.5C16 8.67157 16.6716 8 17.5 8C18.3284 8 19 8.67157 19 9.5ZM21 9.5C21 11.433 19.433 13 17.5 13C15.567 13 14 11.433 14 9.5C14 7.567 15.567 6 17.5 6C19.433 6 21 7.567 21 9.5Z" fill="#262626"/>
</svg>
