<svg width="24" height="24" viewBox="0 0 24 24" fill="none" xmlns="http://www.w3.org/2000/svg">
<path fill-rule="evenodd" clip-rule="evenodd" d="M10 10C10 5.58172 13.5817 2 18 2H23C23.5523 2 24 2.44772 24 3V15C24 15.5523 23.5523 16 23 16H11C10.4477 16 10 15.5523 10 15V10ZM21 9.5C21 11.433 19.433 13 17.5 13C15.567 13 14 11.433 14 9.5C14 7.567 15.567 6 17.5 6C19.433 6 21 7.567 21 9.5ZM0 13C0 14.1046 0.895431 15 2 15H9V13H2L2 10H0V13ZM1 22H5V20H1V22ZM7 22V20H11V22H7ZM13 22H17V20H13V22ZM23 20V22H19V20H23Z" fill="#262626"/>
</svg>
