<svg width="24" height="24" viewBox="0 0 24 24" fill="none" xmlns="http://www.w3.org/2000/svg">
<path fill-rule="evenodd" clip-rule="evenodd" d="M10 2H14V3H13H11H10V2ZM8 3.58152V2C8 0.89543 8.89543 0 10 0H14C15.1046 0 16 0.895431 16 2V3.58152C18.9318 4.76829 21 7.64262 21 11V13H22C23.1046 13 24 13.8954 24 15V20C24 21.1046 23.1046 22 22 22H20.4649C19.7733 23.1956 18.4806 24 17 24H7C5.51944 24 4.22675 23.1956 3.53513 22H2C0.89543 22 0 21.1046 0 20V15C0 13.8954 0.895431 13 2 13H3V11C3 7.64262 5.06817 4.76829 8 3.58152ZM19 20V13V11C19 7.68629 16.3137 5 13 5H11C7.68629 5 5 7.68629 5 11V13V20C5 21.1046 5.89543 22 7 22H17C18.1046 22 19 21.1046 19 20ZM21 15V20H22V15H21ZM2 15H3V20H2L2 15ZM15 15H9V18H15V15ZM9 13C7.89543 13 7 13.8954 7 15V18C7 19.1046 7.89543 20 9 20H15C16.1046 20 17 19.1046 17 18V15C17 13.8954 16.1046 13 15 13H9ZM9 8C8.44772 8 8 8.44772 8 9C8 9.55228 8.44772 10 9 10H15C15.5523 10 16 9.55228 16 9C16 8.44772 15.5523 8 15 8H9Z" fill="#262626"/>
</svg>
