<svg width="24" height="24" viewBox="0 0 24 24" fill="none" xmlns="http://www.w3.org/2000/svg">
<path fill-rule="evenodd" clip-rule="evenodd" d="M10 2H14V3H13H11H10V2ZM8 3.58152V2C8 0.89543 8.89543 0 10 0H14C15.1046 0 16 0.895431 16 2V3.58152C18.9318 4.76829 21 7.64262 21 11V20C21 22.2091 19.2091 24 17 24H7C4.79086 24 3 22.2091 3 20V11C3 7.64262 5.06817 4.76829 8 3.58152ZM2 22V20V15V13C0.895431 13 0 13.8954 0 15V20C0 21.1046 0.895431 22 2 22ZM22 20V22C23.1046 22 24 21.1046 24 20V15C24 13.8954 23.1046 13 22 13V15V20ZM9 8C8.44772 8 8 8.44772 8 9C8 9.55228 8.44772 10 9 10H15C15.5523 10 16 9.55228 16 9C16 8.44772 15.5523 8 15 8H9ZM9 15H15V18H9V15ZM7 15C7 13.8954 7.89543 13 9 13H15C16.1046 13 17 13.8954 17 15V18C17 19.1046 16.1046 20 15 20H9C7.89543 20 7 19.1046 7 18V15Z" fill="#262626"/>
</svg>
