<svg width="24" height="24" viewBox="0 0 24 24" fill="none" xmlns="http://www.w3.org/2000/svg">
<path fill-rule="evenodd" clip-rule="evenodd" d="M10 4C6.68629 4 4 6.68629 4 10C4 13.3137 6.68629 16 10 16C11.6791 16 13.1956 15.3116 14.2858 14.1991C15.3472 13.1159 16 11.6352 16 10C16 6.68629 13.3137 4 10 4ZM2 10C2 5.58172 5.58172 2 10 2C14.4183 2 18 5.58172 18 10C18 11.8248 17.3881 13.508 16.3597 14.8538L22.7122 21.298L21.2878 22.702L14.9568 16.2796C13.5944 17.3563 11.8717 18 10 18C5.58172 18 2 14.4183 2 10Z" fill="#262626"/>
</svg>
