<svg width="24" height="24" viewBox="0 0 24 24" fill="none" xmlns="http://www.w3.org/2000/svg">
<path fill-rule="evenodd" clip-rule="evenodd" d="M12 0C13.6569 0 15 1.34315 15 3V9L19.7576 9.46509C22.3164 9.80542 24.1721 12.1379 23.9873 14.7818L22.3697 24H8.74161L2.67411 16.2086C1.69493 14.9512 1.69753 13.206 2.90101 12C4.05636 10.8422 5.77348 11.0077 6.86476 11.6803L9.00001 13V3C9.00001 1.34315 10.3432 0 12 0ZM12 2C11.4872 2 11.0645 2.38604 11.0067 2.88338L11 3V16.5806L5.94903 13.4698L5.86435 13.4147C5.35635 13.0652 4.66307 13.0656 4.31671 13.4127C3.90496 13.8253 3.8554 14.3776 4.17241 14.8678L4.25207 14.9798L9.71801 21.999H20.689L21.995 14.561L21.9997 14.4586C22.0175 12.9968 21.0244 11.7439 19.7267 11.483L19.563 11.4556L13 10.814V3C13 2.48716 12.614 2.06449 12.1166 2.00673L12 2Z" fill="#262626"/>
</svg>
