<svg width="24" height="24" viewBox="0 0 24 24" fill="none" xmlns="http://www.w3.org/2000/svg">
<path fill-rule="evenodd" clip-rule="evenodd" d="M5 3C5 1.34315 6.34315 0 8 0H16C17.6569 0 19 1.34315 19 3V14.9573C19.6838 15.7097 20.0684 16.727 19.9897 17.8157L19.9858 17.8693L18.8726 24H9.51859L5.63845 19.1846C5.24233 18.693 5.02198 18.1007 5.00156 17.5H5V17.4082V3ZM17 3V13.7871C16.8771 13.759 16.7517 13.7365 16.6242 13.7201L14.9998 13.5083V10C14.9998 8.34315 13.6566 7 11.9998 7C10.3429 7 8.99979 8.34314 8.99979 10V14.9171C8.42374 14.6827 7.69789 14.5831 7 14.778V3C7 2.44772 7.44772 2 8 2H9V4H15V2H16C16.5523 2 17 2.44772 17 3ZM7 17.3942V17.4426C7.00581 17.6074 7.07096 17.7748 7.19579 17.9298L10.4755 22H17.2031L17.9978 17.6235C18.0419 16.6709 17.3424 15.8288 16.3692 15.7037L12.9998 15.2646V10C12.9998 9.44772 12.5521 9 11.9998 9C11.4475 9 10.9998 9.44771 10.9998 10V18.8938L8.33242 16.8087C8.17108 16.7238 7.96312 16.6692 7.76075 16.6745C7.55161 16.68 7.38027 16.7463 7.24669 16.8757C7.08897 17.0284 7.00657 17.2087 7 17.3942Z" fill="#262626"/>
</svg>
