<svg width="24" height="24" viewBox="0 0 24 24" fill="none" xmlns="http://www.w3.org/2000/svg">
<path fill-rule="evenodd" clip-rule="evenodd" d="M12 12C14.7614 12 17 9.76142 17 7C17 4.23858 14.7614 2 12 2C9.23858 2 7 4.23858 7 7C7 7.7111 7.14845 8.38754 7.41604 9H11C11.5523 9 12 9.44772 12 10C12 10.5523 11.5523 11 11 11H8.99951C9.83526 11.6279 10.8742 12 12 12ZM6.25469 11C7.51964 12.8135 9.62125 14 12 14C15.866 14 19 10.866 19 7C19 3.13401 15.866 0 12 0C8.13401 0 5 3.13401 5 7C5 7.69497 5.10128 8.36629 5.28988 9H4L4 5C4 4.44772 3.55228 4 3 4C2.44772 4 2 4.44772 2 5L2 9C2 10.1046 2.89543 11 4 11H6.25469ZM20.9241 24C19.9994 19.992 16.355 17 12 17C7.64502 17 4.00057 19.992 3.07587 24H1C1.95628 18.8798 6.51746 15 12 15C17.4825 15 22.0437 18.8798 23 24H20.9241ZM21 4C20.4477 4 20 4.44772 20 5V9C20 9.55228 20.4477 10 21 10C21.5523 10 22 9.55228 22 9V5C22 4.44772 21.5523 4 21 4Z" fill="#262626"/>
</svg>
