<svg width="24" height="24" viewBox="0 0 24 24" fill="none" xmlns="http://www.w3.org/2000/svg">
<path d="M5.49997 3.90629H0L3.13573e-05 13.4266L9.91153 23.0653C10.4709 23.6226 11.3624 23.6471 11.951 23.1213C12.4615 22.6652 12.5869 21.9399 12.3149 21.3525L12.6692 21.7102C13.255 22.3016 14.2047 22.3016 14.7905 21.7102C15.3763 21.1188 15.3763 20.1599 14.7905 19.5685L15.5078 20.2927C16.0936 20.8841 17.0433 20.8841 17.6291 20.2927C18.2149 19.7013 18.2149 18.7424 17.6291 18.151L18.326 18.8546C18.9118 19.446 19.8616 19.446 20.4473 18.8546C21.0331 18.2631 21.0331 17.3043 20.4473 16.7128L12.3156 8.50294L10.1943 10.6446C9.02274 11.8275 7.12324 11.8275 5.95167 10.6446L3.83035 8.50294C3.1384 7.80434 3.05946 6.72121 3.59353 5.93487L5.49997 3.90629Z" fill="#262626"/>
<path d="M10.6416 1.62619L5.95167 6.36122C5.56114 6.7555 5.56114 7.39475 5.95167 7.78903L6.65877 8.50294C7.43982 9.2915 8.70615 9.2915 9.4872 8.50294L12.3156 5.64732L19 12.488H24L24 3.9063H17.3906L14.2969 1.01943C13.5042 0.321996 12.0469 0.151796 10.6416 1.62619Z" fill="#262626"/>
</svg>
