<svg width="24" height="24" viewBox="0 0 24 24" fill="none" xmlns="http://www.w3.org/2000/svg">
<path d="M14.6641 5.80415L17.8422 2.51184C18.3901 1.94435 18.3975 1.04755 17.8592 0.47103C17.2817 -0.147543 16.3041 -0.158336 15.713 0.447334L10.6778 5.60681L10.6838 5.61275L10.5592 5.73844L10.3805 7.06235C11.7946 8.32246 12.5209 10.1515 12.3976 11.9956H11.3944C11.4081 11.8237 11.4131 11.6519 11.4093 11.4808C11.3789 10.0731 10.7615 8.71373 9.66169 7.76072C9.47276 7.597 9.36744 7.35937 9.3703 7.11283C9.37077 7.07911 9.37325 7.04523 9.37782 7.01135L9.70581 4.58006C9.86396 3.40852 8.95297 2.36629 7.7708 2.36629C7.3203 2.36629 6.9283 2.67454 6.82205 3.11233L6.03079 6.37284C6.01205 6.45005 6.00258 6.52922 6.00258 6.60867V14.166C7.00096 14.4358 7.88069 15.0135 8.50257 15.7969H10.38L10.3809 15.7938H11.4246L11.4237 15.7969H12.1694C13.3803 15.7969 14.4469 16.5442 14.8549 17.6241L14.9727 17.6054L18.0422 14.6519C19.7068 13.0502 19.6718 10.376 17.9657 8.81844L17.2628 8.17671L22.3435 2.88855C22.8886 2.32118 22.895 1.42691 22.3581 0.851822C21.7795 0.23219 20.7997 0.223126 20.2098 0.831949L15.0503 6.15674L14.6641 5.80415Z" fill="#262626"/>
<path d="M12.1696 16.7973H7.98101C7.33725 15.7209 6.10132 14.9967 4.72321 14.9967C2.66694 14.9967 1 16.609 1 18.5979V23.9999H13.6667C13.9076 23.9999 14.1462 23.9543 14.3701 23.8656L21.9393 20.8664C22.9944 20.4483 23.3388 19.1251 22.6213 18.2457C22.2434 17.7825 21.6476 17.5554 21.0573 17.6494L15.101 18.5979C15.101 20.1656 13.8302 21.4365 12.2625 21.4365H8.44641V20.3986H12.1696C13.1978 20.3986 14.0312 19.5924 14.0312 18.5979C14.0312 17.6035 13.1978 16.7973 12.1696 16.7973Z" fill="#262626"/>
</svg>
