<svg width="25" height="24" viewBox="0 0 25 24" fill="none" xmlns="http://www.w3.org/2000/svg">
<path fill-rule="evenodd" clip-rule="evenodd" d="M20.4694 2.11482C19.7016 0.965302 18.1473 0.655854 16.9978 1.42366L16.9912 1.42808L13.8801 3.57852C13.9013 2.85385 13.6057 2.12693 13.0128 1.6203C11.9723 0.731256 10.4081 0.853996 9.5191 1.89447L3.5348 9H0V20H3.83773L8.62413 21.5955C9.42793 21.8634 10.2697 22 11.117 22H16.5C17.8807 22 19 20.8807 19 19.5C19 19.2366 18.9593 18.9827 18.8838 18.7443C19.3905 19.8099 20.6007 20.3971 21.7826 20.0804C23.1139 19.7237 23.9039 18.3553 23.5472 17.024L22.0089 11.2829C21.8236 10.5914 21.2707 10.0593 20.5726 9.90053L20.547 9.89471L20.3156 9.85473L22.2089 9.23379C23.504 8.86956 24.2688 7.5303 23.9196 6.22709C23.5553 4.86732 22.127 4.08762 20.7853 4.52167L20.7726 4.52578L20.6548 4.56741C21.0137 3.79977 20.9734 2.86935 20.4694 2.11482ZM3 18V11H2V18H3ZM5 18.2792L9.25658 19.6981C9.85646 19.8981 10.4846 20 11.117 20H16.5C16.7761 20 17 19.7761 17 19.5C17 19.2239 16.7761 19 16.5 19H14.0323C13.0208 19 12.0963 18.4286 11.6439 17.5239C11.1299 16.4959 11.3314 15.2544 12.1441 14.4417L13.6253 12.9604C13.9202 12.6656 14.32 12.5 14.737 12.5L17.9568 12.5C18.7316 12.5 19.4088 13.0229 19.6049 13.7725L20.6573 17.7953C20.7268 18.0612 20.9995 18.2197 21.2649 18.1486C21.5293 18.0777 21.6862 17.806 21.6153 17.5416L20.089 11.8452L16.0172 11.1416C15.5647 11.0635 15.2236 10.6871 15.1902 10.2291C15.1567 9.77109 15.4395 9.34917 15.8759 9.20605L21.6347 7.31729L21.6613 7.31016C21.9076 7.24416 22.0537 6.99101 21.9878 6.74473C21.9199 6.49149 21.6578 6.34716 21.4102 6.42169L15.0701 8.66163C14.5938 8.82991 14.0668 8.61654 13.8417 8.16429C13.6166 7.71204 13.7642 7.16295 14.1856 6.88445L18.6813 3.9137C18.9012 3.75595 18.9572 3.45159 18.8063 3.22568C18.6531 2.99631 18.3441 2.93338 18.1136 3.08356L10.4436 8.38511C10.0302 8.67085 9.46898 8.60542 9.13242 8.23225C8.79585 7.85908 8.7885 7.2941 9.11524 6.9123L11.7765 3.80263C11.9372 3.60157 11.9099 3.30859 11.7136 3.14082C11.5135 2.96989 11.2131 2.99285 11.0413 3.19175L5 10.365V18.2792ZM18.7224 18.3015C18.7335 18.3439 18.7456 18.3858 18.7587 18.4271C18.3572 17.5833 17.4967 17 16.5 17H14.0323C13.7784 17 13.5463 16.8566 13.4328 16.6295C13.3038 16.3715 13.3544 16.0599 13.5583 15.8559L14.9142 14.5L17.7279 14.5L18.7224 18.3015Z" fill="#262626"/>
</svg>
