<svg width="24" height="24" viewBox="0 0 24 24" fill="none" xmlns="http://www.w3.org/2000/svg">
<path fill-rule="evenodd" clip-rule="evenodd" d="M12.5086 4.44167L9.85051 7.56059L17.4967 2.25331C18.1841 1.79227 19.1135 1.97808 19.5727 2.66834C20.0262 3.35018 19.8518 4.2712 19.1808 4.73835L14.6922 7.71684L22.0973 5.19703C22.8899 4.93952 23.7344 5.40175 23.95 6.20983C24.1581 6.98958 23.6973 7.79107 22.9208 8L16.1367 10.1543L20.2828 10.8737C20.6177 10.9502 20.883 11.2066 20.9719 11.5398L22.5038 17.2809C22.7167 18.0787 22.2452 18.8988 21.4507 19.1126C20.6529 19.3272 19.8335 18.8489 19.6244 18.0465L18.5765 14.0237C18.4958 13.714 18.2173 13.4981 17.8986 13.4981L14.6922 13.4981C14.5411 13.4981 14.3962 13.5584 14.2894 13.6656L12.8143 15.1469C12.3081 15.6552 12.1826 16.4318 12.5028 17.0748C12.7845 17.6407 13.3604 17.9981 13.9904 17.9981H17.4437C18.2687 17.9981 18.9375 18.6697 18.9375 19.4981C18.9375 20.3265 18.2687 20.9981 17.4437 20.9981H11.0873C10.3506 20.9981 9.61867 20.8788 8.91976 20.6449L4 18.9981V9.99809L10.2532 2.54219C10.7813 1.9216 11.7103 1.84838 12.3283 2.37865C12.9383 2.90205 13.0185 3.81961 12.5086 4.44167ZM3 9H0V20H3V9Z" fill="#262626"/>
</svg>
