<svg width="24" height="24" viewBox="0 0 24 24" fill="none" xmlns="http://www.w3.org/2000/svg">
<path d="M0 2C0 0.89543 0.895431 0 2 0H22C23.1046 0 24 0.895431 24 2V22C24 23.1046 23.1046 24 22 24H2C0.89543 24 0 23.1046 0 22V2Z" fill="#F9FCCC"/>
<path d="M4.67088 18V17.216C5.43888 16.448 6.12154 15.7547 6.71888 15.136C7.31621 14.5173 7.81754 13.9467 8.22288 13.424C8.62821 12.8907 8.93754 12.4053 9.15088 11.968C9.36421 11.52 9.47088 11.088 9.47088 10.672C9.47088 10.0853 9.31088 9.60533 8.99088 9.232C8.67088 8.85867 8.18554 8.672 7.53488 8.672C7.10821 8.672 6.71354 8.79467 6.35088 9.04C5.98821 9.27467 5.65754 9.56267 5.35888 9.904L4.60688 9.152C5.03354 8.68267 5.48688 8.30933 5.96688 8.032C6.44688 7.744 7.02288 7.6 7.69488 7.6C8.64421 7.6 9.39088 7.87733 9.93488 8.432C10.4789 8.976 10.7509 9.70133 10.7509 10.608C10.7509 11.088 10.6442 11.5733 10.4309 12.064C10.2282 12.544 9.94021 13.0453 9.56688 13.568C9.20421 14.08 8.76688 14.6187 8.25488 15.184C7.75354 15.7387 7.19888 16.3307 6.59088 16.96C6.86821 16.9387 7.15621 16.9173 7.45488 16.896C7.75354 16.8747 8.03621 16.864 8.30288 16.864H11.2629V18H4.67088ZM16.88 18V15.184H12.288V14.32L16.656 7.792H18.128V14.128H19.52V15.184H18.128V18H16.88ZM13.68 14.128H16.88V11.168C16.88 10.8907 16.8853 10.5653 16.896 10.192C16.9173 9.808 16.9387 9.47733 16.96 9.2H16.896C16.768 9.44533 16.6347 9.68533 16.496 9.92C16.3573 10.1547 16.2133 10.3947 16.064 10.64L13.68 14.128Z" fill="#262626"/>
<path d="M1.80374 22.9809L0.822757 22.7869L0.434619 24.7489L1.41561 24.9429L1.80374 22.9809ZM-0.94292 22.5844L-0.748851 23.5654L1.21312 23.1772L1.01906 22.1963L-0.94292 22.5844ZM1 19.5V18.5H-1V19.5H1ZM-1 4.5V5.5H1V4.5H-1ZM1.01906 1.80374L1.21312 0.822757L-0.748851 0.434619L-0.94292 1.41561L1.01906 1.80374ZM1.41561 -0.94292L0.434619 -0.748851L0.822757 1.21312L1.80374 1.01906L1.41561 -0.94292ZM4.5 1H5.5V-1H4.5V1ZM19.5 -1H18.5V1H19.5V-1ZM22.1963 1.01906L23.1772 1.21312L23.5654 -0.748851L22.5844 -0.94292L22.1963 1.01906ZM24.9429 1.41561L24.7489 0.434619L22.7869 0.822757L22.9809 1.80374L24.9429 1.41561ZM23 4.5V5.5H25V4.5H23ZM25 19.5V18.5H23V19.5H25ZM22.9809 22.1963L22.7869 23.1772L24.7489 23.5654L24.9429 22.5844L22.9809 22.1963ZM22.5844 24.9429L23.5654 24.7489L23.1772 22.7869L22.1963 22.9809L22.5844 24.9429ZM19.5 23H18.5V25H19.5V23ZM4.5 25H5.5V23H4.5V25ZM2 23C1.93193 23 1.86641 22.9933 1.80374 22.9809L1.41561 24.9429C1.60542 24.9805 1.80092 25 2 25V23ZM1.01906 22.1963C1.00666 22.1336 1 22.0681 1 22H-1C-1 22.1991 -0.98047 22.3946 -0.94292 22.5844L1.01906 22.1963ZM1 22V19.5H-1V22H1ZM1 4.5V2H-1V4.5H1ZM1 2C1 1.93193 1.00666 1.86641 1.01906 1.80374L-0.94292 1.41561C-0.98047 1.60542 -1 1.80092 -1 2H1ZM1.80374 1.01906C1.86641 1.00666 1.93193 1 2 1V-1C1.80092 -1 1.60542 -0.98047 1.41561 -0.94292L1.80374 1.01906ZM2 1H4.5V-1H2V1ZM19.5 1H22V-1H19.5V1ZM22 1C22.0681 1 22.1336 1.00666 22.1963 1.01906L22.5844 -0.94292C22.3946 -0.98047 22.1991 -1 22 -1V1ZM22.9809 1.80374C22.9933 1.86641 23 1.93193 23 2H25C25 1.80092 24.9805 1.60542 24.9429 1.41561L22.9809 1.80374ZM23 2V4.5H25V2H23ZM23 19.5V22H25V19.5H23ZM23 22C23 22.0681 22.9933 22.1336 22.9809 22.1963L24.9429 22.5844C24.9805 22.3946 25 22.1991 25 22H23ZM22.1963 22.9809C22.1336 22.9933 22.0681 23 22 23V25C22.1991 25 22.3946 24.9805 22.5844 24.9429L22.1963 22.9809ZM22 23H19.5V25H22V23ZM4.5 23H2V25H4.5V23ZM1.99781 22L0.0358376 21.6118L-0.740438 25.5358L1.22154 25.9239L1.99781 22ZM-1.92391 22.7785L-1.53577 24.7404L2.38818 23.9642L2.00004 22.0022L-1.92391 22.7785ZM2 19.5V17.5H-2V19.5H2ZM-2 4.5V6.5H2V4.5H-2ZM2.00004 1.99781L2.38818 0.0358376L-1.53577 -0.740438L-1.92391 1.22154L2.00004 1.99781ZM1.22154 -1.92391L-0.740437 -1.53577L0.0358378 2.38818L1.99781 2.00004L1.22154 -1.92391ZM4.5 2H6.5V-2H4.5V2ZM19.5 -2H17.5V2H19.5V-2ZM22.0022 2.00004L23.9642 2.38818L24.7404 -1.53577L22.7785 -1.92391L22.0022 2.00004ZM25.9239 1.22154L25.5358 -0.740437L21.6118 0.0358378L22 1.99781L25.9239 1.22154ZM22 4.5V6.5H26V4.5H22ZM26 19.5V17.5H22V19.5H26ZM22 22.0022L21.6118 23.9642L25.5358 24.7404L25.9239 22.7785L22 22.0022ZM22.7785 25.9239L24.7404 25.5358L23.9642 21.6118L22.0022 22L22.7785 25.9239ZM19.5 22H17.5V26H19.5V22ZM4.5 26H6.5V22H4.5V26ZM2 22C1.99744 22 1.99691 21.9998 1.99781 22L1.22154 25.9239C1.47492 25.974 1.73542 26 2 26V22ZM2.00004 22.0022C2.00022 22.0031 2 22.0026 2 22H-2C-2 22.2646 -1.97403 22.5251 -1.92391 22.7785L2.00004 22.0022ZM2 22V19.5H-2V22H2ZM2 4.5V2H-2V4.5H2ZM2 2C2 1.99744 2.00022 1.99691 2.00004 1.99781L-1.92391 1.22154C-1.97403 1.47492 -2 1.73542 -2 2H2ZM1.99781 2.00004C1.99691 2.00022 1.99744 2 2 2V-2C1.73542 -2 1.47492 -1.97403 1.22154 -1.92391L1.99781 2.00004ZM2 2H4.5V-2H2V2ZM19.5 2H22V-2H19.5V2ZM22 2C22.0026 2 22.0031 2.00022 22.0022 2.00004L22.7785 -1.92391C22.5251 -1.97403 22.2646 -2 22 -2V2ZM22 1.99781C21.9998 1.99691 22 1.99744 22 2H26C26 1.73542 25.974 1.47492 25.9239 1.22154L22 1.99781ZM22 2V4.5H26V2H22ZM22 19.5V22H26V19.5H22ZM22 22C22 22.0026 21.9998 22.0031 22 22.0022L25.9239 22.7785C25.974 22.5251 26 22.2646 26 22H22ZM22.0022 22C22.0031 21.9998 22.0026 22 22 22V26C22.2646 26 22.5251 25.974 22.7785 25.9239L22.0022 22ZM22 22H19.5V26H22V22ZM4.5 22H2V26H4.5V22Z" fill="#007C2E"/>
</svg>
