<svg width="16" height="16" viewBox="0 0 16 16" fill="none" xmlns="http://www.w3.org/2000/svg">
<g clip-path="url(#clip0_4379_7980)">
<path d="M0 2C0 0.895431 0.895431 0 2 0H14C15.1046 0 16 0.895431 16 2V14C16 15.1046 15.1046 16 14 16H2C0.895431 16 0 15.1046 0 14V2Z" fill="#F9FCCC"/>
<path d="M2.11902 13V12.048H4.16302V5.468H2.53902V4.726C2.94968 4.65133 3.30435 4.56267 3.60302 4.46C3.91102 4.348 4.18635 4.21733 4.42902 4.068H5.31102V12.048H7.15902V13H2.11902ZM11.78 13.168C11.3413 13.168 10.9353 13.0793 10.562 12.902C10.1887 12.7247 9.862 12.4587 9.582 12.104C9.31133 11.74 9.09667 11.292 8.938 10.76C8.77933 10.2187 8.7 9.58867 8.7 8.87C8.7 7.974 8.79333 7.21333 8.98 6.588C9.16667 5.95333 9.41867 5.44 9.736 5.048C10.0533 4.64667 10.4127 4.35733 10.814 4.18C11.2247 3.99333 11.654 3.9 12.102 3.9C12.5873 3.9 13.0027 3.99333 13.348 4.18C13.7027 4.35733 14.006 4.58133 14.258 4.852L13.614 5.566C13.4273 5.35133 13.2033 5.18333 12.942 5.062C12.69 4.93133 12.424 4.866 12.144 4.866C11.836 4.866 11.542 4.93133 11.262 5.062C10.982 5.19267 10.7347 5.40733 10.52 5.706C10.3053 6.00467 10.1327 6.39667 10.002 6.882C9.87133 7.358 9.80133 7.95067 9.792 8.66C10.072 8.31467 10.3987 8.044 10.772 7.848C11.1453 7.64267 11.514 7.54 11.878 7.54C12.6527 7.54 13.2687 7.76867 13.726 8.226C14.1927 8.68333 14.426 9.374 14.426 10.298C14.426 10.7273 14.356 11.1193 14.216 11.474C14.076 11.8193 13.8847 12.118 13.642 12.37C13.3993 12.622 13.1193 12.818 12.802 12.958C12.4847 13.098 12.144 13.168 11.78 13.168ZM11.78 12.258C12.004 12.258 12.2093 12.2113 12.396 12.118C12.5827 12.0247 12.746 11.894 12.886 11.726C13.026 11.5487 13.1333 11.3433 13.208 11.11C13.292 10.8673 13.334 10.5967 13.334 10.298C13.334 9.71 13.1987 9.248 12.928 8.912C12.6573 8.576 12.242 8.408 11.682 8.408C11.3927 8.408 11.08 8.50133 10.744 8.688C10.408 8.86533 10.1 9.164 9.82 9.584C9.89467 10.4613 10.0953 11.1287 10.422 11.586C10.758 12.034 11.2107 12.258 11.78 12.258Z" fill="#262626"/>
</g>
<path d="M1.80346 15.2347L1.06256 15.1183L0.829684 16.6001L1.57059 16.7166L1.80346 15.2347ZM-0.716562 14.4294L-0.600125 15.1703L0.881688 14.9374L0.765252 14.1965L-0.716562 14.4294ZM0.75 12.8V12.05H-0.75V12.8H0.75ZM-0.75 3.2V3.95H0.75V3.2H-0.75ZM0.765252 1.80346L0.881688 1.06256L-0.600125 0.829684L-0.716561 1.57059L0.765252 1.80346ZM1.57059 -0.716562L0.829685 -0.600125L1.06256 0.881688L1.80346 0.765252L1.57059 -0.716562ZM3.2 0.75H3.95V-0.75H3.2V0.75ZM12.8 -0.75H12.05V0.75H12.8V-0.75ZM14.1965 0.765252L14.9374 0.881688L15.1703 -0.600125L14.4294 -0.716561L14.1965 0.765252ZM16.7166 1.57059L16.6001 0.829685L15.1183 1.06256L15.2347 1.80346L16.7166 1.57059ZM15.25 3.2V3.95H16.75V3.2H15.25ZM16.75 12.8V12.05H15.25V12.8H16.75ZM15.2347 14.1965L15.1183 14.9374L16.6001 15.1703L16.7166 14.4294L15.2347 14.1965ZM14.4294 16.7166L15.1703 16.6001L14.9374 15.1183L14.1965 15.2347L14.4294 16.7166ZM12.8 15.25H12.05V16.75H12.8V15.25ZM3.2 16.75H3.95V15.25H3.2V16.75ZM2 15.25C1.93266 15.25 1.86706 15.2447 1.80346 15.2347L1.57059 16.7166C1.71094 16.7386 1.8544 16.75 2 16.75V15.25ZM0.765252 14.1965C0.755258 14.1329 0.75 14.0673 0.75 14H-0.75C-0.75 14.1456 -0.738618 14.2891 -0.716562 14.4294L0.765252 14.1965ZM0.75 14V12.8H-0.75V14H0.75ZM0.75 3.2V2H-0.75V3.2H0.75ZM0.75 2C0.75 1.93266 0.755258 1.86706 0.765252 1.80346L-0.716561 1.57059C-0.738618 1.71094 -0.75 1.8544 -0.75 2H0.75ZM1.80346 0.765252C1.86706 0.755258 1.93266 0.75 2 0.75V-0.75C1.8544 -0.75 1.71094 -0.738618 1.57059 -0.716562L1.80346 0.765252ZM2 0.75H3.2V-0.75H2V0.75ZM12.8 0.75H14V-0.75H12.8V0.75ZM14 0.75C14.0673 0.75 14.1329 0.755258 14.1965 0.765252L14.4294 -0.716561C14.2891 -0.738618 14.1456 -0.75 14 -0.75V0.75ZM15.2347 1.80346C15.2447 1.86706 15.25 1.93266 15.25 2H16.75C16.75 1.8544 16.7386 1.71094 16.7166 1.57059L15.2347 1.80346ZM15.25 2V3.2H16.75V2H15.25ZM15.25 12.8V14H16.75V12.8H15.25ZM15.25 14C15.25 14.0673 15.2447 14.1329 15.2347 14.1965L16.7166 14.4294C16.7386 14.2891 16.75 14.1456 16.75 14H15.25ZM14.1965 15.2347C14.1329 15.2447 14.0673 15.25 14 15.25V16.75C14.1456 16.75 14.2891 16.7386 14.4294 16.7166L14.1965 15.2347ZM14 15.25H12.8V16.75H14V15.25ZM3.2 15.25H2V16.75H3.2V15.25ZM1.9199 14.4938L0.438087 14.261L-0.0276589 17.2246L1.45415 17.4575L1.9199 14.4938ZM-1.45747 14.5458L-1.2246 16.0277L1.73903 15.5619L1.50616 14.0801L-1.45747 14.5458ZM1.5 12.8V11.3H-1.5V12.8H1.5ZM-1.5 3.2V4.7H1.5V3.2H-1.5ZM1.50616 1.9199L1.73903 0.438087L-1.2246 -0.0276589L-1.45747 1.45415L1.50616 1.9199ZM1.45415 -1.45747L-0.0276584 -1.2246L0.438087 1.73903L1.9199 1.50616L1.45415 -1.45747ZM3.2 1.5H4.7V-1.5H3.2V1.5ZM12.8 -1.5H11.3V1.5H12.8V-1.5ZM14.0801 1.50616L15.5619 1.73903L16.0277 -1.2246L14.5458 -1.45747L14.0801 1.50616ZM17.4575 1.45415L17.2246 -0.0276584L14.261 0.438087L14.4938 1.9199L17.4575 1.45415ZM14.5 3.2V4.7H17.5V3.2H14.5ZM17.5 12.8V11.3H14.5V12.8H17.5ZM14.4938 14.0801L14.261 15.5619L17.2246 16.0277L17.4575 14.5458L14.4938 14.0801ZM14.5458 17.4575L16.0277 17.2246L15.5619 14.261L14.0801 14.4938L14.5458 17.4575ZM12.8 14.5H11.3V17.5H12.8V14.5ZM3.2 17.5H4.7V14.5H3.2V17.5ZM2 14.5C1.97179 14.5 1.94512 14.4978 1.9199 14.4938L1.45415 17.4575C1.63288 17.4856 1.81527 17.5 2 17.5V14.5ZM1.50616 14.0801C1.5022 14.0549 1.5 14.0282 1.5 14H-1.5C-1.5 14.1847 -1.48556 14.3671 -1.45747 14.5458L1.50616 14.0801ZM1.5 14V12.8H-1.5V14H1.5ZM1.5 3.2V2H-1.5V3.2H1.5ZM1.5 2C1.5 1.97179 1.5022 1.94512 1.50616 1.9199L-1.45747 1.45415C-1.48556 1.63288 -1.5 1.81527 -1.5 2H1.5ZM1.9199 1.50616C1.94512 1.5022 1.97179 1.5 2 1.5V-1.5C1.81527 -1.5 1.63288 -1.48556 1.45415 -1.45747L1.9199 1.50616ZM2 1.5H3.2V-1.5H2V1.5ZM12.8 1.5H14V-1.5H12.8V1.5ZM14 1.5C14.0282 1.5 14.0549 1.5022 14.0801 1.50616L14.5458 -1.45747C14.3671 -1.48556 14.1847 -1.5 14 -1.5V1.5ZM14.4938 1.9199C14.4978 1.94512 14.5 1.97179 14.5 2H17.5C17.5 1.81527 17.4856 1.63288 17.4575 1.45415L14.4938 1.9199ZM14.5 2V3.2H17.5V2H14.5ZM14.5 12.8V14H17.5V12.8H14.5ZM14.5 14C14.5 14.0282 14.4978 14.0549 14.4938 14.0801L17.4575 14.5458C17.4856 14.3671 17.5 14.1847 17.5 14H14.5ZM14.0801 14.4938C14.0549 14.4978 14.0282 14.5 14 14.5V17.5C14.1847 17.5 14.3671 17.4856 14.5458 17.4575L14.0801 14.4938ZM14 14.5H12.8V17.5H14V14.5ZM3.2 14.5H2V17.5H3.2V14.5Z" fill="#007C2E"/>
<defs>
<clipPath id="clip0_4379_7980">
<path d="M0 2C0 0.895431 0.895431 0 2 0H14C15.1046 0 16 0.895431 16 2V14C16 15.1046 15.1046 16 14 16H2C0.895431 16 0 15.1046 0 14V2Z" fill="white"/>
</clipPath>
</defs>
</svg>
