<svg width="64" height="64" viewBox="0 0 64 64" fill="none" xmlns="http://www.w3.org/2000/svg">
<path d="M0 2C0 0.895431 0.895431 0 2 0H62C63.1046 0 64 0.895431 64 2V62C64 63.1046 63.1046 64 62 64H2C0.895431 64 0 63.1046 0 62V2Z" fill="#F9FCCC"/>
<path d="M27.4286 39.24C26.8019 39.24 26.2219 39.1133 25.6886 38.86C25.1553 38.6067 24.6886 38.2267 24.2886 37.72C23.9019 37.2 23.5953 36.56 23.3686 35.8C23.1419 35.0267 23.0286 34.1267 23.0286 33.1C23.0286 31.82 23.1619 30.7333 23.4286 29.84C23.6953 28.9333 24.0553 28.2 24.5086 27.64C24.9619 27.0667 25.4753 26.6533 26.0486 26.4C26.6353 26.1333 27.2486 26 27.8886 26C28.5819 26 29.1753 26.1333 29.6686 26.4C30.1753 26.6533 30.6086 26.9733 30.9686 27.36L30.0486 28.38C29.7819 28.0733 29.4619 27.8333 29.0886 27.66C28.7286 27.4733 28.3486 27.38 27.9486 27.38C27.5086 27.38 27.0886 27.4733 26.6886 27.66C26.2886 27.8467 25.9353 28.1533 25.6286 28.58C25.3219 29.0067 25.0753 29.5667 24.8886 30.26C24.7019 30.94 24.6019 31.7867 24.5886 32.8C24.9886 32.3067 25.4553 31.92 25.9886 31.64C26.5219 31.3467 27.0486 31.2 27.5686 31.2C28.6753 31.2 29.5553 31.5267 30.2086 32.18C30.8753 32.8333 31.2086 33.82 31.2086 35.14C31.2086 35.7533 31.1086 36.3133 30.9086 36.82C30.7086 37.3133 30.4353 37.74 30.0886 38.1C29.7419 38.46 29.3419 38.74 28.8886 38.94C28.4353 39.14 27.9486 39.24 27.4286 39.24ZM27.4286 37.94C27.7486 37.94 28.0419 37.8733 28.3086 37.74C28.5753 37.6067 28.8086 37.42 29.0086 37.18C29.2086 36.9267 29.3619 36.6333 29.4686 36.3C29.5886 35.9533 29.6486 35.5667 29.6486 35.14C29.6486 34.3 29.4553 33.64 29.0686 33.16C28.6819 32.68 28.0886 32.44 27.2886 32.44C26.8753 32.44 26.4286 32.5733 25.9486 32.84C25.4686 33.0933 25.0286 33.52 24.6286 34.12C24.7353 35.3733 25.0219 36.3267 25.4886 36.98C25.9686 37.62 26.6153 37.94 27.4286 37.94ZM38.07 39V35.48H32.33V34.4L37.79 26.24H39.63V34.16H41.37V35.48H39.63V39H38.07ZM34.07 34.16H38.07V30.46C38.07 30.1133 38.0767 29.7067 38.09 29.24C38.1167 28.76 38.1433 28.3467 38.17 28H38.09C37.93 28.3067 37.7633 28.6067 37.59 28.9C37.4167 29.1933 37.2367 29.4933 37.05 29.8L34.07 34.16Z" fill="#262626"/>
<path d="M1.85065 62.4777L0.418437 62.0319L-0.473212 64.8963L0.959004 65.3422L1.85065 62.4777ZM-1.34216 63.041L-0.89634 64.4732L1.96809 63.5816L1.52227 62.1493L-1.34216 63.041ZM1.5 50.4615V48.9615H-1.5V50.4615H1.5ZM-1.5 13.5385V15.0385H1.5V13.5385H-1.5ZM1.52227 1.85065L1.96809 0.418437L-0.89634 -0.473212L-1.34216 0.959004L1.52227 1.85065ZM0.959004 -1.34216L-0.473211 -0.89634L0.418437 1.96809L1.85065 1.52227L0.959004 -1.34216ZM13.5385 1.5H15.0385V-1.5H13.5385V1.5ZM50.4615 -1.5H48.9615V1.5H50.4615V-1.5ZM62.1493 1.52227L63.5816 1.96809L64.4732 -0.89634L63.041 -1.34216L62.1493 1.52227ZM65.3422 0.959004L64.8963 -0.473211L62.0319 0.418437L62.4777 1.85065L65.3422 0.959004ZM62.5 13.5385V15.0385H65.5V13.5385H62.5ZM65.5 50.4615V48.9615H62.5V50.4615H65.5ZM62.4777 62.1493L62.0319 63.5816L64.8963 64.4732L65.3422 63.041L62.4777 62.1493ZM63.041 65.3422L64.4732 64.8963L63.5816 62.0319L62.1493 62.4777L63.041 65.3422ZM50.4615 62.5H48.9615V65.5H50.4615V62.5ZM13.5385 65.5H15.0385V62.5H13.5385V65.5ZM2 62.5C1.94563 62.5 1.89596 62.4918 1.85065 62.4777L0.959004 65.3422C1.2897 65.4451 1.63984 65.5 2 65.5V62.5ZM1.52227 62.1493C1.50816 62.104 1.5 62.0544 1.5 62H-1.5C-1.5 62.3602 -1.4451 62.7103 -1.34216 63.041L1.52227 62.1493ZM1.5 62V50.4615H-1.5V62H1.5ZM1.5 13.5385V2H-1.5V13.5385H1.5ZM1.5 2C1.5 1.94563 1.50816 1.89596 1.52227 1.85065L-1.34216 0.959004C-1.4451 1.2897 -1.5 1.63984 -1.5 2H1.5ZM1.85065 1.52227C1.89596 1.50816 1.94563 1.5 2 1.5V-1.5C1.63984 -1.5 1.2897 -1.4451 0.959004 -1.34216L1.85065 1.52227ZM2 1.5H13.5385V-1.5H2V1.5ZM50.4615 1.5H62V-1.5H50.4615V1.5ZM62 1.5C62.0544 1.5 62.104 1.50816 62.1493 1.52227L63.041 -1.34216C62.7103 -1.4451 62.3602 -1.5 62 -1.5V1.5ZM62.4777 1.85065C62.4918 1.89596 62.5 1.94563 62.5 2H65.5C65.5 1.63984 65.4451 1.2897 65.3422 0.959004L62.4777 1.85065ZM62.5 2V13.5385H65.5V2H62.5ZM62.5 50.4615V62H65.5V50.4615H62.5ZM62.5 62C62.5 62.0544 62.4918 62.104 62.4777 62.1493L65.3422 63.041C65.4451 62.7103 65.5 62.3602 65.5 62H62.5ZM62.1493 62.4777C62.104 62.4918 62.0544 62.5 62 62.5V65.5C62.3602 65.5 62.7103 65.4451 63.041 65.3422L62.1493 62.4777ZM62 62.5H50.4615V65.5H62V62.5ZM13.5385 62.5H2V65.5H13.5385V62.5ZM2.29648 61.0455L-0.567954 60.1539L-2.35125 65.8827L0.513179 66.7744L2.29648 61.0455ZM-2.77438 63.4868L-1.88273 66.3513L3.84613 64.568L2.95448 61.7035L-2.77438 63.4868ZM3 50.4615V47.4615H-3V50.4615H3ZM-3 13.5385V16.5385H3V13.5385H-3ZM2.95448 2.29648L3.84613 -0.567954L-1.88273 -2.35125L-2.77438 0.513179L2.95448 2.29648ZM0.51318 -2.77438L-2.35125 -1.88273L-0.567954 3.84613L2.29648 2.95448L0.51318 -2.77438ZM13.5385 3H16.5385V-3H13.5385V3ZM50.4615 -3H47.4615V3H50.4615V-3ZM61.7035 2.95448L64.568 3.84613L66.3513 -1.88273L63.4868 -2.77438L61.7035 2.95448ZM66.7744 0.51318L65.8827 -2.35125L60.1539 -0.567954L61.0455 2.29648L66.7744 0.51318ZM61 13.5385V16.5385H67V13.5385H61ZM67 50.4615V47.4615H61V50.4615H67ZM61.0455 61.7035L60.1539 64.568L65.8827 66.3513L66.7744 63.4868L61.0455 61.7035ZM63.4868 66.7744L66.3513 65.8827L64.568 60.1539L61.7035 61.0455L63.4868 66.7744ZM50.4615 61H47.4615V67H50.4615V61ZM13.5385 67H16.5385V61H13.5385V67ZM2 61C2.09852 61 2.1991 61.0152 2.29648 61.0455L0.513179 66.7744C0.986568 66.9217 1.48695 67 2 67V61ZM2.95448 61.7035C2.98479 61.8009 3 61.9015 3 62H-3C-3 62.5131 -2.92174 63.0134 -2.77438 63.4868L2.95448 61.7035ZM3 62V50.4615H-3V62H3ZM3 13.5385V2H-3V13.5385H3ZM3 2C3 2.09852 2.98479 2.1991 2.95448 2.29648L-2.77438 0.513179C-2.92174 0.986568 -3 1.48695 -3 2H3ZM2.29648 2.95448C2.1991 2.98479 2.09852 3 2 3V-3C1.48695 -3 0.986568 -2.92174 0.51318 -2.77438L2.29648 2.95448ZM2 3H13.5385V-3H2V3ZM50.4615 3H62V-3H50.4615V3ZM62 3C61.9015 3 61.8009 2.98479 61.7035 2.95448L63.4868 -2.77438C63.0134 -2.92174 62.5131 -3 62 -3V3ZM61.0455 2.29648C61.0152 2.1991 61 2.09852 61 2H67C67 1.48695 66.9217 0.986568 66.7744 0.51318L61.0455 2.29648ZM61 2V13.5385H67V2H61ZM61 50.4615V62H67V50.4615H61ZM61 62C61 61.9015 61.0152 61.8009 61.0455 61.7035L66.7744 63.4868C66.9217 63.0134 67 62.5131 67 62H61ZM61.7035 61.0455C61.8009 61.0152 61.9015 61 62 61V67C62.5131 67 63.0134 66.9217 63.4868 66.7744L61.7035 61.0455ZM62 61H50.4615V67H62V61ZM13.5385 61H2V67H13.5385V61Z" fill="#007C2E"/>
</svg>
