<svg width="32" height="32" viewBox="0 0 32 32" fill="none" xmlns="http://www.w3.org/2000/svg">
<path d="M0 2C0 0.895431 0.895431 0 2 0H30C31.1046 0 32 0.895431 32 2V30C32 31.1046 31.1046 32 30 32H2C0.895431 32 0 31.1046 0 30V2Z" fill="#F9FCCC"/>
<path d="M11.3007 22.216C10.8447 22.216 10.4247 22.168 10.0407 22.072C9.66873 21.988 9.32673 21.874 9.01473 21.73C8.70273 21.574 8.42073 21.4 8.16873 21.208C7.92873 21.016 7.71273 20.812 7.52073 20.596L8.27673 19.624C8.62473 19.984 9.02673 20.302 9.48273 20.578C9.95073 20.854 10.5267 20.992 11.2107 20.992C11.9067 20.992 12.4767 20.806 12.9207 20.434C13.3647 20.05 13.5867 19.534 13.5867 18.886C13.5867 18.55 13.5207 18.244 13.3887 17.968C13.2687 17.68 13.0647 17.434 12.7767 17.23C12.4887 17.026 12.1107 16.87 11.6427 16.762C11.1747 16.654 10.5987 16.6 9.91473 16.6V15.466C10.5267 15.466 11.0367 15.412 11.4447 15.304C11.8647 15.196 12.2007 15.046 12.4527 14.854C12.7167 14.662 12.9027 14.434 13.0107 14.17C13.1187 13.906 13.1727 13.624 13.1727 13.324C13.1727 12.76 12.9927 12.316 12.6327 11.992C12.2847 11.668 11.8047 11.506 11.1927 11.506C10.7127 11.506 10.2687 11.614 9.86073 11.83C9.46473 12.046 9.09273 12.328 8.74473 12.676L7.95273 11.74C8.39673 11.32 8.88273 10.978 9.41073 10.714C9.95073 10.438 10.5627 10.3 11.2467 10.3C11.7507 10.3 12.2127 10.366 12.6327 10.498C13.0527 10.63 13.4127 10.822 13.7127 11.074C14.0247 11.314 14.2647 11.614 14.4327 11.974C14.6007 12.334 14.6847 12.748 14.6847 13.216C14.6847 13.912 14.4927 14.482 14.1087 14.926C13.7247 15.37 13.2207 15.712 12.5967 15.952V16.024C12.9447 16.108 13.2687 16.234 13.5687 16.402C13.8687 16.558 14.1327 16.762 14.3607 17.014C14.5887 17.254 14.7627 17.536 14.8827 17.86C15.0147 18.184 15.0807 18.544 15.0807 18.94C15.0807 19.444 14.9787 19.9 14.7747 20.308C14.5827 20.716 14.3127 21.064 13.9647 21.352C13.6287 21.628 13.2327 21.844 12.7767 22C12.3207 22.144 11.8287 22.216 11.3007 22.216ZM16.72 22V21.118C17.584 20.254 18.352 19.474 19.024 18.778C19.696 18.082 20.26 17.44 20.716 16.852C21.172 16.252 21.52 15.706 21.76 15.214C22 14.71 22.12 14.224 22.12 13.756C22.12 13.096 21.94 12.556 21.58 12.136C21.22 11.716 20.674 11.506 19.942 11.506C19.462 11.506 19.018 11.644 18.61 11.92C18.202 12.184 17.83 12.508 17.494 12.892L16.648 12.046C17.128 11.518 17.638 11.098 18.178 10.786C18.718 10.462 19.366 10.3 20.122 10.3C21.19 10.3 22.03 10.612 22.642 11.236C23.254 11.848 23.56 12.664 23.56 13.684C23.56 14.224 23.44 14.77 23.2 15.322C22.972 15.862 22.648 16.426 22.228 17.014C21.82 17.59 21.328 18.196 20.752 18.832C20.188 19.456 19.564 20.122 18.88 20.83C19.192 20.806 19.516 20.782 19.852 20.758C20.188 20.734 20.506 20.722 20.806 20.722H24.136V22H16.72Z" fill="#262626"/>
<path d="M1.6906 30.9515L0.739486 30.6427L0.12179 32.5449L1.0729 32.8537L1.6906 30.9515ZM-0.853722 30.9271L-0.544874 31.8782L1.35735 31.2605L1.0485 30.3094L-0.853722 30.9271ZM1 24.4V23.4H-1V24.4H1ZM-1 7.6V8.6H1V7.6H-1ZM1.0485 1.6906L1.35735 0.739486L-0.544874 0.12179L-0.853722 1.0729L1.0485 1.6906ZM1.0729 -0.853722L0.121791 -0.544874L0.739486 1.35735L1.6906 1.0485L1.0729 -0.853722ZM7.6 1H8.6V-1H7.6V1ZM24.4 -1H23.4V1H24.4V-1ZM30.3094 1.0485L31.2605 1.35735L31.8782 -0.544874L30.9271 -0.853722L30.3094 1.0485ZM32.8537 1.0729L32.5449 0.121791L30.6427 0.739486L30.9515 1.6906L32.8537 1.0729ZM31 7.6V8.6H33V7.6H31ZM33 24.4V23.4H31V24.4H33ZM30.9515 30.3094L30.6427 31.2605L32.5449 31.8782L32.8537 30.9271L30.9515 30.3094ZM30.9271 32.8537L31.8782 32.5449L31.2605 30.6427L30.3094 30.9515L30.9271 32.8537ZM24.4 31H23.4V33H24.4V31ZM7.6 33H8.6V31H7.6V33ZM2 31C1.89038 31 1.78676 30.9827 1.6906 30.9515L1.0729 32.8537C1.36612 32.9489 1.67808 33 2 33V31ZM1.0485 30.3094C1.01727 30.2132 1 30.1096 1 30H-1C-1 30.3219 -0.948938 30.6339 -0.853722 30.9271L1.0485 30.3094ZM1 30V24.4H-1V30H1ZM1 7.6V2H-1V7.6H1ZM1 2C1 1.89038 1.01727 1.78676 1.0485 1.6906L-0.853722 1.0729C-0.948938 1.36612 -1 1.67808 -1 2H1ZM1.6906 1.0485C1.78676 1.01727 1.89038 1 2 1V-1C1.67808 -1 1.36612 -0.948938 1.0729 -0.853722L1.6906 1.0485ZM2 1H7.6V-1H2V1ZM24.4 1H30V-1H24.4V1ZM30 1C30.1096 1 30.2132 1.01727 30.3094 1.0485L30.9271 -0.853722C30.6339 -0.948938 30.3219 -1 30 -1V1ZM30.9515 1.6906C30.9827 1.78676 31 1.89038 31 2H33C33 1.67808 32.9489 1.36612 32.8537 1.0729L30.9515 1.6906ZM31 2V7.6H33V2H31ZM31 24.4V30H33V24.4H31ZM31 30C31 30.1096 30.9827 30.2132 30.9515 30.3094L32.8537 30.9271C32.9489 30.6339 33 30.3219 33 30H31ZM30.3094 30.9515C30.2132 30.9827 30.1096 31 30 31V33C30.3219 33 30.6339 32.9489 30.9271 32.8537L30.3094 30.9515ZM30 31H24.4V33H30V31ZM7.6 31H2V33H7.6V31ZM1.99945 30.0004L0.097222 29.3827L-1.13817 33.1871L0.764054 33.8048L1.99945 30.0004ZM-1.80483 31.2359L-1.18714 33.1382L2.61731 31.9028L1.99961 30.0006L-1.80483 31.2359ZM2 24.4V22.4H-2V24.4H2ZM-2 7.6V9.6H2V7.6H-2ZM1.99961 1.99945L2.61731 0.097222L-1.18714 -1.13817L-1.80483 0.764054L1.99961 1.99945ZM0.764054 -1.80483L-1.13817 -1.18714L0.097222 2.61731L1.99945 1.99961L0.764054 -1.80483ZM7.6 2H9.6V-2H7.6V2ZM24.4 -2H22.4V2H24.4V-2ZM30.0006 1.99961L31.9028 2.61731L33.1382 -1.18714L31.2359 -1.80483L30.0006 1.99961ZM33.8048 0.764054L33.1871 -1.13817L29.3827 0.097222L30.0004 1.99945L33.8048 0.764054ZM30 7.6V9.6H34V7.6H30ZM34 24.4V22.4H30V24.4H34ZM30.0004 30.0006L29.3827 31.9028L33.1871 33.1382L33.8048 31.2359L30.0004 30.0006ZM31.2359 33.8048L33.1382 33.1871L31.9028 29.3827L30.0006 30.0004L31.2359 33.8048ZM24.4 30H22.4V34H24.4V30ZM7.6 34H9.6V30H7.6V34ZM2 30L1.99945 30.0004L0.764054 33.8048C1.15581 33.932 1.57193 34 2 34V30ZM1.99961 30.0006L2 30H-2C-2 30.4281 -1.93204 30.8442 -1.80483 31.2359L1.99961 30.0006ZM2 30V24.4H-2V30H2ZM2 7.6V2H-2V7.6H2ZM2 2L1.99961 1.99945L-1.80483 0.764054C-1.93204 1.15581 -2 1.57193 -2 2H2ZM1.99945 1.99961L2 2V-2C1.57193 -2 1.15581 -1.93204 0.764054 -1.80483L1.99945 1.99961ZM2 2H7.6V-2H2V2ZM24.4 2H30V-2H24.4V2ZM30 2L30.0006 1.99961L31.2359 -1.80483C30.8442 -1.93204 30.4281 -2 30 -2V2ZM30.0004 1.99945L30 2H34C34 1.57193 33.932 1.15581 33.8048 0.764054L30.0004 1.99945ZM30 2V7.6H34V2H30ZM30 24.4V30H34V24.4H30ZM30 30L30.0004 30.0006L33.8048 31.2359C33.932 30.8442 34 30.4281 34 30H30ZM30.0006 30.0004L30 30V34C30.4281 34 30.8442 33.932 31.2359 33.8048L30.0006 30.0004ZM30 30H24.4V34H30V30ZM7.6 30H2V34H7.6V30Z" fill="#007C2E"/>
</svg>
