<svg width="20" height="20" viewBox="0 0 20 20" fill="none" xmlns="http://www.w3.org/2000/svg">
<path d="M0 2C0 0.895431 0.895431 0 2 0H18C19.1046 0 20 0.895431 20 2V18C20 19.1046 19.1046 20 18 20H2C0.895431 20 0 19.1046 0 18V2Z" fill="#F9FCCC"/>
<path d="M3.57302 15V14.314C4.24502 13.642 4.84235 13.0353 5.36502 12.494C5.88768 11.9527 6.32635 11.4533 6.68102 10.996C7.03568 10.5293 7.30635 10.1047 7.49302 9.722C7.67968 9.33 7.77302 8.952 7.77302 8.588C7.77302 8.07467 7.63302 7.65467 7.35302 7.328C7.07302 7.00133 6.64835 6.838 6.07902 6.838C5.70568 6.838 5.36035 6.94533 5.04302 7.16C4.72568 7.36533 4.43635 7.61733 4.17502 7.916L3.51702 7.258C3.89035 6.84733 4.28702 6.52067 4.70702 6.278C5.12702 6.026 5.63102 5.9 6.21902 5.9C7.04968 5.9 7.70302 6.14267 8.17902 6.628C8.65502 7.104 8.89302 7.73867 8.89302 8.532C8.89302 8.952 8.79968 9.37667 8.61302 9.806C8.43568 10.226 8.18368 10.6647 7.85702 11.122C7.53968 11.57 7.15702 12.0413 6.70902 12.536C6.27035 13.0213 5.78502 13.5393 5.25302 14.09C5.49568 14.0713 5.74768 14.0527 6.00902 14.034C6.27035 14.0153 6.51768 14.006 6.75102 14.006H9.34102V15H3.57302ZM13.514 15.168C12.6087 15.168 11.904 14.7667 11.4 13.964C10.896 13.1613 10.644 12.0087 10.644 10.506C10.644 9.00333 10.896 7.86 11.4 7.076C11.904 6.292 12.6087 5.9 13.514 5.9C14.41 5.9 15.11 6.292 15.614 7.076C16.118 7.86 16.37 9.00333 16.37 10.506C16.37 12.0087 16.118 13.1613 15.614 13.964C15.11 14.7667 14.41 15.168 13.514 15.168ZM13.514 14.244C13.7753 14.244 14.0087 14.174 14.214 14.034C14.4287 13.8847 14.6107 13.6607 14.76 13.362C14.9187 13.054 15.04 12.6667 15.124 12.2C15.208 11.724 15.25 11.1593 15.25 10.506C15.25 9.85267 15.208 9.29267 15.124 8.826C15.04 8.35933 14.9187 7.98133 14.76 7.692C14.6107 7.39333 14.4287 7.174 14.214 7.034C14.0087 6.894 13.7753 6.824 13.514 6.824C13.2527 6.824 13.0147 6.894 12.8 7.034C12.5853 7.174 12.3987 7.39333 12.24 7.692C12.0907 7.98133 11.974 8.35933 11.89 8.826C11.806 9.29267 11.764 9.85267 11.764 10.506C11.764 11.8127 11.9227 12.7647 12.24 13.362C12.5667 13.95 12.9913 14.244 13.514 14.244Z" fill="#262626"/>
<path d="M1.67585 19.2078L0.951292 19.0141L0.563934 20.4632L1.28849 20.6569L1.67585 19.2078ZM-0.656876 18.7115L-0.463197 19.4361L0.985925 19.0487L0.792246 18.3241L-0.656876 18.7115ZM0.75 15.3333V14.5833H-0.75V15.3333H0.75ZM-0.75 4.66667V5.41667H0.75V4.66667H-0.75ZM0.792246 1.67585L0.985925 0.951292L-0.463197 0.563934L-0.656876 1.28849L0.792246 1.67585ZM1.28849 -0.656876L0.563934 -0.463197L0.951292 0.985925L1.67585 0.792246L1.28849 -0.656876ZM4.66667 0.75H5.41667V-0.75H4.66667V0.75ZM15.3333 -0.75H14.5833V0.75H15.3333V-0.75ZM18.3241 0.792246L19.0487 0.985925L19.4361 -0.463197L18.7115 -0.656876L18.3241 0.792246ZM20.6569 1.28849L20.4632 0.563934L19.0141 0.951292L19.2078 1.67585L20.6569 1.28849ZM19.25 4.66667V5.41667H20.75V4.66667H19.25ZM20.75 15.3333V14.5833H19.25V15.3333H20.75ZM19.2078 18.3241L19.0141 19.0487L20.4632 19.4361L20.6569 18.7115L19.2078 18.3241ZM18.7115 20.6569L19.4361 20.4632L19.0487 19.0141L18.3241 19.2078L18.7115 20.6569ZM15.3333 19.25H14.5833V20.75H15.3333V19.25ZM4.66667 20.75H5.41667V19.25H4.66667V20.75ZM2 19.25C1.88689 19.25 1.77841 19.2352 1.67585 19.2078L1.28849 20.6569C1.51627 20.7178 1.75494 20.75 2 20.75V19.25ZM0.792246 18.3241C0.764833 18.2216 0.75 18.1131 0.75 18H-0.75C-0.75 18.2451 -0.71776 18.4837 -0.656876 18.7115L0.792246 18.3241ZM0.75 18V15.3333H-0.75V18H0.75ZM0.75 4.66667V2H-0.75V4.66667H0.75ZM0.75 2C0.75 1.88689 0.764833 1.77841 0.792246 1.67585L-0.656876 1.28849C-0.71776 1.51627 -0.75 1.75494 -0.75 2H0.75ZM1.67585 0.792246C1.77841 0.764833 1.88689 0.75 2 0.75V-0.75C1.75494 -0.75 1.51627 -0.71776 1.28849 -0.656876L1.67585 0.792246ZM2 0.75H4.66667V-0.75H2V0.75ZM15.3333 0.75H18V-0.75H15.3333V0.75ZM18 0.75C18.1131 0.75 18.2216 0.764833 18.3241 0.792246L18.7115 -0.656876C18.4837 -0.71776 18.2451 -0.75 18 -0.75V0.75ZM19.2078 1.67585C19.2352 1.77841 19.25 1.88689 19.25 2H20.75C20.75 1.75494 20.7178 1.51627 20.6569 1.28849L19.2078 1.67585ZM19.25 2V4.66667H20.75V2H19.25ZM19.25 15.3333V18H20.75V15.3333H19.25ZM19.25 18C19.25 18.1131 19.2352 18.2216 19.2078 18.3241L20.6569 18.7115C20.7178 18.4837 20.75 18.2451 20.75 18H19.25ZM18.3241 19.2078C18.2216 19.2352 18.1131 19.25 18 19.25V20.75C18.2451 20.75 18.4837 20.7178 18.7115 20.6569L18.3241 19.2078ZM18 19.25H15.3333V20.75H18V19.25ZM4.66667 19.25H2V20.75H4.66667V19.25ZM1.86953 18.4832L0.42041 18.0958L-0.354306 20.9941L1.09482 21.3814L1.86953 18.4832ZM-1.38144 18.9052L-0.994078 20.3543L1.90417 19.5796L1.51681 18.1305L-1.38144 18.9052ZM1.5 15.3333V13.8333H-1.5V15.3333H1.5ZM-1.5 4.66667V6.16667H1.5V4.66667H-1.5ZM1.51681 1.86953L1.90417 0.42041L-0.994078 -0.354306L-1.38144 1.09482L1.51681 1.86953ZM1.09482 -1.38144L-0.354306 -0.994078L0.42041 1.90417L1.86953 1.51681L1.09482 -1.38144ZM4.66667 1.5H6.16667V-1.5H4.66667V1.5ZM15.3333 -1.5H13.8333V1.5H15.3333V-1.5ZM18.1305 1.51681L19.5796 1.90417L20.3543 -0.994078L18.9052 -1.38144L18.1305 1.51681ZM21.3814 1.09482L20.9941 -0.354306L18.0958 0.42041L18.4832 1.86953L21.3814 1.09482ZM18.5 4.66667V6.16667H21.5V4.66667H18.5ZM21.5 15.3333V13.8333H18.5V15.3333H21.5ZM18.4832 18.1305L18.0958 19.5796L20.9941 20.3543L21.3814 18.9052L18.4832 18.1305ZM18.9052 21.3814L20.3543 20.9941L19.5796 18.0958L18.1305 18.4832L18.9052 21.3814ZM15.3333 18.5H13.8333V21.5H15.3333V18.5ZM4.66667 21.5H6.16667V18.5H4.66667V21.5ZM2 18.5C1.95287 18.5 1.90948 18.4939 1.86953 18.4832L1.09482 21.3814C1.3852 21.4591 1.68897 21.5 2 21.5V18.5ZM1.51681 18.1305C1.50613 18.0905 1.5 18.0471 1.5 18H-1.5C-1.5 18.311 -1.45906 18.6148 -1.38144 18.9052L1.51681 18.1305ZM1.5 18V15.3333H-1.5V18H1.5ZM1.5 4.66667V2H-1.5V4.66667H1.5ZM1.5 2C1.5 1.95287 1.50613 1.90948 1.51681 1.86953L-1.38144 1.09482C-1.45906 1.3852 -1.5 1.68897 -1.5 2H1.5ZM1.86953 1.51681C1.90948 1.50613 1.95287 1.5 2 1.5V-1.5C1.68897 -1.5 1.3852 -1.45906 1.09482 -1.38144L1.86953 1.51681ZM2 1.5H4.66667V-1.5H2V1.5ZM15.3333 1.5H18V-1.5H15.3333V1.5ZM18 1.5C18.0471 1.5 18.0905 1.50613 18.1305 1.51681L18.9052 -1.38144C18.6148 -1.45906 18.311 -1.5 18 -1.5V1.5ZM18.4832 1.86953C18.4939 1.90948 18.5 1.95287 18.5 2H21.5C21.5 1.68897 21.4591 1.3852 21.3814 1.09482L18.4832 1.86953ZM18.5 2V4.66667H21.5V2H18.5ZM18.5 15.3333V18H21.5V15.3333H18.5ZM18.5 18C18.5 18.0471 18.4939 18.0905 18.4832 18.1305L21.3814 18.9052C21.4591 18.6148 21.5 18.311 21.5 18H18.5ZM18.1305 18.4832C18.0905 18.4939 18.0471 18.5 18 18.5V21.5C18.311 21.5 18.6148 21.4591 18.9052 21.3814L18.1305 18.4832ZM18 18.5H15.3333V21.5H18V18.5ZM4.66667 18.5H2V21.5H4.66667V18.5Z" fill="#007C2E"/>
</svg>
