<svg width="56" height="56" viewBox="0 0 56 56" fill="none" xmlns="http://www.w3.org/2000/svg">
<path d="M0 2C0 0.89543 0.895431 0 2 0H54C55.1046 0 56 0.895431 56 2V54C56 55.1046 55.1046 56 54 56H2C0.89543 56 0 55.1046 0 54V2Z" fill="#F9FCCC"/>
<path d="M22.7486 35.24C22.2419 35.24 21.7753 35.1867 21.3486 35.08C20.9353 34.9867 20.5553 34.86 20.2086 34.7C19.8753 34.54 19.5686 34.36 19.2886 34.16C19.0219 33.9467 18.7819 33.7267 18.5686 33.5L19.3686 32.42C19.7419 32.8067 20.1819 33.1467 20.6886 33.44C21.2086 33.7333 21.8419 33.88 22.5886 33.88C22.9753 33.88 23.3353 33.8133 23.6686 33.68C24.0153 33.5333 24.3153 33.3333 24.5686 33.08C24.8219 32.8267 25.0219 32.52 25.1686 32.16C25.3153 31.8 25.3886 31.4 25.3886 30.96C25.3886 30.08 25.1419 29.3933 24.6486 28.9C24.1553 28.4067 23.4953 28.16 22.6686 28.16C22.2286 28.16 21.8486 28.2267 21.5286 28.36C21.2219 28.4933 20.8753 28.6867 20.4886 28.94L19.6086 28.38L20.0286 22.24H26.4086V23.66H21.4686L21.1286 27.44C21.4353 27.28 21.7419 27.1533 22.0486 27.06C22.3553 26.9667 22.7019 26.92 23.0886 26.92C23.6353 26.92 24.1486 27 24.6286 27.16C25.1086 27.32 25.5286 27.5667 25.8886 27.9C26.2486 28.22 26.5286 28.6333 26.7286 29.14C26.9419 29.6333 27.0486 30.2267 27.0486 30.92C27.0486 31.6133 26.9286 32.2267 26.6886 32.76C26.4486 33.2933 26.1286 33.7467 25.7286 34.12C25.3286 34.48 24.8686 34.76 24.3486 34.96C23.8419 35.1467 23.3086 35.24 22.7486 35.24ZM33.35 35.24C32.7233 35.24 32.1433 35.1133 31.61 34.86C31.0767 34.6067 30.61 34.2267 30.21 33.72C29.8233 33.2 29.5167 32.56 29.29 31.8C29.0633 31.0267 28.95 30.1267 28.95 29.1C28.95 27.82 29.0833 26.7333 29.35 25.84C29.6167 24.9333 29.9767 24.2 30.43 23.64C30.8833 23.0667 31.3967 22.6533 31.97 22.4C32.5567 22.1333 33.17 22 33.81 22C34.5033 22 35.0967 22.1333 35.59 22.4C36.0967 22.6533 36.53 22.9733 36.89 23.36L35.97 24.38C35.7033 24.0733 35.3833 23.8333 35.01 23.66C34.65 23.4733 34.27 23.38 33.87 23.38C33.43 23.38 33.01 23.4733 32.61 23.66C32.21 23.8467 31.8567 24.1533 31.55 24.58C31.2433 25.0067 30.9967 25.5667 30.81 26.26C30.6233 26.94 30.5233 27.7867 30.51 28.8C30.91 28.3067 31.3767 27.92 31.91 27.64C32.4433 27.3467 32.97 27.2 33.49 27.2C34.5967 27.2 35.4767 27.5267 36.13 28.18C36.7967 28.8333 37.13 29.82 37.13 31.14C37.13 31.7533 37.03 32.3133 36.83 32.82C36.63 33.3133 36.3567 33.74 36.01 34.1C35.6633 34.46 35.2633 34.74 34.81 34.94C34.3567 35.14 33.87 35.24 33.35 35.24ZM33.35 33.94C33.67 33.94 33.9633 33.8733 34.23 33.74C34.4967 33.6067 34.73 33.42 34.93 33.18C35.13 32.9267 35.2833 32.6333 35.39 32.3C35.51 31.9533 35.57 31.5667 35.57 31.14C35.57 30.3 35.3767 29.64 34.99 29.16C34.6033 28.68 34.01 28.44 33.21 28.44C32.7967 28.44 32.35 28.5733 31.87 28.84C31.39 29.0933 30.95 29.52 30.55 30.12C30.6567 31.3733 30.9433 32.3267 31.41 32.98C31.89 33.62 32.5367 33.94 33.35 33.94Z" fill="#262626"/>
<path d="M1.86953 54.4832L0.420409 54.0958L-0.354307 56.9941L1.09481 57.3814L1.86953 54.4832ZM-1.38144 54.9052L-0.994079 56.3543L1.90416 55.5796L1.51681 54.1305L-1.38144 54.9052ZM1.5 45.3333V43.8333H-1.5V45.3333H1.5ZM-1.5 10.6667V12.1667H1.5V10.6667H-1.5ZM1.51681 1.86953L1.90417 0.420409L-0.994078 -0.354307L-1.38144 1.09481L1.51681 1.86953ZM1.09482 -1.38144L-0.354305 -0.994079L0.42041 1.90416L1.86953 1.51681L1.09482 -1.38144ZM10.6667 1.5H12.1667V-1.5H10.6667V1.5ZM45.3333 -1.5H43.8333V1.5H45.3333V-1.5ZM54.1305 1.51681L55.5796 1.90417L56.3543 -0.994078L54.9052 -1.38144L54.1305 1.51681ZM57.3814 1.09482L56.9941 -0.354305L54.0958 0.42041L54.4832 1.86953L57.3814 1.09482ZM54.5 10.6667V12.1667H57.5V10.6667H54.5ZM57.5 45.3333V43.8333H54.5V45.3333H57.5ZM54.4832 54.1305L54.0958 55.5796L56.9941 56.3543L57.3814 54.9052L54.4832 54.1305ZM54.9052 57.3814L56.3543 56.9941L55.5796 54.0958L54.1305 54.4832L54.9052 57.3814ZM45.3333 54.5H43.8333V57.5H45.3333V54.5ZM10.6667 57.5H12.1667V54.5H10.6667V57.5ZM2 54.5C1.95287 54.5 1.90947 54.4939 1.86953 54.4832L1.09481 57.3814C1.38519 57.4591 1.68897 57.5 2 57.5V54.5ZM1.51681 54.1305C1.50613 54.0905 1.5 54.0471 1.5 54H-1.5C-1.5 54.311 -1.45906 54.6148 -1.38144 54.9052L1.51681 54.1305ZM1.5 54V45.3333H-1.5V54H1.5ZM1.5 10.6667V2H-1.5V10.6667H1.5ZM1.5 2C1.5 1.95287 1.50613 1.90947 1.51681 1.86953L-1.38144 1.09481C-1.45906 1.38519 -1.5 1.68897 -1.5 2H1.5ZM1.86953 1.51681C1.90948 1.50613 1.95287 1.5 2 1.5V-1.5C1.68897 -1.5 1.3852 -1.45906 1.09482 -1.38144L1.86953 1.51681ZM2 1.5H10.6667V-1.5H2V1.5ZM45.3333 1.5H54V-1.5H45.3333V1.5ZM54 1.5C54.0471 1.5 54.0905 1.50613 54.1305 1.51681L54.9052 -1.38144C54.6148 -1.45906 54.311 -1.5 54 -1.5V1.5ZM54.4832 1.86953C54.4939 1.90948 54.5 1.95287 54.5 2H57.5C57.5 1.68897 57.4591 1.3852 57.3814 1.09482L54.4832 1.86953ZM54.5 2V10.6667H57.5V2H54.5ZM54.5 45.3333V54H57.5V45.3333H54.5ZM54.5 54C54.5 54.0471 54.4939 54.0905 54.4832 54.1305L57.3814 54.9052C57.4591 54.6148 57.5 54.311 57.5 54H54.5ZM54.1305 54.4832C54.0905 54.4939 54.0471 54.5 54 54.5V57.5C54.311 57.5 54.6148 57.4591 54.9052 57.3814L54.1305 54.4832ZM54 54.5H45.3333V57.5H54V54.5ZM10.6667 54.5H2V57.5H10.6667V54.5ZM2.25689 53.0341L-0.641354 52.2594L-2.19079 58.0558L0.707456 58.8306L2.25689 53.0341ZM-2.83056 55.2925L-2.05584 58.1908L3.74064 56.6414L2.96593 53.7431L-2.83056 55.2925ZM3 45.3333V42.3333H-3V45.3333H3ZM-3 10.6667V13.6667H3V10.6667H-3ZM2.96593 2.25689L3.74065 -0.641354L-2.05584 -2.19079L-2.83056 0.707456L2.96593 2.25689ZM0.707459 -2.83056L-2.19078 -2.05584L-0.641355 3.74064L2.25689 2.96593L0.707459 -2.83056ZM10.6667 3H13.6667V-3H10.6667V3ZM45.3333 -3H42.3333V3H45.3333V-3ZM53.7431 2.96593L56.6414 3.74065L58.1908 -2.05584L55.2925 -2.83056L53.7431 2.96593ZM58.8306 0.707459L58.0558 -2.19078L52.2594 -0.641355L53.0341 2.25689L58.8306 0.707459ZM53 10.6667V13.6667H59V10.6667H53ZM59 45.3333V42.3333H53V45.3333H59ZM53.0341 53.7431L52.2594 56.6414L58.0558 58.1908L58.8306 55.2925L53.0341 53.7431ZM55.2925 58.8306L58.1908 58.0558L56.6414 52.2594L53.7431 53.0341L55.2925 58.8306ZM45.3333 53H42.3333V59H45.3333V53ZM10.6667 59H13.6667V53H10.6667V59ZM2 53C2.08482 53 2.17161 53.0113 2.25689 53.0341L0.707456 58.8306C1.12305 58.9416 1.55702 59 2 59V53ZM2.96593 53.7431C2.98872 53.8284 3 53.9152 3 54H-3C-3 54.443 -2.94165 54.8769 -2.83056 55.2925L2.96593 53.7431ZM3 54V45.3333H-3V54H3ZM3 10.6667V2H-3V10.6667H3ZM3 2C3 2.08482 2.98872 2.17161 2.96593 2.25689L-2.83056 0.707456C-2.94165 1.12305 -3 1.55702 -3 2H3ZM2.25689 2.96593C2.17161 2.98872 2.08482 3 2 3V-3C1.55702 -3 1.12306 -2.94165 0.707459 -2.83056L2.25689 2.96593ZM2 3H10.6667V-3H2V3ZM45.3333 3H54V-3H45.3333V3ZM54 3C53.9152 3 53.8284 2.98872 53.7431 2.96593L55.2925 -2.83056C54.8769 -2.94165 54.443 -3 54 -3V3ZM53.0341 2.25689C53.0113 2.17161 53 2.08482 53 2H59C59 1.55702 58.9416 1.12306 58.8306 0.707459L53.0341 2.25689ZM53 2V10.6667H59V2H53ZM53 45.3333V54H59V45.3333H53ZM53 54C53 53.9152 53.0113 53.8284 53.0341 53.7431L58.8306 55.2925C58.9416 54.8769 59 54.443 59 54H53ZM53.7431 53.0341C53.8284 53.0113 53.9152 53 54 53V59C54.443 59 54.8769 58.9416 55.2925 58.8306L53.7431 53.0341ZM54 53H45.3333V59H54V53ZM10.6667 53H2V59H10.6667V53Z" fill="#007C2E"/>
</svg>
