<svg width="24" height="24" viewBox="0 0 24 24" fill="none" xmlns="http://www.w3.org/2000/svg">
<path fill-rule="evenodd" clip-rule="evenodd" d="M10.6507 2.41822L12 3.65157L13.3493 2.41822C13.9694 1.85147 14.9406 1.86782 15.5417 2.46535C16.1365 3.05654 16.152 4.00103 15.5901 4.60951L15.5665 4.635L12 8.18007L8.43346 4.635L8.40992 4.60951C7.84798 4.00103 7.86348 3.05654 8.45825 2.46535C9.05941 1.86782 10.0306 1.85147 10.6507 2.41822ZM16.9517 1.04687C18.3126 2.39956 18.3485 4.57055 17.0594 5.96641L17.0617 5.96875L12 11L6.93828 5.96875L6.94063 5.96641C5.65153 4.57055 5.68743 2.39957 7.04832 1.04687C8.40996 -0.306576 10.5958 -0.34154 12 0.941979C13.4042 -0.34154 15.59 -0.306576 16.9517 1.04687ZM23.1216 10.9276C21.9748 9.7558 20.1101 9.68629 18.879 10.7695L14.6547 14.4862C14.1832 14.1787 13.6199 14 13.0148 14H9.04443C8.12183 12.7813 6.63694 12 5.00571 12C2.24113 12 0 14.2386 0 17V24H13.5611C14.7755 24 15.9304 23.4754 16.7287 22.5614L23.2403 15.1047C24.2972 13.8944 24.2455 12.076 23.1216 10.9276ZM16.0183 17C16.0183 16.6786 15.9677 16.369 15.874 16.0787L20.2025 12.2702C20.6341 11.8905 21.2878 11.9149 21.6898 12.3257C22.0838 12.7283 22.1019 13.3657 21.7314 13.79L15.2197 21.2467C14.8018 21.7253 14.197 22 13.5611 22H2.00228V17C2.00228 15.3431 3.34696 14 5.00571 14C6.12588 14 7.12728 14.61 7.64311 15.5007L7.93226 16H13.0148C13.5678 16 14.016 16.4477 14.016 17C14.016 17.5523 13.5678 18 13.0148 18H9.01028V20H13.0148C14.6736 20 16.0183 18.6569 16.0183 17Z" fill="#262626"/>
</svg>
