<svg width="24" height="24" viewBox="0 0 24 24" fill="none" xmlns="http://www.w3.org/2000/svg">
<path fill-rule="evenodd" clip-rule="evenodd" d="M9.5 17C11.433 17 13 18.567 13 20.5C13 22.433 11.433 24 9.5 24C7.567 24 6 22.433 6 20.5C6 18.567 7.567 17 9.5 17ZM18.5 17C20.433 17 22 18.567 22 20.5C22 22.433 20.433 24 18.5 24C16.567 24 15 22.433 15 20.5C15 18.567 16.567 17 18.5 17ZM9.5 19C8.67157 19 8 19.6716 8 20.5C8 21.3284 8.67157 22 9.5 22C10.3284 22 11 21.3284 11 20.5C11 19.6716 10.3284 19 9.5 19ZM18.5 19C17.6716 19 17 19.6716 17 20.5C17 21.3284 17.6716 22 18.5 22C19.3284 22 20 21.3284 20 20.5C20 19.6716 19.3284 19 18.5 19ZM16 0C20.0793 0 23.4455 3.0532 23.938 6.99904L24 7V10C24 13.3137 21.3137 16 18 16H10C6.68629 16 4 13.3137 4 10V8.14286C4 5.91814 2.31001 4.11245 0.199093 4.00505L0 4V2C2.93761 2 5.37402 4.15791 5.89641 7.00078L13.629 6.999L13.6296 0H16ZM6 10C6 12.1422 7.68397 13.8911 9.80036 13.9951L10 14H18C20.1422 14 21.8911 12.316 21.9951 10.1996L22 10V7.623L21.9534 7.24676C21.591 4.34375 19.1664 2.11972 16.2385 2.00468L16 2L15.629 1.999L15.6288 8.99879L6 8.999V10Z" fill="#262626"/>
</svg>
