<svg width="24" height="24" viewBox="0 0 24 24" fill="none" xmlns="http://www.w3.org/2000/svg">
<path fill-rule="evenodd" clip-rule="evenodd" d="M12 1C12.5063 1 12.9167 1.41041 12.9167 1.91667V3.75C12.9167 4.25626 12.5063 4.66667 12 4.66667C11.4937 4.66667 11.0833 4.25626 11.0833 3.75V1.91667C11.0833 1.41041 11.4937 1 12 1Z" fill="#262626"/>
<path fill-rule="evenodd" clip-rule="evenodd" d="M12 19.3333C12.5063 19.3333 12.9167 19.7437 12.9167 20.25V22.0833C12.9167 22.5896 12.5063 23 12 23C11.4937 23 11.0833 22.5896 11.0833 22.0833V20.25C11.0833 19.7437 11.4937 19.3333 12 19.3333Z" fill="#262626"/>
<path fill-rule="evenodd" clip-rule="evenodd" d="M19.3333 12C19.3333 11.4937 19.7437 11.0833 20.25 11.0833H22.0833C22.5896 11.0833 23 11.4937 23 12C23 12.5063 22.5896 12.9167 22.0833 12.9167H20.25C19.7437 12.9167 19.3333 12.5063 19.3333 12Z" fill="#262626"/>
<path fill-rule="evenodd" clip-rule="evenodd" d="M1 12C1 11.4937 1.41041 11.0833 1.91667 11.0833H3.75C4.25626 11.0833 4.66667 11.4937 4.66667 12C4.66667 12.5063 4.25626 12.9167 3.75 12.9167H1.91667C1.41041 12.9167 1 12.5063 1 12Z" fill="#262626"/>
<path fill-rule="evenodd" clip-rule="evenodd" d="M4.22183 4.22183C4.57981 3.86385 5.16021 3.86385 5.51819 4.22183L6.81455 5.51819C7.17253 5.87617 7.17253 6.45657 6.81455 6.81455C6.45657 7.17253 5.87617 7.17253 5.51819 6.81455L4.22183 5.51819C3.86385 5.16021 3.86384 4.57981 4.22183 4.22183Z" fill="#262626"/>
<path fill-rule="evenodd" clip-rule="evenodd" d="M17.1854 17.1854C17.5434 16.8275 18.1238 16.8275 18.4818 17.1854L19.7782 18.4818C20.1362 18.8398 20.1362 19.4202 19.7782 19.7782C19.4202 20.1362 18.8398 20.1362 18.4818 19.7782L17.1854 18.4818C16.8275 18.1238 16.8275 17.5434 17.1854 17.1854Z" fill="#262626"/>
<path fill-rule="evenodd" clip-rule="evenodd" d="M17.1854 6.81455C16.8275 6.45657 16.8275 5.87617 17.1854 5.51819L18.4818 4.22182C18.8398 3.86384 19.4202 3.86384 19.7782 4.22182C20.1362 4.57981 20.1362 5.16021 19.7782 5.51819L18.4818 6.81455C18.1238 7.17253 17.5434 7.17253 17.1854 6.81455Z" fill="#262626"/>
<path fill-rule="evenodd" clip-rule="evenodd" d="M4.22183 19.7782C3.86385 19.4202 3.86385 18.8398 4.22183 18.4818L5.51819 17.1854C5.87617 16.8275 6.45657 16.8275 6.81455 17.1854C7.17253 17.5434 7.17253 18.1238 6.81455 18.4818L5.51819 19.7782C5.16021 20.1362 4.57981 20.1362 4.22183 19.7782Z" fill="#262626"/>
<path fill-rule="evenodd" clip-rule="evenodd" d="M12 16C14.2091 16 16 14.2091 16 12C16 9.79086 14.2091 8 12 8C9.79086 8 8 9.79086 8 12C8 14.2091 9.79086 16 12 16ZM12 18C15.3137 18 18 15.3137 18 12C18 8.68629 15.3137 6 12 6C8.68629 6 6 8.68629 6 12C6 15.3137 8.68629 18 12 18Z" fill="#262626"/>
<path d="M18 12C18 15.3137 15.3137 18 12 18C8.68629 18 6 15.3137 6 12C6 8.68629 8.68629 6 12 6C15.3137 6 18 8.68629 18 12Z" fill="#262626"/>
</svg>
