<svg width="24" height="24" viewBox="0 0 24 24" fill="none" xmlns="http://www.w3.org/2000/svg">
<path fill-rule="evenodd" clip-rule="evenodd" d="M13.8081 0.399328L5.08803 15.9236C4.81982 16.4147 5.19684 17 5.78139 17H23.2186C23.8109 17 24.1873 16.4005 23.9036 15.9088L15.1865 0.384542C14.8869 -0.13481 14.0952 -0.126317 13.8081 0.399328ZM14.5013 3.24911L7.90072 15H21.0996L14.5013 3.24911ZM13.5 6H15.5V10H13.5V6ZM14.5 14C15.3284 14 16 13.3284 16 12.5C16 11.6716 15.3284 11 14.5 11C13.6716 11 13 11.6716 13 12.5C13 13.3284 13.6716 14 14.5 14ZM23 22C23 23.1046 22.1419 24 21.0833 24H1.91667C0.858121 24 0 23.1046 0 22H23ZM3 6H8.97997L7.87908 8H3V17.0879V19H20V18H22V19C22 20.1046 21.1046 21 20 21H3C1.89543 21 1 20.1046 1 19V8C1 6.89543 1.89543 6 3 6Z" fill="#262626"/>
</svg>
