<svg width="24" height="24" viewBox="0 0 24 24" fill="none" xmlns="http://www.w3.org/2000/svg">
<path fill-rule="evenodd" clip-rule="evenodd" d="M7.50256 5.46703L7.17181 6.69387C7.06015 7.10802 7 7.54543 7 8C7 10.7614 9.23858 13 12 13C14.7614 13 17 10.7614 17 8C17 7.54543 16.9398 7.10801 16.8282 6.69387L16.4974 5.46702L17.4675 4.64636C17.7964 4.3681 18 3.95882 18 3.5C18 2.67157 17.3284 2 16.5 2C16.0412 2 15.6319 2.20357 15.3536 2.53248L14.533 3.50256L13.3061 3.1718C12.892 3.06015 12.4546 3 12 3C11.5454 3 11.108 3.06015 10.6939 3.17181L9.46703 3.50256L8.64636 2.53248C8.3681 2.20357 7.95882 2 7.5 2C6.67157 2 6 2.67157 6 3.5C6 3.95882 6.20357 4.3681 6.53248 4.64636L7.50256 5.46703ZM19 8C19 9.09191 18.75 10.1254 18.3041 11.0464L19.3117 10.7765C20.9121 10.3476 22.5571 11.2974 22.9859 12.8978C23.4148 14.4982 22.465 16.1432 20.8646 16.572L19.2673 17H19.5C21.433 17 23 18.567 23 20.5C23 22.433 21.433 24 19.5 24H4.5C2.567 24 1 22.433 1 20.5C1 18.567 2.567 17 4.5 17H4.89138L3.29411 16.572C1.69371 16.1432 0.743963 14.4982 1.17279 12.8978C1.60161 11.2974 3.24662 10.3476 4.84702 10.7765L5.67251 10.9976C5.24127 10.089 5 9.07267 5 8C5 7.36803 5.08375 6.75562 5.24075 6.17326C4.48185 5.53124 4 4.57189 4 3.5C4 1.567 5.567 0 7.5 0C8.57189 0 9.53124 0.481847 10.1733 1.24075C10.7556 1.08375 11.368 1 12 1C12.632 1 13.2444 1.08375 13.8267 1.24075C14.4688 0.481845 15.4281 0 16.5 0C18.433 0 20 1.567 20 3.5C20 4.57189 19.5182 5.53124 18.7593 6.17326C18.9163 6.75562 19 7.36803 19 8ZM12 15C10.5061 15 9.26396 16.0939 9.03723 17.5241L8.96058 18.0077C9.51318 18.5435 9.99991 19.3532 9.99991 20.5C9.99991 21.065 9.89085 21.5702 9.73917 22H14.2608C14.1092 21.5702 14.0001 21.065 14.0001 20.5C14.0001 19.3532 14.4868 18.5435 15.0394 18.0077L14.9628 17.5241C14.736 16.0939 13.4939 15 12 15ZM19.5 22H16.4819C16.4454 21.9453 16.4069 21.8839 16.3683 21.8164C16.1761 21.4799 16.0001 21.0262 16.0001 20.5C16.0001 19.9689 16.2159 19.6312 16.4829 19.3953L17.4403 19.1469C17.8086 19.0514 18.1968 19 18.6 19H19.5C20.3284 19 21 19.6716 21 20.5C21 21.3284 20.3284 22 19.5 22ZM7.51806 22C7.55463 21.9453 7.59309 21.8839 7.63167 21.8164C7.82391 21.4799 7.99991 21.0262 7.99991 20.5C7.99991 19.9689 7.7841 19.6312 7.51715 19.3953L6.55975 19.1469C6.19139 19.0514 5.80317 19 5.4 19H4.5C3.67157 19 3 19.6716 3 20.5C3 21.3284 3.67157 22 4.5 22H7.51806ZM3.81175 14.6402L6.70952 15.4166C7.24299 15.5596 7.79133 15.243 7.93427 14.7095C8.07721 14.176 7.76063 13.6277 7.22716 13.4848L4.32939 12.7083C3.79592 12.5654 3.24758 12.8819 3.10464 13.4154C2.9617 13.9489 3.27828 14.4972 3.81175 14.6402ZM17.4492 15.4166L20.347 14.6402C20.8804 14.4972 21.197 13.9489 21.0541 13.4154C20.9111 12.8819 20.3628 12.5654 19.8293 12.7083L16.9316 13.4848C16.3981 13.6277 16.0815 14.176 16.2244 14.7095C16.3674 15.243 16.9157 15.5596 17.4492 15.4166ZM12 10C12.5523 10 13 9.55228 13 9C13 8.44771 12.5523 8 12 8C11.4477 8 11 8.44771 11 9C11 9.55228 11.4477 10 12 10Z" fill="#262626"/>
</svg>
