<svg width="24" height="24" viewBox="0 0 24 24" fill="none" xmlns="http://www.w3.org/2000/svg">
<path fill-rule="evenodd" clip-rule="evenodd" d="M5.37475 2.58637C6.15562 1.80485 7.42225 1.8045 8.20356 2.58558L11.8963 6.27727C12.6773 7.05805 12.6777 8.32409 11.8971 9.10531L10.5882 10.4153L14.8425 14.6689L16.1505 13.3598C16.9314 12.5783 18.198 12.5779 18.9793 13.359L22.275 16.6537C23.056 17.4345 23.0564 18.7005 22.2758 19.4818L20.0957 21.6637C18.8174 22.943 16.8496 23.2285 15.2604 22.3652C9.86297 19.4331 5.42925 14.9999 2.49575 9.60337C1.63237 8.01507 1.91638 6.0476 3.19434 4.76859L5.37475 2.58637Z" fill="#262626"/>
</svg>
