<svg width="24" height="24" viewBox="0 0 24 24" fill="none" xmlns="http://www.w3.org/2000/svg">
<path fill-rule="evenodd" clip-rule="evenodd" d="M9.24466 0.874004L12.1931 5.07052C12.8444 5.99759 12.6183 7.27536 11.6881 7.92451L10.846 8.51219C10.3809 8.83676 10.2678 9.47565 10.5935 9.93918L13.5419 14.1357C13.8676 14.5992 14.5086 14.7119 14.9737 14.3873L15.8159 13.7996C16.7461 13.1505 18.0282 13.3758 18.6796 14.3029L21.628 18.4994C22.2793 19.4265 22.0532 20.7042 21.123 21.3534L18.3926 23.2588C16.849 24.336 14.7683 24.2297 13.3433 23.001C11.478 21.3927 9.45947 19.0431 7.2878 15.9521C4.97451 12.6596 3.30417 9.68836 2.27676 7.03843C1.59506 5.28015 2.20463 3.2852 3.75394 2.20403L6.381 0.37077C7.31121 -0.278371 8.59332 -0.0530659 9.24466 0.874004Z" fill="#262626"/>
</svg>
