<svg width="25" height="24" viewBox="0 0 25 24" fill="none" xmlns="http://www.w3.org/2000/svg">
<path fill-rule="evenodd" clip-rule="evenodd" d="M1.66722 11.0565C1.79313 10.9685 1.92241 10.8852 2.05482 10.8071C2.92586 10.2933 3.93208 10 5.00389 10C6.23862 10 7.3863 10.3892 8.34055 11.0565H8.66722C9.62147 10.3892 10.7691 10 12.0039 10C13.2386 10 14.3863 10.3892 15.3406 11.0565H15.6672C16.6215 10.3892 17.7691 10 19.0039 10C20.0792 10 21.0885 10.2952 21.9616 10.8122C22.091 10.8889 22.2174 10.9704 22.3406 11.0565H24.0155C23.9337 10.3713 23.7993 9.70311 23.6168 9.05651C22.1385 3.82114 17.5005 0 12.0078 0C6.51503 0 1.87701 3.82114 0.398775 9.05651C0.216203 9.70311 0.0818302 10.3713 0 11.0565H1.66722ZM5.00389 8C6.25994 8 7.44834 8.29999 8.50389 8.83072C9.55943 8.29999 10.7478 8 12.0039 8C13.2599 8 14.4483 8.29999 15.5039 8.83072C16.5594 8.29999 17.7478 8 19.0039 8C19.7835 8 20.5371 8.11558 21.2491 8.33019C19.6677 4.56965 16.0861 2 12.0078 2C7.93036 2 4.34951 4.56843 2.76761 8.32751C3.47692 8.11462 4.22748 8 5.00389 8ZM11 12V21C11 22.6569 12.3431 24 14 24C15.6569 24 17 22.6569 17 21V20.5556H15V21C15 21.5523 14.5523 22 14 22C13.4477 22 13 21.5523 13 21V12H11Z" fill="#262626"/>
</svg>
