<svg width="24" height="24" viewBox="0 0 24 24" fill="none" xmlns="http://www.w3.org/2000/svg">
<path fill-rule="evenodd" clip-rule="evenodd" d="M5 0C7.76142 0 10 2.23858 10 5V8H19C20.1046 8 21 8.89543 21 10V22C21 23.1046 20.1046 24 19 24H7C5.89543 24 5 23.1046 5 22V10C5 8.89543 5.89543 8 7 8H8V5C8 3.40232 6.75108 2.09634 5.17627 2.00509L5 2C3.40232 2 2.09634 3.24892 2.00509 4.82373L2 5V7H0V5C0 2.23858 2.23858 0 5 0ZM19 10H7V22H19V10ZM13 13C14.1046 13 15 13.8954 15 15C15 15.7398 14.5983 16.3858 14.0011 16.7318L14 20H12L11.9999 16.7324C11.4022 16.3866 11 15.7403 11 15C11 13.8954 11.8954 13 13 13Z" fill="#262626"/>
</svg>
