<svg width="24" height="24" viewBox="0 0 24 24" fill="none" xmlns="http://www.w3.org/2000/svg">
<path fill-rule="evenodd" clip-rule="evenodd" d="M17.293 7.75278C17.6836 7.36231 18.3167 7.36241 18.7072 7.75299C19.832 8.87816 20.4639 10.404 20.4639 11.995C20.4639 13.586 19.832 15.1118 18.7072 16.237C18.3167 16.6276 17.6836 16.6277 17.293 16.2372C16.9024 15.8467 16.9023 15.2136 17.2928 14.823C18.0427 14.0729 18.4639 13.0556 18.4639 11.995C18.4639 10.9343 18.0427 9.9171 17.2928 9.16699C16.9023 8.77641 16.9024 8.14324 17.293 7.75278Z" fill="#262626"/>
<path fill-rule="evenodd" clip-rule="evenodd" d="M19.753 5.29279C20.1435 4.90232 20.7767 4.90242 21.1672 5.293C22.9456 7.07199 23.9447 9.4845 23.9447 12C23.9447 14.5155 22.9456 16.928 21.1672 18.707C20.7767 19.0976 20.1435 19.0977 19.753 18.7072C19.3624 18.3167 19.3623 17.6836 19.7527 17.293C21.1563 15.8891 21.9447 13.9852 21.9447 12C21.9447 10.0148 21.1563 8.11094 19.7527 6.707C19.3623 6.31642 19.3624 5.68325 19.753 5.29279Z" fill="#262626"/>
<path fill-rule="evenodd" clip-rule="evenodd" d="M12.6583 2.08584C12.9777 2.23546 13.1818 2.55636 13.1818 2.9091V21.0909C13.1818 21.4436 12.9777 21.7645 12.6583 21.9142C12.3389 22.0638 11.9617 22.0151 11.6907 21.7893L5.1254 16.3182H0.90909C0.407013 16.3182 0 15.9112 0 15.4091V8.59091C0 8.08884 0.407013 7.68182 0.90909 7.68182H5.1254L11.6907 2.21072C11.9617 1.9849 12.3389 1.93622 12.6583 2.08584Z" fill="#262626"/>
</svg>
