<svg width="24" height="24" viewBox="0 0 24 24" fill="none" xmlns="http://www.w3.org/2000/svg">
<path fill-rule="evenodd" clip-rule="evenodd" d="M12 0C12.3788 0 12.725 0.214002 12.8944 0.552786L23.8944 22.5528C24.0494 22.8628 24.0329 23.2309 23.8507 23.5257C23.6684 23.8205 23.3466 24 23 24H0.999999C0.653421 24 0.331555 23.8205 0.149348 23.5257C-0.0328586 23.2309 -0.0494226 22.8628 0.105572 22.5528L11.1056 0.552786C11.275 0.214002 11.6212 0 12 0ZM11 15V8H13V15H11ZM13.5 18.5C13.5 19.3284 12.8284 20 12 20C11.1716 20 10.5 19.3284 10.5 18.5C10.5 17.6716 11.1716 17 12 17C12.8284 17 13.5 17.6716 13.5 18.5Z" fill="#262626"/>
</svg>
