<svg width="24" height="24" viewBox="0 0 24 24" fill="none" xmlns="http://www.w3.org/2000/svg">
<path fill-rule="evenodd" clip-rule="evenodd" d="M17.5 3C15.4049 3 13.7127 4.29773 13.1774 6H18C19.5286 6 20.9237 6.57164 21.9832 7.5128C21.9943 7.39367 22 7.27315 22 7.15143C22 4.91932 20.048 3 17.5 3ZM17.5 1C14.0464 1 11.1243 3.58224 11.0039 6.93607C10.8099 7.24421 10.6977 7.609 10.6977 8V11.0465L8 10L6 14L10.6977 18.1074V21C10.6977 22.1046 11.5931 23 12.6977 23H22C23.1046 23 24 22.1046 24 21V12C24 11.131 23.8153 10.3052 23.483 9.55967C23.815 8.82127 24 8.00712 24 7.15143C24 3.69343 21.0272 1 17.5 1ZM5 13.5L0.858318 13.2258C0.158084 13.1249 -0.218836 12.3487 0.134897 11.736L3.15786 6.50004C3.5116 5.88736 4.37227 5.82567 4.80976 6.38165L7 9.5L5 13.5Z" fill="#262626"/>
</svg>
