<svg width="24" height="24" viewBox="0 0 24 24" fill="none" xmlns="http://www.w3.org/2000/svg">
<path fill-rule="evenodd" clip-rule="evenodd" d="M1.04931 9.73645C0.0776508 9.2104 -0.284258 7.99502 0.240962 7.02182C5.29372 -2.3406 18.7061 -2.3406 23.7588 7.02182C24.2841 7.99502 23.9221 9.2104 22.9505 9.73645C21.9788 10.2625 20.7654 9.90002 20.2401 8.92682C16.6994 2.36597 7.30044 2.36597 3.75965 8.92682C3.23442 9.90002 2.02097 10.2625 1.04931 9.73645ZM6.02883 12.73C5.0633 12.1927 4.71543 10.9732 5.25184 10.0062C8.193 4.70368 15.8068 4.70368 18.7479 10.0062C19.2843 10.9732 18.9364 12.1927 17.9709 12.73C17.0054 13.2672 15.7878 12.9188 15.2514 11.9517C13.8342 9.39673 10.1655 9.39673 8.74832 11.9517C8.21192 12.9188 6.99436 13.2672 6.02883 12.73ZM13.9999 13.9836C13.9999 14.725 13.5977 15.3723 13 15.7187V21.9959H15.9998C16.5521 21.9959 16.9998 22.4443 16.9998 22.9975C16.9998 23.5506 16.5521 23.999 15.9998 23.999H13H11H8.00016C7.4479 23.999 7.0002 23.5506 7.0002 22.9975C7.0002 22.4443 7.4479 21.9959 8.00016 21.9959H11V15.7187C10.4023 15.3723 10.0001 14.725 10.0001 13.9836C10.0001 12.8773 10.8955 11.9805 12 11.9805C13.1045 11.9805 13.9999 12.8773 13.9999 13.9836Z" fill="#262626"/>
</svg>
