<svg width="25" height="25" viewBox="0 0 25 25" fill="none" xmlns="http://www.w3.org/2000/svg">
<path fill-rule="evenodd" clip-rule="evenodd" d="M12.349 2.11868C10.5612 0.330844 8.07028 -0.324465 5.77014 0.148821C4.7521 0.358295 4.49161 1.57662 5.15008 2.23509L8.56638 5.6514L5.65141 8.56638L2.23509 5.15006C1.57662 4.49159 0.358302 4.75209 0.148826 5.77012C-0.324469 8.07027 0.330836 10.5612 2.11867 12.349C4.21588 14.4462 7.27848 14.9856 9.87276 13.9709L18.0253 23.5239C19.5023 25.2546 22.1411 25.3588 23.7499 23.7499C25.3587 22.1411 25.2545 19.5023 23.5239 18.0254L13.9709 9.87274C14.9855 7.27846 14.4462 4.21588 12.349 2.11868ZM20.8513 21.8884C21.4241 21.8884 21.8885 21.4241 21.8885 20.8512C21.8885 20.2784 21.4241 19.8141 20.8513 19.8141C20.2785 19.8141 19.8141 20.2784 19.8141 20.8512C19.8141 21.4241 20.2785 21.8884 20.8513 21.8884Z" fill="#262626"/>
</svg>
