<svg width="24" height="24" viewBox="0 0 24 24" fill="none" xmlns="http://www.w3.org/2000/svg">
<path fill-rule="evenodd" clip-rule="evenodd" d="M13 0L13.001 2.07103C13.3422 2.11989 13.6755 2.19337 13.999 2.2896L14.6966 0.722945L16.5237 1.53642L15.8151 3.13006C17.7324 4.37874 19 6.54134 19 9C19 11.6113 17.5702 13.8886 15.4508 15.0917C16.9925 16.1765 18 17.9706 18 20V24H16V20C16 19.8775 15.9945 19.7562 15.9837 19.6365C14.9818 20.7852 13.5675 21.5009 12 21.5009C10.4325 21.5009 9.01819 20.7852 8.01651 19.6371L8.0049 19.8004L8 20V24H6V20C6 17.9706 7.00754 16.1765 8.54968 15.0907C6.42981 13.8886 5 11.6113 5 9C5 6.54134 6.26758 4.37874 8.18487 3.13006L7.47635 1.53642L9.30344 0.722945L10.001 2.2896C10.3248 2.19327 10.6584 2.11975 11 2.07089V0H13ZM12 16C10.7186 16 9.57796 16.6025 8.84589 17.5397C9.48515 18.7145 10.6584 19.5009 12 19.5009C13.3417 19.5009 14.515 18.7145 15.1539 17.541C14.4605 16.6516 13.3996 16.0639 12.1996 16.0049L12 16ZM12 4C9.23858 4 7 6.23858 7 9C7 11.7614 9.23858 14 12 14C14.7614 14 17 11.7614 17 9C17 6.23858 14.7614 4 12 4ZM10 8C10.5523 8 11 8.44771 11 9C11 9.55229 10.5523 10 10 10C9.44772 10 9 9.55229 9 9C9 8.44771 9.44772 8 10 8ZM14 8C14.5523 8 15 8.44771 15 9C15 9.55229 14.5523 10 14 10C13.4477 10 13 9.55229 13 9C13 8.44771 13.4477 8 14 8Z" fill="#3E3832"/>
</svg>
