<svg width="24" height="24" viewBox="0 0 24 24" fill="none" xmlns="http://www.w3.org/2000/svg">
<path fill-rule="evenodd" clip-rule="evenodd" d="M12 0C17.4899 0 22.0405 4.02174 22.8663 9.27973C22.9526 9.50286 23 9.7459 23 10V12C23 13.1046 22.1046 14 21 14C20.464 14 19.9772 13.7891 19.6181 13.4458C19.0349 15.2678 17.8149 16.8055 16.2202 17.7976C19.1477 18.9231 21.5221 21.1641 22.8237 24H1C2.31777 21.1288 4.73531 18.8674 7.71322 17.755C6.15081 16.7622 4.95645 15.2417 4.38034 13.4444C4.02353 13.7888 3.53643 14 3 14C1.89543 14 1 13.1046 1 12V10C1 9.7459 1.04739 9.50286 1.13381 9.27925C1.95951 4.02174 6.51009 0 12 0ZM12 5C8.68629 5 6 7.68629 6 11C6 11.131 6.0042 11.2611 6.01247 11.39L9.51233 12.6632C9.87845 12.2561 10.4093 12 11 12C12.1046 12 13 12.8954 13 14C13 15.1046 12.1046 16 11 16C10.1216 16 9.37538 15.4337 9.10669 14.6462L6.67106 13.76C7.67006 15.6849 9.68145 17 12 17C15.3137 17 18 14.3137 18 11C18 7.68629 15.3137 5 12 5ZM12 2C8.05816 2 4.70821 4.53414 3.49041 8.06214C3.83105 8.14769 4.13677 8.3205 4.38253 8.5554C5.41338 5.33285 8.43426 3 12 3C15.5657 3 18.5866 5.33285 19.6197 8.55556C19.8629 8.31991 20.1681 8.14693 20.508 8.06096C19.2918 4.53414 15.9418 2 12 2Z" fill="#3E3832"/>
</svg>
