<svg width="24" height="24" viewBox="0 0 24 24" fill="none" xmlns="http://www.w3.org/2000/svg">
<path fill-rule="evenodd" clip-rule="evenodd" d="M0 24V15C0 12.4938 1.53658 10.3465 3.71905 9.44877C2.10471 8.6217 1 6.93986 1 5C1 2.23858 3.23858 0 6 0C8.76142 0 11 2.23858 11 5C11 6.93986 9.89529 8.6217 8.28067 9.45074C9.46992 9.93779 10.4673 10.7978 11.1289 11.8848C11.667 12.4278 12 13.175 12 14C12 14.9919 11.5186 15.8714 10.7766 16.4176C11.1217 16.5866 11.438 16.8059 11.7173 17.0646C12.1701 16.3592 12.8173 15.7887 13.5826 15.4277C12.6307 14.8031 12.0013 13.7251 12.0013 12.5C12.0013 10.567 13.5683 9 15.5013 9L15.6773 9.00484C14.6544 8.17996 14 6.9164 14 5.5C14 3.01472 16.0147 1 18.5 1C20.9853 1 23 3.01472 23 5.5C23 7.27199 21.9758 8.80477 20.4871 9.53864C22.4883 10.4499 23.9007 12.4301 23.9957 14.7502L24.0008 15V24H0ZM9 18C7.94564 18 7.08183 18.8159 7.00549 19.8507L7 20V22H11V20C11 18.9456 10.1841 18.0818 9.14926 18.0055L9 18ZM15.5 17C14.1745 17 13.09 18.0315 13.0053 19.3356L13 19.5V22H18V19.5C18 18.1745 16.9685 17.09 15.6644 17.0053L15.5 17ZM9 13C8.44771 13 8 13.4477 8 14C8 14.5523 8.44771 15 9 15C9.55229 15 10 14.5523 10 14C10 13.4477 9.55229 13 9 13ZM15.5013 11C14.6728 11 14.0013 11.6716 14.0013 12.5C14.0013 13.3284 14.6728 14 15.5013 14C16.3297 14 17.0013 13.3284 17.0013 12.5C17.0013 11.6716 16.3297 11 15.5013 11ZM6 2C4.34315 2 3 3.34315 3 5C3 6.65685 4.34315 8 6 8C7.65685 8 9 6.65685 9 5C9 3.34315 7.65685 2 6 2ZM18.5 3C17.1193 3 16 4.11929 16 5.5C16 6.88071 17.1193 8 18.5 8C19.8807 8 21 6.88071 21 5.5C21 4.11929 19.8807 3 18.5 3Z" fill="#3E3832"/>
</svg>
