<svg width="24" height="24" viewBox="0 0 24 24" fill="none" xmlns="http://www.w3.org/2000/svg">
<path fill-rule="evenodd" clip-rule="evenodd" d="M19 0V6.5C19 8.81605 17.7887 10.8492 15.965 12.0004C17.7185 13.1066 18.9059 15.0289 18.9947 17.2341L19 17.5V24H6V17.5C6 15.184 7.21131 13.1508 9.03498 11.9996C7.21131 10.8492 6 8.81605 6 6.5V0H19ZM17 20H8V22H17V20ZM11.4998 13.1115C9.56502 13.5507 8.10377 15.2365 8.0053 17.2798L8 17.5V18H11.5V16.5H13.5V18H17V17.5L16.9951 17.2882C16.9003 15.2415 15.4382 13.5519 13.5012 13.1118L13.5 14.5H11.5L11.4998 13.1115ZM16.2417 9.00074L8.75873 9.00142C9.52936 10.1517 10.8164 10.9269 12.2882 10.9951L12.5 11C14.0599 11 15.4344 10.2063 16.2417 9.00074ZM17 2H8V6.5C8 6.66933 8.00935 6.83648 8.02757 7.00096L16.9725 7.00069C16.983 6.90527 16.9906 6.80896 16.9951 6.71184L17 6.5V2Z" fill="#3E3832"/>
</svg>
