<svg width="24" height="24" viewBox="0 0 24 24" fill="none" xmlns="http://www.w3.org/2000/svg">
<path fill-rule="evenodd" clip-rule="evenodd" d="M17 10H15V24H13V10V7C13 6.47533 12.5949 6.04388 12.0818 6.0032L11.9788 6.00022C11.4637 6.01097 11.0433 6.41202 11.0032 6.91823L11 7.02888V9C11 10.6569 9.65685 12 8 12C6.34315 12 5 10.6569 5 9V7C5 3.13401 8.13401 0 12 0C15.866 0 19 3.13401 19 7V10V24H17V10ZM17 8V7C17 6.65753 16.9656 6.32311 16.9 6C16.713 5.07908 16.273 4.25007 15.6556 3.58874C14.8001 2.67239 13.6042 2.07799 12.2693 2.00713L12.2615 2.00672C12.1856 2.00281 12.1092 2.00059 12.0325 2.0001L12 2L11.993 2C10.6772 2.0018 9.48052 2.51186 8.58874 3.34439C7.67239 4.19986 7.07799 5.39581 7.00713 6.73065L7.00672 6.73851C7.00281 6.81442 7.00059 6.89078 7.0001 6.96755L7 7V9C7 9.55228 7.44772 10 8 10C8.55228 10 9 9.55228 9 9V7L9.00509 6.82373C9.09634 5.24892 10.4023 4 12 4L12.1763 4.00509C13.7511 4.09634 15 5.40232 15 7V8H17Z" fill="#3E3832"/>
</svg>
