<svg width="24" height="24" viewBox="0 0 24 24" fill="none" xmlns="http://www.w3.org/2000/svg">
<path fill-rule="evenodd" clip-rule="evenodd" d="M12.6583 2.08584C12.9777 2.23546 13.1818 2.55636 13.1818 2.9091V21.0909C13.1818 21.4436 12.9777 21.7645 12.6583 21.9142C12.3389 22.0638 11.9617 22.0151 11.6907 21.7893L5.1254 16.3182H0.90909C0.407013 16.3182 0 15.9112 0 15.4091V8.59092C0 8.08884 0.407013 7.68183 0.90909 7.68183H5.1254L11.6907 2.21072C11.9617 1.9849 12.3389 1.93622 12.6583 2.08584ZM11.3636 4.85005L6.03652 9.2893C5.87315 9.42545 5.66721 9.50001 5.45454 9.50001H1.81818V14.5H5.45454C5.66721 14.5 5.87315 14.5746 6.03652 14.7107L11.3636 19.15V4.85005Z" fill="#3E3832"/>
<path fill-rule="evenodd" clip-rule="evenodd" d="M20 8C20.5523 8 21 8.44772 21 9V15C21 15.5523 20.5523 16 20 16C19.4477 16 19 15.5523 19 15V9C19 8.44772 19.4477 8 20 8Z" fill="#3E3832"/>
<path fill-rule="evenodd" clip-rule="evenodd" d="M16 12C16 11.4477 16.4477 11 17 11H23C23.5523 11 24 11.4477 24 12C24 12.5523 23.5523 13 23 13H17C16.4477 13 16 12.5523 16 12Z" fill="#3E3832"/>
</svg>
