<svg width="48" height="48" viewBox="0 0 48 48" fill="none" xmlns="http://www.w3.org/2000/svg">
<g clip-path="url(#clip0_5178_18509)">
<rect width="48" height="48" rx="24" fill="#00857C"/>
<path d="M35.7098 -28.7071C36.1284 -29.016 36.6842 -29.0889 37.1747 -28.8858C37.7349 -28.6535 38.1005 -28.1066 38.1005 -27.5V12.6997C38.1005 13.0974 37.9421 13.479 37.661 13.7602L17.8607 33.5605C17.4317 33.9895 16.7865 34.1179 16.226 33.8857C15.6656 33.6535 15.3002 33.1066 15.3002 32.5V-7.69973L15.3075 -7.84768C15.3415 -8.19122 15.4934 -8.51401 15.7396 -8.76028L35.5399 -28.5606L35.7098 -28.7071ZM18.3002 -7.07864V28.8789L35.1005 12.0786V-23.8789L18.3002 -7.07864Z" fill="#DFCAF9"/>
<path d="M56.9999 31.6L57.1537 31.6073C57.91 31.6842 58.4999 32.3234 58.4999 33.1V73.2997C58.4999 74.1281 57.8283 74.7997 56.9999 74.7997H16.8002C15.9717 74.7997 15.3002 74.1281 15.3002 73.2997V33.1L15.3075 32.9462C15.3845 32.19 16.0237 31.6 16.8002 31.6H56.9999ZM18.3002 71.7997H55.4999V34.6H18.3002V71.7997Z" fill="#DFCAF9"/>
</g>
<defs>
<clipPath id="clip0_5178_18509">
<rect width="48" height="48" rx="24" fill="white"/>
</clipPath>
</defs>
</svg>
