<svg width="48" height="48" viewBox="0 0 48 48" fill="none" xmlns="http://www.w3.org/2000/svg">
<g clip-path="url(#clip0_5185_448)">
<rect width="48" height="48" rx="24" fill="#90E1D2"/>
<path d="M16.0951 29.7L15.9413 29.6926C15.185 29.6158 14.5951 28.9765 14.5951 28.2V-11.9998C14.5951 -12.8282 15.2667 -13.4998 16.0951 -13.4998H56.2948C57.1232 -13.4998 57.7948 -12.8282 57.7948 -11.9998V28.2L57.7875 28.3538C57.7104 29.1099 57.0713 29.7 56.2948 29.7H16.0951ZM54.7948 -10.4998H17.5951V26.7H54.7948V-10.4998Z" fill="#009A8C"/>
<path d="M-24.2102 49.5C-24.8168 49.5 -25.3637 49.1346 -25.596 48.5742C-25.7992 48.0836 -25.7263 47.5279 -25.4172 47.1093L-25.2708 46.9394L-5.47047 27.1391C-5.18919 26.858 -4.80761 26.6997 -4.40992 26.6997H35.7898C36.3963 26.6997 36.9432 27.0652 37.1755 27.6255C37.4077 28.1859 37.2792 28.8312 36.8503 29.2602L17.05 49.0605L16.9402 49.1601C16.6733 49.3788 16.3376 49.5 15.9895 49.5H-24.2102ZM32.1687 29.6997H-3.78883L-20.5891 46.5H15.3684L32.1687 29.6997Z" fill="#009A8C"/>
</g>
<defs>
<clipPath id="clip0_5185_448">
<rect width="48" height="48" rx="24" fill="white"/>
</clipPath>
</defs>
</svg>
