<svg width="48" height="48" viewBox="0 0 48 48" fill="none" xmlns="http://www.w3.org/2000/svg">
<g clip-path="url(#clip0_5178_18513)">
<rect width="48" height="48" rx="24" fill="#156389"/>
<path d="M48.9974 74.5L49.1512 74.4927C49.9076 74.4158 50.4974 73.7766 50.4974 73V32.8003C50.4974 31.9719 49.8259 31.3003 48.9974 31.3003H8.79773C7.9693 31.3003 7.29773 31.9719 7.29773 32.8003V73L7.30505 73.1538C7.38205 73.91 8.02121 74.5 8.79773 74.5H48.9974ZM10.2977 34.3003H47.4974V71.5H10.2977V34.3003Z" fill="#C0D6E4"/>
<path d="M71.9928 34.3C72.5994 34.3 73.1463 33.9346 73.3785 33.3742C73.6107 32.8137 73.4823 32.1684 73.0533 31.7394L53.253 11.9391C52.9717 11.658 52.5902 11.4997 52.1925 11.4997H11.9928C11.3862 11.4997 10.8393 11.8652 10.607 12.4254C10.3749 12.9859 10.5034 13.6312 10.9322 14.0602L30.7325 33.8605L30.8424 33.9601C31.1093 34.1788 31.445 34.3 31.7931 34.3H71.9928ZM15.6139 14.4997H51.5714L68.3717 31.3H32.4142L15.6139 14.4997Z" fill="#C0D6E4"/>
</g>
<defs>
<clipPath id="clip0_5178_18513">
<rect width="48" height="48" rx="24" fill="white"/>
</clipPath>
</defs>
</svg>
