<svg width="48" height="48" viewBox="0 0 48 48" fill="none" xmlns="http://www.w3.org/2000/svg">
<g clip-path="url(#clip0_5179_18610)">
<rect width="48" height="48" rx="24" fill="#FDC1E2"/>
<path d="M8.09956 34.3C7.49293 34.3 6.94603 33.9346 6.71381 33.3742C6.48164 32.8137 6.61001 32.1684 7.03901 31.7394L26.8393 11.9391C27.1206 11.658 27.5022 11.4997 27.8998 11.4997H68.0996C68.7061 11.4997 69.253 11.8652 69.4853 12.4254C69.7174 12.9859 69.589 13.6312 69.1601 14.0602L49.3598 33.8605L49.25 33.9601C48.983 34.1788 48.6473 34.3 48.2993 34.3H8.09956ZM64.4785 14.4997H28.5209L11.7207 31.3H47.6782L64.4785 14.4997Z" fill="#246B91"/>
<path d="M-0.740234 74.0605C-1.16923 74.4894 -1.81456 74.6179 -2.375 74.3857C-2.93525 74.1535 -3.30078 73.6065 -3.30078 73V32.8003C-3.30078 32.4026 -3.14244 32.021 -2.86133 31.7397L16.939 11.9394C17.368 11.5105 18.0132 11.3821 18.5737 11.6143C19.1341 11.8465 19.4995 12.3934 19.4995 13V53.1997C19.4995 53.5975 19.3413 53.979 19.0601 54.2603L-0.740234 74.0605ZM16.4995 52.5786V16.6211L-0.300781 33.4214V69.3789L16.4995 52.5786Z" fill="#246B91"/>
</g>
<defs>
<clipPath id="clip0_5179_18610">
<rect width="48" height="48" rx="24" fill="white"/>
</clipPath>
</defs>
</svg>
