<svg width="48" height="48" viewBox="0 0 48 48" fill="none" xmlns="http://www.w3.org/2000/svg">
<g clip-path="url(#clip0_5179_18674)">
<rect width="48" height="48" rx="24" fill="#B67E28"/>
<path d="M-1.20023 15.205C-1.80685 15.205 -2.35375 15.5704 -2.58597 16.1308C-2.81814 16.6913 -2.68977 17.3366 -2.26078 17.7656L17.5395 37.5659C17.8208 37.847 18.2024 38.0053 18.6001 38.0053H58.7998C59.4063 38.0053 59.9532 37.6398 60.1855 37.0795C60.4177 36.5191 60.2892 35.8738 59.8603 35.4448L40.06 15.6445L39.9502 15.5449C39.6833 15.3262 39.3475 15.205 38.9995 15.205H-1.20023ZM55.1787 35.0053H19.2212L2.42087 18.205H38.3784L55.1787 35.0053Z" fill="#FAEFB8"/>
<path d="M-0.140015 -4.56057C-0.569012 -4.98944 -1.21434 -5.11791 -1.77478 -4.88576C-2.33503 -4.65348 -2.70056 -4.10655 -2.70056 -3.50002V36.6997C-2.70056 37.0974 -2.54222 37.479 -2.26111 37.7602L17.5392 57.5605C17.9682 57.9895 18.6134 58.1179 19.174 57.8857C19.7344 57.6535 20.0997 57.1066 20.0997 56.5V16.3003C20.0997 15.9025 19.9415 15.521 19.6603 15.2397L-0.140015 -4.56057ZM17.0997 16.9214V52.8789L0.299438 36.0786V0.121071L17.0997 16.9214Z" fill="#FAEFB8"/>
</g>
<defs>
<clipPath id="clip0_5179_18674">
<rect width="48" height="48" rx="24" fill="white"/>
</clipPath>
</defs>
</svg>
