<svg width="48" height="48" viewBox="0 0 48 48" fill="none" xmlns="http://www.w3.org/2000/svg">
<g clip-path="url(#clip0_5178_18525)">
<rect width="48" height="48" rx="24" fill="#009A8C"/>
<path d="M14.1099 55.207C14.5284 55.516 15.0842 55.5889 15.5747 55.3858C16.135 55.1535 16.5005 54.6065 16.5005 54V13.8003C16.5005 13.4026 16.3422 13.021 16.061 12.7398L-3.73926 -7.06053C-4.16825 -7.48953 -4.81351 -7.6179 -5.37402 -7.38572C-5.93443 -7.15351 -6.2998 -6.6066 -6.2998 -5.99998V34.1997L-6.29248 34.3477C-6.25851 34.6912 -6.10655 35.014 -5.86035 35.2603L13.9399 55.0606L14.1099 55.207ZM-3.2998 33.5786V-2.37889L13.5005 14.4214V50.3789L-3.2998 33.5786Z" fill="#90E1D2"/>
<path d="M63.3999 35.7L63.5537 35.6927C64.31 35.6158 64.8999 34.9766 64.8999 34.2V-5.9997C64.8999 -6.82812 64.2283 -7.4997 63.3999 -7.4997H23.2002C22.3718 -7.4997 21.7002 -6.82812 21.7002 -5.9997V34.2L21.7075 34.3538C21.7845 35.11 22.4237 35.7 23.2002 35.7H63.3999ZM24.7002 -4.4997H61.8999V32.7H24.7002V-4.4997Z" fill="#90E1D2"/>
</g>
<defs>
<clipPath id="clip0_5178_18525">
<rect width="48" height="48" rx="24" fill="white"/>
</clipPath>
</defs>
</svg>
