<svg width="48" height="48" viewBox="0 0 48 48" fill="none" xmlns="http://www.w3.org/2000/svg">
<g clip-path="url(#clip0_5181_18711)">
<rect width="48" height="48" rx="24" fill="#FAEFB8"/>
<path d="M31.8275 -9.20706C31.409 -9.51596 30.8532 -9.58895 30.3627 -9.38577C29.8024 -9.15349 29.4369 -8.60656 29.4369 -8.00002V32.1997C29.4369 32.5974 29.5952 32.979 29.8764 33.2602L49.6767 53.0605C50.1056 53.4895 50.7509 53.6179 51.3114 53.3857C51.8718 53.1535 52.2372 52.6066 52.2372 52V11.8003L52.2299 11.6523C52.1959 11.3088 52.0439 10.986 51.7977 10.7397L31.9975 -9.06057L31.8275 -9.20706ZM49.2372 12.4214V48.3789L32.4369 31.5786V-4.37893L49.2372 12.4214Z" fill="#00857C"/>
<path d="M-22.9575 10.3L-23.1113 10.3073C-23.8677 10.3842 -24.4575 11.0234 -24.4575 11.8V51.9997C-24.4575 52.8281 -23.7859 53.4997 -22.9575 53.4997H17.2422C18.0706 53.4997 18.7422 52.8281 18.7422 51.9997V11.8L18.7349 11.6462C18.6578 10.89 18.0187 10.3 17.2422 10.3H-22.9575ZM15.7422 50.4997H-21.4575V13.3H15.7422V50.4997Z" fill="#00857C"/>
</g>
<defs>
<clipPath id="clip0_5181_18711">
<rect width="48" height="48" rx="24" fill="white"/>
</clipPath>
</defs>
</svg>
