<svg width="48" height="48" viewBox="0 0 48 48" fill="none" xmlns="http://www.w3.org/2000/svg">
<g clip-path="url(#clip0_5178_18519)">
<rect width="48" height="48" rx="24" fill="#156389"/>
<path d="M12.8 70L12.9539 69.9927C13.7102 69.9159 14.3 69.2767 14.3 68.5V28.3003C14.3 27.4719 13.6285 26.8003 12.8 26.8003H-27.3997C-28.2281 26.8003 -28.8997 27.4719 -28.8997 28.3003V68.5L-28.8923 68.6538C-28.8153 69.41 -28.1762 70 -27.3997 70H12.8ZM-25.8997 29.8003H11.3V67H-25.8997V29.8003Z" fill="#FDC1E2"/>
<path d="M32.8004 29.8C33.407 29.8 33.9539 29.4346 34.1861 28.8742C34.4183 28.3137 34.2899 27.6684 33.8609 27.2394L14.0606 7.43915C13.7794 7.15804 13.3978 6.99969 13.0001 6.99969H-27.1996C-27.8061 6.99969 -28.3531 7.36523 -28.5854 7.92548C-28.8175 8.48592 -28.689 9.13124 -28.2602 9.56024L-8.45988 29.3605L-8.35001 29.4601C-8.08311 29.6788 -7.74739 29.8 -7.39933 29.8H32.8004ZM-23.5785 9.99969H12.379L29.1793 26.8H-6.77824L-23.5785 9.99969Z" fill="#FDC1E2"/>
<path d="M51.7402 69.5606C52.1692 69.9894 52.8145 70.1179 53.3749 69.8858C53.9352 69.6535 54.3007 69.1066 54.3007 68.5V28.3003C54.3007 27.9026 54.1424 27.521 53.8613 27.2398L34.061 7.43948C33.632 7.01048 32.9867 6.88211 32.4262 7.11428C31.8658 7.3465 31.5004 7.8934 31.5004 8.50003V48.6997C31.5004 49.0975 31.6587 49.479 31.9399 49.7603L51.7402 69.5606ZM34.5004 48.0786V12.1211L51.3007 28.9214V64.8789L34.5004 48.0786Z" fill="#FDC1E2"/>
</g>
<defs>
<clipPath id="clip0_5178_18519">
<rect width="48" height="48" rx="24" fill="white"/>
</clipPath>
</defs>
</svg>
