<svg width="48" height="48" viewBox="0 0 48 48" fill="none" xmlns="http://www.w3.org/2000/svg">
<g clip-path="url(#clip0_5178_18507)">
<rect width="48" height="48" rx="24" fill="#DFCAF9"/>
<path d="M7.20041 7.90009C6.59378 7.90009 6.04688 8.26547 5.81466 8.82587C5.58249 9.38638 5.71086 10.0316 6.13986 10.4606L25.9401 30.2609C26.2214 30.542 26.603 30.7004 27.0007 30.7004H67.2004C67.8069 30.7004 68.3539 30.3348 68.5861 29.7746C68.8183 29.2142 68.6898 28.5688 68.261 28.1398L48.4607 8.33954L48.3508 8.23993C48.0839 8.02127 47.7482 7.90009 47.4001 7.90009H7.20041ZM63.5793 27.7004H27.6218L10.8215 10.9001H46.779L63.5793 27.7004Z" fill="#246B91"/>
<path d="M8.26062 8.93951C7.83162 8.51064 7.1863 8.38217 6.62585 8.61431C6.06561 8.84659 5.70007 9.39353 5.70007 10.0001V50.1998C5.70007 50.5974 5.85841 50.979 6.13953 51.2603L25.9398 71.0606C26.3688 71.4896 27.0141 71.618 27.5746 71.3858C28.135 71.1536 28.5004 70.6067 28.5004 70.0001V29.8003C28.5004 29.4026 28.3421 29.0211 28.0609 28.7398L8.26062 8.93951ZM25.5004 30.4214V66.379L8.70007 49.5787V13.6211L25.5004 30.4214Z" fill="#246B91"/>
</g>
<defs>
<clipPath id="clip0_5178_18507">
<rect width="48" height="48" rx="24" fill="white"/>
</clipPath>
</defs>
</svg>
