<svg width="48" height="48" viewBox="0 0 48 48" fill="none" xmlns="http://www.w3.org/2000/svg">
<g clip-path="url(#clip0_5178_18522)">
<rect width="48" height="48" rx="24" fill="#0E716A"/>
<path d="M13.2074 10.3L13.3612 10.3073C14.1175 10.3842 14.7074 11.0234 14.7074 11.8V51.9997C14.7074 52.8281 14.0358 53.4997 13.2074 53.4997H-26.9923C-27.8207 53.4997 -28.4923 52.8281 -28.4923 51.9997V11.8L-28.485 11.6462C-28.408 10.89 -27.7688 10.3 -26.9923 10.3H13.2074ZM-25.4923 50.4997H11.7074V13.3H-25.4923V50.4997Z" fill="#FAEFB8"/>
<path d="M47.0027 -9.5C47.6093 -9.5 48.1562 -9.13462 48.3884 -8.57422C48.5917 -8.08362 48.5188 -7.52797 48.2097 -7.10938L48.0632 -6.93945L28.2629 12.8608C27.9817 13.142 27.6001 13.3003 27.2024 13.3003H-12.9973C-13.6038 13.3003 -14.1508 12.9348 -14.383 12.3745C-14.6152 11.8141 -14.4867 11.1687 -14.0579 10.7397L5.74244 -9.06055L5.8523 -9.16016C6.11921 -9.37882 6.45492 -9.5 6.80299 -9.5H47.0027ZM-9.37621 10.3003H26.5813L43.3816 -6.5H7.42408L-9.37621 10.3003Z" fill="#FAEFB8"/>
<path d="M60.9974 -9.5L61.1512 -9.49268C61.9076 -9.41585 62.4974 -8.77664 62.4974 -8V32.1997C62.4974 33.0281 61.8258 33.6997 60.9974 33.6997H20.7977C19.9692 33.6997 19.2977 33.0281 19.2977 32.1997V-8L19.305 -8.15381C19.382 -8.91 20.0212 -9.5 20.7977 -9.5H60.9974ZM22.2977 30.6997H59.4974V-6.5H22.2977V30.6997Z" fill="#FAEFB8"/>
<path d="M74.9927 30.7C75.5993 30.7 76.1462 31.0654 76.3784 31.6258C76.6106 32.1863 76.4822 32.8316 76.0532 33.2606L56.253 53.0609C55.9717 53.342 55.5901 53.5003 55.1924 53.5003H14.9927C14.3862 53.5003 13.8392 53.1348 13.607 52.5746C13.3748 52.0141 13.5033 51.3688 13.9322 50.9398L33.7325 31.1395L33.8423 31.0399C34.1092 30.8212 34.4449 30.7 34.793 30.7H74.9927ZM18.6138 50.5003H54.5713L71.3716 33.7H35.4141L18.6138 50.5003Z" fill="#FAEFB8"/>
</g>
<defs>
<clipPath id="clip0_5178_18522">
<rect width="48" height="48" rx="24" fill="white"/>
</clipPath>
</defs>
</svg>
