<svg width="48" height="48" viewBox="0 0 48 48" fill="none" xmlns="http://www.w3.org/2000/svg">
<g clip-path="url(#clip0_5181_18716)">
<rect width="48" height="48" rx="24" fill="#ECCAD6"/>
<path d="M19.7902 7.79296C19.3716 7.48405 18.8158 7.41106 18.3253 7.61425C17.765 7.84652 17.3995 8.39345 17.3995 8.99999V49.1997C17.3995 49.5974 17.5579 49.979 17.839 50.2602L37.6393 70.0605C38.0683 70.4895 38.7135 70.6179 39.274 70.3857C39.8344 70.1535 40.1998 69.6066 40.1998 69V28.8003L40.1925 28.6523C40.1585 28.3088 40.0066 27.986 39.7604 27.7397L19.9601 7.93944L19.7902 7.79296ZM37.1998 29.4214V65.3789L20.3995 48.5786V12.6211L37.1998 29.4214Z" fill="#A93D70"/>
<path d="M-21.3002 7.5C-21.9068 7.5 -22.4537 7.86538 -22.6859 8.42578C-22.8891 8.91638 -22.8162 9.47203 -22.5072 9.89062L-22.3607 10.0605L-2.56043 29.8608C-2.27916 30.142 -1.89757 30.3003 -1.49989 30.3003H38.6998C39.3064 30.3003 39.8533 29.9348 40.0856 29.3745C40.3177 28.8141 40.1892 28.1687 39.7604 27.7397L19.9601 7.93944L19.8502 7.83984C19.5833 7.62118 19.2476 7.5 18.8995 7.5H-21.3002ZM35.0787 27.3003H-0.878794L-17.6791 10.5H18.2784L35.0787 27.3003Z" fill="#A93D70"/>
</g>
<defs>
<clipPath id="clip0_5181_18716">
<rect width="48" height="48" rx="24" fill="white"/>
</clipPath>
</defs>
</svg>
