<svg width="48" height="48" viewBox="0 0 48 48" fill="none" xmlns="http://www.w3.org/2000/svg">
<g clip-path="url(#clip0_5178_18517)">
<rect width="48" height="48" rx="24" fill="#A93D70"/>
<path d="M32.9999 31.8L33.1537 31.8073C33.91 31.8842 34.4999 32.5234 34.4999 33.3V73.4997C34.4999 74.3281 33.8283 74.9997 32.9999 74.9997H-7.19983C-8.02826 74.9997 -8.69983 74.3281 -8.69983 73.4997V33.3L-8.6925 33.1462C-8.61549 32.39 -7.97633 31.8 -7.19983 31.8H32.9999ZM-5.69983 71.9997H31.4999V34.8H-5.69983V71.9997Z" fill="#ECCAD6"/>
<path d="M52.8002 12C53.4068 12 53.9537 12.3654 54.1859 12.9258C54.3891 13.4164 54.3162 13.972 54.0072 14.3906L53.8607 14.5605L34.0604 34.3608C33.7791 34.642 33.3976 34.8003 32.9999 34.8003H-7.19983C-7.80636 34.8003 -8.3533 34.4348 -8.58557 33.8745C-8.81772 33.3141 -8.68926 32.6687 -8.26038 32.2397L11.5399 12.4395L11.6498 12.3398C11.9167 12.1212 12.2524 12 12.6005 12H52.8002ZM-3.57873 31.8003H32.3788L49.1791 15H13.2216L-3.57873 31.8003Z" fill="#ECCAD6"/>
<path d="M52.8002 12L52.9537 12.0073C53.71 12.0842 54.2998 12.7234 54.2998 13.5V53.6997C54.2998 54.5281 53.6283 55.1997 52.7998 55.1997H12.6001C11.7717 55.1997 11.1001 54.5281 11.1001 53.6997V13.5L11.1075 13.3462C11.1845 12.59 11.8239 12 12.6005 12H52.8002ZM14.1001 52.1997H51.2998V15H14.1001V52.1997Z" fill="#ECCAD6"/>
</g>
<defs>
<clipPath id="clip0_5178_18517">
<rect width="48" height="48" rx="24" fill="white"/>
</clipPath>
</defs>
</svg>
