<svg width="48" height="48" viewBox="0 0 48 48" fill="none" xmlns="http://www.w3.org/2000/svg">
<g clip-path="url(#clip0_5178_18515)">
<rect width="48" height="48" rx="24" fill="#FAE38D"/>
<path d="M14.1099 -9.20703C14.5284 -9.51594 15.0842 -9.58892 15.5747 -9.38574C16.135 -9.15347 16.5005 -8.60653 16.5005 -8V32.1997C16.5005 32.5974 16.3422 32.979 16.061 33.2603L-3.73926 53.0605C-4.16825 53.4895 -4.81351 53.6179 -5.37402 53.3857C-5.93443 53.1535 -6.2998 52.6066 -6.2998 52V11.8003L-6.29248 11.6523C-6.25851 11.3088 -6.10655 10.986 -5.86035 10.7397L13.9399 -9.06055L14.1099 -9.20703ZM-3.2998 12.4214V48.3789L13.5005 31.5786V-4.37891L-3.2998 12.4214Z" fill="#B67E28"/>
<path d="M55.3999 10.3L55.5537 10.3073C56.31 10.3842 56.8999 11.0234 56.8999 11.8V51.9997C56.8999 52.8281 56.2283 53.4997 55.3999 53.4997H15.2002C14.3718 53.4997 13.7002 52.8281 13.7002 51.9997V11.8L13.7075 11.6462C13.7845 10.89 14.4237 10.3 15.2002 10.3H55.3999ZM16.7002 50.4997H53.8999V13.3H16.7002V50.4997Z" fill="#B67E28"/>
<path d="M95.2002 -9.5C95.8068 -9.5 96.3537 -9.13462 96.5859 -8.57422C96.7892 -8.08362 96.7163 -7.52797 96.4072 -7.10938L96.2607 -6.93945L76.4605 12.8608C76.1792 13.142 75.7976 13.3003 75.3999 13.3003H35.2002C34.5937 13.3003 34.0467 12.9348 33.8145 12.3745C33.5823 11.8141 33.7108 11.1687 34.1397 10.7397L53.9399 -9.06055L54.0498 -9.16016C54.3167 -9.37882 54.6524 -9.5 55.0005 -9.5H95.2002ZM38.8213 10.3003H74.7788L91.5791 -6.5H55.6216L38.8213 10.3003Z" fill="#B67E28"/>
</g>
<defs>
<clipPath id="clip0_5178_18515">
<rect width="48" height="48" rx="24" fill="white"/>
</clipPath>
</defs>
</svg>
