<svg width="48" height="48" viewBox="0 0 48 48" fill="none" xmlns="http://www.w3.org/2000/svg">
<g clip-path="url(#clip0_5185_441)">
<rect width="48" height="48" rx="24" fill="#C0D6E4"/>
<path d="M33.2926 54.7L33.1388 54.6926C32.3825 54.6158 31.7926 53.9766 31.7926 53.2V13.0002C31.7926 12.1718 32.4642 11.5002 33.2926 11.5002H73.4923C74.3207 11.5002 74.9923 12.1718 74.9923 13.0002V53.2L74.985 53.3538C74.908 54.1099 74.2688 54.7 73.4923 54.7H33.2926ZM71.9923 14.5002H34.7926V51.7H71.9923V14.5002Z" fill="#246B91"/>
<path d="M-14.4974 74.5L-14.6512 74.4926C-15.4076 74.4158 -15.9974 73.7766 -15.9974 73V32.8003C-15.9974 31.9718 -15.3258 31.3003 -14.4974 31.3003H25.7023C26.5307 31.3003 27.2023 31.9718 27.2023 32.8003V73L27.195 73.1538C27.118 73.91 26.4788 74.5 25.7023 74.5H-14.4974ZM24.2023 34.3003H-12.9974V71.5H24.2023V34.3003Z" fill="#246B91"/>
<path d="M-28.4927 34.2999C-29.0993 34.2999 -29.6462 33.9345 -29.8785 33.3741C-30.1106 32.8136 -29.9823 32.1684 -29.5533 31.7394L-9.75298 11.9391C-9.4717 11.658 -9.09011 11.4996 -8.69243 11.4996H31.5073C32.1138 11.4996 32.6607 11.8652 32.893 12.4254C33.1252 12.9859 32.9967 13.6312 32.5678 14.0602L12.7675 33.8605L12.6577 33.9601C12.3908 34.1787 12.0551 34.2999 11.707 34.2999H-28.4927ZM27.8862 14.4996H-8.07133L-24.8716 31.2999H11.0859L27.8862 14.4996Z" fill="#246B91"/>
</g>
<defs>
<clipPath id="clip0_5185_441">
<rect width="48" height="48" rx="24" fill="white"/>
</clipPath>
</defs>
</svg>
