<svg width="48" height="48" viewBox="0 0 48 48" fill="none" xmlns="http://www.w3.org/2000/svg">
<g clip-path="url(#clip0_5178_18505)">
<rect width="48" height="48" rx="24" fill="#8F581B"/>
<path d="M29.9999 -11.7L30.1537 -11.6927C30.91 -11.6158 31.4999 -10.9766 31.4999 -10.2V29.9997C31.4999 30.8282 30.8283 31.4997 29.9999 31.4997H-10.1998C-11.0283 31.4997 -11.6998 30.8282 -11.6998 29.9997V-10.2L-11.6925 -10.3538C-11.6155 -11.11 -10.9763 -11.7 -10.1998 -11.7H29.9999ZM-8.69983 28.4997H28.4999V-8.69998H-8.69983V28.4997Z" fill="#DFCAF9"/>
<path d="M49.8002 16.5C50.4068 16.5 50.9537 16.8654 51.1859 17.4258C51.3891 17.9164 51.3162 18.472 51.0072 18.8906L50.8607 19.0606L31.0604 38.8609C30.7791 39.142 30.3976 39.3003 29.9999 39.3003H-10.1998C-10.8064 39.3003 -11.3533 38.9348 -11.5856 38.3745C-11.8177 37.8141 -11.6893 37.1688 -11.2604 36.7398L8.53992 16.9395L8.64978 16.8399C8.91669 16.6212 9.2524 16.5 9.60046 16.5H49.8002ZM-6.57873 36.3003H29.3788L46.1791 19.5H10.2216L-6.57873 36.3003Z" fill="#DFCAF9"/>
</g>
<defs>
<clipPath id="clip0_5178_18505">
<rect width="48" height="48" rx="24" fill="white"/>
</clipPath>
</defs>
</svg>
