<svg width="48" height="48" viewBox="0 0 48 48" fill="none" xmlns="http://www.w3.org/2000/svg">
<g clip-path="url(#clip0_5183_18721)">
<rect width="48" height="48" rx="24" fill="#EBDEFC"/>
<path d="M16.8002 -24.5L16.6464 -24.4927C15.89 -24.4159 15.3002 -23.7767 15.3002 -23V17.1997C15.3002 18.0281 15.9717 18.6997 16.8002 18.6997H56.9999C57.8283 18.6997 58.4999 18.0281 58.4999 17.1997V-23L58.4925 -23.1538C58.4156 -23.91 57.7764 -24.5 56.9999 -24.5H16.8002ZM55.4999 15.6997H18.3002V-21.5H55.4999V15.6997Z" fill="#009A8C"/>
<path d="M-24.0002 15.7C-24.6068 15.7 -25.1537 16.0654 -25.3859 16.6258C-25.6181 17.1863 -25.4897 17.8316 -25.0607 18.2606L-5.26042 38.0608C-4.97915 38.342 -4.59755 38.5003 -4.19987 38.5003H35.9998C36.6064 38.5003 37.1533 38.1348 37.3856 37.5745C37.6177 37.0141 37.4892 36.3688 37.0604 35.9398L17.2601 16.1395L17.1502 16.0399C16.8833 15.8212 16.5476 15.7 16.1995 15.7H-24.0002ZM32.3787 35.5003H-3.57878L-20.3791 18.7H15.5784L32.3787 35.5003Z" fill="#009A8C"/>
</g>
<defs>
<clipPath id="clip0_5183_18721">
<rect width="48" height="48" rx="24" fill="white"/>
</clipPath>
</defs>
</svg>
