<svg width="48" height="48" viewBox="0 0 48 48" fill="none" xmlns="http://www.w3.org/2000/svg">
<g clip-path="url(#clip0_5183_18726)">
<rect width="48" height="48" rx="24" fill="#DFCAF9"/>
<path d="M19.5001 -13.2L19.3463 -13.1927C18.59 -13.1158 18.0001 -12.4766 18.0001 -11.7V28.4997C18.0001 29.3281 18.6717 29.9997 19.5001 29.9997H59.6998C60.5282 29.9997 61.1998 29.3281 61.1998 28.4997V-11.7L61.1925 -11.8538C61.1155 -12.61 60.4763 -13.2 59.6998 -13.2H19.5001ZM58.1998 26.9997H21.0001V-10.2H58.1998V26.9997Z" fill="#8F581B"/>
<path d="M-0.300181 18C-0.906804 18 -1.45371 18.3654 -1.68592 18.9258C-1.88914 19.4164 -1.81624 19.972 -1.50721 20.3906L-1.36073 20.5605L18.4396 40.3608C18.7208 40.6419 19.1024 40.8003 19.5001 40.8003H59.6998C60.3064 40.8003 60.8533 40.4348 61.0856 39.8745C61.3177 39.314 61.1892 38.6687 60.7604 38.2397L40.9601 18.4394L40.8502 18.3398C40.5833 18.1212 40.2476 18 39.8995 18H-0.300181ZM56.0787 37.8003H20.1212L3.32091 21H39.2784L56.0787 37.8003Z" fill="#8F581B"/>
</g>
<defs>
<clipPath id="clip0_5183_18726">
<rect width="48" height="48" rx="24" fill="white"/>
</clipPath>
</defs>
</svg>
