<svg width="48" height="48" viewBox="0 0 48 48" fill="none" xmlns="http://www.w3.org/2000/svg">
<g clip-path="url(#clip0_5183_18731)">
<rect width="48" height="48" rx="24" fill="#246B91"/>
<path d="M40.7993 -34.1L40.9531 -34.0927C41.7094 -34.0158 42.2993 -33.3766 42.2993 -32.6V7.59972C42.2993 8.42814 41.6277 9.09972 40.7993 9.09972H0.599564C-0.228863 9.09972 -0.900436 8.42814 -0.900436 7.59972V-32.6L-0.893112 -32.7538C-0.816114 -33.51 -0.176952 -34.1 0.599564 -34.1H40.7993ZM2.09956 6.09972H39.2993V-31.1H2.09956V6.09972Z" fill="#DFCAF9"/>
<path d="M40.7996 27.4001C41.4062 27.4001 41.9531 27.7654 42.1853 28.3258C42.4175 28.8863 42.2891 29.5316 41.8601 29.9606L22.0599 49.7609C21.7786 50.042 21.397 50.2003 20.9993 50.2003H-19.2004C-19.8069 50.2003 -20.3539 49.8348 -20.5861 49.2746C-20.8183 48.7141 -20.6898 48.0688 -20.2609 47.6398L-0.460655 27.8395L-0.350792 27.7399C-0.0838852 27.5212 0.251827 27.4001 0.599892 27.4001H40.7996ZM-15.5793 47.2003H20.3782L37.1785 30.4001H1.22099L-15.5793 47.2003Z" fill="#DFCAF9"/>
<path d="M39.7394 8.93948C40.1684 8.51061 40.8137 8.38214 41.3741 8.61428C41.9344 8.84656 42.2999 9.3935 42.2999 10V50.1997C42.2999 50.5974 42.1416 50.979 41.8605 51.2603L22.0602 71.0606C21.6312 71.4896 20.9859 71.6179 20.4254 71.3858C19.865 71.1535 19.4996 70.6066 19.4996 70V29.8003C19.4996 29.4026 19.6579 29.0211 19.9391 28.7398L39.7394 8.93948ZM22.4996 30.4214V66.3789L39.2999 49.5786V13.6211L22.4996 30.4214Z" fill="#DFCAF9"/>
</g>
<defs>
<clipPath id="clip0_5183_18731">
<rect width="48" height="48" rx="24" fill="white"/>
</clipPath>
</defs>
</svg>
