<svg width="48" height="48" viewBox="0 0 48 48" fill="none" xmlns="http://www.w3.org/2000/svg">
<g clip-path="url(#clip0_5183_18736)">
<rect width="48" height="48" rx="24" fill="#D7E6F0"/>
<path d="M37.8005 -7.00003C38.4071 -7.00003 38.954 -6.63465 39.1862 -6.07425C39.3894 -5.58365 39.3165 -5.028 39.0075 -4.60941L38.861 -4.43948L19.0607 15.3608C18.7794 15.6419 18.3979 15.8003 18.0002 15.8003H-22.1995C-22.8061 15.8003 -23.353 15.4347 -23.5853 14.8745C-23.8174 14.314 -23.689 13.6687 -23.2601 13.2397L-3.4598 -6.56058L-3.34993 -6.66019C-3.08303 -6.87885 -2.74731 -7.00003 -2.39925 -7.00003H37.8005ZM-18.5784 12.8003H17.3791L34.1794 -4.00003H-1.77816L-18.5784 12.8003Z" fill="#009A8C"/>
<path d="M37.8005 33.2C38.4071 33.2 38.954 33.5654 39.1862 34.1258C39.4184 34.6863 39.29 35.3316 38.861 35.7606L19.0607 55.5608C18.7794 55.842 18.3978 56.0003 18.0002 56.0003H-22.1995C-22.8061 56.0003 -23.353 55.6348 -23.5853 55.0745C-23.8174 54.5141 -23.689 53.8688 -23.2601 53.4398L-3.4598 33.6395L-3.34993 33.5399C-3.08303 33.3212 -2.74731 33.2 -2.39925 33.2H37.8005ZM-18.5784 53.0003H17.3791L34.1794 36.2H-1.77816L-18.5784 53.0003Z" fill="#009A8C"/>
<path d="M36.7402 -6.56058C37.1692 -6.98944 37.8146 -7.11791 38.375 -6.88577C38.9353 -6.65349 39.3008 -6.10655 39.3008 -5.50003V34.6997C39.3008 35.0974 39.1421 35.4793 38.861 35.7606L19.0607 55.5608C18.6317 55.9898 17.9868 56.1179 17.4263 55.8857C16.8659 55.6535 16.5005 55.1066 16.5005 54.5V14.3003C16.5005 13.9025 16.6587 13.521 16.9399 13.2397L36.7402 -6.56058ZM19.5005 14.9214V50.8789L36.3008 34.0786V-1.87893L19.5005 14.9214Z" fill="#009A8C"/>
</g>
<defs>
<clipPath id="clip0_5183_18736">
<rect width="48" height="48" rx="24" fill="white"/>
</clipPath>
</defs>
</svg>
