<svg width="48" height="48" viewBox="0 0 48 48" fill="none" xmlns="http://www.w3.org/2000/svg">
<g clip-path="url(#clip0_5183_18741)">
<rect width="48" height="48" rx="24" fill="#A33069"/>
<path d="M25.1998 -19.5L25.3536 -19.4927C26.11 -19.4158 26.6998 -18.7766 26.6998 -18V22.1997C26.6998 23.0281 26.0283 23.6997 25.1998 23.6997H-14.9999C-15.8283 23.6997 -16.4999 23.0281 -16.4999 22.1997V-18L-16.4926 -18.1538C-16.4156 -18.91 -15.7764 -19.5 -14.9999 -19.5H25.1998ZM-13.4999 20.6997H23.6998V-16.5H-13.4999V20.6997Z" fill="#DFCAF9"/>
<path d="M67.2002 20.7C67.8068 20.7 68.3537 21.0654 68.5859 21.6258C68.8181 22.1863 68.6897 22.8316 68.2607 23.2606L48.4604 43.0609C48.1791 43.342 47.7975 43.5003 47.3999 43.5003H7.20016C6.59363 43.5003 6.0467 43.1348 5.81441 42.5746C5.58227 42.0141 5.71074 41.3688 6.13961 40.9398L25.9399 21.1395L26.0498 21.0399C26.3167 20.8212 26.6524 20.7 27.0005 20.7H67.2002ZM10.8212 40.5003H46.7788L63.5791 23.7H27.6215L10.8212 40.5003Z" fill="#DFCAF9"/>
</g>
<defs>
<clipPath id="clip0_5183_18741">
<rect width="48" height="48" rx="24" fill="white"/>
</clipPath>
</defs>
</svg>
