<svg width="48" height="48" viewBox="0 0 48 48" fill="none" xmlns="http://www.w3.org/2000/svg">
<g clip-path="url(#clip0_5183_18746)">
<rect width="48" height="48" rx="24" fill="#F8C8B1"/>
<path d="M13.2074 37.7L13.3612 37.6927C14.1175 37.6158 14.7074 36.9766 14.7074 36.2V-3.99972C14.7074 -4.82815 14.0358 -5.49972 13.2074 -5.49972H-26.9923C-27.8207 -5.49972 -28.4923 -4.82815 -28.4923 -3.99972V36.2L-28.485 36.3538C-28.408 37.11 -27.7688 37.7 -26.9923 37.7H13.2074ZM-25.4923 -2.49972H11.7074V34.7H-25.4923V-2.49972Z" fill="#A93D70"/>
<path d="M47.0027 57.5C47.6093 57.5 48.1562 57.1346 48.3884 56.5742C48.5917 56.0836 48.5188 55.528 48.2097 55.1094L48.0632 54.9394L28.2629 35.1392C27.9817 34.858 27.6001 34.6997 27.2024 34.6997H-12.9973C-13.6038 34.6997 -14.1508 35.0652 -14.383 35.6255C-14.6152 36.1859 -14.4867 36.8313 -14.0579 37.2603L5.74244 57.0605L5.8523 57.1602C6.11921 57.3788 6.45492 57.5 6.80299 57.5H47.0027ZM-9.37621 37.6997H26.5813L43.3816 54.5H7.42408L-9.37621 37.6997Z" fill="#A93D70"/>
<path d="M60.9974 57.5L61.1512 57.4927C61.9076 57.4158 62.4974 56.7766 62.4974 56V15.8003C62.4974 14.9719 61.8258 14.3003 60.9974 14.3003H20.7977C19.9692 14.3003 19.2977 14.9719 19.2977 15.8003V56L19.305 56.1538C19.382 56.91 20.0212 57.5 20.7977 57.5H60.9974ZM22.2977 17.3003H59.4974V54.5H22.2977V17.3003Z" fill="#A93D70"/>
<path d="M74.9927 17.3C75.5993 17.3 76.1462 16.9346 76.3784 16.3742C76.6106 15.8137 76.4822 15.1684 76.0532 14.7394L56.253 -5.06088C55.9717 -5.34199 55.5901 -5.50034 55.1924 -5.50034H14.9927C14.3862 -5.50034 13.8392 -5.1348 13.607 -4.57455C13.3748 -4.01411 13.5033 -3.36879 13.9322 -2.93979L33.7325 16.8605L33.8423 16.9601C34.1092 17.1788 34.4449 17.3 34.793 17.3H74.9927ZM18.6138 -2.50034H54.5713L71.3716 14.3H35.4141L18.6138 -2.50034Z" fill="#A93D70"/>
</g>
<defs>
<clipPath id="clip0_5183_18746">
<rect width="48" height="48" rx="24" fill="white"/>
</clipPath>
</defs>
</svg>
