<svg width="48" height="48" viewBox="0 0 48 48" fill="none" xmlns="http://www.w3.org/2000/svg">
<g clip-path="url(#clip0_5183_18752)">
<rect width="48" height="48" rx="24" fill="#915541"/>
<path d="M10.2098 53.707C10.6284 54.0159 11.1842 54.0889 11.6747 53.8857C12.2349 53.6535 12.6005 53.1065 12.6005 52.5V12.3003C12.6005 11.9026 12.4421 11.521 12.161 11.2397L-7.63928 -8.56054C-8.06828 -8.98954 -8.71354 -9.11791 -9.27405 -8.88574C-9.83445 -8.65352 -10.1998 -8.10662 -10.1998 -7.5V32.6997L-10.1925 32.8477C-10.1585 33.1912 -10.0066 33.514 -9.76038 33.7603L10.0399 53.5605L10.2098 53.707ZM-7.19983 32.0786V-3.8789L9.60046 12.9214V48.8789L-7.19983 32.0786Z" fill="#F8C8B1"/>
<path d="M31.4999 34.2L31.6537 34.1927C32.41 34.1158 32.9999 33.4766 32.9999 32.7V-7.49972C32.9999 -8.32814 32.3283 -8.99972 31.4999 -8.99972H-8.69983C-9.52826 -8.99972 -10.1998 -8.32842 -10.1998 -7.5V32.6997L-10.1925 32.8538C-10.1155 33.61 -9.47633 34.2 -8.69983 34.2H31.4999ZM-7.19983 -5.99972H29.9999V31.2H-7.19983V-5.99972Z" fill="#F8C8B1"/>
<path d="M51.3002 54C51.9068 54 52.4537 53.6346 52.6859 53.0742C52.8891 52.5836 52.8162 52.028 52.5072 51.6094L52.3607 51.4395L32.5604 31.6392C32.2791 31.358 31.8976 31.1997 31.4999 31.1997H-8.69983C-9.30636 31.1997 -9.8533 31.5652 -10.0856 32.1255C-10.3177 32.6859 -10.1893 33.3313 -9.76038 33.7603L10.0399 53.5605L10.1498 53.6602C10.4167 53.8788 10.7524 54 11.1005 54H51.3002ZM-5.07873 34.1997H30.8788L47.6791 51H11.7216L-5.07873 34.1997Z" fill="#F8C8B1"/>
<path d="M51.3002 54L51.4537 53.9927C52.21 53.9158 52.7998 53.2766 52.7998 52.5V12.3003C52.7998 11.4719 52.1283 10.8003 51.2998 10.8003H11.1001C10.2717 10.8003 9.60014 11.4719 9.60014 12.3003V52.5L9.60746 52.6538C9.68446 53.41 10.3239 54 11.1005 54H51.3002ZM12.6001 13.8003H49.7998V51H12.6001V13.8003Z" fill="#F8C8B1"/>
</g>
<defs>
<clipPath id="clip0_5183_18752">
<rect width="48" height="48" rx="24" fill="white"/>
</clipPath>
</defs>
</svg>
