<svg width="48" height="48" viewBox="0 0 48 48" fill="none" xmlns="http://www.w3.org/2000/svg">
<g clip-path="url(#clip0_5183_18758)">
<rect width="48" height="48" rx="24" fill="#FAE38D"/>
<path d="M9.89014 84.207C9.47157 84.5159 8.91582 84.5889 8.42529 84.3857C7.86503 84.1535 7.49951 83.6065 7.49951 83V42.8003C7.49951 42.4026 7.65784 42.021 7.93896 41.7397L27.7393 21.9394C28.1683 21.5104 28.8135 21.3821 29.374 21.6143C29.9344 21.8465 30.2998 22.3934 30.2998 23V63.1997L30.2925 63.3476C30.2585 63.6912 30.1065 64.014 29.8604 64.2602L10.0601 84.0605L9.89014 84.207ZM27.2998 62.5786V26.6211L10.4995 43.4214V79.3789L27.2998 62.5786Z" fill="#B67E28"/>
<path d="M-11.3999 24.2L-11.5537 24.1927C-12.31 24.1158 -12.8999 23.4766 -12.8999 22.7V-17.4997C-12.8999 -18.3282 -12.2283 -18.9997 -11.3999 -18.9997H28.7998C29.6282 -18.9997 30.2998 -18.3282 30.2998 -17.4997V22.7L30.2925 22.8538C30.2155 23.61 29.5763 24.2 28.7998 24.2H-11.3999ZM27.2998 -15.9997H-9.8999V21.2H27.2998V-15.9997Z" fill="#B67E28"/>
</g>
<defs>
<clipPath id="clip0_5183_18758">
<rect width="48" height="48" rx="24" fill="white"/>
</clipPath>
</defs>
</svg>
