<svg width="48" height="48" viewBox="0 0 48 48" fill="none" xmlns="http://www.w3.org/2000/svg">
<g clip-path="url(#clip0_5183_18763)">
<rect width="48" height="48" rx="24" fill="#417DA0"/>
<path d="M15.0001 -13.2L14.8463 -13.1927C14.09 -13.1158 13.5001 -12.4766 13.5001 -11.7V28.4997C13.5001 29.3281 14.1717 29.9997 15.0001 29.9997H55.1998C56.0282 29.9997 56.6998 29.3281 56.6998 28.4997V-11.7L56.6925 -11.8538C56.6155 -12.61 55.9763 -13.2 55.1998 -13.2H15.0001ZM53.6998 26.9997H16.5001V-10.2H53.6998V26.9997Z" fill="#B7EEE4"/>
<path d="M-4.80018 -3.00002C-5.4068 -3.00002 -5.95371 -2.63464 -6.18592 -2.07424C-6.38914 -1.58364 -6.31624 -1.02799 -6.00721 -0.609392L-5.86073 -0.43947L13.9396 19.3608C14.2208 19.6419 14.6024 19.8003 15.0001 19.8003H55.1998C55.8064 19.8003 56.3533 19.4348 56.5856 18.8745C56.8177 18.314 56.6892 17.6687 56.2604 17.2397L36.4601 -2.56056L36.3502 -2.66017C36.0833 -2.87884 35.7476 -3.00002 35.3995 -3.00002H-4.80018ZM51.5787 16.8003H15.6212L-1.17909 -1.71661e-05H34.7784L51.5787 16.8003Z" fill="#B7EEE4"/>
<path d="M-4.79985 27L-4.95366 27.0073C-5.71003 27.0841 -6.29985 27.7233 -6.29985 28.5V68.6997C-6.29985 69.5281 -5.62828 70.1997 -4.79985 70.1997H35.3999C36.2283 70.1997 36.8999 69.5281 36.8999 68.6997V28.5L36.8925 28.3462C36.8155 27.59 36.1764 27 35.3999 27H-4.79985ZM33.8999 67.1997H-3.29985V30H33.8999V67.1997Z" fill="#B7EEE4"/>
</g>
<defs>
<clipPath id="clip0_5183_18763">
<rect width="48" height="48" rx="24" fill="white"/>
</clipPath>
</defs>
</svg>
