<svg width="48" height="48" viewBox="0 0 48 48" fill="none" xmlns="http://www.w3.org/2000/svg">
<g clip-path="url(#clip0_5178_18511)">
<rect width="48" height="48" rx="24" fill="#B7EEE4"/>
<path d="M32.9999 -23.7L33.1537 -23.6927C33.91 -23.6158 34.4999 -22.9766 34.4999 -22.2V17.9997C34.4999 18.8282 33.8283 19.4997 32.9999 19.4997H-7.19983C-8.02826 19.4997 -8.69983 18.8282 -8.69983 17.9997V-22.2L-8.6925 -22.3538C-8.61549 -23.11 -7.97633 -23.7 -7.19983 -23.7H32.9999ZM-5.69983 16.4997H31.4999V-20.7H-5.69983V16.4997Z" fill="#417DA0"/>
<path d="M52.7998 -4.49998L52.9537 -4.49265C53.71 -4.41582 54.2998 -3.77662 54.2998 -2.99998V37.1997C54.2998 38.0282 53.6283 38.6997 52.7998 38.6997H12.6001C11.7717 38.6997 11.1001 38.0282 11.1001 37.1997V-2.99998L11.1075 -3.15379C11.1845 -3.90998 11.8236 -4.49998 12.6001 -4.49998H52.7998ZM14.1001 35.6997H51.2998V-1.49998H14.1001V35.6997Z" fill="#417DA0"/>
</g>
<defs>
<clipPath id="clip0_5178_18511">
<rect width="48" height="48" rx="24" fill="white"/>
</clipPath>
</defs>
</svg>
