<svg width="48" height="48" viewBox="0 0 48 48" fill="none" xmlns="http://www.w3.org/2000/svg">
<g clip-path="url(#clip0_5183_18768)">
<rect width="48" height="48" rx="24" fill="#A93D70"/>
<path d="M29.71 74.707C30.1285 75.0159 30.6843 75.0889 31.1748 74.8857C31.7351 74.6535 32.1006 74.1065 32.1006 73.5V33.3003C32.1006 32.9026 31.9423 32.521 31.6611 32.2397L11.8608 12.4395C11.4318 12.0105 10.7866 11.8821 10.2261 12.1143C9.66567 12.3465 9.30029 12.8934 9.30029 13.5V53.6997L9.30762 53.8476C9.34159 54.1912 9.49355 54.514 9.73975 54.7602L29.54 74.5605L29.71 74.707ZM12.3003 53.0786V17.1211L29.1006 33.9214V69.8789L12.3003 53.0786Z" fill="#FAEFB8"/>
<path d="M51 26.7L51.1538 26.6927C51.9101 26.6158 52.5 25.9766 52.5 25.2V-14.9997C52.5 -15.8282 51.8284 -16.4997 51 -16.4997H10.8003C9.97187 -16.4997 9.30029 -15.8282 9.30029 -14.9997V25.2L9.30762 25.3538C9.38464 26.11 10.0238 26.7 10.8003 26.7H51ZM12.3003 -13.4997H49.5V23.7H12.3003V-13.4997Z" fill="#FAEFB8"/>
<path d="M70.8003 18C71.4069 18 71.9538 17.6346 72.186 17.0742C72.3892 16.5836 72.3164 16.028 72.0073 15.6094L71.8608 15.4394L52.0605 -4.36085C51.7793 -4.64197 51.3977 -4.80031 51 -4.80031H10.8003C10.1938 -4.80031 9.64683 -4.43479 9.41455 -3.87453C9.18241 -3.31408 9.31087 -2.66876 9.73975 -2.23976L29.54 17.5605L29.6499 17.6601C29.9168 17.8788 30.2525 18 30.6006 18H70.8003ZM14.4214 -1.80031H50.3789L67.1792 15H31.2217L14.4214 -1.80031Z" fill="#FAEFB8"/>
</g>
<defs>
<clipPath id="clip0_5183_18768">
<rect width="48" height="48" rx="24" fill="white"/>
</clipPath>
</defs>
</svg>
