<svg width="48" height="48" viewBox="0 0 48 48" fill="none" xmlns="http://www.w3.org/2000/svg">
<g clip-path="url(#clip0_5183_18773)">
<rect width="48" height="48" rx="24" fill="#FAE38D"/>
<path d="M48.9974 -26.5L49.1512 -26.4927C49.9076 -26.4158 50.4974 -25.7766 50.4974 -25V15.1997C50.4974 16.0281 49.8259 16.6997 48.9974 16.6997H8.79773C7.9693 16.6997 7.29773 16.0281 7.29773 15.1997V-25L7.30505 -25.1538C7.38205 -25.91 8.02121 -26.5 8.79773 -26.5H48.9974ZM10.2977 13.6997H47.4974V-23.5H10.2977V13.6997Z" fill="#925AD6"/>
<path d="M71.9928 13.7001C72.5994 13.7001 73.1463 14.0654 73.3785 14.6258C73.6107 15.1863 73.4823 15.8316 73.0533 16.2606L53.253 36.0609C52.9717 36.342 52.5902 36.5003 52.1925 36.5003H11.9928C11.3862 36.5003 10.8393 36.1348 10.607 35.5746C10.3749 35.0141 10.5034 34.3688 10.9322 33.9398L30.7325 14.1395L30.8424 14.0399C31.1093 13.8212 31.445 13.7001 31.7931 13.7001H71.9928ZM15.6139 33.5003H51.5714L68.3717 16.7001H32.4142L15.6139 33.5003Z" fill="#925AD6"/>
</g>
<defs>
<clipPath id="clip0_5183_18773">
<rect width="48" height="48" rx="24" fill="white"/>
</clipPath>
</defs>
</svg>
