<svg width="48" height="48" viewBox="0 0 48 48" fill="none" xmlns="http://www.w3.org/2000/svg">
<g clip-path="url(#clip0_5183_18778)">
<rect width="48" height="48" rx="24" fill="#D7E6F0"/>
<path d="M-28.7071 35.7099C-29.016 36.1284 -29.089 36.6842 -28.8858 37.1747C-28.6535 37.735 -28.1066 38.1005 -27.5001 38.1005H12.6997C13.0973 38.1005 13.4789 37.9421 13.7602 37.661L33.5605 17.8607C33.9895 17.4317 34.1179 16.7865 33.8857 16.226C33.6535 15.6656 33.1066 15.3002 32.4999 15.3002H-7.69976L-7.84771 15.3075C-8.19125 15.3415 -8.51404 15.4934 -8.76031 15.7396L-28.5606 35.5399L-28.7071 35.7099ZM-7.07867 18.3002H28.8788L12.0786 35.1005H-23.879L-7.07867 18.3002Z" fill="#925AD6"/>
<path d="M31.6 56.9999L31.6073 57.1537C31.6842 57.91 32.3234 58.4999 33.1 58.4999H73.2997C74.1281 58.4999 74.7997 57.8283 74.7997 56.9999V16.8002C74.7997 15.9718 74.1281 15.3002 73.2997 15.3002H33.1L32.9462 15.3075C32.19 15.3845 31.6 16.0237 31.6 16.8002V56.9999ZM71.7997 18.3002V55.4999H34.6V18.3002H71.7997Z" fill="#925AD6"/>
</g>
<defs>
<clipPath id="clip0_5183_18778">
<rect width="48" height="48" rx="24" fill="white"/>
</clipPath>
</defs>
</svg>
