<svg width="48" height="48" viewBox="0 0 48 48" fill="none" xmlns="http://www.w3.org/2000/svg">
<g clip-path="url(#clip0_5183_18784)">
<rect width="48" height="48" rx="24" fill="#763CC0"/>
<path d="M-11.7 29.9999L-11.6926 30.1537C-11.6158 30.91 -10.9765 31.4999 -10.2 31.4999H29.9998C30.8282 31.4999 31.4998 30.8283 31.4998 29.9999V-10.1998C31.4998 -11.0282 30.8282 -11.6998 29.9998 -11.6998H-10.2L-10.3538 -11.6925C-11.1099 -11.6155 -11.7 -10.9763 -11.7 -10.1998L-11.7 29.9999ZM28.4998 -8.6998V28.4999H-8.69995L-8.69995 -8.6998H28.4998Z" fill="#DFCAF9"/>
<path d="M16.5 49.8002C16.5 50.4068 16.8654 50.9537 17.4258 51.1859C17.9164 51.3891 18.4721 51.3162 18.8907 51.0072L19.0606 50.8607L38.8609 31.0604C39.142 30.7792 39.3003 30.3976 39.3003 29.9999V-10.1998C39.3003 -10.8063 38.9348 -11.3533 38.3746 -11.5856C37.8141 -11.8177 37.1688 -11.6892 36.7398 -11.2604L16.9395 8.53993L16.8399 8.64979C16.6212 8.9167 16.5 9.25241 16.5 9.60048L16.5 49.8002ZM36.3003 -6.57872V29.3788L19.5 46.1791L19.5 10.2216L36.3003 -6.57872Z" fill="#DFCAF9"/>
</g>
<defs>
<clipPath id="clip0_5183_18784">
<rect width="48" height="48" rx="24" fill="white"/>
</clipPath>
</defs>
</svg>
