<svg width="48" height="48" viewBox="0 0 48 48" fill="none" xmlns="http://www.w3.org/2000/svg">
<g clip-path="url(#clip0_5183_18792)">
<rect width="48" height="48" rx="24" fill="#90E1D2"/>
<path d="M30.0004 29.2999C29.3938 29.2999 28.8469 28.9345 28.6147 28.3741C28.3825 27.8136 28.5109 27.1684 28.9399 26.7394L48.7402 6.93909C49.0214 6.65798 49.403 6.49963 49.8007 6.49963H90.0004C90.6069 6.49963 91.1539 6.86517 91.3862 7.42542C91.6183 7.98586 91.4898 8.63118 91.061 9.06018L71.2607 28.8605L71.1508 28.9601C70.8839 29.1787 70.5482 29.2999 70.2001 29.2999H30.0004ZM86.3793 9.49963H50.4218L33.6215 26.2999H69.579L86.3793 9.49963Z" fill="#7F45C8"/>
<path d="M9.76062 69.0605C9.33162 69.4894 8.6863 69.6179 8.12585 69.3857C7.56561 69.1534 7.20007 68.6065 7.20007 68V27.8003C7.20007 27.4026 7.35841 27.021 7.63953 26.7397L27.4398 6.93942C27.8688 6.51042 28.5141 6.38205 29.0746 6.61423C29.635 6.84644 30.0004 7.39335 30.0004 7.99997V48.1997C30.0004 48.5974 29.8421 48.9789 29.5609 49.2602L9.76062 69.0605ZM27.0004 47.5786V11.6211L10.2001 28.4214V64.3789L27.0004 47.5786Z" fill="#7F45C8"/>
</g>
<defs>
<clipPath id="clip0_5183_18792">
<rect width="48" height="48" rx="24" fill="white"/>
</clipPath>
</defs>
</svg>
