<svg width="48" height="48" viewBox="0 0 48 48" fill="none" xmlns="http://www.w3.org/2000/svg">
<rect width="48" height="48" rx="24" fill="#004367"/>
<path d="M21.2222 25.137C21.6805 24.7633 22.356 24.7897 22.7831 25.2168C23.2102 25.6439 23.2366 26.3194 22.8629 26.7777L22.7831 26.8665L11.9914 37.6582C11.5358 38.1138 10.7973 38.1138 10.3417 37.6582C9.8861 37.2026 9.8861 36.4641 10.3417 36.0085L21.1334 25.2168L21.2222 25.137Z" fill="white"/>
<path fill-rule="evenodd" clip-rule="evenodd" d="M33.9166 10C36.1717 10 37.9999 11.8282 37.9999 14.0833V28.6257C37.9998 29.7085 37.5693 30.747 36.8036 31.5127L30.6581 37.6582C30.2026 38.1135 29.4639 38.1135 29.0084 37.6582C28.5531 37.2026 28.5531 36.464 29.0084 36.0085L35.1129 29.904C35.7534 29.2632 35.7932 28.2488 35.2325 27.5615L35.1129 27.4282L20.5705 12.887C19.9301 12.2468 18.9165 12.2064 18.2292 12.7663L18.0959 12.887L11.9914 18.9915C11.5359 19.4469 10.7973 19.4469 10.3417 18.9915C9.88639 18.536 9.88639 17.7974 10.3417 17.3418L16.4872 11.1963L16.6342 11.0562C17.3831 10.3781 18.3592 10.0001 19.3743 10H33.9166ZM35.6666 24.6825V14.0833C35.6666 13.1168 34.8831 12.3333 33.9166 12.3333H23.3163L35.6666 24.6825Z" fill="white"/>
</svg>
