<svg xmlns="http://www.w3.org/2000/svg" fill="none" viewBox="0 0 384 268" height="268" width="384">
<g clip-path="url(#clip0_6511_104176)">
<path fill="#262626" d="M25.66 87V73.92H33.56V75.88H27.98V79.58H32.74V81.54H27.98V87H25.66ZM35.2447 87V77.18H37.1447L37.3047 78.92H37.3847C37.7314 78.28 38.1514 77.7933 38.6447 77.46C39.138 77.1133 39.6447 76.94 40.1647 76.94C40.6314 76.94 41.0047 77.0067 41.2847 77.14L40.8847 79.14C40.7114 79.0867 40.5514 79.0467 40.4047 79.02C40.258 78.9933 40.078 78.98 39.8647 78.98C39.478 78.98 39.0714 79.1333 38.6447 79.44C38.218 79.7333 37.8514 80.2533 37.5447 81V87H35.2447ZM46.6903 87.24C45.7836 87.24 44.9636 87.04 44.2303 86.64C43.497 86.2267 42.917 85.64 42.4903 84.88C42.0636 84.1067 41.8503 83.18 41.8503 82.1C41.8503 81.0333 42.0636 80.1133 42.4903 79.34C42.9303 78.5667 43.497 77.9733 44.1903 77.56C44.8836 77.1467 45.6103 76.94 46.3703 76.94C47.2636 76.94 48.0103 77.14 48.6103 77.54C49.2103 77.9267 49.6636 78.4733 49.9703 79.18C50.277 79.8733 50.4303 80.68 50.4303 81.6C50.4303 82.08 50.397 82.4533 50.3303 82.72H44.0903C44.197 83.5867 44.5103 84.26 45.0303 84.74C45.5503 85.22 46.2036 85.46 46.9903 85.46C47.417 85.46 47.8103 85.4 48.1703 85.28C48.5436 85.1467 48.9103 84.9667 49.2703 84.74L50.0503 86.18C49.5836 86.4867 49.0636 86.74 48.4903 86.94C47.917 87.14 47.317 87.24 46.6903 87.24ZM44.0703 81.16H48.4303C48.4303 80.4 48.2636 79.8067 47.9303 79.38C47.597 78.94 47.097 78.72 46.4303 78.72C45.857 78.72 45.3436 78.9333 44.8903 79.36C44.4503 79.7733 44.177 80.3733 44.0703 81.16ZM52.607 87V77.18H54.507L54.667 78.52H54.747C55.1604 78.08 55.607 77.7067 56.087 77.4C56.5804 77.0933 57.1337 76.94 57.747 76.94C58.467 76.94 59.0404 77.1 59.467 77.42C59.907 77.7267 60.2404 78.1533 60.467 78.7C60.9337 78.1933 61.4204 77.7733 61.927 77.44C62.447 77.1067 63.0137 76.94 63.627 76.94C64.667 76.94 65.4337 77.28 65.927 77.96C66.4204 78.64 66.667 79.6 66.667 80.84V87H64.347V81.14C64.347 80.3267 64.2204 79.7533 63.967 79.42C63.727 79.0867 63.3537 78.92 62.847 78.92C62.2337 78.92 61.547 79.3267 60.787 80.14V87H58.487V81.14C58.487 80.3267 58.3604 79.7533 58.107 79.42C57.867 79.0867 57.487 78.92 56.967 78.92C56.3537 78.92 55.667 79.3267 54.907 80.14V87H52.607ZM72.8625 91.34C72.0892 91.34 71.3892 91.2467 70.7625 91.06C70.1492 90.8733 69.6625 90.5867 69.3025 90.2C68.9558 89.8267 68.7825 89.3533 68.7825 88.78C68.7825 87.9667 69.2492 87.2667 70.1825 86.68V86.6C69.9292 86.44 69.7158 86.2267 69.5425 85.96C69.3825 85.6933 69.3025 85.36 69.3025 84.96C69.3025 84.5733 69.4092 84.2267 69.6225 83.92C69.8492 83.6 70.1025 83.34 70.3825 83.14V83.06C70.0492 82.8067 69.7492 82.4533 69.4825 82C69.2292 81.5467 69.1025 81.0333 69.1025 80.46C69.1025 79.7 69.2825 79.06 69.6425 78.54C70.0025 78.02 70.4758 77.6267 71.0625 77.36C71.6625 77.08 72.3025 76.94 72.9825 76.94C73.2492 76.94 73.5025 76.9667 73.7425 77.02C73.9958 77.06 74.2225 77.1133 74.4225 77.18H77.9425V78.88H76.1425C76.3025 79.0667 76.4358 79.3067 76.5425 79.6C76.6492 79.88 76.7025 80.1933 76.7025 80.54C76.7025 81.26 76.5358 81.8733 76.2025 82.38C75.8692 82.8733 75.4225 83.2467 74.8625 83.5C74.3025 83.7533 73.6758 83.88 72.9825 83.88C72.7692 83.88 72.5492 83.86 72.3225 83.82C72.0958 83.78 71.8692 83.7133 71.6425 83.62C71.4958 83.7533 71.3758 83.8867 71.2825 84.02C71.2025 84.1533 71.1625 84.3333 71.1625 84.56C71.1625 84.84 71.2758 85.06 71.5025 85.22C71.7425 85.38 72.1625 85.46 72.7625 85.46H74.5025C75.6892 85.46 76.5825 85.6533 77.1825 86.04C77.7958 86.4133 78.1025 87.0267 78.1025 87.88C78.1025 88.52 77.8892 89.1 77.4625 89.62C77.0358 90.1533 76.4292 90.5733 75.6425 90.88C74.8558 91.1867 73.9292 91.34 72.8625 91.34ZM72.9825 82.44C73.4492 82.44 73.8492 82.2667 74.1825 81.92C74.5158 81.5733 74.6825 81.0867 74.6825 80.46C74.6825 79.8467 74.5158 79.3733 74.1825 79.04C73.8625 78.6933 73.4625 78.52 72.9825 78.52C72.5025 78.52 72.0958 78.6867 71.7625 79.02C71.4292 79.3533 71.2625 79.8333 71.2625 80.46C71.2625 81.0867 71.4292 81.5733 71.7625 81.92C72.0958 82.2667 72.5025 82.44 72.9825 82.44ZM73.2225 89.84C74.0092 89.84 74.6492 89.68 75.1425 89.36C75.6358 89.04 75.8825 88.6733 75.8825 88.26C75.8825 87.8733 75.7292 87.6133 75.4225 87.48C75.1292 87.3467 74.7025 87.28 74.1425 87.28H72.8025C72.2692 87.28 71.8225 87.2333 71.4625 87.14C70.9558 87.5267 70.7025 87.96 70.7025 88.44C70.7025 88.88 70.9292 89.22 71.3825 89.46C71.8358 89.7133 72.4492 89.84 73.2225 89.84ZM81.8416 87.24C80.9882 87.24 80.2882 86.9733 79.7416 86.44C79.2082 85.9067 78.9416 85.2133 78.9416 84.36C78.9416 83.3067 79.4016 82.4933 80.3216 81.92C81.2416 81.3333 82.7082 80.9333 84.7216 80.72C84.7082 80.2 84.5682 79.7533 84.3016 79.38C84.0482 78.9933 83.5882 78.8 82.9216 78.8C82.4416 78.8 81.9682 78.8933 81.5016 79.08C81.0482 79.2667 80.6016 79.4933 80.1616 79.76L79.3216 78.22C79.8682 77.8733 80.4816 77.5733 81.1616 77.32C81.8549 77.0667 82.5882 76.94 83.3616 76.94C84.5882 76.94 85.5016 77.3067 86.1016 78.04C86.7149 78.76 87.0216 79.8067 87.0216 81.18V87H85.1216L84.9616 85.92H84.8816C84.4416 86.2933 83.9682 86.6067 83.4616 86.86C82.9682 87.1133 82.4282 87.24 81.8416 87.24ZM82.5816 85.44C82.9816 85.44 83.3416 85.3467 83.6616 85.16C83.9949 84.96 84.3482 84.6933 84.7216 84.36V82.16C83.3882 82.3333 82.4616 82.5933 81.9416 82.94C81.4216 83.2733 81.1616 83.6867 81.1616 84.18C81.1616 84.62 81.2949 84.94 81.5616 85.14C81.8282 85.34 82.1682 85.44 82.5816 85.44ZM89.7541 87V77.18H91.6541L91.8141 78.5H91.8941C92.3341 78.0733 92.8141 77.7067 93.3341 77.4C93.8541 77.0933 94.4474 76.94 95.1141 76.94C96.1674 76.94 96.9341 77.28 97.4141 77.96C97.8941 78.64 98.1341 79.6 98.1341 80.84V87H95.8341V81.14C95.8341 80.3267 95.7141 79.7533 95.4741 79.42C95.2341 79.0867 94.8407 78.92 94.2941 78.92C93.8674 78.92 93.4874 79.0267 93.1541 79.24C92.8341 79.44 92.4674 79.74 92.0541 80.14V87H89.7541ZM104.345 91.34C103.572 91.34 102.872 91.2467 102.245 91.06C101.632 90.8733 101.145 90.5867 100.785 90.2C100.439 89.8267 100.265 89.3533 100.265 88.78C100.265 87.9667 100.732 87.2667 101.665 86.68V86.6C101.412 86.44 101.199 86.2267 101.025 85.96C100.865 85.6933 100.785 85.36 100.785 84.96C100.785 84.5733 100.892 84.2267 101.105 83.92C101.332 83.6 101.585 83.34 101.865 83.14V83.06C101.532 82.8067 101.232 82.4533 100.965 82C100.712 81.5467 100.585 81.0333 100.585 80.46C100.585 79.7 100.765 79.06 101.125 78.54C101.485 78.02 101.959 77.6267 102.545 77.36C103.145 77.08 103.785 76.94 104.465 76.94C104.732 76.94 104.985 76.9667 105.225 77.02C105.479 77.06 105.705 77.1133 105.905 77.18H109.425V78.88H107.625C107.785 79.0667 107.919 79.3067 108.025 79.6C108.132 79.88 108.185 80.1933 108.185 80.54C108.185 81.26 108.019 81.8733 107.685 82.38C107.352 82.8733 106.905 83.2467 106.345 83.5C105.785 83.7533 105.159 83.88 104.465 83.88C104.252 83.88 104.032 83.86 103.805 83.82C103.579 83.78 103.352 83.7133 103.125 83.62C102.979 83.7533 102.859 83.8867 102.765 84.02C102.685 84.1533 102.645 84.3333 102.645 84.56C102.645 84.84 102.759 85.06 102.985 85.22C103.225 85.38 103.645 85.46 104.245 85.46H105.985C107.172 85.46 108.065 85.6533 108.665 86.04C109.279 86.4133 109.585 87.0267 109.585 87.88C109.585 88.52 109.372 89.1 108.945 89.62C108.519 90.1533 107.912 90.5733 107.125 90.88C106.339 91.1867 105.412 91.34 104.345 91.34ZM104.465 82.44C104.932 82.44 105.332 82.2667 105.665 81.92C105.999 81.5733 106.165 81.0867 106.165 80.46C106.165 79.8467 105.999 79.3733 105.665 79.04C105.345 78.6933 104.945 78.52 104.465 78.52C103.985 78.52 103.579 78.6867 103.245 79.02C102.912 79.3533 102.745 79.8333 102.745 80.46C102.745 81.0867 102.912 81.5733 103.245 81.92C103.579 82.2667 103.985 82.44 104.465 82.44ZM104.705 89.84C105.492 89.84 106.132 89.68 106.625 89.36C107.119 89.04 107.365 88.6733 107.365 88.26C107.365 87.8733 107.212 87.6133 106.905 87.48C106.612 87.3467 106.185 87.28 105.625 87.28H104.285C103.752 87.28 103.305 87.2333 102.945 87.14C102.439 87.5267 102.185 87.96 102.185 88.44C102.185 88.88 102.412 89.22 102.865 89.46C103.319 89.7133 103.932 89.84 104.705 89.84ZM114.036 87.24C113.369 87.24 112.703 87.1133 112.036 86.86C111.369 86.5933 110.796 86.2667 110.316 85.88L111.396 84.4C111.836 84.7333 112.276 85 112.716 85.2C113.156 85.4 113.623 85.5 114.116 85.5C114.649 85.5 115.043 85.3867 115.296 85.16C115.549 84.9333 115.676 84.6533 115.676 84.32C115.676 84.04 115.569 83.8133 115.356 83.64C115.156 83.4533 114.896 83.2933 114.576 83.16C114.256 83.0133 113.923 82.8733 113.576 82.74C113.149 82.58 112.723 82.3867 112.296 82.16C111.883 81.92 111.543 81.62 111.276 81.26C111.009 80.8867 110.876 80.4267 110.876 79.88C110.876 79.0133 111.196 78.3067 111.836 77.76C112.476 77.2133 113.343 76.94 114.436 76.94C115.129 76.94 115.749 77.06 116.296 77.3C116.843 77.54 117.316 77.8133 117.716 78.12L116.656 79.52C116.309 79.2667 115.956 79.0667 115.596 78.92C115.249 78.76 114.883 78.68 114.496 78.68C114.003 78.68 113.636 78.7867 113.396 79C113.156 79.2 113.036 79.4533 113.036 79.76C113.036 80.1467 113.236 80.44 113.636 80.64C114.036 80.84 114.503 81.0333 115.036 81.22C115.489 81.38 115.929 81.58 116.356 81.82C116.783 82.0467 117.136 82.3467 117.416 82.72C117.709 83.0933 117.856 83.5867 117.856 84.2C117.856 85.04 117.529 85.76 116.876 86.36C116.223 86.9467 115.276 87.24 114.036 87.24ZM119.889 87V77.18H121.789L121.949 78.52H122.029C122.443 78.08 122.889 77.7067 123.369 77.4C123.863 77.0933 124.416 76.94 125.029 76.94C125.749 76.94 126.323 77.1 126.749 77.42C127.189 77.7267 127.523 78.1533 127.749 78.7C128.216 78.1933 128.703 77.7733 129.209 77.44C129.729 77.1067 130.296 76.94 130.909 76.94C131.949 76.94 132.716 77.28 133.209 77.96C133.703 78.64 133.949 79.6 133.949 80.84V87H131.629V81.14C131.629 80.3267 131.503 79.7533 131.249 79.42C131.009 79.0867 130.636 78.92 130.129 78.92C129.516 78.92 128.829 79.3267 128.069 80.14V87H125.769V81.14C125.769 80.3267 125.643 79.7533 125.389 79.42C125.149 79.0867 124.769 78.92 124.249 78.92C123.636 78.92 122.949 79.3267 122.189 80.14V87H119.889ZM139.105 87.24C138.252 87.24 137.552 86.9733 137.005 86.44C136.472 85.9067 136.205 85.2133 136.205 84.36C136.205 83.3067 136.665 82.4933 137.585 81.92C138.505 81.3333 139.972 80.9333 141.985 80.72C141.972 80.2 141.832 79.7533 141.565 79.38C141.312 78.9933 140.852 78.8 140.185 78.8C139.705 78.8 139.232 78.8933 138.765 79.08C138.312 79.2667 137.865 79.4933 137.425 79.76L136.585 78.22C137.132 77.8733 137.745 77.5733 138.425 77.32C139.118 77.0667 139.852 76.94 140.625 76.94C141.852 76.94 142.765 77.3067 143.365 78.04C143.978 78.76 144.285 79.8067 144.285 81.18V87H142.385L142.225 85.92H142.145C141.705 86.2933 141.232 86.6067 140.725 86.86C140.232 87.1133 139.692 87.24 139.105 87.24ZM139.845 85.44C140.245 85.44 140.605 85.3467 140.925 85.16C141.258 84.96 141.612 84.6933 141.985 84.36V82.16C140.652 82.3333 139.725 82.5933 139.205 82.94C138.685 83.2733 138.425 83.6867 138.425 84.18C138.425 84.62 138.558 84.94 138.825 85.14C139.092 85.34 139.432 85.44 139.845 85.44ZM140.705 75.82C139.932 75.82 139.332 75.6267 138.905 75.24C138.492 74.8533 138.285 74.3733 138.285 73.8C138.285 73.2133 138.492 72.7267 138.905 72.34C139.332 71.9533 139.932 71.76 140.705 71.76C141.478 71.76 142.072 71.9533 142.485 72.34C142.912 72.7267 143.125 73.2133 143.125 73.8C143.125 74.3733 142.912 74.8533 142.485 75.24C142.072 75.6267 141.478 75.82 140.705 75.82ZM140.705 74.9C140.985 74.9 141.218 74.8 141.405 74.6C141.605 74.4 141.705 74.1333 141.705 73.8C141.705 73.4533 141.605 73.18 141.405 72.98C141.218 72.78 140.985 72.68 140.705 72.68C140.425 72.68 140.185 72.78 139.985 72.98C139.798 73.18 139.705 73.4533 139.705 73.8C139.705 74.1333 139.798 74.4 139.985 74.6C140.185 74.8 140.425 74.9 140.705 74.9ZM150.165 87.24C149.032 87.24 148.225 86.9133 147.745 86.26C147.278 85.5933 147.045 84.7333 147.045 83.68V79H145.645V77.28L147.165 77.18L147.445 74.5H149.365V77.18H151.865V79H149.365V83.68C149.365 84.8267 149.825 85.4 150.745 85.4C150.918 85.4 151.098 85.38 151.285 85.34C151.472 85.2867 151.632 85.2333 151.765 85.18L152.165 86.88C151.898 86.9733 151.592 87.0533 151.245 87.12C150.912 87.2 150.552 87.24 150.165 87.24ZM157.799 87.24C156.892 87.24 156.072 87.04 155.339 86.64C154.606 86.2267 154.026 85.64 153.599 84.88C153.172 84.1067 152.959 83.18 152.959 82.1C152.959 81.0333 153.172 80.1133 153.599 79.34C154.039 78.5667 154.606 77.9733 155.299 77.56C155.992 77.1467 156.719 76.94 157.479 76.94C158.372 76.94 159.119 77.14 159.719 77.54C160.319 77.9267 160.772 78.4733 161.079 79.18C161.386 79.8733 161.539 80.68 161.539 81.6C161.539 82.08 161.506 82.4533 161.439 82.72H155.199C155.306 83.5867 155.619 84.26 156.139 84.74C156.659 85.22 157.312 85.46 158.099 85.46C158.526 85.46 158.919 85.4 159.279 85.28C159.652 85.1467 160.019 84.9667 160.379 84.74L161.159 86.18C160.692 86.4867 160.172 86.74 159.599 86.94C159.026 87.14 158.426 87.24 157.799 87.24ZM155.179 81.16H159.539C159.539 80.4 159.372 79.8067 159.039 79.38C158.706 78.94 158.206 78.72 157.539 78.72C156.966 78.72 156.452 78.9333 155.999 79.36C155.559 79.7733 155.286 80.3733 155.179 81.16Z"></path>
<g clip-path="url(#clip1_6511_104176)">
<path fill="#262626" d="M38.5426 126V124.496H40.8146V117.808H38.9426V116.656C39.444 116.56 39.8813 116.448 40.2546 116.32C40.628 116.181 40.9746 116.016 41.2946 115.824H42.6706V124.496H44.6706V126H38.5426ZM47.8018 126.192C47.4711 126.192 47.1884 126.075 46.9538 125.84C46.7191 125.605 46.6018 125.307 46.6018 124.944C46.6018 124.581 46.7191 124.283 46.9538 124.048C47.1884 123.813 47.4711 123.696 47.8018 123.696C48.1431 123.696 48.4258 123.813 48.6498 124.048C48.8738 124.283 48.9858 124.581 48.9858 124.944C48.9858 125.307 48.8738 125.605 48.6498 125.84C48.4258 126.075 48.1431 126.192 47.8018 126.192Z"></path>
<path fill="#262626" d="M63.44 126V115.504H69.488V116.624H64.768V120.176H68.768V121.296H64.768V126H63.44ZM74.0555 126.192C73.4262 126.192 72.8342 126.032 72.2795 125.712C71.7355 125.392 71.2928 124.928 70.9515 124.32C70.6208 123.712 70.4555 122.981 70.4555 122.128C70.4555 121.253 70.6208 120.512 70.9515 119.904C71.2928 119.296 71.7355 118.832 72.2795 118.512C72.8342 118.192 73.4262 118.032 74.0555 118.032C74.6955 118.032 75.2875 118.192 75.8315 118.512C76.3755 118.832 76.8128 119.296 77.1435 119.904C77.4848 120.512 77.6555 121.253 77.6555 122.128C77.6555 122.981 77.4848 123.712 77.1435 124.32C76.8128 124.928 76.3755 125.392 75.8315 125.712C75.2875 126.032 74.6955 126.192 74.0555 126.192ZM74.0555 125.104C74.7275 125.104 75.2662 124.832 75.6715 124.288C76.0875 123.733 76.2955 123.013 76.2955 122.128C76.2955 121.232 76.0875 120.507 75.6715 119.952C75.2662 119.397 74.7275 119.12 74.0555 119.12C73.3942 119.12 72.8555 119.397 72.4395 119.952C72.0235 120.507 71.8155 121.232 71.8155 122.128C71.8155 123.013 72.0235 123.733 72.4395 124.288C72.8555 124.832 73.3942 125.104 74.0555 125.104ZM79.7354 126V118.224H80.8234L80.9354 119.632H80.9834C81.25 119.141 81.5754 118.752 81.9594 118.464C82.3434 118.176 82.754 118.032 83.1914 118.032C83.5007 118.032 83.778 118.085 84.0234 118.192L83.7674 119.344C83.6394 119.301 83.522 119.269 83.4154 119.248C83.3087 119.227 83.1754 119.216 83.0154 119.216C82.6847 119.216 82.338 119.349 81.9754 119.616C81.6234 119.883 81.314 120.347 81.0474 121.008V126H79.7354ZM87.4005 126L84.6005 118.224H85.9605L87.4325 122.64C87.5498 123.024 87.6672 123.408 87.7845 123.792C87.9125 124.176 88.0352 124.555 88.1525 124.928H88.2165C88.3338 124.555 88.4512 124.176 88.5685 123.792C88.6965 123.408 88.8138 123.024 88.9205 122.64L90.3925 118.224H91.6885L88.9365 126H87.4005ZM94.7008 126.192C94.0501 126.192 93.5061 126 93.0688 125.616C92.6421 125.221 92.4288 124.677 92.4288 123.984C92.4288 123.131 92.8074 122.48 93.5648 122.032C94.3328 121.573 95.5434 121.253 97.1968 121.072C97.1968 120.741 97.1488 120.427 97.0528 120.128C96.9674 119.829 96.8074 119.589 96.5728 119.408C96.3488 119.216 96.0234 119.12 95.5968 119.12C95.1488 119.12 94.7274 119.205 94.3328 119.376C93.9381 119.547 93.5861 119.739 93.2768 119.952L92.7648 119.04C93.1274 118.805 93.5701 118.581 94.0928 118.368C94.6261 118.144 95.2021 118.032 95.8208 118.032C96.7701 118.032 97.4581 118.325 97.8848 118.912C98.3114 119.488 98.5248 120.261 98.5248 121.232V126H97.4368L97.3248 125.072H97.2768C96.9141 125.371 96.5141 125.632 96.0768 125.856C95.6501 126.08 95.1914 126.192 94.7008 126.192ZM95.0848 125.136C95.4581 125.136 95.8101 125.045 96.1408 124.864C96.4714 124.683 96.8234 124.427 97.1968 124.096V121.936C95.9061 122.096 94.9994 122.336 94.4768 122.656C93.9648 122.976 93.7088 123.387 93.7088 123.888C93.7088 124.325 93.8421 124.645 94.1088 124.848C94.3754 125.04 94.7008 125.136 95.0848 125.136ZM101.003 126V118.224H102.091L102.203 119.632H102.251C102.518 119.141 102.843 118.752 103.227 118.464C103.611 118.176 104.022 118.032 104.459 118.032C104.769 118.032 105.046 118.085 105.291 118.192L105.035 119.344C104.907 119.301 104.79 119.269 104.683 119.248C104.577 119.227 104.443 119.216 104.283 119.216C103.953 119.216 103.606 119.349 103.243 119.616C102.891 119.883 102.582 120.347 102.315 121.008V126H101.003ZM106.582 126V118.224H107.67L107.782 119.344H107.83C108.171 118.971 108.545 118.661 108.95 118.416C109.355 118.16 109.787 118.032 110.246 118.032C110.843 118.032 111.307 118.165 111.638 118.432C111.979 118.688 112.23 119.051 112.39 119.52C112.795 119.083 113.206 118.725 113.622 118.448C114.038 118.171 114.481 118.032 114.95 118.032C115.75 118.032 116.342 118.293 116.726 118.816C117.121 119.328 117.318 120.08 117.318 121.072V126H116.006V121.248C116.006 120.523 115.889 119.995 115.654 119.664C115.419 119.333 115.057 119.168 114.566 119.168C113.99 119.168 113.339 119.568 112.614 120.368V126H111.302V121.248C111.302 120.523 111.185 119.995 110.95 119.664C110.715 119.333 110.347 119.168 109.846 119.168C109.27 119.168 108.619 119.568 107.894 120.368V126H106.582ZM126.139 126.192C125.51 126.192 124.918 126.032 124.363 125.712C123.819 125.392 123.376 124.928 123.035 124.32C122.704 123.712 122.539 122.981 122.539 122.128C122.539 121.253 122.704 120.512 123.035 119.904C123.376 119.296 123.819 118.832 124.363 118.512C124.918 118.192 125.51 118.032 126.139 118.032C126.779 118.032 127.371 118.192 127.915 118.512C128.459 118.832 128.896 119.296 129.227 119.904C129.568 120.512 129.739 121.253 129.739 122.128C129.739 122.981 129.568 123.712 129.227 124.32C128.896 124.928 128.459 125.392 127.915 125.712C127.371 126.032 126.779 126.192 126.139 126.192ZM126.139 125.104C126.811 125.104 127.35 124.832 127.755 124.288C128.171 123.733 128.379 123.013 128.379 122.128C128.379 121.232 128.171 120.507 127.755 119.952C127.35 119.397 126.811 119.12 126.139 119.12C125.478 119.12 124.939 119.397 124.523 119.952C124.107 120.507 123.899 121.232 123.899 122.128C123.899 123.013 124.107 123.733 124.523 124.288C124.939 124.832 125.478 125.104 126.139 125.104ZM133.436 126L130.636 118.224H131.996L133.468 122.64C133.586 123.024 133.703 123.408 133.82 123.792C133.948 124.176 134.071 124.555 134.188 124.928H134.252C134.37 124.555 134.487 124.176 134.604 123.792C134.732 123.408 134.85 123.024 134.956 122.64L136.428 118.224H137.724L134.972 126H133.436ZM139.257 126V118.224H140.345L140.457 119.344H140.505C140.878 118.971 141.273 118.661 141.689 118.416C142.105 118.16 142.58 118.032 143.113 118.032C143.934 118.032 144.532 118.293 144.905 118.816C145.289 119.328 145.481 120.08 145.481 121.072V126H144.169V121.248C144.169 120.523 144.052 119.995 143.817 119.664C143.582 119.333 143.209 119.168 142.697 119.168C142.302 119.168 141.945 119.269 141.625 119.472C141.316 119.675 140.964 119.973 140.569 120.368V126H139.257ZM151.191 126.192C150.498 126.192 149.868 126.032 149.303 125.712C148.738 125.381 148.29 124.912 147.959 124.304C147.628 123.696 147.463 122.971 147.463 122.128C147.463 121.275 147.628 120.544 147.959 119.936C148.3 119.328 148.738 118.859 149.271 118.528C149.804 118.197 150.364 118.032 150.951 118.032C151.943 118.032 152.706 118.363 153.239 119.024C153.783 119.685 154.055 120.571 154.055 121.68C154.055 121.819 154.05 121.957 154.039 122.096C154.039 122.224 154.028 122.336 154.007 122.432H148.759C148.812 123.253 149.068 123.909 149.527 124.4C149.996 124.891 150.604 125.136 151.351 125.136C151.724 125.136 152.066 125.083 152.375 124.976C152.695 124.859 152.999 124.709 153.287 124.528L153.751 125.392C153.42 125.605 153.042 125.792 152.615 125.952C152.199 126.112 151.724 126.192 151.191 126.192ZM148.743 121.488H152.903C152.903 120.699 152.732 120.101 152.391 119.696C152.06 119.28 151.591 119.072 150.983 119.072C150.439 119.072 149.948 119.285 149.511 119.712C149.084 120.128 148.828 120.72 148.743 121.488ZM156.009 126V118.224H157.097L157.209 119.344H157.257C157.63 118.971 158.025 118.661 158.441 118.416C158.857 118.16 159.331 118.032 159.865 118.032C160.686 118.032 161.283 118.293 161.657 118.816C162.041 119.328 162.233 120.08 162.233 121.072V126H160.921V121.248C160.921 120.523 160.803 119.995 160.569 119.664C160.334 119.333 159.961 119.168 159.449 119.168C159.054 119.168 158.697 119.269 158.377 119.472C158.067 119.675 157.715 119.973 157.321 120.368V126H156.009ZM170.474 126.192C169.642 126.192 169.06 125.952 168.73 125.472C168.41 124.992 168.25 124.368 168.25 123.6V119.296H167.098V118.304L168.314 118.224L168.474 116.048H169.578V118.224H171.674V119.296H169.578V123.616C169.578 124.096 169.663 124.469 169.834 124.736C170.015 124.992 170.33 125.12 170.778 125.12C170.916 125.12 171.066 125.099 171.226 125.056C171.386 125.003 171.53 124.955 171.658 124.912L171.914 125.904C171.7 125.979 171.466 126.043 171.21 126.096C170.964 126.16 170.719 126.192 170.474 126.192ZM173.464 126V118.224H174.776V126H173.464ZM174.136 116.624C173.88 116.624 173.667 116.549 173.496 116.4C173.336 116.24 173.256 116.027 173.256 115.76C173.256 115.504 173.336 115.296 173.496 115.136C173.667 114.976 173.88 114.896 174.136 114.896C174.392 114.896 174.6 114.976 174.76 115.136C174.931 115.296 175.016 115.504 175.016 115.76C175.016 116.027 174.931 116.24 174.76 116.4C174.6 116.549 174.392 116.624 174.136 116.624ZM178.825 126.192C178.335 126.192 177.977 126.043 177.753 125.744C177.54 125.435 177.433 124.997 177.433 124.432V114.608H178.745V124.528C178.745 124.731 178.783 124.88 178.857 124.976C178.932 125.061 179.017 125.104 179.113 125.104C179.156 125.104 179.193 125.104 179.225 125.104C179.268 125.093 179.327 125.083 179.401 125.072L179.577 126.064C179.492 126.107 179.391 126.139 179.273 126.16C179.156 126.181 179.007 126.192 178.825 126.192ZM184.731 126V124.912H187.067V117.392H185.211V116.544C185.68 116.459 186.085 116.357 186.427 116.24C186.779 116.112 187.093 115.963 187.371 115.792H188.379V124.912H190.491V126H184.731ZM195.452 126.192C194.812 126.192 194.241 126.075 193.74 125.84C193.238 125.595 192.838 125.259 192.54 124.832C192.252 124.405 192.108 123.925 192.108 123.392C192.108 122.944 192.198 122.549 192.38 122.208C192.572 121.856 192.812 121.552 193.1 121.296C193.398 121.029 193.708 120.811 194.028 120.64V120.576C193.654 120.309 193.324 119.984 193.036 119.6C192.748 119.216 192.604 118.757 192.604 118.224C192.604 117.701 192.732 117.243 192.988 116.848C193.244 116.453 193.59 116.149 194.028 115.936C194.465 115.712 194.956 115.6 195.5 115.6C196.385 115.6 197.084 115.856 197.596 116.368C198.118 116.88 198.38 117.531 198.38 118.32C198.38 118.672 198.305 119.008 198.156 119.328C198.006 119.637 197.825 119.92 197.612 120.176C197.398 120.421 197.185 120.624 196.972 120.784V120.848C197.281 121.019 197.569 121.221 197.836 121.456C198.102 121.691 198.321 121.973 198.492 122.304C198.662 122.624 198.748 123.013 198.748 123.472C198.748 123.973 198.609 124.432 198.332 124.848C198.065 125.264 197.681 125.595 197.18 125.84C196.689 126.075 196.113 126.192 195.452 126.192ZM196.172 120.432C196.513 120.123 196.774 119.797 196.956 119.456C197.148 119.115 197.244 118.757 197.244 118.384C197.244 117.883 197.089 117.456 196.78 117.104C196.47 116.752 196.033 116.576 195.468 116.576C194.998 116.576 194.604 116.725 194.284 117.024C193.974 117.323 193.82 117.723 193.82 118.224C193.82 118.629 193.926 118.965 194.14 119.232C194.364 119.499 194.657 119.728 195.02 119.92C195.382 120.101 195.766 120.272 196.172 120.432ZM195.484 125.216C196.081 125.216 196.561 125.051 196.924 124.72C197.297 124.379 197.484 123.947 197.484 123.424C197.484 122.987 197.356 122.629 197.1 122.352C196.844 122.075 196.502 121.835 196.076 121.632C195.66 121.429 195.206 121.232 194.716 121.04C194.31 121.307 193.969 121.627 193.692 122C193.425 122.373 193.292 122.795 193.292 123.264C193.292 123.829 193.5 124.299 193.916 124.672C194.342 125.035 194.865 125.216 195.484 125.216ZM203.421 126.192C202.397 126.192 201.592 125.733 201.005 124.816C200.429 123.888 200.141 122.571 200.141 120.864C200.141 119.147 200.429 117.84 201.005 116.944C201.592 116.048 202.397 115.6 203.421 115.6C204.434 115.6 205.229 116.048 205.805 116.944C206.392 117.84 206.685 119.147 206.685 120.864C206.685 122.571 206.392 123.888 205.805 124.816C205.229 125.733 204.434 126.192 203.421 126.192ZM203.421 125.136C204.018 125.136 204.498 124.8 204.861 124.128C205.224 123.445 205.405 122.357 205.405 120.864C205.405 119.371 205.224 118.299 204.861 117.648C204.498 116.987 204.018 116.656 203.421 116.656C202.824 116.656 202.338 116.987 201.965 117.648C201.602 118.299 201.421 119.371 201.421 120.864C201.421 122.357 201.602 123.445 201.965 124.128C202.338 124.8 202.824 125.136 203.421 125.136ZM213.313 119.136C212.961 119.136 212.63 119.056 212.321 118.896C212.022 118.725 211.777 118.485 211.585 118.176C211.404 117.867 211.313 117.509 211.313 117.104C211.313 116.475 211.51 115.973 211.905 115.6C212.31 115.227 212.78 115.04 213.313 115.04C213.846 115.04 214.31 115.227 214.705 115.6C215.11 115.973 215.313 116.475 215.313 117.104C215.313 117.509 215.217 117.867 215.025 118.176C214.844 118.485 214.604 118.725 214.305 118.896C214.006 119.056 213.676 119.136 213.313 119.136ZM213.313 118.4C213.665 118.4 213.953 118.277 214.177 118.032C214.401 117.787 214.513 117.477 214.513 117.104C214.513 116.709 214.401 116.389 214.177 116.144C213.953 115.899 213.665 115.776 213.313 115.776C212.961 115.776 212.673 115.899 212.449 116.144C212.225 116.389 212.113 116.709 212.113 117.104C212.113 117.477 212.225 117.787 212.449 118.032C212.673 118.277 212.961 118.4 213.313 118.4ZM221.394 126.192C220.519 126.192 219.735 125.979 219.042 125.552C218.359 125.115 217.815 124.491 217.41 123.68C217.015 122.869 216.818 121.893 216.818 120.752C216.818 119.621 217.021 118.651 217.426 117.84C217.831 117.029 218.386 116.405 219.09 115.968C219.794 115.531 220.589 115.312 221.474 115.312C222.114 115.312 222.679 115.445 223.17 115.712C223.661 115.968 224.055 116.267 224.354 116.608L223.634 117.472C223.357 117.173 223.042 116.933 222.69 116.752C222.338 116.571 221.938 116.48 221.49 116.48C220.829 116.48 220.247 116.656 219.746 117.008C219.255 117.349 218.871 117.835 218.594 118.464C218.327 119.093 218.194 119.845 218.194 120.72C218.194 121.595 218.327 122.357 218.594 123.008C218.861 123.648 219.234 124.144 219.714 124.496C220.205 124.848 220.781 125.024 221.442 125.024C221.943 125.024 222.391 124.917 222.786 124.704C223.181 124.491 223.543 124.203 223.874 123.84L224.61 124.672C224.194 125.152 223.725 125.525 223.202 125.792C222.679 126.059 222.077 126.192 221.394 126.192ZM227.159 126.192C226.892 126.192 226.663 126.101 226.471 125.92C226.289 125.728 226.199 125.488 226.199 125.2C226.199 124.891 226.289 124.645 226.471 124.464C226.663 124.272 226.892 124.176 227.159 124.176C227.415 124.176 227.633 124.272 227.815 124.464C228.007 124.645 228.103 124.891 228.103 125.2C228.103 125.488 228.007 125.728 227.815 125.92C227.633 126.101 227.415 126.192 227.159 126.192Z"></path>
</g>
<g clip-path="url(#clip2_6511_104176)">
<path fill="#262626" d="M37.9666 166V164.928C38.916 164.011 39.732 163.195 40.4146 162.48C41.108 161.755 41.6413 161.099 42.0146 160.512C42.388 159.915 42.5746 159.36 42.5746 158.848C42.5746 158.315 42.4306 157.888 42.1426 157.568C41.8546 157.248 41.4386 157.088 40.8946 157.088C40.5 157.088 40.1373 157.2 39.8066 157.424C39.4866 157.648 39.188 157.915 38.9106 158.224L37.8866 157.2C38.356 156.699 38.8413 156.315 39.3426 156.048C39.844 155.771 40.4413 155.632 41.1346 155.632C42.116 155.632 42.8946 155.915 43.4706 156.48C44.0573 157.045 44.3506 157.803 44.3506 158.752C44.3506 159.349 44.18 159.963 43.8386 160.592C43.508 161.211 43.06 161.845 42.4946 162.496C41.94 163.147 41.3266 163.829 40.6546 164.544C40.9213 164.523 41.2093 164.501 41.5186 164.48C41.828 164.448 42.1053 164.432 42.3506 164.432H44.8466V166H37.9666ZM47.8018 166.192C47.4711 166.192 47.1884 166.075 46.9538 165.84C46.7191 165.605 46.6018 165.307 46.6018 164.944C46.6018 164.581 46.7191 164.283 46.9538 164.048C47.1884 163.813 47.4711 163.696 47.8018 163.696C48.1431 163.696 48.4258 163.813 48.6498 164.048C48.8738 164.283 48.9858 164.581 48.9858 164.944C48.9858 165.307 48.8738 165.605 48.6498 165.84C48.4258 166.075 48.1431 166.192 47.8018 166.192Z"></path>
<path fill="#262626" d="M63.44 166V155.504H66.56C67.2747 155.504 67.8987 155.589 68.432 155.76C68.976 155.931 69.3973 156.203 69.696 156.576C70.0053 156.949 70.16 157.445 70.16 158.064C70.16 158.587 70.0267 159.061 69.76 159.488C69.504 159.904 69.1253 160.192 68.624 160.352V160.416C69.2533 160.533 69.7653 160.8 70.16 161.216C70.5653 161.632 70.768 162.203 70.768 162.928C70.768 163.611 70.5973 164.181 70.256 164.64C69.9253 165.099 69.4613 165.44 68.864 165.664C68.2667 165.888 67.5733 166 66.784 166H63.44ZM64.768 159.968H66.32C67.216 159.968 67.8613 159.813 68.256 159.504C68.6507 159.195 68.848 158.773 68.848 158.24C68.848 157.632 68.64 157.2 68.224 156.944C67.8187 156.688 67.2053 156.56 66.384 156.56H64.768V159.968ZM64.768 164.944H66.592C67.4987 164.944 68.2027 164.779 68.704 164.448C69.2053 164.107 69.456 163.584 69.456 162.88C69.456 162.229 69.2053 161.755 68.704 161.456C68.2133 161.147 67.5093 160.992 66.592 160.992H64.768V164.944ZM74.1422 166.192C73.6516 166.192 73.2942 166.043 73.0702 165.744C72.8569 165.435 72.7502 164.997 72.7502 164.432V154.608H74.0622V164.528C74.0622 164.731 74.0996 164.88 74.1742 164.976C74.2489 165.061 74.3342 165.104 74.4302 165.104C74.4729 165.104 74.5102 165.104 74.5422 165.104C74.5849 165.093 74.6436 165.083 74.7182 165.072L74.8942 166.064C74.8089 166.107 74.7076 166.139 74.5902 166.16C74.4729 166.181 74.3236 166.192 74.1422 166.192ZM78.6524 166.192C78.0017 166.192 77.4577 166 77.0204 165.616C76.5937 165.221 76.3804 164.677 76.3804 163.984C76.3804 163.131 76.759 162.48 77.5164 162.032C78.2844 161.573 79.495 161.253 81.1484 161.072C81.1484 160.741 81.1004 160.427 81.0044 160.128C80.919 159.829 80.759 159.589 80.5244 159.408C80.3004 159.216 79.975 159.12 79.5484 159.12C79.1004 159.12 78.679 159.205 78.2844 159.376C77.8897 159.547 77.5377 159.739 77.2284 159.952L76.7164 159.04C77.079 158.805 77.5217 158.581 78.0444 158.368C78.5777 158.144 79.1537 158.032 79.7724 158.032C80.7217 158.032 81.4097 158.325 81.8364 158.912C82.263 159.488 82.4764 160.261 82.4764 161.232V166H81.3884L81.2764 165.072H81.2284C80.8657 165.371 80.4657 165.632 80.0284 165.856C79.6017 166.08 79.143 166.192 78.6524 166.192ZM79.0364 165.136C79.4097 165.136 79.7617 165.045 80.0924 164.864C80.423 164.683 80.775 164.427 81.1484 164.096V161.936C79.8577 162.096 78.951 162.336 78.4284 162.656C77.9164 162.976 77.6604 163.387 77.6604 163.888C77.6604 164.325 77.7937 164.645 78.0604 164.848C78.327 165.04 78.6524 165.136 79.0364 165.136ZM84.9549 166V158.224H86.0429L86.1549 159.344H86.2029C86.5762 158.971 86.9709 158.661 87.3869 158.416C87.8029 158.16 88.2775 158.032 88.8109 158.032C89.6322 158.032 90.2295 158.293 90.6029 158.816C90.9869 159.328 91.1789 160.08 91.1789 161.072V166H89.8669V161.248C89.8669 160.523 89.7495 159.995 89.5149 159.664C89.2802 159.333 88.9069 159.168 88.3949 159.168C88.0002 159.168 87.6429 159.269 87.3229 159.472C87.0135 159.675 86.6615 159.973 86.2669 160.368V166H84.9549ZM96.3929 166.192C95.4222 166.192 94.6435 165.84 94.0569 165.136C93.4702 164.421 93.1769 163.419 93.1769 162.128C93.1769 161.285 93.3315 160.56 93.6409 159.952C93.9609 159.333 94.3769 158.859 94.8889 158.528C95.4115 158.197 95.9662 158.032 96.5529 158.032C97.0009 158.032 97.3902 158.112 97.7209 158.272C98.0515 158.432 98.3875 158.651 98.7289 158.928L98.6649 157.6V154.608H99.9929V166H98.9049L98.7929 165.088H98.7449C98.4462 165.387 98.0942 165.648 97.6889 165.872C97.2835 166.085 96.8515 166.192 96.3929 166.192ZM96.6809 165.088C97.3635 165.088 98.0249 164.731 98.6649 164.016V159.952C98.3342 159.653 98.0142 159.445 97.7049 159.328C97.4062 159.2 97.0969 159.136 96.7769 159.136C96.3609 159.136 95.9822 159.264 95.6409 159.52C95.3102 159.765 95.0435 160.112 94.8409 160.56C94.6382 160.997 94.5369 161.515 94.5369 162.112C94.5369 163.04 94.7235 163.771 95.0969 164.304C95.4702 164.827 95.9982 165.088 96.6809 165.088ZM107.671 166.192C107.02 166.192 106.476 166 106.039 165.616C105.612 165.221 105.399 164.677 105.399 163.984C105.399 163.131 105.778 162.48 106.535 162.032C107.303 161.573 108.514 161.253 110.167 161.072C110.167 160.741 110.119 160.427 110.023 160.128C109.938 159.829 109.778 159.589 109.543 159.408C109.319 159.216 108.994 159.12 108.567 159.12C108.119 159.12 107.698 159.205 107.303 159.376C106.908 159.547 106.556 159.739 106.247 159.952L105.735 159.04C106.098 158.805 106.54 158.581 107.063 158.368C107.596 158.144 108.172 158.032 108.791 158.032C109.74 158.032 110.428 158.325 110.855 158.912C111.282 159.488 111.495 160.261 111.495 161.232V166H110.407L110.295 165.072H110.247C109.884 165.371 109.484 165.632 109.047 165.856C108.62 166.08 108.162 166.192 107.671 166.192ZM108.055 165.136C108.428 165.136 108.78 165.045 109.111 164.864C109.442 164.683 109.794 164.427 110.167 164.096V161.936C108.876 162.096 107.97 162.336 107.447 162.656C106.935 162.976 106.679 163.387 106.679 163.888C106.679 164.325 106.812 164.645 107.079 164.848C107.346 165.04 107.671 165.136 108.055 165.136ZM115.365 166.192C114.875 166.192 114.517 166.043 114.293 165.744C114.08 165.435 113.973 164.997 113.973 164.432V154.608H115.285V164.528C115.285 164.731 115.323 164.88 115.397 164.976C115.472 165.061 115.557 165.104 115.653 165.104C115.696 165.104 115.733 165.104 115.765 165.104C115.808 165.093 115.867 165.083 115.941 165.072L116.117 166.064C116.032 166.107 115.931 166.139 115.813 166.16C115.696 166.181 115.547 166.192 115.365 166.192ZM119.476 166.192C118.985 166.192 118.628 166.043 118.404 165.744C118.19 165.435 118.084 164.997 118.084 164.432V154.608H119.396V164.528C119.396 164.731 119.433 164.88 119.508 164.976C119.582 165.061 119.668 165.104 119.764 165.104C119.806 165.104 119.844 165.104 119.876 165.104C119.918 165.093 119.977 165.083 120.052 165.072L120.228 166.064C120.142 166.107 120.041 166.139 119.924 166.16C119.806 166.181 119.657 166.192 119.476 166.192ZM125.346 166.192C124.652 166.192 124.023 166.032 123.458 165.712C122.892 165.381 122.444 164.912 122.114 164.304C121.783 163.696 121.618 162.971 121.618 162.128C121.618 161.275 121.783 160.544 122.114 159.936C122.455 159.328 122.892 158.859 123.426 158.528C123.959 158.197 124.519 158.032 125.106 158.032C126.098 158.032 126.86 158.363 127.394 159.024C127.938 159.685 128.21 160.571 128.21 161.68C128.21 161.819 128.204 161.957 128.194 162.096C128.194 162.224 128.183 162.336 128.162 162.432H122.914C122.967 163.253 123.223 163.909 123.682 164.4C124.151 164.891 124.759 165.136 125.506 165.136C125.879 165.136 126.22 165.083 126.53 164.976C126.85 164.859 127.154 164.709 127.442 164.528L127.906 165.392C127.575 165.605 127.196 165.792 126.77 165.952C126.354 166.112 125.879 166.192 125.346 166.192ZM122.898 161.488H127.058C127.058 160.699 126.887 160.101 126.546 159.696C126.215 159.28 125.746 159.072 125.138 159.072C124.594 159.072 124.103 159.285 123.666 159.712C123.239 160.128 122.983 160.72 122.898 161.488ZM133.398 166V158.224H134.71V166H133.398ZM134.07 156.624C133.814 156.624 133.601 156.549 133.43 156.4C133.27 156.24 133.19 156.027 133.19 155.76C133.19 155.504 133.27 155.296 133.43 155.136C133.601 154.976 133.814 154.896 134.07 154.896C134.326 154.896 134.534 154.976 134.694 155.136C134.865 155.296 134.95 155.504 134.95 155.76C134.95 156.027 134.865 156.24 134.694 156.4C134.534 156.549 134.326 156.624 134.07 156.624ZM137.368 166V158.224H138.456L138.568 159.344H138.616C138.989 158.971 139.384 158.661 139.8 158.416C140.216 158.16 140.691 158.032 141.224 158.032C142.045 158.032 142.643 158.293 143.016 158.816C143.4 159.328 143.592 160.08 143.592 161.072V166H142.28V161.248C142.28 160.523 142.163 159.995 141.928 159.664C141.693 159.333 141.32 159.168 140.808 159.168C140.413 159.168 140.056 159.269 139.736 159.472C139.427 159.675 139.075 159.973 138.68 160.368V166H137.368ZM148.774 169.584C147.825 169.584 147.051 169.403 146.454 169.04C145.857 168.677 145.558 168.16 145.558 167.488C145.558 167.157 145.659 166.837 145.862 166.528C146.065 166.229 146.342 165.963 146.694 165.728V165.664C146.502 165.547 146.337 165.381 146.198 165.168C146.07 164.955 146.006 164.699 146.006 164.4C146.006 164.069 146.097 163.781 146.278 163.536C146.459 163.291 146.651 163.099 146.854 162.96V162.896C146.598 162.683 146.363 162.395 146.15 162.032C145.947 161.669 145.846 161.259 145.846 160.8C145.846 160.235 145.979 159.744 146.246 159.328C146.513 158.912 146.87 158.592 147.318 158.368C147.766 158.144 148.251 158.032 148.774 158.032C148.987 158.032 149.19 158.053 149.382 158.096C149.574 158.128 149.739 158.171 149.878 158.224H152.582V159.232H150.982C151.163 159.403 151.313 159.632 151.43 159.92C151.558 160.197 151.622 160.501 151.622 160.832C151.622 161.387 151.494 161.867 151.238 162.272C150.982 162.677 150.641 162.992 150.214 163.216C149.787 163.429 149.307 163.536 148.774 163.536C148.358 163.536 147.969 163.445 147.606 163.264C147.467 163.381 147.35 163.515 147.254 163.664C147.158 163.803 147.11 163.979 147.11 164.192C147.11 164.437 147.206 164.64 147.398 164.8C147.601 164.96 147.963 165.04 148.486 165.04H149.99C150.897 165.04 151.574 165.189 152.022 165.488C152.481 165.776 152.71 166.245 152.71 166.896C152.71 167.376 152.55 167.819 152.23 168.224C151.91 168.629 151.457 168.955 150.87 169.2C150.283 169.456 149.585 169.584 148.774 169.584ZM148.774 162.656C149.222 162.656 149.606 162.491 149.926 162.16C150.257 161.819 150.422 161.365 150.422 160.8C150.422 160.235 150.262 159.792 149.942 159.472C149.622 159.152 149.233 158.992 148.774 158.992C148.315 158.992 147.926 159.152 147.606 159.472C147.286 159.792 147.126 160.235 147.126 160.8C147.126 161.365 147.286 161.819 147.606 162.16C147.937 162.491 148.326 162.656 148.774 162.656ZM148.966 168.672C149.713 168.672 150.31 168.507 150.758 168.176C151.206 167.856 151.43 167.493 151.43 167.088C151.43 166.725 151.291 166.475 151.014 166.336C150.747 166.197 150.363 166.128 149.862 166.128H148.518C148.369 166.128 148.203 166.117 148.022 166.096C147.851 166.075 147.681 166.043 147.51 166C147.233 166.203 147.03 166.416 146.902 166.64C146.774 166.864 146.71 167.088 146.71 167.312C146.71 167.728 146.907 168.059 147.302 168.304C147.707 168.549 148.262 168.672 148.966 168.672ZM154.244 166V158.224H155.332L155.444 159.632H155.492C155.759 159.141 156.084 158.752 156.468 158.464C156.852 158.176 157.263 158.032 157.7 158.032C158.01 158.032 158.287 158.085 158.532 158.192L158.276 159.344C158.148 159.301 158.031 159.269 157.924 159.248C157.818 159.227 157.684 159.216 157.524 159.216C157.194 159.216 156.847 159.349 156.484 159.616C156.132 159.883 155.823 160.347 155.556 161.008V166H154.244ZM162.819 166.192C162.126 166.192 161.496 166.032 160.931 165.712C160.366 165.381 159.918 164.912 159.587 164.304C159.256 163.696 159.091 162.971 159.091 162.128C159.091 161.275 159.256 160.544 159.587 159.936C159.928 159.328 160.366 158.859 160.899 158.528C161.432 158.197 161.992 158.032 162.579 158.032C163.571 158.032 164.334 158.363 164.867 159.024C165.411 159.685 165.683 160.571 165.683 161.68C165.683 161.819 165.678 161.957 165.667 162.096C165.667 162.224 165.656 162.336 165.635 162.432H160.387C160.44 163.253 160.696 163.909 161.155 164.4C161.624 164.891 162.232 165.136 162.979 165.136C163.352 165.136 163.694 165.083 164.003 164.976C164.323 164.859 164.627 164.709 164.915 164.528L165.379 165.392C165.048 165.605 164.67 165.792 164.243 165.952C163.827 166.112 163.352 166.192 162.819 166.192ZM160.371 161.488H164.531C164.531 160.699 164.36 160.101 164.019 159.696C163.688 159.28 163.219 159.072 162.611 159.072C162.067 159.072 161.576 159.285 161.139 159.712C160.712 160.128 160.456 160.72 160.371 161.488ZM170.293 166.192C169.322 166.192 168.543 165.84 167.957 165.136C167.37 164.421 167.077 163.419 167.077 162.128C167.077 161.285 167.231 160.56 167.541 159.952C167.861 159.333 168.277 158.859 168.789 158.528C169.311 158.197 169.866 158.032 170.453 158.032C170.901 158.032 171.29 158.112 171.621 158.272C171.951 158.432 172.287 158.651 172.629 158.928L172.565 157.6V154.608H173.893V166H172.805L172.693 165.088H172.645C172.346 165.387 171.994 165.648 171.589 165.872C171.183 166.085 170.751 166.192 170.293 166.192ZM170.581 165.088C171.263 165.088 171.925 164.731 172.565 164.016V159.952C172.234 159.653 171.914 159.445 171.605 159.328C171.306 159.2 170.997 159.136 170.677 159.136C170.261 159.136 169.882 159.264 169.541 159.52C169.21 159.765 168.943 160.112 168.741 160.56C168.538 160.997 168.437 161.515 168.437 162.112C168.437 163.04 168.623 163.771 168.997 164.304C169.37 164.827 169.898 165.088 170.581 165.088ZM176.543 166V158.224H177.855V166H176.543ZM177.215 156.624C176.959 156.624 176.746 156.549 176.575 156.4C176.415 156.24 176.335 156.027 176.335 155.76C176.335 155.504 176.415 155.296 176.575 155.136C176.746 154.976 176.959 154.896 177.215 154.896C177.471 154.896 177.679 154.976 177.839 155.136C178.01 155.296 178.095 155.504 178.095 155.76C178.095 156.027 178.01 156.24 177.839 156.4C177.679 156.549 177.471 156.624 177.215 156.624ZM183.665 166.192C182.972 166.192 182.342 166.032 181.777 165.712C181.212 165.381 180.764 164.912 180.433 164.304C180.102 163.696 179.937 162.971 179.937 162.128C179.937 161.275 180.102 160.544 180.433 159.936C180.774 159.328 181.212 158.859 181.745 158.528C182.278 158.197 182.838 158.032 183.425 158.032C184.417 158.032 185.18 158.363 185.713 159.024C186.257 159.685 186.529 160.571 186.529 161.68C186.529 161.819 186.524 161.957 186.513 162.096C186.513 162.224 186.502 162.336 186.481 162.432H181.233C181.286 163.253 181.542 163.909 182.001 164.4C182.47 164.891 183.078 165.136 183.825 165.136C184.198 165.136 184.54 165.083 184.849 164.976C185.169 164.859 185.473 164.709 185.761 164.528L186.225 165.392C185.894 165.605 185.516 165.792 185.089 165.952C184.673 166.112 184.198 166.192 183.665 166.192ZM181.217 161.488H185.377C185.377 160.699 185.206 160.101 184.865 159.696C184.534 159.28 184.065 159.072 183.457 159.072C182.913 159.072 182.422 159.285 181.985 159.712C181.558 160.128 181.302 160.72 181.217 161.488ZM188.483 166V158.224H189.571L189.683 159.344H189.731C190.104 158.971 190.499 158.661 190.915 158.416C191.331 158.16 191.805 158.032 192.339 158.032C193.16 158.032 193.757 158.293 194.131 158.816C194.515 159.328 194.707 160.08 194.707 161.072V166H193.395V161.248C193.395 160.523 193.277 159.995 193.043 159.664C192.808 159.333 192.435 159.168 191.923 159.168C191.528 159.168 191.171 159.269 190.851 159.472C190.541 159.675 190.189 159.973 189.795 160.368V166H188.483ZM199.296 166.192C198.742 166.192 198.214 166.091 197.712 165.888C197.211 165.675 196.774 165.419 196.4 165.12L197.056 164.24C197.398 164.507 197.75 164.731 198.112 164.912C198.475 165.083 198.886 165.168 199.344 165.168C199.856 165.168 200.24 165.051 200.496 164.816C200.752 164.571 200.88 164.283 200.88 163.952C200.88 163.685 200.79 163.461 200.608 163.28C200.438 163.099 200.214 162.949 199.936 162.832C199.67 162.704 199.392 162.587 199.104 162.48C198.742 162.341 198.384 162.187 198.032 162.016C197.68 161.835 197.392 161.605 197.168 161.328C196.944 161.04 196.832 160.677 196.832 160.24C196.832 159.611 197.067 159.088 197.536 158.672C198.016 158.245 198.678 158.032 199.52 158.032C200 158.032 200.448 158.117 200.864 158.288C201.28 158.459 201.638 158.667 201.936 158.912L201.296 159.744C201.03 159.541 200.752 159.376 200.464 159.248C200.176 159.12 199.862 159.056 199.52 159.056C199.03 159.056 198.667 159.168 198.432 159.392C198.208 159.616 198.096 159.877 198.096 160.176C198.096 160.421 198.176 160.624 198.336 160.784C198.496 160.933 198.704 161.067 198.96 161.184C199.216 161.291 199.488 161.403 199.776 161.52C200.15 161.659 200.518 161.819 200.88 162C201.243 162.171 201.542 162.405 201.776 162.704C202.022 162.992 202.144 163.381 202.144 163.872C202.144 164.288 202.032 164.672 201.808 165.024C201.595 165.376 201.275 165.659 200.848 165.872C200.432 166.085 199.915 166.192 199.296 166.192ZM207.152 166.192C206.458 166.192 205.829 166.032 205.264 165.712C204.698 165.381 204.25 164.912 203.92 164.304C203.589 163.696 203.424 162.971 203.424 162.128C203.424 161.275 203.589 160.544 203.92 159.936C204.261 159.328 204.698 158.859 205.232 158.528C205.765 158.197 206.325 158.032 206.912 158.032C207.904 158.032 208.666 158.363 209.2 159.024C209.744 159.685 210.016 160.571 210.016 161.68C210.016 161.819 210.01 161.957 210 162.096C210 162.224 209.989 162.336 209.968 162.432H204.72C204.773 163.253 205.029 163.909 205.488 164.4C205.957 164.891 206.565 165.136 207.312 165.136C207.685 165.136 208.026 165.083 208.336 164.976C208.656 164.859 208.96 164.709 209.248 164.528L209.712 165.392C209.381 165.605 209.002 165.792 208.576 165.952C208.16 166.112 207.685 166.192 207.152 166.192ZM204.704 161.488H208.864C208.864 160.699 208.693 160.101 208.352 159.696C208.021 159.28 207.552 159.072 206.944 159.072C206.4 159.072 205.909 159.285 205.472 159.712C205.045 160.128 204.789 160.72 204.704 161.488ZM211.969 166V158.224H213.057L213.169 159.344H213.217C213.59 158.971 213.985 158.661 214.401 158.416C214.817 158.16 215.292 158.032 215.825 158.032C216.646 158.032 217.244 158.293 217.617 158.816C218.001 159.328 218.193 160.08 218.193 161.072V166H216.881V161.248C216.881 160.523 216.764 159.995 216.529 159.664C216.294 159.333 215.921 159.168 215.409 159.168C215.014 159.168 214.657 159.269 214.337 159.472C214.028 159.675 213.676 159.973 213.281 160.368V166H211.969ZM223.903 166.192C223.21 166.192 222.58 166.032 222.015 165.712C221.45 165.381 221.002 164.912 220.671 164.304C220.34 163.696 220.175 162.971 220.175 162.128C220.175 161.275 220.34 160.544 220.671 159.936C221.012 159.328 221.45 158.859 221.983 158.528C222.516 158.197 223.076 158.032 223.663 158.032C224.655 158.032 225.418 158.363 225.951 159.024C226.495 159.685 226.767 160.571 226.767 161.68C226.767 161.819 226.762 161.957 226.751 162.096C226.751 162.224 226.74 162.336 226.719 162.432H221.471C221.524 163.253 221.78 163.909 222.239 164.4C222.708 164.891 223.316 165.136 224.063 165.136C224.436 165.136 224.778 165.083 225.087 164.976C225.407 164.859 225.711 164.709 225.999 164.528L226.463 165.392C226.132 165.605 225.754 165.792 225.327 165.952C224.911 166.112 224.436 166.192 223.903 166.192ZM221.455 161.488H225.615C225.615 160.699 225.444 160.101 225.103 159.696C224.772 159.28 224.303 159.072 223.695 159.072C223.151 159.072 222.66 159.285 222.223 159.712C221.796 160.128 221.54 160.72 221.455 161.488ZM234.98 166.192C234.35 166.192 233.758 166.032 233.204 165.712C232.66 165.392 232.217 164.928 231.876 164.32C231.545 163.712 231.38 162.981 231.38 162.128C231.38 161.253 231.545 160.512 231.876 159.904C232.217 159.296 232.66 158.832 233.204 158.512C233.758 158.192 234.35 158.032 234.98 158.032C235.62 158.032 236.212 158.192 236.756 158.512C237.3 158.832 237.737 159.296 238.068 159.904C238.409 160.512 238.58 161.253 238.58 162.128C238.58 162.981 238.409 163.712 238.068 164.32C237.737 164.928 237.3 165.392 236.756 165.712C236.212 166.032 235.62 166.192 234.98 166.192ZM234.98 165.104C235.652 165.104 236.19 164.832 236.596 164.288C237.012 163.733 237.22 163.013 237.22 162.128C237.22 161.232 237.012 160.507 236.596 159.952C236.19 159.397 235.652 159.12 234.98 159.12C234.318 159.12 233.78 159.397 233.364 159.952C232.948 160.507 232.74 161.232 232.74 162.128C232.74 163.013 232.948 163.733 233.364 164.288C233.78 164.832 234.318 165.104 234.98 165.104ZM243.284 169.584C242.334 169.584 241.561 169.403 240.964 169.04C240.366 168.677 240.068 168.16 240.068 167.488C240.068 167.157 240.169 166.837 240.372 166.528C240.574 166.229 240.852 165.963 241.204 165.728V165.664C241.012 165.547 240.846 165.381 240.708 165.168C240.58 164.955 240.516 164.699 240.516 164.4C240.516 164.069 240.606 163.781 240.788 163.536C240.969 163.291 241.161 163.099 241.364 162.96V162.896C241.108 162.683 240.873 162.395 240.66 162.032C240.457 161.669 240.356 161.259 240.356 160.8C240.356 160.235 240.489 159.744 240.756 159.328C241.022 158.912 241.38 158.592 241.828 158.368C242.276 158.144 242.761 158.032 243.284 158.032C243.497 158.032 243.7 158.053 243.892 158.096C244.084 158.128 244.249 158.171 244.388 158.224H247.092V159.232H245.492C245.673 159.403 245.822 159.632 245.94 159.92C246.068 160.197 246.132 160.501 246.132 160.832C246.132 161.387 246.004 161.867 245.748 162.272C245.492 162.677 245.15 162.992 244.724 163.216C244.297 163.429 243.817 163.536 243.284 163.536C242.868 163.536 242.478 163.445 242.116 163.264C241.977 163.381 241.86 163.515 241.764 163.664C241.668 163.803 241.62 163.979 241.62 164.192C241.62 164.437 241.716 164.64 241.908 164.8C242.11 164.96 242.473 165.04 242.996 165.04H244.5C245.406 165.04 246.084 165.189 246.532 165.488C246.99 165.776 247.22 166.245 247.22 166.896C247.22 167.376 247.06 167.819 246.74 168.224C246.42 168.629 245.966 168.955 245.38 169.2C244.793 169.456 244.094 169.584 243.284 169.584ZM243.284 162.656C243.732 162.656 244.116 162.491 244.436 162.16C244.766 161.819 244.932 161.365 244.932 160.8C244.932 160.235 244.772 159.792 244.452 159.472C244.132 159.152 243.742 158.992 243.284 158.992C242.825 158.992 242.436 159.152 242.116 159.472C241.796 159.792 241.636 160.235 241.636 160.8C241.636 161.365 241.796 161.819 242.116 162.16C242.446 162.491 242.836 162.656 243.284 162.656ZM243.476 168.672C244.222 168.672 244.82 168.507 245.268 168.176C245.716 167.856 245.94 167.493 245.94 167.088C245.94 166.725 245.801 166.475 245.524 166.336C245.257 166.197 244.873 166.128 244.372 166.128H243.028C242.878 166.128 242.713 166.117 242.532 166.096C242.361 166.075 242.19 166.043 242.02 166C241.742 166.203 241.54 166.416 241.412 166.64C241.284 166.864 241.22 167.088 241.22 167.312C241.22 167.728 241.417 168.059 241.812 168.304C242.217 168.549 242.772 168.672 243.476 168.672ZM251.989 166V154.608H253.301V157.712L253.253 159.312C253.627 158.96 254.016 158.661 254.421 158.416C254.837 158.16 255.312 158.032 255.845 158.032C256.667 158.032 257.264 158.293 257.637 158.816C258.021 159.328 258.213 160.08 258.213 161.072V166H256.901V161.248C256.901 160.523 256.784 159.995 256.549 159.664C256.315 159.333 255.941 159.168 255.429 159.168C255.035 159.168 254.677 159.269 254.357 159.472C254.048 159.675 253.696 159.973 253.301 160.368V166H251.989ZM262.516 166.192C261.866 166.192 261.322 166 260.884 165.616C260.458 165.221 260.244 164.677 260.244 163.984C260.244 163.131 260.623 162.48 261.38 162.032C262.148 161.573 263.359 161.253 265.012 161.072C265.012 160.741 264.964 160.427 264.868 160.128C264.783 159.829 264.623 159.589 264.388 159.408C264.164 159.216 263.839 159.12 263.412 159.12C262.964 159.12 262.543 159.205 262.148 159.376C261.754 159.547 261.402 159.739 261.092 159.952L260.58 159.04C260.943 158.805 261.386 158.581 261.908 158.368C262.442 158.144 263.018 158.032 263.636 158.032C264.586 158.032 265.274 158.325 265.7 158.912C266.127 159.488 266.34 160.261 266.34 161.232V166H265.252L265.14 165.072H265.092C264.73 165.371 264.33 165.632 263.892 165.856C263.466 166.08 263.007 166.192 262.516 166.192ZM262.9 165.136C263.274 165.136 263.626 165.045 263.956 164.864C264.287 164.683 264.639 164.427 265.012 164.096V161.936C263.722 162.096 262.815 162.336 262.292 162.656C261.78 162.976 261.524 163.387 261.524 163.888C261.524 164.325 261.658 164.645 261.924 164.848C262.191 165.04 262.516 165.136 262.9 165.136ZM274.71 166.192C273.739 166.192 272.961 165.84 272.374 165.136C271.787 164.421 271.494 163.419 271.494 162.128C271.494 161.285 271.649 160.56 271.958 159.952C272.278 159.333 272.694 158.859 273.206 158.528C273.729 158.197 274.283 158.032 274.87 158.032C275.318 158.032 275.707 158.112 276.038 158.272C276.369 158.432 276.705 158.651 277.046 158.928L276.982 157.6V154.608H278.31V166H277.222L277.11 165.088H277.062C276.763 165.387 276.411 165.648 276.006 165.872C275.601 166.085 275.169 166.192 274.71 166.192ZM274.998 165.088C275.681 165.088 276.342 164.731 276.982 164.016V159.952C276.651 159.653 276.331 159.445 276.022 159.328C275.723 159.2 275.414 159.136 275.094 159.136C274.678 159.136 274.299 159.264 273.958 159.52C273.627 159.765 273.361 160.112 273.158 160.56C272.955 160.997 272.854 161.515 272.854 162.112C272.854 163.04 273.041 163.771 273.414 164.304C273.787 164.827 274.315 165.088 274.998 165.088ZM284.113 166.192C283.42 166.192 282.79 166.032 282.225 165.712C281.66 165.381 281.212 164.912 280.881 164.304C280.55 163.696 280.385 162.971 280.385 162.128C280.385 161.275 280.55 160.544 280.881 159.936C281.222 159.328 281.66 158.859 282.193 158.528C282.726 158.197 283.286 158.032 283.873 158.032C284.865 158.032 285.628 158.363 286.161 159.024C286.705 159.685 286.977 160.571 286.977 161.68C286.977 161.819 286.972 161.957 286.961 162.096C286.961 162.224 286.95 162.336 286.929 162.432H281.681C281.734 163.253 281.99 163.909 282.449 164.4C282.918 164.891 283.526 165.136 284.273 165.136C284.646 165.136 284.988 165.083 285.297 164.976C285.617 164.859 285.921 164.709 286.209 164.528L286.673 165.392C286.342 165.605 285.964 165.792 285.537 165.952C285.121 166.112 284.646 166.192 284.113 166.192ZM281.665 161.488H285.825C285.825 160.699 285.654 160.101 285.313 159.696C284.982 159.28 284.513 159.072 283.905 159.072C283.361 159.072 282.87 159.285 282.433 159.712C282.006 160.128 281.75 160.72 281.665 161.488ZM291.222 166.192C290.39 166.192 289.809 165.952 289.478 165.472C289.158 164.992 288.998 164.368 288.998 163.6V159.296H287.846V158.304L289.062 158.224L289.222 156.048H290.326V158.224H292.422V159.296H290.326V163.616C290.326 164.096 290.412 164.469 290.582 164.736C290.764 164.992 291.078 165.12 291.526 165.12C291.665 165.12 291.814 165.099 291.974 165.056C292.134 165.003 292.278 164.955 292.406 164.912L292.662 165.904C292.449 165.979 292.214 166.043 291.958 166.096C291.713 166.16 291.468 166.192 291.222 166.192ZM297.448 166V158.224H298.76V166H297.448ZM298.12 156.624C297.864 156.624 297.65 156.549 297.48 156.4C297.32 156.24 297.24 156.027 297.24 155.76C297.24 155.504 297.32 155.296 297.48 155.136C297.65 154.976 297.864 154.896 298.12 154.896C298.376 154.896 298.584 154.976 298.744 155.136C298.914 155.296 299 155.504 299 155.76C299 156.027 298.914 156.24 298.744 156.4C298.584 156.549 298.376 156.624 298.12 156.624ZM307.804 166.192C307.111 166.192 306.482 166.032 305.916 165.712C305.351 165.381 304.903 164.912 304.572 164.304C304.242 163.696 304.076 162.971 304.076 162.128C304.076 161.275 304.242 160.544 304.572 159.936C304.914 159.328 305.351 158.859 305.884 158.528C306.418 158.197 306.978 158.032 307.564 158.032C308.556 158.032 309.319 158.363 309.852 159.024C310.396 159.685 310.668 160.571 310.668 161.68C310.668 161.819 310.663 161.957 310.652 162.096C310.652 162.224 310.642 162.336 310.62 162.432H305.372C305.426 163.253 305.682 163.909 306.14 164.4C306.61 164.891 307.218 165.136 307.964 165.136C308.338 165.136 308.679 165.083 308.988 164.976C309.308 164.859 309.612 164.709 309.9 164.528L310.364 165.392C310.034 165.605 309.655 165.792 309.228 165.952C308.812 166.112 308.338 166.192 307.804 166.192ZM305.356 161.488H309.516C309.516 160.699 309.346 160.101 309.004 159.696C308.674 159.28 308.204 159.072 307.596 159.072C307.052 159.072 306.562 159.285 306.124 159.712C305.698 160.128 305.442 160.72 305.356 161.488ZM312.622 166V158.224H313.71L313.822 159.344H313.87C314.243 158.971 314.638 158.661 315.054 158.416C315.47 158.16 315.944 158.032 316.478 158.032C317.299 158.032 317.896 158.293 318.27 158.816C318.654 159.328 318.846 160.08 318.846 161.072V166H317.534V161.248C317.534 160.523 317.416 159.995 317.182 159.664C316.947 159.333 316.574 159.168 316.062 159.168C315.667 159.168 315.31 159.269 314.99 159.472C314.68 159.675 314.328 159.973 313.934 160.368V166H312.622ZM324.863 166V159.296H323.807V158.304L324.863 158.224V156.992C324.863 156.203 325.044 155.579 325.407 155.12C325.78 154.651 326.356 154.416 327.135 154.416C327.38 154.416 327.615 154.443 327.839 154.496C328.063 154.539 328.26 154.597 328.431 154.672L328.143 155.68C327.855 155.552 327.562 155.488 327.263 155.488C326.538 155.488 326.175 155.989 326.175 156.992V158.224H327.823V159.296H326.175V166H324.863ZM332.211 166.192C331.581 166.192 330.989 166.032 330.435 165.712C329.891 165.392 329.448 164.928 329.107 164.32C328.776 163.712 328.611 162.981 328.611 162.128C328.611 161.253 328.776 160.512 329.107 159.904C329.448 159.296 329.891 158.832 330.435 158.512C330.989 158.192 331.581 158.032 332.211 158.032C332.851 158.032 333.443 158.192 333.987 158.512C334.531 158.832 334.968 159.296 335.299 159.904C335.64 160.512 335.811 161.253 335.811 162.128C335.811 162.981 335.64 163.712 335.299 164.32C334.968 164.928 334.531 165.392 333.987 165.712C333.443 166.032 332.851 166.192 332.211 166.192ZM332.211 165.104C332.883 165.104 333.421 164.832 333.827 164.288C334.243 163.733 334.451 163.013 334.451 162.128C334.451 161.232 334.243 160.507 333.827 159.952C333.421 159.397 332.883 159.12 332.211 159.12C331.549 159.12 331.011 159.397 330.595 159.952C330.179 160.507 329.971 161.232 329.971 162.128C329.971 163.013 330.179 163.733 330.595 164.288C331.011 164.832 331.549 165.104 332.211 165.104ZM337.89 166V158.224H338.978L339.09 159.632H339.138C339.405 159.141 339.73 158.752 340.114 158.464C340.498 158.176 340.909 158.032 341.346 158.032C341.656 158.032 341.933 158.085 342.178 158.192L341.922 159.344C341.794 159.301 341.677 159.269 341.57 159.248C341.464 159.227 341.33 159.216 341.17 159.216C340.84 159.216 340.493 159.349 340.13 159.616C339.778 159.883 339.469 160.347 339.202 161.008V166H337.89ZM343.469 166V158.224H344.557L344.669 159.344H344.717C345.059 158.971 345.432 158.661 345.837 158.416C346.243 158.16 346.675 158.032 347.133 158.032C347.731 158.032 348.195 158.165 348.525 158.432C348.867 158.688 349.117 159.051 349.277 159.52C349.683 159.083 350.093 158.725 350.509 158.448C350.925 158.171 351.368 158.032 351.837 158.032C352.637 158.032 353.229 158.293 353.613 158.816C354.008 159.328 354.205 160.08 354.205 161.072V166H352.893V161.248C352.893 160.523 352.776 159.995 352.541 159.664C352.307 159.333 351.944 159.168 351.453 159.168C350.877 159.168 350.227 159.568 349.501 160.368V166H348.189V161.248C348.189 160.523 348.072 159.995 347.837 159.664C347.603 159.333 347.235 159.168 346.733 159.168C346.157 159.168 345.507 159.568 344.781 160.368V166H343.469ZM357.455 166.192C357.188 166.192 356.959 166.101 356.767 165.92C356.586 165.728 356.495 165.488 356.495 165.2C356.495 164.891 356.586 164.645 356.767 164.464C356.959 164.272 357.188 164.176 357.455 164.176C357.711 164.176 357.93 164.272 358.111 164.464C358.303 164.645 358.399 164.891 358.399 165.2C358.399 165.488 358.303 165.728 358.111 165.92C357.93 166.101 357.711 166.192 357.455 166.192Z"></path>
</g>
<g clip-path="url(#clip3_6511_104176)">
<path fill="#262626" d="M41.1986 206.192C40.3773 206.192 39.684 206.053 39.1186 205.776C38.564 205.488 38.1053 205.147 37.7426 204.752L38.6226 203.568C38.932 203.877 39.284 204.144 39.6786 204.368C40.0733 204.581 40.5266 204.688 41.0386 204.688C41.5933 204.688 42.0413 204.555 42.3826 204.288C42.7346 204.011 42.9106 203.632 42.9106 203.152C42.9106 202.8 42.82 202.496 42.6386 202.24C42.468 201.973 42.164 201.771 41.7266 201.632C41.3 201.493 40.6973 201.424 39.9186 201.424V200.08C40.9213 200.08 41.6146 199.925 41.9986 199.616C42.3826 199.307 42.5746 198.917 42.5746 198.448C42.5746 198.021 42.4413 197.691 42.1746 197.456C41.908 197.211 41.54 197.088 41.0706 197.088C40.676 197.088 40.3133 197.179 39.9826 197.36C39.652 197.531 39.332 197.76 39.0226 198.048L38.0786 196.912C38.516 196.528 38.98 196.219 39.4706 195.984C39.972 195.749 40.5266 195.632 41.1346 195.632C42.116 195.632 42.9106 195.867 43.5186 196.336C44.1266 196.795 44.4306 197.456 44.4306 198.32C44.4306 198.885 44.2706 199.365 43.9506 199.76C43.6413 200.144 43.2093 200.443 42.6546 200.656V200.72C43.252 200.88 43.7533 201.173 44.1586 201.6C44.564 202.027 44.7666 202.576 44.7666 203.248C44.7666 203.867 44.6013 204.395 44.2706 204.832C43.9506 205.269 43.5186 205.605 42.9746 205.84C42.4413 206.075 41.8493 206.192 41.1986 206.192ZM47.8018 206.192C47.4711 206.192 47.1884 206.075 46.9538 205.84C46.7191 205.605 46.6018 205.307 46.6018 204.944C46.6018 204.581 46.7191 204.283 46.9538 204.048C47.1884 203.813 47.4711 203.696 47.8018 203.696C48.1431 203.696 48.4258 203.813 48.6498 204.048C48.8738 204.283 48.9858 204.581 48.9858 204.944C48.9858 205.307 48.8738 205.605 48.6498 205.84C48.4258 206.075 48.1431 206.192 47.8018 206.192Z"></path>
<path fill="#262626" d="M66.352 206.192C65.616 206.192 64.9333 206.053 64.304 205.776C63.6747 205.488 63.1307 205.109 62.672 204.64L63.472 203.712C63.8453 204.107 64.2827 204.427 64.784 204.672C65.296 204.907 65.824 205.024 66.368 205.024C67.0613 205.024 67.6 204.869 67.984 204.56C68.368 204.24 68.56 203.824 68.56 203.312C68.56 202.949 68.48 202.661 68.32 202.448C68.1707 202.235 67.9627 202.053 67.696 201.904C67.44 201.755 67.1467 201.605 66.816 201.456L65.312 200.8C64.9813 200.661 64.6507 200.48 64.32 200.256C64 200.032 63.728 199.744 63.504 199.392C63.2907 199.04 63.184 198.608 63.184 198.096C63.184 197.563 63.3227 197.088 63.6 196.672C63.888 196.245 64.2827 195.915 64.784 195.68C65.2853 195.435 65.8507 195.312 66.48 195.312C67.1093 195.312 67.6907 195.435 68.224 195.68C68.7573 195.915 69.2107 196.224 69.584 196.608L68.864 197.472C68.544 197.163 68.1867 196.923 67.792 196.752C67.408 196.571 66.9707 196.48 66.48 196.48C65.8933 196.48 65.4187 196.619 65.056 196.896C64.704 197.173 64.528 197.547 64.528 198.016C64.528 198.347 64.6133 198.624 64.784 198.848C64.9653 199.061 65.1893 199.237 65.456 199.376C65.7227 199.515 65.9947 199.643 66.272 199.76L67.76 200.4C68.1653 200.571 68.528 200.779 68.848 201.024C69.1787 201.259 69.44 201.552 69.632 201.904C69.824 202.245 69.92 202.677 69.92 203.2C69.92 203.755 69.776 204.261 69.488 204.72C69.2 205.168 68.7893 205.525 68.256 205.792C67.7227 206.059 67.088 206.192 66.352 206.192ZM73.9482 206.192C73.1162 206.192 72.5349 205.952 72.2042 205.472C71.8842 204.992 71.7242 204.368 71.7242 203.6V199.296H70.5722V198.304L71.7882 198.224L71.9482 196.048H73.0522V198.224H75.1482V199.296H73.0522V203.616C73.0522 204.096 73.1376 204.469 73.3082 204.736C73.4896 204.992 73.8042 205.12 74.2522 205.12C74.3909 205.12 74.5402 205.099 74.7002 205.056C74.8602 205.003 75.0042 204.955 75.1322 204.912L75.3882 205.904C75.1749 205.979 74.9402 206.043 74.6842 206.096C74.4389 206.16 74.1936 206.192 73.9482 206.192ZM79.8718 206.192C79.1784 206.192 78.5491 206.032 77.9838 205.712C77.4184 205.381 76.9704 204.912 76.6398 204.304C76.3091 203.696 76.1438 202.971 76.1438 202.128C76.1438 201.275 76.3091 200.544 76.6398 199.936C76.9811 199.328 77.4184 198.859 77.9518 198.528C78.4851 198.197 79.0451 198.032 79.6318 198.032C80.6238 198.032 81.3864 198.363 81.9198 199.024C82.4638 199.685 82.7358 200.571 82.7358 201.68C82.7358 201.819 82.7304 201.957 82.7198 202.096C82.7198 202.224 82.7091 202.336 82.6878 202.432H77.4398C77.4931 203.253 77.7491 203.909 78.2078 204.4C78.6771 204.891 79.2851 205.136 80.0318 205.136C80.4051 205.136 80.7464 205.083 81.0558 204.976C81.3758 204.859 81.6798 204.709 81.9678 204.528L82.4318 205.392C82.1011 205.605 81.7224 205.792 81.2958 205.952C80.8798 206.112 80.4051 206.192 79.8718 206.192ZM77.4238 201.488H81.5838C81.5838 200.699 81.4131 200.101 81.0718 199.696C80.7411 199.28 80.2718 199.072 79.6638 199.072C79.1198 199.072 78.6291 199.285 78.1918 199.712C77.7651 200.128 77.5091 200.72 77.4238 201.488ZM84.6893 206V194.608H85.9853V202.32H86.0333L89.3453 198.224H90.8013L88.1933 201.344L91.1533 206H89.7133L87.4413 202.256L85.9853 203.952V206H84.6893ZM95.8782 209.28V198.224H96.9662L97.0782 199.12H97.1263C97.4782 198.821 97.8622 198.565 98.2782 198.352C98.7049 198.139 99.1476 198.032 99.6063 198.032C100.609 198.032 101.372 198.395 101.894 199.12C102.417 199.835 102.678 200.795 102.678 202C102.678 202.875 102.518 203.627 102.198 204.256C101.889 204.885 101.478 205.365 100.966 205.696C100.465 206.027 99.9156 206.192 99.3183 206.192C98.9556 206.192 98.5929 206.112 98.2303 205.952C97.8783 205.792 97.5209 205.573 97.1582 205.296L97.1902 206.656V209.28H95.8782ZM99.0943 205.088C99.7343 205.088 100.262 204.816 100.678 204.272C101.105 203.717 101.318 202.96 101.318 202C101.318 201.147 101.158 200.459 100.838 199.936C100.529 199.403 100.006 199.136 99.2702 199.136C98.9396 199.136 98.6036 199.227 98.2622 199.408C97.9316 199.589 97.5742 199.851 97.1902 200.192V204.272C97.5422 204.571 97.8836 204.784 98.2143 204.912C98.5449 205.029 98.8383 205.088 99.0943 205.088ZM106.359 206.192C105.708 206.192 105.164 206 104.727 205.616C104.3 205.221 104.087 204.677 104.087 203.984C104.087 203.131 104.465 202.48 105.223 202.032C105.991 201.573 107.201 201.253 108.855 201.072C108.855 200.741 108.807 200.427 108.711 200.128C108.625 199.829 108.465 199.589 108.231 199.408C108.007 199.216 107.681 199.12 107.255 199.12C106.807 199.12 106.385 199.205 105.991 199.376C105.596 199.547 105.244 199.739 104.935 199.952L104.423 199.04C104.785 198.805 105.228 198.581 105.751 198.368C106.284 198.144 106.86 198.032 107.479 198.032C108.428 198.032 109.116 198.325 109.543 198.912C109.969 199.488 110.183 200.261 110.183 201.232V206H109.095L108.983 205.072H108.935C108.572 205.371 108.172 205.632 107.735 205.856C107.308 206.08 106.849 206.192 106.359 206.192ZM106.743 205.136C107.116 205.136 107.468 205.045 107.799 204.864C108.129 204.683 108.481 204.427 108.855 204.096V201.936C107.564 202.096 106.657 202.336 106.135 202.656C105.623 202.976 105.367 203.387 105.367 203.888C105.367 204.325 105.5 204.645 105.767 204.848C106.033 205.04 106.359 205.136 106.743 205.136ZM107.527 197.136C106.993 197.136 106.567 196.987 106.247 196.688C105.927 196.389 105.767 196.011 105.767 195.552C105.767 195.104 105.927 194.731 106.247 194.432C106.567 194.133 106.993 193.984 107.527 193.984C108.06 193.984 108.487 194.133 108.807 194.432C109.127 194.731 109.287 195.104 109.287 195.552C109.287 196.011 109.127 196.389 108.807 196.688C108.487 196.987 108.06 197.136 107.527 197.136ZM107.527 196.544C107.783 196.544 107.996 196.453 108.167 196.272C108.348 196.091 108.439 195.851 108.439 195.552C108.439 195.253 108.348 195.019 108.167 194.848C107.996 194.667 107.783 194.576 107.527 194.576C107.271 194.576 107.052 194.667 106.871 194.848C106.7 195.019 106.615 195.253 106.615 195.552C106.615 195.851 106.7 196.091 106.871 196.272C107.052 196.453 107.271 196.544 107.527 196.544ZM115.896 206V198.224H116.984L117.096 199.344H117.144C117.517 198.971 117.912 198.661 118.328 198.416C118.744 198.16 119.219 198.032 119.752 198.032C120.573 198.032 121.171 198.293 121.544 198.816C121.928 199.328 122.12 200.08 122.12 201.072V206H120.808V201.248C120.808 200.523 120.691 199.995 120.456 199.664C120.221 199.333 119.848 199.168 119.336 199.168C118.941 199.168 118.584 199.269 118.264 199.472C117.955 199.675 117.603 199.973 117.208 200.368V206H115.896ZM127.83 206.192C127.137 206.192 126.507 206.032 125.942 205.712C125.377 205.381 124.929 204.912 124.598 204.304C124.267 203.696 124.102 202.971 124.102 202.128C124.102 201.275 124.267 200.544 124.598 199.936C124.939 199.328 125.377 198.859 125.91 198.528C126.443 198.197 127.003 198.032 127.59 198.032C128.582 198.032 129.345 198.363 129.878 199.024C130.422 199.685 130.694 200.571 130.694 201.68C130.694 201.819 130.689 201.957 130.678 202.096C130.678 202.224 130.667 202.336 130.646 202.432H125.398C125.451 203.253 125.707 203.909 126.166 204.4C126.635 204.891 127.243 205.136 127.99 205.136C128.363 205.136 128.705 205.083 129.014 204.976C129.334 204.859 129.638 204.709 129.926 204.528L130.39 205.392C130.059 205.605 129.681 205.792 129.254 205.952C128.838 206.112 128.363 206.192 127.83 206.192ZM125.382 201.488H129.542C129.542 200.699 129.371 200.101 129.03 199.696C128.699 199.28 128.23 199.072 127.622 199.072C127.078 199.072 126.587 199.285 126.15 199.712C125.723 200.128 125.467 200.72 125.382 201.488ZM135.304 206.192C134.333 206.192 133.554 205.84 132.968 205.136C132.381 204.421 132.088 203.419 132.088 202.128C132.088 201.285 132.242 200.56 132.552 199.952C132.872 199.333 133.288 198.859 133.8 198.528C134.322 198.197 134.877 198.032 135.464 198.032C135.912 198.032 136.301 198.112 136.632 198.272C136.962 198.432 137.298 198.651 137.64 198.928L137.576 197.6V194.608H138.904V206H137.816L137.704 205.088H137.656C137.357 205.387 137.005 205.648 136.6 205.872C136.194 206.085 135.762 206.192 135.304 206.192ZM135.592 205.088C136.274 205.088 136.936 204.731 137.576 204.016V199.952C137.245 199.653 136.925 199.445 136.616 199.328C136.317 199.2 136.008 199.136 135.688 199.136C135.272 199.136 134.893 199.264 134.552 199.52C134.221 199.765 133.954 200.112 133.752 200.56C133.549 200.997 133.448 201.515 133.448 202.112C133.448 203.04 133.634 203.771 134.008 204.304C134.381 204.827 134.909 205.088 135.592 205.088ZM144.707 206.192C144.013 206.192 143.384 206.032 142.819 205.712C142.253 205.381 141.805 204.912 141.475 204.304C141.144 203.696 140.979 202.971 140.979 202.128C140.979 201.275 141.144 200.544 141.475 199.936C141.816 199.328 142.253 198.859 142.787 198.528C143.32 198.197 143.88 198.032 144.467 198.032C145.459 198.032 146.221 198.363 146.755 199.024C147.299 199.685 147.571 200.571 147.571 201.68C147.571 201.819 147.565 201.957 147.555 202.096C147.555 202.224 147.544 202.336 147.523 202.432H142.275C142.328 203.253 142.584 203.909 143.043 204.4C143.512 204.891 144.12 205.136 144.867 205.136C145.24 205.136 145.581 205.083 145.891 204.976C146.211 204.859 146.515 204.709 146.803 204.528L147.267 205.392C146.936 205.605 146.557 205.792 146.131 205.952C145.715 206.112 145.24 206.192 144.707 206.192ZM142.259 201.488H146.419C146.419 200.699 146.248 200.101 145.907 199.696C145.576 199.28 145.107 199.072 144.499 199.072C143.955 199.072 143.464 199.285 143.027 199.712C142.6 200.128 142.344 200.72 142.259 201.488ZM149.524 206V198.224H150.612L150.724 199.632H150.772C151.039 199.141 151.364 198.752 151.748 198.464C152.132 198.176 152.543 198.032 152.98 198.032C153.289 198.032 153.567 198.085 153.812 198.192L153.556 199.344C153.428 199.301 153.311 199.269 153.204 199.248C153.097 199.227 152.964 199.216 152.804 199.216C152.473 199.216 152.127 199.349 151.764 199.616C151.412 199.883 151.103 200.347 150.836 201.008V206H149.524ZM157.073 206.192C156.518 206.192 155.99 206.091 155.489 205.888C154.987 205.675 154.55 205.419 154.177 205.12L154.833 204.24C155.174 204.507 155.526 204.731 155.889 204.912C156.251 205.083 156.662 205.168 157.121 205.168C157.633 205.168 158.017 205.051 158.273 204.816C158.529 204.571 158.657 204.283 158.657 203.952C158.657 203.685 158.566 203.461 158.385 203.28C158.214 203.099 157.99 202.949 157.713 202.832C157.446 202.704 157.169 202.587 156.881 202.48C156.518 202.341 156.161 202.187 155.809 202.016C155.457 201.835 155.169 201.605 154.945 201.328C154.721 201.04 154.609 200.677 154.609 200.24C154.609 199.611 154.843 199.088 155.313 198.672C155.793 198.245 156.454 198.032 157.297 198.032C157.777 198.032 158.225 198.117 158.641 198.288C159.057 198.459 159.414 198.667 159.713 198.912L159.073 199.744C158.806 199.541 158.529 199.376 158.241 199.248C157.953 199.12 157.638 199.056 157.297 199.056C156.806 199.056 156.443 199.168 156.209 199.392C155.985 199.616 155.873 199.877 155.873 200.176C155.873 200.421 155.953 200.624 156.113 200.784C156.273 200.933 156.481 201.067 156.737 201.184C156.993 201.291 157.265 201.403 157.553 201.52C157.926 201.659 158.294 201.819 158.657 202C159.019 202.171 159.318 202.405 159.553 202.704C159.798 202.992 159.921 203.381 159.921 203.872C159.921 204.288 159.809 204.672 159.585 205.024C159.371 205.376 159.051 205.659 158.625 205.872C158.209 206.085 157.691 206.192 157.073 206.192ZM163.911 206.192C163.079 206.192 162.498 205.952 162.167 205.472C161.847 204.992 161.687 204.368 161.687 203.6V199.296H160.535V198.304L161.751 198.224L161.911 196.048H163.015V198.224H165.111V199.296H163.015V203.616C163.015 204.096 163.1 204.469 163.271 204.736C163.452 204.992 163.767 205.12 164.215 205.12C164.354 205.12 164.503 205.099 164.663 205.056C164.823 205.003 164.967 204.955 165.095 204.912L165.351 205.904C165.138 205.979 164.903 206.043 164.647 206.096C164.402 206.16 164.156 206.192 163.911 206.192ZM169.835 206.192C169.141 206.192 168.512 206.032 167.947 205.712C167.381 205.381 166.933 204.912 166.603 204.304C166.272 203.696 166.107 202.971 166.107 202.128C166.107 201.275 166.272 200.544 166.603 199.936C166.944 199.328 167.381 198.859 167.915 198.528C168.448 198.197 169.008 198.032 169.595 198.032C170.587 198.032 171.349 198.363 171.883 199.024C172.427 199.685 172.699 200.571 172.699 201.68C172.699 201.819 172.693 201.957 172.683 202.096C172.683 202.224 172.672 202.336 172.651 202.432H167.403C167.456 203.253 167.712 203.909 168.171 204.4C168.64 204.891 169.248 205.136 169.995 205.136C170.368 205.136 170.709 205.083 171.019 204.976C171.339 204.859 171.643 204.709 171.931 204.528L172.395 205.392C172.064 205.605 171.685 205.792 171.259 205.952C170.843 206.112 170.368 206.192 169.835 206.192ZM167.387 201.488H171.547C171.547 200.699 171.376 200.101 171.035 199.696C170.704 199.28 170.235 199.072 169.627 199.072C169.083 199.072 168.592 199.285 168.155 199.712C167.728 200.128 167.472 200.72 167.387 201.488ZM177.887 206V198.224H178.975L179.087 199.632H179.135C179.402 199.141 179.727 198.752 180.111 198.464C180.495 198.176 180.906 198.032 181.343 198.032C181.653 198.032 181.93 198.085 182.175 198.192L181.919 199.344C181.791 199.301 181.674 199.269 181.567 199.248C181.461 199.227 181.327 199.216 181.167 199.216C180.837 199.216 180.49 199.349 180.127 199.616C179.775 199.883 179.466 200.347 179.199 201.008V206H177.887ZM183.466 206V198.224H184.778V206H183.466ZM184.138 196.624C183.882 196.624 183.669 196.549 183.498 196.4C183.338 196.24 183.258 196.027 183.258 195.76C183.258 195.504 183.338 195.296 183.498 195.136C183.669 194.976 183.882 194.896 184.138 194.896C184.394 194.896 184.602 194.976 184.762 195.136C184.933 195.296 185.018 195.504 185.018 195.76C185.018 196.027 184.933 196.24 184.762 196.4C184.602 196.549 184.394 196.624 184.138 196.624ZM188.828 206.192C188.337 206.192 187.98 206.043 187.756 205.744C187.542 205.435 187.436 204.997 187.436 204.432V194.608H188.748V204.528C188.748 204.731 188.785 204.88 188.86 204.976C188.934 205.061 189.02 205.104 189.116 205.104C189.158 205.104 189.196 205.104 189.228 205.104C189.27 205.093 189.329 205.083 189.404 205.072L189.58 206.064C189.494 206.107 189.393 206.139 189.276 206.16C189.158 206.181 189.009 206.192 188.828 206.192ZM192.938 206.192C192.447 206.192 192.09 206.043 191.866 205.744C191.652 205.435 191.546 204.997 191.546 204.432V194.608H192.858V204.528C192.858 204.731 192.895 204.88 192.97 204.976C193.044 205.061 193.13 205.104 193.226 205.104C193.268 205.104 193.306 205.104 193.338 205.104C193.38 205.093 193.439 205.083 193.514 205.072L193.69 206.064C193.604 206.107 193.503 206.139 193.386 206.16C193.268 206.181 193.119 206.192 192.938 206.192ZM198.808 206.192C198.115 206.192 197.485 206.032 196.92 205.712C196.355 205.381 195.907 204.912 195.576 204.304C195.245 203.696 195.08 202.971 195.08 202.128C195.08 201.275 195.245 200.544 195.576 199.936C195.917 199.328 196.355 198.859 196.888 198.528C197.421 198.197 197.981 198.032 198.568 198.032C199.56 198.032 200.323 198.363 200.856 199.024C201.4 199.685 201.672 200.571 201.672 201.68C201.672 201.819 201.667 201.957 201.656 202.096C201.656 202.224 201.645 202.336 201.624 202.432H196.376C196.429 203.253 196.685 203.909 197.144 204.4C197.613 204.891 198.221 205.136 198.968 205.136C199.341 205.136 199.683 205.083 199.992 204.976C200.312 204.859 200.616 204.709 200.904 204.528L201.368 205.392C201.037 205.605 200.659 205.792 200.232 205.952C199.816 206.112 199.341 206.192 198.808 206.192ZM196.36 201.488H200.52C200.52 200.699 200.349 200.101 200.008 199.696C199.677 199.28 199.208 199.072 198.6 199.072C198.056 199.072 197.565 199.285 197.128 199.712C196.701 200.128 196.445 200.72 196.36 201.488ZM206.86 206V198.224H208.172V206H206.86ZM207.532 196.624C207.276 196.624 207.063 196.549 206.892 196.4C206.732 196.24 206.652 196.027 206.652 195.76C206.652 195.504 206.732 195.296 206.892 195.136C207.063 194.976 207.276 194.896 207.532 194.896C207.788 194.896 207.996 194.976 208.156 195.136C208.327 195.296 208.412 195.504 208.412 195.76C208.412 196.027 208.327 196.24 208.156 196.4C207.996 196.549 207.788 196.624 207.532 196.624ZM217.089 206.192C216.46 206.192 215.868 206.032 215.313 205.712C214.769 205.392 214.326 204.928 213.985 204.32C213.654 203.712 213.489 202.981 213.489 202.128C213.489 201.253 213.654 200.512 213.985 199.904C214.326 199.296 214.769 198.832 215.313 198.512C215.868 198.192 216.46 198.032 217.089 198.032C217.729 198.032 218.321 198.192 218.865 198.512C219.409 198.832 219.846 199.296 220.177 199.904C220.518 200.512 220.689 201.253 220.689 202.128C220.689 202.981 220.518 203.712 220.177 204.32C219.846 204.928 219.409 205.392 218.865 205.712C218.321 206.032 217.729 206.192 217.089 206.192ZM217.089 205.104C217.761 205.104 218.3 204.832 218.705 204.288C219.121 203.733 219.329 203.013 219.329 202.128C219.329 201.232 219.121 200.507 218.705 199.952C218.3 199.397 217.761 199.12 217.089 199.12C216.428 199.12 215.889 199.397 215.473 199.952C215.057 200.507 214.849 201.232 214.849 202.128C214.849 203.013 215.057 203.733 215.473 204.288C215.889 204.832 216.428 205.104 217.089 205.104ZM224.387 206L221.587 198.224H222.947L224.419 202.64C224.536 203.024 224.653 203.408 224.771 203.792C224.899 204.176 225.021 204.555 225.139 204.928H225.203C225.32 204.555 225.437 204.176 225.555 203.792C225.683 203.408 225.8 203.024 225.907 202.64L227.379 198.224H228.675L225.923 206H224.387ZM230.207 206V198.224H231.295L231.407 199.344H231.455C231.829 198.971 232.223 198.661 232.639 198.416C233.055 198.16 233.53 198.032 234.063 198.032C234.885 198.032 235.482 198.293 235.855 198.816C236.239 199.328 236.431 200.08 236.431 201.072V206H235.119V201.248C235.119 200.523 235.002 199.995 234.767 199.664C234.533 199.333 234.159 199.168 233.647 199.168C233.253 199.168 232.895 199.269 232.575 199.472C232.266 199.675 231.914 199.973 231.519 200.368V206H230.207ZM242.141 206.192C241.448 206.192 240.819 206.032 240.253 205.712C239.688 205.381 239.24 204.912 238.909 204.304C238.579 203.696 238.413 202.971 238.413 202.128C238.413 201.275 238.579 200.544 238.909 199.936C239.251 199.328 239.688 198.859 240.221 198.528C240.755 198.197 241.315 198.032 241.901 198.032C242.893 198.032 243.656 198.363 244.189 199.024C244.733 199.685 245.005 200.571 245.005 201.68C245.005 201.819 245 201.957 244.989 202.096C244.989 202.224 244.979 202.336 244.957 202.432H239.709C239.763 203.253 240.019 203.909 240.477 204.4C240.947 204.891 241.555 205.136 242.301 205.136C242.675 205.136 243.016 205.083 243.325 204.976C243.645 204.859 243.949 204.709 244.237 204.528L244.701 205.392C244.371 205.605 243.992 205.792 243.565 205.952C243.149 206.112 242.675 206.192 242.141 206.192ZM239.693 201.488H243.853C243.853 200.699 243.683 200.101 243.341 199.696C243.011 199.28 242.541 199.072 241.933 199.072C241.389 199.072 240.899 199.285 240.461 199.712C240.035 200.128 239.779 200.72 239.693 201.488ZM246.959 206V198.224H248.047L248.159 199.344H248.207C248.58 198.971 248.975 198.661 249.391 198.416C249.807 198.16 250.281 198.032 250.815 198.032C251.636 198.032 252.233 198.293 252.607 198.816C252.991 199.328 253.183 200.08 253.183 201.072V206H251.871V201.248C251.871 200.523 251.753 199.995 251.519 199.664C251.284 199.333 250.911 199.168 250.399 199.168C250.004 199.168 249.647 199.269 249.327 199.472C249.017 199.675 248.665 199.973 248.271 200.368V206H246.959ZM258.976 206V198.224H260.288V206H258.976ZM259.648 196.624C259.392 196.624 259.179 196.549 259.008 196.4C258.848 196.24 258.768 196.027 258.768 195.76C258.768 195.504 258.848 195.296 259.008 195.136C259.179 194.976 259.392 194.896 259.648 194.896C259.904 194.896 260.112 194.976 260.272 195.136C260.443 195.296 260.528 195.504 260.528 195.76C260.528 196.027 260.443 196.24 260.272 196.4C260.112 196.549 259.904 196.624 259.648 196.624ZM268.645 206.192C267.834 206.192 267.156 206.048 266.612 205.76C266.068 205.461 265.626 205.125 265.284 204.752L265.956 203.888C266.266 204.208 266.628 204.491 267.044 204.736C267.46 204.981 267.967 205.104 268.564 205.104C269.183 205.104 269.69 204.933 270.084 204.592C270.479 204.251 270.676 203.797 270.676 203.232C270.676 202.827 270.57 202.475 270.357 202.176C270.154 201.867 269.812 201.627 269.332 201.456C268.863 201.285 268.223 201.2 267.412 201.2V200.192C268.138 200.192 268.708 200.107 269.124 199.936C269.551 199.765 269.855 199.536 270.036 199.248C270.218 198.96 270.308 198.64 270.308 198.288C270.308 197.787 270.148 197.392 269.828 197.104C269.519 196.816 269.092 196.672 268.548 196.672C268.122 196.672 267.727 196.768 267.364 196.96C267.012 197.152 266.682 197.403 266.372 197.712L265.668 196.88C266.063 196.507 266.5 196.203 266.98 195.968C267.46 195.723 267.999 195.6 268.596 195.6C269.482 195.6 270.212 195.829 270.788 196.288C271.365 196.736 271.653 197.371 271.653 198.192C271.653 198.811 271.482 199.317 271.141 199.712C270.799 200.107 270.351 200.411 269.797 200.624V200.688C270.415 200.827 270.938 201.12 271.365 201.568C271.791 202.005 272.004 202.576 272.004 203.28C272.004 203.877 271.855 204.395 271.556 204.832C271.258 205.269 270.852 205.605 270.34 205.84C269.839 206.075 269.274 206.192 268.645 206.192ZM276.838 206.192C275.814 206.192 275.008 205.733 274.422 204.816C273.846 203.888 273.558 202.571 273.558 200.864C273.558 199.147 273.846 197.84 274.422 196.944C275.008 196.048 275.814 195.6 276.838 195.6C277.851 195.6 278.646 196.048 279.222 196.944C279.808 197.84 280.102 199.147 280.102 200.864C280.102 202.571 279.808 203.888 279.222 204.816C278.646 205.733 277.851 206.192 276.838 206.192ZM276.838 205.136C277.435 205.136 277.915 204.8 278.278 204.128C278.64 203.445 278.822 202.357 278.822 200.864C278.822 199.371 278.64 198.299 278.278 197.648C277.915 196.987 277.435 196.656 276.838 196.656C276.24 196.656 275.755 196.987 275.382 197.648C275.019 198.299 274.838 199.371 274.838 200.864C274.838 202.357 275.019 203.445 275.382 204.128C275.755 204.8 276.24 205.136 276.838 205.136ZM281.495 202.496V201.488H285.175V202.496H281.495ZM287.503 202.128H290.703V199.168C290.703 198.891 290.714 198.56 290.735 198.176C290.757 197.792 290.773 197.467 290.783 197.2H290.719C290.591 197.445 290.458 197.685 290.319 197.92C290.181 198.155 290.037 198.395 289.887 198.64L287.503 202.128ZM290.703 206V203.184H286.111V202.32L290.479 195.792H291.951V202.128H293.343V203.184H291.951V206H290.703ZM297.809 206.192C296.785 206.192 295.979 205.733 295.393 204.816C294.817 203.888 294.529 202.571 294.529 200.864C294.529 199.147 294.817 197.84 295.393 196.944C295.979 196.048 296.785 195.6 297.809 195.6C298.822 195.6 299.617 196.048 300.193 196.944C300.779 197.84 301.073 199.147 301.073 200.864C301.073 202.571 300.779 203.888 300.193 204.816C299.617 205.733 298.822 206.192 297.809 206.192ZM297.809 205.136C298.406 205.136 298.886 204.8 299.249 204.128C299.611 203.445 299.793 202.357 299.793 200.864C299.793 199.371 299.611 198.299 299.249 197.648C298.886 196.987 298.406 196.656 297.809 196.656C297.211 196.656 296.726 196.987 296.353 197.648C295.99 198.299 295.809 199.371 295.809 200.864C295.809 202.357 295.99 203.445 296.353 204.128C296.726 204.8 297.211 205.136 297.809 205.136ZM306.357 206V198.224H307.445L307.557 199.344H307.605C307.946 198.971 308.32 198.661 308.725 198.416C309.13 198.16 309.562 198.032 310.021 198.032C310.618 198.032 311.082 198.165 311.413 198.432C311.754 198.688 312.005 199.051 312.165 199.52C312.57 199.083 312.981 198.725 313.397 198.448C313.813 198.171 314.256 198.032 314.725 198.032C315.525 198.032 316.117 198.293 316.501 198.816C316.896 199.328 317.093 200.08 317.093 201.072V206H315.781V201.248C315.781 200.523 315.664 199.995 315.429 199.664C315.194 199.333 314.832 199.168 314.341 199.168C313.765 199.168 313.114 199.568 312.389 200.368V206H311.077V201.248C311.077 200.523 310.96 199.995 310.725 199.664C310.49 199.333 310.122 199.168 309.621 199.168C309.045 199.168 308.394 199.568 307.669 200.368V206H306.357ZM319.654 206V198.224H320.966V206H319.654ZM320.326 196.624C320.07 196.624 319.857 196.549 319.686 196.4C319.526 196.24 319.446 196.027 319.446 195.76C319.446 195.504 319.526 195.296 319.686 195.136C319.857 194.976 320.07 194.896 320.326 194.896C320.582 194.896 320.79 194.976 320.95 195.136C321.121 195.296 321.206 195.504 321.206 195.76C321.206 196.027 321.121 196.24 320.95 196.4C320.79 196.549 320.582 196.624 320.326 196.624ZM323.624 206V198.224H324.712L324.824 199.344H324.872C325.245 198.971 325.64 198.661 326.056 198.416C326.472 198.16 326.947 198.032 327.48 198.032C328.301 198.032 328.899 198.293 329.272 198.816C329.656 199.328 329.848 200.08 329.848 201.072V206H328.536V201.248C328.536 200.523 328.419 199.995 328.184 199.664C327.949 199.333 327.576 199.168 327.064 199.168C326.669 199.168 326.312 199.269 325.992 199.472C325.683 199.675 325.331 199.973 324.936 200.368V206H323.624ZM334.678 206.192C333.857 206.192 333.254 205.936 332.87 205.424C332.486 204.901 332.294 204.144 332.294 203.152V198.224H333.622V202.976C333.622 203.701 333.734 204.229 333.958 204.56C334.193 204.891 334.566 205.056 335.078 205.056C335.483 205.056 335.841 204.955 336.15 204.752C336.47 204.539 336.811 204.203 337.174 203.744V198.224H338.486V206H337.398L337.286 204.784H337.238C336.875 205.211 336.491 205.552 336.086 205.808C335.681 206.064 335.211 206.192 334.678 206.192ZM343.589 206.192C342.757 206.192 342.176 205.952 341.845 205.472C341.525 204.992 341.365 204.368 341.365 203.6V199.296H340.213V198.304L341.429 198.224L341.589 196.048H342.693V198.224H344.789V199.296H342.693V203.616C342.693 204.096 342.778 204.469 342.949 204.736C343.13 204.992 343.445 205.12 343.893 205.12C344.032 205.12 344.181 205.099 344.341 205.056C344.501 205.003 344.645 204.955 344.773 204.912L345.029 205.904C344.816 205.979 344.581 206.043 344.325 206.096C344.08 206.16 343.834 206.192 343.589 206.192ZM348.715 206.192C347.883 206.192 347.302 205.952 346.971 205.472C346.651 204.992 346.491 204.368 346.491 203.6V199.296H345.339V198.304L346.555 198.224L346.715 196.048H347.819V198.224H349.915V199.296H347.819V203.616C347.819 204.096 347.904 204.469 348.075 204.736C348.256 204.992 348.571 205.12 349.019 205.12C349.158 205.12 349.307 205.099 349.467 205.056C349.627 205.003 349.771 204.955 349.899 204.912L350.155 205.904C349.942 205.979 349.707 206.043 349.451 206.096C349.206 206.16 348.96 206.192 348.715 206.192ZM354.638 206.192C353.945 206.192 353.316 206.032 352.75 205.712C352.185 205.381 351.737 204.912 351.406 204.304C351.076 203.696 350.91 202.971 350.91 202.128C350.91 201.275 351.076 200.544 351.406 199.936C351.748 199.328 352.185 198.859 352.718 198.528C353.252 198.197 353.812 198.032 354.398 198.032C355.39 198.032 356.153 198.363 356.686 199.024C357.23 199.685 357.502 200.571 357.502 201.68C357.502 201.819 357.497 201.957 357.486 202.096C357.486 202.224 357.476 202.336 357.454 202.432H352.206C352.26 203.253 352.516 203.909 352.974 204.4C353.444 204.891 354.052 205.136 354.798 205.136C355.172 205.136 355.513 205.083 355.822 204.976C356.142 204.859 356.446 204.709 356.734 204.528L357.198 205.392C356.868 205.605 356.489 205.792 356.062 205.952C355.646 206.112 355.172 206.192 354.638 206.192ZM352.19 201.488H356.35C356.35 200.699 356.18 200.101 355.838 199.696C355.508 199.28 355.038 199.072 354.43 199.072C353.886 199.072 353.396 199.285 352.958 199.712C352.532 200.128 352.276 200.72 352.19 201.488ZM359.456 206V198.224H360.544L360.656 199.632H360.704C360.971 199.141 361.296 198.752 361.68 198.464C362.064 198.176 362.475 198.032 362.912 198.032C363.221 198.032 363.499 198.085 363.744 198.192L363.488 199.344C363.36 199.301 363.243 199.269 363.136 199.248C363.029 199.227 362.896 199.216 362.736 199.216C362.405 199.216 362.059 199.349 361.696 199.616C361.344 199.883 361.035 200.347 360.768 201.008V206H359.456ZM364.816 206.192C364.55 206.192 364.32 206.101 364.128 205.92C363.947 205.728 363.856 205.488 363.856 205.2C363.856 204.891 363.947 204.645 364.128 204.464C364.32 204.272 364.55 204.176 364.816 204.176C365.072 204.176 365.291 204.272 365.472 204.464C365.664 204.645 365.76 204.891 365.76 205.2C365.76 205.488 365.664 205.728 365.472 205.92C365.291 206.101 365.072 206.192 364.816 206.192Z"></path>
</g>
</g>
<defs>
<clipPath id="clip0_6511_104176">
<rect fill="white" height="268" width="384"></rect>
</clipPath>
<clipPath id="clip1_6511_104176">
<rect transform="translate(24 110)" fill="white" height="20" width="451"></rect>
</clipPath>
<clipPath id="clip2_6511_104176">
<rect transform="translate(24 150)" fill="white" height="20" width="451"></rect>
</clipPath>
<clipPath id="clip3_6511_104176">
<rect transform="translate(24 190)" fill="white" height="20" width="451"></rect>
</clipPath>
</defs>
</svg>
