<svg xmlns="http://www.w3.org/2000/svg" fill="none" viewBox="0 0 200 200" height="200" width="200">
<path fill="white" d="M24 59H176V153C176 159.627 170.627 165 164 165H36C29.3726 165 24 159.627 24 153V59Z"></path>
<mask fill="white" id="path-2-inside-1_4412_3189">
<path d="M26 153C26 158.523 30.4772 163 36 163H164C169.523 163 174 158.523 174 153V59H176V153C176 159.627 170.627 165 164 165H36C29.3726 165 24 159.627 24 153V59H26V153Z"></path>
</mask>
<path mask="url(#path-2-inside-1_4412_3189)" fill-opacity="0.247059" fill="#005A92" d="M174 59V-31H84V59H174ZM176 59H266V-31H176V59ZM24 153H-66H24ZM24 59V-31H-66V59H24ZM26 59H116V-31H26V59ZM26 153H-64C-64 208.228 -19.2285 253 36 253V163V73C80.1828 73 116 108.817 116 153H26ZM36 163V253H164V163V73H36V163ZM164 163V253C219.228 253 264 208.228 264 153H174H84C84 108.817 119.817 73 164 73V163ZM174 153H264V59H174H84V153H174ZM174 59V149H176V59V-31H174V59ZM176 59H86V153H176H266V59H176ZM176 153H86C86 109.922 120.922 75 164 75V165V255C220.333 255 266 209.333 266 153H176ZM164 165V75H36V165V255H164V165ZM36 165V75C79.0782 75 114 109.922 114 153H24H-66C-66 209.333 -20.333 255 36 255V165ZM24 153H114V59H24H-66V153H24ZM24 59V149H26V59V-31H24V59ZM26 59H-64V153H26H116V59H26Z"></path>
<path fill="#417DA0" d="M24 47C24 40.3726 29.3726 35 36 35H164C170.627 35 176 40.3726 176 47V59H24V47Z"></path>
<circle fill="#C0D6E4" r="4" cy="47" cx="40"></circle>
<circle fill="#C0D6E4" r="4" cy="47" cx="51"></circle>
<circle fill="#C0D6E4" r="4" cy="47" cx="62"></circle>
<path fill="#C0D6E4" d="M48 74.5963C48 72.6101 49.6101 71 51.5963 71H148.404C150.39 71 152 72.6101 152 74.5963V82.4037C152 84.3899 150.39 86 148.404 86H51.5963C49.6101 86 48 84.3899 48 82.4037V74.5963Z"></path>
<path fill="#C0D6E4" d="M48 93.5963C48 91.6101 49.6101 90 51.5963 90H148.404C150.39 90 152 91.6101 152 93.5963V129.404C152 131.39 150.39 133 148.404 133H51.5963C49.6101 133 48 131.39 48 129.404V93.5963Z"></path>
<path fill="#C0D6E4" d="M48 140.596C48 138.61 49.6101 137 51.5963 137H148.404C150.39 137 152 138.61 152 140.596V149.404C152 151.39 150.39 153 148.404 153H51.5963C49.6101 153 48 151.39 48 149.404V140.596Z"></path>
</svg>
