<svg xmlns="http://www.w3.org/2000/svg" fill="none" viewBox="0 0 200 200" height="200" width="200">
<path fill="#C0D6E4" d="M24 94C24 87.3726 29.3726 82 36 82H164C170.627 82 176 87.3726 176 94V106C176 112.627 170.627 118 164 118H36C29.3726 118 24 112.627 24 106V94Z"></path>
<mask fill="white" id="path-2-inside-1_4412_3210">
<path d="M164 116V118H36V116H164ZM174 106V94C174 88.4772 169.523 84 164 84H36C30.4772 84 26 88.4772 26 94V106C26 111.523 30.4772 116 36 116V118C29.3726 118 24 112.627 24 106V94C24 87.3726 29.3726 82 36 82H164C170.627 82 176 87.3726 176 94V106C176 112.627 170.627 118 164 118V116C169.523 116 174 111.523 174 106Z"></path>
</mask>
<path mask="url(#path-2-inside-1_4412_3210)" fill-opacity="0.247059" fill="#005A92" d="M164 116H114V118H164H214V116H164ZM164 118V68H36V118V168H164V118ZM36 118H86V116H36H-14V118H36ZM36 116V166H164V116V66H36V116ZM174 106H224V94H174H124V106H174ZM174 94H224C224 60.8629 197.137 34 164 34V84V134C141.909 134 124 116.091 124 94H174ZM164 84V34H36V84V134H164V84ZM36 84V34C2.86291 34 -24 60.8629 -24 94H26H76C76 116.091 58.0914 134 36 134V84ZM26 94H-24V106H26H76V94H26ZM26 106H-24C-24 139.137 2.86292 166 36 166V116V66C58.0914 66 76 83.9086 76 106H26ZM36 116H-14V118H36H86V116H36ZM36 118V68C56.9868 68 74 85.0132 74 106H24H-26C-26 140.242 1.75835 168 36 168V118ZM24 106H74V94H24H-26V106H24ZM24 94H74C74 114.987 56.9868 132 36 132V82V32C1.75835 32 -26 59.7583 -26 94H24ZM36 82V132H164V82V32H36V82ZM164 82V132C143.013 132 126 114.987 126 94H176H226C226 59.7583 198.242 32 164 32V82ZM176 94H126V106H176H226V94H176ZM176 106H126C126 85.0132 143.013 68 164 68V118V168C198.242 168 226 140.242 226 106H176ZM164 118H214V116H164H114V118H164ZM164 116V166C197.137 166 224 139.137 224 106H174H124C124 83.9086 141.909 66 164 66V116Z"></path>
<path fill="#417DA0" d="M70 96C70 89.3726 75.3726 84 82 84H118C124.627 84 130 89.3726 130 96V104C130 110.627 124.627 116 118 116H82C75.3726 116 70 110.627 70 104V96Z"></path>
<path fill="#417DA0" d="M34 100C34 97.7909 35.7909 96 38 96H57C59.2091 96 61 97.7909 61 100C61 102.209 59.2091 104 57 104H38C35.7909 104 34 102.209 34 100Z"></path>
<path fill="#EEF6FC" d="M86 100C86 97.7909 87.7909 96 90 96H109C111.209 96 113 97.7909 113 100C113 102.209 111.209 104 109 104H90C87.7909 104 86 102.209 86 100Z"></path>
<path fill="#417DA0" d="M139 100C139 97.7909 140.791 96 143 96H162C164.209 96 166 97.7909 166 100C166 102.209 164.209 104 162 104H143C140.791 104 139 102.209 139 100Z"></path>
</svg>
