<svg xmlns="http://www.w3.org/2000/svg" fill="none" viewBox="0 0 200 200" height="200" width="200">
<path fill="#417DA0" d="M41.1538 88.9623C41.1538 87.3263 42.4801 86 44.1161 86H49.8462C50.0977 86 50.3401 86.0948 50.5248 86.2656L56.6787 91.9522C56.8835 92.1415 57 92.4077 57 92.6866V105.324C57 106.96 55.6738 108.286 54.0377 108.286H51.3666V111.038C51.3666 112.674 50.0403 114 48.4043 114H37.9623C36.3262 114 35 112.674 35 111.038V95.0799C35 93.4439 36.3263 92.1176 37.9623 92.1176H41.1538V88.9623ZM41.1538 94.1176H37.9623C37.4308 94.1176 37 94.5485 37 95.0799V111.038C37 111.569 37.4308 112 37.9623 112H48.4043C48.9358 112 49.3666 111.569 49.3666 111.038V108.286H44.1161C42.4801 108.286 41.1538 106.96 41.1538 105.324V94.1176ZM44.1161 88C43.5847 88 43.1538 88.4308 43.1538 88.9623V105.324C43.1538 105.855 43.5847 106.286 44.1161 106.286H54.0377C54.5692 106.286 55 105.855 55 105.324V93.6866H49.8462C49.2939 93.6866 48.8462 93.2389 48.8462 92.6866V88H44.1161ZM50.8462 89.2857L53.4444 91.6866H50.8462V89.2857Z" clip-rule="evenodd" fill-rule="evenodd"></path>
<path fill="#417DA0" d="M70 100C70 96.6863 72.6863 94 76 94H164C167.314 94 170 96.6863 170 100C170 103.314 167.314 106 164 106H76C72.6863 106 70 103.314 70 100Z"></path>
</svg>
