<svg xmlns="http://www.w3.org/2000/svg" fill="none" viewBox="0 0 200 200" height="200" width="200">
<rect fill="#417DA0" rx="4" height="8" width="108" y="45" x="63"></rect>
<rect fill="#417DA0" rx="13" height="26" width="26" y="36" x="24"></rect>
<path fill="#417DA0" d="M26 97C26 103.075 30.9249 108 37 108C43.0751 108 48 103.075 48 97C48 90.9249 43.0751 86 37 86C30.9249 86 26 90.9249 26 97ZM37 84C29.8203 84 24 89.8203 24 97C24 104.18 29.8203 110 37 110C44.1797 110 50 104.18 50 97C50 89.8203 44.1797 84 37 84Z" clip-rule="evenodd" fill-rule="evenodd"></path>
<path fill="#417DA0" d="M26 145C26 151.075 30.9249 156 37 156C43.0751 156 48 151.075 48 145C48 138.925 43.0751 134 37 134C30.9249 134 26 138.925 26 145ZM37 132C29.8203 132 24 137.82 24 145C24 152.18 29.8203 158 37 158C44.1797 158 50 152.18 50 145C50 137.82 44.1797 132 37 132Z" clip-rule="evenodd" fill-rule="evenodd"></path>
<rect fill="#417DA0" rx="4" height="8" width="108" y="92" x="63"></rect>
<rect fill="#417DA0" rx="4" height="8" width="108" y="144" x="63"></rect>
<path fill="#417DA0" d="M37 66C37.5523 66 38 66.4822 38 67.0769V78.9231C38 79.5178 37.5523 80 37 80C36.4477 80 36 79.5178 36 78.9231V67.0769C36 66.4822 36.4477 66 37 66Z" clip-rule="evenodd" fill-rule="evenodd"></path>
<path fill="#417DA0" d="M37 115C37.5523 115 38 115.482 38 116.077V127.923C38 128.518 37.5523 129 37 129C36.4477 129 36 128.518 36 127.923V116.077C36 115.482 36.4477 115 37 115Z" clip-rule="evenodd" fill-rule="evenodd"></path>
</svg>
