<svg xmlns="http://www.w3.org/2000/svg" fill="none" viewBox="0 0 200 200" height="200" width="200">
<path fill="#C0D6E4" d="M24 100C24 86.7452 34.7452 76 48 76H152C165.255 76 176 86.7452 176 100C176 113.255 165.255 124 152 124H48C34.7452 124 24 113.255 24 100Z"></path>
<mask fill="white" id="path-2-inside-1_4412_3198">
<path d="M152 122V124H48V122H152ZM174 100C174 87.8497 164.15 78 152 78H48C35.8497 78 26 87.8497 26 100C26 112.15 35.8497 122 48 122V124C34.7452 124 24 113.255 24 100C24 86.9522 34.4122 76.3362 47.3809 76.0078L48 76H152C165.255 76 176 86.7452 176 100C176 113.255 165.255 124 152 124V122C164.15 122 174 112.15 174 100Z"></path>
</mask>
<path mask="url(#path-2-inside-1_4412_3198)" fill-opacity="0.247059" fill="#005A92" d="M47.3809 76.0078L46.75 26.0118L46.4325 26.0158L46.1151 26.0238L47.3809 76.0078ZM48 76V26H47.6846L47.3691 26.004L48 76ZM152 122H102V124H152H202V122H152ZM152 124V74H48V124V174H152V124ZM48 124H98V122H48H-2V124H48ZM48 122V172H152V122V72H48V122ZM174 100H224C224 60.2355 191.765 28 152 28V78V128C136.536 128 124 115.464 124 100H174ZM152 78V28H48V78V128H152V78ZM48 78V28C8.2355 28 -24 60.2355 -24 100H26H76C76 115.464 63.464 128 48 128V78ZM26 100H-24C-24 139.765 8.2355 172 48 172V122V72C63.464 72 76 84.536 76 100H26ZM48 122H-2V124H48H98V122H48ZM48 124V74C62.3594 74 74 85.6406 74 100H24H-26C-26 140.869 7.13093 174 48 174V124ZM24 100H74C74 114.142 62.7212 125.635 48.6466 125.992L47.3809 76.0078L46.1151 26.0238C6.10309 27.037 -26 59.7619 -26 100H24ZM47.3809 76.0078L48.0117 126.004L48.6309 125.996L48 76L47.3691 26.004L46.75 26.0118L47.3809 76.0078ZM48 76V126H152V76V26H48V76ZM152 76V126C137.641 126 126 114.359 126 100H176H226C226 59.1309 192.869 26 152 26V76ZM176 100H126C126 85.6406 137.641 74 152 74V124V174C192.869 174 226 140.869 226 100H176ZM152 124H202V122H152H102V124H152ZM152 122V172C191.765 172 224 139.764 224 100H174H124C124 84.536 136.536 72 152 72V122Z"></path>
<path fill="#417DA0" d="M42.2929 96.2929C42.6834 95.9024 43.3166 95.9024 43.7071 96.2929L48.5 101.086L53.2929 96.2929C53.6834 95.9024 54.3166 95.9024 54.7071 96.2929C55.0976 96.6834 55.0976 97.3166 54.7071 97.7071L49.2071 103.207C48.8166 103.598 48.1834 103.598 47.7929 103.207L42.2929 97.7071C41.9024 97.3166 41.9024 96.6834 42.2929 96.2929Z" clip-rule="evenodd" fill-rule="evenodd"></path>
<rect fill="#417DA0" rx="4" height="8" width="89" y="96" x="68"></rect>
</svg>
