<svg xmlns="http://www.w3.org/2000/svg" fill="none" viewBox="0 0 200 200" height="200" width="200">
<path fill="white" d="M38 50C38 43.3726 43.3726 38 50 38H150C156.627 38 162 43.3726 162 50V150C162 156.627 156.627 162 150 162H50C43.3726 162 38 156.627 38 150V50Z"></path>
<mask fill="white" id="path-2-inside-1_4412_3191">
<path d="M150 160V162H50V160H150ZM160 150V50C160 44.4772 155.523 40 150 40H50C44.4772 40 40 44.4772 40 50V150C40 155.523 44.4772 160 50 160V162L49.6904 161.996C43.2061 161.832 38 156.524 38 150V50C38 43.3726 43.3726 38 50 38H150C156.627 38 162 43.3726 162 50V150C162 156.627 156.627 162 150 162V160C155.523 160 160 155.523 160 150Z"></path>
</mask>
<path mask="url(#path-2-inside-1_4412_3191)" fill-opacity="0.247059" fill="#005A92" d="M50 162L49.3691 211.996L49.6846 212H50V162ZM40 50L-10 50V50H40ZM49.6904 161.996L48.4247 211.98L48.7421 211.988L49.0596 211.992L49.6904 161.996ZM38 50L-12 50V50H38ZM150 160H100V162H150H200V160H150ZM150 162V112H50V162V212H150V162ZM50 162H100V160H50H0V162H50ZM50 160V210H150V160V110H50V160ZM160 150H210V50H160H110V150H160ZM160 50H210C210 16.8629 183.137 -10 150 -10V40V90C127.909 90 110 72.0914 110 50H160ZM150 40V-10H50V40V90H150V40ZM50 40V-10C16.8629 -10 -9.99999 16.8629 -10 50L40 50L90 50C90 72.0914 72.0914 90 50 90V40ZM40 50H-10V150H40H90V50H40ZM40 150H-10C-10 183.137 16.8629 210 50 210L50 160L50 110C72.0914 110 90 127.909 90 150H40ZM50 160H0V162H50H100V160H50ZM50 162L50.6309 112.004L50.3213 112L49.6904 161.996L49.0596 211.992L49.3691 211.996L50 162ZM49.6904 161.996L50.9562 112.012C71.5152 112.533 88 129.334 88 150H38H-12C-12 183.714 14.897 211.131 48.4247 211.98L49.6904 161.996ZM38 150H88V50H38H-12V150H38ZM38 50L88 50C88 70.9868 70.9868 88 50 88V38V-12C15.7583 -12 -12 15.7584 -12 50L38 50ZM50 38V88H150V38V-12H50V38ZM150 38V88C129.013 88 112 70.9868 112 50H162H212C212 15.7583 184.242 -12 150 -12V38ZM162 50H112V150H162H212V50H162ZM162 150H112C112 129.013 129.013 112 150 112V162V212C184.242 212 212 184.242 212 150H162ZM150 162H200V160H150H100V162H150ZM150 160V210C183.137 210 210 183.137 210 150H160H110C110 127.909 127.909 110 150 110V160Z"></path>
<path fill="#D7E6F0" d="M57 67C57 60.3726 62.3726 55 69 55H131C137.627 55 143 60.3726 143 67V133C143 139.627 137.627 145 131 145H69C62.3726 145 57 139.627 57 133V67Z"></path>
<path fill="#417DA0" d="M38 90C38 85.5817 41.5817 82 46 82H154C158.418 82 162 85.5817 162 90V110C162 114.418 158.418 118 154 118H46C41.5817 118 38 114.418 38 110V90Z"></path>
</svg>
