<svg xmlns="http://www.w3.org/2000/svg" fill="none" viewBox="0 0 200 200" height="200" width="200">
<path fill="#417DA0" d="M83.2092 69.7793C83.2068 69.7817 83.2044 69.7841 83.202 69.7865L66.6192 86.3692C65.3338 87.6547 63.2496 87.6547 61.9641 86.3693C60.6786 85.0838 60.6786 82.9996 61.9641 81.7141L78.9375 64.7407C81.3326 62.3456 84.5812 61 87.9684 61L127.228 61C134.282 61 140 66.7181 140 73.7717L140 113.032C140 116.419 138.654 119.667 136.259 122.063L119.286 139.036C118 140.321 115.916 140.321 114.631 139.036C113.345 137.75 113.345 135.666 114.631 134.381L131.216 117.795C131.218 117.794 131.219 117.792 131.221 117.791C133.28 115.731 133.28 112.392 131.221 110.333L90.6674 69.7793C88.6079 67.7197 85.2688 67.7197 83.2092 69.7793ZM133.417 103.218L133.417 73.7717C133.417 70.354 130.646 67.5833 127.228 67.5833L97.7818 67.5833L133.417 103.218ZM96.2442 104.756C97.5297 106.041 97.5297 108.125 96.2442 109.411L66.6192 139.036C65.3338 140.321 63.2496 140.321 61.9641 139.036C60.6786 137.75 60.6786 135.666 61.9641 134.381L91.5891 104.756C92.8746 103.47 94.9587 103.47 96.2442 104.756Z" clip-rule="evenodd" fill-rule="evenodd"></path>
</svg>
