<svg xmlns="http://www.w3.org/2000/svg" fill="none" viewBox="0 0 200 200" height="200" width="200">
<path fill="#417DA0" d="M164 149V152H36V149H164ZM173 140V60C173 55.0294 168.971 51 164 51H36C31.0294 51 27 55.0294 27 60V140C27 144.971 31.0294 149 36 149V152L35.6904 151.996C29.309 151.834 24.1655 146.691 24.0039 140.31L24 140V60C24 53.4761 29.2061 48.1681 35.6904 48.0039L36 48H164C170.627 48 176 53.3726 176 60V140L175.996 140.31C175.832 146.794 170.524 152 164 152V149C168.971 149 173 144.971 173 140Z"></path>
<path fill="#C0D6E4" d="M24 60C24 53.3726 29.3726 48 36 48H164C170.627 48 176 53.3726 176 60V78H24V60Z"></path>
<path fill="#417DA0" d="M173 60C173 55.0294 168.971 51 164 51H36C31.0294 51 27 55.0294 27 60V75H173V60ZM176 78H24V60C24 53.3726 29.3726 48 36 48H164C170.627 48 176 53.3726 176 60V78Z"></path>
<path fill="#417DA0" d="M49.25 67.25H50C50.6904 67.25 51.25 67.8096 51.25 68.5C51.25 69.1904 50.6904 69.75 50 69.75H46C45.3096 69.75 44.75 69.1904 44.75 68.5C44.75 67.8096 45.3096 67.25 46 67.25H46.75V62.51H46C45.3096 62.51 44.75 61.9504 44.75 61.26C44.75 60.5696 45.3096 60.01 46 60.01H48C48.6904 60.01 49.25 60.5696 49.25 61.26V67.25ZM49.5 57.5C49.5 58.3284 48.8284 59 48 59C47.1716 59 46.5 58.3284 46.5 57.5C46.5 56.6716 47.1716 56 48 56C48.8284 56 49.5 56.6716 49.5 57.5Z"></path>
<path fill="#417DA0" d="M59 63C59 60.7909 60.9417 59 63.3368 59H157.663C160.058 59 162 60.7909 162 63V63C162 65.2091 160.058 67 157.663 67H63.3368C60.9417 67 59 65.2091 59 63V63Z"></path>
</svg>
