<svg xmlns="http://www.w3.org/2000/svg" fill="none" viewBox="0 0 200 200" height="200" width="200">
<path fill="#417DA0" d="M38.6274 70.4002C38.6274 61.0643 46.1956 53.4961 55.5315 53.4961H73.6277V88.4964H55.5315C46.1956 88.4964 38.6274 80.9282 38.6274 71.5923V70.4002ZM55.5315 59.4966C49.5096 59.4966 44.6279 64.3783 44.6279 70.4002V71.5923C44.6279 77.6142 49.5096 82.4959 55.5315 82.4959H67.6272V59.4966H55.5315Z" clip-rule="evenodd" fill-rule="evenodd"></path>
<path fill="#417DA0" d="M102.627 70.4002C102.627 61.0643 95.0593 53.4961 85.7234 53.4961H67.6272V88.4964H85.7234C95.0592 88.4964 102.627 80.9282 102.627 71.5923V70.4002ZM85.7234 59.4966C91.7453 59.4966 96.627 64.3783 96.627 70.4002V71.5923C96.627 77.6142 91.7453 82.4959 85.7234 82.4959H73.6277V59.4966H85.7234Z" clip-rule="evenodd" fill-rule="evenodd"></path>
<path fill="#417DA0" d="M102.627 99.4C102.627 90.0642 95.0592 82.4959 85.7234 82.4959H84.5313C75.1954 82.4959 67.6272 90.0641 67.6272 99.4V100.592C67.6272 109.928 75.1954 117.496 84.5312 117.496H85.7234C95.0592 117.496 102.627 109.928 102.627 100.592V99.4ZM85.7234 88.4964C91.7453 88.4964 96.627 93.3781 96.627 99.4V100.592C96.627 106.614 91.7453 111.496 85.7234 111.496H84.5312C78.5094 111.496 73.6277 106.614 73.6277 100.592V99.4C73.6277 93.3781 78.5094 88.4964 84.5313 88.4964H85.7234Z" clip-rule="evenodd" fill-rule="evenodd"></path>
<path fill="#417DA0" d="M38.6274 99.4C38.6274 90.0642 46.1956 82.4959 55.5315 82.4959H73.6277V117.496H55.5315C46.1956 117.496 38.6274 109.928 38.6274 100.592V99.4ZM55.5315 88.4964C49.5096 88.4964 44.6279 93.3781 44.6279 99.4V100.592C44.6279 106.614 49.5096 111.496 55.5315 111.496H67.6272L67.6272 88.4964H55.5315Z" clip-rule="evenodd" fill-rule="evenodd"></path>
<path fill="#417DA0" d="M38.6274 128.4C38.6274 119.064 46.1956 111.496 55.5315 111.496L73.6277 111.496V129.592C73.6277 138.928 66.0595 146.496 56.7236 146.496H55.5315C46.1956 146.496 38.6274 138.928 38.6274 129.592V128.4ZM55.5315 117.496C49.5096 117.496 44.6279 122.378 44.6279 128.4V129.592C44.6279 135.614 49.5096 140.496 55.5315 140.496H56.7236C62.7455 140.496 67.6272 135.614 67.6272 129.592V117.496L55.5315 117.496Z" clip-rule="evenodd" fill-rule="evenodd"></path>
<path fill="#417DA0" d="M128.053 84C129.719 84 131.07 82.6569 131.07 81C131.07 79.3431 129.719 78 128.053 78C126.386 78 125.035 79.3431 125.035 81C125.035 82.6569 126.386 84 128.053 84ZM128.053 90C133.052 90 137.105 85.9706 137.105 81C137.105 76.0294 133.052 72 128.053 72C123.053 72 119 76.0294 119 81C119 85.9706 123.053 90 128.053 90Z" clip-rule="evenodd" fill-rule="evenodd"></path>
<path fill="#417DA0" d="M128.807 122C130.474 122 131.825 120.657 131.825 119C131.825 117.343 130.474 116 128.807 116C127.14 116 125.789 117.343 125.789 119C125.789 120.657 127.14 122 128.807 122ZM128.807 128C133.807 128 137.86 123.971 137.86 119C137.86 114.029 133.807 110 128.807 110C123.807 110 119.754 114.029 119.754 119C119.754 123.971 123.807 128 128.807 128Z" clip-rule="evenodd" fill-rule="evenodd"></path>
<path fill="#417DA0" d="M152.947 84C154.614 84 155.965 82.6569 155.965 81C155.965 79.3431 154.614 78 152.947 78C151.281 78 149.93 79.3431 149.93 81C149.93 82.6569 151.281 84 152.947 84ZM152.947 90C157.947 90 162 85.9706 162 81C162 76.0294 157.947 72 152.947 72C147.948 72 143.895 76.0294 143.895 81C143.895 85.9706 147.948 90 152.947 90Z" clip-rule="evenodd" fill-rule="evenodd"></path>
<path fill="#417DA0" d="M128.304 85C129.971 85 131.322 86.3431 131.322 88V111C131.322 112.657 129.971 114 128.304 114C126.638 114 125.287 112.657 125.287 111V88C125.287 86.3431 126.638 85 128.304 85Z" clip-rule="evenodd" fill-rule="evenodd"></path>
<path fill="#417DA0" d="M152.947 86C154.614 86 155.965 87.3431 155.965 89V90.8571C155.965 99.7726 148.695 107 139.728 107H128.807C127.14 107 125.789 105.657 125.789 104C125.789 102.343 127.14 101 128.807 101H139.728C145.362 101 149.93 96.4589 149.93 90.8571V89C149.93 87.3431 151.281 86 152.947 86Z" clip-rule="evenodd" fill-rule="evenodd"></path>
</svg>
