<svg xmlns="http://www.w3.org/2000/svg" fill="none" viewBox="0 0 200 200" height="200" width="200">
<path fill="#417DA0" d="M100.705 149.402C112.083 108.419 111.753 108.236 119.974 79.021L121.95 80.171C123.025 80.7936 123.903 80.2808 123.903 79.0356V65.1075C126.084 57.4091 127.796 51.4613 128.293 49.6704H137.202L152 63.485L142.283 71.9452L149.637 79.9512L101.192 149.402C100.954 149.793 100.625 149.706 100.698 149.402H100.705Z" clip-rule="evenodd" fill-rule="evenodd"></path>
<path fill="#417DA0" d="M105.999 61.0773C106.438 61.0773 106.792 61.3191 106.792 61.6267V68.7684C106.792 69.0614 106.463 69.3105 106.024 69.3105H94.0611C93.6221 69.3105 93.2563 69.0651 93.2563 68.7611V61.6194C93.2563 61.3191 93.6221 61.0773 94.0611 61.0773H106.024H105.999ZM120.764 53.1665L107.601 60.821C107.755 61.059 107.846 61.3337 107.846 61.6267V68.7684C107.846 69.1347 107.7 69.4643 107.444 69.739L120.724 77.4667C121.602 77.9977 122.37 77.5655 122.37 76.5144V54.1297C122.37 53.075 121.602 52.6428 120.724 53.1702L120.764 53.1665ZM92.1807 68.7684V61.6267C92.1807 61.3337 92.2721 61.059 92.4221 60.821L79.2591 53.1665C78.3554 52.6428 77.6128 53.075 77.6128 54.1261V76.5034C77.6128 77.5655 78.3518 77.9684 79.2591 77.4557L92.5575 69.728C92.3197 69.435 92.177 69.1054 92.177 68.7391L92.1807 68.7684Z" clip-rule="evenodd" fill-rule="evenodd"></path>
<path fill="#417DA0" d="M98.8011 149.402H99.2913C87.9136 108.42 88.2428 108.237 80.026 79.0215L78.0504 80.1715C76.9748 80.7941 76.0932 80.2814 76.0932 79.0361V65.108C73.9017 57.4059 72.1823 51.4582 71.6701 49.6636H62.7801L48 63.4819L57.7132 71.942L50.3597 79.9481L98.7974 149.387L98.8011 149.402Z" clip-rule="evenodd" fill-rule="evenodd"></path>
<path fill="#417DA0" d="M103.253 80.6012C103.253 78.6149 101.635 77.0047 99.6389 77.0047C97.6426 77.0047 96.0243 78.6149 96.0243 80.6012C96.0243 82.5875 97.6426 84.1977 99.6389 84.1977C101.635 84.1977 103.253 82.5875 103.253 80.6012Z"></path>
<path fill="#417DA0" d="M103.253 102.121C103.253 100.135 101.635 98.5248 99.6389 98.5248C97.6426 98.5248 96.0243 100.135 96.0243 102.121C96.0243 104.108 97.6426 105.718 99.6389 105.718C101.635 105.718 103.253 104.108 103.253 102.121Z"></path>
<path fill="#417DA0" d="M103.476 123.508C103.476 121.521 101.858 119.911 99.8619 119.911C97.8656 119.911 96.2474 121.521 96.2474 123.508C96.2474 125.494 97.8656 127.104 99.8619 127.104C101.858 127.104 103.476 125.494 103.476 123.508Z"></path>
</svg>
