<svg xmlns="http://www.w3.org/2000/svg" fill="none" viewBox="0 0 200 200" height="200" width="200">
<path fill="#417DA0" d="M108 93C108 88.0294 112.029 84 117 84H131C135.971 84 140 88.0294 140 93V107C140 111.971 135.971 116 131 116H117C112.029 116 108 111.971 108 107V93Z"></path>
<rect fill="#EEF6FC" rx="6" height="12" width="12" y="94" x="118"></rect>
<rect fill="#417DA0" rx="6" height="12" width="12" y="94" x="60"></rect>
<rect fill="#417DA0" rx="6" height="12" width="12" y="94" x="84"></rect>
<path fill="#417DA0" d="M161.043 105.957C160.652 105.567 160.652 104.933 161.043 104.543L165.836 99.75L161.043 94.9571C160.652 94.5666 160.652 93.9334 161.043 93.5429C161.433 93.1524 162.067 93.1524 162.457 93.5429L167.957 99.0429C168.348 99.4334 168.348 100.067 167.957 100.457L162.457 105.957C162.067 106.348 161.433 106.348 161.043 105.957Z" clip-rule="evenodd" fill-rule="evenodd"></path>
<path fill="#417DA0" d="M39.9571 93.5429C40.3476 93.9334 40.3476 94.5666 39.9571 94.9571L35.1642 99.75L39.9571 104.543C40.3476 104.933 40.3476 105.567 39.9571 105.957C39.5666 106.348 38.9334 106.348 38.5429 105.957L33.0429 100.457C32.6524 100.067 32.6524 99.4334 33.0429 99.0429L38.5429 93.5429C38.9334 93.1524 39.5666 93.1524 39.9571 93.5429Z" clip-rule="evenodd" fill-rule="evenodd"></path>
</svg>
