<svg xmlns="http://www.w3.org/2000/svg" fill="none" viewBox="0 0 200 200" height="200" width="200">
<path fill="#417DA0" d="M24 100C24 93.3726 29.3726 88 36 88H82C88.6274 88 94 93.3726 94 100C94 106.627 88.6274 112 82 112H36C29.3726 112 24 106.627 24 100Z"></path>
<path fill="white" d="M48 100C48 103.866 44.866 107 41 107C37.134 107 34 103.866 34 100C34 96.134 37.134 93 41 93C44.866 93 48 96.134 48 100Z"></path>
<path fill="white" d="M106 100C106 93.3726 111.373 88 118 88H164C170.627 88 176 93.3726 176 100C176 106.627 170.627 112 164 112H118C111.373 112 106 106.627 106 100Z"></path>
<mask fill="white" id="path-4-inside-1_4412_3243">
<path d="M164 110V112H118V110H164ZM174 100C174 94.4772 169.523 90 164 90H118C112.477 90 108 94.4772 108 100C108 105.523 112.477 110 118 110V112L117.69 111.996C111.206 111.832 106 106.524 106 100C106 93.3726 111.373 88 118 88H164C170.627 88 176 93.3726 176 100C176 106.627 170.627 112 164 112V110C169.523 110 174 105.523 174 100Z"></path>
</mask>
<path mask="url(#path-4-inside-1_4412_3243)" fill-opacity="0.247059" fill="#005A92" d="M118 112L117.621 141.998L117.811 142H118V112ZM117.69 111.996L116.931 141.986L117.121 141.991L117.312 141.994L117.69 111.996ZM164 110H134V112H164H194V110H164ZM164 112V82H118V112V142H164V112ZM118 112H148V110H118H88V112H118ZM118 110V140H164V110V80H118V110ZM174 100H204C204 77.9086 186.091 60 164 60V90V120C152.954 120 144 111.046 144 100H174ZM164 90V60H118V90V120H164V90ZM118 90V60C95.9086 60 78 77.9086 78 100H108H138C138 111.046 129.046 120 118 120V90ZM108 100H78C78 122.091 95.9086 140 118 140V110V80C129.046 80 138 88.9543 138 100H108ZM118 110H88V112H118H148V110H118ZM118 112L118.379 82.0024L118.069 81.9985L117.69 111.996L117.312 141.994L117.621 141.998L118 112ZM117.69 111.996L118.45 82.0057C128.192 82.2524 136 90.2098 136 100H106H76C76 122.838 94.2206 141.411 116.931 141.986L117.69 111.996ZM106 100H136C136 109.941 127.941 118 118 118V88V58C94.804 58 76 76.804 76 100H106ZM118 88V118H164V88V58H118V88ZM164 88V118C154.059 118 146 109.941 146 100H176H206C206 76.804 187.196 58 164 58V88ZM176 100H146C146 90.0589 154.059 82 164 82V112V142C187.196 142 206 123.196 206 100H176ZM164 112H194V110H164H134V112H164ZM164 110V140C186.091 140 204 122.091 204 100H174H144C144 88.9543 152.954 80 164 80V110Z"></path>
<path fill="#417DA0" d="M44.6783 97.2652C45.0841 97.6398 45.1094 98.2725 44.7348 98.6783L41.0425 102.678C40.8601 102.876 40.6059 102.992 40.3371 103C40.0684 103.007 39.8077 102.907 39.6141 102.72L37.3064 100.498C36.9085 100.115 36.8966 99.482 37.2797 99.0841C37.6628 98.6863 38.2958 98.6744 38.6936 99.0575L40.2656 100.571L43.2652 97.3217C43.6398 96.9159 44.2725 96.8906 44.6783 97.2652Z" clip-rule="evenodd" fill-rule="evenodd"></path>
<path fill="#C0D6E4" d="M54 100C54 98.3431 55.3431 97 57 97H82C83.6569 97 85 98.3431 85 100C85 101.657 83.6569 103 82 103H57C55.3431 103 54 101.657 54 100Z"></path>
<path fill="#C0D6E4" d="M136 100C136 98.3431 137.343 97 139 97H164C165.657 97 167 98.3431 167 100C167 101.657 165.657 103 164 103H139C137.343 103 136 101.657 136 100Z"></path>
<path fill="#417DA0" d="M123 105C125.761 105 128 102.761 128 100C128 97.2386 125.761 95 123 95C120.239 95 118 97.2386 118 100C118 102.761 120.239 105 123 105ZM123 107C126.866 107 130 103.866 130 100C130 96.134 126.866 93 123 93C119.134 93 116 96.134 116 100C116 103.866 119.134 107 123 107Z" clip-rule="evenodd" fill-rule="evenodd"></path>
</svg>
