<svg xmlns="http://www.w3.org/2000/svg" fill="none" viewBox="0 0 200 200" height="200" width="200">
<path fill="white" d="M24 68C24 61.3726 29.3726 56 36 56H164C170.627 56 176 61.3726 176 68V132C176 138.627 170.627 144 164 144H36C29.3726 144 24 138.627 24 132V68Z"></path>
<mask fill="white" id="path-2-inside-1_4412_3236">
<path d="M164 142V144H36V142H164ZM174 132V68C174 62.4772 169.523 58 164 58H36C30.4772 58 26 62.4772 26 68V132C26 137.523 30.4772 142 36 142V144C29.3726 144 24 138.627 24 132V68C24 61.3726 29.3726 56 36 56H164C170.627 56 176 61.3726 176 68V132C176 138.627 170.627 144 164 144V142C169.523 142 174 137.523 174 132Z"></path>
</mask>
<path mask="url(#path-2-inside-1_4412_3236)" fill-opacity="0.247059" fill="#005A92" d="M164 142H114V144H164H214V142H164ZM164 144V94H36V144V194H164V144ZM36 144H86V142H36H-14V144H36ZM36 142V192H164V142V92H36V142ZM174 132H224V68H174H124V132H174ZM174 68H224C224 34.8629 197.137 8 164 8V58V108C141.909 108 124 90.0914 124 68H174ZM164 58V8H36V58V108H164V58ZM36 58V8C2.86291 8 -24 34.8629 -24 68H26H76C76 90.0914 58.0914 108 36 108V58ZM26 68H-24V132H26H76V68H26ZM26 132H-24C-24 165.137 2.86292 192 36 192V142V92C58.0914 92 76 109.909 76 132H26ZM36 142H-14V144H36H86V142H36ZM36 144V94C56.9868 94 74 111.013 74 132H24H-26C-26 166.242 1.75835 194 36 194V144ZM24 132H74V68H24H-26V132H24ZM24 68H74C74 88.9868 56.9868 106 36 106V56V6C1.75835 6 -26 33.7583 -26 68H24ZM36 56V106H164V56V6H36V56ZM164 56V106C143.013 106 126 88.9868 126 68H176H226C226 33.7583 198.242 6 164 6V56ZM176 68H126V132H176H226V68H176ZM176 132H126C126 111.013 143.013 94 164 94V144V194C198.242 194 226 166.242 226 132H176ZM164 144H214V142H164H114V144H164ZM164 142V192C197.137 192 224 165.137 224 132H174H124C124 109.909 141.909 92 164 92V142Z"></path>
<path fill="#E3EFF7" d="M36 80C36 73.3726 41.3726 68 48 68H152C158.627 68 164 73.3726 164 80V120C164 126.627 158.627 132 152 132H48C41.3726 132 36 126.627 36 120V80Z"></path>
<path fill="#417DA0" d="M48 69.5C47.5338 69.5 47.0755 69.5303 46.6267 69.5888C45.8052 69.696 45.0524 69.1169 44.9453 68.2954C44.8381 67.474 45.4172 66.7212 46.2387 66.614C46.8158 66.5387 47.4037 66.5 48 66.5H49.9259C50.7544 66.5 51.4259 67.1716 51.4259 68C51.4259 68.8284 50.7544 69.5 49.9259 69.5H48ZM56.1296 68C56.1296 67.1716 56.8012 66.5 57.6296 66.5H61.4815C62.3099 66.5 62.9815 67.1716 62.9815 68C62.9815 68.8284 62.3099 69.5 61.4815 69.5H57.6296C56.8012 69.5 56.1296 68.8284 56.1296 68ZM67.6852 68C67.6852 67.1716 68.3568 66.5 69.1852 66.5H73.037C73.8655 66.5 74.537 67.1716 74.537 68C74.537 68.8284 73.8655 69.5 73.037 69.5H69.1852C68.3568 69.5 67.6852 68.8284 67.6852 68ZM79.2407 68C79.2407 67.1716 79.9123 66.5 80.7407 66.5H84.5926C85.421 66.5 86.0926 67.1716 86.0926 68C86.0926 68.8284 85.421 69.5 84.5926 69.5H80.7407C79.9123 69.5 79.2407 68.8284 79.2407 68ZM90.7963 68C90.7963 67.1716 91.4679 66.5 92.2963 66.5H96.1482C96.9766 66.5 97.6482 67.1716 97.6482 68C97.6482 68.8284 96.9766 69.5 96.1482 69.5H92.2963C91.4679 69.5 90.7963 68.8284 90.7963 68ZM102.352 68C102.352 67.1716 103.023 66.5 103.852 66.5H107.704C108.532 66.5 109.204 67.1716 109.204 68C109.204 68.8284 108.532 69.5 107.704 69.5H103.852C103.023 69.5 102.352 68.8284 102.352 68ZM113.907 68C113.907 67.1716 114.579 66.5 115.407 66.5H119.259C120.088 66.5 120.759 67.1716 120.759 68C120.759 68.8284 120.088 69.5 119.259 69.5H115.407C114.579 69.5 113.907 68.8284 113.907 68ZM125.463 68C125.463 67.1716 126.135 66.5 126.963 66.5H130.815C131.643 66.5 132.315 67.1716 132.315 68C132.315 68.8284 131.643 69.5 130.815 69.5H126.963C126.135 69.5 125.463 68.8284 125.463 68ZM137.019 68C137.019 67.1716 137.69 66.5 138.519 66.5H142.37C143.199 66.5 143.87 67.1716 143.87 68C143.87 68.8284 143.199 69.5 142.37 69.5H138.519C137.69 69.5 137.019 68.8284 137.019 68ZM148.574 68C148.574 67.1716 149.246 66.5 150.074 66.5H152C152.596 66.5 153.184 66.5387 153.761 66.614C154.583 66.7212 155.162 67.474 155.055 68.2954C154.948 69.1169 154.195 69.696 153.373 69.5888C152.924 69.5303 152.466 69.5 152 69.5H150.074C149.246 69.5 148.574 68.8284 148.574 68ZM41.884 69.5652C42.3888 70.2221 42.2655 71.1638 41.6086 71.6686C40.8807 72.228 40.228 72.8806 39.6686 73.6086C39.1638 74.2655 38.2221 74.3888 37.5652 73.884C36.9083 73.3792 36.785 72.4375 37.2898 71.7806C38.0081 70.8459 38.8459 70.0081 39.7806 69.2898C40.4375 68.785 41.3792 68.9083 41.884 69.5652ZM158.116 69.5652C158.621 68.9083 159.563 68.785 160.219 69.2898C161.154 70.0081 161.992 70.8459 162.71 71.7806C163.215 72.4375 163.092 73.3792 162.435 73.884C161.778 74.3888 160.836 74.2655 160.331 73.6086C159.772 72.8807 159.119 72.228 158.391 71.6686C157.735 71.1638 157.611 70.2221 158.116 69.5652ZM36.2954 76.9453C37.1169 77.0524 37.696 77.8052 37.5888 78.6267C37.5303 79.0755 37.5 79.5338 37.5 80V82.2222C37.5 83.0506 36.8284 83.7222 36 83.7222C35.1716 83.7222 34.5 83.0506 34.5 82.2222V80C34.5 79.4037 34.5387 78.8158 34.614 78.2387C34.7212 77.4172 35.474 76.8381 36.2954 76.9453ZM163.705 76.9453C164.526 76.8381 165.279 77.4172 165.386 78.2387C165.461 78.8158 165.5 79.4037 165.5 80V82.2222C165.5 83.0506 164.828 83.7222 164 83.7222C163.172 83.7222 162.5 83.0506 162.5 82.2222V80C162.5 79.5338 162.47 79.0755 162.411 78.6267C162.304 77.8052 162.883 77.0524 163.705 76.9453ZM36 89.6111C36.8284 89.6111 37.5 90.2827 37.5 91.1111V95.5556C37.5 96.384 36.8284 97.0556 36 97.0556C35.1716 97.0556 34.5 96.384 34.5 95.5556V91.1111C34.5 90.2827 35.1716 89.6111 36 89.6111ZM164 89.6111C164.828 89.6111 165.5 90.2827 165.5 91.1111V95.5556C165.5 96.384 164.828 97.0556 164 97.0556C163.172 97.0556 162.5 96.384 162.5 95.5556V91.1111C162.5 90.2827 163.172 89.6111 164 89.6111ZM36 102.944C36.8284 102.944 37.5 103.616 37.5 104.444V108.889C37.5 109.717 36.8284 110.389 36 110.389C35.1716 110.389 34.5 109.717 34.5 108.889V104.444C34.5 103.616 35.1716 102.944 36 102.944ZM164 102.944C164.828 102.944 165.5 103.616 165.5 104.444V108.889C165.5 109.717 164.828 110.389 164 110.389C163.172 110.389 162.5 109.717 162.5 108.889V104.444C162.5 103.616 163.172 102.944 164 102.944ZM36 116.278C36.8284 116.278 37.5 116.949 37.5 117.778V120C37.5 120.466 37.5303 120.924 37.5888 121.373C37.696 122.195 37.1169 122.948 36.2954 123.055C35.474 123.162 34.7212 122.583 34.614 121.761C34.5387 121.184 34.5 120.596 34.5 120V117.778C34.5 116.949 35.1716 116.278 36 116.278ZM164 116.278C164.828 116.278 165.5 116.949 165.5 117.778V120C165.5 120.596 165.461 121.184 165.386 121.761C165.279 122.583 164.526 123.162 163.705 123.055C162.883 122.948 162.304 122.195 162.411 121.373C162.47 120.924 162.5 120.466 162.5 120V117.778C162.5 116.949 163.172 116.278 164 116.278ZM37.5652 126.116C38.2221 125.611 39.1638 125.735 39.6686 126.391C40.228 127.119 40.8806 127.772 41.6086 128.331C42.2655 128.836 42.3888 129.778 41.884 130.435C41.3792 131.092 40.4375 131.215 39.7806 130.71C38.8459 129.992 38.0081 129.154 37.2898 128.219C36.785 127.563 36.9083 126.621 37.5652 126.116ZM162.435 126.116C163.092 126.621 163.215 127.563 162.71 128.219C161.992 129.154 161.154 129.992 160.219 130.71C159.563 131.215 158.621 131.092 158.116 130.435C157.611 129.778 157.735 128.836 158.391 128.331C159.119 127.772 159.772 127.119 160.331 126.391C160.836 125.735 161.778 125.611 162.435 126.116ZM44.9453 131.705C45.0524 130.883 45.8052 130.304 46.6267 130.411C47.0755 130.47 47.5338 130.5 48 130.5H49.9259C50.7543 130.5 51.4259 131.172 51.4259 132C51.4259 132.828 50.7543 133.5 49.9259 133.5H48C47.4037 133.5 46.8158 133.461 46.2387 133.386C45.4172 133.279 44.8381 132.526 44.9453 131.705ZM155.055 131.705C155.162 132.526 154.583 133.279 153.761 133.386C153.184 133.461 152.596 133.5 152 133.5H150.074C149.246 133.5 148.574 132.828 148.574 132C148.574 131.172 149.246 130.5 150.074 130.5H152C152.466 130.5 152.924 130.47 153.373 130.411C154.195 130.304 154.948 130.883 155.055 131.705ZM56.1296 132C56.1296 131.172 56.8012 130.5 57.6296 130.5H61.4815C62.3099 130.5 62.9815 131.172 62.9815 132C62.9815 132.828 62.3099 133.5 61.4815 133.5H57.6296C56.8012 133.5 56.1296 132.828 56.1296 132ZM67.6852 132C67.6852 131.172 68.3568 130.5 69.1852 130.5H73.037C73.8655 130.5 74.537 131.172 74.537 132C74.537 132.828 73.8655 133.5 73.037 133.5H69.1852C68.3568 133.5 67.6852 132.828 67.6852 132ZM79.2407 132C79.2407 131.172 79.9123 130.5 80.7407 130.5H84.5926C85.421 130.5 86.0926 131.172 86.0926 132C86.0926 132.828 85.421 133.5 84.5926 133.5H80.7407C79.9123 133.5 79.2407 132.828 79.2407 132ZM90.7963 132C90.7963 131.172 91.4679 130.5 92.2963 130.5H96.1481C96.9766 130.5 97.6481 131.172 97.6481 132C97.6481 132.828 96.9766 133.5 96.1481 133.5H92.2963C91.4679 133.5 90.7963 132.828 90.7963 132ZM102.352 132C102.352 131.172 103.023 130.5 103.852 130.5H107.704C108.532 130.5 109.204 131.172 109.204 132C109.204 132.828 108.532 133.5 107.704 133.5H103.852C103.023 133.5 102.352 132.828 102.352 132ZM113.907 132C113.907 131.172 114.579 130.5 115.407 130.5H119.259C120.088 130.5 120.759 131.172 120.759 132C120.759 132.828 120.088 133.5 119.259 133.5H115.407C114.579 133.5 113.907 132.828 113.907 132ZM125.463 132C125.463 131.172 126.135 130.5 126.963 130.5H130.815C131.643 130.5 132.315 131.172 132.315 132C132.315 132.828 131.643 133.5 130.815 133.5H126.963C126.135 133.5 125.463 132.828 125.463 132ZM137.019 132C137.019 131.172 137.69 130.5 138.519 130.5H142.37C143.199 130.5 143.87 131.172 143.87 132C143.87 132.828 143.199 133.5 142.37 133.5H138.519C137.69 133.5 137.019 132.828 137.019 132Z" clip-rule="evenodd" fill-rule="evenodd"></path>
</svg>
