<svg xmlns="http://www.w3.org/2000/svg" fill="none" viewBox="0 0 384 200" height="200" width="384">
<path fill="#262626" d="M74.78 106L71 94.192H72.602L74.492 100.564C74.708 101.26 74.894 101.914 75.05 102.526C75.218 103.126 75.416 103.774 75.644 104.47H75.716C75.932 103.774 76.124 103.126 76.292 102.526C76.46 101.914 76.646 101.26 76.85 100.564L78.74 94.192H80.27L76.526 106H74.78ZM83.3514 106.216C82.6194 106.216 82.0074 106 81.5154 105.568C81.0354 105.124 80.7954 104.512 80.7954 103.732C80.7954 102.772 81.2214 102.04 82.0734 101.536C82.9374 101.02 84.2994 100.66 86.1594 100.456C86.1594 100.084 86.1054 99.73 85.9974 99.394C85.9014 99.058 85.7214 98.788 85.4574 98.584C85.2054 98.368 84.8394 98.26 84.3594 98.26C83.8554 98.26 83.3814 98.356 82.9374 98.548C82.4934 98.74 82.0974 98.956 81.7494 99.196L81.1734 98.17C81.5814 97.906 82.0794 97.654 82.6674 97.414C83.2674 97.162 83.9154 97.036 84.6114 97.036C85.6794 97.036 86.4534 97.366 86.9334 98.026C87.4134 98.674 87.6534 99.544 87.6534 100.636V106H86.4294L86.3034 104.956H86.2494C85.8414 105.292 85.3914 105.586 84.8994 105.838C84.4194 106.09 83.9034 106.216 83.3514 106.216ZM83.7834 105.028C84.2034 105.028 84.5994 104.926 84.9714 104.722C85.3434 104.518 85.7394 104.23 86.1594 103.858V101.428C84.7074 101.608 83.6874 101.878 83.0994 102.238C82.5234 102.598 82.2354 103.06 82.2354 103.624C82.2354 104.116 82.3854 104.476 82.6854 104.704C82.9854 104.92 83.3514 105.028 83.7834 105.028ZM90.4057 106V97.252H91.6297L91.7557 98.836H91.8097C92.1097 98.284 92.4757 97.846 92.9077 97.522C93.3397 97.198 93.8017 97.036 94.2937 97.036C94.6417 97.036 94.9537 97.096 95.2297 97.216L94.9417 98.512C94.7977 98.464 94.6657 98.428 94.5457 98.404C94.4257 98.38 94.2757 98.368 94.0957 98.368C93.7237 98.368 93.3337 98.518 92.9257 98.818C92.5297 99.118 92.1817 99.64 91.8817 100.384V106H90.4057ZM98.8616 106.216C98.2376 106.216 97.6436 106.102 97.0796 105.874C96.5156 105.634 96.0236 105.346 95.6036 105.01L96.3416 104.02C96.7256 104.32 97.1216 104.572 97.5296 104.776C97.9376 104.968 98.3996 105.064 98.9156 105.064C99.4916 105.064 99.9236 104.932 100.212 104.668C100.5 104.392 100.644 104.068 100.644 103.696C100.644 103.396 100.542 103.144 100.338 102.94C100.146 102.736 99.8936 102.568 99.5816 102.436C99.2816 102.292 98.9696 102.16 98.6456 102.04C98.2376 101.884 97.8356 101.71 97.4396 101.518C97.0436 101.314 96.7196 101.056 96.4676 100.744C96.2156 100.42 96.0896 100.012 96.0896 99.52C96.0896 98.812 96.3536 98.224 96.8816 97.756C97.4216 97.276 98.1656 97.036 99.1136 97.036C99.6536 97.036 100.158 97.132 100.626 97.324C101.094 97.516 101.496 97.75 101.832 98.026L101.112 98.962C100.812 98.734 100.5 98.548 100.176 98.404C99.8516 98.26 99.4976 98.188 99.1136 98.188C98.5616 98.188 98.1536 98.314 97.8896 98.566C97.6376 98.818 97.5116 99.112 97.5116 99.448C97.5116 99.724 97.6016 99.952 97.7816 100.132C97.9616 100.3 98.1956 100.45 98.4836 100.582C98.7716 100.702 99.0776 100.828 99.4016 100.96C99.8216 101.116 100.236 101.296 100.644 101.5C101.052 101.692 101.388 101.956 101.652 102.292C101.928 102.616 102.066 103.054 102.066 103.606C102.066 104.074 101.94 104.506 101.688 104.902C101.448 105.298 101.088 105.616 100.608 105.856C100.14 106.096 99.5576 106.216 98.8616 106.216ZM105.683 106.216C105.131 106.216 104.729 106.048 104.477 105.712C104.237 105.364 104.117 104.872 104.117 104.236V93.184H105.593V104.344C105.593 104.572 105.635 104.74 105.719 104.848C105.803 104.944 105.899 104.992 106.007 104.992C106.055 104.992 106.097 104.992 106.133 104.992C106.181 104.98 106.247 104.968 106.331 104.956L106.529 106.072C106.433 106.12 106.319 106.156 106.187 106.18C106.055 106.204 105.887 106.216 105.683 106.216ZM112.251 106.216C111.471 106.216 110.763 106.036 110.127 105.676C109.491 105.304 108.987 104.776 108.615 104.092C108.243 103.408 108.057 102.592 108.057 101.644C108.057 100.684 108.243 99.862 108.615 99.178C108.999 98.494 109.491 97.966 110.091 97.594C110.691 97.222 111.321 97.036 111.981 97.036C113.097 97.036 113.955 97.408 114.555 98.152C115.167 98.896 115.473 99.892 115.473 101.14C115.473 101.296 115.467 101.452 115.455 101.608C115.455 101.752 115.443 101.878 115.419 101.986H109.515C109.575 102.91 109.863 103.648 110.379 104.2C110.907 104.752 111.591 105.028 112.431 105.028C112.851 105.028 113.235 104.968 113.583 104.848C113.943 104.716 114.285 104.548 114.609 104.344L115.131 105.316C114.759 105.556 114.333 105.766 113.853 105.946C113.385 106.126 112.851 106.216 112.251 106.216ZM109.497 100.924H114.177C114.177 100.036 113.985 99.364 113.601 98.908C113.229 98.44 112.701 98.206 112.017 98.206C111.405 98.206 110.853 98.446 110.361 98.926C109.881 99.394 109.593 100.06 109.497 100.924ZM121.238 106V97.252H122.462L122.588 98.512H122.642C123.026 98.092 123.446 97.744 123.902 97.468C124.358 97.18 124.844 97.036 125.36 97.036C126.032 97.036 126.554 97.186 126.926 97.486C127.31 97.774 127.592 98.182 127.772 98.71C128.228 98.218 128.69 97.816 129.158 97.504C129.626 97.192 130.124 97.036 130.652 97.036C131.552 97.036 132.218 97.33 132.65 97.918C133.094 98.494 133.316 99.34 133.316 100.456V106H131.84V100.654C131.84 99.838 131.708 99.244 131.444 98.872C131.18 98.5 130.772 98.314 130.22 98.314C129.572 98.314 128.84 98.764 128.024 99.664V106H126.548V100.654C126.548 99.838 126.416 99.244 126.152 98.872C125.888 98.5 125.474 98.314 124.91 98.314C124.262 98.314 123.53 98.764 122.714 99.664V106H121.238ZM139.708 106.216C138.928 106.216 138.22 106.036 137.584 105.676C136.948 105.304 136.444 104.776 136.072 104.092C135.7 103.408 135.514 102.592 135.514 101.644C135.514 100.684 135.7 99.862 136.072 99.178C136.456 98.494 136.948 97.966 137.548 97.594C138.148 97.222 138.778 97.036 139.438 97.036C140.554 97.036 141.412 97.408 142.012 98.152C142.624 98.896 142.93 99.892 142.93 101.14C142.93 101.296 142.924 101.452 142.912 101.608C142.912 101.752 142.9 101.878 142.876 101.986H136.972C137.032 102.91 137.32 103.648 137.836 104.2C138.364 104.752 139.048 105.028 139.888 105.028C140.308 105.028 140.692 104.968 141.04 104.848C141.4 104.716 141.742 104.548 142.066 104.344L142.588 105.316C142.216 105.556 141.79 105.766 141.31 105.946C140.842 106.126 140.308 106.216 139.708 106.216ZM136.954 100.924H141.634C141.634 100.036 141.442 99.364 141.058 98.908C140.686 98.44 140.158 98.206 139.474 98.206C138.862 98.206 138.31 98.446 137.818 98.926C137.338 99.394 137.05 100.06 136.954 100.924ZM148.079 106.216C146.987 106.216 146.111 105.82 145.451 105.028C144.791 104.224 144.461 103.096 144.461 101.644C144.461 100.696 144.635 99.88 144.983 99.196C145.343 98.5 145.811 97.966 146.387 97.594C146.975 97.222 147.599 97.036 148.259 97.036C148.763 97.036 149.201 97.126 149.573 97.306C149.945 97.486 150.323 97.732 150.707 98.044L150.635 96.55V93.184H152.129V106H150.905L150.779 104.974H150.725C150.389 105.31 149.993 105.604 149.537 105.856C149.081 106.096 148.595 106.216 148.079 106.216ZM148.403 104.974C149.171 104.974 149.915 104.572 150.635 103.768V99.196C150.263 98.86 149.903 98.626 149.555 98.494C149.219 98.35 148.871 98.278 148.511 98.278C148.043 98.278 147.617 98.422 147.233 98.71C146.861 98.986 146.561 99.376 146.333 99.88C146.105 100.372 145.991 100.954 145.991 101.626C145.991 102.67 146.201 103.492 146.621 104.092C147.041 104.68 147.635 104.974 148.403 104.974ZM162.099 106.216C161.271 106.216 160.503 106.06 159.795 105.748C159.087 105.424 158.475 104.998 157.959 104.47L158.859 103.426C159.279 103.87 159.771 104.23 160.335 104.506C160.911 104.77 161.505 104.902 162.117 104.902C162.897 104.902 163.503 104.728 163.935 104.38C164.367 104.02 164.583 103.552 164.583 102.976C164.583 102.568 164.493 102.244 164.313 102.004C164.145 101.764 163.911 101.56 163.611 101.392C163.323 101.224 162.993 101.056 162.621 100.888L160.929 100.15C160.557 99.994 160.185 99.79 159.813 99.538C159.453 99.286 159.147 98.962 158.895 98.566C158.655 98.17 158.535 97.684 158.535 97.108C158.535 96.508 158.691 95.974 159.003 95.506C159.327 95.026 159.771 94.654 160.335 94.39C160.899 94.114 161.535 93.976 162.243 93.976C162.951 93.976 163.605 94.114 164.205 94.39C164.805 94.654 165.315 95.002 165.735 95.434L164.925 96.406C164.565 96.058 164.163 95.788 163.719 95.596C163.287 95.392 162.795 95.29 162.243 95.29C161.583 95.29 161.049 95.446 160.641 95.758C160.245 96.07 160.047 96.49 160.047 97.018C160.047 97.39 160.143 97.702 160.335 97.954C160.539 98.194 160.791 98.392 161.091 98.548C161.391 98.704 161.697 98.848 162.009 98.98L163.683 99.7C164.139 99.892 164.547 100.126 164.907 100.402C165.279 100.666 165.573 100.996 165.789 101.392C166.005 101.776 166.113 102.262 166.113 102.85C166.113 103.474 165.951 104.044 165.627 104.56C165.303 105.064 164.841 105.466 164.241 105.766C163.641 106.066 162.927 106.216 162.099 106.216ZM168.438 106V94.192H170.238L172.506 100.492C172.65 100.9 172.788 101.314 172.92 101.734C173.064 102.142 173.208 102.55 173.352 102.958H173.424C173.568 102.55 173.7 102.142 173.82 101.734C173.952 101.314 174.09 100.9 174.234 100.492L176.466 94.192H178.284V106H176.88V99.502C176.88 98.974 176.904 98.392 176.952 97.756C177 97.108 177.042 96.526 177.078 96.01H177.006L176.07 98.692L173.838 104.812H172.848L170.616 98.692L169.68 96.01H169.608C169.644 96.526 169.68 97.108 169.716 97.756C169.764 98.392 169.788 98.974 169.788 99.502V106H168.438ZM184.792 106.216C183.964 106.216 183.196 106.06 182.488 105.748C181.78 105.424 181.168 104.998 180.652 104.47L181.552 103.426C181.972 103.87 182.464 104.23 183.028 104.506C183.604 104.77 184.198 104.902 184.81 104.902C185.59 104.902 186.196 104.728 186.628 104.38C187.06 104.02 187.276 103.552 187.276 102.976C187.276 102.568 187.186 102.244 187.006 102.004C186.838 101.764 186.604 101.56 186.304 101.392C186.016 101.224 185.686 101.056 185.314 100.888L183.622 100.15C183.25 99.994 182.878 99.79 182.506 99.538C182.146 99.286 181.84 98.962 181.588 98.566C181.348 98.17 181.228 97.684 181.228 97.108C181.228 96.508 181.384 95.974 181.696 95.506C182.02 95.026 182.464 94.654 183.028 94.39C183.592 94.114 184.228 93.976 184.936 93.976C185.644 93.976 186.298 94.114 186.898 94.39C187.498 94.654 188.008 95.002 188.428 95.434L187.618 96.406C187.258 96.058 186.856 95.788 186.412 95.596C185.98 95.392 185.488 95.29 184.936 95.29C184.276 95.29 183.742 95.446 183.334 95.758C182.938 96.07 182.74 96.49 182.74 97.018C182.74 97.39 182.836 97.702 183.028 97.954C183.232 98.194 183.484 98.392 183.784 98.548C184.084 98.704 184.39 98.848 184.702 98.98L186.376 99.7C186.832 99.892 187.24 100.126 187.6 100.402C187.972 100.666 188.266 100.996 188.482 101.392C188.698 101.776 188.806 102.262 188.806 102.85C188.806 103.474 188.644 104.044 188.32 104.56C187.996 105.064 187.534 105.466 186.934 105.766C186.334 106.066 185.62 106.216 184.792 106.216Z"></path>
<rect fill="#06893A" rx="12" height="24" width="44" y="88" x="269"></rect>
<rect fill="white" rx="10" height="20" width="20" y="90" x="291"></rect>
<path fill="#007C2E" d="M306.767 95.6478C307.376 96.2097 307.414 97.1587 306.852 97.7674L300.852 104.267C300.575 104.567 300.188 104.742 299.78 104.75C299.372 104.758 298.978 104.599 298.689 104.311L296.189 101.811C295.604 101.225 295.604 100.275 296.189 99.6893C296.775 99.1036 297.725 99.1036 298.311 99.6893L299.707 101.085L304.648 95.7326C305.21 95.1239 306.159 95.0859 306.767 95.6478Z" clip-rule="evenodd" fill-rule="evenodd"></path>
</svg>
