<svg xmlns="http://www.w3.org/2000/svg" fill="none" viewBox="0 0 200 200" height="200" width="200">
<path fill="#417DA0" d="M95.949 54.8267C98.2304 53.3754 101.144 53.3678 103.433 54.8072L106.706 56.8656C108.108 57.7476 108.53 59.5996 107.648 61.0022C106.766 62.4048 104.914 62.8268 103.512 61.9448L100.239 59.8864C99.9116 59.6808 99.4954 59.6818 99.1695 59.8892L95.9338 61.9475C94.5359 62.8369 92.6817 62.4245 91.7923 61.0266C90.903 59.6286 91.3154 57.7744 92.7133 56.8851L95.949 54.8267ZM111.298 63.2972C112.18 61.8946 114.032 61.4726 115.435 62.3546L121.981 66.4713C123.384 67.3533 123.806 69.2054 122.924 70.6079C122.042 72.0105 120.19 72.4325 118.787 71.5505L112.241 67.4338C110.838 66.5518 110.416 64.6997 111.298 63.2972ZM88.2264 63.2951C89.1157 64.693 88.7034 66.5472 87.3054 67.4365L80.8342 71.5533C79.4362 72.4426 77.582 72.0303 76.6927 70.6323C75.8034 69.2344 76.2157 67.3802 77.6137 66.4908L84.0849 62.3741C85.4829 61.4848 87.3371 61.8971 88.2264 63.2951ZM126.573 72.9029C127.455 71.5004 129.307 71.0783 130.71 71.9603L137.256 76.0771C138.659 76.9591 139.081 78.8111 138.199 80.2137C137.317 81.6163 135.465 82.0383 134.062 81.1563L127.516 77.0395C126.113 76.1575 125.691 74.3055 126.573 72.9029ZM73.1268 72.9008C74.0161 74.2988 73.6037 76.153 72.2058 77.0423L65.7345 81.159C64.3365 82.0483 62.4823 81.636 61.593 80.238C60.7037 78.8401 61.116 76.9859 62.514 76.0966L68.9853 71.9798C70.3832 71.0905 72.2374 71.5028 73.1268 72.9008ZM141.849 82.5087C142.731 81.1061 144.583 80.6841 145.985 81.5661L149.258 83.6245C153.603 86.3568 153.628 92.6812 149.304 95.447L146.031 97.5408C144.635 98.4336 142.78 98.026 141.887 96.6302C140.994 95.2345 141.402 93.3793 142.798 92.4865L146.071 90.3926C146.689 89.9975 146.685 89.094 146.064 88.7037L142.791 86.6453C141.389 85.7633 140.967 83.9113 141.849 82.5087ZM58.0271 82.5065C58.9164 83.9045 58.5041 85.7587 57.1061 86.648L53.8705 88.7064C53.2557 89.0975 53.2522 89.9938 53.8639 90.3897L57.0996 92.4835C58.4906 93.3837 58.8885 95.241 57.9884 96.632C57.0882 98.023 55.2309 98.421 53.8398 97.5208L50.6042 95.4269C46.3218 92.6557 46.3462 86.3818 50.65 83.6439L53.8856 81.5856C55.2836 80.6963 57.1378 81.1086 58.0271 82.5065ZM61.5795 98.956C62.4796 97.565 64.337 97.167 65.728 98.0672L72.1993 102.255C73.5903 103.155 73.9882 105.012 73.0881 106.403C72.1879 107.794 70.3306 108.192 68.9396 107.292L62.4683 103.104C61.0773 102.204 60.6793 100.347 61.5795 98.956ZM138.213 98.9807C139.106 100.376 138.698 102.232 137.302 103.124L130.756 107.312C129.36 108.205 127.505 107.797 126.612 106.402C125.719 105.006 126.127 103.151 127.522 102.258L134.069 98.0701C135.465 97.1773 137.32 97.585 138.213 98.9807ZM76.6792 108.727C77.5794 107.336 79.4367 106.938 80.8277 107.839L87.299 112.026C88.69 112.926 89.0879 114.784 88.1878 116.175C87.2876 117.566 85.4303 117.964 84.0393 117.064L77.568 112.876C76.177 111.976 75.7791 110.118 76.6792 108.727ZM122.938 108.752C123.83 110.148 123.423 112.003 122.027 112.896L115.48 117.084C114.085 117.976 112.229 117.569 111.337 116.173C110.444 114.777 110.851 112.922 112.247 112.029L118.794 107.841C120.189 106.949 122.045 107.356 122.938 108.752ZM91.7789 118.499C92.6791 117.108 94.5364 116.71 95.9274 117.61L99.1631 119.704C99.4921 119.917 99.9151 119.918 100.245 119.707L103.518 117.613C104.914 116.72 106.769 117.128 107.662 118.523C108.555 119.919 108.147 121.774 106.752 122.667L103.478 124.761C101.168 126.239 98.2063 126.231 95.9033 124.741L92.6677 122.647C91.2767 121.747 90.8788 119.89 91.7789 118.499Z" clip-rule="evenodd" fill-rule="evenodd"></path>
<path fill="#417DA0" d="M100.239 79.3864C99.9116 79.1808 99.4954 79.1818 99.1695 79.3892L53.8705 108.206C53.2557 108.598 53.2522 109.494 53.8639 109.89L99.1631 139.204C99.4921 139.417 99.9151 139.418 100.245 139.207L146.071 109.893C146.689 109.497 146.685 108.594 146.064 108.204L100.239 79.3864ZM95.949 74.3267C98.2304 72.8754 101.144 72.8678 103.433 74.3072L149.258 103.124C153.603 105.857 153.628 112.181 149.304 114.947L103.478 144.261C101.168 145.739 98.2063 145.731 95.9033 144.241L50.6042 114.927C46.3218 112.156 46.3462 105.882 50.65 103.144L95.949 74.3267Z" clip-rule="evenodd" fill-rule="evenodd"></path>
</svg>
