<svg xmlns="http://www.w3.org/2000/svg" fill="none" viewBox="0 0 384 200" height="200" width="384">
<path fill="#262626" d="M120.78 106L117 94.192H118.602L120.492 100.564C120.708 101.26 120.894 101.914 121.05 102.526C121.218 103.126 121.416 103.774 121.644 104.47H121.716C121.932 103.774 122.124 103.126 122.292 102.526C122.46 101.914 122.646 101.26 122.85 100.564L124.74 94.192H126.27L122.526 106H120.78ZM127.74 106V97.252H129.216V106H127.74ZM128.496 95.452C128.208 95.452 127.968 95.368 127.776 95.2C127.596 95.02 127.506 94.78 127.506 94.48C127.506 94.192 127.596 93.958 127.776 93.778C127.968 93.598 128.208 93.508 128.496 93.508C128.784 93.508 129.018 93.598 129.198 93.778C129.39 93.958 129.486 94.192 129.486 94.48C129.486 94.78 129.39 95.02 129.198 95.2C129.018 95.368 128.784 95.452 128.496 95.452ZM134.455 106.216C133.831 106.216 133.237 106.102 132.673 105.874C132.109 105.634 131.617 105.346 131.197 105.01L131.935 104.02C132.319 104.32 132.715 104.572 133.123 104.776C133.531 104.968 133.993 105.064 134.509 105.064C135.085 105.064 135.517 104.932 135.805 104.668C136.093 104.392 136.237 104.068 136.237 103.696C136.237 103.396 136.135 103.144 135.931 102.94C135.739 102.736 135.487 102.568 135.175 102.436C134.875 102.292 134.563 102.16 134.239 102.04C133.831 101.884 133.429 101.71 133.033 101.518C132.637 101.314 132.313 101.056 132.061 100.744C131.809 100.42 131.683 100.012 131.683 99.52C131.683 98.812 131.947 98.224 132.475 97.756C133.015 97.276 133.759 97.036 134.707 97.036C135.247 97.036 135.751 97.132 136.219 97.324C136.687 97.516 137.089 97.75 137.425 98.026L136.705 98.962C136.405 98.734 136.093 98.548 135.769 98.404C135.445 98.26 135.091 98.188 134.707 98.188C134.155 98.188 133.747 98.314 133.483 98.566C133.231 98.818 133.105 99.112 133.105 99.448C133.105 99.724 133.195 99.952 133.375 100.132C133.555 100.3 133.789 100.45 134.077 100.582C134.365 100.702 134.671 100.828 134.995 100.96C135.415 101.116 135.829 101.296 136.237 101.5C136.645 101.692 136.981 101.956 137.245 102.292C137.521 102.616 137.659 103.054 137.659 103.606C137.659 104.074 137.533 104.506 137.281 104.902C137.041 105.298 136.681 105.616 136.201 105.856C135.733 106.096 135.151 106.216 134.455 106.216ZM143.314 109.69V97.252H144.538L144.664 98.26H144.718C145.114 97.924 145.546 97.636 146.014 97.396C146.494 97.156 146.992 97.036 147.508 97.036C148.636 97.036 149.494 97.444 150.082 98.26C150.67 99.064 150.964 100.144 150.964 101.5C150.964 102.484 150.784 103.33 150.424 104.038C150.076 104.746 149.614 105.286 149.038 105.658C148.474 106.03 147.856 106.216 147.184 106.216C146.776 106.216 146.368 106.126 145.96 105.946C145.564 105.766 145.162 105.52 144.754 105.208L144.79 106.738V109.69H143.314ZM146.932 104.974C147.652 104.974 148.246 104.668 148.714 104.056C149.194 103.432 149.434 102.58 149.434 101.5C149.434 100.54 149.254 99.766 148.894 99.178C148.546 98.578 147.958 98.278 147.13 98.278C146.758 98.278 146.38 98.38 145.996 98.584C145.624 98.788 145.222 99.082 144.79 99.466V104.056C145.186 104.392 145.57 104.632 145.942 104.776C146.314 104.908 146.644 104.974 146.932 104.974ZM153.298 106V97.252H154.522L154.648 98.836H154.702C155.002 98.284 155.368 97.846 155.8 97.522C156.232 97.198 156.694 97.036 157.186 97.036C157.534 97.036 157.846 97.096 158.122 97.216L157.834 98.512C157.69 98.464 157.558 98.428 157.438 98.404C157.318 98.38 157.168 98.368 156.988 98.368C156.616 98.368 156.226 98.518 155.818 98.818C155.422 99.118 155.074 99.64 154.774 100.384V106H153.298ZM162.765 106.216C162.057 106.216 161.391 106.036 160.767 105.676C160.155 105.316 159.657 104.794 159.273 104.11C158.901 103.426 158.715 102.604 158.715 101.644C158.715 100.66 158.901 99.826 159.273 99.142C159.657 98.458 160.155 97.936 160.767 97.576C161.391 97.216 162.057 97.036 162.765 97.036C163.485 97.036 164.151 97.216 164.763 97.576C165.375 97.936 165.867 98.458 166.239 99.142C166.623 99.826 166.815 100.66 166.815 101.644C166.815 102.604 166.623 103.426 166.239 104.11C165.867 104.794 165.375 105.316 164.763 105.676C164.151 106.036 163.485 106.216 162.765 106.216ZM162.765 104.992C163.521 104.992 164.127 104.686 164.583 104.074C165.051 103.45 165.285 102.64 165.285 101.644C165.285 100.636 165.051 99.82 164.583 99.196C164.127 98.572 163.521 98.26 162.765 98.26C162.021 98.26 161.415 98.572 160.947 99.196C160.479 99.82 160.245 100.636 160.245 101.644C160.245 102.64 160.479 103.45 160.947 104.074C161.415 104.686 162.021 104.992 162.765 104.992ZM169.371 106V98.458H168.183V97.342L169.371 97.252V95.866C169.371 94.978 169.575 94.276 169.983 93.76C170.403 93.232 171.051 92.968 171.927 92.968C172.203 92.968 172.467 92.998 172.719 93.058C172.971 93.106 173.193 93.172 173.385 93.256L173.061 94.39C172.737 94.246 172.407 94.174 172.071 94.174C171.255 94.174 170.847 94.738 170.847 95.866V97.252H172.701V98.458H170.847V106H169.371ZM174.374 106V97.252H175.85V106H174.374ZM175.13 95.452C174.842 95.452 174.602 95.368 174.41 95.2C174.23 95.02 174.14 94.78 174.14 94.48C174.14 94.192 174.23 93.958 174.41 93.778C174.602 93.598 174.842 93.508 175.13 93.508C175.418 93.508 175.652 93.598 175.832 93.778C176.024 93.958 176.12 94.192 176.12 94.48C176.12 94.78 176.024 95.02 175.832 95.2C175.652 95.368 175.418 95.452 175.13 95.452ZM180.37 106.216C179.818 106.216 179.416 106.048 179.164 105.712C178.924 105.364 178.804 104.872 178.804 104.236V93.184H180.28V104.344C180.28 104.572 180.322 104.74 180.406 104.848C180.49 104.944 180.586 104.992 180.694 104.992C180.742 104.992 180.784 104.992 180.82 104.992C180.868 104.98 180.934 104.968 181.018 104.956L181.216 106.072C181.12 106.12 181.006 106.156 180.874 106.18C180.742 106.204 180.574 106.216 180.37 106.216Z"></path>
<rect fill="#06893A" rx="12" height="24" width="44" y="88" x="223"></rect>
<rect fill="white" rx="10" height="20" width="20" y="90" x="245"></rect>
<path stroke-width="3" stroke-opacity="0.1" stroke="black" d="M248.5 100C248.5 98.2761 249.185 96.6228 250.404 95.4038C251.623 94.1848 253.276 93.5 255 93.5C256.724 93.5 258.377 94.1848 259.596 95.4038C260.815 96.6228 261.5 98.2761 261.5 100C261.5 101.724 260.815 103.377 259.596 104.596C258.377 105.815 256.724 106.5 255 106.5C253.276 106.5 251.623 105.815 250.404 104.596C249.185 103.377 248.5 101.724 248.5 100L248.5 100Z"></path>
<path stroke-width="3" stroke="#06893A" d="M248.832 97.9478C249.238 96.7279 249.997 95.6559 251.012 94.8671C252.027 94.0784 253.254 93.6084 254.536 93.5166C255.818 93.4248 257.099 93.7153 258.216 94.3514C259.333 94.9874 260.237 95.9405 260.812 97.0901C261.388 98.2396 261.61 99.534 261.449 100.81C261.289 102.085 260.754 103.285 259.913 104.256C259.071 105.228 257.96 105.928 256.72 106.268C255.48 106.608 254.168 106.573 252.948 106.168"></path>
</svg>
