<svg xmlns="http://www.w3.org/2000/svg" fill="none" viewBox="0 0 382 214" height="214" width="382">
<path fill="#262626" d="M30.426 73.216C29.37 73.216 28.422 72.982 27.582 72.514C26.742 72.046 26.082 71.362 25.602 70.462C25.122 69.55 24.882 68.446 24.882 67.15C24.882 65.866 25.128 64.768 25.62 63.856C26.112 62.932 26.778 62.23 27.618 61.75C28.458 61.258 29.4 61.012 30.444 61.012C31.284 61.012 31.992 61.168 32.568 61.48C33.156 61.78 33.636 62.122 34.008 62.506L32.892 63.856C32.592 63.568 32.256 63.328 31.884 63.136C31.524 62.932 31.068 62.83 30.516 62.83C29.472 62.83 28.626 63.214 27.978 63.982C27.342 64.738 27.024 65.776 27.024 67.096C27.024 68.44 27.33 69.496 27.942 70.264C28.554 71.02 29.448 71.398 30.624 71.398C30.96 71.398 31.278 71.356 31.578 71.272C31.878 71.176 32.124 71.044 32.316 70.876V68.338H30.084V66.628H34.188V71.812C33.792 72.208 33.264 72.544 32.604 72.82C31.956 73.084 31.23 73.216 30.426 73.216ZM38.7587 73.216C37.9907 73.216 37.3607 72.976 36.8687 72.496C36.3887 72.016 36.1487 71.392 36.1487 70.624C36.1487 69.676 36.5627 68.944 37.3907 68.428C38.2187 67.9 39.5387 67.54 41.3507 67.348C41.3387 66.88 41.2127 66.478 40.9727 66.142C40.7447 65.794 40.3307 65.62 39.7307 65.62C39.2987 65.62 38.8727 65.704 38.4527 65.872C38.0447 66.04 37.6427 66.244 37.2467 66.484L36.4907 65.098C36.9827 64.786 37.5347 64.516 38.1467 64.288C38.7707 64.06 39.4307 63.946 40.1267 63.946C41.2307 63.946 42.0527 64.276 42.5927 64.936C43.1447 65.584 43.4207 66.526 43.4207 67.762V73H41.7107L41.5667 72.028H41.4947C41.0987 72.364 40.6727 72.646 40.2167 72.874C39.7727 73.102 39.2867 73.216 38.7587 73.216ZM39.4247 71.596C39.7847 71.596 40.1087 71.512 40.3967 71.344C40.6967 71.164 41.0147 70.924 41.3507 70.624V68.644C40.1507 68.8 39.3167 69.034 38.8487 69.346C38.3807 69.646 38.1467 70.018 38.1467 70.462C38.1467 70.858 38.2667 71.146 38.5067 71.326C38.7467 71.506 39.0527 71.596 39.4247 71.596ZM48.7307 73.216C47.7107 73.216 46.9847 72.922 46.5527 72.334C46.1327 71.734 45.9227 70.96 45.9227 70.012V65.8H44.6627V64.252L46.0307 64.162L46.2827 61.75H48.0107V64.162H50.2607V65.8H48.0107V70.012C48.0107 71.044 48.4247 71.56 49.2527 71.56C49.4087 71.56 49.5707 71.542 49.7387 71.506C49.9067 71.458 50.0507 71.41 50.1707 71.362L50.5307 72.892C50.2907 72.976 50.0147 73.048 49.7027 73.108C49.4027 73.18 49.0787 73.216 48.7307 73.216ZM55.6194 73.216C54.8034 73.216 54.0654 73.036 53.4054 72.676C52.7454 72.304 52.2234 71.776 51.8394 71.092C51.4554 70.396 51.2634 69.562 51.2634 68.59C51.2634 67.63 51.4554 66.802 51.8394 66.106C52.2354 65.41 52.7454 64.876 53.3694 64.504C53.9934 64.132 54.6474 63.946 55.3314 63.946C56.1354 63.946 56.8074 64.126 57.3474 64.486C57.8874 64.834 58.2954 65.326 58.5714 65.962C58.8474 66.586 58.9854 67.312 58.9854 68.14C58.9854 68.572 58.9554 68.908 58.8954 69.148H53.2794C53.3754 69.928 53.6574 70.534 54.1254 70.966C54.5934 71.398 55.1814 71.614 55.8894 71.614C56.2734 71.614 56.6274 71.56 56.9514 71.452C57.2874 71.332 57.6174 71.17 57.9414 70.966L58.6434 72.262C58.2234 72.538 57.7554 72.766 57.2394 72.946C56.7234 73.126 56.1834 73.216 55.6194 73.216ZM53.2614 67.744H57.1854C57.1854 67.06 57.0354 66.526 56.7354 66.142C56.4354 65.746 55.9854 65.548 55.3854 65.548C54.8694 65.548 54.4074 65.74 53.9994 66.124C53.6034 66.496 53.3574 67.036 53.2614 67.744ZM62.8935 73.216C62.1255 73.216 61.4955 72.976 61.0035 72.496C60.5235 72.016 60.2835 71.392 60.2835 70.624C60.2835 69.676 60.6975 68.944 61.5255 68.428C62.3535 67.9 63.6735 67.54 65.4855 67.348C65.4735 66.88 65.3475 66.478 65.1075 66.142C64.8795 65.794 64.4655 65.62 63.8655 65.62C63.4335 65.62 63.0075 65.704 62.5875 65.872C62.1795 66.04 61.7775 66.244 61.3815 66.484L60.6255 65.098C61.1175 64.786 61.6695 64.516 62.2815 64.288C62.9055 64.06 63.5655 63.946 64.2615 63.946C65.3655 63.946 66.1875 64.276 66.7275 64.936C67.2795 65.584 67.5555 66.526 67.5555 67.762V73H65.8455L65.7015 72.028H65.6295C65.2335 72.364 64.8075 72.646 64.3515 72.874C63.9075 73.102 63.4215 73.216 62.8935 73.216ZM63.5595 71.596C63.9195 71.596 64.2435 71.512 64.5315 71.344C64.8315 71.164 65.1495 70.924 65.4855 70.624V68.644C64.2855 68.8 63.4515 69.034 62.9835 69.346C62.5155 69.646 62.2815 70.018 62.2815 70.462C62.2815 70.858 62.4015 71.146 62.6415 71.326C62.8815 71.506 63.1875 71.596 63.5595 71.596ZM73.1288 73.216C72.0248 73.216 71.1428 72.808 70.4828 71.992C69.8228 71.176 69.4928 70.042 69.4928 68.59C69.4928 67.63 69.6668 66.802 70.0148 66.106C70.3748 65.41 70.8428 64.876 71.4188 64.504C71.9948 64.132 72.6008 63.946 73.2368 63.946C73.7408 63.946 74.1668 64.036 74.5148 64.216C74.8748 64.384 75.2228 64.618 75.5588 64.918L75.4868 63.496V60.292H77.5568V73H75.8468L75.7028 72.046H75.6308C75.3068 72.37 74.9288 72.646 74.4968 72.874C74.0648 73.102 73.6088 73.216 73.1288 73.216ZM73.6328 71.506C74.2928 71.506 74.9108 71.176 75.4868 70.516V66.394C75.1868 66.118 74.8868 65.926 74.5868 65.818C74.2868 65.71 73.9868 65.656 73.6868 65.656C73.1228 65.656 72.6368 65.914 72.2288 66.43C71.8328 66.934 71.6348 67.648 71.6348 68.572C71.6348 69.52 71.8088 70.246 72.1568 70.75C72.5048 71.254 72.9968 71.506 73.6328 71.506ZM80.1929 73V64.162H81.9029L82.0469 65.728H82.1189C82.4309 65.152 82.8089 64.714 83.2529 64.414C83.6969 64.102 84.1529 63.946 84.6209 63.946C85.0409 63.946 85.3769 64.006 85.6289 64.126L85.2689 65.926C85.1129 65.878 84.9689 65.842 84.8369 65.818C84.7049 65.794 84.5429 65.782 84.3509 65.782C84.0029 65.782 83.6369 65.92 83.2529 66.196C82.8689 66.46 82.5389 66.928 82.2629 67.6V73H80.1929ZM90.512 73.216C89.696 73.216 88.958 73.036 88.298 72.676C87.638 72.304 87.116 71.776 86.732 71.092C86.348 70.396 86.156 69.562 86.156 68.59C86.156 67.63 86.348 66.802 86.732 66.106C87.128 65.41 87.638 64.876 88.262 64.504C88.886 64.132 89.54 63.946 90.224 63.946C91.028 63.946 91.7 64.126 92.24 64.486C92.78 64.834 93.188 65.326 93.464 65.962C93.74 66.586 93.878 67.312 93.878 68.14C93.878 68.572 93.848 68.908 93.788 69.148H88.172C88.268 69.928 88.55 70.534 89.018 70.966C89.486 71.398 90.074 71.614 90.782 71.614C91.166 71.614 91.52 71.56 91.844 71.452C92.18 71.332 92.51 71.17 92.834 70.966L93.536 72.262C93.116 72.538 92.648 72.766 92.132 72.946C91.616 73.126 91.076 73.216 90.512 73.216ZM88.154 67.744H92.078C92.078 67.06 91.928 66.526 91.628 66.142C91.328 65.746 90.878 65.548 90.278 65.548C89.762 65.548 89.3 65.74 88.892 66.124C88.496 66.496 88.25 67.036 88.154 67.744ZM98.321 73.216C97.721 73.216 97.121 73.102 96.521 72.874C95.921 72.634 95.405 72.34 94.973 71.992L95.945 70.66C96.341 70.96 96.737 71.2 97.133 71.38C97.529 71.56 97.949 71.65 98.393 71.65C98.873 71.65 99.227 71.548 99.455 71.344C99.683 71.14 99.797 70.888 99.797 70.588C99.797 70.336 99.701 70.132 99.509 69.976C99.329 69.808 99.095 69.664 98.807 69.544C98.519 69.412 98.219 69.286 97.907 69.166C97.523 69.022 97.139 68.848 96.755 68.644C96.383 68.428 96.077 68.158 95.837 67.834C95.597 67.498 95.477 67.084 95.477 66.592C95.477 65.812 95.765 65.176 96.341 64.684C96.917 64.192 97.697 63.946 98.681 63.946C99.305 63.946 99.863 64.054 100.355 64.27C100.847 64.486 101.273 64.732 101.633 65.008L100.679 66.268C100.367 66.04 100.049 65.86 99.725 65.728C99.413 65.584 99.083 65.512 98.735 65.512C98.291 65.512 97.961 65.608 97.745 65.8C97.529 65.98 97.421 66.208 97.421 66.484C97.421 66.832 97.601 67.096 97.961 67.276C98.321 67.456 98.741 67.63 99.221 67.798C99.629 67.942 100.025 68.122 100.409 68.338C100.793 68.542 101.111 68.812 101.363 69.148C101.627 69.484 101.759 69.928 101.759 70.48C101.759 71.236 101.465 71.884 100.877 72.424C100.289 72.952 99.437 73.216 98.321 73.216ZM106.073 73.216C105.473 73.216 104.873 73.102 104.273 72.874C103.673 72.634 103.157 72.34 102.725 71.992L103.697 70.66C104.093 70.96 104.489 71.2 104.885 71.38C105.281 71.56 105.701 71.65 106.145 71.65C106.625 71.65 106.979 71.548 107.207 71.344C107.435 71.14 107.549 70.888 107.549 70.588C107.549 70.336 107.453 70.132 107.261 69.976C107.081 69.808 106.847 69.664 106.559 69.544C106.271 69.412 105.971 69.286 105.659 69.166C105.275 69.022 104.891 68.848 104.507 68.644C104.135 68.428 103.829 68.158 103.589 67.834C103.349 67.498 103.229 67.084 103.229 66.592C103.229 65.812 103.517 65.176 104.093 64.684C104.669 64.192 105.449 63.946 106.433 63.946C107.057 63.946 107.615 64.054 108.107 64.27C108.599 64.486 109.025 64.732 109.385 65.008L108.431 66.268C108.119 66.04 107.801 65.86 107.477 65.728C107.165 65.584 106.835 65.512 106.487 65.512C106.043 65.512 105.713 65.608 105.497 65.8C105.281 65.98 105.173 66.208 105.173 66.484C105.173 66.832 105.353 67.096 105.713 67.276C106.073 67.456 106.493 67.63 106.973 67.798C107.381 67.942 107.777 68.122 108.161 68.338C108.545 68.542 108.863 68.812 109.115 69.148C109.379 69.484 109.511 69.928 109.511 70.48C109.511 71.236 109.217 71.884 108.629 72.424C108.041 72.952 107.189 73.216 106.073 73.216ZM115.139 73.216C114.323 73.216 113.585 73.036 112.925 72.676C112.265 72.304 111.743 71.776 111.359 71.092C110.975 70.396 110.783 69.562 110.783 68.59C110.783 67.63 110.975 66.802 111.359 66.106C111.755 65.41 112.265 64.876 112.889 64.504C113.513 64.132 114.167 63.946 114.851 63.946C115.655 63.946 116.327 64.126 116.867 64.486C117.407 64.834 117.815 65.326 118.091 65.962C118.367 66.586 118.505 67.312 118.505 68.14C118.505 68.572 118.475 68.908 118.415 69.148H112.799C112.895 69.928 113.177 70.534 113.645 70.966C114.113 71.398 114.701 71.614 115.409 71.614C115.793 71.614 116.147 71.56 116.471 71.452C116.807 71.332 117.137 71.17 117.461 70.966L118.163 72.262C117.743 72.538 117.275 72.766 116.759 72.946C116.243 73.126 115.703 73.216 115.139 73.216ZM112.781 67.744H116.705C116.705 67.06 116.555 66.526 116.255 66.142C115.955 65.746 115.505 65.548 114.905 65.548C114.389 65.548 113.927 65.74 113.519 66.124C113.123 66.496 112.877 67.036 112.781 67.744Z"></path>
<path fill="#262626" d="M25.62 99V87.192H32.424V88.452H27.114V92.16H31.596V93.438H27.114V97.722H32.604V99H25.62ZM34.9682 99V86.184H36.4262V94.86H36.4802L40.2062 90.252H41.8442L38.9102 93.762L42.2402 99H40.6202L38.0642 94.788L36.4262 96.696V99H34.9682ZM46.1663 99.216C45.5423 99.216 44.9483 99.102 44.3843 98.874C43.8203 98.634 43.3283 98.346 42.9083 98.01L43.6463 97.02C44.0303 97.32 44.4263 97.572 44.8343 97.776C45.2423 97.968 45.7043 98.064 46.2203 98.064C46.7963 98.064 47.2283 97.932 47.5163 97.668C47.8043 97.392 47.9483 97.068 47.9483 96.696C47.9483 96.396 47.8463 96.144 47.6423 95.94C47.4503 95.736 47.1983 95.568 46.8863 95.436C46.5863 95.292 46.2743 95.16 45.9503 95.04C45.5423 94.884 45.1403 94.71 44.7443 94.518C44.3483 94.314 44.0243 94.056 43.7723 93.744C43.5203 93.42 43.3943 93.012 43.3943 92.52C43.3943 91.812 43.6583 91.224 44.1863 90.756C44.7263 90.276 45.4703 90.036 46.4183 90.036C46.9583 90.036 47.4623 90.132 47.9303 90.324C48.3983 90.516 48.8003 90.75 49.1363 91.026L48.4163 91.962C48.1163 91.734 47.8043 91.548 47.4803 91.404C47.1563 91.26 46.8023 91.188 46.4183 91.188C45.8663 91.188 45.4583 91.314 45.1943 91.566C44.9423 91.818 44.8163 92.112 44.8163 92.448C44.8163 92.724 44.9063 92.952 45.0863 93.132C45.2663 93.3 45.5003 93.45 45.7883 93.582C46.0763 93.702 46.3823 93.828 46.7063 93.96C47.1263 94.116 47.5403 94.296 47.9483 94.5C48.3563 94.692 48.6923 94.956 48.9563 95.292C49.2323 95.616 49.3703 96.054 49.3703 96.606C49.3703 97.074 49.2443 97.506 48.9923 97.902C48.7523 98.298 48.3923 98.616 47.9123 98.856C47.4443 99.096 46.8623 99.216 46.1663 99.216ZM54.9673 99.216C54.1873 99.216 53.4793 99.036 52.8433 98.676C52.2073 98.304 51.7033 97.776 51.3313 97.092C50.9593 96.408 50.7733 95.592 50.7733 94.644C50.7733 93.684 50.9593 92.862 51.3313 92.178C51.7153 91.494 52.2073 90.966 52.8073 90.594C53.4073 90.222 54.0373 90.036 54.6973 90.036C55.8133 90.036 56.6713 90.408 57.2713 91.152C57.8833 91.896 58.1893 92.892 58.1893 94.14C58.1893 94.296 58.1833 94.452 58.1713 94.608C58.1713 94.752 58.1593 94.878 58.1353 94.986H52.2313C52.2913 95.91 52.5793 96.648 53.0953 97.2C53.6233 97.752 54.3073 98.028 55.1473 98.028C55.5673 98.028 55.9513 97.968 56.2993 97.848C56.6593 97.716 57.0013 97.548 57.3253 97.344L57.8473 98.316C57.4753 98.556 57.0493 98.766 56.5693 98.946C56.1013 99.126 55.5673 99.216 54.9673 99.216ZM52.2133 93.924H56.8933C56.8933 93.036 56.7013 92.364 56.3173 91.908C55.9453 91.44 55.4173 91.206 54.7333 91.206C54.1213 91.206 53.5693 91.446 53.0773 91.926C52.5973 92.394 52.3093 93.06 52.2133 93.924ZM60.351 99V90.252H61.575L61.701 91.512H61.755C62.139 91.092 62.559 90.744 63.015 90.468C63.471 90.18 63.957 90.036 64.473 90.036C65.145 90.036 65.667 90.186 66.039 90.486C66.423 90.774 66.705 91.182 66.885 91.71C67.341 91.218 67.803 90.816 68.271 90.504C68.739 90.192 69.237 90.036 69.765 90.036C70.665 90.036 71.331 90.33 71.763 90.918C72.207 91.494 72.429 92.34 72.429 93.456V99H70.953V93.654C70.953 92.838 70.821 92.244 70.557 91.872C70.293 91.5 69.885 91.314 69.333 91.314C68.685 91.314 67.953 91.764 67.137 92.664V99H65.661V93.654C65.661 92.838 65.529 92.244 65.265 91.872C65.001 91.5 64.587 91.314 64.023 91.314C63.375 91.314 62.643 91.764 61.827 92.664V99H60.351ZM75.2748 102.69V90.252H76.4988L76.6248 91.26H76.6788C77.0748 90.924 77.5068 90.636 77.9748 90.396C78.4548 90.156 78.9528 90.036 79.4688 90.036C80.5968 90.036 81.4548 90.444 82.0428 91.26C82.6308 92.064 82.9248 93.144 82.9248 94.5C82.9248 95.484 82.7448 96.33 82.3848 97.038C82.0368 97.746 81.5748 98.286 80.9988 98.658C80.4348 99.03 79.8168 99.216 79.1448 99.216C78.7368 99.216 78.3288 99.126 77.9208 98.946C77.5248 98.766 77.1228 98.52 76.7148 98.208L76.7508 99.738V102.69H75.2748ZM78.8928 97.974C79.6128 97.974 80.2068 97.668 80.6748 97.056C81.1548 96.432 81.3948 95.58 81.3948 94.5C81.3948 93.54 81.2148 92.766 80.8548 92.178C80.5068 91.578 79.9188 91.278 79.0908 91.278C78.7188 91.278 78.3408 91.38 77.9568 91.584C77.5848 91.788 77.1828 92.082 76.7508 92.466V97.056C77.1468 97.392 77.5308 97.632 77.9028 97.776C78.2748 97.908 78.6048 97.974 78.8928 97.974ZM88.8052 99.216C88.0252 99.216 87.3172 99.036 86.6812 98.676C86.0452 98.304 85.5412 97.776 85.1692 97.092C84.7972 96.408 84.6112 95.592 84.6112 94.644C84.6112 93.684 84.7972 92.862 85.1692 92.178C85.5532 91.494 86.0452 90.966 86.6452 90.594C87.2452 90.222 87.8752 90.036 88.5352 90.036C89.6512 90.036 90.5092 90.408 91.1092 91.152C91.7212 91.896 92.0272 92.892 92.0272 94.14C92.0272 94.296 92.0212 94.452 92.0092 94.608C92.0092 94.752 91.9972 94.878 91.9732 94.986H86.0692C86.1292 95.91 86.4172 96.648 86.9332 97.2C87.4612 97.752 88.1452 98.028 88.9852 98.028C89.4052 98.028 89.7892 97.968 90.1372 97.848C90.4972 97.716 90.8392 97.548 91.1632 97.344L91.6852 98.316C91.3132 98.556 90.8872 98.766 90.4072 98.946C89.9392 99.126 89.4052 99.216 88.8052 99.216ZM86.0512 93.924H90.7312C90.7312 93.036 90.5392 92.364 90.1552 91.908C89.7832 91.44 89.2552 91.206 88.5712 91.206C87.9592 91.206 87.4072 91.446 86.9152 91.926C86.4352 92.394 86.1472 93.06 86.0512 93.924ZM95.7549 99.216C95.2029 99.216 94.8009 99.048 94.5489 98.712C94.3089 98.364 94.1889 97.872 94.1889 97.236V86.184H95.6649V97.344C95.6649 97.572 95.7069 97.74 95.7909 97.848C95.8749 97.944 95.9709 97.992 96.0789 97.992C96.1269 97.992 96.1689 97.992 96.2049 97.992C96.2529 97.98 96.3189 97.968 96.4029 97.956L96.6009 99.072C96.5049 99.12 96.3909 99.156 96.2589 99.18C96.1269 99.204 95.9589 99.216 95.7549 99.216ZM99.5508 92.718C99.2508 92.718 98.9928 92.616 98.7768 92.412C98.5728 92.196 98.4708 91.926 98.4708 91.602C98.4708 91.254 98.5728 90.978 98.7768 90.774C98.9928 90.558 99.2508 90.45 99.5508 90.45C99.8388 90.45 100.085 90.558 100.289 90.774C100.505 90.978 100.613 91.254 100.613 91.602C100.613 91.926 100.505 92.196 100.289 92.412C100.085 92.616 99.8388 92.718 99.5508 92.718ZM99.5508 99.216C99.2508 99.216 98.9928 99.114 98.7768 98.91C98.5728 98.694 98.4708 98.424 98.4708 98.1C98.4708 97.752 98.5728 97.476 98.7768 97.272C98.9928 97.056 99.2508 96.948 99.5508 96.948C99.8388 96.948 100.085 97.056 100.289 97.272C100.505 97.476 100.613 97.752 100.613 98.1C100.613 98.424 100.505 98.694 100.289 98.91C100.085 99.114 99.8388 99.216 99.5508 99.216ZM107.007 99V87.192H113.811V88.452H108.501V92.448H113.001V93.708H108.501V99H107.007ZM115.62 102.762C115.428 102.762 115.242 102.744 115.062 102.708C114.894 102.672 114.738 102.63 114.594 102.582L114.882 101.412C114.978 101.436 115.086 101.46 115.206 101.484C115.326 101.52 115.44 101.538 115.548 101.538C116.04 101.538 116.448 101.358 116.772 100.998C117.096 100.65 117.348 100.206 117.528 99.666L117.726 99.018L114.216 90.252H115.746L117.528 95.094C117.66 95.466 117.798 95.868 117.942 96.3C118.098 96.732 118.242 97.152 118.374 97.56H118.446C118.578 97.164 118.704 96.75 118.824 96.318C118.944 95.886 119.064 95.478 119.184 95.094L120.75 90.252H122.19L118.896 99.72C118.692 100.296 118.446 100.812 118.158 101.268C117.882 101.724 117.534 102.084 117.114 102.348C116.706 102.624 116.208 102.762 115.62 102.762ZM123.878 99V90.252H125.102L125.228 91.836H125.282C125.582 91.284 125.948 90.846 126.38 90.522C126.812 90.198 127.274 90.036 127.766 90.036C128.114 90.036 128.426 90.096 128.702 90.216L128.414 91.512C128.27 91.464 128.138 91.428 128.018 91.404C127.898 91.38 127.748 91.368 127.568 91.368C127.196 91.368 126.806 91.518 126.398 91.818C126.002 92.118 125.654 92.64 125.354 93.384V99H123.878ZM132.334 99.216C131.71 99.216 131.116 99.102 130.552 98.874C129.988 98.634 129.496 98.346 129.076 98.01L129.814 97.02C130.198 97.32 130.594 97.572 131.002 97.776C131.41 97.968 131.872 98.064 132.388 98.064C132.964 98.064 133.396 97.932 133.684 97.668C133.972 97.392 134.116 97.068 134.116 96.696C134.116 96.396 134.014 96.144 133.81 95.94C133.618 95.736 133.366 95.568 133.054 95.436C132.754 95.292 132.442 95.16 132.118 95.04C131.71 94.884 131.308 94.71 130.912 94.518C130.516 94.314 130.192 94.056 129.94 93.744C129.688 93.42 129.562 93.012 129.562 92.52C129.562 91.812 129.826 91.224 130.354 90.756C130.894 90.276 131.638 90.036 132.586 90.036C133.126 90.036 133.63 90.132 134.098 90.324C134.566 90.516 134.968 90.75 135.304 91.026L134.584 91.962C134.284 91.734 133.972 91.548 133.648 91.404C133.324 91.26 132.97 91.188 132.586 91.188C132.034 91.188 131.626 91.314 131.362 91.566C131.11 91.818 130.984 92.112 130.984 92.448C130.984 92.724 131.074 92.952 131.254 93.132C131.434 93.3 131.668 93.45 131.956 93.582C132.244 93.702 132.55 93.828 132.874 93.96C133.294 94.116 133.708 94.296 134.116 94.5C134.524 94.692 134.86 94.956 135.124 95.292C135.4 95.616 135.538 96.054 135.538 96.606C135.538 97.074 135.412 97.506 135.16 97.902C134.92 98.298 134.56 98.616 134.08 98.856C133.612 99.096 133.03 99.216 132.334 99.216ZM139.992 99.216C139.056 99.216 138.402 98.946 138.03 98.406C137.67 97.866 137.49 97.164 137.49 96.3V91.458H136.194V90.342L137.562 90.252L137.742 87.804H138.984V90.252H141.342V91.458H138.984V96.318C138.984 96.858 139.08 97.278 139.272 97.578C139.476 97.866 139.83 98.01 140.334 98.01C140.49 98.01 140.658 97.986 140.838 97.938C141.018 97.878 141.18 97.824 141.324 97.776L141.612 98.892C141.372 98.976 141.108 99.048 140.82 99.108C140.544 99.18 140.268 99.216 139.992 99.216ZM143.32 99V90.252H144.796V99H143.32ZM144.076 88.452C143.788 88.452 143.548 88.368 143.356 88.2C143.176 88.02 143.086 87.78 143.086 87.48C143.086 87.192 143.176 86.958 143.356 86.778C143.548 86.598 143.788 86.508 144.076 86.508C144.364 86.508 144.598 86.598 144.778 86.778C144.97 86.958 145.066 87.192 145.066 87.48C145.066 87.78 144.97 88.02 144.778 88.2C144.598 88.368 144.364 88.452 144.076 88.452ZM147.749 99V86.184H149.207V94.86H149.261L152.987 90.252H154.625L151.691 93.762L155.021 99H153.401L150.845 94.788L149.207 96.696V99H147.749ZM156.662 99V86.184H158.12V94.86H158.174L161.9 90.252H163.538L160.604 93.762L163.934 99H162.314L159.758 94.788L158.12 96.696V99H156.662ZM167.464 99L164.314 90.252H165.844L167.5 95.22C167.632 95.652 167.764 96.084 167.896 96.516C168.04 96.948 168.178 97.374 168.31 97.794H168.382C168.514 97.374 168.646 96.948 168.778 96.516C168.922 96.084 169.054 95.652 169.174 95.22L170.83 90.252H172.288L169.192 99H167.464ZM177.452 99.216C176.672 99.216 175.964 99.036 175.328 98.676C174.692 98.304 174.188 97.776 173.816 97.092C173.444 96.408 173.258 95.592 173.258 94.644C173.258 93.684 173.444 92.862 173.816 92.178C174.2 91.494 174.692 90.966 175.292 90.594C175.892 90.222 176.522 90.036 177.182 90.036C178.298 90.036 179.156 90.408 179.756 91.152C180.368 91.896 180.674 92.892 180.674 94.14C180.674 94.296 180.668 94.452 180.656 94.608C180.656 94.752 180.644 94.878 180.62 94.986H174.716C174.776 95.91 175.064 96.648 175.58 97.2C176.108 97.752 176.792 98.028 177.632 98.028C178.052 98.028 178.436 97.968 178.784 97.848C179.144 97.716 179.486 97.548 179.81 97.344L180.332 98.316C179.96 98.556 179.534 98.766 179.054 98.946C178.586 99.126 178.052 99.216 177.452 99.216ZM174.698 93.924H179.378C179.378 93.036 179.186 92.364 178.802 91.908C178.43 91.44 177.902 91.206 177.218 91.206C176.606 91.206 176.054 91.446 175.562 91.926C175.082 92.394 174.794 93.06 174.698 93.924ZM182.835 99V90.252H184.311V99H182.835ZM183.591 88.452C183.303 88.452 183.063 88.368 182.871 88.2C182.691 88.02 182.601 87.78 182.601 87.48C182.601 87.192 182.691 86.958 182.871 86.778C183.063 86.598 183.303 86.508 183.591 86.508C183.879 86.508 184.113 86.598 184.293 86.778C184.485 86.958 184.581 87.192 184.581 87.48C184.581 87.78 184.485 88.02 184.293 88.2C184.113 88.368 183.879 88.452 183.591 88.452ZM190.811 99.216C190.031 99.216 189.323 99.036 188.687 98.676C188.051 98.304 187.547 97.776 187.175 97.092C186.803 96.408 186.617 95.592 186.617 94.644C186.617 93.684 186.803 92.862 187.175 92.178C187.559 91.494 188.051 90.966 188.651 90.594C189.251 90.222 189.881 90.036 190.541 90.036C191.657 90.036 192.515 90.408 193.115 91.152C193.727 91.896 194.033 92.892 194.033 94.14C194.033 94.296 194.027 94.452 194.015 94.608C194.015 94.752 194.003 94.878 193.979 94.986H188.075C188.135 95.91 188.423 96.648 188.939 97.2C189.467 97.752 190.151 98.028 190.991 98.028C191.411 98.028 191.795 97.968 192.143 97.848C192.503 97.716 192.845 97.548 193.169 97.344L193.691 98.316C193.319 98.556 192.893 98.766 192.413 98.946C191.945 99.126 191.411 99.216 190.811 99.216ZM188.057 93.924H192.737C192.737 93.036 192.545 92.364 192.161 91.908C191.789 91.44 191.261 91.206 190.577 91.206C189.965 91.206 189.413 91.446 188.921 91.926C188.441 92.394 188.153 93.06 188.057 93.924ZM196.195 99V90.252H197.419L197.545 91.512H197.599C198.019 91.092 198.463 90.744 198.931 90.468C199.399 90.18 199.933 90.036 200.533 90.036C201.457 90.036 202.129 90.33 202.549 90.918C202.981 91.494 203.197 92.34 203.197 93.456V99H201.721V93.654C201.721 92.838 201.589 92.244 201.325 91.872C201.061 91.5 200.641 91.314 200.065 91.314C199.621 91.314 199.219 91.428 198.859 91.656C198.511 91.884 198.115 92.22 197.671 92.664V99H196.195ZM210.272 90.99C210.272 91.734 210.446 92.328 210.794 92.772C211.154 93.204 211.688 93.42 212.396 93.42C212.78 93.42 213.182 93.3 213.602 93.06C214.034 92.82 214.436 92.43 214.808 91.89C214.712 90.774 214.448 89.928 214.016 89.352C213.584 88.764 213.002 88.47 212.27 88.47C211.718 88.47 211.244 88.704 210.848 89.172C210.464 89.628 210.272 90.234 210.272 90.99ZM211.856 99.216C211.244 99.216 210.704 99.102 210.236 98.874C209.78 98.634 209.396 98.346 209.084 98.01L209.912 97.074C210.152 97.35 210.434 97.572 210.758 97.74C211.094 97.908 211.442 97.992 211.802 97.992C212.342 97.992 212.84 97.836 213.296 97.524C213.752 97.212 214.118 96.696 214.394 95.976C214.682 95.256 214.832 94.284 214.844 93.06C214.484 93.516 214.064 93.876 213.584 94.14C213.104 94.404 212.624 94.536 212.144 94.536C211.16 94.536 210.368 94.242 209.768 93.654C209.18 93.054 208.886 92.166 208.886 90.99C208.886 90.258 209.042 89.616 209.354 89.064C209.666 88.512 210.074 88.08 210.578 87.768C211.094 87.456 211.658 87.3 212.27 87.3C213.026 87.3 213.704 87.504 214.304 87.912C214.904 88.32 215.372 88.932 215.708 89.748C216.056 90.564 216.23 91.59 216.23 92.826C216.23 94.362 216.02 95.598 215.6 96.534C215.192 97.47 214.658 98.154 213.998 98.586C213.338 99.006 212.624 99.216 211.856 99.216ZM219.219 90.99C219.219 91.734 219.393 92.328 219.741 92.772C220.101 93.204 220.635 93.42 221.343 93.42C221.727 93.42 222.129 93.3 222.549 93.06C222.981 92.82 223.383 92.43 223.755 91.89C223.659 90.774 223.395 89.928 222.963 89.352C222.531 88.764 221.949 88.47 221.217 88.47C220.665 88.47 220.191 88.704 219.795 89.172C219.411 89.628 219.219 90.234 219.219 90.99ZM220.803 99.216C220.191 99.216 219.651 99.102 219.183 98.874C218.727 98.634 218.343 98.346 218.031 98.01L218.859 97.074C219.099 97.35 219.381 97.572 219.705 97.74C220.041 97.908 220.389 97.992 220.749 97.992C221.289 97.992 221.787 97.836 222.243 97.524C222.699 97.212 223.065 96.696 223.341 95.976C223.629 95.256 223.779 94.284 223.791 93.06C223.431 93.516 223.011 93.876 222.531 94.14C222.051 94.404 221.571 94.536 221.091 94.536C220.107 94.536 219.315 94.242 218.715 93.654C218.127 93.054 217.833 92.166 217.833 90.99C217.833 90.258 217.989 89.616 218.301 89.064C218.613 88.512 219.021 88.08 219.525 87.768C220.041 87.456 220.605 87.3 221.217 87.3C221.973 87.3 222.651 87.504 223.251 87.912C223.851 88.32 224.319 88.932 224.655 89.748C225.003 90.564 225.177 91.59 225.177 92.826C225.177 94.362 224.967 95.598 224.547 96.534C224.139 97.47 223.605 98.154 222.945 98.586C222.285 99.006 221.571 99.216 220.803 99.216Z"></path>
<rect fill="white" rx="4" height="48" width="246" y="113" x="24"></rect>
<rect stroke-opacity="0.44" stroke="black" rx="3.5" height="47" width="245" y="113.5" x="24.5"></rect>
</svg>
