<svg xmlns="http://www.w3.org/2000/svg" fill="none" viewBox="0 0 200 200" height="200" width="200">
<path fill="white" d="M24 53C24 46.3726 29.3726 41 36 41H164C170.627 41 176 46.3726 176 53V69C176 75.6274 170.627 81 164 81H36C29.3726 81 24 75.6274 24 69V53Z"></path>
<path fill="#417DA0" d="M149.293 57.2929C149.683 56.9024 150.317 56.9024 150.707 57.2929L155.5 62.0858L160.293 57.2929C160.683 56.9024 161.317 56.9024 161.707 57.2929C162.098 57.6834 162.098 58.3166 161.707 58.7071L156.207 64.2071C155.817 64.5976 155.183 64.5976 154.793 64.2071L149.293 58.7071C148.902 58.3166 148.902 57.6834 149.293 57.2929Z" clip-rule="evenodd" fill-rule="evenodd"></path>
<path fill="#417DA0" d="M164 44H36C31.0294 44 27 48.0294 27 53V69C27 73.9706 31.0294 78 36 78H164C168.971 78 173 73.9706 173 69V53C173 48.0294 168.971 44 164 44ZM36 41C29.3726 41 24 46.3726 24 53V69C24 75.6274 29.3726 81 36 81H164C170.627 81 176 75.6274 176 69V53C176 46.3726 170.627 41 164 41H36Z" clip-rule="evenodd" fill-rule="evenodd"></path>
<rect fill="#C0D6E4" rx="4" height="8" width="96" y="57" x="36"></rect>
<path fill="white" d="M39 101C39 94.3726 44.3726 89 51 89H164C170.627 89 176 94.3726 176 101V145C176 151.627 170.627 157 164 157H51C44.3726 157 39 151.627 39 145V101Z"></path>
<mask fill="white" id="path-6-inside-1_4967_2132">
<path d="M164 155V157H51V155H164ZM174 145V101C174 95.4772 169.523 91 164 91H51C45.4772 91 41 95.4772 41 101V145C41 150.523 45.4772 155 51 155V157L50.6904 156.996C44.2061 156.832 39 151.524 39 145V101C39 94.3726 44.3726 89 51 89H164C170.627 89 176 94.3726 176 101V145C176 151.627 170.627 157 164 157V155C169.523 155 174 150.523 174 145Z"></path>
</mask>
<path mask="url(#path-6-inside-1_4967_2132)" fill-opacity="0.247059" fill="#005A92" d="M51 157L50.3691 206.996L50.6846 207H51V157ZM50.6904 156.996L49.4247 206.98L49.7421 206.988L50.0596 206.992L50.6904 156.996ZM164 155H114V157H164H214V155H164ZM164 157V107H51V157V207H164V157ZM51 157H101V155H51H1V157H51ZM51 155V205H164V155V105H51V155ZM174 145H224V101H174H124V145H174ZM174 101H224C224 67.8629 197.137 41 164 41V91V141C141.909 141 124 123.091 124 101H174ZM164 91V41H51V91V141H164V91ZM51 91V41C17.8629 41 -9 67.8629 -9 101H41H91C91 123.091 73.0914 141 51 141V91ZM41 101H-9V145H41H91V101H41ZM41 145H-9C-9 178.137 17.8629 205 51 205V155V105C73.0914 105 91 122.909 91 145H41ZM51 155H1V157H51H101V155H51ZM51 157L51.6309 107.004L51.3213 107L50.6904 156.996L50.0596 206.992L50.3691 206.996L51 157ZM50.6904 156.996L51.9561 107.012C72.5152 107.533 89 124.334 89 145H39H-11C-11 178.714 15.897 206.131 49.4247 206.98L50.6904 156.996ZM39 145H89V101H39H-11V145H39ZM39 101H89C89 121.987 71.9868 139 51 139V89V39C16.7583 39 -11 66.7583 -11 101H39ZM51 89V139H164V89V39H51V89ZM164 89V139C143.013 139 126 121.987 126 101H176H226C226 66.7583 198.242 39 164 39V89ZM176 101H126V145H176H226V101H176ZM176 145H126C126 124.013 143.013 107 164 107V157V207C198.242 207 226 179.242 226 145H176ZM164 157H214V155H164H114V157H164ZM164 155V205C197.137 205 224 178.137 224 145H174H124C124 122.909 141.909 105 164 105V155Z"></path>
<rect fill="#C0D6E4" rx="4" height="8" width="111" y="101" x="52"></rect>
<rect fill="#C0D6E4" rx="4" height="8" width="111" y="119" x="52"></rect>
<rect fill="#C0D6E4" rx="4" height="8" width="76" y="137" x="52"></rect>
</svg>
