<svg xmlns="http://www.w3.org/2000/svg" fill="none" viewBox="0 0 200 200" height="200" width="200">
<path fill="#417DA0" d="M118 42C120.209 42 122 43.7909 122 46V66C122 68.2091 120.209 70 118 70L88 70C85.7909 70 84 68.2091 84 66L84 46C84 43.7909 85.7909 42 88 42L118 42Z"></path>
<path fill="#417DA0" d="M118 86C120.209 86 122 87.7909 122 90V110C122 112.209 120.209 114 118 114H88C85.7909 114 84 112.209 84 110L84 90C84 87.7909 85.7909 86 88 86H118Z"></path>
<path fill="#417DA0" d="M118 130C120.209 130 122 131.791 122 134V154C122 156.209 120.209 158 118 158H88C85.7909 158 84 156.209 84 154L84 134C84 131.791 85.7909 130 88 130H118Z"></path>
<path fill="#417DA0" d="M82 70C82 70.5523 81.5523 71 81 71H80L80 85H81C81.5523 85 82 85.4477 82 86C82 86.5523 81.5523 87 81 87H77C76.4477 87 76 86.5523 76 86C76 85.4477 76.4477 85 77 85H78L78 71H77C76.4477 71 76 70.5523 76 70C76 69.4477 76.4477 69 77 69L81 69C81.5523 69 82 69.4477 82 70Z" clip-rule="evenodd" fill-rule="evenodd"></path>
<path fill="#417DA0" d="M82 114C82 114.552 81.5523 115 81 115H80L80 129H81C81.5523 129 82 129.448 82 130C82 130.552 81.5523 131 81 131H77C76.4477 131 76 130.552 76 130C76 129.448 76.4477 129 77 129H78L78 115H77C76.4477 115 76 114.552 76 114C76 113.448 76.4477 113 77 113H81C81.5523 113 82 113.448 82 114Z" clip-rule="evenodd" fill-rule="evenodd"></path>
</svg>
