<svg xmlns="http://www.w3.org/2000/svg" fill="none" viewBox="0 0 200 200" height="200" width="200">
<path fill="#417DA0" d="M24 56C24 49.3726 29.3726 44 36 44H164C170.627 44 176 49.3726 176 56V72H24V56Z"></path>
<mask fill="white" id="path-2-inside-1_4412_3194">
<path d="M28 72V141C28 146.523 32.4772 151 38 151H162C167.523 151 172 146.523 172 141V72H176V141C176 148.732 169.732 155 162 155H38C30.268 155 24 148.732 24 141V72H28Z" clip-rule="evenodd" fill-rule="evenodd"></path>
</mask>
<path mask="url(#path-2-inside-1_4412_3194)" fill-opacity="0.247059" fill="#005A92" d="M28 72H78C78 44.3858 55.6142 22 28 22V72ZM172 72V22C144.386 22 122 44.3858 122 72L172 72ZM176 72H226C226 44.3858 203.614 22 176 22V72ZM24 72V22C-3.61424 22 -26 44.3858 -26 72L24 72ZM38 151V101C60.0914 101 78 118.909 78 141H28H-22C-22 174.137 4.86292 201 38 201V151ZM162 151V101H38V151V201H162V151ZM172 141H122C122 118.909 139.909 101 162 101V151V201C195.137 201 222 174.137 222 141H172ZM176 72V22H172V72V122H176V72ZM162 155V205C197.346 205 226 176.346 226 141H176H126C126 121.118 142.118 105 162 105V155ZM38 155V205H162V155V105H38V155ZM24 141H-26C-26 176.346 2.65377 205 38 205V155V105C57.8823 105 74 121.118 74 141H24ZM28 72V22H24V72V122H28V72ZM28 141H78V72H28H-22V141H28ZM172 72H122V141H172H222V72H172ZM176 141H226V72H176H126V141H176ZM24 72H-26V141H24H74V72H24Z"></path>
<rect fill="#D7E6F0" rx="4" height="8" width="44" y="54" x="35"></rect>
</svg>
