<svg xmlns="http://www.w3.org/2000/svg" fill="none" viewBox="0 0 384 160" height="160" width="384">
<rect fill="#F7F7F7" height="160" width="384"></rect>
<mask fill="white" id="path-1-inside-1_5075_22773">
<path d="M24 48H360V96H24V48Z"></path>
</mask>
<path fill="#F7F7F7" d="M24 48H360V96H24V48Z"></path>
<path fill="#262626" d="M128.5 61.75C128.914 61.75 129.25 62.0858 129.25 62.5V64.9644C129.995 64.25 130.849 63.6569 131.784 63.2088C133.035 62.6086 134.4 62.2825 135.788 62.2523C137.175 62.2221 138.553 62.4885 139.83 63.0336C141.106 63.5787 142.251 64.3901 143.189 65.4134C144.126 66.4367 144.835 67.6483 145.266 68.9673C145.698 70.2864 145.843 71.6824 145.692 73.062C145.541 74.4416 145.097 75.773 144.39 76.9673C143.683 78.1615 142.729 79.191 141.592 79.987C141.253 80.2246 140.785 80.1421 140.547 79.8028C140.31 79.4635 140.392 78.9958 140.732 78.7583C141.694 78.0847 142.501 77.2136 143.099 76.2031C143.697 75.1925 144.073 74.0659 144.201 72.8986C144.329 71.7312 144.206 70.55 143.841 69.4339C143.476 68.3178 142.876 67.2926 142.083 66.4267C141.289 65.5608 140.32 64.8743 139.24 64.4131C138.161 63.9518 136.995 63.7264 135.82 63.752C134.646 63.7775 133.491 64.0534 132.432 64.5613C131.555 64.9821 130.76 65.5543 130.084 66.25H133C133.414 66.25 133.75 66.5858 133.75 67C133.75 67.4142 133.414 67.75 133 67.75H128.5C128.086 67.75 127.75 67.4142 127.75 67V62.5C127.75 62.0858 128.086 61.75 128.5 61.75ZM136 65.25C136.414 65.25 136.75 65.5858 136.75 66V71.6893L139.03 73.9697C139.323 74.2626 139.323 74.7374 139.03 75.0303C138.737 75.3232 138.263 75.3232 137.97 75.0303L135.47 72.5303C135.329 72.3897 135.25 72.1989 135.25 72V66C135.25 65.5858 135.586 65.25 136 65.25ZM127 71.25C127.414 71.25 127.75 71.5858 127.75 72C127.75 72.439 127.785 72.8773 127.855 73.3108C127.921 73.7197 127.642 74.1046 127.233 74.1704C126.825 74.2362 126.44 73.958 126.374 73.5491C126.291 73.0368 126.25 72.5188 126.25 72C126.25 71.5858 126.586 71.25 127 71.25ZM128.855 76.125C128.648 75.7663 128.189 75.6434 127.831 75.8505C127.472 76.0576 127.349 76.5163 127.556 76.875C127.816 77.3243 128.111 77.7522 128.438 78.1546C128.7 78.4759 129.172 78.5244 129.493 78.2629C129.814 78.0014 129.863 77.529 129.601 77.2078C129.324 76.8673 129.075 76.5052 128.855 76.125ZM130.85 79.4192C131.058 79.0605 131.516 78.9376 131.875 79.1447C132.255 79.3642 132.652 79.553 133.063 79.7093C133.45 79.8568 133.644 80.2902 133.496 80.6772C133.349 81.0643 132.916 81.2585 132.528 81.111C132.044 80.9263 131.574 80.7032 131.125 80.4437C130.766 80.2366 130.643 79.7779 130.85 79.4192ZM137.549 81.6262C137.958 81.5603 138.236 81.1755 138.17 80.7665C138.105 80.3576 137.72 80.0794 137.311 80.1452C136.877 80.215 136.439 80.25 136 80.25C135.586 80.25 135.25 80.5858 135.25 81C135.25 81.4142 135.586 81.75 136 81.75C136.519 81.75 137.037 81.7086 137.549 81.6262Z" clip-rule="evenodd" fill-rule="evenodd"></path>
<path mask="url(#path-3-inside-2_5075_22773)" fill="#0067C5" d="M164 92H108V100H164V92Z"></path>
<path fill="#262626" d="M184 65.75C183.862 65.75 183.75 65.8619 183.75 66V78.25H200.25V68.75H191C190.586 68.75 190.25 68.4142 190.25 68V66C190.25 65.8619 190.138 65.75 190 65.75H184ZM182.25 66C182.25 65.0335 183.034 64.25 184 64.25H190C190.966 64.25 191.75 65.0335 191.75 66V67.25H200.5C201.19 67.25 201.75 67.8096 201.75 68.5V78.5C201.75 79.1904 201.19 79.75 200.5 79.75H183.5C182.81 79.75 182.25 79.1904 182.25 78.5V66Z" clip-rule="evenodd" fill-rule="evenodd"></path>
<path fill="#262626" d="M239 65.25C238.586 65.25 238.25 65.5858 238.25 66V79C238.25 79.4142 238.586 79.75 239 79.75H257C257.414 79.75 257.75 79.4142 257.75 79V66C257.75 65.5858 257.414 65.25 257 65.25H248H239ZM239.75 77.1893L245.023 71.9166L239.75 68.4014V77.1893ZM246.296 72.7651L240.811 78.25H255.189L249.704 72.7651L248.416 73.624C248.164 73.792 247.836 73.792 247.584 73.624L246.296 72.7651ZM256.25 68.4014V77.1893L250.977 71.9166L256.25 68.4014ZM256.023 66.75H248H239.977L248 72.0986L256.023 66.75Z" clip-rule="evenodd" fill-rule="evenodd"></path>
<path mask="url(#path-1-inside-1_5075_22773)" fill-opacity="0.19" fill="black" d="M360 95H24V97H360V95Z"></path>
<g filter="url(#filter0_dd_5075_22773)">
<rect shape-rendering="crispEdges" fill="#262626" rx="2" height="20" width="69" y="28" x="102"></rect>
<path fill="white" d="M111.26 43V33.816H112.422V37.666H116.692V33.816H117.868V43H116.692V38.674H112.422V43H111.26ZM120.337 43V36.196H121.485V43H120.337ZM120.925 34.796C120.701 34.796 120.509 34.726 120.351 34.586C120.201 34.446 120.127 34.2687 120.127 34.054C120.127 33.83 120.201 33.6527 120.351 33.522C120.509 33.382 120.701 33.312 120.925 33.312C121.149 33.312 121.335 33.382 121.485 33.522C121.643 33.6527 121.723 33.83 121.723 34.054C121.723 34.2687 121.643 34.446 121.485 34.586C121.335 34.726 121.149 34.796 120.925 34.796ZM125.616 43.168C125.131 43.168 124.669 43.0793 124.23 42.902C123.791 42.7247 123.409 42.5007 123.082 42.23L123.656 41.46C123.955 41.7027 124.258 41.8987 124.566 42.048C124.883 42.1973 125.247 42.272 125.658 42.272C126.106 42.272 126.442 42.1693 126.666 41.964C126.89 41.7587 127.002 41.5067 127.002 41.208C127.002 41.0307 126.955 40.8767 126.862 40.746C126.769 40.6153 126.647 40.5033 126.498 40.41C126.358 40.3073 126.195 40.2187 126.008 40.144C125.821 40.0693 125.635 39.9947 125.448 39.92C125.205 39.836 124.963 39.7427 124.72 39.64C124.477 39.528 124.258 39.3973 124.062 39.248C123.875 39.0893 123.721 38.9073 123.6 38.702C123.479 38.4967 123.418 38.2493 123.418 37.96C123.418 37.6893 123.469 37.4373 123.572 37.204C123.684 36.9613 123.838 36.756 124.034 36.588C124.239 36.4107 124.487 36.2753 124.776 36.182C125.065 36.0793 125.392 36.028 125.756 36.028C126.185 36.028 126.577 36.1027 126.932 36.252C127.296 36.4013 127.609 36.5833 127.87 36.798L127.324 37.526C127.091 37.3487 126.848 37.204 126.596 37.092C126.344 36.98 126.069 36.924 125.77 36.924C125.341 36.924 125.023 37.022 124.818 37.218C124.622 37.414 124.524 37.6427 124.524 37.904C124.524 38.0627 124.566 38.2027 124.65 38.324C124.734 38.436 124.846 38.5387 124.986 38.632C125.126 38.716 125.285 38.7953 125.462 38.87C125.649 38.9353 125.84 39.0053 126.036 39.08C126.279 39.1733 126.521 39.2713 126.764 39.374C127.016 39.4767 127.24 39.6073 127.436 39.766C127.632 39.9153 127.791 40.102 127.912 40.326C128.043 40.55 128.108 40.8207 128.108 41.138C128.108 41.418 128.052 41.6793 127.94 41.922C127.837 42.1647 127.679 42.3793 127.464 42.566C127.259 42.7527 126.997 42.8973 126.68 43C126.372 43.112 126.017 43.168 125.616 43.168ZM131.628 43.168C131.264 43.168 130.956 43.112 130.704 43C130.461 42.888 130.261 42.734 130.102 42.538C129.953 42.342 129.845 42.104 129.78 41.824C129.715 41.544 129.682 41.236 129.682 40.9V37.134H128.674V36.266L129.738 36.196L129.878 34.292H130.844V36.196H132.678V37.134H130.844V40.914C130.844 41.334 130.919 41.6607 131.068 41.894C131.227 42.118 131.502 42.23 131.894 42.23C132.015 42.23 132.146 42.2113 132.286 42.174C132.426 42.1367 132.552 42.0947 132.664 42.048L132.888 42.916C132.701 42.9813 132.496 43.0373 132.272 43.084C132.057 43.14 131.843 43.168 131.628 43.168ZM136.727 43.168C136.307 43.168 135.906 43.0887 135.523 42.93C135.15 42.7713 134.818 42.5427 134.529 42.244C134.24 41.936 134.006 41.5627 133.829 41.124C133.661 40.676 133.577 40.172 133.577 39.612C133.577 39.0427 133.661 38.5387 133.829 38.1C134.006 37.652 134.24 37.274 134.529 36.966C134.818 36.658 135.15 36.4247 135.523 36.266C135.906 36.1073 136.307 36.028 136.727 36.028C137.147 36.028 137.544 36.1073 137.917 36.266C138.3 36.4247 138.636 36.658 138.925 36.966C139.214 37.274 139.443 37.652 139.611 38.1C139.788 38.5387 139.877 39.0427 139.877 39.612C139.877 40.172 139.788 40.676 139.611 41.124C139.443 41.5627 139.214 41.936 138.925 42.244C138.636 42.5427 138.3 42.7713 137.917 42.93C137.544 43.0887 137.147 43.168 136.727 43.168ZM136.727 42.216C137.016 42.216 137.282 42.1553 137.525 42.034C137.768 41.9033 137.973 41.726 138.141 41.502C138.318 41.2687 138.454 40.9933 138.547 40.676C138.64 40.3587 138.687 40.004 138.687 39.612C138.687 39.22 138.64 38.8653 138.547 38.548C138.454 38.2213 138.318 37.9413 138.141 37.708C137.973 37.4747 137.768 37.2973 137.525 37.176C137.282 37.0453 137.016 36.98 136.727 36.98C136.438 36.98 136.172 37.0453 135.929 37.176C135.686 37.2973 135.476 37.4747 135.299 37.708C135.131 37.9413 135 38.2213 134.907 38.548C134.814 38.8653 134.767 39.22 134.767 39.612C134.767 40.004 134.814 40.3587 134.907 40.676C135 40.9933 135.131 41.2687 135.299 41.502C135.476 41.726 135.686 41.9033 135.929 42.034C136.172 42.1553 136.438 42.216 136.727 42.216ZM141.725 43V36.196H142.677L142.775 37.428H142.817C143.05 36.9987 143.33 36.658 143.657 36.406C143.993 36.154 144.357 36.028 144.749 36.028C145.02 36.028 145.262 36.0747 145.477 36.168L145.253 37.176C145.141 37.1387 145.038 37.1107 144.945 37.092C144.852 37.0733 144.735 37.064 144.595 37.064C144.306 37.064 144.002 37.1807 143.685 37.414C143.377 37.6473 143.106 38.0533 142.873 38.632V43H141.725ZM146.634 43V36.196H147.782V43H146.634ZM147.222 34.796C146.998 34.796 146.807 34.726 146.648 34.586C146.499 34.446 146.424 34.2687 146.424 34.054C146.424 33.83 146.499 33.6527 146.648 33.522C146.807 33.382 146.998 33.312 147.222 33.312C147.446 33.312 147.633 33.382 147.782 33.522C147.941 33.6527 148.02 33.83 148.02 34.054C148.02 34.2687 147.941 34.446 147.782 34.586C147.633 34.726 147.446 34.796 147.222 34.796ZM150.136 43V33.032H151.27V39.78H151.312L154.21 36.196H155.484L153.202 38.926L155.792 43H154.532L152.544 39.724L151.27 41.208V43H150.136ZM157.123 43V33.032H158.257V39.78H158.299L161.197 36.196H162.471L160.189 38.926L162.779 43H161.519L159.531 39.724L158.257 41.208V43H157.123Z"></path>
<path fill="#262626" d="M142 48L137 53L132 48H142Z"></path>
</g>
<mask fill="white" id="path-11-inside-3_5075_22773">
<path d="M24 96H360V136H24V96Z"></path>
</mask>
<path fill="white" d="M24 96H360V136H24V96Z"></path>
<path fill-opacity="0.65" fill="black" d="M174.774 122V111.504H177.766C178.556 111.504 179.244 111.6 179.83 111.792C180.417 111.984 180.876 112.309 181.206 112.768C181.537 113.216 181.702 113.824 181.702 114.592C181.702 115.691 181.345 116.507 180.63 117.04C179.916 117.573 178.982 117.84 177.83 117.84H176.102V122H174.774ZM176.102 116.752H177.67C178.588 116.752 179.265 116.581 179.702 116.24C180.15 115.888 180.374 115.339 180.374 114.592C180.374 113.835 180.14 113.312 179.67 113.024C179.212 112.725 178.524 112.576 177.606 112.576H176.102V116.752ZM184.845 122.192C184.195 122.192 183.651 122 183.213 121.616C182.787 121.221 182.573 120.677 182.573 119.984C182.573 119.131 182.952 118.48 183.709 118.032C184.477 117.573 185.688 117.253 187.341 117.072C187.341 116.741 187.293 116.427 187.197 116.128C187.112 115.829 186.952 115.589 186.717 115.408C186.493 115.216 186.168 115.12 185.741 115.12C185.293 115.12 184.872 115.205 184.477 115.376C184.083 115.547 183.731 115.739 183.421 115.952L182.909 115.04C183.272 114.805 183.715 114.581 184.237 114.368C184.771 114.144 185.347 114.032 185.965 114.032C186.915 114.032 187.603 114.325 188.029 114.912C188.456 115.488 188.669 116.261 188.669 117.232V122H187.581L187.469 121.072H187.421C187.059 121.371 186.659 121.632 186.221 121.856C185.795 122.08 185.336 122.192 184.845 122.192ZM185.229 121.136C185.603 121.136 185.955 121.045 186.285 120.864C186.616 120.683 186.968 120.427 187.341 120.096V117.936C186.051 118.096 185.144 118.336 184.621 118.656C184.109 118.976 183.853 119.387 183.853 119.888C183.853 120.325 183.987 120.645 184.253 120.848C184.52 121.04 184.845 121.136 185.229 121.136ZM191.148 122V114.224H192.236L192.348 115.344H192.396C192.769 114.971 193.164 114.661 193.58 114.416C193.996 114.16 194.471 114.032 195.004 114.032C195.825 114.032 196.423 114.293 196.796 114.816C197.18 115.328 197.372 116.08 197.372 117.072V122H196.06V117.248C196.06 116.523 195.943 115.995 195.708 115.664C195.473 115.333 195.1 115.168 194.588 115.168C194.193 115.168 193.836 115.269 193.516 115.472C193.207 115.675 192.855 115.973 192.46 116.368V122H191.148ZM203.082 122.192C202.389 122.192 201.759 122.032 201.194 121.712C200.629 121.381 200.181 120.912 199.85 120.304C199.519 119.696 199.354 118.971 199.354 118.128C199.354 117.275 199.519 116.544 199.85 115.936C200.191 115.328 200.629 114.859 201.162 114.528C201.695 114.197 202.255 114.032 202.842 114.032C203.834 114.032 204.597 114.363 205.13 115.024C205.674 115.685 205.946 116.571 205.946 117.68C205.946 117.819 205.941 117.957 205.93 118.096C205.93 118.224 205.919 118.336 205.898 118.432H200.65C200.703 119.253 200.959 119.909 201.418 120.4C201.887 120.891 202.495 121.136 203.242 121.136C203.615 121.136 203.957 121.083 204.266 120.976C204.586 120.859 204.89 120.709 205.178 120.528L205.642 121.392C205.311 121.605 204.933 121.792 204.506 121.952C204.09 122.112 203.615 122.192 203.082 122.192ZM200.634 117.488H204.794C204.794 116.699 204.623 116.101 204.282 115.696C203.951 115.28 203.482 115.072 202.874 115.072C202.33 115.072 201.839 115.285 201.402 115.712C200.975 116.128 200.719 116.72 200.634 117.488ZM209.291 122.192C208.801 122.192 208.443 122.043 208.219 121.744C208.006 121.435 207.899 120.997 207.899 120.432V110.608H209.211V120.528C209.211 120.731 209.249 120.88 209.323 120.976C209.398 121.061 209.483 121.104 209.579 121.104C209.622 121.104 209.659 121.104 209.691 121.104C209.734 121.093 209.793 121.083 209.867 121.072L210.043 122.064C209.958 122.107 209.857 122.139 209.739 122.16C209.622 122.181 209.473 122.192 209.291 122.192Z"></path>
<path mask="url(#path-11-inside-3_5075_22773)" fill-opacity="0.19" fill="black" d="M360 136V136.5H360.5V136H360ZM24 136H23.5V136.5H24V136ZM23.5 96V98H24.5V96H23.5ZM23.5 102V106H24.5V102H23.5ZM23.5 110V114H24.5V110H23.5ZM23.5 118V122H24.5V118H23.5ZM23.5 126V130H24.5V126H23.5ZM23.5 134V136H24.5V134H23.5ZM24 136.5H26V135.5H24V136.5ZM30 136.5H34V135.5H30V136.5ZM38 136.5H42V135.5H38V136.5ZM46 136.5H50V135.5H46V136.5ZM54 136.5H58V135.5H54V136.5ZM62 136.5H66V135.5H62V136.5ZM70 136.5H74V135.5H70V136.5ZM78 136.5H82V135.5H78V136.5ZM86 136.5H90V135.5H86V136.5ZM94 136.5H98V135.5H94V136.5ZM102 136.5H106V135.5H102V136.5ZM110 136.5H114V135.5H110V136.5ZM118 136.5H122V135.5H118V136.5ZM126 136.5H130V135.5H126V136.5ZM134 136.5H138V135.5H134V136.5ZM142 136.5H146V135.5H142V136.5ZM150 136.5H154V135.5H150V136.5ZM158 136.5H162V135.5H158V136.5ZM166 136.5H170V135.5H166V136.5ZM174 136.5H178V135.5H174V136.5ZM182 136.5H186V135.5H182V136.5ZM190 136.5H194V135.5H190V136.5ZM198 136.5H202V135.5H198V136.5ZM206 136.5H210V135.5H206V136.5ZM214 136.5H218V135.5H214V136.5ZM222 136.5H226V135.5H222V136.5ZM230 136.5H234V135.5H230V136.5ZM238 136.5H242V135.5H238V136.5ZM246 136.5H250V135.5H246V136.5ZM254 136.5H258V135.5H254V136.5ZM262 136.5H266V135.5H262V136.5ZM270 136.5H274V135.5H270V136.5ZM278 136.5H282V135.5H278V136.5ZM286 136.5H290V135.5H286V136.5ZM294 136.5H298V135.5H294V136.5ZM302 136.5H306V135.5H302V136.5ZM310 136.5H314V135.5H310V136.5ZM318 136.5H322V135.5H318V136.5ZM326 136.5H330V135.5H326V136.5ZM334 136.5H338V135.5H334V136.5ZM342 136.5H346V135.5H342V136.5ZM350 136.5H354V135.5H350V136.5ZM358 136.5H360V135.5H358V136.5ZM360.5 136V134H359.5V136H360.5ZM360.5 130V126H359.5V130H360.5ZM360.5 122V118H359.5V122H360.5ZM360.5 114V110H359.5V114H360.5ZM360.5 106V102H359.5V106H360.5ZM360.5 98V96H359.5V98H360.5ZM360 136V137H361V136H360ZM24 136H23V137H24V136ZM23 96V98H25V96H23ZM23 102V106H25V102H23ZM23 110V114H25V110H23ZM23 118V122H25V118H23ZM23 126V130H25V126H23ZM23 134V136H25V134H23ZM24 137H26V135H24V137ZM30 137H34V135H30V137ZM38 137H42V135H38V137ZM46 137H50V135H46V137ZM54 137H58V135H54V137ZM62 137H66V135H62V137ZM70 137H74V135H70V137ZM78 137H82V135H78V137ZM86 137H90V135H86V137ZM94 137H98V135H94V137ZM102 137H106V135H102V137ZM110 137H114V135H110V137ZM118 137H122V135H118V137ZM126 137H130V135H126V137ZM134 137H138V135H134V137ZM142 137H146V135H142V137ZM150 137H154V135H150V137ZM158 137H162V135H158V137ZM166 137H170V135H166V137ZM174 137H178V135H174V137ZM182 137H186V135H182V137ZM190 137H194V135H190V137ZM198 137H202V135H198V137ZM206 137H210V135H206V137ZM214 137H218V135H214V137ZM222 137H226V135H222V137ZM230 137H234V135H230V137ZM238 137H242V135H238V137ZM246 137H250V135H246V137ZM254 137H258V135H254V137ZM262 137H266V135H262V137ZM270 137H274V135H270V137ZM278 137H282V135H278V137ZM286 137H290V135H286V137ZM294 137H298V135H294V137ZM302 137H306V135H302V137ZM310 137H314V135H310V137ZM318 137H322V135H318V137ZM326 137H330V135H326V137ZM334 137H338V135H334V137ZM342 137H346V135H342V137ZM350 137H354V135H350V137ZM358 137H360V135H358V137ZM361 136V134H359V136H361ZM361 130V126H359V130H361ZM361 122V118H359V122H361ZM361 114V110H359V114H361ZM361 106V102H359V106H361ZM361 98V96H359V98H361Z"></path>
<defs>
<filter color-interpolation-filters="sRGB" filterUnits="userSpaceOnUse" height="35" width="79" y="27" x="97" id="filter0_dd_5075_22773">
<feFlood result="BackgroundImageFix" flood-opacity="0"></feFlood>
<feColorMatrix result="hardAlpha" values="0 0 0 0 0 0 0 0 0 0 0 0 0 0 0 0 0 0 127 0" type="matrix" in="SourceAlpha"></feColorMatrix>
<feMorphology result="effect1_dropShadow_5075_22773" in="SourceAlpha" operator="erode" radius="2"></feMorphology>
<feOffset dy="2"></feOffset>
<feGaussianBlur stdDeviation="2"></feGaussianBlur>
<feComposite operator="out" in2="hardAlpha"></feComposite>
<feColorMatrix values="0 0 0 0 0 0 0 0 0 0 0 0 0 0 0 0 0 0 0.1 0" type="matrix"></feColorMatrix>
<feBlend result="effect1_dropShadow_5075_22773" in2="BackgroundImageFix" mode="normal"></feBlend>
<feColorMatrix result="hardAlpha" values="0 0 0 0 0 0 0 0 0 0 0 0 0 0 0 0 0 0 127 0" type="matrix" in="SourceAlpha"></feColorMatrix>
<feMorphology result="effect2_dropShadow_5075_22773" in="SourceAlpha" operator="erode" radius="1"></feMorphology>
<feOffset dy="4"></feOffset>
<feGaussianBlur stdDeviation="3"></feGaussianBlur>
<feComposite operator="out" in2="hardAlpha"></feComposite>
<feColorMatrix values="0 0 0 0 0 0 0 0 0 0 0 0 0 0 0 0 0 0 0.1 0" type="matrix"></feColorMatrix>
<feBlend result="effect2_dropShadow_5075_22773" in2="effect1_dropShadow_5075_22773" mode="normal"></feBlend>
<feBlend result="shape" in2="effect2_dropShadow_5075_22773" in="SourceGraphic" mode="normal"></feBlend>
</filter>
</defs>
</svg>
