<svg xmlns="http://www.w3.org/2000/svg" fill="none" viewBox="0 0 200 200" height="200" width="200">
<path fill="#C0D6E4" d="M31 60.4995C31 58.2904 32.7909 56.4995 35 56.4995H65C67.2091 56.4995 69 58.2904 69 60.4995V140.5C69 142.709 67.2091 144.5 65 144.5H35C32.7909 144.5 31 142.709 31 140.5V60.4995Z"></path>
<path fill="#C0D6E4" d="M80.9612 60.4995C80.9612 58.2904 82.752 56.4995 84.9612 56.4995H114.961C117.17 56.4995 118.961 58.2904 118.961 60.4995V140.5C118.961 142.709 117.17 144.5 114.961 144.5H84.9612C82.752 144.5 80.9612 142.709 80.9612 140.5V60.4995Z"></path>
<path fill="#C0D6E4" d="M130.922 60.4995C130.922 58.2904 132.713 56.4995 134.922 56.4995H164.922C167.132 56.4995 168.922 58.2904 168.922 60.4995V140.5C168.922 142.709 167.132 144.5 164.922 144.5H134.922C132.713 144.5 130.922 142.709 130.922 140.5V60.4995Z"></path>
<path fill="#417DA0" d="M35 57.9995C34.7738 57.9995 34.5568 58.0292 34.3517 58.084C33.5514 58.2979 32.7292 57.8226 32.5152 57.0222C32.3013 56.2219 32.7767 55.3997 33.577 55.1858C34.0325 55.064 34.5099 54.9995 35 54.9995H36.6667C37.4951 54.9995 38.1667 55.6711 38.1667 56.4995C38.1667 57.3279 37.4951 57.9995 36.6667 57.9995H35ZM41.8333 56.4995C41.8333 55.6711 42.5049 54.9995 43.3333 54.9995H46.6667C47.4951 54.9995 48.1667 55.6711 48.1667 56.4995C48.1667 57.3279 47.4951 57.9995 46.6667 57.9995H43.3333C42.5049 57.9995 41.8333 57.3279 41.8333 56.4995ZM51.8333 56.4995C51.8333 55.6711 52.5049 54.9995 53.3333 54.9995H56.6667C57.4951 54.9995 58.1667 55.6711 58.1667 56.4995C58.1667 57.3279 57.4951 57.9995 56.6667 57.9995H53.3333C52.5049 57.9995 51.8333 57.3279 51.8333 56.4995ZM61.8333 56.4995C61.8333 55.6711 62.5049 54.9995 63.3333 54.9995H65C65.4901 54.9995 65.9675 55.064 66.423 55.1858C67.2233 55.3997 67.6987 56.2219 67.4848 57.0222C67.2708 57.8226 66.4486 58.2979 65.6483 58.084C65.4432 58.0292 65.2262 57.9995 65 57.9995H63.3333C62.5049 57.9995 61.8333 57.3279 61.8333 56.4995ZM68.4773 58.0147C69.2776 57.8008 70.0998 58.2762 70.3138 59.0765C70.4355 59.532 70.5 60.0094 70.5 60.4995V62.4043C70.5 63.2327 69.8284 63.9043 69 63.9043C68.1716 63.9043 67.5 63.2327 67.5 62.4043V60.4995C67.5 60.2733 67.4703 60.0563 67.4155 59.8512C67.2016 59.0509 67.6769 58.2287 68.4773 58.0147ZM31.5227 58.0147C32.3231 58.2287 32.7984 59.0509 32.5845 59.8512C32.5297 60.0563 32.5 60.2733 32.5 60.4995V62.4043C32.5 63.2327 31.8284 63.9043 31 63.9043C30.1716 63.9043 29.5 63.2327 29.5 62.4043V60.4995C29.5 60.0094 29.5645 59.532 29.6862 59.0765C29.9002 58.2762 30.7224 57.8008 31.5227 58.0147ZM31 68.5233C31.8284 68.5233 32.5 69.1949 32.5 70.0233V73.8328C32.5 74.6613 31.8284 75.3328 31 75.3328C30.1716 75.3328 29.5 74.6613 29.5 73.8328V70.0233C29.5 69.1949 30.1716 68.5233 31 68.5233ZM69 68.5233C69.8284 68.5233 70.5 69.1949 70.5 70.0233V73.8328C70.5 74.6613 69.8284 75.3328 69 75.3328C68.1716 75.3328 67.5 74.6613 67.5 73.8328V70.0233C67.5 69.1949 68.1716 68.5233 69 68.5233ZM31 79.9519C31.8284 79.9519 32.5 80.6235 32.5 81.4519V85.2614C32.5 86.0898 31.8284 86.7614 31 86.7614C30.1716 86.7614 29.5 86.0898 29.5 85.2614V81.4519C29.5 80.6235 30.1716 79.9519 31 79.9519ZM69 79.9519C69.8284 79.9519 70.5 80.6235 70.5 81.4519V85.2614C70.5 86.0898 69.8284 86.7614 69 86.7614C68.1716 86.7614 67.5 86.0898 67.5 85.2614V81.4519C67.5 80.6235 68.1716 79.9519 69 79.9519ZM31 91.3805C31.8284 91.3805 32.5 92.052 32.5 92.8805V96.69C32.5 97.5184 31.8284 98.19 31 98.19C30.1716 98.19 29.5 97.5184 29.5 96.69V92.8805C29.5 92.052 30.1716 91.3805 31 91.3805ZM69 91.3805C69.8284 91.3805 70.5 92.052 70.5 92.8805V96.69C70.5 97.5184 69.8284 98.19 69 98.19C68.1716 98.19 67.5 97.5184 67.5 96.69V92.8805C67.5 92.052 68.1716 91.3805 69 91.3805ZM31 102.809C31.8284 102.809 32.5 103.481 32.5 104.309V108.119C32.5 108.947 31.8284 109.619 31 109.619C30.1716 109.619 29.5 108.947 29.5 108.119V104.309C29.5 103.481 30.1716 102.809 31 102.809ZM69 102.809C69.8284 102.809 70.5 103.481 70.5 104.309V108.119C70.5 108.947 69.8284 109.619 69 109.619C68.1716 109.619 67.5 108.947 67.5 108.119V104.309C67.5 103.481 68.1716 102.809 69 102.809ZM31 114.238C31.8284 114.238 32.5 114.909 32.5 115.738V119.547C32.5 120.376 31.8284 121.047 31 121.047C30.1716 121.047 29.5 120.376 29.5 119.547V115.738C29.5 114.909 30.1716 114.238 31 114.238ZM69 114.238C69.8284 114.238 70.5 114.909 70.5 115.738V119.547C70.5 120.376 69.8284 121.047 69 121.047C68.1716 121.047 67.5 120.376 67.5 119.547V115.738C67.5 114.909 68.1716 114.238 69 114.238ZM31 125.666C31.8284 125.666 32.5 126.338 32.5 127.166V130.976C32.5 131.804 31.8284 132.476 31 132.476C30.1716 132.476 29.5 131.804 29.5 130.976V127.166C29.5 126.338 30.1716 125.666 31 125.666ZM69 125.666C69.8284 125.666 70.5 126.338 70.5 127.166V130.976C70.5 131.804 69.8284 132.476 69 132.476C68.1716 132.476 67.5 131.804 67.5 130.976V127.166C67.5 126.338 68.1716 125.666 69 125.666ZM31 137.095C31.8284 137.095 32.5 137.766 32.5 138.595V140.5C32.5 140.726 32.5297 140.943 32.5845 141.148C32.7984 141.948 32.3231 142.77 31.5227 142.984C30.7224 143.198 29.9002 142.723 29.6862 141.923C29.5645 141.467 29.5 140.99 29.5 140.5V138.595C29.5 137.766 30.1716 137.095 31 137.095ZM69 137.095C69.8284 137.095 70.5 137.766 70.5 138.595V140.5C70.5 140.99 70.4355 141.467 70.3138 141.923C70.0998 142.723 69.2776 143.198 68.4773 142.984C67.6769 142.77 67.2016 141.948 67.4155 141.148C67.4703 140.943 67.5 140.726 67.5 140.5V138.595C67.5 137.766 68.1716 137.095 69 137.095ZM32.5152 143.977C32.7292 143.176 33.5514 142.701 34.3517 142.915C34.5568 142.97 34.7738 143 35 143H36.6667C37.4951 143 38.1667 143.671 38.1667 144.5C38.1667 145.328 37.4951 146 36.6667 146H35C34.5099 146 34.0325 145.935 33.577 145.813C32.7767 145.599 32.3013 144.777 32.5152 143.977ZM67.4848 143.977C67.6987 144.777 67.2233 145.599 66.423 145.813C65.9675 145.935 65.4901 146 65 146H63.3333C62.5049 146 61.8333 145.328 61.8333 144.5C61.8333 143.671 62.5049 143 63.3333 143H65C65.2262 143 65.4432 142.97 65.6483 142.915C66.4486 142.701 67.2708 143.176 67.4848 143.977ZM41.8333 144.5C41.8333 143.671 42.5049 143 43.3333 143H46.6667C47.4951 143 48.1667 143.671 48.1667 144.5C48.1667 145.328 47.4951 146 46.6667 146H43.3333C42.5049 146 41.8333 145.328 41.8333 144.5ZM51.8333 144.5C51.8333 143.671 52.5049 143 53.3333 143H56.6667C57.4951 143 58.1667 143.671 58.1667 144.5C58.1667 145.328 57.4951 146 56.6667 146H53.3333C52.5049 146 51.8333 145.328 51.8333 144.5Z" clip-rule="evenodd" fill-rule="evenodd"></path>
<path fill="#417DA0" d="M84.9612 57.9995C84.735 57.9995 84.518 58.0292 84.3129 58.084C83.5126 58.2979 82.6903 57.8226 82.4764 57.0222C82.2625 56.2219 82.7378 55.3997 83.5382 55.1858C83.9937 55.064 84.4711 54.9995 84.9612 54.9995H86.6278C87.4563 54.9995 88.1278 55.6711 88.1278 56.4995C88.1278 57.3279 87.4563 57.9995 86.6278 57.9995H84.9612ZM91.7945 56.4995C91.7945 55.6711 92.4661 54.9995 93.2945 54.9995H96.6278C97.4563 54.9995 98.1278 55.6711 98.1278 56.4995C98.1278 57.3279 97.4563 57.9995 96.6278 57.9995H93.2945C92.4661 57.9995 91.7945 57.3279 91.7945 56.4995ZM101.795 56.4995C101.795 55.6711 102.466 54.9995 103.295 54.9995H106.628C107.456 54.9995 108.128 55.6711 108.128 56.4995C108.128 57.3279 107.456 57.9995 106.628 57.9995H103.295C102.466 57.9995 101.795 57.3279 101.795 56.4995ZM111.795 56.4995C111.795 55.6711 112.466 54.9995 113.295 54.9995H114.961C115.451 54.9995 115.929 55.064 116.384 55.1858C117.185 55.3997 117.66 56.2219 117.446 57.0222C117.232 57.8226 116.41 58.2979 115.609 58.084C115.404 58.0292 115.187 57.9995 114.961 57.9995H113.295C112.466 57.9995 111.795 57.3279 111.795 56.4995ZM118.438 58.0147C119.239 57.8008 120.061 58.2762 120.275 59.0765C120.397 59.532 120.461 60.0094 120.461 60.4995V62.4043C120.461 63.2327 119.79 63.9043 118.961 63.9043C118.133 63.9043 117.461 63.2327 117.461 62.4043V60.4995C117.461 60.2733 117.432 60.0563 117.377 59.8512C117.163 59.0509 117.638 58.2287 118.438 58.0147ZM81.4839 58.0147C82.2842 58.2287 82.7596 59.0509 82.5457 59.8512C82.4908 60.0563 82.4612 60.2733 82.4612 60.4995V62.4043C82.4612 63.2327 81.7896 63.9043 80.9612 63.9043C80.1328 63.9043 79.4612 63.2327 79.4612 62.4043V60.4995C79.4612 60.0094 79.5257 59.532 79.6474 59.0765C79.8614 58.2762 80.6836 57.8008 81.4839 58.0147ZM80.9612 68.5233C81.7896 68.5233 82.4612 69.1949 82.4612 70.0233V73.8328C82.4612 74.6613 81.7896 75.3328 80.9612 75.3328C80.1328 75.3328 79.4612 74.6613 79.4612 73.8328V70.0233C79.4612 69.1949 80.1328 68.5233 80.9612 68.5233ZM118.961 68.5233C119.79 68.5233 120.461 69.1949 120.461 70.0233V73.8328C120.461 74.6613 119.79 75.3328 118.961 75.3328C118.133 75.3328 117.461 74.6613 117.461 73.8328V70.0233C117.461 69.1949 118.133 68.5233 118.961 68.5233ZM80.9612 79.9519C81.7896 79.9519 82.4612 80.6235 82.4612 81.4519V85.2614C82.4612 86.0898 81.7896 86.7614 80.9612 86.7614C80.1328 86.7614 79.4612 86.0898 79.4612 85.2614V81.4519C79.4612 80.6235 80.1328 79.9519 80.9612 79.9519ZM118.961 79.9519C119.79 79.9519 120.461 80.6235 120.461 81.4519V85.2614C120.461 86.0898 119.79 86.7614 118.961 86.7614C118.133 86.7614 117.461 86.0898 117.461 85.2614V81.4519C117.461 80.6235 118.133 79.9519 118.961 79.9519ZM80.9612 91.3805C81.7896 91.3805 82.4612 92.052 82.4612 92.8805V96.69C82.4612 97.5184 81.7896 98.19 80.9612 98.19C80.1328 98.19 79.4612 97.5184 79.4612 96.69V92.8805C79.4612 92.052 80.1328 91.3805 80.9612 91.3805ZM118.961 91.3805C119.79 91.3805 120.461 92.052 120.461 92.8805V96.69C120.461 97.5184 119.79 98.19 118.961 98.19C118.133 98.19 117.461 97.5184 117.461 96.69V92.8805C117.461 92.052 118.133 91.3805 118.961 91.3805ZM80.9612 102.809C81.7896 102.809 82.4612 103.481 82.4612 104.309V108.119C82.4612 108.947 81.7896 109.619 80.9612 109.619C80.1328 109.619 79.4612 108.947 79.4612 108.119V104.309C79.4612 103.481 80.1328 102.809 80.9612 102.809ZM118.961 102.809C119.79 102.809 120.461 103.481 120.461 104.309V108.119C120.461 108.947 119.79 109.619 118.961 109.619C118.133 109.619 117.461 108.947 117.461 108.119V104.309C117.461 103.481 118.133 102.809 118.961 102.809ZM80.9612 114.238C81.7896 114.238 82.4612 114.909 82.4612 115.738V119.547C82.4612 120.376 81.7896 121.047 80.9612 121.047C80.1328 121.047 79.4612 120.376 79.4612 119.547V115.738C79.4612 114.909 80.1328 114.238 80.9612 114.238ZM118.961 114.238C119.79 114.238 120.461 114.909 120.461 115.738V119.547C120.461 120.376 119.79 121.047 118.961 121.047C118.133 121.047 117.461 120.376 117.461 119.547V115.738C117.461 114.909 118.133 114.238 118.961 114.238ZM80.9612 125.666C81.7896 125.666 82.4612 126.338 82.4612 127.166V130.976C82.4612 131.804 81.7896 132.476 80.9612 132.476C80.1328 132.476 79.4612 131.804 79.4612 130.976V127.166C79.4612 126.338 80.1328 125.666 80.9612 125.666ZM118.961 125.666C119.79 125.666 120.461 126.338 120.461 127.166V130.976C120.461 131.804 119.79 132.476 118.961 132.476C118.133 132.476 117.461 131.804 117.461 130.976V127.166C117.461 126.338 118.133 125.666 118.961 125.666ZM80.9612 137.095C81.7896 137.095 82.4612 137.766 82.4612 138.595V140.5C82.4612 140.726 82.4908 140.943 82.5457 141.148C82.7596 141.948 82.2842 142.77 81.4839 142.984C80.6836 143.198 79.8614 142.723 79.6474 141.923C79.5257 141.467 79.4612 140.99 79.4612 140.5V138.595C79.4612 137.766 80.1328 137.095 80.9612 137.095ZM118.961 137.095C119.79 137.095 120.461 137.766 120.461 138.595V140.5C120.461 140.99 120.397 141.467 120.275 141.923C120.061 142.723 119.239 143.198 118.438 142.984C117.638 142.77 117.163 141.948 117.377 141.148C117.432 140.943 117.461 140.726 117.461 140.5V138.595C117.461 137.766 118.133 137.095 118.961 137.095ZM82.4764 143.977C82.6903 143.176 83.5126 142.701 84.3129 142.915C84.518 142.97 84.735 143 84.9612 143H86.6278C87.4563 143 88.1278 143.671 88.1278 144.5C88.1278 145.328 87.4563 146 86.6278 146H84.9612C84.4711 146 83.9937 145.935 83.5382 145.813C82.7378 145.599 82.2625 144.777 82.4764 143.977ZM117.446 143.977C117.66 144.777 117.185 145.599 116.384 145.813C115.929 145.935 115.451 146 114.961 146H113.295C112.466 146 111.795 145.328 111.795 144.5C111.795 143.671 112.466 143 113.295 143H114.961C115.187 143 115.404 142.97 115.609 142.915C116.41 142.701 117.232 143.176 117.446 143.977ZM91.7945 144.5C91.7945 143.671 92.4661 143 93.2945 143H96.6278C97.4563 143 98.1279 143.671 98.1279 144.5C98.1279 145.328 97.4563 146 96.6278 146H93.2945C92.4661 146 91.7945 145.328 91.7945 144.5ZM101.795 144.5C101.795 143.671 102.466 143 103.295 143H106.628C107.456 143 108.128 143.671 108.128 144.5C108.128 145.328 107.456 146 106.628 146H103.295C102.466 146 101.795 145.328 101.795 144.5Z" clip-rule="evenodd" fill-rule="evenodd"></path>
<path fill="#417DA0" d="M134.922 57.9995C134.696 57.9995 134.479 58.0292 134.274 58.084C133.474 58.2979 132.652 57.8226 132.438 57.0222C132.224 56.2219 132.699 55.3997 133.499 55.1858C133.955 55.064 134.432 54.9995 134.922 54.9995H136.589C137.417 54.9995 138.089 55.6711 138.089 56.4995C138.089 57.3279 137.417 57.9995 136.589 57.9995H134.922ZM141.756 56.4995C141.756 55.6711 142.427 54.9995 143.256 54.9995H146.589C147.417 54.9995 148.089 55.6711 148.089 56.4995C148.089 57.3279 147.417 57.9995 146.589 57.9995H143.256C142.427 57.9995 141.756 57.3279 141.756 56.4995ZM151.756 56.4995C151.756 55.6711 152.427 54.9995 153.256 54.9995H156.589C157.417 54.9995 158.089 55.6711 158.089 56.4995C158.089 57.3279 157.417 57.9995 156.589 57.9995H153.256C152.427 57.9995 151.756 57.3279 151.756 56.4995ZM161.756 56.4995C161.756 55.6711 162.427 54.9995 163.256 54.9995H164.922C165.412 54.9995 165.89 55.064 166.345 55.1858C167.146 55.3997 167.621 56.2219 167.407 57.0222C167.193 57.8226 166.371 58.2979 165.571 58.084C165.366 58.0292 165.149 57.9995 164.922 57.9995H163.256C162.427 57.9995 161.756 57.3279 161.756 56.4995ZM168.4 58.0147C169.2 57.8008 170.022 58.2762 170.236 59.0765C170.358 59.532 170.422 60.0094 170.422 60.4995V62.4043C170.422 63.2327 169.751 63.9043 168.922 63.9043C168.094 63.9043 167.422 63.2327 167.422 62.4043V60.4995C167.422 60.2733 167.393 60.0563 167.338 59.8512C167.124 59.0509 167.599 58.2287 168.4 58.0147ZM131.445 58.0147C132.245 58.2287 132.721 59.0509 132.507 59.8512C132.452 60.0563 132.422 60.2733 132.422 60.4995V62.4043C132.422 63.2327 131.751 63.9043 130.922 63.9043C130.094 63.9043 129.422 63.2327 129.422 62.4043V60.4995C129.422 60.0094 129.487 59.532 129.609 59.0765C129.823 58.2762 130.645 57.8008 131.445 58.0147ZM130.922 68.5233C131.751 68.5233 132.422 69.1949 132.422 70.0233V73.8328C132.422 74.6613 131.751 75.3328 130.922 75.3328C130.094 75.3328 129.422 74.6613 129.422 73.8328V70.0233C129.422 69.1949 130.094 68.5233 130.922 68.5233ZM168.922 68.5233C169.751 68.5233 170.422 69.1949 170.422 70.0233V73.8328C170.422 74.6613 169.751 75.3328 168.922 75.3328C168.094 75.3328 167.422 74.6613 167.422 73.8328V70.0233C167.422 69.1949 168.094 68.5233 168.922 68.5233ZM130.922 79.9519C131.751 79.9519 132.422 80.6235 132.422 81.4519V85.2614C132.422 86.0898 131.751 86.7614 130.922 86.7614C130.094 86.7614 129.422 86.0898 129.422 85.2614V81.4519C129.422 80.6235 130.094 79.9519 130.922 79.9519ZM168.922 79.9519C169.751 79.9519 170.422 80.6235 170.422 81.4519V85.2614C170.422 86.0898 169.751 86.7614 168.922 86.7614C168.094 86.7614 167.422 86.0898 167.422 85.2614V81.4519C167.422 80.6235 168.094 79.9519 168.922 79.9519ZM130.922 91.3805C131.751 91.3805 132.422 92.052 132.422 92.8805V96.69C132.422 97.5184 131.751 98.19 130.922 98.19C130.094 98.19 129.422 97.5184 129.422 96.69V92.8805C129.422 92.052 130.094 91.3805 130.922 91.3805ZM168.922 91.3805C169.751 91.3805 170.422 92.052 170.422 92.8805V96.69C170.422 97.5184 169.751 98.19 168.922 98.19C168.094 98.19 167.422 97.5184 167.422 96.69V92.8805C167.422 92.052 168.094 91.3805 168.922 91.3805ZM130.922 102.809C131.751 102.809 132.422 103.481 132.422 104.309V108.119C132.422 108.947 131.751 109.619 130.922 109.619C130.094 109.619 129.422 108.947 129.422 108.119V104.309C129.422 103.481 130.094 102.809 130.922 102.809ZM168.922 102.809C169.751 102.809 170.422 103.481 170.422 104.309V108.119C170.422 108.947 169.751 109.619 168.922 109.619C168.094 109.619 167.422 108.947 167.422 108.119V104.309C167.422 103.481 168.094 102.809 168.922 102.809ZM130.922 114.238C131.751 114.238 132.422 114.909 132.422 115.738V119.547C132.422 120.376 131.751 121.047 130.922 121.047C130.094 121.047 129.422 120.376 129.422 119.547V115.738C129.422 114.909 130.094 114.238 130.922 114.238ZM168.922 114.238C169.751 114.238 170.422 114.909 170.422 115.738V119.547C170.422 120.376 169.751 121.047 168.922 121.047C168.094 121.047 167.422 120.376 167.422 119.547V115.738C167.422 114.909 168.094 114.238 168.922 114.238ZM130.922 125.666C131.751 125.666 132.422 126.338 132.422 127.166V130.976C132.422 131.804 131.751 132.476 130.922 132.476C130.094 132.476 129.422 131.804 129.422 130.976V127.166C129.422 126.338 130.094 125.666 130.922 125.666ZM168.922 125.666C169.751 125.666 170.422 126.338 170.422 127.166V130.976C170.422 131.804 169.751 132.476 168.922 132.476C168.094 132.476 167.422 131.804 167.422 130.976V127.166C167.422 126.338 168.094 125.666 168.922 125.666ZM130.922 137.095C131.751 137.095 132.422 137.766 132.422 138.595V140.5C132.422 140.726 132.452 140.943 132.507 141.148C132.721 141.948 132.245 142.77 131.445 142.984C130.645 143.198 129.823 142.723 129.609 141.923C129.487 141.467 129.422 140.99 129.422 140.5V138.595C129.422 137.766 130.094 137.095 130.922 137.095ZM168.922 137.095C169.751 137.095 170.422 137.766 170.422 138.595V140.5C170.422 140.99 170.358 141.467 170.236 141.923C170.022 142.723 169.2 143.198 168.4 142.984C167.599 142.77 167.124 141.948 167.338 141.148C167.393 140.943 167.422 140.726 167.422 140.5V138.595C167.422 137.766 168.094 137.095 168.922 137.095ZM132.438 143.977C132.652 143.176 133.474 142.701 134.274 142.915C134.479 142.97 134.696 143 134.922 143H136.589C137.417 143 138.089 143.671 138.089 144.5C138.089 145.328 137.417 146 136.589 146H134.922C134.432 146 133.955 145.935 133.499 145.813C132.699 145.599 132.224 144.777 132.438 143.977ZM167.407 143.977C167.621 144.777 167.146 145.599 166.345 145.813C165.89 145.935 165.412 146 164.922 146H163.256C162.427 146 161.756 145.328 161.756 144.5C161.756 143.671 162.427 143 163.256 143H164.922C165.149 143 165.366 142.97 165.571 142.915C166.371 142.701 167.193 143.176 167.407 143.977ZM141.756 144.5C141.756 143.671 142.427 143 143.256 143H146.589C147.417 143 148.089 143.671 148.089 144.5C148.089 145.328 147.417 146 146.589 146H143.256C142.427 146 141.756 145.328 141.756 144.5ZM151.756 144.5C151.756 143.671 152.427 143 153.256 143H156.589C157.417 143 158.089 143.671 158.089 144.5C158.089 145.328 157.417 146 156.589 146H153.256C152.427 146 151.756 145.328 151.756 144.5Z" clip-rule="evenodd" fill-rule="evenodd"></path>
</svg>
