<svg xmlns="http://www.w3.org/2000/svg" fill="none" viewBox="0 0 200 200" height="200" width="200">
<path fill="white" d="M23 94C23 87.3726 28.3726 82 35 82H163C169.627 82 175 87.3726 175 94V110C175 116.627 169.627 122 163 122H35C28.3726 122 23 116.627 23 110V94Z"></path>
<path fill="#417DA0" d="M163 85H35C30.0294 85 26 89.0294 26 94V110C26 114.971 30.0294 119 35 119H163C167.971 119 172 114.971 172 110V94C172 89.0294 167.971 85 163 85ZM35 82C28.3726 82 23 87.3726 23 94V110C23 116.627 28.3726 122 35 122H163C169.627 122 175 116.627 175 110V94C175 87.3726 169.627 82 163 82H35Z" clip-rule="evenodd" fill-rule="evenodd"></path>
<rect fill="#417DA0" rx="4" height="8" width="53" y="66" x="24"></rect>
<rect fill="#C0D6E4" rx="4" height="8" width="42" y="98" x="35"></rect>
<path fill="#417DA0" d="M128.707 95.2929C129.098 95.6834 129.098 96.3166 128.707 96.7071L116.707 108.707C116.317 109.098 115.683 109.098 115.293 108.707C114.902 108.317 114.902 107.683 115.293 107.293L127.293 95.2929C127.683 94.9024 128.317 94.9024 128.707 95.2929Z" clip-rule="evenodd" fill-rule="evenodd"></path>
<path fill="#417DA0" d="M115.293 95.2929C114.902 95.6834 114.902 96.3166 115.293 96.7071L127.293 108.707C127.683 109.098 128.317 109.098 128.707 108.707C129.098 108.317 129.098 107.683 128.707 107.293L116.707 95.2929C116.317 94.9024 115.683 94.9024 115.293 95.2929Z" clip-rule="evenodd" fill-rule="evenodd"></path>
<path fill="#417DA0" d="M139 83H163C169.627 83 175 88.3726 175 95V110C175 116.627 169.627 122 163 122H139V83Z"></path>
<path fill="#E3EFF7" d="M154.904 104.233C157.295 104.233 159.233 102.295 159.233 99.9039C159.233 97.5128 157.295 95.5744 154.904 95.5744C152.513 95.5744 150.574 97.5128 150.574 99.9039C150.574 102.295 152.513 104.233 154.904 104.233ZM154.904 105.808C158.164 105.808 160.808 103.164 160.808 99.9039C160.808 96.6433 158.164 94 154.904 94C151.643 94 149 96.6433 149 99.9039C149 103.164 151.643 105.808 154.904 105.808Z" clip-rule="evenodd" fill-rule="evenodd"></path>
<path fill="#E3EFF7" d="M158.283 103.283C158.59 102.976 159.089 102.976 159.396 103.283L163.726 107.613C164.033 107.92 164.033 108.418 163.726 108.726C163.418 109.033 162.92 109.033 162.613 108.726L158.283 104.396C157.976 104.089 157.976 103.591 158.283 103.283Z" clip-rule="evenodd" fill-rule="evenodd"></path>
</svg>
