<svg xmlns="http://www.w3.org/2000/svg" fill="none" viewBox="0 0 384 160" height="160" width="384">
<rect fill="#F7F7F7" height="160" width="384"></rect>
<g clip-path="url(#clip0_4981_21577)">
<mask fill="white" id="path-1-inside-1_4981_21577">
<path d="M24 24H360V72H24V24Z"></path>
</mask>
<path fill="#F7F7F7" d="M24 24H360V72H24V24Z"></path>
<path fill="#262626" d="M-127.087 50.058V48.924H-122.947V50.058H-127.087ZM-121.497 50.058V48.924H-117.357V50.058H-121.497ZM-115.908 50.058V48.924H-111.768V50.058H-115.908ZM-110.318 50.058V48.924H-106.178V50.058H-110.318ZM-104.728 50.058V48.924H-100.588V50.058H-104.728ZM-99.138 50.058V48.924H-94.998V50.058H-99.138ZM-93.5481 50.058V48.924H-89.4081V50.058H-93.5481ZM-87.9583 50.058V48.924H-83.8183V50.058H-87.9583ZM-82.3684 50.058V48.924H-78.2284V50.058H-82.3684ZM-76.7786 50.058V48.924H-72.6386V50.058H-76.7786ZM-71.1888 50.058V48.924H-67.0488V50.058H-71.1888ZM-65.5989 50.058V48.924H-61.4589V50.058H-65.5989ZM-60.0091 50.058V48.924H-55.8691V50.058H-60.0091ZM-54.4192 50.058V48.924H-50.2792V50.058H-54.4192ZM-48.8294 50.058V48.924H-44.6894V50.058H-48.8294ZM-43.2395 50.058V48.924H-39.0995V50.058H-43.2395ZM-37.6497 50.058V48.924H-33.5097V50.058H-37.6497ZM-32.0599 50.058V48.924H-27.9199V50.058H-32.0599ZM-26.47 50.058V48.924H-22.33V50.058H-26.47ZM-20.8802 50.058V48.924H-16.7402V50.058H-20.8802ZM-15.2903 50.058V48.924H-11.1503V50.058H-15.2903ZM-9.70048 50.058V48.924H-5.56048V50.058H-9.70048ZM-4.11063 50.058V48.924H0.0293677V50.058H-4.11063ZM6.55521 54.216C5.75121 54.216 5.02521 54.054 4.37721 53.73C3.74121 53.406 3.23721 52.872 2.86521 52.128C2.49321 51.384 2.30721 50.382 2.30721 49.122V42.192H3.80121V49.158C3.80121 50.106 3.92121 50.856 4.16121 51.408C4.41321 51.948 4.74321 52.332 5.15121 52.56C5.57121 52.788 6.03921 52.902 6.55521 52.902C7.08321 52.902 7.55721 52.788 7.97721 52.56C8.39721 52.332 8.72721 51.948 8.96721 51.408C9.21921 50.856 9.34521 50.106 9.34521 49.158V42.192H10.7852V49.122C10.7852 50.382 10.5992 51.384 10.2272 52.128C9.85521 52.872 9.35121 53.406 8.71521 53.73C8.07921 54.054 7.35921 54.216 6.55521 54.216ZM16.5728 54.216C15.6368 54.216 14.9828 53.946 14.6108 53.406C14.2508 52.866 14.0708 52.164 14.0708 51.3V46.458H12.7748V45.342L14.1428 45.252L14.3228 42.804H15.5648V45.252H17.9228V46.458H15.5648V51.318C15.5648 51.858 15.6608 52.278 15.8528 52.578C16.0568 52.866 16.4108 53.01 16.9148 53.01C17.0708 53.01 17.2388 52.986 17.4188 52.938C17.5988 52.878 17.7608 52.824 17.9048 52.776L18.1928 53.892C17.9528 53.976 17.6888 54.048 17.4008 54.108C17.1248 54.18 16.8488 54.216 16.5728 54.216ZM23.7708 54.216C23.3628 54.216 22.9368 54.12 22.4928 53.928C22.0608 53.724 21.6528 53.448 21.2688 53.1H21.2148L21.0888 54H19.9008V41.184H21.3768V44.676L21.3408 46.26C21.7368 45.912 22.1688 45.624 22.6368 45.396C23.1168 45.156 23.5968 45.036 24.0768 45.036C25.2168 45.036 26.0808 45.438 26.6688 46.242C27.2568 47.046 27.5508 48.126 27.5508 49.482C27.5508 50.478 27.3708 51.33 27.0108 52.038C26.6628 52.746 26.2008 53.286 25.6248 53.658C25.0608 54.03 24.4428 54.216 23.7708 54.216ZM23.5188 52.974C24.2388 52.974 24.8328 52.668 25.3008 52.056C25.7808 51.432 26.0208 50.58 26.0208 49.5C26.0208 48.54 25.8408 47.766 25.4808 47.178C25.1328 46.578 24.5448 46.278 23.7168 46.278C23.3448 46.278 22.9668 46.38 22.5828 46.584C22.1988 46.788 21.7968 47.082 21.3768 47.466V52.056C21.7608 52.392 22.1388 52.632 22.5108 52.776C22.8948 52.908 23.2308 52.974 23.5188 52.974ZM33.396 54.216C32.616 54.216 31.908 54.036 31.272 53.676C30.636 53.304 30.132 52.776 29.76 52.092C29.388 51.408 29.202 50.592 29.202 49.644C29.202 48.684 29.388 47.862 29.76 47.178C30.144 46.494 30.636 45.966 31.236 45.594C31.836 45.222 32.466 45.036 33.126 45.036C34.242 45.036 35.1 45.408 35.7 46.152C36.312 46.896 36.618 47.892 36.618 49.14C36.618 49.296 36.612 49.452 36.6 49.608C36.6 49.752 36.588 49.878 36.564 49.986H30.66C30.72 50.91 31.008 51.648 31.524 52.2C32.052 52.752 32.736 53.028 33.576 53.028C33.996 53.028 34.38 52.968 34.728 52.848C35.088 52.716 35.43 52.548 35.754 52.344L36.276 53.316C35.904 53.556 35.478 53.766 34.998 53.946C34.53 54.126 33.996 54.216 33.396 54.216ZM30.642 48.924H35.322C35.322 48.036 35.13 47.364 34.746 46.908C34.374 46.44 33.846 46.206 33.162 46.206C32.55 46.206 31.998 46.446 31.506 46.926C31.026 47.394 30.738 48.06 30.642 48.924ZM41.3579 54.216C40.4219 54.216 39.7679 53.946 39.3959 53.406C39.0359 52.866 38.8559 52.164 38.8559 51.3V46.458H37.5599V45.342L38.9279 45.252L39.1079 42.804H40.3499V45.252H42.7079V46.458H40.3499V51.318C40.3499 51.858 40.4459 52.278 40.6379 52.578C40.8419 52.866 41.1959 53.01 41.6999 53.01C41.8559 53.01 42.0239 52.986 42.2039 52.938C42.3839 52.878 42.5459 52.824 42.6899 52.776L42.9779 53.892C42.7379 53.976 42.4739 54.048 42.1859 54.108C41.9099 54.18 41.6339 54.216 41.3579 54.216ZM46.3152 54.216C45.5832 54.216 44.9712 54 44.4792 53.568C43.9992 53.124 43.7592 52.512 43.7592 51.732C43.7592 50.772 44.1852 50.04 45.0372 49.536C45.9012 49.02 47.2632 48.66 49.1232 48.456C49.1232 48.084 49.0692 47.73 48.9612 47.394C48.8652 47.058 48.6852 46.788 48.4212 46.584C48.1692 46.368 47.8032 46.26 47.3232 46.26C46.8192 46.26 46.3452 46.356 45.9012 46.548C45.4572 46.74 45.0612 46.956 44.7132 47.196L44.1372 46.17C44.5452 45.906 45.0432 45.654 45.6312 45.414C46.2312 45.162 46.8792 45.036 47.5752 45.036C48.6432 45.036 49.4172 45.366 49.8972 46.026C50.3772 46.674 50.6172 47.544 50.6172 48.636V54H49.3932L49.2672 52.956H49.2132C48.8052 53.292 48.3552 53.586 47.8632 53.838C47.3832 54.09 46.8672 54.216 46.3152 54.216ZM46.7472 53.028C47.1672 53.028 47.5632 52.926 47.9352 52.722C48.3072 52.518 48.7032 52.23 49.1232 51.858V49.428C47.6712 49.608 46.6512 49.878 46.0632 50.238C45.4872 50.598 45.1992 51.06 45.1992 51.624C45.1992 52.116 45.3492 52.476 45.6492 52.704C45.9492 52.92 46.3152 53.028 46.7472 53.028ZM54.9356 54.216C54.3836 54.216 53.9816 54.048 53.7296 53.712C53.4896 53.364 53.3696 52.872 53.3696 52.236V41.184H54.8456V52.344C54.8456 52.572 54.8876 52.74 54.9716 52.848C55.0556 52.944 55.1516 52.992 55.2596 52.992C55.3076 52.992 55.3496 52.992 55.3856 52.992C55.4336 52.98 55.4996 52.968 55.5836 52.956L55.7816 54.072C55.6856 54.12 55.5716 54.156 55.4396 54.18C55.3076 54.204 55.1396 54.216 54.9356 54.216ZM57.9574 54V45.252H59.4334V54H57.9574ZM58.7134 43.452C58.4254 43.452 58.1854 43.368 57.9934 43.2C57.8134 43.02 57.7234 42.78 57.7234 42.48C57.7234 42.192 57.8134 41.958 57.9934 41.778C58.1854 41.598 58.4254 41.508 58.7134 41.508C59.0014 41.508 59.2354 41.598 59.4154 41.778C59.6074 41.958 59.7034 42.192 59.7034 42.48C59.7034 42.78 59.6074 43.02 59.4154 43.2C59.2354 43.368 59.0014 43.452 58.7134 43.452ZM62.3871 54V45.252H63.6111L63.7371 46.512H63.7911C64.2111 46.092 64.6551 45.744 65.1231 45.468C65.5911 45.18 66.1251 45.036 66.7251 45.036C67.6491 45.036 68.3211 45.33 68.7411 45.918C69.1731 46.494 69.3891 47.34 69.3891 48.456V54H67.9131V48.654C67.9131 47.838 67.7811 47.244 67.5171 46.872C67.2531 46.5 66.8331 46.314 66.2571 46.314C65.8131 46.314 65.4111 46.428 65.0511 46.656C64.7031 46.884 64.3071 47.22 63.8631 47.664V54H62.3871ZM75.1829 58.032C74.1149 58.032 73.2449 57.828 72.5729 57.42C71.9009 57.012 71.5649 56.43 71.5649 55.674C71.5649 55.302 71.6789 54.942 71.9069 54.594C72.1349 54.258 72.4469 53.958 72.8429 53.694V53.622C72.6269 53.49 72.4409 53.304 72.2849 53.064C72.1409 52.824 72.0689 52.536 72.0689 52.2C72.0689 51.828 72.1709 51.504 72.3749 51.228C72.5789 50.952 72.7949 50.736 73.0229 50.58V50.508C72.7349 50.268 72.4709 49.944 72.2309 49.536C72.0029 49.128 71.8889 48.666 71.8889 48.15C71.8889 47.514 72.0389 46.962 72.3389 46.494C72.6389 46.026 73.0409 45.666 73.5449 45.414C74.0489 45.162 74.5949 45.036 75.1829 45.036C75.4229 45.036 75.6509 45.06 75.8669 45.108C76.0829 45.144 76.2689 45.192 76.4249 45.252H79.4669V46.386H77.6669C77.8709 46.578 78.0389 46.836 78.1709 47.16C78.3149 47.472 78.3869 47.814 78.3869 48.186C78.3869 48.81 78.2429 49.35 77.9549 49.806C77.6669 50.262 77.2829 50.616 76.8029 50.868C76.3229 51.108 75.7829 51.228 75.1829 51.228C74.7149 51.228 74.2769 51.126 73.8689 50.922C73.7129 51.054 73.5809 51.204 73.4729 51.372C73.3649 51.528 73.3109 51.726 73.3109 51.966C73.3109 52.242 73.4189 52.47 73.6349 52.65C73.8629 52.83 74.2709 52.92 74.8589 52.92H76.5509C77.5709 52.92 78.3329 53.088 78.8369 53.424C79.3529 53.748 79.6109 54.276 79.6109 55.008C79.6109 55.548 79.4309 56.046 79.0709 56.502C78.7109 56.958 78.2009 57.324 77.5409 57.6C76.8809 57.888 76.0949 58.032 75.1829 58.032ZM75.1829 50.238C75.6869 50.238 76.1189 50.052 76.4789 49.68C76.8509 49.296 77.0369 48.786 77.0369 48.15C77.0369 47.514 76.8569 47.016 76.4969 46.656C76.1369 46.296 75.6989 46.116 75.1829 46.116C74.6669 46.116 74.2289 46.296 73.8689 46.656C73.5089 47.016 73.3289 47.514 73.3289 48.15C73.3289 48.786 73.5089 49.296 73.8689 49.68C74.2409 50.052 74.6789 50.238 75.1829 50.238ZM75.3989 57.006C76.2389 57.006 76.9109 56.82 77.4149 56.448C77.9189 56.088 78.1709 55.68 78.1709 55.224C78.1709 54.816 78.0149 54.534 77.7029 54.378C77.4029 54.222 76.9709 54.144 76.4069 54.144H74.8949C74.7269 54.144 74.5409 54.132 74.3369 54.108C74.1449 54.084 73.9529 54.048 73.7609 54C73.4489 54.228 73.2209 54.468 73.0769 54.72C72.9329 54.972 72.8609 55.224 72.8609 55.476C72.8609 55.944 73.0829 56.316 73.5269 56.592C73.9829 56.868 74.6069 57.006 75.3989 57.006Z"></path>
<path mask="url(#path-3-inside-2_4981_21577)" fill="#0067C5" d="M96 68H-144V76H96V68Z"></path>
<path fill="#262626" d="M116.116 54L112.336 42.192H113.938L115.828 48.564C116.044 49.26 116.23 49.914 116.386 50.526C116.554 51.126 116.752 51.774 116.98 52.47H117.052C117.268 51.774 117.46 51.126 117.628 50.526C117.796 49.914 117.982 49.26 118.186 48.564L120.076 42.192H121.606L117.862 54H116.116ZM123.076 54V45.252H124.552V54H123.076ZM123.832 43.452C123.544 43.452 123.304 43.368 123.112 43.2C122.932 43.02 122.842 42.78 122.842 42.48C122.842 42.192 122.932 41.958 123.112 41.778C123.304 41.598 123.544 41.508 123.832 41.508C124.12 41.508 124.354 41.598 124.534 41.778C124.726 41.958 124.822 42.192 124.822 42.48C124.822 42.78 124.726 43.02 124.534 43.2C124.354 43.368 124.12 43.452 123.832 43.452ZM129.071 54.216C128.519 54.216 128.117 54.048 127.865 53.712C127.625 53.364 127.505 52.872 127.505 52.236V41.184H128.981V52.344C128.981 52.572 129.023 52.74 129.107 52.848C129.191 52.944 129.287 52.992 129.395 52.992C129.443 52.992 129.485 52.992 129.521 52.992C129.569 52.98 129.635 52.968 129.719 52.956L129.917 54.072C129.821 54.12 129.707 54.156 129.575 54.18C129.443 54.204 129.275 54.216 129.071 54.216ZM132.093 54V41.184H133.551V49.86H133.605L137.331 45.252H138.969L136.035 48.762L139.365 54H137.745L135.189 49.788L133.551 51.696V54H132.093ZM142.846 54.216C142.114 54.216 141.502 54 141.01 53.568C140.53 53.124 140.29 52.512 140.29 51.732C140.29 50.772 140.716 50.04 141.568 49.536C142.432 49.02 143.794 48.66 145.654 48.456C145.654 48.084 145.6 47.73 145.492 47.394C145.396 47.058 145.216 46.788 144.952 46.584C144.7 46.368 144.334 46.26 143.854 46.26C143.35 46.26 142.876 46.356 142.432 46.548C141.988 46.74 141.592 46.956 141.244 47.196L140.668 46.17C141.076 45.906 141.574 45.654 142.162 45.414C142.762 45.162 143.41 45.036 144.106 45.036C145.174 45.036 145.948 45.366 146.428 46.026C146.908 46.674 147.148 47.544 147.148 48.636V54H145.924L145.798 52.956H145.744C145.336 53.292 144.886 53.586 144.394 53.838C143.914 54.09 143.398 54.216 142.846 54.216ZM143.278 53.028C143.698 53.028 144.094 52.926 144.466 52.722C144.838 52.518 145.234 52.23 145.654 51.858V49.428C144.202 49.608 143.182 49.878 142.594 50.238C142.018 50.598 141.73 51.06 141.73 51.624C141.73 52.116 141.88 52.476 142.18 52.704C142.48 52.92 142.846 53.028 143.278 53.028ZM144.16 44.028C143.56 44.028 143.08 43.86 142.72 43.524C142.36 43.188 142.18 42.762 142.18 42.246C142.18 41.742 142.36 41.322 142.72 40.986C143.08 40.65 143.56 40.482 144.16 40.482C144.76 40.482 145.24 40.65 145.6 40.986C145.96 41.322 146.14 41.742 146.14 42.246C146.14 42.762 145.96 43.188 145.6 43.524C145.24 43.86 144.76 44.028 144.16 44.028ZM144.16 43.362C144.448 43.362 144.688 43.26 144.88 43.056C145.084 42.852 145.186 42.582 145.186 42.246C145.186 41.91 145.084 41.646 144.88 41.454C144.688 41.25 144.448 41.148 144.16 41.148C143.872 41.148 143.626 41.25 143.422 41.454C143.23 41.646 143.134 41.91 143.134 42.246C143.134 42.582 143.23 42.852 143.422 43.056C143.626 43.26 143.872 43.362 144.16 43.362ZM149.9 54V45.252H151.124L151.25 46.836H151.304C151.604 46.284 151.97 45.846 152.402 45.522C152.834 45.198 153.296 45.036 153.788 45.036C154.136 45.036 154.448 45.096 154.724 45.216L154.436 46.512C154.292 46.464 154.16 46.428 154.04 46.404C153.92 46.38 153.77 46.368 153.59 46.368C153.218 46.368 152.828 46.518 152.42 46.818C152.024 47.118 151.676 47.64 151.376 48.384V54H149.9Z"></path>
<path fill="#262626" d="M193.486 54.216C192.454 54.216 191.536 53.976 190.732 53.496C189.928 53.004 189.298 52.302 188.842 51.39C188.386 50.478 188.158 49.38 188.158 48.096C188.158 46.824 188.392 45.732 188.86 44.82C189.328 43.908 189.97 43.206 190.786 42.714C191.602 42.222 192.532 41.976 193.576 41.976C194.392 41.976 195.076 42.132 195.628 42.444C196.192 42.744 196.642 43.074 196.978 43.434L196.15 44.406C195.85 44.094 195.502 43.83 195.106 43.614C194.71 43.398 194.212 43.29 193.612 43.29C192.82 43.29 192.13 43.488 191.542 43.884C190.954 44.268 190.498 44.814 190.174 45.522C189.862 46.23 189.706 47.076 189.706 48.06C189.706 49.548 190.042 50.73 190.714 51.606C191.398 52.47 192.37 52.902 193.63 52.902C194.05 52.902 194.452 52.842 194.836 52.722C195.22 52.59 195.526 52.416 195.754 52.2V49.122H193.252V47.88H197.122V52.848C196.75 53.244 196.246 53.574 195.61 53.838C194.986 54.09 194.278 54.216 193.486 54.216ZM199.807 54V45.252H201.031L201.157 46.836H201.211C201.511 46.284 201.877 45.846 202.309 45.522C202.741 45.198 203.203 45.036 203.695 45.036C204.043 45.036 204.355 45.096 204.631 45.216L204.343 46.512C204.199 46.464 204.067 46.428 203.947 46.404C203.827 46.38 203.677 46.368 203.497 46.368C203.125 46.368 202.735 46.518 202.327 46.818C201.931 47.118 201.583 47.64 201.283 48.384V54H199.807ZM208.603 54.216C207.679 54.216 207.001 53.928 206.569 53.352C206.137 52.764 205.921 51.912 205.921 50.796V45.252H207.415V50.598C207.415 51.414 207.541 52.008 207.793 52.38C208.057 52.752 208.477 52.938 209.053 52.938C209.509 52.938 209.911 52.824 210.259 52.596C210.619 52.356 211.003 51.978 211.411 51.462V45.252H212.887V54H211.663L211.537 52.632H211.483C211.075 53.112 210.643 53.496 210.187 53.784C209.731 54.072 209.203 54.216 208.603 54.216ZM215.838 54V45.252H217.062L217.188 46.512H217.242C217.662 46.092 218.106 45.744 218.574 45.468C219.042 45.18 219.576 45.036 220.176 45.036C221.1 45.036 221.772 45.33 222.192 45.918C222.624 46.494 222.84 47.34 222.84 48.456V54H221.364V48.654C221.364 47.838 221.232 47.244 220.968 46.872C220.704 46.5 220.284 46.314 219.708 46.314C219.264 46.314 218.862 46.428 218.502 46.656C218.154 46.884 217.758 47.22 217.314 47.664V54H215.838ZM225.682 54V45.252H226.906L227.032 46.512H227.086C227.506 46.092 227.95 45.744 228.418 45.468C228.886 45.18 229.42 45.036 230.02 45.036C230.944 45.036 231.616 45.33 232.036 45.918C232.468 46.494 232.684 47.34 232.684 48.456V54H231.208V48.654C231.208 47.838 231.076 47.244 230.812 46.872C230.548 46.5 230.128 46.314 229.552 46.314C229.108 46.314 228.706 46.428 228.346 46.656C227.998 46.884 227.602 47.22 227.158 47.664V54H225.682ZM237.092 54.216C236.54 54.216 236.138 54.048 235.886 53.712C235.646 53.364 235.526 52.872 235.526 52.236V41.184H237.002V52.344C237.002 52.572 237.044 52.74 237.128 52.848C237.212 52.944 237.308 52.992 237.416 52.992C237.464 52.992 237.506 52.992 237.542 52.992C237.59 52.98 237.656 52.968 237.74 52.956L237.938 54.072C237.842 54.12 237.728 54.156 237.596 54.18C237.464 54.204 237.296 54.216 237.092 54.216ZM242.13 54.216C241.398 54.216 240.786 54 240.294 53.568C239.814 53.124 239.574 52.512 239.574 51.732C239.574 50.772 240 50.04 240.852 49.536C241.716 49.02 243.078 48.66 244.938 48.456C244.938 48.084 244.884 47.73 244.776 47.394C244.68 47.058 244.5 46.788 244.236 46.584C243.984 46.368 243.618 46.26 243.138 46.26C242.634 46.26 242.16 46.356 241.716 46.548C241.272 46.74 240.876 46.956 240.528 47.196L239.952 46.17C240.36 45.906 240.858 45.654 241.446 45.414C242.046 45.162 242.694 45.036 243.39 45.036C244.458 45.036 245.232 45.366 245.712 46.026C246.192 46.674 246.432 47.544 246.432 48.636V54H245.208L245.082 52.956H245.028C244.62 53.292 244.17 53.586 243.678 53.838C243.198 54.09 242.682 54.216 242.13 54.216ZM242.562 53.028C242.982 53.028 243.378 52.926 243.75 52.722C244.122 52.518 244.518 52.23 244.938 51.858V49.428C243.486 49.608 242.466 49.878 241.878 50.238C241.302 50.598 241.014 51.06 241.014 51.624C241.014 52.116 241.164 52.476 241.464 52.704C241.764 52.92 242.13 53.028 242.562 53.028ZM252.136 58.032C251.068 58.032 250.198 57.828 249.526 57.42C248.854 57.012 248.518 56.43 248.518 55.674C248.518 55.302 248.632 54.942 248.86 54.594C249.088 54.258 249.4 53.958 249.796 53.694V53.622C249.58 53.49 249.394 53.304 249.238 53.064C249.094 52.824 249.022 52.536 249.022 52.2C249.022 51.828 249.124 51.504 249.328 51.228C249.532 50.952 249.748 50.736 249.976 50.58V50.508C249.688 50.268 249.424 49.944 249.184 49.536C248.956 49.128 248.842 48.666 248.842 48.15C248.842 47.514 248.992 46.962 249.292 46.494C249.592 46.026 249.994 45.666 250.498 45.414C251.002 45.162 251.548 45.036 252.136 45.036C252.376 45.036 252.604 45.06 252.82 45.108C253.036 45.144 253.222 45.192 253.378 45.252H256.42V46.386H254.62C254.824 46.578 254.992 46.836 255.124 47.16C255.268 47.472 255.34 47.814 255.34 48.186C255.34 48.81 255.196 49.35 254.908 49.806C254.62 50.262 254.236 50.616 253.756 50.868C253.276 51.108 252.736 51.228 252.136 51.228C251.668 51.228 251.23 51.126 250.822 50.922C250.666 51.054 250.534 51.204 250.426 51.372C250.318 51.528 250.264 51.726 250.264 51.966C250.264 52.242 250.372 52.47 250.588 52.65C250.816 52.83 251.224 52.92 251.812 52.92H253.504C254.524 52.92 255.286 53.088 255.79 53.424C256.306 53.748 256.564 54.276 256.564 55.008C256.564 55.548 256.384 56.046 256.024 56.502C255.664 56.958 255.154 57.324 254.494 57.6C253.834 57.888 253.048 58.032 252.136 58.032ZM252.136 50.238C252.64 50.238 253.072 50.052 253.432 49.68C253.804 49.296 253.99 48.786 253.99 48.15C253.99 47.514 253.81 47.016 253.45 46.656C253.09 46.296 252.652 46.116 252.136 46.116C251.62 46.116 251.182 46.296 250.822 46.656C250.462 47.016 250.282 47.514 250.282 48.15C250.282 48.786 250.462 49.296 250.822 49.68C251.194 50.052 251.632 50.238 252.136 50.238ZM252.352 57.006C253.192 57.006 253.864 56.82 254.368 56.448C254.872 56.088 255.124 55.68 255.124 55.224C255.124 54.816 254.968 54.534 254.656 54.378C254.356 54.222 253.924 54.144 253.36 54.144H251.848C251.68 54.144 251.494 54.132 251.29 54.108C251.098 54.084 250.906 54.048 250.714 54C250.402 54.228 250.174 54.468 250.03 54.72C249.886 54.972 249.814 55.224 249.814 55.476C249.814 55.944 250.036 56.316 250.48 56.592C250.936 56.868 251.56 57.006 252.352 57.006Z"></path>
<path fill="#262626" d="M291.099 54V42.192H292.899L295.167 48.492C295.311 48.9 295.449 49.314 295.581 49.734C295.725 50.142 295.869 50.55 296.013 50.958H296.085C296.229 50.55 296.361 50.142 296.481 49.734C296.613 49.314 296.751 48.9 296.895 48.492L299.127 42.192H300.945V54H299.541V47.502C299.541 46.974 299.565 46.392 299.613 45.756C299.661 45.108 299.703 44.526 299.739 44.01H299.667L298.731 46.692L296.499 52.812H295.509L293.277 46.692L292.341 44.01H292.269C292.305 44.526 292.341 45.108 292.377 45.756C292.425 46.392 292.449 46.974 292.449 47.502V54H291.099ZM304.034 54V45.252H305.51V54H304.034ZM304.79 43.452C304.502 43.452 304.262 43.368 304.07 43.2C303.89 43.02 303.8 42.78 303.8 42.48C303.8 42.192 303.89 41.958 304.07 41.778C304.262 41.598 304.502 41.508 304.79 41.508C305.078 41.508 305.312 41.598 305.492 41.778C305.684 41.958 305.78 42.192 305.78 42.48C305.78 42.78 305.684 43.02 305.492 43.2C305.312 43.368 305.078 43.452 304.79 43.452ZM308.463 54V45.252H309.687L309.813 46.512H309.867C310.287 46.092 310.731 45.744 311.199 45.468C311.667 45.18 312.201 45.036 312.801 45.036C313.725 45.036 314.397 45.33 314.817 45.918C315.249 46.494 315.465 47.34 315.465 48.456V54H313.989V48.654C313.989 47.838 313.857 47.244 313.593 46.872C313.329 46.5 312.909 46.314 312.333 46.314C311.889 46.314 311.487 46.428 311.127 46.656C310.779 46.884 310.383 47.22 309.939 47.664V54H308.463ZM325.313 54.216C324.605 54.216 323.939 54.036 323.315 53.676C322.703 53.316 322.205 52.794 321.821 52.11C321.449 51.426 321.263 50.604 321.263 49.644C321.263 48.66 321.449 47.826 321.821 47.142C322.205 46.458 322.703 45.936 323.315 45.576C323.939 45.216 324.605 45.036 325.313 45.036C326.033 45.036 326.699 45.216 327.311 45.576C327.923 45.936 328.415 46.458 328.787 47.142C329.171 47.826 329.363 48.66 329.363 49.644C329.363 50.604 329.171 51.426 328.787 52.11C328.415 52.794 327.923 53.316 327.311 53.676C326.699 54.036 326.033 54.216 325.313 54.216ZM325.313 52.992C326.069 52.992 326.675 52.686 327.131 52.074C327.599 51.45 327.833 50.64 327.833 49.644C327.833 48.636 327.599 47.82 327.131 47.196C326.675 46.572 326.069 46.26 325.313 46.26C324.569 46.26 323.963 46.572 323.495 47.196C323.027 47.82 322.793 48.636 322.793 49.644C322.793 50.64 323.027 51.45 323.495 52.074C323.963 52.686 324.569 52.992 325.313 52.992ZM331.666 57.69V45.252H332.89L333.016 46.26H333.07C333.466 45.924 333.898 45.636 334.366 45.396C334.846 45.156 335.344 45.036 335.86 45.036C336.988 45.036 337.846 45.444 338.434 46.26C339.022 47.064 339.316 48.144 339.316 49.5C339.316 50.484 339.136 51.33 338.776 52.038C338.428 52.746 337.966 53.286 337.39 53.658C336.826 54.03 336.208 54.216 335.536 54.216C335.128 54.216 334.72 54.126 334.312 53.946C333.916 53.766 333.514 53.52 333.106 53.208L333.142 54.738V57.69H331.666ZM335.284 52.974C336.004 52.974 336.598 52.668 337.066 52.056C337.546 51.432 337.786 50.58 337.786 49.5C337.786 48.54 337.606 47.766 337.246 47.178C336.898 46.578 336.31 46.278 335.482 46.278C335.11 46.278 334.732 46.38 334.348 46.584C333.976 46.788 333.574 47.082 333.142 47.466V52.056C333.538 52.392 333.922 52.632 334.294 52.776C334.666 52.908 334.996 52.974 335.284 52.974ZM341.651 57.69V45.252H342.875L343.001 46.26H343.055C343.451 45.924 343.883 45.636 344.351 45.396C344.831 45.156 345.329 45.036 345.845 45.036C346.973 45.036 347.831 45.444 348.419 46.26C349.007 47.064 349.301 48.144 349.301 49.5C349.301 50.484 349.121 51.33 348.761 52.038C348.413 52.746 347.951 53.286 347.375 53.658C346.811 54.03 346.193 54.216 345.521 54.216C345.113 54.216 344.705 54.126 344.297 53.946C343.901 53.766 343.499 53.52 343.091 53.208L343.127 54.738V57.69H341.651ZM345.269 52.974C345.989 52.974 346.583 52.668 347.051 52.056C347.531 51.432 347.771 50.58 347.771 49.5C347.771 48.54 347.591 47.766 347.231 47.178C346.883 46.578 346.295 46.278 345.467 46.278C345.095 46.278 344.717 46.38 344.333 46.584C343.961 46.788 343.559 47.082 343.127 47.466V52.056C343.523 52.392 343.907 52.632 344.279 52.776C344.651 52.908 344.981 52.974 345.269 52.974ZM354.587 58.032C353.519 58.032 352.649 57.828 351.977 57.42C351.305 57.012 350.969 56.43 350.969 55.674C350.969 55.302 351.083 54.942 351.311 54.594C351.539 54.258 351.851 53.958 352.247 53.694V53.622C352.031 53.49 351.845 53.304 351.689 53.064C351.545 52.824 351.473 52.536 351.473 52.2C351.473 51.828 351.575 51.504 351.779 51.228C351.983 50.952 352.199 50.736 352.427 50.58V50.508C352.139 50.268 351.875 49.944 351.635 49.536C351.407 49.128 351.293 48.666 351.293 48.15C351.293 47.514 351.443 46.962 351.743 46.494C352.043 46.026 352.445 45.666 352.949 45.414C353.453 45.162 353.999 45.036 354.587 45.036C354.827 45.036 355.055 45.06 355.271 45.108C355.487 45.144 355.673 45.192 355.829 45.252H358.871V46.386H357.071C357.275 46.578 357.443 46.836 357.575 47.16C357.719 47.472 357.791 47.814 357.791 48.186C357.791 48.81 357.647 49.35 357.359 49.806C357.071 50.262 356.687 50.616 356.207 50.868C355.727 51.108 355.187 51.228 354.587 51.228C354.119 51.228 353.681 51.126 353.273 50.922C353.117 51.054 352.985 51.204 352.877 51.372C352.769 51.528 352.715 51.726 352.715 51.966C352.715 52.242 352.823 52.47 353.039 52.65C353.267 52.83 353.675 52.92 354.263 52.92H355.955C356.975 52.92 357.737 53.088 358.241 53.424C358.757 53.748 359.015 54.276 359.015 55.008C359.015 55.548 358.835 56.046 358.475 56.502C358.115 56.958 357.605 57.324 356.945 57.6C356.285 57.888 355.499 58.032 354.587 58.032ZM354.587 50.238C355.091 50.238 355.523 50.052 355.883 49.68C356.255 49.296 356.441 48.786 356.441 48.15C356.441 47.514 356.261 47.016 355.901 46.656C355.541 46.296 355.103 46.116 354.587 46.116C354.071 46.116 353.633 46.296 353.273 46.656C352.913 47.016 352.733 47.514 352.733 48.15C352.733 48.786 352.913 49.296 353.273 49.68C353.645 50.052 354.083 50.238 354.587 50.238ZM354.803 57.006C355.643 57.006 356.315 56.82 356.819 56.448C357.323 56.088 357.575 55.68 357.575 55.224C357.575 54.816 357.419 54.534 357.107 54.378C356.807 54.222 356.375 54.144 355.811 54.144H354.299C354.131 54.144 353.945 54.132 353.741 54.108C353.549 54.084 353.357 54.048 353.165 54C352.853 54.228 352.625 54.468 352.481 54.72C352.337 54.972 352.265 55.224 352.265 55.476C352.265 55.944 352.487 56.316 352.931 56.592C353.387 56.868 354.011 57.006 354.803 57.006ZM362.44 54.216C361.708 54.216 361.096 54 360.604 53.568C360.124 53.124 359.884 52.512 359.884 51.732C359.884 50.772 360.31 50.04 361.162 49.536C362.026 49.02 363.388 48.66 365.248 48.456C365.248 48.084 365.194 47.73 365.086 47.394C364.99 47.058 364.81 46.788 364.546 46.584C364.294 46.368 363.928 46.26 363.448 46.26C362.944 46.26 362.47 46.356 362.026 46.548C361.582 46.74 361.186 46.956 360.838 47.196L360.262 46.17C360.67 45.906 361.168 45.654 361.756 45.414C362.356 45.162 363.004 45.036 363.7 45.036C364.768 45.036 365.542 45.366 366.022 46.026C366.502 46.674 366.742 47.544 366.742 48.636V54H365.518L365.392 52.956H365.338C364.93 53.292 364.48 53.586 363.988 53.838C363.508 54.09 362.992 54.216 362.44 54.216ZM362.872 53.028C363.292 53.028 363.688 52.926 364.06 52.722C364.432 52.518 364.828 52.23 365.248 51.858V49.428C363.796 49.608 362.776 49.878 362.188 50.238C361.612 50.598 361.324 51.06 361.324 51.624C361.324 52.116 361.474 52.476 361.774 52.704C362.074 52.92 362.44 53.028 362.872 53.028ZM371.385 54L368.235 45.252H369.765L371.421 50.22C371.553 50.652 371.685 51.084 371.817 51.516C371.961 51.948 372.099 52.374 372.231 52.794H372.303C372.435 52.374 372.567 51.948 372.699 51.516C372.843 51.084 372.975 50.652 373.095 50.22L374.751 45.252H376.209L373.113 54H371.385ZM381.373 54.216C380.593 54.216 379.885 54.036 379.249 53.676C378.613 53.304 378.109 52.776 377.737 52.092C377.365 51.408 377.179 50.592 377.179 49.644C377.179 48.684 377.365 47.862 377.737 47.178C378.121 46.494 378.613 45.966 379.213 45.594C379.813 45.222 380.443 45.036 381.103 45.036C382.219 45.036 383.077 45.408 383.677 46.152C384.289 46.896 384.595 47.892 384.595 49.14C384.595 49.296 384.589 49.452 384.577 49.608C384.577 49.752 384.565 49.878 384.541 49.986H378.637C378.697 50.91 378.985 51.648 379.501 52.2C380.029 52.752 380.713 53.028 381.553 53.028C381.973 53.028 382.357 52.968 382.705 52.848C383.065 52.716 383.407 52.548 383.731 52.344L384.253 53.316C383.881 53.556 383.455 53.766 382.975 53.946C382.507 54.126 381.973 54.216 381.373 54.216ZM378.619 48.924H383.299C383.299 48.036 383.107 47.364 382.723 46.908C382.351 46.44 381.823 46.206 381.139 46.206C380.527 46.206 379.975 46.446 379.483 46.926C379.003 47.394 378.715 48.06 378.619 48.924ZM386.756 54V45.252H387.98L388.106 46.836H388.16C388.46 46.284 388.826 45.846 389.258 45.522C389.69 45.198 390.152 45.036 390.644 45.036C390.992 45.036 391.304 45.096 391.58 45.216L391.292 46.512C391.148 46.464 391.016 46.428 390.896 46.404C390.776 46.38 390.626 46.368 390.446 46.368C390.074 46.368 389.684 46.518 389.276 46.818C388.88 47.118 388.532 47.64 388.232 48.384V54H386.756Z"></path>
<rect fill="#F7F7F7" transform="translate(312 24)" height="48" width="48"></rect>
<path fill="#262626" d="M333.47 41.9697C333.763 41.6768 334.237 41.6768 334.53 41.9697L340.03 47.4697C340.323 47.7626 340.323 48.2374 340.03 48.5303L334.53 54.0303C334.237 54.3232 333.763 54.3232 333.47 54.0303C333.177 53.7374 333.177 53.2626 333.47 52.9697L338.439 48L333.47 43.0303C333.177 42.7374 333.177 42.2626 333.47 41.9697Z" clip-rule="evenodd" fill-rule="evenodd"></path>
<rect fill="#F7F7F7" transform="translate(24 24)" height="48" width="48"></rect>
<path fill="#262626" d="M50.5303 41.9697C50.8232 42.2626 50.8232 42.7374 50.5303 43.0303L45.5607 48L50.5303 52.9697C50.8232 53.2626 50.8232 53.7374 50.5303 54.0303C50.2374 54.3232 49.7626 54.3232 49.4697 54.0303L43.9697 48.5303C43.829 48.3897 43.75 48.1989 43.75 48C43.75 47.8011 43.829 47.6103 43.9697 47.4697L49.4697 41.9697C49.7626 41.6768 50.2374 41.6768 50.5303 41.9697Z" clip-rule="evenodd" fill-rule="evenodd"></path>
</g>
<path mask="url(#path-1-inside-1_4981_21577)" fill-opacity="0.19" fill="black" d="M360 71H24V73H360V71Z"></path>
<mask fill="white" id="path-11-inside-3_4981_21577">
<path d="M24 72H360V136H24V72Z"></path>
</mask>
<path fill="white" d="M24 72H360V136H24V72Z"></path>
<path fill-opacity="0.65" fill="black" d="M174.774 110V99.504H177.766C178.556 99.504 179.244 99.6 179.83 99.792C180.417 99.984 180.876 100.309 181.206 100.768C181.537 101.216 181.702 101.824 181.702 102.592C181.702 103.691 181.345 104.507 180.63 105.04C179.916 105.573 178.982 105.84 177.83 105.84H176.102V110H174.774ZM176.102 104.752H177.67C178.588 104.752 179.265 104.581 179.702 104.24C180.15 103.888 180.374 103.339 180.374 102.592C180.374 101.835 180.14 101.312 179.67 101.024C179.212 100.725 178.524 100.576 177.606 100.576H176.102V104.752ZM184.845 110.192C184.195 110.192 183.651 110 183.213 109.616C182.787 109.221 182.573 108.677 182.573 107.984C182.573 107.131 182.952 106.48 183.709 106.032C184.477 105.573 185.688 105.253 187.341 105.072C187.341 104.741 187.293 104.427 187.197 104.128C187.112 103.829 186.952 103.589 186.717 103.408C186.493 103.216 186.168 103.12 185.741 103.12C185.293 103.12 184.872 103.205 184.477 103.376C184.083 103.547 183.731 103.739 183.421 103.952L182.909 103.04C183.272 102.805 183.715 102.581 184.237 102.368C184.771 102.144 185.347 102.032 185.965 102.032C186.915 102.032 187.603 102.325 188.029 102.912C188.456 103.488 188.669 104.261 188.669 105.232V110H187.581L187.469 109.072H187.421C187.059 109.371 186.659 109.632 186.221 109.856C185.795 110.08 185.336 110.192 184.845 110.192ZM185.229 109.136C185.603 109.136 185.955 109.045 186.285 108.864C186.616 108.683 186.968 108.427 187.341 108.096V105.936C186.051 106.096 185.144 106.336 184.621 106.656C184.109 106.976 183.853 107.387 183.853 107.888C183.853 108.325 183.987 108.645 184.253 108.848C184.52 109.04 184.845 109.136 185.229 109.136ZM191.148 110V102.224H192.236L192.348 103.344H192.396C192.769 102.971 193.164 102.661 193.58 102.416C193.996 102.16 194.471 102.032 195.004 102.032C195.825 102.032 196.423 102.293 196.796 102.816C197.18 103.328 197.372 104.08 197.372 105.072V110H196.06V105.248C196.06 104.523 195.943 103.995 195.708 103.664C195.473 103.333 195.1 103.168 194.588 103.168C194.193 103.168 193.836 103.269 193.516 103.472C193.207 103.675 192.855 103.973 192.46 104.368V110H191.148ZM203.082 110.192C202.389 110.192 201.759 110.032 201.194 109.712C200.629 109.381 200.181 108.912 199.85 108.304C199.519 107.696 199.354 106.971 199.354 106.128C199.354 105.275 199.519 104.544 199.85 103.936C200.191 103.328 200.629 102.859 201.162 102.528C201.695 102.197 202.255 102.032 202.842 102.032C203.834 102.032 204.597 102.363 205.13 103.024C205.674 103.685 205.946 104.571 205.946 105.68C205.946 105.819 205.941 105.957 205.93 106.096C205.93 106.224 205.919 106.336 205.898 106.432H200.65C200.703 107.253 200.959 107.909 201.418 108.4C201.887 108.891 202.495 109.136 203.242 109.136C203.615 109.136 203.957 109.083 204.266 108.976C204.586 108.859 204.89 108.709 205.178 108.528L205.642 109.392C205.311 109.605 204.933 109.792 204.506 109.952C204.09 110.112 203.615 110.192 203.082 110.192ZM200.634 105.488H204.794C204.794 104.699 204.623 104.101 204.282 103.696C203.951 103.28 203.482 103.072 202.874 103.072C202.33 103.072 201.839 103.285 201.402 103.712C200.975 104.128 200.719 104.72 200.634 105.488ZM209.291 110.192C208.801 110.192 208.443 110.043 208.219 109.744C208.006 109.435 207.899 108.997 207.899 108.432V98.608H209.211V108.528C209.211 108.731 209.249 108.88 209.323 108.976C209.398 109.061 209.483 109.104 209.579 109.104C209.622 109.104 209.659 109.104 209.691 109.104C209.734 109.093 209.793 109.083 209.867 109.072L210.043 110.064C209.958 110.107 209.857 110.139 209.739 110.16C209.622 110.181 209.473 110.192 209.291 110.192Z"></path>
<path mask="url(#path-11-inside-3_4981_21577)" fill-opacity="0.19" fill="black" d="M360 136V136.5H360.5V136H360ZM24 136H23.5V136.5H24V136ZM23.5 72V74H24.5V72H23.5ZM23.5 78V82H24.5V78H23.5ZM23.5 86V90H24.5V86H23.5ZM23.5 94V98H24.5V94H23.5ZM23.5 102V106H24.5V102H23.5ZM23.5 110V114H24.5V110H23.5ZM23.5 118V122H24.5V118H23.5ZM23.5 126V130H24.5V126H23.5ZM23.5 134V136H24.5V134H23.5ZM24 136.5H26V135.5H24V136.5ZM30 136.5H34V135.5H30V136.5ZM38 136.5H42V135.5H38V136.5ZM46 136.5H50V135.5H46V136.5ZM54 136.5H58V135.5H54V136.5ZM62 136.5H66V135.5H62V136.5ZM70 136.5H74V135.5H70V136.5ZM78 136.5H82V135.5H78V136.5ZM86 136.5H90V135.5H86V136.5ZM94 136.5H98V135.5H94V136.5ZM102 136.5H106V135.5H102V136.5ZM110 136.5H114V135.5H110V136.5ZM118 136.5H122V135.5H118V136.5ZM126 136.5H130V135.5H126V136.5ZM134 136.5H138V135.5H134V136.5ZM142 136.5H146V135.5H142V136.5ZM150 136.5H154V135.5H150V136.5ZM158 136.5H162V135.5H158V136.5ZM166 136.5H170V135.5H166V136.5ZM174 136.5H178V135.5H174V136.5ZM182 136.5H186V135.5H182V136.5ZM190 136.5H194V135.5H190V136.5ZM198 136.5H202V135.5H198V136.5ZM206 136.5H210V135.5H206V136.5ZM214 136.5H218V135.5H214V136.5ZM222 136.5H226V135.5H222V136.5ZM230 136.5H234V135.5H230V136.5ZM238 136.5H242V135.5H238V136.5ZM246 136.5H250V135.5H246V136.5ZM254 136.5H258V135.5H254V136.5ZM262 136.5H266V135.5H262V136.5ZM270 136.5H274V135.5H270V136.5ZM278 136.5H282V135.5H278V136.5ZM286 136.5H290V135.5H286V136.5ZM294 136.5H298V135.5H294V136.5ZM302 136.5H306V135.5H302V136.5ZM310 136.5H314V135.5H310V136.5ZM318 136.5H322V135.5H318V136.5ZM326 136.5H330V135.5H326V136.5ZM334 136.5H338V135.5H334V136.5ZM342 136.5H346V135.5H342V136.5ZM350 136.5H354V135.5H350V136.5ZM358 136.5H360V135.5H358V136.5ZM360.5 136V134H359.5V136H360.5ZM360.5 130V126H359.5V130H360.5ZM360.5 122V118H359.5V122H360.5ZM360.5 114V110H359.5V114H360.5ZM360.5 106V102H359.5V106H360.5ZM360.5 98V94H359.5V98H360.5ZM360.5 90V86H359.5V90H360.5ZM360.5 82V78H359.5V82H360.5ZM360.5 74V72H359.5V74H360.5ZM360 136V137H361V136H360ZM24 136H23V137H24V136ZM23 72V74H25V72H23ZM23 78V82H25V78H23ZM23 86V90H25V86H23ZM23 94V98H25V94H23ZM23 102V106H25V102H23ZM23 110V114H25V110H23ZM23 118V122H25V118H23ZM23 126V130H25V126H23ZM23 134V136H25V134H23ZM24 137H26V135H24V137ZM30 137H34V135H30V137ZM38 137H42V135H38V137ZM46 137H50V135H46V137ZM54 137H58V135H54V137ZM62 137H66V135H62V137ZM70 137H74V135H70V137ZM78 137H82V135H78V137ZM86 137H90V135H86V137ZM94 137H98V135H94V137ZM102 137H106V135H102V137ZM110 137H114V135H110V137ZM118 137H122V135H118V137ZM126 137H130V135H126V137ZM134 137H138V135H134V137ZM142 137H146V135H142V137ZM150 137H154V135H150V137ZM158 137H162V135H158V137ZM166 137H170V135H166V137ZM174 137H178V135H174V137ZM182 137H186V135H182V137ZM190 137H194V135H190V137ZM198 137H202V135H198V137ZM206 137H210V135H206V137ZM214 137H218V135H214V137ZM222 137H226V135H222V137ZM230 137H234V135H230V137ZM238 137H242V135H238V137ZM246 137H250V135H246V137ZM254 137H258V135H254V137ZM262 137H266V135H262V137ZM270 137H274V135H270V137ZM278 137H282V135H278V137ZM286 137H290V135H286V137ZM294 137H298V135H294V137ZM302 137H306V135H302V137ZM310 137H314V135H310V137ZM318 137H322V135H318V137ZM326 137H330V135H326V137ZM334 137H338V135H334V137ZM342 137H346V135H342V137ZM350 137H354V135H350V137ZM358 137H360V135H358V137ZM361 136V134H359V136H361ZM361 130V126H359V130H361ZM361 122V118H359V122H361ZM361 114V110H359V114H361ZM361 106V102H359V106H361ZM361 98V94H359V98H361ZM361 90V86H359V90H361ZM361 82V78H359V82H361ZM361 74V72H359V74H361Z"></path>
<defs>
<clipPath id="clip0_4981_21577">
<path fill="white" d="M24 24H360V72H24V24Z"></path>
</clipPath>
</defs>
</svg>
