<svg xmlns="http://www.w3.org/2000/svg" fill="none" viewBox="0 0 200 200" height="200" width="200">
<path fill="#C0D6E4" d="M26 38C26 31.3726 31.3726 26 38 26H166C172.627 26 178 31.3726 178 38V60H26V38Z"></path>
<path fill="white" d="M26 60H178V161C178 167.627 172.627 173 166 173H38C31.3726 173 26 167.627 26 161V60Z"></path>
<rect fill="#417DA0" rx="4" height="8" width="66" y="40" x="36"></rect>
<rect fill="#C0D6E4" rx="4" height="8" width="53" y="76" x="36"></rect>
<rect fill="#C0D6E4" rx="4" height="8" width="53" y="131" x="36"></rect>
<rect fill="#C0D6E4" rx="4" height="8" width="126" y="92" x="36"></rect>
<rect fill="#C0D6E4" rx="1" height="2" width="126" y="115" x="36"></rect>
<rect fill="#C0D6E4" rx="4" height="8" width="126" y="147" x="36"></rect>
<mask fill="white" id="path-9-inside-1_4412_3190">
<path d="M166 171V173H38V171H166ZM176 161V38C176 32.4772 171.523 28 166 28H38C32.4772 28 28 32.4772 28 38V161C28 166.523 32.4772 171 38 171V173L37.6904 172.996C31.2061 172.832 26 167.524 26 161V38C26 31.3726 31.3726 26 38 26H166C172.627 26 178 31.3726 178 38V161C178 167.627 172.627 173 166 173V171C171.523 171 176 166.523 176 161Z"></path>
</mask>
<path mask="url(#path-9-inside-1_4412_3190)" fill-opacity="0.247059" fill="#005A92" d="M38 173L37.3691 222.996L37.6846 223H38V173ZM28 38L-22 38V38H28ZM37.6904 172.996L36.4247 222.98L36.7421 222.988L37.0596 222.992L37.6904 172.996ZM26 38L-24 38V38H26ZM166 171H116V173H166H216V171H166ZM166 173V123H38V173V223H166V173ZM38 173H88V171H38H-12V173H38ZM38 171V221H166V171V121H38V171ZM176 161H226V38H176H126V161H176ZM176 38H226C226 4.8629 199.137 -22 166 -22V28V78C143.909 78 126 60.0914 126 38H176ZM166 28V-22H38V28V78H166V28ZM38 28V-22C4.8629 -22 -22 4.86293 -22 38L28 38L78 38C78 60.0914 60.0914 78 38 78V28ZM28 38H-22V161H28H78V38H28ZM28 161H-22C-22 194.137 4.8629 221 38 221V171V121C60.0914 121 78 138.909 78 161H28ZM38 171H-12V173H38H88V171H38ZM38 173L38.6309 123.004L38.3213 123L37.6904 172.996L37.0596 222.992L37.3691 222.996L38 173ZM37.6904 172.996L38.9561 123.012C59.5152 123.533 76 140.334 76 161H26H-24C-24 194.714 2.89699 222.131 36.4247 222.98L37.6904 172.996ZM26 161H76V38H26H-24V161H26ZM26 38L76 38C76 58.9868 58.9868 76 38 76V26V-24C3.75833 -24 -24 3.75836 -24 38L26 38ZM38 26V76H166V26V-24H38V26ZM166 26V76C145.013 76 128 58.9868 128 38H178H228C228 3.75833 200.242 -24 166 -24V26ZM178 38H128V161H178H228V38H178ZM178 161H128C128 140.013 145.013 123 166 123V173V223C200.242 223 228 195.242 228 161H178ZM166 173H216V171H166H116V173H166ZM166 171V221C199.137 221 226 194.137 226 161H176H126C126 138.909 143.909 121 166 121V171Z"></path>
</svg>
