<svg xmlns="http://www.w3.org/2000/svg" fill="none" viewBox="0 0 200 200" height="200" width="200">
<path fill="#417DA0" d="M67.9547 79.1927C67.9655 78.0107 68.6694 76.9451 69.7525 76.4714L71.5071 75.704C74.3864 74.4448 76.247 71.6003 76.247 68.4577V62.4049C76.247 55.9139 81.509 50.6519 88 50.6519C89.6569 50.6519 91 51.995 91 53.6519C91 55.3087 89.6569 56.6519 88 56.6519C84.8227 56.6519 82.247 59.2276 82.247 62.4049V68.4577C82.247 72.7034 80.3159 76.6396 77.1251 79.2402C80.3192 81.8433 82.247 85.7815 82.247 90.0228V96.0352C82.247 99.2125 84.8227 101.788 88 101.788C89.6569 101.788 91 103.131 91 104.788C91 106.445 89.6569 107.788 88 107.788C81.509 107.788 76.247 102.526 76.247 96.0352V90.0228C76.247 86.9323 74.447 84.125 71.6385 82.8353L69.7026 81.9463C68.6284 81.453 67.944 80.3748 67.9547 79.1927Z" clip-rule="evenodd" fill-rule="evenodd"></path>
<path fill="#417DA0" d="M132.045 79.2474C132.035 80.4294 131.331 81.495 130.248 81.9687L128.493 82.736C125.614 83.9953 123.753 86.8398 123.753 89.9824V96.0352C123.753 102.526 118.491 107.788 112 107.788C110.343 107.788 109 106.445 109 104.788C109 103.131 110.343 101.788 112 101.788C115.177 101.788 117.753 99.2125 117.753 96.0352V89.9824C117.753 85.7367 119.684 81.8005 122.875 79.1998C119.681 76.5967 117.753 72.6586 117.753 68.4173V62.4049C117.753 59.2276 115.177 56.6519 112 56.6519C110.343 56.6519 109 55.3087 109 53.6519C109 51.995 110.343 50.6519 112 50.6519C118.491 50.6519 123.753 55.9139 123.753 62.4049V68.4173C123.753 71.5077 125.553 74.3151 128.362 75.6048L130.297 76.4938C131.372 76.9871 132.056 78.0653 132.045 79.2474Z" clip-rule="evenodd" fill-rule="evenodd"></path>
<path fill="#417DA0" d="M62 135C62 130.582 65.5817 127 70 127H129C133.418 127 137 130.582 137 135V163C137 167.418 133.418 171 129 171H70C65.5817 171 62 167.418 62 163V135Z"></path>
<path fill="white" d="M117.844 158.56C116.536 158.56 115.296 158.32 114.122 157.839C112.968 157.358 111.939 156.675 111.035 155.79L112.853 153.598C113.526 154.252 114.305 154.761 115.19 155.127C116.094 155.473 116.998 155.646 117.902 155.646C118.979 155.646 119.796 155.425 120.354 154.983C120.912 154.54 121.19 153.954 121.19 153.223C121.19 152.704 121.065 152.29 120.815 151.982C120.565 151.655 120.219 151.376 119.777 151.146C119.354 150.915 118.854 150.684 118.277 150.453L115.68 149.328C115.065 149.059 114.459 148.713 113.863 148.29C113.286 147.847 112.805 147.309 112.42 146.674C112.055 146.02 111.872 145.232 111.872 144.308C111.872 143.308 112.141 142.414 112.68 141.625C113.238 140.818 113.988 140.183 114.93 139.721C115.892 139.24 116.988 139 118.219 139C119.354 139 120.421 139.212 121.421 139.635C122.441 140.039 123.306 140.596 124.018 141.308L122.258 143.501C121.642 143 120.998 142.616 120.325 142.347C119.652 142.058 118.95 141.914 118.219 141.914C117.334 141.914 116.613 142.116 116.055 142.52C115.517 142.904 115.247 143.443 115.247 144.135C115.247 144.616 115.382 145.02 115.651 145.347C115.94 145.655 116.315 145.924 116.776 146.155C117.257 146.366 117.748 146.578 118.248 146.789L120.815 147.857C121.565 148.184 122.229 148.568 122.806 149.011C123.383 149.453 123.825 149.992 124.133 150.626C124.46 151.261 124.624 152.04 124.624 152.963C124.624 153.983 124.354 154.915 123.816 155.762C123.277 156.608 122.498 157.291 121.479 157.81C120.479 158.31 119.267 158.56 117.844 158.56Z"></path>
<path fill="white" d="M99.9774 158.56C98.6696 158.56 97.4291 158.32 96.2558 157.839C95.1019 157.358 94.0729 156.675 93.1689 155.79L94.9865 153.598C95.6596 154.252 96.4386 154.761 97.3233 155.127C98.2272 155.473 99.1312 155.646 100.035 155.646C101.112 155.646 101.93 155.425 102.487 154.983C103.045 154.54 103.324 153.954 103.324 153.223C103.324 152.704 103.199 152.29 102.949 151.982C102.699 151.655 102.353 151.376 101.91 151.146C101.487 150.915 100.987 150.684 100.41 150.453L97.8137 149.328C97.1983 149.059 96.5924 148.713 95.9962 148.29C95.4192 147.847 94.9384 147.309 94.5537 146.674C94.1883 146.02 94.0056 145.232 94.0056 144.308C94.0056 143.308 94.2748 142.414 94.8134 141.625C95.3711 140.818 96.1212 140.183 97.0636 139.721C98.0253 139.24 99.1216 139 100.352 139C101.487 139 102.555 139.212 103.555 139.635C104.574 140.039 105.44 140.596 106.151 141.308L104.391 143.501C103.776 143 103.132 142.616 102.459 142.347C101.785 142.058 101.083 141.914 100.352 141.914C99.4678 141.914 98.7465 142.116 98.1888 142.52C97.6502 142.904 97.381 143.443 97.381 144.135C97.381 144.616 97.5156 145.02 97.7849 145.347C98.0734 145.655 98.4484 145.924 98.91 146.155C99.3908 146.366 99.8813 146.578 100.381 146.789L102.949 147.857C103.699 148.184 104.363 148.568 104.94 149.011C105.517 149.453 105.959 149.992 106.267 150.626C106.594 151.261 106.757 152.04 106.757 152.963C106.757 153.983 106.488 154.915 105.949 155.762C105.411 156.608 104.632 157.291 103.612 157.81C102.612 158.31 101.401 158.56 99.9774 158.56Z"></path>
<path fill="white" d="M83.5683 158.56C81.972 158.56 80.5199 158.185 79.212 157.435C77.9234 156.685 76.8945 155.588 76.1251 154.146C75.375 152.684 75 150.915 75 148.838C75 147.299 75.2212 145.924 75.6635 144.712C76.1059 143.481 76.7214 142.443 77.5099 141.596C78.3177 140.75 79.2409 140.106 80.2795 139.664C81.3181 139.221 82.4336 139 83.626 139C84.8185 139 85.8763 139.24 86.7995 139.721C87.7227 140.183 88.4824 140.741 89.0786 141.395L87.2899 143.443C86.8091 142.943 86.2706 142.568 85.6743 142.318C85.0973 142.048 84.4434 141.914 83.7126 141.914C82.7124 141.914 81.8085 142.193 81.0007 142.75C80.2122 143.308 79.5871 144.097 79.1255 145.116C78.6639 146.135 78.4331 147.347 78.4331 148.751C78.4331 150.194 78.6543 151.434 79.0966 152.473C79.539 153.492 80.1641 154.281 80.9719 154.838C81.7796 155.377 82.7221 155.646 83.7991 155.646C84.6069 155.646 85.3281 155.483 85.9628 155.156C86.5975 154.829 87.1745 154.396 87.6938 153.858L89.3959 155.848C88.6266 156.733 87.7611 157.406 86.7995 157.868C85.8378 158.329 84.7608 158.56 83.5683 158.56Z"></path>
</svg>
