<svg xmlns="http://www.w3.org/2000/svg" fill="none" viewBox="0 0 382 214" height="214" width="382">
<path fill="#262626" d="M30.426 73.216C29.37 73.216 28.422 72.982 27.582 72.514C26.742 72.046 26.082 71.362 25.602 70.462C25.122 69.55 24.882 68.446 24.882 67.15C24.882 65.866 25.128 64.768 25.62 63.856C26.112 62.932 26.778 62.23 27.618 61.75C28.458 61.258 29.4 61.012 30.444 61.012C31.284 61.012 31.992 61.168 32.568 61.48C33.156 61.78 33.636 62.122 34.008 62.506L32.892 63.856C32.592 63.568 32.256 63.328 31.884 63.136C31.524 62.932 31.068 62.83 30.516 62.83C29.472 62.83 28.626 63.214 27.978 63.982C27.342 64.738 27.024 65.776 27.024 67.096C27.024 68.44 27.33 69.496 27.942 70.264C28.554 71.02 29.448 71.398 30.624 71.398C30.96 71.398 31.278 71.356 31.578 71.272C31.878 71.176 32.124 71.044 32.316 70.876V68.338H30.084V66.628H34.188V71.812C33.792 72.208 33.264 72.544 32.604 72.82C31.956 73.084 31.23 73.216 30.426 73.216ZM38.7587 73.216C37.9907 73.216 37.3607 72.976 36.8687 72.496C36.3887 72.016 36.1487 71.392 36.1487 70.624C36.1487 69.676 36.5627 68.944 37.3907 68.428C38.2187 67.9 39.5387 67.54 41.3507 67.348C41.3387 66.88 41.2127 66.478 40.9727 66.142C40.7447 65.794 40.3307 65.62 39.7307 65.62C39.2987 65.62 38.8727 65.704 38.4527 65.872C38.0447 66.04 37.6427 66.244 37.2467 66.484L36.4907 65.098C36.9827 64.786 37.5347 64.516 38.1467 64.288C38.7707 64.06 39.4307 63.946 40.1267 63.946C41.2307 63.946 42.0527 64.276 42.5927 64.936C43.1447 65.584 43.4207 66.526 43.4207 67.762V73H41.7107L41.5667 72.028H41.4947C41.0987 72.364 40.6727 72.646 40.2167 72.874C39.7727 73.102 39.2867 73.216 38.7587 73.216ZM39.4247 71.596C39.7847 71.596 40.1087 71.512 40.3967 71.344C40.6967 71.164 41.0147 70.924 41.3507 70.624V68.644C40.1507 68.8 39.3167 69.034 38.8487 69.346C38.3807 69.646 38.1467 70.018 38.1467 70.462C38.1467 70.858 38.2667 71.146 38.5067 71.326C38.7467 71.506 39.0527 71.596 39.4247 71.596ZM48.7307 73.216C47.7107 73.216 46.9847 72.922 46.5527 72.334C46.1327 71.734 45.9227 70.96 45.9227 70.012V65.8H44.6627V64.252L46.0307 64.162L46.2827 61.75H48.0107V64.162H50.2607V65.8H48.0107V70.012C48.0107 71.044 48.4247 71.56 49.2527 71.56C49.4087 71.56 49.5707 71.542 49.7387 71.506C49.9067 71.458 50.0507 71.41 50.1707 71.362L50.5307 72.892C50.2907 72.976 50.0147 73.048 49.7027 73.108C49.4027 73.18 49.0787 73.216 48.7307 73.216ZM55.6194 73.216C54.8034 73.216 54.0654 73.036 53.4054 72.676C52.7454 72.304 52.2234 71.776 51.8394 71.092C51.4554 70.396 51.2634 69.562 51.2634 68.59C51.2634 67.63 51.4554 66.802 51.8394 66.106C52.2354 65.41 52.7454 64.876 53.3694 64.504C53.9934 64.132 54.6474 63.946 55.3314 63.946C56.1354 63.946 56.8074 64.126 57.3474 64.486C57.8874 64.834 58.2954 65.326 58.5714 65.962C58.8474 66.586 58.9854 67.312 58.9854 68.14C58.9854 68.572 58.9554 68.908 58.8954 69.148H53.2794C53.3754 69.928 53.6574 70.534 54.1254 70.966C54.5934 71.398 55.1814 71.614 55.8894 71.614C56.2734 71.614 56.6274 71.56 56.9514 71.452C57.2874 71.332 57.6174 71.17 57.9414 70.966L58.6434 72.262C58.2234 72.538 57.7554 72.766 57.2394 72.946C56.7234 73.126 56.1834 73.216 55.6194 73.216ZM53.2614 67.744H57.1854C57.1854 67.06 57.0354 66.526 56.7354 66.142C56.4354 65.746 55.9854 65.548 55.3854 65.548C54.8694 65.548 54.4074 65.74 53.9994 66.124C53.6034 66.496 53.3574 67.036 53.2614 67.744ZM62.8935 73.216C62.1255 73.216 61.4955 72.976 61.0035 72.496C60.5235 72.016 60.2835 71.392 60.2835 70.624C60.2835 69.676 60.6975 68.944 61.5255 68.428C62.3535 67.9 63.6735 67.54 65.4855 67.348C65.4735 66.88 65.3475 66.478 65.1075 66.142C64.8795 65.794 64.4655 65.62 63.8655 65.62C63.4335 65.62 63.0075 65.704 62.5875 65.872C62.1795 66.04 61.7775 66.244 61.3815 66.484L60.6255 65.098C61.1175 64.786 61.6695 64.516 62.2815 64.288C62.9055 64.06 63.5655 63.946 64.2615 63.946C65.3655 63.946 66.1875 64.276 66.7275 64.936C67.2795 65.584 67.5555 66.526 67.5555 67.762V73H65.8455L65.7015 72.028H65.6295C65.2335 72.364 64.8075 72.646 64.3515 72.874C63.9075 73.102 63.4215 73.216 62.8935 73.216ZM63.5595 71.596C63.9195 71.596 64.2435 71.512 64.5315 71.344C64.8315 71.164 65.1495 70.924 65.4855 70.624V68.644C64.2855 68.8 63.4515 69.034 62.9835 69.346C62.5155 69.646 62.2815 70.018 62.2815 70.462C62.2815 70.858 62.4015 71.146 62.6415 71.326C62.8815 71.506 63.1875 71.596 63.5595 71.596ZM73.1288 73.216C72.0248 73.216 71.1428 72.808 70.4828 71.992C69.8228 71.176 69.4928 70.042 69.4928 68.59C69.4928 67.63 69.6668 66.802 70.0148 66.106C70.3748 65.41 70.8428 64.876 71.4188 64.504C71.9948 64.132 72.6008 63.946 73.2368 63.946C73.7408 63.946 74.1668 64.036 74.5148 64.216C74.8748 64.384 75.2228 64.618 75.5588 64.918L75.4868 63.496V60.292H77.5568V73H75.8468L75.7028 72.046H75.6308C75.3068 72.37 74.9288 72.646 74.4968 72.874C74.0648 73.102 73.6088 73.216 73.1288 73.216ZM73.6328 71.506C74.2928 71.506 74.9108 71.176 75.4868 70.516V66.394C75.1868 66.118 74.8868 65.926 74.5868 65.818C74.2868 65.71 73.9868 65.656 73.6868 65.656C73.1228 65.656 72.6368 65.914 72.2288 66.43C71.8328 66.934 71.6348 67.648 71.6348 68.572C71.6348 69.52 71.8088 70.246 72.1568 70.75C72.5048 71.254 72.9968 71.506 73.6328 71.506ZM80.1929 73V64.162H81.9029L82.0469 65.728H82.1189C82.4309 65.152 82.8089 64.714 83.2529 64.414C83.6969 64.102 84.1529 63.946 84.6209 63.946C85.0409 63.946 85.3769 64.006 85.6289 64.126L85.2689 65.926C85.1129 65.878 84.9689 65.842 84.8369 65.818C84.7049 65.794 84.5429 65.782 84.3509 65.782C84.0029 65.782 83.6369 65.92 83.2529 66.196C82.8689 66.46 82.5389 66.928 82.2629 67.6V73H80.1929ZM90.512 73.216C89.696 73.216 88.958 73.036 88.298 72.676C87.638 72.304 87.116 71.776 86.732 71.092C86.348 70.396 86.156 69.562 86.156 68.59C86.156 67.63 86.348 66.802 86.732 66.106C87.128 65.41 87.638 64.876 88.262 64.504C88.886 64.132 89.54 63.946 90.224 63.946C91.028 63.946 91.7 64.126 92.24 64.486C92.78 64.834 93.188 65.326 93.464 65.962C93.74 66.586 93.878 67.312 93.878 68.14C93.878 68.572 93.848 68.908 93.788 69.148H88.172C88.268 69.928 88.55 70.534 89.018 70.966C89.486 71.398 90.074 71.614 90.782 71.614C91.166 71.614 91.52 71.56 91.844 71.452C92.18 71.332 92.51 71.17 92.834 70.966L93.536 72.262C93.116 72.538 92.648 72.766 92.132 72.946C91.616 73.126 91.076 73.216 90.512 73.216ZM88.154 67.744H92.078C92.078 67.06 91.928 66.526 91.628 66.142C91.328 65.746 90.878 65.548 90.278 65.548C89.762 65.548 89.3 65.74 88.892 66.124C88.496 66.496 88.25 67.036 88.154 67.744ZM98.321 73.216C97.721 73.216 97.121 73.102 96.521 72.874C95.921 72.634 95.405 72.34 94.973 71.992L95.945 70.66C96.341 70.96 96.737 71.2 97.133 71.38C97.529 71.56 97.949 71.65 98.393 71.65C98.873 71.65 99.227 71.548 99.455 71.344C99.683 71.14 99.797 70.888 99.797 70.588C99.797 70.336 99.701 70.132 99.509 69.976C99.329 69.808 99.095 69.664 98.807 69.544C98.519 69.412 98.219 69.286 97.907 69.166C97.523 69.022 97.139 68.848 96.755 68.644C96.383 68.428 96.077 68.158 95.837 67.834C95.597 67.498 95.477 67.084 95.477 66.592C95.477 65.812 95.765 65.176 96.341 64.684C96.917 64.192 97.697 63.946 98.681 63.946C99.305 63.946 99.863 64.054 100.355 64.27C100.847 64.486 101.273 64.732 101.633 65.008L100.679 66.268C100.367 66.04 100.049 65.86 99.725 65.728C99.413 65.584 99.083 65.512 98.735 65.512C98.291 65.512 97.961 65.608 97.745 65.8C97.529 65.98 97.421 66.208 97.421 66.484C97.421 66.832 97.601 67.096 97.961 67.276C98.321 67.456 98.741 67.63 99.221 67.798C99.629 67.942 100.025 68.122 100.409 68.338C100.793 68.542 101.111 68.812 101.363 69.148C101.627 69.484 101.759 69.928 101.759 70.48C101.759 71.236 101.465 71.884 100.877 72.424C100.289 72.952 99.437 73.216 98.321 73.216ZM106.073 73.216C105.473 73.216 104.873 73.102 104.273 72.874C103.673 72.634 103.157 72.34 102.725 71.992L103.697 70.66C104.093 70.96 104.489 71.2 104.885 71.38C105.281 71.56 105.701 71.65 106.145 71.65C106.625 71.65 106.979 71.548 107.207 71.344C107.435 71.14 107.549 70.888 107.549 70.588C107.549 70.336 107.453 70.132 107.261 69.976C107.081 69.808 106.847 69.664 106.559 69.544C106.271 69.412 105.971 69.286 105.659 69.166C105.275 69.022 104.891 68.848 104.507 68.644C104.135 68.428 103.829 68.158 103.589 67.834C103.349 67.498 103.229 67.084 103.229 66.592C103.229 65.812 103.517 65.176 104.093 64.684C104.669 64.192 105.449 63.946 106.433 63.946C107.057 63.946 107.615 64.054 108.107 64.27C108.599 64.486 109.025 64.732 109.385 65.008L108.431 66.268C108.119 66.04 107.801 65.86 107.477 65.728C107.165 65.584 106.835 65.512 106.487 65.512C106.043 65.512 105.713 65.608 105.497 65.8C105.281 65.98 105.173 66.208 105.173 66.484C105.173 66.832 105.353 67.096 105.713 67.276C106.073 67.456 106.493 67.63 106.973 67.798C107.381 67.942 107.777 68.122 108.161 68.338C108.545 68.542 108.863 68.812 109.115 69.148C109.379 69.484 109.511 69.928 109.511 70.48C109.511 71.236 109.217 71.884 108.629 72.424C108.041 72.952 107.189 73.216 106.073 73.216ZM115.139 73.216C114.323 73.216 113.585 73.036 112.925 72.676C112.265 72.304 111.743 71.776 111.359 71.092C110.975 70.396 110.783 69.562 110.783 68.59C110.783 67.63 110.975 66.802 111.359 66.106C111.755 65.41 112.265 64.876 112.889 64.504C113.513 64.132 114.167 63.946 114.851 63.946C115.655 63.946 116.327 64.126 116.867 64.486C117.407 64.834 117.815 65.326 118.091 65.962C118.367 66.586 118.505 67.312 118.505 68.14C118.505 68.572 118.475 68.908 118.415 69.148H112.799C112.895 69.928 113.177 70.534 113.645 70.966C114.113 71.398 114.701 71.614 115.409 71.614C115.793 71.614 116.147 71.56 116.471 71.452C116.807 71.332 117.137 71.17 117.461 70.966L118.163 72.262C117.743 72.538 117.275 72.766 116.759 72.946C116.243 73.126 115.703 73.216 115.139 73.216ZM112.781 67.744H116.705C116.705 67.06 116.555 66.526 116.255 66.142C115.955 65.746 115.505 65.548 114.905 65.548C114.389 65.548 113.927 65.74 113.519 66.124C113.123 66.496 112.877 67.036 112.781 67.744Z"></path>
<rect fill="white" rx="4" height="48" width="246" y="87" x="24"></rect>
<path fill-opacity="0.56" fill="black" d="M33.62 117V105.192H40.424V106.452H35.114V110.16H39.596V111.438H35.114V115.722H40.604V117H33.62ZM42.9682 117V104.184H44.4262V112.86H44.4802L48.2062 108.252H49.8442L46.9102 111.762L50.2402 117H48.6202L46.0642 112.788L44.4262 114.696V117H42.9682ZM54.1663 117.216C53.5423 117.216 52.9483 117.102 52.3843 116.874C51.8203 116.634 51.3283 116.346 50.9083 116.01L51.6463 115.02C52.0303 115.32 52.4263 115.572 52.8343 115.776C53.2423 115.968 53.7043 116.064 54.2203 116.064C54.7963 116.064 55.2283 115.932 55.5163 115.668C55.8043 115.392 55.9483 115.068 55.9483 114.696C55.9483 114.396 55.8463 114.144 55.6423 113.94C55.4503 113.736 55.1983 113.568 54.8863 113.436C54.5863 113.292 54.2743 113.16 53.9503 113.04C53.5423 112.884 53.1403 112.71 52.7443 112.518C52.3483 112.314 52.0243 112.056 51.7723 111.744C51.5203 111.42 51.3943 111.012 51.3943 110.52C51.3943 109.812 51.6583 109.224 52.1863 108.756C52.7263 108.276 53.4703 108.036 54.4183 108.036C54.9583 108.036 55.4623 108.132 55.9303 108.324C56.3983 108.516 56.8003 108.75 57.1363 109.026L56.4163 109.962C56.1163 109.734 55.8043 109.548 55.4803 109.404C55.1563 109.26 54.8023 109.188 54.4183 109.188C53.8663 109.188 53.4583 109.314 53.1943 109.566C52.9423 109.818 52.8163 110.112 52.8163 110.448C52.8163 110.724 52.9063 110.952 53.0863 111.132C53.2663 111.3 53.5003 111.45 53.7883 111.582C54.0763 111.702 54.3823 111.828 54.7063 111.96C55.1263 112.116 55.5403 112.296 55.9483 112.5C56.3563 112.692 56.6923 112.956 56.9563 113.292C57.2323 113.616 57.3703 114.054 57.3703 114.606C57.3703 115.074 57.2443 115.506 56.9923 115.902C56.7523 116.298 56.3923 116.616 55.9123 116.856C55.4443 117.096 54.8623 117.216 54.1663 117.216ZM62.9673 117.216C62.1873 117.216 61.4793 117.036 60.8433 116.676C60.2073 116.304 59.7033 115.776 59.3313 115.092C58.9593 114.408 58.7733 113.592 58.7733 112.644C58.7733 111.684 58.9593 110.862 59.3313 110.178C59.7153 109.494 60.2073 108.966 60.8073 108.594C61.4073 108.222 62.0373 108.036 62.6973 108.036C63.8133 108.036 64.6713 108.408 65.2713 109.152C65.8833 109.896 66.1893 110.892 66.1893 112.14C66.1893 112.296 66.1833 112.452 66.1713 112.608C66.1713 112.752 66.1593 112.878 66.1353 112.986H60.2313C60.2913 113.91 60.5793 114.648 61.0953 115.2C61.6233 115.752 62.3073 116.028 63.1473 116.028C63.5673 116.028 63.9513 115.968 64.2993 115.848C64.6593 115.716 65.0013 115.548 65.3253 115.344L65.8473 116.316C65.4753 116.556 65.0493 116.766 64.5693 116.946C64.1013 117.126 63.5673 117.216 62.9673 117.216ZM60.2133 111.924H64.8933C64.8933 111.036 64.7013 110.364 64.3173 109.908C63.9453 109.44 63.4173 109.206 62.7333 109.206C62.1213 109.206 61.5693 109.446 61.0773 109.926C60.5973 110.394 60.3093 111.06 60.2133 111.924ZM68.351 117V108.252H69.575L69.701 109.512H69.755C70.139 109.092 70.559 108.744 71.015 108.468C71.471 108.18 71.957 108.036 72.473 108.036C73.145 108.036 73.667 108.186 74.039 108.486C74.423 108.774 74.705 109.182 74.885 109.71C75.341 109.218 75.803 108.816 76.271 108.504C76.739 108.192 77.237 108.036 77.765 108.036C78.665 108.036 79.331 108.33 79.763 108.918C80.207 109.494 80.429 110.34 80.429 111.456V117H78.953V111.654C78.953 110.838 78.821 110.244 78.557 109.872C78.293 109.5 77.885 109.314 77.333 109.314C76.685 109.314 75.953 109.764 75.137 110.664V117H73.661V111.654C73.661 110.838 73.529 110.244 73.265 109.872C73.001 109.5 72.587 109.314 72.023 109.314C71.375 109.314 70.643 109.764 69.827 110.664V117H68.351ZM83.2748 120.69V108.252H84.4988L84.6248 109.26H84.6788C85.0748 108.924 85.5068 108.636 85.9748 108.396C86.4548 108.156 86.9528 108.036 87.4688 108.036C88.5968 108.036 89.4548 108.444 90.0428 109.26C90.6308 110.064 90.9248 111.144 90.9248 112.5C90.9248 113.484 90.7448 114.33 90.3848 115.038C90.0368 115.746 89.5748 116.286 88.9988 116.658C88.4348 117.03 87.8168 117.216 87.1448 117.216C86.7368 117.216 86.3288 117.126 85.9208 116.946C85.5248 116.766 85.1228 116.52 84.7148 116.208L84.7508 117.738V120.69H83.2748ZM86.8928 115.974C87.6128 115.974 88.2068 115.668 88.6748 115.056C89.1548 114.432 89.3948 113.58 89.3948 112.5C89.3948 111.54 89.2148 110.766 88.8548 110.178C88.5068 109.578 87.9188 109.278 87.0908 109.278C86.7188 109.278 86.3408 109.38 85.9568 109.584C85.5848 109.788 85.1828 110.082 84.7508 110.466V115.056C85.1468 115.392 85.5308 115.632 85.9028 115.776C86.2748 115.908 86.6048 115.974 86.8928 115.974ZM96.8052 117.216C96.0252 117.216 95.3172 117.036 94.6812 116.676C94.0452 116.304 93.5412 115.776 93.1692 115.092C92.7972 114.408 92.6112 113.592 92.6112 112.644C92.6112 111.684 92.7972 110.862 93.1692 110.178C93.5532 109.494 94.0452 108.966 94.6452 108.594C95.2452 108.222 95.8752 108.036 96.5352 108.036C97.6512 108.036 98.5092 108.408 99.1092 109.152C99.7212 109.896 100.027 110.892 100.027 112.14C100.027 112.296 100.021 112.452 100.009 112.608C100.009 112.752 99.9972 112.878 99.9732 112.986H94.0692C94.1292 113.91 94.4172 114.648 94.9332 115.2C95.4612 115.752 96.1452 116.028 96.9852 116.028C97.4052 116.028 97.7892 115.968 98.1372 115.848C98.4972 115.716 98.8392 115.548 99.1632 115.344L99.6852 116.316C99.3132 116.556 98.8872 116.766 98.4072 116.946C97.9392 117.126 97.4052 117.216 96.8052 117.216ZM94.0512 111.924H98.7312C98.7312 111.036 98.5392 110.364 98.1552 109.908C97.7832 109.44 97.2552 109.206 96.5712 109.206C95.9592 109.206 95.4072 109.446 94.9152 109.926C94.4352 110.394 94.1472 111.06 94.0512 111.924ZM103.755 117.216C103.203 117.216 102.801 117.048 102.549 116.712C102.309 116.364 102.189 115.872 102.189 115.236V104.184H103.665V115.344C103.665 115.572 103.707 115.74 103.791 115.848C103.875 115.944 103.971 115.992 104.079 115.992C104.127 115.992 104.169 115.992 104.205 115.992C104.253 115.98 104.319 115.968 104.403 115.956L104.601 117.072C104.505 117.12 104.391 117.156 104.259 117.18C104.127 117.204 103.959 117.216 103.755 117.216ZM107.551 110.718C107.251 110.718 106.993 110.616 106.777 110.412C106.573 110.196 106.471 109.926 106.471 109.602C106.471 109.254 106.573 108.978 106.777 108.774C106.993 108.558 107.251 108.45 107.551 108.45C107.839 108.45 108.085 108.558 108.289 108.774C108.505 108.978 108.613 109.254 108.613 109.602C108.613 109.926 108.505 110.196 108.289 110.412C108.085 110.616 107.839 110.718 107.551 110.718ZM107.551 117.216C107.251 117.216 106.993 117.114 106.777 116.91C106.573 116.694 106.471 116.424 106.471 116.1C106.471 115.752 106.573 115.476 106.777 115.272C106.993 115.056 107.251 114.948 107.551 114.948C107.839 114.948 108.085 115.056 108.289 115.272C108.505 115.476 108.613 115.752 108.613 116.1C108.613 116.424 108.505 116.694 108.289 116.91C108.085 117.114 107.839 117.216 107.551 117.216ZM115.007 117V105.192H121.811V106.452H116.501V110.448H121.001V111.708H116.501V117H115.007ZM123.62 120.762C123.428 120.762 123.242 120.744 123.062 120.708C122.894 120.672 122.738 120.63 122.594 120.582L122.882 119.412C122.978 119.436 123.086 119.46 123.206 119.484C123.326 119.52 123.44 119.538 123.548 119.538C124.04 119.538 124.448 119.358 124.772 118.998C125.096 118.65 125.348 118.206 125.528 117.666L125.726 117.018L122.216 108.252H123.746L125.528 113.094C125.66 113.466 125.798 113.868 125.942 114.3C126.098 114.732 126.242 115.152 126.374 115.56H126.446C126.578 115.164 126.704 114.75 126.824 114.318C126.944 113.886 127.064 113.478 127.184 113.094L128.75 108.252H130.19L126.896 117.72C126.692 118.296 126.446 118.812 126.158 119.268C125.882 119.724 125.534 120.084 125.114 120.348C124.706 120.624 124.208 120.762 123.62 120.762ZM131.878 117V108.252H133.102L133.228 109.836H133.282C133.582 109.284 133.948 108.846 134.38 108.522C134.812 108.198 135.274 108.036 135.766 108.036C136.114 108.036 136.426 108.096 136.702 108.216L136.414 109.512C136.27 109.464 136.138 109.428 136.018 109.404C135.898 109.38 135.748 109.368 135.568 109.368C135.196 109.368 134.806 109.518 134.398 109.818C134.002 110.118 133.654 110.64 133.354 111.384V117H131.878ZM140.334 117.216C139.71 117.216 139.116 117.102 138.552 116.874C137.988 116.634 137.496 116.346 137.076 116.01L137.814 115.02C138.198 115.32 138.594 115.572 139.002 115.776C139.41 115.968 139.872 116.064 140.388 116.064C140.964 116.064 141.396 115.932 141.684 115.668C141.972 115.392 142.116 115.068 142.116 114.696C142.116 114.396 142.014 114.144 141.81 113.94C141.618 113.736 141.366 113.568 141.054 113.436C140.754 113.292 140.442 113.16 140.118 113.04C139.71 112.884 139.308 112.71 138.912 112.518C138.516 112.314 138.192 112.056 137.94 111.744C137.688 111.42 137.562 111.012 137.562 110.52C137.562 109.812 137.826 109.224 138.354 108.756C138.894 108.276 139.638 108.036 140.586 108.036C141.126 108.036 141.63 108.132 142.098 108.324C142.566 108.516 142.968 108.75 143.304 109.026L142.584 109.962C142.284 109.734 141.972 109.548 141.648 109.404C141.324 109.26 140.97 109.188 140.586 109.188C140.034 109.188 139.626 109.314 139.362 109.566C139.11 109.818 138.984 110.112 138.984 110.448C138.984 110.724 139.074 110.952 139.254 111.132C139.434 111.3 139.668 111.45 139.956 111.582C140.244 111.702 140.55 111.828 140.874 111.96C141.294 112.116 141.708 112.296 142.116 112.5C142.524 112.692 142.86 112.956 143.124 113.292C143.4 113.616 143.538 114.054 143.538 114.606C143.538 115.074 143.412 115.506 143.16 115.902C142.92 116.298 142.56 116.616 142.08 116.856C141.612 117.096 141.03 117.216 140.334 117.216ZM147.992 117.216C147.056 117.216 146.402 116.946 146.03 116.406C145.67 115.866 145.49 115.164 145.49 114.3V109.458H144.194V108.342L145.562 108.252L145.742 105.804H146.984V108.252H149.342V109.458H146.984V114.318C146.984 114.858 147.08 115.278 147.272 115.578C147.476 115.866 147.83 116.01 148.334 116.01C148.49 116.01 148.658 115.986 148.838 115.938C149.018 115.878 149.18 115.824 149.324 115.776L149.612 116.892C149.372 116.976 149.108 117.048 148.82 117.108C148.544 117.18 148.268 117.216 147.992 117.216ZM151.32 117V108.252H152.796V117H151.32ZM152.076 106.452C151.788 106.452 151.548 106.368 151.356 106.2C151.176 106.02 151.086 105.78 151.086 105.48C151.086 105.192 151.176 104.958 151.356 104.778C151.548 104.598 151.788 104.508 152.076 104.508C152.364 104.508 152.598 104.598 152.778 104.778C152.97 104.958 153.066 105.192 153.066 105.48C153.066 105.78 152.97 106.02 152.778 106.2C152.598 106.368 152.364 106.452 152.076 106.452ZM155.749 117V104.184H157.207V112.86H157.261L160.987 108.252H162.625L159.691 111.762L163.021 117H161.401L158.845 112.788L157.207 114.696V117H155.749ZM164.662 117V104.184H166.12V112.86H166.174L169.9 108.252H171.538L168.604 111.762L171.934 117H170.314L167.758 112.788L166.12 114.696V117H164.662ZM175.464 117L172.314 108.252H173.844L175.5 113.22C175.632 113.652 175.764 114.084 175.896 114.516C176.04 114.948 176.178 115.374 176.31 115.794H176.382C176.514 115.374 176.646 114.948 176.778 114.516C176.922 114.084 177.054 113.652 177.174 113.22L178.83 108.252H180.288L177.192 117H175.464ZM185.452 117.216C184.672 117.216 183.964 117.036 183.328 116.676C182.692 116.304 182.188 115.776 181.816 115.092C181.444 114.408 181.258 113.592 181.258 112.644C181.258 111.684 181.444 110.862 181.816 110.178C182.2 109.494 182.692 108.966 183.292 108.594C183.892 108.222 184.522 108.036 185.182 108.036C186.298 108.036 187.156 108.408 187.756 109.152C188.368 109.896 188.674 110.892 188.674 112.14C188.674 112.296 188.668 112.452 188.656 112.608C188.656 112.752 188.644 112.878 188.62 112.986H182.716C182.776 113.91 183.064 114.648 183.58 115.2C184.108 115.752 184.792 116.028 185.632 116.028C186.052 116.028 186.436 115.968 186.784 115.848C187.144 115.716 187.486 115.548 187.81 115.344L188.332 116.316C187.96 116.556 187.534 116.766 187.054 116.946C186.586 117.126 186.052 117.216 185.452 117.216ZM182.698 111.924H187.378C187.378 111.036 187.186 110.364 186.802 109.908C186.43 109.44 185.902 109.206 185.218 109.206C184.606 109.206 184.054 109.446 183.562 109.926C183.082 110.394 182.794 111.06 182.698 111.924ZM190.835 117V108.252H192.311V117H190.835ZM191.591 106.452C191.303 106.452 191.063 106.368 190.871 106.2C190.691 106.02 190.601 105.78 190.601 105.48C190.601 105.192 190.691 104.958 190.871 104.778C191.063 104.598 191.303 104.508 191.591 104.508C191.879 104.508 192.113 104.598 192.293 104.778C192.485 104.958 192.581 105.192 192.581 105.48C192.581 105.78 192.485 106.02 192.293 106.2C192.113 106.368 191.879 106.452 191.591 106.452ZM198.811 117.216C198.031 117.216 197.323 117.036 196.687 116.676C196.051 116.304 195.547 115.776 195.175 115.092C194.803 114.408 194.617 113.592 194.617 112.644C194.617 111.684 194.803 110.862 195.175 110.178C195.559 109.494 196.051 108.966 196.651 108.594C197.251 108.222 197.881 108.036 198.541 108.036C199.657 108.036 200.515 108.408 201.115 109.152C201.727 109.896 202.033 110.892 202.033 112.14C202.033 112.296 202.027 112.452 202.015 112.608C202.015 112.752 202.003 112.878 201.979 112.986H196.075C196.135 113.91 196.423 114.648 196.939 115.2C197.467 115.752 198.151 116.028 198.991 116.028C199.411 116.028 199.795 115.968 200.143 115.848C200.503 115.716 200.845 115.548 201.169 115.344L201.691 116.316C201.319 116.556 200.893 116.766 200.413 116.946C199.945 117.126 199.411 117.216 198.811 117.216ZM196.057 111.924H200.737C200.737 111.036 200.545 110.364 200.161 109.908C199.789 109.44 199.261 109.206 198.577 109.206C197.965 109.206 197.413 109.446 196.921 109.926C196.441 110.394 196.153 111.06 196.057 111.924ZM204.195 117V108.252H205.419L205.545 109.512H205.599C206.019 109.092 206.463 108.744 206.931 108.468C207.399 108.18 207.933 108.036 208.533 108.036C209.457 108.036 210.129 108.33 210.549 108.918C210.981 109.494 211.197 110.34 211.197 111.456V117H209.721V111.654C209.721 110.838 209.589 110.244 209.325 109.872C209.061 109.5 208.641 109.314 208.065 109.314C207.621 109.314 207.219 109.428 206.859 109.656C206.511 109.884 206.115 110.22 205.671 110.664V117H204.195ZM218.272 108.99C218.272 109.734 218.446 110.328 218.794 110.772C219.154 111.204 219.688 111.42 220.396 111.42C220.78 111.42 221.182 111.3 221.602 111.06C222.034 110.82 222.436 110.43 222.808 109.89C222.712 108.774 222.448 107.928 222.016 107.352C221.584 106.764 221.002 106.47 220.27 106.47C219.718 106.47 219.244 106.704 218.848 107.172C218.464 107.628 218.272 108.234 218.272 108.99ZM219.856 117.216C219.244 117.216 218.704 117.102 218.236 116.874C217.78 116.634 217.396 116.346 217.084 116.01L217.912 115.074C218.152 115.35 218.434 115.572 218.758 115.74C219.094 115.908 219.442 115.992 219.802 115.992C220.342 115.992 220.84 115.836 221.296 115.524C221.752 115.212 222.118 114.696 222.394 113.976C222.682 113.256 222.832 112.284 222.844 111.06C222.484 111.516 222.064 111.876 221.584 112.14C221.104 112.404 220.624 112.536 220.144 112.536C219.16 112.536 218.368 112.242 217.768 111.654C217.18 111.054 216.886 110.166 216.886 108.99C216.886 108.258 217.042 107.616 217.354 107.064C217.666 106.512 218.074 106.08 218.578 105.768C219.094 105.456 219.658 105.3 220.27 105.3C221.026 105.3 221.704 105.504 222.304 105.912C222.904 106.32 223.372 106.932 223.708 107.748C224.056 108.564 224.23 109.59 224.23 110.826C224.23 112.362 224.02 113.598 223.6 114.534C223.192 115.47 222.658 116.154 221.998 116.586C221.338 117.006 220.624 117.216 219.856 117.216ZM227.219 108.99C227.219 109.734 227.393 110.328 227.741 110.772C228.101 111.204 228.635 111.42 229.343 111.42C229.727 111.42 230.129 111.3 230.549 111.06C230.981 110.82 231.383 110.43 231.755 109.89C231.659 108.774 231.395 107.928 230.963 107.352C230.531 106.764 229.949 106.47 229.217 106.47C228.665 106.47 228.191 106.704 227.795 107.172C227.411 107.628 227.219 108.234 227.219 108.99ZM228.803 117.216C228.191 117.216 227.651 117.102 227.183 116.874C226.727 116.634 226.343 116.346 226.031 116.01L226.859 115.074C227.099 115.35 227.381 115.572 227.705 115.74C228.041 115.908 228.389 115.992 228.749 115.992C229.289 115.992 229.787 115.836 230.243 115.524C230.699 115.212 231.065 114.696 231.341 113.976C231.629 113.256 231.779 112.284 231.791 111.06C231.431 111.516 231.011 111.876 230.531 112.14C230.051 112.404 229.571 112.536 229.091 112.536C228.107 112.536 227.315 112.242 226.715 111.654C226.127 111.054 225.833 110.166 225.833 108.99C225.833 108.258 225.989 107.616 226.301 107.064C226.613 106.512 227.021 106.08 227.525 105.768C228.041 105.456 228.605 105.3 229.217 105.3C229.973 105.3 230.651 105.504 231.251 105.912C231.851 106.32 232.319 106.932 232.655 107.748C233.003 108.564 233.177 109.59 233.177 110.826C233.177 112.362 232.967 113.598 232.547 114.534C232.139 115.47 231.605 116.154 230.945 116.586C230.285 117.006 229.571 117.216 228.803 117.216Z"></path>
<rect stroke-opacity="0.44" stroke="black" rx="3.5" height="47" width="245" y="87.5" x="24.5"></rect>
</svg>
