<svg xmlns="http://www.w3.org/2000/svg" fill="none" viewBox="0 0 384 200" height="200" width="384">
<g filter="url(#filter0_dd_6260_115438)">
<rect fill="white" rx="8" height="130" width="247" y="35" x="25"></rect>
<rect stroke-opacity="0.1" stroke="black" rx="8.5" height="131" width="248" y="34.5" x="24.5"></rect>
</g>
<path stroke-dasharray="4 4" stroke-opacity="0.1" stroke="black" d="M25 75H272"></path>
<path stroke="#9862DB" d="M276 35.5H281C282.105 35.5 283 36.3954 283 37.5V70.5C283 71.6046 282.105 72.5 281 72.5H276"></path>
<path stroke="#9862DB" d="M276 74.5H281C282.105 74.5 283 75.3954 283 76.5V162.5C283 163.605 282.105 164.5 281 164.5H276"></path>
<path fill="#7B42C2" d="M293.8 60V46.88H295.46V52.38H301.56V46.88H303.24V60H301.56V53.82H295.46V60H293.8ZM310.607 60.24C309.74 60.24 308.954 60.04 308.247 59.64C307.54 59.2267 306.98 58.64 306.567 57.88C306.154 57.12 305.947 56.2133 305.947 55.16C305.947 54.0933 306.154 53.18 306.567 52.42C306.994 51.66 307.54 51.0733 308.207 50.66C308.874 50.2467 309.574 50.04 310.307 50.04C311.547 50.04 312.5 50.4533 313.167 51.28C313.847 52.1067 314.187 53.2133 314.187 54.6C314.187 54.7733 314.18 54.9467 314.167 55.12C314.167 55.28 314.154 55.42 314.127 55.54H307.567C307.634 56.5667 307.954 57.3867 308.527 58C309.114 58.6133 309.874 58.92 310.807 58.92C311.274 58.92 311.7 58.8533 312.087 58.72C312.487 58.5733 312.867 58.3867 313.227 58.16L313.807 59.24C313.394 59.5067 312.92 59.74 312.387 59.94C311.867 60.14 311.274 60.24 310.607 60.24ZM307.547 54.36H312.747C312.747 53.3733 312.534 52.6267 312.107 52.12C311.694 51.6 311.107 51.34 310.347 51.34C309.667 51.34 309.054 51.6067 308.507 52.14C307.974 52.66 307.654 53.4 307.547 54.36ZM318.535 60.24C317.722 60.24 317.042 60 316.495 59.52C315.962 59.0267 315.695 58.3467 315.695 57.48C315.695 56.4133 316.169 55.6 317.115 55.04C318.075 54.4667 319.589 54.0667 321.655 53.84C321.655 53.4267 321.595 53.0333 321.475 52.66C321.369 52.2867 321.169 51.9867 320.875 51.76C320.595 51.52 320.189 51.4 319.655 51.4C319.095 51.4 318.569 51.5067 318.075 51.72C317.582 51.9333 317.142 52.1733 316.755 52.44L316.115 51.3C316.569 51.0067 317.122 50.7267 317.775 50.46C318.442 50.18 319.162 50.04 319.935 50.04C321.122 50.04 321.982 50.4067 322.515 51.14C323.049 51.86 323.315 52.8267 323.315 54.04V60H321.955L321.815 58.84H321.755C321.302 59.2133 320.802 59.54 320.255 59.82C319.722 60.1 319.149 60.24 318.535 60.24ZM319.015 58.92C319.482 58.92 319.922 58.8067 320.335 58.58C320.749 58.3533 321.189 58.0333 321.655 57.62V54.92C320.042 55.12 318.909 55.42 318.255 55.82C317.615 56.22 317.295 56.7333 317.295 57.36C317.295 57.9067 317.462 58.3067 317.795 58.56C318.129 58.8 318.535 58.92 319.015 58.92ZM329.673 60.24C328.46 60.24 327.487 59.8 326.753 58.92C326.02 58.0267 325.653 56.7733 325.653 55.16C325.653 54.1067 325.847 53.2 326.233 52.44C326.633 51.6667 327.153 51.0733 327.793 50.66C328.447 50.2467 329.14 50.04 329.873 50.04C330.433 50.04 330.92 50.14 331.333 50.34C331.747 50.54 332.167 50.8133 332.593 51.16L332.513 49.5V45.76H334.173V60H332.813L332.673 58.86H332.613C332.24 59.2333 331.8 59.56 331.293 59.84C330.787 60.1067 330.247 60.24 329.673 60.24ZM330.033 58.86C330.887 58.86 331.713 58.4133 332.513 57.52V52.44C332.1 52.0667 331.7 51.8067 331.313 51.66C330.94 51.5 330.553 51.42 330.153 51.42C329.633 51.42 329.16 51.58 328.733 51.9C328.32 52.2067 327.987 52.64 327.733 53.2C327.48 53.7467 327.353 54.3933 327.353 55.14C327.353 56.3 327.587 57.2133 328.053 57.88C328.52 58.5333 329.18 58.86 330.033 58.86ZM341.367 60.24C340.501 60.24 339.714 60.04 339.007 59.64C338.301 59.2267 337.741 58.64 337.327 57.88C336.914 57.12 336.707 56.2133 336.707 55.16C336.707 54.0933 336.914 53.18 337.327 52.42C337.754 51.66 338.301 51.0733 338.967 50.66C339.634 50.2467 340.334 50.04 341.067 50.04C342.307 50.04 343.261 50.4533 343.927 51.28C344.607 52.1067 344.947 53.2133 344.947 54.6C344.947 54.7733 344.941 54.9467 344.927 55.12C344.927 55.28 344.914 55.42 344.887 55.54H338.327C338.394 56.5667 338.714 57.3867 339.287 58C339.874 58.6133 340.634 58.92 341.567 58.92C342.034 58.92 342.461 58.8533 342.847 58.72C343.247 58.5733 343.627 58.3867 343.987 58.16L344.567 59.24C344.154 59.5067 343.681 59.74 343.147 59.94C342.627 60.14 342.034 60.24 341.367 60.24ZM338.307 54.36H343.507C343.507 53.3733 343.294 52.6267 342.867 52.12C342.454 51.6 341.867 51.34 341.107 51.34C340.427 51.34 339.814 51.6067 339.267 52.14C338.734 52.66 338.414 53.4 338.307 54.36ZM347.329 60V50.28H348.689L348.829 52.04H348.889C349.222 51.4267 349.629 50.94 350.109 50.58C350.589 50.22 351.102 50.04 351.649 50.04C352.036 50.04 352.382 50.1067 352.689 50.24L352.369 51.68C352.209 51.6267 352.062 51.5867 351.929 51.56C351.796 51.5333 351.629 51.52 351.429 51.52C351.016 51.52 350.582 51.6867 350.129 52.02C349.689 52.3533 349.302 52.9333 348.969 53.76V60H347.329Z"></path>
<path fill="#7B42C2" d="M298.76 120.24C297.667 120.24 296.687 119.973 295.82 119.44C294.967 118.893 294.287 118.113 293.78 117.1C293.287 116.087 293.04 114.867 293.04 113.44C293.04 112.027 293.293 110.813 293.8 109.8C294.307 108.787 295 108.007 295.88 107.46C296.76 106.913 297.753 106.64 298.86 106.64C299.66 106.64 300.367 106.807 300.98 107.14C301.593 107.46 302.087 107.833 302.46 108.26L301.56 109.34C301.213 108.967 300.82 108.667 300.38 108.44C299.94 108.213 299.44 108.1 298.88 108.1C298.053 108.1 297.327 108.32 296.7 108.76C296.087 109.187 295.607 109.793 295.26 110.58C294.927 111.367 294.76 112.307 294.76 113.4C294.76 114.493 294.927 115.447 295.26 116.26C295.593 117.06 296.06 117.68 296.66 118.12C297.273 118.56 297.993 118.78 298.82 118.78C299.447 118.78 300.007 118.647 300.5 118.38C300.993 118.113 301.447 117.753 301.86 117.3L302.78 118.34C302.26 118.94 301.673 119.407 301.02 119.74C300.367 120.073 299.613 120.24 298.76 120.24ZM308.826 120.24C308.039 120.24 307.299 120.04 306.606 119.64C305.926 119.24 305.372 118.66 304.946 117.9C304.532 117.14 304.326 116.227 304.326 115.16C304.326 114.067 304.532 113.14 304.946 112.38C305.372 111.62 305.926 111.04 306.606 110.64C307.299 110.24 308.039 110.04 308.826 110.04C309.626 110.04 310.366 110.24 311.046 110.64C311.726 111.04 312.272 111.62 312.686 112.38C313.112 113.14 313.326 114.067 313.326 115.16C313.326 116.227 313.112 117.14 312.686 117.9C312.272 118.66 311.726 119.24 311.046 119.64C310.366 120.04 309.626 120.24 308.826 120.24ZM308.826 118.88C309.666 118.88 310.339 118.54 310.846 117.86C311.366 117.167 311.626 116.267 311.626 115.16C311.626 114.04 311.366 113.133 310.846 112.44C310.339 111.747 309.666 111.4 308.826 111.4C307.999 111.4 307.326 111.747 306.806 112.44C306.286 113.133 306.026 114.04 306.026 115.16C306.026 116.267 306.286 117.167 306.806 117.86C307.326 118.54 307.999 118.88 308.826 118.88ZM315.866 120V110.28H317.226L317.366 111.68H317.426C317.892 111.213 318.386 110.827 318.906 110.52C319.426 110.2 320.019 110.04 320.686 110.04C321.712 110.04 322.459 110.367 322.926 111.02C323.406 111.66 323.646 112.6 323.646 113.84V120H322.006V114.06C322.006 113.153 321.859 112.493 321.566 112.08C321.272 111.667 320.806 111.46 320.166 111.46C319.672 111.46 319.226 111.587 318.826 111.84C318.439 112.093 317.999 112.467 317.506 112.96V120H315.866ZM329.843 120.24C328.803 120.24 328.076 119.94 327.663 119.34C327.263 118.74 327.063 117.96 327.063 117V111.62H325.623V110.38L327.143 110.28L327.343 107.56H328.723V110.28H331.343V111.62H328.723V117.02C328.723 117.62 328.83 118.087 329.043 118.42C329.27 118.74 329.663 118.9 330.223 118.9C330.396 118.9 330.583 118.873 330.783 118.82C330.983 118.753 331.163 118.693 331.323 118.64L331.643 119.88C331.376 119.973 331.083 120.053 330.763 120.12C330.456 120.2 330.15 120.24 329.843 120.24ZM337.187 120.24C336.321 120.24 335.534 120.04 334.827 119.64C334.121 119.227 333.561 118.64 333.147 117.88C332.734 117.12 332.527 116.213 332.527 115.16C332.527 114.093 332.734 113.18 333.147 112.42C333.574 111.66 334.121 111.073 334.787 110.66C335.454 110.247 336.154 110.04 336.887 110.04C338.127 110.04 339.081 110.453 339.747 111.28C340.427 112.107 340.767 113.213 340.767 114.6C340.767 114.773 340.761 114.947 340.747 115.12C340.747 115.28 340.734 115.42 340.707 115.54H334.147C334.214 116.567 334.534 117.387 335.107 118C335.694 118.613 336.454 118.92 337.387 118.92C337.854 118.92 338.281 118.853 338.667 118.72C339.067 118.573 339.447 118.387 339.807 118.16L340.387 119.24C339.974 119.507 339.501 119.74 338.967 119.94C338.447 120.14 337.854 120.24 337.187 120.24ZM334.127 114.36H339.327C339.327 113.373 339.114 112.627 338.687 112.12C338.274 111.6 337.687 111.34 336.927 111.34C336.247 111.34 335.634 111.607 335.087 112.14C334.554 112.66 334.234 113.4 334.127 114.36ZM343.149 120V110.28H344.509L344.649 111.68H344.709C345.176 111.213 345.669 110.827 346.189 110.52C346.709 110.2 347.303 110.04 347.969 110.04C348.996 110.04 349.743 110.367 350.209 111.02C350.689 111.66 350.929 112.6 350.929 113.84V120H349.289V114.06C349.289 113.153 349.143 112.493 348.849 112.08C348.556 111.667 348.089 111.46 347.449 111.46C346.956 111.46 346.509 111.587 346.109 111.84C345.723 112.093 345.283 112.467 344.789 112.96V120H343.149ZM357.127 120.24C356.087 120.24 355.36 119.94 354.947 119.34C354.547 118.74 354.347 117.96 354.347 117V111.62H352.907V110.38L354.427 110.28L354.627 107.56H356.007V110.28H358.627V111.62H356.007V117.02C356.007 117.62 356.114 118.087 356.327 118.42C356.554 118.74 356.947 118.9 357.507 118.9C357.68 118.9 357.867 118.873 358.067 118.82C358.267 118.753 358.447 118.693 358.607 118.64L358.927 119.88C358.66 119.973 358.367 120.053 358.047 120.12C357.74 120.2 357.434 120.24 357.127 120.24Z"></path>
<path fill="#707070" d="M251.47 50.9697C251.763 50.6768 252.237 50.6768 252.53 50.9697L258.03 56.4697C258.323 56.7626 258.323 57.2374 258.03 57.5303C257.737 57.8232 257.263 57.8232 256.97 57.5303L252 52.5607L247.03 57.5303C246.737 57.8232 246.263 57.8232 245.97 57.5303C245.677 57.2374 245.677 56.7626 245.97 56.4697L251.47 50.9697Z" clip-rule="evenodd" fill-rule="evenodd"></path>
<defs>
<filter color-interpolation-filters="sRGB" filterUnits="userSpaceOnUse" height="140" width="257" y="31" x="20" id="filter0_dd_6260_115438">
<feFlood result="BackgroundImageFix" flood-opacity="0"></feFlood>
<feColorMatrix result="hardAlpha" values="0 0 0 0 0 0 0 0 0 0 0 0 0 0 0 0 0 0 127 0" type="matrix" in="SourceAlpha"></feColorMatrix>
<feMorphology result="effect1_dropShadow_6260_115438" in="SourceAlpha" operator="erode" radius="1"></feMorphology>
<feOffset dy="1"></feOffset>
<feGaussianBlur stdDeviation="1"></feGaussianBlur>
<feColorMatrix values="0 0 0 0 0 0 0 0 0 0 0 0 0 0 0 0 0 0 0.1 0" type="matrix"></feColorMatrix>
<feBlend result="effect1_dropShadow_6260_115438" in2="BackgroundImageFix" mode="normal"></feBlend>
<feColorMatrix result="hardAlpha" values="0 0 0 0 0 0 0 0 0 0 0 0 0 0 0 0 0 0 127 0" type="matrix" in="SourceAlpha"></feColorMatrix>
<feOffset dy="1"></feOffset>
<feGaussianBlur stdDeviation="2"></feGaussianBlur>
<feColorMatrix values="0 0 0 0 0 0 0 0 0 0 0 0 0 0 0 0 0 0 0.1 0" type="matrix"></feColorMatrix>
<feBlend result="effect2_dropShadow_6260_115438" in2="effect1_dropShadow_6260_115438" mode="normal"></feBlend>
<feBlend result="shape" in2="effect2_dropShadow_6260_115438" in="SourceGraphic" mode="normal"></feBlend>
</filter>
</defs>
</svg>
