<svg xmlns="http://www.w3.org/2000/svg" fill="none" viewBox="0 0 200 200" height="200" width="200">
<path fill="url(#paint0_linear_6088_99841)" d="M109 122.5C109 124.985 111.015 127 113.5 127C115.985 127 118 124.985 118 122.5C118 120.014 115.985 118 113.5 118C111.015 118 109 120.014 109 122.5Z"></path>
<path stroke-linejoin="round" stroke-linecap="round" stroke-width="6" stroke="url(#paint1_linear_6088_99841)" d="M61.75 122.5L109 122.5M61.75 122.5L77.5 106.75M61.75 122.5L77.5 138.25M109 122.5C109 124.985 111.015 127 113.5 127C115.985 127 118 124.985 118 122.5C118 120.014 115.985 118 113.5 118C111.015 118 109 120.014 109 122.5Z"></path>
<path fill="url(#paint2_linear_6088_99841)" d="M91 77.4998C91 79.985 88.9853 81.9998 86.5 81.9998C84.0147 81.9998 82 79.985 82 77.4998C82 75.0145 84.0147 72.9998 86.5 72.9998C88.9853 72.9998 91 75.0145 91 77.4998Z"></path>
<path fill="url(#paint3_linear_6088_99841)" d="M124.621 59.6284C123.45 58.4569 121.55 58.4569 120.379 59.6284C119.207 60.8 119.207 62.6995 120.379 63.8711L124.621 59.6284ZM138.25 77.4998L140.371 79.6211C141.543 78.4495 141.543 76.55 140.371 75.3784L138.25 77.4998ZM120.379 91.1284C119.207 92.3 119.207 94.1995 120.379 95.3711C121.55 96.5427 123.45 96.5427 124.621 95.3711L120.379 91.1284ZM120.379 63.8711L136.129 79.6211L140.371 75.3784L124.621 59.6284L120.379 63.8711ZM136.129 75.3784L120.379 91.1284L124.621 95.3711L140.371 79.6211L136.129 75.3784ZM138.25 74.4998L91 74.4998L91 80.4998L138.25 80.4998L138.25 74.4998ZM88 77.4998C88 78.3282 87.3284 78.9998 86.5 78.9998V84.9998C90.6421 84.9998 94 81.6419 94 77.4998H88ZM86.5 78.9998C85.6716 78.9998 85 78.3282 85 77.4998H79C79 81.6419 82.3579 84.9998 86.5 84.9998V78.9998ZM85 77.4998C85 76.6713 85.6716 75.9998 86.5 75.9998V69.9998C82.3579 69.9998 79 73.3576 79 77.4998H85ZM86.5 75.9998C87.3284 75.9998 88 76.6713 88 77.4998H94C94 73.3576 90.6421 69.9998 86.5 69.9998V75.9998Z"></path>
<circle fill="url(#paint4_linear_6088_99841)" r="2.5" cy="122.5" cx="113.5"></circle>
<circle fill="url(#paint5_linear_6088_99841)" r="2.5" cy="77.5" cx="86.5"></circle>
<defs>
<linearGradient gradientUnits="userSpaceOnUse" y2="110.598" x2="119.832" y1="106.75" x1="61.75" id="paint0_linear_6088_99841">
<stop stop-color="#CCE2F0"></stop>
<stop stop-color="#E6F1F8" offset="1"></stop>
</linearGradient>
<linearGradient gradientUnits="userSpaceOnUse" y2="204.865" x2="118.931" y1="205.187" x1="61.75" id="paint1_linear_6088_99841">
<stop stop-color="#3380A5"></stop>
<stop stop-color="#5297BC" offset="1"></stop>
</linearGradient>
<linearGradient gradientUnits="userSpaceOnUse" y2="65.5981" x2="140.082" y1="61.7498" x1="82" id="paint2_linear_6088_99841">
<stop stop-color="#CCE2F0"></stop>
<stop stop-color="#E6F1F8" offset="1"></stop>
</linearGradient>
<linearGradient gradientUnits="userSpaceOnUse" y2="159.865" x2="139.181" y1="160.187" x1="82" id="paint3_linear_6088_99841">
<stop stop-color="#3380A5"></stop>
<stop stop-color="#5297BC" offset="1"></stop>
</linearGradient>
<linearGradient gradientUnits="userSpaceOnUse" y2="120.192" x2="116.178" y1="120" x1="111" id="paint4_linear_6088_99841">
<stop stop-color="#CCE2F0"></stop>
<stop stop-color="#E6F1F8" offset="1"></stop>
</linearGradient>
<linearGradient gradientUnits="userSpaceOnUse" y2="75.1921" x2="89.1784" y1="75" x1="84" id="paint5_linear_6088_99841">
<stop stop-color="#CCE2F0"></stop>
<stop stop-color="#E6F1F8" offset="1"></stop>
</linearGradient>
</defs>
</svg>
