<svg xmlns="http://www.w3.org/2000/svg" fill="none" viewBox="0 0 200 200" height="200" width="200">
<path fill="#417DA0" d="M65 67.8898C65 57.5533 73.3724 48.9448 83.7844 48.9448H102.89V86.8348H83.7844C73.3725 86.8348 65 78.2263 65 67.8898ZM83.7844 54.7246C76.6398 54.7246 70.7798 60.6697 70.7798 67.8898C70.7798 75.1099 76.6398 81.055 83.7844 81.055H97.1101V54.7246H83.7844Z" clip-rule="evenodd" fill-rule="evenodd"></path>
<path fill="#417DA0" d="M135 67.8898C135 57.5533 126.628 48.9448 116.216 48.9448H97.1101V86.8348H116.216C126.628 86.8348 135 78.2263 135 67.8898ZM116.216 54.7246C123.36 54.7246 129.22 60.6697 129.22 67.8898C129.22 75.1099 123.36 81.055 116.216 81.055H102.89V54.7246H116.216Z" clip-rule="evenodd" fill-rule="evenodd"></path>
<path fill="#417DA0" d="M135 99.9999C135 89.6256 126.429 81.055 116.055 81.055C105.681 81.055 97.1101 89.6256 97.1101 99.9999C97.1101 110.374 105.681 118.945 116.055 118.945C126.429 118.945 135 110.374 135 99.9999ZM116.055 86.8348C123.237 86.8348 129.22 92.8177 129.22 99.9999C129.22 107.182 123.237 113.165 116.055 113.165C108.873 113.165 102.89 107.182 102.89 99.9999C102.89 92.8177 108.873 86.8348 116.055 86.8348Z" clip-rule="evenodd" fill-rule="evenodd"></path>
<path fill="#417DA0" d="M65 99.9999C65 89.6635 73.3725 81.055 83.7844 81.055H102.89V118.945H83.7844C73.3725 118.945 65 110.336 65 99.9999ZM83.7844 86.8348C76.6398 86.8348 70.7798 92.7798 70.7798 99.9999C70.7798 107.22 76.6398 113.165 83.7844 113.165H97.1101V86.8348H83.7844Z" clip-rule="evenodd" fill-rule="evenodd"></path>
<path fill="#417DA0" d="M65 132.11C65 121.774 73.3725 113.165 83.7844 113.165H102.89V132.271C102.89 142.683 94.2814 151.055 83.945 151.055C73.5706 151.055 65 142.484 65 132.11ZM83.7844 118.945C76.6398 118.945 70.7798 124.89 70.7798 132.11C70.7798 139.292 76.7627 145.275 83.945 145.275C91.1651 145.275 97.1101 139.415 97.1101 132.271V118.945H83.7844Z" clip-rule="evenodd" fill-rule="evenodd"></path>
</svg>
