<svg xmlns="http://www.w3.org/2000/svg" fill="none" viewBox="0 0 873 579" height="579" width="873">
<rect fill="white" height="579" width="873"></rect>
<path fill="#262626" d="M119.631 209.756C120.18 209.206 121.07 209.206 121.619 209.756L130.938 219.074L140.256 209.756C140.805 209.206 141.695 209.206 142.244 209.756C142.794 210.305 142.794 211.195 142.244 211.744L131.932 222.057C131.383 222.606 130.492 222.606 129.943 222.057L119.631 211.744C119.081 211.195 119.081 210.305 119.631 209.756Z" clip-rule="evenodd" fill-rule="evenodd"></path>
<path fill="#262626" d="M172.173 230.5V201.07H177.393V226.09H189.633V230.5H172.173ZM203.099 231.04C201.059 231.04 199.214 230.59 197.564 229.69C195.914 228.76 194.609 227.44 193.649 225.73C192.689 223.99 192.209 221.905 192.209 219.475C192.209 217.075 192.689 215.005 193.649 213.265C194.639 211.525 195.914 210.19 197.474 209.26C199.034 208.33 200.669 207.865 202.379 207.865C204.389 207.865 206.069 208.315 207.419 209.215C208.769 210.085 209.789 211.315 210.479 212.905C211.169 214.465 211.514 216.28 211.514 218.35C211.514 219.43 211.439 220.27 211.289 220.87H197.249C197.489 222.82 198.194 224.335 199.364 225.415C200.534 226.495 202.004 227.035 203.774 227.035C204.734 227.035 205.619 226.9 206.429 226.63C207.269 226.33 208.094 225.925 208.904 225.415L210.659 228.655C209.609 229.345 208.439 229.915 207.149 230.365C205.859 230.815 204.509 231.04 203.099 231.04ZM197.204 217.36H207.014C207.014 215.65 206.639 214.315 205.889 213.355C205.139 212.365 204.014 211.87 202.514 211.87C201.224 211.87 200.069 212.35 199.049 213.31C198.059 214.24 197.444 215.59 197.204 217.36ZM216.367 230.5V208.405H221.542V230.5H216.367ZM218.977 204.535C218.047 204.535 217.297 204.265 216.727 203.725C216.157 203.185 215.872 202.465 215.872 201.565C215.872 200.695 216.157 199.99 216.727 199.45C217.297 198.91 218.047 198.64 218.977 198.64C219.907 198.64 220.657 198.91 221.227 199.45C221.797 199.99 222.082 200.695 222.082 201.565C222.082 202.465 221.797 203.185 221.227 203.725C220.657 204.265 219.907 204.535 218.977 204.535ZM237.504 231.04C235.464 231.04 233.619 230.59 231.969 229.69C230.319 228.76 229.014 227.44 228.054 225.73C227.094 223.99 226.614 221.905 226.614 219.475C226.614 217.075 227.094 215.005 228.054 213.265C229.044 211.525 230.319 210.19 231.879 209.26C233.439 208.33 235.074 207.865 236.784 207.865C238.794 207.865 240.474 208.315 241.824 209.215C243.174 210.085 244.194 211.315 244.884 212.905C245.574 214.465 245.919 216.28 245.919 218.35C245.919 219.43 245.844 220.27 245.694 220.87H231.654C231.894 222.82 232.599 224.335 233.769 225.415C234.939 226.495 236.409 227.035 238.179 227.035C239.139 227.035 240.024 226.9 240.834 226.63C241.674 226.33 242.499 225.925 243.309 225.415L245.064 228.655C244.014 229.345 242.844 229.915 241.554 230.365C240.264 230.815 238.914 231.04 237.504 231.04ZM231.609 217.36H241.419C241.419 215.65 241.044 214.315 240.294 213.355C239.544 212.365 238.419 211.87 236.919 211.87C235.629 211.87 234.474 212.35 233.454 213.31C232.464 214.24 231.849 215.59 231.609 217.36ZM259.69 239.23V208.405H263.965L264.325 210.745H264.505C265.435 209.965 266.47 209.29 267.61 208.72C268.78 208.15 269.965 207.865 271.165 207.865C273.925 207.865 276.055 208.885 277.555 210.925C279.085 212.965 279.85 215.695 279.85 219.115C279.85 221.635 279.4 223.795 278.5 225.595C277.6 227.365 276.43 228.715 274.99 229.645C273.58 230.575 272.05 231.04 270.4 231.04C269.44 231.04 268.48 230.83 267.52 230.41C266.56 229.96 265.63 229.36 264.73 228.61L264.865 232.3V239.23H259.69ZM269.32 226.765C270.79 226.765 272.02 226.12 273.01 224.83C274 223.54 274.495 221.65 274.495 219.16C274.495 216.94 274.12 215.215 273.37 213.985C272.62 212.755 271.405 212.14 269.725 212.14C268.165 212.14 266.545 212.965 264.865 214.615V224.92C265.675 225.58 266.455 226.06 267.205 226.36C267.955 226.63 268.66 226.765 269.32 226.765ZM285.001 230.5V208.405H289.276L289.636 212.32H289.816C290.596 210.88 291.541 209.785 292.651 209.035C293.761 208.255 294.901 207.865 296.071 207.865C297.121 207.865 297.961 208.015 298.591 208.315L297.691 212.815C297.301 212.695 296.941 212.605 296.611 212.545C296.281 212.485 295.876 212.455 295.396 212.455C294.526 212.455 293.611 212.8 292.651 213.49C291.691 214.15 290.866 215.32 290.176 217V230.5H285.001ZM301.698 230.5V208.405H306.873V230.5H301.698ZM304.308 204.535C303.378 204.535 302.628 204.265 302.058 203.725C301.488 203.185 301.203 202.465 301.203 201.565C301.203 200.695 301.488 199.99 302.058 199.45C302.628 198.91 303.378 198.64 304.308 198.64C305.238 198.64 305.988 198.91 306.558 199.45C307.128 199.99 307.413 200.695 307.413 201.565C307.413 202.465 307.128 203.185 306.558 203.725C305.988 204.265 305.238 204.535 304.308 204.535ZM318.335 230.5L310.64 208.405H315.905L319.415 219.88C319.715 220.96 320.015 222.055 320.315 223.165C320.645 224.275 320.96 225.4 321.26 226.54H321.44C321.77 225.4 322.085 224.275 322.385 223.165C322.715 222.055 323.03 220.96 323.33 219.88L326.84 208.405H331.835L324.32 230.5H318.335ZM340.052 231.04C338.132 231.04 336.557 230.44 335.327 229.24C334.127 228.04 333.527 226.48 333.527 224.56C333.527 222.19 334.562 220.36 336.632 219.07C338.702 217.75 342.002 216.85 346.532 216.37C346.502 215.2 346.187 214.195 345.587 213.355C345.017 212.485 343.982 212.05 342.482 212.05C341.402 212.05 340.337 212.26 339.287 212.68C338.267 213.1 337.262 213.61 336.272 214.21L334.382 210.745C335.612 209.965 336.992 209.29 338.522 208.72C340.082 208.15 341.732 207.865 343.472 207.865C346.232 207.865 348.287 208.69 349.637 210.34C351.017 211.96 351.707 214.315 351.707 217.405V230.5H347.432L347.072 228.07H346.892C345.902 228.91 344.837 229.615 343.697 230.185C342.587 230.755 341.372 231.04 340.052 231.04ZM341.717 226.99C342.617 226.99 343.427 226.78 344.147 226.36C344.897 225.91 345.692 225.31 346.532 224.56V219.61C343.532 220 341.447 220.585 340.277 221.365C339.107 222.115 338.522 223.045 338.522 224.155C338.522 225.145 338.822 225.865 339.422 226.315C340.022 226.765 340.787 226.99 341.717 226.99ZM364.892 231.04C362.342 231.04 360.527 230.305 359.447 228.835C358.397 227.335 357.872 225.4 357.872 223.03V212.5H354.722V208.63L358.142 208.405L358.772 202.375H363.092V208.405H368.717V212.5H363.092V223.03C363.092 225.61 364.127 226.9 366.197 226.9C366.587 226.9 366.992 226.855 367.412 226.765C367.832 226.645 368.192 226.525 368.492 226.405L369.392 230.23C368.792 230.44 368.102 230.62 367.322 230.77C366.572 230.95 365.762 231.04 364.892 231.04Z"></path>
<rect fill-opacity="0.19" fill="black" height="3.75" width="703.125" y="263.25" x="85.9375"></rect>
<rect fill-opacity="0.19" fill="black" height="3.75" width="703" y="162" x="85.9375"></rect>
<path fill="#262626" d="M118.693 359.756C119.242 359.206 120.133 359.206 120.682 359.756L130 369.074L139.318 359.756C139.867 359.206 140.758 359.206 141.307 359.756C141.856 360.305 141.856 361.195 141.307 361.744L130.994 372.057C130.445 372.606 129.555 372.606 129.006 372.057L118.693 361.744C118.144 361.195 118.144 360.305 118.693 359.756Z" clip-rule="evenodd" fill-rule="evenodd"></path>
<path fill="#262626" d="M171.235 380.5V351.07H176.455V376.09H188.695V380.5H171.235ZM202.162 381.04C200.122 381.04 198.277 380.59 196.627 379.69C194.977 378.76 193.672 377.44 192.712 375.73C191.752 373.99 191.272 371.905 191.272 369.475C191.272 367.075 191.752 365.005 192.712 363.265C193.702 361.525 194.977 360.19 196.537 359.26C198.097 358.33 199.732 357.865 201.442 357.865C203.452 357.865 205.132 358.315 206.482 359.215C207.832 360.085 208.852 361.315 209.542 362.905C210.232 364.465 210.577 366.28 210.577 368.35C210.577 369.43 210.502 370.27 210.352 370.87H196.312C196.552 372.82 197.257 374.335 198.427 375.415C199.597 376.495 201.067 377.035 202.837 377.035C203.797 377.035 204.682 376.9 205.492 376.63C206.332 376.33 207.157 375.925 207.967 375.415L209.722 378.655C208.672 379.345 207.502 379.915 206.212 380.365C204.922 380.815 203.572 381.04 202.162 381.04ZM196.267 367.36H206.077C206.077 365.65 205.702 364.315 204.952 363.355C204.202 362.365 203.077 361.87 201.577 361.87C200.287 361.87 199.132 362.35 198.112 363.31C197.122 364.24 196.507 365.59 196.267 367.36ZM215.429 380.5V358.405H220.604V380.5H215.429ZM218.039 354.535C217.109 354.535 216.359 354.265 215.789 353.725C215.219 353.185 214.934 352.465 214.934 351.565C214.934 350.695 215.219 349.99 215.789 349.45C216.359 348.91 217.109 348.64 218.039 348.64C218.969 348.64 219.719 348.91 220.289 349.45C220.859 349.99 221.144 350.695 221.144 351.565C221.144 352.465 220.859 353.185 220.289 353.725C219.719 354.265 218.969 354.535 218.039 354.535ZM236.567 381.04C234.527 381.04 232.682 380.59 231.032 379.69C229.382 378.76 228.077 377.44 227.117 375.73C226.157 373.99 225.677 371.905 225.677 369.475C225.677 367.075 226.157 365.005 227.117 363.265C228.107 361.525 229.382 360.19 230.942 359.26C232.502 358.33 234.137 357.865 235.847 357.865C237.857 357.865 239.537 358.315 240.887 359.215C242.237 360.085 243.257 361.315 243.947 362.905C244.637 364.465 244.982 366.28 244.982 368.35C244.982 369.43 244.907 370.27 244.757 370.87H230.717C230.957 372.82 231.662 374.335 232.832 375.415C234.002 376.495 235.472 377.035 237.242 377.035C238.202 377.035 239.087 376.9 239.897 376.63C240.737 376.33 241.562 375.925 242.372 375.415L244.127 378.655C243.077 379.345 241.907 379.915 240.617 380.365C239.327 380.815 237.977 381.04 236.567 381.04ZM230.672 367.36H240.482C240.482 365.65 240.107 364.315 239.357 363.355C238.607 362.365 237.482 361.87 235.982 361.87C234.692 361.87 233.537 362.35 232.517 363.31C231.527 364.24 230.912 365.59 230.672 367.36ZM258.753 380.5V348.73H263.838V368.575H263.973L272.163 358.405H277.833L270.273 367.405L278.598 380.5H272.973L267.303 370.915L263.838 374.875V380.5H258.753ZM290.164 381.04C288.334 381.04 286.624 380.59 285.034 379.69C283.444 378.76 282.154 377.44 281.164 375.73C280.174 373.99 279.679 371.905 279.679 369.475C279.679 367.015 280.174 364.93 281.164 363.22C282.154 361.48 283.444 360.16 285.034 359.26C286.624 358.33 288.334 357.865 290.164 357.865C292.024 357.865 293.749 358.33 295.339 359.26C296.929 360.16 298.219 361.48 299.209 363.22C300.199 364.93 300.694 367.015 300.694 369.475C300.694 371.905 300.199 373.99 299.209 375.73C298.219 377.44 296.929 378.76 295.339 379.69C293.749 380.59 292.024 381.04 290.164 381.04ZM290.164 376.81C291.784 376.81 293.059 376.135 293.989 374.785C294.919 373.435 295.384 371.665 295.384 369.475C295.384 367.255 294.919 365.47 293.989 364.12C293.059 362.77 291.784 362.095 290.164 362.095C288.544 362.095 287.269 362.77 286.339 364.12C285.439 365.47 284.989 367.255 284.989 369.475C284.989 371.665 285.439 373.435 286.339 374.785C287.269 376.135 288.544 376.81 290.164 376.81ZM305.726 380.5V358.405H310.001L310.361 361.42H310.541C311.471 360.43 312.476 359.59 313.556 358.9C314.666 358.21 315.911 357.865 317.291 357.865C318.911 357.865 320.201 358.225 321.161 358.945C322.151 359.635 322.901 360.595 323.411 361.825C324.461 360.685 325.556 359.74 326.696 358.99C327.866 358.24 329.141 357.865 330.521 357.865C332.861 357.865 334.586 358.63 335.696 360.16C336.806 361.69 337.361 363.85 337.361 366.64V380.5H332.141V367.315C332.141 365.485 331.856 364.195 331.286 363.445C330.746 362.695 329.906 362.32 328.766 362.32C327.386 362.32 325.841 363.235 324.131 365.065V380.5H318.956V367.315C318.956 365.485 318.671 364.195 318.101 363.445C317.561 362.695 316.706 362.32 315.536 362.32C314.156 362.32 312.611 363.235 310.901 365.065V380.5H305.726ZM343.561 380.5V358.405H347.836L348.196 361.42H348.376C349.306 360.43 350.311 359.59 351.391 358.9C352.501 358.21 353.746 357.865 355.126 357.865C356.746 357.865 358.036 358.225 358.996 358.945C359.986 359.635 360.736 360.595 361.246 361.825C362.296 360.685 363.391 359.74 364.531 358.99C365.701 358.24 366.976 357.865 368.356 357.865C370.696 357.865 372.421 358.63 373.531 360.16C374.641 361.69 375.196 363.85 375.196 366.64V380.5H369.976V367.315C369.976 365.485 369.691 364.195 369.121 363.445C368.581 362.695 367.741 362.32 366.601 362.32C365.221 362.32 363.676 363.235 361.966 365.065V380.5H356.791V367.315C356.791 365.485 356.506 364.195 355.936 363.445C355.396 362.695 354.541 362.32 353.371 362.32C351.991 362.32 350.446 363.235 348.736 365.065V380.5H343.561ZM387.966 381.04C385.596 381.04 383.871 380.275 382.791 378.745C381.711 377.215 381.171 375.055 381.171 372.265V358.405H386.346V371.59C386.346 373.42 386.616 374.71 387.156 375.46C387.696 376.21 388.566 376.585 389.766 376.585C390.726 376.585 391.566 376.345 392.286 375.865C393.036 375.385 393.831 374.605 394.671 373.525V358.405H399.846V380.5H395.616L395.211 377.26H395.076C394.116 378.4 393.066 379.315 391.926 380.005C390.786 380.695 389.466 381.04 387.966 381.04ZM406.311 380.5V358.405H410.586L410.946 361.375H411.126C412.116 360.415 413.196 359.59 414.366 358.9C415.536 358.21 416.871 357.865 418.371 357.865C420.741 357.865 422.466 358.63 423.546 360.16C424.626 361.69 425.166 363.85 425.166 366.64V380.5H419.991V367.315C419.991 365.485 419.721 364.195 419.181 363.445C418.641 362.695 417.756 362.32 416.526 362.32C415.566 362.32 414.711 362.56 413.961 363.04C413.241 363.49 412.416 364.165 411.486 365.065V380.5H406.311ZM436.756 381.04C434.836 381.04 433.261 380.44 432.031 379.24C430.831 378.04 430.231 376.48 430.231 374.56C430.231 372.19 431.266 370.36 433.336 369.07C435.406 367.75 438.706 366.85 443.236 366.37C443.206 365.2 442.891 364.195 442.291 363.355C441.721 362.485 440.686 362.05 439.186 362.05C438.106 362.05 437.041 362.26 435.991 362.68C434.971 363.1 433.966 363.61 432.976 364.21L431.086 360.745C432.316 359.965 433.696 359.29 435.226 358.72C436.786 358.15 438.436 357.865 440.176 357.865C442.936 357.865 444.991 358.69 446.341 360.34C447.721 361.96 448.411 364.315 448.411 367.405V380.5H444.136L443.776 378.07H443.596C442.606 378.91 441.541 379.615 440.401 380.185C439.291 380.755 438.076 381.04 436.756 381.04ZM438.421 376.99C439.321 376.99 440.131 376.78 440.851 376.36C441.601 375.91 442.396 375.31 443.236 374.56V369.61C440.236 370 438.151 370.585 436.981 371.365C435.811 372.115 435.226 373.045 435.226 374.155C435.226 375.145 435.526 375.865 436.126 376.315C436.726 376.765 437.491 376.99 438.421 376.99ZM459.555 381.04C457.725 381.04 456.42 380.485 455.64 379.375C454.89 378.265 454.515 376.75 454.515 374.83V348.73H459.69V375.1C459.69 375.73 459.81 376.18 460.05 376.45C460.29 376.69 460.545 376.81 460.815 376.81C460.935 376.81 461.04 376.81 461.13 376.81C461.25 376.78 461.415 376.75 461.625 376.72L462.3 380.59C462 380.71 461.61 380.815 461.13 380.905C460.68 380.995 460.155 381.04 459.555 381.04ZM486.27 381.04C484.17 381.04 482.16 380.08 480.24 378.16H480.105L479.655 380.5H475.56V348.73H480.735V356.92L480.6 360.61C481.53 359.8 482.55 359.14 483.66 358.63C484.77 358.12 485.88 357.865 486.99 357.865C489.75 357.865 491.895 358.885 493.425 360.925C494.955 362.965 495.72 365.68 495.72 369.07C495.72 371.59 495.27 373.75 494.37 375.55C493.47 377.32 492.3 378.685 490.86 379.645C489.45 380.575 487.92 381.04 486.27 381.04ZM485.19 376.765C486.66 376.765 487.89 376.12 488.88 374.83C489.87 373.54 490.365 371.65 490.365 369.16C490.365 366.94 489.99 365.215 489.24 363.985C488.49 362.755 487.275 362.14 485.595 362.14C484.035 362.14 482.415 362.965 480.735 364.615V374.92C481.515 375.58 482.28 376.06 483.03 376.36C483.81 376.63 484.53 376.765 485.19 376.765ZM509.872 381.04C508.042 381.04 506.332 380.59 504.742 379.69C503.152 378.76 501.862 377.44 500.872 375.73C499.882 373.99 499.387 371.905 499.387 369.475C499.387 367.015 499.882 364.93 500.872 363.22C501.862 361.48 503.152 360.16 504.742 359.26C506.332 358.33 508.042 357.865 509.872 357.865C511.732 357.865 513.457 358.33 515.047 359.26C516.637 360.16 517.927 361.48 518.917 363.22C519.907 364.93 520.402 367.015 520.402 369.475C520.402 371.905 519.907 373.99 518.917 375.73C517.927 377.44 516.637 378.76 515.047 379.69C513.457 380.59 511.732 381.04 509.872 381.04ZM509.872 376.81C511.492 376.81 512.767 376.135 513.697 374.785C514.627 373.435 515.092 371.665 515.092 369.475C515.092 367.255 514.627 365.47 513.697 364.12C512.767 362.77 511.492 362.095 509.872 362.095C508.252 362.095 506.977 362.77 506.047 364.12C505.147 365.47 504.697 367.255 504.697 369.475C504.697 371.665 505.147 373.435 506.047 374.785C506.977 376.135 508.252 376.81 509.872 376.81ZM530.474 381.04C528.644 381.04 527.339 380.485 526.559 379.375C525.809 378.265 525.434 376.75 525.434 374.83V348.73H530.609V375.1C530.609 375.73 530.729 376.18 530.969 376.45C531.209 376.69 531.464 376.81 531.734 376.81C531.854 376.81 531.959 376.81 532.049 376.81C532.169 376.78 532.334 376.75 532.544 376.72L533.219 380.59C532.919 380.71 532.529 380.815 532.049 380.905C531.599 380.995 531.074 381.04 530.474 381.04ZM537.561 380.5V358.405H542.736V380.5H537.561ZM540.171 354.535C539.241 354.535 538.491 354.265 537.921 353.725C537.351 353.185 537.066 352.465 537.066 351.565C537.066 350.695 537.351 349.99 537.921 349.45C538.491 348.91 539.241 348.64 540.171 348.64C541.101 348.64 541.851 348.91 542.421 349.45C542.991 349.99 543.276 350.695 543.276 351.565C543.276 352.465 542.991 353.185 542.421 353.725C541.851 354.265 541.101 354.535 540.171 354.535ZM556.943 390.265C555.203 390.265 553.628 390.055 552.218 389.635C550.838 389.215 549.743 388.57 548.933 387.7C548.153 386.86 547.763 385.795 547.763 384.505C547.763 382.675 548.813 381.1 550.913 379.78V379.6C550.343 379.24 549.863 378.76 549.473 378.16C549.113 377.56 548.933 376.81 548.933 375.91C548.933 375.04 549.173 374.26 549.653 373.57C550.163 372.85 550.733 372.265 551.363 371.815V371.635C550.613 371.065 549.938 370.27 549.338 369.25C548.768 368.23 548.483 367.075 548.483 365.785C548.483 364.075 548.888 362.635 549.698 361.465C550.508 360.295 551.573 359.41 552.893 358.81C554.243 358.18 555.683 357.865 557.213 357.865C557.813 357.865 558.383 357.925 558.923 358.045C559.493 358.135 560.003 358.255 560.453 358.405H568.373V362.23H564.323C564.683 362.65 564.983 363.19 565.223 363.85C565.463 364.48 565.583 365.185 565.583 365.965C565.583 367.585 565.208 368.965 564.458 370.105C563.708 371.215 562.703 372.055 561.443 372.625C560.183 373.195 558.773 373.48 557.213 373.48C556.733 373.48 556.238 373.435 555.728 373.345C555.218 373.255 554.708 373.105 554.198 372.895C553.868 373.195 553.598 373.495 553.388 373.795C553.208 374.095 553.118 374.5 553.118 375.01C553.118 375.64 553.373 376.135 553.883 376.495C554.423 376.855 555.368 377.035 556.718 377.035H560.633C563.303 377.035 565.313 377.47 566.663 378.34C568.043 379.18 568.733 380.56 568.733 382.48C568.733 383.92 568.253 385.225 567.293 386.395C566.333 387.595 564.968 388.54 563.198 389.23C561.428 389.92 559.343 390.265 556.943 390.265ZM557.213 370.24C558.263 370.24 559.163 369.85 559.913 369.07C560.663 368.29 561.038 367.195 561.038 365.785C561.038 364.405 560.663 363.34 559.913 362.59C559.193 361.81 558.293 361.42 557.213 361.42C556.133 361.42 555.218 361.795 554.468 362.545C553.718 363.295 553.343 364.375 553.343 365.785C553.343 367.195 553.718 368.29 554.468 369.07C555.218 369.85 556.133 370.24 557.213 370.24ZM557.753 386.89C559.523 386.89 560.963 386.53 562.073 385.81C563.183 385.09 563.738 384.265 563.738 383.335C563.738 382.465 563.393 381.88 562.703 381.58C562.043 381.28 561.083 381.13 559.823 381.13H556.808C555.608 381.13 554.603 381.025 553.793 380.815C552.653 381.685 552.083 382.66 552.083 383.74C552.083 384.73 552.593 385.495 553.613 386.035C554.633 386.605 556.013 386.89 557.753 386.89Z"></path>
<rect fill-opacity="0.19" fill="black" height="3.75" width="703.125" y="413.25" x="85"></rect>
<rect fill-opacity="0.19" fill="black" height="3.75" width="703" y="312" x="85"></rect>
</svg>
