<svg xmlns="http://www.w3.org/2000/svg" fill="none" viewBox="0 0 1200 630" height="630" width="1200">
<rect fill="url(#paint0_linear_5543_35220)" height="630" width="1200"></rect>
<path fill="white" d="M373 130C373 123.373 378.373 118 385 118H790C796.627 118 802 123.373 802 130V178C802 184.627 796.627 190 790 190H385C378.373 190 373 184.627 373 178V130Z"></path>
<path fill-opacity="0.188235" fill="#001630" d="M790 188V190H385V188H790ZM800 178V130C800 124.477 795.523 120 790 120H385C379.477 120 375 124.477 375 130V178C375 183.523 379.477 188 385 188V190C378.476 190 373.168 184.794 373.004 178.31L373 178V130C373 123.476 378.206 118.168 384.69 118.004L385 118H790L790.31 118.004C796.794 118.168 802 123.476 802 130V178L801.996 178.31C801.832 184.794 796.524 190 790 190V188C795.523 188 800 183.523 800 178Z"></path>
<path fill="white" d="M373 379C373 372.373 378.373 367 385 367H815C821.627 367 827 372.373 827 379V427C827 433.627 821.627 439 815 439H385C378.373 439 373 433.627 373 427V379Z"></path>
<path fill-opacity="0.188235" fill="#001630" d="M815 437V439H385V437H815ZM825 427V379C825 373.477 820.523 369 815 369H385C379.477 369 375 373.477 375 379V427C375 432.523 379.477 437 385 437V439C378.476 439 373.168 433.794 373.004 427.31L373 427V379C373 372.373 378.373 367 385 367H815L815.31 367.004C821.794 367.168 827 372.476 827 379V427L826.996 427.31C826.834 433.691 821.691 438.834 815.31 438.996L815 439V437C820.523 437 825 432.523 825 427Z"></path>
<path fill="white" d="M373 255C373 248.373 378.373 243 385 243H683C689.627 243 695 248.373 695 255V303C695 309.627 689.627 315 683 315H385C378.373 315 373 309.627 373 303V255Z"></path>
<path fill-opacity="0.188235" fill="#001630" d="M683 313V315H385V313H683ZM693 303V255C693 249.477 688.523 245 683 245H385C379.477 245 375 249.477 375 255V303C375 308.523 379.477 313 385 313V315C378.476 315 373.168 309.794 373.004 303.31L373 303V255C373 248.373 378.373 243 385 243H683L683.31 243.004C689.794 243.168 695 248.476 695 255V303L694.996 303.31C694.834 309.691 689.691 314.834 683.31 314.996L683 315V313C688.523 313 693 308.523 693 303Z"></path>
<path fill="#5D6573" d="M450.508 150.928L429.496 129.898C427.934 128.335 425.399 128.335 423.837 129.898L402.825 150.928C401.264 152.49 401.264 155.021 402.825 156.582L423.837 177.612C425.399 179.176 427.934 179.176 429.496 177.612L450.508 156.582C452.069 155.021 452.069 152.49 450.508 150.928Z"></path>
<path fill="#202733" d="M764.426 175.787C762.879 175.787 761.479 175.6 760.226 175.226C758.999 174.853 758.026 174.279 757.306 173.505C756.612 172.758 756.266 171.81 756.266 170.663C756.266 169.035 757.199 167.633 759.066 166.459V166.299C758.559 165.979 758.132 165.552 757.786 165.018C757.466 164.484 757.306 163.817 757.306 163.016C757.306 162.242 757.519 161.548 757.946 160.934C758.399 160.294 758.906 159.774 759.466 159.373V159.213C758.799 158.706 758.199 157.999 757.666 157.091C757.159 156.184 756.906 155.156 756.906 154.009C756.906 152.487 757.266 151.206 757.986 150.166C758.706 149.125 759.652 148.337 760.826 147.804C762.026 147.243 763.306 146.963 764.666 146.963C765.199 146.963 765.706 147.016 766.186 147.123C766.692 147.203 767.146 147.31 767.546 147.443H774.586V150.846H770.986C771.306 151.22 771.572 151.7 771.786 152.287C771.999 152.848 772.106 153.475 772.106 154.169C772.106 155.61 771.772 156.838 771.106 157.852C770.439 158.839 769.546 159.587 768.426 160.094C767.306 160.601 766.052 160.854 764.666 160.854C764.239 160.854 763.799 160.814 763.346 160.734C762.892 160.654 762.439 160.521 761.986 160.334C761.692 160.601 761.452 160.868 761.266 161.135C761.106 161.402 761.026 161.762 761.026 162.216C761.026 162.776 761.252 163.216 761.706 163.537C762.186 163.857 763.026 164.017 764.226 164.017H767.706C770.079 164.017 771.866 164.404 773.066 165.178C774.292 165.925 774.906 167.153 774.906 168.861C774.906 170.142 774.479 171.303 773.626 172.344C772.772 173.411 771.559 174.252 769.986 174.866C768.412 175.48 766.559 175.787 764.426 175.787ZM764.666 157.972C765.599 157.972 766.399 157.625 767.066 156.931C767.732 156.237 768.066 155.263 768.066 154.009C768.066 152.781 767.732 151.834 767.066 151.166C766.426 150.472 765.626 150.126 764.666 150.126C763.706 150.126 762.892 150.459 762.226 151.126C761.559 151.794 761.226 152.754 761.226 154.009C761.226 155.263 761.559 156.237 762.226 156.931C762.892 157.625 763.706 157.972 764.666 157.972ZM765.146 172.784C766.719 172.784 767.999 172.464 768.986 171.824C769.972 171.183 770.466 170.449 770.466 169.622C770.466 168.848 770.159 168.327 769.546 168.06C768.959 167.793 768.106 167.66 766.986 167.66H764.306C763.239 167.66 762.346 167.567 761.626 167.38C760.612 168.154 760.106 169.021 760.106 169.982C760.106 170.863 760.559 171.543 761.466 172.024C762.372 172.531 763.599 172.784 765.146 172.784Z"></path>
<path fill="#202733" d="M735.203 167.1V147.443H739.003L739.323 150.085H739.483C740.363 149.231 741.323 148.497 742.363 147.884C743.403 147.27 744.59 146.963 745.923 146.963C748.03 146.963 749.563 147.643 750.523 149.005C751.483 150.366 751.963 152.287 751.963 154.769V167.1H747.363V155.37C747.363 153.742 747.123 152.594 746.643 151.927C746.163 151.26 745.376 150.926 744.283 150.926C743.43 150.926 742.67 151.14 742.003 151.567C741.363 151.967 740.63 152.568 739.803 153.368V167.1H735.203Z"></path>
<path fill="#202733" d="M721.291 167.58C719.664 167.58 718.144 167.18 716.731 166.379C715.317 165.552 714.171 164.377 713.291 162.856C712.411 161.308 711.971 159.453 711.971 157.291C711.971 155.103 712.411 153.248 713.291 151.727C714.171 150.179 715.317 149.005 716.731 148.204C718.144 147.377 719.664 146.963 721.291 146.963C722.944 146.963 724.477 147.377 725.891 148.204C727.304 149.005 728.451 150.179 729.331 151.727C730.211 153.248 730.651 155.103 730.651 157.291C730.651 159.453 730.211 161.308 729.331 162.856C728.451 164.377 727.304 165.552 725.891 166.379C724.477 167.18 722.944 167.58 721.291 167.58ZM721.291 163.817C722.731 163.817 723.864 163.216 724.691 162.015C725.517 160.814 725.931 159.24 725.931 157.291C725.931 155.316 725.517 153.729 724.691 152.528C723.864 151.327 722.731 150.726 721.291 150.726C719.851 150.726 718.717 151.327 717.891 152.528C717.091 153.729 716.691 155.316 716.691 157.291C716.691 159.24 717.091 160.814 717.891 162.015C718.717 163.216 719.851 163.817 721.291 163.817Z"></path>
<path fill="#202733" d="M698.719 167.1V147.443H702.519L702.839 150.926H702.999C703.692 149.645 704.532 148.671 705.519 148.004C706.505 147.31 707.519 146.963 708.559 146.963C709.492 146.963 710.239 147.096 710.799 147.363L709.999 151.367C709.652 151.26 709.332 151.18 709.039 151.126C708.745 151.073 708.385 151.046 707.959 151.046C707.185 151.046 706.372 151.353 705.519 151.967C704.665 152.554 703.932 153.595 703.319 155.09V167.1H698.719Z"></path>
<path fill="#202733" d="M691.186 167.58C688.92 167.58 687.306 166.926 686.346 165.618C685.413 164.284 684.946 162.563 684.946 160.454V151.086H682.146V147.643L685.186 147.443L685.746 142.079H689.586V147.443H694.586V151.086H689.586V160.454C689.586 162.749 690.506 163.897 692.346 163.897C692.693 163.897 693.053 163.857 693.426 163.777C693.8 163.67 694.12 163.563 694.386 163.457L695.186 166.859C694.653 167.046 694.04 167.206 693.346 167.34C692.68 167.5 691.96 167.58 691.186 167.58Z"></path>
<path fill="#202733" d="M673.301 167.58C671.968 167.58 670.635 167.326 669.301 166.819C667.968 166.286 666.821 165.632 665.861 164.858L668.021 161.895C668.901 162.562 669.781 163.096 670.661 163.497C671.541 163.897 672.475 164.097 673.461 164.097C674.528 164.097 675.315 163.87 675.821 163.417C676.328 162.963 676.581 162.402 676.581 161.735C676.581 161.175 676.368 160.721 675.941 160.374C675.541 160 675.021 159.68 674.381 159.413C673.741 159.12 673.075 158.839 672.381 158.573C671.528 158.252 670.675 157.865 669.821 157.412C668.995 156.931 668.315 156.331 667.781 155.61C667.248 154.863 666.981 153.942 666.981 152.848C666.981 151.113 667.621 149.698 668.901 148.604C670.181 147.51 671.915 146.963 674.101 146.963C675.488 146.963 676.728 147.203 677.821 147.683C678.915 148.164 679.861 148.711 680.661 149.325L678.541 152.127C677.848 151.62 677.141 151.22 676.421 150.926C675.728 150.606 674.995 150.446 674.221 150.446C673.235 150.446 672.501 150.659 672.021 151.086C671.541 151.487 671.301 151.994 671.301 152.608C671.301 153.382 671.701 153.969 672.501 154.369C673.301 154.769 674.235 155.156 675.301 155.53C676.208 155.85 677.088 156.251 677.941 156.731C678.795 157.185 679.501 157.785 680.061 158.532C680.648 159.28 680.941 160.267 680.941 161.495C680.941 163.176 680.288 164.618 678.981 165.819C677.675 166.993 675.781 167.58 673.301 167.58Z"></path>
<path fill="#202733" d="M653.689 158.693V155.33H663.209V158.693H653.689Z"></path>
<path fill="#202733" d="M648.55 167.58C646.924 167.58 645.764 167.086 645.07 166.099C644.404 165.111 644.07 163.764 644.07 162.055V138.836H648.67V162.296C648.67 162.856 648.777 163.256 648.99 163.497C649.204 163.71 649.43 163.817 649.67 163.817C649.777 163.817 649.87 163.817 649.95 163.817C650.057 163.79 650.204 163.764 650.39 163.737L650.99 167.18C650.724 167.286 650.377 167.38 649.95 167.46C649.55 167.54 649.084 167.58 648.55 167.58Z"></path>
<path fill="#202733" d="M628.206 167.58C626.5 167.58 625.1 167.046 624.006 165.979C622.94 164.911 622.406 163.523 622.406 161.815C622.406 159.707 623.326 158.079 625.166 156.931C627.006 155.757 629.94 154.956 633.966 154.529C633.94 153.488 633.66 152.594 633.126 151.847C632.62 151.073 631.7 150.686 630.366 150.686C629.406 150.686 628.46 150.873 627.526 151.246C626.62 151.62 625.726 152.074 624.846 152.608L623.166 149.525C624.26 148.831 625.486 148.231 626.846 147.724C628.233 147.216 629.7 146.963 631.246 146.963C633.7 146.963 635.526 147.697 636.726 149.165C637.953 150.606 638.566 152.701 638.566 155.45V167.1H634.766L634.446 164.938H634.286C633.406 165.685 632.46 166.312 631.446 166.819C630.46 167.326 629.38 167.58 628.206 167.58ZM629.686 163.977C630.486 163.977 631.206 163.79 631.846 163.417C632.513 163.016 633.22 162.482 633.966 161.815V157.412C631.3 157.759 629.446 158.279 628.406 158.973C627.366 159.64 626.846 160.467 626.846 161.455C626.846 162.336 627.113 162.976 627.646 163.377C628.18 163.777 628.86 163.977 629.686 163.977Z"></path>
<path fill="#202733" d="M609.578 167.1V147.443H613.378L613.698 150.926H613.858C614.551 149.645 615.391 148.671 616.378 148.004C617.365 147.31 618.378 146.963 619.418 146.963C620.351 146.963 621.098 147.096 621.658 147.363L620.858 151.367C620.511 151.26 620.191 151.18 619.898 151.126C619.605 151.073 619.245 151.046 618.818 151.046C618.045 151.046 617.231 151.353 616.378 151.967C615.525 152.554 614.791 153.595 614.178 155.09V167.1H609.578Z"></path>
<path fill="#202733" d="M602.046 167.58C599.779 167.58 598.166 166.926 597.206 165.618C596.273 164.284 595.806 162.563 595.806 160.454V151.086H593.006V147.643L596.046 147.443L596.606 142.079H600.446V147.443H605.446V151.086H600.446V160.454C600.446 162.749 601.366 163.897 603.206 163.897C603.553 163.897 603.913 163.857 604.286 163.777C604.659 163.67 604.979 163.563 605.246 163.457L606.046 166.859C605.513 167.046 604.899 167.206 604.206 167.34C603.539 167.5 602.819 167.58 602.046 167.58Z"></path>
<path fill="#202733" d="M578.739 167.58C576.633 167.58 575.099 166.899 574.139 165.538C573.179 164.177 572.699 162.256 572.699 159.774V147.443H577.299V159.173C577.299 160.801 577.539 161.949 578.019 162.616C578.499 163.283 579.273 163.617 580.339 163.617C581.193 163.617 581.939 163.403 582.579 162.976C583.246 162.549 583.953 161.855 584.699 160.895V147.443H589.299V167.1H585.539L585.179 164.217H585.059C584.206 165.231 583.273 166.045 582.259 166.659C581.246 167.273 580.073 167.58 578.739 167.58Z"></path>
<path fill="#202733" d="M561.026 167.58C559.212 167.58 557.572 167.18 556.106 166.379C554.639 165.552 553.479 164.377 552.626 162.856C551.772 161.308 551.346 159.453 551.346 157.291C551.346 155.156 551.772 153.315 552.626 151.767C553.506 150.219 554.639 149.031 556.026 148.204C557.412 147.377 558.866 146.963 560.386 146.963C562.172 146.963 563.666 147.363 564.866 148.164C566.066 148.938 566.972 150.032 567.586 151.447C568.199 152.834 568.506 154.449 568.506 156.291C568.506 157.251 568.439 157.999 568.306 158.532H555.826C556.039 160.267 556.666 161.615 557.706 162.576C558.746 163.537 560.052 164.017 561.626 164.017C562.479 164.017 563.266 163.897 563.986 163.657C564.732 163.39 565.466 163.03 566.186 162.576L567.746 165.458C566.812 166.072 565.772 166.579 564.626 166.979C563.479 167.38 562.279 167.58 561.026 167.58ZM555.786 155.41H564.506C564.506 153.889 564.172 152.701 563.506 151.847C562.839 150.966 561.839 150.526 560.506 150.526C559.359 150.526 558.332 150.953 557.426 151.807C556.546 152.634 555.999 153.835 555.786 155.41Z"></path>
<path fill="#202733" d="M530.242 167.1V147.443H534.042L534.362 150.085H534.522C535.402 149.231 536.362 148.497 537.402 147.884C538.442 147.27 539.629 146.963 540.962 146.963C543.069 146.963 544.602 147.643 545.562 149.005C546.522 150.366 547.002 152.287 547.002 154.769V167.1H542.402V155.37C542.402 153.742 542.162 152.594 541.682 151.927C541.202 151.26 540.416 150.926 539.322 150.926C538.469 150.926 537.709 151.14 537.042 151.567C536.402 151.967 535.669 152.568 534.842 153.368V167.1H530.242Z"></path>
<path fill="#202733" d="M516.111 158.693V155.33H525.631V158.693H516.111Z"></path>
<path fill="#202733" d="M503.41 175.787C501.863 175.787 500.463 175.6 499.21 175.226C497.983 174.853 497.01 174.279 496.29 173.505C495.597 172.758 495.25 171.81 495.25 170.663C495.25 169.035 496.183 167.633 498.05 166.459V166.299C497.543 165.979 497.117 165.552 496.77 165.018C496.45 164.484 496.29 163.817 496.29 163.016C496.29 162.242 496.503 161.548 496.93 160.934C497.383 160.294 497.89 159.774 498.45 159.373V159.213C497.783 158.706 497.183 157.999 496.65 157.091C496.143 156.184 495.89 155.156 495.89 154.009C495.89 152.487 496.25 151.206 496.97 150.166C497.69 149.125 498.637 148.337 499.81 147.804C501.01 147.243 502.29 146.963 503.65 146.963C504.183 146.963 504.69 147.016 505.17 147.123C505.677 147.203 506.13 147.31 506.53 147.443H513.57V150.846H509.97C510.29 151.22 510.557 151.7 510.77 152.287C510.983 152.848 511.09 153.475 511.09 154.169C511.09 155.61 510.757 156.838 510.09 157.852C509.423 158.839 508.53 159.587 507.41 160.094C506.29 160.601 505.037 160.854 503.65 160.854C503.223 160.854 502.783 160.814 502.33 160.734C501.877 160.654 501.423 160.521 500.97 160.334C500.677 160.601 500.437 160.868 500.25 161.135C500.09 161.402 500.01 161.762 500.01 162.216C500.01 162.776 500.237 163.216 500.69 163.537C501.17 163.857 502.01 164.017 503.21 164.017H506.69C509.063 164.017 510.85 164.404 512.05 165.178C513.277 165.925 513.89 167.153 513.89 168.861C513.89 170.142 513.463 171.303 512.61 172.344C511.757 173.411 510.543 174.252 508.97 174.866C507.397 175.48 505.543 175.787 503.41 175.787ZM503.65 157.972C504.583 157.972 505.383 157.625 506.05 156.931C506.717 156.237 507.05 155.263 507.05 154.009C507.05 152.781 506.717 151.834 506.05 151.166C505.41 150.472 504.61 150.126 503.65 150.126C502.69 150.126 501.877 150.459 501.21 151.126C500.543 151.794 500.21 152.754 500.21 154.009C500.21 155.263 500.543 156.237 501.21 156.931C501.877 157.625 502.69 157.972 503.65 157.972ZM504.13 172.784C505.703 172.784 506.983 172.464 507.97 171.824C508.957 171.183 509.45 170.449 509.45 169.622C509.45 168.848 509.143 168.327 508.53 168.06C507.943 167.793 507.09 167.66 505.97 167.66H503.29C502.223 167.66 501.33 167.567 500.61 167.38C499.597 168.154 499.09 169.021 499.09 169.982C499.09 170.863 499.543 171.543 500.45 172.024C501.357 172.531 502.583 172.784 504.13 172.784Z"></path>
<path fill="#202733" d="M483.551 167.58C481.685 167.58 479.898 166.726 478.191 165.018H478.071L477.671 167.1H474.031V138.836H478.631V146.122L478.511 149.405C479.338 148.684 480.245 148.097 481.231 147.643C482.218 147.19 483.205 146.963 484.191 146.963C486.645 146.963 488.551 147.87 489.911 149.685C491.271 151.5 491.951 153.915 491.951 156.931C491.951 159.173 491.551 161.095 490.751 162.696C489.951 164.271 488.911 165.485 487.631 166.339C486.378 167.166 485.018 167.58 483.551 167.58ZM482.591 163.777C483.898 163.777 484.991 163.203 485.871 162.055C486.751 160.908 487.191 159.226 487.191 157.011C487.191 155.036 486.858 153.502 486.191 152.407C485.525 151.313 484.445 150.766 482.951 150.766C481.565 150.766 480.125 151.5 478.631 152.968V162.136C479.325 162.723 480.005 163.15 480.671 163.417C481.365 163.657 482.005 163.777 482.591 163.777Z"></path>
<path fill="#417DA0" d="M423.838 254.446C425.401 252.883 427.935 252.883 429.498 254.446L450.51 275.475C452.071 277.037 452.07 279.568 450.51 281.13L429.498 302.16L429.348 302.302C427.828 303.676 425.508 303.676 423.988 302.302L423.838 302.16L402.827 281.13C401.315 279.617 401.268 277.195 402.685 275.625L402.827 275.475L423.838 254.446ZM405.656 278.303L426.668 299.333L447.68 278.303L426.668 257.273L405.656 278.303Z"></path>
<path fill="#202733" d="M655.861 292.128C654.234 292.128 652.714 291.727 651.301 290.927C649.888 290.099 648.741 288.925 647.861 287.404C646.981 285.856 646.541 284.001 646.541 281.839C646.541 279.651 646.981 277.796 647.861 276.275C648.741 274.727 649.888 273.552 651.301 272.752C652.714 271.924 654.234 271.511 655.861 271.511C657.514 271.511 659.048 271.924 660.461 272.752C661.874 273.552 663.021 274.727 663.901 276.275C664.781 277.796 665.221 279.651 665.221 281.839C665.221 284.001 664.781 285.856 663.901 287.404C663.021 288.925 661.874 290.099 660.461 290.927C659.048 291.727 657.514 292.128 655.861 292.128ZM655.861 288.365C657.301 288.365 658.434 287.764 659.261 286.563C660.088 285.362 660.501 283.787 660.501 281.839C660.501 279.864 660.088 278.276 659.261 277.075C658.434 275.874 657.301 275.274 655.861 275.274C654.421 275.274 653.288 275.874 652.461 277.075C651.661 278.276 651.261 279.864 651.261 281.839C651.261 283.787 651.661 285.362 652.461 286.563C653.288 287.764 654.421 288.365 655.861 288.365Z"></path>
<path fill="#202733" d="M636.316 291.647V275.634H633.676V272.191L636.316 271.991V269.949C636.316 267.894 636.822 266.213 637.836 264.905C638.849 263.571 640.516 262.904 642.836 262.904C643.529 262.904 644.196 262.97 644.836 263.104C645.476 263.237 646.009 263.397 646.436 263.584L645.556 267.027C644.836 266.707 644.116 266.547 643.396 266.547C641.742 266.547 640.916 267.654 640.916 269.869V271.991H644.756V275.634H640.916V291.647H636.316Z"></path>
<path fill="#202733" d="M613.133 291.647V271.991H616.933L617.253 274.633H617.413C618.293 273.779 619.253 273.045 620.293 272.431C621.333 271.818 622.519 271.511 623.853 271.511C625.959 271.511 627.493 272.191 628.453 273.552C629.413 274.913 629.893 276.835 629.893 279.317V291.647H625.293V279.918C625.293 278.29 625.053 277.142 624.573 276.475C624.093 275.808 623.306 275.474 622.213 275.474C621.359 275.474 620.599 275.687 619.933 276.114C619.293 276.515 618.559 277.115 617.733 277.916V291.647H613.133Z"></path>
<path fill="#202733" d="M602.665 291.647V271.991H607.265V291.647H602.665ZM604.985 268.548C604.158 268.548 603.491 268.308 602.985 267.828C602.478 267.347 602.225 266.707 602.225 265.906C602.225 265.132 602.478 264.505 602.985 264.024C603.491 263.544 604.158 263.304 604.985 263.304C605.811 263.304 606.478 263.544 606.985 264.024C607.491 264.505 607.745 265.132 607.745 265.906C607.745 266.707 607.491 267.347 606.985 267.828C606.478 268.308 605.811 268.548 604.985 268.548Z"></path>
<path fill="#202733" d="M588.533 283.24V279.878H598.053V283.24H588.533Z"></path>
<path fill="#202733" d="M575.906 291.647V271.991H579.706L580.026 275.474H580.186C580.88 274.193 581.72 273.219 582.706 272.551C583.693 271.858 584.706 271.511 585.746 271.511C586.68 271.511 587.426 271.644 587.986 271.911L587.186 275.914C586.84 275.808 586.52 275.727 586.226 275.674C585.933 275.621 585.573 275.594 585.146 275.594C584.373 275.594 583.56 275.901 582.706 276.515C581.853 277.102 581.12 278.143 580.506 279.637V291.647H575.906Z"></path>
<path fill="#202733" d="M564.034 292.128C562.22 292.128 560.58 291.727 559.114 290.927C557.647 290.099 556.487 288.925 555.634 287.404C554.78 285.856 554.354 284.001 554.354 281.839C554.354 279.704 554.78 277.863 555.634 276.315C556.514 274.767 557.647 273.579 559.034 272.752C560.42 271.924 561.874 271.511 563.394 271.511C565.18 271.511 566.674 271.911 567.874 272.712C569.074 273.486 569.98 274.58 570.594 275.994C571.207 277.382 571.514 278.997 571.514 280.838C571.514 281.799 571.447 282.546 571.314 283.08H558.834C559.047 284.815 559.674 286.163 560.714 287.124C561.754 288.084 563.06 288.565 564.634 288.565C565.487 288.565 566.274 288.445 566.994 288.204C567.74 287.938 568.474 287.577 569.194 287.124L570.754 290.006C569.82 290.62 568.78 291.127 567.634 291.527C566.487 291.928 565.287 292.128 564.034 292.128ZM558.794 279.958H567.514C567.514 278.436 567.18 277.249 566.514 276.395C565.847 275.514 564.847 275.074 563.514 275.074C562.367 275.074 561.34 275.501 560.434 276.355C559.554 277.182 559.007 278.383 558.794 279.958Z"></path>
<path fill="#202733" d="M539.935 292.128C537.482 292.128 535.522 291.22 534.055 289.405C532.589 287.591 531.855 285.069 531.855 281.839C531.855 279.704 532.242 277.863 533.015 276.315C533.815 274.767 534.855 273.579 536.135 272.752C537.415 271.924 538.762 271.511 540.175 271.511C541.295 271.511 542.242 271.711 543.015 272.111C543.815 272.485 544.589 273.005 545.335 273.672L545.175 270.51V263.384H549.775V291.647H545.975L545.655 289.526H545.495C544.775 290.246 543.935 290.86 542.975 291.367C542.015 291.874 541.002 292.128 539.935 292.128ZM541.055 288.325C542.522 288.325 543.895 287.591 545.175 286.123V276.955C544.509 276.341 543.842 275.914 543.175 275.674C542.509 275.434 541.842 275.314 541.175 275.314C539.922 275.314 538.842 275.888 537.935 277.035C537.055 278.156 536.615 279.744 536.615 281.799C536.615 283.908 537.002 285.522 537.775 286.643C538.549 287.764 539.642 288.325 541.055 288.325Z"></path>
<path fill="#202733" d="M518.523 291.647V271.991H522.323L522.643 275.474H522.803C523.497 274.193 524.337 273.219 525.323 272.551C526.31 271.858 527.323 271.511 528.363 271.511C529.297 271.511 530.043 271.644 530.603 271.911L529.803 275.914C529.457 275.808 529.137 275.727 528.843 275.674C528.55 275.621 528.19 275.594 527.763 275.594C526.99 275.594 526.177 275.901 525.323 276.515C524.47 277.102 523.737 278.143 523.123 279.637V291.647H518.523Z"></path>
<path fill="#202733" d="M504.611 292.128C502.984 292.128 501.464 291.727 500.051 290.927C498.638 290.099 497.491 288.925 496.611 287.404C495.731 285.856 495.291 284.001 495.291 281.839C495.291 279.651 495.731 277.796 496.611 276.275C497.491 274.727 498.638 273.552 500.051 272.752C501.464 271.924 502.984 271.511 504.611 271.511C506.264 271.511 507.798 271.924 509.211 272.752C510.624 273.552 511.771 274.727 512.651 276.275C513.531 277.796 513.971 279.651 513.971 281.839C513.971 284.001 513.531 285.856 512.651 287.404C511.771 288.925 510.624 290.099 509.211 290.927C507.798 291.727 506.264 292.128 504.611 292.128ZM504.611 288.365C506.051 288.365 507.184 287.764 508.011 286.563C508.838 285.362 509.251 283.787 509.251 281.839C509.251 279.864 508.838 278.276 508.011 277.075C507.184 275.874 506.051 275.274 504.611 275.274C503.171 275.274 502.038 275.874 501.211 277.075C500.411 278.276 500.011 279.864 500.011 281.839C500.011 283.787 500.411 285.362 501.211 286.563C502.038 287.764 503.171 288.365 504.611 288.365Z"></path>
<path fill="#202733" d="M483.551 292.128C481.685 292.128 479.898 291.274 478.191 289.566H478.071L477.671 291.647H474.031V263.384H478.631V270.67L478.511 273.953C479.338 273.232 480.245 272.645 481.231 272.191C482.218 271.738 483.205 271.511 484.191 271.511C486.645 271.511 488.551 272.418 489.911 274.233C491.271 276.048 491.951 278.463 491.951 281.479C491.951 283.721 491.551 285.642 490.751 287.244C489.951 288.818 488.911 290.033 487.631 290.887C486.378 291.714 485.018 292.128 483.551 292.128ZM482.591 288.325C483.898 288.325 484.991 287.751 485.871 286.603C486.751 285.456 487.191 283.774 487.191 281.559C487.191 279.584 486.858 278.049 486.191 276.955C485.525 275.861 484.445 275.314 482.951 275.314C481.565 275.314 480.125 276.048 478.631 277.516V286.683C479.325 287.27 480.005 287.697 480.671 287.964C481.365 288.204 482.005 288.325 482.591 288.325Z"></path>
<path fill="#006C1F" d="M435.538 416.675C433.832 416.675 432.432 416.142 431.338 415.074C430.272 414.007 429.738 412.619 429.738 410.911C429.738 408.802 430.658 407.174 432.498 406.027C434.338 404.852 437.272 404.052 441.298 403.625C441.272 402.584 440.992 401.69 440.458 400.942C439.952 400.168 439.032 399.781 437.698 399.781C436.738 399.781 435.792 399.968 434.858 400.342C433.952 400.716 433.058 401.169 432.178 401.703L430.498 398.62C431.592 397.927 432.818 397.326 434.178 396.819C435.565 396.312 437.032 396.058 438.578 396.058C441.032 396.058 442.858 396.792 444.058 398.26C445.285 399.701 445.898 401.796 445.898 404.545V416.195H442.098L441.778 414.033H441.618C440.738 414.781 439.792 415.408 438.778 415.915C437.792 416.422 436.712 416.675 435.538 416.675ZM437.018 413.072C437.818 413.072 438.538 412.886 439.178 412.512C439.845 412.112 440.552 411.578 441.298 410.911V406.507C438.632 406.854 436.778 407.374 435.738 408.068C434.698 408.736 434.178 409.563 434.178 410.55C434.178 411.431 434.445 412.072 434.978 412.472C435.512 412.872 436.192 413.072 437.018 413.072Z"></path>
<path fill="#006C1F" d="M413.531 402.264L412.611 405.466H419.291L418.371 402.264C417.945 400.876 417.531 399.448 417.131 397.98C416.758 396.512 416.385 395.058 416.011 393.616H415.851C415.505 395.084 415.131 396.552 414.731 398.02C414.358 399.461 413.958 400.876 413.531 402.264ZM404.771 416.195L413.291 390.013H418.731L427.251 416.195H422.371L420.331 409.109H411.531L409.491 416.195H404.771Z"></path>
<path fill="#202733" d="M789.229 416.675C787.415 416.675 785.775 416.275 784.309 415.474C782.842 414.647 781.682 413.473 780.829 411.952C779.975 410.404 779.549 408.549 779.549 406.387C779.549 404.252 779.975 402.41 780.829 400.862C781.709 399.314 782.842 398.127 784.229 397.299C785.615 396.472 787.069 396.058 788.589 396.058C790.375 396.058 791.869 396.459 793.069 397.259C794.269 398.033 795.175 399.128 795.789 400.542C796.402 401.93 796.709 403.545 796.709 405.386C796.709 406.347 796.642 407.094 796.509 407.628H784.029C784.242 409.363 784.869 410.711 785.909 411.671C786.949 412.632 788.255 413.112 789.829 413.112C790.682 413.112 791.469 412.992 792.189 412.752C792.935 412.485 793.669 412.125 794.389 411.671L795.949 414.554C795.015 415.168 793.975 415.675 792.829 416.075C791.682 416.475 790.482 416.675 789.229 416.675ZM783.989 404.505H792.709C792.709 402.984 792.375 401.796 791.709 400.942C791.042 400.062 790.042 399.621 788.709 399.621C787.562 399.621 786.535 400.048 785.629 400.902C784.749 401.73 784.202 402.931 783.989 404.505Z"></path>
<path fill="#202733" d="M774.449 416.675C772.822 416.675 771.662 416.182 770.969 415.194C770.302 414.207 769.969 412.859 769.969 411.151V387.932H774.569V411.391C774.569 411.952 774.675 412.352 774.889 412.592C775.102 412.806 775.329 412.912 775.569 412.912C775.675 412.912 775.769 412.912 775.849 412.912C775.955 412.886 776.102 412.859 776.289 412.832L776.889 416.275C776.622 416.382 776.275 416.475 775.849 416.555C775.449 416.635 774.982 416.675 774.449 416.675Z"></path>
<path fill="#202733" d="M762.436 416.675C760.17 416.675 758.556 416.022 757.596 414.714C756.663 413.379 756.196 411.658 756.196 409.55V400.182H753.396V396.739L756.436 396.539L756.996 391.174H760.837V396.539H765.837V400.182H760.837V409.55C760.837 411.845 761.756 412.992 763.596 412.992C763.943 412.992 764.303 412.952 764.676 412.872C765.05 412.766 765.37 412.659 765.636 412.552L766.436 415.955C765.903 416.142 765.29 416.302 764.596 416.435C763.93 416.595 763.21 416.675 762.436 416.675Z"></path>
<path fill="#202733" d="M743.395 416.675C741.528 416.675 739.742 415.821 738.035 414.113H737.915L737.515 416.195H733.875V387.932H738.475V395.218L738.355 398.5C739.182 397.78 740.088 397.193 741.075 396.739C742.062 396.285 743.048 396.058 744.035 396.058C746.488 396.058 748.395 396.966 749.755 398.781C751.115 400.595 751.795 403.011 751.795 406.027C751.795 408.269 751.395 410.19 750.595 411.791C749.795 413.366 748.755 414.58 747.475 415.434C746.222 416.262 744.862 416.675 743.395 416.675ZM742.435 412.872C743.742 412.872 744.835 412.299 745.715 411.151C746.595 410.003 747.035 408.322 747.035 406.107C747.035 404.132 746.702 402.597 746.035 401.503C745.368 400.409 744.288 399.862 742.795 399.862C741.408 399.862 739.968 400.595 738.475 402.063V411.231C739.168 411.818 739.848 412.245 740.515 412.512C741.208 412.752 741.848 412.872 742.435 412.872Z"></path>
<path fill="#202733" d="M717.489 416.676C715.383 416.676 713.849 415.995 712.889 414.634C711.929 413.273 711.449 411.351 711.449 408.869V396.539H716.049V408.269C716.049 409.897 716.289 411.044 716.769 411.711C717.249 412.379 718.023 412.712 719.089 412.712C719.943 412.712 720.689 412.499 721.329 412.072C721.996 411.645 722.703 410.951 723.449 409.99V396.539H728.049V416.195H724.289L723.929 413.313H723.809C722.956 414.327 722.023 415.141 721.009 415.755C719.996 416.369 718.823 416.676 717.489 416.676Z"></path>
<path fill="#202733" d="M699.903 416.675C698.57 416.675 697.236 416.422 695.903 415.915C694.57 415.381 693.423 414.727 692.463 413.953L694.623 410.991C695.503 411.658 696.383 412.192 697.263 412.592C698.143 412.992 699.076 413.193 700.063 413.193C701.13 413.193 701.916 412.966 702.423 412.512C702.93 412.058 703.183 411.498 703.183 410.831C703.183 410.27 702.97 409.816 702.543 409.469C702.143 409.096 701.623 408.776 700.983 408.509C700.343 408.215 699.676 407.935 698.983 407.668C698.13 407.348 697.276 406.961 696.423 406.507C695.596 406.027 694.916 405.426 694.383 404.706C693.85 403.958 693.583 403.037 693.583 401.943C693.583 400.208 694.223 398.794 695.503 397.7C696.783 396.605 698.516 396.058 700.703 396.058C702.09 396.058 703.33 396.299 704.423 396.779C705.516 397.259 706.463 397.806 707.263 398.42L705.143 401.223C704.45 400.716 703.743 400.315 703.023 400.022C702.33 399.701 701.596 399.541 700.823 399.541C699.836 399.541 699.103 399.755 698.623 400.182C698.143 400.582 697.903 401.089 697.903 401.703C697.903 402.477 698.303 403.064 699.103 403.464C699.903 403.865 700.836 404.252 701.903 404.625C702.81 404.946 703.69 405.346 704.543 405.826C705.396 406.28 706.103 406.881 706.663 407.628C707.25 408.375 707.543 409.363 707.543 410.59C707.543 412.272 706.89 413.713 705.583 414.914C704.276 416.088 702.383 416.675 699.903 416.675Z"></path>
<path fill="#202733" d="M680.291 407.788V404.425H689.811V407.788H680.291Z"></path>
<path fill="#202733" d="M669.395 416.675C668.062 416.675 666.728 416.422 665.395 415.915C664.062 415.381 662.915 414.727 661.955 413.953L664.115 410.991C664.995 411.658 665.875 412.192 666.755 412.592C667.635 412.992 668.568 413.193 669.555 413.193C670.622 413.193 671.408 412.966 671.915 412.512C672.422 412.058 672.675 411.498 672.675 410.831C672.675 410.27 672.462 409.816 672.035 409.469C671.635 409.096 671.115 408.776 670.475 408.509C669.835 408.215 669.168 407.935 668.475 407.668C667.622 407.348 666.768 406.961 665.915 406.507C665.088 406.027 664.408 405.426 663.875 404.706C663.342 403.958 663.075 403.037 663.075 401.943C663.075 400.208 663.715 398.794 664.995 397.7C666.275 396.605 668.008 396.058 670.195 396.058C671.582 396.058 672.822 396.299 673.915 396.779C675.008 397.259 675.955 397.806 676.755 398.42L674.635 401.223C673.942 400.716 673.235 400.315 672.515 400.022C671.822 399.701 671.088 399.541 670.315 399.541C669.328 399.541 668.595 399.755 668.115 400.182C667.635 400.582 667.395 401.089 667.395 401.703C667.395 402.477 667.795 403.064 668.595 403.464C669.395 403.865 670.328 404.252 671.395 404.625C672.302 404.946 673.182 405.346 674.035 405.826C674.888 406.28 675.595 406.881 676.155 407.628C676.742 408.375 677.035 409.363 677.035 410.59C677.035 412.272 676.382 413.713 675.075 414.914C673.768 416.088 671.875 416.675 669.395 416.675Z"></path>
<path fill="#202733" d="M652.169 416.675C650.835 416.675 649.502 416.422 648.169 415.915C646.835 415.381 645.689 414.727 644.729 413.953L646.889 410.991C647.769 411.658 648.649 412.192 649.529 412.592C650.409 412.992 651.342 413.193 652.329 413.193C653.395 413.193 654.182 412.966 654.689 412.512C655.195 412.058 655.449 411.498 655.449 410.831C655.449 410.27 655.235 409.816 654.809 409.469C654.409 409.096 653.889 408.776 653.249 408.509C652.609 408.215 651.942 407.935 651.249 407.668C650.395 407.348 649.542 406.961 648.689 406.507C647.862 406.027 647.182 405.426 646.649 404.706C646.115 403.958 645.849 403.037 645.849 401.943C645.849 400.208 646.489 398.794 647.769 397.7C649.049 396.605 650.782 396.058 652.969 396.058C654.355 396.058 655.595 396.299 656.689 396.779C657.782 397.259 658.729 397.806 659.529 398.42L657.409 401.223C656.715 400.716 656.009 400.315 655.289 400.022C654.595 399.701 653.862 399.541 653.089 399.541C652.102 399.541 651.369 399.755 650.889 400.182C650.409 400.582 650.169 401.089 650.169 401.703C650.169 402.477 650.569 403.064 651.369 403.464C652.169 403.865 653.102 404.252 654.169 404.625C655.075 404.946 655.955 405.346 656.809 405.826C657.662 406.28 658.369 406.881 658.929 407.628C659.515 408.375 659.809 409.363 659.809 410.59C659.809 412.272 659.155 413.713 657.849 414.914C656.542 416.088 654.649 416.675 652.169 416.675Z"></path>
<path fill="#202733" d="M634.815 416.675C633.001 416.675 631.361 416.275 629.895 415.474C628.428 414.647 627.268 413.473 626.415 411.952C625.561 410.404 625.135 408.549 625.135 406.387C625.135 404.252 625.561 402.41 626.415 400.862C627.295 399.314 628.428 398.127 629.815 397.299C631.201 396.472 632.655 396.058 634.175 396.058C635.961 396.058 637.455 396.459 638.655 397.259C639.855 398.033 640.761 399.128 641.375 400.542C641.988 401.93 642.295 403.545 642.295 405.386C642.295 406.347 642.228 407.094 642.095 407.628H629.615C629.828 409.363 630.455 410.711 631.495 411.671C632.535 412.632 633.841 413.112 635.415 413.112C636.268 413.112 637.055 412.992 637.775 412.752C638.521 412.485 639.255 412.125 639.975 411.671L641.535 414.554C640.601 415.168 639.561 415.675 638.415 416.075C637.268 416.475 636.068 416.675 634.815 416.675ZM629.575 404.505H638.295C638.295 402.984 637.961 401.796 637.295 400.942C636.628 400.062 635.628 399.621 634.295 399.621C633.148 399.621 632.121 400.048 631.215 400.902C630.335 401.73 629.788 402.931 629.575 404.505Z"></path>
<path fill="#202733" d="M617.115 416.675C615.328 416.675 613.715 416.275 612.275 415.474C610.861 414.647 609.728 413.473 608.875 411.952C608.048 410.404 607.635 408.549 607.635 406.387C607.635 404.198 608.088 402.344 608.995 400.822C609.901 399.274 611.101 398.1 612.595 397.299C614.115 396.472 615.741 396.058 617.475 396.058C618.728 396.058 619.821 396.272 620.755 396.699C621.688 397.126 622.515 397.646 623.235 398.26L620.995 401.263C620.488 400.809 619.968 400.462 619.435 400.222C618.901 399.955 618.328 399.821 617.715 399.821C616.141 399.821 614.848 400.422 613.835 401.623C612.848 402.824 612.355 404.412 612.355 406.387C612.355 408.335 612.835 409.91 613.795 411.111C614.781 412.312 616.048 412.912 617.595 412.912C618.368 412.912 619.088 412.752 619.755 412.432C620.448 412.085 621.075 411.685 621.635 411.231L623.515 414.273C622.608 415.074 621.595 415.675 620.475 416.075C619.355 416.475 618.235 416.675 617.115 416.675Z"></path>
<path fill="#202733" d="M599.615 416.675C597.828 416.675 596.215 416.275 594.775 415.474C593.361 414.647 592.228 413.473 591.375 411.952C590.548 410.404 590.135 408.549 590.135 406.387C590.135 404.198 590.588 402.344 591.495 400.822C592.401 399.274 593.601 398.1 595.095 397.299C596.615 396.472 598.241 396.058 599.975 396.058C601.228 396.058 602.321 396.272 603.255 396.699C604.188 397.126 605.015 397.646 605.735 398.26L603.495 401.263C602.988 400.809 602.468 400.462 601.935 400.222C601.401 399.955 600.828 399.821 600.215 399.821C598.641 399.821 597.348 400.422 596.335 401.623C595.348 402.824 594.855 404.412 594.855 406.387C594.855 408.335 595.335 409.91 596.295 411.111C597.281 412.312 598.548 412.912 600.095 412.912C600.868 412.912 601.588 412.752 602.255 412.432C602.948 412.085 603.575 411.685 604.135 411.231L606.015 414.273C605.108 415.074 604.095 415.675 602.975 416.075C601.855 416.475 600.735 416.675 599.615 416.675Z"></path>
<path fill="#202733" d="M575.028 416.676C572.922 416.676 571.388 415.995 570.428 414.634C569.468 413.273 568.988 411.351 568.988 408.869V396.539H573.588V408.269C573.588 409.897 573.828 411.044 574.308 411.711C574.788 412.379 575.562 412.712 576.628 412.712C577.482 412.712 578.228 412.499 578.868 412.072C579.535 411.645 580.242 410.951 580.988 409.99V396.539H585.588V416.195H581.828L581.468 413.313H581.348C580.495 414.327 579.562 415.141 578.548 415.755C577.535 416.369 576.362 416.676 575.028 416.676Z"></path>
<path fill="#202733" d="M557.442 416.675C556.109 416.675 554.775 416.422 553.442 415.915C552.109 415.381 550.962 414.727 550.002 413.953L552.162 410.991C553.042 411.658 553.922 412.192 554.802 412.592C555.682 412.992 556.615 413.193 557.602 413.193C558.669 413.193 559.455 412.966 559.962 412.512C560.469 412.058 560.722 411.498 560.722 410.831C560.722 410.27 560.509 409.816 560.082 409.469C559.682 409.096 559.162 408.776 558.522 408.509C557.882 408.215 557.215 407.935 556.522 407.668C555.669 407.348 554.815 406.961 553.962 406.507C553.135 406.027 552.455 405.426 551.922 404.706C551.389 403.958 551.122 403.037 551.122 401.943C551.122 400.208 551.762 398.794 553.042 397.7C554.322 396.605 556.055 396.058 558.242 396.058C559.629 396.058 560.869 396.299 561.962 396.779C563.055 397.259 564.002 397.806 564.802 398.42L562.682 401.223C561.989 400.716 561.282 400.315 560.562 400.022C559.869 399.701 559.135 399.541 558.362 399.541C557.375 399.541 556.642 399.755 556.162 400.182C555.682 400.582 555.442 401.089 555.442 401.703C555.442 402.477 555.842 403.064 556.642 403.464C557.442 403.865 558.375 404.252 559.442 404.625C560.349 404.946 561.229 405.346 562.082 405.826C562.935 406.28 563.642 406.881 564.202 407.628C564.789 408.375 565.082 409.363 565.082 410.59C565.082 412.272 564.429 413.713 563.122 414.914C561.815 416.088 559.922 416.675 557.442 416.675Z"></path>
<path fill="#202733" d="M537.83 407.788V404.425H547.35V407.788H537.83Z"></path>
<path fill="#202733" d="M532.788 416.675C530.521 416.675 528.908 416.022 527.948 414.714C527.015 413.379 526.548 411.658 526.548 409.55V400.182H523.748V396.739L526.788 396.539L527.348 391.174H531.188V396.539H536.188V400.182H531.188V409.55C531.188 411.845 532.108 412.992 533.948 412.992C534.295 412.992 534.655 412.952 535.028 412.872C535.401 412.766 535.721 412.659 535.988 412.552L536.788 415.955C536.255 416.142 535.641 416.302 534.948 416.435C534.281 416.595 533.561 416.675 532.788 416.675Z"></path>
<path fill="#202733" d="M505.305 416.195L511.545 405.947L505.705 396.539H510.665L512.865 400.262C513.158 400.796 513.451 401.356 513.745 401.943C514.065 402.504 514.371 403.051 514.665 403.585H514.825C515.065 403.051 515.318 402.504 515.585 401.943C515.851 401.356 516.105 400.796 516.345 400.262L518.225 396.539H522.985L517.185 406.467L523.425 416.195H518.465L516.065 412.312C515.745 411.725 515.411 411.138 515.065 410.55C514.745 409.963 514.411 409.389 514.065 408.829H513.905C513.638 409.389 513.358 409.963 513.065 410.55C512.771 411.111 512.478 411.698 512.185 412.312L510.105 416.195H505.305Z"></path>
<path fill="#202733" d="M496.26 416.675C494.447 416.675 492.807 416.275 491.34 415.474C489.873 414.647 488.713 413.473 487.86 411.952C487.007 410.404 486.58 408.549 486.58 406.387C486.58 404.252 487.007 402.41 487.86 400.862C488.74 399.314 489.873 398.127 491.26 397.299C492.647 396.472 494.1 396.058 495.62 396.058C497.407 396.058 498.9 396.459 500.1 397.259C501.3 398.033 502.207 399.128 502.82 400.542C503.433 401.93 503.74 403.545 503.74 405.386C503.74 406.347 503.673 407.094 503.54 407.628H491.06C491.273 409.363 491.9 410.711 492.94 411.671C493.98 412.632 495.287 413.112 496.86 413.112C497.713 413.112 498.5 412.992 499.22 412.752C499.967 412.485 500.7 412.125 501.42 411.671L502.98 414.554C502.047 415.168 501.007 415.675 499.86 416.075C498.713 416.475 497.513 416.675 496.26 416.675ZM491.02 404.505H499.74C499.74 402.984 499.407 401.796 498.74 400.942C498.073 400.062 497.073 399.621 495.74 399.621C494.593 399.621 493.567 400.048 492.66 400.902C491.78 401.73 491.233 402.931 491.02 404.505Z"></path>
<path fill="#202733" d="M480.952 416.675C478.685 416.675 477.072 416.022 476.112 414.714C475.179 413.379 474.712 411.658 474.712 409.55V400.182H471.912V396.739L474.952 396.539L475.512 391.174H479.352V396.539H484.352V400.182H479.352V409.55C479.352 411.845 480.272 412.992 482.112 412.992C482.459 412.992 482.819 412.952 483.192 412.872C483.565 412.766 483.885 412.659 484.152 412.552L484.952 415.955C484.419 416.142 483.805 416.302 483.112 416.435C482.445 416.595 481.725 416.675 480.952 416.675Z"></path>
<path fill="#6F7785" d="M535.557 421.367V424.367H507.057V467.349H504.057V424.367H475.557V421.367H535.557Z"></path>
<path fill="#6F7785" d="M677.778 421.367V424.367H617.057V467.349H614.057V424.367H553.334V421.367H677.778Z"></path>
<path fill="#6F7785" d="M797.779 421.367V424.367H748.168V467.349H745.168V424.367H695.557V421.367H797.779Z"></path>
<path fill="#202733" d="M532.246 501.083C530.628 501.083 529.498 500.616 528.855 499.682C528.233 498.748 527.922 497.534 527.922 496.039V487.663H525.682V485.733L528.046 485.577L528.357 481.342H530.504V485.577H534.579V487.663H530.504V496.07C530.504 497.004 530.67 497.731 531.002 498.25C531.354 498.748 531.966 498.997 532.837 498.997C533.107 498.997 533.397 498.956 533.708 498.872C534.019 498.769 534.299 498.675 534.548 498.592L535.046 500.523C534.631 500.668 534.175 500.793 533.677 500.896C533.2 501.021 532.723 501.083 532.246 501.083Z"></path>
<path fill="#202733" d="M510.348 500.71V485.577H512.463L512.681 487.757H512.774C513.5 487.03 514.268 486.428 515.077 485.951C515.885 485.452 516.808 485.203 517.845 485.203C519.442 485.203 520.604 485.712 521.33 486.729C522.077 487.725 522.45 489.189 522.45 491.119V500.71H519.899V491.462C519.899 490.05 519.671 489.023 519.214 488.379C518.758 487.736 518.032 487.414 517.037 487.414C516.269 487.414 515.574 487.611 514.952 488.006C514.351 488.4 513.666 488.981 512.899 489.749V500.71H510.348Z"></path>
<path fill="#202733" d="M500.919 501.083C499.571 501.083 498.347 500.772 497.248 500.149C496.148 499.506 495.277 498.592 494.634 497.409C493.991 496.226 493.67 494.814 493.67 493.174C493.67 491.514 493.991 490.092 494.634 488.909C495.298 487.725 496.148 486.812 497.185 486.169C498.223 485.525 499.311 485.203 500.452 485.203C502.381 485.203 503.864 485.847 504.901 487.134C505.959 488.421 506.488 490.144 506.488 492.303C506.488 492.572 506.477 492.842 506.457 493.112C506.457 493.361 506.436 493.579 506.394 493.766H496.19C496.294 495.364 496.791 496.641 497.683 497.596C498.596 498.551 499.778 499.028 501.23 499.028C501.956 499.028 502.62 498.924 503.221 498.717C503.843 498.488 504.434 498.198 504.994 497.845L505.897 499.526C505.254 499.942 504.517 500.305 503.688 500.616C502.879 500.928 501.956 501.083 500.919 501.083ZM496.159 491.929H504.248C504.248 490.393 503.916 489.23 503.252 488.442C502.609 487.632 501.697 487.227 500.514 487.227C499.457 487.227 498.503 487.642 497.652 488.473C496.823 489.282 496.325 490.434 496.159 491.929Z"></path>
<path fill="#202733" d="M468.871 500.71V485.577H470.987L471.204 487.757H471.298C471.961 487.03 472.687 486.428 473.476 485.951C474.264 485.452 475.104 485.203 475.996 485.203C477.157 485.203 478.059 485.463 478.702 485.982C479.366 486.48 479.853 487.186 480.164 488.099C480.953 487.248 481.751 486.553 482.56 486.013C483.369 485.473 484.23 485.203 485.142 485.203C486.698 485.203 487.849 485.712 488.596 486.729C489.363 487.725 489.747 489.189 489.747 491.119V500.71H487.196V491.462C487.196 490.05 486.967 489.023 486.511 488.379C486.055 487.736 485.35 487.414 484.396 487.414C483.276 487.414 482.01 488.193 480.6 489.749V500.71H478.049V491.462C478.049 490.05 477.821 489.023 477.364 488.379C476.908 487.736 476.193 487.414 475.218 487.414C474.098 487.414 472.833 488.193 471.422 489.749V500.71H468.871Z"></path>
<path fill="#202733" d="M459.442 501.083C458.094 501.083 456.87 500.772 455.771 500.149C454.672 499.506 453.801 498.592 453.158 497.409C452.515 496.226 452.193 494.814 452.193 493.174C452.193 491.514 452.515 490.092 453.158 488.909C453.822 487.725 454.672 486.812 455.709 486.169C456.746 485.525 457.835 485.203 458.976 485.203C460.904 485.203 462.387 485.847 463.424 487.134C464.482 488.421 465.011 490.144 465.011 492.303C465.011 492.572 465.001 492.842 464.98 493.112C464.98 493.361 464.959 493.579 464.918 493.766H454.713C454.817 495.364 455.315 496.641 456.207 497.596C457.119 498.551 458.302 499.028 459.753 499.028C460.479 499.028 461.143 498.924 461.744 498.717C462.367 498.488 462.958 498.198 463.518 497.845L464.42 499.526C463.777 499.942 463.041 500.305 462.211 500.616C461.402 500.928 460.479 501.083 459.442 501.083ZM454.682 491.929H462.771C462.771 490.393 462.439 489.23 461.776 488.442C461.133 487.632 460.22 487.227 459.038 487.227C457.98 487.227 457.026 487.642 456.176 488.473C455.346 489.282 454.848 490.434 454.682 491.929Z"></path>
<path fill="#202733" d="M447.964 501.083C447.01 501.083 446.316 500.793 445.88 500.211C445.465 499.609 445.258 498.758 445.258 497.658V478.54H447.809V497.845C447.809 498.239 447.882 498.53 448.027 498.717C448.172 498.883 448.338 498.966 448.524 498.966C448.607 498.966 448.68 498.966 448.742 498.966C448.825 498.945 448.939 498.924 449.084 498.904L449.427 500.834C449.261 500.917 449.064 500.979 448.836 501.021C448.607 501.062 448.317 501.083 447.964 501.083Z"></path>
<path fill="#202733" d="M435.829 501.083C434.481 501.083 433.257 500.772 432.158 500.149C431.059 499.506 430.187 498.592 429.545 497.409C428.902 496.226 428.58 494.814 428.58 493.174C428.58 491.514 428.902 490.092 429.545 488.909C430.208 487.725 431.059 486.812 432.096 486.169C433.133 485.525 434.222 485.203 435.362 485.203C437.291 485.203 438.774 485.847 439.811 487.134C440.869 488.421 441.398 490.144 441.398 492.303C441.398 492.572 441.387 492.842 441.367 493.112C441.367 493.361 441.346 493.579 441.305 493.766H431.1C431.204 495.364 431.702 496.641 432.593 497.596C433.506 498.551 434.688 499.028 436.14 499.028C436.866 499.028 437.53 498.924 438.131 498.717C438.753 498.488 439.345 498.198 439.905 497.845L440.807 499.526C440.164 499.942 439.427 500.305 438.598 500.616C437.789 500.928 436.866 501.083 435.829 501.083ZM431.069 491.929H439.158C439.158 490.393 438.826 489.23 438.162 488.442C437.519 487.632 436.607 487.227 435.425 487.227C434.367 487.227 433.413 487.642 432.562 488.473C431.733 489.282 431.235 490.434 431.069 491.929Z"></path>
<path fill="#202733" d="M418.639 493.891V491.929H425.794V493.891H418.639Z"></path>
<path fill="#202733" d="M411.865 500.71V480.284H414.447V500.71H411.865Z"></path>
<path fill="#202733" d="M398.938 501.083C397.548 501.083 396.293 500.803 395.173 500.242C394.074 499.682 393.203 498.758 392.56 497.471C391.917 496.184 391.596 494.451 391.596 492.271V480.284H394.178V492.334C394.178 493.974 394.385 495.271 394.8 496.226C395.236 497.16 395.806 497.824 396.511 498.219C397.237 498.613 398.046 498.81 398.938 498.81C399.851 498.81 400.67 498.613 401.396 498.219C402.122 497.824 402.692 497.16 403.107 496.226C403.542 495.271 403.76 493.974 403.76 492.334V480.284H406.249V492.271C406.249 494.451 405.928 496.184 405.285 497.471C404.642 498.758 403.771 499.682 402.671 500.242C401.572 500.803 400.328 501.083 398.938 501.083Z"></path>
<path fill="#202733" d="M641.53 501.083C640.182 501.083 638.958 500.772 637.859 500.149C636.76 499.506 635.889 498.592 635.246 497.409C634.603 496.226 634.281 494.814 634.281 493.174C634.281 491.514 634.603 490.092 635.246 488.909C635.909 487.725 636.76 486.812 637.797 486.169C638.834 485.525 639.923 485.203 641.063 485.203C642.992 485.203 644.475 485.847 645.512 487.134C646.57 488.421 647.099 490.144 647.099 492.303C647.099 492.572 647.089 492.842 647.068 493.112C647.068 493.361 647.047 493.579 647.006 493.766H636.801C636.905 495.364 637.403 496.641 638.295 497.596C639.207 498.551 640.389 499.028 641.841 499.028C642.567 499.028 643.231 498.924 643.832 498.717C644.455 498.488 645.046 498.198 645.606 497.845L646.508 499.526C645.865 499.942 645.129 500.305 644.299 500.616C643.49 500.928 642.567 501.083 641.53 501.083ZM636.77 491.929H644.859C644.859 490.393 644.527 489.23 643.863 488.442C643.221 487.632 642.308 487.227 641.126 487.227C640.068 487.227 639.114 487.642 638.263 488.473C637.434 489.282 636.936 490.434 636.77 491.929Z"></path>
<path fill="#202733" d="M630.054 501.083C629.1 501.083 628.405 500.793 627.97 500.211C627.555 499.609 627.348 498.758 627.348 497.658V478.54H629.899V497.845C629.899 498.239 629.971 498.53 630.117 498.717C630.262 498.883 630.428 498.966 630.614 498.966C630.697 498.966 630.77 498.966 630.832 498.966C630.915 498.945 631.029 498.924 631.174 498.904L631.517 500.834C631.351 500.917 631.154 500.979 630.925 501.021C630.697 501.062 630.407 501.083 630.054 501.083Z"></path>
<path fill="#202733" d="M622 501.083C621.046 501.083 620.351 500.793 619.915 500.211C619.5 499.609 619.293 498.758 619.293 497.658V478.54H621.844V497.845C621.844 498.239 621.917 498.53 622.062 498.717C622.207 498.883 622.373 498.966 622.56 498.966C622.643 498.966 622.715 498.966 622.777 498.966C622.86 498.945 622.974 498.924 623.12 498.904L623.462 500.834C623.296 500.917 623.099 500.979 622.871 501.021C622.643 501.062 622.352 501.083 622 501.083Z"></path>
<path fill="#202733" d="M608.187 501.083C606.964 501.083 605.813 500.772 604.734 500.149C603.676 499.526 602.816 498.623 602.152 497.44C601.509 496.257 601.188 494.835 601.188 493.174C601.188 491.472 601.509 490.03 602.152 488.846C602.816 487.663 603.676 486.76 604.734 486.137C605.813 485.515 606.964 485.203 608.187 485.203C609.432 485.203 610.583 485.515 611.641 486.137C612.699 486.76 613.549 487.663 614.192 488.846C614.856 490.03 615.188 491.472 615.188 493.174C615.188 494.835 614.856 496.257 614.192 497.44C613.549 498.623 612.699 499.526 611.641 500.149C610.583 500.772 609.432 501.083 608.187 501.083ZM608.187 498.966C609.494 498.966 610.542 498.437 611.33 497.378C612.139 496.298 612.543 494.897 612.543 493.174C612.543 491.431 612.139 490.019 611.33 488.94C610.542 487.86 609.494 487.321 608.187 487.321C606.902 487.321 605.854 487.86 605.045 488.94C604.236 490.019 603.832 491.431 603.832 493.174C603.832 494.897 604.236 496.298 605.045 497.378C605.854 498.437 606.902 498.966 608.187 498.966Z"></path>
<path fill="#202733" d="M585.023 500.71V480.284H591.401C592.791 480.284 594.025 480.471 595.103 480.844C596.182 481.197 597.022 481.799 597.623 482.65C598.246 483.48 598.557 484.601 598.557 486.013C598.557 487.59 598.142 488.867 597.312 489.843C596.483 490.798 595.363 491.451 593.952 491.804L599.148 500.71H596.223L591.308 492.085H587.606V500.71H585.023ZM587.606 489.967H591.028C592.625 489.967 593.849 489.646 594.699 489.002C595.549 488.338 595.975 487.341 595.975 486.013C595.975 484.664 595.549 483.719 594.699 483.179C593.849 482.64 592.625 482.37 591.028 482.37H587.606V489.967Z"></path>
<path fill="#202733" d="M896.179 501.083C894.292 501.083 892.778 500.398 891.637 499.028C890.496 497.637 889.926 495.686 889.926 493.174C889.926 491.535 890.227 490.123 890.828 488.94C891.45 487.736 892.259 486.812 893.255 486.169C894.271 485.525 895.349 485.203 896.49 485.203C897.361 485.203 898.118 485.359 898.761 485.67C899.404 485.982 900.058 486.407 900.721 486.947L900.597 484.363V478.54H903.179V500.71H901.064L900.846 498.935H900.752C900.172 499.516 899.487 500.025 898.699 500.46C897.911 500.876 897.071 501.083 896.179 501.083ZM896.739 498.935C898.067 498.935 899.352 498.239 900.597 496.849V488.94C899.954 488.359 899.332 487.954 898.73 487.725C898.149 487.476 897.548 487.352 896.926 487.352C896.117 487.352 895.381 487.601 894.717 488.099C894.074 488.577 893.555 489.251 893.161 490.123C892.767 490.974 892.57 491.981 892.57 493.143C892.57 494.949 892.933 496.371 893.659 497.409C894.385 498.426 895.412 498.935 896.739 498.935Z"></path>
<path fill="#202733" d="M873.877 500.71V485.577H875.992L876.21 487.757H876.304C877.03 487.03 877.797 486.428 878.606 485.951C879.415 485.452 880.338 485.203 881.375 485.203C882.972 485.203 884.133 485.712 884.859 486.729C885.606 487.725 885.979 489.189 885.979 491.119V500.71H883.428V491.462C883.428 490.05 883.2 489.023 882.744 488.379C882.287 487.736 881.561 487.414 880.566 487.414C879.798 487.414 879.104 487.611 878.481 488.006C877.88 488.4 877.195 488.981 876.428 489.749V500.71H873.877Z"></path>
<path fill="#202733" d="M861.56 501.083C860.295 501.083 859.237 500.71 858.387 499.962C857.557 499.194 857.143 498.136 857.143 496.786C857.143 495.126 857.879 493.859 859.351 492.988C860.845 492.095 863.199 491.472 866.414 491.119C866.414 490.476 866.32 489.864 866.134 489.282C865.968 488.701 865.657 488.234 865.2 487.881C864.765 487.508 864.132 487.321 863.303 487.321C862.431 487.321 861.612 487.487 860.845 487.819C860.077 488.151 859.393 488.525 858.791 488.94L857.796 487.165C858.501 486.708 859.362 486.272 860.378 485.857C861.415 485.421 862.535 485.203 863.738 485.203C865.584 485.203 866.922 485.774 867.751 486.916C868.581 488.037 868.996 489.542 868.996 491.431V500.71H866.88L866.663 498.904H866.569C865.864 499.485 865.086 499.993 864.236 500.429C863.406 500.865 862.514 501.083 861.56 501.083ZM862.307 499.028C863.033 499.028 863.717 498.852 864.36 498.499C865.003 498.146 865.688 497.648 866.414 497.004V492.801C863.904 493.112 862.141 493.579 861.125 494.202C860.129 494.825 859.631 495.624 859.631 496.599C859.631 497.451 859.891 498.073 860.409 498.468C860.928 498.841 861.56 499.028 862.307 499.028Z"></path>
<path fill="#202733" d="M852.867 501.083C851.249 501.083 850.119 500.616 849.476 499.682C848.854 498.748 848.543 497.534 848.543 496.039V487.663H846.303V485.733L848.667 485.577L848.978 481.342H851.125V485.577H855.201V487.663H851.125V496.07C851.125 497.004 851.291 497.731 851.623 498.25C851.975 498.748 852.587 498.997 853.458 498.997C853.728 498.997 854.018 498.956 854.329 498.872C854.641 498.769 854.921 498.675 855.169 498.592L855.667 500.523C855.252 500.668 854.796 500.793 854.298 500.896C853.821 501.021 853.344 501.083 852.867 501.083Z"></path>
<path fill="#202733" d="M839.508 501.083C838.43 501.083 837.403 500.886 836.428 500.492C835.453 500.076 834.603 499.578 833.877 498.997L835.153 497.284C835.816 497.803 836.501 498.239 837.206 498.592C837.911 498.924 838.71 499.09 839.601 499.09C840.597 499.09 841.344 498.862 841.841 498.405C842.339 497.928 842.588 497.368 842.588 496.724C842.588 496.205 842.412 495.769 842.059 495.416C841.727 495.063 841.292 494.773 840.753 494.544C840.234 494.295 839.695 494.067 839.135 493.859C838.43 493.59 837.735 493.289 837.05 492.956C836.366 492.604 835.806 492.157 835.37 491.618C834.935 491.057 834.717 490.351 834.717 489.5C834.717 488.276 835.173 487.258 836.086 486.449C837.019 485.619 838.305 485.203 839.944 485.203C840.877 485.203 841.748 485.369 842.557 485.702C843.366 486.034 844.061 486.438 844.641 486.916L843.397 488.535C842.878 488.141 842.339 487.819 841.779 487.57C841.219 487.321 840.607 487.196 839.944 487.196C838.99 487.196 838.284 487.414 837.828 487.85C837.393 488.286 837.175 488.794 837.175 489.376C837.175 489.853 837.33 490.248 837.641 490.559C837.953 490.85 838.357 491.109 838.855 491.337C839.353 491.545 839.881 491.763 840.441 491.991C841.167 492.261 841.883 492.572 842.588 492.925C843.293 493.257 843.874 493.714 844.33 494.295C844.807 494.856 845.046 495.613 845.046 496.568C845.046 497.378 844.828 498.125 844.393 498.81C843.978 499.495 843.355 500.045 842.526 500.46C841.717 500.876 840.711 501.083 839.508 501.083Z"></path>
<path fill="#202733" d="M830.209 501.083C829.255 501.083 828.56 500.793 828.124 500.211C827.709 499.609 827.502 498.758 827.502 497.658V478.54H830.053V497.845C830.053 498.239 830.126 498.53 830.271 498.717C830.416 498.883 830.582 498.966 830.769 498.966C830.852 498.966 830.924 498.966 830.986 498.966C831.069 498.945 831.183 498.924 831.329 498.904L831.671 500.834C831.505 500.917 831.308 500.979 831.08 501.021C830.852 501.062 830.561 501.083 830.209 501.083Z"></path>
<path fill="#202733" d="M819.723 500.71V485.577H822.274V500.71H819.723ZM821.029 482.463C820.532 482.463 820.117 482.318 819.785 482.027C819.474 481.716 819.318 481.301 819.318 480.782C819.318 480.284 819.474 479.879 819.785 479.568C820.117 479.256 820.532 479.101 821.029 479.101C821.527 479.101 821.932 479.256 822.243 479.568C822.575 479.879 822.741 480.284 822.741 480.782C822.741 481.301 822.575 481.716 822.243 482.027C821.932 482.318 821.527 482.463 821.029 482.463Z"></path>
<path fill="#202733" d="M807.398 500.71V482.463H801.238V480.284H816.172V482.463H810.012V500.71H807.398Z"></path>
<path fill="#202733" d="M789.678 505.692L797.984 478.602H799.851L791.544 505.692H789.678Z"></path>
<path fill="#202733" d="M785.736 501.083C784.119 501.083 782.988 500.616 782.345 499.682C781.723 498.748 781.412 497.534 781.412 496.039V487.663H779.172V485.733L781.536 485.577L781.847 481.342H783.994V485.577H788.07V487.663H783.994V496.07C783.994 497.004 784.16 497.731 784.492 498.25C784.844 498.748 785.456 498.997 786.327 498.997C786.597 498.997 786.887 498.956 787.199 498.872C787.51 498.769 787.79 498.675 788.039 498.592L788.536 500.523C788.122 500.668 787.665 500.793 787.167 500.896C786.69 501.021 786.213 501.083 785.736 501.083Z"></path>
<path fill="#202733" d="M763.838 500.71V485.577H765.953L766.171 487.757H766.265C766.99 487.03 767.758 486.428 768.567 485.951C769.376 485.452 770.299 485.203 771.336 485.203C772.933 485.203 774.094 485.712 774.82 486.729C775.567 487.725 775.94 489.189 775.94 491.119V500.71H773.389V491.462C773.389 490.05 773.161 489.023 772.705 488.379C772.248 487.736 771.522 487.414 770.527 487.414C769.759 487.414 769.065 487.611 768.442 488.006C767.841 488.4 767.156 488.981 766.389 489.749V500.71H763.838Z"></path>
<path fill="#202733" d="M751.521 501.083C750.256 501.083 749.198 500.71 748.348 499.962C747.518 499.194 747.104 498.136 747.104 496.786C747.104 495.126 747.84 493.859 749.312 492.988C750.806 492.095 753.16 491.472 756.375 491.119C756.375 490.476 756.281 489.864 756.095 489.282C755.929 488.701 755.618 488.234 755.161 487.881C754.726 487.508 754.093 487.321 753.264 487.321C752.392 487.321 751.573 487.487 750.806 487.819C750.038 488.151 749.354 488.525 748.752 488.94L747.757 487.165C748.462 486.708 749.323 486.272 750.339 485.857C751.376 485.421 752.496 485.203 753.699 485.203C755.545 485.203 756.883 485.774 757.712 486.916C758.542 488.037 758.957 489.542 758.957 491.431V500.71H756.841L756.624 498.904H756.53C755.825 499.485 755.047 499.993 754.197 500.429C753.367 500.865 752.475 501.083 751.521 501.083ZM752.268 499.028C752.994 499.028 753.678 498.852 754.321 498.499C754.964 498.146 755.649 497.648 756.375 497.004V492.801C753.865 493.112 752.102 493.579 751.086 494.202C750.09 494.825 749.592 495.624 749.592 496.599C749.592 497.451 749.852 498.073 750.37 498.468C750.889 498.841 751.521 499.028 752.268 499.028Z"></path>
<path fill="#202733" d="M740.256 500.71V485.577H742.807V500.71H740.256ZM741.563 482.463C741.065 482.463 740.65 482.318 740.318 482.027C740.007 481.716 739.852 481.301 739.852 480.782C739.852 480.284 740.007 479.879 740.318 479.568C740.65 479.256 741.065 479.101 741.563 479.101C742.06 479.101 742.465 479.256 742.776 479.568C743.108 479.879 743.274 480.284 743.274 480.782C743.274 481.301 743.108 481.716 742.776 482.027C742.465 482.318 742.06 482.463 741.563 482.463Z"></path>
<path fill="#202733" d="M729.346 500.71V485.577H731.461L731.679 488.317H731.772C732.291 487.362 732.923 486.605 733.67 486.044C734.417 485.484 735.215 485.203 736.066 485.203C736.667 485.203 737.206 485.307 737.683 485.515L737.186 487.757C736.937 487.674 736.709 487.611 736.501 487.57C736.294 487.528 736.035 487.508 735.723 487.508C735.081 487.508 734.406 487.767 733.701 488.286C733.017 488.805 732.415 489.708 731.897 490.995V500.71H729.346Z"></path>
<path fill="#202733" d="M717.029 501.083C715.764 501.083 714.706 500.71 713.856 499.962C713.026 499.194 712.611 498.136 712.611 496.786C712.611 495.126 713.348 493.859 714.82 492.988C716.314 492.095 718.668 491.472 721.882 491.119C721.882 490.476 721.789 489.864 721.602 489.282C721.437 488.701 721.125 488.234 720.669 487.881C720.234 487.508 719.601 487.321 718.771 487.321C717.9 487.321 717.081 487.487 716.314 487.819C715.546 488.151 714.862 488.525 714.26 488.94L713.265 487.165C713.97 486.708 714.831 486.272 715.847 485.857C716.884 485.421 718.004 485.203 719.207 485.203C721.053 485.203 722.391 485.774 723.22 486.916C724.05 488.037 724.465 489.542 724.465 491.431V500.71H722.349L722.131 498.904H722.038C721.333 499.485 720.555 499.993 719.705 500.429C718.875 500.865 717.983 501.083 717.029 501.083ZM717.776 499.028C718.502 499.028 719.186 498.852 719.829 498.499C720.472 498.146 721.157 497.648 721.882 497.004V492.801C719.373 493.112 717.61 493.579 716.594 494.202C715.598 494.825 715.1 495.624 715.1 496.599C715.1 497.451 715.359 498.073 715.878 498.468C716.397 498.841 717.029 499.028 717.776 499.028Z"></path>
<path fill="#202733" d="M702.09 500.71L695.557 480.284H698.326L701.592 491.306C701.966 492.51 702.287 493.641 702.557 494.7C702.847 495.738 703.189 496.859 703.583 498.063H703.708C704.081 496.859 704.413 495.738 704.703 494.7C704.994 493.641 705.315 492.51 705.668 491.306L708.934 480.284H711.579L705.108 500.71H702.09Z"></path>
<defs>
<linearGradient gradientUnits="userSpaceOnUse" y2="630" x2="600" y1="0" x1="600" id="paint0_linear_5543_35220">
<stop stop-color="#EEF6FC"></stop>
<stop stop-color="#E3EFF7" offset="1"></stop>
</linearGradient>
</defs>
</svg>
