<svg xmlns="http://www.w3.org/2000/svg" fill="none" viewBox="0 0 384 160" height="160" width="384">
<rect fill="#262626" rx="2" height="38" width="156" y="61" x="31"></rect>
<path fill="white" d="M76.906 79.736L76.492 81.176H79.498L79.084 79.736C78.892 79.112 78.706 78.47 78.526 77.81C78.358 77.15 78.19 76.496 78.022 75.848H77.95C77.794 76.508 77.626 77.168 77.446 77.828C77.278 78.476 77.098 79.112 76.906 79.736ZM72.964 86L76.798 74.228H79.246L83.08 86H80.884L79.966 82.814H76.006L75.088 86H72.964ZM86.3671 86.216C85.6351 86.216 85.1131 85.994 84.8011 85.55C84.5011 85.106 84.3511 84.5 84.3511 83.732V73.292H86.4211V83.84C86.4211 84.092 86.4691 84.272 86.5651 84.38C86.6611 84.476 86.7631 84.524 86.8711 84.524C86.9191 84.524 86.9611 84.524 86.9971 84.524C87.0451 84.512 87.1111 84.5 87.1951 84.488L87.4651 86.036C87.3451 86.084 87.1891 86.126 86.9971 86.162C86.8171 86.198 86.6071 86.216 86.3671 86.216ZM91.2538 86.216C90.5218 86.216 89.9998 85.994 89.6878 85.55C89.3878 85.106 89.2378 84.5 89.2378 83.732V73.292H91.3078V83.84C91.3078 84.092 91.3558 84.272 91.4518 84.38C91.5478 84.476 91.6498 84.524 91.7578 84.524C91.8058 84.524 91.8478 84.524 91.8838 84.524C91.9318 84.512 91.9978 84.5 92.0818 84.488L92.3518 86.036C92.2318 86.084 92.0758 86.126 91.8838 86.162C91.7038 86.198 91.4938 86.216 91.2538 86.216ZM97.9045 86.216C97.0885 86.216 96.3505 86.036 95.6905 85.676C95.0305 85.304 94.5085 84.776 94.1245 84.092C93.7405 83.396 93.5485 82.562 93.5485 81.59C93.5485 80.63 93.7405 79.802 94.1245 79.106C94.5205 78.41 95.0305 77.876 95.6545 77.504C96.2785 77.132 96.9325 76.946 97.6165 76.946C98.4205 76.946 99.0925 77.126 99.6325 77.486C100.173 77.834 100.581 78.326 100.857 78.962C101.133 79.586 101.271 80.312 101.271 81.14C101.271 81.572 101.241 81.908 101.181 82.148H95.5645C95.6605 82.928 95.9425 83.534 96.4105 83.966C96.8785 84.398 97.4665 84.614 98.1745 84.614C98.5585 84.614 98.9125 84.56 99.2365 84.452C99.5725 84.332 99.9025 84.17 100.227 83.966L100.929 85.262C100.509 85.538 100.041 85.766 99.5245 85.946C99.0085 86.126 98.4685 86.216 97.9045 86.216ZM95.5465 80.744H99.4705C99.4705 80.06 99.3205 79.526 99.0205 79.142C98.7205 78.746 98.2705 78.548 97.6705 78.548C97.1545 78.548 96.6925 78.74 96.2845 79.124C95.8885 79.496 95.6425 80.036 95.5465 80.744ZM109.299 89.204C108.555 87.98 107.973 86.702 107.553 85.37C107.133 84.038 106.923 82.58 106.923 80.996C106.923 79.412 107.133 77.954 107.553 76.622C107.973 75.29 108.555 74.012 109.299 72.788L110.595 73.364C109.923 74.516 109.425 75.746 109.101 77.054C108.777 78.362 108.615 79.676 108.615 80.996C108.615 82.316 108.777 83.63 109.101 84.938C109.425 86.246 109.923 87.476 110.595 88.628L109.299 89.204ZM115.711 86.216C114.787 86.216 114.007 86.06 113.371 85.748C112.747 85.424 112.225 85.052 111.805 84.632L112.759 83.3C113.107 83.624 113.497 83.912 113.929 84.164C114.361 84.404 114.865 84.524 115.441 84.524C116.077 84.524 116.605 84.332 117.025 83.948C117.445 83.564 117.655 83.024 117.655 82.328C117.655 81.644 117.463 81.116 117.079 80.744C116.695 80.372 116.185 80.186 115.549 80.186C115.177 80.186 114.865 80.24 114.613 80.348C114.361 80.444 114.061 80.606 113.713 80.834L112.723 80.204L113.065 74.552H119.185V76.298H114.865L114.631 79.07C114.871 78.95 115.105 78.86 115.333 78.8C115.573 78.728 115.843 78.692 116.143 78.692C116.803 78.692 117.403 78.818 117.943 79.07C118.483 79.322 118.915 79.712 119.239 80.24C119.575 80.768 119.743 81.446 119.743 82.274C119.743 83.102 119.551 83.81 119.167 84.398C118.795 84.986 118.303 85.436 117.691 85.748C117.079 86.06 116.419 86.216 115.711 86.216ZM121.286 86V84.794C122.354 83.762 123.272 82.844 124.04 82.04C124.82 81.224 125.42 80.486 125.84 79.826C126.26 79.154 126.47 78.53 126.47 77.954C126.47 77.354 126.308 76.874 125.984 76.514C125.66 76.154 125.192 75.974 124.58 75.974C124.136 75.974 123.728 76.1 123.356 76.352C122.996 76.604 122.66 76.904 122.348 77.252L121.196 76.1C121.724 75.536 122.27 75.104 122.834 74.804C123.398 74.492 124.07 74.336 124.85 74.336C125.954 74.336 126.83 74.654 127.478 75.29C128.138 75.926 128.468 76.778 128.468 77.846C128.468 78.518 128.276 79.208 127.892 79.916C127.52 80.612 127.016 81.326 126.38 82.058C125.756 82.79 125.066 83.558 124.31 84.362C124.61 84.338 124.934 84.314 125.282 84.29C125.63 84.254 125.942 84.236 126.218 84.236H129.026V86H121.286ZM134.654 80.42C134.33 80.42 133.988 80.522 133.628 80.726C133.268 80.918 132.926 81.254 132.602 81.734C132.71 82.754 132.956 83.492 133.34 83.948C133.724 84.404 134.192 84.632 134.744 84.632C135.224 84.632 135.626 84.446 135.95 84.074C136.286 83.69 136.454 83.15 136.454 82.454C136.454 81.782 136.292 81.278 135.968 80.942C135.656 80.594 135.218 80.42 134.654 80.42ZM134.78 86.216C134.036 86.216 133.346 86.018 132.71 85.622C132.074 85.226 131.564 84.614 131.18 83.786C130.808 82.958 130.622 81.902 130.622 80.618C130.622 79.13 130.832 77.93 131.252 77.018C131.684 76.094 132.242 75.416 132.926 74.984C133.61 74.552 134.342 74.336 135.122 74.336C135.818 74.336 136.418 74.462 136.922 74.714C137.426 74.966 137.846 75.272 138.182 75.632L137.066 76.892C136.862 76.64 136.592 76.436 136.256 76.28C135.932 76.112 135.596 76.028 135.248 76.028C134.768 76.028 134.33 76.16 133.934 76.424C133.538 76.688 133.214 77.132 132.962 77.756C132.722 78.368 132.584 79.202 132.548 80.258C132.884 79.838 133.28 79.508 133.736 79.268C134.192 79.028 134.624 78.908 135.032 78.908C136.028 78.908 136.832 79.202 137.444 79.79C138.068 80.366 138.38 81.254 138.38 82.454C138.38 83.21 138.212 83.87 137.876 84.434C137.552 84.998 137.12 85.436 136.58 85.748C136.04 86.06 135.44 86.216 134.78 86.216ZM141.129 89.204L139.833 88.628C140.505 87.476 141.003 86.246 141.327 84.938C141.651 83.63 141.813 82.316 141.813 80.996C141.813 79.676 141.651 78.362 141.327 77.054C141.003 75.746 140.505 74.516 139.833 73.364L141.129 72.788C141.873 74.012 142.455 75.29 142.875 76.622C143.295 77.954 143.505 79.412 143.505 80.996C143.505 82.58 143.295 84.038 142.875 85.37C142.455 86.702 141.873 87.98 141.129 89.204Z"></path>
<path fill="#262626" d="M243.654 79.394L243.096 81.194H246.642L246.084 79.394C245.868 78.734 245.664 78.08 245.472 77.432C245.28 76.772 245.088 76.1 244.896 75.416H244.824C244.644 76.1 244.458 76.772 244.266 77.432C244.074 78.08 243.87 78.734 243.654 79.394ZM240.054 86L244.05 74.192H245.742L249.738 86H248.136L247.02 82.4H242.718L241.584 86H240.054ZM251.267 86V73.184H252.725V81.86H252.779L256.505 77.252H258.143L255.209 80.762L258.539 86H256.919L254.363 81.788L252.725 83.696V86H251.267ZM262.546 86.216C261.61 86.216 260.956 85.946 260.584 85.406C260.224 84.866 260.044 84.164 260.044 83.3V78.458H258.748V77.342L260.116 77.252L260.296 74.804H261.538V77.252H263.896V78.458H261.538V83.318C261.538 83.858 261.634 84.278 261.826 84.578C262.03 84.866 262.384 85.01 262.888 85.01C263.044 85.01 263.212 84.986 263.392 84.938C263.572 84.878 263.734 84.824 263.878 84.776L264.166 85.892C263.926 85.976 263.662 86.048 263.374 86.108C263.098 86.18 262.822 86.216 262.546 86.216ZM265.874 86V77.252H267.35V86H265.874ZM266.63 75.452C266.342 75.452 266.102 75.368 265.91 75.2C265.73 75.02 265.64 74.78 265.64 74.48C265.64 74.192 265.73 73.958 265.91 73.778C266.102 73.598 266.342 73.508 266.63 73.508C266.918 73.508 267.152 73.598 267.332 73.778C267.524 73.958 267.62 74.192 267.62 74.48C267.62 74.78 267.524 75.02 267.332 75.2C267.152 75.368 266.918 75.452 266.63 75.452ZM272.194 86L269.044 77.252H270.574L272.23 82.22C272.362 82.652 272.494 83.084 272.626 83.516C272.77 83.948 272.908 84.374 273.04 84.794H273.112C273.244 84.374 273.376 83.948 273.508 83.516C273.652 83.084 273.784 82.652 273.904 82.22L275.56 77.252H277.018L273.922 86H272.194ZM282.182 86.216C281.402 86.216 280.694 86.036 280.058 85.676C279.422 85.304 278.918 84.776 278.546 84.092C278.174 83.408 277.988 82.592 277.988 81.644C277.988 80.684 278.174 79.862 278.546 79.178C278.93 78.494 279.422 77.966 280.022 77.594C280.622 77.222 281.252 77.036 281.912 77.036C283.028 77.036 283.886 77.408 284.486 78.152C285.098 78.896 285.404 79.892 285.404 81.14C285.404 81.296 285.398 81.452 285.386 81.608C285.386 81.752 285.374 81.878 285.35 81.986H279.446C279.506 82.91 279.794 83.648 280.31 84.2C280.838 84.752 281.522 85.028 282.362 85.028C282.782 85.028 283.166 84.968 283.514 84.848C283.874 84.716 284.216 84.548 284.54 84.344L285.062 85.316C284.69 85.556 284.264 85.766 283.784 85.946C283.316 86.126 282.782 86.216 282.182 86.216ZM279.428 80.924H284.108C284.108 80.036 283.916 79.364 283.532 78.908C283.16 78.44 282.632 78.206 281.948 78.206C281.336 78.206 280.784 78.446 280.292 78.926C279.812 79.394 279.524 80.06 279.428 80.924ZM293.545 89.168C292.801 87.956 292.219 86.69 291.799 85.37C291.379 84.038 291.169 82.58 291.169 80.996C291.169 79.412 291.379 77.954 291.799 76.622C292.219 75.29 292.801 74.024 293.545 72.824L294.463 73.256C293.767 74.396 293.245 75.632 292.897 76.964C292.561 78.284 292.393 79.628 292.393 80.996C292.393 82.364 292.561 83.714 292.897 85.046C293.245 86.366 293.767 87.596 294.463 88.736L293.545 89.168ZM299.841 80.096C299.469 80.096 299.067 80.216 298.635 80.456C298.203 80.696 297.807 81.08 297.447 81.608C297.543 82.724 297.801 83.576 298.221 84.164C298.653 84.752 299.235 85.046 299.967 85.046C300.531 85.046 301.005 84.818 301.389 84.362C301.773 83.894 301.965 83.282 301.965 82.526C301.965 81.782 301.785 81.194 301.425 80.762C301.077 80.318 300.549 80.096 299.841 80.096ZM299.967 86.216C299.223 86.216 298.551 86.012 297.951 85.604C297.351 85.196 296.877 84.584 296.529 83.768C296.181 82.94 296.007 81.914 296.007 80.69C296.007 79.154 296.211 77.918 296.619 76.982C297.039 76.046 297.579 75.368 298.239 74.948C298.911 74.516 299.625 74.3 300.381 74.3C301.005 74.3 301.539 74.42 301.983 74.66C302.439 74.888 302.829 75.176 303.153 75.524L302.325 76.442C302.097 76.166 301.815 75.95 301.479 75.794C301.143 75.626 300.795 75.542 300.435 75.542C299.895 75.542 299.403 75.698 298.959 76.01C298.515 76.31 298.149 76.82 297.861 77.54C297.585 78.248 297.435 79.208 297.411 80.42C297.771 79.976 298.191 79.628 298.671 79.376C299.151 79.112 299.625 78.98 300.093 78.98C301.089 78.98 301.881 79.28 302.469 79.88C303.069 80.468 303.369 81.35 303.369 82.526C303.369 83.258 303.213 83.9 302.901 84.452C302.589 85.004 302.175 85.436 301.659 85.748C301.155 86.06 300.591 86.216 299.967 86.216ZM305.692 89.168L304.774 88.736C305.47 87.596 305.986 86.366 306.322 85.046C306.67 83.714 306.844 82.364 306.844 80.996C306.844 79.628 306.67 78.284 306.322 76.964C305.986 75.632 305.47 74.396 304.774 73.256L305.692 72.824C306.436 74.024 307.018 75.29 307.438 76.622C307.858 77.954 308.068 79.412 308.068 80.996C308.068 82.58 307.858 84.038 307.438 85.37C307.018 86.69 306.436 87.956 305.692 89.168Z"></path>
<rect stroke-opacity="0.44" stroke="black" rx="3.5" height="47" width="331" y="56.5" x="26.5"></rect>
</svg>
