<svg xmlns="http://www.w3.org/2000/svg" fill="none" viewBox="0 0 873 579" height="579" width="873">
<rect fill="white" height="579" width="873"></rect>
<path fill="#262626" d="M118.631 231.756C119.18 231.206 120.07 231.206 120.619 231.756L129.938 241.074L139.256 231.756C139.805 231.206 140.695 231.206 141.244 231.756C141.794 232.305 141.794 233.195 141.244 233.744L130.932 244.057C130.383 244.606 129.492 244.606 128.943 244.057L118.631 233.744C118.081 233.195 118.081 232.305 118.631 231.756Z" clip-rule="evenodd" fill-rule="evenodd"></path>
<path fill="#262626" d="M171.173 252.5V223.07H176.393V248.09H188.633V252.5H171.173ZM202.099 253.04C200.059 253.04 198.214 252.59 196.564 251.69C194.914 250.76 193.609 249.44 192.649 247.73C191.689 245.99 191.209 243.905 191.209 241.475C191.209 239.075 191.689 237.005 192.649 235.265C193.639 233.525 194.914 232.19 196.474 231.26C198.034 230.33 199.669 229.865 201.379 229.865C203.389 229.865 205.069 230.315 206.419 231.215C207.769 232.085 208.789 233.315 209.479 234.905C210.169 236.465 210.514 238.28 210.514 240.35C210.514 241.43 210.439 242.27 210.289 242.87H196.249C196.489 244.82 197.194 246.335 198.364 247.415C199.534 248.495 201.004 249.035 202.774 249.035C203.734 249.035 204.619 248.9 205.429 248.63C206.269 248.33 207.094 247.925 207.904 247.415L209.659 250.655C208.609 251.345 207.439 251.915 206.149 252.365C204.859 252.815 203.509 253.04 202.099 253.04ZM196.204 239.36H206.014C206.014 237.65 205.639 236.315 204.889 235.355C204.139 234.365 203.014 233.87 201.514 233.87C200.224 233.87 199.069 234.35 198.049 235.31C197.059 236.24 196.444 237.59 196.204 239.36ZM215.367 252.5V230.405H220.542V252.5H215.367ZM217.977 226.535C217.047 226.535 216.297 226.265 215.727 225.725C215.157 225.185 214.872 224.465 214.872 223.565C214.872 222.695 215.157 221.99 215.727 221.45C216.297 220.91 217.047 220.64 217.977 220.64C218.907 220.64 219.657 220.91 220.227 221.45C220.797 221.99 221.082 222.695 221.082 223.565C221.082 224.465 220.797 225.185 220.227 225.725C219.657 226.265 218.907 226.535 217.977 226.535ZM236.504 253.04C234.464 253.04 232.619 252.59 230.969 251.69C229.319 250.76 228.014 249.44 227.054 247.73C226.094 245.99 225.614 243.905 225.614 241.475C225.614 239.075 226.094 237.005 227.054 235.265C228.044 233.525 229.319 232.19 230.879 231.26C232.439 230.33 234.074 229.865 235.784 229.865C237.794 229.865 239.474 230.315 240.824 231.215C242.174 232.085 243.194 233.315 243.884 234.905C244.574 236.465 244.919 238.28 244.919 240.35C244.919 241.43 244.844 242.27 244.694 242.87H230.654C230.894 244.82 231.599 246.335 232.769 247.415C233.939 248.495 235.409 249.035 237.179 249.035C238.139 249.035 239.024 248.9 239.834 248.63C240.674 248.33 241.499 247.925 242.309 247.415L244.064 250.655C243.014 251.345 241.844 251.915 240.554 252.365C239.264 252.815 237.914 253.04 236.504 253.04ZM230.609 239.36H240.419C240.419 237.65 240.044 236.315 239.294 235.355C238.544 234.365 237.419 233.87 235.919 233.87C234.629 233.87 233.474 234.35 232.454 235.31C231.464 236.24 230.849 237.59 230.609 239.36ZM258.69 261.23V230.405H262.965L263.325 232.745H263.505C264.435 231.965 265.47 231.29 266.61 230.72C267.78 230.15 268.965 229.865 270.165 229.865C272.925 229.865 275.055 230.885 276.555 232.925C278.085 234.965 278.85 237.695 278.85 241.115C278.85 243.635 278.4 245.795 277.5 247.595C276.6 249.365 275.43 250.715 273.99 251.645C272.58 252.575 271.05 253.04 269.4 253.04C268.44 253.04 267.48 252.83 266.52 252.41C265.56 251.96 264.63 251.36 263.73 250.61L263.865 254.3V261.23H258.69ZM268.32 248.765C269.79 248.765 271.02 248.12 272.01 246.83C273 245.54 273.495 243.65 273.495 241.16C273.495 238.94 273.12 237.215 272.37 235.985C271.62 234.755 270.405 234.14 268.725 234.14C267.165 234.14 265.545 234.965 263.865 236.615V246.92C264.675 247.58 265.455 248.06 266.205 248.36C266.955 248.63 267.66 248.765 268.32 248.765ZM284.001 252.5V230.405H288.276L288.636 234.32H288.816C289.596 232.88 290.541 231.785 291.651 231.035C292.761 230.255 293.901 229.865 295.071 229.865C296.121 229.865 296.961 230.015 297.591 230.315L296.691 234.815C296.301 234.695 295.941 234.605 295.611 234.545C295.281 234.485 294.876 234.455 294.396 234.455C293.526 234.455 292.611 234.8 291.651 235.49C290.691 236.15 289.866 237.32 289.176 239V252.5H284.001ZM300.698 252.5V230.405H305.873V252.5H300.698ZM303.308 226.535C302.378 226.535 301.628 226.265 301.058 225.725C300.488 225.185 300.203 224.465 300.203 223.565C300.203 222.695 300.488 221.99 301.058 221.45C301.628 220.91 302.378 220.64 303.308 220.64C304.238 220.64 304.988 220.91 305.558 221.45C306.128 221.99 306.413 222.695 306.413 223.565C306.413 224.465 306.128 225.185 305.558 225.725C304.988 226.265 304.238 226.535 303.308 226.535ZM317.335 252.5L309.64 230.405H314.905L318.415 241.88C318.715 242.96 319.015 244.055 319.315 245.165C319.645 246.275 319.96 247.4 320.26 248.54H320.44C320.77 247.4 321.085 246.275 321.385 245.165C321.715 244.055 322.03 242.96 322.33 241.88L325.84 230.405H330.835L323.32 252.5H317.335ZM339.052 253.04C337.132 253.04 335.557 252.44 334.327 251.24C333.127 250.04 332.527 248.48 332.527 246.56C332.527 244.19 333.562 242.36 335.632 241.07C337.702 239.75 341.002 238.85 345.532 238.37C345.502 237.2 345.187 236.195 344.587 235.355C344.017 234.485 342.982 234.05 341.482 234.05C340.402 234.05 339.337 234.26 338.287 234.68C337.267 235.1 336.262 235.61 335.272 236.21L333.382 232.745C334.612 231.965 335.992 231.29 337.522 230.72C339.082 230.15 340.732 229.865 342.472 229.865C345.232 229.865 347.287 230.69 348.637 232.34C350.017 233.96 350.707 236.315 350.707 239.405V252.5H346.432L346.072 250.07H345.892C344.902 250.91 343.837 251.615 342.697 252.185C341.587 252.755 340.372 253.04 339.052 253.04ZM340.717 248.99C341.617 248.99 342.427 248.78 343.147 248.36C343.897 247.91 344.692 247.31 345.532 246.56V241.61C342.532 242 340.447 242.585 339.277 243.365C338.107 244.115 337.522 245.045 337.522 246.155C337.522 247.145 337.822 247.865 338.422 248.315C339.022 248.765 339.787 248.99 340.717 248.99ZM363.892 253.04C361.342 253.04 359.527 252.305 358.447 250.835C357.397 249.335 356.872 247.4 356.872 245.03V234.5H353.722V230.63L357.142 230.405L357.772 224.375H362.092V230.405H367.717V234.5H362.092V245.03C362.092 247.61 363.127 248.9 365.197 248.9C365.587 248.9 365.992 248.855 366.412 248.765C366.832 248.645 367.192 248.525 367.492 248.405L368.392 252.23C367.792 252.44 367.102 252.62 366.322 252.77C365.572 252.95 364.762 253.04 363.892 253.04Z"></path>
<rect fill-opacity="0.19" fill="black" height="3.75" width="703.125" y="285.25" x="84.9375"></rect>
<path fill="#262626" d="M118.631 336.756C119.18 336.206 120.07 336.206 120.619 336.756L129.938 346.074L139.256 336.756C139.805 336.206 140.695 336.206 141.244 336.756C141.794 337.305 141.794 338.195 141.244 338.744L130.932 349.057C130.383 349.606 129.492 349.606 128.943 349.057L118.631 338.744C118.081 338.195 118.081 337.305 118.631 336.756Z" clip-rule="evenodd" fill-rule="evenodd"></path>
<path fill="#262626" d="M171.173 357.5V328.07H176.393V353.09H188.633V357.5H171.173ZM202.099 358.04C200.059 358.04 198.214 357.59 196.564 356.69C194.914 355.76 193.609 354.44 192.649 352.73C191.689 350.99 191.209 348.905 191.209 346.475C191.209 344.075 191.689 342.005 192.649 340.265C193.639 338.525 194.914 337.19 196.474 336.26C198.034 335.33 199.669 334.865 201.379 334.865C203.389 334.865 205.069 335.315 206.419 336.215C207.769 337.085 208.789 338.315 209.479 339.905C210.169 341.465 210.514 343.28 210.514 345.35C210.514 346.43 210.439 347.27 210.289 347.87H196.249C196.489 349.82 197.194 351.335 198.364 352.415C199.534 353.495 201.004 354.035 202.774 354.035C203.734 354.035 204.619 353.9 205.429 353.63C206.269 353.33 207.094 352.925 207.904 352.415L209.659 355.655C208.609 356.345 207.439 356.915 206.149 357.365C204.859 357.815 203.509 358.04 202.099 358.04ZM196.204 344.36H206.014C206.014 342.65 205.639 341.315 204.889 340.355C204.139 339.365 203.014 338.87 201.514 338.87C200.224 338.87 199.069 339.35 198.049 340.31C197.059 341.24 196.444 342.59 196.204 344.36ZM215.367 357.5V335.405H220.542V357.5H215.367ZM217.977 331.535C217.047 331.535 216.297 331.265 215.727 330.725C215.157 330.185 214.872 329.465 214.872 328.565C214.872 327.695 215.157 326.99 215.727 326.45C216.297 325.91 217.047 325.64 217.977 325.64C218.907 325.64 219.657 325.91 220.227 326.45C220.797 326.99 221.082 327.695 221.082 328.565C221.082 329.465 220.797 330.185 220.227 330.725C219.657 331.265 218.907 331.535 217.977 331.535ZM236.504 358.04C234.464 358.04 232.619 357.59 230.969 356.69C229.319 355.76 228.014 354.44 227.054 352.73C226.094 350.99 225.614 348.905 225.614 346.475C225.614 344.075 226.094 342.005 227.054 340.265C228.044 338.525 229.319 337.19 230.879 336.26C232.439 335.33 234.074 334.865 235.784 334.865C237.794 334.865 239.474 335.315 240.824 336.215C242.174 337.085 243.194 338.315 243.884 339.905C244.574 341.465 244.919 343.28 244.919 345.35C244.919 346.43 244.844 347.27 244.694 347.87H230.654C230.894 349.82 231.599 351.335 232.769 352.415C233.939 353.495 235.409 354.035 237.179 354.035C238.139 354.035 239.024 353.9 239.834 353.63C240.674 353.33 241.499 352.925 242.309 352.415L244.064 355.655C243.014 356.345 241.844 356.915 240.554 357.365C239.264 357.815 237.914 358.04 236.504 358.04ZM230.609 344.36H240.419C240.419 342.65 240.044 341.315 239.294 340.355C238.544 339.365 237.419 338.87 235.919 338.87C234.629 338.87 233.474 339.35 232.454 340.31C231.464 341.24 230.849 342.59 230.609 344.36ZM258.69 357.5V325.73H263.775V345.575H263.91L272.1 335.405H277.77L270.21 344.405L278.535 357.5H272.91L267.24 347.915L263.775 351.875V357.5H258.69ZM290.102 358.04C288.272 358.04 286.562 357.59 284.972 356.69C283.382 355.76 282.092 354.44 281.102 352.73C280.112 350.99 279.617 348.905 279.617 346.475C279.617 344.015 280.112 341.93 281.102 340.22C282.092 338.48 283.382 337.16 284.972 336.26C286.562 335.33 288.272 334.865 290.102 334.865C291.962 334.865 293.687 335.33 295.277 336.26C296.867 337.16 298.157 338.48 299.147 340.22C300.137 341.93 300.632 344.015 300.632 346.475C300.632 348.905 300.137 350.99 299.147 352.73C298.157 354.44 296.867 355.76 295.277 356.69C293.687 357.59 291.962 358.04 290.102 358.04ZM290.102 353.81C291.722 353.81 292.997 353.135 293.927 351.785C294.857 350.435 295.322 348.665 295.322 346.475C295.322 344.255 294.857 342.47 293.927 341.12C292.997 339.77 291.722 339.095 290.102 339.095C288.482 339.095 287.207 339.77 286.277 341.12C285.377 342.47 284.927 344.255 284.927 346.475C284.927 348.665 285.377 350.435 286.277 351.785C287.207 353.135 288.482 353.81 290.102 353.81ZM305.664 357.5V335.405H309.939L310.299 338.42H310.479C311.409 337.43 312.414 336.59 313.494 335.9C314.604 335.21 315.849 334.865 317.229 334.865C318.849 334.865 320.139 335.225 321.099 335.945C322.089 336.635 322.839 337.595 323.349 338.825C324.399 337.685 325.494 336.74 326.634 335.99C327.804 335.24 329.079 334.865 330.459 334.865C332.799 334.865 334.524 335.63 335.634 337.16C336.744 338.69 337.299 340.85 337.299 343.64V357.5H332.079V344.315C332.079 342.485 331.794 341.195 331.224 340.445C330.684 339.695 329.844 339.32 328.704 339.32C327.324 339.32 325.779 340.235 324.069 342.065V357.5H318.894V344.315C318.894 342.485 318.609 341.195 318.039 340.445C317.499 339.695 316.644 339.32 315.474 339.32C314.094 339.32 312.549 340.235 310.839 342.065V357.5H305.664ZM343.499 357.5V335.405H347.774L348.134 338.42H348.314C349.244 337.43 350.249 336.59 351.329 335.9C352.439 335.21 353.684 334.865 355.064 334.865C356.684 334.865 357.974 335.225 358.934 335.945C359.924 336.635 360.674 337.595 361.184 338.825C362.234 337.685 363.329 336.74 364.469 335.99C365.639 335.24 366.914 334.865 368.294 334.865C370.634 334.865 372.359 335.63 373.469 337.16C374.579 338.69 375.134 340.85 375.134 343.64V357.5H369.914V344.315C369.914 342.485 369.629 341.195 369.059 340.445C368.519 339.695 367.679 339.32 366.539 339.32C365.159 339.32 363.614 340.235 361.904 342.065V357.5H356.729V344.315C356.729 342.485 356.444 341.195 355.874 340.445C355.334 339.695 354.479 339.32 353.309 339.32C351.929 339.32 350.384 340.235 348.674 342.065V357.5H343.499ZM387.903 358.04C385.533 358.04 383.808 357.275 382.728 355.745C381.648 354.215 381.108 352.055 381.108 349.265V335.405H386.283V348.59C386.283 350.42 386.553 351.71 387.093 352.46C387.633 353.21 388.503 353.585 389.703 353.585C390.663 353.585 391.503 353.345 392.223 352.865C392.973 352.385 393.768 351.605 394.608 350.525V335.405H399.783V357.5H395.553L395.148 354.26H395.013C394.053 355.4 393.003 356.315 391.863 357.005C390.723 357.695 389.403 358.04 387.903 358.04ZM406.248 357.5V335.405H410.523L410.883 338.375H411.063C412.053 337.415 413.133 336.59 414.303 335.9C415.473 335.21 416.808 334.865 418.308 334.865C420.678 334.865 422.403 335.63 423.483 337.16C424.563 338.69 425.103 340.85 425.103 343.64V357.5H419.928V344.315C419.928 342.485 419.658 341.195 419.118 340.445C418.578 339.695 417.693 339.32 416.463 339.32C415.503 339.32 414.648 339.56 413.898 340.04C413.178 340.49 412.353 341.165 411.423 342.065V357.5H406.248ZM436.694 358.04C434.774 358.04 433.199 357.44 431.969 356.24C430.769 355.04 430.169 353.48 430.169 351.56C430.169 349.19 431.204 347.36 433.274 346.07C435.344 344.75 438.644 343.85 443.174 343.37C443.144 342.2 442.829 341.195 442.229 340.355C441.659 339.485 440.624 339.05 439.124 339.05C438.044 339.05 436.979 339.26 435.929 339.68C434.909 340.1 433.904 340.61 432.914 341.21L431.024 337.745C432.254 336.965 433.634 336.29 435.164 335.72C436.724 335.15 438.374 334.865 440.114 334.865C442.874 334.865 444.929 335.69 446.279 337.34C447.659 338.96 448.349 341.315 448.349 344.405V357.5H444.074L443.714 355.07H443.534C442.544 355.91 441.479 356.615 440.339 357.185C439.229 357.755 438.014 358.04 436.694 358.04ZM438.359 353.99C439.259 353.99 440.069 353.78 440.789 353.36C441.539 352.91 442.334 352.31 443.174 351.56V346.61C440.174 347 438.089 347.585 436.919 348.365C435.749 349.115 435.164 350.045 435.164 351.155C435.164 352.145 435.464 352.865 436.064 353.315C436.664 353.765 437.429 353.99 438.359 353.99ZM459.492 358.04C457.662 358.04 456.357 357.485 455.577 356.375C454.827 355.265 454.452 353.75 454.452 351.83V325.73H459.627V352.1C459.627 352.73 459.747 353.18 459.987 353.45C460.227 353.69 460.482 353.81 460.752 353.81C460.872 353.81 460.977 353.81 461.067 353.81C461.187 353.78 461.352 353.75 461.562 353.72L462.237 357.59C461.937 357.71 461.547 357.815 461.067 357.905C460.617 357.995 460.092 358.04 459.492 358.04ZM486.208 358.04C484.108 358.04 482.098 357.08 480.178 355.16H480.043L479.593 357.5H475.498V325.73H480.673V333.92L480.538 337.61C481.468 336.8 482.488 336.14 483.598 335.63C484.708 335.12 485.818 334.865 486.928 334.865C489.688 334.865 491.833 335.885 493.363 337.925C494.893 339.965 495.658 342.68 495.658 346.07C495.658 348.59 495.208 350.75 494.308 352.55C493.408 354.32 492.238 355.685 490.798 356.645C489.388 357.575 487.858 358.04 486.208 358.04ZM485.128 353.765C486.598 353.765 487.828 353.12 488.818 351.83C489.808 350.54 490.303 348.65 490.303 346.16C490.303 343.94 489.928 342.215 489.178 340.985C488.428 339.755 487.213 339.14 485.533 339.14C483.973 339.14 482.353 339.965 480.673 341.615V351.92C481.453 352.58 482.218 353.06 482.968 353.36C483.748 353.63 484.468 353.765 485.128 353.765ZM509.809 358.04C507.979 358.04 506.269 357.59 504.679 356.69C503.089 355.76 501.799 354.44 500.809 352.73C499.819 350.99 499.324 348.905 499.324 346.475C499.324 344.015 499.819 341.93 500.809 340.22C501.799 338.48 503.089 337.16 504.679 336.26C506.269 335.33 507.979 334.865 509.809 334.865C511.669 334.865 513.394 335.33 514.984 336.26C516.574 337.16 517.864 338.48 518.854 340.22C519.844 341.93 520.339 344.015 520.339 346.475C520.339 348.905 519.844 350.99 518.854 352.73C517.864 354.44 516.574 355.76 514.984 356.69C513.394 357.59 511.669 358.04 509.809 358.04ZM509.809 353.81C511.429 353.81 512.704 353.135 513.634 351.785C514.564 350.435 515.029 348.665 515.029 346.475C515.029 344.255 514.564 342.47 513.634 341.12C512.704 339.77 511.429 339.095 509.809 339.095C508.189 339.095 506.914 339.77 505.984 341.12C505.084 342.47 504.634 344.255 504.634 346.475C504.634 348.665 505.084 350.435 505.984 351.785C506.914 353.135 508.189 353.81 509.809 353.81ZM530.411 358.04C528.581 358.04 527.276 357.485 526.496 356.375C525.746 355.265 525.371 353.75 525.371 351.83V325.73H530.546V352.1C530.546 352.73 530.666 353.18 530.906 353.45C531.146 353.69 531.401 353.81 531.671 353.81C531.791 353.81 531.896 353.81 531.986 353.81C532.106 353.78 532.271 353.75 532.481 353.72L533.156 357.59C532.856 357.71 532.466 357.815 531.986 357.905C531.536 357.995 531.011 358.04 530.411 358.04ZM537.498 357.5V335.405H542.673V357.5H537.498ZM540.108 331.535C539.178 331.535 538.428 331.265 537.858 330.725C537.288 330.185 537.003 329.465 537.003 328.565C537.003 327.695 537.288 326.99 537.858 326.45C538.428 325.91 539.178 325.64 540.108 325.64C541.038 325.64 541.788 325.91 542.358 326.45C542.928 326.99 543.213 327.695 543.213 328.565C543.213 329.465 542.928 330.185 542.358 330.725C541.788 331.265 541.038 331.535 540.108 331.535ZM556.881 367.265C555.141 367.265 553.566 367.055 552.156 366.635C550.776 366.215 549.681 365.57 548.871 364.7C548.091 363.86 547.701 362.795 547.701 361.505C547.701 359.675 548.751 358.1 550.851 356.78V356.6C550.281 356.24 549.801 355.76 549.411 355.16C549.051 354.56 548.871 353.81 548.871 352.91C548.871 352.04 549.111 351.26 549.591 350.57C550.101 349.85 550.671 349.265 551.301 348.815V348.635C550.551 348.065 549.876 347.27 549.276 346.25C548.706 345.23 548.421 344.075 548.421 342.785C548.421 341.075 548.826 339.635 549.636 338.465C550.446 337.295 551.511 336.41 552.831 335.81C554.181 335.18 555.621 334.865 557.151 334.865C557.751 334.865 558.321 334.925 558.861 335.045C559.431 335.135 559.941 335.255 560.391 335.405H568.311V339.23H564.261C564.621 339.65 564.921 340.19 565.161 340.85C565.401 341.48 565.521 342.185 565.521 342.965C565.521 344.585 565.146 345.965 564.396 347.105C563.646 348.215 562.641 349.055 561.381 349.625C560.121 350.195 558.711 350.48 557.151 350.48C556.671 350.48 556.176 350.435 555.666 350.345C555.156 350.255 554.646 350.105 554.136 349.895C553.806 350.195 553.536 350.495 553.326 350.795C553.146 351.095 553.056 351.5 553.056 352.01C553.056 352.64 553.311 353.135 553.821 353.495C554.361 353.855 555.306 354.035 556.656 354.035H560.571C563.241 354.035 565.251 354.47 566.601 355.34C567.981 356.18 568.671 357.56 568.671 359.48C568.671 360.92 568.191 362.225 567.231 363.395C566.271 364.595 564.906 365.54 563.136 366.23C561.366 366.92 559.281 367.265 556.881 367.265ZM557.151 347.24C558.201 347.24 559.101 346.85 559.851 346.07C560.601 345.29 560.976 344.195 560.976 342.785C560.976 341.405 560.601 340.34 559.851 339.59C559.131 338.81 558.231 338.42 557.151 338.42C556.071 338.42 555.156 338.795 554.406 339.545C553.656 340.295 553.281 341.375 553.281 342.785C553.281 344.195 553.656 345.29 554.406 346.07C555.156 346.85 556.071 347.24 557.151 347.24ZM557.691 363.89C559.461 363.89 560.901 363.53 562.011 362.81C563.121 362.09 563.676 361.265 563.676 360.335C563.676 359.465 563.331 358.88 562.641 358.58C561.981 358.28 561.021 358.13 559.761 358.13H556.746C555.546 358.13 554.541 358.025 553.731 357.815C552.591 358.685 552.021 359.66 552.021 360.74C552.021 361.73 552.531 362.495 553.551 363.035C554.571 363.605 555.951 363.89 557.691 363.89Z"></path>
<rect fill-opacity="0.19" fill="black" height="3.75" width="703.125" y="390.25" x="84.9375"></rect>
<rect fill-opacity="0.19" fill="black" height="3.75" width="703" y="184" x="84.9375"></rect>
</svg>
