<svg xmlns="http://www.w3.org/2000/svg" fill="none" viewBox="0 0 384 200" height="200" width="384">
<path fill="#262626" d="M48.328 88V77.536H50.184V86.432H54.536V88H48.328ZM59.2441 88.192C58.5935 88.192 57.9855 88.032 57.4201 87.712C56.8548 87.3813 56.3961 86.912 56.0441 86.304C55.6921 85.6853 55.5161 84.944 55.5161 84.08C55.5161 83.2053 55.6921 82.464 56.0441 81.856C56.3961 81.2373 56.8548 80.768 57.4201 80.448C57.9855 80.1173 58.5935 79.952 59.2441 79.952C59.9055 79.952 60.5188 80.1173 61.0841 80.448C61.6495 80.768 62.1081 81.2373 62.4601 81.856C62.8121 82.464 62.9881 83.2053 62.9881 84.08C62.9881 84.944 62.8121 85.6853 62.4601 86.304C62.1081 86.912 61.6495 87.3813 61.0841 87.712C60.5188 88.032 59.9055 88.192 59.2441 88.192ZM59.2441 86.688C59.8201 86.688 60.2735 86.448 60.6041 85.968C60.9348 85.488 61.1001 84.8587 61.1001 84.08C61.1001 83.2907 60.9348 82.656 60.6041 82.176C60.2735 81.696 59.8201 81.456 59.2441 81.456C58.6681 81.456 58.2148 81.696 57.8841 82.176C57.5641 82.656 57.4041 83.2907 57.4041 84.08C57.4041 84.8587 57.5641 85.488 57.8841 85.968C58.2148 86.448 58.6681 86.688 59.2441 86.688ZM64.8414 88V76.704H66.6494V83.76H66.6974L69.6094 80.144H71.6254L68.9374 83.344L71.8974 88H69.8974L67.8814 84.592L66.6494 86V88H64.8414ZM74.9805 88.192C74.2978 88.192 73.7378 87.9787 73.3005 87.552C72.8738 87.1253 72.6605 86.5707 72.6605 85.888C72.6605 85.0453 73.0285 84.3947 73.7645 83.936C74.5005 83.4667 75.6738 83.1467 77.2845 82.976C77.2738 82.56 77.1618 82.2027 76.9485 81.904C76.7458 81.5947 76.3778 81.44 75.8445 81.44C75.4605 81.44 75.0818 81.5147 74.7085 81.664C74.3458 81.8133 73.9885 81.9947 73.6365 82.208L72.9645 80.976C73.4018 80.6987 73.8925 80.4587 74.4365 80.256C74.9912 80.0533 75.5778 79.952 76.1965 79.952C77.1778 79.952 77.9085 80.2453 78.3885 80.832C78.8792 81.408 79.1245 82.2453 79.1245 83.344V88H77.6045L77.4765 87.136H77.4125C77.0605 87.4347 76.6818 87.6853 76.2765 87.888C75.8818 88.0907 75.4498 88.192 74.9805 88.192ZM75.5725 86.752C75.8925 86.752 76.1805 86.6773 76.4365 86.528C76.7032 86.368 76.9858 86.1547 77.2845 85.888V84.128C76.2178 84.2667 75.4765 84.4747 75.0605 84.752C74.6445 85.0187 74.4365 85.3493 74.4365 85.744C74.4365 86.096 74.5432 86.352 74.7565 86.512C74.9698 86.672 75.2418 86.752 75.5725 86.752ZM83.5505 88.192C83.0172 88.192 82.4838 88.0907 81.9505 87.888C81.4172 87.6747 80.9585 87.4133 80.5745 87.104L81.4385 85.92C81.7905 86.1867 82.1425 86.4 82.4945 86.56C82.8465 86.72 83.2198 86.8 83.6145 86.8C84.0412 86.8 84.3558 86.7093 84.5585 86.528C84.7612 86.3467 84.8625 86.1227 84.8625 85.856C84.8625 85.632 84.7772 85.4507 84.6065 85.312C84.4465 85.1627 84.2385 85.0347 83.9825 84.928C83.7265 84.8107 83.4598 84.6987 83.1825 84.592C82.8412 84.464 82.4998 84.3093 82.1585 84.128C81.8278 83.936 81.5558 83.696 81.3425 83.408C81.1292 83.1093 81.0225 82.7413 81.0225 82.304C81.0225 81.6107 81.2785 81.0453 81.7905 80.608C82.3025 80.1707 82.9958 79.952 83.8705 79.952C84.4252 79.952 84.9212 80.048 85.3585 80.24C85.7958 80.432 86.1745 80.6507 86.4945 80.896L85.6465 82.016C85.3692 81.8133 85.0865 81.6533 84.7985 81.536C84.5212 81.408 84.2278 81.344 83.9185 81.344C83.5238 81.344 83.2305 81.4293 83.0385 81.6C82.8465 81.76 82.7505 81.9627 82.7505 82.208C82.7505 82.5173 82.9105 82.752 83.2305 82.912C83.5505 83.072 83.9238 83.2267 84.3505 83.376C84.7132 83.504 85.0652 83.664 85.4065 83.856C85.7478 84.0373 86.0305 84.2773 86.2545 84.576C86.4892 84.8747 86.6065 85.2693 86.6065 85.76C86.6065 86.432 86.3452 87.008 85.8225 87.488C85.2998 87.9573 84.5425 88.192 83.5505 88.192ZM87.6571 91.296C87.3691 91.296 87.1238 91.2747 86.9211 91.232C86.7078 91.1893 86.5265 91.1413 86.3771 91.088L86.7291 89.712C86.8358 89.744 86.9478 89.7707 87.0651 89.792C87.1718 89.824 87.2838 89.84 87.4011 89.84C87.7531 89.84 87.9878 89.7173 88.1051 89.472C88.2331 89.2373 88.2971 88.8907 88.2971 88.432V80.144H90.1531V88.4C90.1531 88.9547 90.0731 89.4507 89.9131 89.888C89.7531 90.3253 89.4918 90.6667 89.1291 90.912C88.7665 91.168 88.2758 91.296 87.6571 91.296ZM89.2251 78.768C88.8945 78.768 88.6278 78.672 88.4251 78.48C88.2225 78.288 88.1211 78.032 88.1211 77.712C88.1211 77.4027 88.2225 77.152 88.4251 76.96C88.6278 76.768 88.8945 76.672 89.2251 76.672C89.5558 76.672 89.8225 76.768 90.0251 76.96C90.2278 77.152 90.3291 77.4027 90.3291 77.712C90.3291 78.032 90.2278 78.288 90.0251 78.48C89.8225 78.672 89.5558 78.768 89.2251 78.768ZM95.7323 88.192C95.0816 88.192 94.4736 88.032 93.9083 87.712C93.3429 87.3813 92.8843 86.912 92.5323 86.304C92.1803 85.6853 92.0043 84.944 92.0043 84.08C92.0043 83.2053 92.1803 82.464 92.5323 81.856C92.8843 81.2373 93.3429 80.768 93.9083 80.448C94.4736 80.1173 95.0816 79.952 95.7323 79.952C96.3936 79.952 97.0069 80.1173 97.5723 80.448C98.1376 80.768 98.5963 81.2373 98.9483 81.856C99.3003 82.464 99.4763 83.2053 99.4763 84.08C99.4763 84.944 99.3003 85.6853 98.9483 86.304C98.5963 86.912 98.1376 87.3813 97.5723 87.712C97.0069 88.032 96.3936 88.192 95.7323 88.192ZM95.7323 86.688C96.3083 86.688 96.7616 86.448 97.0923 85.968C97.4229 85.488 97.5883 84.8587 97.5883 84.08C97.5883 83.2907 97.4229 82.656 97.0923 82.176C96.7616 81.696 96.3083 81.456 95.7323 81.456C95.1563 81.456 94.7029 81.696 94.3723 82.176C94.0523 82.656 93.8923 83.2907 93.8923 84.08C93.8923 84.8587 94.0523 85.488 94.3723 85.968C94.7029 86.448 95.1563 86.688 95.7323 86.688ZM101.329 88V80.144H102.849L102.977 81.2H103.041C103.393 80.8587 103.777 80.5653 104.193 80.32C104.609 80.0747 105.084 79.952 105.617 79.952C106.46 79.952 107.073 80.224 107.457 80.768C107.841 81.312 108.033 82.08 108.033 83.072V88H106.193V83.312C106.193 82.6613 106.097 82.2027 105.905 81.936C105.713 81.6693 105.399 81.536 104.961 81.536C104.62 81.536 104.316 81.6213 104.049 81.792C103.793 81.952 103.5 82.192 103.169 82.512V88H101.329ZM113.675 88.192C112.949 88.192 112.293 88.032 111.707 87.712C111.12 87.3813 110.656 86.912 110.315 86.304C109.973 85.6853 109.803 84.944 109.803 84.08C109.803 83.2267 109.973 82.4907 110.315 81.872C110.667 81.2533 111.12 80.7787 111.675 80.448C112.229 80.1173 112.811 79.952 113.419 79.952C114.133 79.952 114.731 80.112 115.211 80.432C115.691 80.7413 116.053 81.1787 116.299 81.744C116.544 82.2987 116.667 82.944 116.667 83.68C116.667 84.064 116.64 84.3627 116.587 84.576H111.595C111.68 85.2693 111.931 85.808 112.347 86.192C112.763 86.576 113.285 86.768 113.915 86.768C114.256 86.768 114.571 86.72 114.859 86.624C115.157 86.5173 115.451 86.3733 115.739 86.192L116.363 87.344C115.989 87.5893 115.573 87.792 115.115 87.952C114.656 88.112 114.176 88.192 113.675 88.192ZM111.579 83.328H115.067C115.067 82.72 114.933 82.2453 114.667 81.904C114.4 81.552 114 81.376 113.467 81.376C113.008 81.376 112.597 81.5467 112.235 81.888C111.883 82.2187 111.664 82.6987 111.579 83.328ZM118.456 88V80.144H119.976L120.104 81.536H120.168C120.445 81.024 120.781 80.6347 121.176 80.368C121.571 80.0907 121.976 79.952 122.392 79.952C122.765 79.952 123.064 80.0053 123.288 80.112L122.968 81.712C122.829 81.6693 122.701 81.6373 122.584 81.616C122.467 81.5947 122.323 81.584 122.152 81.584C121.843 81.584 121.517 81.7067 121.176 81.952C120.835 82.1867 120.541 82.6027 120.296 83.2V88H118.456Z"></path>
<rect fill="white" rx="4" height="32" width="290" y="96" x="47"></rect>
<rect stroke-opacity="0.65" stroke="black" rx="3.5" height="31" width="289" y="96.5" x="47.5"></rect>
<path fill="#262626" d="M56.616 118V108.624H53.448V107.504H61.128V108.624H57.96V118H56.616ZM63.5423 118.192C62.8916 118.192 62.3476 118 61.9103 117.616C61.4836 117.221 61.2703 116.677 61.2703 115.984C61.2703 115.131 61.6489 114.48 62.4063 114.032C63.1743 113.573 64.3849 113.253 66.0383 113.072C66.0383 112.741 65.9903 112.427 65.8943 112.128C65.8089 111.829 65.6489 111.589 65.4143 111.408C65.1903 111.216 64.8649 111.12 64.4383 111.12C63.9903 111.12 63.5689 111.205 63.1743 111.376C62.7796 111.547 62.4276 111.739 62.1183 111.952L61.6063 111.04C61.9689 110.805 62.4116 110.581 62.9343 110.368C63.4676 110.144 64.0436 110.032 64.6623 110.032C65.6116 110.032 66.2996 110.325 66.7263 110.912C67.1529 111.488 67.3663 112.261 67.3663 113.232V118H66.2783L66.1663 117.072H66.1183C65.7556 117.371 65.3556 117.632 64.9183 117.856C64.4916 118.08 64.0329 118.192 63.5423 118.192ZM63.9263 117.136C64.2996 117.136 64.6516 117.045 64.9823 116.864C65.3129 116.683 65.6649 116.427 66.0383 116.096V113.936C64.7476 114.096 63.8409 114.336 63.3183 114.656C62.8063 114.976 62.5503 115.387 62.5503 115.888C62.5503 116.325 62.6836 116.645 62.9503 116.848C63.2169 117.04 63.5423 117.136 63.9263 117.136ZM72.074 118.192C71.242 118.192 70.6607 117.952 70.33 117.472C70.01 116.992 69.85 116.368 69.85 115.6V111.296H68.698V110.304L69.914 110.224L70.074 108.048H71.178V110.224H73.274V111.296H71.178V115.616C71.178 116.096 71.2633 116.469 71.434 116.736C71.6153 116.992 71.93 117.12 72.378 117.12C72.5167 117.12 72.666 117.099 72.826 117.056C72.986 117.003 73.13 116.955 73.258 116.912L73.514 117.904C73.3007 117.979 73.066 118.043 72.81 118.096C72.5647 118.16 72.3193 118.192 72.074 118.192ZM77.8695 118.192C77.2402 118.192 76.6482 118.032 76.0935 117.712C75.5495 117.392 75.1068 116.928 74.7655 116.32C74.4348 115.712 74.2695 114.981 74.2695 114.128C74.2695 113.253 74.4348 112.512 74.7655 111.904C75.1068 111.296 75.5495 110.832 76.0935 110.512C76.6482 110.192 77.2402 110.032 77.8695 110.032C78.5095 110.032 79.1015 110.192 79.6455 110.512C80.1895 110.832 80.6268 111.296 80.9575 111.904C81.2988 112.512 81.4695 113.253 81.4695 114.128C81.4695 114.981 81.2988 115.712 80.9575 116.32C80.6268 116.928 80.1895 117.392 79.6455 117.712C79.1015 118.032 78.5095 118.192 77.8695 118.192ZM77.8695 117.104C78.5415 117.104 79.0802 116.832 79.4855 116.288C79.9015 115.733 80.1095 115.013 80.1095 114.128C80.1095 113.232 79.9015 112.507 79.4855 111.952C79.0802 111.397 78.5415 111.12 77.8695 111.12C77.2082 111.12 76.6695 111.397 76.2535 111.952C75.8375 112.507 75.6295 113.232 75.6295 114.128C75.6295 115.013 75.8375 115.733 76.2535 116.288C76.6695 116.832 77.2082 117.104 77.8695 117.104ZM86.5734 118.192C85.944 118.192 85.352 118.032 84.7974 117.712C84.2534 117.392 83.8107 116.928 83.4694 116.32C83.1387 115.712 82.9734 114.981 82.9734 114.128C82.9734 113.253 83.1387 112.512 83.4694 111.904C83.8107 111.296 84.2534 110.832 84.7974 110.512C85.352 110.192 85.944 110.032 86.5734 110.032C87.2134 110.032 87.8054 110.192 88.3494 110.512C88.8934 110.832 89.3307 111.296 89.6614 111.904C90.0027 112.512 90.1734 113.253 90.1734 114.128C90.1734 114.981 90.0027 115.712 89.6614 116.32C89.3307 116.928 88.8934 117.392 88.3494 117.712C87.8054 118.032 87.2134 118.192 86.5734 118.192ZM86.5734 117.104C87.2454 117.104 87.784 116.832 88.1894 116.288C88.6054 115.733 88.8134 115.013 88.8134 114.128C88.8134 113.232 88.6054 112.507 88.1894 111.952C87.784 111.397 87.2454 111.12 86.5734 111.12C85.912 111.12 85.3734 111.397 84.9574 111.952C84.5414 112.507 84.3334 113.232 84.3334 114.128C84.3334 115.013 84.5414 115.733 84.9574 116.288C85.3734 116.832 85.912 117.104 86.5734 117.104ZM92.2532 118V110.224H93.5652V118H92.2532ZM92.9252 108.624C92.6692 108.624 92.4559 108.549 92.2852 108.4C92.1252 108.24 92.0452 108.027 92.0452 107.76C92.0452 107.504 92.1252 107.296 92.2852 107.136C92.4559 106.976 92.6692 106.896 92.9252 106.896C93.1812 106.896 93.3892 106.976 93.5492 107.136C93.7199 107.296 93.8052 107.504 93.8052 107.76C93.8052 108.027 93.7199 108.24 93.5492 108.4C93.3892 108.549 93.1812 108.624 92.9252 108.624ZM96.2228 118V110.224H97.3108L97.4228 111.344H97.4708C97.8441 110.971 98.2388 110.661 98.6548 110.416C99.0708 110.16 99.5454 110.032 100.079 110.032C100.9 110.032 101.497 110.293 101.871 110.816C102.255 111.328 102.447 112.08 102.447 113.072V118H101.135V113.248C101.135 112.523 101.017 111.995 100.783 111.664C100.548 111.333 100.175 111.168 99.6628 111.168C99.2681 111.168 98.9108 111.269 98.5908 111.472C98.2814 111.675 97.9294 111.973 97.5348 112.368V118H96.2228ZM108.157 118.192C107.463 118.192 106.834 118.032 106.269 117.712C105.703 117.381 105.255 116.912 104.925 116.304C104.594 115.696 104.429 114.971 104.429 114.128C104.429 113.275 104.594 112.544 104.925 111.936C105.266 111.328 105.703 110.859 106.237 110.528C106.77 110.197 107.33 110.032 107.917 110.032C108.909 110.032 109.671 110.363 110.205 111.024C110.749 111.685 111.021 112.571 111.021 113.68C111.021 113.819 111.015 113.957 111.005 114.096C111.005 114.224 110.994 114.336 110.973 114.432H105.725C105.778 115.253 106.034 115.909 106.493 116.4C106.962 116.891 107.57 117.136 108.317 117.136C108.69 117.136 109.031 117.083 109.341 116.976C109.661 116.859 109.965 116.709 110.253 116.528L110.717 117.392C110.386 117.605 110.007 117.792 109.581 117.952C109.165 118.112 108.69 118.192 108.157 118.192ZM105.709 113.488H109.869C109.869 112.699 109.698 112.101 109.357 111.696C109.026 111.28 108.557 111.072 107.949 111.072C107.405 111.072 106.914 111.285 106.477 111.712C106.05 112.128 105.794 112.72 105.709 113.488Z"></path>
<path fill="#262626" d="M323 115.609L317.862 110.471L318.805 109.529L323 113.724L327.195 109.529L328.138 110.471L323 115.609Z" clip-rule="evenodd" fill-rule="evenodd"></path>
</svg>
