<svg xmlns="http://www.w3.org/2000/svg" fill="none" height="65" width="800">
  <rect fill-opacity=".08" fill="#122B44" rx="4" height="33" width="136" y="16" x="12"></rect>
  <rect stroke-opacity=".21" stroke="#071A36" rx="3.5" height="32" width="135" y="16.5" x="12.5"></rect>
  <path fill="#000" d="M91.1651 38.1541c-.7159 0-1.3406-.164-1.8743-.4922-.5336-.3281-.9479-.7871-1.2429-1.3771-.2949-.59-.4424-1.2794-.4424-2.0682 0-.7921.1475-1.4848.4424-2.0781.295-.5933.7093-1.054 1.2429-1.3821.5337-.3281 1.1584-.4922 1.8743-.4922s1.3407.1641 1.8743.4922c.5336.3281.9479.7888 1.2429 1.3821.295.5933.4425 1.286.4425 2.0781 0 .7888-.1475 1.4782-.4425 2.0682-.295.59-.7093 1.049-1.2429 1.3771-.5336.3282-1.1584.4922-1.8743.4922Zm.005-1.2478c.464 0 .8485-.1227 1.1534-.3679.3049-.2453.5303-.5718.6761-.9795.1492-.4076.2238-.8567.2238-1.3473 0-.4872-.0746-.9346-.2238-1.3423-.1458-.411-.3712-.7407-.6761-.9893-.3049-.2486-.6894-.3729-1.1534-.3729-.4673 0-.8551.1243-1.1634.3729-.3049.2486-.5319.5783-.6811.9893-.1458.4077-.2187.8551-.2187 1.3423 0 .4906.0729.9397.2187 1.3473.1492.4077.3762.7342.6811.9795.3083.2452.6961.3679 1.1634.3679ZM82.8489 38v-7.6364h1.4368v1.2131h.0795c.1392-.411.3845-.7341.7358-.9695.3546-.2386.7557-.3579 1.2031-.3579.0928 0 .2022.0033.3282.0099.1292.0067.2303.0149.3032.0249v1.4219c-.0596-.0166-.1657-.0348-.3182-.0547-.1524-.0232-.3049-.0348-.4573-.0348-.3514 0-.6646.0745-.9397.2237-.2718.1458-.4872.3497-.6463.6115-.1591.2585-.2386.5535-.2386.8849V38h-1.4865Zm-1.6443-7.6364v1.1932h-4.1712v-1.1932h4.1712Zm-3.0526-1.8295h1.4865v7.2237c0 .2884.0431.5055.1293.6513.0861.1425.1972.2403.3331.2933.1392.0497.29.0746.4524.0746.1193 0 .2237-.0083.3132-.0249.0895-.0165.1591-.0298.2088-.0397l.2685 1.2279c-.0862.0332-.2089.0663-.3679.0995-.1591.0364-.358.0563-.5966.0596-.3911.0067-.7557-.0629-1.0938-.2088-.3381-.1458-.6115-.3712-.8203-.6761-.2088-.3049-.3132-.6878-.3132-1.1485v-7.5319Zm-7.3928 4.9318V38h-1.4865v-7.6364h1.4269v1.2429h.0944c.1757-.4043.4508-.7291.8253-.9744.3778-.2453.8535-.3679 1.4268-.3679.5204 0 .9761.1094 1.3672.3281.3911.2155.6944.537.9098.9645.2155.4276.3232.9562.3232 1.586V38h-1.4865v-4.6783c0-.5535-.1442-.986-.4325-1.2976-.2884-.3148-.6845-.4723-1.1883-.4723-.3447 0-.6512.0746-.9197.2238-.2652.1491-.4756.3679-.6314.6562-.1525.2851-.2287.6298-.2287 1.0341Zm-3.6044-5.6477V38h-1.5362V27.8182h1.5362Z"></path>
  <rect fill="#CCE2F0" rx="3.5" height="32" width="135" y="16.5" x="172.5"></rect>
  <rect stroke-linecap="round" stroke="#99C4DD" rx="3.5" height="32" width="135" y="16.5" x="172.5"></rect>
  <path fill="#000" d="M258.542 27.8182V38H257v-8.6406h-.059l-2.436 1.5909v-1.4716l2.54-1.6605h1.497Zm-12.988 13.2045c-.606 0-1.128-.0795-1.566-.2386-.434-.1591-.788-.3696-1.064-.6314-.275-.2619-.48-.5485-.616-.8601l1.278-.527c.089.1458.209.3.358.4624.152.1657.358.3066.616.4226.262.116.598.174 1.009.174.564 0 1.029-.1376 1.397-.4127.368-.2718.552-.7059.552-1.3025v-1.5015h-.094c-.09.1624-.219.3431-.388.5419-.166.1989-.394.3713-.686.5171-.292.1458-.671.2187-1.139.2187-.603 0-1.146-.1408-1.63-.4225-.481-.2851-.862-.7044-1.144-1.2579-.278-.5568-.417-1.2412-.417-2.0532 0-.8121.137-1.5081.412-2.0881.279-.58.66-1.0241 1.144-1.3324.484-.3115 1.032-.4673 1.645-.4673.474 0 .857.0795 1.149.2386.291.1558.518.3381.681.5469.166.2088.293.3928.383.5518h.109v-1.2379H249v7.8054c0 .6563-.153 1.1949-.458 1.6158-.305.4209-.717.7325-1.238.9346-.517.2022-1.1.3033-1.75.3033Zm-.014-4.37c.427 0 .788-.0994 1.083-.2983.299-.2022.524-.4905.676-.8651.156-.3778.234-.8302.234-1.3572 0-.5137-.076-.9662-.229-1.3573-.152-.3911-.376-.696-.671-.9147-.295-.2221-.659-.3331-1.093-.3331-.448 0-.821.116-1.119.348-.298.2287-.524.5402-.676.9346-.149.3945-.224.8353-.224 1.3225 0 .5005.076.9396.229 1.3175.152.3778.378.6728.676.8849.302.2121.673.3182 1.114.3182Zm-8.113 1.5014c-.752 0-1.4-.1607-1.944-.4822-.54-.3248-.958-.7806-1.253-1.3672-.291-.59-.437-1.281-.437-2.0732 0-.7822.146-1.4716.437-2.0682.295-.5966.706-1.0622 1.233-1.397.531-.3347 1.151-.5021 1.86-.5021.431 0 .848.0713 1.253.2138.404.1425.767.3662 1.088.6711.322.305.575.701.761 1.1882.186.4839.278 1.0723.278 1.765v.5269h-6.07v-1.1136h4.614c0-.3911-.08-.7374-.239-1.0391-.159-.3049-.383-.5452-.671-.7208-.285-.1757-.62-.2635-1.004-.2635-.418 0-.782.1027-1.094.3082-.308.2022-.547.4673-.716.7955-.166.3248-.248.6778-.248 1.0589v.87c0 .5105.089.9446.268 1.3026.182.358.436.6314.761.8203.324.1856.704.2784 1.138.2784.282 0 .539-.0398.771-.1193.232-.0829.432-.2055.601-.3679.169-.1624.299-.3629.388-.6016l1.407.2536c-.113.4143-.315.7772-.607 1.0888-.288.3082-.651.5485-1.088.7209-.434.169-.93.2535-1.487.2535Zm-4.853-7.7905v1.1932h-4.172v-1.1932h4.172Zm-3.053-1.8295h1.487v7.2237c0 .2884.043.5055.129.6513.086.1425.197.2403.333.2933.139.0497.29.0746.452.0746.12 0 .224-.0083.314-.0249.089-.0165.159-.0298.208-.0397l.269 1.2279c-.086.0332-.209.0663-.368.0995-.159.0364-.358.0563-.597.0596-.391.0067-.755-.0629-1.093-.2088-.338-.1458-.612-.3712-.821-.6761-.209-.3049-.313-.6878-.313-1.1485v-7.5319Zm-3.849 1.9588c-.053-.4707-.272-.8352-.656-1.0938-.385-.2618-.869-.3927-1.452-.3927-.418 0-.779.0663-1.084.1988-.305.1293-.542.3083-.711.537-.166.2254-.248.4822-.248.7706 0 .2419.056.4507.169.6264.116.1757.266.3232.452.4425.189.116.391.2137.607.2933.215.0762.422.1392.621.1889l.994.2585c.325.0796.658.1873 1 .3232.341.1359.658.3149.949.5369.292.2221.527.4972.706.8253.182.3281.274.7209.274 1.1783 0 .5767-.15 1.0888-.448 1.5362-.295.4474-.724.8004-1.287 1.0589-.561.2586-1.238.3878-2.034.3878-.762 0-1.422-.1209-1.979-.3629-.556-.2419-.992-.585-1.307-1.0291-.315-.4475-.489-.9778-.522-1.5909h1.541c.03.3679.149.6745.358.9197.212.242.482.4226.81.5419.332.116.695.174 1.089.174.434 0 .82-.0679 1.159-.2038.341-.1392.609-.3314.805-.5767.196-.2486.293-.5386.293-.87 0-.3017-.086-.5486-.258-.7408-.169-.1922-.4-.3513-.691-.4773-.289-.1259-.615-.237-.98-.3331l-1.203-.3281c-.815-.2221-1.461-.5485-1.939-.9794-.474-.4309-.711-1.001-.711-1.7102 0-.5867.159-1.0988.478-1.5363.318-.4375.749-.7772 1.292-1.0191.544-.2453 1.157-.3679 1.84-.3679.689 0 1.297.1209 1.824.3629.531.2419.948.575 1.253.9993.305.4209.464.9048.477 1.4517h-1.481Z"></path>
  <rect fill="#CCE2F0" rx="3.5" height="32" width="135" y="16.5" x="324.5"></rect>
  <rect stroke-linecap="round" stroke="#99C4DD" rx="3.5" height="32" width="135" y="16.5" x="324.5"></rect>
  <path fill="#000" d="M405.679 38v-1.1136l3.445-3.5696c.368-.3878.671-.7276.91-1.0192.242-.295.422-.5751.542-.8402.119-.2652.179-.5469.179-.8452 0-.3381-.08-.6297-.239-.875-.159-.2486-.376-.4391-.651-.5717-.275-.1359-.585-.2039-.93-.2039-.365 0-.683.0746-.955.2238-.271.1491-.48.3596-.626.6314-.146.2717-.219.5899-.219.9545h-1.466c0-.6198.142-1.1617.427-1.6257.285-.464.676-.8236 1.173-1.0788.498-.2586 1.063-.3878 1.696-.3878.639 0 1.203.1276 1.69.3828.491.2519.873.5966 1.149 1.0341.275.4342.412.9247.412 1.4716 0 .3778-.071.7474-.214 1.1086-.139.3613-.382.764-.73 1.2081-.348.4408-.832.9761-1.452 1.6059l-2.024 2.1178v.0746h4.584V38h-6.701Zm-9.125 3.0227c-.606 0-1.128-.0795-1.566-.2386-.434-.1591-.788-.3696-1.064-.6314-.275-.2619-.48-.5485-.616-.8601l1.278-.527c.089.1458.209.3.358.4624.152.1657.358.3066.616.4226.262.116.598.174 1.009.174.564 0 1.029-.1376 1.397-.4127.368-.2718.552-.7059.552-1.3025v-1.5015h-.094c-.09.1624-.219.3431-.388.5419-.166.1989-.394.3713-.686.5171-.292.1458-.671.2187-1.139.2187-.603 0-1.146-.1408-1.63-.4225-.481-.2851-.862-.7044-1.144-1.2579-.278-.5568-.417-1.2412-.417-2.0532 0-.8121.137-1.5081.412-2.0881.279-.58.66-1.0241 1.144-1.3324.484-.3115 1.032-.4673 1.645-.4673.474 0 .857.0795 1.149.2386.291.1558.518.3381.681.5469.166.2088.293.3928.383.5518h.109v-1.2379H400v7.8054c0 .6563-.153 1.1949-.458 1.6158-.305.4209-.717.7325-1.238.9346-.517.2022-1.1.3033-1.75.3033Zm-.014-4.37c.427 0 .788-.0994 1.083-.2983.299-.2022.524-.4905.676-.8651.156-.3778.234-.8302.234-1.3572 0-.5137-.076-.9662-.229-1.3573-.152-.3911-.376-.696-.671-.9147-.295-.2221-.659-.3331-1.093-.3331-.448 0-.821.116-1.119.348-.298.2287-.524.5402-.676.9346-.149.3945-.224.8353-.224 1.3225 0 .5005.076.9396.229 1.3175.152.3778.378.6728.676.8849.302.2121.673.3182 1.114.3182Zm-8.113 1.5014c-.752 0-1.4-.1607-1.944-.4822-.54-.3248-.958-.7806-1.253-1.3672-.291-.59-.437-1.281-.437-2.0732 0-.7822.146-1.4716.437-2.0682.295-.5966.706-1.0622 1.233-1.397.531-.3347 1.151-.5021 1.86-.5021.431 0 .848.0713 1.253.2138.404.1425.767.3662 1.088.6711.322.305.575.701.761 1.1882.186.4839.278 1.0723.278 1.765v.5269h-6.07v-1.1136h4.614c0-.3911-.08-.7374-.239-1.0391-.159-.3049-.383-.5452-.671-.7208-.285-.1757-.62-.2635-1.004-.2635-.418 0-.782.1027-1.094.3082-.308.2022-.547.4673-.716.7955-.166.3248-.248.6778-.248 1.0589v.87c0 .5105.089.9446.268 1.3026.182.358.436.6314.761.8203.324.1856.704.2784 1.138.2784.282 0 .539-.0398.771-.1193.232-.0829.432-.2055.601-.3679.169-.1624.299-.3629.388-.6016l1.407.2536c-.113.4143-.315.7772-.607 1.0888-.288.3082-.651.5485-1.088.7209-.434.169-.93.2535-1.487.2535Zm-4.853-7.7905v1.1932h-4.172v-1.1932h4.172Zm-3.053-1.8295h1.487v7.2237c0 .2884.043.5055.129.6513.086.1425.197.2403.333.2933.139.0497.29.0746.452.0746.12 0 .224-.0083.314-.0249.089-.0165.159-.0298.208-.0397l.269 1.2279c-.086.0332-.209.0663-.368.0995-.159.0364-.358.0563-.597.0596-.391.0067-.755-.0629-1.093-.2088-.338-.1458-.612-.3712-.821-.6761-.209-.3049-.313-.6878-.313-1.1485v-7.5319Zm-3.849 1.9588c-.053-.4707-.272-.8352-.656-1.0938-.385-.2618-.869-.3927-1.452-.3927-.418 0-.779.0663-1.084.1988-.305.1293-.542.3083-.711.537-.166.2254-.248.4822-.248.7706 0 .2419.056.4507.169.6264.116.1757.266.3232.452.4425.189.116.391.2137.607.2933.215.0762.422.1392.621.1889l.994.2585c.325.0796.658.1873 1 .3232.341.1359.658.3149.949.5369.292.2221.527.4972.706.8253.182.3281.274.7209.274 1.1783 0 .5767-.15 1.0888-.448 1.5362-.295.4474-.724.8004-1.287 1.0589-.561.2586-1.238.3878-2.034.3878-.762 0-1.422-.1209-1.979-.3629-.556-.2419-.992-.585-1.307-1.0291-.315-.4475-.489-.9778-.522-1.5909h1.541c.03.3679.149.6745.358.9197.212.242.482.4226.81.5419.332.116.695.174 1.089.174.434 0 .82-.0679 1.159-.2038.341-.1392.609-.3314.805-.5767.196-.2486.293-.5386.293-.87 0-.3017-.086-.5486-.258-.7408-.169-.1922-.4-.3513-.691-.4773-.289-.1259-.615-.237-.98-.3331l-1.203-.3281c-.815-.2221-1.461-.5485-1.939-.9794-.474-.4309-.711-1.001-.711-1.7102 0-.5867.159-1.0988.478-1.5363.318-.4375.749-.7772 1.292-1.0191.544-.2453 1.157-.3679 1.84-.3679.689 0 1.297.1209 1.824.3629.531.2419.948.575 1.253.9993.305.4209.464.9048.477 1.4517h-1.481Z"></path>
  <path fill="#CCE2F0" d="M468 18c0-1.1046.895-2 2-2h12c1.105 0 2 .8954 2 2v27c0 1.1046-.895 2-2 2h-12c-1.105 0-2-.8954-2-2V18Z"></path>
  <path fill="#99C4DD" d="M470.5 17c-.204 0-.398.0406-.574.1136-.255.1058-.548-.0152-.653-.2703-.106-.2551.015-.5476.27-.6534.295-.1225.619-.1899.957-.1899h.917c.276 0 .5.2239.5.5s-.224.5-.5.5h-.917Zm2.25-.5c0-.2761.224-.5.5-.5h1.833c.276 0 .5.2239.5.5s-.224.5-.5.5h-1.833c-.276 0-.5-.2239-.5-.5Zm3.667 0c0-.2761.224-.5.5-.5h1.833c.276 0 .5.2239.5.5s-.224.5-.5.5h-1.833c-.276 0-.5-.2239-.5-.5Zm3.666 0c0-.2761.224-.5.5-.5h.917c.338 0 .662.0674.957.1899.255.1058.376.3983.27.6534-.105.2551-.398.3761-.653.2703-.176-.073-.37-.1136-.574-.1136h-.917c-.276 0-.5-.2239-.5-.5Zm-11.24.7726c.255.1057.376.3983.271.6534-.073.1761-.114.3697-.114.574v.9286c0 .2761-.224.5-.5.5s-.5-.2239-.5-.5V18.5c0-.3381.067-.6616.19-.9571.106-.2551.398-.3761.653-.2703Zm14.314 0c.255-.1058.547.0152.653.2703.123.2955.19.619.19.9571v.9286c0 .2761-.224.5-.5.5s-.5-.2239-.5-.5V18.5c0-.2043-.041-.3979-.114-.574-.105-.2551.016-.5477.271-.6534Zm.343 3.5131c.276 0 .5.2239.5.5v1.8572c0 .2761-.224.5-.5.5s-.5-.2239-.5-.5v-1.8572c0-.2761.224-.5.5-.5Zm-15 0c.276 0 .5.2239.5.5v1.8572c0 .2761-.224.5-.5.5s-.5-.2239-.5-.5v-1.8572c0-.2761.224-.5.5-.5Zm15 3.7143c.276 0 .5.2239.5.5v1.8571c0 .2762-.224.5-.5.5s-.5-.2238-.5-.5V25c0-.2761.224-.5.5-.5Zm-15 0c.276 0 .5.2239.5.5v1.8571c0 .2762-.224.5-.5.5s-.5-.2238-.5-.5V25c0-.2761.224-.5.5-.5Zm15 3.7143c.276 0 .5.2238.5.5v1.8571c0 .2762-.224.5-.5.5s-.5-.2238-.5-.5v-1.8571c0-.2762.224-.5.5-.5Zm-15 0c.276 0 .5.2238.5.5v1.8571c0 .2762-.224.5-.5.5s-.5-.2238-.5-.5v-1.8571c0-.2762.224-.5.5-.5Zm15 3.7143c.276 0 .5.2238.5.5v1.8571c0 .2762-.224.5-.5.5s-.5-.2238-.5-.5v-1.8571c0-.2762.224-.5.5-.5Zm-15 0c.276 0 .5.2238.5.5v1.8571c0 .2762-.224.5-.5.5s-.5-.2238-.5-.5v-1.8571c0-.2762.224-.5.5-.5Zm15 3.7143c.276 0 .5.2238.5.5V38c0 .2761-.224.5-.5.5s-.5-.2239-.5-.5v-1.8571c0-.2762.224-.5.5-.5Zm-15 0c.276 0 .5.2238.5.5V38c0 .2761-.224.5-.5.5s-.5-.2239-.5-.5v-1.8571c0-.2762.224-.5.5-.5Zm15 3.7142c.276 0 .5.2239.5.5v1.8572c0 .2761-.224.5-.5.5s-.5-.2239-.5-.5v-1.8572c0-.2761.224-.5.5-.5Zm-15 0c.276 0 .5.2239.5.5v1.8572c0 .2761-.224.5-.5.5s-.5-.2239-.5-.5v-1.8572c0-.2761.224-.5.5-.5Zm0 3.7143c.276 0 .5.2239.5.5V44.5c0 .2043.041.3979.114.574.105.2551-.016.5477-.271.6534-.255.1058-.547-.0152-.653-.2703-.123-.2955-.19-.619-.19-.9571v-.9286c0-.2761.224-.5.5-.5Zm15 0c.276 0 .5.2239.5.5V44.5c0 .3381-.067.6616-.19.9571-.106.2551-.398.3761-.653.2703-.255-.1057-.376-.3983-.271-.6534.073-.1761.114-.3697.114-.574v-.9286c0-.2761.224-.5.5-.5Zm-14.227 3.0853c.105-.2551.398-.3761.653-.2703.176.073.37.1136.574.1136h.917c.276 0 .5.2239.5.5s-.224.5-.5.5h-.917c-.338 0-.662-.0674-.957-.1899-.255-.1058-.376-.3983-.27-.6534Zm13.454 0c.106.2551-.015.5476-.27.6534-.295.1225-.619.1899-.957.1899h-.917c-.276 0-.5-.2239-.5-.5s.224-.5.5-.5h.917c.204 0 .398-.0406.574-.1136.255-.1058.548.0152.653.2703Zm-9.977.3433c0-.2761.224-.5.5-.5h1.833c.276 0 .5.2239.5.5s-.224.5-.5.5h-1.833c-.276 0-.5-.2239-.5-.5Zm3.667 0c0-.2761.224-.5.5-.5h1.833c.276 0 .5.2239.5.5s-.224.5-.5.5h-1.833c-.276 0-.5-.2239-.5-.5Z" clip-rule="evenodd" fill-rule="evenodd"></path>
  <rect fill="#CCE2F0" rx="3.5" height="32" width="135" y="16.5" x="492.5"></rect>
  <rect stroke-linecap="round" stroke="#99C4DD" rx="3.5" height="32" width="135" y="16.5" x="492.5"></rect>
  <path fill="#000" d="M606.764 41.0227c-.607 0-1.129-.0795-1.567-.2386-.434-.1591-.788-.3696-1.063-.6314-.276-.2618-.481-.5485-.617-.8601l1.278-.527c.089.1459.209.3.358.4624.152.1657.358.3066.616.4226.262.116.598.174 1.009.174.564 0 1.03-.1376 1.397-.4127.368-.2717.552-.7059.552-1.3025V36.608h-.094c-.09.1624-.219.343-.388.5419-.166.1988-.394.3712-.686.517-.292.1458-.671.2188-1.139.2188-.603 0-1.146-.1409-1.63-.4226-.481-.2851-.862-.7043-1.144-1.2578-.278-.5569-.417-1.2413-.417-2.0533s.137-1.5081.412-2.0881c.279-.58.66-1.0241 1.144-1.3324.484-.3115 1.032-.4673 1.645-.4673.474 0 .857.0796 1.149.2386.292.1558.519.3381.681.5469.166.2088.293.3928.383.5519h.109v-1.238h1.457v7.8054c0 .6563-.153 1.1949-.458 1.6158-.304.4209-.717.7325-1.237.9347-.518.2021-1.101.3032-1.75.3032Zm-.015-4.37c.427 0 .788-.0994 1.083-.2983.299-.2022.524-.4905.677-.8651.155-.3778.233-.8302.233-1.3572 0-.5137-.076-.9661-.228-1.3572-.153-.3911-.377-.6961-.672-.9148-.295-.2221-.659-.3331-1.093-.3331-.448 0-.821.116-1.119.348-.298.2287-.524.5402-.676.9347-.149.3944-.224.8352-.224 1.3224 0 .5005.076.9396.229 1.3175.152.3778.378.6728.676.8849.302.2121.673.3182 1.114.3182Zm-10.068-3.1868V38h-1.486v-7.6364h1.426v1.2429h.095c.176-.4043.451-.7291.825-.9744.378-.2453.854-.3679 1.427-.3679.52 0 .976.1094 1.367.3281.391.2155.695.537.91.9645.215.4276.323.9562.323 1.586V38h-1.486v-4.6783c0-.5535-.144-.986-.433-1.2976-.288-.3148-.684-.4723-1.188-.4723-.345 0-.651.0746-.92.2238-.265.1491-.475.3679-.631.6562-.153.2851-.229.6298-.229 1.0341ZM591.708 38v-7.6364h1.487V38h-1.487Zm.751-8.8146c-.259 0-.481-.0862-.666-.2586-.182-.1756-.274-.3844-.274-.6264 0-.2452.092-.4541.274-.6264.185-.1757.407-.2635.666-.2635.259 0 .479.0878.661.2635.186.1723.279.3812.279.6264 0 .242-.093.4508-.279.6264-.182.1724-.402.2586-.661.2586ZM586.335 38v-7.6364h1.437v1.2131h.08c.139-.411.384-.7341.735-.9695.355-.2386.756-.3579 1.203-.3579.093 0 .203.0033.329.0099.129.0067.23.0149.303.0249v1.4219c-.06-.0166-.166-.0348-.318-.0547-.153-.0232-.305-.0348-.458-.0348-.351 0-.664.0745-.939.2237-.272.1458-.488.3497-.647.6115-.159.2585-.238.5535-.238.8849V38h-1.487Zm-4.925.1541c-.753 0-1.401-.1607-1.944-.4822-.541-.3248-.958-.7806-1.253-1.3672-.292-.59-.438-1.281-.438-2.0732 0-.7822.146-1.4716.438-2.0681.295-.5966.706-1.0623 1.233-1.3971.53-.3347 1.15-.5021 1.859-.5021.431 0 .849.0713 1.253.2138.404.1425.767.3662 1.089.6711.321.305.575.701.76 1.1883.186.4839.279 1.0722.279 1.7649v.527h-6.07v-1.1137h4.613c0-.3911-.079-.7374-.238-1.039-.159-.305-.383-.5453-.672-.7209-.285-.1757-.619-.2635-1.004-.2635-.417 0-.782.1027-1.094.3082-.308.2022-.546.4674-.715.7955-.166.3248-.249.6778-.249 1.0589v.8701c0 .5104.089.9446.268 1.3025.183.358.436.6314.761.8203.325.1856.704.2784 1.139.2784.281 0 .538-.0397.77-.1193.232-.0828.433-.2055.602-.3679.169-.1624.298-.3629.387-.6015l1.407.2535c-.112.4143-.314.7772-.606 1.0888-.288.3082-.651.5485-1.089.7209-.434.169-.93.2535-1.486.2535ZM565.745 38v-7.6364h1.427v1.2429h.095c.159-.4209.419-.749.78-.9843.362-.2387.794-.358 1.298-.358.51 0 .938.1193 1.282.358.349.2386.605.5667.771.9843h.08c.182-.4076.472-.7324.87-.9744.397-.2453.871-.3679 1.422-.3679.692 0 1.257.2171 1.695.6513.441.4342.661 1.0888.661 1.9638V38h-1.486v-4.9815c0-.5171-.141-.8916-.423-1.1236-.282-.232-.618-.348-1.009-.348-.484 0-.86.1491-1.129.4474-.268.295-.403.6745-.403 1.1385V38h-1.481v-5.076c0-.4143-.129-.7474-.388-.9993-.258-.2519-.595-.3778-1.009-.3778-.282 0-.542.0746-.781.2237-.235.1458-.425.3497-.571.6115-.143.2618-.214.5651-.214.9098V38h-1.487Zm-12.373 0v-7.6364h1.427v1.2429h.095c.159-.4209.419-.749.78-.9843.361-.2387.794-.358 1.298-.358.51 0 .938.1193 1.282.358.348.2386.605.5667.771.9843h.08c.182-.4076.472-.7324.87-.9744.397-.2453.871-.3679 1.421-.3679.693 0 1.258.2171 1.696.6513.441.4342.661 1.0888.661 1.9638V38h-1.486v-4.9815c0-.5171-.141-.8916-.423-1.1236-.282-.232-.618-.348-1.009-.348-.484 0-.86.1491-1.129.4474-.268.295-.403.6745-.403 1.1385V38h-1.481v-5.076c0-.4143-.129-.7474-.388-.9993-.258-.2519-.595-.3778-1.009-.3778-.282 0-.542.0746-.781.2237-.235.1458-.426.3497-.571.6115-.143.2618-.214.5651-.214.9098V38h-1.487Zm-3.488-3.1669v-4.4695h1.491V38h-1.462v-1.3224h-.079c-.176.4076-.458.7473-.845 1.0191-.385.2685-.864.4027-1.437.4027-.491 0-.925-.1077-1.303-.3231-.374-.2188-.669-.5419-.885-.9695-.212-.4275-.318-.9562-.318-1.5859v-4.8573h1.487v4.6783c0 .5204.144.9347.432 1.2429.289.3082.663.4624 1.124.4624.278 0 .555-.0696.83-.2089.278-.1392.509-.3496.691-.6313.186-.2818.277-.6397.274-1.0739Zm-6.621-2.6051-1.348.2386c-.056-.1723-.146-.3364-.268-.4922-.119-.1557-.282-.2833-.487-.3828-.206-.0994-.463-.1491-.771-.1491-.421 0-.772.0944-1.054.2834-.282.1856-.423.4259-.423.7208 0 .2552.095.4607.284.6165.189.1558.494.2834.915.3828l1.213.2784c.702.1624 1.226.4127 1.571.7507.344.3381.517.7773.517 1.3175 0 .4574-.133.8651-.398 1.223-.262.3547-.628.6331-1.099.8353-.467.2021-1.009.3032-1.625.3032-.856 0-1.553-.1823-2.093-.5469-.541-.3679-.872-.8899-.995-1.566l1.437-.2188c.09.3746.273.658.552.8502.278.1889.641.2834 1.089.2834.487 0 .876-.1011 1.168-.3033.292-.2055.437-.4557.437-.7507 0-.2386-.089-.4392-.268-.6016-.176-.1624-.446-.285-.81-.3679l-1.293-.2834c-.713-.1624-1.24-.4209-1.581-.7755-.338-.3547-.507-.8038-.507-1.3473 0-.4508.126-.8452.378-1.1833.252-.338.6-.6015 1.044-.7904.444-.1923.953-.2884 1.526-.2884.825 0 1.475.179 1.949.5369.474.3547.787.8303.94 1.4269ZM528.9 40.8636v-10.5h1.451v1.238h.125c.086-.1591.21-.3431.373-.5519.162-.2088.387-.3911.676-.5469.288-.159.669-.2386 1.143-.2386.617 0 1.167.1558 1.651.4673.484.3116.863.7607 1.138 1.3473.279.5867.418 1.2926.418 2.1179 0 .8253-.138 1.5329-.413 2.1229-.275.5867-.653 1.0391-1.133 1.3572-.481.3149-1.029.4723-1.646.4723-.464 0-.843-.0778-1.138-.2336-.292-.1558-.521-.3381-.687-.5469-.165-.2088-.293-.3944-.382-.5568h-.09v4.0518H528.9Zm1.456-6.6818c0 .537.078 1.0076.234 1.412.156.4043.381.7208.676.9495.295.2254.656.3381 1.084.3381.444 0 .815-.1177 1.114-.353.298-.2386.523-.5618.676-.9695.156-.4076.233-.8667.233-1.3771 0-.5038-.076-.9562-.228-1.3572-.149-.4011-.375-.7176-.676-.9496-.299-.232-.672-.348-1.119-.348-.431 0-.795.111-1.094.3331-.295.2221-.518.5319-.671.9297-.152.3977-.229.8617-.229 1.392Zm-10.097 6.6818v-10.5h1.452v1.238h.124c.086-.1591.211-.3431.373-.5519.162-.2088.388-.3911.676-.5469.288-.159.67-.2386 1.144-.2386.616 0 1.166.1558 1.65.4673.484.3116.863.7607 1.139 1.3473.278.5867.417 1.2926.417 2.1179 0 .8253-.137 1.5329-.412 2.1229-.276.5867-.653 1.0391-1.134 1.3572-.481.3149-1.029.4723-1.646.4723-.464 0-.843-.0778-1.138-.2336-.292-.1558-.52-.3381-.686-.5469-.166-.2088-.293-.3944-.383-.5568h-.089v4.0518h-1.487Zm1.457-6.6818c0 .537.078 1.0076.233 1.412.156.4043.382.7208.677.9495.295.2254.656.3381 1.083.3381.444 0 .816-.1177 1.114-.353.298-.2386.524-.5618.676-.9695.156-.4076.234-.8667.234-1.3771 0-.5038-.076-.9562-.229-1.3572-.149-.4011-.374-.7176-.676-.9496-.298-.232-.671-.348-1.119-.348-.431 0-.795.111-1.093.3331-.295.2221-.519.5319-.672.9297-.152.3977-.228.8617-.228 1.392Zm-3.253-1.2727c0 1.0871-.199 2.0218-.597 2.804-.397.7788-.942 1.3787-1.635 1.7997-.69.4176-1.473.6264-2.352.6264-.881 0-1.669-.2088-2.361-.6264-.69-.421-1.233-1.0225-1.631-1.8047-.398-.7822-.597-1.7152-.597-2.799 0-1.0871.199-2.0201.597-2.799.398-.7822.941-1.3821 1.631-1.7997.692-.421 1.48-.6314 2.361-.6314.879 0 1.662.2104 2.352.6314.693.4176 1.238 1.0175 1.635 1.7997.398.7789.597 1.7119.597 2.799Zm-1.521 0c0-.8286-.134-1.5263-.403-2.0931-.265-.57-.63-1.0009-1.094-1.2926-.46-.295-.982-.4424-1.566-.4424-.586 0-1.11.1474-1.571.4424-.46.2917-.825.7226-1.093 1.2926-.266.5668-.398 1.2645-.398 2.0931 0 .8286.132 1.5279.398 2.098.268.5668.633.9976 1.093 1.2926.461.2917.985.4375 1.571.4375.584 0 1.106-.1458 1.566-.4375.464-.295.829-.7258 1.094-1.2926.269-.5701.403-1.2694.403-2.098Z"></path>
  <path fill="#005B82" d="M172 9c-.951 0-1.855.18908-2.679.53077-.51.21155-1.095-.03051-1.307-.54067-.212-.51016.03-1.09523.541-1.30678C169.617 7.24269 170.782 7 172 7h3c.552 0 1 .44772 1 1s-.448 1-1 1h-3Zm8-1c0-.55228.448-1 1-1h6c.552 0 1 .44772 1 1s-.448 1-1 1h-6c-.552 0-1-.44772-1-1Zm12 0c0-.55228.448-1 1-1h6c.552 0 1 .44772 1 1s-.448 1-1 1h-6c-.552 0-1-.44772-1-1Zm12 0c0-.55228.448-1 1-1h6c.552 0 1 .44772 1 1s-.448 1-1 1h-6c-.552 0-1-.44772-1-1Zm12 0c0-.55228.448-1 1-1h6c.552 0 1 .44772 1 1s-.448 1-1 1h-6c-.552 0-1-.44772-1-1Zm12 0c0-.55228.448-1 1-1h6c.552 0 1 .44772 1 1s-.448 1-1 1h-6c-.552 0-1-.44772-1-1Zm12 0c0-.55228.448-1 1-1h6c.552 0 1 .44772 1 1s-.448 1-1 1h-6c-.552 0-1-.44772-1-1Zm12 0c0-.55228.448-1 1-1h6c.552 0 1 .44772 1 1s-.448 1-1 1h-6c-.552 0-1-.44772-1-1Zm12 0c0-.55228.448-1 1-1h6c.552 0 1 .44772 1 1s-.448 1-1 1h-6c-.552 0-1-.44772-1-1Zm12 0c0-.55228.448-1 1-1h6c.552 0 1 .44772 1 1s-.448 1-1 1h-6c-.552 0-1-.44772-1-1Zm12 0c0-.55228.448-1 1-1h6c.552 0 1 .44772 1 1s-.448 1-1 1h-6c-.552 0-1-.44772-1-1Zm12 0c0-.55228.448-1 1-1h6c.552 0 1 .44772 1 1s-.448 1-1 1h-6c-.552 0-1-.44772-1-1Zm12 0c0-.55228.448-1 1-1h6c.552 0 1 .44772 1 1s-.448 1-1 1h-6c-.552 0-1-.44772-1-1Zm12 0c0-.55228.448-1 1-1h6c.552 0 1 .44772 1 1s-.448 1-1 1h-6c-.552 0-1-.44772-1-1Zm12 0c0-.55228.448-1 1-1h6c.552 0 1 .44772 1 1s-.448 1-1 1h-6c-.552 0-1-.44772-1-1Zm12 0c0-.55228.448-1 1-1h6c.552 0 1 .44772 1 1s-.448 1-1 1h-6c-.552 0-1-.44772-1-1Zm12 0c0-.55228.448-1 1-1h6c.552 0 1 .44772 1 1s-.448 1-1 1h-6c-.552 0-1-.44772-1-1Zm12 0c0-.55228.448-1 1-1h6c.552 0 1 .44772 1 1s-.448 1-1 1h-6c-.552 0-1-.44772-1-1Zm12 0c0-.55228.448-1 1-1h6c.552 0 1 .44772 1 1s-.448 1-1 1h-6c-.552 0-1-.44772-1-1Zm12 0c0-.55228.448-1 1-1h6c.552 0 1 .44772 1 1s-.448 1-1 1h-6c-.552 0-1-.44772-1-1Zm12 0c0-.55228.448-1 1-1h6c.552 0 1 .44772 1 1s-.448 1-1 1h-6c-.552 0-1-.44772-1-1Zm12 0c0-.55228.448-1 1-1h6c.552 0 1 .44772 1 1s-.448 1-1 1h-6c-.552 0-1-.44772-1-1Zm12 0c0-.55228.448-1 1-1h6c.552 0 1 .44772 1 1s-.448 1-1 1h-6c-.552 0-1-.44772-1-1Zm12 0c0-.55228.448-1 1-1h6c.552 0 1 .44772 1 1s-.448 1-1 1h-6c-.552 0-1-.44772-1-1Zm12 0c0-.55228.448-1 1-1h6c.552 0 1 .44772 1 1s-.448 1-1 1h-6c-.552 0-1-.44772-1-1Zm12 0c0-.55228.448-1 1-1h6c.552 0 1 .44772 1 1s-.448 1-1 1h-6c-.552 0-1-.44772-1-1Zm12 0c0-.55228.448-1 1-1h6c.552 0 1 .44772 1 1s-.448 1-1 1h-6c-.552 0-1-.44772-1-1Zm12 0c0-.55228.448-1 1-1h6c.552 0 1 .44772 1 1s-.448 1-1 1h-6c-.552 0-1-.44772-1-1Zm12 0c0-.55228.448-1 1-1h6c.552 0 1 .44772 1 1s-.448 1-1 1h-6c-.552 0-1-.44772-1-1Zm12 0c0-.55228.448-1 1-1h6c.552 0 1 .44772 1 1s-.448 1-1 1h-6c-.552 0-1-.44772-1-1Zm12 0c0-.55228.448-1 1-1h6c.552 0 1 .44772 1 1s-.448 1-1 1h-6c-.552 0-1-.44772-1-1Zm12 0c0-.55228.448-1 1-1h6c.552 0 1 .44772 1 1s-.448 1-1 1h-6c-.552 0-1-.44772-1-1Zm12 0c0-.55228.448-1 1-1h6c.552 0 1 .44772 1 1s-.448 1-1 1h-6c-.552 0-1-.44772-1-1Zm12 0c0-.55228.448-1 1-1h6c.552 0 1 .44772 1 1s-.448 1-1 1h-6c-.552 0-1-.44772-1-1Zm12 0c0-.55228.448-1 1-1h6c.552 0 1 .44772 1 1s-.448 1-1 1h-6c-.552 0-1-.44772-1-1Zm12 0c0-.55228.448-1 1-1h6c.552 0 1 .44772 1 1s-.448 1-1 1h-6c-.552 0-1-.44772-1-1Zm12 0c0-.55228.448-1 1-1h6c.552 0 1 .44772 1 1s-.448 1-1 1h-6c-.552 0-1-.44772-1-1Zm12 0c0-.55228.448-1 1-1h6c.552 0 1 .44772 1 1s-.448 1-1 1h-6c-.552 0-1-.44772-1-1Zm12 0c0-.55228.448-1 1-1h3c1.218 0 2.383.24269 3.445.68332.511.21155.753.79662.541 1.30678-.212.51016-.797.75223-1.307.54067C629.855 9.18909 628.951 9 628 9h-3c-.552 0-1-.44772-1-1Zm11.01 4.014c.51-.2116 1.095.0305 1.307.5406.44 1.0626.683 2.2269.683 3.4454v2.75c0 .5523-.448 1-1 1s-1-.4477-1-1V16c0-.951-.189-1.8553-.531-2.6792-.211-.5102.031-1.0953.541-1.3068Zm-470.02 0c.51.2115.752.7966.541 1.3068-.342.8239-.531 1.7282-.531 2.6792v2.75c0 .5523-.448 1-1 1s-1-.4477-1-1V16c0-1.2185.243-2.3828.683-3.4454.212-.5101.797-.7522 1.307-.5406ZM164 23.25c.552 0 1 .4477 1 1v5.5c0 .5523-.448 1-1 1s-1-.4477-1-1v-5.5c0-.5523.448-1 1-1Zm472 0c.552 0 1 .4477 1 1v5.5c0 .5523-.448 1-1 1s-1-.4477-1-1v-5.5c0-.5523.448-1 1-1Zm-472 11c.552 0 1 .4477 1 1v5.5c0 .5523-.448 1-1 1s-1-.4477-1-1v-5.5c0-.5523.448-1 1-1Zm472 0c.552 0 1 .4477 1 1v5.5c0 .5523-.448 1-1 1s-1-.4477-1-1v-5.5c0-.5523.448-1 1-1Zm-472 11c.552 0 1 .4477 1 1V49c0 .951.189 1.8553.531 2.6792.211.5102-.031 1.0953-.541 1.3068-.51.2116-1.095-.0305-1.307-.5406-.44-1.0626-.683-2.2269-.683-3.4454v-2.75c0-.5523.448-1 1-1Zm472 0c.552 0 1 .4477 1 1V49c0 1.2185-.243 2.3828-.683 3.4454-.212.5101-.797.7522-1.307.5406-.51-.2115-.752-.7966-.541-1.3068.342-.8239.531-1.7282.531-2.6792v-2.75c0-.5523.448-1 1-1ZM168.014 56.0099c.212-.5102.797-.7522 1.307-.5407.824.3417 1.728.5308 2.679.5308h3c.552 0 1 .4477 1 1s-.448 1-1 1h-3c-1.218 0-2.383-.2427-3.445-.6833-.511-.2116-.753-.7966-.541-1.3068Zm463.972 0c.212.5102-.03 1.0952-.541 1.3068-1.062.4406-2.227.6833-3.445.6833h-3c-.552 0-1-.4477-1-1s.448-1 1-1h3c.951 0 1.855-.1891 2.679-.5308.51-.2115 1.095.0305 1.307.5407ZM180 57c0-.5523.448-1 1-1h6c.552 0 1 .4477 1 1s-.448 1-1 1h-6c-.552 0-1-.4477-1-1Zm12 0c0-.5523.448-1 1-1h6c.552 0 1 .4477 1 1s-.448 1-1 1h-6c-.552 0-1-.4477-1-1Zm12 0c0-.5523.448-1 1-1h6c.552 0 1 .4477 1 1s-.448 1-1 1h-6c-.552 0-1-.4477-1-1Zm12 0c0-.5523.448-1 1-1h6c.552 0 1 .4477 1 1s-.448 1-1 1h-6c-.552 0-1-.4477-1-1Zm12 0c0-.5523.448-1 1-1h6c.552 0 1 .4477 1 1s-.448 1-1 1h-6c-.552 0-1-.4477-1-1Zm12 0c0-.5523.448-1 1-1h6c.552 0 1 .4477 1 1s-.448 1-1 1h-6c-.552 0-1-.4477-1-1Zm12 0c0-.5523.448-1 1-1h6c.552 0 1 .4477 1 1s-.448 1-1 1h-6c-.552 0-1-.4477-1-1Zm12 0c0-.5523.448-1 1-1h6c.552 0 1 .4477 1 1s-.448 1-1 1h-6c-.552 0-1-.4477-1-1Zm12 0c0-.5523.448-1 1-1h6c.552 0 1 .4477 1 1s-.448 1-1 1h-6c-.552 0-1-.4477-1-1Zm12 0c0-.5523.448-1 1-1h6c.552 0 1 .4477 1 1s-.448 1-1 1h-6c-.552 0-1-.4477-1-1Zm12 0c0-.5523.448-1 1-1h6c.552 0 1 .4477 1 1s-.448 1-1 1h-6c-.552 0-1-.4477-1-1Zm12 0c0-.5523.448-1 1-1h6c.552 0 1 .4477 1 1s-.448 1-1 1h-6c-.552 0-1-.4477-1-1Zm12 0c0-.5523.448-1 1-1h6c.552 0 1 .4477 1 1s-.448 1-1 1h-6c-.552 0-1-.4477-1-1Zm12 0c0-.5523.448-1 1-1h6c.552 0 1 .4477 1 1s-.448 1-1 1h-6c-.552 0-1-.4477-1-1Zm12 0c0-.5523.448-1 1-1h6c.552 0 1 .4477 1 1s-.448 1-1 1h-6c-.552 0-1-.4477-1-1Zm12 0c0-.5523.448-1 1-1h6c.552 0 1 .4477 1 1s-.448 1-1 1h-6c-.552 0-1-.4477-1-1Zm12 0c0-.5523.448-1 1-1h6c.552 0 1 .4477 1 1s-.448 1-1 1h-6c-.552 0-1-.4477-1-1Zm12 0c0-.5523.448-1 1-1h6c.552 0 1 .4477 1 1s-.448 1-1 1h-6c-.552 0-1-.4477-1-1Zm12 0c0-.5523.448-1 1-1h6c.552 0 1 .4477 1 1s-.448 1-1 1h-6c-.552 0-1-.4477-1-1Zm12 0c0-.5523.448-1 1-1h6c.552 0 1 .4477 1 1s-.448 1-1 1h-6c-.552 0-1-.4477-1-1Zm12 0c0-.5523.448-1 1-1h6c.552 0 1 .4477 1 1s-.448 1-1 1h-6c-.552 0-1-.4477-1-1Zm12 0c0-.5523.448-1 1-1h6c.552 0 1 .4477 1 1s-.448 1-1 1h-6c-.552 0-1-.4477-1-1Zm12 0c0-.5523.448-1 1-1h6c.552 0 1 .4477 1 1s-.448 1-1 1h-6c-.552 0-1-.4477-1-1Zm12 0c0-.5523.448-1 1-1h6c.552 0 1 .4477 1 1s-.448 1-1 1h-6c-.552 0-1-.4477-1-1Zm12 0c0-.5523.448-1 1-1h6c.552 0 1 .4477 1 1s-.448 1-1 1h-6c-.552 0-1-.4477-1-1Zm12 0c0-.5523.448-1 1-1h6c.552 0 1 .4477 1 1s-.448 1-1 1h-6c-.552 0-1-.4477-1-1Zm12 0c0-.5523.448-1 1-1h6c.552 0 1 .4477 1 1s-.448 1-1 1h-6c-.552 0-1-.4477-1-1Zm12 0c0-.5523.448-1 1-1h6c.552 0 1 .4477 1 1s-.448 1-1 1h-6c-.552 0-1-.4477-1-1Zm12 0c0-.5523.448-1 1-1h6c.552 0 1 .4477 1 1s-.448 1-1 1h-6c-.552 0-1-.4477-1-1Zm12 0c0-.5523.448-1 1-1h6c.552 0 1 .4477 1 1s-.448 1-1 1h-6c-.552 0-1-.4477-1-1Zm12 0c0-.5523.448-1 1-1h6c.552 0 1 .4477 1 1s-.448 1-1 1h-6c-.552 0-1-.4477-1-1Zm12 0c0-.5523.448-1 1-1h6c.552 0 1 .4477 1 1s-.448 1-1 1h-6c-.552 0-1-.4477-1-1Zm12 0c0-.5523.448-1 1-1h6c.552 0 1 .4477 1 1s-.448 1-1 1h-6c-.552 0-1-.4477-1-1Zm12 0c0-.5523.448-1 1-1h6c.552 0 1 .4477 1 1s-.448 1-1 1h-6c-.552 0-1-.4477-1-1Zm12 0c0-.5523.448-1 1-1h6c.552 0 1 .4477 1 1s-.448 1-1 1h-6c-.552 0-1-.4477-1-1Zm12 0c0-.5523.448-1 1-1h6c.552 0 1 .4477 1 1s-.448 1-1 1h-6c-.552 0-1-.4477-1-1Zm12 0c0-.5523.448-1 1-1h6c.552 0 1 .4477 1 1s-.448 1-1 1h-6c-.552 0-1-.4477-1-1Z" clip-rule="evenodd" fill-rule="evenodd"></path>
  <rect fill-opacity=".08" fill="#122B44" rx="4" height="33" width="136" y="16" x="652"></rect>
  <rect stroke-opacity=".21" stroke="#071A36" rx="3.5" height="32" width="135" y="16.5" x="652.5"></rect>
  <path fill="#000" d="M747.633 41.0227c-.607 0-1.129-.0795-1.566-.2386-.435-.1591-.789-.3696-1.064-.6314s-.481-.5485-.617-.8601l1.278-.527c.089.1459.209.3.358.4624.152.1657.358.3066.616.4226.262.116.599.174 1.01.174.563 0 1.029-.1376 1.397-.4127.367-.2717.551-.7059.551-1.3025V36.608h-.094c-.09.1624-.219.343-.388.5419-.166.1988-.394.3712-.686.517-.292.1458-.671.2188-1.138.2188-.604 0-1.147-.1409-1.631-.4226-.481-.2851-.862-.7043-1.144-1.2578-.278-.5569-.417-1.2413-.417-2.0533s.137-1.5081.412-2.0881c.279-.58.66-1.0241 1.144-1.3324.484-.3115 1.032-.4673 1.646-.4673.473 0 .856.0796 1.148.2386.292.1558.519.3381.681.5469.166.2088.293.3928.383.5519h.109v-1.238h1.457v7.8054c0 .6563-.153 1.1949-.457 1.6158-.305.4209-.718.7325-1.238.9347-.517.2021-1.101.3032-1.75.3032Zm-.015-4.37c.427 0 .789-.0994 1.084-.2983.298-.2022.523-.4905.676-.8651.155-.3778.233-.8302.233-1.3572 0-.5137-.076-.9661-.228-1.3572-.153-.3911-.377-.6961-.672-.9148-.295-.2221-.659-.3331-1.093-.3331-.448 0-.821.116-1.119.348-.298.2287-.524.5402-.676.9347-.149.3944-.224.8352-.224 1.3224 0 .5005.076.9396.229 1.3175.152.3778.378.6728.676.8849.302.2121.673.3182 1.114.3182Zm-10.068-3.1868V38h-1.486v-7.6364h1.427v1.2429h.094c.176-.4043.451-.7291.825-.9744.378-.2453.854-.3679 1.427-.3679.521 0 .976.1094 1.367.3281.391.2155.695.537.91.9645.216.4276.323.9562.323 1.586V38h-1.486v-4.6783c0-.5535-.144-.986-.433-1.2976-.288-.3148-.684-.4723-1.188-.4723-.345 0-.651.0746-.92.2238-.265.1491-.475.3679-.631.6562-.153.2851-.229.6298-.229 1.0341ZM732.577 38v-7.6364h1.487V38h-1.487Zm.751-8.8146c-.258 0-.48-.0862-.666-.2586-.182-.1756-.274-.3844-.274-.6264 0-.2452.092-.4541.274-.6264.186-.1757.408-.2635.666-.2635.259 0 .479.0878.661.2635.186.1723.279.3812.279.6264 0 .242-.093.4508-.279.6264-.182.1724-.402.2586-.661.2586ZM727.204 38v-7.6364h1.437v1.2131h.08c.139-.411.384-.7341.736-.9695.354-.2386.755-.3579 1.203-.3579.092 0 .202.0033.328.0099.129.0067.23.0149.303.0249v1.4219c-.06-.0166-.166-.0348-.318-.0547-.153-.0232-.305-.0348-.458-.0348-.351 0-.664.0745-.939.2237-.272.1458-.487.3497-.646.6115-.16.2585-.239.5535-.239.8849V38h-1.487Zm-4.925.1541c-.753 0-1.401-.1607-1.944-.4822-.54-.3248-.958-.7806-1.253-1.3672-.292-.59-.437-1.281-.437-2.0732 0-.7822.145-1.4716.437-2.0681.295-.5966.706-1.0623 1.233-1.3971.53-.3347 1.15-.5021 1.859-.5021.431 0 .849.0713 1.253.2138.405.1425.767.3662 1.089.6711.321.305.575.701.761 1.1883.185.4839.278 1.0722.278 1.7649v.527h-6.07v-1.1137h4.613c0-.3911-.079-.7374-.238-1.039-.159-.305-.383-.5453-.671-.7209-.285-.1757-.62-.2635-1.005-.2635-.417 0-.782.1027-1.093.3082-.309.2022-.547.4674-.716.7955-.166.3248-.249.6778-.249 1.0589v.8701c0 .5104.09.9446.269 1.3025.182.358.435.6314.76.8203.325.1856.704.2784 1.139.2784.281 0 .538-.0397.77-.1193.232-.0828.433-.2055.602-.3679.169-.1624.298-.3629.388-.6015l1.407.2535c-.113.4143-.315.7772-.607 1.0888-.288.3082-.651.5485-1.089.7209-.434.169-.929.2535-1.486.2535Zm-4.854-7.7905v1.1932h-4.171v-1.1932h4.171Zm-3.052-1.8295h1.486v7.2237c0 .2884.043.5055.129.6513.087.1425.198.2403.334.2933.139.0497.29.0746.452.0746.119 0 .224-.0083.313-.0249.09-.0165.159-.0298.209-.0397l.268 1.2279c-.086.0332-.208.0663-.367.0995-.16.0364-.358.0563-.597.0596-.391.0067-.756-.0629-1.094-.2088-.338-.1458-.611-.3712-.82-.6761-.209-.3049-.313-.6878-.313-1.1485v-7.5319Zm-2.157 1.8295v1.1932h-4.171v-1.1932h4.171Zm-3.052-1.8295h1.486v7.2237c0 .2884.043.5055.129.6513.087.1425.198.2403.334.2933.139.0497.29.0746.452.0746.119 0 .224-.0083.313-.0249.09-.0165.159-.0298.209-.0397l.268 1.2279c-.086.0332-.208.0663-.367.0995-.16.0364-.358.0563-.597.0596-.391.0067-.756-.0629-1.094-.2088-.338-.1458-.611-.3712-.82-.6761-.209-.3049-.313-.6878-.313-1.1485v-7.5319ZM705.165 38v-7.6364h1.487V38h-1.487Zm.751-8.8146c-.259 0-.481-.0862-.666-.2586-.182-.1756-.274-.3844-.274-.6264 0-.2452.092-.4541.274-.6264.185-.1757.407-.2635.666-.2635.259 0 .479.0878.661.2635.186.1723.279.3812.279.6264 0 .242-.093.4508-.279.6264-.182.1724-.402.2586-.661.2586Zm-2.148 1.1782L700.999 38h-1.591l-2.774-7.6364h1.596l1.934 5.8765h.079l1.929-5.8765h1.596ZM688.619 38V27.8182h1.536v4.8622h.124l4.271-4.8622h1.934l-4.107 4.5838L696.499 38h-1.85l-3.291-4.549-1.203 1.3821V38h-1.536Z"></path>
</svg>
