<svg xmlns="http://www.w3.org/2000/svg" fill="none" viewBox="0 0 200 200" height="200" width="200">
<path fill="white" d="M24 61C24 54.3726 29.3726 49 36 49H164C170.627 49 176 54.3726 176 61V131C176 137.627 170.627 143 164 143H36C29.3726 143 24 137.627 24 131V61Z"></path>
<path fill="#417DA0" d="M164 140V143H36V140H164ZM173 131V61C173 56.0294 168.971 52 164 52H36C31.0294 52 27 56.0294 27 61V131C27 135.971 31.0294 140 36 140V143C29.3726 143 24 137.627 24 131V61C24 54.3726 29.3726 49 36 49H164C170.627 49 176 54.3726 176 61V131C176 137.627 170.627 143 164 143V140C168.971 140 173 135.971 173 131Z"></path>
<rect fill="#417DA0" rx="4" height="8" width="42" y="65" x="36"></rect>
<rect fill="#C0D6E4" rx="4" height="8" width="128" y="87" x="36"></rect>
<rect fill="#C0D6E4" rx="4" height="8" width="128" y="103" x="36"></rect>
<rect fill="#C0D6E4" rx="4" height="8" width="68" y="119" x="36"></rect>
</svg>
