<svg xmlns="http://www.w3.org/2000/svg" fill="none" viewBox="0 0 200 200" height="200" width="200">
<path fill="white" d="M56 78C56 71.3726 61.3726 66 68 66H160C166.627 66 172 71.3726 172 78V121C172 127.627 166.627 133 160 133H68C61.3726 133 56 127.627 56 121V78Z"></path>
<mask fill="white" id="path-2-inside-1_4412_3230">
<path d="M160 131V133H68V131H160ZM170 121V78C170 72.4772 165.523 68 160 68H68C62.4772 68 58 72.4772 58 78V121C58 126.523 62.4772 131 68 131V133C61.3726 133 56 127.627 56 121V78C56 71.3726 61.3726 66 68 66H160C166.627 66 172 71.3726 172 78V121L171.996 121.31C171.832 127.794 166.524 133 160 133V131C165.523 131 170 126.523 170 121Z"></path>
</mask>
<path mask="url(#path-2-inside-1_4412_3230)" fill-opacity="0.247059" fill="#005A92" d="M172 121L221.996 121.631L222 121.315V121H172ZM171.996 121.31L221.98 122.575L221.988 122.258L221.992 121.94L171.996 121.31ZM160 131H110V133H160H210V131H160ZM160 133V83H68V133V183H160V133ZM68 133H118V131H68H18V133H68ZM68 131V181H160V131V81H68V131ZM170 121H220V78H170H120V121H170ZM170 78H220C220 44.8629 193.137 18 160 18V68V118C137.909 118 120 100.091 120 78H170ZM160 68V18H68V68V118H160V68ZM68 68V18C34.8629 18 8 44.8629 8 78H58H108C108 100.091 90.0914 118 68 118V68ZM58 78H8V121H58H108V78H58ZM58 121H8C8 154.137 34.8629 181 68 181V131V81C90.0914 81 108 98.9086 108 121H58ZM68 131H18V133H68H118V131H68ZM68 133V83C88.9868 83 106 100.013 106 121H56H6C6 155.242 33.7583 183 68 183V133ZM56 121H106V78H56H6V121H56ZM56 78H106C106 98.9868 88.9868 116 68 116V66V16C33.7583 16 6 43.7583 6 78H56ZM68 66V116H160V66V16H68V66ZM160 66V116C139.013 116 122 98.9868 122 78H172H222C222 43.7583 194.242 16 160 16V66ZM172 78H122V121H172H222V78H172ZM172 121L122.004 120.369L122 120.679L171.996 121.31L221.992 121.94L221.996 121.631L172 121ZM171.996 121.31L122.012 120.044C122.533 99.4848 139.334 83 160 83V133V183C193.714 183 221.131 156.103 221.98 122.575L171.996 121.31ZM160 133H210V131H160H110V133H160ZM160 131V181C193.137 181 220 154.137 220 121H170H120C120 98.9086 137.909 81 160 81V131Z"></path>
<path fill="#417DA0" d="M67 84C67 81.7909 68.7909 80 71 80H156C158.209 80 160 81.7909 160 84C160 86.2091 158.209 88 156 88H71C68.7909 88 67 86.2091 67 84Z"></path>
<path fill="#417DA0" d="M67 100C67 97.7909 68.7909 96 71 96H156C158.209 96 160 97.7909 160 100C160 102.209 158.209 104 156 104H71C68.7909 104 67 102.209 67 100Z"></path>
<path fill="#417DA0" d="M67 116C67 113.791 68.7909 112 71 112H111C113.209 112 115 113.791 115 116C115 118.209 113.209 120 111 120H71C68.7909 120 67 118.209 67 116Z"></path>
<path fill="#417DA0" d="M25 88C25 81.3726 30.3726 76 37 76C43.6274 76 49 81.3726 49 88C49 94.6274 43.6274 100 37 100C30.3726 100 25 94.6274 25 88Z"></path>
<path fill="#C0D6E4" d="M37.0476 81C35.3645 81 34 82.3645 34 84.0476C34 84.5999 33.5523 85.0476 33 85.0476C32.4477 85.0476 32 84.5999 32 84.0476C32 81.2599 34.2599 79 37.0476 79H37.268C39.934 79 42.0952 81.1612 42.0952 83.8272C42.0952 85.2936 41.4286 86.6806 40.2836 87.5966L39.6961 88.0666C38.6542 88.9001 38.0476 90.1622 38.0476 91.4965V92.1429C38.0476 92.6951 37.5999 93.1429 37.0476 93.1429C36.4953 93.1429 36.0476 92.6951 36.0476 92.1429V91.4965C36.0476 89.5546 36.9303 87.718 38.4467 86.5048L39.0342 86.0349C39.7048 85.4984 40.0952 84.6861 40.0952 83.8272C40.0952 82.2658 38.8295 81 37.268 81H37.0476Z" clip-rule="evenodd" fill-rule="evenodd"></path>
<path fill="#C0D6E4" d="M38.2619 95.7857C38.2619 96.4563 37.7183 97 37.0476 97C36.377 97 35.8333 96.4563 35.8333 95.7857C35.8333 95.1151 36.377 94.5714 37.0476 94.5714C37.7183 94.5714 38.2619 95.1151 38.2619 95.7857Z"></path>
<path fill="#C0D6E4" d="M37.0476 95C36.6137 95 36.2619 95.3518 36.2619 95.7857C36.2619 96.2197 36.6137 96.5714 37.0476 96.5714C37.4816 96.5714 37.8333 96.2197 37.8333 95.7857C37.8333 95.3518 37.4816 95 37.0476 95ZM37.0476 97C37.7183 97 38.2619 96.4563 38.2619 95.7857C38.2619 95.1151 37.7183 94.5714 37.0476 94.5714C36.377 94.5714 35.8333 95.1151 35.8333 95.7857C35.8333 96.4563 36.377 97 37.0476 97Z" clip-rule="evenodd" fill-rule="evenodd"></path>
</svg>
