<svg xmlns="http://www.w3.org/2000/svg" fill="none" viewBox="0 0 200 200" height="200" width="200">
<path fill="#E3EFF7" d="M145.265 122.844C145.265 124.469 144.401 125.972 142.996 126.789L99.6327 152L56.2697 126.789C54.8645 125.972 54 124.469 54 122.844V74.5308L97.3391 49.3336C98.757 48.5092 100.508 48.5092 101.926 49.3336L145.265 74.5308V122.844Z"></path>
<path fill="#E3EFF7" d="M119.795 100.001C119.795 111.136 110.768 120.163 99.6327 120.163C88.4969 120.163 79.4692 111.136 79.4692 100.001C79.4692 88.8648 88.4965 79.8375 99.6322 79.8375C110.768 79.8375 119.795 88.8648 119.795 100.001Z"></path>
<path fill="#417DA0" d="M95.8312 46.7401C98.1813 45.3737 101.084 45.3737 103.434 46.7401L146.773 71.9372C147.697 72.4743 148.265 73.4622 148.265 74.5308V122.844C148.265 125.538 146.832 128.029 144.504 129.383L101.141 154.594C100.208 155.136 99.057 155.136 98.1248 154.594L54.7618 129.383C52.4329 128.029 51 125.538 51 122.844V74.5308C51 73.4622 51.5684 72.4743 52.4921 71.9372L95.8312 46.7401ZM100.418 51.9271C99.9326 51.6447 99.3327 51.6447 98.8469 51.9271L60.0707 74.4715L84.11 87.8266C85.5583 88.6313 86.0802 90.4577 85.2755 91.906C84.4709 93.3544 82.6445 93.8762 81.1961 93.0716L57 79.6293V122.844C57 123.401 57.2962 123.916 57.7775 124.196L96.6327 146.786V120.163C96.6327 118.507 97.9758 117.163 99.6327 117.163C101.29 117.163 102.633 118.507 102.633 120.163V146.786L141.488 124.196C141.969 123.916 142.265 123.401 142.265 122.844V79.6293L118.069 93.0716C116.621 93.8762 114.794 93.3544 113.99 91.906C113.185 90.4577 113.707 88.6313 115.155 87.8266L139.195 74.4715L100.418 51.9271Z" clip-rule="evenodd" fill-rule="evenodd"></path>
<path fill="#417DA0" d="M99.6322 114.163C107.454 114.163 113.795 107.822 113.795 100C113.795 92.1784 107.454 85.8374 99.6322 85.8374C91.8102 85.8374 85.4692 92.1784 85.4692 100C85.4692 107.822 91.8102 114.163 99.6322 114.163ZM99.6322 120.163C110.768 120.163 119.795 111.136 119.795 100C119.795 88.8647 110.768 79.8374 99.6322 79.8374C88.4965 79.8374 79.4692 88.8647 79.4692 100C79.4692 111.136 88.4965 120.163 99.6322 120.163Z" clip-rule="evenodd" fill-rule="evenodd"></path>
</svg>
