<svg xmlns="http://www.w3.org/2000/svg" fill="none" viewBox="0 0 384 268" height="268" width="384">
<g clip-path="url(#clip0_6511_104179)">
<path fill="#262626" d="M25.66 87V73.92H27.98V87H25.66ZM31.0845 87V77.18H32.9845L33.1445 78.5H33.2245C33.6645 78.0733 34.1445 77.7067 34.6645 77.4C35.1845 77.0933 35.7779 76.94 36.4445 76.94C37.4979 76.94 38.2645 77.28 38.7445 77.96C39.2245 78.64 39.4645 79.6 39.4645 80.84V87H37.1645V81.14C37.1645 80.3267 37.0445 79.7533 36.8045 79.42C36.5645 79.0867 36.1712 78.92 35.6245 78.92C35.1979 78.92 34.8179 79.0267 34.4845 79.24C34.1645 79.44 33.7979 79.74 33.3845 80.14V87H31.0845ZM45.6759 91.34C44.9026 91.34 44.2026 91.2467 43.5759 91.06C42.9626 90.8733 42.4759 90.5867 42.1159 90.2C41.7693 89.8267 41.5959 89.3533 41.5959 88.78C41.5959 87.9667 42.0626 87.2667 42.9959 86.68V86.6C42.7426 86.44 42.5293 86.2267 42.3559 85.96C42.1959 85.6933 42.1159 85.36 42.1159 84.96C42.1159 84.5733 42.2226 84.2267 42.4359 83.92C42.6626 83.6 42.9159 83.34 43.1959 83.14V83.06C42.8626 82.8067 42.5626 82.4533 42.2959 82C42.0426 81.5467 41.9159 81.0333 41.9159 80.46C41.9159 79.7 42.0959 79.06 42.4559 78.54C42.8159 78.02 43.2893 77.6267 43.8759 77.36C44.4759 77.08 45.1159 76.94 45.7959 76.94C46.0626 76.94 46.3159 76.9667 46.5559 77.02C46.8093 77.06 47.0359 77.1133 47.2359 77.18H50.7559V78.88H48.9559C49.1159 79.0667 49.2493 79.3067 49.3559 79.6C49.4626 79.88 49.5159 80.1933 49.5159 80.54C49.5159 81.26 49.3493 81.8733 49.0159 82.38C48.6826 82.8733 48.2359 83.2467 47.6759 83.5C47.1159 83.7533 46.4893 83.88 45.7959 83.88C45.5826 83.88 45.3626 83.86 45.1359 83.82C44.9093 83.78 44.6826 83.7133 44.4559 83.62C44.3093 83.7533 44.1893 83.8867 44.0959 84.02C44.0159 84.1533 43.9759 84.3333 43.9759 84.56C43.9759 84.84 44.0893 85.06 44.3159 85.22C44.5559 85.38 44.9759 85.46 45.5759 85.46H47.3159C48.5026 85.46 49.3959 85.6533 49.9959 86.04C50.6093 86.4133 50.9159 87.0267 50.9159 87.88C50.9159 88.52 50.7026 89.1 50.2759 89.62C49.8493 90.1533 49.2426 90.5733 48.4559 90.88C47.6693 91.1867 46.7426 91.34 45.6759 91.34ZM45.7959 82.44C46.2626 82.44 46.6626 82.2667 46.9959 81.92C47.3293 81.5733 47.4959 81.0867 47.4959 80.46C47.4959 79.8467 47.3293 79.3733 46.9959 79.04C46.6759 78.6933 46.2759 78.52 45.7959 78.52C45.3159 78.52 44.9093 78.6867 44.5759 79.02C44.2426 79.3533 44.0759 79.8333 44.0759 80.46C44.0759 81.0867 44.2426 81.5733 44.5759 81.92C44.9093 82.2667 45.3159 82.44 45.7959 82.44ZM46.0359 89.84C46.8226 89.84 47.4626 89.68 47.9559 89.36C48.4493 89.04 48.6959 88.6733 48.6959 88.26C48.6959 87.8733 48.5426 87.6133 48.2359 87.48C47.9426 87.3467 47.5159 87.28 46.9559 87.28H45.6159C45.0826 87.28 44.6359 87.2333 44.2759 87.14C43.7693 87.5267 43.5159 87.96 43.5159 88.44C43.5159 88.88 43.7426 89.22 44.1959 89.46C44.6493 89.7133 45.2626 89.84 46.0359 89.84ZM52.6266 87V77.18H54.5266L54.6866 78.92H54.7666C55.1132 78.28 55.5332 77.7933 56.0266 77.46C56.5199 77.1133 57.0266 76.94 57.5466 76.94C58.0132 76.94 58.3866 77.0067 58.6666 77.14L58.2666 79.14C58.0932 79.0867 57.9332 79.0467 57.7866 79.02C57.6399 78.9933 57.4599 78.98 57.2466 78.98C56.8599 78.98 56.4532 79.1333 56.0266 79.44C55.5999 79.7333 55.2332 80.2533 54.9266 81V87H52.6266ZM64.0722 87.24C63.1655 87.24 62.3455 87.04 61.6122 86.64C60.8789 86.2267 60.2989 85.64 59.8722 84.88C59.4455 84.1067 59.2322 83.18 59.2322 82.1C59.2322 81.0333 59.4455 80.1133 59.8722 79.34C60.3122 78.5667 60.8789 77.9733 61.5722 77.56C62.2655 77.1467 62.9922 76.94 63.7522 76.94C64.6455 76.94 65.3922 77.14 65.9922 77.54C66.5922 77.9267 67.0455 78.4733 67.3522 79.18C67.6589 79.8733 67.8122 80.68 67.8122 81.6C67.8122 82.08 67.7789 82.4533 67.7122 82.72H61.4722C61.5789 83.5867 61.8922 84.26 62.4122 84.74C62.9322 85.22 63.5855 85.46 64.3722 85.46C64.7989 85.46 65.1922 85.4 65.5522 85.28C65.9255 85.1467 66.2922 84.9667 66.6522 84.74L67.4322 86.18C66.9655 86.4867 66.4455 86.74 65.8722 86.94C65.2989 87.14 64.6989 87.24 64.0722 87.24ZM61.4522 81.16H65.8122C65.8122 80.4 65.6455 79.8067 65.3122 79.38C64.9789 78.94 64.4789 78.72 63.8122 78.72C63.2389 78.72 62.7255 78.9333 62.2722 79.36C61.8322 79.7733 61.5589 80.3733 61.4522 81.16ZM73.4289 87.24C72.2022 87.24 71.2222 86.7867 70.4889 85.88C69.7556 84.9733 69.3889 83.7133 69.3889 82.1C69.3889 81.0333 69.5822 80.1133 69.9689 79.34C70.3689 78.5667 70.8889 77.9733 71.5289 77.56C72.1689 77.1467 72.8422 76.94 73.5489 76.94C74.1089 76.94 74.5822 77.04 74.9689 77.24C75.3689 77.4267 75.7556 77.6867 76.1289 78.02L76.0489 76.44V72.88H78.3489V87H76.4489L76.2889 85.94H76.2089C75.8489 86.3 75.4289 86.6067 74.9489 86.86C74.4689 87.1133 73.9622 87.24 73.4289 87.24ZM73.9889 85.34C74.7222 85.34 75.4089 84.9733 76.0489 84.24V79.66C75.7156 79.3533 75.3822 79.14 75.0489 79.02C74.7156 78.9 74.3822 78.84 74.0489 78.84C73.4222 78.84 72.8822 79.1267 72.4289 79.7C71.9889 80.26 71.7689 81.0533 71.7689 82.08C71.7689 83.1333 71.9622 83.94 72.3489 84.5C72.7356 85.06 73.2822 85.34 73.9889 85.34ZM81.258 87V77.18H83.558V87H81.258ZM82.418 75.46C82.0046 75.46 81.6713 75.34 81.418 75.1C81.1646 74.86 81.038 74.54 81.038 74.14C81.038 73.7533 81.1646 73.44 81.418 73.2C81.6713 72.96 82.0046 72.84 82.418 72.84C82.8313 72.84 83.1646 72.96 83.418 73.2C83.6713 73.44 83.798 73.7533 83.798 74.14C83.798 74.54 83.6713 74.86 83.418 75.1C83.1646 75.34 82.8313 75.46 82.418 75.46ZM90.6723 87.24C89.7657 87.24 88.9457 87.04 88.2123 86.64C87.479 86.2267 86.899 85.64 86.4723 84.88C86.0457 84.1067 85.8323 83.18 85.8323 82.1C85.8323 81.0333 86.0457 80.1133 86.4723 79.34C86.9123 78.5667 87.479 77.9733 88.1723 77.56C88.8657 77.1467 89.5923 76.94 90.3523 76.94C91.2457 76.94 91.9923 77.14 92.5923 77.54C93.1923 77.9267 93.6457 78.4733 93.9523 79.18C94.259 79.8733 94.4123 80.68 94.4123 81.6C94.4123 82.08 94.379 82.4533 94.3123 82.72H88.0723C88.179 83.5867 88.4923 84.26 89.0123 84.74C89.5323 85.22 90.1857 85.46 90.9723 85.46C91.399 85.46 91.7923 85.4 92.1523 85.28C92.5257 85.1467 92.8923 84.9667 93.2523 84.74L94.0323 86.18C93.5657 86.4867 93.0457 86.74 92.4723 86.94C91.899 87.14 91.299 87.24 90.6723 87.24ZM88.0523 81.16H92.4123C92.4123 80.4 92.2457 79.8067 91.9123 79.38C91.579 78.94 91.079 78.72 90.4123 78.72C89.839 78.72 89.3257 78.9333 88.8723 79.36C88.4323 79.7733 88.159 80.3733 88.0523 81.16ZM96.5891 87V77.18H98.4891L98.6491 78.5H98.7291C99.1691 78.0733 99.6491 77.7067 100.169 77.4C100.689 77.0933 101.282 76.94 101.949 76.94C103.002 76.94 103.769 77.28 104.249 77.96C104.729 78.64 104.969 79.6 104.969 80.84V87H102.669V81.14C102.669 80.3267 102.549 79.7533 102.309 79.42C102.069 79.0867 101.676 78.92 101.129 78.92C100.702 78.92 100.322 79.0267 99.9891 79.24C99.6691 79.44 99.3024 79.74 98.8891 80.14V87H96.5891ZM110.5 87.24C109.834 87.24 109.167 87.1133 108.5 86.86C107.834 86.5933 107.26 86.2667 106.78 85.88L107.86 84.4C108.3 84.7333 108.74 85 109.18 85.2C109.62 85.4 110.087 85.5 110.58 85.5C111.114 85.5 111.507 85.3867 111.76 85.16C112.014 84.9333 112.14 84.6533 112.14 84.32C112.14 84.04 112.034 83.8133 111.82 83.64C111.62 83.4533 111.36 83.2933 111.04 83.16C110.72 83.0133 110.387 82.8733 110.04 82.74C109.614 82.58 109.187 82.3867 108.76 82.16C108.347 81.92 108.007 81.62 107.74 81.26C107.474 80.8867 107.34 80.4267 107.34 79.88C107.34 79.0133 107.66 78.3067 108.3 77.76C108.94 77.2133 109.807 76.94 110.9 76.94C111.594 76.94 112.214 77.06 112.76 77.3C113.307 77.54 113.78 77.8133 114.18 78.12L113.12 79.52C112.774 79.2667 112.42 79.0667 112.06 78.92C111.714 78.76 111.347 78.68 110.96 78.68C110.467 78.68 110.1 78.7867 109.86 79C109.62 79.2 109.5 79.4533 109.5 79.76C109.5 80.1467 109.7 80.44 110.1 80.64C110.5 80.84 110.967 81.0333 111.5 81.22C111.954 81.38 112.394 81.58 112.82 81.82C113.247 82.0467 113.6 82.3467 113.88 82.72C114.174 83.0933 114.32 83.5867 114.32 84.2C114.32 85.04 113.994 85.76 113.34 86.36C112.687 86.9467 111.74 87.24 110.5 87.24ZM120.554 87.24C119.647 87.24 118.827 87.04 118.094 86.64C117.36 86.2267 116.78 85.64 116.354 84.88C115.927 84.1067 115.714 83.18 115.714 82.1C115.714 81.0333 115.927 80.1133 116.354 79.34C116.794 78.5667 117.36 77.9733 118.054 77.56C118.747 77.1467 119.474 76.94 120.234 76.94C121.127 76.94 121.874 77.14 122.474 77.54C123.074 77.9267 123.527 78.4733 123.834 79.18C124.14 79.8733 124.294 80.68 124.294 81.6C124.294 82.08 124.26 82.4533 124.194 82.72H117.954C118.06 83.5867 118.374 84.26 118.894 84.74C119.414 85.22 120.067 85.46 120.854 85.46C121.28 85.46 121.674 85.4 122.034 85.28C122.407 85.1467 122.774 84.9667 123.134 84.74L123.914 86.18C123.447 86.4867 122.927 86.74 122.354 86.94C121.78 87.14 121.18 87.24 120.554 87.24ZM117.934 81.16H122.294C122.294 80.4 122.127 79.8067 121.794 79.38C121.46 78.94 120.96 78.72 120.294 78.72C119.72 78.72 119.207 78.9333 118.754 79.36C118.314 79.7733 118.04 80.3733 117.934 81.16ZM126.47 87V77.18H128.37L128.53 78.92H128.61C128.957 78.28 129.377 77.7933 129.87 77.46C130.364 77.1133 130.87 76.94 131.39 76.94C131.857 76.94 132.23 77.0067 132.51 77.14L132.11 79.14C131.937 79.0867 131.777 79.0467 131.63 79.02C131.484 78.9933 131.304 78.98 131.09 78.98C130.704 78.98 130.297 79.1333 129.87 79.44C129.444 79.7333 129.077 80.2533 128.77 81V87H126.47Z"></path>
<g clip-path="url(#clip1_6511_104179)">
<path fill="#262626" d="M38.5426 126V124.496H40.8146V117.808H38.9426V116.656C39.444 116.56 39.8813 116.448 40.2546 116.32C40.628 116.181 40.9746 116.016 41.2946 115.824H42.6706V124.496H44.6706V126H38.5426ZM47.8018 126.192C47.4711 126.192 47.1884 126.075 46.9538 125.84C46.7191 125.605 46.6018 125.307 46.6018 124.944C46.6018 124.581 46.7191 124.283 46.9538 124.048C47.1884 123.813 47.4711 123.696 47.8018 123.696C48.1431 123.696 48.4258 123.813 48.6498 124.048C48.8738 124.283 48.9858 124.581 48.9858 124.944C48.9858 125.307 48.8738 125.605 48.6498 125.84C48.4258 126.075 48.1431 126.192 47.8018 126.192Z"></path>
<path fill="#262626" d="M64.832 126C64.896 124.72 65.0293 123.573 65.232 122.56C65.4453 121.536 65.7547 120.576 66.16 119.68C66.576 118.773 67.12 117.856 67.792 116.928H62.704V115.792H69.28V116.608C68.672 117.376 68.176 118.117 67.792 118.832C67.408 119.536 67.1093 120.251 66.896 120.976C66.6827 121.691 66.5227 122.459 66.416 123.28C66.3093 124.101 66.2347 125.008 66.192 126H64.832ZM77.1883 126.192C76.2176 126.192 75.4389 125.84 74.8523 125.136C74.2656 124.421 73.9723 123.419 73.9723 122.128C73.9723 121.285 74.1269 120.56 74.4363 119.952C74.7563 119.333 75.1723 118.859 75.6843 118.528C76.2069 118.197 76.7616 118.032 77.3483 118.032C77.7963 118.032 78.1856 118.112 78.5163 118.272C78.8469 118.432 79.1829 118.651 79.5243 118.928L79.4603 117.6V114.608H80.7883V126H79.7003L79.5883 125.088H79.5403C79.2416 125.387 78.8896 125.648 78.4843 125.872C78.0789 126.085 77.6469 126.192 77.1883 126.192ZM77.4763 125.088C78.1589 125.088 78.8203 124.731 79.4603 124.016V119.952C79.1296 119.653 78.8096 119.445 78.5003 119.328C78.2016 119.2 77.8923 119.136 77.5723 119.136C77.1563 119.136 76.7776 119.264 76.4363 119.52C76.1056 119.765 75.8389 120.112 75.6363 120.56C75.4336 120.997 75.3323 121.515 75.3323 122.112C75.3323 123.04 75.5189 123.771 75.8923 124.304C76.2656 124.827 76.7936 125.088 77.4763 125.088ZM84.8313 126.192C84.3406 126.192 83.9833 126.043 83.7593 125.744C83.5459 125.435 83.4393 124.997 83.4393 124.432V114.608H84.7513V124.528C84.7513 124.731 84.7886 124.88 84.8633 124.976C84.9379 125.061 85.0233 125.104 85.1193 125.104C85.1619 125.104 85.1993 125.104 85.2313 125.104C85.2739 125.093 85.3326 125.083 85.4073 125.072L85.5833 126.064C85.4979 126.107 85.3966 126.139 85.2793 126.16C85.1619 126.181 85.0126 126.192 84.8313 126.192ZM90.7845 126V114.608H92.0965V117.712L92.0485 119.312C92.4218 118.96 92.8112 118.661 93.2165 118.416C93.6325 118.16 94.1072 118.032 94.6405 118.032C95.4618 118.032 96.0592 118.293 96.4325 118.816C96.8165 119.328 97.0085 120.08 97.0085 121.072V126H95.6965V121.248C95.6965 120.523 95.5792 119.995 95.3445 119.664C95.1098 119.333 94.7365 119.168 94.2245 119.168C93.8298 119.168 93.4725 119.269 93.1525 119.472C92.8432 119.675 92.4912 119.973 92.0965 120.368V126H90.7845ZM101.2 126L98.3996 118.224H99.7596L101.232 122.64C101.349 123.024 101.466 123.408 101.584 123.792C101.712 124.176 101.834 124.555 101.952 124.928H102.016C102.133 124.555 102.25 124.176 102.368 123.792C102.496 123.408 102.613 123.024 102.72 122.64L104.192 118.224H105.488L102.736 126H101.2ZM110.11 126.192C109.417 126.192 108.787 126.032 108.222 125.712C107.657 125.381 107.209 124.912 106.878 124.304C106.547 123.696 106.382 122.971 106.382 122.128C106.382 121.275 106.547 120.544 106.878 119.936C107.219 119.328 107.657 118.859 108.19 118.528C108.723 118.197 109.283 118.032 109.87 118.032C110.862 118.032 111.625 118.363 112.158 119.024C112.702 119.685 112.974 120.571 112.974 121.68C112.974 121.819 112.969 121.957 112.958 122.096C112.958 122.224 112.947 122.336 112.926 122.432H107.678C107.731 123.253 107.987 123.909 108.446 124.4C108.915 124.891 109.523 125.136 110.27 125.136C110.643 125.136 110.985 125.083 111.294 124.976C111.614 124.859 111.918 124.709 112.206 124.528L112.67 125.392C112.339 125.605 111.961 125.792 111.534 125.952C111.118 126.112 110.643 126.192 110.11 126.192ZM107.662 121.488H111.822C111.822 120.699 111.651 120.101 111.31 119.696C110.979 119.28 110.51 119.072 109.902 119.072C109.358 119.072 108.867 119.285 108.43 119.712C108.003 120.128 107.747 120.72 107.662 121.488ZM117.219 126.192C116.387 126.192 115.806 125.952 115.475 125.472C115.155 124.992 114.995 124.368 114.995 123.6V119.296H113.843V118.304L115.059 118.224L115.219 116.048H116.323V118.224H118.419V119.296H116.323V123.616C116.323 124.096 116.408 124.469 116.579 124.736C116.76 124.992 117.075 125.12 117.523 125.12C117.662 125.12 117.811 125.099 117.971 125.056C118.131 125.003 118.275 124.955 118.403 124.912L118.659 125.904C118.446 125.979 118.211 126.043 117.955 126.096C117.71 126.16 117.464 126.192 117.219 126.192ZM123.143 126.192C122.449 126.192 121.82 126.032 121.255 125.712C120.689 125.381 120.241 124.912 119.911 124.304C119.58 123.696 119.415 122.971 119.415 122.128C119.415 121.275 119.58 120.544 119.911 119.936C120.252 119.328 120.689 118.859 121.223 118.528C121.756 118.197 122.316 118.032 122.903 118.032C123.895 118.032 124.657 118.363 125.191 119.024C125.735 119.685 126.007 120.571 126.007 121.68C126.007 121.819 126.001 121.957 125.991 122.096C125.991 122.224 125.98 122.336 125.959 122.432H120.711C120.764 123.253 121.02 123.909 121.479 124.4C121.948 124.891 122.556 125.136 123.303 125.136C123.676 125.136 124.017 125.083 124.327 124.976C124.647 124.859 124.951 124.709 125.239 124.528L125.703 125.392C125.372 125.605 124.993 125.792 124.567 125.952C124.151 126.112 123.676 126.192 123.143 126.192ZM120.695 121.488H124.855C124.855 120.699 124.684 120.101 124.343 119.696C124.012 119.28 123.543 119.072 122.935 119.072C122.391 119.072 121.9 119.285 121.463 119.712C121.036 120.128 120.78 120.72 120.695 121.488ZM127.96 126V118.224H129.048L129.16 119.344H129.208C129.549 118.971 129.923 118.661 130.328 118.416C130.733 118.16 131.165 118.032 131.624 118.032C132.221 118.032 132.685 118.165 133.016 118.432C133.357 118.688 133.608 119.051 133.768 119.52C134.173 119.083 134.584 118.725 135 118.448C135.416 118.171 135.859 118.032 136.328 118.032C137.128 118.032 137.72 118.293 138.104 118.816C138.499 119.328 138.696 120.08 138.696 121.072V126H137.384V121.248C137.384 120.523 137.267 119.995 137.032 119.664C136.797 119.333 136.435 119.168 135.944 119.168C135.368 119.168 134.717 119.568 133.992 120.368V126H132.68V121.248C132.68 120.523 132.563 119.995 132.328 119.664C132.093 119.333 131.725 119.168 131.224 119.168C130.648 119.168 129.997 119.568 129.272 120.368V126H127.96ZM144.41 126.192C143.716 126.192 143.087 126.032 142.522 125.712C141.956 125.381 141.508 124.912 141.178 124.304C140.847 123.696 140.682 122.971 140.682 122.128C140.682 121.275 140.847 120.544 141.178 119.936C141.519 119.328 141.956 118.859 142.49 118.528C143.023 118.197 143.583 118.032 144.17 118.032C145.162 118.032 145.924 118.363 146.458 119.024C147.002 119.685 147.274 120.571 147.274 121.68C147.274 121.819 147.268 121.957 147.258 122.096C147.258 122.224 147.247 122.336 147.226 122.432H141.978C142.031 123.253 142.287 123.909 142.746 124.4C143.215 124.891 143.823 125.136 144.57 125.136C144.943 125.136 145.284 125.083 145.594 124.976C145.914 124.859 146.218 124.709 146.506 124.528L146.97 125.392C146.639 125.605 146.26 125.792 145.834 125.952C145.418 126.112 144.943 126.192 144.41 126.192ZM141.962 121.488H146.122C146.122 120.699 145.951 120.101 145.61 119.696C145.279 119.28 144.81 119.072 144.202 119.072C143.658 119.072 143.167 119.285 142.73 119.712C142.303 120.128 142.047 120.72 141.962 121.488ZM150.619 126.192C150.129 126.192 149.771 126.043 149.547 125.744C149.334 125.435 149.227 124.997 149.227 124.432V114.608H150.539V124.528C150.539 124.731 150.577 124.88 150.651 124.976C150.726 125.061 150.811 125.104 150.907 125.104C150.95 125.104 150.987 125.104 151.019 125.104C151.062 125.093 151.121 125.083 151.195 125.072L151.371 126.064C151.286 126.107 151.185 126.139 151.067 126.16C150.95 126.181 150.801 126.192 150.619 126.192Z"></path>
</g>
<g clip-path="url(#clip2_6511_104179)">
<path fill="#262626" d="M37.9666 166V164.928C38.916 164.011 39.732 163.195 40.4146 162.48C41.108 161.755 41.6413 161.099 42.0146 160.512C42.388 159.915 42.5746 159.36 42.5746 158.848C42.5746 158.315 42.4306 157.888 42.1426 157.568C41.8546 157.248 41.4386 157.088 40.8946 157.088C40.5 157.088 40.1373 157.2 39.8066 157.424C39.4866 157.648 39.188 157.915 38.9106 158.224L37.8866 157.2C38.356 156.699 38.8413 156.315 39.3426 156.048C39.844 155.771 40.4413 155.632 41.1346 155.632C42.116 155.632 42.8946 155.915 43.4706 156.48C44.0573 157.045 44.3506 157.803 44.3506 158.752C44.3506 159.349 44.18 159.963 43.8386 160.592C43.508 161.211 43.06 161.845 42.4946 162.496C41.94 163.147 41.3266 163.829 40.6546 164.544C40.9213 164.523 41.2093 164.501 41.5186 164.48C41.828 164.448 42.1053 164.432 42.3506 164.432H44.8466V166H37.9666ZM47.8018 166.192C47.4711 166.192 47.1884 166.075 46.9538 165.84C46.7191 165.605 46.6018 165.307 46.6018 164.944C46.6018 164.581 46.7191 164.283 46.9538 164.048C47.1884 163.813 47.4711 163.696 47.8018 163.696C48.1431 163.696 48.4258 163.813 48.6498 164.048C48.8738 164.283 48.9858 164.581 48.9858 164.944C48.9858 165.307 48.8738 165.605 48.6498 165.84C48.4258 166.075 48.1431 166.192 47.8018 166.192Z"></path>
<path fill="#262626" d="M65.776 166.192C64.9653 166.192 64.288 166.048 63.744 165.76C63.2 165.461 62.7573 165.125 62.416 164.752L63.088 163.888C63.3973 164.208 63.76 164.491 64.176 164.736C64.592 164.981 65.0987 165.104 65.696 165.104C66.3147 165.104 66.8213 164.933 67.216 164.592C67.6107 164.251 67.808 163.797 67.808 163.232C67.808 162.827 67.7013 162.475 67.488 162.176C67.2853 161.867 66.944 161.627 66.464 161.456C65.9947 161.285 65.3547 161.2 64.544 161.2V160.192C65.2693 160.192 65.84 160.107 66.256 159.936C66.6827 159.765 66.9867 159.536 67.168 159.248C67.3493 158.96 67.44 158.64 67.44 158.288C67.44 157.787 67.28 157.392 66.96 157.104C66.6507 156.816 66.224 156.672 65.68 156.672C65.2533 156.672 64.8587 156.768 64.496 156.96C64.144 157.152 63.8133 157.403 63.504 157.712L62.8 156.88C63.1947 156.507 63.632 156.203 64.112 155.968C64.592 155.723 65.1307 155.6 65.728 155.6C66.6133 155.6 67.344 155.829 67.92 156.288C68.496 156.736 68.784 157.371 68.784 158.192C68.784 158.811 68.6133 159.317 68.272 159.712C67.9307 160.107 67.4827 160.411 66.928 160.624V160.688C67.5467 160.827 68.0693 161.12 68.496 161.568C68.9227 162.005 69.136 162.576 69.136 163.28C69.136 163.877 68.9867 164.395 68.688 164.832C68.3893 165.269 67.984 165.605 67.472 165.84C66.9707 166.075 66.4053 166.192 65.776 166.192ZM73.9691 166.192C72.9451 166.192 72.1398 165.733 71.5531 164.816C70.9771 163.888 70.6891 162.571 70.6891 160.864C70.6891 159.147 70.9771 157.84 71.5531 156.944C72.1398 156.048 72.9451 155.6 73.9691 155.6C74.9825 155.6 75.7771 156.048 76.3531 156.944C76.9398 157.84 77.2331 159.147 77.2331 160.864C77.2331 162.571 76.9398 163.888 76.3531 164.816C75.7771 165.733 74.9825 166.192 73.9691 166.192ZM73.9691 165.136C74.5665 165.136 75.0465 164.8 75.4091 164.128C75.7718 163.445 75.9531 162.357 75.9531 160.864C75.9531 159.371 75.7718 158.299 75.4091 157.648C75.0465 156.987 74.5665 156.656 73.9691 156.656C73.3718 156.656 72.8865 156.987 72.5131 157.648C72.1505 158.299 71.9691 159.371 71.9691 160.864C71.9691 162.357 72.1505 163.445 72.5131 164.128C72.8865 164.8 73.3718 165.136 73.9691 165.136ZM81.9543 166.192C80.9303 166.192 80.1249 165.733 79.5383 164.816C78.9623 163.888 78.6743 162.571 78.6743 160.864C78.6743 159.147 78.9623 157.84 79.5383 156.944C80.1249 156.048 80.9303 155.6 81.9543 155.6C82.9676 155.6 83.7623 156.048 84.3383 156.944C84.9249 157.84 85.2183 159.147 85.2183 160.864C85.2183 162.571 84.9249 163.888 84.3383 164.816C83.7623 165.733 82.9676 166.192 81.9543 166.192ZM81.9543 165.136C82.5516 165.136 83.0316 164.8 83.3943 164.128C83.7569 163.445 83.9383 162.357 83.9383 160.864C83.9383 159.371 83.7569 158.299 83.3943 157.648C83.0316 156.987 82.5516 156.656 81.9543 156.656C81.3569 156.656 80.8716 156.987 80.4983 157.648C80.1356 158.299 79.9543 159.371 79.9543 160.864C79.9543 162.357 80.1356 163.445 80.4983 164.128C80.8716 164.8 81.3569 165.136 81.9543 165.136ZM93.1265 169.584C92.1772 169.584 91.4038 169.403 90.8065 169.04C90.2092 168.677 89.9105 168.16 89.9105 167.488C89.9105 167.157 90.0118 166.837 90.2145 166.528C90.4172 166.229 90.6945 165.963 91.0465 165.728V165.664C90.8545 165.547 90.6892 165.381 90.5505 165.168C90.4225 164.955 90.3585 164.699 90.3585 164.4C90.3585 164.069 90.4492 163.781 90.6305 163.536C90.8118 163.291 91.0038 163.099 91.2065 162.96V162.896C90.9505 162.683 90.7158 162.395 90.5025 162.032C90.2998 161.669 90.1985 161.259 90.1985 160.8C90.1985 160.235 90.3318 159.744 90.5985 159.328C90.8652 158.912 91.2225 158.592 91.6705 158.368C92.1185 158.144 92.6038 158.032 93.1265 158.032C93.3398 158.032 93.5425 158.053 93.7345 158.096C93.9265 158.128 94.0918 158.171 94.2305 158.224H96.9345V159.232H95.3345C95.5158 159.403 95.6652 159.632 95.7825 159.92C95.9105 160.197 95.9745 160.501 95.9745 160.832C95.9745 161.387 95.8465 161.867 95.5905 162.272C95.3345 162.677 94.9932 162.992 94.5665 163.216C94.1398 163.429 93.6598 163.536 93.1265 163.536C92.7105 163.536 92.3212 163.445 91.9585 163.264C91.8198 163.381 91.7025 163.515 91.6065 163.664C91.5105 163.803 91.4625 163.979 91.4625 164.192C91.4625 164.437 91.5585 164.64 91.7505 164.8C91.9532 164.96 92.3158 165.04 92.8385 165.04H94.3425C95.2492 165.04 95.9265 165.189 96.3745 165.488C96.8332 165.776 97.0625 166.245 97.0625 166.896C97.0625 167.376 96.9025 167.819 96.5825 168.224C96.2625 168.629 95.8092 168.955 95.2225 169.2C94.6358 169.456 93.9372 169.584 93.1265 169.584ZM93.1265 162.656C93.5745 162.656 93.9585 162.491 94.2785 162.16C94.6092 161.819 94.7745 161.365 94.7745 160.8C94.7745 160.235 94.6145 159.792 94.2945 159.472C93.9745 159.152 93.5852 158.992 93.1265 158.992C92.6678 158.992 92.2785 159.152 91.9585 159.472C91.6385 159.792 91.4785 160.235 91.4785 160.8C91.4785 161.365 91.6385 161.819 91.9585 162.16C92.2892 162.491 92.6785 162.656 93.1265 162.656ZM93.3185 168.672C94.0652 168.672 94.6625 168.507 95.1105 168.176C95.5585 167.856 95.7825 167.493 95.7825 167.088C95.7825 166.725 95.6438 166.475 95.3665 166.336C95.0998 166.197 94.7158 166.128 94.2145 166.128H92.8705C92.7212 166.128 92.5558 166.117 92.3745 166.096C92.2038 166.075 92.0332 166.043 91.8625 166C91.5852 166.203 91.3825 166.416 91.2545 166.64C91.1265 166.864 91.0625 167.088 91.0625 167.312C91.0625 167.728 91.2598 168.059 91.6545 168.304C92.0598 168.549 92.6145 168.672 93.3185 168.672ZM103.864 166.192C103.309 166.192 102.781 166.091 102.28 165.888C101.779 165.675 101.341 165.419 100.968 165.12L101.624 164.24C101.965 164.507 102.317 164.731 102.68 164.912C103.043 165.083 103.453 165.168 103.912 165.168C104.424 165.168 104.808 165.051 105.064 164.816C105.32 164.571 105.448 164.283 105.448 163.952C105.448 163.685 105.357 163.461 105.176 163.28C105.005 163.099 104.781 162.949 104.504 162.832C104.237 162.704 103.96 162.587 103.672 162.48C103.309 162.341 102.952 162.187 102.6 162.016C102.248 161.835 101.96 161.605 101.736 161.328C101.512 161.04 101.4 160.677 101.4 160.24C101.4 159.611 101.635 159.088 102.104 158.672C102.584 158.245 103.245 158.032 104.088 158.032C104.568 158.032 105.016 158.117 105.432 158.288C105.848 158.459 106.205 158.667 106.504 158.912L105.864 159.744C105.597 159.541 105.32 159.376 105.032 159.248C104.744 159.12 104.429 159.056 104.088 159.056C103.597 159.056 103.235 159.168 103 159.392C102.776 159.616 102.664 159.877 102.664 160.176C102.664 160.421 102.744 160.624 102.904 160.784C103.064 160.933 103.272 161.067 103.528 161.184C103.784 161.291 104.056 161.403 104.344 161.52C104.717 161.659 105.085 161.819 105.448 162C105.811 162.171 106.109 162.405 106.344 162.704C106.589 162.992 106.712 163.381 106.712 163.872C106.712 164.288 106.6 164.672 106.376 165.024C106.163 165.376 105.843 165.659 105.416 165.872C105 166.085 104.483 166.192 103.864 166.192ZM108.567 166V158.224H109.655L109.767 159.344H109.815C110.157 158.971 110.53 158.661 110.935 158.416C111.341 158.16 111.773 158.032 112.231 158.032C112.829 158.032 113.293 158.165 113.623 158.432C113.965 158.688 114.215 159.051 114.375 159.52C114.781 159.083 115.191 158.725 115.607 158.448C116.023 158.171 116.466 158.032 116.935 158.032C117.735 158.032 118.327 158.293 118.711 158.816C119.106 159.328 119.303 160.08 119.303 161.072V166H117.991V161.248C117.991 160.523 117.874 159.995 117.639 159.664C117.405 159.333 117.042 159.168 116.551 159.168C115.975 159.168 115.325 159.568 114.599 160.368V166H113.287V161.248C113.287 160.523 113.17 159.995 112.935 159.664C112.701 159.333 112.333 159.168 111.831 159.168C111.255 159.168 110.605 159.568 109.879 160.368V166H108.567ZM122.585 162.064C122.585 162.779 122.708 163.381 122.953 163.872L126.377 159.728C125.982 159.301 125.486 159.088 124.889 159.088C124.452 159.088 124.057 159.216 123.705 159.472C123.353 159.717 123.076 160.064 122.873 160.512C122.681 160.96 122.585 161.477 122.585 162.064ZM121.881 166.368L121.289 165.904L122.153 164.864C121.886 164.523 121.673 164.123 121.513 163.664C121.364 163.205 121.289 162.693 121.289 162.128C121.289 161.253 121.454 160.512 121.785 159.904C122.126 159.296 122.569 158.832 123.113 158.512C123.668 158.192 124.26 158.032 124.889 158.032C125.742 158.032 126.484 158.299 127.113 158.832L127.913 157.856L128.489 158.32L127.625 159.36C127.892 159.701 128.1 160.107 128.249 160.576C128.409 161.035 128.489 161.552 128.489 162.128C128.489 162.981 128.318 163.712 127.977 164.32C127.646 164.928 127.209 165.392 126.665 165.712C126.121 166.032 125.529 166.192 124.889 166.192C124.046 166.192 123.305 165.931 122.665 165.408L121.881 166.368ZM124.889 165.136C125.561 165.136 126.11 164.864 126.537 164.32C126.974 163.765 127.193 163.051 127.193 162.176C127.193 161.451 127.065 160.843 126.809 160.352L123.401 164.512C123.817 164.928 124.313 165.136 124.889 165.136ZM130.569 166V158.224H131.657L131.769 159.632H131.817C132.083 159.141 132.409 158.752 132.793 158.464C133.177 158.176 133.587 158.032 134.025 158.032C134.334 158.032 134.611 158.085 134.857 158.192L134.601 159.344C134.473 159.301 134.355 159.269 134.249 159.248C134.142 159.227 134.009 159.216 133.849 159.216C133.518 159.216 133.171 159.349 132.809 159.616C132.457 159.883 132.147 160.347 131.881 161.008V166H130.569Z"></path>
</g>
<g clip-path="url(#clip3_6511_104179)">
<path fill="#262626" d="M41.1986 206.192C40.3773 206.192 39.684 206.053 39.1186 205.776C38.564 205.488 38.1053 205.147 37.7426 204.752L38.6226 203.568C38.932 203.877 39.284 204.144 39.6786 204.368C40.0733 204.581 40.5266 204.688 41.0386 204.688C41.5933 204.688 42.0413 204.555 42.3826 204.288C42.7346 204.011 42.9106 203.632 42.9106 203.152C42.9106 202.8 42.82 202.496 42.6386 202.24C42.468 201.973 42.164 201.771 41.7266 201.632C41.3 201.493 40.6973 201.424 39.9186 201.424V200.08C40.9213 200.08 41.6146 199.925 41.9986 199.616C42.3826 199.307 42.5746 198.917 42.5746 198.448C42.5746 198.021 42.4413 197.691 42.1746 197.456C41.908 197.211 41.54 197.088 41.0706 197.088C40.676 197.088 40.3133 197.179 39.9826 197.36C39.652 197.531 39.332 197.76 39.0226 198.048L38.0786 196.912C38.516 196.528 38.98 196.219 39.4706 195.984C39.972 195.749 40.5266 195.632 41.1346 195.632C42.116 195.632 42.9106 195.867 43.5186 196.336C44.1266 196.795 44.4306 197.456 44.4306 198.32C44.4306 198.885 44.2706 199.365 43.9506 199.76C43.6413 200.144 43.2093 200.443 42.6546 200.656V200.72C43.252 200.88 43.7533 201.173 44.1586 201.6C44.564 202.027 44.7666 202.576 44.7666 203.248C44.7666 203.867 44.6013 204.395 44.2706 204.832C43.9506 205.269 43.5186 205.605 42.9746 205.84C42.4413 206.075 41.8493 206.192 41.1986 206.192ZM47.8018 206.192C47.4711 206.192 47.1884 206.075 46.9538 205.84C46.7191 205.605 46.6018 205.307 46.6018 204.944C46.6018 204.581 46.7191 204.283 46.9538 204.048C47.1884 203.813 47.4711 203.696 47.8018 203.696C48.1431 203.696 48.4258 203.813 48.6498 204.048C48.8738 204.283 48.9858 204.581 48.9858 204.944C48.9858 205.307 48.8738 205.605 48.6498 205.84C48.4258 206.075 48.1431 206.192 47.8018 206.192Z"></path>
<path fill="#262626" d="M65.776 206.192C64.9653 206.192 64.288 206.048 63.744 205.76C63.2 205.461 62.7573 205.125 62.416 204.752L63.088 203.888C63.3973 204.208 63.76 204.491 64.176 204.736C64.592 204.981 65.0987 205.104 65.696 205.104C66.3147 205.104 66.8213 204.933 67.216 204.592C67.6107 204.251 67.808 203.797 67.808 203.232C67.808 202.827 67.7013 202.475 67.488 202.176C67.2853 201.867 66.944 201.627 66.464 201.456C65.9947 201.285 65.3547 201.2 64.544 201.2V200.192C65.2693 200.192 65.84 200.107 66.256 199.936C66.6827 199.765 66.9867 199.536 67.168 199.248C67.3493 198.96 67.44 198.64 67.44 198.288C67.44 197.787 67.28 197.392 66.96 197.104C66.6507 196.816 66.224 196.672 65.68 196.672C65.2533 196.672 64.8587 196.768 64.496 196.96C64.144 197.152 63.8133 197.403 63.504 197.712L62.8 196.88C63.1947 196.507 63.632 196.203 64.112 195.968C64.592 195.723 65.1307 195.6 65.728 195.6C66.6133 195.6 67.344 195.829 67.92 196.288C68.496 196.736 68.784 197.371 68.784 198.192C68.784 198.811 68.6133 199.317 68.272 199.712C67.9307 200.107 67.4827 200.411 66.928 200.624V200.688C67.5467 200.827 68.0693 201.12 68.496 201.568C68.9227 202.005 69.136 202.576 69.136 203.28C69.136 203.877 68.9867 204.395 68.688 204.832C68.3893 205.269 67.984 205.605 67.472 205.84C66.9707 206.075 66.4053 206.192 65.776 206.192ZM77.6843 206.192C76.9909 206.192 76.3616 206.032 75.7963 205.712C75.2309 205.381 74.7829 204.912 74.4523 204.304C74.1216 203.696 73.9563 202.971 73.9563 202.128C73.9563 201.275 74.1216 200.544 74.4523 199.936C74.7936 199.328 75.2309 198.859 75.7643 198.528C76.2976 198.197 76.8576 198.032 77.4443 198.032C78.4363 198.032 79.1989 198.363 79.7323 199.024C80.2763 199.685 80.5483 200.571 80.5483 201.68C80.5483 201.819 80.5429 201.957 80.5323 202.096C80.5323 202.224 80.5216 202.336 80.5003 202.432H75.2523C75.3056 203.253 75.5616 203.909 76.0203 204.4C76.4896 204.891 77.0976 205.136 77.8443 205.136C78.2176 205.136 78.5589 205.083 78.8683 204.976C79.1883 204.859 79.4923 204.709 79.7803 204.528L80.2443 205.392C79.9136 205.605 79.5349 205.792 79.1083 205.952C78.6923 206.112 78.2176 206.192 77.6843 206.192ZM75.2363 201.488H79.3963C79.3963 200.699 79.2256 200.101 78.8843 199.696C78.5536 199.28 78.0843 199.072 77.4763 199.072C76.9323 199.072 76.4416 199.285 76.0043 199.712C75.5776 200.128 75.3216 200.72 75.2363 201.488ZM84.9695 209.584C84.0202 209.584 83.2468 209.403 82.6495 209.04C82.0522 208.677 81.7535 208.16 81.7535 207.488C81.7535 207.157 81.8548 206.837 82.0575 206.528C82.2602 206.229 82.5375 205.963 82.8895 205.728V205.664C82.6975 205.547 82.5322 205.381 82.3935 205.168C82.2655 204.955 82.2015 204.699 82.2015 204.4C82.2015 204.069 82.2922 203.781 82.4735 203.536C82.6548 203.291 82.8468 203.099 83.0495 202.96V202.896C82.7935 202.683 82.5588 202.395 82.3455 202.032C82.1428 201.669 82.0415 201.259 82.0415 200.8C82.0415 200.235 82.1748 199.744 82.4415 199.328C82.7082 198.912 83.0655 198.592 83.5135 198.368C83.9615 198.144 84.4468 198.032 84.9695 198.032C85.1828 198.032 85.3855 198.053 85.5775 198.096C85.7695 198.128 85.9348 198.171 86.0735 198.224H88.7775V199.232H87.1775C87.3588 199.403 87.5082 199.632 87.6255 199.92C87.7535 200.197 87.8175 200.501 87.8175 200.832C87.8175 201.387 87.6895 201.867 87.4335 202.272C87.1775 202.677 86.8362 202.992 86.4095 203.216C85.9828 203.429 85.5028 203.536 84.9695 203.536C84.5535 203.536 84.1642 203.445 83.8015 203.264C83.6628 203.381 83.5455 203.515 83.4495 203.664C83.3535 203.803 83.3055 203.979 83.3055 204.192C83.3055 204.437 83.4015 204.64 83.5935 204.8C83.7962 204.96 84.1588 205.04 84.6815 205.04H86.1855C87.0922 205.04 87.7695 205.189 88.2175 205.488C88.6762 205.776 88.9055 206.245 88.9055 206.896C88.9055 207.376 88.7455 207.819 88.4255 208.224C88.1055 208.629 87.6522 208.955 87.0655 209.2C86.4788 209.456 85.7802 209.584 84.9695 209.584ZM84.9695 202.656C85.4175 202.656 85.8015 202.491 86.1215 202.16C86.4522 201.819 86.6175 201.365 86.6175 200.8C86.6175 200.235 86.4575 199.792 86.1375 199.472C85.8175 199.152 85.4282 198.992 84.9695 198.992C84.5108 198.992 84.1215 199.152 83.8015 199.472C83.4815 199.792 83.3215 200.235 83.3215 200.8C83.3215 201.365 83.4815 201.819 83.8015 202.16C84.1322 202.491 84.5215 202.656 84.9695 202.656ZM85.1615 208.672C85.9082 208.672 86.5055 208.507 86.9535 208.176C87.4015 207.856 87.6255 207.493 87.6255 207.088C87.6255 206.725 87.4868 206.475 87.2095 206.336C86.9428 206.197 86.5588 206.128 86.0575 206.128H84.7135C84.5642 206.128 84.3988 206.117 84.2175 206.096C84.0468 206.075 83.8762 206.043 83.7055 206C83.4282 206.203 83.2255 206.416 83.0975 206.64C82.9695 206.864 82.9055 207.088 82.9055 207.312C82.9055 207.728 83.1028 208.059 83.4975 208.304C83.9028 208.549 84.4575 208.672 85.1615 208.672ZM93.064 209.584C92.1147 209.584 91.3413 209.403 90.744 209.04C90.1467 208.677 89.848 208.16 89.848 207.488C89.848 207.157 89.9493 206.837 90.152 206.528C90.3547 206.229 90.632 205.963 90.984 205.728V205.664C90.792 205.547 90.6267 205.381 90.488 205.168C90.36 204.955 90.296 204.699 90.296 204.4C90.296 204.069 90.3867 203.781 90.568 203.536C90.7493 203.291 90.9413 203.099 91.144 202.96V202.896C90.888 202.683 90.6533 202.395 90.44 202.032C90.2373 201.669 90.136 201.259 90.136 200.8C90.136 200.235 90.2693 199.744 90.536 199.328C90.8027 198.912 91.16 198.592 91.608 198.368C92.056 198.144 92.5413 198.032 93.064 198.032C93.2773 198.032 93.48 198.053 93.672 198.096C93.864 198.128 94.0293 198.171 94.168 198.224H96.872V199.232H95.272C95.4533 199.403 95.6027 199.632 95.72 199.92C95.848 200.197 95.912 200.501 95.912 200.832C95.912 201.387 95.784 201.867 95.528 202.272C95.272 202.677 94.9307 202.992 94.504 203.216C94.0773 203.429 93.5973 203.536 93.064 203.536C92.648 203.536 92.2587 203.445 91.896 203.264C91.7573 203.381 91.64 203.515 91.544 203.664C91.448 203.803 91.4 203.979 91.4 204.192C91.4 204.437 91.496 204.64 91.688 204.8C91.8907 204.96 92.2533 205.04 92.776 205.04H94.28C95.1867 205.04 95.864 205.189 96.312 205.488C96.7707 205.776 97 206.245 97 206.896C97 207.376 96.84 207.819 96.52 208.224C96.2 208.629 95.7467 208.955 95.16 209.2C94.5733 209.456 93.8747 209.584 93.064 209.584ZM93.064 202.656C93.512 202.656 93.896 202.491 94.216 202.16C94.5467 201.819 94.712 201.365 94.712 200.8C94.712 200.235 94.552 199.792 94.232 199.472C93.912 199.152 93.5227 198.992 93.064 198.992C92.6053 198.992 92.216 199.152 91.896 199.472C91.576 199.792 91.416 200.235 91.416 200.8C91.416 201.365 91.576 201.819 91.896 202.16C92.2267 202.491 92.616 202.656 93.064 202.656ZM93.256 208.672C94.0027 208.672 94.6 208.507 95.048 208.176C95.496 207.856 95.72 207.493 95.72 207.088C95.72 206.725 95.5813 206.475 95.304 206.336C95.0373 206.197 94.6533 206.128 94.152 206.128H92.808C92.6587 206.128 92.4933 206.117 92.312 206.096C92.1413 206.075 91.9707 206.043 91.8 206C91.5227 206.203 91.32 206.416 91.192 206.64C91.064 206.864 91 207.088 91 207.312C91 207.728 91.1973 208.059 91.592 208.304C91.9973 208.549 92.552 208.672 93.256 208.672Z"></path>
</g>
</g>
<defs>
<clipPath id="clip0_6511_104179">
<rect fill="white" height="268" width="384"></rect>
</clipPath>
<clipPath id="clip1_6511_104179">
<rect transform="translate(24 110)" fill="white" height="20" width="451"></rect>
</clipPath>
<clipPath id="clip2_6511_104179">
<rect transform="translate(24 150)" fill="white" height="20" width="451"></rect>
</clipPath>
<clipPath id="clip3_6511_104179">
<rect transform="translate(24 190)" fill="white" height="20" width="451"></rect>
</clipPath>
</defs>
</svg>
