<svg xmlns="http://www.w3.org/2000/svg" fill="none" viewBox="0 0 540 241" height="241" width="540">
<path fill="white" d="M168 36C168 33.7909 169.791 32 172 32H357C359.209 32 361 33.7909 361 36V60C361 62.2091 359.209 64 357 64H172C169.791 64 168 62.2091 168 60V36Z"></path>
<path stroke-opacity="0.188235" stroke="#001630" d="M168.5 36C168.5 34.067 170.067 32.5 172 32.5H357C358.933 32.5 360.5 34.067 360.5 36V60C360.5 61.933 358.933 63.5 357 63.5H172C170.067 63.5 168.5 61.933 168.5 60V36Z"></path>
<path fill="#5D6573" d="M201.172 45.1716L194.828 38.8284C193.266 37.2663 190.734 37.2663 189.172 38.8284L182.828 45.1716C181.266 46.7337 181.266 49.2663 182.828 50.8284L189.172 57.1716C190.734 58.7337 193.266 58.7337 194.828 57.1716L201.172 50.8284C202.734 49.2663 202.734 46.7337 201.172 45.1716Z"></path>
<path fill="#202733" d="M217.598 54.216C216.758 54.216 215.954 53.832 215.186 53.064H215.132L214.952 54H213.314V41.292H215.384V44.568L215.33 46.044C215.702 45.72 216.11 45.456 216.554 45.252C216.998 45.048 217.442 44.946 217.886 44.946C218.99 44.946 219.848 45.354 220.46 46.17C221.072 46.986 221.378 48.072 221.378 49.428C221.378 50.436 221.198 51.3 220.838 52.02C220.478 52.728 220.01 53.274 219.434 53.658C218.87 54.03 218.258 54.216 217.598 54.216ZM217.166 52.506C217.754 52.506 218.246 52.248 218.642 51.732C219.038 51.216 219.236 50.46 219.236 49.464C219.236 48.576 219.086 47.886 218.786 47.394C218.486 46.902 218 46.656 217.328 46.656C216.704 46.656 216.056 46.986 215.384 47.646V51.768C215.696 52.032 216.002 52.224 216.302 52.344C216.614 52.452 216.902 52.506 217.166 52.506ZM226.535 57.906C225.839 57.906 225.209 57.822 224.645 57.654C224.093 57.486 223.655 57.228 223.331 56.88C223.019 56.544 222.863 56.118 222.863 55.602C222.863 54.87 223.283 54.24 224.123 53.712V53.64C223.895 53.496 223.703 53.304 223.547 53.064C223.403 52.824 223.331 52.524 223.331 52.164C223.331 51.816 223.427 51.504 223.619 51.228C223.823 50.94 224.051 50.706 224.303 50.526V50.454C224.003 50.226 223.733 49.908 223.493 49.5C223.265 49.092 223.151 48.63 223.151 48.114C223.151 47.43 223.313 46.854 223.637 46.386C223.961 45.918 224.387 45.564 224.915 45.324C225.455 45.072 226.031 44.946 226.643 44.946C226.883 44.946 227.111 44.97 227.327 45.018C227.555 45.054 227.759 45.102 227.939 45.162H231.107V46.692H229.487C229.631 46.86 229.751 47.076 229.847 47.34C229.943 47.592 229.991 47.874 229.991 48.186C229.991 48.834 229.841 49.386 229.541 49.842C229.241 50.286 228.839 50.622 228.335 50.85C227.831 51.078 227.267 51.192 226.643 51.192C226.451 51.192 226.253 51.174 226.049 51.138C225.845 51.102 225.641 51.042 225.437 50.958C225.305 51.078 225.197 51.198 225.113 51.318C225.041 51.438 225.005 51.6 225.005 51.804C225.005 52.056 225.107 52.254 225.311 52.398C225.527 52.542 225.905 52.614 226.445 52.614H228.011C229.079 52.614 229.883 52.788 230.423 53.136C230.975 53.472 231.251 54.024 231.251 54.792C231.251 55.368 231.059 55.89 230.675 56.358C230.291 56.838 229.745 57.216 229.037 57.492C228.329 57.768 227.495 57.906 226.535 57.906ZM226.643 49.896C227.063 49.896 227.423 49.74 227.723 49.428C228.023 49.116 228.173 48.678 228.173 48.114C228.173 47.562 228.023 47.136 227.723 46.836C227.435 46.524 227.075 46.368 226.643 46.368C226.211 46.368 225.845 46.518 225.545 46.818C225.245 47.118 225.095 47.55 225.095 48.114C225.095 48.678 225.245 49.116 225.545 49.428C225.845 49.74 226.211 49.896 226.643 49.896ZM226.859 56.556C227.567 56.556 228.143 56.412 228.587 56.124C229.031 55.836 229.253 55.506 229.253 55.134C229.253 54.786 229.115 54.552 228.839 54.432C228.575 54.312 228.191 54.252 227.687 54.252H226.481C226.001 54.252 225.599 54.21 225.275 54.126C224.819 54.474 224.591 54.864 224.591 55.296C224.591 55.692 224.795 55.998 225.203 56.214C225.611 56.442 226.163 56.556 226.859 56.556ZM232.25 50.22V48.708H236.534V50.22H232.25ZM238.609 54V45.162H240.319L240.463 46.35H240.535C240.931 45.966 241.363 45.636 241.831 45.36C242.299 45.084 242.833 44.946 243.433 44.946C244.381 44.946 245.071 45.252 245.503 45.864C245.935 46.476 246.151 47.34 246.151 48.456V54H244.081V48.726C244.081 47.994 243.973 47.478 243.757 47.178C243.541 46.878 243.187 46.728 242.695 46.728C242.311 46.728 241.969 46.824 241.669 47.016C241.381 47.196 241.051 47.466 240.679 47.826V54H238.609ZM252.461 54.216C251.645 54.216 250.907 54.036 250.247 53.676C249.587 53.304 249.065 52.776 248.681 52.092C248.297 51.396 248.105 50.562 248.105 49.59C248.105 48.63 248.297 47.802 248.681 47.106C249.077 46.41 249.587 45.876 250.211 45.504C250.835 45.132 251.489 44.946 252.173 44.946C252.977 44.946 253.649 45.126 254.189 45.486C254.729 45.834 255.137 46.326 255.413 46.962C255.689 47.586 255.827 48.312 255.827 49.14C255.827 49.572 255.797 49.908 255.737 50.148H250.121C250.217 50.928 250.499 51.534 250.967 51.966C251.435 52.398 252.023 52.614 252.731 52.614C253.115 52.614 253.469 52.56 253.793 52.452C254.129 52.332 254.459 52.17 254.783 51.966L255.485 53.262C255.065 53.538 254.597 53.766 254.081 53.946C253.565 54.126 253.025 54.216 252.461 54.216ZM250.103 48.744H254.027C254.027 48.06 253.877 47.526 253.577 47.142C253.277 46.746 252.827 46.548 252.227 46.548C251.711 46.548 251.249 46.74 250.841 47.124C250.445 47.496 250.199 48.036 250.103 48.744ZM260.432 54.216C259.484 54.216 258.794 53.91 258.362 53.298C257.93 52.686 257.714 51.822 257.714 50.706V45.162H259.784V50.436C259.784 51.168 259.892 51.684 260.108 51.984C260.324 52.284 260.672 52.434 261.152 52.434C261.536 52.434 261.872 52.338 262.16 52.146C262.46 51.954 262.778 51.642 263.114 51.21V45.162H265.184V54H263.492L263.33 52.704H263.276C262.892 53.16 262.472 53.526 262.016 53.802C261.56 54.078 261.032 54.216 260.432 54.216ZM270.92 54.216C269.9 54.216 269.174 53.922 268.742 53.334C268.322 52.734 268.112 51.96 268.112 51.012V46.8H266.852V45.252L268.22 45.162L268.472 42.75H270.2V45.162H272.45V46.8H270.2V51.012C270.2 52.044 270.614 52.56 271.442 52.56C271.598 52.56 271.76 52.542 271.928 52.506C272.096 52.458 272.24 52.41 272.36 52.362L272.72 53.892C272.48 53.976 272.204 54.048 271.892 54.108C271.592 54.18 271.268 54.216 270.92 54.216ZM274.31 54V45.162H276.02L276.164 46.728H276.236C276.548 46.152 276.926 45.714 277.37 45.414C277.814 45.102 278.27 44.946 278.738 44.946C279.158 44.946 279.494 45.006 279.746 45.126L279.386 46.926C279.23 46.878 279.086 46.842 278.954 46.818C278.822 46.794 278.66 46.782 278.468 46.782C278.12 46.782 277.754 46.92 277.37 47.196C276.986 47.46 276.656 47.928 276.38 48.6V54H274.31ZM282.692 54.216C281.924 54.216 281.294 53.976 280.802 53.496C280.322 53.016 280.082 52.392 280.082 51.624C280.082 50.676 280.496 49.944 281.324 49.428C282.152 48.9 283.472 48.54 285.284 48.348C285.272 47.88 285.146 47.478 284.906 47.142C284.678 46.794 284.264 46.62 283.664 46.62C283.232 46.62 282.806 46.704 282.386 46.872C281.978 47.04 281.576 47.244 281.18 47.484L280.424 46.098C280.916 45.786 281.468 45.516 282.08 45.288C282.704 45.06 283.364 44.946 284.06 44.946C285.164 44.946 285.986 45.276 286.526 45.936C287.078 46.584 287.354 47.526 287.354 48.762V54H285.644L285.5 53.028H285.428C285.032 53.364 284.606 53.646 284.15 53.874C283.706 54.102 283.22 54.216 282.692 54.216ZM283.358 52.596C283.718 52.596 284.042 52.512 284.33 52.344C284.63 52.164 284.948 51.924 285.284 51.624V49.644C284.084 49.8 283.25 50.034 282.782 50.346C282.314 50.646 282.08 51.018 282.08 51.462C282.08 51.858 282.2 52.146 282.44 52.326C282.68 52.506 282.986 52.596 283.358 52.596ZM291.848 54.216C291.116 54.216 290.594 53.994 290.282 53.55C289.982 53.106 289.832 52.5 289.832 51.732V41.292H291.902V51.84C291.902 52.092 291.95 52.272 292.046 52.38C292.142 52.476 292.244 52.524 292.352 52.524C292.4 52.524 292.442 52.524 292.478 52.524C292.526 52.512 292.592 52.5 292.676 52.488L292.946 54.036C292.826 54.084 292.67 54.126 292.478 54.162C292.298 54.198 292.088 54.216 291.848 54.216ZM294.16 50.22V48.708H298.444V50.22H294.16ZM302.985 54.216C302.385 54.216 301.785 54.102 301.185 53.874C300.585 53.634 300.069 53.34 299.637 52.992L300.609 51.66C301.005 51.96 301.401 52.2 301.797 52.38C302.193 52.56 302.613 52.65 303.057 52.65C303.537 52.65 303.891 52.548 304.119 52.344C304.347 52.14 304.461 51.888 304.461 51.588C304.461 51.336 304.365 51.132 304.173 50.976C303.993 50.808 303.759 50.664 303.471 50.544C303.183 50.412 302.883 50.286 302.571 50.166C302.187 50.022 301.803 49.848 301.419 49.644C301.047 49.428 300.741 49.158 300.501 48.834C300.261 48.498 300.141 48.084 300.141 47.592C300.141 46.812 300.429 46.176 301.005 45.684C301.581 45.192 302.361 44.946 303.345 44.946C303.969 44.946 304.527 45.054 305.019 45.27C305.511 45.486 305.937 45.732 306.297 46.008L305.343 47.268C305.031 47.04 304.713 46.86 304.389 46.728C304.077 46.584 303.747 46.512 303.399 46.512C302.955 46.512 302.625 46.608 302.409 46.8C302.193 46.98 302.085 47.208 302.085 47.484C302.085 47.832 302.265 48.096 302.625 48.276C302.985 48.456 303.405 48.63 303.885 48.798C304.293 48.942 304.689 49.122 305.073 49.338C305.457 49.542 305.775 49.812 306.027 50.148C306.291 50.484 306.423 50.928 306.423 51.48C306.423 52.236 306.129 52.884 305.541 53.424C304.953 53.952 304.101 54.216 302.985 54.216ZM311.033 54.216C310.013 54.216 309.287 53.922 308.855 53.334C308.435 52.734 308.225 51.96 308.225 51.012V46.8H306.965V45.252L308.333 45.162L308.585 42.75H310.313V45.162H312.563V46.8H310.313V51.012C310.313 52.044 310.727 52.56 311.555 52.56C311.711 52.56 311.873 52.542 312.041 52.506C312.209 52.458 312.353 52.41 312.473 52.362L312.833 53.892C312.593 53.976 312.317 54.048 312.005 54.108C311.705 54.18 311.381 54.216 311.033 54.216ZM314.423 54V45.162H316.133L316.277 46.728H316.349C316.661 46.152 317.039 45.714 317.483 45.414C317.927 45.102 318.383 44.946 318.851 44.946C319.271 44.946 319.607 45.006 319.859 45.126L319.499 46.926C319.343 46.878 319.199 46.842 319.067 46.818C318.935 46.794 318.773 46.782 318.581 46.782C318.233 46.782 317.867 46.92 317.483 47.196C317.099 47.46 316.769 47.928 316.493 48.6V54H314.423ZM324.58 54.216C323.848 54.216 323.164 54.036 322.528 53.676C321.892 53.304 321.376 52.776 320.98 52.092C320.584 51.396 320.386 50.562 320.386 49.59C320.386 48.606 320.584 47.772 320.98 47.088C321.376 46.392 321.892 45.864 322.528 45.504C323.164 45.132 323.848 44.946 324.58 44.946C325.324 44.946 326.014 45.132 326.65 45.504C327.286 45.864 327.802 46.392 328.198 47.088C328.594 47.772 328.792 48.606 328.792 49.59C328.792 50.562 328.594 51.396 328.198 52.092C327.802 52.776 327.286 53.304 326.65 53.676C326.014 54.036 325.324 54.216 324.58 54.216ZM324.58 52.524C325.228 52.524 325.738 52.254 326.11 51.714C326.482 51.174 326.668 50.466 326.668 49.59C326.668 48.702 326.482 47.988 326.11 47.448C325.738 46.908 325.228 46.638 324.58 46.638C323.932 46.638 323.422 46.908 323.05 47.448C322.69 47.988 322.51 48.702 322.51 49.59C322.51 50.466 322.69 51.174 323.05 51.714C323.422 52.254 323.932 52.524 324.58 52.524ZM330.841 54V45.162H332.551L332.695 46.35H332.767C333.163 45.966 333.595 45.636 334.063 45.36C334.531 45.084 335.065 44.946 335.665 44.946C336.613 44.946 337.303 45.252 337.735 45.864C338.167 46.476 338.383 47.34 338.383 48.456V54H336.313V48.726C336.313 47.994 336.205 47.478 335.989 47.178C335.773 46.878 335.419 46.728 334.927 46.728C334.543 46.728 334.201 46.824 333.901 47.016C333.613 47.196 333.283 47.466 332.911 47.826V54H330.841ZM343.992 57.906C343.296 57.906 342.666 57.822 342.102 57.654C341.55 57.486 341.112 57.228 340.788 56.88C340.476 56.544 340.32 56.118 340.32 55.602C340.32 54.87 340.74 54.24 341.58 53.712V53.64C341.352 53.496 341.16 53.304 341.004 53.064C340.86 52.824 340.788 52.524 340.788 52.164C340.788 51.816 340.884 51.504 341.076 51.228C341.28 50.94 341.508 50.706 341.76 50.526V50.454C341.46 50.226 341.19 49.908 340.95 49.5C340.722 49.092 340.608 48.63 340.608 48.114C340.608 47.43 340.77 46.854 341.094 46.386C341.418 45.918 341.844 45.564 342.372 45.324C342.912 45.072 343.488 44.946 344.1 44.946C344.34 44.946 344.568 44.97 344.784 45.018C345.012 45.054 345.216 45.102 345.396 45.162H348.564V46.692H346.944C347.088 46.86 347.208 47.076 347.304 47.34C347.4 47.592 347.448 47.874 347.448 48.186C347.448 48.834 347.298 49.386 346.998 49.842C346.698 50.286 346.296 50.622 345.792 50.85C345.288 51.078 344.724 51.192 344.1 51.192C343.908 51.192 343.71 51.174 343.506 51.138C343.302 51.102 343.098 51.042 342.894 50.958C342.762 51.078 342.654 51.198 342.57 51.318C342.498 51.438 342.462 51.6 342.462 51.804C342.462 52.056 342.564 52.254 342.768 52.398C342.984 52.542 343.362 52.614 343.902 52.614H345.468C346.536 52.614 347.34 52.788 347.88 53.136C348.432 53.472 348.708 54.024 348.708 54.792C348.708 55.368 348.516 55.89 348.132 56.358C347.748 56.838 347.202 57.216 346.494 57.492C345.786 57.768 344.952 57.906 343.992 57.906ZM344.1 49.896C344.52 49.896 344.88 49.74 345.18 49.428C345.48 49.116 345.63 48.678 345.63 48.114C345.63 47.562 345.48 47.136 345.18 46.836C344.892 46.524 344.532 46.368 344.1 46.368C343.668 46.368 343.302 46.518 343.002 46.818C342.702 47.118 342.552 47.55 342.552 48.114C342.552 48.678 342.702 49.116 343.002 49.428C343.302 49.74 343.668 49.896 344.1 49.896ZM344.316 56.556C345.024 56.556 345.6 56.412 346.044 56.124C346.488 55.836 346.71 55.506 346.71 55.134C346.71 54.786 346.572 54.552 346.296 54.432C346.032 54.312 345.648 54.252 345.144 54.252H343.938C343.458 54.252 343.056 54.21 342.732 54.126C342.276 54.474 342.048 54.864 342.048 55.296C342.048 55.692 342.252 55.998 342.66 56.214C343.068 56.442 343.62 56.556 344.316 56.556Z"></path>
<path fill="white" d="M168 92C168 89.7909 169.791 88 172 88H309C311.209 88 313 89.7909 313 92V116C313 118.209 311.209 120 309 120H172C169.791 120 168 118.209 168 116V92Z"></path>
<path stroke-opacity="0.188235" stroke="#001630" d="M168.5 92C168.5 90.067 170.067 88.5 172 88.5H309C310.933 88.5 312.5 90.067 312.5 92V116C312.5 117.933 310.933 119.5 309 119.5H172C170.067 119.5 168.5 117.933 168.5 116V92Z"></path>
<path stroke-width="2" stroke="#417DA0" d="M201.172 101.172L194.828 94.8284C193.266 93.2663 190.734 93.2663 189.172 94.8284L182.828 101.172C181.266 102.734 181.266 105.266 182.828 106.828L189.172 113.172C190.734 114.734 193.266 114.734 194.828 113.172L201.172 106.828C202.734 105.266 202.734 102.734 201.172 101.172Z"></path>
<path fill="#202733" d="M217.598 110.216C216.758 110.216 215.954 109.832 215.186 109.064H215.132L214.952 110H213.314V97.292H215.384V100.568L215.33 102.044C215.702 101.72 216.11 101.456 216.554 101.252C216.998 101.048 217.442 100.946 217.886 100.946C218.99 100.946 219.848 101.354 220.46 102.17C221.072 102.986 221.378 104.072 221.378 105.428C221.378 106.436 221.198 107.3 220.838 108.02C220.478 108.728 220.01 109.274 219.434 109.658C218.87 110.03 218.258 110.216 217.598 110.216ZM217.166 108.506C217.754 108.506 218.246 108.248 218.642 107.732C219.038 107.216 219.236 106.46 219.236 105.464C219.236 104.576 219.086 103.886 218.786 103.394C218.486 102.902 218 102.656 217.328 102.656C216.704 102.656 216.056 102.986 215.384 103.646V107.768C215.696 108.032 216.002 108.224 216.302 108.344C216.614 108.452 216.902 108.506 217.166 108.506ZM227.075 110.216C226.343 110.216 225.659 110.036 225.023 109.676C224.387 109.304 223.871 108.776 223.475 108.092C223.079 107.396 222.881 106.562 222.881 105.59C222.881 104.606 223.079 103.772 223.475 103.088C223.871 102.392 224.387 101.864 225.023 101.504C225.659 101.132 226.343 100.946 227.075 100.946C227.819 100.946 228.509 101.132 229.145 101.504C229.781 101.864 230.297 102.392 230.693 103.088C231.089 103.772 231.287 104.606 231.287 105.59C231.287 106.562 231.089 107.396 230.693 108.092C230.297 108.776 229.781 109.304 229.145 109.676C228.509 110.036 227.819 110.216 227.075 110.216ZM227.075 108.524C227.723 108.524 228.233 108.254 228.605 107.714C228.977 107.174 229.163 106.466 229.163 105.59C229.163 104.702 228.977 103.988 228.605 103.448C228.233 102.908 227.723 102.638 227.075 102.638C226.427 102.638 225.917 102.908 225.545 103.448C225.185 103.988 225.005 104.702 225.005 105.59C225.005 106.466 225.185 107.174 225.545 107.714C225.917 108.254 226.427 108.524 227.075 108.524ZM233.335 110V101.162H235.045L235.189 102.728H235.261C235.573 102.152 235.951 101.714 236.395 101.414C236.839 101.102 237.295 100.946 237.763 100.946C238.183 100.946 238.519 101.006 238.771 101.126L238.411 102.926C238.255 102.878 238.111 102.842 237.979 102.818C237.847 102.794 237.685 102.782 237.493 102.782C237.145 102.782 236.779 102.92 236.395 103.196C236.011 103.46 235.681 103.928 235.405 104.6V110H233.335ZM242.971 110.216C241.867 110.216 240.985 109.808 240.325 108.992C239.665 108.176 239.335 107.042 239.335 105.59C239.335 104.63 239.509 103.802 239.857 103.106C240.217 102.41 240.685 101.876 241.261 101.504C241.837 101.132 242.443 100.946 243.079 100.946C243.583 100.946 244.009 101.036 244.357 101.216C244.717 101.384 245.065 101.618 245.401 101.918L245.329 100.496V97.292H247.399V110H245.689L245.545 109.046H245.473C245.149 109.37 244.771 109.646 244.339 109.874C243.907 110.102 243.451 110.216 242.971 110.216ZM243.475 108.506C244.135 108.506 244.753 108.176 245.329 107.516V103.394C245.029 103.118 244.729 102.926 244.429 102.818C244.129 102.71 243.829 102.656 243.529 102.656C242.965 102.656 242.479 102.914 242.071 103.43C241.675 103.934 241.477 104.648 241.477 105.572C241.477 106.52 241.651 107.246 241.999 107.75C242.347 108.254 242.839 108.506 243.475 108.506ZM253.815 110.216C252.999 110.216 252.261 110.036 251.601 109.676C250.941 109.304 250.419 108.776 250.035 108.092C249.651 107.396 249.459 106.562 249.459 105.59C249.459 104.63 249.651 103.802 250.035 103.106C250.431 102.41 250.941 101.876 251.565 101.504C252.189 101.132 252.843 100.946 253.527 100.946C254.331 100.946 255.003 101.126 255.543 101.486C256.083 101.834 256.491 102.326 256.767 102.962C257.043 103.586 257.181 104.312 257.181 105.14C257.181 105.572 257.151 105.908 257.091 106.148H251.475C251.571 106.928 251.853 107.534 252.321 107.966C252.789 108.398 253.377 108.614 254.085 108.614C254.469 108.614 254.823 108.56 255.147 108.452C255.483 108.332 255.813 108.17 256.137 107.966L256.839 109.262C256.419 109.538 255.951 109.766 255.435 109.946C254.919 110.126 254.379 110.216 253.815 110.216ZM251.457 104.744H255.381C255.381 104.06 255.231 103.526 254.931 103.142C254.631 102.746 254.181 102.548 253.581 102.548C253.065 102.548 252.603 102.74 252.195 103.124C251.799 103.496 251.553 104.036 251.457 104.744ZM259.158 110V101.162H260.868L261.012 102.728H261.084C261.396 102.152 261.774 101.714 262.218 101.414C262.662 101.102 263.118 100.946 263.586 100.946C264.006 100.946 264.342 101.006 264.594 101.126L264.234 102.926C264.078 102.878 263.934 102.842 263.802 102.818C263.67 102.794 263.508 102.782 263.316 102.782C262.968 102.782 262.602 102.92 262.218 103.196C261.834 103.46 261.504 103.928 261.228 104.6V110H259.158ZM264.84 106.22V104.708H269.124V106.22H264.84ZM271.199 110V101.162H273.269V110H271.199ZM272.243 99.614C271.871 99.614 271.571 99.506 271.343 99.29C271.115 99.074 271.001 98.786 271.001 98.426C271.001 98.078 271.115 97.796 271.343 97.58C271.571 97.364 271.871 97.256 272.243 97.256C272.615 97.256 272.915 97.364 273.143 97.58C273.371 97.796 273.485 98.078 273.485 98.426C273.485 98.786 273.371 99.074 273.143 99.29C272.915 99.506 272.615 99.614 272.243 99.614ZM275.91 110V101.162H277.62L277.764 102.35H277.836C278.232 101.966 278.664 101.636 279.132 101.36C279.6 101.084 280.134 100.946 280.734 100.946C281.682 100.946 282.372 101.252 282.804 101.864C283.236 102.476 283.452 103.34 283.452 104.456V110H281.382V104.726C281.382 103.994 281.274 103.478 281.058 103.178C280.842 102.878 280.488 102.728 279.996 102.728C279.612 102.728 279.27 102.824 278.97 103.016C278.682 103.196 278.352 103.466 277.98 103.826V110H275.91ZM286.342 110V102.8H285.154V101.252L286.342 101.162V100.244C286.342 99.32 286.57 98.564 287.026 97.976C287.482 97.376 288.232 97.076 289.276 97.076C289.588 97.076 289.888 97.106 290.176 97.166C290.464 97.226 290.704 97.298 290.896 97.382L290.5 98.93C290.176 98.786 289.852 98.714 289.528 98.714C288.784 98.714 288.412 99.212 288.412 100.208V101.162H290.14V102.8H288.412V110H286.342ZM295.137 110.216C294.405 110.216 293.721 110.036 293.085 109.676C292.449 109.304 291.933 108.776 291.537 108.092C291.141 107.396 290.943 106.562 290.943 105.59C290.943 104.606 291.141 103.772 291.537 103.088C291.933 102.392 292.449 101.864 293.085 101.504C293.721 101.132 294.405 100.946 295.137 100.946C295.881 100.946 296.571 101.132 297.207 101.504C297.843 101.864 298.359 102.392 298.755 103.088C299.151 103.772 299.349 104.606 299.349 105.59C299.349 106.562 299.151 107.396 298.755 108.092C298.359 108.776 297.843 109.304 297.207 109.676C296.571 110.036 295.881 110.216 295.137 110.216ZM295.137 108.524C295.785 108.524 296.295 108.254 296.667 107.714C297.039 107.174 297.225 106.466 297.225 105.59C297.225 104.702 297.039 103.988 296.667 103.448C296.295 102.908 295.785 102.638 295.137 102.638C294.489 102.638 293.979 102.908 293.607 103.448C293.247 103.988 293.067 104.702 293.067 105.59C293.067 106.466 293.247 107.174 293.607 107.714C293.979 108.254 294.489 108.524 295.137 108.524Z"></path>
<path fill="white" d="M168 148C168 145.791 169.791 144 172 144H368C370.209 144 372 145.791 372 148V172C372 174.209 370.209 176 368 176H172C169.791 176 168 174.209 168 172V148Z"></path>
<path stroke-opacity="0.188235" stroke="#001630" d="M168.5 148C168.5 146.067 170.067 144.5 172 144.5H368C369.933 144.5 371.5 146.067 371.5 148V172C371.5 173.933 369.933 175.5 368 175.5H172C170.067 175.5 168.5 173.933 168.5 172V148Z"></path>
<path fill="#006C1F" d="M186.089 159.736L185.675 161.176H188.681L188.267 159.736C188.075 159.112 187.889 158.47 187.709 157.81C187.541 157.15 187.373 156.496 187.205 155.848H187.133C186.977 156.508 186.809 157.168 186.629 157.828C186.461 158.476 186.281 159.112 186.089 159.736ZM182.147 166L185.981 154.228H188.429L192.263 166H190.067L189.149 162.814H185.189L184.271 166H182.147ZM195.992 166.216C195.224 166.216 194.594 165.976 194.102 165.496C193.622 165.016 193.382 164.392 193.382 163.624C193.382 162.676 193.796 161.944 194.624 161.428C195.452 160.9 196.772 160.54 198.584 160.348C198.572 159.88 198.446 159.478 198.206 159.142C197.978 158.794 197.564 158.62 196.964 158.62C196.532 158.62 196.106 158.704 195.686 158.872C195.278 159.04 194.876 159.244 194.48 159.484L193.724 158.098C194.216 157.786 194.768 157.516 195.38 157.288C196.004 157.06 196.664 156.946 197.36 156.946C198.464 156.946 199.286 157.276 199.826 157.936C200.378 158.584 200.654 159.526 200.654 160.762V166H198.944L198.8 165.028H198.728C198.332 165.364 197.906 165.646 197.45 165.874C197.006 166.102 196.52 166.216 195.992 166.216ZM196.658 164.596C197.018 164.596 197.342 164.512 197.63 164.344C197.93 164.164 198.248 163.924 198.584 163.624V161.644C197.384 161.8 196.55 162.034 196.082 162.346C195.614 162.646 195.38 163.018 195.38 163.462C195.38 163.858 195.5 164.146 195.74 164.326C195.98 164.506 196.286 164.596 196.658 164.596Z"></path>
<path fill="#202733" d="M216.428 166.216C215.408 166.216 214.682 165.922 214.25 165.334C213.83 164.734 213.62 163.96 213.62 163.012V158.8H212.36V157.252L213.728 157.162L213.98 154.75H215.708V157.162H217.958V158.8H215.708V163.012C215.708 164.044 216.122 164.56 216.95 164.56C217.106 164.56 217.268 164.542 217.436 164.506C217.604 164.458 217.748 164.41 217.868 164.362L218.228 165.892C217.988 165.976 217.712 166.048 217.4 166.108C217.1 166.18 216.776 166.216 216.428 166.216ZM223.317 166.216C222.501 166.216 221.763 166.036 221.103 165.676C220.443 165.304 219.921 164.776 219.537 164.092C219.153 163.396 218.961 162.562 218.961 161.59C218.961 160.63 219.153 159.802 219.537 159.106C219.933 158.41 220.443 157.876 221.067 157.504C221.691 157.132 222.345 156.946 223.029 156.946C223.833 156.946 224.505 157.126 225.045 157.486C225.585 157.834 225.993 158.326 226.269 158.962C226.545 159.586 226.683 160.312 226.683 161.14C226.683 161.572 226.653 161.908 226.593 162.148H220.977C221.073 162.928 221.355 163.534 221.823 163.966C222.291 164.398 222.879 164.614 223.587 164.614C223.971 164.614 224.325 164.56 224.649 164.452C224.985 164.332 225.315 164.17 225.639 163.966L226.341 165.262C225.921 165.538 225.453 165.766 224.937 165.946C224.421 166.126 223.881 166.216 223.317 166.216ZM220.959 160.744H224.883C224.883 160.06 224.733 159.526 224.433 159.142C224.133 158.746 223.683 158.548 223.083 158.548C222.567 158.548 222.105 158.74 221.697 159.124C221.301 159.496 221.055 160.036 220.959 160.744ZM227.387 166L230.195 161.392L227.567 157.162H229.799L230.789 158.836C230.921 159.076 231.053 159.328 231.185 159.592C231.329 159.844 231.467 160.09 231.599 160.33H231.671C231.779 160.09 231.893 159.844 232.013 159.592C232.133 159.328 232.247 159.076 232.355 158.836L233.201 157.162H235.343L232.733 161.626L235.541 166H233.309L232.229 164.254C232.085 163.99 231.935 163.726 231.779 163.462C231.635 163.198 231.485 162.94 231.329 162.688H231.257C231.137 162.94 231.011 163.198 230.879 163.462C230.747 163.714 230.615 163.978 230.483 164.254L229.547 166H227.387ZM239.754 166.216C238.734 166.216 238.008 165.922 237.576 165.334C237.156 164.734 236.946 163.96 236.946 163.012V158.8H235.686V157.252L237.054 157.162L237.306 154.75H239.034V157.162H241.284V158.8H239.034V163.012C239.034 164.044 239.448 164.56 240.276 164.56C240.432 164.56 240.594 164.542 240.762 164.506C240.93 164.458 241.074 164.41 241.194 164.362L241.554 165.892C241.314 165.976 241.038 166.048 240.726 166.108C240.426 166.18 240.102 166.216 239.754 166.216ZM242.024 162.22V160.708H246.308V162.22H242.024ZM250.848 166.216C250.248 166.216 249.648 166.102 249.048 165.874C248.448 165.634 247.932 165.34 247.5 164.992L248.472 163.66C248.868 163.96 249.264 164.2 249.66 164.38C250.056 164.56 250.476 164.65 250.92 164.65C251.4 164.65 251.754 164.548 251.982 164.344C252.21 164.14 252.324 163.888 252.324 163.588C252.324 163.336 252.228 163.132 252.036 162.976C251.856 162.808 251.622 162.664 251.334 162.544C251.046 162.412 250.746 162.286 250.434 162.166C250.05 162.022 249.666 161.848 249.282 161.644C248.91 161.428 248.604 161.158 248.364 160.834C248.124 160.498 248.004 160.084 248.004 159.592C248.004 158.812 248.292 158.176 248.868 157.684C249.444 157.192 250.224 156.946 251.208 156.946C251.832 156.946 252.39 157.054 252.882 157.27C253.374 157.486 253.8 157.732 254.16 158.008L253.206 159.268C252.894 159.04 252.576 158.86 252.252 158.728C251.94 158.584 251.61 158.512 251.262 158.512C250.818 158.512 250.488 158.608 250.272 158.8C250.056 158.98 249.948 159.208 249.948 159.484C249.948 159.832 250.128 160.096 250.488 160.276C250.848 160.456 251.268 160.63 251.748 160.798C252.156 160.942 252.552 161.122 252.936 161.338C253.32 161.542 253.638 161.812 253.89 162.148C254.154 162.484 254.286 162.928 254.286 163.48C254.286 164.236 253.992 164.884 253.404 165.424C252.816 165.952 251.964 166.216 250.848 166.216ZM258.762 166.216C257.814 166.216 257.124 165.91 256.692 165.298C256.26 164.686 256.044 163.822 256.044 162.706V157.162H258.114V162.436C258.114 163.168 258.222 163.684 258.438 163.984C258.654 164.284 259.002 164.434 259.482 164.434C259.866 164.434 260.202 164.338 260.49 164.146C260.79 163.954 261.108 163.642 261.444 163.21V157.162H263.514V166H261.822L261.66 164.704H261.606C261.222 165.16 260.802 165.526 260.346 165.802C259.89 166.078 259.362 166.216 258.762 166.216ZM269.826 166.216C269.022 166.216 268.296 166.036 267.648 165.676C267.012 165.304 266.502 164.776 266.118 164.092C265.746 163.396 265.56 162.562 265.56 161.59C265.56 160.606 265.764 159.772 266.172 159.088C266.58 158.392 267.12 157.864 267.792 157.504C268.476 157.132 269.208 156.946 269.988 156.946C270.552 156.946 271.044 157.042 271.464 157.234C271.884 157.426 272.256 157.66 272.58 157.936L271.572 159.286C271.344 159.082 271.11 158.926 270.87 158.818C270.63 158.698 270.372 158.638 270.096 158.638C269.388 158.638 268.806 158.908 268.35 159.448C267.906 159.988 267.684 160.702 267.684 161.59C267.684 162.466 267.9 163.174 268.332 163.714C268.776 164.254 269.346 164.524 270.042 164.524C270.39 164.524 270.714 164.452 271.014 164.308C271.326 164.152 271.608 163.972 271.86 163.768L272.706 165.136C272.298 165.496 271.842 165.766 271.338 165.946C270.834 166.126 270.33 166.216 269.826 166.216ZM277.701 166.216C276.897 166.216 276.171 166.036 275.523 165.676C274.887 165.304 274.377 164.776 273.993 164.092C273.621 163.396 273.435 162.562 273.435 161.59C273.435 160.606 273.639 159.772 274.047 159.088C274.455 158.392 274.995 157.864 275.667 157.504C276.351 157.132 277.083 156.946 277.863 156.946C278.427 156.946 278.919 157.042 279.339 157.234C279.759 157.426 280.131 157.66 280.455 157.936L279.447 159.286C279.219 159.082 278.985 158.926 278.745 158.818C278.505 158.698 278.247 158.638 277.971 158.638C277.263 158.638 276.681 158.908 276.225 159.448C275.781 159.988 275.559 160.702 275.559 161.59C275.559 162.466 275.775 163.174 276.207 163.714C276.651 164.254 277.221 164.524 277.917 164.524C278.265 164.524 278.589 164.452 278.889 164.308C279.201 164.152 279.483 163.972 279.735 163.768L280.581 165.136C280.173 165.496 279.717 165.766 279.213 165.946C278.709 166.126 278.205 166.216 277.701 166.216ZM285.666 166.216C284.85 166.216 284.112 166.036 283.452 165.676C282.792 165.304 282.27 164.776 281.886 164.092C281.502 163.396 281.31 162.562 281.31 161.59C281.31 160.63 281.502 159.802 281.886 159.106C282.282 158.41 282.792 157.876 283.416 157.504C284.04 157.132 284.694 156.946 285.378 156.946C286.182 156.946 286.854 157.126 287.394 157.486C287.934 157.834 288.342 158.326 288.618 158.962C288.894 159.586 289.032 160.312 289.032 161.14C289.032 161.572 289.002 161.908 288.942 162.148H283.326C283.422 162.928 283.704 163.534 284.172 163.966C284.64 164.398 285.228 164.614 285.936 164.614C286.32 164.614 286.674 164.56 286.998 164.452C287.334 164.332 287.664 164.17 287.988 163.966L288.69 165.262C288.27 165.538 287.802 165.766 287.286 165.946C286.77 166.126 286.23 166.216 285.666 166.216ZM283.308 160.744H287.232C287.232 160.06 287.082 159.526 286.782 159.142C286.482 158.746 286.032 158.548 285.432 158.548C284.916 158.548 284.454 158.74 284.046 159.124C283.65 159.496 283.404 160.036 283.308 160.744ZM293.475 166.216C292.875 166.216 292.275 166.102 291.675 165.874C291.075 165.634 290.559 165.34 290.127 164.992L291.099 163.66C291.495 163.96 291.891 164.2 292.287 164.38C292.683 164.56 293.103 164.65 293.547 164.65C294.027 164.65 294.381 164.548 294.609 164.344C294.837 164.14 294.951 163.888 294.951 163.588C294.951 163.336 294.855 163.132 294.663 162.976C294.483 162.808 294.249 162.664 293.961 162.544C293.673 162.412 293.373 162.286 293.061 162.166C292.677 162.022 292.293 161.848 291.909 161.644C291.537 161.428 291.231 161.158 290.991 160.834C290.751 160.498 290.631 160.084 290.631 159.592C290.631 158.812 290.919 158.176 291.495 157.684C292.071 157.192 292.851 156.946 293.835 156.946C294.459 156.946 295.017 157.054 295.509 157.27C296.001 157.486 296.427 157.732 296.787 158.008L295.833 159.268C295.521 159.04 295.203 158.86 294.879 158.728C294.567 158.584 294.237 158.512 293.889 158.512C293.445 158.512 293.115 158.608 292.899 158.8C292.683 158.98 292.575 159.208 292.575 159.484C292.575 159.832 292.755 160.096 293.115 160.276C293.475 160.456 293.895 160.63 294.375 160.798C294.783 160.942 295.179 161.122 295.563 161.338C295.947 161.542 296.265 161.812 296.517 162.148C296.781 162.484 296.913 162.928 296.913 163.48C296.913 164.236 296.619 164.884 296.031 165.424C295.443 165.952 294.591 166.216 293.475 166.216ZM301.227 166.216C300.627 166.216 300.027 166.102 299.427 165.874C298.827 165.634 298.311 165.34 297.879 164.992L298.851 163.66C299.247 163.96 299.643 164.2 300.039 164.38C300.435 164.56 300.855 164.65 301.299 164.65C301.779 164.65 302.133 164.548 302.361 164.344C302.589 164.14 302.703 163.888 302.703 163.588C302.703 163.336 302.607 163.132 302.415 162.976C302.235 162.808 302.001 162.664 301.713 162.544C301.425 162.412 301.125 162.286 300.813 162.166C300.429 162.022 300.045 161.848 299.661 161.644C299.289 161.428 298.983 161.158 298.743 160.834C298.503 160.498 298.383 160.084 298.383 159.592C298.383 158.812 298.671 158.176 299.247 157.684C299.823 157.192 300.603 156.946 301.587 156.946C302.211 156.946 302.769 157.054 303.261 157.27C303.753 157.486 304.179 157.732 304.539 158.008L303.585 159.268C303.273 159.04 302.955 158.86 302.631 158.728C302.319 158.584 301.989 158.512 301.641 158.512C301.197 158.512 300.867 158.608 300.651 158.8C300.435 158.98 300.327 159.208 300.327 159.484C300.327 159.832 300.507 160.096 300.867 160.276C301.227 160.456 301.647 160.63 302.127 160.798C302.535 160.942 302.931 161.122 303.315 161.338C303.699 161.542 304.017 161.812 304.269 162.148C304.533 162.484 304.665 162.928 304.665 163.48C304.665 164.236 304.371 164.884 303.783 165.424C303.195 165.952 302.343 166.216 301.227 166.216ZM306.131 162.22V160.708H310.415V162.22H306.131ZM314.956 166.216C314.356 166.216 313.756 166.102 313.156 165.874C312.556 165.634 312.04 165.34 311.608 164.992L312.58 163.66C312.976 163.96 313.372 164.2 313.768 164.38C314.164 164.56 314.584 164.65 315.028 164.65C315.508 164.65 315.862 164.548 316.09 164.344C316.318 164.14 316.432 163.888 316.432 163.588C316.432 163.336 316.336 163.132 316.144 162.976C315.964 162.808 315.73 162.664 315.442 162.544C315.154 162.412 314.854 162.286 314.542 162.166C314.158 162.022 313.774 161.848 313.39 161.644C313.018 161.428 312.712 161.158 312.472 160.834C312.232 160.498 312.112 160.084 312.112 159.592C312.112 158.812 312.4 158.176 312.976 157.684C313.552 157.192 314.332 156.946 315.316 156.946C315.94 156.946 316.498 157.054 316.99 157.27C317.482 157.486 317.908 157.732 318.268 158.008L317.314 159.268C317.002 159.04 316.684 158.86 316.36 158.728C316.048 158.584 315.718 158.512 315.37 158.512C314.926 158.512 314.596 158.608 314.38 158.8C314.164 158.98 314.056 159.208 314.056 159.484C314.056 159.832 314.236 160.096 314.596 160.276C314.956 160.456 315.376 160.63 315.856 160.798C316.264 160.942 316.66 161.122 317.044 161.338C317.428 161.542 317.746 161.812 317.998 162.148C318.262 162.484 318.394 162.928 318.394 163.48C318.394 164.236 318.1 164.884 317.512 165.424C316.924 165.952 316.072 166.216 314.956 166.216ZM322.87 166.216C321.922 166.216 321.232 165.91 320.8 165.298C320.368 164.686 320.152 163.822 320.152 162.706V157.162H322.222V162.436C322.222 163.168 322.33 163.684 322.546 163.984C322.762 164.284 323.11 164.434 323.59 164.434C323.974 164.434 324.31 164.338 324.598 164.146C324.898 163.954 325.216 163.642 325.552 163.21V157.162H327.622V166H325.93L325.768 164.704H325.714C325.33 165.16 324.91 165.526 324.454 165.802C323.998 166.078 323.47 166.216 322.87 166.216ZM334.528 166.216C333.688 166.216 332.884 165.832 332.116 165.064H332.062L331.882 166H330.244V153.292H332.314V156.568L332.26 158.044C332.632 157.72 333.04 157.456 333.484 157.252C333.928 157.048 334.372 156.946 334.816 156.946C335.92 156.946 336.778 157.354 337.39 158.17C338.002 158.986 338.308 160.072 338.308 161.428C338.308 162.436 338.128 163.3 337.768 164.02C337.408 164.728 336.94 165.274 336.364 165.658C335.8 166.03 335.188 166.216 334.528 166.216ZM334.096 164.506C334.684 164.506 335.176 164.248 335.572 163.732C335.968 163.216 336.166 162.46 336.166 161.464C336.166 160.576 336.016 159.886 335.716 159.394C335.416 158.902 334.93 158.656 334.258 158.656C333.634 158.656 332.986 158.986 332.314 159.646V163.768C332.626 164.032 332.932 164.224 333.232 164.344C333.544 164.452 333.832 164.506 334.096 164.506ZM343.096 166.216C342.076 166.216 341.35 165.922 340.918 165.334C340.498 164.734 340.288 163.96 340.288 163.012V158.8H339.028V157.252L340.396 157.162L340.648 154.75H342.376V157.162H344.626V158.8H342.376V163.012C342.376 164.044 342.79 164.56 343.618 164.56C343.774 164.56 343.936 164.542 344.104 164.506C344.272 164.458 344.416 164.41 344.536 164.362L344.896 165.892C344.656 165.976 344.38 166.048 344.068 166.108C343.768 166.18 343.444 166.216 343.096 166.216ZM348.502 166.216C347.77 166.216 347.248 165.994 346.936 165.55C346.636 165.106 346.486 164.5 346.486 163.732V153.292H348.556V163.84C348.556 164.092 348.604 164.272 348.7 164.38C348.796 164.476 348.898 164.524 349.006 164.524C349.054 164.524 349.096 164.524 349.132 164.524C349.18 164.512 349.246 164.5 349.33 164.488L349.6 166.036C349.48 166.084 349.324 166.126 349.132 166.162C348.952 166.198 348.742 166.216 348.502 166.216ZM355.153 166.216C354.337 166.216 353.599 166.036 352.939 165.676C352.279 165.304 351.757 164.776 351.373 164.092C350.989 163.396 350.797 162.562 350.797 161.59C350.797 160.63 350.989 159.802 351.373 159.106C351.769 158.41 352.279 157.876 352.903 157.504C353.527 157.132 354.181 156.946 354.865 156.946C355.669 156.946 356.341 157.126 356.881 157.486C357.421 157.834 357.829 158.326 358.105 158.962C358.381 159.586 358.519 160.312 358.519 161.14C358.519 161.572 358.489 161.908 358.429 162.148H352.813C352.909 162.928 353.191 163.534 353.659 163.966C354.127 164.398 354.715 164.614 355.423 164.614C355.807 164.614 356.161 164.56 356.485 164.452C356.821 164.332 357.151 164.17 357.475 163.966L358.177 165.262C357.757 165.538 357.289 165.766 356.773 165.946C356.257 166.126 355.717 166.216 355.153 166.216ZM352.795 160.744H356.719C356.719 160.06 356.569 159.526 356.269 159.142C355.969 158.746 355.519 158.548 354.919 158.548C354.403 158.548 353.941 158.74 353.533 159.124C353.137 159.496 352.891 160.036 352.795 160.744Z"></path>
<path stroke="#6F7785" d="M214 169H227.5M241 169H227.5M227.5 169V189"></path>
<path stroke="#6F7785" d="M249 169H277M305 169H277M277 169V189"></path>
<path stroke="#6F7785" d="M313 169H336M359 169H336M336 169V189"></path>
<path fill="#202733" d="M179.522 204.168C178.897 204.168 178.332 204.042 177.828 203.79C177.333 203.538 176.941 203.123 176.652 202.544C176.363 201.965 176.218 201.186 176.218 200.206V194.816H177.38V200.234C177.38 200.971 177.473 201.555 177.66 201.984C177.856 202.404 178.113 202.703 178.43 202.88C178.757 203.057 179.121 203.146 179.522 203.146C179.933 203.146 180.301 203.057 180.628 202.88C180.955 202.703 181.211 202.404 181.398 201.984C181.594 201.555 181.692 200.971 181.692 200.234V194.816H182.812V200.206C182.812 201.186 182.667 201.965 182.378 202.544C182.089 203.123 181.697 203.538 181.202 203.79C180.707 204.042 180.147 204.168 179.522 204.168ZM185.339 204V194.816H186.501V204H185.339ZM188.387 200.934V200.052H191.607V200.934H188.387ZM196.123 204.168C195.516 204.168 194.965 204.028 194.471 203.748C193.976 203.459 193.584 203.048 193.295 202.516C193.005 201.984 192.861 201.349 192.861 200.612C192.861 199.865 193.005 199.226 193.295 198.694C193.593 198.162 193.976 197.751 194.443 197.462C194.909 197.173 195.399 197.028 195.913 197.028C196.781 197.028 197.448 197.317 197.915 197.896C198.391 198.475 198.629 199.249 198.629 200.22C198.629 200.341 198.624 200.463 198.615 200.584C198.615 200.696 198.605 200.794 198.587 200.878H193.995C194.041 201.597 194.265 202.171 194.667 202.6C195.077 203.029 195.609 203.244 196.263 203.244C196.589 203.244 196.888 203.197 197.159 203.104C197.439 203.001 197.705 202.871 197.957 202.712L198.363 203.468C198.073 203.655 197.742 203.818 197.369 203.958C197.005 204.098 196.589 204.168 196.123 204.168ZM193.981 200.052H197.621C197.621 199.361 197.471 198.839 197.173 198.484C196.883 198.12 196.473 197.938 195.941 197.938C195.465 197.938 195.035 198.125 194.653 198.498C194.279 198.862 194.055 199.38 193.981 200.052ZM201.584 204.168C201.155 204.168 200.842 204.037 200.646 203.776C200.459 203.505 200.366 203.123 200.366 202.628V194.032H201.514V202.712C201.514 202.889 201.547 203.02 201.612 203.104C201.677 203.179 201.752 203.216 201.836 203.216C201.873 203.216 201.906 203.216 201.934 203.216C201.971 203.207 202.023 203.197 202.088 203.188L202.242 204.056C202.167 204.093 202.079 204.121 201.976 204.14C201.873 204.159 201.743 204.168 201.584 204.168ZM206.749 204.168C206.142 204.168 205.591 204.028 205.097 203.748C204.602 203.459 204.21 203.048 203.921 202.516C203.631 201.984 203.487 201.349 203.487 200.612C203.487 199.865 203.631 199.226 203.921 198.694C204.219 198.162 204.602 197.751 205.069 197.462C205.535 197.173 206.025 197.028 206.539 197.028C207.407 197.028 208.074 197.317 208.541 197.896C209.017 198.475 209.255 199.249 209.255 200.22C209.255 200.341 209.25 200.463 209.241 200.584C209.241 200.696 209.231 200.794 209.213 200.878H204.621C204.667 201.597 204.891 202.171 205.293 202.6C205.703 203.029 206.235 203.244 206.889 203.244C207.215 203.244 207.514 203.197 207.785 203.104C208.065 203.001 208.331 202.871 208.583 202.712L208.989 203.468C208.699 203.655 208.368 203.818 207.995 203.958C207.631 204.098 207.215 204.168 206.749 204.168ZM204.607 200.052H208.247C208.247 199.361 208.097 198.839 207.799 198.484C207.509 198.12 207.099 197.938 206.567 197.938C206.091 197.938 205.661 198.125 205.279 198.498C204.905 198.862 204.681 199.38 204.607 200.052ZM210.992 204V197.196H211.944L212.042 198.176H212.084C212.382 197.849 212.709 197.579 213.064 197.364C213.418 197.14 213.796 197.028 214.198 197.028C214.72 197.028 215.126 197.145 215.416 197.378C215.714 197.602 215.934 197.919 216.074 198.33C216.428 197.947 216.788 197.635 217.152 197.392C217.516 197.149 217.903 197.028 218.314 197.028C219.014 197.028 219.532 197.257 219.868 197.714C220.213 198.162 220.386 198.82 220.386 199.688V204H219.238V199.842C219.238 199.207 219.135 198.745 218.93 198.456C218.724 198.167 218.407 198.022 217.978 198.022C217.474 198.022 216.904 198.372 216.27 199.072V204H215.122V199.842C215.122 199.207 215.019 198.745 214.814 198.456C214.608 198.167 214.286 198.022 213.848 198.022C213.344 198.022 212.774 198.372 212.14 199.072V204H210.992ZM225.413 204.168C224.807 204.168 224.256 204.028 223.761 203.748C223.267 203.459 222.875 203.048 222.585 202.516C222.296 201.984 222.151 201.349 222.151 200.612C222.151 199.865 222.296 199.226 222.585 198.694C222.884 198.162 223.267 197.751 223.733 197.462C224.2 197.173 224.69 197.028 225.203 197.028C226.071 197.028 226.739 197.317 227.205 197.896C227.681 198.475 227.919 199.249 227.919 200.22C227.919 200.341 227.915 200.463 227.905 200.584C227.905 200.696 227.896 200.794 227.877 200.878H223.285C223.332 201.597 223.556 202.171 223.957 202.6C224.368 203.029 224.9 203.244 225.553 203.244C225.88 203.244 226.179 203.197 226.449 203.104C226.729 203.001 226.995 202.871 227.247 202.712L227.653 203.468C227.364 203.655 227.033 203.818 226.659 203.958C226.295 204.098 225.88 204.168 225.413 204.168ZM223.271 200.052H226.911C226.911 199.361 226.762 198.839 226.463 198.484C226.174 198.12 225.763 197.938 225.231 197.938C224.755 197.938 224.326 198.125 223.943 198.498C223.57 198.862 223.346 199.38 223.271 200.052ZM229.657 204V197.196H230.609L230.707 198.176H230.749C231.075 197.849 231.421 197.579 231.785 197.364C232.149 197.14 232.564 197.028 233.031 197.028C233.749 197.028 234.272 197.257 234.599 197.714C234.935 198.162 235.103 198.82 235.103 199.688V204H233.955V199.842C233.955 199.207 233.852 198.745 233.647 198.456C233.441 198.167 233.115 198.022 232.667 198.022C232.321 198.022 232.009 198.111 231.729 198.288C231.458 198.465 231.15 198.727 230.805 199.072V204H229.657ZM239.511 204.168C238.783 204.168 238.274 203.958 237.985 203.538C237.705 203.118 237.565 202.572 237.565 201.9V198.134H236.557V197.266L237.621 197.196L237.761 195.292H238.727V197.196H240.561V198.134H238.727V201.914C238.727 202.334 238.801 202.661 238.951 202.894C239.109 203.118 239.385 203.23 239.777 203.23C239.898 203.23 240.029 203.211 240.169 203.174C240.309 203.127 240.435 203.085 240.547 203.048L240.771 203.916C240.584 203.981 240.379 204.037 240.155 204.084C239.94 204.14 239.725 204.168 239.511 204.168Z"></path>
<path fill="#202733" d="M263.26 204V194.816H266.13C266.755 194.816 267.311 194.9 267.796 195.068C268.281 195.227 268.659 195.497 268.93 195.88C269.21 196.253 269.35 196.757 269.35 197.392C269.35 198.101 269.163 198.675 268.79 199.114C268.417 199.543 267.913 199.837 267.278 199.996L269.616 204H268.3L266.088 200.122H264.422V204H263.26ZM264.422 199.17H265.962C266.681 199.17 267.231 199.025 267.614 198.736C267.997 198.437 268.188 197.989 268.188 197.392C268.188 196.785 267.997 196.361 267.614 196.118C267.231 195.875 266.681 195.754 265.962 195.754H264.422V199.17ZM273.684 204.168C273.133 204.168 272.615 204.028 272.13 203.748C271.654 203.468 271.267 203.062 270.968 202.53C270.679 201.998 270.534 201.359 270.534 200.612C270.534 199.847 270.679 199.198 270.968 198.666C271.267 198.134 271.654 197.728 272.13 197.448C272.615 197.168 273.133 197.028 273.684 197.028C274.244 197.028 274.762 197.168 275.238 197.448C275.714 197.728 276.097 198.134 276.386 198.666C276.685 199.198 276.834 199.847 276.834 200.612C276.834 201.359 276.685 201.998 276.386 202.53C276.097 203.062 275.714 203.468 275.238 203.748C274.762 204.028 274.244 204.168 273.684 204.168ZM273.684 203.216C274.272 203.216 274.743 202.978 275.098 202.502C275.462 202.017 275.644 201.387 275.644 200.612C275.644 199.828 275.462 199.193 275.098 198.708C274.743 198.223 274.272 197.98 273.684 197.98C273.105 197.98 272.634 198.223 272.27 198.708C271.906 199.193 271.724 199.828 271.724 200.612C271.724 201.387 271.906 202.017 272.27 202.502C272.634 202.978 273.105 203.216 273.684 203.216ZM279.9 204.168C279.471 204.168 279.158 204.037 278.962 203.776C278.775 203.505 278.682 203.123 278.682 202.628V194.032H279.83V202.712C279.83 202.889 279.863 203.02 279.928 203.104C279.993 203.179 280.068 203.216 280.152 203.216C280.189 203.216 280.222 203.216 280.25 203.216C280.287 203.207 280.339 203.197 280.404 203.188L280.558 204.056C280.483 204.093 280.395 204.121 280.292 204.14C280.189 204.159 280.059 204.168 279.9 204.168ZM283.524 204.168C283.095 204.168 282.782 204.037 282.586 203.776C282.4 203.505 282.306 203.123 282.306 202.628V194.032H283.454V202.712C283.454 202.889 283.487 203.02 283.552 203.104C283.618 203.179 283.692 203.216 283.776 203.216C283.814 203.216 283.846 203.216 283.874 203.216C283.912 203.207 283.963 203.197 284.028 203.188L284.182 204.056C284.108 204.093 284.019 204.121 283.916 204.14C283.814 204.159 283.683 204.168 283.524 204.168ZM288.689 204.168C288.082 204.168 287.531 204.028 287.037 203.748C286.542 203.459 286.15 203.048 285.861 202.516C285.571 201.984 285.427 201.349 285.427 200.612C285.427 199.865 285.571 199.226 285.861 198.694C286.159 198.162 286.542 197.751 287.009 197.462C287.475 197.173 287.965 197.028 288.479 197.028C289.347 197.028 290.014 197.317 290.481 197.896C290.957 198.475 291.195 199.249 291.195 200.22C291.195 200.341 291.19 200.463 291.181 200.584C291.181 200.696 291.171 200.794 291.153 200.878H286.561C286.607 201.597 286.831 202.171 287.233 202.6C287.643 203.029 288.175 203.244 288.829 203.244C289.155 203.244 289.454 203.197 289.725 203.104C290.005 203.001 290.271 202.871 290.523 202.712L290.929 203.468C290.639 203.655 290.308 203.818 289.935 203.958C289.571 204.098 289.155 204.168 288.689 204.168ZM286.547 200.052H290.187C290.187 199.361 290.037 198.839 289.739 198.484C289.449 198.12 289.039 197.938 288.507 197.938C288.031 197.938 287.601 198.125 287.219 198.498C286.845 198.862 286.621 199.38 286.547 200.052Z"></path>
<path fill="#202733" d="M315.94 204L313 194.816H314.246L315.716 199.772C315.884 200.313 316.029 200.822 316.15 201.298C316.281 201.765 316.435 202.269 316.612 202.81H316.668C316.836 202.269 316.985 201.765 317.116 201.298C317.247 200.822 317.391 200.313 317.55 199.772L319.02 194.816H320.21L317.298 204H315.94ZM322.663 204.168C322.093 204.168 321.617 204 321.235 203.664C320.861 203.319 320.675 202.843 320.675 202.236C320.675 201.489 321.006 200.92 321.669 200.528C322.341 200.127 323.4 199.847 324.847 199.688C324.847 199.399 324.805 199.123 324.721 198.862C324.646 198.601 324.506 198.391 324.301 198.232C324.105 198.064 323.82 197.98 323.447 197.98C323.055 197.98 322.686 198.055 322.341 198.204C321.995 198.353 321.687 198.521 321.417 198.708L320.969 197.91C321.286 197.705 321.673 197.509 322.131 197.322C322.597 197.126 323.101 197.028 323.643 197.028C324.473 197.028 325.075 197.285 325.449 197.798C325.822 198.302 326.009 198.979 326.009 199.828V204H325.057L324.959 203.188H324.917C324.599 203.449 324.249 203.678 323.867 203.874C323.493 204.07 323.092 204.168 322.663 204.168ZM322.999 203.244C323.325 203.244 323.633 203.165 323.923 203.006C324.212 202.847 324.52 202.623 324.847 202.334V200.444C323.717 200.584 322.924 200.794 322.467 201.074C322.019 201.354 321.795 201.713 321.795 202.152C321.795 202.535 321.911 202.815 322.145 202.992C322.378 203.16 322.663 203.244 322.999 203.244ZM328.205 204V197.196H329.157L329.255 198.428H329.297C329.531 197.999 329.815 197.658 330.151 197.406C330.487 197.154 330.847 197.028 331.229 197.028C331.5 197.028 331.743 197.075 331.957 197.168L331.733 198.176C331.621 198.139 331.519 198.111 331.425 198.092C331.332 198.073 331.215 198.064 331.075 198.064C330.786 198.064 330.483 198.181 330.165 198.414C329.857 198.647 329.587 199.053 329.353 199.632V204H328.205ZM333.115 204V197.196H334.263V204H333.115ZM333.703 195.796C333.479 195.796 333.292 195.731 333.143 195.6C333.003 195.46 332.933 195.273 332.933 195.04C332.933 194.816 333.003 194.634 333.143 194.494C333.292 194.354 333.479 194.284 333.703 194.284C333.927 194.284 334.109 194.354 334.249 194.494C334.398 194.634 334.473 194.816 334.473 195.04C334.473 195.273 334.398 195.46 334.249 195.6C334.109 195.731 333.927 195.796 333.703 195.796ZM338.184 204.168C337.615 204.168 337.139 204 336.756 203.664C336.383 203.319 336.196 202.843 336.196 202.236C336.196 201.489 336.527 200.92 337.19 200.528C337.862 200.127 338.921 199.847 340.368 199.688C340.368 199.399 340.326 199.123 340.242 198.862C340.167 198.601 340.027 198.391 339.822 198.232C339.626 198.064 339.341 197.98 338.968 197.98C338.576 197.98 338.207 198.055 337.862 198.204C337.517 198.353 337.209 198.521 336.938 198.708L336.49 197.91C336.807 197.705 337.195 197.509 337.652 197.322C338.119 197.126 338.623 197.028 339.164 197.028C339.995 197.028 340.597 197.285 340.97 197.798C341.343 198.302 341.53 198.979 341.53 199.828V204H340.578L340.48 203.188H340.438C340.121 203.449 339.771 203.678 339.388 203.874C339.015 204.07 338.613 204.168 338.184 204.168ZM338.52 203.244C338.847 203.244 339.155 203.165 339.444 203.006C339.733 202.847 340.041 202.623 340.368 202.334V200.444C339.239 200.584 338.445 200.794 337.988 201.074C337.54 201.354 337.316 201.713 337.316 202.152C337.316 202.535 337.433 202.815 337.666 202.992C337.899 203.16 338.184 203.244 338.52 203.244ZM343.727 204V197.196H344.679L344.777 198.176H344.819C345.145 197.849 345.491 197.579 345.855 197.364C346.219 197.14 346.634 197.028 347.101 197.028C347.819 197.028 348.342 197.257 348.669 197.714C349.005 198.162 349.173 198.82 349.173 199.688V204H348.025V199.842C348.025 199.207 347.922 198.745 347.717 198.456C347.511 198.167 347.185 198.022 346.737 198.022C346.391 198.022 346.079 198.111 345.799 198.288C345.528 198.465 345.22 198.727 344.875 199.072V204H343.727ZM353.581 204.168C352.853 204.168 352.344 203.958 352.055 203.538C351.775 203.118 351.635 202.572 351.635 201.9V198.134H350.627V197.266L351.691 197.196L351.831 195.292H352.797V197.196H354.631V198.134H352.797V201.914C352.797 202.334 352.872 202.661 353.021 202.894C353.18 203.118 353.455 203.23 353.847 203.23C353.968 203.23 354.099 203.211 354.239 203.174C354.379 203.127 354.505 203.085 354.617 203.048L354.841 203.916C354.654 203.981 354.449 204.037 354.225 204.084C354.01 204.14 353.796 204.168 353.581 204.168ZM355.354 206.24L359.092 194.06H359.932L356.194 206.24H355.354ZM363.329 204V195.796H360.557V194.816H367.277V195.796H364.505V204H363.329ZM368.875 204V197.196H370.023V204H368.875ZM369.463 195.796C369.239 195.796 369.052 195.731 368.903 195.6C368.763 195.46 368.693 195.273 368.693 195.04C368.693 194.816 368.763 194.634 368.903 194.494C369.052 194.354 369.239 194.284 369.463 194.284C369.687 194.284 369.869 194.354 370.009 194.494C370.158 194.634 370.233 194.816 370.233 195.04C370.233 195.273 370.158 195.46 370.009 195.6C369.869 195.731 369.687 195.796 369.463 195.796ZM373.594 204.168C373.165 204.168 372.852 204.037 372.656 203.776C372.469 203.505 372.376 203.123 372.376 202.628V194.032H373.524V202.712C373.524 202.889 373.557 203.02 373.622 203.104C373.687 203.179 373.762 203.216 373.846 203.216C373.883 203.216 373.916 203.216 373.944 203.216C373.981 203.207 374.033 203.197 374.098 203.188L374.252 204.056C374.177 204.093 374.089 204.121 373.986 204.14C373.883 204.159 373.753 204.168 373.594 204.168ZM377.778 204.168C377.293 204.168 376.831 204.079 376.392 203.902C375.954 203.715 375.571 203.491 375.244 203.23L375.818 202.46C376.117 202.693 376.425 202.889 376.742 203.048C377.06 203.197 377.419 203.272 377.82 203.272C378.268 203.272 378.604 203.169 378.828 202.964C379.052 202.749 379.164 202.497 379.164 202.208C379.164 201.975 379.085 201.779 378.926 201.62C378.777 201.461 378.581 201.331 378.338 201.228C378.105 201.116 377.862 201.013 377.61 200.92C377.293 200.799 376.98 200.663 376.672 200.514C376.364 200.355 376.112 200.155 375.916 199.912C375.72 199.66 375.622 199.343 375.622 198.96C375.622 198.409 375.828 197.952 376.238 197.588C376.658 197.215 377.237 197.028 377.974 197.028C378.394 197.028 378.786 197.103 379.15 197.252C379.514 197.401 379.827 197.583 380.088 197.798L379.528 198.526C379.295 198.349 379.052 198.204 378.8 198.092C378.548 197.98 378.273 197.924 377.974 197.924C377.545 197.924 377.228 198.022 377.022 198.218C376.826 198.414 376.728 198.643 376.728 198.904C376.728 199.119 376.798 199.296 376.938 199.436C377.078 199.567 377.26 199.683 377.484 199.786C377.708 199.879 377.946 199.977 378.198 200.08C378.525 200.201 378.847 200.341 379.164 200.5C379.482 200.649 379.743 200.855 379.948 201.116C380.163 201.368 380.27 201.709 380.27 202.138C380.27 202.502 380.172 202.838 379.976 203.146C379.79 203.454 379.51 203.701 379.136 203.888C378.772 204.075 378.32 204.168 377.778 204.168ZM383.79 204.168C383.062 204.168 382.553 203.958 382.264 203.538C381.984 203.118 381.844 202.572 381.844 201.9V198.134H380.836V197.266L381.9 197.196L382.04 195.292H383.006V197.196H384.84V198.134H383.006V201.914C383.006 202.334 383.081 202.661 383.23 202.894C383.389 203.118 383.664 203.23 384.056 203.23C384.177 203.23 384.308 203.211 384.448 203.174C384.588 203.127 384.714 203.085 384.826 203.048L385.05 203.916C384.863 203.981 384.658 204.037 384.434 204.084C384.219 204.14 384.005 204.168 383.79 204.168ZM387.702 204.168C387.132 204.168 386.656 204 386.274 203.664C385.9 203.319 385.714 202.843 385.714 202.236C385.714 201.489 386.045 200.92 386.708 200.528C387.38 200.127 388.439 199.847 389.886 199.688C389.886 199.399 389.844 199.123 389.76 198.862C389.685 198.601 389.545 198.391 389.34 198.232C389.144 198.064 388.859 197.98 388.486 197.98C388.094 197.98 387.725 198.055 387.38 198.204C387.034 198.353 386.726 198.521 386.456 198.708L386.008 197.91C386.325 197.705 386.712 197.509 387.17 197.322C387.636 197.126 388.14 197.028 388.682 197.028C389.512 197.028 390.114 197.285 390.488 197.798C390.861 198.302 391.048 198.979 391.048 199.828V204H390.096L389.998 203.188H389.956C389.638 203.449 389.288 203.678 388.906 203.874C388.532 204.07 388.131 204.168 387.702 204.168ZM388.038 203.244C388.364 203.244 388.672 203.165 388.962 203.006C389.251 202.847 389.559 202.623 389.886 202.334V200.444C388.756 200.584 387.963 200.794 387.506 201.074C387.058 201.354 386.834 201.713 386.834 202.152C386.834 202.535 386.95 202.815 387.184 202.992C387.417 203.16 387.702 203.244 388.038 203.244ZM393.244 204V197.196H394.196L394.294 198.176H394.336C394.663 197.849 395.008 197.579 395.372 197.364C395.736 197.14 396.152 197.028 396.618 197.028C397.337 197.028 397.86 197.257 398.186 197.714C398.522 198.162 398.69 198.82 398.69 199.688V204H397.542V199.842C397.542 199.207 397.44 198.745 397.234 198.456C397.029 198.167 396.702 198.022 396.254 198.022C395.909 198.022 395.596 198.111 395.316 198.288C395.046 198.465 394.738 198.727 394.392 199.072V204H393.244ZM403.281 204.168C402.431 204.168 401.75 203.86 401.237 203.244C400.723 202.619 400.467 201.741 400.467 200.612C400.467 199.875 400.602 199.24 400.873 198.708C401.153 198.167 401.517 197.751 401.965 197.462C402.422 197.173 402.907 197.028 403.421 197.028C403.813 197.028 404.153 197.098 404.443 197.238C404.732 197.378 405.026 197.569 405.325 197.812L405.269 196.65V194.032H406.431V204H405.479L405.381 203.202H405.339C405.077 203.463 404.769 203.692 404.415 203.888C404.06 204.075 403.682 204.168 403.281 204.168ZM403.533 203.202C404.13 203.202 404.709 202.889 405.269 202.264V198.708C404.979 198.447 404.699 198.265 404.429 198.162C404.167 198.05 403.897 197.994 403.617 197.994C403.253 197.994 402.921 198.106 402.623 198.33C402.333 198.545 402.1 198.848 401.923 199.24C401.745 199.623 401.657 200.075 401.657 200.598C401.657 201.41 401.82 202.049 402.147 202.516C402.473 202.973 402.935 203.202 403.533 203.202Z"></path>
</svg>
