<svg xmlns="http://www.w3.org/2000/svg" fill="none" viewBox="0 0 200 200" height="200" width="200">
<path fill="#C0D6E4" d="M27 94C27 89.5817 30.5817 86 35 86H89C93.4183 86 97 89.5817 97 94V106C97 110.418 93.4183 114 89 114H35C30.5817 114 27 110.418 27 106V94Z"></path>
<mask fill="white" id="path-2-inside-1_4412_3192">
<path d="M89 112V114H35V112H89ZM95 106V94C95 90.6863 92.3137 88 89 88H35C31.6863 88 29 90.6863 29 94V106C29 109.314 31.6863 112 35 112V114L34.5879 113.989C30.3611 113.775 27 110.28 27 106V94C27 89.5817 30.5817 86 35 86H89C93.4183 86 97 89.5817 97 94V106C97 110.418 93.4183 114 89 114V112C92.3137 112 95 109.314 95 106Z"></path>
</mask>
<path mask="url(#path-2-inside-1_4412_3192)" fill-opacity="0.247059" fill="#005A92" d="M35 114L34.2183 143.99L34.6091 144H35V114ZM34.5879 113.989L33.0675 143.951L33.4367 143.969L33.8062 143.979L34.5879 113.989ZM89 112H59V114H89H119V112H89ZM89 114V84H35V114V144H89V114ZM35 114H65V112H35H5V114H35ZM35 112V142H89V112V82H35V112ZM95 106H125V94H95H65V106H95ZM95 94H125C125 74.1177 108.882 58 89 58V88V118C75.7452 118 65 107.255 65 94H95ZM89 88V58H35V88V118H89V88ZM35 88V58C15.1177 58 -1 74.1177 -1 94H29H59C59 107.255 48.2548 118 35 118V88ZM29 94H-1V106H29H59V94H29ZM29 106H-1C-1 125.882 15.1178 142 35 142V112V82C48.2548 82 59 92.7452 59 106H29ZM35 112H5V114H35H65V112H35ZM35 114L35.7817 84.0102L35.3696 83.9994L34.5879 113.989L33.8062 143.979L34.2183 143.99L35 114ZM34.5879 113.989L36.1083 84.0278C47.7554 84.6188 57 94.2192 57 106H27H-3C-3 126.341 12.9669 142.931 33.0675 143.951L34.5879 113.989ZM27 106H57V94H27H-3V106H27ZM27 94H57C57 106.15 47.1503 116 35 116V86V56C14.0132 56 -3 73.0132 -3 94H27ZM35 86V116H89V86V56H35V86ZM89 86V116C76.8497 116 67 106.15 67 94H97H127C127 73.0132 109.987 56 89 56V86ZM97 94H67V106H97H127V94H97ZM97 106H67C67 93.8497 76.8497 84 89 84V114V144C109.987 144 127 126.987 127 106H97ZM89 114H119V112H89H59V114H89ZM89 112V142C108.882 142 125 125.882 125 106H95H65C65 92.7452 75.7452 82 89 82V112Z"></path>
<path fill="#C0D6E4" d="M105 94C105 89.5817 108.582 86 113 86H167C171.418 86 175 89.5817 175 94V106C175 110.418 171.418 114 167 114H113C108.582 114 105 110.418 105 106V94Z"></path>
<mask fill="white" id="path-5-inside-2_4412_3192">
<path d="M167 112V114H113V112H167ZM173 106V94C173 90.6863 170.314 88 167 88H113C109.686 88 107 90.6863 107 94V106C107 109.314 109.686 112 113 112V114L112.588 113.989C108.361 113.775 105 110.28 105 106V94C105 89.5817 108.582 86 113 86H167C171.418 86 175 89.5817 175 94V106C175 110.418 171.418 114 167 114V112C170.314 112 173 109.314 173 106Z"></path>
</mask>
<path mask="url(#path-5-inside-2_4412_3192)" fill-opacity="0.247059" fill="#005A92" d="M113 114L112.218 143.99L112.609 144H113V114ZM112.588 113.989L111.067 143.951L111.437 143.969L111.806 143.979L112.588 113.989ZM167 112H137V114H167H197V112H167ZM167 114V84H113V114V144H167V114ZM113 114H143V112H113H83V114H113ZM113 112V142H167V112V82H113V112ZM173 106H203V94H173H143V106H173ZM173 94H203C203 74.1177 186.882 58 167 58V88V118C153.745 118 143 107.255 143 94H173ZM167 88V58H113V88V118H167V88ZM113 88V58C93.1177 58 77 74.1177 77 94H107H137C137 107.255 126.255 118 113 118V88ZM107 94H77V106H107H137V94H107ZM107 106H77C77 125.882 93.1178 142 113 142V112V82C126.255 82 137 92.7452 137 106H107ZM113 112H83V114H113H143V112H113ZM113 114L113.782 84.0102L113.37 83.9994L112.588 113.989L111.806 143.979L112.218 143.99L113 114ZM112.588 113.989L114.108 84.0278C125.755 84.6188 135 94.2192 135 106H105H75C75 126.341 90.9669 142.931 111.067 143.951L112.588 113.989ZM105 106H135V94H105H75V106H105ZM105 94H135C135 106.15 125.15 116 113 116V86V56C92.0132 56 75 73.0132 75 94H105ZM113 86V116H167V86V56H113V86ZM167 86V116C154.85 116 145 106.15 145 94H175H205C205 73.0132 187.987 56 167 56V86ZM175 94H145V106H175H205V94H175ZM175 106H145C145 93.8497 154.85 84 167 84V114V144C187.987 144 205 126.987 205 106H175ZM167 114H197V112H167H137V114H167ZM167 112V142C186.882 142 203 125.882 203 106H173H143C143 92.7452 153.745 82 167 82V112Z"></path>
<rect fill="#417DA0" rx="4" height="8" width="50" y="96" x="37"></rect>
<rect fill="#417DA0" rx="4" height="8" width="50" y="96" x="115"></rect>
</svg>
