<svg xmlns="http://www.w3.org/2000/svg" fill="none" viewBox="0 0 200 200" height="200" width="200">
<path fill="#417DA0" d="M188 152H12V48H188V152ZM15 149H185V78H15V149ZM49.6963 56.7129C48.9129 55.4601 47.0871 55.4602 46.3037 56.7129L39.9121 66.9395C39.0796 68.2715 40.0376 69.9999 41.6084 70H54.3916C55.9624 69.9999 56.9204 68.2715 56.0879 66.9395L49.6963 56.7129ZM71 59C68.791 59 67.0002 60.791 67 63C67.0001 65.2091 68.7909 67 71 67H158C160.209 67 162 65.209 162 63C162 60.791 160.209 59 158 59H71Z"></path>
</svg>
