<svg xmlns="http://www.w3.org/2000/svg" fill="none" viewBox="0 0 200 200" height="200" width="200">
<ellipse fill="#C0D6E4" ry="36.5" rx="68" cy="114.5" cx="103"></ellipse>
<path fill="#417DA0" d="M56 98.6532V69.8762C56 68.5593 57.141 67.6529 58.2008 68.128L128.31 99.5515C128.852 99.7946 129.465 99.6815 129.916 99.2552L146.36 83.6979C147.416 82.6985 149 83.5696 149 85.15V111.28C149 111.819 148.799 112.333 148.449 112.689L129.919 132.534C129.469 132.993 128.837 133.124 128.276 132.877L57.0413 100.405C56.4143 100.128 56 99.4309 56 98.6532Z"></path>
<path fill="#E3EFF7" d="M56.0259 93.9829V75.2226C56.0259 73.8791 55.775 73.782 56.8342 74.2665L127.296 106.372C127.838 106.62 129.451 106.505 129.901 106.07L148.167 88.6077C149.222 87.5882 148.975 90.0689 148.975 91.681V106.863C148.975 107.414 148.774 107.937 148.425 108.3L129.905 127.525C129.454 127.992 127.822 128.127 127.263 127.875L57.0666 95.7696C56.44 95.487 56.0259 94.7761 56.0259 93.9829Z"></path>
<path fill="white" d="M65.3664 55.7941L56.6283 62.5933C53.902 64.7146 54.7645 69.6292 57.9858 70.3287L60.1337 70.7951C64.3359 71.7076 68.3579 73.5165 71.998 76.1311C75.2928 78.4975 78.8435 79.6674 82.62 80.6469C87.1515 81.8222 89.0651 82.682 93.1038 85.3532C95.5944 87.0005 98.4368 88.0155 101.28 88.8884C103.866 89.6821 106.295 90.911 108.43 92.5721C111.081 94.6352 114.166 96.0694 117.452 96.7668L117.943 96.871C120.19 97.3477 122.317 98.2285 124.434 99.1188C127.457 100.39 130.161 100.603 132.62 97.5896C134.343 95.4782 139.351 91.1817 141.493 89.6816L147.136 85.8238C149.566 84.0006 149.676 80.3702 147.136 78.7644L144.599 77.3958C143.069 76.4282 141.458 75.6437 139.792 75.0545L128.991 71.2343L115.281 64.6455L98.749 58.5273L85.0393 54.2916L82.412 53.2342C76.6993 50.9349 70.3943 51.8819 65.3664 55.7941Z"></path>
<mask fill="white" id="path-5-inside-1_4914_1732">
<path d="M65.3662 55.7938C70.3942 51.8816 76.6994 50.9351 82.4121 53.2343L85.0391 54.2919L98.7491 58.5272L115.281 64.6454L128.991 71.2343L139.792 75.0546C141.458 75.6438 143.069 76.4277 144.6 77.3954L147.136 78.7645C149.676 80.3704 149.566 84.0009 147.136 85.8241L141.493 89.6815C139.351 91.1817 134.343 95.4784 132.62 97.5897L132.389 97.8622C130.146 100.413 127.701 100.368 124.997 99.3437L124.434 99.119C122.449 98.2845 120.456 97.4575 118.363 96.9647L117.943 96.871L117.452 96.7665C114.371 96.1127 111.467 94.8112 108.932 92.9511L108.43 92.5722C106.428 91.015 104.169 89.837 101.764 89.0419L101.28 88.8886C98.6145 88.0702 95.9501 87.1262 93.5752 85.6542L93.1035 85.3534C89.3174 82.8493 87.3991 81.9368 83.4405 80.8642L82.6201 80.6464C79.0797 79.7281 75.7379 78.6425 72.6192 76.5604L71.9981 76.1308C68.5855 73.6797 64.8374 71.9366 60.9199 70.9765L60.1338 70.7948L57.9854 70.329C54.865 69.6511 53.958 65.0172 56.3828 62.7997L56.628 62.5937L65.3662 55.7938ZM82.0391 54.162C76.6706 52.0013 70.7393 52.8801 65.9805 56.5829L57.2422 63.3827C56.2318 64.1691 55.8337 65.5226 56.0615 66.8212C56.2901 68.1237 57.0928 69.1114 58.1983 69.3515L60.3457 69.8183L61.1573 70.0058C65.204 70.9975 69.0686 72.7964 72.5811 75.3192C75.7226 77.5756 79.1282 78.7078 82.8711 79.6786C85.159 80.272 86.8321 80.7972 88.4561 81.5263C90.0788 82.2548 91.6193 83.1729 93.6553 84.5194C96.0201 86.0835 98.7475 87.0648 101.574 87.9325C104.269 88.7597 106.808 90.0429 109.044 91.7831C111.576 93.7531 114.522 95.123 117.66 95.789L118.151 95.8925C120.504 96.3917 122.715 97.3111 124.821 98.1972C126.272 98.8075 127.512 99.1022 128.618 98.9687C129.678 98.8406 130.748 98.3012 131.845 96.9569C132.764 95.8309 134.503 94.1816 136.239 92.6552C137.985 91.1208 139.803 89.6434 140.919 88.8622L140.929 88.8563L146.556 85.0077C148.493 83.5346 148.446 80.7963 146.623 79.6229L144.124 78.2763L144.094 78.2597L144.064 78.2411C142.596 77.3125 141.053 76.5606 139.459 75.997L128.657 72.1767L128.606 72.1591L114.883 65.5634L98.4278 59.4735L84.7442 55.247L84.7041 55.2343L84.666 55.2196L82.0391 54.162Z"></path>
</mask>
<path mask="url(#path-5-inside-1_4914_1732)" fill-opacity="0.247059" fill="#005A92" d="M65.3662 55.7938L46.9431 32.1171L46.9423 32.1177L65.3662 55.7938ZM82.4121 53.2343L93.6163 25.405L93.6131 25.4038L82.4121 53.2343ZM85.0391 54.2919L73.835 82.1212L74.9923 82.5871L76.1842 82.9553L85.0391 54.2919ZM98.7491 58.5272L109.161 30.3921L108.39 30.1066L107.604 29.8638L98.7491 58.5272ZM115.281 64.6454L128.276 37.6059L127.01 36.9976L125.693 36.5102L115.281 64.6454ZM128.991 71.2343L115.996 98.2737L117.458 98.9763L118.987 99.5172L128.991 71.2343ZM139.792 75.0546L129.788 103.337L129.789 103.338L139.792 75.0546ZM144.6 77.3954L128.568 102.753L129.44 103.304L130.348 103.794L144.6 77.3954ZM147.136 78.7645L163.167 53.4072L162.295 52.8559L161.387 52.3658L147.136 78.7645ZM147.136 85.8241L164.066 110.59L164.612 110.217L165.141 109.82L147.136 85.8241ZM141.493 89.6815L124.563 64.9156L124.423 65.011L124.284 65.1081L141.493 89.6815ZM132.62 97.5897L155.484 117.012L155.676 116.786L155.864 116.556L132.62 97.5897ZM132.389 97.8622L154.919 117.671L155.087 117.479L155.253 117.285L132.389 97.8622ZM124.997 99.3437L113.889 127.211L114.126 127.306L114.365 127.396L124.997 99.3437ZM124.434 99.119L112.803 126.773L113.063 126.882L113.325 126.987L124.434 99.119ZM118.363 96.9647L125.241 67.7637L125.071 67.7236L124.9 67.6856L118.363 96.9647ZM117.943 96.871L124.48 67.5918L124.333 67.5589L124.185 67.5276L117.943 96.871ZM117.452 96.7665L123.694 67.4231L123.687 67.4216L123.68 67.4201L117.452 96.7665ZM108.932 92.9511L90.8572 116.895L91.0212 117.019L91.1868 117.14L108.932 92.9511ZM108.43 92.5722L90.0066 116.249L90.1799 116.384L90.3553 116.516L108.43 92.5722ZM101.764 89.0419L111.18 60.5581L111.007 60.5009L110.834 60.4458L101.764 89.0419ZM101.28 88.8886L110.35 60.2925L110.217 60.2503L110.084 60.2094L101.28 88.8886ZM93.5752 85.6542L77.4452 110.949L77.6071 111.052L77.7703 111.153L93.5752 85.6542ZM93.1035 85.3534L76.554 110.376L76.7627 110.514L76.9736 110.648L93.1035 85.3534ZM83.4405 80.8642L91.2864 51.9083L91.2123 51.8882L91.1381 51.8685L83.4405 80.8642ZM82.6201 80.6464L90.3178 51.6508L90.235 51.6288L90.152 51.6073L82.6201 80.6464ZM72.6192 76.5604L55.5509 101.232L55.7554 101.373L55.9622 101.511L72.6192 76.5604ZM71.9981 76.1308L54.497 100.497L54.7121 100.651L54.9298 100.802L71.9981 76.1308ZM60.9199 70.9765L68.0616 41.8389L67.868 41.7915L67.6737 41.7466L60.9199 70.9765ZM60.1338 70.7948L66.8876 41.5649L66.6894 41.5191L66.4907 41.476L60.1338 70.7948ZM57.9854 70.329L51.6167 99.6452L51.6285 99.6478L57.9854 70.329ZM56.3828 62.7997L37.0785 39.8358L36.5993 40.2386L36.1374 40.661L56.3828 62.7997ZM56.628 62.5937L38.2041 38.9175L37.7571 39.2653L37.3236 39.6297L56.628 62.5937ZM82.0391 54.162L93.2432 26.3328L93.2401 26.3315L82.0391 54.162ZM65.9805 56.5829L47.5576 32.9059L47.5566 32.9068L65.9805 56.5829ZM57.2422 63.3827L38.8183 39.7066L38.8164 39.708L57.2422 63.3827ZM56.0615 66.8212L26.513 72.006L26.5131 72.0066L56.0615 66.8212ZM58.1983 69.3515L64.5706 40.0361L64.5643 40.0347L58.1983 69.3515ZM60.3457 69.8183L67.0992 40.5883L66.9089 40.5443L66.7181 40.5028L60.3457 69.8183ZM61.1573 70.0058L68.2983 40.8681L68.1048 40.8206L67.9107 40.7758L61.1573 70.0058ZM72.5811 75.3192L55.0799 99.6854L55.08 99.6854L72.5811 75.3192ZM82.8711 79.6786L90.403 50.6395L90.403 50.6395L82.8711 79.6786ZM88.4561 81.5263L100.744 54.1581L100.743 54.1579L88.4561 81.5263ZM93.6553 84.5194L77.1057 109.542L77.1058 109.542L93.6553 84.5194ZM101.574 87.9325L110.379 59.2535L110.378 59.2534L101.574 87.9325ZM109.044 91.7831L90.6208 115.46L90.6212 115.46L109.044 91.7831ZM117.66 95.789L111.433 125.135L111.453 125.14L111.474 125.144L117.66 95.789ZM118.151 95.8925L124.379 66.5461L124.359 66.5416L124.338 66.5372L118.151 95.8925ZM124.821 98.1972L136.452 70.5436L136.452 70.5436L124.821 98.1972ZM128.618 98.9687L132.216 128.752L132.217 128.752L128.618 98.9687ZM131.845 96.9569L155.089 115.923L155.089 115.923L131.845 96.9569ZM136.239 92.6552L116.43 70.1249L116.43 70.1251L136.239 92.6552ZM140.919 88.8622L125.484 63.1374L124.577 63.6819L123.71 64.289L140.919 88.8622ZM140.929 88.8563L156.364 114.581L157.129 114.122L157.865 113.618L140.929 88.8563ZM146.556 85.0077L163.492 109.77L164.113 109.345L164.712 108.89L146.556 85.0077ZM146.623 79.6229L162.86 54.3969L161.88 53.7662L160.855 53.2135L146.623 79.6229ZM144.124 78.2763L129.699 104.581L129.796 104.634L129.892 104.686L144.124 78.2763ZM144.094 78.2597L128.042 103.604L128.84 104.11L129.669 104.564L144.094 78.2597ZM144.064 78.2411L160.116 52.8965L160.106 52.8901L160.096 52.8836L144.064 78.2411ZM139.459 75.997L149.463 47.714L149.462 47.7138L139.459 75.997ZM128.657 72.1767L138.66 43.8935L138.566 43.86L138.471 43.8271L128.657 72.1767ZM128.606 72.1591L115.611 99.1983L117.165 99.9449L118.793 100.509L128.606 72.1591ZM114.883 65.5634L127.878 38.5241L126.612 37.9158L125.295 37.4283L114.883 65.5634ZM98.4278 59.4735L108.84 31.3385L108.068 31.0527L107.281 30.8097L98.4278 59.4735ZM84.7442 55.247L75.6768 83.8439L75.7836 83.8777L75.8905 83.9108L84.7442 55.247ZM84.7041 55.2343L73.9348 83.2346L74.7768 83.5585L75.6368 83.8312L84.7041 55.2343ZM84.666 55.2196L73.4619 83.0489L73.6786 83.1361L73.8967 83.22L84.666 55.2196ZM65.3662 55.7938L83.7894 79.4706C82.3976 80.5535 80.4569 81.4964 78.0868 81.8522C75.6997 82.2106 73.3001 81.9056 71.2112 81.0648L82.4121 53.2343L93.6131 25.4038C77.5777 18.95 60.0448 21.9225 46.9431 32.1171L65.3662 55.7938ZM82.4121 53.2343L71.208 81.0635L73.835 82.1212L85.0391 54.2919L96.2432 26.4626L93.6163 25.405L82.4121 53.2343ZM85.0391 54.2919L76.1842 82.9553L89.8942 87.1907L98.7491 58.5272L107.604 29.8638L93.8939 25.6285L85.0391 54.2919ZM98.7491 58.5272L88.3369 86.6624L104.869 92.7806L115.281 64.6454L125.693 36.5102L109.161 30.3921L98.7491 58.5272ZM115.281 64.6454L102.286 91.6849L115.996 98.2737L128.991 71.2343L141.986 44.1948L128.276 37.6059L115.281 64.6454ZM128.991 71.2343L118.987 99.5172L129.788 103.337L139.792 75.0546L149.796 46.7717L138.995 42.9514L128.991 71.2343ZM139.792 75.0546L129.789 103.338C129.298 103.164 128.891 102.957 128.568 102.753L144.6 77.3954L160.631 52.038C157.247 49.8987 153.618 48.1236 149.795 46.7715L139.792 75.0546ZM144.6 77.3954L130.348 103.794L132.884 105.163L147.136 78.7645L161.387 52.3658L158.851 50.9966L144.6 77.3954ZM147.136 78.7645L131.104 104.122C112.95 92.6447 117.641 70.4491 129.131 61.8278L147.136 85.8241L165.141 109.82C181.491 97.5527 186.401 68.0961 163.167 53.4072L147.136 78.7645ZM147.136 85.8241L130.205 61.0582L124.563 64.9156L141.493 89.6815L158.424 114.447L164.066 110.59L147.136 85.8241ZM141.493 89.6815L124.284 65.1081C121.879 66.7926 119.133 69.0807 117.09 70.8766C115.326 72.4279 111.96 75.4574 109.376 78.6233L132.62 97.5897L155.864 116.556C155.456 117.057 155.183 117.342 155.17 117.355C155.128 117.399 155.172 117.351 155.324 117.204C155.634 116.903 156.113 116.46 156.709 115.936C157.294 115.422 157.87 114.937 158.34 114.556C158.571 114.368 158.74 114.236 158.84 114.159C158.959 114.067 158.902 114.115 158.702 114.255L141.493 89.6815ZM132.62 97.5897L109.756 78.1674L109.524 78.4399L132.389 97.8622L155.253 117.285L155.484 117.012L132.62 97.5897ZM132.389 97.8622L109.859 78.0529C112.685 74.839 117.662 71.2619 124.529 70.2587C130.453 69.3934 134.704 70.9401 135.629 71.2908L124.997 99.3437L114.365 127.396C117.994 128.772 124.819 130.853 133.202 129.629C142.528 128.266 149.85 123.436 154.919 117.671L132.389 97.8622ZM124.997 99.3437L136.105 71.476L135.542 71.2514L124.434 99.119L113.325 126.987L113.889 127.211L124.997 99.3437ZM124.434 99.119L136.065 71.4655C134.342 70.7409 130.134 68.9162 125.241 67.7637L118.363 96.9647L111.486 126.166C110.983 126.047 110.78 125.958 111.036 126.052C111.157 126.097 111.348 126.171 111.65 126.293C111.963 126.421 112.312 126.566 112.803 126.773L124.434 99.119ZM118.363 96.9647L124.9 67.6856L124.48 67.5918L117.943 96.871L111.407 126.15L111.827 126.244L118.363 96.9647ZM117.943 96.871L124.185 67.5276L123.694 67.4231L117.452 96.7665L111.21 126.11L111.701 126.214L117.943 96.871ZM117.452 96.7665L123.68 67.4201C124.764 67.65 125.785 68.1077 126.677 68.7618L108.932 92.9511L91.1868 117.14C97.1497 121.515 103.979 124.575 111.224 126.113L117.452 96.7665ZM108.932 92.9511L127.006 69.0071L126.504 68.6282L108.43 92.5722L90.3553 116.516L90.8572 116.895L108.932 92.9511ZM108.43 92.5722L126.853 68.8954C121.992 65.1135 116.65 62.3663 111.18 60.5581L101.764 89.0419L92.3471 117.526C91.6877 117.308 90.8645 116.916 90.0066 116.249L108.43 92.5722ZM101.764 89.0419L110.834 60.4458L110.35 60.2925L101.28 88.8886L92.2104 117.485L92.6938 117.638L101.764 89.0419ZM101.28 88.8886L110.084 60.2094C109.616 60.0657 109.271 59.9543 109.003 59.8625C108.738 59.7716 108.592 59.7149 108.531 59.6906C108.395 59.6358 108.756 59.7681 109.38 60.1551L93.5752 85.6542L77.7703 111.153C83.5682 114.747 89.2993 116.592 92.4765 117.568L101.28 88.8886ZM93.5752 85.6542L109.705 60.3595L109.234 60.0587L93.1035 85.3534L76.9736 110.648L77.4452 110.949L93.5752 85.6542ZM93.1035 85.3534L109.653 60.3312C103.613 56.3363 98.7875 53.9408 91.2864 51.9083L83.4405 80.8642L75.5945 109.82C76.1575 109.973 76.3223 110.032 76.2719 110.015C76.1764 109.982 75.9428 109.894 75.6557 109.76C75.3825 109.633 75.2592 109.556 75.3653 109.618C75.5092 109.702 75.8534 109.912 76.554 110.376L93.1035 85.3534ZM83.4405 80.8642L91.1381 51.8685L90.3178 51.6508L82.6201 80.6464L74.9225 109.642L75.7428 109.86L83.4405 80.8642ZM82.6201 80.6464L90.152 51.6073C89.5349 51.4472 89.1062 51.3261 88.7902 51.2293C88.4807 51.1345 88.3353 51.0798 88.3034 51.0674C88.2766 51.0571 88.3739 51.0935 88.5569 51.1862C88.7442 51.281 88.9929 51.4205 89.2761 51.6096L72.6192 76.5604L55.9622 101.511C63.3433 106.439 70.6254 108.528 75.0883 109.686L82.6201 80.6464ZM72.6192 76.5604L89.6874 51.8891L89.0663 51.4594L71.9981 76.1308L54.9298 100.802L55.5509 101.232L72.6192 76.5604ZM71.9981 76.1308L89.4991 51.7645C83.0979 47.1668 75.8551 43.7491 68.0616 41.8389L60.9199 70.9765L53.7783 100.114C53.8198 100.124 54.0732 100.193 54.497 100.497L71.9981 76.1308ZM60.9199 70.9765L67.6737 41.7466L66.8876 41.5649L60.1338 70.7948L53.3801 100.025L54.1662 100.206L60.9199 70.9765ZM60.1338 70.7948L66.4907 41.476L64.3422 41.0102L57.9854 70.329L51.6285 99.6478L53.777 100.114L60.1338 70.7948ZM57.9854 70.329L64.354 41.0128C77.4466 43.857 83.1057 54.3905 84.4858 61.0797C85.8628 67.7536 84.7171 77.5413 76.6283 84.9384L56.3828 62.7997L36.1374 40.661C25.6238 50.2755 23.7191 63.489 25.7235 73.2037C27.731 82.9337 35.4038 96.1231 51.6167 99.6452L57.9854 70.329ZM56.3828 62.7997L75.6872 85.7636L75.9323 85.5576L56.628 62.5937L37.3236 39.6297L37.0785 39.8358L56.3828 62.7997ZM56.628 62.5937L75.0519 86.2698L83.7901 79.47L65.3662 55.7938L46.9423 32.1177L38.2041 38.9175L56.628 62.5937ZM82.0391 54.162L93.2401 26.3315C77.5525 20.0177 60.3933 22.9186 47.5576 32.9059L65.9805 56.5829L84.4033 80.2599C82.8862 81.4404 80.7858 82.4584 78.2329 82.8415C75.6647 83.2269 73.0873 82.8978 70.8381 81.9925L82.0391 54.162ZM65.9805 56.5829L47.5566 32.9068L38.8183 39.7066L57.2422 63.3827L75.6661 87.0589L84.4044 80.2591L65.9805 56.5829ZM57.2422 63.3827L38.8164 39.708C27.2922 48.6772 24.7825 62.1439 26.513 72.006L56.0615 66.8212L85.6101 61.6363C86.8849 68.9013 85.1715 79.6609 75.668 87.0574L57.2422 63.3827ZM56.0615 66.8212L26.5131 72.0066C28.2421 81.8593 35.7213 95.1698 51.8322 98.6682L58.1983 69.3515L64.5643 40.0347C78.4643 43.053 84.3381 54.3881 85.61 61.6358L56.0615 66.8212ZM58.1983 69.3515L51.8259 98.6669L53.9734 99.1337L60.3457 69.8183L66.7181 40.5028L64.5706 40.0361L58.1983 69.3515ZM60.3457 69.8183L53.5922 99.0482L54.4038 99.2357L61.1573 70.0058L67.9107 40.7758L67.0992 40.5883L60.3457 69.8183ZM61.1573 70.0058L54.0162 99.1435C54.1865 99.1852 54.5562 99.3092 55.0799 99.6854L72.5811 75.3192L90.0822 50.9531C83.5811 46.2836 76.2216 42.8099 68.2983 40.8681L61.1573 70.0058ZM72.5811 75.3192L55.08 99.6854C62.8227 105.247 70.599 107.488 75.3392 108.718L82.8711 79.6786L90.403 50.6395C89.7537 50.4711 89.3243 50.3484 89.0252 50.2555C88.7342 50.1651 88.6349 50.1238 88.6656 50.136C88.7033 50.1512 88.8783 50.2235 89.144 50.3658C89.4151 50.5109 89.7379 50.7058 90.0822 50.9531L72.5811 75.3192ZM82.8711 79.6786L75.3392 108.718C76.1554 108.929 76.4933 109.035 76.5904 109.066C76.6246 109.078 76.5886 109.067 76.5017 109.033C76.4119 108.999 76.2972 108.952 76.1691 108.895L88.4561 81.5263L100.743 54.1579C96.8857 52.4261 93.358 51.4059 90.403 50.6395L82.8711 79.6786ZM88.4561 81.5263L76.1686 108.894C75.8868 108.768 75.749 108.684 75.843 108.738C75.9852 108.821 76.3437 109.038 77.1057 109.542L93.6553 84.5194L110.205 59.4972C107.678 57.8258 104.562 55.8724 100.744 54.1581L88.4561 81.5263ZM93.6553 84.5194L77.1058 109.542C83.2489 113.605 89.447 115.591 92.7704 116.612L101.574 87.9325L110.378 59.2534C109.884 59.1016 109.534 58.9878 109.274 58.8979C109.017 58.8092 108.902 58.7623 108.888 58.7565C108.875 58.7514 108.999 58.8018 109.222 58.9163C109.447 59.0322 109.787 59.221 110.205 59.4972L93.6553 84.5194ZM101.574 87.9325L92.7699 116.612C92.2023 116.437 91.4377 116.095 90.6208 115.46L109.044 91.7831L127.467 68.1064C122.177 63.9904 116.335 61.0821 110.379 59.2535L101.574 87.9325ZM109.044 91.7831L90.6212 115.46C96.7357 120.218 103.851 123.527 111.433 125.135L117.66 95.789L123.888 66.4425C125.193 66.7194 126.416 67.2885 127.467 68.1061L109.044 91.7831ZM117.66 95.789L111.474 125.144L111.965 125.248L118.151 95.8925L124.338 66.5372L123.846 66.4337L117.66 95.789ZM118.151 95.8925L111.923 125.239C111.338 125.115 111.088 125.007 111.341 125.099C111.459 125.142 111.653 125.216 111.969 125.343C112.299 125.477 112.662 125.629 113.19 125.851L124.821 98.1972L136.452 70.5436C134.643 69.7825 129.923 67.7225 124.379 66.5461L118.151 95.8925ZM124.821 98.1972L113.19 125.851C116.443 127.219 123.451 129.811 132.216 128.752L128.618 98.9687L125.021 69.1851C128.43 68.7733 131.227 69.1238 133.062 69.5123C134.841 69.8889 136.042 70.371 136.452 70.5436L124.821 98.1972ZM128.618 98.9687L132.217 128.752C142.314 127.532 150.01 122.147 155.089 115.923L131.845 96.9569L108.601 77.9905C109.822 76.4943 111.856 74.4316 114.901 72.6238C118.08 70.7355 121.562 69.6031 125.019 69.1853L128.618 98.9687ZM131.845 96.9569L155.089 115.923C154.879 116.18 154.717 116.366 154.622 116.471C154.525 116.581 154.462 116.648 154.443 116.668C154.412 116.701 154.465 116.643 154.625 116.488C154.953 116.17 155.444 115.716 156.048 115.185L136.239 92.6552L116.43 70.1251C114.669 71.6735 111.243 74.7522 108.601 77.9905L131.845 96.9569ZM136.239 92.6552L156.048 115.185C156.642 114.664 157.229 114.169 157.712 113.777C157.95 113.584 158.126 113.446 158.233 113.363C158.36 113.266 158.314 113.305 158.128 113.435L140.919 88.8622L123.71 64.289C121.258 66.0062 118.479 68.324 116.43 70.1249L136.239 92.6552ZM140.919 88.8622L156.354 114.587L156.364 114.581L140.929 88.8563L125.494 63.1316L125.484 63.1374L140.919 88.8622ZM140.929 88.8563L157.865 113.618L163.492 109.77L146.556 85.0077L129.619 60.2456L123.992 64.0943L140.929 88.8563ZM146.556 85.0077L164.712 108.89C180.886 96.5933 184.589 68.3828 162.86 54.3969L146.623 79.6229L130.386 104.849C112.303 93.2098 116.101 70.4759 128.399 61.1259L146.556 85.0077ZM146.623 79.6229L160.855 53.2135L158.356 51.8668L144.124 78.2763L129.892 104.686L132.391 106.032L146.623 79.6229ZM144.124 78.2763L158.549 51.9719L158.519 51.9553L144.094 78.2597L129.669 104.564L129.699 104.581L144.124 78.2763ZM144.094 78.2597L160.145 52.9151L160.116 52.8965L144.064 78.2411L128.013 103.586L128.042 103.604L144.094 78.2597ZM144.064 78.2411L160.096 52.8836C156.786 50.7914 153.227 49.0454 149.463 47.714L139.459 75.997L129.455 104.28C128.878 104.076 128.405 103.834 128.033 103.599L144.064 78.2411ZM139.459 75.997L149.462 47.7138L138.66 43.8935L128.657 72.1767L118.654 100.46L129.456 104.28L139.459 75.997ZM128.657 72.1767L138.471 43.8271L138.42 43.8095L128.606 72.1591L118.793 100.509L118.844 100.526L128.657 72.1767ZM114.883 65.5634L125.295 37.4283L108.84 31.3385L98.4278 59.4735L88.0153 87.6086L104.47 93.6984L114.883 65.5634ZM98.4278 59.4735L107.281 30.8097L93.5978 26.5832L84.7442 55.247L75.8905 83.9108L89.5741 88.1373L98.4278 59.4735ZM84.7442 55.247L93.8115 26.6501L93.7714 26.6374L84.7041 55.2343L75.6368 83.8312L75.6768 83.8439L84.7442 55.247ZM84.7041 55.2343L95.4735 27.2339L95.4354 27.2193L84.666 55.2196L73.8967 83.22L73.9348 83.2346L84.7041 55.2343ZM84.666 55.2196L95.8702 27.3904L93.2432 26.3328L82.0391 54.162L70.835 81.9913L73.4619 83.0489L84.666 55.2196ZM128.606 72.1591L141.602 45.1198L127.878 38.5241L114.883 65.5634L101.888 92.6026L115.611 99.1983L128.606 72.1591Z"></path>
</svg>
