<svg xmlns="http://www.w3.org/2000/svg" fill="none" viewBox="0 0 384 200" height="200" width="384">
<g clip-path="url(#clip0_5068_24195)">
<rect stroke-opacity="0.44" stroke="black" height="28" width="119" y="72" x="-88"></rect>
<rect stroke-opacity="0.44" stroke="black" height="28" width="119" y="100" x="-88"></rect>
<rect stroke-opacity="0.44" stroke="black" height="28" width="119" y="128" x="-88"></rect>
<rect stroke-opacity="0.44" stroke="black" height="48" width="119" y="156" x="-88"></rect>
<path fill="#262626" d="M42.472 60.432L42.104 61.712H44.776L44.408 60.432C44.2373 59.8773 44.072 59.3067 43.912 58.72C43.7627 58.1333 43.6133 57.552 43.464 56.976H43.4C43.2613 57.5627 43.112 58.1493 42.952 58.736C42.8027 59.312 42.6427 59.8773 42.472 60.432ZM38.968 66L42.376 55.536H44.552L47.96 66H46.008L45.192 63.168H41.672L40.856 66H38.968ZM49.1219 66V58.144H50.6419L50.7699 59.2H50.8339C51.1859 58.8587 51.5699 58.5653 51.9859 58.32C52.4019 58.0747 52.8765 57.952 53.4099 57.952C54.2525 57.952 54.8659 58.224 55.2499 58.768C55.6339 59.312 55.8259 60.08 55.8259 61.072V66H53.9859V61.312C53.9859 60.6613 53.8899 60.2027 53.6979 59.936C53.5059 59.6693 53.1912 59.536 52.7539 59.536C52.4125 59.536 52.1085 59.6213 51.8419 59.792C51.5859 59.952 51.2925 60.192 50.9619 60.512V66H49.1219ZM60.875 66.192C59.9683 66.192 59.323 65.9307 58.939 65.408C58.5657 64.8747 58.379 64.1867 58.379 63.344V59.6H57.259V58.224L58.475 58.144L58.699 56H60.235V58.144H62.235V59.6H60.235V63.344C60.235 64.2613 60.603 64.72 61.339 64.72C61.4777 64.72 61.6217 64.704 61.771 64.672C61.9203 64.6293 62.0483 64.5867 62.155 64.544L62.475 65.904C62.2617 65.9787 62.0163 66.0427 61.739 66.096C61.4723 66.16 61.1843 66.192 60.875 66.192ZM65.4805 66.192C64.7978 66.192 64.2378 65.9787 63.8005 65.552C63.3738 65.1253 63.1605 64.5707 63.1605 63.888C63.1605 63.0453 63.5285 62.3947 64.2645 61.936C65.0005 61.4667 66.1738 61.1467 67.7845 60.976C67.7738 60.56 67.6618 60.2027 67.4485 59.904C67.2458 59.5947 66.8778 59.44 66.3445 59.44C65.9605 59.44 65.5818 59.5147 65.2085 59.664C64.8458 59.8133 64.4885 59.9947 64.1365 60.208L63.4645 58.976C63.9018 58.6987 64.3925 58.4587 64.9365 58.256C65.4912 58.0533 66.0778 57.952 66.6965 57.952C67.6778 57.952 68.4085 58.2453 68.8885 58.832C69.3792 59.408 69.6245 60.2453 69.6245 61.344V66H68.1045L67.9765 65.136H67.9125C67.5605 65.4347 67.1818 65.6853 66.7765 65.888C66.3818 66.0907 65.9498 66.192 65.4805 66.192ZM66.0725 64.752C66.3925 64.752 66.6805 64.6773 66.9365 64.528C67.2032 64.368 67.4858 64.1547 67.7845 63.888V62.128C66.7178 62.2667 65.9765 62.4747 65.5605 62.752C65.1445 63.0187 64.9365 63.3493 64.9365 63.744C64.9365 64.096 65.0432 64.352 65.2565 64.512C65.4698 64.672 65.7418 64.752 66.0725 64.752ZM73.6505 66.192C72.9998 66.192 72.5358 65.9947 72.2585 65.6C71.9918 65.2053 71.8585 64.6667 71.8585 63.984V54.704H73.6985V64.08C73.6985 64.304 73.7412 64.464 73.8265 64.56C73.9118 64.6453 74.0025 64.688 74.0985 64.688C74.1412 64.688 74.1785 64.688 74.2105 64.688C74.2532 64.6773 74.3118 64.6667 74.3865 64.656L74.6265 66.032C74.5198 66.0747 74.3812 66.112 74.2105 66.144C74.0505 66.176 73.8638 66.192 73.6505 66.192ZM78.0262 66.192C77.3756 66.192 76.9116 65.9947 76.6342 65.6C76.3676 65.2053 76.2342 64.6667 76.2342 63.984V54.704H78.0742V64.08C78.0742 64.304 78.1169 64.464 78.2023 64.56C78.2876 64.6453 78.3783 64.688 78.4743 64.688C78.5169 64.688 78.5543 64.688 78.5863 64.688C78.6289 64.6773 78.6876 64.6667 78.7622 64.656L79.0022 66.032C78.8956 66.0747 78.7569 66.112 78.5863 66.144C78.4263 66.176 78.2396 66.192 78.0262 66.192Z"></path>
<path fill="#262626" d="M137.823 92.192C137.012 92.192 136.335 92.048 135.791 91.76C135.247 91.4613 134.804 91.1253 134.463 90.752L135.135 89.888C135.444 90.208 135.807 90.4907 136.223 90.736C136.639 90.9813 137.146 91.104 137.743 91.104C138.362 91.104 138.868 90.9333 139.263 90.592C139.658 90.2507 139.855 89.7973 139.855 89.232C139.855 88.8267 139.748 88.4747 139.535 88.176C139.332 87.8667 138.991 87.6267 138.511 87.456C138.042 87.2853 137.402 87.2 136.591 87.2V86.192C137.316 86.192 137.887 86.1067 138.303 85.936C138.73 85.7653 139.034 85.536 139.215 85.248C139.396 84.96 139.487 84.64 139.487 84.288C139.487 83.7867 139.327 83.392 139.007 83.104C138.698 82.816 138.271 82.672 137.727 82.672C137.3 82.672 136.906 82.768 136.543 82.96C136.191 83.152 135.86 83.4027 135.551 83.712L134.847 82.88C135.242 82.5067 135.679 82.2027 136.159 81.968C136.639 81.7227 137.178 81.6 137.775 81.6C138.66 81.6 139.391 81.8293 139.967 82.288C140.543 82.736 140.831 83.3707 140.831 84.192C140.831 84.8107 140.66 85.3173 140.319 85.712C139.978 86.1067 139.53 86.4107 138.975 86.624V86.688C139.594 86.8267 140.116 87.12 140.543 87.568C140.97 88.0053 141.183 88.576 141.183 89.28C141.183 89.8773 141.034 90.3947 140.735 90.832C140.436 91.2693 140.031 91.6053 139.519 91.84C139.018 92.0747 138.452 92.192 137.823 92.192Z"></path>
<rect stroke-opacity="0.44" stroke="black" height="28" width="119" y="72" x="31"></rect>
<path fill="#262626" d="M127.326 120V118.912H129.662V111.392H127.806V110.544C128.275 110.459 128.68 110.357 129.022 110.24C129.374 110.112 129.688 109.963 129.966 109.792H130.974V118.912H133.086V120H127.326ZM134.687 120V119.216C135.711 118.192 136.58 117.296 137.295 116.528C138.01 115.749 138.554 115.051 138.927 114.432C139.3 113.803 139.487 113.216 139.487 112.672C139.487 112.085 139.327 111.605 139.007 111.232C138.687 110.859 138.202 110.672 137.551 110.672C137.124 110.672 136.73 110.795 136.367 111.04C136.004 111.275 135.674 111.563 135.375 111.904L134.623 111.152C135.05 110.683 135.503 110.309 135.983 110.032C136.474 109.744 137.05 109.6 137.711 109.6C138.66 109.6 139.407 109.877 139.951 110.432C140.495 110.976 140.767 111.701 140.767 112.608C140.767 113.248 140.586 113.899 140.223 114.56C139.871 115.211 139.38 115.899 138.751 116.624C138.132 117.339 137.418 118.117 136.607 118.96C136.884 118.939 137.172 118.917 137.471 118.896C137.77 118.875 138.052 118.864 138.319 118.864H141.279V120H134.687Z"></path>
<rect stroke-opacity="0.44" stroke="black" height="28" width="119" y="100" x="31"></rect>
<path fill="#262626" d="M136.879 148C136.943 146.72 137.076 145.573 137.279 144.56C137.492 143.536 137.802 142.576 138.207 141.68C138.623 140.773 139.167 139.856 139.839 138.928H134.751V137.792H141.327V138.608C140.719 139.376 140.223 140.117 139.839 140.832C139.455 141.536 139.156 142.251 138.943 142.976C138.73 143.691 138.57 144.459 138.463 145.28C138.356 146.101 138.282 147.008 138.239 148H136.879Z"></path>
<rect stroke-opacity="0.44" stroke="black" height="28" width="119" y="128" x="31"></rect>
<path fill="#262626" d="M127.726 172.128H130.926V169.168C130.926 168.891 130.936 168.56 130.958 168.176C130.979 167.792 130.995 167.467 131.006 167.2H130.942C130.814 167.445 130.68 167.685 130.542 167.92C130.403 168.155 130.259 168.395 130.11 168.64L127.726 172.128ZM130.926 176V173.184H126.334V172.32L130.702 165.792H132.174V172.128H133.566V173.184H132.174V176H130.926ZM134.687 176V175.216C135.711 174.192 136.58 173.296 137.295 172.528C138.01 171.749 138.554 171.051 138.927 170.432C139.3 169.803 139.487 169.216 139.487 168.672C139.487 168.085 139.327 167.605 139.007 167.232C138.687 166.859 138.202 166.672 137.551 166.672C137.124 166.672 136.73 166.795 136.367 167.04C136.004 167.275 135.674 167.563 135.375 167.904L134.623 167.152C135.05 166.683 135.503 166.309 135.983 166.032C136.474 165.744 137.05 165.6 137.711 165.6C138.66 165.6 139.407 165.877 139.951 166.432C140.495 166.976 140.767 167.701 140.767 168.608C140.767 169.248 140.586 169.899 140.223 170.56C139.871 171.211 139.38 171.899 138.751 172.624C138.132 173.339 137.418 174.117 136.607 174.96C136.884 174.939 137.172 174.917 137.471 174.896C137.77 174.875 138.052 174.864 138.319 174.864H141.279V176H134.687Z"></path>
<rect stroke-opacity="0.44" stroke="black" height="48" width="119" y="156" x="31"></rect>
<path fill="#262626" d="M159.328 66V55.536H161.184V60.288H161.232L164.96 55.536H167.024L163.808 59.616L167.568 66H165.52L162.688 61.072L161.184 62.944V66H159.328ZM171.775 66.192C171.125 66.192 170.517 66.032 169.951 65.712C169.386 65.3813 168.927 64.912 168.575 64.304C168.223 63.6853 168.047 62.944 168.047 62.08C168.047 61.2053 168.223 60.464 168.575 59.856C168.927 59.2373 169.386 58.768 169.951 58.448C170.517 58.1173 171.125 57.952 171.775 57.952C172.437 57.952 173.05 58.1173 173.615 58.448C174.181 58.768 174.639 59.2373 174.991 59.856C175.343 60.464 175.519 61.2053 175.519 62.08C175.519 62.944 175.343 63.6853 174.991 64.304C174.639 64.912 174.181 65.3813 173.615 65.712C173.05 66.032 172.437 66.192 171.775 66.192ZM171.775 64.688C172.351 64.688 172.805 64.448 173.135 63.968C173.466 63.488 173.631 62.8587 173.631 62.08C173.631 61.2907 173.466 60.656 173.135 60.176C172.805 59.696 172.351 59.456 171.775 59.456C171.199 59.456 170.746 59.696 170.415 60.176C170.095 60.656 169.935 61.2907 169.935 62.08C169.935 62.8587 170.095 63.488 170.415 63.968C170.746 64.448 171.199 64.688 171.775 64.688ZM177.373 66V58.144H178.893L179.021 59.216H179.085C179.415 58.864 179.773 58.5653 180.157 58.32C180.551 58.0747 180.994 57.952 181.485 57.952C182.061 57.952 182.519 58.08 182.861 58.336C183.213 58.5813 183.479 58.9227 183.661 59.36C184.034 58.9547 184.423 58.6187 184.829 58.352C185.245 58.0853 185.698 57.952 186.189 57.952C187.021 57.952 187.634 58.224 188.029 58.768C188.423 59.312 188.621 60.08 188.621 61.072V66H186.765V61.312C186.765 60.6613 186.663 60.2027 186.461 59.936C186.269 59.6693 185.97 59.536 185.565 59.536C185.074 59.536 184.525 59.8613 183.917 60.512V66H182.077V61.312C182.077 60.6613 181.975 60.2027 181.773 59.936C181.581 59.6693 181.277 59.536 180.861 59.536C180.37 59.536 179.821 59.8613 179.213 60.512V66H177.373ZM190.889 66V58.144H192.409L192.537 59.216H192.601C192.932 58.864 193.289 58.5653 193.673 58.32C194.068 58.0747 194.51 57.952 195.001 57.952C195.577 57.952 196.036 58.08 196.377 58.336C196.729 58.5813 196.996 58.9227 197.177 59.36C197.55 58.9547 197.94 58.6187 198.345 58.352C198.761 58.0853 199.214 57.952 199.705 57.952C200.537 57.952 201.15 58.224 201.545 58.768C201.94 59.312 202.137 60.08 202.137 61.072V66H200.281V61.312C200.281 60.6613 200.18 60.2027 199.977 59.936C199.785 59.6693 199.486 59.536 199.081 59.536C198.59 59.536 198.041 59.8613 197.433 60.512V66H195.593V61.312C195.593 60.6613 195.492 60.2027 195.289 59.936C195.097 59.6693 194.793 59.536 194.377 59.536C193.886 59.536 193.337 59.8613 192.729 60.512V66H190.889ZM207.765 66.192C207.04 66.192 206.384 66.032 205.797 65.712C205.211 65.3813 204.747 64.912 204.405 64.304C204.064 63.6853 203.893 62.944 203.893 62.08C203.893 61.2267 204.064 60.4907 204.405 59.872C204.757 59.2533 205.211 58.7787 205.765 58.448C206.32 58.1173 206.901 57.952 207.509 57.952C208.224 57.952 208.821 58.112 209.301 58.432C209.781 58.7413 210.144 59.1787 210.389 59.744C210.635 60.2987 210.757 60.944 210.757 61.68C210.757 62.064 210.731 62.3627 210.677 62.576H205.685C205.771 63.2693 206.021 63.808 206.437 64.192C206.853 64.576 207.376 64.768 208.005 64.768C208.347 64.768 208.661 64.72 208.949 64.624C209.248 64.5173 209.541 64.3733 209.829 64.192L210.453 65.344C210.08 65.5893 209.664 65.792 209.205 65.952C208.747 66.112 208.267 66.192 207.765 66.192ZM205.669 61.328H209.157C209.157 60.72 209.024 60.2453 208.757 59.904C208.491 59.552 208.091 59.376 207.557 59.376C207.099 59.376 206.688 59.5467 206.325 59.888C205.973 60.2187 205.755 60.6987 205.669 61.328ZM212.547 66V58.144H214.067L214.195 59.2H214.259C214.611 58.8587 214.995 58.5653 215.411 58.32C215.827 58.0747 216.301 57.952 216.835 57.952C217.677 57.952 218.291 58.224 218.675 58.768C219.059 59.312 219.251 60.08 219.251 61.072V66H217.411V61.312C217.411 60.6613 217.315 60.2027 217.123 59.936C216.931 59.6693 216.616 59.536 216.179 59.536C215.837 59.536 215.533 59.6213 215.267 59.792C215.011 59.952 214.717 60.192 214.387 60.512V66H212.547ZM224.3 66.192C223.393 66.192 222.748 65.9307 222.364 65.408C221.991 64.8747 221.804 64.1867 221.804 63.344V59.6H220.684V58.224L221.9 58.144L222.124 56H223.66V58.144H225.66V59.6H223.66V63.344C223.66 64.2613 224.028 64.72 224.764 64.72C224.903 64.72 225.047 64.704 225.196 64.672C225.345 64.6293 225.473 64.5867 225.58 64.544L225.9 65.904C225.687 65.9787 225.441 66.0427 225.164 66.096C224.897 66.16 224.609 66.192 224.3 66.192ZM228.905 66.192C228.223 66.192 227.663 65.9787 227.225 65.552C226.799 65.1253 226.585 64.5707 226.585 63.888C226.585 63.0453 226.953 62.3947 227.689 61.936C228.425 61.4667 229.599 61.1467 231.209 60.976C231.199 60.56 231.087 60.2027 230.873 59.904C230.671 59.5947 230.303 59.44 229.769 59.44C229.385 59.44 229.007 59.5147 228.633 59.664C228.271 59.8133 227.913 59.9947 227.561 60.208L226.889 58.976C227.327 58.6987 227.817 58.4587 228.361 58.256C228.916 58.0533 229.503 57.952 230.121 57.952C231.103 57.952 231.833 58.2453 232.313 58.832C232.804 59.408 233.049 60.2453 233.049 61.344V66H231.529L231.401 65.136H231.337C230.985 65.4347 230.607 65.6853 230.201 65.888C229.807 66.0907 229.375 66.192 228.905 66.192ZM229.497 64.752C229.817 64.752 230.105 64.6773 230.361 64.528C230.628 64.368 230.911 64.1547 231.209 63.888V62.128C230.143 62.2667 229.401 62.4747 228.985 62.752C228.569 63.0187 228.361 63.3493 228.361 63.744C228.361 64.096 228.468 64.352 228.681 64.512C228.895 64.672 229.167 64.752 229.497 64.752ZM235.283 66V58.144H236.803L236.931 59.536H236.995C237.273 59.024 237.609 58.6347 238.003 58.368C238.398 58.0907 238.803 57.952 239.219 57.952C239.593 57.952 239.891 58.0053 240.115 58.112L239.795 59.712C239.657 59.6693 239.529 59.6373 239.411 59.616C239.294 59.5947 239.15 59.584 238.979 59.584C238.67 59.584 238.345 59.7067 238.003 59.952C237.662 60.1867 237.369 60.6027 237.123 61.2V66H235.283Z"></path>
<path fill="#262626" d="M163.312 92.192C162.437 92.192 161.659 91.968 160.976 91.52C160.304 91.072 159.776 90.4373 159.392 89.616C159.019 88.7947 158.832 87.824 158.832 86.704C158.832 85.584 159.019 84.624 159.392 83.824C159.776 83.0133 160.304 82.3947 160.976 81.968C161.659 81.5307 162.437 81.312 163.312 81.312C164.197 81.312 164.976 81.5307 165.648 81.968C166.32 82.3947 166.848 83.0133 167.232 83.824C167.616 84.624 167.808 85.584 167.808 86.704C167.808 87.824 167.616 88.7947 167.232 89.616C166.848 90.4373 166.32 91.072 165.648 91.52C164.976 91.968 164.197 92.192 163.312 92.192ZM163.312 91.024C163.941 91.024 164.485 90.848 164.944 90.496C165.413 90.1333 165.776 89.632 166.032 88.992C166.288 88.3413 166.416 87.5787 166.416 86.704C166.416 85.4027 166.133 84.3733 165.568 83.616C165.003 82.8587 164.251 82.48 163.312 82.48C162.373 82.48 161.621 82.8587 161.056 83.616C160.491 84.3733 160.208 85.4027 160.208 86.704C160.208 87.5787 160.336 88.3413 160.592 88.992C160.848 89.632 161.211 90.1333 161.68 90.496C162.149 90.848 162.693 91.024 163.312 91.024ZM170.097 92V81.504H171.425V86.768H171.473L175.841 81.504H177.345L174.065 85.504L177.857 92H176.369L173.233 86.544L171.425 88.672V92H170.097Z"></path>
<rect stroke-opacity="0.44" stroke="black" height="28" width="180" y="72" x="150"></rect>
<path fill="#262626" d="M159.44 120V109.504H165.488V110.624H160.768V114.176H164.768V115.296H160.768V120H159.44ZM170.184 120.192C169.49 120.192 168.861 120.032 168.296 119.712C167.73 119.381 167.282 118.912 166.952 118.304C166.621 117.696 166.456 116.971 166.456 116.128C166.456 115.275 166.621 114.544 166.952 113.936C167.293 113.328 167.73 112.859 168.264 112.528C168.797 112.197 169.357 112.032 169.944 112.032C170.936 112.032 171.698 112.363 172.232 113.024C172.776 113.685 173.048 114.571 173.048 115.68C173.048 115.819 173.042 115.957 173.032 116.096C173.032 116.224 173.021 116.336 173 116.432H167.752C167.805 117.253 168.061 117.909 168.52 118.4C168.989 118.891 169.597 119.136 170.344 119.136C170.717 119.136 171.058 119.083 171.368 118.976C171.688 118.859 171.992 118.709 172.28 118.528L172.744 119.392C172.413 119.605 172.034 119.792 171.608 119.952C171.192 120.112 170.717 120.192 170.184 120.192ZM167.736 115.488H171.896C171.896 114.699 171.725 114.101 171.384 113.696C171.053 113.28 170.584 113.072 169.976 113.072C169.432 113.072 168.941 113.285 168.504 113.712C168.077 114.128 167.821 114.72 167.736 115.488ZM175.001 120V112.224H176.313V120H175.001ZM175.673 110.624C175.417 110.624 175.204 110.549 175.033 110.4C174.873 110.24 174.793 110.027 174.793 109.76C174.793 109.504 174.873 109.296 175.033 109.136C175.204 108.976 175.417 108.896 175.673 108.896C175.929 108.896 176.137 108.976 176.297 109.136C176.468 109.296 176.553 109.504 176.553 109.76C176.553 110.027 176.468 110.24 176.297 110.4C176.137 110.549 175.929 110.624 175.673 110.624ZM180.363 120.192C179.872 120.192 179.515 120.043 179.291 119.744C179.077 119.435 178.971 118.997 178.971 118.432V108.608H180.283V118.528C180.283 118.731 180.32 118.88 180.395 118.976C180.469 119.061 180.555 119.104 180.651 119.104C180.693 119.104 180.731 119.104 180.763 119.104C180.805 119.093 180.864 119.083 180.939 119.072L181.115 120.064C181.029 120.107 180.928 120.139 180.811 120.16C180.693 120.181 180.544 120.192 180.363 120.192ZM186.316 120V112.224H187.404L187.516 113.344H187.564C187.905 112.971 188.278 112.661 188.684 112.416C189.089 112.16 189.521 112.032 189.98 112.032C190.577 112.032 191.041 112.165 191.372 112.432C191.713 112.688 191.964 113.051 192.124 113.52C192.529 113.083 192.94 112.725 193.356 112.448C193.772 112.171 194.214 112.032 194.684 112.032C195.484 112.032 196.076 112.293 196.46 112.816C196.854 113.328 197.052 114.08 197.052 115.072V120H195.74V115.248C195.74 114.523 195.622 113.995 195.388 113.664C195.153 113.333 194.79 113.168 194.3 113.168C193.724 113.168 193.073 113.568 192.348 114.368V120H191.036V115.248C191.036 114.523 190.918 113.995 190.684 113.664C190.449 113.333 190.081 113.168 189.58 113.168C189.004 113.168 188.353 113.568 187.628 114.368V120H186.316ZM202.765 120.192C202.072 120.192 201.443 120.032 200.877 119.712C200.312 119.381 199.864 118.912 199.533 118.304C199.203 117.696 199.037 116.971 199.037 116.128C199.037 115.275 199.203 114.544 199.533 113.936C199.875 113.328 200.312 112.859 200.845 112.528C201.379 112.197 201.939 112.032 202.525 112.032C203.517 112.032 204.28 112.363 204.813 113.024C205.357 113.685 205.629 114.571 205.629 115.68C205.629 115.819 205.624 115.957 205.613 116.096C205.613 116.224 205.603 116.336 205.581 116.432H200.333C200.387 117.253 200.643 117.909 201.101 118.4C201.571 118.891 202.179 119.136 202.925 119.136C203.299 119.136 203.64 119.083 203.949 118.976C204.269 118.859 204.573 118.709 204.861 118.528L205.325 119.392C204.995 119.605 204.616 119.792 204.189 119.952C203.773 120.112 203.299 120.192 202.765 120.192ZM200.317 115.488H204.477C204.477 114.699 204.307 114.101 203.965 113.696C203.635 113.28 203.165 113.072 202.557 113.072C202.013 113.072 201.523 113.285 201.085 113.712C200.659 114.128 200.403 114.72 200.317 115.488ZM210.239 120.192C209.268 120.192 208.49 119.84 207.903 119.136C207.316 118.421 207.023 117.419 207.023 116.128C207.023 115.285 207.178 114.56 207.487 113.952C207.807 113.333 208.223 112.859 208.735 112.528C209.258 112.197 209.812 112.032 210.399 112.032C210.847 112.032 211.236 112.112 211.567 112.272C211.898 112.432 212.234 112.651 212.575 112.928L212.511 111.6V108.608H213.839V120H212.751L212.639 119.088H212.591C212.292 119.387 211.94 119.648 211.535 119.872C211.13 120.085 210.698 120.192 210.239 120.192ZM210.527 119.088C211.21 119.088 211.871 118.731 212.511 118.016V113.952C212.18 113.653 211.86 113.445 211.551 113.328C211.252 113.2 210.943 113.136 210.623 113.136C210.207 113.136 209.828 113.264 209.487 113.52C209.156 113.765 208.89 114.112 208.687 114.56C208.484 114.997 208.383 115.515 208.383 116.112C208.383 117.04 208.57 117.771 208.943 118.304C209.316 118.827 209.844 119.088 210.527 119.088ZM221.757 120.192C221.202 120.192 220.674 120.091 220.173 119.888C219.672 119.675 219.234 119.419 218.861 119.12L219.517 118.24C219.858 118.507 220.21 118.731 220.573 118.912C220.936 119.083 221.346 119.168 221.805 119.168C222.317 119.168 222.701 119.051 222.957 118.816C223.213 118.571 223.341 118.283 223.341 117.952C223.341 117.685 223.25 117.461 223.069 117.28C222.898 117.099 222.674 116.949 222.397 116.832C222.13 116.704 221.853 116.587 221.565 116.48C221.202 116.341 220.845 116.187 220.493 116.016C220.141 115.835 219.853 115.605 219.629 115.328C219.405 115.04 219.293 114.677 219.293 114.24C219.293 113.611 219.528 113.088 219.997 112.672C220.477 112.245 221.138 112.032 221.981 112.032C222.461 112.032 222.909 112.117 223.325 112.288C223.741 112.459 224.098 112.667 224.397 112.912L223.757 113.744C223.49 113.541 223.213 113.376 222.925 113.248C222.637 113.12 222.322 113.056 221.981 113.056C221.49 113.056 221.128 113.168 220.893 113.392C220.669 113.616 220.557 113.877 220.557 114.176C220.557 114.421 220.637 114.624 220.797 114.784C220.957 114.933 221.165 115.067 221.421 115.184C221.677 115.291 221.949 115.403 222.237 115.52C222.61 115.659 222.978 115.819 223.341 116C223.704 116.171 224.002 116.405 224.237 116.704C224.482 116.992 224.605 117.381 224.605 117.872C224.605 118.288 224.493 118.672 224.269 119.024C224.056 119.376 223.736 119.659 223.309 119.872C222.893 120.085 222.376 120.192 221.757 120.192ZM229.612 120.192C228.919 120.192 228.289 120.032 227.724 119.712C227.159 119.381 226.711 118.912 226.38 118.304C226.049 117.696 225.884 116.971 225.884 116.128C225.884 115.275 226.049 114.544 226.38 113.936C226.721 113.328 227.159 112.859 227.692 112.528C228.225 112.197 228.785 112.032 229.372 112.032C230.364 112.032 231.127 112.363 231.66 113.024C232.204 113.685 232.476 114.571 232.476 115.68C232.476 115.819 232.471 115.957 232.46 116.096C232.46 116.224 232.449 116.336 232.428 116.432H227.18C227.233 117.253 227.489 117.909 227.948 118.4C228.417 118.891 229.025 119.136 229.772 119.136C230.145 119.136 230.487 119.083 230.796 118.976C231.116 118.859 231.42 118.709 231.708 118.528L232.172 119.392C231.841 119.605 231.463 119.792 231.036 119.952C230.62 120.112 230.145 120.192 229.612 120.192ZM227.164 115.488H231.324C231.324 114.699 231.153 114.101 230.812 113.696C230.481 113.28 230.012 113.072 229.404 113.072C228.86 113.072 228.369 113.285 227.932 113.712C227.505 114.128 227.249 114.72 227.164 115.488ZM234.43 120V112.224H235.518L235.63 113.344H235.678C236.051 112.971 236.446 112.661 236.862 112.416C237.278 112.16 237.752 112.032 238.286 112.032C239.107 112.032 239.704 112.293 240.078 112.816C240.462 113.328 240.654 114.08 240.654 115.072V120H239.342V115.248C239.342 114.523 239.224 113.995 238.99 113.664C238.755 113.333 238.382 113.168 237.87 113.168C237.475 113.168 237.118 113.269 236.798 113.472C236.488 113.675 236.136 113.973 235.742 114.368V120H234.43ZM245.868 120.192C244.897 120.192 244.118 119.84 243.532 119.136C242.945 118.421 242.652 117.419 242.652 116.128C242.652 115.285 242.806 114.56 243.116 113.952C243.436 113.333 243.852 112.859 244.364 112.528C244.886 112.197 245.441 112.032 246.028 112.032C246.476 112.032 246.865 112.112 247.196 112.272C247.526 112.432 247.862 112.651 248.204 112.928L248.14 111.6V108.608H249.468V120H248.38L248.268 119.088H248.22C247.921 119.387 247.569 119.648 247.164 119.872C246.758 120.085 246.326 120.192 245.868 120.192ZM246.156 119.088C246.838 119.088 247.5 118.731 248.14 118.016V113.952C247.809 113.653 247.489 113.445 247.18 113.328C246.881 113.2 246.572 113.136 246.252 113.136C245.836 113.136 245.457 113.264 245.116 113.52C244.785 113.765 244.518 114.112 244.316 114.56C244.113 114.997 244.012 115.515 244.012 116.112C244.012 117.04 244.198 117.771 244.572 118.304C244.945 118.827 245.473 119.088 246.156 119.088ZM252.119 120V112.224H253.431V120H252.119ZM252.791 110.624C252.535 110.624 252.321 110.549 252.151 110.4C251.991 110.24 251.911 110.027 251.911 109.76C251.911 109.504 251.991 109.296 252.151 109.136C252.321 108.976 252.535 108.896 252.791 108.896C253.047 108.896 253.255 108.976 253.415 109.136C253.585 109.296 253.671 109.504 253.671 109.76C253.671 110.027 253.585 110.24 253.415 110.4C253.255 110.549 253.047 110.624 252.791 110.624ZM256.088 120V112.224H257.176L257.288 113.344H257.336C257.709 112.971 258.104 112.661 258.52 112.416C258.936 112.16 259.411 112.032 259.944 112.032C260.765 112.032 261.363 112.293 261.736 112.816C262.12 113.328 262.312 114.08 262.312 115.072V120H261V115.248C261 114.523 260.883 113.995 260.648 113.664C260.413 113.333 260.04 113.168 259.528 113.168C259.133 113.168 258.776 113.269 258.456 113.472C258.147 113.675 257.795 113.973 257.4 114.368V120H256.088ZM267.494 123.584C266.545 123.584 265.771 123.403 265.174 123.04C264.577 122.677 264.278 122.16 264.278 121.488C264.278 121.157 264.379 120.837 264.582 120.528C264.785 120.229 265.062 119.963 265.414 119.728V119.664C265.222 119.547 265.057 119.381 264.918 119.168C264.79 118.955 264.726 118.699 264.726 118.4C264.726 118.069 264.817 117.781 264.998 117.536C265.179 117.291 265.371 117.099 265.574 116.96V116.896C265.318 116.683 265.083 116.395 264.87 116.032C264.667 115.669 264.566 115.259 264.566 114.8C264.566 114.235 264.699 113.744 264.966 113.328C265.233 112.912 265.59 112.592 266.038 112.368C266.486 112.144 266.971 112.032 267.494 112.032C267.707 112.032 267.91 112.053 268.102 112.096C268.294 112.128 268.459 112.171 268.598 112.224H271.302V113.232H269.702C269.883 113.403 270.033 113.632 270.15 113.92C270.278 114.197 270.342 114.501 270.342 114.832C270.342 115.387 270.214 115.867 269.958 116.272C269.702 116.677 269.361 116.992 268.934 117.216C268.507 117.429 268.027 117.536 267.494 117.536C267.078 117.536 266.689 117.445 266.326 117.264C266.187 117.381 266.07 117.515 265.974 117.664C265.878 117.803 265.83 117.979 265.83 118.192C265.83 118.437 265.926 118.64 266.118 118.8C266.321 118.96 266.683 119.04 267.206 119.04H268.71C269.617 119.04 270.294 119.189 270.742 119.488C271.201 119.776 271.43 120.245 271.43 120.896C271.43 121.376 271.27 121.819 270.95 122.224C270.63 122.629 270.177 122.955 269.59 123.2C269.003 123.456 268.305 123.584 267.494 123.584ZM267.494 116.656C267.942 116.656 268.326 116.491 268.646 116.16C268.977 115.819 269.142 115.365 269.142 114.8C269.142 114.235 268.982 113.792 268.662 113.472C268.342 113.152 267.953 112.992 267.494 112.992C267.035 112.992 266.646 113.152 266.326 113.472C266.006 113.792 265.846 114.235 265.846 114.8C265.846 115.365 266.006 115.819 266.326 116.16C266.657 116.491 267.046 116.656 267.494 116.656ZM267.686 122.672C268.433 122.672 269.03 122.507 269.478 122.176C269.926 121.856 270.15 121.493 270.15 121.088C270.15 120.725 270.011 120.475 269.734 120.336C269.467 120.197 269.083 120.128 268.582 120.128H267.238C267.089 120.128 266.923 120.117 266.742 120.096C266.571 120.075 266.401 120.043 266.23 120C265.953 120.203 265.75 120.416 265.622 120.64C265.494 120.864 265.43 121.088 265.43 121.312C265.43 121.728 265.627 122.059 266.022 122.304C266.427 122.549 266.982 122.672 267.686 122.672Z"></path>
<rect stroke-opacity="0.44" stroke="black" height="28" width="180" y="100" x="150"></rect>
<path fill="#262626" d="M163.312 148.192C162.437 148.192 161.659 147.968 160.976 147.52C160.304 147.072 159.776 146.437 159.392 145.616C159.019 144.795 158.832 143.824 158.832 142.704C158.832 141.584 159.019 140.624 159.392 139.824C159.776 139.013 160.304 138.395 160.976 137.968C161.659 137.531 162.437 137.312 163.312 137.312C164.197 137.312 164.976 137.531 165.648 137.968C166.32 138.395 166.848 139.013 167.232 139.824C167.616 140.624 167.808 141.584 167.808 142.704C167.808 143.824 167.616 144.795 167.232 145.616C166.848 146.437 166.32 147.072 165.648 147.52C164.976 147.968 164.197 148.192 163.312 148.192ZM163.312 147.024C163.941 147.024 164.485 146.848 164.944 146.496C165.413 146.133 165.776 145.632 166.032 144.992C166.288 144.341 166.416 143.579 166.416 142.704C166.416 141.403 166.133 140.373 165.568 139.616C165.003 138.859 164.251 138.48 163.312 138.48C162.373 138.48 161.621 138.859 161.056 139.616C160.491 140.373 160.208 141.403 160.208 142.704C160.208 143.579 160.336 144.341 160.592 144.992C160.848 145.632 161.211 146.133 161.68 146.496C162.149 146.848 162.693 147.024 163.312 147.024ZM170.097 148V137.504H171.425V142.768H171.473L175.841 137.504H177.345L174.065 141.504L177.857 148H176.369L173.233 142.544L171.425 144.672V148H170.097Z"></path>
<rect stroke-opacity="0.44" stroke="black" height="28" width="180" y="128" x="150"></rect>
<path fill="#262626" d="M161.616 176V166.624H158.448V165.504H166.128V166.624H162.96V176H161.616ZM169.884 176.192C169.254 176.192 168.662 176.032 168.108 175.712C167.564 175.392 167.121 174.928 166.78 174.32C166.449 173.712 166.284 172.981 166.284 172.128C166.284 171.253 166.449 170.512 166.78 169.904C167.121 169.296 167.564 168.832 168.108 168.512C168.662 168.192 169.254 168.032 169.884 168.032C170.524 168.032 171.116 168.192 171.66 168.512C172.204 168.832 172.641 169.296 172.972 169.904C173.313 170.512 173.484 171.253 173.484 172.128C173.484 172.981 173.313 173.712 172.972 174.32C172.641 174.928 172.204 175.392 171.66 175.712C171.116 176.032 170.524 176.192 169.884 176.192ZM169.884 175.104C170.556 175.104 171.094 174.832 171.5 174.288C171.916 173.733 172.124 173.013 172.124 172.128C172.124 171.232 171.916 170.507 171.5 169.952C171.094 169.397 170.556 169.12 169.884 169.12C169.222 169.12 168.684 169.397 168.268 169.952C167.852 170.507 167.644 171.232 167.644 172.128C167.644 173.013 167.852 173.733 168.268 174.288C168.684 174.832 169.222 175.104 169.884 175.104ZM175.563 176V168.224H176.651L176.763 169.344H176.811C177.153 168.971 177.526 168.661 177.931 168.416C178.337 168.16 178.769 168.032 179.227 168.032C179.825 168.032 180.289 168.165 180.619 168.432C180.961 168.688 181.211 169.051 181.371 169.52C181.777 169.083 182.187 168.725 182.603 168.448C183.019 168.171 183.462 168.032 183.931 168.032C184.731 168.032 185.323 168.293 185.707 168.816C186.102 169.328 186.299 170.08 186.299 171.072V176H184.987V171.248C184.987 170.523 184.87 169.995 184.635 169.664C184.401 169.333 184.038 169.168 183.547 169.168C182.971 169.168 182.321 169.568 181.595 170.368V176H180.283V171.248C180.283 170.523 180.166 169.995 179.931 169.664C179.697 169.333 179.329 169.168 178.827 169.168C178.251 169.168 177.601 169.568 176.875 170.368V176H175.563ZM191.309 176.192C190.477 176.192 189.896 175.952 189.565 175.472C189.245 174.992 189.085 174.368 189.085 173.6V169.296H187.933V168.304L189.149 168.224L189.309 166.048H190.413V168.224H192.509V169.296H190.413V173.616C190.413 174.096 190.498 174.469 190.669 174.736C190.85 174.992 191.165 175.12 191.613 175.12C191.752 175.12 191.901 175.099 192.061 175.056C192.221 175.003 192.365 174.955 192.493 174.912L192.749 175.904C192.536 175.979 192.301 176.043 192.045 176.096C191.8 176.16 191.554 176.192 191.309 176.192ZM197.534 176V164.608H198.846V167.712L198.799 169.312C199.172 168.96 199.561 168.661 199.967 168.416C200.382 168.16 200.857 168.032 201.391 168.032C202.212 168.032 202.809 168.293 203.183 168.816C203.567 169.328 203.759 170.08 203.759 171.072V176H202.447V171.248C202.447 170.523 202.329 169.995 202.095 169.664C201.86 169.333 201.487 169.168 200.975 169.168C200.58 169.168 200.223 169.269 199.902 169.472C199.593 169.675 199.241 169.973 198.846 170.368V176H197.534ZM209.294 176.192C208.664 176.192 208.072 176.032 207.518 175.712C206.974 175.392 206.531 174.928 206.19 174.32C205.859 173.712 205.694 172.981 205.694 172.128C205.694 171.253 205.859 170.512 206.19 169.904C206.531 169.296 206.974 168.832 207.518 168.512C208.072 168.192 208.664 168.032 209.294 168.032C209.934 168.032 210.526 168.192 211.07 168.512C211.614 168.832 212.051 169.296 212.382 169.904C212.723 170.512 212.894 171.253 212.894 172.128C212.894 172.981 212.723 173.712 212.382 174.32C212.051 174.928 211.614 175.392 211.07 175.712C210.526 176.032 209.934 176.192 209.294 176.192ZM209.294 175.104C209.966 175.104 210.504 174.832 210.91 174.288C211.326 173.733 211.534 173.013 211.534 172.128C211.534 171.232 211.326 170.507 210.91 169.952C210.504 169.397 209.966 169.12 209.294 169.12C208.632 169.12 208.094 169.397 207.678 169.952C207.262 170.507 207.054 171.232 207.054 172.128C207.054 173.013 207.262 173.733 207.678 174.288C208.094 174.832 208.632 175.104 209.294 175.104ZM217.005 176.192C216.451 176.192 215.923 176.091 215.421 175.888C214.92 175.675 214.483 175.419 214.109 175.12L214.765 174.24C215.107 174.507 215.459 174.731 215.821 174.912C216.184 175.083 216.595 175.168 217.053 175.168C217.565 175.168 217.949 175.051 218.205 174.816C218.461 174.571 218.589 174.283 218.589 173.952C218.589 173.685 218.499 173.461 218.317 173.28C218.147 173.099 217.923 172.949 217.645 172.832C217.379 172.704 217.101 172.587 216.813 172.48C216.451 172.341 216.093 172.187 215.741 172.016C215.389 171.835 215.101 171.605 214.877 171.328C214.653 171.04 214.541 170.677 214.541 170.24C214.541 169.611 214.776 169.088 215.245 168.672C215.725 168.245 216.387 168.032 217.229 168.032C217.709 168.032 218.157 168.117 218.573 168.288C218.989 168.459 219.347 168.667 219.645 168.912L219.005 169.744C218.739 169.541 218.461 169.376 218.173 169.248C217.885 169.12 217.571 169.056 217.229 169.056C216.739 169.056 216.376 169.168 216.141 169.392C215.917 169.616 215.805 169.877 215.805 170.176C215.805 170.421 215.885 170.624 216.045 170.784C216.205 170.933 216.413 171.067 216.669 171.184C216.925 171.291 217.197 171.403 217.485 171.52C217.859 171.659 218.227 171.819 218.589 172C218.952 172.171 219.251 172.405 219.485 172.704C219.731 172.992 219.853 173.381 219.853 173.872C219.853 174.288 219.741 174.672 219.517 175.024C219.304 175.376 218.984 175.659 218.557 175.872C218.141 176.085 217.624 176.192 217.005 176.192ZM226.336 176.192C225.845 176.192 225.488 176.043 225.264 175.744C225.05 175.435 224.944 174.997 224.944 174.432V164.608H226.256V174.528C226.256 174.731 226.293 174.88 226.368 174.976C226.442 175.061 226.528 175.104 226.624 175.104C226.666 175.104 226.704 175.104 226.736 175.104C226.778 175.093 226.837 175.083 226.912 175.072L227.088 176.064C227.002 176.107 226.901 176.139 226.784 176.16C226.666 176.181 226.517 176.192 226.336 176.192ZM232.206 176.192C231.513 176.192 230.883 176.032 230.318 175.712C229.753 175.381 229.305 174.912 228.974 174.304C228.643 173.696 228.478 172.971 228.478 172.128C228.478 171.275 228.643 170.544 228.974 169.936C229.315 169.328 229.753 168.859 230.286 168.528C230.819 168.197 231.379 168.032 231.966 168.032C232.958 168.032 233.721 168.363 234.254 169.024C234.798 169.685 235.07 170.571 235.07 171.68C235.07 171.819 235.065 171.957 235.054 172.096C235.054 172.224 235.043 172.336 235.022 172.432H229.774C229.827 173.253 230.083 173.909 230.542 174.4C231.011 174.891 231.619 175.136 232.366 175.136C232.739 175.136 233.081 175.083 233.39 174.976C233.71 174.859 234.014 174.709 234.302 174.528L234.766 175.392C234.435 175.605 234.057 175.792 233.63 175.952C233.214 176.112 232.739 176.192 232.206 176.192ZM229.758 171.488H233.918C233.918 170.699 233.747 170.101 233.406 169.696C233.075 169.28 232.606 169.072 231.998 169.072C231.454 169.072 230.963 169.285 230.526 169.712C230.099 170.128 229.843 170.72 229.758 171.488ZM238.781 176L235.981 168.224H237.341L238.813 172.64C238.931 173.024 239.048 173.408 239.165 173.792C239.293 174.176 239.416 174.555 239.533 174.928H239.597C239.715 174.555 239.832 174.176 239.949 173.792C240.077 173.408 240.195 173.024 240.301 172.64L241.773 168.224H243.069L240.317 176H238.781ZM247.692 176.192C246.998 176.192 246.369 176.032 245.804 175.712C245.238 175.381 244.79 174.912 244.46 174.304C244.129 173.696 243.964 172.971 243.964 172.128C243.964 171.275 244.129 170.544 244.46 169.936C244.801 169.328 245.238 168.859 245.772 168.528C246.305 168.197 246.865 168.032 247.452 168.032C248.444 168.032 249.206 168.363 249.74 169.024C250.284 169.685 250.556 170.571 250.556 171.68C250.556 171.819 250.55 171.957 250.54 172.096C250.54 172.224 250.529 172.336 250.508 172.432H245.26C245.313 173.253 245.569 173.909 246.028 174.4C246.497 174.891 247.105 175.136 247.852 175.136C248.225 175.136 248.566 175.083 248.876 174.976C249.196 174.859 249.5 174.709 249.788 174.528L250.252 175.392C249.921 175.605 249.542 175.792 249.116 175.952C248.7 176.112 248.225 176.192 247.692 176.192ZM245.244 171.488H249.404C249.404 170.699 249.233 170.101 248.892 169.696C248.561 169.28 248.092 169.072 247.484 169.072C246.94 169.072 246.449 169.285 246.012 169.712C245.585 170.128 245.329 170.72 245.244 171.488ZM252.509 176V168.224H253.597L253.709 169.632H253.757C254.024 169.141 254.349 168.752 254.733 168.464C255.117 168.176 255.528 168.032 255.965 168.032C256.275 168.032 256.552 168.085 256.797 168.192L256.541 169.344C256.413 169.301 256.296 169.269 256.189 169.248C256.083 169.227 255.949 169.216 255.789 169.216C255.459 169.216 255.112 169.349 254.749 169.616C254.397 169.883 254.088 170.347 253.821 171.008V176H252.509ZM259.489 176.192C258.839 176.192 258.295 176 257.857 175.616C257.431 175.221 257.217 174.677 257.217 173.984C257.217 173.131 257.596 172.48 258.353 172.032C259.121 171.573 260.332 171.253 261.985 171.072C261.985 170.741 261.937 170.427 261.841 170.128C261.756 169.829 261.596 169.589 261.361 169.408C261.137 169.216 260.812 169.12 260.385 169.12C259.937 169.12 259.516 169.205 259.121 169.376C258.727 169.547 258.375 169.739 258.065 169.952L257.553 169.04C257.916 168.805 258.359 168.581 258.881 168.368C259.415 168.144 259.991 168.032 260.609 168.032C261.559 168.032 262.247 168.325 262.673 168.912C263.1 169.488 263.313 170.261 263.313 171.232V176H262.225L262.113 175.072H262.065C261.703 175.371 261.303 175.632 260.865 175.856C260.439 176.08 259.98 176.192 259.489 176.192ZM259.873 175.136C260.247 175.136 260.599 175.045 260.929 174.864C261.26 174.683 261.612 174.427 261.985 174.096V171.936C260.695 172.096 259.788 172.336 259.265 172.656C258.753 172.976 258.497 173.387 258.497 173.888C258.497 174.325 258.631 174.645 258.897 174.848C259.164 175.04 259.489 175.136 259.873 175.136ZM265.792 176V168.224H266.88L266.992 169.344H267.04C267.413 168.971 267.808 168.661 268.224 168.416C268.64 168.16 269.115 168.032 269.648 168.032C270.469 168.032 271.067 168.293 271.44 168.816C271.824 169.328 272.016 170.08 272.016 171.072V176H270.704V171.248C270.704 170.523 270.587 169.995 270.352 169.664C270.117 169.333 269.744 169.168 269.232 169.168C268.837 169.168 268.48 169.269 268.16 169.472C267.851 169.675 267.499 169.973 267.104 170.368V176H265.792ZM277.23 176.192C276.259 176.192 275.481 175.84 274.894 175.136C274.307 174.421 274.014 173.419 274.014 172.128C274.014 171.285 274.169 170.56 274.478 169.952C274.798 169.333 275.214 168.859 275.726 168.528C276.249 168.197 276.803 168.032 277.39 168.032C277.838 168.032 278.227 168.112 278.558 168.272C278.889 168.432 279.225 168.651 279.566 168.928L279.502 167.6V164.608H280.83V176H279.742L279.63 175.088H279.582C279.283 175.387 278.931 175.648 278.526 175.872C278.121 176.085 277.689 176.192 277.23 176.192ZM277.518 175.088C278.201 175.088 278.862 174.731 279.502 174.016V169.952C279.171 169.653 278.851 169.445 278.542 169.328C278.243 169.2 277.934 169.136 277.614 169.136C277.198 169.136 276.819 169.264 276.478 169.52C276.147 169.765 275.881 170.112 275.678 170.56C275.475 170.997 275.374 171.515 275.374 172.112C275.374 173.04 275.561 173.771 275.934 174.304C276.307 174.827 276.835 175.088 277.518 175.088ZM284.201 172.064C284.201 172.779 284.324 173.381 284.569 173.872L287.993 169.728C287.598 169.301 287.102 169.088 286.505 169.088C286.068 169.088 285.673 169.216 285.321 169.472C284.969 169.717 284.692 170.064 284.489 170.512C284.297 170.96 284.201 171.477 284.201 172.064ZM283.497 176.368L282.905 175.904L283.769 174.864C283.502 174.523 283.289 174.123 283.129 173.664C282.98 173.205 282.905 172.693 282.905 172.128C282.905 171.253 283.07 170.512 283.401 169.904C283.742 169.296 284.185 168.832 284.729 168.512C285.284 168.192 285.876 168.032 286.505 168.032C287.358 168.032 288.1 168.299 288.729 168.832L289.529 167.856L290.105 168.32L289.241 169.36C289.508 169.701 289.716 170.107 289.865 170.576C290.025 171.035 290.105 171.552 290.105 172.128C290.105 172.981 289.934 173.712 289.593 174.32C289.262 174.928 288.825 175.392 288.281 175.712C287.737 176.032 287.145 176.192 286.505 176.192C285.662 176.192 284.921 175.931 284.281 175.408L283.497 176.368ZM286.505 175.136C287.177 175.136 287.726 174.864 288.153 174.32C288.59 173.765 288.809 173.051 288.809 172.176C288.809 171.451 288.681 170.843 288.425 170.352L285.017 174.512C285.433 174.928 285.929 175.136 286.505 175.136ZM292.185 176V168.224H293.273L293.385 169.632H293.433C293.7 169.141 294.025 168.752 294.409 168.464C294.793 168.176 295.204 168.032 295.641 168.032C295.95 168.032 296.228 168.085 296.473 168.192L296.217 169.344C296.089 169.301 295.972 169.269 295.865 169.248C295.758 169.227 295.625 169.216 295.465 169.216C295.134 169.216 294.788 169.349 294.425 169.616C294.073 169.883 293.764 170.347 293.497 171.008V176H292.185ZM303.143 174.336V171.216H300.231V170.224H303.143V167.104H304.183V170.224H307.095V171.216H304.183V174.336H303.143ZM159.536 196V189.296H158.48V188.304L159.536 188.224V186.992C159.536 186.203 159.717 185.579 160.08 185.12C160.453 184.651 161.029 184.416 161.808 184.416C162.053 184.416 162.288 184.443 162.512 184.496C162.736 184.539 162.933 184.597 163.104 184.672L162.816 185.68C162.528 185.552 162.235 185.488 161.936 185.488C161.211 185.488 160.848 185.989 160.848 186.992V188.224H162.496V189.296H160.848V196H159.536ZM167.012 196.192C166.318 196.192 165.689 196.032 165.124 195.712C164.558 195.381 164.11 194.912 163.78 194.304C163.449 193.696 163.284 192.971 163.284 192.128C163.284 191.275 163.449 190.544 163.78 189.936C164.121 189.328 164.558 188.859 165.092 188.528C165.625 188.197 166.185 188.032 166.772 188.032C167.764 188.032 168.526 188.363 169.06 189.024C169.604 189.685 169.876 190.571 169.876 191.68C169.876 191.819 169.87 191.957 169.86 192.096C169.86 192.224 169.849 192.336 169.828 192.432H164.58C164.633 193.253 164.889 193.909 165.348 194.4C165.817 194.891 166.425 195.136 167.172 195.136C167.545 195.136 167.886 195.083 168.196 194.976C168.516 194.859 168.82 194.709 169.108 194.528L169.572 195.392C169.241 195.605 168.862 195.792 168.436 195.952C168.02 196.112 167.545 196.192 167.012 196.192ZM164.564 191.488H168.724C168.724 190.699 168.553 190.101 168.212 189.696C167.881 189.28 167.412 189.072 166.804 189.072C166.26 189.072 165.769 189.285 165.332 189.712C164.905 190.128 164.649 190.72 164.564 191.488ZM171.829 196V188.224H173.141V196H171.829ZM172.501 186.624C172.245 186.624 172.032 186.549 171.861 186.4C171.701 186.24 171.621 186.027 171.621 185.76C171.621 185.504 171.701 185.296 171.861 185.136C172.032 184.976 172.245 184.896 172.501 184.896C172.757 184.896 172.965 184.976 173.125 185.136C173.296 185.296 173.381 185.504 173.381 185.76C173.381 186.027 173.296 186.24 173.125 186.4C172.965 186.549 172.757 186.624 172.501 186.624ZM177.191 196.192C176.7 196.192 176.343 196.043 176.119 195.744C175.905 195.435 175.799 194.997 175.799 194.432V184.608H177.111V194.528C177.111 194.731 177.148 194.88 177.223 194.976C177.297 195.061 177.383 195.104 177.479 195.104C177.521 195.104 177.559 195.104 177.591 195.104C177.633 195.093 177.692 195.083 177.767 195.072L177.943 196.064C177.857 196.107 177.756 196.139 177.639 196.16C177.521 196.181 177.372 196.192 177.191 196.192ZM183.144 196V188.224H184.456V196H183.144ZM183.816 186.624C183.56 186.624 183.347 186.549 183.176 186.4C183.016 186.24 182.936 186.027 182.936 185.76C182.936 185.504 183.016 185.296 183.176 185.136C183.347 184.976 183.56 184.896 183.816 184.896C184.072 184.896 184.28 184.976 184.44 185.136C184.611 185.296 184.696 185.504 184.696 185.76C184.696 186.027 184.611 186.24 184.44 186.4C184.28 186.549 184.072 186.624 183.816 186.624ZM191.741 196.192C191.25 196.192 190.893 196.043 190.669 195.744C190.455 195.435 190.349 194.997 190.349 194.432V184.608H191.661V194.528C191.661 194.731 191.698 194.88 191.773 194.976C191.847 195.061 191.933 195.104 192.029 195.104C192.071 195.104 192.109 195.104 192.141 195.104C192.183 195.093 192.242 195.083 192.317 195.072L192.493 196.064C192.407 196.107 192.306 196.139 192.189 196.16C192.071 196.181 191.922 196.192 191.741 196.192ZM195.179 192.064C195.179 192.779 195.301 193.381 195.547 193.872L198.971 189.728C198.576 189.301 198.08 189.088 197.483 189.088C197.045 189.088 196.651 189.216 196.299 189.472C195.947 189.717 195.669 190.064 195.467 190.512C195.275 190.96 195.179 191.477 195.179 192.064ZM194.475 196.368L193.883 195.904L194.747 194.864C194.48 194.523 194.267 194.123 194.107 193.664C193.957 193.205 193.883 192.693 193.883 192.128C193.883 191.253 194.048 190.512 194.379 189.904C194.72 189.296 195.163 188.832 195.707 188.512C196.261 188.192 196.853 188.032 197.483 188.032C198.336 188.032 199.077 188.299 199.707 188.832L200.507 187.856L201.083 188.32L200.219 189.36C200.485 189.701 200.693 190.107 200.843 190.576C201.003 191.035 201.083 191.552 201.083 192.128C201.083 192.981 200.912 193.712 200.571 194.32C200.24 194.928 199.803 195.392 199.259 195.712C198.715 196.032 198.123 196.192 197.483 196.192C196.64 196.192 195.899 195.931 195.259 195.408L194.475 196.368ZM197.483 195.136C198.155 195.136 198.704 194.864 199.131 194.32C199.568 193.765 199.787 193.051 199.787 192.176C199.787 191.451 199.659 190.843 199.403 190.352L195.995 194.512C196.411 194.928 196.907 195.136 197.483 195.136ZM205.194 196.192C204.64 196.192 204.112 196.091 203.61 195.888C203.109 195.675 202.672 195.419 202.298 195.12L202.954 194.24C203.296 194.507 203.648 194.731 204.01 194.912C204.373 195.083 204.784 195.168 205.242 195.168C205.754 195.168 206.138 195.051 206.394 194.816C206.65 194.571 206.778 194.283 206.778 193.952C206.778 193.685 206.688 193.461 206.506 193.28C206.336 193.099 206.112 192.949 205.834 192.832C205.568 192.704 205.29 192.587 205.002 192.48C204.64 192.341 204.282 192.187 203.93 192.016C203.578 191.835 203.29 191.605 203.066 191.328C202.842 191.04 202.73 190.677 202.73 190.24C202.73 189.611 202.965 189.088 203.434 188.672C203.914 188.245 204.576 188.032 205.418 188.032C205.898 188.032 206.346 188.117 206.762 188.288C207.178 188.459 207.536 188.667 207.834 188.912L207.194 189.744C206.928 189.541 206.65 189.376 206.362 189.248C206.074 189.12 205.76 189.056 205.418 189.056C204.928 189.056 204.565 189.168 204.33 189.392C204.106 189.616 203.994 189.877 203.994 190.176C203.994 190.421 204.074 190.624 204.234 190.784C204.394 190.933 204.602 191.067 204.858 191.184C205.114 191.291 205.386 191.403 205.674 191.52C206.048 191.659 206.416 191.819 206.778 192C207.141 192.171 207.44 192.405 207.674 192.704C207.92 192.992 208.042 193.381 208.042 193.872C208.042 194.288 207.93 194.672 207.706 195.024C207.493 195.376 207.173 195.659 206.746 195.872C206.33 196.085 205.813 196.192 205.194 196.192ZM209.898 196V188.224H210.986L211.098 189.344H211.146C211.519 188.971 211.914 188.661 212.33 188.416C212.746 188.16 213.22 188.032 213.754 188.032C214.575 188.032 215.172 188.293 215.546 188.816C215.93 189.328 216.122 190.08 216.122 191.072V196H214.81V191.248C214.81 190.523 214.692 189.995 214.458 189.664C214.223 189.333 213.85 189.168 213.338 189.168C212.943 189.168 212.586 189.269 212.266 189.472C211.956 189.675 211.604 189.973 211.21 190.368V196H209.898ZM218.68 196V188.224H219.992V196H218.68ZM219.352 186.624C219.096 186.624 218.882 186.549 218.712 186.4C218.552 186.24 218.472 186.027 218.472 185.76C218.472 185.504 218.552 185.296 218.712 185.136C218.882 184.976 219.096 184.896 219.352 184.896C219.608 184.896 219.816 184.976 219.976 185.136C220.146 185.296 220.232 185.504 220.232 185.76C220.232 186.027 220.146 186.24 219.976 186.4C219.816 186.549 219.608 186.624 219.352 186.624ZM222.649 196V188.224H223.737L223.849 189.344H223.897C224.27 188.971 224.665 188.661 225.081 188.416C225.497 188.16 225.972 188.032 226.505 188.032C227.326 188.032 227.924 188.293 228.297 188.816C228.681 189.328 228.873 190.08 228.873 191.072V196H227.561V191.248C227.561 190.523 227.444 189.995 227.209 189.664C226.974 189.333 226.601 189.168 226.089 189.168C225.694 189.168 225.337 189.269 225.017 189.472C224.708 189.675 224.356 189.973 223.961 190.368V196H222.649ZM234.055 199.584C233.106 199.584 232.332 199.403 231.735 199.04C231.138 198.677 230.839 198.16 230.839 197.488C230.839 197.157 230.94 196.837 231.143 196.528C231.346 196.229 231.623 195.963 231.975 195.728V195.664C231.783 195.547 231.618 195.381 231.479 195.168C231.351 194.955 231.287 194.699 231.287 194.4C231.287 194.069 231.378 193.781 231.559 193.536C231.74 193.291 231.932 193.099 232.135 192.96V192.896C231.879 192.683 231.644 192.395 231.431 192.032C231.228 191.669 231.127 191.259 231.127 190.8C231.127 190.235 231.26 189.744 231.527 189.328C231.794 188.912 232.151 188.592 232.599 188.368C233.047 188.144 233.532 188.032 234.055 188.032C234.268 188.032 234.471 188.053 234.663 188.096C234.855 188.128 235.02 188.171 235.159 188.224H237.863V189.232H236.263C236.444 189.403 236.594 189.632 236.711 189.92C236.839 190.197 236.903 190.501 236.903 190.832C236.903 191.387 236.775 191.867 236.519 192.272C236.263 192.677 235.922 192.992 235.495 193.216C235.068 193.429 234.588 193.536 234.055 193.536C233.639 193.536 233.25 193.445 232.887 193.264C232.748 193.381 232.631 193.515 232.535 193.664C232.439 193.803 232.391 193.979 232.391 194.192C232.391 194.437 232.487 194.64 232.679 194.8C232.882 194.96 233.244 195.04 233.767 195.04H235.271C236.178 195.04 236.855 195.189 237.303 195.488C237.762 195.776 237.991 196.245 237.991 196.896C237.991 197.376 237.831 197.819 237.511 198.224C237.191 198.629 236.738 198.955 236.151 199.2C235.564 199.456 234.866 199.584 234.055 199.584ZM234.055 192.656C234.503 192.656 234.887 192.491 235.207 192.16C235.538 191.819 235.703 191.365 235.703 190.8C235.703 190.235 235.543 189.792 235.223 189.472C234.903 189.152 234.514 188.992 234.055 188.992C233.596 188.992 233.207 189.152 232.887 189.472C232.567 189.792 232.407 190.235 232.407 190.8C232.407 191.365 232.567 191.819 232.887 192.16C233.218 192.491 233.607 192.656 234.055 192.656ZM234.247 198.672C234.994 198.672 235.591 198.507 236.039 198.176C236.487 197.856 236.711 197.493 236.711 197.088C236.711 196.725 236.572 196.475 236.295 196.336C236.028 196.197 235.644 196.128 235.143 196.128H233.799C233.65 196.128 233.484 196.117 233.303 196.096C233.132 196.075 232.962 196.043 232.791 196C232.514 196.203 232.311 196.416 232.183 196.64C232.055 196.864 231.991 197.088 231.991 197.312C231.991 197.728 232.188 198.059 232.583 198.304C232.988 198.549 233.543 198.672 234.247 198.672ZM242.459 196.192C241.766 196.192 241.136 196.032 240.571 195.712C240.006 195.381 239.558 194.912 239.227 194.304C238.896 193.696 238.731 192.971 238.731 192.128C238.731 191.275 238.896 190.544 239.227 189.936C239.568 189.328 240.006 188.859 240.539 188.528C241.072 188.197 241.632 188.032 242.219 188.032C243.211 188.032 243.974 188.363 244.507 189.024C245.051 189.685 245.323 190.571 245.323 191.68C245.323 191.819 245.318 191.957 245.307 192.096C245.307 192.224 245.296 192.336 245.275 192.432H240.027C240.08 193.253 240.336 193.909 240.795 194.4C241.264 194.891 241.872 195.136 242.619 195.136C242.992 195.136 243.334 195.083 243.643 194.976C243.963 194.859 244.267 194.709 244.555 194.528L245.019 195.392C244.688 195.605 244.31 195.792 243.883 195.952C243.467 196.112 242.992 196.192 242.459 196.192ZM240.011 191.488H244.171C244.171 190.699 244 190.101 243.659 189.696C243.328 189.28 242.859 189.072 242.251 189.072C241.707 189.072 241.216 189.285 240.779 189.712C240.352 190.128 240.096 190.72 240.011 191.488ZM247.276 196V188.224H248.364L248.476 189.344H248.524C248.898 188.971 249.292 188.661 249.708 188.416C250.124 188.16 250.599 188.032 251.132 188.032C251.954 188.032 252.551 188.293 252.924 188.816C253.308 189.328 253.5 190.08 253.5 191.072V196H252.188V191.248C252.188 190.523 252.071 189.995 251.836 189.664C251.602 189.333 251.228 189.168 250.716 189.168C250.322 189.168 249.964 189.269 249.644 189.472C249.335 189.675 248.983 189.973 248.588 190.368V196H247.276ZM256.746 196.192C256.48 196.192 256.25 196.101 256.058 195.92C255.877 195.728 255.786 195.488 255.786 195.2C255.786 194.891 255.877 194.645 256.058 194.464C256.25 194.272 256.48 194.176 256.746 194.176C257.002 194.176 257.221 194.272 257.402 194.464C257.594 194.645 257.69 194.891 257.69 195.2C257.69 195.488 257.594 195.728 257.402 195.92C257.221 196.101 257.002 196.192 256.746 196.192Z"></path>
<rect stroke-opacity="0.44" stroke="black" height="48" width="180" y="156" x="150"></rect>
<path fill="#262626" d="M343.392 66.192C342.485 66.192 341.685 65.9733 340.992 65.536C340.299 65.088 339.755 64.4587 339.36 63.648C338.976 62.8267 338.784 61.8507 338.784 60.72C338.784 59.5893 338.976 58.624 339.36 57.824C339.755 57.024 340.299 56.4107 340.992 55.984C341.685 55.5573 342.485 55.344 343.392 55.344C344.309 55.344 345.115 55.5573 345.808 55.984C346.501 56.4107 347.04 57.024 347.424 57.824C347.819 58.624 348.016 59.5893 348.016 60.72C348.016 61.8507 347.819 62.8267 347.424 63.648C347.04 64.4587 346.501 65.088 345.808 65.536C345.115 65.9733 344.309 66.192 343.392 66.192ZM343.392 64.576C344.213 64.576 344.869 64.2293 345.36 63.536C345.851 62.832 346.096 61.8933 346.096 60.72C346.096 59.5467 345.851 58.6293 345.36 57.968C344.869 57.296 344.213 56.96 343.392 56.96C342.571 56.96 341.915 57.296 341.424 57.968C340.933 58.6293 340.688 59.5467 340.688 60.72C340.688 61.8933 340.933 62.832 341.424 63.536C341.915 64.2293 342.571 64.576 343.392 64.576ZM349.981 66V58.144H351.501L351.629 59.536H351.693C351.971 59.024 352.307 58.6347 352.701 58.368C353.096 58.0907 353.501 57.952 353.917 57.952C354.291 57.952 354.589 58.0053 354.813 58.112L354.493 59.712C354.355 59.6693 354.227 59.6373 354.109 59.616C353.992 59.5947 353.848 59.584 353.677 59.584C353.368 59.584 353.043 59.7067 352.701 59.952C352.36 60.1867 352.067 60.6027 351.821 61.2V66H349.981ZM358.578 66.192C357.596 66.192 356.812 65.8293 356.226 65.104C355.639 64.3787 355.346 63.3707 355.346 62.08C355.346 61.2267 355.5 60.4907 355.81 59.872C356.13 59.2533 356.546 58.7787 357.058 58.448C357.57 58.1173 358.108 57.952 358.674 57.952C359.122 57.952 359.5 58.032 359.81 58.192C360.13 58.3413 360.439 58.5493 360.738 58.816L360.674 57.552V54.704H362.514V66H360.994L360.866 65.152H360.802C360.514 65.44 360.178 65.6853 359.794 65.888C359.41 66.0907 359.004 66.192 358.578 66.192ZM359.026 64.672C359.612 64.672 360.162 64.3787 360.674 63.792V60.128C360.407 59.8827 360.14 59.712 359.874 59.616C359.607 59.52 359.34 59.472 359.074 59.472C358.572 59.472 358.14 59.7013 357.778 60.16C357.426 60.608 357.25 61.2427 357.25 62.064C357.25 62.9067 357.404 63.552 357.714 64C358.023 64.448 358.46 64.672 359.026 64.672ZM364.889 66V58.144H366.409L366.537 59.536H366.601C366.878 59.024 367.214 58.6347 367.609 58.368C368.004 58.0907 368.409 57.952 368.825 57.952C369.198 57.952 369.497 58.0053 369.721 58.112L369.401 59.712C369.262 59.6693 369.134 59.6373 369.017 59.616C368.9 59.5947 368.756 59.584 368.585 59.584C368.276 59.584 367.95 59.7067 367.609 59.952C367.268 60.1867 366.974 60.6027 366.729 61.2V66H364.889ZM374.094 66.192C373.368 66.192 372.712 66.032 372.126 65.712C371.539 65.3813 371.075 64.912 370.734 64.304C370.392 63.6853 370.222 62.944 370.222 62.08C370.222 61.2267 370.392 60.4907 370.734 59.872C371.086 59.2533 371.539 58.7787 372.094 58.448C372.648 58.1173 373.23 57.952 373.838 57.952C374.552 57.952 375.15 58.112 375.63 58.432C376.11 58.7413 376.472 59.1787 376.718 59.744C376.963 60.2987 377.086 60.944 377.086 61.68C377.086 62.064 377.059 62.3627 377.006 62.576H372.014C372.099 63.2693 372.35 63.808 372.766 64.192C373.182 64.576 373.704 64.768 374.334 64.768C374.675 64.768 374.99 64.72 375.278 64.624C375.576 64.5173 375.87 64.3733 376.158 64.192L376.782 65.344C376.408 65.5893 375.992 65.792 375.534 65.952C375.075 66.112 374.595 66.192 374.094 66.192ZM371.998 61.328H375.486C375.486 60.72 375.352 60.2453 375.086 59.904C374.819 59.552 374.419 59.376 373.886 59.376C373.427 59.376 373.016 59.5467 372.654 59.888C372.302 60.2187 372.083 60.6987 371.998 61.328ZM381.627 66.192C380.646 66.192 379.862 65.8293 379.275 65.104C378.688 64.3787 378.395 63.3707 378.395 62.08C378.395 61.2267 378.55 60.4907 378.859 59.872C379.179 59.2533 379.595 58.7787 380.107 58.448C380.619 58.1173 381.158 57.952 381.723 57.952C382.171 57.952 382.55 58.032 382.859 58.192C383.179 58.3413 383.488 58.5493 383.787 58.816L383.723 57.552V54.704H385.563V66H384.043L383.915 65.152H383.851C383.563 65.44 383.227 65.6853 382.843 65.888C382.459 66.0907 382.054 66.192 381.627 66.192ZM382.075 64.672C382.662 64.672 383.211 64.3787 383.723 63.792V60.128C383.456 59.8827 383.19 59.712 382.923 59.616C382.656 59.52 382.39 59.472 382.123 59.472C381.622 59.472 381.19 59.7013 380.827 60.16C380.475 60.608 380.299 61.2427 380.299 62.064C380.299 62.9067 380.454 63.552 380.763 64C381.072 64.448 381.51 64.672 382.075 64.672ZM389.842 66.192C389.159 66.192 388.599 65.9787 388.162 65.552C387.735 65.1253 387.522 64.5707 387.522 63.888C387.522 63.0453 387.89 62.3947 388.626 61.936C389.362 61.4667 390.535 61.1467 392.146 60.976C392.135 60.56 392.023 60.2027 391.81 59.904C391.607 59.5947 391.239 59.44 390.706 59.44C390.322 59.44 389.943 59.5147 389.57 59.664C389.207 59.8133 388.85 59.9947 388.498 60.208L387.826 58.976C388.263 58.6987 388.754 58.4587 389.298 58.256C389.853 58.0533 390.439 57.952 391.058 57.952C392.039 57.952 392.77 58.2453 393.25 58.832C393.741 59.408 393.986 60.2453 393.986 61.344V66H392.466L392.338 65.136H392.274C391.922 65.4347 391.543 65.6853 391.138 65.888C390.743 66.0907 390.311 66.192 389.842 66.192ZM390.434 64.752C390.754 64.752 391.042 64.6773 391.298 64.528C391.565 64.368 391.847 64.1547 392.146 63.888V62.128C391.079 62.2667 390.338 62.4747 389.922 62.752C389.506 63.0187 389.298 63.3493 389.298 63.744C389.298 64.096 389.405 64.352 389.618 64.512C389.831 64.672 390.103 64.752 390.434 64.752ZM398.738 66.192C397.831 66.192 397.186 65.9307 396.802 65.408C396.429 64.8747 396.242 64.1867 396.242 63.344V59.6H395.122V58.224L396.338 58.144L396.562 56H398.098V58.144H400.098V59.6H398.098V63.344C398.098 64.2613 398.466 64.72 399.202 64.72C399.341 64.72 399.485 64.704 399.634 64.672C399.783 64.6293 399.911 64.5867 400.018 64.544L400.338 65.904C400.125 65.9787 399.879 66.0427 399.602 66.096C399.335 66.16 399.047 66.192 398.738 66.192ZM404.749 66.192C404.099 66.192 403.491 66.032 402.925 65.712C402.36 65.3813 401.901 64.912 401.549 64.304C401.197 63.6853 401.021 62.944 401.021 62.08C401.021 61.2053 401.197 60.464 401.549 59.856C401.901 59.2373 402.36 58.768 402.925 58.448C403.491 58.1173 404.099 57.952 404.749 57.952C405.411 57.952 406.024 58.1173 406.589 58.448C407.155 58.768 407.613 59.2373 407.965 59.856C408.317 60.464 408.493 61.2053 408.493 62.08C408.493 62.944 408.317 63.6853 407.965 64.304C407.613 64.912 407.155 65.3813 406.589 65.712C406.024 66.032 405.411 66.192 404.749 66.192ZM404.749 64.688C405.325 64.688 405.779 64.448 406.109 63.968C406.44 63.488 406.605 62.8587 406.605 62.08C406.605 61.2907 406.44 60.656 406.109 60.176C405.779 59.696 405.325 59.456 404.749 59.456C404.173 59.456 403.72 59.696 403.389 60.176C403.069 60.656 402.909 61.2907 402.909 62.08C402.909 62.8587 403.069 63.488 403.389 63.968C403.72 64.448 404.173 64.688 404.749 64.688Z"></path>
<path fill="#262626" d="M339.264 92V90.912H341.6V83.392H339.744V82.544C340.213 82.4587 340.619 82.3573 340.96 82.24C341.312 82.112 341.627 81.9627 341.904 81.792H342.912V90.912H345.024V92H339.264ZM346.625 92V91.216C347.649 90.192 348.518 89.296 349.233 88.528C349.948 87.7493 350.492 87.0507 350.865 86.432C351.238 85.8027 351.425 85.216 351.425 84.672C351.425 84.0853 351.265 83.6053 350.945 83.232C350.625 82.8587 350.14 82.672 349.489 82.672C349.062 82.672 348.668 82.7947 348.305 83.04C347.942 83.2747 347.612 83.5627 347.313 83.904L346.561 83.152C346.988 82.6827 347.441 82.3093 347.921 82.032C348.412 81.744 348.988 81.6 349.649 81.6C350.598 81.6 351.345 81.8773 351.889 82.432C352.433 82.976 352.705 83.7013 352.705 84.608C352.705 85.248 352.524 85.8987 352.161 86.56C351.809 87.2107 351.318 87.8987 350.689 88.624C350.07 89.3387 349.356 90.1173 348.545 90.96C348.822 90.9387 349.11 90.9173 349.409 90.896C349.708 90.8747 349.99 90.864 350.257 90.864H353.217V92H346.625ZM355.97 92.192C355.704 92.192 355.474 92.1013 355.282 91.92C355.101 91.728 355.01 91.488 355.01 91.2C355.01 90.8907 355.101 90.6453 355.282 90.464C355.474 90.272 355.704 90.176 355.97 90.176C356.226 90.176 356.445 90.272 356.626 90.464C356.818 90.6453 356.914 90.8907 356.914 91.2C356.914 91.488 356.818 91.728 356.626 91.92C356.445 92.1013 356.226 92.192 355.97 92.192ZM361.734 95.472C361.499 95.472 361.286 95.4507 361.094 95.408C360.891 95.3653 360.72 95.3173 360.582 95.264L360.854 94.272C360.95 94.304 361.062 94.3307 361.19 94.352C361.318 94.384 361.451 94.4 361.59 94.4C361.974 94.4 362.23 94.2613 362.358 93.984C362.486 93.7173 362.55 93.3493 362.55 92.88V84.224H363.862V92.88C363.862 93.6693 363.702 94.2987 363.382 94.768C363.062 95.2373 362.512 95.472 361.734 95.472ZM363.19 82.624C362.934 82.624 362.72 82.5493 362.55 82.4C362.39 82.24 362.31 82.0267 362.31 81.76C362.31 81.504 362.39 81.296 362.55 81.136C362.72 80.976 362.934 80.896 363.19 80.896C363.446 80.896 363.654 80.976 363.814 81.136C363.984 81.296 364.07 81.504 364.07 81.76C364.07 82.0267 363.984 82.24 363.814 82.4C363.654 82.5493 363.446 82.624 363.19 82.624ZM368.311 92.192C367.66 92.192 367.116 92 366.679 91.616C366.252 91.2213 366.039 90.6773 366.039 89.984C366.039 89.1307 366.418 88.48 367.175 88.032C367.943 87.5733 369.154 87.2533 370.807 87.072C370.807 86.7413 370.759 86.4267 370.663 86.128C370.578 85.8293 370.418 85.5893 370.183 85.408C369.959 85.216 369.634 85.12 369.207 85.12C368.759 85.12 368.338 85.2053 367.943 85.376C367.548 85.5467 367.196 85.7387 366.887 85.952L366.375 85.04C366.738 84.8053 367.18 84.5813 367.703 84.368C368.236 84.144 368.812 84.032 369.431 84.032C370.38 84.032 371.068 84.3253 371.495 84.912C371.922 85.488 372.135 86.2613 372.135 87.232V92H371.047L370.935 91.072H370.887C370.524 91.3707 370.124 91.632 369.687 91.856C369.26 92.08 368.802 92.192 368.311 92.192ZM368.695 91.136C369.068 91.136 369.42 91.0453 369.751 90.864C370.082 90.6827 370.434 90.4267 370.807 90.096V87.936C369.516 88.096 368.61 88.336 368.087 88.656C367.575 88.976 367.319 89.3867 367.319 89.888C367.319 90.3253 367.452 90.6453 367.719 90.848C367.986 91.04 368.311 91.136 368.695 91.136ZM374.613 92V84.224H375.701L375.813 85.344H375.861C376.235 84.9707 376.629 84.6613 377.045 84.416C377.461 84.16 377.936 84.032 378.469 84.032C379.291 84.032 379.888 84.2933 380.261 84.816C380.645 85.328 380.837 86.08 380.837 87.072V92H379.525V87.248C379.525 86.5227 379.408 85.9947 379.173 85.664C378.939 85.3333 378.565 85.168 378.053 85.168C377.659 85.168 377.301 85.2693 376.981 85.472C376.672 85.6747 376.32 85.9733 375.925 86.368V92H374.613ZM385.959 92V91.216C386.983 90.192 387.852 89.296 388.567 88.528C389.281 87.7493 389.825 87.0507 390.199 86.432C390.572 85.8027 390.759 85.216 390.759 84.672C390.759 84.0853 390.599 83.6053 390.279 83.232C389.959 82.8587 389.473 82.672 388.823 82.672C388.396 82.672 388.001 82.7947 387.639 83.04C387.276 83.2747 386.945 83.5627 386.647 83.904L385.895 83.152C386.321 82.6827 386.775 82.3093 387.255 82.032C387.745 81.744 388.321 81.6 388.983 81.6C389.932 81.6 390.679 81.8773 391.223 82.432C391.767 82.976 392.039 83.7013 392.039 84.608C392.039 85.248 391.857 85.8987 391.495 86.56C391.143 87.2107 390.652 87.8987 390.023 88.624C389.404 89.3387 388.689 90.1173 387.879 90.96C388.156 90.9387 388.444 90.9173 388.743 90.896C389.041 90.8747 389.324 90.864 389.591 90.864H392.551V92H385.959ZM397.288 92.192C396.264 92.192 395.458 91.7333 394.872 90.816C394.296 89.888 394.008 88.5707 394.008 86.864C394.008 85.1467 394.296 83.84 394.872 82.944C395.458 82.048 396.264 81.6 397.288 81.6C398.301 81.6 399.096 82.048 399.672 82.944C400.258 83.84 400.552 85.1467 400.552 86.864C400.552 88.5707 400.258 89.888 399.672 90.816C399.096 91.7333 398.301 92.192 397.288 92.192ZM397.288 91.136C397.885 91.136 398.365 90.8 398.728 90.128C399.09 89.4453 399.272 88.3573 399.272 86.864C399.272 85.3707 399.09 84.2987 398.728 83.648C398.365 82.9867 397.885 82.656 397.288 82.656C396.69 82.656 396.205 82.9867 395.832 83.648C395.469 84.2987 395.288 85.3707 395.288 86.864C395.288 88.3573 395.469 89.4453 395.832 90.128C396.205 90.8 396.69 91.136 397.288 91.136ZM401.929 92V91.216C402.953 90.192 403.822 89.296 404.537 88.528C405.251 87.7493 405.795 87.0507 406.169 86.432C406.542 85.8027 406.729 85.216 406.729 84.672C406.729 84.0853 406.569 83.6053 406.249 83.232C405.929 82.8587 405.443 82.672 404.793 82.672C404.366 82.672 403.971 82.7947 403.609 83.04C403.246 83.2747 402.915 83.5627 402.617 83.904L401.865 83.152C402.291 82.6827 402.745 82.3093 403.225 82.032C403.715 81.744 404.291 81.6 404.953 81.6C405.902 81.6 406.649 81.8773 407.193 82.432C407.737 82.976 408.009 83.7013 408.009 84.608C408.009 85.248 407.827 85.8987 407.465 86.56C407.113 87.2107 406.622 87.8987 405.993 88.624C405.374 89.3387 404.659 90.1173 403.849 90.96C404.126 90.9387 404.414 90.9173 404.713 90.896C405.011 90.8747 405.294 90.864 405.561 90.864H408.521V92H401.929ZM409.914 92V91.216C410.938 90.192 411.807 89.296 412.522 88.528C413.237 87.7493 413.781 87.0507 414.154 86.432C414.527 85.8027 414.714 85.216 414.714 84.672C414.714 84.0853 414.554 83.6053 414.234 83.232C413.914 82.8587 413.429 82.672 412.778 82.672C412.351 82.672 411.957 82.7947 411.594 83.04C411.231 83.2747 410.901 83.5627 410.602 83.904L409.85 83.152C410.277 82.6827 410.73 82.3093 411.21 82.032C411.701 81.744 412.277 81.6 412.938 81.6C413.887 81.6 414.634 81.8773 415.178 82.432C415.722 82.976 415.994 83.7013 415.994 84.608C415.994 85.248 415.813 85.8987 415.45 86.56C415.098 87.2107 414.607 87.8987 413.978 88.624C413.359 89.3387 412.645 90.1173 411.834 90.96C412.111 90.9387 412.399 90.9173 412.698 90.896C412.997 90.8747 413.279 90.864 413.546 90.864H416.506V92H409.914Z"></path>
<rect stroke-opacity="0.44" stroke="black" height="28" width="188" y="72" x="330"></rect>
<path fill="#262626" d="M341.984 120.192C340.96 120.192 340.155 119.733 339.568 118.816C338.992 117.888 338.704 116.571 338.704 114.864C338.704 113.147 338.992 111.84 339.568 110.944C340.155 110.048 340.96 109.6 341.984 109.6C342.997 109.6 343.792 110.048 344.368 110.944C344.955 111.84 345.248 113.147 345.248 114.864C345.248 116.571 344.955 117.888 344.368 118.816C343.792 119.733 342.997 120.192 341.984 120.192ZM341.984 119.136C342.581 119.136 343.061 118.8 343.424 118.128C343.787 117.445 343.968 116.357 343.968 114.864C343.968 113.371 343.787 112.299 343.424 111.648C343.061 110.987 342.581 110.656 341.984 110.656C341.387 110.656 340.901 110.987 340.528 111.648C340.165 112.299 339.984 113.371 339.984 114.864C339.984 116.357 340.165 117.445 340.528 118.128C340.901 118.8 341.387 119.136 341.984 119.136ZM349.761 120.192C348.95 120.192 348.273 120.048 347.729 119.76C347.185 119.461 346.742 119.125 346.401 118.752L347.073 117.888C347.382 118.208 347.745 118.491 348.161 118.736C348.577 118.981 349.084 119.104 349.681 119.104C350.3 119.104 350.806 118.933 351.201 118.592C351.596 118.251 351.793 117.797 351.793 117.232C351.793 116.827 351.686 116.475 351.473 116.176C351.27 115.867 350.929 115.627 350.449 115.456C349.98 115.285 349.34 115.2 348.529 115.2V114.192C349.254 114.192 349.825 114.107 350.241 113.936C350.668 113.765 350.972 113.536 351.153 113.248C351.334 112.96 351.425 112.64 351.425 112.288C351.425 111.787 351.265 111.392 350.945 111.104C350.636 110.816 350.209 110.672 349.665 110.672C349.238 110.672 348.844 110.768 348.481 110.96C348.129 111.152 347.798 111.403 347.489 111.712L346.785 110.88C347.18 110.507 347.617 110.203 348.097 109.968C348.577 109.723 349.116 109.6 349.713 109.6C350.598 109.6 351.329 109.829 351.905 110.288C352.481 110.736 352.769 111.371 352.769 112.192C352.769 112.811 352.598 113.317 352.257 113.712C351.916 114.107 351.468 114.411 350.913 114.624V114.688C351.532 114.827 352.054 115.12 352.481 115.568C352.908 116.005 353.121 116.576 353.121 117.28C353.121 117.877 352.972 118.395 352.673 118.832C352.374 119.269 351.969 119.605 351.457 119.84C350.956 120.075 350.39 120.192 349.761 120.192ZM355.97 120.192C355.704 120.192 355.474 120.101 355.282 119.92C355.101 119.728 355.01 119.488 355.01 119.2C355.01 118.891 355.101 118.645 355.282 118.464C355.474 118.272 355.704 118.176 355.97 118.176C356.226 118.176 356.445 118.272 356.626 118.464C356.818 118.645 356.914 118.891 356.914 119.2C356.914 119.488 356.818 119.728 356.626 119.92C356.445 120.101 356.226 120.192 355.97 120.192ZM362.758 120V113.296H361.702V112.304L362.758 112.224V110.992C362.758 110.203 362.939 109.579 363.302 109.12C363.675 108.651 364.251 108.416 365.03 108.416C365.275 108.416 365.51 108.443 365.734 108.496C365.958 108.539 366.155 108.597 366.326 108.672L366.038 109.68C365.75 109.552 365.456 109.488 365.158 109.488C364.432 109.488 364.07 109.989 364.07 110.992V112.224H365.718V113.296H364.07V120H362.758ZM370.233 120.192C369.54 120.192 368.911 120.032 368.345 119.712C367.78 119.381 367.332 118.912 367.001 118.304C366.671 117.696 366.505 116.971 366.505 116.128C366.505 115.275 366.671 114.544 367.001 113.936C367.343 113.328 367.78 112.859 368.313 112.528C368.847 112.197 369.407 112.032 369.993 112.032C370.985 112.032 371.748 112.363 372.281 113.024C372.825 113.685 373.097 114.571 373.097 115.68C373.097 115.819 373.092 115.957 373.081 116.096C373.081 116.224 373.071 116.336 373.049 116.432H367.801C367.855 117.253 368.111 117.909 368.569 118.4C369.039 118.891 369.647 119.136 370.393 119.136C370.767 119.136 371.108 119.083 371.417 118.976C371.737 118.859 372.041 118.709 372.329 118.528L372.793 119.392C372.463 119.605 372.084 119.792 371.657 119.952C371.241 120.112 370.767 120.192 370.233 120.192ZM367.785 115.488H371.945C371.945 114.699 371.775 114.101 371.433 113.696C371.103 113.28 370.633 113.072 370.025 113.072C369.481 113.072 368.991 113.285 368.553 113.712C368.127 114.128 367.871 114.72 367.785 115.488ZM378.491 120.192C378.128 120.192 377.75 120.107 377.355 119.936C376.971 119.755 376.608 119.509 376.267 119.2H376.219L376.107 120H375.051V108.608H376.363V111.712L376.331 113.12C376.683 112.811 377.067 112.555 377.483 112.352C377.91 112.139 378.336 112.032 378.763 112.032C379.776 112.032 380.544 112.389 381.067 113.104C381.59 113.819 381.851 114.779 381.851 115.984C381.851 116.869 381.691 117.627 381.371 118.256C381.062 118.885 380.651 119.365 380.139 119.696C379.638 120.027 379.088 120.192 378.491 120.192ZM378.267 119.088C378.907 119.088 379.435 118.816 379.851 118.272C380.278 117.717 380.491 116.96 380.491 116C380.491 115.147 380.331 114.459 380.011 113.936C379.702 113.403 379.179 113.136 378.443 113.136C378.112 113.136 377.776 113.227 377.435 113.408C377.094 113.589 376.736 113.851 376.363 114.192V118.272C376.704 118.571 377.04 118.784 377.371 118.912C377.712 119.029 378.011 119.088 378.267 119.088ZM386.49 120V119.216C387.514 118.192 388.383 117.296 389.098 116.528C389.812 115.749 390.356 115.051 390.73 114.432C391.103 113.803 391.29 113.216 391.29 112.672C391.29 112.085 391.13 111.605 390.81 111.232C390.49 110.859 390.004 110.672 389.354 110.672C388.927 110.672 388.532 110.795 388.17 111.04C387.807 111.275 387.476 111.563 387.178 111.904L386.426 111.152C386.852 110.683 387.306 110.309 387.786 110.032C388.276 109.744 388.852 109.6 389.514 109.6C390.463 109.6 391.21 109.877 391.754 110.432C392.298 110.976 392.57 111.701 392.57 112.608C392.57 113.248 392.388 113.899 392.026 114.56C391.674 115.211 391.183 115.899 390.554 116.624C389.935 117.339 389.22 118.117 388.41 118.96C388.687 118.939 388.975 118.917 389.274 118.896C389.572 118.875 389.855 118.864 390.122 118.864H393.082V120H386.49ZM397.819 120.192C396.795 120.192 395.99 119.733 395.403 118.816C394.827 117.888 394.539 116.571 394.539 114.864C394.539 113.147 394.827 111.84 395.403 110.944C395.99 110.048 396.795 109.6 397.819 109.6C398.832 109.6 399.627 110.048 400.203 110.944C400.79 111.84 401.083 113.147 401.083 114.864C401.083 116.571 400.79 117.888 400.203 118.816C399.627 119.733 398.832 120.192 397.819 120.192ZM397.819 119.136C398.416 119.136 398.896 118.8 399.259 118.128C399.622 117.445 399.803 116.357 399.803 114.864C399.803 113.371 399.622 112.299 399.259 111.648C398.896 110.987 398.416 110.656 397.819 110.656C397.222 110.656 396.736 110.987 396.363 111.648C396 112.299 395.819 113.371 395.819 114.864C395.819 116.357 396 117.445 396.363 118.128C396.736 118.8 397.222 119.136 397.819 119.136ZM402.46 120V119.216C403.484 118.192 404.353 117.296 405.068 116.528C405.783 115.749 406.327 115.051 406.7 114.432C407.073 113.803 407.26 113.216 407.26 112.672C407.26 112.085 407.1 111.605 406.78 111.232C406.46 110.859 405.975 110.672 405.324 110.672C404.897 110.672 404.503 110.795 404.14 111.04C403.777 111.275 403.447 111.563 403.148 111.904L402.396 111.152C402.823 110.683 403.276 110.309 403.756 110.032C404.247 109.744 404.823 109.6 405.484 109.6C406.433 109.6 407.18 109.877 407.724 110.432C408.268 110.976 408.54 111.701 408.54 112.608C408.54 113.248 408.359 113.899 407.996 114.56C407.644 115.211 407.153 115.899 406.524 116.624C405.905 117.339 405.191 118.117 404.38 118.96C404.657 118.939 404.945 118.917 405.244 118.896C405.543 118.875 405.825 118.864 406.092 118.864H409.052V120H402.46ZM410.445 120V119.216C411.469 118.192 412.338 117.296 413.053 116.528C413.768 115.749 414.312 115.051 414.685 114.432C415.058 113.803 415.245 113.216 415.245 112.672C415.245 112.085 415.085 111.605 414.765 111.232C414.445 110.859 413.96 110.672 413.309 110.672C412.882 110.672 412.488 110.795 412.125 111.04C411.762 111.275 411.432 111.563 411.133 111.904L410.381 111.152C410.808 110.683 411.261 110.309 411.741 110.032C412.232 109.744 412.808 109.6 413.469 109.6C414.418 109.6 415.165 109.877 415.709 110.432C416.253 110.976 416.525 111.701 416.525 112.608C416.525 113.248 416.344 113.899 415.981 114.56C415.629 115.211 415.138 115.899 414.509 116.624C413.89 117.339 413.176 118.117 412.365 118.96C412.642 118.939 412.93 118.917 413.229 118.896C413.528 118.875 413.81 118.864 414.077 118.864H417.037V120H410.445Z"></path>
<rect stroke-opacity="0.44" stroke="black" height="28" width="188" y="100" x="330"></rect>
<path fill="#262626" d="M338.64 148V147.216C339.664 146.192 340.533 145.296 341.248 144.528C341.963 143.749 342.507 143.051 342.88 142.432C343.253 141.803 343.44 141.216 343.44 140.672C343.44 140.085 343.28 139.605 342.96 139.232C342.64 138.859 342.155 138.672 341.504 138.672C341.077 138.672 340.683 138.795 340.32 139.04C339.957 139.275 339.627 139.563 339.328 139.904L338.576 139.152C339.003 138.683 339.456 138.309 339.936 138.032C340.427 137.744 341.003 137.6 341.664 137.6C342.613 137.6 343.36 137.877 343.904 138.432C344.448 138.976 344.72 139.701 344.72 140.608C344.72 141.248 344.539 141.899 344.176 142.56C343.824 143.211 343.333 143.899 342.704 144.624C342.085 145.339 341.371 146.117 340.56 146.96C340.837 146.939 341.125 146.917 341.424 146.896C341.723 146.875 342.005 146.864 342.272 146.864H345.232V148H338.64ZM349.969 148.192C348.945 148.192 348.14 147.733 347.553 146.816C346.977 145.888 346.689 144.571 346.689 142.864C346.689 141.147 346.977 139.84 347.553 138.944C348.14 138.048 348.945 137.6 349.969 137.6C350.982 137.6 351.777 138.048 352.353 138.944C352.94 139.84 353.233 141.147 353.233 142.864C353.233 144.571 352.94 145.888 352.353 146.816C351.777 147.733 350.982 148.192 349.969 148.192ZM349.969 147.136C350.566 147.136 351.046 146.8 351.409 146.128C351.772 145.445 351.953 144.357 351.953 142.864C351.953 141.371 351.772 140.299 351.409 139.648C351.046 138.987 350.566 138.656 349.969 138.656C349.372 138.656 348.886 138.987 348.513 139.648C348.15 140.299 347.969 141.371 347.969 142.864C347.969 144.357 348.15 145.445 348.513 146.128C348.886 146.8 349.372 147.136 349.969 147.136ZM355.97 148.192C355.704 148.192 355.474 148.101 355.282 147.92C355.101 147.728 355.01 147.488 355.01 147.2C355.01 146.891 355.101 146.645 355.282 146.464C355.474 146.272 355.704 146.176 355.97 146.176C356.226 146.176 356.445 146.272 356.626 146.464C356.818 146.645 356.914 146.891 356.914 147.2C356.914 147.488 356.818 147.728 356.626 147.92C356.445 148.101 356.226 148.192 355.97 148.192ZM361.734 151.472C361.499 151.472 361.286 151.451 361.094 151.408C360.891 151.365 360.72 151.317 360.582 151.264L360.854 150.272C360.95 150.304 361.062 150.331 361.19 150.352C361.318 150.384 361.451 150.4 361.59 150.4C361.974 150.4 362.23 150.261 362.358 149.984C362.486 149.717 362.55 149.349 362.55 148.88V140.224H363.862V148.88C363.862 149.669 363.702 150.299 363.382 150.768C363.062 151.237 362.512 151.472 361.734 151.472ZM363.19 138.624C362.934 138.624 362.72 138.549 362.55 138.4C362.39 138.24 362.31 138.027 362.31 137.76C362.31 137.504 362.39 137.296 362.55 137.136C362.72 136.976 362.934 136.896 363.19 136.896C363.446 136.896 363.654 136.976 363.814 137.136C363.984 137.296 364.07 137.504 364.07 137.76C364.07 138.027 363.984 138.24 363.814 138.4C363.654 138.549 363.446 138.624 363.19 138.624ZM368.311 148.192C367.66 148.192 367.116 148 366.679 147.616C366.252 147.221 366.039 146.677 366.039 145.984C366.039 145.131 366.418 144.48 367.175 144.032C367.943 143.573 369.154 143.253 370.807 143.072C370.807 142.741 370.759 142.427 370.663 142.128C370.578 141.829 370.418 141.589 370.183 141.408C369.959 141.216 369.634 141.12 369.207 141.12C368.759 141.12 368.338 141.205 367.943 141.376C367.548 141.547 367.196 141.739 366.887 141.952L366.375 141.04C366.738 140.805 367.18 140.581 367.703 140.368C368.236 140.144 368.812 140.032 369.431 140.032C370.38 140.032 371.068 140.325 371.495 140.912C371.922 141.488 372.135 142.261 372.135 143.232V148H371.047L370.935 147.072H370.887C370.524 147.371 370.124 147.632 369.687 147.856C369.26 148.08 368.802 148.192 368.311 148.192ZM368.695 147.136C369.068 147.136 369.42 147.045 369.751 146.864C370.082 146.683 370.434 146.427 370.807 146.096V143.936C369.516 144.096 368.61 144.336 368.087 144.656C367.575 144.976 367.319 145.387 367.319 145.888C367.319 146.325 367.452 146.645 367.719 146.848C367.986 147.04 368.311 147.136 368.695 147.136ZM374.613 148V140.224H375.701L375.813 141.344H375.861C376.235 140.971 376.629 140.661 377.045 140.416C377.461 140.16 377.936 140.032 378.469 140.032C379.291 140.032 379.888 140.293 380.261 140.816C380.645 141.328 380.837 142.08 380.837 143.072V148H379.525V143.248C379.525 142.523 379.408 141.995 379.173 141.664C378.939 141.333 378.565 141.168 378.053 141.168C377.659 141.168 377.301 141.269 376.981 141.472C376.672 141.675 376.32 141.973 375.925 142.368V148H374.613ZM385.959 148V147.216C386.983 146.192 387.852 145.296 388.567 144.528C389.281 143.749 389.825 143.051 390.199 142.432C390.572 141.803 390.759 141.216 390.759 140.672C390.759 140.085 390.599 139.605 390.279 139.232C389.959 138.859 389.473 138.672 388.823 138.672C388.396 138.672 388.001 138.795 387.639 139.04C387.276 139.275 386.945 139.563 386.647 139.904L385.895 139.152C386.321 138.683 386.775 138.309 387.255 138.032C387.745 137.744 388.321 137.6 388.983 137.6C389.932 137.6 390.679 137.877 391.223 138.432C391.767 138.976 392.039 139.701 392.039 140.608C392.039 141.248 391.857 141.899 391.495 142.56C391.143 143.211 390.652 143.899 390.023 144.624C389.404 145.339 388.689 146.117 387.879 146.96C388.156 146.939 388.444 146.917 388.743 146.896C389.041 146.875 389.324 146.864 389.591 146.864H392.551V148H385.959ZM397.288 148.192C396.264 148.192 395.458 147.733 394.872 146.816C394.296 145.888 394.008 144.571 394.008 142.864C394.008 141.147 394.296 139.84 394.872 138.944C395.458 138.048 396.264 137.6 397.288 137.6C398.301 137.6 399.096 138.048 399.672 138.944C400.258 139.84 400.552 141.147 400.552 142.864C400.552 144.571 400.258 145.888 399.672 146.816C399.096 147.733 398.301 148.192 397.288 148.192ZM397.288 147.136C397.885 147.136 398.365 146.8 398.728 146.128C399.09 145.445 399.272 144.357 399.272 142.864C399.272 141.371 399.09 140.299 398.728 139.648C398.365 138.987 397.885 138.656 397.288 138.656C396.69 138.656 396.205 138.987 395.832 139.648C395.469 140.299 395.288 141.371 395.288 142.864C395.288 144.357 395.469 145.445 395.832 146.128C396.205 146.8 396.69 147.136 397.288 147.136ZM401.929 148V147.216C402.953 146.192 403.822 145.296 404.537 144.528C405.251 143.749 405.795 143.051 406.169 142.432C406.542 141.803 406.729 141.216 406.729 140.672C406.729 140.085 406.569 139.605 406.249 139.232C405.929 138.859 405.443 138.672 404.793 138.672C404.366 138.672 403.971 138.795 403.609 139.04C403.246 139.275 402.915 139.563 402.617 139.904L401.865 139.152C402.291 138.683 402.745 138.309 403.225 138.032C403.715 137.744 404.291 137.6 404.953 137.6C405.902 137.6 406.649 137.877 407.193 138.432C407.737 138.976 408.009 139.701 408.009 140.608C408.009 141.248 407.827 141.899 407.465 142.56C407.113 143.211 406.622 143.899 405.993 144.624C405.374 145.339 404.659 146.117 403.849 146.96C404.126 146.939 404.414 146.917 404.713 146.896C405.011 146.875 405.294 146.864 405.561 146.864H408.521V148H401.929ZM409.914 148V147.216C410.938 146.192 411.807 145.296 412.522 144.528C413.237 143.749 413.781 143.051 414.154 142.432C414.527 141.803 414.714 141.216 414.714 140.672C414.714 140.085 414.554 139.605 414.234 139.232C413.914 138.859 413.429 138.672 412.778 138.672C412.351 138.672 411.957 138.795 411.594 139.04C411.231 139.275 410.901 139.563 410.602 139.904L409.85 139.152C410.277 138.683 410.73 138.309 411.21 138.032C411.701 137.744 412.277 137.6 412.938 137.6C413.887 137.6 414.634 137.877 415.178 138.432C415.722 138.976 415.994 139.701 415.994 140.608C415.994 141.248 415.813 141.899 415.45 142.56C415.098 143.211 414.607 143.899 413.978 144.624C413.359 145.339 412.645 146.117 411.834 146.96C412.111 146.939 412.399 146.917 412.698 146.896C412.997 146.875 413.279 146.864 413.546 146.864H416.506V148H409.914Z"></path>
<rect stroke-opacity="0.44" stroke="black" height="28" width="188" y="128" x="330"></rect>
<path fill="#262626" d="M339.264 176V174.912H341.6V167.392H339.744V166.544C340.213 166.459 340.619 166.357 340.96 166.24C341.312 166.112 341.627 165.963 341.904 165.792H342.912V174.912H345.024V176H339.264ZM347.249 176V174.912H349.585V167.392H347.729V166.544C348.198 166.459 348.604 166.357 348.945 166.24C349.297 166.112 349.612 165.963 349.889 165.792H350.897V174.912H353.009V176H347.249ZM355.97 176.192C355.704 176.192 355.474 176.101 355.282 175.92C355.101 175.728 355.01 175.488 355.01 175.2C355.01 174.891 355.101 174.645 355.282 174.464C355.474 174.272 355.704 174.176 355.97 174.176C356.226 174.176 356.445 174.272 356.626 174.464C356.818 174.645 356.914 174.891 356.914 175.2C356.914 175.488 356.818 175.728 356.626 175.92C356.445 176.101 356.226 176.192 355.97 176.192ZM362.758 176V169.296H361.702V168.304L362.758 168.224V166.992C362.758 166.203 362.939 165.579 363.302 165.12C363.675 164.651 364.251 164.416 365.03 164.416C365.275 164.416 365.51 164.443 365.734 164.496C365.958 164.539 366.155 164.597 366.326 164.672L366.038 165.68C365.75 165.552 365.456 165.488 365.158 165.488C364.432 165.488 364.07 165.989 364.07 166.992V168.224H365.718V169.296H364.07V176H362.758ZM370.233 176.192C369.54 176.192 368.911 176.032 368.345 175.712C367.78 175.381 367.332 174.912 367.001 174.304C366.671 173.696 366.505 172.971 366.505 172.128C366.505 171.275 366.671 170.544 367.001 169.936C367.343 169.328 367.78 168.859 368.313 168.528C368.847 168.197 369.407 168.032 369.993 168.032C370.985 168.032 371.748 168.363 372.281 169.024C372.825 169.685 373.097 170.571 373.097 171.68C373.097 171.819 373.092 171.957 373.081 172.096C373.081 172.224 373.071 172.336 373.049 172.432H367.801C367.855 173.253 368.111 173.909 368.569 174.4C369.039 174.891 369.647 175.136 370.393 175.136C370.767 175.136 371.108 175.083 371.417 174.976C371.737 174.859 372.041 174.709 372.329 174.528L372.793 175.392C372.463 175.605 372.084 175.792 371.657 175.952C371.241 176.112 370.767 176.192 370.233 176.192ZM367.785 171.488H371.945C371.945 170.699 371.775 170.101 371.433 169.696C371.103 169.28 370.633 169.072 370.025 169.072C369.481 169.072 368.991 169.285 368.553 169.712C368.127 170.128 367.871 170.72 367.785 171.488ZM378.491 176.192C378.128 176.192 377.75 176.107 377.355 175.936C376.971 175.755 376.608 175.509 376.267 175.2H376.219L376.107 176H375.051V164.608H376.363V167.712L376.331 169.12C376.683 168.811 377.067 168.555 377.483 168.352C377.91 168.139 378.336 168.032 378.763 168.032C379.776 168.032 380.544 168.389 381.067 169.104C381.59 169.819 381.851 170.779 381.851 171.984C381.851 172.869 381.691 173.627 381.371 174.256C381.062 174.885 380.651 175.365 380.139 175.696C379.638 176.027 379.088 176.192 378.491 176.192ZM378.267 175.088C378.907 175.088 379.435 174.816 379.851 174.272C380.278 173.717 380.491 172.96 380.491 172C380.491 171.147 380.331 170.459 380.011 169.936C379.702 169.403 379.179 169.136 378.443 169.136C378.112 169.136 377.776 169.227 377.435 169.408C377.094 169.589 376.736 169.851 376.363 170.192V174.272C376.704 174.571 377.04 174.784 377.371 174.912C377.712 175.029 378.011 175.088 378.267 175.088ZM386.49 176V175.216C387.514 174.192 388.383 173.296 389.098 172.528C389.812 171.749 390.356 171.051 390.73 170.432C391.103 169.803 391.29 169.216 391.29 168.672C391.29 168.085 391.13 167.605 390.81 167.232C390.49 166.859 390.004 166.672 389.354 166.672C388.927 166.672 388.532 166.795 388.17 167.04C387.807 167.275 387.476 167.563 387.178 167.904L386.426 167.152C386.852 166.683 387.306 166.309 387.786 166.032C388.276 165.744 388.852 165.6 389.514 165.6C390.463 165.6 391.21 165.877 391.754 166.432C392.298 166.976 392.57 167.701 392.57 168.608C392.57 169.248 392.388 169.899 392.026 170.56C391.674 171.211 391.183 171.899 390.554 172.624C389.935 173.339 389.22 174.117 388.41 174.96C388.687 174.939 388.975 174.917 389.274 174.896C389.572 174.875 389.855 174.864 390.122 174.864H393.082V176H386.49ZM397.819 176.192C396.795 176.192 395.99 175.733 395.403 174.816C394.827 173.888 394.539 172.571 394.539 170.864C394.539 169.147 394.827 167.84 395.403 166.944C395.99 166.048 396.795 165.6 397.819 165.6C398.832 165.6 399.627 166.048 400.203 166.944C400.79 167.84 401.083 169.147 401.083 170.864C401.083 172.571 400.79 173.888 400.203 174.816C399.627 175.733 398.832 176.192 397.819 176.192ZM397.819 175.136C398.416 175.136 398.896 174.8 399.259 174.128C399.622 173.445 399.803 172.357 399.803 170.864C399.803 169.371 399.622 168.299 399.259 167.648C398.896 166.987 398.416 166.656 397.819 166.656C397.222 166.656 396.736 166.987 396.363 167.648C396 168.299 395.819 169.371 395.819 170.864C395.819 172.357 396 173.445 396.363 174.128C396.736 174.8 397.222 175.136 397.819 175.136ZM402.46 176V175.216C403.484 174.192 404.353 173.296 405.068 172.528C405.783 171.749 406.327 171.051 406.7 170.432C407.073 169.803 407.26 169.216 407.26 168.672C407.26 168.085 407.1 167.605 406.78 167.232C406.46 166.859 405.975 166.672 405.324 166.672C404.897 166.672 404.503 166.795 404.14 167.04C403.777 167.275 403.447 167.563 403.148 167.904L402.396 167.152C402.823 166.683 403.276 166.309 403.756 166.032C404.247 165.744 404.823 165.6 405.484 165.6C406.433 165.6 407.18 165.877 407.724 166.432C408.268 166.976 408.54 167.701 408.54 168.608C408.54 169.248 408.359 169.899 407.996 170.56C407.644 171.211 407.153 171.899 406.524 172.624C405.905 173.339 405.191 174.117 404.38 174.96C404.657 174.939 404.945 174.917 405.244 174.896C405.543 174.875 405.825 174.864 406.092 174.864H409.052V176H402.46ZM410.445 176V175.216C411.469 174.192 412.338 173.296 413.053 172.528C413.768 171.749 414.312 171.051 414.685 170.432C415.058 169.803 415.245 169.216 415.245 168.672C415.245 168.085 415.085 167.605 414.765 167.232C414.445 166.859 413.96 166.672 413.309 166.672C412.882 166.672 412.488 166.795 412.125 167.04C411.762 167.275 411.432 167.563 411.133 167.904L410.381 167.152C410.808 166.683 411.261 166.309 411.741 166.032C412.232 165.744 412.808 165.6 413.469 165.6C414.418 165.6 415.165 165.877 415.709 166.432C416.253 166.976 416.525 167.701 416.525 168.608C416.525 169.248 416.344 169.899 415.981 170.56C415.629 171.211 415.138 171.899 414.509 172.624C413.89 173.339 413.176 174.117 412.365 174.96C412.642 174.939 412.93 174.917 413.229 174.896C413.528 174.875 413.81 174.864 414.077 174.864H417.037V176H410.445Z"></path>
<rect stroke-opacity="0.44" stroke="black" height="48" width="188" y="156" x="330"></rect>
</g>
<defs>
<clipPath id="clip0_5068_24195">
<rect fill="white" height="200" width="384"></rect>
</clipPath>
</defs>
</svg>
