<svg xmlns="http://www.w3.org/2000/svg" fill="none" viewBox="0 0 200 200" height="200" width="200">
<path fill="#C0D6E4" d="M66 100C66 81.2223 81.2223 66 100 66C102.209 66 104 67.7909 104 70C104 72.2091 102.209 74 100 74C85.6406 74 74 85.6406 74 100C74 114.359 85.6406 126 100 126C114.359 126 126 114.359 126 100C126 97.7909 127.791 96 130 96C132.209 96 134 97.7909 134 100C134 118.778 118.778 134 100 134C81.2223 134 66 118.778 66 100Z"></path>
<path fill="#417DA0" d="M126 100C126 85.6406 114.359 74 100 74C85.6406 74 74 85.6406 74 100C74 102.209 72.2091 104 70 104C67.7909 104 66 102.209 66 100C66 81.2223 81.2223 66 100 66C118.778 66 134 81.2223 134 100C134 118.778 118.778 134 100 134C97.7909 134 96 132.209 96 130C96 127.791 97.7909 126 100 126C114.359 126 126 114.359 126 100Z"></path>
</svg>
