<svg xmlns="http://www.w3.org/2000/svg" fill="none" viewBox="0 0 200 200" height="200" width="200">
<path fill="#C0D6E4" d="M160 100C160 133.137 133.137 160 100 160C66.8629 160 40 133.137 40 100C40 66.8629 66.8629 40 100 40C133.137 40 160 66.8629 160 100Z"></path>
<path fill="#417DA0" d="M93.923 38.2942C95.9229 38.0996 97.9501 38 100 38C102.05 38 104.077 38.0996 106.077 38.2942C107.176 38.4012 107.981 39.3791 107.874 40.4785C107.767 41.5779 106.789 42.3824 105.69 42.2754C103.818 42.0933 101.92 42 100 42C98.0797 42 96.1818 42.0933 94.3104 42.2754C93.211 42.3824 92.2331 41.5779 92.1261 40.4785C92.0191 39.3791 92.8236 38.4012 93.923 38.2942ZM84.4911 41.9889C84.8114 43.046 84.214 44.1626 83.1569 44.4829C79.4899 45.5939 75.9762 47.0584 72.6555 48.8371C71.6818 49.3586 70.4697 48.9921 69.9481 48.0184C69.4266 47.0447 69.7932 45.8326 70.7669 45.311C74.3173 43.4093 78.0749 41.843 81.9971 40.6547C83.0542 40.3344 84.1708 40.9318 84.4911 41.9889ZM115.509 41.9889C115.829 40.9318 116.946 40.3344 118.003 40.6547C121.925 41.843 125.683 43.4093 129.233 45.311C130.207 45.8326 130.573 47.0447 130.052 48.0184C129.53 48.9921 128.318 49.3586 127.345 48.8371C124.024 47.0584 120.51 45.5939 116.843 44.4829C115.786 44.1626 115.189 43.046 115.509 41.9889ZM63.4811 52.3479C64.1823 53.2014 64.0589 54.4617 63.2055 55.1629C60.2697 57.575 57.575 60.2697 55.1629 63.2055C54.4617 64.0589 53.2014 64.1823 52.3479 63.4811C51.4945 62.7799 51.3711 61.5196 52.0723 60.6662C54.6497 57.5291 57.5291 54.6497 60.6662 52.0723C61.5196 51.3711 62.7799 51.4945 63.4811 52.3479ZM136.519 52.3479C137.22 51.4945 138.48 51.3711 139.334 52.0723C142.471 54.6497 145.35 57.5291 147.928 60.6662C148.629 61.5196 148.506 62.7799 147.652 63.4811C146.799 64.1823 145.538 64.0589 144.837 63.2055C142.425 60.2697 139.73 57.575 136.795 55.1629C135.941 54.4617 135.818 53.2014 136.519 52.3479ZM48.0184 69.9481C48.9921 70.4697 49.3586 71.6818 48.8371 72.6555C47.0584 75.9762 45.5939 79.4899 44.4829 83.1569C44.1626 84.214 43.046 84.8114 41.9889 84.4911C40.9318 84.1708 40.3344 83.0542 40.6547 81.9971C41.843 78.0749 43.4093 74.3173 45.311 70.7669C45.8326 69.7932 47.0447 69.4266 48.0184 69.9481ZM151.982 69.9481C152.955 69.4266 154.167 69.7932 154.689 70.7669C156.591 74.3173 158.157 78.0749 159.345 81.9971C159.666 83.0542 159.068 84.1708 158.011 84.4911C156.954 84.8114 155.837 84.214 155.517 83.1569C154.406 79.4899 152.942 75.9762 151.163 72.6555C150.641 71.6818 151.008 70.4697 151.982 69.9481ZM40.4785 92.1261C41.5779 92.2331 42.3824 93.211 42.2754 94.3104C42.0933 96.1818 42 98.0797 42 100C42 101.92 42.0933 103.818 42.2754 105.69C42.3824 106.789 41.5779 107.767 40.4785 107.874C39.3791 107.981 38.4012 107.176 38.2942 106.077C38.0996 104.077 38 102.05 38 100C38 97.9501 38.0996 95.9229 38.2942 93.923C38.4012 92.8236 39.3791 92.0191 40.4785 92.1261ZM159.521 92.1261C160.621 92.0191 161.599 92.8236 161.706 93.923C161.9 95.9229 162 97.9501 162 100C162 102.05 161.9 104.077 161.706 106.077C161.599 107.176 160.621 107.981 159.521 107.874C158.422 107.767 157.618 106.789 157.725 105.69C157.907 103.818 158 101.92 158 100C158 98.0797 157.907 96.1818 157.725 94.3104C157.618 93.211 158.422 92.2331 159.521 92.1261ZM41.9889 115.509C43.046 115.189 44.1626 115.786 44.4829 116.843C45.5939 120.51 47.0584 124.024 48.8371 127.345C49.3586 128.318 48.9921 129.53 48.0184 130.052C47.0447 130.573 45.8326 130.207 45.311 129.233C43.4093 125.683 41.843 121.925 40.6547 118.003C40.3344 116.946 40.9318 115.829 41.9889 115.509ZM158.011 115.509C159.068 115.829 159.666 116.946 159.345 118.003C158.157 121.925 156.591 125.683 154.689 129.233C154.167 130.207 152.955 130.573 151.982 130.052C151.008 129.53 150.641 128.318 151.163 127.345C152.942 124.024 154.406 120.51 155.517 116.843C155.837 115.786 156.954 115.189 158.011 115.509ZM52.3479 136.519C53.2014 135.818 54.4617 135.941 55.1629 136.795C57.575 139.73 60.2697 142.425 63.2055 144.837C64.0589 145.538 64.1823 146.799 63.4811 147.652C62.7799 148.506 61.5196 148.629 60.6662 147.928C57.5291 145.35 54.6497 142.471 52.0723 139.334C51.3711 138.48 51.4945 137.22 52.3479 136.519ZM147.652 136.519C148.506 137.22 148.629 138.48 147.928 139.334C145.35 142.471 142.471 145.35 139.334 147.928C138.48 148.629 137.22 148.506 136.519 147.652C135.818 146.799 135.941 145.538 136.795 144.837C139.73 142.425 142.425 139.73 144.837 136.795C145.538 135.941 146.799 135.818 147.652 136.519ZM69.9481 151.982C70.4697 151.008 71.6818 150.641 72.6555 151.163C75.9762 152.942 79.4899 154.406 83.1569 155.517C84.214 155.837 84.8114 156.954 84.4911 158.011C84.1708 159.068 83.0542 159.666 81.9971 159.345C78.0749 158.157 74.3173 156.591 70.7669 154.689C69.7932 154.167 69.4266 152.955 69.9481 151.982ZM130.052 151.982C130.573 152.955 130.207 154.167 129.233 154.689C125.683 156.591 121.925 158.157 118.003 159.345C116.946 159.666 115.829 159.068 115.509 158.011C115.189 156.954 115.786 155.837 116.843 155.517C120.51 154.406 124.024 152.942 127.345 151.163C128.318 150.641 129.53 151.008 130.052 151.982ZM92.1261 159.521C92.2331 158.422 93.211 157.618 94.3104 157.725C96.1818 157.907 98.0797 158 100 158C101.92 158 103.818 157.907 105.69 157.725C106.789 157.618 107.767 158.422 107.874 159.521C107.981 160.621 107.176 161.599 106.077 161.706C104.077 161.9 102.05 162 100 162C97.9501 162 95.9229 161.9 93.923 161.706C92.8236 161.599 92.0191 160.621 92.1261 159.521Z" clip-rule="evenodd" fill-rule="evenodd"></path>
<path fill="#E3EFF7" d="M52.0001 60C52.0001 55.5817 55.5818 52 60.0001 52H140C144.418 52 148 55.5817 148 60V140C148 144.418 144.418 148 140 148H60.0001C55.5818 148 52.0001 144.418 52.0001 140V60Z"></path>
<path fill="#417DA0" d="M60.0001 54C56.6864 54 54.0001 56.6863 54.0001 60V66.6667C54.0001 67.7712 53.1047 68.6667 52.0001 68.6667C50.8956 68.6667 50.0001 67.7712 50.0001 66.6667V60C50.0001 54.4771 54.4773 50 60.0001 50H66.6668C67.7714 50 68.6668 50.8954 68.6668 52C68.6668 53.1046 67.7714 54 66.6668 54H60.0001ZM78.0001 52C78.0001 50.8954 78.8956 50 80.0001 50H93.3335C94.438 50 95.3335 50.8954 95.3335 52C95.3335 53.1046 94.438 54 93.3335 54H80.0001C78.8956 54 78.0001 53.1046 78.0001 52ZM104.667 52C104.667 50.8954 105.562 50 106.667 50H120C121.105 50 122 50.8954 122 52C122 53.1046 121.105 54 120 54H106.667C105.562 54 104.667 53.1046 104.667 52ZM131.333 52C131.333 50.8954 132.229 50 133.333 50H140C145.523 50 150 54.4772 150 60V66.6667C150 67.7712 149.105 68.6667 148 68.6667C146.896 68.6667 146 67.7712 146 66.6667V60C146 56.6863 143.314 54 140 54H133.333C132.229 54 131.333 53.1046 131.333 52ZM148 78C149.105 78 150 78.8954 150 80V93.3333C150 94.4379 149.105 95.3333 148 95.3333C146.896 95.3333 146 94.4379 146 93.3333V80C146 78.8954 146.896 78 148 78ZM52.0001 78C53.1047 78 54.0001 78.8954 54.0001 80V93.3333C54.0001 94.4379 53.1047 95.3333 52.0001 95.3333C50.8956 95.3333 50.0001 94.4379 50.0001 93.3333V80C50.0001 78.8954 50.8956 78 52.0001 78ZM52.0001 104.667C53.1047 104.667 54.0001 105.562 54.0001 106.667V120C54.0001 121.105 53.1047 122 52.0001 122C50.8956 122 50.0001 121.105 50.0001 120V106.667C50.0001 105.562 50.8956 104.667 52.0001 104.667ZM148 104.667C149.105 104.667 150 105.562 150 106.667V120C150 121.105 149.105 122 148 122C146.896 122 146 121.105 146 120V106.667C146 105.562 146.896 104.667 148 104.667ZM148 131.333C149.105 131.333 150 132.229 150 133.333V140C150 145.523 145.523 150 140 150H133.333C132.229 150 131.333 149.105 131.333 148C131.333 146.895 132.229 146 133.333 146H140C143.314 146 146 143.314 146 140V133.333C146 132.229 146.896 131.333 148 131.333ZM52.0001 131.333C53.1047 131.333 54.0001 132.229 54.0001 133.333V140C54.0001 143.314 56.6864 146 60.0001 146H66.6668C67.7714 146 68.6668 146.895 68.6668 148C68.6668 149.105 67.7714 150 66.6668 150H60.0001C54.4773 150 50.0001 145.523 50.0001 140V133.333C50.0001 132.229 50.8956 131.333 52.0001 131.333ZM78.0001 148C78.0001 146.895 78.8956 146 80.0001 146H93.3335C94.438 146 95.3335 146.895 95.3335 148C95.3335 149.105 94.438 150 93.3335 150H80.0001C78.8956 150 78.0001 149.105 78.0001 148ZM104.667 148C104.667 146.895 105.562 146 106.667 146H120C121.105 146 122 146.895 122 148C122 149.105 121.105 150 120 150H106.667C105.562 150 104.667 149.105 104.667 148Z" clip-rule="evenodd" fill-rule="evenodd"></path>
<path fill="#417DA0" d="M140.937 88H132.363C132.363 88 131.772 88 131.563 88.5192L126.818 102.97L122.077 88.5192C121.868 88 121.273 88 121.273 88H104.787C104.43 88 104.131 88.2965 104.131 88.6493V93.5566C104.131 89.6638 99.9674 88 97.5293 88C92.0693 88 88.4143 91.5776 87.2763 97.0166C87.2146 93.4084 86.9132 92.1155 85.9362 90.7914C85.4874 90.1427 84.8387 89.5973 84.1324 89.1463C82.678 88.2988 81.3721 88 78.5657 88H75.2704C75.2704 88 74.6748 88 74.4647 88.5192L71.4664 95.9112V88.6493C71.4664 88.2965 71.1694 88 70.8131 88H63.188C63.188 88 62.5992 88 62.3851 88.5192L59.268 96.2054C59.268 96.2054 58.9568 96.974 59.6683 96.974H62.5992V111.621C62.5992 111.984 62.887 112.272 63.2542 112.272H70.8131C71.1694 112.272 71.4664 111.984 71.4664 111.621V96.974H74.4127C76.1035 96.974 76.4615 97.02 77.1193 97.3251C77.5156 97.4739 77.8725 97.775 78.0672 98.122C78.4657 98.8685 78.5657 99.7648 78.5657 102.408V111.621C78.5657 111.984 78.8591 112.272 79.2217 112.272H86.4666C86.4666 112.272 87.2855 112.272 87.6092 111.468L89.2149 107.52C91.3499 110.495 94.8638 112.272 99.2308 112.272H100.185C100.185 112.272 101.009 112.272 101.335 111.468L104.131 104.578V111.621C104.131 111.984 104.43 112.272 104.787 112.272H112.183C112.183 112.272 112.999 112.272 113.327 111.468C113.327 111.468 116.284 104.162 116.296 104.107H116.3C116.414 103.499 115.642 103.499 115.642 103.499H113.002V90.9635L121.308 111.468C121.632 112.272 122.45 112.272 122.45 112.272H131.186C131.186 112.272 132.009 112.272 132.333 111.468L141.541 88.7862C141.859 88 140.937 88 140.937 88ZM104.131 103.499H99.1635C97.1861 103.499 95.5776 101.906 95.5776 99.9369C95.5776 97.9709 97.1861 96.3679 99.1635 96.3679H100.553C102.525 96.3679 104.131 97.9709 104.131 99.9369V103.499Z" clip-rule="evenodd" fill-rule="evenodd"></path>
</svg>
