<svg xmlns="http://www.w3.org/2000/svg" fill="none" viewBox="0 0 200 200" height="200" width="200">
<path fill="#417DA0" d="M53 82C53 75.3726 58.3726 70 65 70H135C141.627 70 147 75.3726 147 82V118C147 124.627 141.627 130 135 130H65C58.3726 130 53 124.627 53 118V82Z"></path>
<path fill="#C0D6E4" d="M76.8787 115.788C75.7071 114.616 75.7071 112.717 76.8787 111.545L89.0905 99.3332L76.8787 87.1213C75.7071 85.9497 75.7071 84.0503 76.8787 82.8787C78.0503 81.7071 79.9497 81.7071 81.1213 82.8787L95.4545 97.2118C96.6261 98.3834 96.6261 100.283 95.4545 101.454L81.1213 115.788C79.9497 116.959 78.0503 116.959 76.8787 115.788Z" clip-rule="evenodd" fill-rule="evenodd"></path>
<path fill="#C0D6E4" d="M96.3331 113.666C96.3331 112.009 97.6763 110.666 99.3331 110.666H125.333C126.99 110.666 128.333 112.009 128.333 113.666C128.333 115.323 126.99 116.666 125.333 116.666H99.3331C97.6763 116.666 96.3331 115.323 96.3331 113.666Z" clip-rule="evenodd" fill-rule="evenodd"></path>
</svg>
