<svg xmlns="http://www.w3.org/2000/svg" fill="none" viewBox="0 0 200 200" height="200" width="200">
<path fill="#417DA0" d="M164 48C170.627 48 176 53.3726 176 60V140L175.996 140.31C175.832 146.794 170.524 152 164 152H36L35.6904 151.996C29.309 151.834 24.1655 146.691 24.0039 140.31L24 140V60C24 59.7831 24.0052 59.5676 24.0166 59.3535C24.036 58.9872 24.0734 58.6254 24.125 58.2686C24.1299 58.2347 24.1335 58.2007 24.1387 58.167C24.1643 57.9998 24.1941 57.8338 24.2266 57.6689C24.2697 57.4497 24.3181 57.2324 24.373 57.0176C24.399 56.9162 24.4295 56.8162 24.458 56.7158C24.4813 56.6337 24.5023 56.5511 24.5273 56.4697C24.5659 56.3444 24.6099 56.2212 24.6523 56.0977C24.6755 56.0303 24.6964 55.9623 24.7207 55.8955C24.7453 55.8278 24.773 55.7614 24.7988 55.6943C24.8417 55.5829 24.8836 55.4712 24.9297 55.3613C24.9629 55.2821 24.9993 55.2043 25.0342 55.126C25.0783 55.027 25.1213 54.9276 25.168 54.8301C25.2051 54.7524 25.2454 54.6764 25.2842 54.5996C25.3312 54.5065 25.3774 54.413 25.4268 54.3213C25.4705 54.24 25.5169 54.1602 25.5625 54.0801C25.612 53.9929 25.6603 53.9051 25.7119 53.8193C25.7572 53.7441 25.8056 53.6708 25.8525 53.5967C25.9095 53.5066 25.9661 53.4165 26.0254 53.3281C26.0698 53.2619 26.1164 53.1972 26.1621 53.1318C26.2243 53.043 26.2851 52.9533 26.3496 52.8662C26.4025 52.7948 26.4583 52.7255 26.5127 52.6553C26.5759 52.5737 26.6388 52.492 26.7041 52.4121C26.7632 52.3398 26.8241 52.2691 26.8848 52.1982C26.9448 52.1281 27.0048 52.058 27.0664 51.9893C27.1392 51.9081 27.2141 51.8291 27.2891 51.75C27.3445 51.6915 27.3995 51.6326 27.4561 51.5752C27.529 51.5013 27.6039 51.4295 27.6787 51.3574C27.7442 51.2943 27.809 51.2305 27.876 51.1689C27.9386 51.1113 28.0035 51.0563 28.0674 51C28.1518 50.9255 28.2357 50.8504 28.3223 50.7783C28.3776 50.7322 28.4341 50.6877 28.4902 50.6426C28.579 50.5713 28.668 50.5004 28.7588 50.4316C28.8235 50.3826 28.8893 50.3349 28.9551 50.2871C29.048 50.2196 29.1414 50.1528 29.2363 50.0879C29.2966 50.0467 29.3579 50.0069 29.4189 49.9668C29.5124 49.9054 29.6059 49.844 29.7012 49.7852C29.7775 49.738 29.8552 49.693 29.9326 49.6475C30.0203 49.5959 30.1081 49.5445 30.1973 49.4951C30.2738 49.4527 30.3512 49.4118 30.4287 49.3711C30.5244 49.3208 30.6206 49.2714 30.7178 49.2236C30.7904 49.188 30.864 49.1544 30.9375 49.1201C31.0382 49.0732 31.1391 49.0266 31.2412 48.9824C31.3166 48.9498 31.3926 48.9188 31.4688 48.8877C31.572 48.8455 31.6756 48.804 31.7803 48.7646C31.8676 48.7318 31.9557 48.7007 32.0439 48.6699C32.1289 48.6403 32.214 48.6108 32.2998 48.583C32.4005 48.5504 32.5017 48.5193 32.6035 48.4893C32.6981 48.4614 32.7931 48.4348 32.8887 48.4092C32.9732 48.3865 33.0583 48.3656 33.1436 48.3447C33.2524 48.3181 33.3617 48.2922 33.4717 48.2686C33.6112 48.2386 33.7513 48.2096 33.8926 48.1846C33.9059 48.1822 33.9193 48.1801 33.9326 48.1777C34.1072 48.1474 34.2829 48.1203 34.46 48.0977C34.4853 48.0944 34.5107 48.092 34.5361 48.0889C34.7127 48.0674 34.8904 48.0489 35.0693 48.0352C35.0749 48.0347 35.0804 48.0346 35.0859 48.0342L35.3828 48.0156C35.5872 48.0053 35.793 48 36 48H164ZM27 140C27 144.971 31.0294 149 36 149H164C168.971 149 173 144.971 173 140V78H27V140ZM49.6963 56.7139C48.913 55.4608 47.0881 55.4609 46.3047 56.7139L39.9131 66.9404C39.0809 68.2724 40.0378 70.0007 41.6084 70.001H54.3916C55.9621 70.0008 56.9199 68.2724 56.0879 66.9404L49.6963 56.7139ZM71 59.001C68.791 59.0011 67 60.7919 67 63.001C67.0005 65.2096 68.7913 67.0009 71 67.001H158C160.209 67.0008 162 65.2096 162 63.001C162 60.7919 160.209 59.0011 158 59.001H71Z"></path>
</svg>
