<svg xmlns="http://www.w3.org/2000/svg" fill="none" viewBox="0 0 384 160" height="160" width="384">
<rect fill="#F7F7F7" height="160" width="384"></rect>
<mask fill="white" id="path-1-inside-1_6544_105797">
<path d="M24 96H360V136H24V96Z"></path>
</mask>
<path fill="white" d="M24 96H360V136H24V96Z"></path>
<path fill-opacity="0.65" fill="black" d="M174.774 122V111.504H177.766C178.556 111.504 179.244 111.6 179.83 111.792C180.417 111.984 180.876 112.309 181.206 112.768C181.537 113.216 181.702 113.824 181.702 114.592C181.702 115.691 181.345 116.507 180.63 117.04C179.916 117.573 178.982 117.84 177.83 117.84H176.102V122H174.774ZM176.102 116.752H177.67C178.588 116.752 179.265 116.581 179.702 116.24C180.15 115.888 180.374 115.339 180.374 114.592C180.374 113.835 180.14 113.312 179.67 113.024C179.212 112.725 178.524 112.576 177.606 112.576H176.102V116.752ZM184.845 122.192C184.195 122.192 183.651 122 183.213 121.616C182.787 121.221 182.573 120.677 182.573 119.984C182.573 119.131 182.952 118.48 183.709 118.032C184.477 117.573 185.688 117.253 187.341 117.072C187.341 116.741 187.293 116.427 187.197 116.128C187.112 115.829 186.952 115.589 186.717 115.408C186.493 115.216 186.168 115.12 185.741 115.12C185.293 115.12 184.872 115.205 184.477 115.376C184.083 115.547 183.731 115.739 183.421 115.952L182.909 115.04C183.272 114.805 183.715 114.581 184.237 114.368C184.771 114.144 185.347 114.032 185.965 114.032C186.915 114.032 187.603 114.325 188.029 114.912C188.456 115.488 188.669 116.261 188.669 117.232V122H187.581L187.469 121.072H187.421C187.059 121.371 186.659 121.632 186.221 121.856C185.795 122.08 185.336 122.192 184.845 122.192ZM185.229 121.136C185.603 121.136 185.955 121.045 186.285 120.864C186.616 120.683 186.968 120.427 187.341 120.096V117.936C186.051 118.096 185.144 118.336 184.621 118.656C184.109 118.976 183.853 119.387 183.853 119.888C183.853 120.325 183.987 120.645 184.253 120.848C184.52 121.04 184.845 121.136 185.229 121.136ZM191.148 122V114.224H192.236L192.348 115.344H192.396C192.769 114.971 193.164 114.661 193.58 114.416C193.996 114.16 194.471 114.032 195.004 114.032C195.825 114.032 196.423 114.293 196.796 114.816C197.18 115.328 197.372 116.08 197.372 117.072V122H196.06V117.248C196.06 116.523 195.943 115.995 195.708 115.664C195.473 115.333 195.1 115.168 194.588 115.168C194.193 115.168 193.836 115.269 193.516 115.472C193.207 115.675 192.855 115.973 192.46 116.368V122H191.148ZM203.082 122.192C202.389 122.192 201.759 122.032 201.194 121.712C200.629 121.381 200.181 120.912 199.85 120.304C199.519 119.696 199.354 118.971 199.354 118.128C199.354 117.275 199.519 116.544 199.85 115.936C200.191 115.328 200.629 114.859 201.162 114.528C201.695 114.197 202.255 114.032 202.842 114.032C203.834 114.032 204.597 114.363 205.13 115.024C205.674 115.685 205.946 116.571 205.946 117.68C205.946 117.819 205.941 117.957 205.93 118.096C205.93 118.224 205.919 118.336 205.898 118.432H200.65C200.703 119.253 200.959 119.909 201.418 120.4C201.887 120.891 202.495 121.136 203.242 121.136C203.615 121.136 203.957 121.083 204.266 120.976C204.586 120.859 204.89 120.709 205.178 120.528L205.642 121.392C205.311 121.605 204.933 121.792 204.506 121.952C204.09 122.112 203.615 122.192 203.082 122.192ZM200.634 117.488H204.794C204.794 116.699 204.623 116.101 204.282 115.696C203.951 115.28 203.482 115.072 202.874 115.072C202.33 115.072 201.839 115.285 201.402 115.712C200.975 116.128 200.719 116.72 200.634 117.488ZM209.291 122.192C208.801 122.192 208.443 122.043 208.219 121.744C208.006 121.435 207.899 120.997 207.899 120.432V110.608H209.211V120.528C209.211 120.731 209.249 120.88 209.323 120.976C209.398 121.061 209.483 121.104 209.579 121.104C209.622 121.104 209.659 121.104 209.691 121.104C209.734 121.093 209.793 121.083 209.867 121.072L210.043 122.064C209.958 122.107 209.857 122.139 209.739 122.16C209.622 122.181 209.473 122.192 209.291 122.192Z"></path>
<path mask="url(#path-1-inside-1_6544_105797)" fill-opacity="0.19" fill="black" d="M360 136V136.5H360.5V136H360ZM24 136H23.5V136.5H24V136ZM23.5 96V98H24.5V96H23.5ZM23.5 102V106H24.5V102H23.5ZM23.5 110V114H24.5V110H23.5ZM23.5 118V122H24.5V118H23.5ZM23.5 126V130H24.5V126H23.5ZM23.5 134V136H24.5V134H23.5ZM24 136.5H26V135.5H24V136.5ZM30 136.5H34V135.5H30V136.5ZM38 136.5H42V135.5H38V136.5ZM46 136.5H50V135.5H46V136.5ZM54 136.5H58V135.5H54V136.5ZM62 136.5H66V135.5H62V136.5ZM70 136.5H74V135.5H70V136.5ZM78 136.5H82V135.5H78V136.5ZM86 136.5H90V135.5H86V136.5ZM94 136.5H98V135.5H94V136.5ZM102 136.5H106V135.5H102V136.5ZM110 136.5H114V135.5H110V136.5ZM118 136.5H122V135.5H118V136.5ZM126 136.5H130V135.5H126V136.5ZM134 136.5H138V135.5H134V136.5ZM142 136.5H146V135.5H142V136.5ZM150 136.5H154V135.5H150V136.5ZM158 136.5H162V135.5H158V136.5ZM166 136.5H170V135.5H166V136.5ZM174 136.5H178V135.5H174V136.5ZM182 136.5H186V135.5H182V136.5ZM190 136.5H194V135.5H190V136.5ZM198 136.5H202V135.5H198V136.5ZM206 136.5H210V135.5H206V136.5ZM214 136.5H218V135.5H214V136.5ZM222 136.5H226V135.5H222V136.5ZM230 136.5H234V135.5H230V136.5ZM238 136.5H242V135.5H238V136.5ZM246 136.5H250V135.5H246V136.5ZM254 136.5H258V135.5H254V136.5ZM262 136.5H266V135.5H262V136.5ZM270 136.5H274V135.5H270V136.5ZM278 136.5H282V135.5H278V136.5ZM286 136.5H290V135.5H286V136.5ZM294 136.5H298V135.5H294V136.5ZM302 136.5H306V135.5H302V136.5ZM310 136.5H314V135.5H310V136.5ZM318 136.5H322V135.5H318V136.5ZM326 136.5H330V135.5H326V136.5ZM334 136.5H338V135.5H334V136.5ZM342 136.5H346V135.5H342V136.5ZM350 136.5H354V135.5H350V136.5ZM358 136.5H360V135.5H358V136.5ZM360.5 136V134H359.5V136H360.5ZM360.5 130V126H359.5V130H360.5ZM360.5 122V118H359.5V122H360.5ZM360.5 114V110H359.5V114H360.5ZM360.5 106V102H359.5V106H360.5ZM360.5 98V96H359.5V98H360.5ZM360 136V137H361V136H360ZM24 136H23V137H24V136ZM23 96V98H25V96H23ZM23 102V106H25V102H23ZM23 110V114H25V110H23ZM23 118V122H25V118H23ZM23 126V130H25V126H23ZM23 134V136H25V134H23ZM24 137H26V135H24V137ZM30 137H34V135H30V137ZM38 137H42V135H38V137ZM46 137H50V135H46V137ZM54 137H58V135H54V137ZM62 137H66V135H62V137ZM70 137H74V135H70V137ZM78 137H82V135H78V137ZM86 137H90V135H86V137ZM94 137H98V135H94V137ZM102 137H106V135H102V137ZM110 137H114V135H110V137ZM118 137H122V135H118V137ZM126 137H130V135H126V137ZM134 137H138V135H134V137ZM142 137H146V135H142V137ZM150 137H154V135H150V137ZM158 137H162V135H158V137ZM166 137H170V135H166V137ZM174 137H178V135H174V137ZM182 137H186V135H182V137ZM190 137H194V135H190V137ZM198 137H202V135H198V137ZM206 137H210V135H206V137ZM214 137H218V135H214V137ZM222 137H226V135H222V137ZM230 137H234V135H230V137ZM238 137H242V135H238V137ZM246 137H250V135H246V137ZM254 137H258V135H254V137ZM262 137H266V135H262V137ZM270 137H274V135H270V137ZM278 137H282V135H278V137ZM286 137H290V135H286V137ZM294 137H298V135H294V137ZM302 137H306V135H302V137ZM310 137H314V135H310V137ZM318 137H322V135H318V137ZM326 137H330V135H326V137ZM334 137H338V135H334V137ZM342 137H346V135H342V137ZM350 137H354V135H350V137ZM358 137H360V135H358V137ZM361 136V134H359V136H361ZM361 130V126H359V130H361ZM361 122V118H359V122H361ZM361 114V110H359V114H361ZM361 106V102H359V106H361ZM361 98V96H359V98H361Z"></path>
<g clip-path="url(#clip0_6544_105797)">
<mask fill="white" id="path-4-inside-2_6544_105797">
<path d="M24 24H360V96H24V24Z"></path>
</mask>
<path fill="#F7F7F7" d="M24 24H360V96H24V24Z"></path>
<path fill="#262626" d="M29.272 78.216C28.468 78.216 27.742 78.054 27.094 77.73C26.458 77.406 25.954 76.872 25.582 76.128C25.21 75.384 25.024 74.382 25.024 73.122V66.192H26.518V73.158C26.518 74.106 26.638 74.856 26.878 75.408C27.13 75.948 27.46 76.332 27.868 76.56C28.288 76.788 28.756 76.902 29.272 76.902C29.8 76.902 30.274 76.788 30.694 76.56C31.114 76.332 31.444 75.948 31.684 75.408C31.936 74.856 32.062 74.106 32.062 73.158V66.192H33.502V73.122C33.502 74.382 33.316 75.384 32.944 76.128C32.572 76.872 32.068 77.406 31.432 77.73C30.796 78.054 30.076 78.216 29.272 78.216ZM39.2896 78.216C38.3536 78.216 37.6996 77.946 37.3276 77.406C36.9676 76.866 36.7876 76.164 36.7876 75.3V70.458H35.4916V69.342L36.8596 69.252L37.0396 66.804H38.2816V69.252H40.6396V70.458H38.2816V75.318C38.2816 75.858 38.3776 76.278 38.5696 76.578C38.7736 76.866 39.1276 77.01 39.6316 77.01C39.7876 77.01 39.9556 76.986 40.1356 76.938C40.3156 76.878 40.4776 76.824 40.6216 76.776L40.9096 77.892C40.6696 77.976 40.4056 78.048 40.1176 78.108C39.8416 78.18 39.5656 78.216 39.2896 78.216ZM46.4876 78.216C46.0796 78.216 45.6536 78.12 45.2096 77.928C44.7776 77.724 44.3696 77.448 43.9856 77.1H43.9316L43.8056 78H42.6176V65.184H44.0936V68.676L44.0576 70.26C44.4536 69.912 44.8856 69.624 45.3536 69.396C45.8336 69.156 46.3136 69.036 46.7936 69.036C47.9336 69.036 48.7976 69.438 49.3856 70.242C49.9736 71.046 50.2676 72.126 50.2676 73.482C50.2676 74.478 50.0876 75.33 49.7276 76.038C49.3796 76.746 48.9176 77.286 48.3416 77.658C47.7776 78.03 47.1596 78.216 46.4876 78.216ZM46.2356 76.974C46.9556 76.974 47.5496 76.668 48.0176 76.056C48.4976 75.432 48.7376 74.58 48.7376 73.5C48.7376 72.54 48.5576 71.766 48.1976 71.178C47.8496 70.578 47.2616 70.278 46.4336 70.278C46.0616 70.278 45.6836 70.38 45.2996 70.584C44.9156 70.788 44.5136 71.082 44.0936 71.466V76.056C44.4776 76.392 44.8556 76.632 45.2276 76.776C45.6116 76.908 45.9476 76.974 46.2356 76.974ZM56.1128 78.216C55.3328 78.216 54.6248 78.036 53.9888 77.676C53.3528 77.304 52.8488 76.776 52.4768 76.092C52.1048 75.408 51.9188 74.592 51.9188 73.644C51.9188 72.684 52.1048 71.862 52.4768 71.178C52.8608 70.494 53.3528 69.966 53.9528 69.594C54.5528 69.222 55.1828 69.036 55.8428 69.036C56.9588 69.036 57.8168 69.408 58.4168 70.152C59.0288 70.896 59.3348 71.892 59.3348 73.14C59.3348 73.296 59.3288 73.452 59.3168 73.608C59.3168 73.752 59.3048 73.878 59.2808 73.986H53.3768C53.4368 74.91 53.7248 75.648 54.2408 76.2C54.7688 76.752 55.4528 77.028 56.2928 77.028C56.7128 77.028 57.0968 76.968 57.4448 76.848C57.8048 76.716 58.1468 76.548 58.4708 76.344L58.9928 77.316C58.6208 77.556 58.1948 77.766 57.7148 77.946C57.2468 78.126 56.7128 78.216 56.1128 78.216ZM53.3588 72.924H58.0388C58.0388 72.036 57.8468 71.364 57.4628 70.908C57.0908 70.44 56.5628 70.206 55.8788 70.206C55.2668 70.206 54.7148 70.446 54.2228 70.926C53.7428 71.394 53.4548 72.06 53.3588 72.924ZM64.0747 78.216C63.1387 78.216 62.4847 77.946 62.1127 77.406C61.7527 76.866 61.5727 76.164 61.5727 75.3V70.458H60.2767V69.342L61.6447 69.252L61.8247 66.804H63.0667V69.252H65.4247V70.458H63.0667V75.318C63.0667 75.858 63.1627 76.278 63.3547 76.578C63.5587 76.866 63.9127 77.01 64.4167 77.01C64.5727 77.01 64.7407 76.986 64.9207 76.938C65.1007 76.878 65.2627 76.824 65.4067 76.776L65.6947 77.892C65.4547 77.976 65.1907 78.048 64.9027 78.108C64.6267 78.18 64.3507 78.216 64.0747 78.216ZM69.032 78.216C68.3 78.216 67.688 78 67.196 77.568C66.716 77.124 66.476 76.512 66.476 75.732C66.476 74.772 66.902 74.04 67.754 73.536C68.618 73.02 69.98 72.66 71.84 72.456C71.84 72.084 71.786 71.73 71.678 71.394C71.582 71.058 71.402 70.788 71.138 70.584C70.886 70.368 70.52 70.26 70.04 70.26C69.536 70.26 69.062 70.356 68.618 70.548C68.174 70.74 67.778 70.956 67.43 71.196L66.854 70.17C67.262 69.906 67.76 69.654 68.348 69.414C68.948 69.162 69.596 69.036 70.292 69.036C71.36 69.036 72.134 69.366 72.614 70.026C73.094 70.674 73.334 71.544 73.334 72.636V78H72.11L71.984 76.956H71.93C71.522 77.292 71.072 77.586 70.58 77.838C70.1 78.09 69.584 78.216 69.032 78.216ZM69.464 77.028C69.884 77.028 70.28 76.926 70.652 76.722C71.024 76.518 71.42 76.23 71.84 75.858V73.428C70.388 73.608 69.368 73.878 68.78 74.238C68.204 74.598 67.916 75.06 67.916 75.624C67.916 76.116 68.066 76.476 68.366 76.704C68.666 76.92 69.032 77.028 69.464 77.028ZM77.6524 78.216C77.1004 78.216 76.6984 78.048 76.4464 77.712C76.2064 77.364 76.0864 76.872 76.0864 76.236V65.184H77.5624V76.344C77.5624 76.572 77.6044 76.74 77.6884 76.848C77.7724 76.944 77.8684 76.992 77.9764 76.992C78.0244 76.992 78.0664 76.992 78.1024 76.992C78.1504 76.98 78.2164 76.968 78.3004 76.956L78.4984 78.072C78.4024 78.12 78.2884 78.156 78.1564 78.18C78.0244 78.204 77.8564 78.216 77.6524 78.216ZM80.6742 78V69.252H82.1502V78H80.6742ZM81.4302 67.452C81.1422 67.452 80.9022 67.368 80.7102 67.2C80.5302 67.02 80.4402 66.78 80.4402 66.48C80.4402 66.192 80.5302 65.958 80.7102 65.778C80.9022 65.598 81.1422 65.508 81.4302 65.508C81.7182 65.508 81.9522 65.598 82.1322 65.778C82.3242 65.958 82.4202 66.192 82.4202 66.48C82.4202 66.78 82.3242 67.02 82.1322 67.2C81.9522 67.368 81.7182 67.452 81.4302 67.452ZM85.1039 78V69.252H86.3279L86.4539 70.512H86.5079C86.9279 70.092 87.3719 69.744 87.8399 69.468C88.3079 69.18 88.8419 69.036 89.4419 69.036C90.3659 69.036 91.0379 69.33 91.4579 69.918C91.8899 70.494 92.1059 71.34 92.1059 72.456V78H90.6299V72.654C90.6299 71.838 90.4979 71.244 90.2339 70.872C89.9699 70.5 89.5499 70.314 88.9739 70.314C88.5299 70.314 88.1279 70.428 87.7679 70.656C87.4199 70.884 87.0239 71.22 86.5799 71.664V78H85.1039ZM97.8997 82.032C96.8317 82.032 95.9617 81.828 95.2897 81.42C94.6177 81.012 94.2817 80.43 94.2817 79.674C94.2817 79.302 94.3957 78.942 94.6237 78.594C94.8517 78.258 95.1637 77.958 95.5597 77.694V77.622C95.3437 77.49 95.1577 77.304 95.0017 77.064C94.8577 76.824 94.7857 76.536 94.7857 76.2C94.7857 75.828 94.8877 75.504 95.0917 75.228C95.2957 74.952 95.5117 74.736 95.7397 74.58V74.508C95.4517 74.268 95.1877 73.944 94.9477 73.536C94.7197 73.128 94.6057 72.666 94.6057 72.15C94.6057 71.514 94.7557 70.962 95.0557 70.494C95.3557 70.026 95.7577 69.666 96.2617 69.414C96.7657 69.162 97.3117 69.036 97.8997 69.036C98.1397 69.036 98.3677 69.06 98.5837 69.108C98.7997 69.144 98.9857 69.192 99.1417 69.252H102.184V70.386H100.384C100.588 70.578 100.756 70.836 100.888 71.16C101.032 71.472 101.104 71.814 101.104 72.186C101.104 72.81 100.96 73.35 100.672 73.806C100.384 74.262 99.9997 74.616 99.5197 74.868C99.0397 75.108 98.4997 75.228 97.8997 75.228C97.4317 75.228 96.9937 75.126 96.5857 74.922C96.4297 75.054 96.2977 75.204 96.1897 75.372C96.0817 75.528 96.0277 75.726 96.0277 75.966C96.0277 76.242 96.1357 76.47 96.3517 76.65C96.5797 76.83 96.9877 76.92 97.5757 76.92H99.2677C100.288 76.92 101.05 77.088 101.554 77.424C102.07 77.748 102.328 78.276 102.328 79.008C102.328 79.548 102.148 80.046 101.788 80.502C101.428 80.958 100.918 81.324 100.258 81.6C99.5977 81.888 98.8117 82.032 97.8997 82.032ZM97.8997 74.238C98.4037 74.238 98.8357 74.052 99.1957 73.68C99.5677 73.296 99.7537 72.786 99.7537 72.15C99.7537 71.514 99.5737 71.016 99.2137 70.656C98.8537 70.296 98.4157 70.116 97.8997 70.116C97.3837 70.116 96.9457 70.296 96.5857 70.656C96.2257 71.016 96.0457 71.514 96.0457 72.15C96.0457 72.786 96.2257 73.296 96.5857 73.68C96.9577 74.052 97.3957 74.238 97.8997 74.238ZM98.1157 81.006C98.9557 81.006 99.6277 80.82 100.132 80.448C100.636 80.088 100.888 79.68 100.888 79.224C100.888 78.816 100.732 78.534 100.42 78.378C100.12 78.222 99.6877 78.144 99.1237 78.144H97.6117C97.4437 78.144 97.2577 78.132 97.0537 78.108C96.8617 78.084 96.6697 78.048 96.4777 78C96.1657 78.228 95.9377 78.468 95.7937 78.72C95.6497 78.972 95.5777 79.224 95.5777 79.476C95.5777 79.944 95.7997 80.316 96.2437 80.592C96.6997 80.868 97.3237 81.006 98.1157 81.006Z"></path>
<path mask="url(#path-6-inside-3_6544_105797)" fill="#0067C5" d="M119 92H7V100H119V92Z"></path>
<path fill="#262626" d="M138.861 54L135.081 42.192H136.683L138.573 48.564C138.789 49.26 138.975 49.914 139.131 50.526C139.299 51.126 139.497 51.774 139.725 52.47H139.797C140.013 51.774 140.205 51.126 140.373 50.526C140.541 49.914 140.727 49.26 140.931 48.564L142.821 42.192H144.351L140.607 54H138.861ZM145.821 54V45.252H147.297V54H145.821ZM146.577 43.452C146.289 43.452 146.049 43.368 145.857 43.2C145.677 43.02 145.587 42.78 145.587 42.48C145.587 42.192 145.677 41.958 145.857 41.778C146.049 41.598 146.289 41.508 146.577 41.508C146.865 41.508 147.099 41.598 147.279 41.778C147.471 41.958 147.567 42.192 147.567 42.48C147.567 42.78 147.471 43.02 147.279 43.2C147.099 43.368 146.865 43.452 146.577 43.452ZM151.816 54.216C151.264 54.216 150.862 54.048 150.61 53.712C150.37 53.364 150.25 52.872 150.25 52.236V41.184H151.726V52.344C151.726 52.572 151.768 52.74 151.852 52.848C151.936 52.944 152.032 52.992 152.14 52.992C152.188 52.992 152.23 52.992 152.266 52.992C152.314 52.98 152.38 52.968 152.464 52.956L152.662 54.072C152.566 54.12 152.452 54.156 152.32 54.18C152.188 54.204 152.02 54.216 151.816 54.216ZM154.838 54V41.184H156.296V49.86H156.35L160.076 45.252H161.714L158.78 48.762L162.11 54H160.49L157.934 49.788L156.296 51.696V54H154.838ZM165.591 54.216C164.859 54.216 164.247 54 163.755 53.568C163.275 53.124 163.035 52.512 163.035 51.732C163.035 50.772 163.461 50.04 164.313 49.536C165.177 49.02 166.539 48.66 168.399 48.456C168.399 48.084 168.345 47.73 168.237 47.394C168.141 47.058 167.961 46.788 167.697 46.584C167.445 46.368 167.079 46.26 166.599 46.26C166.095 46.26 165.621 46.356 165.177 46.548C164.733 46.74 164.337 46.956 163.989 47.196L163.413 46.17C163.821 45.906 164.319 45.654 164.907 45.414C165.507 45.162 166.155 45.036 166.851 45.036C167.919 45.036 168.693 45.366 169.173 46.026C169.653 46.674 169.893 47.544 169.893 48.636V54H168.669L168.543 52.956H168.489C168.081 53.292 167.631 53.586 167.139 53.838C166.659 54.09 166.143 54.216 165.591 54.216ZM166.023 53.028C166.443 53.028 166.839 52.926 167.211 52.722C167.583 52.518 167.979 52.23 168.399 51.858V49.428C166.947 49.608 165.927 49.878 165.339 50.238C164.763 50.598 164.475 51.06 164.475 51.624C164.475 52.116 164.625 52.476 164.925 52.704C165.225 52.92 165.591 53.028 166.023 53.028ZM166.905 44.028C166.305 44.028 165.825 43.86 165.465 43.524C165.105 43.188 164.925 42.762 164.925 42.246C164.925 41.742 165.105 41.322 165.465 40.986C165.825 40.65 166.305 40.482 166.905 40.482C167.505 40.482 167.985 40.65 168.345 40.986C168.705 41.322 168.885 41.742 168.885 42.246C168.885 42.762 168.705 43.188 168.345 43.524C167.985 43.86 167.505 44.028 166.905 44.028ZM166.905 43.362C167.193 43.362 167.433 43.26 167.625 43.056C167.829 42.852 167.931 42.582 167.931 42.246C167.931 41.91 167.829 41.646 167.625 41.454C167.433 41.25 167.193 41.148 166.905 41.148C166.617 41.148 166.371 41.25 166.167 41.454C165.975 41.646 165.879 41.91 165.879 42.246C165.879 42.582 165.975 42.852 166.167 43.056C166.371 43.26 166.617 43.362 166.905 43.362ZM172.645 54V45.252H173.869L173.995 46.836H174.049C174.349 46.284 174.715 45.846 175.147 45.522C175.579 45.198 176.041 45.036 176.533 45.036C176.881 45.036 177.193 45.096 177.469 45.216L177.181 46.512C177.037 46.464 176.905 46.428 176.785 46.404C176.665 46.38 176.515 46.368 176.335 46.368C175.963 46.368 175.573 46.518 175.165 46.818C174.769 47.118 174.421 47.64 174.121 48.384V54H172.645ZM184.775 54.216C184.151 54.216 183.557 54.102 182.993 53.874C182.429 53.634 181.937 53.346 181.517 53.01L182.255 52.02C182.639 52.32 183.035 52.572 183.443 52.776C183.851 52.968 184.313 53.064 184.829 53.064C185.405 53.064 185.837 52.932 186.125 52.668C186.413 52.392 186.557 52.068 186.557 51.696C186.557 51.396 186.455 51.144 186.251 50.94C186.059 50.736 185.807 50.568 185.495 50.436C185.195 50.292 184.883 50.16 184.559 50.04C184.151 49.884 183.749 49.71 183.353 49.518C182.957 49.314 182.633 49.056 182.381 48.744C182.129 48.42 182.003 48.012 182.003 47.52C182.003 46.812 182.267 46.224 182.795 45.756C183.335 45.276 184.079 45.036 185.027 45.036C185.567 45.036 186.071 45.132 186.539 45.324C187.007 45.516 187.409 45.75 187.745 46.026L187.025 46.962C186.725 46.734 186.413 46.548 186.089 46.404C185.765 46.26 185.411 46.188 185.027 46.188C184.475 46.188 184.067 46.314 183.803 46.566C183.551 46.818 183.425 47.112 183.425 47.448C183.425 47.724 183.515 47.952 183.695 48.132C183.875 48.3 184.109 48.45 184.397 48.582C184.685 48.702 184.991 48.828 185.315 48.96C185.735 49.116 186.149 49.296 186.557 49.5C186.965 49.692 187.301 49.956 187.565 50.292C187.841 50.616 187.979 51.054 187.979 51.606C187.979 52.074 187.853 52.506 187.601 52.902C187.361 53.298 187.001 53.616 186.521 53.856C186.053 54.096 185.471 54.216 184.775 54.216ZM193.432 54.216C192.724 54.216 192.058 54.036 191.434 53.676C190.822 53.316 190.324 52.794 189.94 52.11C189.568 51.426 189.382 50.604 189.382 49.644C189.382 48.66 189.568 47.826 189.94 47.142C190.324 46.458 190.822 45.936 191.434 45.576C192.058 45.216 192.724 45.036 193.432 45.036C194.152 45.036 194.818 45.216 195.43 45.576C196.042 45.936 196.534 46.458 196.906 47.142C197.29 47.826 197.482 48.66 197.482 49.644C197.482 50.604 197.29 51.426 196.906 52.11C196.534 52.794 196.042 53.316 195.43 53.676C194.818 54.036 194.152 54.216 193.432 54.216ZM193.432 52.992C194.188 52.992 194.794 52.686 195.25 52.074C195.718 51.45 195.952 50.64 195.952 49.644C195.952 48.636 195.718 47.82 195.25 47.196C194.794 46.572 194.188 46.26 193.432 46.26C192.688 46.26 192.082 46.572 191.614 47.196C191.146 47.82 190.912 48.636 190.912 49.644C190.912 50.64 191.146 51.45 191.614 52.074C192.082 52.686 192.688 52.992 193.432 52.992ZM199.786 54V45.252H201.01L201.136 46.512H201.19C201.574 46.092 201.994 45.744 202.45 45.468C202.906 45.18 203.392 45.036 203.908 45.036C204.58 45.036 205.102 45.186 205.474 45.486C205.858 45.774 206.14 46.182 206.32 46.71C206.776 46.218 207.238 45.816 207.706 45.504C208.174 45.192 208.672 45.036 209.2 45.036C210.1 45.036 210.766 45.33 211.198 45.918C211.642 46.494 211.864 47.34 211.864 48.456V54H210.388V48.654C210.388 47.838 210.256 47.244 209.992 46.872C209.728 46.5 209.32 46.314 208.768 46.314C208.12 46.314 207.388 46.764 206.572 47.664V54H205.096V48.654C205.096 47.838 204.964 47.244 204.7 46.872C204.436 46.5 204.022 46.314 203.458 46.314C202.81 46.314 202.078 46.764 201.262 47.664V54H199.786ZM219.879 54.216C219.327 54.216 218.925 54.048 218.673 53.712C218.433 53.364 218.313 52.872 218.313 52.236V41.184H219.789V52.344C219.789 52.572 219.831 52.74 219.915 52.848C219.999 52.944 220.095 52.992 220.203 52.992C220.251 52.992 220.293 52.992 220.329 52.992C220.377 52.98 220.443 52.968 220.527 52.956L220.725 54.072C220.629 54.12 220.515 54.156 220.383 54.18C220.251 54.204 220.083 54.216 219.879 54.216ZM222.901 54V45.252H224.377V54H222.901ZM223.657 43.452C223.369 43.452 223.129 43.368 222.937 43.2C222.757 43.02 222.667 42.78 222.667 42.48C222.667 42.192 222.757 41.958 222.937 41.778C223.129 41.598 223.369 41.508 223.657 41.508C223.945 41.508 224.179 41.598 224.359 41.778C224.551 41.958 224.647 42.192 224.647 42.48C224.647 42.78 224.551 43.02 224.359 43.2C224.179 43.368 223.945 43.452 223.657 43.452ZM230.282 58.032C229.214 58.032 228.344 57.828 227.672 57.42C227 57.012 226.664 56.43 226.664 55.674C226.664 55.302 226.778 54.942 227.006 54.594C227.234 54.258 227.546 53.958 227.942 53.694V53.622C227.726 53.49 227.54 53.304 227.384 53.064C227.24 52.824 227.168 52.536 227.168 52.2C227.168 51.828 227.27 51.504 227.474 51.228C227.678 50.952 227.894 50.736 228.122 50.58V50.508C227.834 50.268 227.57 49.944 227.33 49.536C227.102 49.128 226.988 48.666 226.988 48.15C226.988 47.514 227.138 46.962 227.438 46.494C227.738 46.026 228.14 45.666 228.644 45.414C229.148 45.162 229.694 45.036 230.282 45.036C230.522 45.036 230.75 45.06 230.966 45.108C231.182 45.144 231.368 45.192 231.524 45.252H234.566V46.386H232.766C232.97 46.578 233.138 46.836 233.27 47.16C233.414 47.472 233.486 47.814 233.486 48.186C233.486 48.81 233.342 49.35 233.054 49.806C232.766 50.262 232.382 50.616 231.902 50.868C231.422 51.108 230.882 51.228 230.282 51.228C229.814 51.228 229.376 51.126 228.968 50.922C228.812 51.054 228.68 51.204 228.572 51.372C228.464 51.528 228.41 51.726 228.41 51.966C228.41 52.242 228.518 52.47 228.734 52.65C228.962 52.83 229.37 52.92 229.958 52.92H231.65C232.67 52.92 233.432 53.088 233.936 53.424C234.452 53.748 234.71 54.276 234.71 55.008C234.71 55.548 234.53 56.046 234.17 56.502C233.81 56.958 233.3 57.324 232.64 57.6C231.98 57.888 231.194 58.032 230.282 58.032ZM230.282 50.238C230.786 50.238 231.218 50.052 231.578 49.68C231.95 49.296 232.136 48.786 232.136 48.15C232.136 47.514 231.956 47.016 231.596 46.656C231.236 46.296 230.798 46.116 230.282 46.116C229.766 46.116 229.328 46.296 228.968 46.656C228.608 47.016 228.428 47.514 228.428 48.15C228.428 48.786 228.608 49.296 228.968 49.68C229.34 50.052 229.778 50.238 230.282 50.238ZM230.498 57.006C231.338 57.006 232.01 56.82 232.514 56.448C233.018 56.088 233.27 55.68 233.27 55.224C233.27 54.816 233.114 54.534 232.802 54.378C232.502 54.222 232.07 54.144 231.506 54.144H229.994C229.826 54.144 229.64 54.132 229.436 54.108C229.244 54.084 229.052 54.048 228.86 54C228.548 54.228 228.32 54.468 228.176 54.72C228.032 54.972 227.96 55.224 227.96 55.476C227.96 55.944 228.182 56.316 228.626 56.592C229.082 56.868 229.706 57.006 230.498 57.006ZM239.353 58.032C238.285 58.032 237.415 57.828 236.743 57.42C236.071 57.012 235.735 56.43 235.735 55.674C235.735 55.302 235.849 54.942 236.077 54.594C236.305 54.258 236.617 53.958 237.013 53.694V53.622C236.797 53.49 236.611 53.304 236.455 53.064C236.311 52.824 236.239 52.536 236.239 52.2C236.239 51.828 236.341 51.504 236.545 51.228C236.749 50.952 236.965 50.736 237.193 50.58V50.508C236.905 50.268 236.641 49.944 236.401 49.536C236.173 49.128 236.059 48.666 236.059 48.15C236.059 47.514 236.209 46.962 236.509 46.494C236.809 46.026 237.211 45.666 237.715 45.414C238.219 45.162 238.765 45.036 239.353 45.036C239.593 45.036 239.821 45.06 240.037 45.108C240.253 45.144 240.439 45.192 240.595 45.252H243.637V46.386H241.837C242.041 46.578 242.209 46.836 242.341 47.16C242.485 47.472 242.557 47.814 242.557 48.186C242.557 48.81 242.413 49.35 242.125 49.806C241.837 50.262 241.453 50.616 240.973 50.868C240.493 51.108 239.953 51.228 239.353 51.228C238.885 51.228 238.447 51.126 238.039 50.922C237.883 51.054 237.751 51.204 237.643 51.372C237.535 51.528 237.481 51.726 237.481 51.966C237.481 52.242 237.589 52.47 237.805 52.65C238.033 52.83 238.441 52.92 239.029 52.92H240.721C241.741 52.92 242.503 53.088 243.007 53.424C243.523 53.748 243.781 54.276 243.781 55.008C243.781 55.548 243.601 56.046 243.241 56.502C242.881 56.958 242.371 57.324 241.711 57.6C241.051 57.888 240.265 58.032 239.353 58.032ZM239.353 50.238C239.857 50.238 240.289 50.052 240.649 49.68C241.021 49.296 241.207 48.786 241.207 48.15C241.207 47.514 241.027 47.016 240.667 46.656C240.307 46.296 239.869 46.116 239.353 46.116C238.837 46.116 238.399 46.296 238.039 46.656C237.679 47.016 237.499 47.514 237.499 48.15C237.499 48.786 237.679 49.296 238.039 49.68C238.411 50.052 238.849 50.238 239.353 50.238ZM239.569 57.006C240.409 57.006 241.081 56.82 241.585 56.448C242.089 56.088 242.341 55.68 242.341 55.224C242.341 54.816 242.185 54.534 241.873 54.378C241.573 54.222 241.141 54.144 240.577 54.144H239.065C238.897 54.144 238.711 54.132 238.507 54.108C238.315 54.084 238.123 54.048 237.931 54C237.619 54.228 237.391 54.468 237.247 54.72C237.103 54.972 237.031 55.224 237.031 55.476C237.031 55.944 237.253 56.316 237.697 56.592C238.153 56.868 238.777 57.006 239.569 57.006ZM248.771 54.216C247.991 54.216 247.283 54.036 246.647 53.676C246.011 53.304 245.507 52.776 245.135 52.092C244.763 51.408 244.577 50.592 244.577 49.644C244.577 48.684 244.763 47.862 245.135 47.178C245.519 46.494 246.011 45.966 246.611 45.594C247.211 45.222 247.841 45.036 248.501 45.036C249.617 45.036 250.475 45.408 251.075 46.152C251.687 46.896 251.993 47.892 251.993 49.14C251.993 49.296 251.987 49.452 251.975 49.608C251.975 49.752 251.963 49.878 251.939 49.986H246.035C246.095 50.91 246.383 51.648 246.899 52.2C247.427 52.752 248.111 53.028 248.951 53.028C249.371 53.028 249.755 52.968 250.103 52.848C250.463 52.716 250.805 52.548 251.129 52.344L251.651 53.316C251.279 53.556 250.853 53.766 250.373 53.946C249.905 54.126 249.371 54.216 248.771 54.216ZM246.017 48.924H250.697C250.697 48.036 250.505 47.364 250.121 46.908C249.749 46.44 249.221 46.206 248.537 46.206C247.925 46.206 247.373 46.446 246.881 46.926C246.401 47.394 246.113 48.06 246.017 48.924ZM254.155 54V45.252H255.379L255.505 46.836H255.559C255.859 46.284 256.225 45.846 256.657 45.522C257.089 45.198 257.551 45.036 258.043 45.036C258.391 45.036 258.703 45.096 258.979 45.216L258.691 46.512C258.547 46.464 258.415 46.428 258.295 46.404C258.175 46.38 258.025 46.368 257.845 46.368C257.473 46.368 257.083 46.518 256.675 46.818C256.279 47.118 255.931 47.64 255.631 48.384V54H254.155ZM141.675 78.216C140.739 78.216 140.085 77.946 139.713 77.406C139.353 76.866 139.173 76.164 139.173 75.3V70.458H137.877V69.342L139.245 69.252L139.425 66.804H140.667V69.252H143.025V70.458H140.667V75.318C140.667 75.858 140.763 76.278 140.955 76.578C141.159 76.866 141.513 77.01 142.017 77.01C142.173 77.01 142.341 76.986 142.521 76.938C142.701 76.878 142.863 76.824 143.007 76.776L143.295 77.892C143.055 77.976 142.791 78.048 142.503 78.108C142.227 78.18 141.951 78.216 141.675 78.216ZM145.003 78V69.252H146.479V78H145.003ZM145.759 67.452C145.471 67.452 145.231 67.368 145.039 67.2C144.859 67.02 144.769 66.78 144.769 66.48C144.769 66.192 144.859 65.958 145.039 65.778C145.231 65.598 145.471 65.508 145.759 65.508C146.047 65.508 146.281 65.598 146.461 65.778C146.653 65.958 146.749 66.192 146.749 66.48C146.749 66.78 146.653 67.02 146.461 67.2C146.281 67.368 146.047 67.452 145.759 67.452ZM150.999 78.216C150.447 78.216 150.045 78.048 149.793 77.712C149.553 77.364 149.433 76.872 149.433 76.236V65.184H150.909V76.344C150.909 76.572 150.951 76.74 151.035 76.848C151.119 76.944 151.215 76.992 151.323 76.992C151.371 76.992 151.413 76.992 151.449 76.992C151.497 76.98 151.563 76.968 151.647 76.956L151.845 78.072C151.749 78.12 151.635 78.156 151.503 78.18C151.371 78.204 151.203 78.216 150.999 78.216ZM160.576 82.032C159.508 82.032 158.638 81.828 157.966 81.42C157.294 81.012 156.958 80.43 156.958 79.674C156.958 79.302 157.072 78.942 157.3 78.594C157.528 78.258 157.84 77.958 158.236 77.694V77.622C158.02 77.49 157.834 77.304 157.678 77.064C157.534 76.824 157.462 76.536 157.462 76.2C157.462 75.828 157.564 75.504 157.768 75.228C157.972 74.952 158.188 74.736 158.416 74.58V74.508C158.128 74.268 157.864 73.944 157.624 73.536C157.396 73.128 157.282 72.666 157.282 72.15C157.282 71.514 157.432 70.962 157.732 70.494C158.032 70.026 158.434 69.666 158.938 69.414C159.442 69.162 159.988 69.036 160.576 69.036C160.816 69.036 161.044 69.06 161.26 69.108C161.476 69.144 161.662 69.192 161.818 69.252H164.86V70.386H163.06C163.264 70.578 163.432 70.836 163.564 71.16C163.708 71.472 163.78 71.814 163.78 72.186C163.78 72.81 163.636 73.35 163.348 73.806C163.06 74.262 162.676 74.616 162.196 74.868C161.716 75.108 161.176 75.228 160.576 75.228C160.108 75.228 159.67 75.126 159.262 74.922C159.106 75.054 158.974 75.204 158.866 75.372C158.758 75.528 158.704 75.726 158.704 75.966C158.704 76.242 158.812 76.47 159.028 76.65C159.256 76.83 159.664 76.92 160.252 76.92H161.944C162.964 76.92 163.726 77.088 164.23 77.424C164.746 77.748 165.004 78.276 165.004 79.008C165.004 79.548 164.824 80.046 164.464 80.502C164.104 80.958 163.594 81.324 162.934 81.6C162.274 81.888 161.488 82.032 160.576 82.032ZM160.576 74.238C161.08 74.238 161.512 74.052 161.872 73.68C162.244 73.296 162.43 72.786 162.43 72.15C162.43 71.514 162.25 71.016 161.89 70.656C161.53 70.296 161.092 70.116 160.576 70.116C160.06 70.116 159.622 70.296 159.262 70.656C158.902 71.016 158.722 71.514 158.722 72.15C158.722 72.786 158.902 73.296 159.262 73.68C159.634 74.052 160.072 74.238 160.576 74.238ZM160.792 81.006C161.632 81.006 162.304 80.82 162.808 80.448C163.312 80.088 163.564 79.68 163.564 79.224C163.564 78.816 163.408 78.534 163.096 78.378C162.796 78.222 162.364 78.144 161.8 78.144H160.288C160.12 78.144 159.934 78.132 159.73 78.108C159.538 78.084 159.346 78.048 159.154 78C158.842 78.228 158.614 78.468 158.47 78.72C158.326 78.972 158.254 79.224 158.254 79.476C158.254 79.944 158.476 80.316 158.92 80.592C159.376 80.868 160 81.006 160.792 81.006ZM166.695 78V69.252H167.919L168.045 70.836H168.099C168.399 70.284 168.765 69.846 169.197 69.522C169.629 69.198 170.091 69.036 170.583 69.036C170.931 69.036 171.243 69.096 171.519 69.216L171.231 70.512C171.087 70.464 170.955 70.428 170.835 70.404C170.715 70.38 170.565 70.368 170.385 70.368C170.013 70.368 169.623 70.518 169.215 70.818C168.819 71.118 168.471 71.64 168.171 72.384V78H166.695ZM175.491 78.216C174.567 78.216 173.889 77.928 173.457 77.352C173.025 76.764 172.809 75.912 172.809 74.796V69.252H174.303V74.598C174.303 75.414 174.429 76.008 174.681 76.38C174.945 76.752 175.365 76.938 175.941 76.938C176.397 76.938 176.799 76.824 177.147 76.596C177.507 76.356 177.891 75.978 178.299 75.462V69.252H179.775V78H178.551L178.425 76.632H178.371C177.963 77.112 177.531 77.496 177.075 77.784C176.619 78.072 176.091 78.216 175.491 78.216ZM182.726 78V69.252H183.95L184.076 70.512H184.13C184.55 70.092 184.994 69.744 185.462 69.468C185.93 69.18 186.464 69.036 187.064 69.036C187.988 69.036 188.66 69.33 189.08 69.918C189.512 70.494 189.728 71.34 189.728 72.456V78H188.252V72.654C188.252 71.838 188.12 71.244 187.856 70.872C187.592 70.5 187.172 70.314 186.596 70.314C186.152 70.314 185.75 70.428 185.39 70.656C185.042 70.884 184.646 71.22 184.202 71.664V78H182.726ZM192.57 78V69.252H193.794L193.92 70.512H193.974C194.394 70.092 194.838 69.744 195.306 69.468C195.774 69.18 196.308 69.036 196.908 69.036C197.832 69.036 198.504 69.33 198.924 69.918C199.356 70.494 199.572 71.34 199.572 72.456V78H198.096V72.654C198.096 71.838 197.964 71.244 197.7 70.872C197.436 70.5 197.016 70.314 196.44 70.314C195.996 70.314 195.594 70.428 195.234 70.656C194.886 70.884 194.49 71.22 194.046 71.664V78H192.57ZM206.017 78V69.252H207.493V78H206.017ZM206.773 67.452C206.485 67.452 206.245 67.368 206.053 67.2C205.873 67.02 205.783 66.78 205.783 66.48C205.783 66.192 205.873 65.958 206.053 65.778C206.245 65.598 206.485 65.508 206.773 65.508C207.061 65.508 207.295 65.598 207.475 65.778C207.667 65.958 207.763 66.192 207.763 66.48C207.763 66.78 207.667 67.02 207.475 67.2C207.295 67.368 207.061 67.452 206.773 67.452ZM216.336 78.216C215.712 78.216 215.118 78.102 214.554 77.874C213.99 77.634 213.498 77.346 213.078 77.01L213.816 76.02C214.2 76.32 214.596 76.572 215.004 76.776C215.412 76.968 215.874 77.064 216.39 77.064C216.966 77.064 217.398 76.932 217.686 76.668C217.974 76.392 218.118 76.068 218.118 75.696C218.118 75.396 218.016 75.144 217.812 74.94C217.62 74.736 217.368 74.568 217.056 74.436C216.756 74.292 216.444 74.16 216.12 74.04C215.712 73.884 215.31 73.71 214.914 73.518C214.518 73.314 214.194 73.056 213.942 72.744C213.69 72.42 213.564 72.012 213.564 71.52C213.564 70.812 213.828 70.224 214.356 69.756C214.896 69.276 215.64 69.036 216.588 69.036C217.128 69.036 217.632 69.132 218.1 69.324C218.568 69.516 218.97 69.75 219.306 70.026L218.586 70.962C218.286 70.734 217.974 70.548 217.65 70.404C217.326 70.26 216.972 70.188 216.588 70.188C216.036 70.188 215.628 70.314 215.364 70.566C215.112 70.818 214.986 71.112 214.986 71.448C214.986 71.724 215.076 71.952 215.256 72.132C215.436 72.3 215.67 72.45 215.958 72.582C216.246 72.702 216.552 72.828 216.876 72.96C217.296 73.116 217.71 73.296 218.118 73.5C218.526 73.692 218.862 73.956 219.126 74.292C219.402 74.616 219.54 75.054 219.54 75.606C219.54 76.074 219.414 76.506 219.162 76.902C218.922 77.298 218.562 77.616 218.082 77.856C217.614 78.096 217.032 78.216 216.336 78.216ZM223.607 78.216C222.875 78.216 222.263 78 221.771 77.568C221.291 77.124 221.051 76.512 221.051 75.732C221.051 74.772 221.477 74.04 222.329 73.536C223.193 73.02 224.555 72.66 226.415 72.456C226.415 72.084 226.361 71.73 226.253 71.394C226.157 71.058 225.977 70.788 225.713 70.584C225.461 70.368 225.095 70.26 224.615 70.26C224.111 70.26 223.637 70.356 223.193 70.548C222.749 70.74 222.353 70.956 222.005 71.196L221.429 70.17C221.837 69.906 222.335 69.654 222.923 69.414C223.523 69.162 224.171 69.036 224.867 69.036C225.935 69.036 226.709 69.366 227.189 70.026C227.669 70.674 227.909 71.544 227.909 72.636V78H226.685L226.559 76.956H226.505C226.097 77.292 225.647 77.586 225.155 77.838C224.675 78.09 224.159 78.216 223.607 78.216ZM224.039 77.028C224.459 77.028 224.855 76.926 225.227 76.722C225.599 76.518 225.995 76.23 226.415 75.858V73.428C224.963 73.608 223.943 73.878 223.355 74.238C222.779 74.598 222.491 75.06 222.491 75.624C222.491 76.116 222.641 76.476 222.941 76.704C223.241 76.92 223.607 77.028 224.039 77.028ZM230.662 78V65.184H232.12V73.86H232.174L235.9 69.252H237.538L234.604 72.762L237.934 78H236.314L233.758 73.788L232.12 75.696V78H230.662ZM242.803 78.216C242.023 78.216 241.315 78.036 240.679 77.676C240.043 77.304 239.539 76.776 239.167 76.092C238.795 75.408 238.609 74.592 238.609 73.644C238.609 72.684 238.795 71.862 239.167 71.178C239.551 70.494 240.043 69.966 240.643 69.594C241.243 69.222 241.873 69.036 242.533 69.036C243.649 69.036 244.507 69.408 245.107 70.152C245.719 70.896 246.025 71.892 246.025 73.14C246.025 73.296 246.019 73.452 246.007 73.608C246.007 73.752 245.995 73.878 245.971 73.986H240.067C240.127 74.91 240.415 75.648 240.931 76.2C241.459 76.752 242.143 77.028 242.983 77.028C243.403 77.028 243.787 76.968 244.135 76.848C244.495 76.716 244.837 76.548 245.161 76.344L245.683 77.316C245.311 77.556 244.885 77.766 244.405 77.946C243.937 78.126 243.403 78.216 242.803 78.216ZM240.049 72.924H244.729C244.729 72.036 244.537 71.364 244.153 70.908C243.781 70.44 243.253 70.206 242.569 70.206C241.957 70.206 241.405 70.446 240.913 70.926C240.433 71.394 240.145 72.06 240.049 72.924ZM248.187 78V69.252H249.411L249.537 70.512H249.591C250.011 70.092 250.455 69.744 250.923 69.468C251.391 69.18 251.925 69.036 252.525 69.036C253.449 69.036 254.121 69.33 254.541 69.918C254.973 70.494 255.189 71.34 255.189 72.456V78H253.713V72.654C253.713 71.838 253.581 71.244 253.317 70.872C253.053 70.5 252.633 70.314 252.057 70.314C251.613 70.314 251.211 70.428 250.851 70.656C250.503 70.884 250.107 71.22 249.663 71.664V78H248.187Z"></path>
<path fill="#262626" d="M297.486 78.216C296.454 78.216 295.536 77.976 294.732 77.496C293.928 77.004 293.298 76.302 292.842 75.39C292.386 74.478 292.158 73.38 292.158 72.096C292.158 70.824 292.392 69.732 292.86 68.82C293.328 67.908 293.97 67.206 294.786 66.714C295.602 66.222 296.532 65.976 297.576 65.976C298.392 65.976 299.076 66.132 299.628 66.444C300.192 66.744 300.642 67.074 300.978 67.434L300.15 68.406C299.85 68.094 299.502 67.83 299.106 67.614C298.71 67.398 298.212 67.29 297.612 67.29C296.82 67.29 296.13 67.488 295.542 67.884C294.954 68.268 294.498 68.814 294.174 69.522C293.862 70.23 293.706 71.076 293.706 72.06C293.706 73.548 294.042 74.73 294.714 75.606C295.398 76.47 296.37 76.902 297.63 76.902C298.05 76.902 298.452 76.842 298.836 76.722C299.22 76.59 299.526 76.416 299.754 76.2V73.122H297.252V71.88H301.122V76.848C300.75 77.244 300.246 77.574 299.61 77.838C298.986 78.09 298.278 78.216 297.486 78.216ZM303.807 78V69.252H305.031L305.157 70.836H305.211C305.511 70.284 305.877 69.846 306.309 69.522C306.741 69.198 307.203 69.036 307.695 69.036C308.043 69.036 308.355 69.096 308.631 69.216L308.343 70.512C308.199 70.464 308.067 70.428 307.947 70.404C307.827 70.38 307.677 70.368 307.497 70.368C307.125 70.368 306.735 70.518 306.327 70.818C305.931 71.118 305.583 71.64 305.283 72.384V78H303.807ZM312.603 78.216C311.679 78.216 311.001 77.928 310.569 77.352C310.137 76.764 309.921 75.912 309.921 74.796V69.252H311.415V74.598C311.415 75.414 311.541 76.008 311.793 76.38C312.057 76.752 312.477 76.938 313.053 76.938C313.509 76.938 313.911 76.824 314.259 76.596C314.619 76.356 315.003 75.978 315.411 75.462V69.252H316.887V78H315.663L315.537 76.632H315.483C315.075 77.112 314.643 77.496 314.187 77.784C313.731 78.072 313.203 78.216 312.603 78.216ZM319.838 78V69.252H321.062L321.188 70.512H321.242C321.662 70.092 322.106 69.744 322.574 69.468C323.042 69.18 323.576 69.036 324.176 69.036C325.1 69.036 325.772 69.33 326.192 69.918C326.624 70.494 326.84 71.34 326.84 72.456V78H325.364V72.654C325.364 71.838 325.232 71.244 324.968 70.872C324.704 70.5 324.284 70.314 323.708 70.314C323.264 70.314 322.862 70.428 322.502 70.656C322.154 70.884 321.758 71.22 321.314 71.664V78H319.838ZM329.682 78V69.252H330.906L331.032 70.512H331.086C331.506 70.092 331.95 69.744 332.418 69.468C332.886 69.18 333.42 69.036 334.02 69.036C334.944 69.036 335.616 69.33 336.036 69.918C336.468 70.494 336.684 71.34 336.684 72.456V78H335.208V72.654C335.208 71.838 335.076 71.244 334.812 70.872C334.548 70.5 334.128 70.314 333.552 70.314C333.108 70.314 332.706 70.428 332.346 70.656C331.998 70.884 331.602 71.22 331.158 71.664V78H329.682ZM341.092 78.216C340.54 78.216 340.138 78.048 339.886 77.712C339.646 77.364 339.526 76.872 339.526 76.236V65.184H341.002V76.344C341.002 76.572 341.044 76.74 341.128 76.848C341.212 76.944 341.308 76.992 341.416 76.992C341.464 76.992 341.506 76.992 341.542 76.992C341.59 76.98 341.656 76.968 341.74 76.956L341.938 78.072C341.842 78.12 341.728 78.156 341.596 78.18C341.464 78.204 341.296 78.216 341.092 78.216ZM346.13 78.216C345.398 78.216 344.786 78 344.294 77.568C343.814 77.124 343.574 76.512 343.574 75.732C343.574 74.772 344 74.04 344.852 73.536C345.716 73.02 347.078 72.66 348.938 72.456C348.938 72.084 348.884 71.73 348.776 71.394C348.68 71.058 348.5 70.788 348.236 70.584C347.984 70.368 347.618 70.26 347.138 70.26C346.634 70.26 346.16 70.356 345.716 70.548C345.272 70.74 344.876 70.956 344.528 71.196L343.952 70.17C344.36 69.906 344.858 69.654 345.446 69.414C346.046 69.162 346.694 69.036 347.39 69.036C348.458 69.036 349.232 69.366 349.712 70.026C350.192 70.674 350.432 71.544 350.432 72.636V78H349.208L349.082 76.956H349.028C348.62 77.292 348.17 77.586 347.678 77.838C347.198 78.09 346.682 78.216 346.13 78.216ZM346.562 77.028C346.982 77.028 347.378 76.926 347.75 76.722C348.122 76.518 348.518 76.23 348.938 75.858V73.428C347.486 73.608 346.466 73.878 345.878 74.238C345.302 74.598 345.014 75.06 345.014 75.624C345.014 76.116 345.164 76.476 345.464 76.704C345.764 76.92 346.13 77.028 346.562 77.028ZM356.136 82.032C355.068 82.032 354.198 81.828 353.526 81.42C352.854 81.012 352.518 80.43 352.518 79.674C352.518 79.302 352.632 78.942 352.86 78.594C353.088 78.258 353.4 77.958 353.796 77.694V77.622C353.58 77.49 353.394 77.304 353.238 77.064C353.094 76.824 353.022 76.536 353.022 76.2C353.022 75.828 353.124 75.504 353.328 75.228C353.532 74.952 353.748 74.736 353.976 74.58V74.508C353.688 74.268 353.424 73.944 353.184 73.536C352.956 73.128 352.842 72.666 352.842 72.15C352.842 71.514 352.992 70.962 353.292 70.494C353.592 70.026 353.994 69.666 354.498 69.414C355.002 69.162 355.548 69.036 356.136 69.036C356.376 69.036 356.604 69.06 356.82 69.108C357.036 69.144 357.222 69.192 357.378 69.252H360.42V70.386H358.62C358.824 70.578 358.992 70.836 359.124 71.16C359.268 71.472 359.34 71.814 359.34 72.186C359.34 72.81 359.196 73.35 358.908 73.806C358.62 74.262 358.236 74.616 357.756 74.868C357.276 75.108 356.736 75.228 356.136 75.228C355.668 75.228 355.23 75.126 354.822 74.922C354.666 75.054 354.534 75.204 354.426 75.372C354.318 75.528 354.264 75.726 354.264 75.966C354.264 76.242 354.372 76.47 354.588 76.65C354.816 76.83 355.224 76.92 355.812 76.92H357.504C358.524 76.92 359.286 77.088 359.79 77.424C360.306 77.748 360.564 78.276 360.564 79.008C360.564 79.548 360.384 80.046 360.024 80.502C359.664 80.958 359.154 81.324 358.494 81.6C357.834 81.888 357.048 82.032 356.136 82.032ZM356.136 74.238C356.64 74.238 357.072 74.052 357.432 73.68C357.804 73.296 357.99 72.786 357.99 72.15C357.99 71.514 357.81 71.016 357.45 70.656C357.09 70.296 356.652 70.116 356.136 70.116C355.62 70.116 355.182 70.296 354.822 70.656C354.462 71.016 354.282 71.514 354.282 72.15C354.282 72.786 354.462 73.296 354.822 73.68C355.194 74.052 355.632 74.238 356.136 74.238ZM356.352 81.006C357.192 81.006 357.864 80.82 358.368 80.448C358.872 80.088 359.124 79.68 359.124 79.224C359.124 78.816 358.968 78.534 358.656 78.378C358.356 78.222 357.924 78.144 357.36 78.144H355.848C355.68 78.144 355.494 78.132 355.29 78.108C355.098 78.084 354.906 78.048 354.714 78C354.402 78.228 354.174 78.468 354.03 78.72C353.886 78.972 353.814 79.224 353.814 79.476C353.814 79.944 354.036 80.316 354.48 80.592C354.936 80.868 355.56 81.006 356.352 81.006Z"></path>
</g>
<path mask="url(#path-4-inside-2_6544_105797)" fill-opacity="0.19" fill="black" d="M360 95H24V97H360V95Z"></path>
<defs>
<clipPath id="clip0_6544_105797">
<path fill="white" d="M24 24H360V96H24V24Z"></path>
</clipPath>
</defs>
</svg>
