<svg xmlns="http://www.w3.org/2000/svg" fill="none" viewBox="0 0 200 200" height="200" width="200">
<path fill="white" d="M24 67C24 60.3726 29.3726 55 36 55H164C170.627 55 176 60.3726 176 67V133C176 139.627 170.627 145 164 145H36C29.3726 145 24 139.627 24 133V67Z"></path>
<path fill="#417DA0" d="M164 58H36C31.0294 58 27 62.0294 27 67V133C27 137.971 31.0294 142 36 142H164C168.971 142 173 137.971 173 133V67C173 62.0294 168.971 58 164 58ZM36 55C29.3726 55 24 60.3726 24 67V133C24 139.627 29.3726 145 36 145H164C170.627 145 176 139.627 176 133V67C176 60.3726 170.627 55 164 55H36Z" clip-rule="evenodd" fill-rule="evenodd"></path>
<rect fill="#C0D6E4" rx="4" height="8" width="108" y="98" x="54"></rect>
<path fill="#417DA0" d="M38 78C38 75.7909 39.7909 74 42 74H142C144.209 74 146 75.7909 146 78C146 80.2091 144.209 82 142 82H42C39.7909 82 38 80.2091 38 78Z"></path>
<rect fill="#C0D6E4" rx="4" height="8" width="108" y="118" x="54"></rect>
<rect fill="#C0D6E4" rx="4" height="8" width="8" y="98" x="38"></rect>
<rect fill="#C0D6E4" rx="4" height="8" width="8" y="118" x="38"></rect>
</svg>
