<svg xmlns="http://www.w3.org/2000/svg" fill="none" viewBox="0 0 384 264" height="264" width="384">
<path fill="#262626" d="M101.494 50V38.228H105.202C106.078 38.228 106.858 38.342 107.542 38.57C108.226 38.798 108.766 39.176 109.162 39.704C109.558 40.232 109.756 40.952 109.756 41.864C109.756 42.728 109.558 43.442 109.162 44.006C108.766 44.57 108.232 44.99 107.56 45.266C106.888 45.542 106.126 45.68 105.274 45.68H103.582V50H101.494ZM103.582 44.006H105.112C106.84 44.006 107.704 43.292 107.704 41.864C107.704 41.12 107.476 40.61 107.02 40.334C106.576 40.046 105.916 39.902 105.04 39.902H103.582V44.006ZM111.791 50V41.162H113.501L113.645 42.728H113.717C114.029 42.152 114.407 41.714 114.851 41.414C115.295 41.102 115.751 40.946 116.219 40.946C116.639 40.946 116.975 41.006 117.227 41.126L116.867 42.926C116.711 42.878 116.567 42.842 116.435 42.818C116.303 42.794 116.141 42.782 115.949 42.782C115.601 42.782 115.235 42.92 114.851 43.196C114.467 43.46 114.137 43.928 113.861 44.6V50H111.791ZM121.948 50.216C121.216 50.216 120.532 50.036 119.896 49.676C119.26 49.304 118.744 48.776 118.348 48.092C117.952 47.396 117.754 46.562 117.754 45.59C117.754 44.606 117.952 43.772 118.348 43.088C118.744 42.392 119.26 41.864 119.896 41.504C120.532 41.132 121.216 40.946 121.948 40.946C122.692 40.946 123.382 41.132 124.018 41.504C124.654 41.864 125.17 42.392 125.566 43.088C125.962 43.772 126.16 44.606 126.16 45.59C126.16 46.562 125.962 47.396 125.566 48.092C125.17 48.776 124.654 49.304 124.018 49.676C123.382 50.036 122.692 50.216 121.948 50.216ZM121.948 48.524C122.596 48.524 123.106 48.254 123.478 47.714C123.85 47.174 124.036 46.466 124.036 45.59C124.036 44.702 123.85 43.988 123.478 43.448C123.106 42.908 122.596 42.638 121.948 42.638C121.3 42.638 120.79 42.908 120.418 43.448C120.058 43.988 119.878 44.702 119.878 45.59C119.878 46.466 120.058 47.174 120.418 47.714C120.79 48.254 121.3 48.524 121.948 48.524ZM128.498 50V42.8H127.31V41.252L128.498 41.162V40.244C128.498 39.32 128.726 38.564 129.182 37.976C129.638 37.376 130.388 37.076 131.432 37.076C131.744 37.076 132.044 37.106 132.332 37.166C132.62 37.226 132.86 37.298 133.052 37.382L132.656 38.93C132.332 38.786 132.008 38.714 131.684 38.714C130.94 38.714 130.568 39.212 130.568 40.208V41.162H132.296V42.8H130.568V50H128.498ZM133.851 50V41.162H135.921V50H133.851ZM134.895 39.614C134.523 39.614 134.223 39.506 133.995 39.29C133.767 39.074 133.653 38.786 133.653 38.426C133.653 38.078 133.767 37.796 133.995 37.58C134.223 37.364 134.523 37.256 134.895 37.256C135.267 37.256 135.567 37.364 135.795 37.58C136.023 37.796 136.137 38.078 136.137 38.426C136.137 38.786 136.023 39.074 135.795 39.29C135.567 39.506 135.267 39.614 134.895 39.614ZM140.578 50.216C139.846 50.216 139.324 49.994 139.012 49.55C138.712 49.106 138.562 48.5 138.562 47.732V37.292H140.632V47.84C140.632 48.092 140.68 48.272 140.776 48.38C140.872 48.476 140.974 48.524 141.082 48.524C141.13 48.524 141.172 48.524 141.208 48.524C141.256 48.512 141.322 48.5 141.406 48.488L141.676 50.036C141.556 50.084 141.4 50.126 141.208 50.162C141.028 50.198 140.818 50.216 140.578 50.216ZM143.449 50V41.162H145.519V50H143.449ZM144.493 39.614C144.121 39.614 143.821 39.506 143.593 39.29C143.365 39.074 143.251 38.786 143.251 38.426C143.251 38.078 143.365 37.796 143.593 37.58C143.821 37.364 144.121 37.256 144.493 37.256C144.865 37.256 145.165 37.364 145.393 37.58C145.621 37.796 145.735 38.078 145.735 38.426C145.735 38.786 145.621 39.074 145.393 39.29C145.165 39.506 144.865 39.614 144.493 39.614ZM148.16 50V41.162H149.87L150.014 42.35H150.086C150.482 41.966 150.914 41.636 151.382 41.36C151.85 41.084 152.384 40.946 152.984 40.946C153.932 40.946 154.622 41.252 155.054 41.864C155.486 42.476 155.702 43.34 155.702 44.456V50H153.632V44.726C153.632 43.994 153.524 43.478 153.308 43.178C153.092 42.878 152.738 42.728 152.246 42.728C151.862 42.728 151.52 42.824 151.22 43.016C150.932 43.196 150.602 43.466 150.23 43.826V50H148.16ZM158.232 50V41.162H159.942L160.086 42.35H160.158C160.554 41.966 160.986 41.636 161.454 41.36C161.922 41.084 162.456 40.946 163.056 40.946C164.004 40.946 164.694 41.252 165.126 41.864C165.558 42.476 165.774 43.34 165.774 44.456V50H163.704V44.726C163.704 43.994 163.596 43.478 163.38 43.178C163.164 42.878 162.81 42.728 162.318 42.728C161.934 42.728 161.592 42.824 161.292 43.016C161.004 43.196 160.674 43.466 160.302 43.826V50H158.232ZM170.77 50.216C170.17 50.216 169.57 50.102 168.97 49.874C168.37 49.634 167.854 49.34 167.422 48.992L168.394 47.66C168.79 47.96 169.186 48.2 169.582 48.38C169.978 48.56 170.398 48.65 170.842 48.65C171.322 48.65 171.676 48.548 171.904 48.344C172.132 48.14 172.246 47.888 172.246 47.588C172.246 47.336 172.15 47.132 171.958 46.976C171.778 46.808 171.544 46.664 171.256 46.544C170.968 46.412 170.668 46.286 170.356 46.166C169.972 46.022 169.588 45.848 169.204 45.644C168.832 45.428 168.526 45.158 168.286 44.834C168.046 44.498 167.926 44.084 167.926 43.592C167.926 42.812 168.214 42.176 168.79 41.684C169.366 41.192 170.146 40.946 171.13 40.946C171.754 40.946 172.312 41.054 172.804 41.27C173.296 41.486 173.722 41.732 174.082 42.008L173.128 43.268C172.816 43.04 172.498 42.86 172.174 42.728C171.862 42.584 171.532 42.512 171.184 42.512C170.74 42.512 170.41 42.608 170.194 42.8C169.978 42.98 169.87 43.208 169.87 43.484C169.87 43.832 170.05 44.096 170.41 44.276C170.77 44.456 171.19 44.63 171.67 44.798C172.078 44.942 172.474 45.122 172.858 45.338C173.242 45.542 173.56 45.812 173.812 46.148C174.076 46.484 174.208 46.928 174.208 47.48C174.208 48.236 173.914 48.884 173.326 49.424C172.738 49.952 171.886 50.216 170.77 50.216ZM178.819 50.216C177.799 50.216 177.073 49.922 176.641 49.334C176.221 48.734 176.011 47.96 176.011 47.012V42.8H174.751V41.252L176.119 41.162L176.371 38.75H178.099V41.162H180.349V42.8H178.099V47.012C178.099 48.044 178.513 48.56 179.341 48.56C179.497 48.56 179.659 48.542 179.827 48.506C179.995 48.458 180.139 48.41 180.259 48.362L180.619 49.892C180.379 49.976 180.103 50.048 179.791 50.108C179.491 50.18 179.167 50.216 178.819 50.216ZM182.209 50V41.162H184.279V50H182.209ZM183.253 39.614C182.881 39.614 182.581 39.506 182.353 39.29C182.125 39.074 182.011 38.786 182.011 38.426C182.011 38.078 182.125 37.796 182.353 37.58C182.581 37.364 182.881 37.256 183.253 37.256C183.625 37.256 183.925 37.364 184.153 37.58C184.381 37.796 184.495 38.078 184.495 38.426C184.495 38.786 184.381 39.074 184.153 39.29C183.925 39.506 183.625 39.614 183.253 39.614ZM188.935 50.216C188.203 50.216 187.681 49.994 187.369 49.55C187.069 49.106 186.919 48.5 186.919 47.732V37.292H188.989V47.84C188.989 48.092 189.037 48.272 189.133 48.38C189.229 48.476 189.331 48.524 189.439 48.524C189.487 48.524 189.529 48.524 189.565 48.524C189.613 48.512 189.679 48.5 189.763 48.488L190.033 50.036C189.913 50.084 189.757 50.126 189.565 50.162C189.385 50.198 189.175 50.216 188.935 50.216ZM193.822 50.216C193.09 50.216 192.568 49.994 192.256 49.55C191.956 49.106 191.806 48.5 191.806 47.732V37.292H193.876V47.84C193.876 48.092 193.924 48.272 194.02 48.38C194.116 48.476 194.218 48.524 194.326 48.524C194.374 48.524 194.416 48.524 194.452 48.524C194.5 48.512 194.566 48.5 194.65 48.488L194.92 50.036C194.8 50.084 194.644 50.126 194.452 50.162C194.272 50.198 194.062 50.216 193.822 50.216ZM196.693 50V41.162H198.763V50H196.693ZM197.737 39.614C197.365 39.614 197.065 39.506 196.837 39.29C196.609 39.074 196.495 38.786 196.495 38.426C196.495 38.078 196.609 37.796 196.837 37.58C197.065 37.364 197.365 37.256 197.737 37.256C198.109 37.256 198.409 37.364 198.637 37.58C198.865 37.796 198.979 38.078 198.979 38.426C198.979 38.786 198.865 39.074 198.637 39.29C198.409 39.506 198.109 39.614 197.737 39.614ZM201.404 50V41.162H203.114L203.258 42.35H203.33C203.726 41.966 204.158 41.636 204.626 41.36C205.094 41.084 205.628 40.946 206.228 40.946C207.176 40.946 207.866 41.252 208.298 41.864C208.73 42.476 208.946 43.34 208.946 44.456V50H206.876V44.726C206.876 43.994 206.768 43.478 206.552 43.178C206.336 42.878 205.982 42.728 205.49 42.728C205.106 42.728 204.764 42.824 204.464 43.016C204.176 43.196 203.846 43.466 203.474 43.826V50H201.404ZM214.554 53.906C213.858 53.906 213.228 53.822 212.664 53.654C212.112 53.486 211.674 53.228 211.35 52.88C211.038 52.544 210.882 52.118 210.882 51.602C210.882 50.87 211.302 50.24 212.142 49.712V49.64C211.914 49.496 211.722 49.304 211.566 49.064C211.422 48.824 211.35 48.524 211.35 48.164C211.35 47.816 211.446 47.504 211.638 47.228C211.842 46.94 212.07 46.706 212.322 46.526V46.454C212.022 46.226 211.752 45.908 211.512 45.5C211.284 45.092 211.17 44.63 211.17 44.114C211.17 43.43 211.332 42.854 211.656 42.386C211.98 41.918 212.406 41.564 212.934 41.324C213.474 41.072 214.05 40.946 214.662 40.946C214.902 40.946 215.13 40.97 215.346 41.018C215.574 41.054 215.778 41.102 215.958 41.162H219.126V42.692H217.506C217.65 42.86 217.77 43.076 217.866 43.34C217.962 43.592 218.01 43.874 218.01 44.186C218.01 44.834 217.86 45.386 217.56 45.842C217.26 46.286 216.858 46.622 216.354 46.85C215.85 47.078 215.286 47.192 214.662 47.192C214.47 47.192 214.272 47.174 214.068 47.138C213.864 47.102 213.66 47.042 213.456 46.958C213.324 47.078 213.216 47.198 213.132 47.318C213.06 47.438 213.024 47.6 213.024 47.804C213.024 48.056 213.126 48.254 213.33 48.398C213.546 48.542 213.924 48.614 214.464 48.614H216.03C217.098 48.614 217.902 48.788 218.442 49.136C218.994 49.472 219.27 50.024 219.27 50.792C219.27 51.368 219.078 51.89 218.694 52.358C218.31 52.838 217.764 53.216 217.056 53.492C216.348 53.768 215.514 53.906 214.554 53.906ZM214.662 45.896C215.082 45.896 215.442 45.74 215.742 45.428C216.042 45.116 216.192 44.678 216.192 44.114C216.192 43.562 216.042 43.136 215.742 42.836C215.454 42.524 215.094 42.368 214.662 42.368C214.23 42.368 213.864 42.518 213.564 42.818C213.264 43.118 213.114 43.55 213.114 44.114C213.114 44.678 213.264 45.116 213.564 45.428C213.864 45.74 214.23 45.896 214.662 45.896ZM214.878 52.556C215.586 52.556 216.162 52.412 216.606 52.124C217.05 51.836 217.272 51.506 217.272 51.134C217.272 50.786 217.134 50.552 216.858 50.432C216.594 50.312 216.21 50.252 215.706 50.252H214.5C214.02 50.252 213.618 50.21 213.294 50.126C212.838 50.474 212.61 50.864 212.61 51.296C212.61 51.692 212.814 51.998 213.222 52.214C213.63 52.442 214.182 52.556 214.878 52.556ZM224.326 50.216C223.51 50.216 222.772 50.036 222.112 49.676C221.452 49.304 220.93 48.776 220.546 48.092C220.162 47.396 219.97 46.562 219.97 45.59C219.97 44.63 220.162 43.802 220.546 43.106C220.942 42.41 221.452 41.876 222.076 41.504C222.7 41.132 223.354 40.946 224.038 40.946C224.842 40.946 225.514 41.126 226.054 41.486C226.594 41.834 227.002 42.326 227.278 42.962C227.554 43.586 227.692 44.312 227.692 45.14C227.692 45.572 227.662 45.908 227.602 46.148H221.986C222.082 46.928 222.364 47.534 222.832 47.966C223.3 48.398 223.888 48.614 224.596 48.614C224.98 48.614 225.334 48.56 225.658 48.452C225.994 48.332 226.324 48.17 226.648 47.966L227.35 49.262C226.93 49.538 226.462 49.766 225.946 49.946C225.43 50.126 224.89 50.216 224.326 50.216ZM221.968 44.744H225.892C225.892 44.06 225.742 43.526 225.442 43.142C225.142 42.746 224.692 42.548 224.092 42.548C223.576 42.548 223.114 42.74 222.706 43.124C222.31 43.496 222.064 44.036 221.968 44.744ZM229.669 50V41.162H231.379L231.523 42.728H231.595C231.907 42.152 232.285 41.714 232.729 41.414C233.173 41.102 233.629 40.946 234.097 40.946C234.517 40.946 234.853 41.006 235.105 41.126L234.745 42.926C234.589 42.878 234.445 42.842 234.313 42.818C234.181 42.794 234.019 42.782 233.827 42.782C233.479 42.782 233.113 42.92 232.729 43.196C232.345 43.46 232.015 43.928 231.739 44.6V50H229.669Z"></path>
<rect fill="#595959" rx="12" height="24" width="44" y="76" x="100"></rect>
<rect fill="white" rx="10" height="20" width="20" y="78" x="102"></rect>
<path fill="#262626" d="M153.62 94V82.192H156.986C157.874 82.192 158.648 82.3 159.308 82.516C159.968 82.732 160.484 83.098 160.856 83.614C161.228 84.118 161.414 84.802 161.414 85.666C161.414 86.902 161.012 87.82 160.208 88.42C159.404 89.02 158.354 89.32 157.058 89.32H155.114V94H153.62ZM155.114 88.096H156.878C157.91 88.096 158.672 87.904 159.164 87.52C159.668 87.124 159.92 86.506 159.92 85.666C159.92 84.814 159.656 84.226 159.128 83.902C158.612 83.566 157.838 83.398 156.806 83.398H155.114V88.096ZM163.671 94V85.252H164.895L165.021 86.836H165.075C165.375 86.284 165.741 85.846 166.173 85.522C166.605 85.198 167.067 85.036 167.559 85.036C167.907 85.036 168.219 85.096 168.495 85.216L168.207 86.512C168.063 86.464 167.931 86.428 167.811 86.404C167.691 86.38 167.541 86.368 167.361 86.368C166.989 86.368 166.599 86.518 166.191 86.818C165.795 87.118 165.447 87.64 165.147 88.384V94H163.671ZM169.912 94V85.252H171.388V94H169.912ZM170.668 83.452C170.38 83.452 170.14 83.368 169.948 83.2C169.768 83.02 169.678 82.78 169.678 82.48C169.678 82.192 169.768 81.958 169.948 81.778C170.14 81.598 170.38 81.508 170.668 81.508C170.956 81.508 171.19 81.598 171.37 81.778C171.562 81.958 171.658 82.192 171.658 82.48C171.658 82.78 171.562 83.02 171.37 83.2C171.19 83.368 170.956 83.452 170.668 83.452ZM176.231 94L173.081 85.252H174.611L176.267 90.22C176.399 90.652 176.531 91.084 176.663 91.516C176.807 91.948 176.945 92.374 177.077 92.794H177.149C177.281 92.374 177.413 91.948 177.545 91.516C177.689 91.084 177.821 90.652 177.941 90.22L179.597 85.252H181.055L177.959 94H176.231ZM184.408 94.216C183.676 94.216 183.064 94 182.572 93.568C182.092 93.124 181.852 92.512 181.852 91.732C181.852 90.772 182.278 90.04 183.13 89.536C183.994 89.02 185.356 88.66 187.216 88.456C187.216 88.084 187.162 87.73 187.054 87.394C186.958 87.058 186.778 86.788 186.514 86.584C186.262 86.368 185.896 86.26 185.416 86.26C184.912 86.26 184.438 86.356 183.994 86.548C183.55 86.74 183.154 86.956 182.806 87.196L182.23 86.17C182.638 85.906 183.136 85.654 183.724 85.414C184.324 85.162 184.972 85.036 185.668 85.036C186.736 85.036 187.51 85.366 187.99 86.026C188.47 86.674 188.71 87.544 188.71 88.636V94H187.486L187.36 92.956H187.306C186.898 93.292 186.448 93.586 185.956 93.838C185.476 94.09 184.96 94.216 184.408 94.216ZM184.84 93.028C185.26 93.028 185.656 92.926 186.028 92.722C186.4 92.518 186.796 92.23 187.216 91.858V89.428C185.764 89.608 184.744 89.878 184.156 90.238C183.58 90.598 183.292 91.06 183.292 91.624C183.292 92.116 183.442 92.476 183.742 92.704C184.042 92.92 184.408 93.028 184.84 93.028ZM193.97 94.216C193.034 94.216 192.38 93.946 192.008 93.406C191.648 92.866 191.468 92.164 191.468 91.3V86.458H190.172V85.342L191.54 85.252L191.72 82.804H192.962V85.252H195.32V86.458H192.962V91.318C192.962 91.858 193.058 92.278 193.25 92.578C193.454 92.866 193.808 93.01 194.312 93.01C194.468 93.01 194.636 92.986 194.816 92.938C194.996 92.878 195.158 92.824 195.302 92.776L195.59 93.892C195.35 93.976 195.086 94.048 194.798 94.108C194.522 94.18 194.246 94.216 193.97 94.216ZM200.902 97.69V85.252H202.126L202.252 86.26H202.306C202.702 85.924 203.134 85.636 203.602 85.396C204.082 85.156 204.58 85.036 205.096 85.036C206.224 85.036 207.082 85.444 207.67 86.26C208.258 87.064 208.552 88.144 208.552 89.5C208.552 90.484 208.372 91.33 208.012 92.038C207.664 92.746 207.202 93.286 206.626 93.658C206.062 94.03 205.444 94.216 204.772 94.216C204.364 94.216 203.956 94.126 203.548 93.946C203.152 93.766 202.75 93.52 202.342 93.208L202.378 94.738V97.69H200.902ZM204.52 92.974C205.24 92.974 205.834 92.668 206.302 92.056C206.782 91.432 207.022 90.58 207.022 89.5C207.022 88.54 206.842 87.766 206.482 87.178C206.134 86.578 205.546 86.278 204.718 86.278C204.346 86.278 203.968 86.38 203.584 86.584C203.212 86.788 202.81 87.082 202.378 87.466V92.056C202.774 92.392 203.158 92.632 203.53 92.776C203.902 92.908 204.232 92.974 204.52 92.974ZM210.886 94V85.252H212.11L212.236 86.836H212.29C212.59 86.284 212.956 85.846 213.388 85.522C213.82 85.198 214.282 85.036 214.774 85.036C215.122 85.036 215.434 85.096 215.71 85.216L215.422 86.512C215.278 86.464 215.146 86.428 215.026 86.404C214.906 86.38 214.756 86.368 214.576 86.368C214.204 86.368 213.814 86.518 213.406 86.818C213.01 87.118 212.662 87.64 212.362 88.384V94H210.886ZM220.353 94.216C219.645 94.216 218.979 94.036 218.355 93.676C217.743 93.316 217.245 92.794 216.861 92.11C216.489 91.426 216.303 90.604 216.303 89.644C216.303 88.66 216.489 87.826 216.861 87.142C217.245 86.458 217.743 85.936 218.355 85.576C218.979 85.216 219.645 85.036 220.353 85.036C221.073 85.036 221.739 85.216 222.351 85.576C222.963 85.936 223.455 86.458 223.827 87.142C224.211 87.826 224.403 88.66 224.403 89.644C224.403 90.604 224.211 91.426 223.827 92.11C223.455 92.794 222.963 93.316 222.351 93.676C221.739 94.036 221.073 94.216 220.353 94.216ZM220.353 92.992C221.109 92.992 221.715 92.686 222.171 92.074C222.639 91.45 222.873 90.64 222.873 89.644C222.873 88.636 222.639 87.82 222.171 87.196C221.715 86.572 221.109 86.26 220.353 86.26C219.609 86.26 219.003 86.572 218.535 87.196C218.067 87.82 217.833 88.636 217.833 89.644C217.833 90.64 218.067 91.45 218.535 92.074C219.003 92.686 219.609 92.992 220.353 92.992ZM226.958 94V86.458H225.77V85.342L226.958 85.252V83.866C226.958 82.978 227.162 82.276 227.57 81.76C227.99 81.232 228.638 80.968 229.514 80.968C229.79 80.968 230.054 80.998 230.306 81.058C230.558 81.106 230.78 81.172 230.972 81.256L230.648 82.39C230.324 82.246 229.994 82.174 229.658 82.174C228.842 82.174 228.434 82.738 228.434 83.866V85.252H230.288V86.458H228.434V94H226.958ZM231.962 94V85.252H233.438V94H231.962ZM232.718 83.452C232.43 83.452 232.19 83.368 231.998 83.2C231.818 83.02 231.728 82.78 231.728 82.48C231.728 82.192 231.818 81.958 231.998 81.778C232.19 81.598 232.43 81.508 232.718 81.508C233.006 81.508 233.24 81.598 233.42 81.778C233.612 81.958 233.708 82.192 233.708 82.48C233.708 82.78 233.612 83.02 233.42 83.2C233.24 83.368 233.006 83.452 232.718 83.452ZM237.958 94.216C237.406 94.216 237.004 94.048 236.752 93.712C236.512 93.364 236.392 92.872 236.392 92.236V81.184H237.868V92.344C237.868 92.572 237.91 92.74 237.994 92.848C238.078 92.944 238.174 92.992 238.282 92.992C238.33 92.992 238.372 92.992 238.408 92.992C238.456 92.98 238.522 92.968 238.606 92.956L238.804 94.072C238.708 94.12 238.594 94.156 238.462 94.18C238.33 94.204 238.162 94.216 237.958 94.216Z"></path>
<rect fill="#595959" rx="12" height="24" width="44" y="124" x="100"></rect>
<rect fill="white" rx="10" height="20" width="20" y="126" x="102"></rect>
<path fill="#262626" d="M156.896 142.216C156.068 142.216 155.3 142.06 154.592 141.748C153.884 141.424 153.272 140.998 152.756 140.47L153.656 139.426C154.076 139.87 154.568 140.23 155.132 140.506C155.708 140.77 156.302 140.902 156.914 140.902C157.694 140.902 158.3 140.728 158.732 140.38C159.164 140.02 159.38 139.552 159.38 138.976C159.38 138.568 159.29 138.244 159.11 138.004C158.942 137.764 158.708 137.56 158.408 137.392C158.12 137.224 157.79 137.056 157.418 136.888L155.726 136.15C155.354 135.994 154.982 135.79 154.61 135.538C154.25 135.286 153.944 134.962 153.692 134.566C153.452 134.17 153.332 133.684 153.332 133.108C153.332 132.508 153.488 131.974 153.8 131.506C154.124 131.026 154.568 130.654 155.132 130.39C155.696 130.114 156.332 129.976 157.04 129.976C157.748 129.976 158.402 130.114 159.002 130.39C159.602 130.654 160.112 131.002 160.532 131.434L159.722 132.406C159.362 132.058 158.96 131.788 158.516 131.596C158.084 131.392 157.592 131.29 157.04 131.29C156.38 131.29 155.846 131.446 155.438 131.758C155.042 132.07 154.844 132.49 154.844 133.018C154.844 133.39 154.94 133.702 155.132 133.954C155.336 134.194 155.588 134.392 155.888 134.548C156.188 134.704 156.494 134.848 156.806 134.98L158.48 135.7C158.936 135.892 159.344 136.126 159.704 136.402C160.076 136.666 160.37 136.996 160.586 137.392C160.802 137.776 160.91 138.262 160.91 138.85C160.91 139.474 160.748 140.044 160.424 140.56C160.1 141.064 159.638 141.466 159.038 141.766C158.438 142.066 157.724 142.216 156.896 142.216ZM163.091 142V129.184H164.549V137.86H164.603L168.329 133.252H169.967L167.033 136.762L170.363 142H168.743L166.187 137.788L164.549 139.696V142H163.091ZM170.928 145.906C170.664 145.906 170.424 145.882 170.208 145.834C169.98 145.786 169.788 145.732 169.632 145.672L169.938 144.556C170.046 144.592 170.172 144.622 170.316 144.646C170.46 144.682 170.61 144.7 170.766 144.7C171.198 144.7 171.486 144.544 171.63 144.232C171.774 143.932 171.846 143.518 171.846 142.99V133.252H173.322V142.99C173.322 143.878 173.142 144.586 172.782 145.114C172.422 145.642 171.804 145.906 170.928 145.906ZM172.566 131.452C172.278 131.452 172.038 131.368 171.846 131.2C171.666 131.02 171.576 130.78 171.576 130.48C171.576 130.192 171.666 129.958 171.846 129.778C172.038 129.598 172.278 129.508 172.566 129.508C172.854 129.508 173.088 129.598 173.268 129.778C173.46 129.958 173.556 130.192 173.556 130.48C173.556 130.78 173.46 131.02 173.268 131.2C173.088 131.368 172.854 131.452 172.566 131.452ZM178.831 142.216C177.907 142.216 177.229 141.928 176.797 141.352C176.365 140.764 176.149 139.912 176.149 138.796V133.252H177.643V138.598C177.643 139.414 177.769 140.008 178.021 140.38C178.285 140.752 178.705 140.938 179.281 140.938C179.737 140.938 180.139 140.824 180.487 140.596C180.847 140.356 181.231 139.978 181.639 139.462V133.252H183.115V142H181.891L181.765 140.632H181.711C181.303 141.112 180.871 141.496 180.415 141.784C179.959 142.072 179.431 142.216 178.831 142.216ZM187.632 142.216C187.08 142.216 186.678 142.048 186.426 141.712C186.186 141.364 186.066 140.872 186.066 140.236V129.184H187.542V140.344C187.542 140.572 187.584 140.74 187.668 140.848C187.752 140.944 187.848 140.992 187.956 140.992C188.004 140.992 188.046 140.992 188.082 140.992C188.13 140.98 188.196 140.968 188.28 140.956L188.478 142.072C188.382 142.12 188.268 142.156 188.136 142.18C188.004 142.204 187.836 142.216 187.632 142.216ZM194.257 145.69V133.252H195.481L195.607 134.26H195.661C196.057 133.924 196.489 133.636 196.957 133.396C197.437 133.156 197.935 133.036 198.451 133.036C199.579 133.036 200.437 133.444 201.025 134.26C201.613 135.064 201.907 136.144 201.907 137.5C201.907 138.484 201.727 139.33 201.367 140.038C201.019 140.746 200.557 141.286 199.981 141.658C199.417 142.03 198.799 142.216 198.127 142.216C197.719 142.216 197.311 142.126 196.903 141.946C196.507 141.766 196.105 141.52 195.697 141.208L195.733 142.738V145.69H194.257ZM197.875 140.974C198.595 140.974 199.189 140.668 199.657 140.056C200.137 139.432 200.377 138.58 200.377 137.5C200.377 136.54 200.197 135.766 199.837 135.178C199.489 134.578 198.901 134.278 198.073 134.278C197.701 134.278 197.323 134.38 196.939 134.584C196.567 134.788 196.165 135.082 195.733 135.466V140.056C196.129 140.392 196.513 140.632 196.885 140.776C197.257 140.908 197.587 140.974 197.875 140.974ZM204.242 142V133.252H205.466L205.592 134.836H205.646C205.946 134.284 206.312 133.846 206.744 133.522C207.176 133.198 207.638 133.036 208.13 133.036C208.478 133.036 208.79 133.096 209.066 133.216L208.778 134.512C208.634 134.464 208.502 134.428 208.382 134.404C208.262 134.38 208.112 134.368 207.932 134.368C207.56 134.368 207.17 134.518 206.762 134.818C206.366 135.118 206.018 135.64 205.718 136.384V142H204.242ZM213.708 142.216C213 142.216 212.334 142.036 211.71 141.676C211.098 141.316 210.6 140.794 210.216 140.11C209.844 139.426 209.658 138.604 209.658 137.644C209.658 136.66 209.844 135.826 210.216 135.142C210.6 134.458 211.098 133.936 211.71 133.576C212.334 133.216 213 133.036 213.708 133.036C214.428 133.036 215.094 133.216 215.706 133.576C216.318 133.936 216.81 134.458 217.182 135.142C217.566 135.826 217.758 136.66 217.758 137.644C217.758 138.604 217.566 139.426 217.182 140.11C216.81 140.794 216.318 141.316 215.706 141.676C215.094 142.036 214.428 142.216 213.708 142.216ZM213.708 140.992C214.464 140.992 215.07 140.686 215.526 140.074C215.994 139.45 216.228 138.64 216.228 137.644C216.228 136.636 215.994 135.82 215.526 135.196C215.07 134.572 214.464 134.26 213.708 134.26C212.964 134.26 212.358 134.572 211.89 135.196C211.422 135.82 211.188 136.636 211.188 137.644C211.188 138.64 211.422 139.45 211.89 140.074C212.358 140.686 212.964 140.992 213.708 140.992ZM220.314 142V134.458H219.126V133.342L220.314 133.252V131.866C220.314 130.978 220.518 130.276 220.926 129.76C221.346 129.232 221.994 128.968 222.87 128.968C223.146 128.968 223.41 128.998 223.662 129.058C223.914 129.106 224.136 129.172 224.328 129.256L224.004 130.39C223.68 130.246 223.35 130.174 223.014 130.174C222.198 130.174 221.79 130.738 221.79 131.866V133.252H223.644V134.458H221.79V142H220.314ZM225.318 142V133.252H226.794V142H225.318ZM226.074 131.452C225.786 131.452 225.546 131.368 225.354 131.2C225.174 131.02 225.084 130.78 225.084 130.48C225.084 130.192 225.174 129.958 225.354 129.778C225.546 129.598 225.786 129.508 226.074 129.508C226.362 129.508 226.596 129.598 226.776 129.778C226.968 129.958 227.064 130.192 227.064 130.48C227.064 130.78 226.968 131.02 226.776 131.2C226.596 131.368 226.362 131.452 226.074 131.452ZM231.313 142.216C230.761 142.216 230.359 142.048 230.107 141.712C229.867 141.364 229.747 140.872 229.747 140.236V129.184H231.223V140.344C231.223 140.572 231.265 140.74 231.349 140.848C231.433 140.944 231.529 140.992 231.637 140.992C231.685 140.992 231.727 140.992 231.763 140.992C231.811 140.98 231.877 140.968 231.961 140.956L232.159 142.072C232.063 142.12 231.949 142.156 231.817 142.18C231.685 142.204 231.517 142.216 231.313 142.216ZM238.205 142.216C237.797 142.216 237.371 142.12 236.927 141.928C236.495 141.724 236.087 141.448 235.703 141.1H235.649L235.523 142H234.335V129.184H235.811V132.676L235.775 134.26C236.171 133.912 236.603 133.624 237.071 133.396C237.551 133.156 238.031 133.036 238.511 133.036C239.651 133.036 240.515 133.438 241.103 134.242C241.691 135.046 241.985 136.126 241.985 137.482C241.985 138.478 241.805 139.33 241.445 140.038C241.097 140.746 240.635 141.286 240.059 141.658C239.495 142.03 238.877 142.216 238.205 142.216ZM237.953 140.974C238.673 140.974 239.267 140.668 239.735 140.056C240.215 139.432 240.455 138.58 240.455 137.5C240.455 136.54 240.275 135.766 239.915 135.178C239.567 134.578 238.979 134.278 238.151 134.278C237.779 134.278 237.401 134.38 237.017 134.584C236.633 134.788 236.231 135.082 235.811 135.466V140.056C236.195 140.392 236.573 140.632 236.945 140.776C237.329 140.908 237.665 140.974 237.953 140.974ZM244.285 142V133.252H245.761V142H244.285ZM245.041 131.452C244.753 131.452 244.513 131.368 244.321 131.2C244.141 131.02 244.051 130.78 244.051 130.48C244.051 130.192 244.141 129.958 244.321 129.778C244.513 129.598 244.753 129.508 245.041 129.508C245.329 129.508 245.563 129.598 245.743 129.778C245.935 129.958 246.031 130.192 246.031 130.48C246.031 130.78 245.935 131.02 245.743 131.2C245.563 131.368 245.329 131.452 245.041 131.452ZM250.28 142.216C249.728 142.216 249.326 142.048 249.074 141.712C248.834 141.364 248.714 140.872 248.714 140.236V129.184H250.19V140.344C250.19 140.572 250.232 140.74 250.316 140.848C250.4 140.944 250.496 140.992 250.604 140.992C250.652 140.992 250.694 140.992 250.73 140.992C250.778 140.98 250.844 140.968 250.928 140.956L251.126 142.072C251.03 142.12 250.916 142.156 250.784 142.18C250.652 142.204 250.484 142.216 250.28 142.216ZM256.29 142.216C255.198 142.216 254.322 141.82 253.662 141.028C253.002 140.224 252.672 139.096 252.672 137.644C252.672 136.696 252.846 135.88 253.194 135.196C253.554 134.5 254.022 133.966 254.598 133.594C255.186 133.222 255.81 133.036 256.47 133.036C256.974 133.036 257.412 133.126 257.784 133.306C258.156 133.486 258.534 133.732 258.918 134.044L258.846 132.55V129.184H260.34V142H259.116L258.99 140.974H258.936C258.6 141.31 258.204 141.604 257.748 141.856C257.292 142.096 256.806 142.216 256.29 142.216ZM256.614 140.974C257.382 140.974 258.126 140.572 258.846 139.768V135.196C258.474 134.86 258.114 134.626 257.766 134.494C257.43 134.35 257.082 134.278 256.722 134.278C256.254 134.278 255.828 134.422 255.444 134.71C255.072 134.986 254.772 135.376 254.544 135.88C254.316 136.372 254.202 136.954 254.202 137.626C254.202 138.67 254.412 139.492 254.832 140.092C255.252 140.68 255.846 140.974 256.614 140.974ZM266.833 142.216C266.053 142.216 265.345 142.036 264.709 141.676C264.073 141.304 263.569 140.776 263.197 140.092C262.825 139.408 262.639 138.592 262.639 137.644C262.639 136.684 262.825 135.862 263.197 135.178C263.581 134.494 264.073 133.966 264.673 133.594C265.273 133.222 265.903 133.036 266.563 133.036C267.679 133.036 268.537 133.408 269.137 134.152C269.749 134.896 270.055 135.892 270.055 137.14C270.055 137.296 270.049 137.452 270.037 137.608C270.037 137.752 270.025 137.878 270.001 137.986H264.097C264.157 138.91 264.445 139.648 264.961 140.2C265.489 140.752 266.173 141.028 267.013 141.028C267.433 141.028 267.817 140.968 268.165 140.848C268.525 140.716 268.867 140.548 269.191 140.344L269.713 141.316C269.341 141.556 268.915 141.766 268.435 141.946C267.967 142.126 267.433 142.216 266.833 142.216ZM264.079 136.924H268.759C268.759 136.036 268.567 135.364 268.183 134.908C267.811 134.44 267.283 134.206 266.599 134.206C265.987 134.206 265.435 134.446 264.943 134.926C264.463 135.394 264.175 136.06 264.079 136.924Z"></path>
<rect fill="#0067C5" rx="2" height="48" width="86" y="184" x="100"></rect>
<path fill="white" d="M122.829 214V202.228H124.917V212.236H129.813V214H122.829ZM133.826 214.216C133.058 214.216 132.428 213.976 131.936 213.496C131.456 213.016 131.216 212.392 131.216 211.624C131.216 210.676 131.63 209.944 132.458 209.428C133.286 208.9 134.606 208.54 136.418 208.348C136.406 207.88 136.28 207.478 136.04 207.142C135.812 206.794 135.398 206.62 134.798 206.62C134.366 206.62 133.94 206.704 133.52 206.872C133.112 207.04 132.71 207.244 132.314 207.484L131.558 206.098C132.05 205.786 132.602 205.516 133.214 205.288C133.838 205.06 134.498 204.946 135.194 204.946C136.298 204.946 137.12 205.276 137.66 205.936C138.212 206.584 138.488 207.526 138.488 208.762V214H136.778L136.634 213.028H136.562C136.166 213.364 135.74 213.646 135.284 213.874C134.84 214.102 134.354 214.216 133.826 214.216ZM134.492 212.596C134.852 212.596 135.176 212.512 135.464 212.344C135.764 212.164 136.082 211.924 136.418 211.624V209.644C135.218 209.8 134.384 210.034 133.916 210.346C133.448 210.646 133.214 211.018 133.214 211.462C133.214 211.858 133.334 212.146 133.574 212.326C133.814 212.506 134.12 212.596 134.492 212.596ZM144.043 217.906C143.347 217.906 142.717 217.822 142.153 217.654C141.601 217.486 141.163 217.228 140.839 216.88C140.527 216.544 140.371 216.118 140.371 215.602C140.371 214.87 140.791 214.24 141.631 213.712V213.64C141.403 213.496 141.211 213.304 141.055 213.064C140.911 212.824 140.839 212.524 140.839 212.164C140.839 211.816 140.935 211.504 141.127 211.228C141.331 210.94 141.559 210.706 141.811 210.526V210.454C141.511 210.226 141.241 209.908 141.001 209.5C140.773 209.092 140.659 208.63 140.659 208.114C140.659 207.43 140.821 206.854 141.145 206.386C141.469 205.918 141.895 205.564 142.423 205.324C142.963 205.072 143.539 204.946 144.151 204.946C144.391 204.946 144.619 204.97 144.835 205.018C145.063 205.054 145.267 205.102 145.447 205.162H148.615V206.692H146.995C147.139 206.86 147.259 207.076 147.355 207.34C147.451 207.592 147.499 207.874 147.499 208.186C147.499 208.834 147.349 209.386 147.049 209.842C146.749 210.286 146.347 210.622 145.843 210.85C145.339 211.078 144.775 211.192 144.151 211.192C143.959 211.192 143.761 211.174 143.557 211.138C143.353 211.102 143.149 211.042 142.945 210.958C142.813 211.078 142.705 211.198 142.621 211.318C142.549 211.438 142.513 211.6 142.513 211.804C142.513 212.056 142.615 212.254 142.819 212.398C143.035 212.542 143.413 212.614 143.953 212.614H145.519C146.587 212.614 147.391 212.788 147.931 213.136C148.483 213.472 148.759 214.024 148.759 214.792C148.759 215.368 148.567 215.89 148.183 216.358C147.799 216.838 147.253 217.216 146.545 217.492C145.837 217.768 145.003 217.906 144.043 217.906ZM144.151 209.896C144.571 209.896 144.931 209.74 145.231 209.428C145.531 209.116 145.681 208.678 145.681 208.114C145.681 207.562 145.531 207.136 145.231 206.836C144.943 206.524 144.583 206.368 144.151 206.368C143.719 206.368 143.353 206.518 143.053 206.818C142.753 207.118 142.603 207.55 142.603 208.114C142.603 208.678 142.753 209.116 143.053 209.428C143.353 209.74 143.719 209.896 144.151 209.896ZM144.367 216.556C145.075 216.556 145.651 216.412 146.095 216.124C146.539 215.836 146.761 215.506 146.761 215.134C146.761 214.786 146.623 214.552 146.347 214.432C146.083 214.312 145.699 214.252 145.195 214.252H143.989C143.509 214.252 143.107 214.21 142.783 214.126C142.327 214.474 142.099 214.864 142.099 215.296C142.099 215.692 142.303 215.998 142.711 216.214C143.119 216.442 143.671 216.556 144.367 216.556ZM150.317 214V205.162H152.027L152.171 206.728H152.243C152.555 206.152 152.933 205.714 153.377 205.414C153.821 205.102 154.277 204.946 154.745 204.946C155.165 204.946 155.501 205.006 155.753 205.126L155.393 206.926C155.237 206.878 155.093 206.842 154.961 206.818C154.829 206.794 154.667 206.782 154.475 206.782C154.127 206.782 153.761 206.92 153.377 207.196C152.993 207.46 152.663 207.928 152.387 208.6V214H150.317ZM160.636 214.216C159.82 214.216 159.082 214.036 158.422 213.676C157.762 213.304 157.24 212.776 156.856 212.092C156.472 211.396 156.28 210.562 156.28 209.59C156.28 208.63 156.472 207.802 156.856 207.106C157.252 206.41 157.762 205.876 158.386 205.504C159.01 205.132 159.664 204.946 160.348 204.946C161.152 204.946 161.824 205.126 162.364 205.486C162.904 205.834 163.312 206.326 163.588 206.962C163.864 207.586 164.002 208.312 164.002 209.14C164.002 209.572 163.972 209.908 163.912 210.148H158.296C158.392 210.928 158.674 211.534 159.142 211.966C159.61 212.398 160.198 212.614 160.906 212.614C161.29 212.614 161.644 212.56 161.968 212.452C162.304 212.332 162.634 212.17 162.958 211.966L163.66 213.262C163.24 213.538 162.772 213.766 162.256 213.946C161.74 214.126 161.2 214.216 160.636 214.216ZM158.278 208.744H162.202C162.202 208.06 162.052 207.526 161.752 207.142C161.452 206.746 161.002 206.548 160.402 206.548C159.886 206.548 159.424 206.74 159.016 207.124C158.62 207.496 158.374 208.036 158.278 208.744Z"></path>
</svg>
