<svg xmlns="http://www.w3.org/2000/svg" fill="none" viewBox="0 0 200 200" height="200" width="200">
<path fill="white" d="M60 69C60 62.3726 65.3726 57 72 57H160C166.627 57 172 62.3726 172 69V117C172 123.627 166.627 129 160 129H60V69Z"></path>
<mask fill="white" id="path-2-inside-1_4412_3203">
<path d="M170 117V69C170 63.4772 165.523 59 160 59H72C66.4772 59 62 63.4772 62 69V127H160V129H60V69C60 62.3726 65.3726 57 72 57H160C166.627 57 172 62.3726 172 69V117C172 123.627 166.627 129 160 129V127C165.523 127 170 122.523 170 117Z"></path>
</mask>
<path mask="url(#path-2-inside-1_4412_3203)" fill-opacity="0.247059" fill="#005A92" d="M62 69L12 69V69H62ZM62 127H12V177H62V127ZM60 129H10V179H60V129ZM60 69L10 69V69H60ZM170 117H220V69H170H120V117H170ZM170 69H220C220 35.8629 193.137 9 160 9V59V109C137.909 109 120 91.0914 120 69H170ZM160 59V9H72V59V109H160V59ZM72 59V9C38.8629 9 12 35.8629 12 69L62 69L112 69C112 91.0914 94.0914 109 72 109V59ZM62 69H12V127H62H112V69H62ZM62 127V177H160V127V77H62V127ZM160 127H110V129H160H210V127H160ZM160 129V79H60V129V179H160V129ZM60 129H110V69H60H10V129H60ZM60 69L110 69C110 89.9868 92.9868 107 72 107V57V7C37.7583 7 10 34.7584 10 69L60 69ZM72 57V107H160V57V7H72V57ZM160 57V107C139.013 107 122 89.9868 122 69H172H222C222 34.7584 194.242 7 160 7V57ZM172 69H122V117H172H222V69H172ZM172 117H122C122 96.0132 139.013 79 160 79V129V179C194.242 179 222 151.242 222 117H172ZM160 129H210V127H160H110V129H160ZM160 127V177C193.137 177 220 150.137 220 117H170H120C120 94.9086 137.909 77 160 77V127Z"></path>
<rect fill="#417DA0" rx="16" height="32" width="32" y="97" x="20"></rect>
<rect fill="#C0D6E4" rx="4" height="8" width="80" y="71" x="76"></rect>
<rect fill="#C0D6E4" rx="4" height="8" width="80" y="89" x="76"></rect>
<rect fill="#C0D6E4" rx="4" height="8" width="54" y="107" x="76"></rect>
</svg>
