<svg xmlns="http://www.w3.org/2000/svg" fill="none" viewBox="0 0 200 200" height="200" width="200">
<path fill="white" d="M24 87C24 80.3726 29.3726 75 36 75H164C170.627 75 176 80.3726 176 87V147C176 153.627 170.627 159 164 159H36C29.3726 159 24 153.627 24 147V87Z"></path>
<mask fill="white" id="path-2-inside-1_4412_3213">
<path d="M164 157V159H36V157H164ZM174 147V87C174 81.4772 169.523 77 164 77H36C30.4772 77 26 81.4772 26 87V147C26 152.523 30.4772 157 36 157V159C29.3726 159 24 153.627 24 147V87C24 80.3726 29.3726 75 36 75H164C170.627 75 176 80.3726 176 87V147C176 153.627 170.627 159 164 159V157C169.523 157 174 152.523 174 147Z"></path>
</mask>
<path mask="url(#path-2-inside-1_4412_3213)" fill-opacity="0.247059" fill="#005A92" d="M174 87H224V87L174 87ZM176 87H226V87L176 87ZM164 157H114V159H164H214V157H164ZM164 159V109H36V159V209H164V159ZM36 159H86V157H36H-14V159H36ZM36 157V207H164V157V107H36V157ZM174 147H224V87H174H124V147H174ZM174 87L224 87C224 53.8629 197.137 27 164 27V77V127C141.909 127 124 109.091 124 87L174 87ZM164 77V27H36V77V127H164V77ZM36 77V27C2.86291 27 -24 53.8629 -24 87H26H76C76 109.091 58.0914 127 36 127V77ZM26 87H-24V147H26H76V87H26ZM26 147H-24C-24 180.137 2.86292 207 36 207V157V107C58.0914 107 76 124.909 76 147H26ZM36 157H-14V159H36H86V157H36ZM36 159V109C56.9868 109 74 126.013 74 147H24H-26C-26 181.242 1.75835 209 36 209V159ZM24 147H74V87H24H-26V147H24ZM24 87H74C74 107.987 56.9868 125 36 125V75V25C1.75835 25 -26 52.7583 -26 87H24ZM36 75V125H164V75V25H36V75ZM164 75V125C143.013 125 126 107.987 126 87L176 87L226 87C226 52.7583 198.242 25 164 25V75ZM176 87H126V147H176H226V87H176ZM176 147H126C126 126.013 143.013 109 164 109V159V209C198.242 209 226 181.242 226 147H176ZM164 159H214V157H164H114V159H164ZM164 157V207C197.137 207 224 180.137 224 147H174H124C124 124.909 141.909 107 164 107V157Z"></path>
<path fill="#417DA0" d="M44 101C44 98.7909 45.7909 97 48 97H152C154.209 97 156 98.7909 156 101C156 103.209 154.209 105 152 105H48C45.7909 105 44 103.209 44 101Z"></path>
<path fill="#417DA0" d="M44 117C44 114.791 45.7909 113 48 113H152C154.209 113 156 114.791 156 117C156 119.209 154.209 121 152 121H48C45.7909 121 44 119.209 44 117Z"></path>
<path fill="#417DA0" d="M44 133C44 130.791 45.7909 129 48 129H130C132.209 129 134 130.791 134 133C134 135.209 132.209 137 130 137H48C45.7909 137 44 135.209 44 133Z"></path>
<path fill="#417DA0" d="M118 50C118 59.9411 109.941 68 100 68C90.0589 68 82 59.9411 82 50C82 40.0589 90.0589 32 100 32C109.941 32 118 40.0589 118 50Z"></path>
</svg>
