<svg xmlns="http://www.w3.org/2000/svg" fill="none" viewBox="0 0 384 200" height="200" width="384">
<rect fill="#E6F0FF" rx="12" height="24" width="93" y="56" x="53"></rect>
<rect stroke-opacity="0.21" stroke="#071A36" rx="11.5" height="23" width="92" y="56.5" x="53.5"></rect>
<path fill-opacity="0.49" fill="#021431" d="M65 62.4999C61.9624 62.4999 59.5 64.9624 59.5 67.9999C59.5 71.0375 61.9624 73.4999 65 73.4999C68.0375 73.4999 70.5 71.0375 70.5 67.9999C70.5 64.9624 68.0375 62.4999 65 62.4999ZM58.5 67.9999C58.5 64.4101 61.4101 61.4999 65 61.4999C68.5898 61.4999 71.5 64.4101 71.5 67.9999C71.5 71.5898 68.5898 74.4999 65 74.4999C61.4101 74.4999 58.5 71.5898 58.5 67.9999Z" clip-rule="evenodd" fill-rule="evenodd"></path>
<path fill="#262626" d="M78.164 72V63.796H75.392V62.816H82.112V63.796H79.34V72H78.164ZM83.0673 72V65.196H84.0193L84.1173 66.428H84.1593C84.3926 65.9987 84.6773 65.658 85.0133 65.406C85.3493 65.154 85.7086 65.028 86.0913 65.028C86.3619 65.028 86.6046 65.0747 86.8193 65.168L86.5953 66.176C86.4833 66.1387 86.3806 66.1107 86.2873 66.092C86.1939 66.0733 86.0773 66.064 85.9373 66.064C85.6479 66.064 85.3446 66.1807 85.0273 66.414C84.7193 66.6473 84.4486 67.0533 84.2153 67.632V72H83.0673ZM89.203 72.168C88.6337 72.168 88.1577 72 87.775 71.664C87.4017 71.3187 87.215 70.8427 87.215 70.236C87.215 69.4893 87.5463 68.92 88.209 68.528C88.881 68.1267 89.9403 67.8467 91.387 67.688C91.387 67.3987 91.345 67.1233 91.261 66.862C91.1863 66.6007 91.0463 66.3907 90.841 66.232C90.645 66.064 90.3603 65.98 89.987 65.98C89.595 65.98 89.2263 66.0547 88.881 66.204C88.5357 66.3533 88.2277 66.5213 87.957 66.708L87.509 65.91C87.8263 65.7047 88.2137 65.5087 88.671 65.322C89.1377 65.126 89.6417 65.028 90.183 65.028C91.0137 65.028 91.6157 65.2847 91.989 65.798C92.3623 66.302 92.549 66.9787 92.549 67.828V72H91.597L91.499 71.188H91.457C91.1397 71.4493 90.7897 71.678 90.407 71.874C90.0337 72.07 89.6323 72.168 89.203 72.168ZM89.539 71.244C89.8657 71.244 90.1737 71.1647 90.463 71.006C90.7523 70.8473 91.0603 70.6233 91.387 70.334V68.444C90.2577 68.584 89.4643 68.794 89.007 69.074C88.559 69.354 88.335 69.7133 88.335 70.152C88.335 70.5347 88.4517 70.8147 88.685 70.992C88.9183 71.16 89.203 71.244 89.539 71.244ZM94.7457 72V65.196H95.6977L95.7957 66.176H95.8377C96.1644 65.8493 96.5097 65.5787 96.8737 65.364C97.2377 65.14 97.653 65.028 98.1197 65.028C98.8384 65.028 99.361 65.2567 99.6877 65.714C100.024 66.162 100.192 66.82 100.192 67.688V72H99.0437V67.842C99.0437 67.2073 98.941 66.7453 98.7357 66.456C98.5304 66.1667 98.2037 66.022 97.7557 66.022C97.4104 66.022 97.0977 66.1107 96.8177 66.288C96.547 66.4653 96.239 66.7267 95.8937 67.072V72H94.7457ZM104.782 72.168C103.933 72.168 103.251 71.86 102.738 71.244C102.225 70.6187 101.968 69.7413 101.968 68.612C101.968 67.8747 102.103 67.24 102.374 66.708C102.654 66.1667 103.018 65.7513 103.466 65.462C103.923 65.1727 104.409 65.028 104.922 65.028C105.314 65.028 105.655 65.098 105.944 65.238C106.233 65.378 106.527 65.5693 106.826 65.812L106.77 64.65V62.032H107.932V72H106.98L106.882 71.202H106.84C106.579 71.4633 106.271 71.692 105.916 71.888C105.561 72.0747 105.183 72.168 104.782 72.168ZM105.034 71.202C105.631 71.202 106.21 70.8893 106.77 70.264V66.708C106.481 66.4467 106.201 66.2647 105.93 66.162C105.669 66.05 105.398 65.994 105.118 65.994C104.754 65.994 104.423 66.106 104.124 66.33C103.835 66.5447 103.601 66.848 103.424 67.24C103.247 67.6227 103.158 68.0753 103.158 68.598C103.158 69.41 103.321 70.0493 103.648 70.516C103.975 70.9733 104.437 71.202 105.034 71.202ZM112.926 72.168C112.375 72.168 111.857 72.028 111.372 71.748C110.896 71.468 110.508 71.062 110.21 70.53C109.92 69.998 109.776 69.3587 109.776 68.612C109.776 67.8467 109.92 67.198 110.21 66.666C110.508 66.134 110.896 65.728 111.372 65.448C111.857 65.168 112.375 65.028 112.926 65.028C113.486 65.028 114.004 65.168 114.48 65.448C114.956 65.728 115.338 66.134 115.628 66.666C115.926 67.198 116.076 67.8467 116.076 68.612C116.076 69.3587 115.926 69.998 115.628 70.53C115.338 71.062 114.956 71.468 114.48 71.748C114.004 72.028 113.486 72.168 112.926 72.168ZM112.926 71.216C113.514 71.216 113.985 70.978 114.34 70.502C114.704 70.0167 114.886 69.3867 114.886 68.612C114.886 67.828 114.704 67.1933 114.34 66.708C113.985 66.2227 113.514 65.98 112.926 65.98C112.347 65.98 111.876 66.2227 111.512 66.708C111.148 67.1933 110.966 67.828 110.966 68.612C110.966 69.3867 111.148 70.0167 111.512 70.502C111.876 70.978 112.347 71.216 112.926 71.216ZM119.701 72.168C119.216 72.168 118.754 72.0793 118.315 71.902C117.877 71.7153 117.494 71.4913 117.167 71.23L117.741 70.46C118.04 70.6933 118.348 70.8893 118.665 71.048C118.983 71.1973 119.342 71.272 119.743 71.272C120.191 71.272 120.527 71.1693 120.751 70.964C120.975 70.7493 121.087 70.4973 121.087 70.208C121.087 69.9747 121.008 69.7787 120.849 69.62C120.7 69.4613 120.504 69.3307 120.261 69.228C120.028 69.116 119.785 69.0133 119.533 68.92C119.216 68.7987 118.903 68.6633 118.595 68.514C118.287 68.3553 118.035 68.1547 117.839 67.912C117.643 67.66 117.545 67.3427 117.545 66.96C117.545 66.4093 117.751 65.952 118.161 65.588C118.581 65.2147 119.16 65.028 119.897 65.028C120.317 65.028 120.709 65.1027 121.073 65.252C121.437 65.4013 121.75 65.5833 122.011 65.798L121.451 66.526C121.218 66.3487 120.975 66.204 120.723 66.092C120.471 65.98 120.196 65.924 119.897 65.924C119.468 65.924 119.151 66.022 118.945 66.218C118.749 66.414 118.651 66.6427 118.651 66.904C118.651 67.1187 118.721 67.296 118.861 67.436C119.001 67.5667 119.183 67.6833 119.407 67.786C119.631 67.8793 119.869 67.9773 120.121 68.08C120.448 68.2013 120.77 68.3413 121.087 68.5C121.405 68.6493 121.666 68.8547 121.871 69.116C122.086 69.368 122.193 69.7087 122.193 70.138C122.193 70.502 122.095 70.838 121.899 71.146C121.713 71.454 121.433 71.7013 121.059 71.888C120.695 72.0747 120.243 72.168 119.701 72.168ZM123.845 72V62.032H124.993V64.748L124.951 66.148C125.277 65.84 125.618 65.5787 125.973 65.364C126.337 65.14 126.752 65.028 127.219 65.028C127.937 65.028 128.46 65.2567 128.787 65.714C129.123 66.162 129.291 66.82 129.291 67.688V72H128.143V67.842C128.143 67.2073 128.04 66.7453 127.835 66.456C127.629 66.1667 127.303 66.022 126.855 66.022C126.509 66.022 126.197 66.1107 125.917 66.288C125.646 66.4653 125.338 66.7267 124.993 67.072V72H123.845ZM133.084 72.168C132.515 72.168 132.039 72 131.656 71.664C131.283 71.3187 131.096 70.8427 131.096 70.236C131.096 69.4893 131.427 68.92 132.09 68.528C132.762 68.1267 133.821 67.8467 135.268 67.688C135.268 67.3987 135.226 67.1233 135.142 66.862C135.067 66.6007 134.927 66.3907 134.722 66.232C134.526 66.064 134.241 65.98 133.868 65.98C133.476 65.98 133.107 66.0547 132.762 66.204C132.417 66.3533 132.109 66.5213 131.838 66.708L131.39 65.91C131.707 65.7047 132.095 65.5087 132.552 65.322C133.019 65.126 133.523 65.028 134.064 65.028C134.895 65.028 135.497 65.2847 135.87 65.798C136.243 66.302 136.43 66.9787 136.43 67.828V72H135.478L135.38 71.188H135.338C135.021 71.4493 134.671 71.678 134.288 71.874C133.915 72.07 133.513 72.168 133.084 72.168ZM133.42 71.244C133.747 71.244 134.055 71.1647 134.344 71.006C134.633 70.8473 134.941 70.6233 135.268 70.334V68.444C134.139 68.584 133.345 68.794 132.888 69.074C132.44 69.354 132.216 69.7133 132.216 70.152C132.216 70.5347 132.333 70.8147 132.566 70.992C132.799 71.16 133.084 71.244 133.42 71.244Z"></path>
<rect fill="#E6F0FF" rx="12" height="24" width="75" y="88" x="53"></rect>
<rect stroke-opacity="0.21" stroke="#071A36" rx="11.5" height="23" width="74" y="88.5" x="53.5"></rect>
<path fill-opacity="0.49" fill="#021431" d="M65 94.4999C61.9624 94.4999 59.5 96.9624 59.5 99.9999C59.5 103.038 61.9624 105.5 65 105.5C68.0375 105.5 70.5 103.038 70.5 99.9999C70.5 96.9624 68.0375 94.4999 65 94.4999ZM58.5 99.9999C58.5 96.4101 61.4101 93.4999 65 93.4999C68.5898 93.4999 71.5 96.4101 71.5 99.9999C71.5 103.59 68.5898 106.5 65 106.5C61.4101 106.5 58.5 103.59 58.5 99.9999Z" clip-rule="evenodd" fill-rule="evenodd"></path>
<path fill="#262626" d="M77.744 104V100.444L74.986 94.816H76.232L77.422 97.406C77.5713 97.742 77.716 98.0733 77.856 98.4C78.0053 98.7267 78.1547 99.0627 78.304 99.408H78.36C78.5187 99.0627 78.6773 98.7267 78.836 98.4C78.9947 98.0733 79.144 97.742 79.284 97.406L80.46 94.816H81.678L78.92 100.444V104H77.744ZM83.4868 104.168C82.9175 104.168 82.4415 104 82.0588 103.664C81.6855 103.319 81.4988 102.843 81.4988 102.236C81.4988 101.489 81.8302 100.92 82.4928 100.528C83.1648 100.127 84.2242 99.8467 85.6708 99.688C85.6708 99.3987 85.6288 99.1233 85.5448 98.862C85.4702 98.6007 85.3302 98.3907 85.1248 98.232C84.9288 98.064 84.6442 97.98 84.2708 97.98C83.8788 97.98 83.5102 98.0547 83.1648 98.204C82.8195 98.3533 82.5115 98.5213 82.2408 98.708L81.7928 97.91C82.1102 97.7047 82.4975 97.5087 82.9548 97.322C83.4215 97.126 83.9255 97.028 84.4668 97.028C85.2975 97.028 85.8995 97.2847 86.2728 97.798C86.6462 98.302 86.8328 98.9787 86.8328 99.828V104H85.8808L85.7828 103.188H85.7408C85.4235 103.449 85.0735 103.678 84.6908 103.874C84.3175 104.07 83.9162 104.168 83.4868 104.168ZM83.8228 103.244C84.1495 103.244 84.4575 103.165 84.7468 103.006C85.0362 102.847 85.3442 102.623 85.6708 102.334V100.444C84.5415 100.584 83.7482 100.794 83.2908 101.074C82.8428 101.354 82.6188 101.713 82.6188 102.152C82.6188 102.535 82.7355 102.815 82.9688 102.992C83.2022 103.16 83.4868 103.244 83.8228 103.244ZM90.4995 104L88.0495 97.196H89.2395L90.5275 101.06C90.6302 101.396 90.7329 101.732 90.8355 102.068C90.9475 102.404 91.0549 102.735 91.1575 103.062H91.2135C91.3162 102.735 91.4189 102.404 91.5215 102.068C91.6335 101.732 91.7362 101.396 91.8295 101.06L93.1175 97.196H94.2515L91.8435 104H90.4995ZM95.6207 104V97.196H96.7687V104H95.6207ZM96.2087 95.796C95.9847 95.796 95.798 95.7307 95.6487 95.6C95.5087 95.46 95.4387 95.2733 95.4387 95.04C95.4387 94.816 95.5087 94.634 95.6487 94.494C95.798 94.354 95.9847 94.284 96.2087 94.284C96.4327 94.284 96.6147 94.354 96.7547 94.494C96.904 94.634 96.9787 94.816 96.9787 95.04C96.9787 95.2733 96.904 95.46 96.7547 95.6C96.6147 95.7307 96.4327 95.796 96.2087 95.796ZM99.122 104V97.196H100.074L100.172 98.176H100.214C100.541 97.8493 100.886 97.5787 101.25 97.364C101.614 97.14 102.029 97.028 102.496 97.028C103.215 97.028 103.737 97.2567 104.064 97.714C104.4 98.162 104.568 98.82 104.568 99.688V104H103.42V99.842C103.42 99.2073 103.317 98.7453 103.112 98.456C102.907 98.1667 102.58 98.022 102.132 98.022C101.787 98.022 101.474 98.1107 101.194 98.288C100.923 98.4653 100.615 98.7267 100.27 99.072V104H99.122ZM109.805 104V94.816H110.967V104H109.805ZM115.219 104L112.279 94.816H113.525L114.995 99.772C115.163 100.313 115.307 100.822 115.429 101.298C115.559 101.765 115.713 102.269 115.891 102.81H115.947C116.115 102.269 116.264 101.765 116.395 101.298C116.525 100.822 116.67 100.313 116.829 99.772L118.299 94.816H119.489L116.577 104H115.219Z"></path>
<rect fill="#00459C" rx="12" height="24" width="64" y="120" x="53"></rect>
<path fill="white" d="M65 138.5C68.5899 138.5 71.5 135.59 71.5 132C71.5 128.41 68.5899 125.5 65 125.5C61.4101 125.5 58.5 128.41 58.5 132C58.5 135.59 61.4101 138.5 65 138.5ZM68.3024 130.183C68.4956 129.955 68.4671 129.613 68.2388 129.42C68.0104 129.227 67.6686 129.255 67.4754 129.483L63.8834 133.729L62.133 131.978C61.9215 131.767 61.5785 131.767 61.367 131.978C61.1555 132.19 61.1555 132.533 61.367 132.744L63.5337 134.911C63.6408 135.018 63.7878 135.075 63.9392 135.069C64.0905 135.063 64.2323 134.993 64.3302 134.878L68.3024 130.183Z" clip-rule="evenodd" fill-rule="evenodd"></path>
<path fill="white" d="M78.808 136.168C78.164 136.168 77.5667 136.047 77.016 135.804C76.4653 135.552 75.9893 135.221 75.588 134.81L76.288 133.998C76.6147 134.343 76.9973 134.623 77.436 134.838C77.884 135.043 78.346 135.146 78.822 135.146C79.4287 135.146 79.9 135.011 80.236 134.74C80.572 134.46 80.74 134.096 80.74 133.648C80.74 133.331 80.67 133.079 80.53 132.892C80.3993 132.705 80.2173 132.547 79.984 132.416C79.76 132.285 79.5033 132.155 79.214 132.024L77.898 131.45C77.6087 131.329 77.3193 131.17 77.03 130.974C76.75 130.778 76.512 130.526 76.316 130.218C76.1293 129.91 76.036 129.532 76.036 129.084C76.036 128.617 76.1573 128.202 76.4 127.838C76.652 127.465 76.9973 127.175 77.436 126.97C77.8747 126.755 78.3693 126.648 78.92 126.648C79.4707 126.648 79.9793 126.755 80.446 126.97C80.9127 127.175 81.3093 127.446 81.636 127.782L81.006 128.538C80.726 128.267 80.4133 128.057 80.068 127.908C79.732 127.749 79.3493 127.67 78.92 127.67C78.4067 127.67 77.9913 127.791 77.674 128.034C77.366 128.277 77.212 128.603 77.212 129.014C77.212 129.303 77.2867 129.546 77.436 129.742C77.5947 129.929 77.7907 130.083 78.024 130.204C78.2573 130.325 78.4953 130.437 78.738 130.54L80.04 131.1C80.3947 131.249 80.712 131.431 80.992 131.646C81.2813 131.851 81.51 132.108 81.678 132.416C81.846 132.715 81.93 133.093 81.93 133.55C81.93 134.035 81.804 134.479 81.552 134.88C81.3 135.272 80.9407 135.585 80.474 135.818C80.0073 136.051 79.452 136.168 78.808 136.168ZM86.3705 136.168C85.7732 136.168 85.2318 136.028 84.7465 135.748C84.2612 135.468 83.8785 135.062 83.5985 134.53C83.3185 133.998 83.1785 133.359 83.1785 132.612C83.1785 131.847 83.3278 131.198 83.6265 130.666C83.9345 130.134 84.3358 129.728 84.8305 129.448C85.3345 129.168 85.8758 129.028 86.4545 129.028C86.9025 129.028 87.2852 129.107 87.6025 129.266C87.9292 129.425 88.2092 129.611 88.4425 129.826L87.8545 130.582C87.6585 130.405 87.4485 130.26 87.2245 130.148C87.0098 130.036 86.7672 129.98 86.4965 129.98C86.0858 129.98 85.7172 130.092 85.3905 130.316C85.0732 130.531 84.8212 130.839 84.6345 131.24C84.4572 131.632 84.3685 132.089 84.3685 132.612C84.3685 133.387 84.5598 134.017 84.9425 134.502C85.3345 134.978 85.8432 135.216 86.4685 135.216C86.7858 135.216 87.0798 135.151 87.3505 135.02C87.6212 134.88 87.8592 134.717 88.0645 134.53L88.5685 135.3C88.2605 135.571 87.9198 135.785 87.5465 135.944C87.1732 136.093 86.7812 136.168 86.3705 136.168ZM91.5546 136.168C90.9852 136.168 90.5092 136 90.1266 135.664C89.7532 135.319 89.5666 134.843 89.5666 134.236C89.5666 133.489 89.8979 132.92 90.5606 132.528C91.2326 132.127 92.2919 131.847 93.7386 131.688C93.7386 131.399 93.6966 131.123 93.6126 130.862C93.5379 130.601 93.3979 130.391 93.1926 130.232C92.9966 130.064 92.7119 129.98 92.3386 129.98C91.9466 129.98 91.5779 130.055 91.2326 130.204C90.8872 130.353 90.5792 130.521 90.3086 130.708L89.8606 129.91C90.1779 129.705 90.5652 129.509 91.0226 129.322C91.4892 129.126 91.9932 129.028 92.5346 129.028C93.3652 129.028 93.9672 129.285 94.3406 129.798C94.7139 130.302 94.9006 130.979 94.9006 131.828V136H93.9486L93.8506 135.188H93.8086C93.4912 135.449 93.1412 135.678 92.7586 135.874C92.3852 136.07 91.9839 136.168 91.5546 136.168ZM91.8906 135.244C92.2172 135.244 92.5252 135.165 92.8146 135.006C93.1039 134.847 93.4119 134.623 93.7386 134.334V132.444C92.6092 132.584 91.8159 132.794 91.3586 133.074C90.9106 133.354 90.6866 133.713 90.6866 134.152C90.6866 134.535 90.8032 134.815 91.0366 134.992C91.2699 135.16 91.5546 135.244 91.8906 135.244ZM97.0972 136V129.196H98.0492L98.1472 130.428H98.1892C98.4226 129.999 98.7072 129.658 99.0432 129.406C99.3792 129.154 99.7386 129.028 100.121 129.028C100.392 129.028 100.635 129.075 100.849 129.168L100.625 130.176C100.513 130.139 100.411 130.111 100.317 130.092C100.224 130.073 100.107 130.064 99.9672 130.064C99.6779 130.064 99.3746 130.181 99.0572 130.414C98.7492 130.647 98.4786 131.053 98.2452 131.632V136H97.0972ZM102.007 136V129.196H103.155V136H102.007ZM102.595 127.796C102.371 127.796 102.184 127.731 102.035 127.6C101.895 127.46 101.825 127.273 101.825 127.04C101.825 126.816 101.895 126.634 102.035 126.494C102.184 126.354 102.371 126.284 102.595 126.284C102.819 126.284 103.001 126.354 103.141 126.494C103.29 126.634 103.365 126.816 103.365 127.04C103.365 127.273 103.29 127.46 103.141 127.6C103.001 127.731 102.819 127.796 102.595 127.796ZM105.704 136V130.134H104.78V129.266L105.704 129.196V128.118C105.704 127.427 105.863 126.881 106.18 126.48C106.507 126.069 107.011 125.864 107.692 125.864C107.907 125.864 108.112 125.887 108.308 125.934C108.504 125.971 108.677 126.023 108.826 126.088L108.574 126.97C108.322 126.858 108.065 126.802 107.804 126.802C107.169 126.802 106.852 127.241 106.852 128.118V129.196H108.294V130.134H106.852V136H105.704Z"></path>
<rect fill="#00459C" rx="12" height="24" width="82" y="152" x="53"></rect>
<path fill="white" d="M65 170.5C68.5899 170.5 71.5 167.59 71.5 164C71.5 160.41 68.5899 157.5 65 157.5C61.4101 157.5 58.5 160.41 58.5 164C58.5 167.59 61.4101 170.5 65 170.5ZM68.3024 162.183C68.4956 161.955 68.4671 161.613 68.2388 161.42C68.0104 161.227 67.6686 161.255 67.4754 161.483L63.8834 165.729L62.133 163.978C61.9215 163.767 61.5785 163.767 61.367 163.978C61.1555 164.19 61.1555 164.533 61.367 164.744L63.5337 166.911C63.6408 167.018 63.7878 167.075 63.9392 167.069C64.0905 167.063 64.2323 166.993 64.3302 166.878L68.3024 162.183Z" clip-rule="evenodd" fill-rule="evenodd"></path>
<path fill="white" d="M78.164 168V159.796H75.392V158.816H82.112V159.796H79.34V168H78.164ZM84.2525 168.168C83.6831 168.168 83.2071 168 82.8245 167.664C82.4511 167.319 82.2645 166.843 82.2645 166.236C82.2645 165.489 82.5958 164.92 83.2585 164.528C83.9305 164.127 84.9898 163.847 86.4365 163.688C86.4365 163.399 86.3945 163.123 86.3105 162.862C86.2358 162.601 86.0958 162.391 85.8905 162.232C85.6945 162.064 85.4098 161.98 85.0365 161.98C84.6445 161.98 84.2758 162.055 83.9305 162.204C83.5851 162.353 83.2771 162.521 83.0065 162.708L82.5585 161.91C82.8758 161.705 83.2631 161.509 83.7205 161.322C84.1871 161.126 84.6911 161.028 85.2325 161.028C86.0631 161.028 86.6651 161.285 87.0385 161.798C87.4118 162.302 87.5985 162.979 87.5985 163.828V168H86.6465L86.5485 167.188H86.5065C86.1891 167.449 85.8391 167.678 85.4565 167.874C85.0831 168.07 84.6818 168.168 84.2525 168.168ZM84.5885 167.244C84.9151 167.244 85.2231 167.165 85.5125 167.006C85.8018 166.847 86.1098 166.623 86.4365 166.334V164.444C85.3071 164.584 84.5138 164.794 84.0565 165.074C83.6085 165.354 83.3845 165.713 83.3845 166.152C83.3845 166.535 83.5011 166.815 83.7345 166.992C83.9678 167.16 84.2525 167.244 84.5885 167.244ZM91.7458 168.168C91.0178 168.168 90.5091 167.958 90.2198 167.538C89.9398 167.118 89.7998 166.572 89.7998 165.9V162.134H88.7918V161.266L89.8558 161.196L89.9958 159.292H90.9618V161.196H92.7958V162.134H90.9618V165.914C90.9618 166.334 91.0364 166.661 91.1858 166.894C91.3444 167.118 91.6198 167.23 92.0118 167.23C92.1331 167.23 92.2638 167.211 92.4038 167.174C92.5438 167.127 92.6698 167.085 92.7818 167.048L93.0058 167.916C92.8191 167.981 92.6138 168.037 92.3898 168.084C92.1751 168.14 91.9604 168.168 91.7458 168.168ZM96.8448 168.168C96.2941 168.168 95.7761 168.028 95.2908 167.748C94.8148 167.468 94.4275 167.062 94.1288 166.53C93.8395 165.998 93.6948 165.359 93.6948 164.612C93.6948 163.847 93.8395 163.198 94.1288 162.666C94.4275 162.134 94.8148 161.728 95.2908 161.448C95.7761 161.168 96.2941 161.028 96.8448 161.028C97.4048 161.028 97.9228 161.168 98.3988 161.448C98.8748 161.728 99.2575 162.134 99.5468 162.666C99.8455 163.198 99.9948 163.847 99.9948 164.612C99.9948 165.359 99.8455 165.998 99.5468 166.53C99.2575 167.062 98.8748 167.468 98.3988 167.748C97.9228 168.028 97.4048 168.168 96.8448 168.168ZM96.8448 167.216C97.4328 167.216 97.9041 166.978 98.2588 166.502C98.6228 166.017 98.8048 165.387 98.8048 164.612C98.8048 163.828 98.6228 163.193 98.2588 162.708C97.9041 162.223 97.4328 161.98 96.8448 161.98C96.2661 161.98 95.7948 162.223 95.4308 162.708C95.0668 163.193 94.8848 163.828 94.8848 164.612C94.8848 165.387 95.0668 166.017 95.4308 166.502C95.7948 166.978 96.2661 167.216 96.8448 167.216ZM104.489 168.168C103.938 168.168 103.42 168.028 102.935 167.748C102.459 167.468 102.071 167.062 101.773 166.53C101.483 165.998 101.339 165.359 101.339 164.612C101.339 163.847 101.483 163.198 101.773 162.666C102.071 162.134 102.459 161.728 102.935 161.448C103.42 161.168 103.938 161.028 104.489 161.028C105.049 161.028 105.567 161.168 106.043 161.448C106.519 161.728 106.901 162.134 107.191 162.666C107.489 163.198 107.639 163.847 107.639 164.612C107.639 165.359 107.489 165.998 107.191 166.53C106.901 167.062 106.519 167.468 106.043 167.748C105.567 168.028 105.049 168.168 104.489 168.168ZM104.489 167.216C105.077 167.216 105.548 166.978 105.903 166.502C106.267 166.017 106.449 165.387 106.449 164.612C106.449 163.828 106.267 163.193 105.903 162.708C105.548 162.223 105.077 161.98 104.489 161.98C103.91 161.98 103.439 162.223 103.075 162.708C102.711 163.193 102.529 163.828 102.529 164.612C102.529 165.387 102.711 166.017 103.075 166.502C103.439 166.978 103.91 167.216 104.489 167.216ZM109.487 168V161.196H110.635V168H109.487ZM110.075 159.796C109.851 159.796 109.664 159.731 109.515 159.6C109.375 159.46 109.305 159.273 109.305 159.04C109.305 158.816 109.375 158.634 109.515 158.494C109.664 158.354 109.851 158.284 110.075 158.284C110.299 158.284 110.481 158.354 110.621 158.494C110.77 158.634 110.845 158.816 110.845 159.04C110.845 159.273 110.77 159.46 110.621 159.6C110.481 159.731 110.299 159.796 110.075 159.796ZM112.988 168V161.196H113.94L114.038 162.176H114.08C114.407 161.849 114.752 161.579 115.116 161.364C115.48 161.14 115.895 161.028 116.362 161.028C117.081 161.028 117.603 161.257 117.93 161.714C118.266 162.162 118.434 162.82 118.434 163.688V168H117.286V163.842C117.286 163.207 117.183 162.745 116.978 162.456C116.773 162.167 116.446 162.022 115.998 162.022C115.653 162.022 115.34 162.111 115.06 162.288C114.789 162.465 114.481 162.727 114.136 163.072V168H112.988ZM123.458 168.168C122.851 168.168 122.301 168.028 121.806 167.748C121.311 167.459 120.919 167.048 120.63 166.516C120.341 165.984 120.196 165.349 120.196 164.612C120.196 163.865 120.341 163.226 120.63 162.694C120.929 162.162 121.311 161.751 121.778 161.462C122.245 161.173 122.735 161.028 123.248 161.028C124.116 161.028 124.783 161.317 125.25 161.896C125.726 162.475 125.964 163.249 125.964 164.22C125.964 164.341 125.959 164.463 125.95 164.584C125.95 164.696 125.941 164.794 125.922 164.878H121.33C121.377 165.597 121.601 166.171 122.002 166.6C122.413 167.029 122.945 167.244 123.598 167.244C123.925 167.244 124.223 167.197 124.494 167.104C124.774 167.001 125.04 166.871 125.292 166.712L125.698 167.468C125.409 167.655 125.077 167.818 124.704 167.958C124.34 168.098 123.925 168.168 123.458 168.168ZM121.316 164.052H124.956C124.956 163.361 124.807 162.839 124.508 162.484C124.219 162.12 123.808 161.938 123.276 161.938C122.8 161.938 122.371 162.125 121.988 162.498C121.615 162.862 121.391 163.38 121.316 164.052Z"></path>
<path fill="#23262A" d="M54.494 42V30.228H56.582V40.236H61.478V42H54.494ZM66.7386 42.216C66.0066 42.216 65.3226 42.036 64.6866 41.676C64.0506 41.304 63.5346 40.776 63.1386 40.092C62.7426 39.396 62.5446 38.562 62.5446 37.59C62.5446 36.606 62.7426 35.772 63.1386 35.088C63.5346 34.392 64.0506 33.864 64.6866 33.504C65.3226 33.132 66.0066 32.946 66.7386 32.946C67.4826 32.946 68.1726 33.132 68.8086 33.504C69.4446 33.864 69.9606 34.392 70.3566 35.088C70.7526 35.772 70.9506 36.606 70.9506 37.59C70.9506 38.562 70.7526 39.396 70.3566 40.092C69.9606 40.776 69.4446 41.304 68.8086 41.676C68.1726 42.036 67.4826 42.216 66.7386 42.216ZM66.7386 40.524C67.3866 40.524 67.8966 40.254 68.2686 39.714C68.6406 39.174 68.8266 38.466 68.8266 37.59C68.8266 36.702 68.6406 35.988 68.2686 35.448C67.8966 34.908 67.3866 34.638 66.7386 34.638C66.0906 34.638 65.5806 34.908 65.2086 35.448C64.8486 35.988 64.6686 36.702 64.6686 37.59C64.6686 38.466 64.8486 39.174 65.2086 39.714C65.5806 40.254 66.0906 40.524 66.7386 40.524ZM72.9995 42V29.292H75.0335V37.23H75.0875L78.3635 33.162H80.6315L77.6075 36.762L80.9375 42H78.6875L76.4195 38.166L75.0335 39.75V42H72.9995ZM84.3701 42.216C83.6021 42.216 82.9721 41.976 82.4801 41.496C82.0001 41.016 81.7601 40.392 81.7601 39.624C81.7601 38.676 82.1741 37.944 83.0021 37.428C83.8301 36.9 85.1501 36.54 86.9621 36.348C86.9501 35.88 86.8241 35.478 86.5841 35.142C86.3561 34.794 85.9421 34.62 85.3421 34.62C84.9101 34.62 84.4841 34.704 84.0641 34.872C83.6561 35.04 83.2541 35.244 82.8581 35.484L82.1021 34.098C82.5941 33.786 83.1461 33.516 83.7581 33.288C84.3821 33.06 85.0421 32.946 85.7381 32.946C86.8421 32.946 87.6641 33.276 88.2041 33.936C88.7561 34.584 89.0321 35.526 89.0321 36.762V42H87.3221L87.1781 41.028H87.1061C86.7101 41.364 86.2841 41.646 85.8281 41.874C85.3841 42.102 84.8981 42.216 84.3701 42.216ZM85.0361 40.596C85.3961 40.596 85.7201 40.512 86.0081 40.344C86.3081 40.164 86.6261 39.924 86.9621 39.624V37.644C85.7621 37.8 84.9281 38.034 84.4601 38.346C83.9921 38.646 83.7581 39.018 83.7581 39.462C83.7581 39.858 83.8781 40.146 84.1181 40.326C84.3581 40.506 84.6641 40.596 85.0361 40.596ZM93.9753 42.216C93.3753 42.216 92.7753 42.102 92.1753 41.874C91.5753 41.634 91.0593 41.34 90.6273 40.992L91.5993 39.66C91.9953 39.96 92.3913 40.2 92.7873 40.38C93.1833 40.56 93.6033 40.65 94.0473 40.65C94.5273 40.65 94.8813 40.548 95.1093 40.344C95.3373 40.14 95.4513 39.888 95.4513 39.588C95.4513 39.336 95.3553 39.132 95.1633 38.976C94.9833 38.808 94.7493 38.664 94.4613 38.544C94.1733 38.412 93.8733 38.286 93.5613 38.166C93.1773 38.022 92.7933 37.848 92.4093 37.644C92.0373 37.428 91.7313 37.158 91.4913 36.834C91.2513 36.498 91.1313 36.084 91.1313 35.592C91.1313 34.812 91.4193 34.176 91.9953 33.684C92.5713 33.192 93.3513 32.946 94.3353 32.946C94.9593 32.946 95.5173 33.054 96.0093 33.27C96.5013 33.486 96.9273 33.732 97.2873 34.008L96.3333 35.268C96.0213 35.04 95.7033 34.86 95.3793 34.728C95.0673 34.584 94.7373 34.512 94.3893 34.512C93.9453 34.512 93.6153 34.608 93.3993 34.8C93.1833 34.98 93.0753 35.208 93.0753 35.484C93.0753 35.832 93.2553 36.096 93.6153 36.276C93.9753 36.456 94.3953 36.63 94.8753 36.798C95.2833 36.942 95.6793 37.122 96.0633 37.338C96.4473 37.542 96.7653 37.812 97.0173 38.148C97.2813 38.484 97.4133 38.928 97.4133 39.48C97.4133 40.236 97.1193 40.884 96.5313 41.424C95.9433 41.952 95.0913 42.216 93.9753 42.216ZM98.5593 45.708C98.2353 45.708 97.9593 45.684 97.7313 45.636C97.4913 45.588 97.2873 45.534 97.1193 45.474L97.5153 43.926C97.6353 43.962 97.7613 43.992 97.8933 44.016C98.0133 44.052 98.1393 44.07 98.2713 44.07C98.6673 44.07 98.9313 43.932 99.0633 43.656C99.2073 43.392 99.2793 43.002 99.2793 42.486V33.162H101.367V42.45C101.367 43.074 101.277 43.632 101.097 44.124C100.917 44.616 100.623 45 100.215 45.276C99.8073 45.564 99.2553 45.708 98.5593 45.708ZM100.323 31.614C99.9513 31.614 99.6513 31.506 99.4233 31.29C99.1953 31.074 99.0813 30.786 99.0813 30.426C99.0813 30.078 99.1953 29.796 99.4233 29.58C99.6513 29.364 99.9513 29.256 100.323 29.256C100.695 29.256 100.995 29.364 101.223 29.58C101.451 29.796 101.565 30.078 101.565 30.426C101.565 30.786 101.451 31.074 101.223 31.29C100.995 31.506 100.695 31.614 100.323 31.614ZM107.608 42.216C106.876 42.216 106.192 42.036 105.556 41.676C104.92 41.304 104.404 40.776 104.008 40.092C103.612 39.396 103.414 38.562 103.414 37.59C103.414 36.606 103.612 35.772 104.008 35.088C104.404 34.392 104.92 33.864 105.556 33.504C106.192 33.132 106.876 32.946 107.608 32.946C108.352 32.946 109.042 33.132 109.678 33.504C110.314 33.864 110.83 34.392 111.226 35.088C111.622 35.772 111.82 36.606 111.82 37.59C111.82 38.562 111.622 39.396 111.226 40.092C110.83 40.776 110.314 41.304 109.678 41.676C109.042 42.036 108.352 42.216 107.608 42.216ZM107.608 40.524C108.256 40.524 108.766 40.254 109.138 39.714C109.51 39.174 109.696 38.466 109.696 37.59C109.696 36.702 109.51 35.988 109.138 35.448C108.766 34.908 108.256 34.638 107.608 34.638C106.96 34.638 106.45 34.908 106.078 35.448C105.718 35.988 105.538 36.702 105.538 37.59C105.538 38.466 105.718 39.174 106.078 39.714C106.45 40.254 106.96 40.524 107.608 40.524ZM113.869 42V33.162H115.579L115.723 34.35H115.795C116.191 33.966 116.623 33.636 117.091 33.36C117.559 33.084 118.093 32.946 118.693 32.946C119.641 32.946 120.331 33.252 120.763 33.864C121.195 34.476 121.411 35.34 121.411 36.456V42H119.341V36.726C119.341 35.994 119.233 35.478 119.017 35.178C118.801 34.878 118.447 34.728 117.955 34.728C117.571 34.728 117.229 34.824 116.929 35.016C116.641 35.196 116.311 35.466 115.939 35.826V42H113.869ZM127.721 42.216C126.905 42.216 126.167 42.036 125.507 41.676C124.847 41.304 124.325 40.776 123.941 40.092C123.557 39.396 123.365 38.562 123.365 37.59C123.365 36.63 123.557 35.802 123.941 35.106C124.337 34.41 124.847 33.876 125.471 33.504C126.095 33.132 126.749 32.946 127.433 32.946C128.237 32.946 128.909 33.126 129.449 33.486C129.989 33.834 130.397 34.326 130.673 34.962C130.949 35.586 131.087 36.312 131.087 37.14C131.087 37.572 131.057 37.908 130.997 38.148H125.381C125.477 38.928 125.759 39.534 126.227 39.966C126.695 40.398 127.283 40.614 127.991 40.614C128.375 40.614 128.729 40.56 129.053 40.452C129.389 40.332 129.719 40.17 130.043 39.966L130.745 41.262C130.325 41.538 129.857 41.766 129.341 41.946C128.825 42.126 128.285 42.216 127.721 42.216ZM125.363 36.744H129.287C129.287 36.06 129.137 35.526 128.837 35.142C128.537 34.746 128.087 34.548 127.487 34.548C126.971 34.548 126.509 34.74 126.101 35.124C125.705 35.496 125.459 36.036 125.363 36.744ZM133.064 42V33.162H134.774L134.918 34.728H134.99C135.302 34.152 135.68 33.714 136.124 33.414C136.568 33.102 137.024 32.946 137.492 32.946C137.912 32.946 138.248 33.006 138.5 33.126L138.14 34.926C137.984 34.878 137.84 34.842 137.708 34.818C137.576 34.794 137.414 34.782 137.222 34.782C136.874 34.782 136.508 34.92 136.124 35.196C135.74 35.46 135.41 35.928 135.134 36.6V42H133.064Z"></path>
</svg>
