<svg xmlns="http://www.w3.org/2000/svg" fill="none" viewBox="0 0 873 579" height="579" width="873">
<rect fill="white" height="579" width="873"></rect>
<path fill="#262626" d="M115.345 217.545C115.873 217.018 116.727 217.018 117.255 217.545L126.2 226.491L135.145 217.545C135.673 217.018 136.527 217.018 137.055 217.545C137.582 218.073 137.582 218.927 137.055 219.454L127.155 229.354C126.627 229.882 125.773 229.882 125.245 229.354L115.345 219.454C114.818 218.927 114.818 218.073 115.345 217.545Z" clip-rule="evenodd" fill-rule="evenodd"></path>
<path fill="#262626" d="M165.786 237.1V208.847H170.797V232.866H182.547V237.1H165.786ZM195.475 237.618C193.517 237.618 191.746 237.186 190.162 236.322C188.578 235.43 187.325 234.162 186.403 232.521C185.482 230.85 185.021 228.849 185.021 226.516C185.021 224.212 185.482 222.225 186.403 220.554C187.354 218.884 188.578 217.602 190.075 216.71C191.573 215.817 193.142 215.37 194.784 215.37C196.714 215.37 198.326 215.802 199.622 216.666C200.918 217.502 201.898 218.682 202.56 220.209C203.222 221.706 203.554 223.449 203.554 225.436C203.554 226.473 203.482 227.279 203.338 227.855H189.859C190.09 229.727 190.766 231.182 191.89 232.218C193.013 233.255 194.424 233.774 196.123 233.774C197.045 233.774 197.894 233.644 198.672 233.385C199.478 233.097 200.27 232.708 201.048 232.218L202.733 235.329C201.725 235.991 200.602 236.538 199.363 236.97C198.125 237.402 196.829 237.618 195.475 237.618ZM189.816 224.486H199.234C199.234 222.844 198.874 221.562 198.154 220.641C197.434 219.69 196.354 219.215 194.914 219.215C193.675 219.215 192.566 219.676 191.587 220.598C190.637 221.49 190.046 222.786 189.816 224.486ZM208.212 237.1V215.889H213.18V237.1H208.212ZM210.718 212.174C209.825 212.174 209.105 211.914 208.558 211.396C208.01 210.878 207.737 210.186 207.737 209.322C207.737 208.487 208.01 207.81 208.558 207.292C209.105 206.774 209.825 206.514 210.718 206.514C211.61 206.514 212.33 206.774 212.878 207.292C213.425 207.81 213.698 208.487 213.698 209.322C213.698 210.186 213.425 210.878 212.878 211.396C212.33 211.914 211.61 212.174 210.718 212.174ZM228.504 237.618C226.546 237.618 224.774 237.186 223.19 236.322C221.606 235.43 220.354 234.162 219.432 232.521C218.51 230.85 218.05 228.849 218.05 226.516C218.05 224.212 218.51 222.225 219.432 220.554C220.382 218.884 221.606 217.602 223.104 216.71C224.602 215.817 226.171 215.37 227.813 215.37C229.742 215.37 231.355 215.802 232.651 216.666C233.947 217.502 234.926 218.682 235.589 220.209C236.251 221.706 236.582 223.449 236.582 225.436C236.582 226.473 236.51 227.279 236.366 227.855H222.888C223.118 229.727 223.795 231.182 224.918 232.218C226.042 233.255 227.453 233.774 229.152 233.774C230.074 233.774 230.923 233.644 231.701 233.385C232.507 233.097 233.299 232.708 234.077 232.218L235.762 235.329C234.754 235.991 233.63 236.538 232.392 236.97C231.154 237.402 229.858 237.618 228.504 237.618ZM222.845 224.486H232.262C232.262 222.844 231.902 221.562 231.182 220.641C230.462 219.69 229.382 219.215 227.942 219.215C226.704 219.215 225.595 219.676 224.616 220.598C223.666 221.49 223.075 222.786 222.845 224.486ZM249.803 245.481V215.889H253.907L254.252 218.135H254.425C255.318 217.386 256.312 216.738 257.406 216.191C258.529 215.644 259.667 215.37 260.819 215.37C263.468 215.37 265.513 216.35 266.953 218.308C268.422 220.266 269.156 222.887 269.156 226.17C269.156 228.59 268.724 230.663 267.86 232.391C266.996 234.09 265.873 235.386 264.491 236.279C263.137 237.172 261.668 237.618 260.084 237.618C259.163 237.618 258.241 237.417 257.32 237.014C256.398 236.582 255.505 236.006 254.641 235.286L254.771 238.828V245.481H249.803ZM259.048 233.514C260.459 233.514 261.64 232.895 262.59 231.657C263.54 230.418 264.016 228.604 264.016 226.214C264.016 224.082 263.656 222.426 262.936 221.246C262.216 220.065 261.049 219.474 259.436 219.474C257.939 219.474 256.384 220.266 254.771 221.85V231.743C255.548 232.377 256.297 232.838 257.017 233.126C257.737 233.385 258.414 233.514 259.048 233.514ZM274.101 237.1V215.889H278.205L278.55 219.647H278.723C279.472 218.265 280.379 217.214 281.445 216.494C282.51 215.745 283.605 215.37 284.728 215.37C285.736 215.37 286.542 215.514 287.147 215.802L286.283 220.122C285.909 220.007 285.563 219.921 285.246 219.863C284.93 219.806 284.541 219.777 284.08 219.777C283.245 219.777 282.366 220.108 281.445 220.77C280.523 221.404 279.731 222.527 279.069 224.14V237.1H274.101ZM290.13 237.1V215.889H295.098V237.1H290.13ZM292.636 212.174C291.743 212.174 291.023 211.914 290.476 211.396C289.928 210.878 289.655 210.186 289.655 209.322C289.655 208.487 289.928 207.81 290.476 207.292C291.023 206.774 291.743 206.514 292.636 206.514C293.528 206.514 294.248 206.774 294.796 207.292C295.343 207.81 295.616 208.487 295.616 209.322C295.616 210.186 295.343 210.878 294.796 211.396C294.248 211.914 293.528 212.174 292.636 212.174ZM306.102 237.1L298.715 215.889H303.769L307.139 226.905C307.427 227.942 307.715 228.993 308.003 230.058C308.32 231.124 308.622 232.204 308.91 233.298H309.083C309.4 232.204 309.702 231.124 309.99 230.058C310.307 228.993 310.609 227.942 310.897 226.905L314.267 215.889H319.062L311.848 237.1H306.102ZM326.95 237.618C325.106 237.618 323.594 237.042 322.414 235.89C321.262 234.738 320.686 233.241 320.686 231.398C320.686 229.122 321.679 227.366 323.666 226.127C325.654 224.86 328.822 223.996 333.17 223.535C333.142 222.412 332.839 221.447 332.263 220.641C331.716 219.806 330.722 219.388 329.282 219.388C328.246 219.388 327.223 219.59 326.215 219.993C325.236 220.396 324.271 220.886 323.321 221.462L321.506 218.135C322.687 217.386 324.012 216.738 325.481 216.191C326.978 215.644 328.562 215.37 330.233 215.37C332.882 215.37 334.855 216.162 336.151 217.746C337.476 219.302 338.138 221.562 338.138 224.529V237.1H334.034L333.689 234.767H333.516C332.566 235.574 331.543 236.25 330.449 236.798C329.383 237.345 328.217 237.618 326.95 237.618ZM328.548 233.73C329.412 233.73 330.19 233.529 330.881 233.126C331.601 232.694 332.364 232.118 333.17 231.398V226.646C330.29 227.02 328.289 227.582 327.166 228.33C326.042 229.05 325.481 229.943 325.481 231.009C325.481 231.959 325.769 232.65 326.345 233.082C326.921 233.514 327.655 233.73 328.548 233.73ZM350.796 237.618C348.348 237.618 346.606 236.913 345.569 235.502C344.561 234.062 344.057 232.204 344.057 229.929V219.82H341.033V216.105L344.316 215.889L344.921 210.1H349.068V215.889H354.468V219.82H349.068V229.929C349.068 232.406 350.062 233.644 352.049 233.644C352.423 233.644 352.812 233.601 353.215 233.514C353.618 233.399 353.964 233.284 354.252 233.169L355.116 236.841C354.54 237.042 353.878 237.215 353.129 237.359C352.409 237.532 351.631 237.618 350.796 237.618Z"></path>
<rect fill-opacity="0.19" fill="black" height="3.6" width="707" y="302.7" x="83"></rect>
<path fill="#262626" d="M115.345 352.345C115.873 351.818 116.727 351.818 117.255 352.345L126.2 361.291L135.145 352.345C135.673 351.818 136.527 351.818 137.055 352.345C137.582 352.873 137.582 353.727 137.055 354.255L127.155 364.155C126.627 364.682 125.773 364.682 125.245 364.155L115.345 354.255C114.818 353.727 114.818 352.873 115.345 352.345Z" clip-rule="evenodd" fill-rule="evenodd"></path>
<path fill="#262626" d="M165.786 371.9V343.647H170.797V367.666H182.547V371.9H165.786ZM195.475 372.418C193.517 372.418 191.746 371.986 190.162 371.122C188.578 370.23 187.325 368.962 186.403 367.321C185.482 365.65 185.021 363.649 185.021 361.316C185.021 359.012 185.482 357.025 186.403 355.354C187.354 353.684 188.578 352.402 190.075 351.51C191.573 350.617 193.142 350.17 194.784 350.17C196.714 350.17 198.326 350.602 199.622 351.466C200.918 352.302 201.898 353.482 202.56 355.009C203.222 356.506 203.554 358.249 203.554 360.236C203.554 361.273 203.482 362.079 203.338 362.655H189.859C190.09 364.527 190.766 365.982 191.89 367.018C193.013 368.055 194.424 368.574 196.123 368.574C197.045 368.574 197.894 368.444 198.672 368.185C199.478 367.897 200.27 367.508 201.048 367.018L202.733 370.129C201.725 370.791 200.602 371.338 199.363 371.77C198.125 372.202 196.829 372.418 195.475 372.418ZM189.816 359.286H199.234C199.234 357.644 198.874 356.362 198.154 355.441C197.434 354.49 196.354 354.015 194.914 354.015C193.675 354.015 192.566 354.476 191.587 355.398C190.637 356.29 190.046 357.586 189.816 359.286ZM208.212 371.9V350.689H213.18V371.9H208.212ZM210.718 346.974C209.825 346.974 209.105 346.714 208.558 346.196C208.01 345.678 207.737 344.986 207.737 344.122C207.737 343.287 208.01 342.61 208.558 342.092C209.105 341.574 209.825 341.314 210.718 341.314C211.61 341.314 212.33 341.574 212.878 342.092C213.425 342.61 213.698 343.287 213.698 344.122C213.698 344.986 213.425 345.678 212.878 346.196C212.33 346.714 211.61 346.974 210.718 346.974ZM228.504 372.418C226.546 372.418 224.774 371.986 223.19 371.122C221.606 370.23 220.354 368.962 219.432 367.321C218.51 365.65 218.05 363.649 218.05 361.316C218.05 359.012 218.51 357.025 219.432 355.354C220.382 353.684 221.606 352.402 223.104 351.51C224.602 350.617 226.171 350.17 227.813 350.17C229.742 350.17 231.355 350.602 232.651 351.466C233.947 352.302 234.926 353.482 235.589 355.009C236.251 356.506 236.582 358.249 236.582 360.236C236.582 361.273 236.51 362.079 236.366 362.655H222.888C223.118 364.527 223.795 365.982 224.918 367.018C226.042 368.055 227.453 368.574 229.152 368.574C230.074 368.574 230.923 368.444 231.701 368.185C232.507 367.897 233.299 367.508 234.077 367.018L235.762 370.129C234.754 370.791 233.63 371.338 232.392 371.77C231.154 372.202 229.858 372.418 228.504 372.418ZM222.845 359.286H232.262C232.262 357.644 231.902 356.362 231.182 355.441C230.462 354.49 229.382 354.015 227.942 354.015C226.704 354.015 225.595 354.476 224.616 355.398C223.666 356.29 223.075 357.586 222.845 359.286ZM249.803 371.9V341.401H254.684V360.452H254.814L262.676 350.689H268.12L260.862 359.329L268.854 371.9H263.454L258.011 362.698L254.684 366.5V371.9H249.803ZM279.957 372.418C278.201 372.418 276.559 371.986 275.033 371.122C273.506 370.23 272.268 368.962 271.317 367.321C270.367 365.65 269.892 363.649 269.892 361.316C269.892 358.954 270.367 356.953 271.317 355.311C272.268 353.641 273.506 352.374 275.033 351.51C276.559 350.617 278.201 350.17 279.957 350.17C281.743 350.17 283.399 350.617 284.925 351.51C286.452 352.374 287.69 353.641 288.641 355.311C289.591 356.953 290.066 358.954 290.066 361.316C290.066 363.649 289.591 365.65 288.641 367.321C287.69 368.962 286.452 370.23 284.925 371.122C283.399 371.986 281.743 372.418 279.957 372.418ZM279.957 368.358C281.513 368.358 282.737 367.71 283.629 366.414C284.522 365.118 284.969 363.418 284.969 361.316C284.969 359.185 284.522 357.471 283.629 356.175C282.737 354.879 281.513 354.231 279.957 354.231C278.402 354.231 277.178 354.879 276.285 356.175C275.421 357.471 274.989 359.185 274.989 361.316C274.989 363.418 275.421 365.118 276.285 366.414C277.178 367.71 278.402 368.358 279.957 368.358ZM294.897 371.9V350.689H299.001L299.347 353.583H299.52C300.412 352.633 301.377 351.826 302.414 351.164C303.48 350.502 304.675 350.17 306 350.17C307.555 350.17 308.793 350.516 309.715 351.207C310.665 351.87 311.385 352.791 311.875 353.972C312.883 352.878 313.934 351.97 315.028 351.25C316.152 350.53 317.376 350.17 318.7 350.17C320.947 350.17 322.603 350.905 323.668 352.374C324.734 353.842 325.267 355.916 325.267 358.594V371.9H320.256V359.242C320.256 357.486 319.982 356.247 319.435 355.527C318.916 354.807 318.11 354.447 317.016 354.447C315.691 354.447 314.208 355.326 312.566 357.082V371.9H307.598V359.242C307.598 357.486 307.324 356.247 306.777 355.527C306.259 354.807 305.438 354.447 304.315 354.447C302.99 354.447 301.507 355.326 299.865 357.082V371.9H294.897ZM331.219 371.9V350.689H335.323L335.668 353.583H335.841C336.734 352.633 337.699 351.826 338.735 351.164C339.801 350.502 340.996 350.17 342.321 350.17C343.876 350.17 345.115 350.516 346.036 351.207C346.987 351.87 347.707 352.791 348.196 353.972C349.204 352.878 350.255 351.97 351.35 351.25C352.473 350.53 353.697 350.17 355.022 350.17C357.268 350.17 358.924 350.905 359.99 352.374C361.055 353.842 361.588 355.916 361.588 358.594V371.9H356.577V359.242C356.577 357.486 356.303 356.247 355.756 355.527C355.238 354.807 354.431 354.447 353.337 354.447C352.012 354.447 350.529 355.326 348.887 357.082V371.9H343.919V359.242C343.919 357.486 343.646 356.247 343.099 355.527C342.58 354.807 341.759 354.447 340.636 354.447C339.311 354.447 337.828 355.326 336.187 357.082V371.9H331.219ZM373.847 372.418C371.572 372.418 369.916 371.684 368.879 370.215C367.842 368.746 367.324 366.673 367.324 363.994V350.689H372.292V363.346C372.292 365.103 372.551 366.342 373.07 367.062C373.588 367.782 374.423 368.142 375.575 368.142C376.497 368.142 377.303 367.911 377.994 367.45C378.714 366.99 379.478 366.241 380.284 365.204V350.689H385.252V371.9H381.191L380.802 368.79H380.673C379.751 369.884 378.743 370.762 377.649 371.425C376.554 372.087 375.287 372.418 373.847 372.418ZM391.458 371.9V350.689H395.562L395.908 353.54H396.081C397.031 352.618 398.068 351.826 399.191 351.164C400.314 350.502 401.596 350.17 403.036 350.17C405.311 350.17 406.967 350.905 408.004 352.374C409.041 353.842 409.559 355.916 409.559 358.594V371.9H404.591V359.242C404.591 357.486 404.332 356.247 403.814 355.527C403.295 354.807 402.446 354.447 401.265 354.447C400.343 354.447 399.522 354.678 398.802 355.138C398.111 355.57 397.319 356.218 396.426 357.082V371.9H391.458ZM420.686 372.418C418.843 372.418 417.331 371.842 416.15 370.69C414.998 369.538 414.422 368.041 414.422 366.198C414.422 363.922 415.416 362.166 417.403 360.927C419.39 359.66 422.558 358.796 426.907 358.335C426.878 357.212 426.576 356.247 426 355.441C425.453 354.606 424.459 354.188 423.019 354.188C421.982 354.188 420.96 354.39 419.952 354.793C418.973 355.196 418.008 355.686 417.057 356.262L415.243 352.935C416.424 352.186 417.749 351.538 419.217 350.991C420.715 350.444 422.299 350.17 423.969 350.17C426.619 350.17 428.592 350.962 429.888 352.546C431.213 354.102 431.875 356.362 431.875 359.329V371.9H427.771L427.425 369.567H427.253C426.302 370.374 425.28 371.05 424.185 371.598C423.12 372.145 421.953 372.418 420.686 372.418ZM422.285 368.53C423.149 368.53 423.926 368.329 424.617 367.926C425.337 367.494 426.101 366.918 426.907 366.198V361.446C424.027 361.82 422.025 362.382 420.902 363.13C419.779 363.85 419.217 364.743 419.217 365.809C419.217 366.759 419.505 367.45 420.081 367.882C420.657 368.314 421.392 368.53 422.285 368.53ZM442.572 372.418C440.816 372.418 439.563 371.886 438.814 370.82C438.094 369.754 437.734 368.3 437.734 366.457V341.401H442.702V366.716C442.702 367.321 442.817 367.753 443.048 368.012C443.278 368.242 443.523 368.358 443.782 368.358C443.897 368.358 443.998 368.358 444.084 368.358C444.2 368.329 444.358 368.3 444.56 368.271L445.208 371.986C444.92 372.102 444.545 372.202 444.084 372.289C443.652 372.375 443.148 372.418 442.572 372.418ZM468.219 372.418C466.203 372.418 464.274 371.497 462.431 369.654H462.301L461.869 371.9H457.938V341.401H462.906V349.263L462.776 352.806C463.669 352.028 464.648 351.394 465.714 350.905C466.779 350.415 467.845 350.17 468.911 350.17C471.56 350.17 473.619 351.15 475.088 353.108C476.557 355.066 477.291 357.673 477.291 360.927C477.291 363.346 476.859 365.42 475.995 367.148C475.131 368.847 474.008 370.158 472.626 371.079C471.272 371.972 469.803 372.418 468.219 372.418ZM467.183 368.314C468.594 368.314 469.775 367.695 470.725 366.457C471.675 365.218 472.151 363.404 472.151 361.014C472.151 358.882 471.791 357.226 471.071 356.046C470.351 354.865 469.184 354.274 467.571 354.274C466.074 354.274 464.519 355.066 462.906 356.65V366.543C463.655 367.177 464.389 367.638 465.109 367.926C465.858 368.185 466.549 368.314 467.183 368.314ZM490.877 372.418C489.12 372.418 487.478 371.986 485.952 371.122C484.426 370.23 483.187 368.962 482.237 367.321C481.286 365.65 480.811 363.649 480.811 361.316C480.811 358.954 481.286 356.953 482.237 355.311C483.187 353.641 484.426 352.374 485.952 351.51C487.478 350.617 489.12 350.17 490.877 350.17C492.662 350.17 494.318 350.617 495.845 351.51C497.371 352.374 498.61 353.641 499.56 355.311C500.51 356.953 500.986 358.954 500.986 361.316C500.986 363.649 500.51 365.65 499.56 367.321C498.61 368.962 497.371 370.23 495.845 371.122C494.318 371.986 492.662 372.418 490.877 372.418ZM490.877 368.358C492.432 368.358 493.656 367.71 494.549 366.414C495.442 365.118 495.888 363.418 495.888 361.316C495.888 359.185 495.442 357.471 494.549 356.175C493.656 354.879 492.432 354.231 490.877 354.231C489.322 354.231 488.098 354.879 487.205 356.175C486.341 357.471 485.909 359.185 485.909 361.316C485.909 363.418 486.341 365.118 487.205 366.414C488.098 367.71 489.322 368.358 490.877 368.358ZM510.655 372.418C508.898 372.418 507.645 371.886 506.897 370.82C506.177 369.754 505.817 368.3 505.817 366.457V341.401H510.785V366.716C510.785 367.321 510.9 367.753 511.13 368.012C511.361 368.242 511.605 368.358 511.865 368.358C511.98 368.358 512.081 368.358 512.167 368.358C512.282 368.329 512.441 368.3 512.642 368.271L513.29 371.986C513.002 372.102 512.628 372.202 512.167 372.289C511.735 372.375 511.231 372.418 510.655 372.418ZM517.458 371.9V350.689H522.426V371.9H517.458ZM519.964 346.974C519.071 346.974 518.351 346.714 517.804 346.196C517.257 345.678 516.983 344.986 516.983 344.122C516.983 343.287 517.257 342.61 517.804 342.092C518.351 341.574 519.071 341.314 519.964 341.314C520.857 341.314 521.577 341.574 522.124 342.092C522.671 342.61 522.945 343.287 522.945 344.122C522.945 344.986 522.671 345.678 522.124 346.196C521.577 346.714 520.857 346.974 519.964 346.974ZM536.065 381.274C534.395 381.274 532.883 381.073 531.529 380.67C530.205 380.266 529.153 379.647 528.376 378.812C527.627 378.006 527.253 376.983 527.253 375.745C527.253 373.988 528.261 372.476 530.277 371.209V371.036C529.729 370.69 529.269 370.23 528.894 369.654C528.549 369.078 528.376 368.358 528.376 367.494C528.376 366.658 528.606 365.91 529.067 365.247C529.557 364.556 530.104 363.994 530.709 363.562V363.39C529.989 362.842 529.341 362.079 528.765 361.1C528.217 360.121 527.944 359.012 527.944 357.774C527.944 356.132 528.333 354.75 529.11 353.626C529.888 352.503 530.91 351.654 532.177 351.078C533.473 350.473 534.856 350.17 536.325 350.17C536.901 350.17 537.448 350.228 537.966 350.343C538.513 350.43 539.003 350.545 539.435 350.689H547.038V354.361H543.15C543.496 354.764 543.784 355.282 544.014 355.916C544.245 356.521 544.36 357.198 544.36 357.946C544.36 359.502 544 360.826 543.28 361.921C542.56 362.986 541.595 363.793 540.385 364.34C539.176 364.887 537.822 365.161 536.325 365.161C535.864 365.161 535.389 365.118 534.899 365.031C534.409 364.945 533.92 364.801 533.43 364.599C533.113 364.887 532.854 365.175 532.653 365.463C532.48 365.751 532.393 366.14 532.393 366.63C532.393 367.234 532.638 367.71 533.128 368.055C533.646 368.401 534.553 368.574 535.849 368.574H539.608C542.171 368.574 544.101 368.991 545.397 369.826C546.721 370.633 547.384 371.958 547.384 373.801C547.384 375.183 546.923 376.436 546.001 377.559C545.08 378.711 543.769 379.618 542.07 380.281C540.371 380.943 538.369 381.274 536.065 381.274ZM536.325 362.05C537.333 362.05 538.197 361.676 538.917 360.927C539.637 360.178 539.997 359.127 539.997 357.774C539.997 356.449 539.637 355.426 538.917 354.706C538.225 353.958 537.361 353.583 536.325 353.583C535.288 353.583 534.409 353.943 533.689 354.663C532.969 355.383 532.609 356.42 532.609 357.774C532.609 359.127 532.969 360.178 533.689 360.927C534.409 361.676 535.288 362.05 536.325 362.05ZM536.843 378.034C538.542 378.034 539.925 377.689 540.99 376.998C542.056 376.306 542.589 375.514 542.589 374.622C542.589 373.786 542.257 373.225 541.595 372.937C540.961 372.649 540.04 372.505 538.83 372.505H535.936C534.784 372.505 533.819 372.404 533.041 372.202C531.947 373.038 531.4 373.974 531.4 375.01C531.4 375.961 531.889 376.695 532.869 377.214C533.848 377.761 535.173 378.034 536.843 378.034Z"></path>
<rect fill-opacity="0.19" fill="black" height="3.6" width="707" y="403.5" x="83"></rect>
<rect fill-opacity="0.19" fill="black" height="3.6" width="707" y="171.5" x="83"></rect>
<path fill="#0067C5" d="M168.218 276.39C167.268 276.39 166.346 276.21 165.454 275.85C164.575 275.49 163.798 274.979 163.121 274.317L164.59 272.61C165.094 273.086 165.67 273.474 166.318 273.777C166.966 274.065 167.614 274.209 168.262 274.209C169.068 274.209 169.68 274.043 170.098 273.712C170.515 273.381 170.724 272.942 170.724 272.394C170.724 271.804 170.515 271.379 170.098 271.12C169.694 270.861 169.176 270.594 168.542 270.321L166.598 269.478C166.138 269.277 165.684 269.018 165.238 268.701C164.806 268.384 164.446 267.981 164.158 267.491C163.884 267.002 163.747 266.411 163.747 265.72C163.747 264.971 163.949 264.302 164.352 263.711C164.77 263.106 165.331 262.631 166.037 262.286C166.757 261.926 167.578 261.746 168.499 261.746C169.32 261.746 170.112 261.911 170.875 262.242C171.638 262.559 172.294 262.991 172.841 263.538L171.566 265.137C171.12 264.762 170.645 264.467 170.141 264.251C169.651 264.035 169.104 263.927 168.499 263.927C167.837 263.927 167.297 264.078 166.879 264.381C166.476 264.669 166.274 265.072 166.274 265.59C166.274 265.95 166.375 266.253 166.577 266.498C166.793 266.728 167.074 266.93 167.419 267.102C167.765 267.261 168.132 267.419 168.521 267.578L170.443 268.377C171.278 268.737 171.962 269.212 172.495 269.802C173.028 270.378 173.294 271.178 173.294 272.2C173.294 272.963 173.093 273.662 172.69 274.295C172.286 274.929 171.703 275.44 170.94 275.829C170.191 276.203 169.284 276.39 168.218 276.39ZM180.183 276.39C179.204 276.39 178.318 276.174 177.526 275.742C176.734 275.296 176.108 274.662 175.647 273.842C175.186 273.006 174.956 272.006 174.956 270.839C174.956 269.687 175.186 268.694 175.647 267.858C176.122 267.023 176.734 266.382 177.483 265.936C178.232 265.49 179.017 265.266 179.838 265.266C180.802 265.266 181.609 265.482 182.257 265.914C182.905 266.332 183.394 266.922 183.726 267.686C184.057 268.434 184.222 269.306 184.222 270.299C184.222 270.818 184.186 271.221 184.114 271.509H177.375C177.49 272.445 177.829 273.172 178.39 273.69C178.952 274.209 179.658 274.468 180.507 274.468C180.968 274.468 181.393 274.403 181.782 274.274C182.185 274.13 182.581 273.935 182.97 273.69L183.812 275.246C183.308 275.577 182.746 275.85 182.127 276.066C181.508 276.282 180.86 276.39 180.183 276.39ZM177.354 269.824H182.062C182.062 269.003 181.882 268.362 181.522 267.902C181.162 267.426 180.622 267.189 179.902 267.189C179.283 267.189 178.729 267.419 178.239 267.88C177.764 268.326 177.469 268.974 177.354 269.824ZM190.919 280.322V265.526H192.971L193.144 266.649H193.23C193.677 266.274 194.173 265.95 194.721 265.677C195.282 265.403 195.851 265.266 196.427 265.266C197.752 265.266 198.774 265.756 199.494 266.735C200.229 267.714 200.596 269.025 200.596 270.666C200.596 271.876 200.38 272.913 199.948 273.777C199.516 274.626 198.954 275.274 198.263 275.721C197.586 276.167 196.852 276.39 196.06 276.39C195.599 276.39 195.138 276.29 194.677 276.088C194.217 275.872 193.77 275.584 193.338 275.224L193.403 276.995V280.322H190.919ZM195.541 274.338C196.247 274.338 196.837 274.029 197.313 273.41C197.788 272.79 198.025 271.883 198.025 270.688C198.025 269.622 197.845 268.794 197.485 268.204C197.125 267.614 196.542 267.318 195.736 267.318C194.987 267.318 194.209 267.714 193.403 268.506V273.453C193.792 273.77 194.166 274 194.526 274.144C194.886 274.274 195.225 274.338 195.541 274.338ZM205.428 276.39C204.507 276.39 203.751 276.102 203.16 275.526C202.584 274.95 202.296 274.202 202.296 273.28C202.296 272.142 202.793 271.264 203.787 270.645C204.78 270.011 206.364 269.579 208.539 269.349C208.525 268.787 208.373 268.305 208.085 267.902C207.812 267.484 207.315 267.275 206.595 267.275C206.076 267.275 205.565 267.376 205.061 267.578C204.572 267.779 204.089 268.024 203.614 268.312L202.707 266.649C203.297 266.274 203.96 265.95 204.694 265.677C205.443 265.403 206.235 265.266 207.07 265.266C208.395 265.266 209.381 265.662 210.029 266.454C210.692 267.232 211.023 268.362 211.023 269.846V276.131H208.971L208.798 274.965H208.712C208.237 275.368 207.725 275.706 207.178 275.98C206.645 276.254 206.062 276.39 205.428 276.39ZM206.228 274.446C206.66 274.446 207.048 274.346 207.394 274.144C207.754 273.928 208.136 273.64 208.539 273.28V270.904C207.099 271.091 206.098 271.372 205.536 271.746C204.975 272.106 204.694 272.553 204.694 273.086C204.694 273.561 204.838 273.906 205.126 274.122C205.414 274.338 205.781 274.446 206.228 274.446ZM207.157 264.057C206.321 264.057 205.673 263.848 205.212 263.43C204.766 263.013 204.543 262.494 204.543 261.875C204.543 261.242 204.766 260.716 205.212 260.298C205.673 259.881 206.321 259.672 207.157 259.672C207.992 259.672 208.633 259.881 209.079 260.298C209.54 260.716 209.77 261.242 209.77 261.875C209.77 262.494 209.54 263.013 209.079 263.43C208.633 263.848 207.992 264.057 207.157 264.057ZM207.157 263.063C207.459 263.063 207.711 262.955 207.912 262.739C208.129 262.523 208.237 262.235 208.237 261.875C208.237 261.501 208.129 261.206 207.912 260.99C207.711 260.774 207.459 260.666 207.157 260.666C206.854 260.666 206.595 260.774 206.379 260.99C206.177 261.206 206.077 261.501 206.077 261.875C206.077 262.235 206.177 262.523 206.379 262.739C206.595 262.955 206.854 263.063 207.157 263.063ZM218.752 276.131V267.491H217.326V265.634L218.752 265.526V264.424C218.752 263.315 219.025 262.408 219.573 261.702C220.12 260.982 221.02 260.622 222.273 260.622C222.647 260.622 223.007 260.658 223.353 260.73C223.698 260.802 223.986 260.889 224.217 260.99L223.741 262.847C223.353 262.674 222.964 262.588 222.575 262.588C221.682 262.588 221.236 263.186 221.236 264.381V265.526H223.309V267.491H221.236V276.131H218.752ZM225.175 276.131V265.526H227.659V276.131H225.175ZM226.428 263.668C225.982 263.668 225.622 263.538 225.348 263.279C225.074 263.02 224.938 262.674 224.938 262.242C224.938 261.825 225.074 261.486 225.348 261.227C225.622 260.968 225.982 260.838 226.428 260.838C226.874 260.838 227.234 260.968 227.508 261.227C227.782 261.486 227.918 261.825 227.918 262.242C227.918 262.674 227.782 263.02 227.508 263.279C227.234 263.538 226.874 263.668 226.428 263.668ZM230.828 276.131V265.526H232.88L233.053 266.951H233.14C233.615 266.49 234.133 266.094 234.695 265.763C235.256 265.432 235.897 265.266 236.617 265.266C237.755 265.266 238.583 265.634 239.101 266.368C239.62 267.102 239.879 268.139 239.879 269.478V276.131H237.395V269.802C237.395 268.924 237.265 268.305 237.006 267.945C236.747 267.585 236.322 267.405 235.732 267.405C235.271 267.405 234.86 267.52 234.5 267.75C234.155 267.966 233.759 268.29 233.312 268.722V276.131H230.828ZM242.915 276.131V265.526H244.967L245.14 266.951H245.226C245.702 266.49 246.22 266.094 246.782 265.763C247.343 265.432 247.984 265.266 248.704 265.266C249.842 265.266 250.67 265.634 251.188 266.368C251.706 267.102 251.966 268.139 251.966 269.478V276.131H249.482V269.802C249.482 268.924 249.352 268.305 249.093 267.945C248.834 267.585 248.409 267.405 247.818 267.405C247.358 267.405 246.947 267.52 246.587 267.75C246.242 267.966 245.846 268.29 245.399 268.722V276.131H242.915ZM256.406 276.39C255.959 276.39 255.578 276.232 255.261 275.915C254.944 275.598 254.786 275.195 254.786 274.706C254.786 274.216 254.944 273.813 255.261 273.496C255.578 273.179 255.959 273.021 256.406 273.021C256.867 273.021 257.248 273.179 257.551 273.496C257.853 273.813 258.004 274.216 258.004 274.706C258.004 275.195 257.853 275.598 257.551 275.915C257.248 276.232 256.867 276.39 256.406 276.39ZM260.95 276.131V265.526H263.002L263.175 266.951H263.261C263.737 266.49 264.255 266.094 264.817 265.763C265.378 265.432 266.019 265.266 266.739 265.266C267.877 265.266 268.705 265.634 269.223 266.368C269.741 267.102 270.001 268.139 270.001 269.478V276.131H267.517V269.802C267.517 268.924 267.387 268.305 267.128 267.945C266.869 267.585 266.444 267.405 265.853 267.405C265.393 267.405 264.982 267.52 264.622 267.75C264.277 267.966 263.881 268.29 263.434 268.722V276.131H260.95ZM277.379 276.39C276.5 276.39 275.679 276.174 274.916 275.742C274.153 275.296 273.534 274.662 273.059 273.842C272.583 273.006 272.346 272.006 272.346 270.839C272.346 269.658 272.583 268.658 273.059 267.837C273.534 267.002 274.153 266.368 274.916 265.936C275.679 265.49 276.5 265.266 277.379 265.266C278.271 265.266 279.099 265.49 279.863 265.936C280.626 266.368 281.245 267.002 281.72 267.837C282.195 268.658 282.433 269.658 282.433 270.839C282.433 272.006 282.195 273.006 281.72 273.842C281.245 274.662 280.626 275.296 279.863 275.742C279.099 276.174 278.271 276.39 277.379 276.39ZM277.379 274.36C278.156 274.36 278.768 274.036 279.215 273.388C279.661 272.74 279.884 271.89 279.884 270.839C279.884 269.774 279.661 268.917 279.215 268.269C278.768 267.621 278.156 267.297 277.379 267.297C276.601 267.297 275.989 267.621 275.543 268.269C275.111 268.917 274.895 269.774 274.895 270.839C274.895 271.89 275.111 272.74 275.543 273.388C275.989 274.036 276.601 274.36 277.379 274.36Z"></path>
<path fill="#0067C5" d="M162.3 277.751H283.319V278.831H162.3V277.751Z"></path>
</svg>
