<svg xmlns="http://www.w3.org/2000/svg" fill="none" viewBox="0 0 200 200" height="200" width="200">
<path fill="#C0D6E4" d="M35 66C35 61.5817 38.5817 58 43 58H65C69.4183 58 73 61.5817 73 66V134C73 138.418 69.4183 142 65 142H43C38.5817 142 35 138.418 35 134V66Z"></path>
<mask fill="white" id="path-2-inside-1_4412_3221">
<path d="M65 140V142H43V140H65ZM71 134V66C71 62.6863 68.3137 60 65 60H43C39.6863 60 37 62.6863 37 66V134C37 137.314 39.6863 140 43 140V142L42.5879 141.989C38.3611 141.775 35 138.28 35 134V66C35 61.5817 38.5817 58 43 58H65L65.4121 58.0107C69.6389 58.2252 73 61.7199 73 66V134C73 138.418 69.4183 142 65 142V140C68.3137 140 71 137.314 71 134Z"></path>
</mask>
<path mask="url(#path-2-inside-1_4412_3221)" fill-opacity="0.247059" fill="#005A92" d="M43 142L41.6971 191.983L42.3485 192H43V142ZM42.5879 141.989L40.0539 191.925L40.6692 191.956L41.285 191.972L42.5879 141.989ZM65 58L66.3029 8.01698L65.6515 8H65V58ZM65.4121 58.0107L67.9461 8.075L67.3308 8.04377L66.715 8.02772L65.4121 58.0107ZM65 140H15V142H65H115V140H65ZM65 142V92H43V142V192H65V142ZM43 142H93V140H43H-7V142H43ZM43 140V190H65V140V90H43V140ZM71 134H121V66H71H21V134H71ZM71 66H121C121 35.072 95.9279 10 65 10V60V110C40.6995 110 21 90.3005 21 66H71ZM65 60V10H43V60V110H65V60ZM43 60V10C12.0721 10 -13 35.0721 -13 66H37H87C87 90.3005 67.3005 110 43 110V60ZM37 66H-13V134H37H87V66H37ZM37 134H-13C-13 164.928 12.0721 190 43 190V140V90C67.3005 90 87 109.699 87 134H37ZM43 140H-7V142H43H93V140H43ZM43 142L44.3029 92.017L43.8908 92.0062L42.5879 141.989L41.285 191.972L41.6971 191.983L43 142ZM42.5879 141.989L45.1219 92.0535C67.3515 93.1816 85 111.512 85 134H35H-15C-15 165.048 9.37078 190.368 40.0539 191.925L42.5879 141.989ZM35 134H85V66H35H-15V134H35ZM35 66H85C85 89.196 66.196 108 43 108V58V8C10.9675 8 -15 33.9675 -15 66H35ZM43 58V108H65V58V8H43V58ZM65 58L63.6971 107.983L64.1092 107.994L65.4121 58.0107L66.715 8.02772L66.3029 8.01698L65 58ZM65.4121 58.0107L62.8781 107.946C40.6485 106.818 23 88.488 23 66H73H123C123 34.9519 98.6292 9.63202 67.9461 8.075L65.4121 58.0107ZM73 66H23V134H73H123V66H73ZM73 134H23C23 110.804 41.804 92 65 92V142V192C97.0325 192 123 166.033 123 134H73ZM65 142H115V140H65H15V142H65ZM65 140V190C95.9279 190 121 164.928 121 134H71H21C21 109.699 40.6995 90 65 90V140Z"></path>
<path fill="#C0D6E4" d="M157 104C161.418 104 165 107.582 165 112V134C165 138.418 161.418 142 157 142L89 142C84.5817 142 81 138.418 81 134L81 112C81 107.582 84.5817 104 89 104L157 104Z"></path>
<mask fill="white" id="path-5-inside-2_4412_3221">
<path d="M157 140V142H89V140H157ZM163 134V112C163 108.79 160.479 106.168 157.309 106.008L157 106H89C85.7898 106 83.1684 108.521 83.0078 111.691L83 112V134C83 137.314 85.6863 140 89 140V142L88.5879 141.989C84.3611 141.775 81 138.28 81 134V112C81 107.72 84.3611 104.225 88.5879 104.011L89 104H157L157.412 104.011C161.639 104.225 165 107.72 165 112V134L164.989 134.412C164.782 138.502 161.502 141.782 157.412 141.989L157 142V140C160.21 140 162.832 137.479 162.992 134.309L163 134Z"></path>
</mask>
<path mask="url(#path-5-inside-2_4412_3221)" fill-opacity="0.247059" fill="#005A92" d="M157 140V90V140ZM157 142V192H157.652L158.303 191.983L157 142ZM89 142L87.6971 191.983L88.3485 192H89V142ZM163 134L212.984 135.265L213 134.633V134H163ZM163 112H213V112L163 112ZM157.309 106.008L159.838 56.0719L159.207 56.0398L158.574 56.0238L157.309 106.008ZM157 106L158.265 56.016L157.633 56H157V106ZM89 106V56H89L89 106ZM83.0078 111.691L33.0719 109.162L33.0398 109.793L33.0238 110.426L83.0078 111.691ZM83 112L33.016 110.735L33 111.367V112H83ZM83 134L133 134V134H83ZM88.5879 141.989L86.0539 191.925L86.6692 191.956L87.285 191.972L88.5879 141.989ZM81 134L131 134V134H81ZM81 112L31 112V112H81ZM88.5879 104.011L87.285 54.0277L86.6692 54.0438L86.0539 54.075L88.5879 104.011ZM89 104V54H88.3485L87.6971 54.017L89 104ZM157 104L158.303 54.017L157.652 54H157V104ZM157.412 104.011L159.946 54.075L159.331 54.0438L158.715 54.0277L157.412 104.011ZM165 112H215V112L165 112ZM165 134L214.983 135.303L215 134.652V134H165ZM164.989 134.412L214.925 136.946L214.956 136.331L214.972 135.715L164.989 134.412ZM157.412 141.989L158.715 191.972L159.331 191.956L159.946 191.925L157.412 141.989ZM162.992 134.309L212.928 136.838L212.96 136.207L212.976 135.574L162.992 134.309ZM157 140H107V142H157H207V140H157ZM157 142V92H89V142V192H157V142ZM89 142H139V140H89H39V142H89ZM89 140V190H157V140V90H89V140ZM163 134H213V112H163H113V134H163ZM163 112L213 112C213 82.0228 189.47 57.5731 159.838 56.0719L157.309 106.008L154.779 155.944C131.488 154.764 113 135.557 113 112L163 112ZM157.309 106.008L158.574 56.0238L158.265 56.016L157 106L155.735 155.984L156.043 155.992L157.309 106.008ZM157 106V56H89V106V156H157V106ZM89 106L89 56C59.0228 56 34.573 79.5305 33.0719 109.162L83.0078 111.691L132.944 114.221C131.764 137.512 112.557 156 89 156L89 106ZM83.0078 111.691L33.0238 110.426L33.016 110.735L83 112L132.984 113.265L132.992 112.957L83.0078 111.691ZM83 112H33V134H83H133V112H83ZM83 134L33 134C33 164.928 58.0721 190 89 190L89 140L89 90C113.301 90 133 109.699 133 134L83 134ZM89 140H39V142H89H139V140H89ZM89 142L90.3029 92.017L89.8908 92.0062L88.5879 141.989L87.285 191.972L87.6971 191.983L89 142ZM88.5879 141.989L91.1219 92.0535C113.352 93.1816 131 111.512 131 134L81 134L31 134C31 165.048 55.3708 190.368 86.0539 191.925L88.5879 141.989ZM81 134H131V112H81H31V134H81ZM81 112L131 112C131 134.488 113.352 152.818 91.1219 153.946L88.5879 104.011L86.0539 54.075C55.3708 55.632 31 80.9519 31 112L81 112ZM88.5879 104.011L89.8908 153.994L90.3029 153.983L89 104L87.6971 54.017L87.285 54.0277L88.5879 104.011ZM89 104V154H157V104V54H89V104ZM157 104L155.697 153.983L156.109 153.994L157.412 104.011L158.715 54.0277L158.303 54.017L157 104ZM157.412 104.011L154.878 153.946C132.648 152.818 115 134.488 115 112L165 112L215 112C215 80.9519 190.629 55.632 159.946 54.075L157.412 104.011ZM165 112H115V134H165H215V112H165ZM165 134L115.017 132.697L115.006 133.109L164.989 134.412L214.972 135.715L214.983 135.303L165 134ZM164.989 134.412L115.054 131.878C116.146 110.347 133.347 93.1461 154.878 92.0535L157.412 141.989L159.946 191.925C189.658 190.417 213.417 166.658 214.925 136.946L164.989 134.412ZM157.412 141.989L156.109 92.0062L155.697 92.017L157 142L158.303 191.983L158.715 191.972L157.412 141.989ZM157 142H207V140H157H107V142H157ZM157 140V190C186.977 190 211.427 166.47 212.928 136.838L162.992 134.309L113.056 131.779C114.236 108.488 133.443 90 157 90V140ZM162.992 134.309L212.976 135.574L212.984 135.265L163 134L113.016 132.735L113.008 133.043L162.992 134.309Z"></path>
<path fill="#417DA0" d="M157 58C161.418 58 165 61.5817 165 66V88C165 92.4183 161.418 96 157 96L89 96C84.5817 96 81 92.4183 81 88L81 66C81 61.5817 84.5817 58 89 58L157 58Z"></path>
</svg>
