<svg xmlns="http://www.w3.org/2000/svg" fill="none" viewBox="0 0 384 160" height="160" width="384">
<path fill="#262626" d="M20.494 42V30.228H27.586V31.992H22.582V34.998H26.812V36.762H22.582V40.236H27.766V42H20.494ZM29.4415 38.22V36.708H33.7255V38.22H29.4415ZM35.8003 45.492V33.162H37.5103L37.6543 34.098H37.7263C38.0983 33.786 38.5123 33.516 38.9683 33.288C39.4363 33.06 39.9103 32.946 40.3903 32.946C41.4943 32.946 42.3463 33.354 42.9463 34.17C43.5583 34.986 43.8643 36.078 43.8643 37.446C43.8643 38.454 43.6843 39.318 43.3243 40.038C42.9643 40.746 42.4963 41.286 41.9203 41.658C41.3563 42.03 40.7443 42.216 40.0843 42.216C39.7003 42.216 39.3163 42.132 38.9323 41.964C38.5483 41.784 38.1763 41.544 37.8163 41.244L37.8703 42.72V45.492H35.8003ZM39.6523 40.506C40.2403 40.506 40.7323 40.248 41.1283 39.732C41.5243 39.216 41.7223 38.46 41.7223 37.464C41.7223 36.576 41.5723 35.886 41.2723 35.394C40.9723 34.902 40.4863 34.656 39.8143 34.656C39.1903 34.656 38.5423 34.986 37.8703 35.646V39.768C38.1943 40.032 38.5063 40.224 38.8063 40.344C39.1063 40.452 39.3883 40.506 39.6523 40.506ZM49.5785 42.216C48.8465 42.216 48.1625 42.036 47.5265 41.676C46.8905 41.304 46.3745 40.776 45.9785 40.092C45.5825 39.396 45.3845 38.562 45.3845 37.59C45.3845 36.606 45.5825 35.772 45.9785 35.088C46.3745 34.392 46.8905 33.864 47.5265 33.504C48.1625 33.132 48.8465 32.946 49.5785 32.946C50.3225 32.946 51.0125 33.132 51.6485 33.504C52.2845 33.864 52.8005 34.392 53.1965 35.088C53.5925 35.772 53.7905 36.606 53.7905 37.59C53.7905 38.562 53.5925 39.396 53.1965 40.092C52.8005 40.776 52.2845 41.304 51.6485 41.676C51.0125 42.036 50.3225 42.216 49.5785 42.216ZM49.5785 40.524C50.2265 40.524 50.7365 40.254 51.1085 39.714C51.4805 39.174 51.6665 38.466 51.6665 37.59C51.6665 36.702 51.4805 35.988 51.1085 35.448C50.7365 34.908 50.2265 34.638 49.5785 34.638C48.9305 34.638 48.4205 34.908 48.0485 35.448C47.6885 35.988 47.5085 36.702 47.5085 37.59C47.5085 38.466 47.6885 39.174 48.0485 39.714C48.4205 40.254 48.9305 40.524 49.5785 40.524ZM58.2351 42.216C57.6351 42.216 57.0351 42.102 56.4351 41.874C55.8351 41.634 55.3191 41.34 54.8871 40.992L55.8591 39.66C56.2551 39.96 56.6511 40.2 57.0471 40.38C57.4431 40.56 57.8631 40.65 58.3071 40.65C58.7871 40.65 59.1411 40.548 59.3691 40.344C59.5971 40.14 59.7111 39.888 59.7111 39.588C59.7111 39.336 59.6151 39.132 59.4231 38.976C59.2431 38.808 59.0091 38.664 58.7211 38.544C58.4331 38.412 58.1331 38.286 57.8211 38.166C57.4371 38.022 57.0531 37.848 56.6691 37.644C56.2971 37.428 55.9911 37.158 55.7511 36.834C55.5111 36.498 55.3911 36.084 55.3911 35.592C55.3911 34.812 55.6791 34.176 56.2551 33.684C56.8311 33.192 57.6111 32.946 58.5951 32.946C59.2191 32.946 59.7771 33.054 60.2691 33.27C60.7611 33.486 61.1871 33.732 61.5471 34.008L60.5931 35.268C60.2811 35.04 59.9631 34.86 59.6391 34.728C59.3271 34.584 58.9971 34.512 58.6491 34.512C58.2051 34.512 57.8751 34.608 57.6591 34.8C57.4431 34.98 57.3351 35.208 57.3351 35.484C57.3351 35.832 57.5151 36.096 57.8751 36.276C58.2351 36.456 58.6551 36.63 59.1351 36.798C59.5431 36.942 59.9391 37.122 60.3231 37.338C60.7071 37.542 61.0251 37.812 61.2771 38.148C61.5411 38.484 61.6731 38.928 61.6731 39.48C61.6731 40.236 61.3791 40.884 60.7911 41.424C60.2031 41.952 59.3511 42.216 58.2351 42.216ZM66.2835 42.216C65.2635 42.216 64.5375 41.922 64.1055 41.334C63.6855 40.734 63.4755 39.96 63.4755 39.012V34.8H62.2155V33.252L63.5835 33.162L63.8355 30.75H65.5635V33.162H67.8135V34.8H65.5635V39.012C65.5635 40.044 65.9775 40.56 66.8055 40.56C66.9615 40.56 67.1235 40.542 67.2915 40.506C67.4595 40.458 67.6035 40.41 67.7235 40.362L68.0835 41.892C67.8435 41.976 67.5675 42.048 67.2555 42.108C66.9555 42.18 66.6315 42.216 66.2835 42.216Z"></path>
<rect fill="white" rx="3" height="46" width="344" y="57" x="20"></rect>
<path fill="#262626" d="M28.422 86V84.776H31.05V76.316H28.962V75.362C29.49 75.266 29.946 75.152 30.33 75.02C30.726 74.876 31.08 74.708 31.392 74.516H32.526V84.776H34.902V86H28.422ZM36.6673 86V85.118C37.8193 83.966 38.7973 82.958 39.6013 82.094C40.4053 81.218 41.0173 80.432 41.4373 79.736C41.8573 79.028 42.0673 78.368 42.0673 77.756C42.0673 77.096 41.8873 76.556 41.5273 76.136C41.1673 75.716 40.6213 75.506 39.8893 75.506C39.4093 75.506 38.9653 75.644 38.5573 75.92C38.1493 76.184 37.7773 76.508 37.4413 76.892L36.5953 76.046C37.0753 75.518 37.5853 75.098 38.1253 74.786C38.6773 74.462 39.3253 74.3 40.0693 74.3C41.1373 74.3 41.9773 74.612 42.5893 75.236C43.2013 75.848 43.5073 76.664 43.5073 77.684C43.5073 78.404 43.3033 79.136 42.8953 79.88C42.4993 80.612 41.9473 81.386 41.2393 82.202C40.5433 83.006 39.7393 83.882 38.8273 84.83C39.1393 84.806 39.4633 84.782 39.7993 84.758C40.1353 84.734 40.4533 84.722 40.7533 84.722H44.0833V86H36.6673ZM49.1425 86.216C48.2305 86.216 47.4685 86.054 46.8565 85.73C46.2445 85.394 45.7465 85.016 45.3625 84.596L46.1185 83.624C46.4665 83.984 46.8745 84.302 47.3425 84.578C47.8105 84.854 48.3805 84.992 49.0525 84.992C49.7485 84.992 50.3185 84.8 50.7625 84.416C51.2065 84.032 51.4285 83.522 51.4285 82.886C51.4285 82.43 51.3085 82.034 51.0685 81.698C50.8405 81.35 50.4565 81.08 49.9165 80.888C49.3885 80.696 48.6685 80.6 47.7565 80.6V79.466C48.5725 79.466 49.2145 79.37 49.6825 79.178C50.1625 78.986 50.5045 78.728 50.7085 78.404C50.9125 78.08 51.0145 77.72 51.0145 77.324C51.0145 76.76 50.8345 76.316 50.4745 75.992C50.1265 75.668 49.6465 75.506 49.0345 75.506C48.5545 75.506 48.1105 75.614 47.7025 75.83C47.3065 76.046 46.9345 76.328 46.5865 76.676L45.7945 75.74C46.2385 75.32 46.7305 74.978 47.2705 74.714C47.8105 74.438 48.4165 74.3 49.0885 74.3C50.0845 74.3 50.9065 74.558 51.5545 75.074C52.2025 75.578 52.5265 76.292 52.5265 77.216C52.5265 77.912 52.3345 78.482 51.9505 78.926C51.5665 79.37 51.0625 79.712 50.4385 79.952V80.024C51.1345 80.18 51.7225 80.51 52.2025 81.014C52.6825 81.506 52.9225 82.148 52.9225 82.94C52.9225 83.612 52.7545 84.194 52.4185 84.686C52.0825 85.178 51.6265 85.556 51.0505 85.82C50.4865 86.084 49.8505 86.216 49.1425 86.216ZM55.7138 81.644H59.3138V78.314C59.3138 78.002 59.3258 77.63 59.3498 77.198C59.3738 76.766 59.3918 76.4 59.4038 76.1H59.3318C59.1878 76.376 59.0378 76.646 58.8818 76.91C58.7258 77.174 58.5638 77.444 58.3958 77.72L55.7138 81.644ZM59.3138 86V82.832H54.1478V81.86L59.0618 74.516H60.7178V81.644H62.2838V82.832H60.7178V86H59.3138ZM67.0011 86.216C66.0891 86.216 65.3331 86.054 64.7331 85.73C64.1331 85.406 63.6351 85.046 63.2391 84.65L63.9591 83.678C64.3071 84.014 64.7091 84.32 65.1651 84.596C65.6211 84.86 66.1851 84.992 66.8571 84.992C67.5651 84.992 68.1591 84.758 68.6391 84.29C69.1311 83.81 69.3771 83.168 69.3771 82.364C69.3771 81.572 69.1551 80.954 68.7111 80.51C68.2671 80.066 67.6731 79.844 66.9291 79.844C66.5331 79.844 66.1911 79.904 65.9031 80.024C65.6271 80.144 65.3151 80.318 64.9671 80.546L64.1751 80.042L64.5531 74.516H70.2951V75.794H65.8491L65.5431 79.196C65.8191 79.052 66.0951 78.938 66.3711 78.854C66.6471 78.77 66.9591 78.728 67.3071 78.728C67.9671 78.728 68.5611 78.86 69.0891 79.124C69.6291 79.376 70.0611 79.766 70.3851 80.294C70.7091 80.822 70.8711 81.5 70.8711 82.328C70.8711 83.156 70.6851 83.864 70.3131 84.452C69.9531 85.028 69.4791 85.466 68.8911 85.766C68.3031 86.066 67.6731 86.216 67.0011 86.216ZM73.9863 86.216C73.6863 86.216 73.4283 86.114 73.2123 85.91C73.0083 85.694 72.9063 85.424 72.9063 85.1C72.9063 84.752 73.0083 84.476 73.2123 84.272C73.4283 84.056 73.6863 83.948 73.9863 83.948C74.2743 83.948 74.5203 84.056 74.7243 84.272C74.9403 84.476 75.0483 84.752 75.0483 85.1C75.0483 85.424 74.9403 85.694 74.7243 85.91C74.5203 86.114 74.2743 86.216 73.9863 86.216ZM77.6948 86V77.252H78.9188L79.0448 78.512H79.0988C79.5188 78.092 79.9628 77.744 80.4308 77.468C80.8988 77.18 81.4328 77.036 82.0328 77.036C82.9568 77.036 83.6288 77.33 84.0488 77.918C84.4808 78.494 84.6968 79.34 84.6968 80.456V86H83.2208V80.654C83.2208 79.838 83.0888 79.244 82.8248 78.872C82.5608 78.5 82.1408 78.314 81.5648 78.314C81.1208 78.314 80.7188 78.428 80.3588 78.656C80.0108 78.884 79.6148 79.22 79.1708 79.664V86H77.6948ZM90.9405 86.216C90.2325 86.216 89.5665 86.036 88.9425 85.676C88.3305 85.316 87.8325 84.794 87.4485 84.11C87.0765 83.426 86.8905 82.604 86.8905 81.644C86.8905 80.66 87.0765 79.826 87.4485 79.142C87.8325 78.458 88.3305 77.936 88.9425 77.576C89.5665 77.216 90.2325 77.036 90.9405 77.036C91.6605 77.036 92.3265 77.216 92.9385 77.576C93.5505 77.936 94.0425 78.458 94.4145 79.142C94.7985 79.826 94.9905 80.66 94.9905 81.644C94.9905 82.604 94.7985 83.426 94.4145 84.11C94.0425 84.794 93.5505 85.316 92.9385 85.676C92.3265 86.036 91.6605 86.216 90.9405 86.216ZM90.9405 84.992C91.6965 84.992 92.3025 84.686 92.7585 84.074C93.2265 83.45 93.4605 82.64 93.4605 81.644C93.4605 80.636 93.2265 79.82 92.7585 79.196C92.3025 78.572 91.6965 78.26 90.9405 78.26C90.1965 78.26 89.5905 78.572 89.1225 79.196C88.6545 79.82 88.4205 80.636 88.4205 81.644C88.4205 82.64 88.6545 83.45 89.1225 84.074C89.5905 84.686 90.1965 84.992 90.9405 84.992Z"></path>
<rect stroke-width="2" stroke="#C30000" rx="3" height="46" width="344" y="57" x="20"></rect>
<g filter="url(#filter0_ddd_5063_23031)">
<rect shape-rendering="crispEdges" fill="#262626" rx="2" height="22" width="80" y="25" x="152"></rect>
<path fill="white" d="M161.26 40V30.816H166.552V31.796H162.422V34.904H165.922V35.884H162.422V40H161.26ZM170.689 40.168C170.082 40.168 169.531 40.028 169.037 39.748C168.542 39.4587 168.15 39.048 167.861 38.516C167.571 37.984 167.427 37.3493 167.427 36.612C167.427 35.8653 167.571 35.226 167.861 34.694C168.159 34.162 168.542 33.7513 169.009 33.462C169.475 33.1727 169.965 33.028 170.479 33.028C171.347 33.028 172.014 33.3173 172.481 33.896C172.957 34.4747 173.195 35.2493 173.195 36.22C173.195 36.3413 173.19 36.4627 173.181 36.584C173.181 36.696 173.171 36.794 173.153 36.878H168.561C168.607 37.5967 168.831 38.1707 169.233 38.6C169.643 39.0293 170.175 39.244 170.829 39.244C171.155 39.244 171.454 39.1973 171.725 39.104C172.005 39.0013 172.271 38.8707 172.523 38.712L172.929 39.468C172.639 39.6547 172.308 39.818 171.935 39.958C171.571 40.098 171.155 40.168 170.689 40.168ZM168.547 36.052H172.187C172.187 35.3613 172.037 34.8387 171.739 34.484C171.449 34.12 171.039 33.938 170.507 33.938C170.031 33.938 169.601 34.1247 169.219 34.498C168.845 34.862 168.621 35.38 168.547 36.052ZM174.932 40V33.196H176.08V40H174.932ZM175.52 31.796C175.296 31.796 175.109 31.7307 174.96 31.6C174.82 31.46 174.75 31.2733 174.75 31.04C174.75 30.816 174.82 30.634 174.96 30.494C175.109 30.354 175.296 30.284 175.52 30.284C175.744 30.284 175.926 30.354 176.066 30.494C176.215 30.634 176.29 30.816 176.29 31.04C176.29 31.2733 176.215 31.46 176.066 31.6C175.926 31.7307 175.744 31.796 175.52 31.796ZM179.651 40.168C179.222 40.168 178.909 40.0373 178.713 39.776C178.527 39.5053 178.433 39.1227 178.433 38.628V30.032H179.581V38.712C179.581 38.8893 179.614 39.02 179.679 39.104C179.745 39.1787 179.819 39.216 179.903 39.216C179.941 39.216 179.973 39.216 180.001 39.216C180.039 39.2067 180.09 39.1973 180.155 39.188L180.309 40.056C180.235 40.0933 180.146 40.1213 180.043 40.14C179.941 40.1587 179.81 40.168 179.651 40.168ZM185.112 40V34.134H184.188V33.266L185.112 33.196V32.118C185.112 31.4273 185.271 30.8813 185.588 30.48C185.915 30.0693 186.419 29.864 187.1 29.864C187.315 29.864 187.52 29.8873 187.716 29.934C187.912 29.9713 188.085 30.0227 188.234 30.088L187.982 30.97C187.73 30.858 187.474 30.802 187.212 30.802C186.578 30.802 186.26 31.2407 186.26 32.118V33.196H187.702V34.134H186.26V40H185.112ZM191.569 40.168C191.019 40.168 190.501 40.028 190.015 39.748C189.539 39.468 189.152 39.062 188.853 38.53C188.564 37.998 188.419 37.3587 188.419 36.612C188.419 35.8467 188.564 35.198 188.853 34.666C189.152 34.134 189.539 33.728 190.015 33.448C190.501 33.168 191.019 33.028 191.569 33.028C192.129 33.028 192.647 33.168 193.123 33.448C193.599 33.728 193.982 34.134 194.271 34.666C194.57 35.198 194.719 35.8467 194.719 36.612C194.719 37.3587 194.57 37.998 194.271 38.53C193.982 39.062 193.599 39.468 193.123 39.748C192.647 40.028 192.129 40.168 191.569 40.168ZM191.569 39.216C192.157 39.216 192.629 38.978 192.983 38.502C193.347 38.0167 193.529 37.3867 193.529 36.612C193.529 35.828 193.347 35.1933 192.983 34.708C192.629 34.2227 192.157 33.98 191.569 33.98C190.991 33.98 190.519 34.2227 190.155 34.708C189.791 35.1933 189.609 35.828 189.609 36.612C189.609 37.3867 189.791 38.0167 190.155 38.502C190.519 38.978 190.991 39.216 191.569 39.216ZM196.567 40V33.196H197.519L197.617 34.428H197.659C197.893 33.9987 198.177 33.658 198.513 33.406C198.849 33.154 199.209 33.028 199.591 33.028C199.862 33.028 200.105 33.0747 200.319 33.168L200.095 34.176C199.983 34.1387 199.881 34.1107 199.787 34.092C199.694 34.0733 199.577 34.064 199.437 34.064C199.148 34.064 198.845 34.1807 198.527 34.414C198.219 34.6473 197.949 35.0533 197.715 35.632V40H196.567ZM201.477 40V33.196H202.429L202.527 34.176H202.569C202.868 33.8493 203.194 33.5787 203.549 33.364C203.904 33.14 204.282 33.028 204.683 33.028C205.206 33.028 205.612 33.1447 205.901 33.378C206.2 33.602 206.419 33.9193 206.559 34.33C206.914 33.9473 207.273 33.6347 207.637 33.392C208.001 33.1493 208.388 33.028 208.799 33.028C209.499 33.028 210.017 33.2567 210.353 33.714C210.698 34.162 210.871 34.82 210.871 35.688V40H209.723V35.842C209.723 35.2073 209.62 34.7453 209.415 34.456C209.21 34.1667 208.892 34.022 208.463 34.022C207.959 34.022 207.39 34.372 206.755 35.072V40H205.607V35.842C205.607 35.2073 205.504 34.7453 205.299 34.456C205.094 34.1667 204.772 34.022 204.333 34.022C203.829 34.022 203.26 34.372 202.625 35.072V40H201.477ZM214.708 40.168C214.139 40.168 213.663 40 213.28 39.664C212.907 39.3187 212.72 38.8427 212.72 38.236C212.72 37.4893 213.052 36.92 213.714 36.528C214.386 36.1267 215.446 35.8467 216.892 35.688C216.892 35.3987 216.85 35.1233 216.766 34.862C216.692 34.6007 216.552 34.3907 216.346 34.232C216.15 34.064 215.866 33.98 215.492 33.98C215.1 33.98 214.732 34.0547 214.386 34.204C214.041 34.3533 213.733 34.5213 213.462 34.708L213.014 33.91C213.332 33.7047 213.719 33.5087 214.176 33.322C214.643 33.126 215.147 33.028 215.688 33.028C216.519 33.028 217.121 33.2847 217.494 33.798C217.868 34.302 218.054 34.9787 218.054 35.828V40H217.102L217.004 39.188H216.962C216.645 39.4493 216.295 39.678 215.912 39.874C215.539 40.07 215.138 40.168 214.708 40.168ZM215.044 39.244C215.371 39.244 215.679 39.1647 215.968 39.006C216.258 38.8473 216.566 38.6233 216.892 38.334V36.444C215.763 36.584 214.97 36.794 214.512 37.074C214.064 37.354 213.84 37.7133 213.84 38.152C213.84 38.5347 213.957 38.8147 214.19 38.992C214.424 39.16 214.708 39.244 215.044 39.244ZM222.202 40.168C221.474 40.168 220.965 39.958 220.676 39.538C220.396 39.118 220.256 38.572 220.256 37.9V34.134H219.248V33.266L220.312 33.196L220.452 31.292H221.418V33.196H223.252V34.134H221.418V37.914C221.418 38.334 221.492 38.6607 221.642 38.894C221.8 39.118 222.076 39.23 222.468 39.23C222.589 39.23 222.72 39.2113 222.86 39.174C223 39.1273 223.126 39.0853 223.238 39.048L223.462 39.916C223.275 39.9813 223.07 40.0373 222.846 40.084C222.631 40.14 222.416 40.168 222.202 40.168Z"></path>
<path fill="#262626" d="M197 47L192 52L187 47H197Z"></path>
</g>
<defs>
<filter color-interpolation-filters="sRGB" filterUnits="userSpaceOnUse" height="51" width="104" y="18" x="140" id="filter0_ddd_5063_23031">
<feFlood result="BackgroundImageFix" flood-opacity="0"></feFlood>
<feColorMatrix result="hardAlpha" values="0 0 0 0 0 0 0 0 0 0 0 0 0 0 0 0 0 0 127 0" type="matrix" in="SourceAlpha"></feColorMatrix>
<feOffset dy="5"></feOffset>
<feGaussianBlur stdDeviation="6"></feGaussianBlur>
<feComposite operator="out" in2="hardAlpha"></feComposite>
<feColorMatrix values="0 0 0 0 0 0 0 0 0 0 0 0 0 0 0 0 0 0 0.13 0" type="matrix"></feColorMatrix>
<feBlend result="effect1_dropShadow_5063_23031" in2="BackgroundImageFix" mode="normal"></feBlend>
<feColorMatrix result="hardAlpha" values="0 0 0 0 0 0 0 0 0 0 0 0 0 0 0 0 0 0 127 0" type="matrix" in="SourceAlpha"></feColorMatrix>
<feOffset dy="1"></feOffset>
<feGaussianBlur stdDeviation="1.5"></feGaussianBlur>
<feComposite operator="out" in2="hardAlpha"></feComposite>
<feColorMatrix values="0 0 0 0 0 0 0 0 0 0 0 0 0 0 0 0 0 0 0.1 0" type="matrix"></feColorMatrix>
<feBlend result="effect2_dropShadow_5063_23031" in2="effect1_dropShadow_5063_23031" mode="normal"></feBlend>
<feColorMatrix result="hardAlpha" values="0 0 0 0 0 0 0 0 0 0 0 0 0 0 0 0 0 0 127 0" type="matrix" in="SourceAlpha"></feColorMatrix>
<feOffset></feOffset>
<feGaussianBlur stdDeviation="0.5"></feGaussianBlur>
<feComposite operator="out" in2="hardAlpha"></feComposite>
<feColorMatrix values="0 0 0 0 0 0 0 0 0 0 0 0 0 0 0 0 0 0 0.15 0" type="matrix"></feColorMatrix>
<feBlend result="effect3_dropShadow_5063_23031" in2="effect2_dropShadow_5063_23031" mode="normal"></feBlend>
<feBlend result="shape" in2="effect3_dropShadow_5063_23031" in="SourceGraphic" mode="normal"></feBlend>
</filter>
</defs>
</svg>
