<svg xmlns="http://www.w3.org/2000/svg" fill="none" viewBox="0 0 200 200" height="200" width="200">
<path fill="white" d="M24 92C24 85.3726 29.3726 80 36 80H164C170.627 80 176 85.3726 176 92V108C176 114.627 170.627 120 164 120H36C29.3726 120 24 114.627 24 108V92Z"></path>
<path fill="#417DA0" d="M149.293 96.2929C149.683 95.9024 150.317 95.9024 150.707 96.2929L155.5 101.086L160.293 96.2929C160.683 95.9024 161.317 95.9024 161.707 96.2929C162.098 96.6834 162.098 97.3166 161.707 97.7071L156.207 103.207C155.817 103.598 155.183 103.598 154.793 103.207L149.293 97.7071C148.902 97.3166 148.902 96.6834 149.293 96.2929Z" clip-rule="evenodd" fill-rule="evenodd"></path>
<path fill="#417DA0" d="M164 83H36C31.0294 83 27 87.0294 27 92V108C27 112.971 31.0294 117 36 117H164C168.971 117 173 112.971 173 108V92C173 87.0294 168.971 83 164 83ZM36 80C29.3726 80 24 85.3726 24 92V108C24 114.627 29.3726 120 36 120H164C170.627 120 176 114.627 176 108V92C176 85.3726 170.627 80 164 80H36Z" clip-rule="evenodd" fill-rule="evenodd"></path>
<rect fill="#C0D6E4" rx="4" height="8" width="96" y="96" x="36"></rect>
</svg>
