<svg xmlns="http://www.w3.org/2000/svg" fill="none" viewBox="0 0 200 200" height="200" width="200">
<path fill="#C0D6E4" d="M24 65C24 58.3726 29.3726 53 36 53H166C172.627 53 178 58.3726 178 65V135C178 141.627 172.627 147 166 147H36C29.3726 147 24 141.627 24 135V65Z"></path>
<mask fill="white" id="path-2-inside-1_4412_3231">
<path d="M166 145V147H36V145H166ZM176 135V65C176 59.4772 171.523 55 166 55H36C30.4772 55 26 59.4772 26 65V135C26 140.523 30.4772 145 36 145V147L35.6904 146.996C29.2061 146.832 24 141.524 24 135V65C24 58.3726 29.3726 53 36 53H166C172.627 53 178 58.3726 178 65V135C178 141.627 172.627 147 166 147V145C171.523 145 176 140.523 176 135Z"></path>
</mask>
<path mask="url(#path-2-inside-1_4412_3231)" fill-opacity="0.247059" fill="#005A92" d="M36 147L34.8644 236.993L35.4322 237H36V147ZM35.6904 146.996L33.4121 236.967L33.9834 236.982L34.5549 236.989L35.6904 146.996ZM166 145H76V147H166H256V145H166ZM166 147V57H36V147V237H166V147ZM36 147H126V145H36H-54V147H36ZM36 145V235H166V145V55H36V145ZM176 135H266V65H176H86V135H176ZM176 65H266C266 9.77153 221.228 -35 166 -35V55V145C121.817 145 86 109.183 86 65H176ZM166 55V-35H36V55V145H166V55ZM36 55V-35C-19.2285 -35 -64 9.77153 -64 65H26H116C116 109.183 80.1828 145 36 145V55ZM26 65H-64V135H26H116V65H26ZM26 135H-64C-64 190.229 -19.2285 235 36 235L36 145L36 55C80.1828 55 116 90.8172 116 135H26ZM36 145H-54V147H36H126V145H36ZM36 147L37.1356 57.0072L36.826 57.0033L35.6904 146.996L34.5549 236.989L34.8644 236.993L36 147ZM35.6904 146.996L37.9687 57.0249C80.1624 58.0934 114 92.5814 114 135H24H-66C-66 190.466 -21.7502 235.57 33.4121 236.967L35.6904 146.996ZM24 135H114V65H24H-66V135H24ZM24 65H114C114 108.078 79.0782 143 36 143V53V-37C-20.333 -37 -66 8.66695 -66 65H24ZM36 53V143H166V53V-37H36V53ZM166 53V143C122.922 143 88 108.078 88 65H178H268C268 8.66695 222.333 -37 166 -37V53ZM178 65H88V135H178H268V65H178ZM178 135H88C88 91.9218 122.922 57 166 57V147V237C222.333 237 268 191.333 268 135H178ZM166 147H256V145H166H76V147H166ZM166 145V235C221.228 235 266 190.228 266 135H176H86C86 90.8172 121.817 55 166 55V145Z"></path>
<rect fill="#417DA0" rx="8" height="52" width="100" y="74" x="51"></rect>
</svg>
