<svg xmlns="http://www.w3.org/2000/svg" fill="none" viewBox="0 0 200 200" height="200" width="200">
<path fill="#C0D6E4" d="M26 93C26 88.5817 29.5817 85 34 85H90L98.6515 76.3485C99.4064 75.5936 100.621 75.5647 101.411 76.2828L111 85H166C170.418 85 174 88.5817 174 93V117C174 121.418 170.418 125 166 125H34C29.5817 125 26 121.418 26 117V93Z"></path>
<mask fill="white" id="path-2-inside-1_4412_3220">
<path d="M166 123V125H34V123H166ZM172 117V93.0002C172 89.6865 169.314 87.0002 166 87.0002H110.227L100.065 77.7629L90.8281 87.0002H34C30.6863 87.0002 28 89.6865 28 93.0002V117C28 120.314 30.6863 123 34 123V125L33.5879 124.989C29.4976 124.782 26.2183 121.503 26.0107 117.412L26 117V93.0002C26 88.7202 29.3611 85.2254 33.5879 85.011L34 85.0002H90L98.6514 76.3488C99.4063 75.594 100.621 75.5653 101.411 76.2834L111 85.0002H166C170.418 85.0002 174 88.5819 174 93.0002V117L173.989 117.412C173.782 121.503 170.502 124.782 166.412 124.989L166 125V123C169.314 123 172 120.314 172 117Z"></path>
</mask>
<path mask="url(#path-2-inside-1_4412_3220)" fill-opacity="0.247059" fill="#005A92" d="M166 123H141V125H166H191V123H166ZM34 125H59V123H34H9V125H34ZM166 125V175H166.652L167.303 174.983L166 125ZM34 125L32.6971 174.983L33.3485 175H34V125ZM34 123L34 173H34V123ZM172 93.0002H222V93.0001L172 93.0002ZM110.227 87.0002L76.5931 123.997L90.8964 137H110.227V87.0002ZM100.065 77.7629L133.699 40.7657L98.4217 8.69592L64.7101 42.4076L100.065 77.7629ZM90.8281 87.0002V137H111.539L126.183 122.356L90.8281 87.0002ZM28 93.0002L-22 93.0001V93.0002H28ZM33.5879 124.989L31.0539 174.925L31.6691 174.956L32.285 174.972L33.5879 124.989ZM26.0107 117.412L-23.9723 118.715L-23.9562 119.331L-23.925 119.946L26.0107 117.412ZM26 117H-24V117.652L-23.983 118.303L26 117ZM26 93.0002L-24 93.0001V93.0002H26ZM33.5879 85.011L32.285 35.0279L31.6692 35.044L31.0539 35.0752L33.5879 85.011ZM34 85.0002V35.0002H33.3485L32.6971 35.0172L34 85.0002ZM90 85.0002V135H110.711L125.355 120.356L90 85.0002ZM98.6514 76.3488L63.2961 40.9935L63.296 40.9935L98.6514 76.3488ZM101.411 76.2834L67.7775 113.28L67.7782 113.281L101.411 76.2834ZM111 85.0002L77.3671 121.998L91.6702 135H111V85.0002ZM174 93.0002H224V93.0001L174 93.0002ZM174 117L223.983 118.303L224 117.652V117H174ZM173.989 117.412L223.925 119.946L223.956 119.331L223.972 118.715L173.989 117.412ZM166.412 124.989L167.715 174.972L168.331 174.956L168.946 174.925L166.412 124.989ZM166 125V75.0002H34V125V175H166V125ZM34 123V173H166V123V73.0002H34V123ZM172 117H222V93.0002H172H122V117H172ZM172 93.0002L222 93.0001C222 62.0723 196.928 37.0002 166 37.0002V87.0002V137C141.699 137 122 117.301 122 93.0003L172 93.0002ZM166 87.0002V37.0002H110.227V87.0002V137H166V87.0002ZM100.065 77.7629L64.7101 42.4076L55.4728 51.6449L90.8281 87.0002L126.183 122.356L135.421 113.118L100.065 77.7629ZM90.8281 87.0002V37.0002H34V87.0002V137H90.8281V87.0002ZM34 87.0002V37.0002C3.07196 37.0002 -21.9999 62.0724 -22 93.0001L28 93.0002L78 93.0003C77.9999 117.301 58.3006 137 34 137V87.0002ZM28 93.0002H-22V117H28H78V93.0002H28ZM28 117H-22C-22 147.928 3.07206 173 34 173L34 123L34 73.0002C58.3005 73.0002 78 92.6997 78 117H28ZM34 125L35.3029 75.0172L34.8908 75.0065L33.5879 124.989L32.285 174.972L32.6971 174.983L34 125ZM33.5879 124.989L36.1219 75.0537C57.653 76.1463 74.8539 93.3471 75.9465 114.878L26.0107 117.412L-23.925 119.946C-22.4173 149.658 1.34231 173.417 31.0539 174.925L33.5879 124.989ZM26.0107 117.412L75.9938 116.109L75.983 115.697L26 117L-23.983 118.303L-23.9723 118.715L26.0107 117.412ZM26 117H76V93.0002H26H-24V117H26ZM26 93.0002L76 93.0003C76 115.488 58.3516 133.819 36.1219 134.947L33.5879 85.011L31.0539 35.0752C0.370707 36.6322 -24 61.9522 -24 93.0001L26 93.0002ZM33.5879 85.011L34.8908 134.994L35.3029 134.983L34 85.0002L32.6971 35.0172L32.285 35.0279L33.5879 85.011ZM34 85.0002V135H90V85.0002V35.0002H34V85.0002ZM90 85.0002L125.355 120.356L134.007 111.704L98.6514 76.3488L63.296 40.9935L54.6447 49.6449L90 85.0002ZM98.6514 76.3488L134.007 111.704C115.881 129.83 86.728 130.508 67.7775 113.28L101.411 76.2834L135.045 39.2864C114.514 20.6224 82.9313 21.3583 63.2961 40.9935L98.6514 76.3488ZM101.411 76.2834L67.7782 113.281L77.3671 121.998L111 85.0002L144.633 48.0025L135.044 39.2857L101.411 76.2834ZM111 85.0002V135H166V85.0002V35.0002H111V85.0002ZM166 85.0002V135C142.804 135 124 116.196 124 93.0003L174 93.0002L224 93.0001C224 60.9677 198.033 35.0002 166 35.0002V85.0002ZM174 93.0002H124V117H174H224V93.0002H174ZM174 117L124.017 115.697L124.006 116.109L173.989 117.412L223.972 118.715L223.983 118.303L174 117ZM173.989 117.412L124.054 114.878C125.146 93.3471 142.347 76.1463 163.878 75.0537L166.412 124.989L168.946 174.925C198.658 173.417 222.417 149.658 223.925 119.946L173.989 117.412ZM166.412 124.989L165.109 75.0065L164.697 75.0172L166 125L167.303 174.983L167.715 174.972L166.412 124.989ZM166 123V173C196.928 173 222 147.928 222 117H172H122C122 92.6997 141.699 73.0002 166 73.0002V123ZM110.227 87.0002L143.86 50.0031L133.699 40.7657L100.065 77.7629L66.432 114.76L76.5931 123.997L110.227 87.0002Z"></path>
<rect fill="#417DA0" rx="4" height="8" width="108" y="101" x="46"></rect>
</svg>
