<svg xmlns="http://www.w3.org/2000/svg" fill="none" viewBox="0 0 200 200" height="200" width="200">
<path fill="white" d="M18 63.3333C18 55.9695 23.7967 50 30.9474 50H169.053C176.203 50 182 55.9695 182 63.3333V136.667C182 144.03 176.203 150 169.053 150H30.9474C23.7967 150 18 144.03 18 136.667V63.3333Z"></path>
<path fill="#417DA0" d="M169.053 53.3333H30.9474C25.5844 53.3333 21.2368 57.8105 21.2368 63.3333V136.667C21.2368 142.19 25.5844 146.667 30.9474 146.667H169.053C174.416 146.667 178.763 142.19 178.763 136.667V63.3333C178.763 57.8105 174.416 53.3333 169.053 53.3333ZM30.9474 50C23.7967 50 18 55.9695 18 63.3333V136.667C18 144.03 23.7967 150 30.9474 150H169.053C176.203 150 182 144.03 182 136.667V63.3333C182 55.9695 176.203 50 169.053 50H30.9474Z" clip-rule="evenodd" fill-rule="evenodd"></path>
<rect fill="#417DA0" rx="4" height="8" width="73" y="68" x="36"></rect>
<rect fill="#C0D6E4" rx="4" height="8" width="128" y="96" x="36"></rect>
<rect fill="#C0D6E4" rx="4" height="8" width="128" y="110" x="36"></rect>
<rect fill="#C0D6E4" rx="4" height="8" width="81" y="124" x="36"></rect>
<rect fill="#417DA0" rx="1.5" height="13" width="3" y="121" x="124"></rect>
</svg>
