<svg xmlns="http://www.w3.org/2000/svg" fill="none" viewBox="0 0 200 200" height="200" width="200">
<path fill="white" d="M24 65C24 58.3726 29.3726 53 36 53H164C170.627 53 176 58.3726 176 65V83H24V65Z"></path>
<path fill="white" d="M24 113H176V131C176 137.627 170.627 143 164 143H36C29.3726 143 24 137.627 24 131V113Z"></path>
<path fill="white" d="M24 83H176V113H24V83Z"></path>
<rect fill="#417DA0" rx="4" height="8" width="96" y="64" x="64"></rect>
<rect fill="#417DA0" rx="4" height="8" width="76" y="94" x="64"></rect>
<rect fill="#417DA0" rx="4" height="8" width="96" y="124" x="64"></rect>
<path fill="#417DA0" d="M38.2929 64.2929C38.6834 63.9024 39.3166 63.9024 39.7071 64.2929L44.5 69.0858L49.2929 64.2929C49.6834 63.9024 50.3166 63.9024 50.7071 64.2929C51.0976 64.6834 51.0976 65.3166 50.7071 65.7071L45.2071 71.2071C44.8166 71.5976 44.1834 71.5976 43.7929 71.2071L38.2929 65.7071C37.9024 65.3166 37.9024 64.6834 38.2929 64.2929Z" clip-rule="evenodd" fill-rule="evenodd"></path>
<path fill="#417DA0" d="M38.2929 94.2929C38.6834 93.9024 39.3166 93.9024 39.7071 94.2929L44.5 99.0858L49.2929 94.2929C49.6834 93.9024 50.3166 93.9024 50.7071 94.2929C51.0976 94.6834 51.0976 95.3166 50.7071 95.7071L45.2071 101.207C44.8166 101.598 44.1834 101.598 43.7929 101.207L38.2929 95.7071C37.9024 95.3166 37.9024 94.6834 38.2929 94.2929Z" clip-rule="evenodd" fill-rule="evenodd"></path>
<path fill="#417DA0" d="M38.2929 124.293C38.6834 123.902 39.3166 123.902 39.7071 124.293L44.5 129.086L49.2929 124.293C49.6834 123.902 50.3166 123.902 50.7071 124.293C51.0976 124.683 51.0976 125.317 50.7071 125.707L45.2071 131.207C44.8166 131.598 44.1834 131.598 43.7929 131.207L38.2929 125.707C37.9024 125.317 37.9024 124.683 38.2929 124.293Z" clip-rule="evenodd" fill-rule="evenodd"></path>
<mask fill="white" id="path-8-inside-1_5518_29117">
<path d="M164 141V143H36V141H164ZM174 131V65C174 59.4772 169.523 55 164 55H36C30.4772 55 26 59.4772 26 65V131C26 136.523 30.4772 141 36 141V143L35.6904 142.996C29.309 142.834 24.1655 137.691 24.0039 131.31L24 131V65C24 58.4761 29.2061 53.1681 35.6904 53.0039L36 53H164L164.31 53.0039C170.794 53.1681 176 58.4761 176 65V131L175.996 131.31C175.834 137.691 170.691 142.834 164.31 142.996L164 143V141C169.523 141 174 136.523 174 131Z"></path>
</mask>
<path mask="url(#path-8-inside-1_5518_29117)" fill="#C0D6E4" d="M164 143V193H164.315L164.631 192.996L164 143ZM36 143L35.3691 192.996L35.6846 193H36V143ZM174 65L224 65L224 65L174 65ZM26 131L-24 131L-24 131L26 131ZM35.6904 142.996L34.4247 192.98L34.7421 192.988L35.0596 192.992L35.6904 142.996ZM24.0039 131.31L-25.9921 131.94L-25.9881 132.258L-25.9801 132.575L24.0039 131.31ZM24 131H-26V131.315L-25.996 131.631L24 131ZM35.6904 53.0039L35.0596 3.00789L34.7421 3.01189L34.4247 3.01993L35.6904 53.0039ZM36 53V3H35.6846L35.3691 3.00398L36 53ZM164 53L164.631 3.00398L164.315 3H164V53ZM164.31 53.0039L165.575 3.01993L165.258 3.01189L164.94 3.00789L164.31 53.0039ZM176 65L226 65L226 65L176 65ZM176 131L225.996 131.631L226 131.315V131H176ZM175.996 131.31L225.98 132.575L225.988 132.258L225.992 131.94L175.996 131.31ZM164.31 142.996L164.94 192.992L165.258 192.988L165.575 192.98L164.31 142.996ZM164 141H114V143H164H214V141H164ZM164 143V93H36V143V193H164V143ZM36 143H86V141H36H-14V143H36ZM36 141V191H164V141V91H36V141ZM174 131H224V65H174H124V131H174ZM174 65L224 65C224 31.8629 197.137 5 164 5V55V105C141.909 105 124 87.0914 124 65L174 65ZM164 55V5H36V55V105H164V55ZM36 55V5C2.86292 5 -24 31.8629 -24 65H26H76C76 87.0914 58.0914 105 36 105V55ZM26 65H-24V131H26H76V65H26ZM26 131L-24 131C-24 164.137 2.86291 191 36 191V141V91C58.0914 91 76 108.909 76 131L26 131ZM36 141H-14V143H36H86V141H36ZM36 143L36.6309 93.004L36.3213 93.0001L35.6904 142.996L35.0596 192.992L35.3691 192.996L36 143ZM35.6904 142.996L36.9561 93.0121C57.1968 93.5247 73.4753 109.803 73.9879 130.044L24.0039 131.31L-25.9801 132.575C-25.1443 165.579 1.42112 192.144 34.4247 192.98L35.6904 142.996ZM24.0039 131.31L73.9999 130.679L73.996 130.369L24 131L-25.996 131.631L-25.9921 131.94L24.0039 131.31ZM24 131H74V65H24H-26V131H24ZM24 65H74C74 85.6664 57.5152 102.467 36.9561 102.988L35.6904 53.0039L34.4247 3.01993C0.897006 3.86893 -26 31.2858 -26 65H24ZM35.6904 53.0039L36.3213 103L36.6309 102.996L36 53L35.3691 3.00398L35.0596 3.00789L35.6904 53.0039ZM36 53V103H164V53V3H36V53ZM164 53L163.369 102.996L163.679 103L164.31 53.0039L164.94 3.00789L164.631 3.00398L164 53ZM164.31 53.0039L163.044 102.988C142.485 102.467 126 85.6664 126 65L176 65L226 65C226 31.2858 199.103 3.86893 165.575 3.01993L164.31 53.0039ZM176 65H126V131H176H226V65H176ZM176 131L126.004 130.369L126 130.679L175.996 131.31L225.992 131.94L225.996 131.631L176 131ZM175.996 131.31L126.012 130.044C126.525 109.803 142.803 93.5247 163.044 93.0121L164.31 142.996L165.575 192.98C198.579 192.144 225.144 165.579 225.98 132.575L175.996 131.31ZM164.31 142.996L163.679 93.0001L163.369 93.004L164 143L164.631 192.996L164.94 192.992L164.31 142.996ZM164 143H214V141H164H114V143H164ZM164 141V191C197.137 191 224 164.137 224 131H174H124C124 108.909 141.909 91 164 91V141Z"></path>
<mask fill="white" id="path-10-inside-2_5518_29117">
<path d="M174 111V113H26V111H174ZM174 83V85H26V83H174Z"></path>
</mask>
<path mask="url(#path-10-inside-2_5518_29117)" fill="#C0D6E4" d="M174 111H224V61H174V111ZM174 113V163H224V113H174ZM26 113H-24V163H26V113ZM26 111V61H-24V111H26ZM174 83H224V33H174V83ZM174 85V135H224V85H174ZM26 85H-24V135H26V85ZM26 83V33H-24V83H26ZM174 111H124V113H174H224V111H174ZM174 113V63H26V113V163H174V113ZM26 113H76V111H26H-24V113H26ZM26 111V161H174V111V61H26V111ZM174 83H124V85H174H224V83H174ZM174 85V35H26V85V135H174V85ZM26 85H76V83H26H-24V85H26ZM26 83V133H174V83V33H26V83Z"></path>
</svg>
