<svg xmlns="http://www.w3.org/2000/svg" fill="none" viewBox="0 0 200 200" height="200" width="200">
<path fill="#C0D6E4" d="M24 58C24 51.3726 29.3726 46 36 46H164C170.627 46 176 51.3726 176 58V118C176 124.627 170.627 130 164 130H36C29.3726 130 24 124.627 24 118V58Z"></path>
<mask fill="white" id="path-2-inside-1_4412_3197">
<path d="M164 128V130H36V128H164ZM174 118V58C174 52.4772 169.523 48 164 48H36C30.4772 48 26 52.4772 26 58V118C26 123.523 30.4772 128 36 128V130C29.3726 130 24 124.627 24 118V58C24 51.3726 29.3726 46 36 46H164C170.627 46 176 51.3726 176 58V118C176 124.627 170.627 130 164 130V128C169.523 128 174 123.523 174 118Z"></path>
</mask>
<path mask="url(#path-2-inside-1_4412_3197)" fill-opacity="0.247059" fill="#005A92" d="M174 58H204V58L174 58ZM176 58H206V58L176 58ZM164 128H134V130H164H194V128H164ZM164 130V100H36V130V160H164V130ZM36 130H66V128H36H6V130H36ZM36 128V158H164V128V98H36V128ZM174 118H204V58H174H144V118H174ZM174 58L204 58C204 35.9086 186.091 18 164 18V48V78C152.954 78 144 69.0457 144 58L174 58ZM164 48V18H36V48V78H164V48ZM36 48V18C13.9086 18 -4 35.9086 -4 58H26H56C56 69.0457 47.0457 78 36 78V48ZM26 58H-4V118H26H56V58H26ZM26 118H-4C-4 140.091 13.9086 158 36 158V128V98C47.0457 98 56 106.954 56 118H26ZM36 128H6V130H36H66V128H36ZM36 130V100C45.9411 100 54 108.059 54 118H24H-6C-6 141.196 12.804 160 36 160V130ZM24 118H54V58H24H-6V118H24ZM24 58H54C54 67.9411 45.9411 76 36 76V46V16C12.804 16 -6 34.804 -6 58H24ZM36 46V76H164V46V16H36V46ZM164 46V76C154.059 76 146 67.9411 146 58L176 58L206 58C206 34.804 187.196 16 164 16V46ZM176 58H146V118H176H206V58H176ZM176 118H146C146 108.059 154.059 100 164 100V130V160C187.196 160 206 141.196 206 118H176ZM164 130H194V128H164H134V130H164ZM164 128V158C186.091 158 204 140.091 204 118H174H144C144 106.954 152.954 98 164 98V128Z"></path>
<path fill="#C0D6E4" d="M68 148C68 144.686 70.6863 142 74 142H126C129.314 142 132 144.686 132 148C132 151.314 129.314 154 126 154H74C70.6863 154 68 151.314 68 148Z"></path>
<mask fill="white" id="path-5-inside-2_4412_3197">
<path d="M126 152V154H74V152H126ZM130 148C130 145.791 128.209 144 126 144H74C71.7909 144 70 145.791 70 148C70 150.209 71.7909 152 74 152V154C70.6863 154 68 151.314 68 148C68 144.686 70.6863 142 74 142H126C129.314 142 132 144.686 132 148C132 151.314 129.314 154 126 154V152C128.209 152 130 150.209 130 148Z"></path>
</mask>
<path mask="url(#path-5-inside-2_4412_3197)" fill-opacity="0.247059" fill="#005A92" d="M126 152H96V154H126H156V152H126ZM126 154V124H74V154V184H126V154ZM74 154H104V152H74H44V154H74ZM74 152V182H126V152V122H74V152ZM130 148H160C160 129.222 144.778 114 126 114V144V174C111.641 174 100 162.359 100 148H130ZM126 144V114H74V144V174H126V144ZM74 144V114C55.2223 114 40 129.222 40 148H70H100C100 162.359 88.3594 174 74 174V144ZM70 148H40C40 166.778 55.2223 182 74 182V152V122C88.3594 122 100 133.641 100 148H70ZM74 152H44V154H74H104V152H74ZM74 154V124C87.2548 124 98 134.745 98 148H68H38C38 167.882 54.1177 184 74 184V154ZM68 148H98C98 161.255 87.2548 172 74 172V142V112C54.1177 112 38 128.118 38 148H68ZM74 142V172H126V142V112H74V142ZM126 142V172C112.745 172 102 161.255 102 148H132H162C162 128.118 145.882 112 126 112V142ZM132 148H102C102 134.745 112.745 124 126 124V154V184C145.882 184 162 167.882 162 148H132ZM126 154H156V152H126H96V154H126ZM126 152V182C144.778 182 160 166.778 160 148H130H100C100 133.641 111.641 122 126 122V152Z"></path>
<path fill="#417DA0" d="M119.879 99.7784C118.707 98.6068 118.707 96.7073 119.879 95.5357L128.424 86.9904L119.879 78.4451C118.707 77.2735 118.707 75.374 119.879 74.2024C121.05 73.0308 122.95 73.0308 124.121 74.2024L134.788 84.8691C135.96 86.0406 135.96 87.9401 134.788 89.1117L124.121 99.7784C122.95 100.95 121.05 100.95 119.879 99.7784Z" clip-rule="evenodd" fill-rule="evenodd"></path>
<path fill="#417DA0" d="M79.788 74.5357C80.9596 75.7073 80.9596 77.6068 79.788 78.7784L71.2426 87.3237L79.788 95.8691C80.9596 97.0406 80.9596 98.9401 79.788 100.112C78.6164 101.283 76.7169 101.283 75.5453 100.112L64.8787 89.445C63.7071 88.2735 63.7071 86.374 64.8787 85.2024L75.5453 74.5357C76.7169 73.3642 78.6164 73.3642 79.788 74.5357Z" clip-rule="evenodd" fill-rule="evenodd"></path>
<path fill="#417DA0" d="M115.022 60.5223C116.44 61.3216 117.075 63.0895 116.439 64.471L93.8394 113.582C93.2036 114.963 91.5385 115.436 90.1203 114.636C88.702 113.837 88.0677 112.069 88.7034 110.688L111.303 61.5767C111.939 60.1951 113.604 59.7231 115.022 60.5223Z" clip-rule="evenodd" fill-rule="evenodd"></path>
</svg>
