<svg xmlns="http://www.w3.org/2000/svg" fill="none" viewBox="0 0 200 200" height="200" width="200">
<path fill="white" d="M24 82C24 78.6863 26.6863 76 30 76H170C173.314 76 176 78.6863 176 82C176 85.3137 173.314 88 170 88H30C26.6863 88 24 85.3137 24 82Z"></path>
<path fill="white" d="M24 102C24 98.6863 26.6863 96 30 96H170C173.314 96 176 98.6863 176 102C176 105.314 173.314 108 170 108H30C26.6863 108 24 105.314 24 102Z"></path>
<path fill="white" d="M24 122C24 118.686 26.6863 116 30 116H170C173.314 116 176 118.686 176 122C176 125.314 173.314 128 170 128H30C26.6863 128 24 125.314 24 122Z"></path>
<mask fill="white" id="path-2-inside-1_4412_3225">
<path d="M170 127V128H30V127H170ZM175 122C175 119.239 172.761 117 170 117H30C27.2386 117 25 119.239 25 122C25 124.761 27.2386 127 30 127V128L29.6914 127.992C26.5211 127.832 24 125.21 24 122C24 118.686 26.6863 116 30 116H170C173.314 116 176 118.686 176 122C176 125.314 173.314 128 170 128V127C172.761 127 175 124.761 175 122ZM170 107V108H30V107H170ZM175 102C175 99.2386 172.761 97 170 97H30C27.2386 97 25 99.2386 25 102C25 104.761 27.2386 107 30 107V108L29.6914 107.992C26.5211 107.832 24 105.21 24 102C24 98.6863 26.6863 96 30 96H170C173.314 96 176 98.6863 176 102C176 105.314 173.314 108 170 108V107C172.761 107 175 104.761 175 102ZM170 87V88H30V87H170ZM175 82C175 79.2386 172.761 77 170 77H30C27.2386 77 25 79.2386 25 82C25 84.7614 27.2386 87 30 87V88L29.6914 87.9922C26.5211 87.8316 24 85.2102 24 82C24 78.6863 26.6863 76 30 76H170C173.314 76 176 78.6863 176 82C176 85.3137 173.314 88 170 88V87C172.761 87 175 84.7614 175 82Z"></path>
</mask>
<path mask="url(#path-2-inside-1_4412_3225)" fill-opacity="0.247059" fill="#005A92" d="M30 128L28.7346 177.984L29.3672 178H30V128ZM29.6914 127.992L27.1615 177.928L27.7934 177.96L28.426 177.976L29.6914 127.992ZM30 108L28.7346 157.984L29.3672 158H30V108ZM29.6914 107.992L27.1615 157.928L27.7934 157.96L28.426 157.976L29.6914 107.992ZM30 88L28.7346 137.984L29.3672 138H30V88ZM29.6914 87.9922L27.1615 137.928L27.7934 137.96L28.426 137.976L29.6914 87.9922ZM170 127H120V128H170H220V127H170ZM170 128V78H30V128V178H170V128ZM30 128H80V127H30H-20V128H30ZM30 127V177H170V127V77H30V127ZM175 122H225C225 91.6243 200.376 67 170 67V117V167C145.147 167 125 146.853 125 122H175ZM170 117V67H30V117V167H170V117ZM30 117V67C-0.375662 67 -25 91.6243 -25 122H25H75C75 146.853 54.8528 167 30 167V117ZM25 122H-25C-25 152.376 -0.375639 177 30 177L30 127L30 77C54.8528 77 75 97.1472 75 122H25ZM30 127H-20V128H30H80V127H30ZM30 128L31.2654 78.016L30.9568 78.0082L29.6914 127.992L28.426 177.976L28.7346 177.984L30 128ZM29.6914 127.992L32.2213 78.0562C55.5117 79.2362 74 98.4432 74 122H24H-26C-26 151.977 -2.46949 176.427 27.1615 177.928L29.6914 127.992ZM24 122H74C74 146.301 54.3005 166 30 166V116V66C-0.927946 66 -26 91.0721 -26 122H24ZM30 116V166H170V116V66H30V116ZM170 116V166C145.699 166 126 146.301 126 122H176H226C226 91.0721 200.928 66 170 66V116ZM176 122H126C126 97.6995 145.699 78 170 78V128V178C200.928 178 226 152.928 226 122H176ZM170 128H220V127H170H120V128H170ZM170 127V177C200.376 177 225 152.376 225 122H175H125C125 97.1472 145.147 77 170 77V127ZM170 107H120V108H170H220V107H170ZM170 108V58H30V108V158H170V108ZM30 108H80V107H30H-20V108H30ZM30 107V157H170V107V57H30V107ZM175 102H225C225 71.6243 200.376 47 170 47V97V147C145.147 147 125 126.853 125 102H175ZM170 97V47H30V97V147H170V97ZM30 97V47C-0.375662 47 -25 71.6243 -25 102H25H75C75 126.853 54.8528 147 30 147V97ZM25 102H-25C-25 132.376 -0.375639 157 30 157L30 107L30 57C54.8528 57 75 77.1472 75 102H25ZM30 107H-20V108H30H80V107H30ZM30 108L31.2654 58.016L30.9568 58.0082L29.6914 107.992L28.426 157.976L28.7346 157.984L30 108ZM29.6914 107.992L32.2213 58.0562C55.5117 59.2362 74 78.4432 74 102H24H-26C-26 131.977 -2.46949 156.427 27.1615 157.928L29.6914 107.992ZM24 102H74C74 126.301 54.3005 146 30 146V96V46C-0.927946 46 -26 71.0721 -26 102H24ZM30 96V146H170V96V46H30V96ZM170 96V146C145.699 146 126 126.301 126 102H176H226C226 71.0721 200.928 46 170 46V96ZM176 102H126C126 77.6995 145.699 58 170 58V108V158C200.928 158 226 132.928 226 102H176ZM170 108H220V107H170H120V108H170ZM170 107V157C200.376 157 225 132.376 225 102H175H125C125 77.1472 145.147 57 170 57V107ZM170 87H120V88H170H220V87H170ZM170 88V38H30V88V138H170V88ZM30 88H80V87H30H-20V88H30ZM30 87V137H170V87V37H30V87ZM175 82H225C225 51.6243 200.376 27 170 27V77V127C145.147 127 125 106.853 125 82H175ZM170 77V27H30V77V127H170V77ZM30 77V27C-0.375662 27 -25 51.6243 -25 82H25H75C75 106.853 54.8528 127 30 127V77ZM25 82H-25C-25 112.376 -0.375639 137 30 137L30 87L30 37C54.8528 37 75 57.1472 75 82H25ZM30 87H-20V88H30H80V87H30ZM30 88L31.2654 38.016L30.9568 38.0082L29.6914 87.9922L28.426 137.976L28.7346 137.984L30 88ZM29.6914 87.9922L32.2213 38.0562C55.5117 39.2362 74 58.4432 74 82H24H-26C-26 111.977 -2.46949 136.427 27.1615 137.928L29.6914 87.9922ZM24 82H74C74 106.301 54.3005 126 30 126V76V26C-0.927946 26 -26 51.0721 -26 82H24ZM30 76V126H170V76V26H30V76ZM170 76V126C145.699 126 126 106.301 126 82H176H226C226 51.0721 200.928 26 170 26V76ZM176 82H126C126 57.6995 145.699 38 170 38V88V138C200.928 138 226 112.928 226 82H176ZM170 88H220V87H170H120V88H170ZM170 87V137C200.376 137 225 112.376 225 82H175H125C125 57.1472 145.147 37 170 37V87Z"></path>
<path fill="#417DA0" d="M40 82C40 78.6863 42.6863 76 46 76H73C76.3137 76 79 78.6863 79 82C79 85.3137 76.3137 88 73 88H46C42.6863 88 40 85.3137 40 82Z"></path>
<path fill="#417DA0" d="M53 102C53 98.6863 55.6863 96 59 96H86C89.3137 96 92 98.6863 92 102C92 105.314 89.3137 108 86 108H59C55.6863 108 53 105.314 53 102Z"></path>
<path fill="#417DA0" d="M122 122C122 118.686 124.686 116 128 116H145C148.314 116 151 118.686 151 122C151 125.314 148.314 128 145 128H128C124.686 128 122 125.314 122 122Z"></path>
<path fill="#417DA0" d="M137 67C137 66.4477 137.448 66 138 66C138.552 66 139 66.4477 139 67V139C139 139.552 138.552 140 138 140C137.448 140 137 139.552 137 139V67Z"></path>
<path fill="#417DA0" d="M132 66C132 62.6863 134.686 60 138 60C141.314 60 144 62.6863 144 66C144 69.3137 141.314 72 138 72C134.686 72 132 69.3137 132 66Z"></path>
</svg>
