<svg xmlns="http://www.w3.org/2000/svg" fill="none" viewBox="0 0 200 200" height="200" width="200">
<rect fill="#417DA0" rx="6" height="12" width="12" y="60" x="36"></rect>
<path fill="#417DA0" d="M42 76C47.5228 76 52 71.5228 52 66C52 60.4772 47.5228 56 42 56C36.4772 56 32 60.4772 32 66C32 71.5228 36.4772 76 42 76ZM42 79C49.1797 79 55 73.1797 55 66C55 58.8203 49.1797 53 42 53C34.8203 53 29 58.8203 29 66C29 73.1797 34.8203 79 42 79Z" clip-rule="evenodd" fill-rule="evenodd"></path>
<path fill="#417DA0" d="M42 110C47.5228 110 52 105.523 52 100C52 94.4772 47.5228 90 42 90C36.4772 90 32 94.4772 32 100C32 105.523 36.4772 110 42 110ZM42 113C49.1797 113 55 107.18 55 100C55 92.8203 49.1797 87 42 87C34.8203 87 29 92.8203 29 100C29 107.18 34.8203 113 42 113Z" clip-rule="evenodd" fill-rule="evenodd"></path>
<path fill="#417DA0" d="M42 144C47.5228 144 52 139.523 52 134C52 128.477 47.5228 124 42 124C36.4772 124 32 128.477 32 134C32 139.523 36.4772 144 42 144ZM42 147C49.1797 147 55 141.18 55 134C55 126.82 49.1797 121 42 121C34.8203 121 29 126.82 29 134C29 141.18 34.8203 147 42 147Z" clip-rule="evenodd" fill-rule="evenodd"></path>
<rect fill="#417DA0" rx="4" height="8" width="108" y="64" x="63"></rect>
<rect fill="#417DA0" rx="4" height="8" width="108" y="96" x="63"></rect>
<rect fill="#417DA0" rx="4" height="8" width="108" y="130" x="63"></rect>
</svg>
