<svg xmlns="http://www.w3.org/2000/svg" fill="none" viewBox="0 0 200 200" height="200" width="200">
<path fill="#C0D6E4" d="M24 100C24 94.4772 28.4772 90 34 90H166C171.523 90 176 94.4772 176 100C176 105.523 171.523 110 166 110H34C28.4772 110 24 105.523 24 100Z"></path>
<mask fill="white" id="path-2-inside-1_4412_3207">
<path d="M166 108V110H34V108H166ZM174 100C174 95.5817 170.418 92 166 92H34C29.5817 92 26 95.5817 26 100C26 104.418 29.5817 108 34 108V110L33.4854 109.987C28.2017 109.719 24 105.35 24 100C24 94.4772 28.4772 90 34 90H166C171.523 90 176 94.4772 176 100C176 105.523 171.523 110 166 110V108C170.418 108 174 104.418 174 100Z"></path>
</mask>
<path mask="url(#path-2-inside-1_4412_3207)" fill-opacity="0.247059" fill="#005A92" d="M34 110L32.767 159.985L33.3834 160H34V110ZM33.4854 109.987L30.9539 159.923L31.6028 159.956L32.2523 159.972L33.4854 109.987ZM166 108H116V110H166H216V108H166ZM166 110V60H34V110V160H166V110ZM34 110H84V108H34H-16V110H34ZM34 108V158H166V108V58H34V108ZM174 100H224C224 67.9675 198.033 42 166 42V92V142C142.804 142 124 123.196 124 100H174ZM166 92V42H34V92V142H166V92ZM34 92V42C1.96749 42 -24 67.9675 -24 100H26H76C76 123.196 57.196 142 34 142V92ZM26 100H-24C-24 132.033 1.96749 158 34 158V108V58C57.196 58 76 76.804 76 100H26ZM34 108H-16V110H34H84V108H34ZM34 110L35.233 60.0152L34.7184 60.0025L33.4854 109.987L32.2523 159.972L32.767 159.985L34 110ZM33.4854 109.987L36.0168 60.0514C57.1954 61.125 74 78.5861 74 100H24H-26C-26 132.114 -0.792076 158.314 30.9539 159.923L33.4854 109.987ZM24 100H74C74 122.091 56.0914 140 34 140V90V40C0.862915 40 -26 66.8629 -26 100H24ZM34 90V140H166V90V40H34V90ZM166 90V140C143.909 140 126 122.091 126 100H176H226C226 66.8629 199.137 40 166 40V90ZM176 100H126C126 77.9086 143.909 60 166 60V110V160C199.137 160 226 133.137 226 100H176ZM166 110H216V108H166H116V110H166ZM166 108V158C198.033 158 224 132.033 224 100H174H124C124 76.804 142.804 58 166 58V108Z"></path>
<path fill="#417DA0" d="M24 100C24 94.4772 28.4772 90 34 90H67C72.5228 90 77 94.4772 77 100C77 105.523 72.5228 110 67 110H34C28.4772 110 24 105.523 24 100Z"></path>
</svg>
