<svg xmlns="http://www.w3.org/2000/svg" fill="none" viewBox="0 0 384 336" height="336" width="384">
<g clip-path="url(#clip0_5346_50580)">
<path fill="#262626" d="M93.494 50V38.228H95.582V42.962H100.352V38.228H102.44V50H100.352V44.78H95.582V50H93.494ZM107.23 50L104.152 41.162H106.258L107.662 45.752C107.782 46.184 107.902 46.622 108.022 47.066C108.154 47.51 108.28 47.96 108.4 48.416H108.472C108.604 47.96 108.73 47.51 108.85 47.066C108.97 46.622 109.096 46.184 109.228 45.752L110.632 41.162H112.63L109.624 50H107.23ZM114.162 50V41.162H116.232V50H114.162ZM115.206 39.614C114.834 39.614 114.528 39.506 114.288 39.29C114.048 39.074 113.928 38.792 113.928 38.444C113.928 38.096 114.048 37.814 114.288 37.598C114.528 37.37 114.834 37.256 115.206 37.256C115.578 37.256 115.884 37.37 116.124 37.598C116.364 37.814 116.484 38.096 116.484 38.444C116.484 38.792 116.364 39.074 116.124 39.29C115.884 39.506 115.578 39.614 115.206 39.614ZM120.889 50.216C120.145 50.216 119.623 49.994 119.323 49.55C119.023 49.106 118.873 48.5 118.873 47.732V37.292H120.943V47.84C120.943 48.092 120.991 48.272 121.087 48.38C121.183 48.476 121.285 48.524 121.393 48.524C121.441 48.524 121.483 48.524 121.519 48.524C121.567 48.524 121.633 48.512 121.717 48.488L121.987 50.036C121.711 50.156 121.345 50.216 120.889 50.216ZM123.759 50V37.292H125.793V45.23H125.847L129.123 41.162H131.391L128.367 44.762L131.697 50H129.447L127.179 46.166L125.793 47.75V50H123.759ZM136.522 50.216C135.91 50.216 135.34 50.114 134.812 49.91C134.284 49.694 133.822 49.388 133.426 48.992C133.03 48.596 132.718 48.116 132.49 47.552C132.274 46.976 132.166 46.322 132.166 45.59C132.166 44.87 132.28 44.222 132.508 43.646C132.736 43.07 133.036 42.584 133.408 42.188C133.792 41.792 134.23 41.486 134.722 41.27C135.214 41.054 135.718 40.946 136.234 40.946C136.834 40.946 137.362 41.048 137.818 41.252C138.274 41.456 138.652 41.744 138.952 42.116C139.264 42.488 139.498 42.932 139.654 43.448C139.81 43.964 139.888 44.528 139.888 45.14C139.888 45.344 139.876 45.536 139.852 45.716C139.84 45.896 139.822 46.04 139.798 46.148H134.182C134.278 46.94 134.554 47.552 135.01 47.984C135.478 48.404 136.072 48.614 136.792 48.614C137.176 48.614 137.53 48.56 137.854 48.452C138.19 48.332 138.52 48.17 138.844 47.966L139.546 49.262C139.126 49.538 138.658 49.766 138.142 49.946C137.626 50.126 137.086 50.216 136.522 50.216ZM134.164 44.744H138.088C138.088 44.06 137.938 43.526 137.638 43.142C137.35 42.746 136.9 42.548 136.288 42.548C135.76 42.548 135.298 42.734 134.902 43.106C134.506 43.478 134.26 44.024 134.164 44.744ZM141.865 50V41.162H143.575L143.719 42.35H143.791C144.187 41.966 144.613 41.636 145.069 41.36C145.537 41.084 146.077 40.946 146.689 40.946C147.637 40.946 148.327 41.252 148.759 41.864C149.191 42.464 149.407 43.328 149.407 44.456V50H147.337V44.726C147.337 43.994 147.229 43.478 147.013 43.178C146.797 42.878 146.443 42.728 145.951 42.728C145.567 42.728 145.225 42.824 144.925 43.016C144.637 43.196 144.307 43.466 143.935 43.826V50H141.865ZM155.541 50V41.162H157.251L157.395 42.368H157.467C157.839 41.972 158.241 41.636 158.673 41.36C159.117 41.084 159.615 40.946 160.167 40.946C160.815 40.946 161.331 41.084 161.715 41.36C162.111 41.636 162.411 42.026 162.615 42.53C163.035 42.074 163.473 41.696 163.929 41.396C164.385 41.096 164.895 40.946 165.459 40.946C166.395 40.946 167.085 41.252 167.529 41.864C167.973 42.464 168.195 43.328 168.195 44.456V50H166.107V44.726C166.107 43.994 165.993 43.478 165.765 43.178C165.549 42.878 165.213 42.728 164.757 42.728C164.205 42.728 163.587 43.094 162.903 43.826V50H160.833V44.726C160.833 43.994 160.719 43.478 160.491 43.178C160.275 42.878 159.933 42.728 159.465 42.728C158.913 42.728 158.295 43.094 157.611 43.826V50H155.541ZM173.338 50.216C172.39 50.216 171.7 49.916 171.268 49.316C170.836 48.704 170.62 47.834 170.62 46.706V41.162H172.69V46.436C172.69 47.168 172.798 47.684 173.014 47.984C173.23 48.284 173.578 48.434 174.058 48.434C174.442 48.434 174.778 48.338 175.066 48.146C175.366 47.954 175.684 47.642 176.02 47.21V41.162H178.09V50H176.398L176.236 48.704H176.182C175.798 49.16 175.378 49.526 174.922 49.802C174.478 50.078 173.95 50.216 173.338 50.216ZM183.178 50.216C182.566 50.216 181.96 50.102 181.36 49.874C180.772 49.634 180.262 49.34 179.83 48.992L180.802 47.66C181.198 47.972 181.588 48.218 181.972 48.398C182.368 48.566 182.794 48.65 183.25 48.65C183.73 48.65 184.084 48.554 184.312 48.362C184.54 48.158 184.654 47.9 184.654 47.588C184.654 47.408 184.6 47.252 184.492 47.12C184.384 46.976 184.24 46.85 184.06 46.742C183.88 46.634 183.676 46.538 183.448 46.454C183.22 46.358 182.992 46.262 182.764 46.166C182.476 46.058 182.182 45.932 181.882 45.788C181.582 45.644 181.312 45.47 181.072 45.266C180.844 45.062 180.652 44.828 180.496 44.564C180.352 44.288 180.28 43.964 180.28 43.592C180.28 42.812 180.568 42.176 181.144 41.684C181.72 41.192 182.506 40.946 183.502 40.946C184.114 40.946 184.666 41.054 185.158 41.27C185.65 41.486 186.076 41.732 186.436 42.008L185.482 43.268C185.17 43.04 184.852 42.86 184.528 42.728C184.216 42.584 183.886 42.512 183.538 42.512C183.094 42.512 182.764 42.608 182.548 42.8C182.344 42.98 182.242 43.208 182.242 43.484C182.242 43.664 182.29 43.82 182.386 43.952C182.494 44.072 182.632 44.18 182.8 44.276C182.968 44.372 183.16 44.462 183.376 44.546C183.604 44.63 183.838 44.714 184.078 44.798C184.378 44.906 184.678 45.032 184.978 45.176C185.278 45.308 185.548 45.476 185.788 45.68C186.04 45.884 186.238 46.136 186.382 46.436C186.538 46.724 186.616 47.072 186.616 47.48C186.616 47.864 186.538 48.224 186.382 48.56C186.238 48.884 186.022 49.172 185.734 49.424C185.446 49.664 185.086 49.856 184.654 50C184.222 50.144 183.73 50.216 183.178 50.216ZM188.464 50V41.162H190.534V50H188.464ZM189.508 39.614C189.136 39.614 188.83 39.506 188.59 39.29C188.35 39.074 188.23 38.792 188.23 38.444C188.23 38.096 188.35 37.814 188.59 37.598C188.83 37.37 189.136 37.256 189.508 37.256C189.88 37.256 190.186 37.37 190.426 37.598C190.666 37.814 190.786 38.096 190.786 38.444C190.786 38.792 190.666 39.074 190.426 39.29C190.186 39.506 189.88 39.614 189.508 39.614ZM193.175 50V37.292H195.209V45.23H195.263L198.539 41.162H200.807L197.783 44.762L201.113 50H198.863L196.595 46.166L195.209 47.75V50H193.175ZM202.58 50V37.292H204.614V45.23H204.668L207.944 41.162H210.212L207.188 44.762L210.518 50H208.268L206 46.166L204.614 47.75V50H202.58ZM217.603 50.216C216.859 50.216 216.337 49.994 216.037 49.55C215.737 49.106 215.587 48.5 215.587 47.732V37.292H217.657V47.84C217.657 48.092 217.705 48.272 217.801 48.38C217.897 48.476 217.999 48.524 218.107 48.524C218.155 48.524 218.197 48.524 218.233 48.524C218.281 48.524 218.347 48.512 218.431 48.488L218.701 50.036C218.425 50.156 218.059 50.216 217.603 50.216ZM220.474 50V41.162H222.544V50H220.474ZM221.518 39.614C221.146 39.614 220.84 39.506 220.6 39.29C220.36 39.074 220.24 38.792 220.24 38.444C220.24 38.096 220.36 37.814 220.6 37.598C220.84 37.37 221.146 37.256 221.518 37.256C221.89 37.256 222.196 37.37 222.436 37.598C222.676 37.814 222.796 38.096 222.796 38.444C222.796 38.792 222.676 39.074 222.436 39.29C222.196 39.506 221.89 39.614 221.518 39.614ZM225.185 50V37.292H227.219V45.23H227.273L230.549 41.162H232.817L229.793 44.762L233.123 50H230.873L228.605 46.166L227.219 47.75V50H225.185ZM237.948 50.216C237.336 50.216 236.766 50.114 236.238 49.91C235.71 49.694 235.248 49.388 234.852 48.992C234.456 48.596 234.144 48.116 233.916 47.552C233.7 46.976 233.592 46.322 233.592 45.59C233.592 44.87 233.706 44.222 233.934 43.646C234.162 43.07 234.462 42.584 234.834 42.188C235.218 41.792 235.656 41.486 236.148 41.27C236.64 41.054 237.144 40.946 237.66 40.946C238.26 40.946 238.788 41.048 239.244 41.252C239.7 41.456 240.078 41.744 240.378 42.116C240.69 42.488 240.924 42.932 241.08 43.448C241.236 43.964 241.314 44.528 241.314 45.14C241.314 45.344 241.302 45.536 241.278 45.716C241.266 45.896 241.248 46.04 241.224 46.148H235.608C235.704 46.94 235.98 47.552 236.436 47.984C236.904 48.404 237.498 48.614 238.218 48.614C238.602 48.614 238.956 48.56 239.28 48.452C239.616 48.332 239.946 48.17 240.27 47.966L240.972 49.262C240.552 49.538 240.084 49.766 239.568 49.946C239.052 50.126 238.512 50.216 237.948 50.216ZM235.59 44.744H239.514C239.514 44.06 239.364 43.526 239.064 43.142C238.776 42.746 238.326 42.548 237.714 42.548C237.186 42.548 236.724 42.734 236.328 43.106C235.932 43.478 235.686 44.024 235.59 44.744ZM243.291 50V41.162H245.001L245.145 42.728H245.217C245.529 42.152 245.907 41.714 246.351 41.414C246.795 41.102 247.251 40.946 247.719 40.946C248.139 40.946 248.475 41.006 248.727 41.126L248.367 42.926C248.211 42.878 248.067 42.842 247.935 42.818C247.803 42.794 247.641 42.782 247.449 42.782C247.101 42.782 246.735 42.92 246.351 43.196C245.967 43.46 245.637 43.928 245.361 44.6V50H243.291ZM256.705 50.216C255.589 50.216 254.701 49.814 254.041 49.01C253.393 48.194 253.069 47.054 253.069 45.59C253.069 44.87 253.171 44.222 253.375 43.646C253.591 43.07 253.873 42.584 254.221 42.188C254.569 41.792 254.965 41.486 255.409 41.27C255.865 41.054 256.333 40.946 256.813 40.946C257.317 40.946 257.743 41.036 258.091 41.216C258.439 41.384 258.787 41.618 259.135 41.918L259.063 40.496V37.292H261.133V50H259.423L259.279 49.046H259.207C258.883 49.37 258.505 49.646 258.073 49.874C257.641 50.102 257.185 50.216 256.705 50.216ZM257.209 48.506C257.869 48.506 258.487 48.176 259.063 47.516V43.394C258.751 43.118 258.445 42.926 258.145 42.818C257.857 42.71 257.563 42.656 257.263 42.656C256.687 42.656 256.201 42.908 255.805 43.412C255.409 43.916 255.211 44.636 255.211 45.572C255.211 46.532 255.379 47.264 255.715 47.768C256.063 48.26 256.561 48.506 257.209 48.506ZM266.397 50.216C265.449 50.216 264.759 49.916 264.327 49.316C263.895 48.704 263.679 47.834 263.679 46.706V41.162H265.749V46.436C265.749 47.168 265.857 47.684 266.073 47.984C266.289 48.284 266.637 48.434 267.117 48.434C267.501 48.434 267.837 48.338 268.125 48.146C268.425 47.954 268.743 47.642 269.079 47.21V41.162H271.149V50H269.457L269.295 48.704H269.241C268.857 49.16 268.437 49.526 267.981 49.802C267.537 50.078 267.009 50.216 266.397 50.216ZM275.283 46.13C275.223 45.698 275.235 45.302 275.319 44.942C275.415 44.582 275.547 44.252 275.715 43.952C275.895 43.652 276.093 43.376 276.309 43.124C276.537 42.86 276.747 42.608 276.939 42.368C277.143 42.116 277.311 41.87 277.443 41.63C277.575 41.39 277.641 41.132 277.641 40.856C277.641 40.424 277.509 40.076 277.245 39.812C276.993 39.548 276.639 39.416 276.183 39.416C275.811 39.416 275.475 39.5 275.175 39.668C274.875 39.836 274.593 40.064 274.329 40.352L273.177 39.29C273.573 38.834 274.041 38.462 274.581 38.174C275.133 37.874 275.751 37.724 276.435 37.724C276.903 37.724 277.335 37.79 277.731 37.922C278.127 38.042 278.463 38.228 278.739 38.48C279.027 38.732 279.249 39.044 279.405 39.416C279.573 39.788 279.657 40.22 279.657 40.712C279.657 41.096 279.585 41.444 279.441 41.756C279.309 42.056 279.141 42.344 278.937 42.62C278.733 42.896 278.511 43.16 278.271 43.412C278.043 43.664 277.833 43.928 277.641 44.204C277.461 44.48 277.311 44.774 277.191 45.086C277.083 45.398 277.053 45.746 277.101 46.13H275.283ZM276.201 50.216C275.817 50.216 275.499 50.084 275.247 49.82C274.995 49.556 274.869 49.22 274.869 48.812C274.869 48.404 274.995 48.068 275.247 47.804C275.499 47.54 275.817 47.408 276.201 47.408C276.585 47.408 276.903 47.54 277.155 47.804C277.419 48.068 277.551 48.404 277.551 48.812C277.551 49.22 277.419 49.556 277.155 49.82C276.903 50.084 276.585 50.216 276.201 50.216Z"></path>
<rect fill="#06893A" rx="12" height="24" width="44" y="76" x="92"></rect>
<rect fill="white" rx="10" height="20" width="20" y="78" x="114"></rect>
<path fill="#007C2E" d="M129.267 83.6478C129.876 84.2097 129.914 85.1587 129.352 85.7674L123.352 92.2674C123.075 92.5674 122.688 92.7415 122.28 92.7497C121.872 92.7579 121.478 92.5993 121.189 92.3107L118.689 89.8107C118.104 89.2249 118.104 88.2751 118.689 87.6893C119.275 87.1036 120.225 87.1036 120.811 87.6893L122.207 89.0854L127.148 83.7326C127.71 83.1239 128.659 83.0859 129.267 83.6478Z" clip-rule="evenodd" fill-rule="evenodd"></path>
<path fill="#262626" d="M145.62 94V82.192H149.31C150.114 82.192 150.828 82.3 151.452 82.516C152.076 82.72 152.562 83.068 152.91 83.56C153.27 84.04 153.45 84.688 153.45 85.504C153.45 86.416 153.21 87.154 152.73 87.718C152.25 88.27 151.602 88.648 150.786 88.852L153.792 94H152.1L149.256 89.014H147.114V94H145.62ZM147.114 87.79H149.094C150.018 87.79 150.726 87.604 151.218 87.232C151.71 86.848 151.956 86.272 151.956 85.504C151.956 84.724 151.71 84.178 151.218 83.866C150.726 83.554 150.018 83.398 149.094 83.398H147.114V87.79ZM158.95 94.216C158.242 94.216 157.576 94.036 156.952 93.676C156.34 93.316 155.842 92.794 155.458 92.11C155.086 91.426 154.9 90.604 154.9 89.644C154.9 88.66 155.086 87.826 155.458 87.142C155.842 86.458 156.34 85.936 156.952 85.576C157.576 85.216 158.242 85.036 158.95 85.036C159.67 85.036 160.336 85.216 160.948 85.576C161.56 85.936 162.052 86.458 162.424 87.142C162.808 87.826 163 88.66 163 89.644C163 90.604 162.808 91.426 162.424 92.11C162.052 92.794 161.56 93.316 160.948 93.676C160.336 94.036 159.67 94.216 158.95 94.216ZM158.95 92.992C159.706 92.992 160.312 92.686 160.768 92.074C161.236 91.45 161.47 90.64 161.47 89.644C161.47 88.636 161.236 87.82 160.768 87.196C160.312 86.572 159.706 86.26 158.95 86.26C158.206 86.26 157.6 86.572 157.132 87.196C156.664 87.82 156.43 88.636 156.43 89.644C156.43 90.64 156.664 91.45 157.132 92.074C157.6 92.686 158.206 92.992 158.95 92.992ZM168.76 94.216C167.992 94.216 167.296 94.036 166.672 93.676C166.048 93.316 165.556 92.794 165.196 92.11C164.836 91.426 164.656 90.604 164.656 89.644C164.656 88.66 164.848 87.826 165.232 87.142C165.628 86.458 166.144 85.936 166.78 85.576C167.428 85.216 168.124 85.036 168.868 85.036C169.444 85.036 169.936 85.138 170.344 85.342C170.764 85.546 171.124 85.786 171.424 86.062L170.668 87.034C170.416 86.806 170.146 86.62 169.858 86.476C169.582 86.332 169.27 86.26 168.922 86.26C168.394 86.26 167.92 86.404 167.5 86.692C167.092 86.968 166.768 87.364 166.528 87.88C166.3 88.384 166.186 88.972 166.186 89.644C166.186 90.64 166.432 91.45 166.924 92.074C167.428 92.686 168.082 92.992 168.886 92.992C169.294 92.992 169.672 92.908 170.02 92.74C170.368 92.56 170.674 92.35 170.938 92.11L171.586 93.1C171.19 93.448 170.752 93.724 170.272 93.928C169.792 94.12 169.288 94.216 168.76 94.216ZM173.513 94V81.184H174.971V89.86H175.025L178.751 85.252H180.389L177.455 88.762L180.785 94H179.165L176.609 89.788L174.971 91.696V94H173.513Z"></path>
<rect fill="#06893A" rx="12" height="24" width="44" y="124" x="92"></rect>
<rect fill="white" rx="10" height="20" width="20" y="126" x="114"></rect>
<path fill="#007C2E" d="M129.267 131.648C129.876 132.21 129.914 133.159 129.352 133.767L123.352 140.267C123.075 140.567 122.688 140.742 122.28 140.75C121.872 140.758 121.478 140.599 121.189 140.311L118.689 137.811C118.104 137.225 118.104 136.275 118.689 135.689C119.275 135.104 120.225 135.104 120.811 135.689L122.207 137.085L127.148 131.733C127.71 131.124 128.659 131.086 129.267 131.648Z" clip-rule="evenodd" fill-rule="evenodd"></path>
<path fill="#262626" d="M145.62 142V130.192H147.114V135.142H152.604V130.192H154.116V142H152.604V136.438H147.114V142H145.62ZM160.62 142.216C159.912 142.216 159.246 142.036 158.622 141.676C158.01 141.316 157.512 140.794 157.128 140.11C156.756 139.426 156.57 138.604 156.57 137.644C156.57 136.66 156.756 135.826 157.128 135.142C157.512 134.458 158.01 133.936 158.622 133.576C159.246 133.216 159.912 133.036 160.62 133.036C161.34 133.036 162.006 133.216 162.618 133.576C163.23 133.936 163.722 134.458 164.094 135.142C164.478 135.826 164.67 136.66 164.67 137.644C164.67 138.604 164.478 139.426 164.094 140.11C163.722 140.794 163.23 141.316 162.618 141.676C162.006 142.036 161.34 142.216 160.62 142.216ZM160.62 140.992C161.376 140.992 161.982 140.686 162.438 140.074C162.906 139.45 163.14 138.64 163.14 137.644C163.14 136.636 162.906 135.82 162.438 135.196C161.982 134.572 161.376 134.26 160.62 134.26C159.876 134.26 159.27 134.572 158.802 135.196C158.334 135.82 158.1 136.636 158.1 137.644C158.1 138.64 158.334 139.45 158.802 140.074C159.27 140.686 159.876 140.992 160.62 140.992ZM169.53 142.216C168.606 142.216 167.928 141.928 167.496 141.352C167.064 140.764 166.848 139.912 166.848 138.796V133.252H168.342V138.598C168.342 139.414 168.468 140.008 168.72 140.38C168.984 140.752 169.404 140.938 169.98 140.938C170.436 140.938 170.838 140.824 171.186 140.596C171.546 140.356 171.93 139.978 172.338 139.462V133.252H173.814V142H172.59L172.464 140.632H172.41C172.002 141.112 171.57 141.496 171.114 141.784C170.658 142.072 170.13 142.216 169.53 142.216ZM179.051 142.216C178.427 142.216 177.833 142.102 177.269 141.874C176.705 141.634 176.213 141.346 175.793 141.01L176.531 140.02C176.915 140.32 177.311 140.572 177.719 140.776C178.127 140.968 178.589 141.064 179.105 141.064C179.681 141.064 180.113 140.932 180.401 140.668C180.689 140.392 180.833 140.068 180.833 139.696C180.833 139.396 180.731 139.144 180.527 138.94C180.335 138.736 180.083 138.568 179.771 138.436C179.471 138.292 179.159 138.16 178.835 138.04C178.427 137.884 178.025 137.71 177.629 137.518C177.233 137.314 176.909 137.056 176.657 136.744C176.405 136.42 176.279 136.012 176.279 135.52C176.279 134.812 176.543 134.224 177.071 133.756C177.611 133.276 178.355 133.036 179.303 133.036C179.843 133.036 180.347 133.132 180.815 133.324C181.283 133.516 181.685 133.75 182.021 134.026L181.301 134.962C181.001 134.734 180.689 134.548 180.365 134.404C180.041 134.26 179.687 134.188 179.303 134.188C178.751 134.188 178.343 134.314 178.079 134.566C177.827 134.818 177.701 135.112 177.701 135.448C177.701 135.724 177.791 135.952 177.971 136.132C178.151 136.3 178.385 136.45 178.673 136.582C178.961 136.702 179.267 136.828 179.591 136.96C180.011 137.116 180.425 137.296 180.833 137.5C181.241 137.692 181.577 137.956 181.841 138.292C182.117 138.616 182.255 139.054 182.255 139.606C182.255 140.074 182.129 140.506 181.877 140.902C181.637 141.298 181.277 141.616 180.797 141.856C180.329 142.096 179.747 142.216 179.051 142.216ZM187.852 142.216C187.072 142.216 186.364 142.036 185.728 141.676C185.092 141.304 184.588 140.776 184.216 140.092C183.844 139.408 183.658 138.592 183.658 137.644C183.658 136.684 183.844 135.862 184.216 135.178C184.6 134.494 185.092 133.966 185.692 133.594C186.292 133.222 186.922 133.036 187.582 133.036C188.698 133.036 189.556 133.408 190.156 134.152C190.768 134.896 191.074 135.892 191.074 137.14C191.074 137.296 191.068 137.452 191.056 137.608C191.056 137.752 191.044 137.878 191.02 137.986H185.116C185.176 138.91 185.464 139.648 185.98 140.2C186.508 140.752 187.192 141.028 188.032 141.028C188.452 141.028 188.836 140.968 189.184 140.848C189.544 140.716 189.886 140.548 190.21 140.344L190.732 141.316C190.36 141.556 189.934 141.766 189.454 141.946C188.986 142.126 188.452 142.216 187.852 142.216ZM185.098 136.924H189.778C189.778 136.036 189.586 135.364 189.202 134.908C188.83 134.44 188.302 134.206 187.618 134.206C187.006 134.206 186.454 134.446 185.962 134.926C185.482 135.394 185.194 136.06 185.098 136.924Z"></path>
<rect fill="#595959" rx="12" height="24" width="44" y="172" x="92"></rect>
<rect fill="white" rx="10" height="20" width="20" y="174" x="94"></rect>
<path fill="#262626" d="M148.068 190V179.452H144.504V178.192H153.144V179.452H149.58V190H148.068ZM157.477 190.216C156.697 190.216 155.989 190.036 155.353 189.676C154.717 189.304 154.213 188.776 153.841 188.092C153.469 187.408 153.283 186.592 153.283 185.644C153.283 184.684 153.469 183.862 153.841 183.178C154.225 182.494 154.717 181.966 155.317 181.594C155.917 181.222 156.547 181.036 157.207 181.036C158.323 181.036 159.181 181.408 159.781 182.152C160.393 182.896 160.699 183.892 160.699 185.14C160.699 185.296 160.693 185.452 160.681 185.608C160.681 185.752 160.669 185.878 160.645 185.986H154.741C154.801 186.91 155.089 187.648 155.605 188.2C156.133 188.752 156.817 189.028 157.657 189.028C158.077 189.028 158.461 188.968 158.809 188.848C159.169 188.716 159.511 188.548 159.835 188.344L160.357 189.316C159.985 189.556 159.559 189.766 159.079 189.946C158.611 190.126 158.077 190.216 157.477 190.216ZM154.723 184.924H159.403C159.403 184.036 159.211 183.364 158.827 182.908C158.455 182.44 157.927 182.206 157.243 182.206C156.631 182.206 156.079 182.446 155.587 182.926C155.107 183.394 154.819 184.06 154.723 184.924ZM166.317 190.216C165.549 190.216 164.853 190.036 164.229 189.676C163.605 189.316 163.113 188.794 162.753 188.11C162.393 187.426 162.213 186.604 162.213 185.644C162.213 184.66 162.405 183.826 162.789 183.142C163.185 182.458 163.701 181.936 164.337 181.576C164.985 181.216 165.681 181.036 166.425 181.036C167.001 181.036 167.493 181.138 167.901 181.342C168.321 181.546 168.681 181.786 168.981 182.062L168.225 183.034C167.973 182.806 167.703 182.62 167.415 182.476C167.139 182.332 166.827 182.26 166.479 182.26C165.951 182.26 165.477 182.404 165.057 182.692C164.649 182.968 164.325 183.364 164.085 183.88C163.857 184.384 163.743 184.972 163.743 185.644C163.743 186.64 163.989 187.45 164.481 188.074C164.985 188.686 165.639 188.992 166.443 188.992C166.851 188.992 167.229 188.908 167.577 188.74C167.925 188.56 168.231 188.35 168.495 188.11L169.143 189.1C168.747 189.448 168.309 189.724 167.829 189.928C167.349 190.12 166.845 190.216 166.317 190.216ZM171.07 190V177.184H172.546V180.676L172.492 182.476C172.912 182.08 173.35 181.744 173.806 181.468C174.274 181.18 174.808 181.036 175.408 181.036C176.332 181.036 177.004 181.33 177.424 181.918C177.856 182.494 178.072 183.34 178.072 184.456V190H176.596V184.654C176.596 183.838 176.464 183.244 176.2 182.872C175.936 182.5 175.516 182.314 174.94 182.314C174.496 182.314 174.094 182.428 173.734 182.656C173.386 182.884 172.99 183.22 172.546 183.664V190H171.07ZM180.861 190V181.252H182.085L182.211 182.512H182.265C182.685 182.092 183.129 181.744 183.597 181.468C184.065 181.18 184.599 181.036 185.199 181.036C186.123 181.036 186.795 181.33 187.215 181.918C187.647 182.494 187.863 183.34 187.863 184.456V190H186.387V184.654C186.387 183.838 186.255 183.244 185.991 182.872C185.727 182.5 185.307 182.314 184.731 182.314C184.287 182.314 183.885 182.428 183.525 182.656C183.177 182.884 182.781 183.22 182.337 183.664V190H180.861ZM194.107 190.216C193.399 190.216 192.733 190.036 192.109 189.676C191.497 189.316 190.999 188.794 190.615 188.11C190.243 187.426 190.057 186.604 190.057 185.644C190.057 184.66 190.243 183.826 190.615 183.142C190.999 182.458 191.497 181.936 192.109 181.576C192.733 181.216 193.399 181.036 194.107 181.036C194.827 181.036 195.493 181.216 196.105 181.576C196.717 181.936 197.209 182.458 197.581 183.142C197.965 183.826 198.157 184.66 198.157 185.644C198.157 186.604 197.965 187.426 197.581 188.11C197.209 188.794 196.717 189.316 196.105 189.676C195.493 190.036 194.827 190.216 194.107 190.216ZM194.107 188.992C194.863 188.992 195.469 188.686 195.925 188.074C196.393 187.45 196.627 186.64 196.627 185.644C196.627 184.636 196.393 183.82 195.925 183.196C195.469 182.572 194.863 182.26 194.107 182.26C193.363 182.26 192.757 182.572 192.289 183.196C191.821 183.82 191.587 184.636 191.587 185.644C191.587 186.64 191.821 187.45 192.289 188.074C192.757 188.686 193.363 188.992 194.107 188.992Z"></path>
<rect fill="#595959" rx="12" height="24" width="44" y="220" x="92"></rect>
<rect fill="white" rx="10" height="20" width="20" y="222" x="94"></rect>
<path fill="#262626" d="M145.62 238V226.192H148.572C150.396 226.192 151.782 226.702 152.73 227.722C153.678 228.73 154.152 230.17 154.152 232.042C154.152 233.926 153.678 235.39 152.73 236.434C151.794 237.478 150.432 238 148.644 238H145.62ZM147.114 236.776H148.464C149.844 236.776 150.876 236.362 151.56 235.534C152.256 234.694 152.604 233.53 152.604 232.042C152.604 230.554 152.256 229.414 151.56 228.622C150.876 227.818 149.844 227.416 148.464 227.416H147.114V236.776ZM158.566 238.216C157.834 238.216 157.222 238 156.73 237.568C156.25 237.124 156.01 236.512 156.01 235.732C156.01 234.772 156.436 234.04 157.288 233.536C158.152 233.02 159.514 232.66 161.374 232.456C161.374 232.084 161.32 231.73 161.212 231.394C161.116 231.058 160.936 230.788 160.672 230.584C160.42 230.368 160.054 230.26 159.574 230.26C159.07 230.26 158.596 230.356 158.152 230.548C157.708 230.74 157.312 230.956 156.964 231.196L156.388 230.17C156.796 229.906 157.294 229.654 157.882 229.414C158.482 229.162 159.13 229.036 159.826 229.036C160.894 229.036 161.668 229.366 162.148 230.026C162.628 230.674 162.868 231.544 162.868 232.636V238H161.644L161.518 236.956H161.464C161.056 237.292 160.606 237.586 160.114 237.838C159.634 238.09 159.118 238.216 158.566 238.216ZM158.998 237.028C159.418 237.028 159.814 236.926 160.186 236.722C160.558 236.518 160.954 236.23 161.374 235.858V233.428C159.922 233.608 158.902 233.878 158.314 234.238C157.738 234.598 157.45 235.06 157.45 235.624C157.45 236.116 157.6 236.476 157.9 236.704C158.2 236.92 158.566 237.028 158.998 237.028ZM165.621 238V229.252H166.845L166.971 230.512H167.025C167.445 230.092 167.889 229.744 168.357 229.468C168.825 229.18 169.359 229.036 169.959 229.036C170.883 229.036 171.555 229.33 171.975 229.918C172.407 230.494 172.623 231.34 172.623 232.456V238H171.147V232.654C171.147 231.838 171.015 231.244 170.751 230.872C170.487 230.5 170.067 230.314 169.491 230.314C169.047 230.314 168.645 230.428 168.285 230.656C167.937 230.884 167.541 231.22 167.097 231.664V238H165.621ZM178.92 238.216C178.152 238.216 177.456 238.036 176.832 237.676C176.208 237.316 175.716 236.794 175.356 236.11C174.996 235.426 174.816 234.604 174.816 233.644C174.816 232.66 175.008 231.826 175.392 231.142C175.788 230.458 176.304 229.936 176.94 229.576C177.588 229.216 178.284 229.036 179.028 229.036C179.604 229.036 180.096 229.138 180.504 229.342C180.924 229.546 181.284 229.786 181.584 230.062L180.828 231.034C180.576 230.806 180.306 230.62 180.018 230.476C179.742 230.332 179.43 230.26 179.082 230.26C178.554 230.26 178.08 230.404 177.66 230.692C177.252 230.968 176.928 231.364 176.688 231.88C176.46 232.384 176.346 232.972 176.346 233.644C176.346 234.64 176.592 235.45 177.084 236.074C177.588 236.686 178.242 236.992 179.046 236.992C179.454 236.992 179.832 236.908 180.18 236.74C180.528 236.56 180.834 236.35 181.098 236.11L181.746 237.1C181.35 237.448 180.912 237.724 180.432 237.928C179.952 238.12 179.448 238.216 178.92 238.216ZM186.833 238.216C186.053 238.216 185.345 238.036 184.709 237.676C184.073 237.304 183.569 236.776 183.197 236.092C182.825 235.408 182.639 234.592 182.639 233.644C182.639 232.684 182.825 231.862 183.197 231.178C183.581 230.494 184.073 229.966 184.673 229.594C185.273 229.222 185.903 229.036 186.563 229.036C187.679 229.036 188.537 229.408 189.137 230.152C189.749 230.896 190.055 231.892 190.055 233.14C190.055 233.296 190.049 233.452 190.037 233.608C190.037 233.752 190.025 233.878 190.001 233.986H184.097C184.157 234.91 184.445 235.648 184.961 236.2C185.489 236.752 186.173 237.028 187.013 237.028C187.433 237.028 187.817 236.968 188.165 236.848C188.525 236.716 188.867 236.548 189.191 236.344L189.713 237.316C189.341 237.556 188.915 237.766 188.435 237.946C187.967 238.126 187.433 238.216 186.833 238.216ZM184.079 232.924H188.759C188.759 232.036 188.567 231.364 188.183 230.908C187.811 230.44 187.283 230.206 186.599 230.206C185.987 230.206 185.435 230.446 184.943 230.926C184.463 231.394 184.175 232.06 184.079 232.924Z"></path>
<rect fill="#06893A" rx="12" height="24" width="44" y="268" x="92"></rect>
<rect fill="white" rx="10" height="20" width="20" y="270" x="114"></rect>
<path fill="#007C2E" d="M129.267 275.648C129.876 276.21 129.914 277.159 129.352 277.767L123.352 284.267C123.075 284.567 122.688 284.742 122.28 284.75C121.872 284.758 121.478 284.599 121.189 284.311L118.689 281.811C118.104 281.225 118.104 280.275 118.689 279.689C119.275 279.104 120.225 279.104 120.811 279.689L122.207 281.085L127.148 275.733C127.71 275.124 128.659 275.086 129.267 275.648Z" clip-rule="evenodd" fill-rule="evenodd"></path>
<path fill="#262626" d="M145.62 286V274.192H148.986C149.874 274.192 150.648 274.3 151.308 274.516C151.968 274.732 152.484 275.098 152.856 275.614C153.228 276.118 153.414 276.802 153.414 277.666C153.414 278.902 153.012 279.82 152.208 280.42C151.404 281.02 150.354 281.32 149.058 281.32H147.114V286H145.62ZM147.114 280.096H148.878C149.91 280.096 150.672 279.904 151.164 279.52C151.668 279.124 151.92 278.506 151.92 277.666C151.92 276.814 151.656 276.226 151.128 275.902C150.612 275.566 149.838 275.398 148.806 275.398H147.114V280.096ZM158.634 286.216C157.926 286.216 157.26 286.036 156.636 285.676C156.024 285.316 155.526 284.794 155.142 284.11C154.77 283.426 154.584 282.604 154.584 281.644C154.584 280.66 154.77 279.826 155.142 279.142C155.526 278.458 156.024 277.936 156.636 277.576C157.26 277.216 157.926 277.036 158.634 277.036C159.354 277.036 160.02 277.216 160.632 277.576C161.244 277.936 161.736 278.458 162.108 279.142C162.492 279.826 162.684 280.66 162.684 281.644C162.684 282.604 162.492 283.426 162.108 284.11C161.736 284.794 161.244 285.316 160.632 285.676C160.02 286.036 159.354 286.216 158.634 286.216ZM158.634 284.992C159.39 284.992 159.996 284.686 160.452 284.074C160.92 283.45 161.154 282.64 161.154 281.644C161.154 280.636 160.92 279.82 160.452 279.196C159.996 278.572 159.39 278.26 158.634 278.26C157.89 278.26 157.284 278.572 156.816 279.196C156.348 279.82 156.114 280.636 156.114 281.644C156.114 282.64 156.348 283.45 156.816 284.074C157.284 284.686 157.89 284.992 158.634 284.992ZM164.988 289.69V277.252H166.212L166.338 278.26H166.392C166.788 277.924 167.22 277.636 167.688 277.396C168.168 277.156 168.666 277.036 169.182 277.036C170.31 277.036 171.168 277.444 171.756 278.26C172.344 279.064 172.638 280.144 172.638 281.5C172.638 282.484 172.458 283.33 172.098 284.038C171.75 284.746 171.288 285.286 170.712 285.658C170.148 286.03 169.53 286.216 168.858 286.216C168.45 286.216 168.042 286.126 167.634 285.946C167.238 285.766 166.836 285.52 166.428 285.208L166.464 286.738V289.69H164.988ZM168.606 284.974C169.326 284.974 169.92 284.668 170.388 284.056C170.868 283.432 171.108 282.58 171.108 281.5C171.108 280.54 170.928 279.766 170.568 279.178C170.22 278.578 169.632 278.278 168.804 278.278C168.432 278.278 168.054 278.38 167.67 278.584C167.298 278.788 166.896 279.082 166.464 279.466V284.056C166.86 284.392 167.244 284.632 167.616 284.776C167.988 284.908 168.318 284.974 168.606 284.974Z"></path>
</g>
<defs>
<clipPath id="clip0_5346_50580">
<rect fill="white" height="336" width="384"></rect>
</clipPath>
</defs>
</svg>
