<svg xmlns="http://www.w3.org/2000/svg" fill="none" viewBox="0 0 200 200" height="200" width="200">
<path fill="#417DA0" d="M34 42C34 35.3726 39.3726 30 46 30C52.6274 30 58 35.3726 58 42C58 48.6274 52.6274 54 46 54C39.3726 54 34 48.6274 34 42Z"></path>
<path fill="#E3EFF7" d="M34 114C34 107.373 39.3726 102 46 102C52.6274 102 58 107.373 58 114C58 120.627 52.6274 126 46 126C39.3726 126 34 120.627 34 114Z"></path>
<path fill="#417DA0" d="M36 114C36 119.523 40.4772 124 46 124C51.5228 124 56 119.523 56 114C56 108.477 51.5228 104 46 104C40.4772 104 36 108.477 36 114ZM46 102C39.3726 102 34 107.373 34 114C34 120.627 39.3726 126 46 126C52.6274 126 58 120.627 58 114C58 107.373 52.6274 102 46 102Z" clip-rule="evenodd" fill-rule="evenodd"></path>
<path fill="#417DA0" d="M66 42C66 40.8954 66.8954 40 68 40H165C166.105 40 167 40.8954 167 42C167 43.1046 166.105 44 165 44H68C66.8954 44 66 43.1046 66 42Z" clip-rule="evenodd" fill-rule="evenodd"></path>
<path fill="#417DA0" d="M66 114C66 112.895 66.8954 112 68 112H165C166.105 112 167 112.895 167 114C167 115.105 166.105 116 165 116H68C66.8954 116 66 115.105 66 114Z" clip-rule="evenodd" fill-rule="evenodd"></path>
<path fill="#417DA0" d="M66 57C66 55.8954 66.8954 55 68 55H158C159.105 55 160 55.8954 160 57C160 58.1046 159.105 59 158 59H68C66.8954 59 66 58.1046 66 57Z" clip-rule="evenodd" fill-rule="evenodd"></path>
<path fill="#417DA0" d="M66 129C66 127.895 66.8954 127 68 127H158C159.105 127 160 127.895 160 129C160 130.105 159.105 131 158 131H68C66.8954 131 66 130.105 66 129Z" clip-rule="evenodd" fill-rule="evenodd"></path>
<path fill="#417DA0" d="M66 72C66 70.8954 66.8954 70 68 70H165C166.105 70 167 70.8954 167 72C167 73.1046 166.105 74 165 74H68C66.8954 74 66 73.1046 66 72Z" clip-rule="evenodd" fill-rule="evenodd"></path>
<path fill="#417DA0" d="M66 144C66 142.895 66.8954 142 68 142H165C166.105 142 167 142.895 167 144C167 145.105 166.105 146 165 146H68C66.8954 146 66 145.105 66 144Z" clip-rule="evenodd" fill-rule="evenodd"></path>
<path fill="#E3EFF7" d="M40 42C40 40.8954 40.8954 40 42 40H50C51.1046 40 52 40.8954 52 42C52 43.1046 51.1046 44 50 44H42C40.8954 44 40 43.1046 40 42Z" clip-rule="evenodd" fill-rule="evenodd"></path>
<path fill="#417DA0" d="M40 114C40 112.895 40.8954 112 42 112H50C51.1046 112 52 112.895 52 114C52 115.105 51.1046 116 50 116H42C40.8954 116 40 115.105 40 114Z" clip-rule="evenodd" fill-rule="evenodd"></path>
<path fill="#417DA0" d="M46 56C46.5523 56 47 56.4477 47 57V99C47 99.5523 46.5523 100 46 100C45.4477 100 45 99.5523 45 99V57C45 56.4477 45.4477 56 46 56Z" clip-rule="evenodd" fill-rule="evenodd"></path>
<path fill="#417DA0" d="M66 160.04C66 158.361 67.3611 157 69.04 157H100.96C102.639 157 104 158.361 104 160.04V166.12C104 167.799 102.639 169.16 100.96 169.16H69.04C67.3611 169.16 66 167.799 66 166.12V160.04Z"></path>
<path fill="#E3EFF7" d="M72.84 163.08C72.84 162.241 73.5205 161.56 74.36 161.56H95.64C96.4795 161.56 97.16 162.241 97.16 163.08C97.16 163.92 96.4795 164.6 95.64 164.6H74.36C73.5205 164.6 72.84 163.92 72.84 163.08Z" clip-rule="evenodd" fill-rule="evenodd"></path>
</svg>
