<svg xmlns="http://www.w3.org/2000/svg" fill="none" viewBox="0 0 873 579" height="579" width="873">
<rect fill="white" height="579" width="873"></rect>
<path fill="#262626" d="M118.631 284.506C119.18 283.956 120.07 283.956 120.619 284.506L129.938 293.824L139.256 284.506C139.805 283.956 140.695 283.956 141.244 284.506C141.794 285.055 141.794 285.945 141.244 286.494L130.932 296.807C130.383 297.356 129.492 297.356 128.943 296.807L118.631 286.494C118.081 285.945 118.081 285.055 118.631 284.506Z" clip-rule="evenodd" fill-rule="evenodd"></path>
<path fill="#262626" d="M171.173 305.25V275.82H176.393V300.84H188.633V305.25H171.173ZM202.099 305.79C200.059 305.79 198.214 305.34 196.564 304.44C194.914 303.51 193.609 302.19 192.649 300.48C191.689 298.74 191.209 296.655 191.209 294.225C191.209 291.825 191.689 289.755 192.649 288.015C193.639 286.275 194.914 284.94 196.474 284.01C198.034 283.08 199.669 282.615 201.379 282.615C203.389 282.615 205.069 283.065 206.419 283.965C207.769 284.835 208.789 286.065 209.479 287.655C210.169 289.215 210.514 291.03 210.514 293.1C210.514 294.18 210.439 295.02 210.289 295.62H196.249C196.489 297.57 197.194 299.085 198.364 300.165C199.534 301.245 201.004 301.785 202.774 301.785C203.734 301.785 204.619 301.65 205.429 301.38C206.269 301.08 207.094 300.675 207.904 300.165L209.659 303.405C208.609 304.095 207.439 304.665 206.149 305.115C204.859 305.565 203.509 305.79 202.099 305.79ZM196.204 292.11H206.014C206.014 290.4 205.639 289.065 204.889 288.105C204.139 287.115 203.014 286.62 201.514 286.62C200.224 286.62 199.069 287.1 198.049 288.06C197.059 288.99 196.444 290.34 196.204 292.11ZM215.367 305.25V283.155H220.542V305.25H215.367ZM217.977 279.285C217.047 279.285 216.297 279.015 215.727 278.475C215.157 277.935 214.872 277.215 214.872 276.315C214.872 275.445 215.157 274.74 215.727 274.2C216.297 273.66 217.047 273.39 217.977 273.39C218.907 273.39 219.657 273.66 220.227 274.2C220.797 274.74 221.082 275.445 221.082 276.315C221.082 277.215 220.797 277.935 220.227 278.475C219.657 279.015 218.907 279.285 217.977 279.285ZM236.504 305.79C234.464 305.79 232.619 305.34 230.969 304.44C229.319 303.51 228.014 302.19 227.054 300.48C226.094 298.74 225.614 296.655 225.614 294.225C225.614 291.825 226.094 289.755 227.054 288.015C228.044 286.275 229.319 284.94 230.879 284.01C232.439 283.08 234.074 282.615 235.784 282.615C237.794 282.615 239.474 283.065 240.824 283.965C242.174 284.835 243.194 286.065 243.884 287.655C244.574 289.215 244.919 291.03 244.919 293.1C244.919 294.18 244.844 295.02 244.694 295.62H230.654C230.894 297.57 231.599 299.085 232.769 300.165C233.939 301.245 235.409 301.785 237.179 301.785C238.139 301.785 239.024 301.65 239.834 301.38C240.674 301.08 241.499 300.675 242.309 300.165L244.064 303.405C243.014 304.095 241.844 304.665 240.554 305.115C239.264 305.565 237.914 305.79 236.504 305.79ZM230.609 292.11H240.419C240.419 290.4 240.044 289.065 239.294 288.105C238.544 287.115 237.419 286.62 235.919 286.62C234.629 286.62 233.474 287.1 232.454 288.06C231.464 288.99 230.849 290.34 230.609 292.11ZM258.69 313.98V283.155H262.965L263.325 285.495H263.505C264.435 284.715 265.47 284.04 266.61 283.47C267.78 282.9 268.965 282.615 270.165 282.615C272.925 282.615 275.055 283.635 276.555 285.675C278.085 287.715 278.85 290.445 278.85 293.865C278.85 296.385 278.4 298.545 277.5 300.345C276.6 302.115 275.43 303.465 273.99 304.395C272.58 305.325 271.05 305.79 269.4 305.79C268.44 305.79 267.48 305.58 266.52 305.16C265.56 304.71 264.63 304.11 263.73 303.36L263.865 307.05V313.98H258.69ZM268.32 301.515C269.79 301.515 271.02 300.87 272.01 299.58C273 298.29 273.495 296.4 273.495 293.91C273.495 291.69 273.12 289.965 272.37 288.735C271.62 287.505 270.405 286.89 268.725 286.89C267.165 286.89 265.545 287.715 263.865 289.365V299.67C264.675 300.33 265.455 300.81 266.205 301.11C266.955 301.38 267.66 301.515 268.32 301.515ZM284.001 305.25V283.155H288.276L288.636 287.07H288.816C289.596 285.63 290.541 284.535 291.651 283.785C292.761 283.005 293.901 282.615 295.071 282.615C296.121 282.615 296.961 282.765 297.591 283.065L296.691 287.565C296.301 287.445 295.941 287.355 295.611 287.295C295.281 287.235 294.876 287.205 294.396 287.205C293.526 287.205 292.611 287.55 291.651 288.24C290.691 288.9 289.866 290.07 289.176 291.75V305.25H284.001ZM300.698 305.25V283.155H305.873V305.25H300.698ZM303.308 279.285C302.378 279.285 301.628 279.015 301.058 278.475C300.488 277.935 300.203 277.215 300.203 276.315C300.203 275.445 300.488 274.74 301.058 274.2C301.628 273.66 302.378 273.39 303.308 273.39C304.238 273.39 304.988 273.66 305.558 274.2C306.128 274.74 306.413 275.445 306.413 276.315C306.413 277.215 306.128 277.935 305.558 278.475C304.988 279.015 304.238 279.285 303.308 279.285ZM317.335 305.25L309.64 283.155H314.905L318.415 294.63C318.715 295.71 319.015 296.805 319.315 297.915C319.645 299.025 319.96 300.15 320.26 301.29H320.44C320.77 300.15 321.085 299.025 321.385 297.915C321.715 296.805 322.03 295.71 322.33 294.63L325.84 283.155H330.835L323.32 305.25H317.335ZM339.052 305.79C337.132 305.79 335.557 305.19 334.327 303.99C333.127 302.79 332.527 301.23 332.527 299.31C332.527 296.94 333.562 295.11 335.632 293.82C337.702 292.5 341.002 291.6 345.532 291.12C345.502 289.95 345.187 288.945 344.587 288.105C344.017 287.235 342.982 286.8 341.482 286.8C340.402 286.8 339.337 287.01 338.287 287.43C337.267 287.85 336.262 288.36 335.272 288.96L333.382 285.495C334.612 284.715 335.992 284.04 337.522 283.47C339.082 282.9 340.732 282.615 342.472 282.615C345.232 282.615 347.287 283.44 348.637 285.09C350.017 286.71 350.707 289.065 350.707 292.155V305.25H346.432L346.072 302.82H345.892C344.902 303.66 343.837 304.365 342.697 304.935C341.587 305.505 340.372 305.79 339.052 305.79ZM340.717 301.74C341.617 301.74 342.427 301.53 343.147 301.11C343.897 300.66 344.692 300.06 345.532 299.31V294.36C342.532 294.75 340.447 295.335 339.277 296.115C338.107 296.865 337.522 297.795 337.522 298.905C337.522 299.895 337.822 300.615 338.422 301.065C339.022 301.515 339.787 301.74 340.717 301.74ZM363.892 305.79C361.342 305.79 359.527 305.055 358.447 303.585C357.397 302.085 356.872 300.15 356.872 297.78V287.25H353.722V283.38L357.142 283.155L357.772 277.125H362.092V283.155H367.717V287.25H362.092V297.78C362.092 300.36 363.127 301.65 365.197 301.65C365.587 301.65 365.992 301.605 366.412 301.515C366.832 301.395 367.192 301.275 367.492 301.155L368.392 304.98C367.792 305.19 367.102 305.37 366.322 305.52C365.572 305.7 364.762 305.79 363.892 305.79ZM390.24 305.79C388.41 305.79 386.7 305.34 385.11 304.44C383.52 303.51 382.23 302.19 381.24 300.48C380.25 298.74 379.755 296.655 379.755 294.225C379.755 291.765 380.25 289.68 381.24 287.97C382.23 286.23 383.52 284.91 385.11 284.01C386.7 283.08 388.41 282.615 390.24 282.615C392.1 282.615 393.825 283.08 395.415 284.01C397.005 284.91 398.295 286.23 399.285 287.97C400.275 289.68 400.77 291.765 400.77 294.225C400.77 296.655 400.275 298.74 399.285 300.48C398.295 302.19 397.005 303.51 395.415 304.44C393.825 305.34 392.1 305.79 390.24 305.79ZM390.24 301.56C391.86 301.56 393.135 300.885 394.065 299.535C394.995 298.185 395.46 296.415 395.46 294.225C395.46 292.005 394.995 290.22 394.065 288.87C393.135 287.52 391.86 286.845 390.24 286.845C388.62 286.845 387.345 287.52 386.415 288.87C385.515 290.22 385.065 292.005 385.065 294.225C385.065 296.415 385.515 298.185 386.415 299.535C387.345 300.885 388.62 301.56 390.24 301.56ZM413.498 315.015C411.758 315.015 410.183 314.805 408.773 314.385C407.393 313.965 406.298 313.32 405.488 312.45C404.708 311.61 404.318 310.545 404.318 309.255C404.318 307.425 405.368 305.85 407.468 304.53V304.35C406.898 303.99 406.418 303.51 406.028 302.91C405.668 302.31 405.488 301.56 405.488 300.66C405.488 299.79 405.728 299.01 406.208 298.32C406.718 297.6 407.288 297.015 407.918 296.565V296.385C407.168 295.815 406.493 295.02 405.893 294C405.323 292.98 405.038 291.825 405.038 290.535C405.038 288.825 405.443 287.385 406.253 286.215C407.063 285.045 408.128 284.16 409.448 283.56C410.798 282.93 412.238 282.615 413.768 282.615C414.368 282.615 414.938 282.675 415.478 282.795C416.048 282.885 416.558 283.005 417.008 283.155H424.928V286.98H420.878C421.238 287.4 421.538 287.94 421.778 288.6C422.018 289.23 422.138 289.935 422.138 290.715C422.138 292.335 421.763 293.715 421.013 294.855C420.263 295.965 419.258 296.805 417.998 297.375C416.738 297.945 415.328 298.23 413.768 298.23C413.288 298.23 412.793 298.185 412.283 298.095C411.773 298.005 411.263 297.855 410.753 297.645C410.423 297.945 410.153 298.245 409.943 298.545C409.763 298.845 409.673 299.25 409.673 299.76C409.673 300.39 409.928 300.885 410.438 301.245C410.978 301.605 411.923 301.785 413.273 301.785H417.188C419.858 301.785 421.868 302.22 423.218 303.09C424.598 303.93 425.288 305.31 425.288 307.23C425.288 308.67 424.808 309.975 423.848 311.145C422.888 312.345 421.523 313.29 419.753 313.98C417.983 314.67 415.898 315.015 413.498 315.015ZM413.768 294.99C414.818 294.99 415.718 294.6 416.468 293.82C417.218 293.04 417.593 291.945 417.593 290.535C417.593 289.155 417.218 288.09 416.468 287.34C415.748 286.56 414.848 286.17 413.768 286.17C412.688 286.17 411.773 286.545 411.023 287.295C410.273 288.045 409.898 289.125 409.898 290.535C409.898 291.945 410.273 293.04 411.023 293.82C411.773 294.6 412.688 294.99 413.768 294.99ZM414.308 311.64C416.078 311.64 417.518 311.28 418.628 310.56C419.738 309.84 420.293 309.015 420.293 308.085C420.293 307.215 419.948 306.63 419.258 306.33C418.598 306.03 417.638 305.88 416.378 305.88H413.363C412.163 305.88 411.158 305.775 410.348 305.565C409.208 306.435 408.638 307.41 408.638 308.49C408.638 309.48 409.148 310.245 410.168 310.785C411.188 311.355 412.568 311.64 414.308 311.64ZM438.01 305.25V273.48H443.095V293.325H443.23L451.42 283.155H457.09L449.53 292.155L457.855 305.25H452.23L446.56 295.665L443.095 299.625V305.25H438.01ZM469.421 305.79C467.591 305.79 465.881 305.34 464.291 304.44C462.701 303.51 461.411 302.19 460.421 300.48C459.431 298.74 458.936 296.655 458.936 294.225C458.936 291.765 459.431 289.68 460.421 287.97C461.411 286.23 462.701 284.91 464.291 284.01C465.881 283.08 467.591 282.615 469.421 282.615C471.281 282.615 473.006 283.08 474.596 284.01C476.186 284.91 477.476 286.23 478.466 287.97C479.456 289.68 479.951 291.765 479.951 294.225C479.951 296.655 479.456 298.74 478.466 300.48C477.476 302.19 476.186 303.51 474.596 304.44C473.006 305.34 471.281 305.79 469.421 305.79ZM469.421 301.56C471.041 301.56 472.316 300.885 473.246 299.535C474.176 298.185 474.641 296.415 474.641 294.225C474.641 292.005 474.176 290.22 473.246 288.87C472.316 287.52 471.041 286.845 469.421 286.845C467.801 286.845 466.526 287.52 465.596 288.87C464.696 290.22 464.246 292.005 464.246 294.225C464.246 296.415 464.696 298.185 465.596 299.535C466.526 300.885 467.801 301.56 469.421 301.56ZM484.984 305.25V283.155H489.259L489.619 286.17H489.799C490.729 285.18 491.734 284.34 492.814 283.65C493.924 282.96 495.169 282.615 496.549 282.615C498.169 282.615 499.459 282.975 500.419 283.695C501.409 284.385 502.159 285.345 502.669 286.575C503.719 285.435 504.814 284.49 505.954 283.74C507.124 282.99 508.399 282.615 509.779 282.615C512.119 282.615 513.844 283.38 514.954 284.91C516.064 286.44 516.619 288.6 516.619 291.39V305.25H511.399V292.065C511.399 290.235 511.114 288.945 510.544 288.195C510.004 287.445 509.164 287.07 508.024 287.07C506.644 287.07 505.099 287.985 503.389 289.815V305.25H498.214V292.065C498.214 290.235 497.929 288.945 497.359 288.195C496.819 287.445 495.964 287.07 494.794 287.07C493.414 287.07 491.869 287.985 490.159 289.815V305.25H484.984ZM522.818 305.25V283.155H527.093L527.453 286.17H527.633C528.563 285.18 529.568 284.34 530.648 283.65C531.758 282.96 533.003 282.615 534.383 282.615C536.003 282.615 537.293 282.975 538.253 283.695C539.243 284.385 539.993 285.345 540.503 286.575C541.553 285.435 542.648 284.49 543.788 283.74C544.958 282.99 546.233 282.615 547.613 282.615C549.953 282.615 551.678 283.38 552.788 284.91C553.898 286.44 554.453 288.6 554.453 291.39V305.25H549.233V292.065C549.233 290.235 548.948 288.945 548.378 288.195C547.838 287.445 546.998 287.07 545.858 287.07C544.478 287.07 542.933 287.985 541.223 289.815V305.25H536.048V292.065C536.048 290.235 535.763 288.945 535.193 288.195C534.653 287.445 533.798 287.07 532.628 287.07C531.248 287.07 529.703 287.985 527.993 289.815V305.25H522.818ZM567.223 305.79C564.853 305.79 563.128 305.025 562.048 303.495C560.968 301.965 560.428 299.805 560.428 297.015V283.155H565.603V296.34C565.603 298.17 565.873 299.46 566.413 300.21C566.953 300.96 567.823 301.335 569.023 301.335C569.983 301.335 570.823 301.095 571.543 300.615C572.293 300.135 573.088 299.355 573.928 298.275V283.155H579.103V305.25H574.873L574.468 302.01H574.333C573.373 303.15 572.323 304.065 571.183 304.755C570.043 305.445 568.723 305.79 567.223 305.79ZM585.568 305.25V283.155H589.843L590.203 286.125H590.383C591.373 285.165 592.453 284.34 593.623 283.65C594.793 282.96 596.128 282.615 597.628 282.615C599.998 282.615 601.723 283.38 602.803 284.91C603.883 286.44 604.423 288.6 604.423 291.39V305.25H599.248V292.065C599.248 290.235 598.978 288.945 598.438 288.195C597.898 287.445 597.013 287.07 595.783 287.07C594.823 287.07 593.968 287.31 593.218 287.79C592.498 288.24 591.673 288.915 590.743 289.815V305.25H585.568ZM616.014 305.79C614.094 305.79 612.519 305.19 611.289 303.99C610.089 302.79 609.489 301.23 609.489 299.31C609.489 296.94 610.524 295.11 612.594 293.82C614.664 292.5 617.964 291.6 622.494 291.12C622.464 289.95 622.149 288.945 621.549 288.105C620.979 287.235 619.944 286.8 618.444 286.8C617.364 286.8 616.299 287.01 615.249 287.43C614.229 287.85 613.224 288.36 612.234 288.96L610.344 285.495C611.574 284.715 612.954 284.04 614.484 283.47C616.044 282.9 617.694 282.615 619.434 282.615C622.194 282.615 624.249 283.44 625.599 285.09C626.979 286.71 627.669 289.065 627.669 292.155V305.25H623.394L623.034 302.82H622.854C621.864 303.66 620.799 304.365 619.659 304.935C618.549 305.505 617.334 305.79 616.014 305.79ZM617.679 301.74C618.579 301.74 619.389 301.53 620.109 301.11C620.859 300.66 621.654 300.06 622.494 299.31V294.36C619.494 294.75 617.409 295.335 616.239 296.115C615.069 296.865 614.484 297.795 614.484 298.905C614.484 299.895 614.784 300.615 615.384 301.065C615.984 301.515 616.749 301.74 617.679 301.74ZM638.812 305.79C636.982 305.79 635.677 305.235 634.897 304.125C634.147 303.015 633.772 301.5 633.772 299.58V273.48H638.947V299.85C638.947 300.48 639.067 300.93 639.307 301.2C639.547 301.44 639.802 301.56 640.072 301.56C640.192 301.56 640.297 301.56 640.387 301.56C640.507 301.53 640.672 301.5 640.882 301.47L641.557 305.34C641.257 305.46 640.867 305.565 640.387 305.655C639.937 305.745 639.412 305.79 638.812 305.79ZM665.527 305.79C663.427 305.79 661.417 304.83 659.497 302.91H659.362L658.912 305.25H654.817V273.48H659.992V281.67L659.857 285.36C660.787 284.55 661.807 283.89 662.917 283.38C664.027 282.87 665.137 282.615 666.247 282.615C669.007 282.615 671.152 283.635 672.682 285.675C674.212 287.715 674.977 290.43 674.977 293.82C674.977 296.34 674.527 298.5 673.627 300.3C672.727 302.07 671.557 303.435 670.117 304.395C668.707 305.325 667.177 305.79 665.527 305.79ZM664.447 301.515C665.917 301.515 667.147 300.87 668.137 299.58C669.127 298.29 669.622 296.4 669.622 293.91C669.622 291.69 669.247 289.965 668.497 288.735C667.747 287.505 666.532 286.89 664.852 286.89C663.292 286.89 661.672 287.715 659.992 289.365V299.67C660.772 300.33 661.537 300.81 662.287 301.11C663.067 301.38 663.787 301.515 664.447 301.515ZM689.129 305.79C687.299 305.79 685.589 305.34 683.999 304.44C682.409 303.51 681.119 302.19 680.129 300.48C679.139 298.74 678.644 296.655 678.644 294.225C678.644 291.765 679.139 289.68 680.129 287.97C681.119 286.23 682.409 284.91 683.999 284.01C685.589 283.08 687.299 282.615 689.129 282.615C690.989 282.615 692.714 283.08 694.304 284.01C695.894 284.91 697.184 286.23 698.174 287.97C699.164 289.68 699.659 291.765 699.659 294.225C699.659 296.655 699.164 298.74 698.174 300.48C697.184 302.19 695.894 303.51 694.304 304.44C692.714 305.34 690.989 305.79 689.129 305.79ZM689.129 301.56C690.749 301.56 692.024 300.885 692.954 299.535C693.884 298.185 694.349 296.415 694.349 294.225C694.349 292.005 693.884 290.22 692.954 288.87C692.024 287.52 690.749 286.845 689.129 286.845C687.509 286.845 686.234 287.52 685.304 288.87C684.404 290.22 683.954 292.005 683.954 294.225C683.954 296.415 684.404 298.185 685.304 299.535C686.234 300.885 687.509 301.56 689.129 301.56ZM709.731 305.79C707.901 305.79 706.596 305.235 705.816 304.125C705.066 303.015 704.691 301.5 704.691 299.58V273.48H709.866V299.85C709.866 300.48 709.986 300.93 710.226 301.2C710.466 301.44 710.721 301.56 710.991 301.56C711.111 301.56 711.216 301.56 711.306 301.56C711.426 301.53 711.591 301.5 711.801 301.47L712.476 305.34C712.176 305.46 711.786 305.565 711.306 305.655C710.856 305.745 710.331 305.79 709.731 305.79ZM716.818 305.25V283.155H721.993V305.25H716.818ZM719.428 279.285C718.498 279.285 717.748 279.015 717.178 278.475C716.608 277.935 716.323 277.215 716.323 276.315C716.323 275.445 716.608 274.74 717.178 274.2C717.748 273.66 718.498 273.39 719.428 273.39C720.358 273.39 721.108 273.66 721.678 274.2C722.248 274.74 722.533 275.445 722.533 276.315C722.533 277.215 722.248 277.935 721.678 278.475C721.108 279.015 720.358 279.285 719.428 279.285ZM736.2 315.015C734.46 315.015 732.885 314.805 731.475 314.385C730.095 313.965 729 313.32 728.19 312.45C727.41 311.61 727.02 310.545 727.02 309.255C727.02 307.425 728.07 305.85 730.17 304.53V304.35C729.6 303.99 729.12 303.51 728.73 302.91C728.37 302.31 728.19 301.56 728.19 300.66C728.19 299.79 728.43 299.01 728.91 298.32C729.42 297.6 729.99 297.015 730.62 296.565V296.385C729.87 295.815 729.195 295.02 728.595 294C728.025 292.98 727.74 291.825 727.74 290.535C727.74 288.825 728.145 287.385 728.955 286.215C729.765 285.045 730.83 284.16 732.15 283.56C733.5 282.93 734.94 282.615 736.47 282.615C737.07 282.615 737.64 282.675 738.18 282.795C738.75 282.885 739.26 283.005 739.71 283.155H747.63V286.98H743.58C743.94 287.4 744.24 287.94 744.48 288.6C744.72 289.23 744.84 289.935 744.84 290.715C744.84 292.335 744.465 293.715 743.715 294.855C742.965 295.965 741.96 296.805 740.7 297.375C739.44 297.945 738.03 298.23 736.47 298.23C735.99 298.23 735.495 298.185 734.985 298.095C734.475 298.005 733.965 297.855 733.455 297.645C733.125 297.945 732.855 298.245 732.645 298.545C732.465 298.845 732.375 299.25 732.375 299.76C732.375 300.39 732.63 300.885 733.14 301.245C733.68 301.605 734.625 301.785 735.975 301.785H739.89C742.56 301.785 744.57 302.22 745.92 303.09C747.3 303.93 747.99 305.31 747.99 307.23C747.99 308.67 747.51 309.975 746.55 311.145C745.59 312.345 744.225 313.29 742.455 313.98C740.685 314.67 738.6 315.015 736.2 315.015ZM736.47 294.99C737.52 294.99 738.42 294.6 739.17 293.82C739.92 293.04 740.295 291.945 740.295 290.535C740.295 289.155 739.92 288.09 739.17 287.34C738.45 286.56 737.55 286.17 736.47 286.17C735.39 286.17 734.475 286.545 733.725 287.295C732.975 288.045 732.6 289.125 732.6 290.535C732.6 291.945 732.975 293.04 733.725 293.82C734.475 294.6 735.39 294.99 736.47 294.99ZM737.01 311.64C738.78 311.64 740.22 311.28 741.33 310.56C742.44 309.84 742.995 309.015 742.995 308.085C742.995 307.215 742.65 306.63 741.96 306.33C741.3 306.03 740.34 305.88 739.08 305.88H736.065C734.865 305.88 733.86 305.775 733.05 305.565C731.91 306.435 731.34 307.41 731.34 308.49C731.34 309.48 731.85 310.245 732.87 310.785C733.89 311.355 735.27 311.64 737.01 311.64Z"></path>
<rect fill-opacity="0.19" fill="black" height="3.75" width="703.125" y="338" x="84.9375"></rect>
<rect fill-opacity="0.19" fill="black" height="3.75" width="703" y="236.75" x="84.9375"></rect>
</svg>
