<svg xmlns="http://www.w3.org/2000/svg" fill="none" viewBox="0 0 200 200" height="200" width="200">
<path fill="#417DA0" d="M104.734 68.3125C105.859 68.3125 106.838 69.0819 107.104 70.1748L108.595 76.3174C109.301 76.5738 109.993 76.8617 110.668 77.1777L116.111 73.8604C117.072 73.2752 118.308 73.4235 119.104 74.2188L125.781 80.8965C126.576 81.6917 126.725 82.9282 126.14 83.8887L122.823 89.332C123.139 90.0071 123.426 90.699 123.683 91.4053L129.825 92.8965C130.918 93.1618 131.688 94.141 131.688 95.2656V104.734C131.688 105.859 130.918 106.838 129.825 107.104L123.683 108.595C123.426 109.301 123.139 109.993 122.823 110.668L126.14 116.111C126.725 117.072 126.576 118.308 125.781 119.104L119.104 125.781C118.308 126.576 117.072 126.725 116.111 126.14L110.668 122.823C109.993 123.139 109.301 123.426 108.595 123.683L107.104 129.825C106.838 130.918 105.859 131.688 104.734 131.688H95.2656C94.141 131.688 93.1619 130.918 92.8965 129.825L91.4053 123.683C90.699 123.426 90.0071 123.139 89.332 122.823L83.8887 126.14C82.9282 126.725 81.6917 126.576 80.8965 125.781L74.2188 119.104C73.4235 118.308 73.2752 117.072 73.8604 116.111L77.1768 110.668C76.8607 109.993 76.5738 109.301 76.3174 108.595L70.1748 107.104C69.0819 106.838 68.3125 105.859 68.3125 104.734V95.2656C68.3125 94.141 69.0819 93.1618 70.1748 92.8965L76.3174 91.4053C76.5738 90.699 76.8607 90.0071 77.1768 89.332L73.8604 83.8887C73.2752 82.9282 73.4235 81.6917 74.2188 80.8965L80.8965 74.2188C81.6917 73.4235 82.9282 73.2752 83.8887 73.8604L89.332 77.1777C90.0071 76.8617 90.699 76.5738 91.4053 76.3174L92.8965 70.1748C93.1618 69.0819 94.141 68.3125 95.2656 68.3125H104.734ZM95.8242 78.7812C95.6199 79.6223 94.9843 80.2914 94.1553 80.54C92.834 80.9363 91.5688 81.4638 90.375 82.1074C89.6127 82.5184 88.6898 82.4945 87.9502 82.0439L82.9883 79.0205L79.0205 82.9893L82.0439 87.9502C82.4945 88.6897 82.5183 89.6128 82.1074 90.375C81.4638 91.5687 80.9363 92.834 80.54 94.1553C80.2914 94.9845 79.6215 95.62 78.7803 95.8242L73.1875 97.1816V102.818L78.7803 104.177C79.6214 104.381 80.2913 105.016 80.54 105.845C80.9363 107.166 81.4638 108.431 82.1074 109.625C82.5184 110.387 82.4944 111.31 82.0439 112.05L79.0205 117.012L82.9893 120.979L87.9502 117.957C88.6897 117.506 89.6127 117.482 90.375 117.893C91.5687 118.536 92.834 119.064 94.1553 119.46C94.9845 119.709 95.62 120.378 95.8242 121.22L97.1816 126.812H102.818L104.176 121.22C104.38 120.378 105.016 119.709 105.845 119.46C107.166 119.064 108.431 118.536 109.625 117.893C110.387 117.482 111.31 117.506 112.05 117.957L117.011 120.979L120.979 117.011L117.956 112.05C117.506 111.31 117.482 110.387 117.893 109.625C118.536 108.431 119.064 107.166 119.46 105.845C119.709 105.016 120.379 104.381 121.22 104.177L126.812 102.818V97.1816L121.22 95.8242C120.378 95.62 119.709 94.9845 119.46 94.1553C119.064 92.834 118.536 91.5687 117.893 90.375C117.482 89.6128 117.506 88.6897 117.956 87.9502L120.979 82.9893L117.012 79.0205L112.05 82.0439C111.31 82.4945 110.387 82.5184 109.625 82.1074C108.431 81.4638 107.166 80.9363 105.845 80.54C105.016 80.2914 104.38 79.6215 104.176 78.7803L102.818 73.1875H97.1816L95.8242 78.7812ZM100 89.4375C105.834 89.4375 110.562 94.1665 110.562 100C110.562 105.834 105.834 110.562 100 110.562C94.1665 110.562 89.4375 105.834 89.4375 100C89.4375 94.1665 94.1665 89.4375 100 89.4375ZM100 94.3125C96.8589 94.3125 94.3125 96.8589 94.3125 100C94.3125 103.141 96.8589 105.688 100 105.688C103.141 105.688 105.688 103.141 105.688 100C105.688 96.8589 103.141 94.3125 100 94.3125Z"></path>
</svg>
