<svg xmlns="http://www.w3.org/2000/svg" fill="none" viewBox="0 0 200 200" height="200" width="200">
<path fill="white" d="M25 87C25 80.3726 30.3726 75 37 75H166C172.627 75 178 80.3726 178 87V103H25V87Z"></path>
<path fill="white" d="M25 131H178V147C178 153.627 172.627 159 166 159H37C30.3726 159 25 153.627 25 147V131Z"></path>
<path fill="#D7E6F0" d="M25 103H178V131H25V103Z"></path>
<path fill="white" d="M24 49C24 44.5817 27.5817 41 32 41H168C172.418 41 176 44.5817 176 49V65C176 69.4183 172.418 73 168 73H32C27.5817 73 24 69.4183 24 65V49Z"></path>
<path fill="#417DA0" d="M168 44H32C29.2386 44 27 46.2386 27 49V65C27 67.7614 29.2386 70 32 70H168C170.761 70 173 67.7614 173 65V49C173 46.2386 170.761 44 168 44ZM32 41C27.5817 41 24 44.5817 24 49V65C24 69.4183 27.5817 73 32 73H168C172.418 73 176 69.4183 176 65V49C176 44.5817 172.418 41 168 41H32Z" clip-rule="evenodd" fill-rule="evenodd"></path>
<rect fill="#C0D6E4" rx="4" height="8" width="47" y="53" x="36"></rect>
<path fill="#417DA0" d="M161.529 54.0004C161.805 54.0085 162.064 54.1298 162.247 54.3356L166.247 58.8356C166.614 59.2484 166.577 59.8805 166.164 60.2474C165.752 60.6143 165.12 60.5771 164.753 60.1644L161.457 56.457L157.707 60.2071C157.317 60.5976 156.683 60.5976 156.293 60.2071C155.902 59.8166 155.902 59.1834 156.293 58.7929L160.793 54.2929C160.988 54.0981 161.254 53.9923 161.529 54.0004Z" clip-rule="evenodd" fill-rule="evenodd"></path>
<rect fill="#417DA0" rx="1.5" height="14" width="3" y="50" x="89"></rect>
<path fill="#417DA0" d="M166.618 111.214C167.052 111.555 167.128 112.184 166.786 112.618L161.286 119.618C161.102 119.852 160.824 119.992 160.526 120C160.229 120.008 159.943 119.883 159.747 119.659L156.247 115.659C155.884 115.243 155.926 114.611 156.342 114.247C156.757 113.884 157.389 113.926 157.753 114.342L160.459 117.434L165.214 111.382C165.555 110.948 166.184 110.873 166.618 111.214Z" clip-rule="evenodd" fill-rule="evenodd"></path>
<path fill="#C0D6E4" d="M36 89C36 86.7909 37.7909 85 40 85H140C142.209 85 144 86.7909 144 89C144 91.2091 142.209 93 140 93H40C37.7909 93 36 91.2091 36 89Z"></path>
<path fill="#C0D6E4" d="M36 145C36 142.791 37.7909 141 40 141H127C129.209 141 131 142.791 131 145C131 147.209 129.209 149 127 149H40C37.7909 149 36 147.209 36 145Z"></path>
<path fill="#417DA0" d="M36 117C36 114.791 37.7909 113 40 113H99C101.209 113 103 114.791 103 117C103 119.209 101.209 121 99 121H40C37.7909 121 36 119.209 36 117Z"></path>
<mask fill="white" id="path-12-inside-1_4412_3223">
<path d="M166 157V159H37V157H166ZM176 147V87C176 81.4772 171.523 77 166 77H37C31.6498 77 27.2805 81.2017 27.0127 86.4854L27 87V147C27 152.523 31.4772 157 37 157V159L36.6904 158.996C30.309 158.835 25.1655 153.691 25.0039 147.31L25 147V87C25 80.4761 30.2061 75.1681 36.6904 75.0039L37 75H166L166.31 75.0039C172.794 75.1681 178 80.4761 178 87V147L177.996 147.31C177.835 153.691 172.691 158.834 166.31 158.996L166 159V157C171.523 157 176 152.523 176 147Z"></path>
</mask>
<path mask="url(#path-12-inside-1_4412_3223)" fill-opacity="0.247059" fill="#005A92" d="M166 159V209H166.315L166.631 208.996L166 159ZM37 159L36.3691 208.996L36.6846 209H37V159ZM176 87H226V87L176 87ZM37 77V27H37L37 77ZM27.0127 86.4854L-22.9232 83.9539L-22.9561 84.6028L-22.9721 85.2523L27.0127 86.4854ZM27 87L-22.9848 85.767L-23 86.3834V87H27ZM27 147H-23H27ZM36.6904 158.996L35.4247 208.98L35.7421 208.988L36.0596 208.992L36.6904 158.996ZM25.0039 147.31L-24.9921 147.94L-24.9881 148.258L-24.9801 148.575L25.0039 147.31ZM25 147H-25V147.315L-24.996 147.631L25 147ZM36.6904 75.0039L36.0596 25.0079L35.7421 25.0119L35.4247 25.0199L36.6904 75.0039ZM37 75V25H36.6846L36.3691 25.004L37 75ZM166 75L166.631 25.004L166.315 25H166V75ZM166.31 75.0039L167.575 25.0199L167.258 25.0119L166.94 25.0079L166.31 75.0039ZM178 87H228V87L178 87ZM178 147L227.996 147.631L228 147.315V147H178ZM177.996 147.31L227.98 148.575L227.988 148.258L227.992 147.94L177.996 147.31ZM166.31 158.996L166.94 208.992L167.258 208.988L167.575 208.98L166.31 158.996ZM166 157H116V159H166H216V157H166ZM166 159V109H37V159V209H166V159ZM37 159H87V157H37H-13V159H37ZM37 157V207H166V157V107H37V157ZM176 147H226V87H176H126V147H176ZM176 87L226 87C226 53.8629 199.137 27 166 27V77V127C143.909 127 126 109.091 126 87L176 87ZM166 77V27H37V77V127H166V77ZM37 77L37 27C4.88557 27 -21.3139 52.2079 -22.9232 83.9539L27.0127 86.4854L76.9486 89.0168C75.875 110.195 58.4139 127 37 127L37 77ZM27.0127 86.4854L-22.9721 85.2523L-22.9848 85.767L27 87L76.9848 88.233L76.9975 87.7184L27.0127 86.4854ZM27 87H-23V147H27H77V87H27ZM27 147H-23C-23 180.137 3.86292 207 37 207V157V107C59.0914 107 77 124.909 77 147H27ZM37 157H-13V159H37H87V157H37ZM37 159L37.6309 109.004L37.3213 109L36.6904 158.996L36.0596 208.992L36.3691 208.996L37 159ZM36.6904 158.996L37.9561 109.012C58.1968 109.525 74.4753 125.803 74.9879 146.044L25.0039 147.31L-24.9801 148.575C-24.1443 181.579 2.42112 208.144 35.4247 208.98L36.6904 158.996ZM25.0039 147.31L74.9999 146.679L74.996 146.369L25 147L-24.996 147.631L-24.9921 147.94L25.0039 147.31ZM25 147H75V87H25H-25V147H25ZM25 87H75C75 107.666 58.5152 124.467 37.9561 124.988L36.6904 75.0039L35.4247 25.0199C1.89701 25.8689 -25 53.2858 -25 87H25ZM36.6904 75.0039L37.3213 125L37.6309 124.996L37 75L36.3691 25.004L36.0596 25.0079L36.6904 75.0039ZM37 75V125H166V75V25H37V75ZM166 75L165.369 124.996L165.679 125L166.31 75.0039L166.94 25.0079L166.631 25.004L166 75ZM166.31 75.0039L165.044 124.988C144.485 124.467 128 107.666 128 87L178 87L228 87C228 53.2858 201.103 25.8689 167.575 25.0199L166.31 75.0039ZM178 87H128V147H178H228V87H178ZM178 147L128.004 146.369L128 146.679L177.996 147.31L227.992 147.94L227.996 147.631L178 147ZM177.996 147.31L128.012 146.044C128.525 125.803 144.803 109.525 165.044 109.012L166.31 158.996L167.575 208.98C200.579 208.144 227.144 181.579 227.98 148.575L177.996 147.31ZM166.31 158.996L165.679 109L165.369 109.004L166 159L166.631 208.996L166.94 208.992L166.31 158.996ZM166 159H216V157H166H116V159H166ZM166 157V207C199.137 207 226 180.137 226 147H176H126C126 124.909 143.909 107 166 107V157Z"></path>
</svg>
