<svg xmlns="http://www.w3.org/2000/svg" fill="none" viewBox="0 0 200 200" height="200" width="200">
<path fill="#417DA0" d="M98.75 65.5705C78.5625 66.2121 72.5625 80.633 71.1875 88.4455C72.9791 85.5496 78.625 79.1956 86.9375 79.1956C96.625 79.1956 104 90.0081 108.5 93.3831C113.967 97.4835 124.953 102.897 139.375 98.5081C150.875 95.0081 156.208 82.7996 157.375 77.008C151.812 84.5705 143.375 89.1128 132.938 83.758C125.75 80.0705 120.375 64.8831 98.75 65.5705Z"></path>
<path fill="#417DA0" d="M70.1875 99.883C50 100.525 44 114.945 42.625 122.758C44.4167 119.862 50.0625 113.508 58.375 113.508C68.0625 113.508 75.4375 124.321 79.9375 127.696C85.4046 131.796 96.3904 137.21 110.812 132.821C122.312 129.321 127.646 117.112 128.812 111.32C123.25 118.883 114.812 123.425 104.375 118.07C97.1875 114.383 91.8125 99.1956 70.1875 99.883Z"></path>
</svg>
