<svg xmlns="http://www.w3.org/2000/svg" fill="none" viewBox="0 0 1200 630" height="630" width="1200">
<rect fill="url(#paint0_linear_5550_13442)" height="630" width="1200"></rect>
<path fill="#417DA0" d="M807 115C816.389 115 824 122.611 824 132V403C824 412.389 816.389 420 807 420H608V497H767L767.463 497.012C772.218 497.253 776 501.185 776 506C776 510.815 772.218 514.747 767.463 514.988L767 515H454C449.029 515 445 510.971 445 506C445 501.029 449.029 497 454 497H590V420H393C383.611 420 376 412.389 376 403V132C376 122.611 383.611 115 393 115H807ZM394 402H806V133H394V402Z"></path>
<path fill="#246B91" d="M459 240C459 234.477 463.477 230 469 230H730.333C735.856 230 740.333 234.477 740.333 240V300C740.333 305.523 735.856 310 730.333 310H469C463.477 310 459 305.523 459 300V240Z"></path>
<path fill="white" d="M505.669 257.917C506.359 257.917 506.919 258.476 506.919 259.167V268.75H516.502C517.192 268.75 517.752 269.31 517.752 270C517.752 270.69 517.192 271.25 516.502 271.25H506.919V280.834C506.919 281.524 506.359 282.084 505.669 282.084C504.979 282.084 504.419 281.524 504.419 280.834V271.25H494.836C494.146 271.25 493.586 270.69 493.586 270C493.586 269.31 494.146 268.75 494.836 268.75H504.419V259.167C504.419 258.476 504.979 257.917 505.669 257.917Z"></path>
<path fill="white" d="M703.315 279.3C701.615 279.3 700.405 278.81 699.685 277.83C698.985 276.83 698.635 275.54 698.635 273.96V267H696.535V264.42L698.815 264.27L699.235 259.65H702.115V264.27H705.865V267H702.115V273.96C702.115 274.82 702.285 275.47 702.625 275.91C702.965 276.33 703.485 276.54 704.185 276.54C704.445 276.54 704.705 276.52 704.965 276.48C705.225 276.44 705.475 276.36 705.715 276.24L706.345 278.67C705.965 278.85 705.515 279 704.995 279.12C704.475 279.24 703.915 279.3 703.315 279.3Z"></path>
<path fill="white" d="M683.271 279V257.82H686.691V271.02H686.781L692.181 264.27H695.991L690.981 270.3L696.501 279H692.751L688.971 272.61L686.691 275.22V279H683.271Z"></path>
<path fill="white" d="M674.396 279.36C673.016 279.36 671.766 279.06 670.646 278.46C669.546 277.84 668.676 276.96 668.036 275.82C667.396 274.66 667.076 273.26 667.076 271.62C667.076 270.02 667.406 268.65 668.066 267.51C668.726 266.35 669.576 265.46 670.616 264.84C671.656 264.22 672.756 263.91 673.916 263.91C675.256 263.91 676.376 264.21 677.276 264.81C678.176 265.41 678.846 266.24 679.286 267.3C679.746 268.34 679.976 269.54 679.976 270.9C679.976 271.22 679.956 271.53 679.916 271.83C679.896 272.13 679.856 272.42 679.796 272.7H669.656V270.06H676.916C676.916 269 676.676 268.17 676.196 267.57C675.716 266.95 674.976 266.64 673.976 266.64C673.416 266.64 672.866 266.79 672.326 267.09C671.806 267.39 671.366 267.9 671.006 268.62C670.666 269.34 670.496 270.34 670.496 271.62C670.496 272.78 670.696 273.73 671.096 274.47C671.496 275.19 672.026 275.73 672.686 276.09C673.346 276.43 674.056 276.6 674.816 276.6C675.456 276.6 676.056 276.51 676.616 276.33C677.196 276.15 677.736 275.9 678.236 275.58L679.436 277.8C678.756 278.28 677.976 278.66 677.096 278.94C676.236 279.22 675.336 279.36 674.396 279.36Z"></path>
<path fill="white" d="M659.015 285.18C658.495 285.18 658.035 285.14 657.635 285.06C657.235 284.98 656.895 284.88 656.615 284.76L657.275 282.21C657.475 282.27 657.685 282.32 657.905 282.36C658.125 282.42 658.335 282.45 658.535 282.45C659.195 282.45 659.635 282.22 659.855 281.76C660.095 281.32 660.215 280.67 660.215 279.81V264.27H663.695V279.75C663.695 280.79 663.545 281.72 663.245 282.54C662.945 283.36 662.455 284 661.775 284.46C661.095 284.94 660.175 285.18 659.015 285.18ZM661.955 261.69C661.355 261.69 660.855 261.51 660.455 261.15C660.075 260.79 659.885 260.31 659.885 259.71C659.885 259.11 660.075 258.64 660.455 258.3C660.855 257.94 661.355 257.76 661.955 257.76C662.575 257.76 663.075 257.94 663.455 258.3C663.835 258.64 664.025 259.11 664.025 259.71C664.025 260.31 663.835 260.79 663.455 261.15C663.075 261.51 662.575 261.69 661.955 261.69Z"></path>
<path fill="white" d="M651.375 279.36C650.355 279.36 649.345 279.17 648.345 278.79C647.365 278.41 646.515 277.88 645.795 277.2L647.325 275.22C647.985 275.76 648.655 276.15 649.335 276.39C650.015 276.63 650.735 276.75 651.495 276.75C652.295 276.75 652.885 276.58 653.265 276.24C653.645 275.9 653.835 275.48 653.835 274.98C653.835 274.58 653.685 274.24 653.385 273.96C653.105 273.68 652.735 273.44 652.275 273.24C651.815 273.04 651.305 272.84 650.745 272.64C650.025 272.38 649.355 272.07 648.735 271.71C648.115 271.33 647.605 270.87 647.205 270.33C646.825 269.77 646.635 269.1 646.635 268.32C646.635 267.02 647.115 265.96 648.075 265.14C649.035 264.32 650.335 263.91 651.975 263.91C652.975 263.91 653.895 264.08 654.735 264.42C655.575 264.74 656.295 265.16 656.895 265.68L655.365 267.63C654.845 267.25 654.315 266.97 653.775 266.79C653.235 266.61 652.665 266.52 652.065 266.52C651.325 266.52 650.775 266.68 650.415 267C650.055 267.32 649.875 267.7 649.875 268.14C649.875 268.5 649.985 268.81 650.205 269.07C650.445 269.31 650.785 269.53 651.225 269.73C651.665 269.91 652.195 270.1 652.815 270.3C653.575 270.56 654.285 270.88 654.945 271.26C655.605 271.62 656.125 272.09 656.505 272.67C656.905 273.23 657.105 273.94 657.105 274.8C657.105 275.64 656.885 276.41 656.445 277.11C656.005 277.79 655.355 278.34 654.495 278.76C653.655 279.16 652.615 279.36 651.375 279.36Z"></path>
<path fill="white" d="M636.947 279.36C635.727 279.36 634.587 279.06 633.527 278.46C632.467 277.84 631.607 276.96 630.947 275.82C630.287 274.66 629.957 273.27 629.957 271.65C629.957 270.01 630.287 268.62 630.947 267.48C631.607 266.32 632.467 265.44 633.527 264.84C634.587 264.22 635.727 263.91 636.947 263.91C638.187 263.91 639.337 264.22 640.397 264.84C641.457 265.44 642.317 266.32 642.977 267.48C643.637 268.62 643.967 270.01 643.967 271.65C643.967 273.27 643.637 274.66 642.977 275.82C642.317 276.96 641.457 277.84 640.397 278.46C639.337 279.06 638.187 279.36 636.947 279.36ZM636.947 276.54C637.667 276.54 638.287 276.34 638.807 275.94C639.327 275.54 639.727 274.97 640.007 274.23C640.287 273.49 640.427 272.63 640.427 271.65C640.427 270.67 640.287 269.81 640.007 269.07C639.727 268.33 639.327 267.76 638.807 267.36C638.287 266.94 637.667 266.73 636.947 266.73C636.227 266.73 635.607 266.94 635.087 267.36C634.587 267.76 634.197 268.33 633.917 269.07C633.637 269.81 633.497 270.67 633.497 271.65C633.497 272.63 633.637 273.49 633.917 274.23C634.197 274.97 634.587 275.54 635.087 275.94C635.607 276.34 636.227 276.54 636.947 276.54Z"></path>
<path fill="white" d="M620.02 279V264.27H622.87L623.11 266.88H623.23C623.75 265.92 624.37 265.19 625.09 264.69C625.83 264.17 626.6 263.91 627.4 263.91C627.78 263.91 628.1 263.93 628.36 263.97C628.62 264.01 628.86 264.09 629.08 264.21L628.39 267.15C628.15 267.09 627.93 267.05 627.73 267.03C627.53 266.99 627.27 266.97 626.95 266.97C626.37 266.97 625.76 267.2 625.12 267.66C624.48 268.1 623.93 268.88 623.47 270V279H620.02Z"></path>
<path fill="white" d="M603.086 284.82V264.27H605.936L606.176 265.83H606.296C606.916 265.29 607.606 264.84 608.366 264.48C609.126 264.1 609.916 263.91 610.736 263.91C611.956 263.91 612.996 264.22 613.856 264.84C614.716 265.46 615.376 266.33 615.836 267.45C616.296 268.57 616.526 269.89 616.526 271.41C616.526 273.09 616.226 274.52 615.626 275.7C615.026 276.88 614.246 277.79 613.286 278.43C612.346 279.05 611.326 279.36 610.226 279.36C609.586 279.36 608.946 279.22 608.306 278.94C607.666 278.66 607.046 278.26 606.446 277.74L606.536 280.2V284.82H603.086ZM609.506 276.51C610.166 276.51 610.756 276.32 611.276 275.94C611.796 275.56 612.206 275 612.506 274.26C612.806 273.5 612.956 272.56 612.956 271.44C612.956 270.46 612.846 269.62 612.626 268.92C612.406 268.22 612.056 267.69 611.576 267.33C611.116 266.95 610.516 266.76 609.776 266.76C609.236 266.76 608.706 266.9 608.186 267.18C607.666 267.44 607.116 267.85 606.536 268.41V275.28C607.076 275.72 607.596 276.04 608.096 276.24C608.616 276.42 609.086 276.51 609.506 276.51Z"></path>
<path fill="white" d="M591.43 279.3C589.73 279.3 588.52 278.81 587.8 277.83C587.1 276.83 586.75 275.54 586.75 273.96V267H584.65V264.42L586.93 264.27L587.35 259.65H590.23V264.27H593.98V267H590.23V273.96C590.23 274.82 590.4 275.47 590.74 275.91C591.08 276.33 591.6 276.54 592.3 276.54C592.56 276.54 592.82 276.52 593.08 276.48C593.34 276.44 593.59 276.36 593.83 276.24L594.46 278.67C594.08 278.85 593.63 279 593.11 279.12C592.59 279.24 592.03 279.3 591.43 279.3Z"></path>
<path fill="white" d="M581.176 279.3C579.476 279.3 578.266 278.81 577.546 277.83C576.846 276.83 576.496 275.54 576.496 273.96V267H574.396V264.42L576.676 264.27L577.096 259.65H579.976V264.27H583.726V267H579.976V273.96C579.976 274.82 580.146 275.47 580.486 275.91C580.826 276.33 581.346 276.54 582.046 276.54C582.306 276.54 582.566 276.52 582.826 276.48C583.086 276.44 583.336 276.36 583.576 276.24L584.206 278.67C583.826 278.85 583.376 279 582.856 279.12C582.336 279.24 581.776 279.3 581.176 279.3Z"></path>
<path fill="white" d="M562.123 285.06C561.723 285.06 561.363 285.03 561.043 284.97C560.743 284.91 560.463 284.82 560.203 284.7L560.863 282.12C561.063 282.18 561.243 282.22 561.403 282.24C561.563 282.26 561.723 282.27 561.883 282.27C562.663 282.27 563.283 282.03 563.743 281.55C564.223 281.07 564.583 280.47 564.823 279.75L565.093 278.82L559.303 264.27H562.813L565.363 271.5C565.583 272.14 565.793 272.82 565.993 273.54C566.213 274.24 566.433 274.94 566.653 275.64H566.773C566.953 274.96 567.133 274.27 567.313 273.57C567.513 272.85 567.703 272.16 567.883 271.5L570.103 264.27H573.433L568.093 279.66C567.693 280.76 567.233 281.71 566.713 282.51C566.193 283.33 565.563 283.96 564.823 284.4C564.083 284.84 563.183 285.06 562.123 285.06Z"></path>
<path fill="white" d="M541.715 279V259.38H545.525L551.405 270.18C551.765 270.84 552.105 271.55 552.425 272.31C552.765 273.07 553.085 273.84 553.385 274.62H553.505C553.425 273.56 553.335 272.46 553.235 271.32C553.135 270.16 553.085 269.04 553.085 267.96V259.38H556.415V279H552.605L546.725 268.2C546.365 267.54 546.005 266.83 545.645 266.07C545.305 265.31 544.985 264.54 544.685 263.76H544.565C544.685 264.78 544.795 265.87 544.895 267.03C544.995 268.17 545.045 269.3 545.045 270.42V279H541.715Z"></path>
<path fill-opacity="0.25" fill="#005A92" d="M891.838 278.505C893.4 276.943 895.933 276.943 897.495 278.505C899.057 280.067 899.057 282.6 897.495 284.162L881.657 300L897.495 315.838C899.057 317.4 899.057 319.933 897.495 321.496C895.933 323.057 893.4 323.058 891.838 321.496L873.172 302.829C871.609 301.266 871.609 298.733 873.172 297.171L891.838 278.505ZM918.505 278.505C920.067 276.943 922.6 276.943 924.162 278.505L942.828 297.171C944.39 298.733 944.39 301.266 942.828 302.829L924.162 321.496C922.6 323.058 920.067 323.058 918.505 321.496C916.942 319.933 916.942 317.4 918.505 315.838L934.342 300L918.505 284.162C916.943 282.599 916.943 280.067 918.505 278.505Z"></path>
<path fill-opacity="0.25" fill="#005A92" d="M318.666 253.333C325.293 253.333 330.666 258.706 330.666 265.333C330.666 270.558 327.327 275.003 322.666 276.651V278.666C322.666 295.603 308.936 309.333 291.999 309.333H285.332V323.35C289.993 324.997 293.332 329.442 293.332 334.666C293.332 341.294 287.959 346.666 281.332 346.666C274.705 346.666 269.332 341.294 269.332 334.666C269.332 329.442 272.672 324.997 277.332 323.35V276.651C272.671 275.003 269.332 270.558 269.332 265.333C269.332 258.706 274.705 253.333 281.332 253.333C287.959 253.333 293.332 258.706 293.332 265.333C293.332 270.558 289.993 275.003 285.332 276.651V301.333H291.999C304.517 301.333 314.666 291.185 314.666 278.666V276.651C310.005 275.003 306.666 270.558 306.666 265.333C306.666 258.706 312.039 253.333 318.666 253.333ZM281.332 330.666C279.123 330.666 277.332 332.457 277.332 334.666C277.332 336.875 279.123 338.666 281.332 338.666C283.541 338.666 285.332 336.875 285.332 334.666C285.332 332.457 283.541 330.666 281.332 330.666ZM281.332 261.333C279.123 261.333 277.332 263.124 277.332 265.333C277.332 267.542 279.123 269.333 281.332 269.333C283.541 269.333 285.332 267.542 285.332 265.333C285.332 263.124 283.541 261.333 281.332 261.333ZM318.666 261.333C316.457 261.333 314.666 263.124 314.666 265.333C314.666 267.542 316.457 269.333 318.666 269.333C320.875 269.333 322.666 267.542 322.666 265.333C322.666 263.124 320.875 261.333 318.666 261.333Z"></path>
<path fill-opacity="0.25" fill="#005A92" d="M126.995 79.5361C128.233 78.8216 129.758 78.8216 130.995 79.5361L172.564 103.536C173.802 104.251 174.564 105.571 174.564 107V155C174.564 156.429 173.802 157.749 172.564 158.464L131.078 182.416C130.472 182.786 129.759 183 128.996 183C128.985 183 128.975 183 128.964 183C128.888 182.999 128.812 182.996 128.736 182.991C128.096 182.95 127.496 182.759 126.973 182.451L85.4258 158.464C84.1884 157.749 83.4258 156.429 83.4258 155V106.966C83.4338 106.033 83.7672 105.147 84.3447 104.449C84.6629 104.064 85.0442 103.75 85.4639 103.515L126.995 79.5361ZM91.4258 152.69L124.996 172.072V150.6C115.867 148.746 108.996 140.676 108.996 131C108.996 128.785 109.357 126.654 110.021 124.663L91.4258 113.928V152.69ZM147.972 124.663C148.636 126.654 148.996 128.785 148.996 131C148.996 140.676 142.125 148.747 132.996 150.6V172.071L166.564 152.69V113.929L147.972 124.663ZM128.996 119C124.59 119 120.738 121.375 118.651 124.914L118.604 125L118.551 125.09C117.562 126.834 116.996 128.851 116.996 131C116.996 137.627 122.369 143 128.996 143C135.624 143 140.996 137.627 140.996 131C140.996 128.858 140.435 126.846 139.451 125.105C139.43 125.071 139.409 125.035 139.389 125C139.369 124.966 139.35 124.932 139.331 124.897C137.242 121.367 133.395 119 128.996 119ZM95.4268 107L114.025 117.738C117.689 113.605 123.039 111 128.996 111C134.954 111 140.303 113.605 143.967 117.738L162.565 107L128.995 87.6191L95.4268 107Z"></path>
<path fill-opacity="0.25" fill="#005A92" d="M1119 89.6667C1121.21 89.6667 1123 91.4576 1123 93.6667V168.334C1123 170.543 1121.21 172.334 1119 172.334H1023C1020.79 172.334 1019 170.543 1019 168.334V93.6667C1019 91.4576 1020.79 89.6667 1023 89.6667H1119ZM1027 164.334H1115V97.6667H1027V164.334ZM1037.5 106.839C1039.07 105.277 1041.6 105.277 1043.16 106.839L1064.5 128.172C1066.06 129.734 1066.06 132.267 1064.5 133.829L1043.16 155.162C1041.6 156.724 1039.07 156.724 1037.5 155.162C1035.94 153.6 1035.94 151.067 1037.5 149.505L1056.01 131L1037.5 112.495C1035.94 110.933 1035.94 108.401 1037.5 106.839ZM1101.67 148.334C1103.88 148.334 1105.67 150.125 1105.67 152.334C1105.67 154.543 1103.88 156.334 1101.67 156.334H1069.67C1067.46 156.334 1065.67 154.543 1065.67 152.334C1065.67 150.125 1067.46 148.334 1069.67 148.334H1101.67Z"></path>
<path fill-opacity="0.25" fill="#005A92" d="M998.171 511.505C999.733 509.943 1002.26 509.943 1003.83 511.505C1005.39 513.067 1005.39 515.599 1003.83 517.162L991.989 529H1032.35C1034 524.34 1038.44 521 1043.67 521C1050.29 521.001 1055.67 526.373 1055.67 533C1055.67 539.628 1050.29 545 1043.67 545C1038.44 545 1034 541.661 1032.35 537H991.989L1003.83 548.838C1005.39 550.4 1005.39 552.933 1003.83 554.496C1002.26 556.057 999.733 556.057 998.171 554.496L979.504 535.829C977.942 534.266 977.942 531.733 979.504 530.171L998.171 511.505ZM1043.67 529C1041.46 529 1039.67 530.791 1039.67 533C1039.67 535.209 1041.46 537 1043.67 537C1045.87 537 1047.67 535.209 1047.67 533C1047.67 530.791 1045.87 529.001 1043.67 529ZM1046.17 463.505C1047.73 461.943 1050.26 461.943 1051.83 463.505L1070.49 482.171C1072.06 483.733 1072.06 486.266 1070.49 487.829L1051.83 506.496C1050.26 508.057 1047.73 508.057 1046.17 506.496C1044.61 504.933 1044.61 502.4 1046.17 500.838L1058.01 489H1017.65C1016 493.661 1011.56 497 1006.33 497C999.705 497 994.332 491.628 994.332 485C994.332 478.373 999.704 473.001 1006.33 473C1011.56 473 1016 476.34 1017.65 481H1058.01L1046.17 469.162C1044.61 467.599 1044.61 465.067 1046.17 463.505ZM1006.33 481C1004.12 481.001 1002.33 482.791 1002.33 485C1002.33 487.209 1004.12 489 1006.33 489C1008.54 489 1010.33 487.209 1010.33 485C1010.33 482.791 1008.54 481 1006.33 481Z"></path>
<path fill-opacity="0.25" fill="#005A92" d="M172.172 516.838C173.734 515.276 176.266 515.276 177.828 516.838L196.495 535.505C198.057 537.067 198.057 539.6 196.495 541.162L177.828 559.828C176.266 561.39 173.734 561.39 172.172 559.828L153.505 541.162C151.942 539.6 151.942 537.067 153.505 535.505L172.172 516.838ZM161.99 538.333L175 551.343L188.009 538.333L175 525.323L161.99 538.333ZM142.838 487.505C144.4 485.943 146.933 485.943 148.495 487.505L167.162 506.172C168.723 507.734 168.723 510.266 167.162 511.828L148.495 530.495C146.933 532.057 144.4 532.057 142.838 530.495L124.172 511.828C122.609 510.266 122.609 507.734 124.172 506.172L142.838 487.505ZM201.505 487.505C203.067 485.943 205.6 485.943 207.162 487.505L225.828 506.172C227.39 507.734 227.39 510.266 225.828 511.828L207.162 530.495C205.6 532.057 203.067 532.057 201.505 530.495L182.838 511.828C181.276 510.266 181.276 507.734 182.838 506.172L201.505 487.505ZM132.657 509L145.667 522.01L158.676 509L145.667 495.99L132.657 509ZM191.323 509L204.333 522.01L217.342 509L204.333 495.99L191.323 509ZM172.172 458.172C173.734 456.61 176.266 456.61 177.828 458.172L196.495 476.838C198.057 478.4 198.057 480.933 196.495 482.495L177.828 501.162C176.266 502.724 173.734 502.724 172.172 501.162L153.505 482.495C151.942 480.933 151.942 478.4 153.505 476.838L172.172 458.172ZM161.99 479.667L175 492.677L188.009 479.667L175 466.657L161.99 479.667Z"></path>
<defs>
<linearGradient gradientUnits="userSpaceOnUse" y2="630" x2="600" y1="0" x1="600" id="paint0_linear_5550_13442">
<stop stop-color="#EEF6FC"></stop>
<stop stop-color="#E3EFF7" offset="1"></stop>
</linearGradient>
</defs>
</svg>
