<svg xmlns="http://www.w3.org/2000/svg" fill="none" viewBox="0 0 200 200" height="200" width="200">
<path fill="#417DA0" d="M23 68C23 65.7909 24.7909 64 27 64H107C109.209 64 111 65.7909 111 68V118C111 120.209 109.209 122 107 122H27C24.7909 122 23 120.209 23 118V68Z"></path>
<path fill="#417DA0" d="M44.5 132C44.5 129.791 46.2909 128 48.5 128H85.5C87.7091 128 89.5 129.791 89.5 132C89.5 134.209 87.7091 136 85.5 136H48.5C46.2909 136 44.5 134.209 44.5 132Z"></path>
<path fill="#417DA0" d="M117 99C117 96.7909 118.791 95 121 95H149C151.209 95 153 96.7909 153 99V132C153 134.209 151.209 136 149 136H121C118.791 136 117 134.209 117 132V99Z"></path>
<path fill="#417DA0" d="M159 109C159 106.791 160.791 105 163 105H173C175.209 105 177 106.791 177 109V132C177 134.209 175.209 136 173 136H163C160.791 136 159 134.209 159 132V109Z"></path>
</svg>
