<svg xmlns="http://www.w3.org/2000/svg" fill="none" viewBox="0 0 200 200" height="200" width="200">
<path fill="white" d="M24 48C24 41.3726 29.3726 36 36 36H164C170.627 36 176 41.3726 176 48V152C176 158.627 170.627 164 164 164H36C29.3726 164 24 158.627 24 152V48Z"></path>
<mask fill="white" id="path-2-inside-1_4412_3240">
<path d="M164 162V164H36V162H164ZM174 152V48C174 42.4772 169.523 38 164 38H36C30.4772 38 26 42.4772 26 48V152C26 157.523 30.4772 162 36 162V164C29.3726 164 24 158.627 24 152V48C24 41.3726 29.3726 36 36 36H164C170.627 36 176 41.3726 176 48V152C176 158.627 170.627 164 164 164V162C169.523 162 174 157.523 174 152Z"></path>
</mask>
<path mask="url(#path-2-inside-1_4412_3240)" fill-opacity="0.247059" fill="#005A92" d="M164 162H114V164H164H214V162H164ZM164 164V114H36V164V214H164V164ZM36 164H86V162H36H-14V164H36ZM36 162V212H164V162V112H36V162ZM174 152H224V48H174H124V152H174ZM174 48H224C224 14.8629 197.137 -12 164 -12V38V88C141.909 88 124 70.0914 124 48H174ZM164 38V-12H36V38V88H164V38ZM36 38V-12C2.86292 -12 -24 14.8629 -24 48H26H76C76 70.0914 58.0914 88 36 88V38ZM26 48H-24V152H26H76V48H26ZM26 152H-24C-24 185.137 2.86292 212 36 212V162V112C58.0914 112 76 129.909 76 152H26ZM36 162H-14V164H36H86V162H36ZM36 164V114C56.9868 114 74 131.013 74 152H24H-26C-26 186.242 1.75835 214 36 214V164ZM24 152H74V48H24H-26V152H24ZM24 48H74C74 68.9868 56.9868 86 36 86V36V-14C1.75835 -14 -26 13.7583 -26 48H24ZM36 36V86H164V36V-14H36V36ZM164 36V86C143.013 86 126 68.9868 126 48H176H226C226 13.7583 198.242 -14 164 -14V36ZM176 48H126V152H176H226V48H176ZM176 152H126C126 131.013 143.013 114 164 114V164V214C198.242 214 226 186.242 226 152H176ZM164 164H214V162H164H114V164H164ZM164 162V212C197.137 212 224 185.137 224 152H174H124C124 129.909 141.909 112 164 112V162Z"></path>
<rect fill="#C0D6E4" rx="6" height="12" width="12" y="82" x="43"></rect>
<rect fill="#C0D6E4" rx="6" height="12" width="12" y="82" x="77"></rect>
<rect fill="#C0D6E4" rx="6" height="12" width="12" y="82" x="111"></rect>
<rect fill="#C0D6E4" rx="6" height="12" width="12" y="82" x="145"></rect>
<path fill="#417DA0" d="M101 109C101 104.029 105.029 100 110 100H124C128.971 100 133 104.029 133 109V123C133 127.971 128.971 132 124 132H110C105.029 132 101 127.971 101 123V109Z"></path>
<rect fill="#C0D6E4" rx="6" height="12" width="12" y="110" x="43"></rect>
<rect fill="#C0D6E4" rx="6" height="12" width="12" y="110" x="77"></rect>
<rect fill="#C0D6E4" rx="6" height="12" width="12" y="110" x="145"></rect>
<rect fill="#EEF6FC" rx="6" height="12" width="12" y="109.925" x="111"></rect>
<rect fill="#C0D6E4" rx="6" height="12" width="12" y="138" x="43"></rect>
<rect fill="#C0D6E4" rx="6" height="12" width="12" y="138" x="77"></rect>
<rect fill="#C0D6E4" rx="6" height="12" width="12" y="138" x="111"></rect>
<rect fill="#C0D6E4" rx="6" height="12" width="12" y="138" x="145"></rect>
<path fill="#417DA0" d="M148.137 65.6669C147.747 65.2764 147.747 64.6432 148.137 64.2527L150.41 61.9799L140 61.9799C139.448 61.9799 139 61.5322 139 60.9799C139 60.4276 139.448 59.9799 140 59.9799L150.41 59.9799L148.137 57.7071C147.747 57.3166 147.747 56.6834 148.137 56.2929C148.528 55.9024 149.161 55.9024 149.551 56.2929L153.531 60.2728C153.922 60.6633 153.922 61.2965 153.531 61.687L149.551 65.6669C149.161 66.0574 148.528 66.0574 148.137 65.6669Z" clip-rule="evenodd" fill-rule="evenodd"></path>
<path fill="#417DA0" d="M53.687 56.2929C54.0775 56.6834 54.0775 57.3166 53.687 57.7071L51.4142 59.9799H61.8241C62.3764 59.9799 62.8241 60.4276 62.8241 60.9799C62.8241 61.5322 62.3764 61.9799 61.8241 61.9799H51.4142L53.687 64.2527C54.0775 64.6432 54.0775 65.2764 53.687 65.6669C53.2965 66.0574 52.6633 66.0574 52.2728 65.6669L48.2929 61.687C47.9024 61.2965 47.9024 60.6633 48.2929 60.2728L52.2728 56.2929C52.6633 55.9024 53.2965 55.9024 53.687 56.2929Z" clip-rule="evenodd" fill-rule="evenodd"></path>
<path fill="#C0D6E4" d="M71 61C71 55.4772 75.4772 51 81 51H120C125.523 51 130 55.4772 130 61C130 66.5228 125.523 71 120 71H81C75.4772 71 71 66.5228 71 61Z"></path>
</svg>
