<svg xmlns="http://www.w3.org/2000/svg" fill="none" viewBox="0 0 384 200" height="200" width="384">
<rect fill="#E6F0FF" rx="12" height="24" width="93" y="72" x="53"></rect>
<rect stroke-opacity="0.21" stroke="#071A36" rx="11.5" height="23" width="92" y="72.5" x="53.5"></rect>
<path fill-opacity="0.49" fill="#021431" d="M64.9999 78.4999C61.9624 78.4999 59.4999 80.9624 59.4999 83.9999C59.4999 87.0375 61.9624 89.4999 64.9999 89.4999C68.0375 89.4999 70.4999 87.0375 70.4999 83.9999C70.4999 80.9624 68.0375 78.4999 64.9999 78.4999ZM58.4999 83.9999C58.4999 80.4101 61.4101 77.4999 64.9999 77.4999C68.5898 77.4999 71.4999 80.4101 71.4999 83.9999C71.4999 87.5898 68.5898 90.4999 64.9999 90.4999C61.4101 90.4999 58.4999 87.5898 58.4999 83.9999Z" clip-rule="evenodd" fill-rule="evenodd"></path>
<path fill="#262626" d="M78.164 88V79.796H75.392V78.816H82.112V79.796H79.34V88H78.164ZM83.0673 88V81.196H84.0193L84.1173 82.428H84.1593C84.3926 81.9987 84.6773 81.658 85.0133 81.406C85.3493 81.154 85.7086 81.028 86.0913 81.028C86.3619 81.028 86.6046 81.0747 86.8193 81.168L86.5953 82.176C86.4833 82.1387 86.3806 82.1107 86.2873 82.092C86.1939 82.0733 86.0773 82.064 85.9373 82.064C85.6479 82.064 85.3446 82.1807 85.0273 82.414C84.7193 82.6473 84.4486 83.0533 84.2153 83.632V88H83.0673ZM89.203 88.168C88.6337 88.168 88.1577 88 87.775 87.664C87.4017 87.3187 87.215 86.8427 87.215 86.236C87.215 85.4893 87.5463 84.92 88.209 84.528C88.881 84.1267 89.9403 83.8467 91.387 83.688C91.387 83.3987 91.345 83.1233 91.261 82.862C91.1863 82.6007 91.0463 82.3907 90.841 82.232C90.645 82.064 90.3603 81.98 89.987 81.98C89.595 81.98 89.2263 82.0547 88.881 82.204C88.5357 82.3533 88.2277 82.5213 87.957 82.708L87.509 81.91C87.8263 81.7047 88.2137 81.5087 88.671 81.322C89.1377 81.126 89.6417 81.028 90.183 81.028C91.0137 81.028 91.6157 81.2847 91.989 81.798C92.3623 82.302 92.549 82.9787 92.549 83.828V88H91.597L91.499 87.188H91.457C91.1397 87.4493 90.7897 87.678 90.407 87.874C90.0337 88.07 89.6323 88.168 89.203 88.168ZM89.539 87.244C89.8657 87.244 90.1737 87.1647 90.463 87.006C90.7523 86.8473 91.0603 86.6233 91.387 86.334V84.444C90.2577 84.584 89.4643 84.794 89.007 85.074C88.559 85.354 88.335 85.7133 88.335 86.152C88.335 86.5347 88.4517 86.8147 88.685 86.992C88.9183 87.16 89.203 87.244 89.539 87.244ZM94.7457 88V81.196H95.6977L95.7957 82.176H95.8377C96.1644 81.8493 96.5097 81.5787 96.8737 81.364C97.2377 81.14 97.653 81.028 98.1197 81.028C98.8384 81.028 99.361 81.2567 99.6877 81.714C100.024 82.162 100.192 82.82 100.192 83.688V88H99.0437V83.842C99.0437 83.2073 98.941 82.7453 98.7357 82.456C98.5304 82.1667 98.2037 82.022 97.7557 82.022C97.4104 82.022 97.0977 82.1107 96.8177 82.288C96.547 82.4653 96.239 82.7267 95.8937 83.072V88H94.7457ZM104.782 88.168C103.933 88.168 103.251 87.86 102.738 87.244C102.225 86.6187 101.968 85.7413 101.968 84.612C101.968 83.8747 102.103 83.24 102.374 82.708C102.654 82.1667 103.018 81.7513 103.466 81.462C103.923 81.1727 104.409 81.028 104.922 81.028C105.314 81.028 105.655 81.098 105.944 81.238C106.233 81.378 106.527 81.5693 106.826 81.812L106.77 80.65V78.032H107.932V88H106.98L106.882 87.202H106.84C106.579 87.4633 106.271 87.692 105.916 87.888C105.561 88.0747 105.183 88.168 104.782 88.168ZM105.034 87.202C105.631 87.202 106.21 86.8893 106.77 86.264V82.708C106.481 82.4467 106.201 82.2647 105.93 82.162C105.669 82.05 105.398 81.994 105.118 81.994C104.754 81.994 104.423 82.106 104.124 82.33C103.835 82.5447 103.601 82.848 103.424 83.24C103.247 83.6227 103.158 84.0753 103.158 84.598C103.158 85.41 103.321 86.0493 103.648 86.516C103.975 86.9733 104.437 87.202 105.034 87.202ZM112.926 88.168C112.375 88.168 111.857 88.028 111.372 87.748C110.896 87.468 110.508 87.062 110.21 86.53C109.92 85.998 109.776 85.3587 109.776 84.612C109.776 83.8467 109.92 83.198 110.21 82.666C110.508 82.134 110.896 81.728 111.372 81.448C111.857 81.168 112.375 81.028 112.926 81.028C113.486 81.028 114.004 81.168 114.48 81.448C114.956 81.728 115.338 82.134 115.628 82.666C115.926 83.198 116.076 83.8467 116.076 84.612C116.076 85.3587 115.926 85.998 115.628 86.53C115.338 87.062 114.956 87.468 114.48 87.748C114.004 88.028 113.486 88.168 112.926 88.168ZM112.926 87.216C113.514 87.216 113.985 86.978 114.34 86.502C114.704 86.0167 114.886 85.3867 114.886 84.612C114.886 83.828 114.704 83.1933 114.34 82.708C113.985 82.2227 113.514 81.98 112.926 81.98C112.347 81.98 111.876 82.2227 111.512 82.708C111.148 83.1933 110.966 83.828 110.966 84.612C110.966 85.3867 111.148 86.0167 111.512 86.502C111.876 86.978 112.347 87.216 112.926 87.216ZM119.701 88.168C119.216 88.168 118.754 88.0793 118.315 87.902C117.877 87.7153 117.494 87.4913 117.167 87.23L117.741 86.46C118.04 86.6933 118.348 86.8893 118.665 87.048C118.983 87.1973 119.342 87.272 119.743 87.272C120.191 87.272 120.527 87.1693 120.751 86.964C120.975 86.7493 121.087 86.4973 121.087 86.208C121.087 85.9747 121.008 85.7787 120.849 85.62C120.7 85.4613 120.504 85.3307 120.261 85.228C120.028 85.116 119.785 85.0133 119.533 84.92C119.216 84.7987 118.903 84.6633 118.595 84.514C118.287 84.3553 118.035 84.1547 117.839 83.912C117.643 83.66 117.545 83.3427 117.545 82.96C117.545 82.4093 117.751 81.952 118.161 81.588C118.581 81.2147 119.16 81.028 119.897 81.028C120.317 81.028 120.709 81.1027 121.073 81.252C121.437 81.4013 121.75 81.5833 122.011 81.798L121.451 82.526C121.218 82.3487 120.975 82.204 120.723 82.092C120.471 81.98 120.196 81.924 119.897 81.924C119.468 81.924 119.151 82.022 118.945 82.218C118.749 82.414 118.651 82.6427 118.651 82.904C118.651 83.1187 118.721 83.296 118.861 83.436C119.001 83.5667 119.183 83.6833 119.407 83.786C119.631 83.8793 119.869 83.9773 120.121 84.08C120.448 84.2013 120.77 84.3413 121.087 84.5C121.405 84.6493 121.666 84.8547 121.871 85.116C122.086 85.368 122.193 85.7087 122.193 86.138C122.193 86.502 122.095 86.838 121.899 87.146C121.713 87.454 121.433 87.7013 121.059 87.888C120.695 88.0747 120.243 88.168 119.701 88.168ZM123.845 88V78.032H124.993V80.748L124.951 82.148C125.277 81.84 125.618 81.5787 125.973 81.364C126.337 81.14 126.752 81.028 127.219 81.028C127.937 81.028 128.46 81.2567 128.787 81.714C129.123 82.162 129.291 82.82 129.291 83.688V88H128.143V83.842C128.143 83.2073 128.04 82.7453 127.835 82.456C127.629 82.1667 127.303 82.022 126.855 82.022C126.509 82.022 126.197 82.1107 125.917 82.288C125.646 82.4653 125.338 82.7267 124.993 83.072V88H123.845ZM133.084 88.168C132.515 88.168 132.039 88 131.656 87.664C131.283 87.3187 131.096 86.8427 131.096 86.236C131.096 85.4893 131.427 84.92 132.09 84.528C132.762 84.1267 133.821 83.8467 135.268 83.688C135.268 83.3987 135.226 83.1233 135.142 82.862C135.067 82.6007 134.927 82.3907 134.722 82.232C134.526 82.064 134.241 81.98 133.868 81.98C133.476 81.98 133.107 82.0547 132.762 82.204C132.417 82.3533 132.109 82.5213 131.838 82.708L131.39 81.91C131.707 81.7047 132.095 81.5087 132.552 81.322C133.019 81.126 133.523 81.028 134.064 81.028C134.895 81.028 135.497 81.2847 135.87 81.798C136.243 82.302 136.43 82.9787 136.43 83.828V88H135.478L135.38 87.188H135.338C135.021 87.4493 134.671 87.678 134.288 87.874C133.915 88.07 133.513 88.168 133.084 88.168ZM133.42 87.244C133.747 87.244 134.055 87.1647 134.344 87.006C134.633 86.8473 134.941 86.6233 135.268 86.334V84.444C134.139 84.584 133.345 84.794 132.888 85.074C132.44 85.354 132.216 85.7133 132.216 86.152C132.216 86.5347 132.333 86.8147 132.566 86.992C132.799 87.16 133.084 87.244 133.42 87.244Z"></path>
<rect fill="#E6F0FF" rx="12" height="24" width="75" y="72" x="154"></rect>
<rect stroke-opacity="0.21" stroke="#071A36" rx="11.5" height="23" width="74" y="72.5" x="154.5"></rect>
<path fill-opacity="0.49" fill="#021431" d="M166 78.4999C162.962 78.4999 160.5 80.9624 160.5 83.9999C160.5 87.0375 162.962 89.4999 166 89.4999C169.038 89.4999 171.5 87.0375 171.5 83.9999C171.5 80.9624 169.038 78.4999 166 78.4999ZM159.5 83.9999C159.5 80.4101 162.41 77.4999 166 77.4999C169.59 77.4999 172.5 80.4101 172.5 83.9999C172.5 87.5898 169.59 90.4999 166 90.4999C162.41 90.4999 159.5 87.5898 159.5 83.9999Z" clip-rule="evenodd" fill-rule="evenodd"></path>
<path fill="#262626" d="M178.744 88V84.444L175.986 78.816H177.232L178.422 81.406C178.571 81.742 178.716 82.0733 178.856 82.4C179.005 82.7267 179.155 83.0627 179.304 83.408H179.36C179.519 83.0627 179.677 82.7267 179.836 82.4C179.995 82.0733 180.144 81.742 180.284 81.406L181.46 78.816H182.678L179.92 84.444V88H178.744ZM184.487 88.168C183.918 88.168 183.442 88 183.059 87.664C182.686 87.3187 182.499 86.8427 182.499 86.236C182.499 85.4893 182.83 84.92 183.493 84.528C184.165 84.1267 185.224 83.8467 186.671 83.688C186.671 83.3987 186.629 83.1233 186.545 82.862C186.47 82.6007 186.33 82.3907 186.125 82.232C185.929 82.064 185.644 81.98 185.271 81.98C184.879 81.98 184.51 82.0547 184.165 82.204C183.82 82.3533 183.512 82.5213 183.241 82.708L182.793 81.91C183.11 81.7047 183.498 81.5087 183.955 81.322C184.422 81.126 184.926 81.028 185.467 81.028C186.298 81.028 186.9 81.2847 187.273 81.798C187.646 82.302 187.833 82.9787 187.833 83.828V88H186.881L186.783 87.188H186.741C186.424 87.4493 186.074 87.678 185.691 87.874C185.318 88.07 184.916 88.168 184.487 88.168ZM184.823 87.244C185.15 87.244 185.458 87.1647 185.747 87.006C186.036 86.8473 186.344 86.6233 186.671 86.334V84.444C185.542 84.584 184.748 84.794 184.291 85.074C183.843 85.354 183.619 85.7133 183.619 86.152C183.619 86.5347 183.736 86.8147 183.969 86.992C184.202 87.16 184.487 87.244 184.823 87.244ZM191.5 88L189.05 81.196H190.24L191.528 85.06C191.63 85.396 191.733 85.732 191.836 86.068C191.948 86.404 192.055 86.7353 192.158 87.062H192.214C192.316 86.7353 192.419 86.404 192.522 86.068C192.634 85.732 192.736 85.396 192.83 85.06L194.118 81.196H195.252L192.844 88H191.5ZM196.621 88V81.196H197.769V88H196.621ZM197.209 79.796C196.985 79.796 196.798 79.7307 196.649 79.6C196.509 79.46 196.439 79.2733 196.439 79.04C196.439 78.816 196.509 78.634 196.649 78.494C196.798 78.354 196.985 78.284 197.209 78.284C197.433 78.284 197.615 78.354 197.755 78.494C197.904 78.634 197.979 78.816 197.979 79.04C197.979 79.2733 197.904 79.46 197.755 79.6C197.615 79.7307 197.433 79.796 197.209 79.796ZM200.122 88V81.196H201.074L201.172 82.176H201.214C201.541 81.8493 201.886 81.5787 202.25 81.364C202.614 81.14 203.029 81.028 203.496 81.028C204.215 81.028 204.737 81.2567 205.064 81.714C205.4 82.162 205.568 82.82 205.568 83.688V88H204.42V83.842C204.42 83.2073 204.317 82.7453 204.112 82.456C203.907 82.1667 203.58 82.022 203.132 82.022C202.787 82.022 202.474 82.1107 202.194 82.288C201.923 82.4653 201.615 82.7267 201.27 83.072V88H200.122ZM210.805 88V78.816H211.967V88H210.805ZM216.219 88L213.279 78.816H214.525L215.995 83.772C216.163 84.3133 216.307 84.822 216.429 85.298C216.559 85.7647 216.713 86.2687 216.891 86.81H216.947C217.115 86.2687 217.264 85.7647 217.395 85.298C217.525 84.822 217.67 84.3133 217.829 83.772L219.299 78.816H220.489L217.577 88H216.219Z"></path>
<rect fill="#E6F0FF" rx="12" height="24" width="64" y="72" x="237"></rect>
<rect stroke-opacity="0.21" stroke="#071A36" rx="11.5" height="23" width="63" y="72.5" x="237.5"></rect>
<path fill-opacity="0.49" fill="#021431" d="M249 78.4999C245.962 78.4999 243.5 80.9624 243.5 83.9999C243.5 87.0375 245.962 89.4999 249 89.4999C252.038 89.4999 254.5 87.0375 254.5 83.9999C254.5 80.9624 252.038 78.4999 249 78.4999ZM242.5 83.9999C242.5 80.4101 245.41 77.4999 249 77.4999C252.59 77.4999 255.5 80.4101 255.5 83.9999C255.5 87.5898 252.59 90.4999 249 90.4999C245.41 90.4999 242.5 87.5898 242.5 83.9999Z" clip-rule="evenodd" fill-rule="evenodd"></path>
<path fill="#262626" d="M262.808 88.168C262.164 88.168 261.567 88.0467 261.016 87.804C260.465 87.552 259.989 87.2207 259.588 86.81L260.288 85.998C260.615 86.3433 260.997 86.6233 261.436 86.838C261.884 87.0433 262.346 87.146 262.822 87.146C263.429 87.146 263.9 87.0107 264.236 86.74C264.572 86.46 264.74 86.096 264.74 85.648C264.74 85.3307 264.67 85.0787 264.53 84.892C264.399 84.7053 264.217 84.5467 263.984 84.416C263.76 84.2853 263.503 84.1547 263.214 84.024L261.898 83.45C261.609 83.3287 261.319 83.17 261.03 82.974C260.75 82.778 260.512 82.526 260.316 82.218C260.129 81.91 260.036 81.532 260.036 81.084C260.036 80.6173 260.157 80.202 260.4 79.838C260.652 79.4647 260.997 79.1753 261.436 78.97C261.875 78.7553 262.369 78.648 262.92 78.648C263.471 78.648 263.979 78.7553 264.446 78.97C264.913 79.1753 265.309 79.446 265.636 79.782L265.006 80.538C264.726 80.2673 264.413 80.0573 264.068 79.908C263.732 79.7493 263.349 79.67 262.92 79.67C262.407 79.67 261.991 79.7913 261.674 80.034C261.366 80.2767 261.212 80.6033 261.212 81.014C261.212 81.3033 261.287 81.546 261.436 81.742C261.595 81.9287 261.791 82.0827 262.024 82.204C262.257 82.3253 262.495 82.4373 262.738 82.54L264.04 83.1C264.395 83.2493 264.712 83.4313 264.992 83.646C265.281 83.8513 265.51 84.108 265.678 84.416C265.846 84.7147 265.93 85.0927 265.93 85.55C265.93 86.0353 265.804 86.4787 265.552 86.88C265.3 87.272 264.941 87.5847 264.474 87.818C264.007 88.0513 263.452 88.168 262.808 88.168ZM270.371 88.168C269.773 88.168 269.232 88.028 268.747 87.748C268.261 87.468 267.879 87.062 267.599 86.53C267.319 85.998 267.179 85.3587 267.179 84.612C267.179 83.8467 267.328 83.198 267.627 82.666C267.935 82.134 268.336 81.728 268.831 81.448C269.335 81.168 269.876 81.028 270.455 81.028C270.903 81.028 271.285 81.1073 271.603 81.266C271.929 81.4247 272.209 81.6113 272.443 81.826L271.855 82.582C271.659 82.4047 271.449 82.26 271.225 82.148C271.01 82.036 270.767 81.98 270.497 81.98C270.086 81.98 269.717 82.092 269.391 82.316C269.073 82.5307 268.821 82.8387 268.635 83.24C268.457 83.632 268.369 84.0893 268.369 84.612C268.369 85.3867 268.56 86.0167 268.943 86.502C269.335 86.978 269.843 87.216 270.469 87.216C270.786 87.216 271.08 87.1507 271.351 87.02C271.621 86.88 271.859 86.7167 272.065 86.53L272.569 87.3C272.261 87.5707 271.92 87.7853 271.547 87.944C271.173 88.0933 270.781 88.168 270.371 88.168ZM275.555 88.168C274.985 88.168 274.509 88 274.127 87.664C273.753 87.3187 273.567 86.8427 273.567 86.236C273.567 85.4893 273.898 84.92 274.561 84.528C275.233 84.1267 276.292 83.8467 277.739 83.688C277.739 83.3987 277.697 83.1233 277.613 82.862C277.538 82.6007 277.398 82.3907 277.193 82.232C276.997 82.064 276.712 81.98 276.339 81.98C275.947 81.98 275.578 82.0547 275.233 82.204C274.887 82.3533 274.579 82.5213 274.309 82.708L273.861 81.91C274.178 81.7047 274.565 81.5087 275.023 81.322C275.489 81.126 275.993 81.028 276.535 81.028C277.365 81.028 277.967 81.2847 278.341 81.798C278.714 82.302 278.901 82.9787 278.901 83.828V88H277.949L277.851 87.188H277.809C277.491 87.4493 277.141 87.678 276.759 87.874C276.385 88.07 275.984 88.168 275.555 88.168ZM275.891 87.244C276.217 87.244 276.525 87.1647 276.815 87.006C277.104 86.8473 277.412 86.6233 277.739 86.334V84.444C276.609 84.584 275.816 84.794 275.359 85.074C274.911 85.354 274.687 85.7133 274.687 86.152C274.687 86.5347 274.803 86.8147 275.037 86.992C275.27 87.16 275.555 87.244 275.891 87.244ZM281.097 88V81.196H282.049L282.147 82.428H282.189C282.423 81.9987 282.707 81.658 283.043 81.406C283.379 81.154 283.739 81.028 284.121 81.028C284.392 81.028 284.635 81.0747 284.849 81.168L284.625 82.176C284.513 82.1387 284.411 82.1107 284.317 82.092C284.224 82.0733 284.107 82.064 283.967 82.064C283.678 82.064 283.375 82.1807 283.057 82.414C282.749 82.6473 282.479 83.0533 282.245 83.632V88H281.097ZM286.007 88V81.196H287.155V88H286.007ZM286.595 79.796C286.371 79.796 286.184 79.7307 286.035 79.6C285.895 79.46 285.825 79.2733 285.825 79.04C285.825 78.816 285.895 78.634 286.035 78.494C286.184 78.354 286.371 78.284 286.595 78.284C286.819 78.284 287.001 78.354 287.141 78.494C287.29 78.634 287.365 78.816 287.365 79.04C287.365 79.2733 287.29 79.46 287.141 79.6C287.001 79.7307 286.819 79.796 286.595 79.796ZM289.704 88V82.134H288.78V81.266L289.704 81.196V80.118C289.704 79.4273 289.863 78.8813 290.18 78.48C290.507 78.0693 291.011 77.864 291.692 77.864C291.907 77.864 292.112 77.8873 292.308 77.934C292.504 77.9713 292.677 78.0227 292.826 78.088L292.574 78.97C292.322 78.858 292.065 78.802 291.804 78.802C291.169 78.802 290.852 79.2407 290.852 80.118V81.196H292.294V82.134H290.852V88H289.704Z"></path>
<rect fill="#00459C" rx="12" height="24" width="82" y="104" x="53"></rect>
<path fill="white" d="M65 122.5C68.5899 122.5 71.5 119.59 71.5 116C71.5 112.41 68.5899 109.5 65 109.5C61.4101 109.5 58.5 112.41 58.5 116C58.5 119.59 61.4101 122.5 65 122.5ZM68.3024 114.183C68.4956 113.955 68.4671 113.613 68.2388 113.42C68.0104 113.227 67.6686 113.255 67.4754 113.483L63.8834 117.729L62.133 115.978C61.9215 115.767 61.5785 115.767 61.367 115.978C61.1555 116.19 61.1555 116.533 61.367 116.744L63.5337 118.911C63.6408 119.018 63.7878 119.075 63.9392 119.069C64.0905 119.063 64.2323 118.993 64.3302 118.878L68.3024 114.183Z" clip-rule="evenodd" fill-rule="evenodd"></path>
<path fill="white" d="M78.164 120V111.796H75.392V110.816H82.112V111.796H79.34V120H78.164ZM84.2525 120.168C83.6831 120.168 83.2071 120 82.8245 119.664C82.4511 119.319 82.2645 118.843 82.2645 118.236C82.2645 117.489 82.5958 116.92 83.2585 116.528C83.9305 116.127 84.9898 115.847 86.4365 115.688C86.4365 115.399 86.3945 115.123 86.3105 114.862C86.2358 114.601 86.0958 114.391 85.8905 114.232C85.6945 114.064 85.4098 113.98 85.0365 113.98C84.6445 113.98 84.2758 114.055 83.9305 114.204C83.5851 114.353 83.2771 114.521 83.0065 114.708L82.5585 113.91C82.8758 113.705 83.2631 113.509 83.7205 113.322C84.1871 113.126 84.6911 113.028 85.2325 113.028C86.0631 113.028 86.6651 113.285 87.0385 113.798C87.4118 114.302 87.5985 114.979 87.5985 115.828V120H86.6465L86.5485 119.188H86.5065C86.1891 119.449 85.8391 119.678 85.4565 119.874C85.0831 120.07 84.6818 120.168 84.2525 120.168ZM84.5885 119.244C84.9151 119.244 85.2231 119.165 85.5125 119.006C85.8018 118.847 86.1098 118.623 86.4365 118.334V116.444C85.3071 116.584 84.5138 116.794 84.0565 117.074C83.6085 117.354 83.3845 117.713 83.3845 118.152C83.3845 118.535 83.5011 118.815 83.7345 118.992C83.9678 119.16 84.2525 119.244 84.5885 119.244ZM91.7458 120.168C91.0178 120.168 90.5091 119.958 90.2198 119.538C89.9398 119.118 89.7998 118.572 89.7998 117.9V114.134H88.7918V113.266L89.8558 113.196L89.9958 111.292H90.9618V113.196H92.7958V114.134H90.9618V117.914C90.9618 118.334 91.0364 118.661 91.1858 118.894C91.3444 119.118 91.6198 119.23 92.0118 119.23C92.1331 119.23 92.2638 119.211 92.4038 119.174C92.5438 119.127 92.6698 119.085 92.7818 119.048L93.0058 119.916C92.8191 119.981 92.6138 120.037 92.3898 120.084C92.1751 120.14 91.9604 120.168 91.7458 120.168ZM96.8448 120.168C96.2941 120.168 95.7761 120.028 95.2908 119.748C94.8148 119.468 94.4275 119.062 94.1288 118.53C93.8395 117.998 93.6948 117.359 93.6948 116.612C93.6948 115.847 93.8395 115.198 94.1288 114.666C94.4275 114.134 94.8148 113.728 95.2908 113.448C95.7761 113.168 96.2941 113.028 96.8448 113.028C97.4048 113.028 97.9228 113.168 98.3988 113.448C98.8748 113.728 99.2575 114.134 99.5468 114.666C99.8455 115.198 99.9948 115.847 99.9948 116.612C99.9948 117.359 99.8455 117.998 99.5468 118.53C99.2575 119.062 98.8748 119.468 98.3988 119.748C97.9228 120.028 97.4048 120.168 96.8448 120.168ZM96.8448 119.216C97.4328 119.216 97.9041 118.978 98.2588 118.502C98.6228 118.017 98.8048 117.387 98.8048 116.612C98.8048 115.828 98.6228 115.193 98.2588 114.708C97.9041 114.223 97.4328 113.98 96.8448 113.98C96.2661 113.98 95.7948 114.223 95.4308 114.708C95.0668 115.193 94.8848 115.828 94.8848 116.612C94.8848 117.387 95.0668 118.017 95.4308 118.502C95.7948 118.978 96.2661 119.216 96.8448 119.216ZM104.489 120.168C103.938 120.168 103.42 120.028 102.935 119.748C102.459 119.468 102.071 119.062 101.773 118.53C101.483 117.998 101.339 117.359 101.339 116.612C101.339 115.847 101.483 115.198 101.773 114.666C102.071 114.134 102.459 113.728 102.935 113.448C103.42 113.168 103.938 113.028 104.489 113.028C105.049 113.028 105.567 113.168 106.043 113.448C106.519 113.728 106.901 114.134 107.191 114.666C107.489 115.198 107.639 115.847 107.639 116.612C107.639 117.359 107.489 117.998 107.191 118.53C106.901 119.062 106.519 119.468 106.043 119.748C105.567 120.028 105.049 120.168 104.489 120.168ZM104.489 119.216C105.077 119.216 105.548 118.978 105.903 118.502C106.267 118.017 106.449 117.387 106.449 116.612C106.449 115.828 106.267 115.193 105.903 114.708C105.548 114.223 105.077 113.98 104.489 113.98C103.91 113.98 103.439 114.223 103.075 114.708C102.711 115.193 102.529 115.828 102.529 116.612C102.529 117.387 102.711 118.017 103.075 118.502C103.439 118.978 103.91 119.216 104.489 119.216ZM109.487 120V113.196H110.635V120H109.487ZM110.075 111.796C109.851 111.796 109.664 111.731 109.515 111.6C109.375 111.46 109.305 111.273 109.305 111.04C109.305 110.816 109.375 110.634 109.515 110.494C109.664 110.354 109.851 110.284 110.075 110.284C110.299 110.284 110.481 110.354 110.621 110.494C110.77 110.634 110.845 110.816 110.845 111.04C110.845 111.273 110.77 111.46 110.621 111.6C110.481 111.731 110.299 111.796 110.075 111.796ZM112.988 120V113.196H113.94L114.038 114.176H114.08C114.407 113.849 114.752 113.579 115.116 113.364C115.48 113.14 115.895 113.028 116.362 113.028C117.081 113.028 117.603 113.257 117.93 113.714C118.266 114.162 118.434 114.82 118.434 115.688V120H117.286V115.842C117.286 115.207 117.183 114.745 116.978 114.456C116.773 114.167 116.446 114.022 115.998 114.022C115.653 114.022 115.34 114.111 115.06 114.288C114.789 114.465 114.481 114.727 114.136 115.072V120H112.988ZM123.458 120.168C122.851 120.168 122.301 120.028 121.806 119.748C121.311 119.459 120.919 119.048 120.63 118.516C120.341 117.984 120.196 117.349 120.196 116.612C120.196 115.865 120.341 115.226 120.63 114.694C120.929 114.162 121.311 113.751 121.778 113.462C122.245 113.173 122.735 113.028 123.248 113.028C124.116 113.028 124.783 113.317 125.25 113.896C125.726 114.475 125.964 115.249 125.964 116.22C125.964 116.341 125.959 116.463 125.95 116.584C125.95 116.696 125.941 116.794 125.922 116.878H121.33C121.377 117.597 121.601 118.171 122.002 118.6C122.413 119.029 122.945 119.244 123.598 119.244C123.925 119.244 124.223 119.197 124.494 119.104C124.774 119.001 125.04 118.871 125.292 118.712L125.698 119.468C125.409 119.655 125.077 119.818 124.704 119.958C124.34 120.098 123.925 120.168 123.458 120.168ZM121.316 116.052H124.956C124.956 115.361 124.807 114.839 124.508 114.484C124.219 114.12 123.808 113.938 123.276 113.938C122.8 113.938 122.371 114.125 121.988 114.498C121.615 114.862 121.391 115.38 121.316 116.052Z"></path>
<rect fill="#E6F0FF" rx="12" height="24" width="98" y="104" x="143"></rect>
<rect stroke-opacity="0.21" stroke="#071A36" rx="11.5" height="23" width="97" y="104.5" x="143.5"></rect>
<path fill-opacity="0.49" fill="#021431" d="M155 110.5C151.962 110.5 149.5 112.962 149.5 116C149.5 119.038 151.962 121.5 155 121.5C158.038 121.5 160.5 119.038 160.5 116C160.5 112.962 158.038 110.5 155 110.5ZM148.5 116C148.5 112.41 151.41 109.5 155 109.5C158.59 109.5 161.5 112.41 161.5 116C161.5 119.59 158.59 122.5 155 122.5C151.41 122.5 148.5 119.59 148.5 116Z" clip-rule="evenodd" fill-rule="evenodd"></path>
<path fill="#262626" d="M166.26 120V110.816H168.878C169.569 110.816 170.171 110.9 170.684 111.068C171.197 111.236 171.599 111.521 171.888 111.922C172.177 112.314 172.322 112.846 172.322 113.518C172.322 114.479 172.009 115.193 171.384 115.66C170.759 116.127 169.942 116.36 168.934 116.36H167.422V120H166.26ZM167.422 115.408H168.794C169.597 115.408 170.189 115.259 170.572 114.96C170.964 114.652 171.16 114.171 171.16 113.518C171.16 112.855 170.955 112.398 170.544 112.146C170.143 111.885 169.541 111.754 168.738 111.754H167.422V115.408ZM176.438 120.168C175.887 120.168 175.369 120.028 174.884 119.748C174.408 119.468 174.021 119.062 173.722 118.53C173.433 117.998 173.288 117.359 173.288 116.612C173.288 115.847 173.433 115.198 173.722 114.666C174.021 114.134 174.408 113.728 174.884 113.448C175.369 113.168 175.887 113.028 176.438 113.028C176.998 113.028 177.516 113.168 177.992 113.448C178.468 113.728 178.851 114.134 179.14 114.666C179.439 115.198 179.588 115.847 179.588 116.612C179.588 117.359 179.439 117.998 179.14 118.53C178.851 119.062 178.468 119.468 177.992 119.748C177.516 120.028 176.998 120.168 176.438 120.168ZM176.438 119.216C177.026 119.216 177.497 118.978 177.852 118.502C178.216 118.017 178.398 117.387 178.398 116.612C178.398 115.828 178.216 115.193 177.852 114.708C177.497 114.223 177.026 113.98 176.438 113.98C175.859 113.98 175.388 114.223 175.024 114.708C174.66 115.193 174.478 115.828 174.478 116.612C174.478 117.387 174.66 118.017 175.024 118.502C175.388 118.978 175.859 119.216 176.438 119.216ZM182.654 120.168C182.224 120.168 181.912 120.037 181.716 119.776C181.529 119.505 181.436 119.123 181.436 118.628V110.032H182.584V118.712C182.584 118.889 182.616 119.02 182.682 119.104C182.747 119.179 182.822 119.216 182.906 119.216C182.943 119.216 182.976 119.216 183.004 119.216C183.041 119.207 183.092 119.197 183.158 119.188L183.312 120.056C183.237 120.093 183.148 120.121 183.046 120.14C182.943 120.159 182.812 120.168 182.654 120.168ZM185.06 120V113.196H186.208V120H185.06ZM185.648 111.796C185.424 111.796 185.237 111.731 185.088 111.6C184.948 111.46 184.878 111.273 184.878 111.04C184.878 110.816 184.948 110.634 185.088 110.494C185.237 110.354 185.424 110.284 185.648 110.284C185.872 110.284 186.054 110.354 186.194 110.494C186.343 110.634 186.418 110.816 186.418 111.04C186.418 111.273 186.343 111.46 186.194 111.6C186.054 111.731 185.872 111.796 185.648 111.796ZM190.339 120.168C189.854 120.168 189.392 120.079 188.953 119.902C188.515 119.715 188.132 119.491 187.805 119.23L188.379 118.46C188.678 118.693 188.986 118.889 189.303 119.048C189.621 119.197 189.98 119.272 190.381 119.272C190.829 119.272 191.165 119.169 191.389 118.964C191.613 118.749 191.725 118.497 191.725 118.208C191.725 117.975 191.646 117.779 191.487 117.62C191.338 117.461 191.142 117.331 190.899 117.228C190.666 117.116 190.423 117.013 190.171 116.92C189.854 116.799 189.541 116.663 189.233 116.514C188.925 116.355 188.673 116.155 188.477 115.912C188.281 115.66 188.183 115.343 188.183 114.96C188.183 114.409 188.389 113.952 188.799 113.588C189.219 113.215 189.798 113.028 190.535 113.028C190.955 113.028 191.347 113.103 191.711 113.252C192.075 113.401 192.388 113.583 192.649 113.798L192.089 114.526C191.856 114.349 191.613 114.204 191.361 114.092C191.109 113.98 190.834 113.924 190.535 113.924C190.106 113.924 189.789 114.022 189.583 114.218C189.387 114.414 189.289 114.643 189.289 114.904C189.289 115.119 189.359 115.296 189.499 115.436C189.639 115.567 189.821 115.683 190.045 115.786C190.269 115.879 190.507 115.977 190.759 116.08C191.086 116.201 191.408 116.341 191.725 116.5C192.043 116.649 192.304 116.855 192.509 117.116C192.724 117.368 192.831 117.709 192.831 118.138C192.831 118.502 192.733 118.838 192.537 119.146C192.351 119.454 192.071 119.701 191.697 119.888C191.333 120.075 190.881 120.168 190.339 120.168ZM197.453 120V110.816H198.853L200.617 115.716C200.729 116.033 200.837 116.355 200.939 116.682C201.051 116.999 201.163 117.317 201.275 117.634H201.331C201.443 117.317 201.546 116.999 201.639 116.682C201.742 116.355 201.849 116.033 201.961 115.716L203.697 110.816H205.111V120H204.019V114.946C204.019 114.535 204.038 114.083 204.075 113.588C204.113 113.084 204.145 112.631 204.173 112.23H204.117L203.389 114.316L201.653 119.076H200.883L199.147 114.316L198.419 112.23H198.363C198.391 112.631 198.419 113.084 198.447 113.588C198.485 114.083 198.503 114.535 198.503 114.946V120H197.453ZM209.137 120.168C208.568 120.168 208.092 120 207.709 119.664C207.336 119.319 207.149 118.843 207.149 118.236C207.149 117.489 207.481 116.92 208.143 116.528C208.815 116.127 209.875 115.847 211.321 115.688C211.321 115.399 211.279 115.123 211.195 114.862C211.121 114.601 210.981 114.391 210.775 114.232C210.579 114.064 210.295 113.98 209.921 113.98C209.529 113.98 209.161 114.055 208.815 114.204C208.47 114.353 208.162 114.521 207.891 114.708L207.443 113.91C207.761 113.705 208.148 113.509 208.605 113.322C209.072 113.126 209.576 113.028 210.117 113.028C210.948 113.028 211.55 113.285 211.923 113.798C212.297 114.302 212.483 114.979 212.483 115.828V120H211.531L211.433 119.188H211.391C211.074 119.449 210.724 119.678 210.341 119.874C209.968 120.07 209.567 120.168 209.137 120.168ZM209.473 119.244C209.8 119.244 210.108 119.165 210.397 119.006C210.687 118.847 210.995 118.623 211.321 118.334V116.444C210.192 116.584 209.399 116.794 208.941 117.074C208.493 117.354 208.269 117.713 208.269 118.152C208.269 118.535 208.386 118.815 208.619 118.992C208.853 119.16 209.137 119.244 209.473 119.244ZM216.458 120.168C215.973 120.168 215.511 120.079 215.072 119.902C214.633 119.715 214.251 119.491 213.924 119.23L214.498 118.46C214.797 118.693 215.105 118.889 215.422 119.048C215.739 119.197 216.099 119.272 216.5 119.272C216.948 119.272 217.284 119.169 217.508 118.964C217.732 118.749 217.844 118.497 217.844 118.208C217.844 117.975 217.765 117.779 217.606 117.62C217.457 117.461 217.261 117.331 217.018 117.228C216.785 117.116 216.542 117.013 216.29 116.92C215.973 116.799 215.66 116.663 215.352 116.514C215.044 116.355 214.792 116.155 214.596 115.912C214.4 115.66 214.302 115.343 214.302 114.96C214.302 114.409 214.507 113.952 214.918 113.588C215.338 113.215 215.917 113.028 216.654 113.028C217.074 113.028 217.466 113.103 217.83 113.252C218.194 113.401 218.507 113.583 218.768 113.798L218.208 114.526C217.975 114.349 217.732 114.204 217.48 114.092C217.228 113.98 216.953 113.924 216.654 113.924C216.225 113.924 215.907 114.022 215.702 114.218C215.506 114.414 215.408 114.643 215.408 114.904C215.408 115.119 215.478 115.296 215.618 115.436C215.758 115.567 215.94 115.683 216.164 115.786C216.388 115.879 216.626 115.977 216.878 116.08C217.205 116.201 217.527 116.341 217.844 116.5C218.161 116.649 218.423 116.855 218.628 117.116C218.843 117.368 218.95 117.709 218.95 118.138C218.95 118.502 218.852 118.838 218.656 119.146C218.469 119.454 218.189 119.701 217.816 119.888C217.452 120.075 216.999 120.168 216.458 120.168ZM222.379 120.168C221.894 120.168 221.432 120.079 220.993 119.902C220.555 119.715 220.172 119.491 219.845 119.23L220.419 118.46C220.718 118.693 221.026 118.889 221.343 119.048C221.661 119.197 222.02 119.272 222.421 119.272C222.869 119.272 223.205 119.169 223.429 118.964C223.653 118.749 223.765 118.497 223.765 118.208C223.765 117.975 223.686 117.779 223.527 117.62C223.378 117.461 223.182 117.331 222.939 117.228C222.706 117.116 222.463 117.013 222.211 116.92C221.894 116.799 221.581 116.663 221.273 116.514C220.965 116.355 220.713 116.155 220.517 115.912C220.321 115.66 220.223 115.343 220.223 114.96C220.223 114.409 220.429 113.952 220.839 113.588C221.259 113.215 221.838 113.028 222.575 113.028C222.995 113.028 223.387 113.103 223.751 113.252C224.115 113.401 224.428 113.583 224.689 113.798L224.129 114.526C223.896 114.349 223.653 114.204 223.401 114.092C223.149 113.98 222.874 113.924 222.575 113.924C222.146 113.924 221.829 114.022 221.623 114.218C221.427 114.414 221.329 114.643 221.329 114.904C221.329 115.119 221.399 115.296 221.539 115.436C221.679 115.567 221.861 115.683 222.085 115.786C222.309 115.879 222.547 115.977 222.799 116.08C223.126 116.201 223.448 116.341 223.765 116.5C224.083 116.649 224.344 116.855 224.549 117.116C224.764 117.368 224.871 117.709 224.871 118.138C224.871 118.502 224.773 118.838 224.577 119.146C224.391 119.454 224.111 119.701 223.737 119.888C223.373 120.075 222.921 120.168 222.379 120.168ZM228.09 120.168C227.521 120.168 227.045 120 226.662 119.664C226.289 119.319 226.102 118.843 226.102 118.236C226.102 117.489 226.434 116.92 227.096 116.528C227.768 116.127 228.828 115.847 230.274 115.688C230.274 115.399 230.232 115.123 230.148 114.862C230.074 114.601 229.934 114.391 229.728 114.232C229.532 114.064 229.248 113.98 228.874 113.98C228.482 113.98 228.114 114.055 227.768 114.204C227.423 114.353 227.115 114.521 226.844 114.708L226.396 113.91C226.714 113.705 227.101 113.509 227.558 113.322C228.025 113.126 228.529 113.028 229.07 113.028C229.901 113.028 230.503 113.285 230.876 113.798C231.25 114.302 231.436 114.979 231.436 115.828V120H230.484L230.386 119.188H230.344C230.027 119.449 229.677 119.678 229.294 119.874C228.921 120.07 228.52 120.168 228.09 120.168ZM228.426 119.244C228.753 119.244 229.061 119.165 229.35 119.006C229.64 118.847 229.948 118.623 230.274 118.334V116.444C229.145 116.584 228.352 116.794 227.894 117.074C227.446 117.354 227.222 117.713 227.222 118.152C227.222 118.535 227.339 118.815 227.572 118.992C227.806 119.16 228.09 119.244 228.426 119.244Z"></path>
<rect fill="#E6F0FF" rx="12" height="24" width="82" y="104" x="249"></rect>
<rect stroke-opacity="0.21" stroke="#071A36" rx="11.5" height="23" width="81" y="104.5" x="249.5"></rect>
<path fill-opacity="0.49" fill="#021431" d="M261 110.5C257.962 110.5 255.5 112.962 255.5 116C255.5 119.038 257.962 121.5 261 121.5C264.038 121.5 266.5 119.038 266.5 116C266.5 112.962 264.038 110.5 261 110.5ZM254.5 116C254.5 112.41 257.41 109.5 261 109.5C264.59 109.5 267.5 112.41 267.5 116C267.5 119.59 264.59 122.5 261 122.5C257.41 122.5 254.5 119.59 254.5 116Z" clip-rule="evenodd" fill-rule="evenodd"></path>
<path fill="#262626" d="M275.648 120.168C274.883 120.168 274.201 119.972 273.604 119.58C273.016 119.188 272.554 118.633 272.218 117.914C271.891 117.195 271.728 116.346 271.728 115.366C271.728 114.386 271.891 113.546 272.218 112.846C272.554 112.137 273.016 111.595 273.604 111.222C274.201 110.839 274.883 110.648 275.648 110.648C276.423 110.648 277.104 110.839 277.692 111.222C278.28 111.595 278.742 112.137 279.078 112.846C279.414 113.546 279.582 114.386 279.582 115.366C279.582 116.346 279.414 117.195 279.078 117.914C278.742 118.633 278.28 119.188 277.692 119.58C277.104 119.972 276.423 120.168 275.648 120.168ZM275.648 119.146C276.199 119.146 276.675 118.992 277.076 118.684C277.487 118.367 277.804 117.928 278.028 117.368C278.252 116.799 278.364 116.131 278.364 115.366C278.364 114.227 278.117 113.327 277.622 112.664C277.127 112.001 276.469 111.67 275.648 111.67C274.827 111.67 274.169 112.001 273.674 112.664C273.179 113.327 272.932 114.227 272.932 115.366C272.932 116.131 273.044 116.799 273.268 117.368C273.492 117.928 273.809 118.367 274.22 118.684C274.631 118.992 275.107 119.146 275.648 119.146ZM281.501 120V113.196H282.453L282.551 114.176H282.593C282.92 113.849 283.265 113.579 283.629 113.364C283.993 113.14 284.408 113.028 284.875 113.028C285.594 113.028 286.116 113.257 286.443 113.714C286.779 114.162 286.947 114.82 286.947 115.688V120H285.799V115.842C285.799 115.207 285.696 114.745 285.491 114.456C285.286 114.167 284.959 114.022 284.511 114.022C284.166 114.022 283.853 114.111 283.573 114.288C283.302 114.465 282.994 114.727 282.649 115.072V120H281.501ZM291.537 120.168C290.688 120.168 290.006 119.86 289.493 119.244C288.98 118.619 288.723 117.741 288.723 116.612C288.723 115.875 288.858 115.24 289.129 114.708C289.409 114.167 289.773 113.751 290.221 113.462C290.678 113.173 291.164 113.028 291.677 113.028C292.069 113.028 292.41 113.098 292.699 113.238C292.988 113.378 293.282 113.569 293.581 113.812L293.525 112.65V110.032H294.687V120H293.735L293.637 119.202H293.595C293.334 119.463 293.026 119.692 292.671 119.888C292.316 120.075 291.938 120.168 291.537 120.168ZM291.789 119.202C292.386 119.202 292.965 118.889 293.525 118.264V114.708C293.236 114.447 292.956 114.265 292.685 114.162C292.424 114.05 292.153 113.994 291.873 113.994C291.509 113.994 291.178 114.106 290.879 114.33C290.59 114.545 290.356 114.848 290.179 115.24C290.002 115.623 289.913 116.075 289.913 116.598C289.913 117.41 290.076 118.049 290.403 118.516C290.73 118.973 291.192 119.202 291.789 119.202ZM299.793 120.168C299.186 120.168 298.635 120.028 298.141 119.748C297.646 119.459 297.254 119.048 296.965 118.516C296.675 117.984 296.531 117.349 296.531 116.612C296.531 115.865 296.675 115.226 296.965 114.694C297.263 114.162 297.646 113.751 298.113 113.462C298.579 113.173 299.069 113.028 299.583 113.028C300.451 113.028 301.118 113.317 301.585 113.896C302.061 114.475 302.299 115.249 302.299 116.22C302.299 116.341 302.294 116.463 302.285 116.584C302.285 116.696 302.275 116.794 302.257 116.878H297.665C297.711 117.597 297.935 118.171 298.337 118.6C298.747 119.029 299.279 119.244 299.933 119.244C300.259 119.244 300.558 119.197 300.829 119.104C301.109 119.001 301.375 118.871 301.627 118.712L302.033 119.468C301.743 119.655 301.412 119.818 301.039 119.958C300.675 120.098 300.259 120.168 299.793 120.168ZM297.651 116.052H301.291C301.291 115.361 301.141 114.839 300.843 114.484C300.553 114.12 300.143 113.938 299.611 113.938C299.135 113.938 298.705 114.125 298.323 114.498C297.949 114.862 297.725 115.38 297.651 116.052ZM304.036 120V113.196H304.988L305.086 114.428H305.128C305.361 113.999 305.646 113.658 305.982 113.406C306.318 113.154 306.677 113.028 307.06 113.028C307.331 113.028 307.573 113.075 307.788 113.168L307.564 114.176C307.452 114.139 307.349 114.111 307.256 114.092C307.163 114.073 307.046 114.064 306.906 114.064C306.617 114.064 306.313 114.181 305.996 114.414C305.688 114.647 305.417 115.053 305.184 115.632V120H304.036ZM311.455 120.168C310.904 120.168 310.386 120.028 309.901 119.748C309.425 119.468 309.038 119.062 308.739 118.53C308.45 117.998 308.305 117.359 308.305 116.612C308.305 115.847 308.45 115.198 308.739 114.666C309.038 114.134 309.425 113.728 309.901 113.448C310.386 113.168 310.904 113.028 311.455 113.028C312.015 113.028 312.533 113.168 313.009 113.448C313.485 113.728 313.868 114.134 314.157 114.666C314.456 115.198 314.605 115.847 314.605 116.612C314.605 117.359 314.456 117.998 314.157 118.53C313.868 119.062 313.485 119.468 313.009 119.748C312.533 120.028 312.015 120.168 311.455 120.168ZM311.455 119.216C312.043 119.216 312.514 118.978 312.869 118.502C313.233 118.017 313.415 117.387 313.415 116.612C313.415 115.828 313.233 115.193 312.869 114.708C312.514 114.223 312.043 113.98 311.455 113.98C310.876 113.98 310.405 114.223 310.041 114.708C309.677 115.193 309.495 115.828 309.495 116.612C309.495 117.387 309.677 118.017 310.041 118.502C310.405 118.978 310.876 119.216 311.455 119.216ZM316.453 120V113.196H317.405L317.503 114.176H317.545C317.871 113.849 318.217 113.579 318.581 113.364C318.945 113.14 319.36 113.028 319.827 113.028C320.545 113.028 321.068 113.257 321.395 113.714C321.731 114.162 321.899 114.82 321.899 115.688V120H320.751V115.842C320.751 115.207 320.648 114.745 320.443 114.456C320.237 114.167 319.911 114.022 319.463 114.022C319.117 114.022 318.805 114.111 318.525 114.288C318.254 114.465 317.946 114.727 317.601 115.072V120H316.453Z"></path>
<rect fill="#E6F0FF" rx="12" height="24" width="76" y="136" x="53"></rect>
<rect stroke-opacity="0.21" stroke="#071A36" rx="11.5" height="23" width="75" y="136.5" x="53.5"></rect>
<path fill-opacity="0.49" fill="#021431" d="M64.9999 142.5C61.9624 142.5 59.4999 144.962 59.4999 148C59.4999 151.038 61.9624 153.5 64.9999 153.5C68.0375 153.5 70.4999 151.038 70.4999 148C70.4999 144.962 68.0375 142.5 64.9999 142.5ZM58.4999 148C58.4999 144.41 61.4101 141.5 64.9999 141.5C68.5898 141.5 71.4999 144.41 71.4999 148C71.4999 151.59 68.5898 154.5 64.9999 154.5C61.4101 154.5 58.4999 151.59 58.4999 148Z" clip-rule="evenodd" fill-rule="evenodd"></path>
<path fill="#262626" d="M76.26 152V142.816H77.422V152H76.26ZM79.8817 152V145.196H80.8337L80.9317 146.428H80.9737C81.2071 145.999 81.4917 145.658 81.8277 145.406C82.1637 145.154 82.5231 145.028 82.9057 145.028C83.1764 145.028 83.4191 145.075 83.6337 145.168L83.4097 146.176C83.2977 146.139 83.1951 146.111 83.1017 146.092C83.0084 146.073 82.8917 146.064 82.7517 146.064C82.4624 146.064 82.1591 146.181 81.8417 146.414C81.5337 146.647 81.2631 147.053 81.0297 147.632V152H79.8817ZM84.7913 152V145.196H85.9393V152H84.7913ZM85.3793 143.796C85.1553 143.796 84.9686 143.731 84.8193 143.6C84.6793 143.46 84.6093 143.273 84.6093 143.04C84.6093 142.816 84.6793 142.634 84.8193 142.494C84.9686 142.354 85.1553 142.284 85.3793 142.284C85.6033 142.284 85.7853 142.354 85.9253 142.494C86.0746 142.634 86.1493 142.816 86.1493 143.04C86.1493 143.273 86.0746 143.46 85.9253 143.6C85.7853 143.731 85.6033 143.796 85.3793 143.796ZM90.6166 152.168C89.7672 152.168 89.0859 151.86 88.5726 151.244C88.0592 150.619 87.8026 149.741 87.8026 148.612C87.8026 147.875 87.9379 147.24 88.2086 146.708C88.4886 146.167 88.8526 145.751 89.3006 145.462C89.7579 145.173 90.2432 145.028 90.7566 145.028C91.1486 145.028 91.4892 145.098 91.7786 145.238C92.0679 145.378 92.3619 145.569 92.6606 145.812L92.6046 144.65V142.032H93.7666V152H92.8146L92.7166 151.202H92.6746C92.4132 151.463 92.1052 151.692 91.7506 151.888C91.3959 152.075 91.0179 152.168 90.6166 152.168ZM90.8686 151.202C91.4659 151.202 92.0446 150.889 92.6046 150.264V146.708C92.3152 146.447 92.0352 146.265 91.7646 146.162C91.5032 146.05 91.2326 145.994 90.9526 145.994C90.5886 145.994 90.2572 146.106 89.9586 146.33C89.6692 146.545 89.4359 146.848 89.2586 147.24C89.0812 147.623 88.9926 148.075 88.9926 148.598C88.9926 149.41 89.1559 150.049 89.4826 150.516C89.8092 150.973 90.2712 151.202 90.8686 151.202ZM98.7602 152.168C98.2095 152.168 97.6915 152.028 97.2062 151.748C96.7302 151.468 96.3429 151.062 96.0442 150.53C95.7549 149.998 95.6102 149.359 95.6102 148.612C95.6102 147.847 95.7549 147.198 96.0442 146.666C96.3429 146.134 96.7302 145.728 97.2062 145.448C97.6915 145.168 98.2095 145.028 98.7602 145.028C99.3202 145.028 99.8382 145.168 100.314 145.448C100.79 145.728 101.173 146.134 101.462 146.666C101.761 147.198 101.91 147.847 101.91 148.612C101.91 149.359 101.761 149.998 101.462 150.53C101.173 151.062 100.79 151.468 100.314 151.748C99.8382 152.028 99.3202 152.168 98.7602 152.168ZM98.7602 151.216C99.3482 151.216 99.8195 150.978 100.174 150.502C100.538 150.017 100.72 149.387 100.72 148.612C100.72 147.828 100.538 147.193 100.174 146.708C99.8195 146.223 99.3482 145.98 98.7602 145.98C98.1815 145.98 97.7102 146.223 97.3462 146.708C96.9822 147.193 96.8002 147.828 96.8002 148.612C96.8002 149.387 96.9822 150.017 97.3462 150.502C97.7102 150.978 98.1815 151.216 98.7602 151.216ZM103.758 152V145.196H104.71L104.808 146.176H104.85C105.177 145.849 105.522 145.579 105.886 145.364C106.25 145.14 106.665 145.028 107.132 145.028C107.851 145.028 108.373 145.257 108.7 145.714C109.036 146.162 109.204 146.82 109.204 147.688V152H108.056V147.842C108.056 147.207 107.953 146.745 107.748 146.456C107.543 146.167 107.216 146.022 106.768 146.022C106.423 146.022 106.11 146.111 105.83 146.288C105.559 146.465 105.251 146.727 104.906 147.072V152H103.758ZM111.47 152V145.196H112.618V152H111.47ZM112.058 143.796C111.834 143.796 111.648 143.731 111.498 143.6C111.358 143.46 111.288 143.273 111.288 143.04C111.288 142.816 111.358 142.634 111.498 142.494C111.648 142.354 111.834 142.284 112.058 142.284C112.282 142.284 112.464 142.354 112.604 142.494C112.754 142.634 112.828 142.816 112.828 143.04C112.828 143.273 112.754 143.46 112.604 143.6C112.464 143.731 112.282 143.796 112.058 143.796ZM116.54 152.168C115.97 152.168 115.494 152 115.112 151.664C114.738 151.319 114.552 150.843 114.552 150.236C114.552 149.489 114.883 148.92 115.546 148.528C116.218 148.127 117.277 147.847 118.724 147.688C118.724 147.399 118.682 147.123 118.598 146.862C118.523 146.601 118.383 146.391 118.178 146.232C117.982 146.064 117.697 145.98 117.324 145.98C116.932 145.98 116.563 146.055 116.218 146.204C115.872 146.353 115.564 146.521 115.294 146.708L114.846 145.91C115.163 145.705 115.55 145.509 116.008 145.322C116.474 145.126 116.978 145.028 117.52 145.028C118.35 145.028 118.952 145.285 119.326 145.798C119.699 146.302 119.886 146.979 119.886 147.828V152H118.934L118.836 151.188H118.794C118.476 151.449 118.126 151.678 117.744 151.874C117.37 152.07 116.969 152.168 116.54 152.168ZM116.876 151.244C117.202 151.244 117.51 151.165 117.8 151.006C118.089 150.847 118.397 150.623 118.724 150.334V148.444C117.594 148.584 116.801 148.794 116.344 149.074C115.896 149.354 115.672 149.713 115.672 150.152C115.672 150.535 115.788 150.815 116.022 150.992C116.255 151.16 116.54 151.244 116.876 151.244Z"></path>
<rect fill="#E6F0FF" rx="12" height="24" width="80" y="136" x="137"></rect>
<rect stroke-opacity="0.21" stroke="#071A36" rx="11.5" height="23" width="79" y="136.5" x="137.5"></rect>
<path fill-opacity="0.49" fill="#021431" d="M149 142.5C145.962 142.5 143.5 144.962 143.5 148C143.5 151.038 145.962 153.5 149 153.5C152.038 153.5 154.5 151.038 154.5 148C154.5 144.962 152.038 142.5 149 142.5ZM142.5 148C142.5 144.41 145.41 141.5 149 141.5C152.59 141.5 155.5 144.41 155.5 148C155.5 151.59 152.59 154.5 149 154.5C145.41 154.5 142.5 151.59 142.5 148Z" clip-rule="evenodd" fill-rule="evenodd"></path>
<path fill="#262626" d="M160.26 152V142.816H161.66L163.424 147.716C163.536 148.033 163.643 148.355 163.746 148.682C163.858 148.999 163.97 149.317 164.082 149.634H164.138C164.25 149.317 164.353 148.999 164.446 148.682C164.549 148.355 164.656 148.033 164.768 147.716L166.504 142.816H167.918V152H166.826V146.946C166.826 146.535 166.845 146.083 166.882 145.588C166.919 145.084 166.952 144.631 166.98 144.23H166.924L166.196 146.316L164.46 151.076H163.69L161.954 146.316L161.226 144.23H161.17C161.198 144.631 161.226 145.084 161.254 145.588C161.291 146.083 161.31 146.535 161.31 146.946V152H160.26ZM170.488 154.926C170.339 154.926 170.194 154.912 170.054 154.884C169.923 154.856 169.802 154.823 169.69 154.786L169.914 153.876C169.989 153.895 170.073 153.913 170.166 153.932C170.259 153.96 170.348 153.974 170.432 153.974C170.815 153.974 171.132 153.834 171.384 153.554C171.636 153.283 171.832 152.938 171.972 152.518L172.126 152.014L169.396 145.196H170.586L171.972 148.962C172.075 149.251 172.182 149.564 172.294 149.9C172.415 150.236 172.527 150.563 172.63 150.88H172.686C172.789 150.572 172.887 150.25 172.98 149.914C173.073 149.578 173.167 149.261 173.26 148.962L174.478 145.196H175.598L173.036 152.56C172.877 153.008 172.686 153.409 172.462 153.764C172.247 154.119 171.977 154.399 171.65 154.604C171.333 154.819 170.945 154.926 170.488 154.926ZM179.263 155.136C178.432 155.136 177.756 154.977 177.233 154.66C176.71 154.343 176.449 153.89 176.449 153.302C176.449 153.013 176.538 152.733 176.715 152.462C176.892 152.201 177.135 151.967 177.443 151.762V151.706C177.275 151.603 177.13 151.459 177.009 151.272C176.897 151.085 176.841 150.861 176.841 150.6C176.841 150.311 176.92 150.059 177.079 149.844C177.238 149.629 177.406 149.461 177.583 149.34V149.284C177.359 149.097 177.154 148.845 176.967 148.528C176.79 148.211 176.701 147.851 176.701 147.45C176.701 146.955 176.818 146.526 177.051 146.162C177.284 145.798 177.597 145.518 177.989 145.322C178.381 145.126 178.806 145.028 179.263 145.028C179.45 145.028 179.627 145.047 179.795 145.084C179.963 145.112 180.108 145.149 180.229 145.196H182.595V146.078H181.195C181.354 146.227 181.484 146.428 181.587 146.68C181.699 146.923 181.755 147.189 181.755 147.478C181.755 147.963 181.643 148.383 181.419 148.738C181.195 149.093 180.896 149.368 180.523 149.564C180.15 149.751 179.73 149.844 179.263 149.844C178.899 149.844 178.558 149.765 178.241 149.606C178.12 149.709 178.017 149.825 177.933 149.956C177.849 150.077 177.807 150.231 177.807 150.418C177.807 150.633 177.891 150.81 178.059 150.95C178.236 151.09 178.554 151.16 179.011 151.16H180.327C181.12 151.16 181.713 151.291 182.105 151.552C182.506 151.804 182.707 152.215 182.707 152.784C182.707 153.204 182.567 153.591 182.287 153.946C182.007 154.301 181.61 154.585 181.097 154.8C180.584 155.024 179.972 155.136 179.263 155.136ZM179.263 149.074C179.655 149.074 179.991 148.929 180.271 148.64C180.56 148.341 180.705 147.945 180.705 147.45C180.705 146.955 180.565 146.568 180.285 146.288C180.005 146.008 179.664 145.868 179.263 145.868C178.862 145.868 178.521 146.008 178.241 146.288C177.961 146.568 177.821 146.955 177.821 147.45C177.821 147.945 177.961 148.341 178.241 148.64C178.53 148.929 178.871 149.074 179.263 149.074ZM179.431 154.338C180.084 154.338 180.607 154.193 180.999 153.904C181.391 153.624 181.587 153.307 181.587 152.952C181.587 152.635 181.466 152.415 181.223 152.294C180.99 152.173 180.654 152.112 180.215 152.112H179.039C178.908 152.112 178.764 152.103 178.605 152.084C178.456 152.065 178.306 152.037 178.157 152C177.914 152.177 177.737 152.364 177.625 152.56C177.513 152.756 177.457 152.952 177.457 153.148C177.457 153.512 177.63 153.801 177.975 154.016C178.33 154.231 178.815 154.338 179.431 154.338ZM186.644 152.168C186.038 152.168 185.487 152.028 184.992 151.748C184.498 151.459 184.106 151.048 183.816 150.516C183.527 149.984 183.382 149.349 183.382 148.612C183.382 147.865 183.527 147.226 183.816 146.694C184.115 146.162 184.498 145.751 184.964 145.462C185.431 145.173 185.921 145.028 186.434 145.028C187.302 145.028 187.97 145.317 188.436 145.896C188.912 146.475 189.15 147.249 189.15 148.22C189.15 148.341 189.146 148.463 189.136 148.584C189.136 148.696 189.127 148.794 189.108 148.878H184.516C184.563 149.597 184.787 150.171 185.188 150.6C185.599 151.029 186.131 151.244 186.784 151.244C187.111 151.244 187.41 151.197 187.68 151.104C187.96 151.001 188.226 150.871 188.478 150.712L188.884 151.468C188.595 151.655 188.264 151.818 187.89 151.958C187.526 152.098 187.111 152.168 186.644 152.168ZM184.502 148.052H188.142C188.142 147.361 187.993 146.839 187.694 146.484C187.405 146.12 186.994 145.938 186.462 145.938C185.986 145.938 185.557 146.125 185.174 146.498C184.801 146.862 184.577 147.38 184.502 148.052ZM193.646 152.168C193.039 152.168 192.488 152.028 191.994 151.748C191.499 151.459 191.107 151.048 190.818 150.516C190.528 149.984 190.384 149.349 190.384 148.612C190.384 147.865 190.528 147.226 190.818 146.694C191.116 146.162 191.499 145.751 191.966 145.462C192.432 145.173 192.922 145.028 193.436 145.028C194.304 145.028 194.971 145.317 195.438 145.896C195.914 146.475 196.152 147.249 196.152 148.22C196.152 148.341 196.147 148.463 196.138 148.584C196.138 148.696 196.128 148.794 196.11 148.878H191.518C191.564 149.597 191.788 150.171 192.19 150.6C192.6 151.029 193.132 151.244 193.786 151.244C194.112 151.244 194.411 151.197 194.682 151.104C194.962 151.001 195.228 150.871 195.48 150.712L195.886 151.468C195.596 151.655 195.265 151.818 194.892 151.958C194.528 152.098 194.112 152.168 193.646 152.168ZM191.504 148.052H195.144C195.144 147.361 194.994 146.839 194.696 146.484C194.406 146.12 193.996 145.938 193.464 145.938C192.988 145.938 192.558 146.125 192.176 146.498C191.802 146.862 191.578 147.38 191.504 148.052ZM199.894 152.168C199.166 152.168 198.658 151.958 198.368 151.538C198.088 151.118 197.948 150.572 197.948 149.9V146.134H196.94V145.266L198.004 145.196L198.144 143.292H199.11V145.196H200.944V146.134H199.11V149.914C199.11 150.334 199.185 150.661 199.334 150.894C199.493 151.118 199.768 151.23 200.16 151.23C200.282 151.23 200.412 151.211 200.552 151.174C200.692 151.127 200.818 151.085 200.93 151.048L201.154 151.916C200.968 151.981 200.762 152.037 200.538 152.084C200.324 152.14 200.109 152.168 199.894 152.168ZM204.993 152.168C204.443 152.168 203.925 152.028 203.439 151.748C202.963 151.468 202.576 151.062 202.277 150.53C201.988 149.998 201.843 149.359 201.843 148.612C201.843 147.847 201.988 147.198 202.277 146.666C202.576 146.134 202.963 145.728 203.439 145.448C203.925 145.168 204.443 145.028 204.993 145.028C205.553 145.028 206.071 145.168 206.547 145.448C207.023 145.728 207.406 146.134 207.695 146.666C207.994 147.198 208.143 147.847 208.143 148.612C208.143 149.359 207.994 149.998 207.695 150.53C207.406 151.062 207.023 151.468 206.547 151.748C206.071 152.028 205.553 152.168 204.993 152.168ZM204.993 151.216C205.581 151.216 206.053 150.978 206.407 150.502C206.771 150.017 206.953 149.387 206.953 148.612C206.953 147.828 206.771 147.193 206.407 146.708C206.053 146.223 205.581 145.98 204.993 145.98C204.415 145.98 203.943 146.223 203.579 146.708C203.215 147.193 203.033 147.828 203.033 148.612C203.033 149.387 203.215 150.017 203.579 150.502C203.943 150.978 204.415 151.216 204.993 151.216Z"></path>
<rect fill="#E6F0FF" rx="12" height="24" width="60" y="136" x="225"></rect>
<rect stroke-opacity="0.21" stroke="#071A36" rx="11.5" height="23" width="59" y="136.5" x="225.5"></rect>
<path fill-opacity="0.49" fill="#021431" d="M237 142.5C233.962 142.5 231.5 144.962 231.5 148C231.5 151.038 233.962 153.5 237 153.5C240.038 153.5 242.5 151.038 242.5 148C242.5 144.962 240.038 142.5 237 142.5ZM230.5 148C230.5 144.41 233.41 141.5 237 141.5C240.59 141.5 243.5 144.41 243.5 148C243.5 151.59 240.59 154.5 237 154.5C233.41 154.5 230.5 151.59 230.5 148Z" clip-rule="evenodd" fill-rule="evenodd"></path>
<path fill="#262626" d="M248.26 152V142.816H249.422V146.666H253.692V142.816H254.868V152H253.692V147.674H249.422V152H248.26ZM259.983 152.168C259.432 152.168 258.914 152.028 258.429 151.748C257.953 151.468 257.565 151.062 257.267 150.53C256.977 149.998 256.833 149.359 256.833 148.612C256.833 147.847 256.977 147.198 257.267 146.666C257.565 146.134 257.953 145.728 258.429 145.448C258.914 145.168 259.432 145.028 259.983 145.028C260.543 145.028 261.061 145.168 261.537 145.448C262.013 145.728 262.395 146.134 262.685 146.666C262.983 147.198 263.133 147.847 263.133 148.612C263.133 149.359 262.983 149.998 262.685 150.53C262.395 151.062 262.013 151.468 261.537 151.748C261.061 152.028 260.543 152.168 259.983 152.168ZM259.983 151.216C260.571 151.216 261.042 150.978 261.397 150.502C261.761 150.017 261.943 149.387 261.943 148.612C261.943 147.828 261.761 147.193 261.397 146.708C261.042 146.223 260.571 145.98 259.983 145.98C259.404 145.98 258.933 146.223 258.569 146.708C258.205 147.193 258.023 147.828 258.023 148.612C258.023 149.387 258.205 150.017 258.569 150.502C258.933 150.978 259.404 151.216 259.983 151.216ZM266.89 152.168C266.162 152.168 265.654 151.958 265.364 151.538C265.084 151.118 264.944 150.572 264.944 149.9V146.134H263.936V145.266L265 145.196L265.14 143.292H266.106V145.196H267.94V146.134H266.106V149.914C266.106 150.334 266.181 150.661 266.33 150.894C266.489 151.118 266.764 151.23 267.156 151.23C267.278 151.23 267.408 151.211 267.548 151.174C267.688 151.127 267.814 151.085 267.926 151.048L268.15 151.916C267.964 151.981 267.758 152.037 267.534 152.084C267.32 152.14 267.105 152.168 266.89 152.168ZM269.535 152V142.032H270.683V144.748L270.641 146.148C270.967 145.84 271.308 145.579 271.663 145.364C272.027 145.14 272.442 145.028 272.909 145.028C273.627 145.028 274.15 145.257 274.477 145.714C274.813 146.162 274.981 146.82 274.981 147.688V152H273.833V147.842C273.833 147.207 273.73 146.745 273.525 146.456C273.319 146.167 272.993 146.022 272.545 146.022C272.199 146.022 271.887 146.111 271.607 146.288C271.336 146.465 271.028 146.727 270.683 147.072V152H269.535Z"></path>
<path fill="#23262A" d="M54.494 58V46.228H56.582V56.236H61.478V58H54.494ZM66.7386 58.216C66.0066 58.216 65.3226 58.036 64.6866 57.676C64.0506 57.304 63.5346 56.776 63.1386 56.092C62.7426 55.396 62.5446 54.562 62.5446 53.59C62.5446 52.606 62.7426 51.772 63.1386 51.088C63.5346 50.392 64.0506 49.864 64.6866 49.504C65.3226 49.132 66.0066 48.946 66.7386 48.946C67.4826 48.946 68.1726 49.132 68.8086 49.504C69.4446 49.864 69.9606 50.392 70.3566 51.088C70.7526 51.772 70.9506 52.606 70.9506 53.59C70.9506 54.562 70.7526 55.396 70.3566 56.092C69.9606 56.776 69.4446 57.304 68.8086 57.676C68.1726 58.036 67.4826 58.216 66.7386 58.216ZM66.7386 56.524C67.3866 56.524 67.8966 56.254 68.2686 55.714C68.6406 55.174 68.8266 54.466 68.8266 53.59C68.8266 52.702 68.6406 51.988 68.2686 51.448C67.8966 50.908 67.3866 50.638 66.7386 50.638C66.0906 50.638 65.5806 50.908 65.2086 51.448C64.8486 51.988 64.6686 52.702 64.6686 53.59C64.6686 54.466 64.8486 55.174 65.2086 55.714C65.5806 56.254 66.0906 56.524 66.7386 56.524ZM72.9995 58V45.292H75.0335V53.23H75.0875L78.3635 49.162H80.6315L77.6075 52.762L80.9375 58H78.6875L76.4195 54.166L75.0335 55.75V58H72.9995ZM84.3701 58.216C83.6021 58.216 82.9721 57.976 82.4801 57.496C82.0001 57.016 81.7601 56.392 81.7601 55.624C81.7601 54.676 82.1741 53.944 83.0021 53.428C83.8301 52.9 85.1501 52.54 86.9621 52.348C86.9501 51.88 86.8241 51.478 86.5841 51.142C86.3561 50.794 85.9421 50.62 85.3421 50.62C84.9101 50.62 84.4841 50.704 84.0641 50.872C83.6561 51.04 83.2541 51.244 82.8581 51.484L82.1021 50.098C82.5941 49.786 83.1461 49.516 83.7581 49.288C84.3821 49.06 85.0421 48.946 85.7381 48.946C86.8421 48.946 87.6641 49.276 88.2041 49.936C88.7561 50.584 89.0321 51.526 89.0321 52.762V58H87.3221L87.1781 57.028H87.1061C86.7101 57.364 86.2841 57.646 85.8281 57.874C85.3841 58.102 84.8981 58.216 84.3701 58.216ZM85.0361 56.596C85.3961 56.596 85.7201 56.512 86.0081 56.344C86.3081 56.164 86.6261 55.924 86.9621 55.624V53.644C85.7621 53.8 84.9281 54.034 84.4601 54.346C83.9921 54.646 83.7581 55.018 83.7581 55.462C83.7581 55.858 83.8781 56.146 84.1181 56.326C84.3581 56.506 84.6641 56.596 85.0361 56.596ZM93.9753 58.216C93.3753 58.216 92.7753 58.102 92.1753 57.874C91.5753 57.634 91.0593 57.34 90.6273 56.992L91.5993 55.66C91.9953 55.96 92.3913 56.2 92.7873 56.38C93.1833 56.56 93.6033 56.65 94.0473 56.65C94.5273 56.65 94.8813 56.548 95.1093 56.344C95.3373 56.14 95.4513 55.888 95.4513 55.588C95.4513 55.336 95.3553 55.132 95.1633 54.976C94.9833 54.808 94.7493 54.664 94.4613 54.544C94.1733 54.412 93.8733 54.286 93.5613 54.166C93.1773 54.022 92.7933 53.848 92.4093 53.644C92.0373 53.428 91.7313 53.158 91.4913 52.834C91.2513 52.498 91.1313 52.084 91.1313 51.592C91.1313 50.812 91.4193 50.176 91.9953 49.684C92.5713 49.192 93.3513 48.946 94.3353 48.946C94.9593 48.946 95.5173 49.054 96.0093 49.27C96.5013 49.486 96.9273 49.732 97.2873 50.008L96.3333 51.268C96.0213 51.04 95.7033 50.86 95.3793 50.728C95.0673 50.584 94.7373 50.512 94.3893 50.512C93.9453 50.512 93.6153 50.608 93.3993 50.8C93.1833 50.98 93.0753 51.208 93.0753 51.484C93.0753 51.832 93.2553 52.096 93.6153 52.276C93.9753 52.456 94.3953 52.63 94.8753 52.798C95.2833 52.942 95.6793 53.122 96.0633 53.338C96.4473 53.542 96.7653 53.812 97.0173 54.148C97.2813 54.484 97.4133 54.928 97.4133 55.48C97.4133 56.236 97.1193 56.884 96.5313 57.424C95.9433 57.952 95.0913 58.216 93.9753 58.216ZM98.5593 61.708C98.2353 61.708 97.9593 61.684 97.7313 61.636C97.4913 61.588 97.2873 61.534 97.1193 61.474L97.5153 59.926C97.6353 59.962 97.7613 59.992 97.8933 60.016C98.0133 60.052 98.1393 60.07 98.2713 60.07C98.6673 60.07 98.9313 59.932 99.0633 59.656C99.2073 59.392 99.2793 59.002 99.2793 58.486V49.162H101.367V58.45C101.367 59.074 101.277 59.632 101.097 60.124C100.917 60.616 100.623 61 100.215 61.276C99.8073 61.564 99.2553 61.708 98.5593 61.708ZM100.323 47.614C99.9513 47.614 99.6513 47.506 99.4233 47.29C99.1953 47.074 99.0813 46.786 99.0813 46.426C99.0813 46.078 99.1953 45.796 99.4233 45.58C99.6513 45.364 99.9513 45.256 100.323 45.256C100.695 45.256 100.995 45.364 101.223 45.58C101.451 45.796 101.565 46.078 101.565 46.426C101.565 46.786 101.451 47.074 101.223 47.29C100.995 47.506 100.695 47.614 100.323 47.614ZM107.608 58.216C106.876 58.216 106.192 58.036 105.556 57.676C104.92 57.304 104.404 56.776 104.008 56.092C103.612 55.396 103.414 54.562 103.414 53.59C103.414 52.606 103.612 51.772 104.008 51.088C104.404 50.392 104.92 49.864 105.556 49.504C106.192 49.132 106.876 48.946 107.608 48.946C108.352 48.946 109.042 49.132 109.678 49.504C110.314 49.864 110.83 50.392 111.226 51.088C111.622 51.772 111.82 52.606 111.82 53.59C111.82 54.562 111.622 55.396 111.226 56.092C110.83 56.776 110.314 57.304 109.678 57.676C109.042 58.036 108.352 58.216 107.608 58.216ZM107.608 56.524C108.256 56.524 108.766 56.254 109.138 55.714C109.51 55.174 109.696 54.466 109.696 53.59C109.696 52.702 109.51 51.988 109.138 51.448C108.766 50.908 108.256 50.638 107.608 50.638C106.96 50.638 106.45 50.908 106.078 51.448C105.718 51.988 105.538 52.702 105.538 53.59C105.538 54.466 105.718 55.174 106.078 55.714C106.45 56.254 106.96 56.524 107.608 56.524ZM113.869 58V49.162H115.579L115.723 50.35H115.795C116.191 49.966 116.623 49.636 117.091 49.36C117.559 49.084 118.093 48.946 118.693 48.946C119.641 48.946 120.331 49.252 120.763 49.864C121.195 50.476 121.411 51.34 121.411 52.456V58H119.341V52.726C119.341 51.994 119.233 51.478 119.017 51.178C118.801 50.878 118.447 50.728 117.955 50.728C117.571 50.728 117.229 50.824 116.929 51.016C116.641 51.196 116.311 51.466 115.939 51.826V58H113.869ZM127.721 58.216C126.905 58.216 126.167 58.036 125.507 57.676C124.847 57.304 124.325 56.776 123.941 56.092C123.557 55.396 123.365 54.562 123.365 53.59C123.365 52.63 123.557 51.802 123.941 51.106C124.337 50.41 124.847 49.876 125.471 49.504C126.095 49.132 126.749 48.946 127.433 48.946C128.237 48.946 128.909 49.126 129.449 49.486C129.989 49.834 130.397 50.326 130.673 50.962C130.949 51.586 131.087 52.312 131.087 53.14C131.087 53.572 131.057 53.908 130.997 54.148H125.381C125.477 54.928 125.759 55.534 126.227 55.966C126.695 56.398 127.283 56.614 127.991 56.614C128.375 56.614 128.729 56.56 129.053 56.452C129.389 56.332 129.719 56.17 130.043 55.966L130.745 57.262C130.325 57.538 129.857 57.766 129.341 57.946C128.825 58.126 128.285 58.216 127.721 58.216ZM125.363 52.744H129.287C129.287 52.06 129.137 51.526 128.837 51.142C128.537 50.746 128.087 50.548 127.487 50.548C126.971 50.548 126.509 50.74 126.101 51.124C125.705 51.496 125.459 52.036 125.363 52.744ZM133.064 58V49.162H134.774L134.918 50.728H134.99C135.302 50.152 135.68 49.714 136.124 49.414C136.568 49.102 137.024 48.946 137.492 48.946C137.912 48.946 138.248 49.006 138.5 49.126L138.14 50.926C137.984 50.878 137.84 50.842 137.708 50.818C137.576 50.794 137.414 50.782 137.222 50.782C136.874 50.782 136.508 50.92 136.124 51.196C135.74 51.46 135.41 51.928 135.134 52.6V58H133.064Z"></path>
</svg>
