<svg xmlns="http://www.w3.org/2000/svg" fill="none" viewBox="0 0 200 200" height="200" width="200">
<rect fill="#E3EFF7" rx="12" height="88" width="152" y="65" x="24"></rect>
<path fill="#D7E6F0" d="M24 77C24 70.3726 29.3726 65 36 65H164C170.627 65 176 70.3726 176 77V141C176 147.627 170.627 153 164 153H36C29.3726 153 24 147.627 24 141V77Z"></path>
<path fill="#417DA0" d="M36 66.5C35.5338 66.5 35.0755 66.5303 34.6267 66.5888C33.8052 66.696 33.0524 66.1169 32.9453 65.2954C32.8381 64.474 33.4172 63.7212 34.2387 63.614C34.8158 63.5387 35.4037 63.5 36 63.5H37.9394C38.7678 63.5 39.4394 64.1716 39.4394 65C39.4394 65.8284 38.7678 66.5 37.9394 66.5H36ZM44.197 65C44.197 64.1716 44.8685 63.5 45.697 63.5H49.5758C50.4042 63.5 51.0758 64.1716 51.0758 65C51.0758 65.8284 50.4042 66.5 49.5758 66.5H45.697C44.8685 66.5 44.197 65.8284 44.197 65ZM55.8333 65C55.8333 64.1716 56.5049 63.5 57.3333 63.5H61.2121C62.0406 63.5 62.7121 64.1716 62.7121 65C62.7121 65.8284 62.0406 66.5 61.2121 66.5H57.3333C56.5049 66.5 55.8333 65.8284 55.8333 65ZM67.4697 65C67.4697 64.1716 68.1413 63.5 68.9697 63.5H72.8485C73.6769 63.5 74.3485 64.1716 74.3485 65C74.3485 65.8284 73.6769 66.5 72.8485 66.5H68.9697C68.1413 66.5 67.4697 65.8284 67.4697 65ZM79.1061 65C79.1061 64.1716 79.7776 63.5 80.6061 63.5H84.4848C85.3133 63.5 85.9848 64.1716 85.9848 65C85.9848 65.8284 85.3133 66.5 84.4848 66.5H80.6061C79.7776 66.5 79.1061 65.8284 79.1061 65ZM90.7424 65C90.7424 64.1716 91.414 63.5 92.2424 63.5H96.1212C96.9496 63.5 97.6212 64.1716 97.6212 65C97.6212 65.8284 96.9496 66.5 96.1212 66.5H92.2424C91.414 66.5 90.7424 65.8284 90.7424 65ZM102.379 65C102.379 64.1716 103.05 63.5 103.879 63.5H107.758C108.586 63.5 109.258 64.1716 109.258 65C109.258 65.8284 108.586 66.5 107.758 66.5H103.879C103.05 66.5 102.379 65.8284 102.379 65ZM114.015 65C114.015 64.1716 114.687 63.5 115.515 63.5H119.394C120.222 63.5 120.894 64.1716 120.894 65C120.894 65.8284 120.222 66.5 119.394 66.5H115.515C114.687 66.5 114.015 65.8284 114.015 65ZM125.652 65C125.652 64.1716 126.323 63.5 127.152 63.5H131.03C131.859 63.5 132.53 64.1716 132.53 65C132.53 65.8284 131.859 66.5 131.03 66.5H127.152C126.323 66.5 125.652 65.8284 125.652 65ZM137.288 65C137.288 64.1716 137.959 63.5 138.788 63.5H142.667C143.495 63.5 144.167 64.1716 144.167 65C144.167 65.8284 143.495 66.5 142.667 66.5H138.788C137.959 66.5 137.288 65.8284 137.288 65ZM148.924 65C148.924 64.1716 149.596 63.5 150.424 63.5H154.303C155.131 63.5 155.803 64.1716 155.803 65C155.803 65.8284 155.131 66.5 154.303 66.5H150.424C149.596 66.5 148.924 65.8284 148.924 65ZM160.561 65C160.561 64.1716 161.232 63.5 162.061 63.5H164C164.596 63.5 165.184 63.5387 165.761 63.614C166.583 63.7212 167.162 64.474 167.055 65.2954C166.948 66.1169 166.195 66.696 165.373 66.5888C164.924 66.5303 164.466 66.5 164 66.5H162.061C161.232 66.5 160.561 65.8284 160.561 65ZM29.884 66.5652C30.3888 67.2221 30.2655 68.1638 29.6086 68.6686C28.8807 69.228 28.228 69.8806 27.6686 70.6086C27.1638 71.2655 26.2221 71.3888 25.5652 70.884C24.9083 70.3792 24.785 69.4375 25.2898 68.7806C26.0081 67.8459 26.8459 67.0081 27.7806 66.2898C28.4375 65.785 29.3792 65.9083 29.884 66.5652ZM170.116 66.5652C170.621 65.9083 171.563 65.785 172.219 66.2898C173.154 67.0081 173.992 67.8459 174.71 68.7806C175.215 69.4375 175.092 70.3792 174.435 70.884C173.778 71.3888 172.836 71.2655 172.331 70.6086C171.772 69.8807 171.119 69.228 170.391 68.6686C169.735 68.1638 169.611 67.2221 170.116 66.5652ZM24.2954 73.9453C25.1169 74.0524 25.696 74.8052 25.5888 75.6267C25.5303 76.0755 25.5 76.5338 25.5 77V79.1333C25.5 79.9618 24.8284 80.6333 24 80.6333C23.1716 80.6333 22.5 79.9618 22.5 79.1333V77C22.5 76.4037 22.5387 75.8158 22.614 75.2387C22.7212 74.4172 23.474 73.8381 24.2954 73.9453ZM175.705 73.9453C176.526 73.8381 177.279 74.4172 177.386 75.2387C177.461 75.8158 177.5 76.4037 177.5 77V79.1333C177.5 79.9618 176.828 80.6333 176 80.6333C175.172 80.6333 174.5 79.9618 174.5 79.1333V77C174.5 76.5338 174.47 76.0755 174.411 75.6267C174.304 74.8052 174.883 74.0524 175.705 73.9453ZM24 86.1667C24.8284 86.1667 25.5 86.8382 25.5 87.6667V91.9333C25.5 92.7618 24.8284 93.4333 24 93.4333C23.1716 93.4333 22.5 92.7618 22.5 91.9333V87.6667C22.5 86.8382 23.1716 86.1667 24 86.1667ZM176 86.1667C176.828 86.1667 177.5 86.8382 177.5 87.6667V91.9333C177.5 92.7618 176.828 93.4333 176 93.4333C175.172 93.4333 174.5 92.7618 174.5 91.9333V87.6667C174.5 86.8382 175.172 86.1667 176 86.1667ZM24 98.9667C24.8284 98.9667 25.5 99.6382 25.5 100.467V104.733C25.5 105.562 24.8284 106.233 24 106.233C23.1716 106.233 22.5 105.562 22.5 104.733V100.467C22.5 99.6382 23.1716 98.9667 24 98.9667ZM176 98.9667C176.828 98.9667 177.5 99.6382 177.5 100.467V104.733C177.5 105.562 176.828 106.233 176 106.233C175.172 106.233 174.5 105.562 174.5 104.733V100.467C174.5 99.6382 175.172 98.9667 176 98.9667ZM24 111.767C24.8284 111.767 25.5 112.438 25.5 113.267V117.533C25.5 118.362 24.8284 119.033 24 119.033C23.1716 119.033 22.5 118.362 22.5 117.533V113.267C22.5 112.438 23.1716 111.767 24 111.767ZM176 111.767C176.828 111.767 177.5 112.438 177.5 113.267V117.533C177.5 118.362 176.828 119.033 176 119.033C175.172 119.033 174.5 118.362 174.5 117.533V113.267C174.5 112.438 175.172 111.767 176 111.767ZM24 124.567C24.8284 124.567 25.5 125.238 25.5 126.067V130.333C25.5 131.162 24.8284 131.833 24 131.833C23.1716 131.833 22.5 131.162 22.5 130.333V126.067C22.5 125.238 23.1716 124.567 24 124.567ZM176 124.567C176.828 124.567 177.5 125.238 177.5 126.067V130.333C177.5 131.162 176.828 131.833 176 131.833C175.172 131.833 174.5 131.162 174.5 130.333V126.067C174.5 125.238 175.172 124.567 176 124.567ZM24 137.367C24.8284 137.367 25.5 138.038 25.5 138.867V141C25.5 141.466 25.5303 141.924 25.5888 142.373C25.696 143.195 25.1169 143.948 24.2954 144.055C23.474 144.162 22.7212 143.583 22.614 142.761C22.5387 142.184 22.5 141.596 22.5 141V138.867C22.5 138.038 23.1716 137.367 24 137.367ZM176 137.367C176.828 137.367 177.5 138.038 177.5 138.867V141C177.5 141.596 177.461 142.184 177.386 142.761C177.279 143.583 176.526 144.162 175.705 144.055C174.883 143.948 174.304 143.195 174.411 142.373C174.47 141.924 174.5 141.466 174.5 141V138.867C174.5 138.038 175.172 137.367 176 137.367ZM25.5652 147.116C26.2221 146.611 27.1638 146.735 27.6686 147.391C28.228 148.119 28.8806 148.772 29.6086 149.331C30.2655 149.836 30.3888 150.778 29.884 151.435C29.3792 152.092 28.4375 152.215 27.7806 151.71C26.8459 150.992 26.0081 150.154 25.2898 149.219C24.785 148.563 24.9083 147.621 25.5652 147.116ZM174.435 147.116C175.092 147.621 175.215 148.563 174.71 149.219C173.992 150.154 173.154 150.992 172.219 151.71C171.563 152.215 170.621 152.092 170.116 151.435C169.611 150.778 169.735 149.836 170.391 149.331C171.119 148.772 171.772 148.119 172.331 147.391C172.836 146.735 173.778 146.611 174.435 147.116ZM32.9453 152.705C33.0524 151.883 33.8052 151.304 34.6267 151.411C35.0755 151.47 35.5338 151.5 36 151.5H37.9394C38.7678 151.5 39.4394 152.172 39.4394 153C39.4394 153.828 38.7678 154.5 37.9394 154.5H36C35.4037 154.5 34.8158 154.461 34.2387 154.386C33.4172 154.279 32.8381 153.526 32.9453 152.705ZM167.055 152.705C167.162 153.526 166.583 154.279 165.761 154.386C165.184 154.461 164.596 154.5 164 154.5H162.061C161.232 154.5 160.561 153.828 160.561 153C160.561 152.172 161.232 151.5 162.061 151.5H164C164.466 151.5 164.924 151.47 165.373 151.411C166.195 151.304 166.948 151.883 167.055 152.705ZM44.197 153C44.197 152.172 44.8685 151.5 45.697 151.5H49.5758C50.4042 151.5 51.0758 152.172 51.0758 153C51.0758 153.828 50.4042 154.5 49.5758 154.5H45.697C44.8685 154.5 44.197 153.828 44.197 153ZM55.8333 153C55.8333 152.172 56.5049 151.5 57.3333 151.5H61.2121C62.0405 151.5 62.7121 152.172 62.7121 153C62.7121 153.828 62.0405 154.5 61.2121 154.5H57.3333C56.5049 154.5 55.8333 153.828 55.8333 153ZM67.4697 153C67.4697 152.172 68.1413 151.5 68.9697 151.5H72.8485C73.6769 151.5 74.3485 152.172 74.3485 153C74.3485 153.828 73.6769 154.5 72.8485 154.5H68.9697C68.1413 154.5 67.4697 153.828 67.4697 153ZM79.1061 153C79.1061 152.172 79.7776 151.5 80.6061 151.5H84.4849C85.3133 151.5 85.9849 152.172 85.9849 153C85.9849 153.828 85.3133 154.5 84.4849 154.5H80.6061C79.7776 154.5 79.1061 153.828 79.1061 153ZM90.7424 153C90.7424 152.172 91.414 151.5 92.2424 151.5H96.1212C96.9496 151.5 97.6212 152.172 97.6212 153C97.6212 153.828 96.9496 154.5 96.1212 154.5H92.2424C91.414 154.5 90.7424 153.828 90.7424 153ZM102.379 153C102.379 152.172 103.05 151.5 103.879 151.5H107.758C108.586 151.5 109.258 152.172 109.258 153C109.258 153.828 108.586 154.5 107.758 154.5H103.879C103.05 154.5 102.379 153.828 102.379 153ZM114.015 153C114.015 152.172 114.687 151.5 115.515 151.5H119.394C120.222 151.5 120.894 152.172 120.894 153C120.894 153.828 120.222 154.5 119.394 154.5H115.515C114.687 154.5 114.015 153.828 114.015 153ZM125.652 153C125.652 152.172 126.323 151.5 127.152 151.5H131.03C131.859 151.5 132.53 152.172 132.53 153C132.53 153.828 131.859 154.5 131.03 154.5H127.152C126.323 154.5 125.652 153.828 125.652 153ZM137.288 153C137.288 152.172 137.959 151.5 138.788 151.5H142.667C143.495 151.5 144.167 152.172 144.167 153C144.167 153.828 143.495 154.5 142.667 154.5H138.788C137.959 154.5 137.288 153.828 137.288 153ZM148.924 153C148.924 152.172 149.596 151.5 150.424 151.5H154.303C155.131 151.5 155.803 152.172 155.803 153C155.803 153.828 155.131 154.5 154.303 154.5H150.424C149.596 154.5 148.924 153.828 148.924 153Z" clip-rule="evenodd" fill-rule="evenodd"></path>
<rect fill="#417DA0" rx="4" height="8" width="56" y="43" x="24"></rect>
<path fill="#417DA0" d="M105.404 101.054C103.165 93.0315 91.6169 93.6254 90.2267 101.793L89.7515 104.585C89.6504 105.179 89.1425 105.618 88.5399 105.633C84.6703 105.727 84.1368 111.276 87.9176 112.106L88.8357 112.307C89.4675 112.446 89.8673 113.071 89.7286 113.702C89.5899 114.334 88.9652 114.734 88.3334 114.595L87.4153 114.394C81.2363 113.038 81.7752 104.334 87.5811 103.375L87.9173 101.4C89.6781 91.0549 103.839 90.0876 107.355 99.4876C115.745 98.1407 119.853 110.157 111.696 114.021L110.664 114.51C110.08 114.787 109.381 114.537 109.104 113.953C108.828 113.368 109.077 112.67 109.662 112.393L110.693 111.904C116.573 109.119 113.276 100.234 107.002 101.959C106.309 102.149 105.596 101.742 105.404 101.054Z" clip-rule="evenodd" fill-rule="evenodd"></path>
<path fill="#417DA0" d="M98.5456 107.228C99.003 106.771 99.7446 106.771 100.202 107.228L107.395 114.421C107.852 114.879 107.852 115.62 107.395 116.078C106.937 116.535 106.196 116.535 105.738 116.078L100.545 110.884V126.039C100.545 126.686 100.021 127.21 99.3738 127.21C98.7269 127.21 98.2025 126.686 98.2025 126.039V110.884L93.0092 116.078C92.5518 116.535 91.8101 116.535 91.3527 116.078C90.8953 115.62 90.8953 114.879 91.3527 114.421L98.5456 107.228Z" clip-rule="evenodd" fill-rule="evenodd"></path>
</svg>
