<svg xmlns="http://www.w3.org/2000/svg" fill="none" viewBox="0 0 200 200" height="200" width="200">
<path fill="#417DA0" d="M87.435 118.75C87.435 120.82 85.7575 122.5 83.685 122.5C81.6125 122.5 79.935 120.82 79.935 118.75V83.75C79.935 82.1175 80.9925 80.6725 82.5475 80.175C84.11 79.68 85.8025 80.25 86.745 81.5825L128.687 140.843C141.542 131.773 150 116.838 150 100C150 72.5 127.5 50 100 50C72.5 50 50 72.5 50 100C50 127.5 72.5 150 100 150C107.98 150 115.515 148.057 122.225 144.695L87.435 95.54V118.75ZM112.435 81.25C112.435 79.18 114.113 77.5 116.185 77.5C118.258 77.5 119.935 79.18 119.935 81.25V115.85L112.435 105.283V81.25Z"></path>
</svg>
