<svg xmlns="http://www.w3.org/2000/svg" fill="none" viewBox="0 0 384 160" height="160" width="384">
<mask fill="white" id="path-1-inside-1_5039_22416">
<path d="M24 24H360V72H24V24Z"></path>
</mask>
<path fill="#F7F7F7" d="M24 24H360V72H24V24Z"></path>
<path fill="#262626" d="M110.034 47.394L109.476 49.194H113.022L112.464 47.394C112.248 46.734 112.044 46.08 111.852 45.432C111.66 44.772 111.468 44.1 111.276 43.416H111.204C111.024 44.1 110.838 44.772 110.646 45.432C110.454 46.08 110.25 46.734 110.034 47.394ZM106.434 54L110.43 42.192H112.122L116.118 54H114.516L113.4 50.4H109.098L107.964 54H106.434ZM119.213 54.216C118.661 54.216 118.259 54.048 118.007 53.712C117.767 53.364 117.647 52.872 117.647 52.236V41.184H119.123V52.344C119.123 52.572 119.165 52.74 119.249 52.848C119.333 52.944 119.429 52.992 119.537 52.992C119.585 52.992 119.627 52.992 119.663 52.992C119.711 52.98 119.777 52.968 119.861 52.956L120.059 54.072C119.963 54.12 119.849 54.156 119.717 54.18C119.585 54.204 119.417 54.216 119.213 54.216ZM123.801 54.216C123.249 54.216 122.847 54.048 122.595 53.712C122.355 53.364 122.235 52.872 122.235 52.236V41.184H123.711V52.344C123.711 52.572 123.753 52.74 123.837 52.848C123.921 52.944 124.017 52.992 124.125 52.992C124.173 52.992 124.215 52.992 124.251 52.992C124.299 52.98 124.365 52.968 124.449 52.956L124.647 54.072C124.551 54.12 124.437 54.156 124.305 54.18C124.173 54.204 124.005 54.216 123.801 54.216ZM130.369 54.216C129.589 54.216 128.881 54.036 128.245 53.676C127.609 53.304 127.105 52.776 126.733 52.092C126.361 51.408 126.175 50.592 126.175 49.644C126.175 48.684 126.361 47.862 126.733 47.178C127.117 46.494 127.609 45.966 128.209 45.594C128.809 45.222 129.439 45.036 130.099 45.036C131.215 45.036 132.073 45.408 132.673 46.152C133.285 46.896 133.591 47.892 133.591 49.14C133.591 49.296 133.585 49.452 133.573 49.608C133.573 49.752 133.561 49.878 133.537 49.986H127.633C127.693 50.91 127.981 51.648 128.497 52.2C129.025 52.752 129.709 53.028 130.549 53.028C130.969 53.028 131.353 52.968 131.701 52.848C132.061 52.716 132.403 52.548 132.727 52.344L133.249 53.316C132.877 53.556 132.451 53.766 131.971 53.946C131.503 54.126 130.969 54.216 130.369 54.216ZM127.615 48.924H132.295C132.295 48.036 132.103 47.364 131.719 46.908C131.347 46.44 130.819 46.206 130.135 46.206C129.523 46.206 128.971 46.446 128.479 46.926C127.999 47.394 127.711 48.06 127.615 48.924ZM141.732 57.168C140.988 55.956 140.406 54.69 139.986 53.37C139.566 52.038 139.356 50.58 139.356 48.996C139.356 47.412 139.566 45.954 139.986 44.622C140.406 43.29 140.988 42.024 141.732 40.824L142.65 41.256C141.954 42.396 141.432 43.632 141.084 44.964C140.748 46.284 140.58 47.628 140.58 48.996C140.58 50.364 140.748 51.714 141.084 53.046C141.432 54.366 141.954 55.596 142.65 56.736L141.732 57.168ZM147.541 54.216C146.629 54.216 145.873 54.054 145.273 53.73C144.673 53.406 144.175 53.046 143.779 52.65L144.499 51.678C144.847 52.014 145.249 52.32 145.705 52.596C146.161 52.86 146.725 52.992 147.397 52.992C148.105 52.992 148.699 52.758 149.179 52.29C149.671 51.81 149.917 51.168 149.917 50.364C149.917 49.572 149.695 48.954 149.251 48.51C148.807 48.066 148.213 47.844 147.469 47.844C147.073 47.844 146.731 47.904 146.443 48.024C146.167 48.144 145.855 48.318 145.507 48.546L144.715 48.042L145.093 42.516H150.835V43.794H146.389L146.083 47.196C146.359 47.052 146.635 46.938 146.911 46.854C147.187 46.77 147.499 46.728 147.847 46.728C148.507 46.728 149.101 46.86 149.629 47.124C150.169 47.376 150.601 47.766 150.925 48.294C151.249 48.822 151.411 49.5 151.411 50.328C151.411 51.156 151.225 51.864 150.853 52.452C150.493 53.028 150.019 53.466 149.431 53.766C148.843 54.066 148.213 54.216 147.541 54.216ZM152.996 54V53.118C154.148 51.966 155.126 50.958 155.93 50.094C156.734 49.218 157.346 48.432 157.766 47.736C158.186 47.028 158.396 46.368 158.396 45.756C158.396 45.096 158.216 44.556 157.856 44.136C157.496 43.716 156.95 43.506 156.218 43.506C155.738 43.506 155.294 43.644 154.886 43.92C154.478 44.184 154.106 44.508 153.77 44.892L152.924 44.046C153.404 43.518 153.914 43.098 154.454 42.786C155.006 42.462 155.654 42.3 156.398 42.3C157.466 42.3 158.306 42.612 158.918 43.236C159.53 43.848 159.836 44.664 159.836 45.684C159.836 46.404 159.632 47.136 159.224 47.88C158.828 48.612 158.276 49.386 157.568 50.202C156.872 51.006 156.068 51.882 155.156 52.83C155.468 52.806 155.792 52.782 156.128 52.758C156.464 52.734 156.782 52.722 157.082 52.722H160.412V54H152.996ZM165.922 48.096C165.55 48.096 165.148 48.216 164.716 48.456C164.284 48.696 163.888 49.08 163.528 49.608C163.624 50.724 163.882 51.576 164.302 52.164C164.734 52.752 165.316 53.046 166.048 53.046C166.612 53.046 167.086 52.818 167.47 52.362C167.854 51.894 168.046 51.282 168.046 50.526C168.046 49.782 167.866 49.194 167.506 48.762C167.158 48.318 166.63 48.096 165.922 48.096ZM166.048 54.216C165.304 54.216 164.632 54.012 164.032 53.604C163.432 53.196 162.958 52.584 162.61 51.768C162.262 50.94 162.088 49.914 162.088 48.69C162.088 47.154 162.292 45.918 162.7 44.982C163.12 44.046 163.66 43.368 164.32 42.948C164.992 42.516 165.706 42.3 166.462 42.3C167.086 42.3 167.62 42.42 168.064 42.66C168.52 42.888 168.91 43.176 169.234 43.524L168.406 44.442C168.178 44.166 167.896 43.95 167.56 43.794C167.224 43.626 166.876 43.542 166.516 43.542C165.976 43.542 165.484 43.698 165.04 44.01C164.596 44.31 164.23 44.82 163.942 45.54C163.666 46.248 163.516 47.208 163.492 48.42C163.852 47.976 164.272 47.628 164.752 47.376C165.232 47.112 165.706 46.98 166.174 46.98C167.17 46.98 167.962 47.28 168.55 47.88C169.15 48.468 169.45 49.35 169.45 50.526C169.45 51.258 169.294 51.9 168.982 52.452C168.67 53.004 168.256 53.436 167.74 53.748C167.236 54.06 166.672 54.216 166.048 54.216ZM171.773 57.168L170.855 56.736C171.551 55.596 172.067 54.366 172.403 53.046C172.751 51.714 172.925 50.364 172.925 48.996C172.925 47.628 172.751 46.284 172.403 44.964C172.067 43.632 171.551 42.396 170.855 41.256L171.773 40.824C172.517 42.024 173.099 43.29 173.519 44.622C173.939 45.954 174.149 47.412 174.149 48.996C174.149 50.58 173.939 52.038 173.519 53.37C173.099 54.69 172.517 55.956 171.773 57.168Z"></path>
<path mask="url(#path-3-inside-2_5039_22416)" fill="#0067C5" d="M192 68H90V76H192V68Z"></path>
<path fill="#262626" d="M211.884 47.394L211.326 49.194H214.872L214.314 47.394C214.098 46.734 213.894 46.08 213.702 45.432C213.51 44.772 213.318 44.1 213.126 43.416H213.054C212.874 44.1 212.688 44.772 212.496 45.432C212.304 46.08 212.1 46.734 211.884 47.394ZM208.284 54L212.28 42.192H213.972L217.968 54H216.366L215.25 50.4H210.948L209.814 54H208.284ZM219.497 54V41.184H220.955V49.86H221.009L224.735 45.252H226.373L223.439 48.762L226.769 54H225.149L222.593 49.788L220.955 51.696V54H219.497ZM230.777 54.216C229.841 54.216 229.187 53.946 228.815 53.406C228.455 52.866 228.275 52.164 228.275 51.3V46.458H226.979V45.342L228.347 45.252L228.527 42.804H229.769V45.252H232.127V46.458H229.769V51.318C229.769 51.858 229.865 52.278 230.057 52.578C230.261 52.866 230.615 53.01 231.119 53.01C231.275 53.01 231.443 52.986 231.623 52.938C231.803 52.878 231.965 52.824 232.109 52.776L232.397 53.892C232.157 53.976 231.893 54.048 231.605 54.108C231.329 54.18 231.053 54.216 230.777 54.216ZM234.105 54V45.252H235.581V54H234.105ZM234.861 43.452C234.573 43.452 234.333 43.368 234.141 43.2C233.961 43.02 233.871 42.78 233.871 42.48C233.871 42.192 233.961 41.958 234.141 41.778C234.333 41.598 234.573 41.508 234.861 41.508C235.149 41.508 235.383 41.598 235.563 41.778C235.755 41.958 235.851 42.192 235.851 42.48C235.851 42.78 235.755 43.02 235.563 43.2C235.383 43.368 235.149 43.452 234.861 43.452ZM240.425 54L237.275 45.252H238.805L240.461 50.22C240.593 50.652 240.725 51.084 240.857 51.516C241.001 51.948 241.139 52.374 241.271 52.794H241.343C241.475 52.374 241.607 51.948 241.739 51.516C241.883 51.084 242.015 50.652 242.135 50.22L243.791 45.252H245.249L242.153 54H240.425ZM250.413 54.216C249.633 54.216 248.925 54.036 248.289 53.676C247.653 53.304 247.149 52.776 246.777 52.092C246.405 51.408 246.219 50.592 246.219 49.644C246.219 48.684 246.405 47.862 246.777 47.178C247.161 46.494 247.653 45.966 248.253 45.594C248.853 45.222 249.483 45.036 250.143 45.036C251.259 45.036 252.117 45.408 252.717 46.152C253.329 46.896 253.635 47.892 253.635 49.14C253.635 49.296 253.629 49.452 253.617 49.608C253.617 49.752 253.605 49.878 253.581 49.986H247.677C247.737 50.91 248.025 51.648 248.541 52.2C249.069 52.752 249.753 53.028 250.593 53.028C251.013 53.028 251.397 52.968 251.745 52.848C252.105 52.716 252.447 52.548 252.771 52.344L253.293 53.316C252.921 53.556 252.495 53.766 252.015 53.946C251.547 54.126 251.013 54.216 250.413 54.216ZM247.659 48.924H252.339C252.339 48.036 252.147 47.364 251.763 46.908C251.391 46.44 250.863 46.206 250.179 46.206C249.567 46.206 249.015 46.446 248.523 46.926C248.043 47.394 247.755 48.06 247.659 48.924ZM261.776 57.168C261.032 55.956 260.45 54.69 260.03 53.37C259.61 52.038 259.4 50.58 259.4 48.996C259.4 47.412 259.61 45.954 260.03 44.622C260.45 43.29 261.032 42.024 261.776 40.824L262.694 41.256C261.998 42.396 261.476 43.632 261.128 44.964C260.792 46.284 260.624 47.628 260.624 48.996C260.624 50.364 260.792 51.714 261.128 53.046C261.476 54.366 261.998 55.596 262.694 56.736L261.776 57.168ZM268.071 48.096C267.699 48.096 267.297 48.216 266.865 48.456C266.433 48.696 266.037 49.08 265.677 49.608C265.773 50.724 266.031 51.576 266.451 52.164C266.883 52.752 267.465 53.046 268.197 53.046C268.761 53.046 269.235 52.818 269.619 52.362C270.003 51.894 270.195 51.282 270.195 50.526C270.195 49.782 270.015 49.194 269.655 48.762C269.307 48.318 268.779 48.096 268.071 48.096ZM268.197 54.216C267.453 54.216 266.781 54.012 266.181 53.604C265.581 53.196 265.107 52.584 264.759 51.768C264.411 50.94 264.237 49.914 264.237 48.69C264.237 47.154 264.441 45.918 264.849 44.982C265.269 44.046 265.809 43.368 266.469 42.948C267.141 42.516 267.855 42.3 268.611 42.3C269.235 42.3 269.769 42.42 270.213 42.66C270.669 42.888 271.059 43.176 271.383 43.524L270.555 44.442C270.327 44.166 270.045 43.95 269.709 43.794C269.373 43.626 269.025 43.542 268.665 43.542C268.125 43.542 267.633 43.698 267.189 44.01C266.745 44.31 266.379 44.82 266.091 45.54C265.815 46.248 265.665 47.208 265.641 48.42C266.001 47.976 266.421 47.628 266.901 47.376C267.381 47.112 267.855 46.98 268.323 46.98C269.319 46.98 270.111 47.28 270.699 47.88C271.299 48.468 271.599 49.35 271.599 50.526C271.599 51.258 271.443 51.9 271.131 52.452C270.819 53.004 270.405 53.436 269.889 53.748C269.385 54.06 268.821 54.216 268.197 54.216ZM273.922 57.168L273.004 56.736C273.7 55.596 274.216 54.366 274.552 53.046C274.9 51.714 275.074 50.364 275.074 48.996C275.074 47.628 274.9 46.284 274.552 44.964C274.216 43.632 273.7 42.396 273.004 41.256L273.922 40.824C274.666 42.024 275.248 43.29 275.668 44.622C276.088 45.954 276.298 47.412 276.298 48.996C276.298 50.58 276.088 52.038 275.668 53.37C275.248 54.69 274.666 55.956 273.922 57.168Z"></path>
<path mask="url(#path-1-inside-1_5039_22416)" fill-opacity="0.19" fill="black" d="M360 71H24V73H360V71Z"></path>
<mask fill="white" id="path-7-inside-3_5039_22416">
<path d="M24 72H360V136H24V72Z"></path>
</mask>
<path fill="white" d="M24 72H360V136H24V72Z"></path>
<path fill-opacity="0.65" fill="black" d="M174.774 110V99.504H177.766C178.556 99.504 179.244 99.6 179.83 99.792C180.417 99.984 180.876 100.309 181.206 100.768C181.537 101.216 181.702 101.824 181.702 102.592C181.702 103.691 181.345 104.507 180.63 105.04C179.916 105.573 178.982 105.84 177.83 105.84H176.102V110H174.774ZM176.102 104.752H177.67C178.588 104.752 179.265 104.581 179.702 104.24C180.15 103.888 180.374 103.339 180.374 102.592C180.374 101.835 180.14 101.312 179.67 101.024C179.212 100.725 178.524 100.576 177.606 100.576H176.102V104.752ZM184.845 110.192C184.195 110.192 183.651 110 183.213 109.616C182.787 109.221 182.573 108.677 182.573 107.984C182.573 107.131 182.952 106.48 183.709 106.032C184.477 105.573 185.688 105.253 187.341 105.072C187.341 104.741 187.293 104.427 187.197 104.128C187.112 103.829 186.952 103.589 186.717 103.408C186.493 103.216 186.168 103.12 185.741 103.12C185.293 103.12 184.872 103.205 184.477 103.376C184.083 103.547 183.731 103.739 183.421 103.952L182.909 103.04C183.272 102.805 183.715 102.581 184.237 102.368C184.771 102.144 185.347 102.032 185.965 102.032C186.915 102.032 187.603 102.325 188.029 102.912C188.456 103.488 188.669 104.261 188.669 105.232V110H187.581L187.469 109.072H187.421C187.059 109.371 186.659 109.632 186.221 109.856C185.795 110.08 185.336 110.192 184.845 110.192ZM185.229 109.136C185.603 109.136 185.955 109.045 186.285 108.864C186.616 108.683 186.968 108.427 187.341 108.096V105.936C186.051 106.096 185.144 106.336 184.621 106.656C184.109 106.976 183.853 107.387 183.853 107.888C183.853 108.325 183.987 108.645 184.253 108.848C184.52 109.04 184.845 109.136 185.229 109.136ZM191.148 110V102.224H192.236L192.348 103.344H192.396C192.769 102.971 193.164 102.661 193.58 102.416C193.996 102.16 194.471 102.032 195.004 102.032C195.825 102.032 196.423 102.293 196.796 102.816C197.18 103.328 197.372 104.08 197.372 105.072V110H196.06V105.248C196.06 104.523 195.943 103.995 195.708 103.664C195.473 103.333 195.1 103.168 194.588 103.168C194.193 103.168 193.836 103.269 193.516 103.472C193.207 103.675 192.855 103.973 192.46 104.368V110H191.148ZM203.082 110.192C202.389 110.192 201.759 110.032 201.194 109.712C200.629 109.381 200.181 108.912 199.85 108.304C199.519 107.696 199.354 106.971 199.354 106.128C199.354 105.275 199.519 104.544 199.85 103.936C200.191 103.328 200.629 102.859 201.162 102.528C201.695 102.197 202.255 102.032 202.842 102.032C203.834 102.032 204.597 102.363 205.13 103.024C205.674 103.685 205.946 104.571 205.946 105.68C205.946 105.819 205.941 105.957 205.93 106.096C205.93 106.224 205.919 106.336 205.898 106.432H200.65C200.703 107.253 200.959 107.909 201.418 108.4C201.887 108.891 202.495 109.136 203.242 109.136C203.615 109.136 203.957 109.083 204.266 108.976C204.586 108.859 204.89 108.709 205.178 108.528L205.642 109.392C205.311 109.605 204.933 109.792 204.506 109.952C204.09 110.112 203.615 110.192 203.082 110.192ZM200.634 105.488H204.794C204.794 104.699 204.623 104.101 204.282 103.696C203.951 103.28 203.482 103.072 202.874 103.072C202.33 103.072 201.839 103.285 201.402 103.712C200.975 104.128 200.719 104.72 200.634 105.488ZM209.291 110.192C208.801 110.192 208.443 110.043 208.219 109.744C208.006 109.435 207.899 108.997 207.899 108.432V98.608H209.211V108.528C209.211 108.731 209.249 108.88 209.323 108.976C209.398 109.061 209.483 109.104 209.579 109.104C209.622 109.104 209.659 109.104 209.691 109.104C209.734 109.093 209.793 109.083 209.867 109.072L210.043 110.064C209.958 110.107 209.857 110.139 209.739 110.16C209.622 110.181 209.473 110.192 209.291 110.192Z"></path>
<path mask="url(#path-7-inside-3_5039_22416)" fill-opacity="0.19" fill="black" d="M360 136V136.5H360.5V136H360ZM24 136H23.5V136.5H24V136ZM23.5 72V74H24.5V72H23.5ZM23.5 78V82H24.5V78H23.5ZM23.5 86V90H24.5V86H23.5ZM23.5 94V98H24.5V94H23.5ZM23.5 102V106H24.5V102H23.5ZM23.5 110V114H24.5V110H23.5ZM23.5 118V122H24.5V118H23.5ZM23.5 126V130H24.5V126H23.5ZM23.5 134V136H24.5V134H23.5ZM24 136.5H26V135.5H24V136.5ZM30 136.5H34V135.5H30V136.5ZM38 136.5H42V135.5H38V136.5ZM46 136.5H50V135.5H46V136.5ZM54 136.5H58V135.5H54V136.5ZM62 136.5H66V135.5H62V136.5ZM70 136.5H74V135.5H70V136.5ZM78 136.5H82V135.5H78V136.5ZM86 136.5H90V135.5H86V136.5ZM94 136.5H98V135.5H94V136.5ZM102 136.5H106V135.5H102V136.5ZM110 136.5H114V135.5H110V136.5ZM118 136.5H122V135.5H118V136.5ZM126 136.5H130V135.5H126V136.5ZM134 136.5H138V135.5H134V136.5ZM142 136.5H146V135.5H142V136.5ZM150 136.5H154V135.5H150V136.5ZM158 136.5H162V135.5H158V136.5ZM166 136.5H170V135.5H166V136.5ZM174 136.5H178V135.5H174V136.5ZM182 136.5H186V135.5H182V136.5ZM190 136.5H194V135.5H190V136.5ZM198 136.5H202V135.5H198V136.5ZM206 136.5H210V135.5H206V136.5ZM214 136.5H218V135.5H214V136.5ZM222 136.5H226V135.5H222V136.5ZM230 136.5H234V135.5H230V136.5ZM238 136.5H242V135.5H238V136.5ZM246 136.5H250V135.5H246V136.5ZM254 136.5H258V135.5H254V136.5ZM262 136.5H266V135.5H262V136.5ZM270 136.5H274V135.5H270V136.5ZM278 136.5H282V135.5H278V136.5ZM286 136.5H290V135.5H286V136.5ZM294 136.5H298V135.5H294V136.5ZM302 136.5H306V135.5H302V136.5ZM310 136.5H314V135.5H310V136.5ZM318 136.5H322V135.5H318V136.5ZM326 136.5H330V135.5H326V136.5ZM334 136.5H338V135.5H334V136.5ZM342 136.5H346V135.5H342V136.5ZM350 136.5H354V135.5H350V136.5ZM358 136.5H360V135.5H358V136.5ZM360.5 136V134H359.5V136H360.5ZM360.5 130V126H359.5V130H360.5ZM360.5 122V118H359.5V122H360.5ZM360.5 114V110H359.5V114H360.5ZM360.5 106V102H359.5V106H360.5ZM360.5 98V94H359.5V98H360.5ZM360.5 90V86H359.5V90H360.5ZM360.5 82V78H359.5V82H360.5ZM360.5 74V72H359.5V74H360.5ZM360 136V137H361V136H360ZM24 136H23V137H24V136ZM23 72V74H25V72H23ZM23 78V82H25V78H23ZM23 86V90H25V86H23ZM23 94V98H25V94H23ZM23 102V106H25V102H23ZM23 110V114H25V110H23ZM23 118V122H25V118H23ZM23 126V130H25V126H23ZM23 134V136H25V134H23ZM24 137H26V135H24V137ZM30 137H34V135H30V137ZM38 137H42V135H38V137ZM46 137H50V135H46V137ZM54 137H58V135H54V137ZM62 137H66V135H62V137ZM70 137H74V135H70V137ZM78 137H82V135H78V137ZM86 137H90V135H86V137ZM94 137H98V135H94V137ZM102 137H106V135H102V137ZM110 137H114V135H110V137ZM118 137H122V135H118V137ZM126 137H130V135H126V137ZM134 137H138V135H134V137ZM142 137H146V135H142V137ZM150 137H154V135H150V137ZM158 137H162V135H158V137ZM166 137H170V135H166V137ZM174 137H178V135H174V137ZM182 137H186V135H182V137ZM190 137H194V135H190V137ZM198 137H202V135H198V137ZM206 137H210V135H206V137ZM214 137H218V135H214V137ZM222 137H226V135H222V137ZM230 137H234V135H230V137ZM238 137H242V135H238V137ZM246 137H250V135H246V137ZM254 137H258V135H254V137ZM262 137H266V135H262V137ZM270 137H274V135H270V137ZM278 137H282V135H278V137ZM286 137H290V135H286V137ZM294 137H298V135H294V137ZM302 137H306V135H302V137ZM310 137H314V135H310V137ZM318 137H322V135H318V137ZM326 137H330V135H326V137ZM334 137H338V135H334V137ZM342 137H346V135H342V137ZM350 137H354V135H350V137ZM358 137H360V135H358V137ZM361 136V134H359V136H361ZM361 130V126H359V130H361ZM361 122V118H359V122H361ZM361 114V110H359V114H361ZM361 106V102H359V106H361ZM361 98V94H359V98H361ZM361 90V86H359V90H361ZM361 82V78H359V82H361ZM361 74V72H359V74H361Z"></path>
</svg>
