<svg xmlns="http://www.w3.org/2000/svg" fill="none" viewBox="0 0 200 200" height="200" width="200">
<path fill="#417DA0" d="M64.9286 63.2886C67.6075 56.34 77.4581 56.3954 80.0588 63.3736L109.201 141.566C110.117 144.025 108.867 146.76 106.409 147.676C103.951 148.592 101.215 147.342 100.299 144.884L89.6237 116.241H54.6947L43.632 144.934C42.6883 147.382 39.939 148.601 37.4913 147.657C35.0435 146.714 33.8243 143.964 34.768 141.517L64.9286 63.2886ZM58.3574 106.741H86.0831L72.4552 70.1747L58.3574 106.741Z" clip-rule="evenodd" fill-rule="evenodd"></path>
<path fill="#417DA0" d="M134.028 93.2609C136.382 87.1239 145.082 87.1726 147.367 93.3355L165.254 141.574C166.166 144.034 164.911 146.767 162.451 147.679C159.992 148.591 157.258 147.336 156.346 144.877L150.125 128.097H130.84L124.385 144.926C123.445 147.376 120.698 148.6 118.249 147.66C115.799 146.721 114.576 143.973 115.515 141.524L134.028 93.2609ZM134.484 118.597H146.602L140.646 102.535L134.484 118.597Z" clip-rule="evenodd" fill-rule="evenodd"></path>
</svg>
