<svg xmlns="http://www.w3.org/2000/svg" fill="none" viewBox="0 0 200 200" height="200" width="200">
<path fill="#C0D6E4" d="M121.89 68.2277V94.8761C121.89 103.286 115.072 110.104 106.662 110.104H80.9583C78.2622 110.104 75.6144 110.82 73.2855 112.178L54 123.428V68.2277C54 59.8177 60.8177 53 69.2277 53H106.662C115.072 53 121.89 59.8177 121.89 68.2277Z"></path>
<mask fill="white" id="path-2-inside-1_4412_3173">
<path d="M106.662 108.104V110.104H80.958V108.104H106.662ZM119.89 94.876V68.2275C119.89 60.9222 113.967 55 106.662 55H69.2275C61.9222 55.0001 56.0001 60.9222 56 68.2275V119.945L72.2773 110.45L72.7764 110.171C75.2874 108.816 78.0986 108.104 80.958 108.104V110.104L80.4531 110.112C77.9323 110.196 75.4684 110.904 73.2852 112.178L54 123.428V68.2275C54.0001 59.9489 60.6065 53.2132 68.835 53.0049L69.2275 53H106.662L107.056 53.0049C115.284 53.2135 121.89 59.9491 121.89 68.2275V94.876L121.885 95.2695C121.679 103.367 115.153 109.893 107.056 110.099L106.662 110.104V108.104C113.968 108.104 119.89 102.181 119.89 94.876Z"></path>
</mask>
<path mask="url(#path-2-inside-1_4412_3173)" fill-opacity="0.247059" fill="#005A92" d="M106.662 110.104V140.104H106.848L107.034 140.101L106.662 110.104ZM80.958 108.104V78.1035H80.9575L80.958 108.104ZM119.89 68.2275H149.89V68.2272L119.89 68.2275ZM69.2275 55V25H69.2272L69.2275 55ZM56 68.2275L26 68.2272V68.2275H56ZM56 119.945H26V172.176L71.1161 145.859L56 119.945ZM72.2773 110.45L57.6255 84.2715L57.3922 84.4021L57.1612 84.5368L72.2773 110.45ZM72.7764 110.171L58.5282 83.7703L58.3255 83.8797L58.1245 83.9922L72.7764 110.171ZM80.4531 110.112L79.931 80.1168L79.6944 80.121L79.458 80.1288L80.4531 110.112ZM73.2852 112.178L58.169 86.2644L58.1687 86.2646L73.2852 112.178ZM54 123.428H24V175.66L69.1165 149.341L54 123.428ZM54 68.2275L24 68.2273V68.2275H54ZM68.835 53.0049L68.4619 23.0072L68.2688 23.0096L68.0758 23.0145L68.835 53.0049ZM69.2275 53V23H69.041L68.8544 23.0023L69.2275 53ZM106.662 53L107.034 23.0023L106.848 23H106.662V53ZM107.056 53.0049L107.816 23.0145L107.622 23.0096L107.428 23.0072L107.056 53.0049ZM121.89 68.2275H151.89V68.2272L121.89 68.2275ZM121.89 94.876L151.887 95.2482L151.89 95.0621V94.876H121.89ZM121.885 95.2695L151.875 96.0301L151.88 95.8359L151.882 95.6417L121.885 95.2695ZM107.056 110.099L107.428 140.096L107.622 140.094L107.816 140.089L107.056 110.099ZM106.662 108.104H76.6621V110.104H106.662H136.662V108.104H106.662ZM106.662 110.104V80.1035H80.958V110.104V140.104H106.662V110.104ZM80.958 110.104H110.958V108.104H80.958H50.958V110.104H80.958ZM80.958 108.104V138.104H106.662V108.104V78.1035H80.958V108.104ZM119.89 94.876H149.89V68.2275H119.89H89.8896V94.876H119.89ZM119.89 68.2275L149.89 68.2272C149.889 44.3539 130.536 25 106.662 25V55V85C97.3986 85 89.8898 77.4904 89.8896 68.2279L119.89 68.2275ZM106.662 55V25H69.2275V55V85H106.662V55ZM69.2275 55L69.2272 25C45.3536 25.0002 26.0003 44.3536 26 68.2272L56 68.2275L86 68.2279C85.9999 77.4908 78.4908 84.9999 69.2278 85L69.2275 55ZM56 68.2275H26V119.945H56H86V68.2275H56ZM56 119.945L71.1161 145.859L87.3935 136.364L72.2773 110.45L57.1612 84.5368L40.8839 94.0319L56 119.945ZM72.2773 110.45L86.9292 136.629L87.4282 136.35L72.7764 110.171L58.1245 83.9922L57.6255 84.2715L72.2773 110.45ZM72.7764 110.171L87.0245 136.571C85.1655 137.575 83.0816 138.103 80.9585 138.104L80.958 108.104L80.9575 78.1035C73.1157 78.1037 65.4093 80.0567 58.5282 83.7703L72.7764 110.171ZM80.958 108.104H50.958V110.104H80.958H110.958V108.104H80.958ZM80.958 110.104L80.4358 80.1081L79.931 80.1168L80.4531 110.112L80.9753 140.108L81.4802 140.099L80.958 110.104ZM80.4531 110.112L79.458 80.1288C71.9756 80.3771 64.6577 82.4793 58.169 86.2644L73.2852 112.178L88.4013 138.091C86.279 139.329 83.8889 140.015 81.4482 140.096L80.4531 110.112ZM73.2852 112.178L58.1687 86.2646L38.8835 97.5146L54 123.428L69.1165 149.341L88.4016 138.091L73.2852 112.178ZM54 123.428H84V68.2275H54H24V123.428H54ZM54 68.2275L84 68.2278C83.9999 76.2631 77.5919 82.7928 69.5942 82.9953L68.835 53.0049L68.0758 23.0145C43.6211 23.6335 24.0002 43.6347 24 68.2273L54 68.2275ZM68.835 53.0049L69.2081 83.0026L69.6006 82.9977L69.2275 53L68.8544 23.0023L68.4619 23.0072L68.835 53.0049ZM69.2275 53V83H106.662V53V23H69.2275V53ZM106.662 53L106.29 82.9977L106.683 83.0026L107.056 53.0049L107.428 23.0072L107.034 23.0023L106.662 53ZM107.056 53.0049L106.295 82.9952C98.2967 82.7925 91.8897 76.2617 91.8896 68.2278L121.89 68.2275L151.89 68.2272C151.889 43.6364 132.271 23.6345 107.816 23.0145L107.056 53.0049ZM121.89 68.2275H91.8896V94.876H121.89H151.89V68.2275H121.89ZM121.89 94.876L91.892 94.5038L91.8871 94.8974L121.885 95.2695L151.882 95.6417L151.887 95.2482L121.89 94.876ZM121.885 95.2695L91.8944 94.509C92.0941 86.6344 98.42 80.3079 106.295 80.1083L107.056 110.099L107.816 140.089C131.886 139.479 151.265 120.1 151.875 96.0301L121.885 95.2695ZM107.056 110.099L106.683 80.1009L106.29 80.1058L106.662 110.104L107.034 140.101L107.428 140.096L107.056 110.099ZM106.662 110.104H136.662V108.104H106.662H76.6621V110.104H106.662ZM106.662 108.104V138.104C130.536 138.104 149.89 118.75 149.89 94.876H119.89H89.8896C89.8896 85.6129 97.399 78.1035 106.662 78.1035V108.104Z"></path>
<path fill="#417DA0" d="M78.1102 91.8171V118.465C78.1102 126.876 84.9279 133.693 93.3379 133.693H119.042C121.738 133.693 124.386 134.409 126.715 135.767L146 147.017V91.817C146 83.407 139.183 76.5894 130.773 76.5894H93.3379C84.9279 76.5894 78.1102 83.407 78.1102 91.8171Z"></path>
<path fill="#C0D6E4" d="M128 100.009C129.105 100.009 130.011 100.907 129.894 102.006C128.898 111.284 121.043 118.509 111.5 118.509C101.958 118.509 94.1024 111.284 93.1066 102.006C92.9888 100.907 93.8956 100.009 95.0001 100.009H128Z"></path>
</svg>
