<svg xmlns="http://www.w3.org/2000/svg" fill="none" viewBox="0 0 1200 630" height="630" width="1200">
<rect fill="#E3EFF7" height="630" width="1200"></rect>
<path fill="#156389" d="M537.121 320.871C540.782 317.21 546.718 317.21 550.379 320.871C554.04 324.532 554.04 330.468 550.379 334.129L522.633 361.875H617.225C621.086 350.951 631.504 343.125 643.75 343.125C659.283 343.125 671.875 355.717 671.875 371.25C671.875 386.783 659.283 399.375 643.75 399.375C631.504 399.375 621.086 391.548 617.225 380.625H522.633L550.379 408.371C554.04 412.032 554.04 417.968 550.379 421.629C546.718 425.29 540.782 425.29 537.121 421.629L493.371 377.879C489.71 374.218 489.71 368.282 493.371 364.621L537.121 320.871ZM643.75 361.875C638.572 361.875 634.375 366.072 634.375 371.25C634.375 376.427 638.572 380.625 643.75 380.625C648.927 380.625 653.125 376.427 653.125 371.25C653.125 366.072 648.927 361.875 643.75 361.875ZM649.621 208.371C653.282 204.71 659.218 204.71 662.879 208.371L706.629 252.121C710.29 255.782 710.29 261.718 706.629 265.379L662.879 309.129C659.218 312.79 653.282 312.79 649.621 309.129C645.96 305.468 645.96 299.532 649.621 295.871L677.367 268.125H582.774C578.913 279.048 568.496 286.875 556.25 286.875C540.717 286.875 528.125 274.283 528.125 258.75C528.125 243.217 540.717 230.625 556.25 230.625C568.496 230.625 578.913 238.451 582.774 249.375H677.367L649.621 221.629C645.96 217.968 645.96 212.032 649.621 208.371ZM556.25 249.375C551.072 249.375 546.875 253.572 546.875 258.75C546.875 263.927 551.072 268.125 556.25 268.125C561.427 268.125 565.625 263.927 565.625 258.75C565.625 253.572 561.427 249.375 556.25 249.375Z"></path>
<circle fill-opacity="0.109804" fill="#006EB7" r="200" cy="316" cx="446"></circle>
<circle fill-opacity="0.156863" fill="#0060A0" r="200" cy="316" cx="754"></circle>
</svg>
