<svg xmlns="http://www.w3.org/2000/svg" fill="none" viewBox="0 0 200 200" height="200" width="200">
<path fill="#C0D6E4" d="M34 66C34 61.5817 37.5817 58 42 58H64C68.4183 58 72 61.5817 72 66V134C72 138.418 68.4183 142 64 142H42C37.5817 142 34 138.418 34 134V66Z"></path>
<mask fill="white" id="path-2-inside-1_4412_3205">
<path d="M64 140V142H42V140H64ZM70 134V66C70 62.6863 67.3137 60 64 60H42C38.6863 60 36 62.6863 36 66V134C36 137.314 38.6863 140 42 140V142L41.5879 141.989C37.3611 141.775 34 138.28 34 134V66C34 61.5817 37.5817 58 42 58H64L64.4121 58.0107C68.6389 58.2252 72 61.7199 72 66V134C72 138.418 68.4183 142 64 142V140C67.3137 140 70 137.314 70 134Z"></path>
</mask>
<path mask="url(#path-2-inside-1_4412_3205)" fill-opacity="0.247059" fill="#005A92" d="M42 142L40.6971 191.983L41.3485 192H42V142ZM41.5879 141.989L39.0539 191.925L39.6692 191.956L40.285 191.972L41.5879 141.989ZM64 58L65.3029 8.01698L64.6515 8H64V58ZM64.4121 58.0107L66.9461 8.075L66.3308 8.04377L65.715 8.02772L64.4121 58.0107ZM64 140H14V142H64H114V140H64ZM64 142V92H42V142V192H64V142ZM42 142H92V140H42H-8V142H42ZM42 140V190H64V140V90H42V140ZM70 134H120V66H70H20V134H70ZM70 66H120C120 35.072 94.9279 10 64 10V60V110C39.6995 110 20 90.3005 20 66H70ZM64 60V10H42V60V110H64V60ZM42 60V10C11.0721 10 -14 35.0721 -14 66H36H86C86 90.3005 66.3005 110 42 110V60ZM36 66H-14V134H36H86V66H36ZM36 134H-14C-14 164.928 11.0721 190 42 190V140V90C66.3005 90 86 109.699 86 134H36ZM42 140H-8V142H42H92V140H42ZM42 142L43.3029 92.017L42.8908 92.0062L41.5879 141.989L40.285 191.972L40.6971 191.983L42 142ZM41.5879 141.989L44.1219 92.0535C66.3515 93.1816 84 111.512 84 134H34H-16C-16 165.048 8.37078 190.368 39.0539 191.925L41.5879 141.989ZM34 134H84V66H34H-16V134H34ZM34 66H84C84 89.196 65.196 108 42 108V58V8C9.96749 8 -16 33.9675 -16 66H34ZM42 58V108H64V58V8H42V58ZM64 58L62.6971 107.983L63.1092 107.994L64.4121 58.0107L65.715 8.02772L65.3029 8.01698L64 58ZM64.4121 58.0107L61.8781 107.946C39.6485 106.818 22 88.488 22 66H72H122C122 34.9519 97.6292 9.63202 66.9461 8.075L64.4121 58.0107ZM72 66H22V134H72H122V66H72ZM72 134H22C22 110.804 40.804 92 64 92V142V192C96.0325 192 122 166.033 122 134H72ZM64 142H114V140H64H14V142H64ZM64 140V190C94.9279 190 120 164.928 120 134H70H20C20 109.699 39.6995 90 64 90V140Z"></path>
<path fill="#C0D6E4" d="M156 104C160.418 104 164 107.582 164 112V134C164 138.418 160.418 142 156 142L88 142C83.5817 142 80 138.418 80 134L80 112C80 107.582 83.5817 104 88 104L156 104Z"></path>
<mask fill="white" id="path-5-inside-2_4412_3205">
<path d="M156 140V142H88V140H156ZM162 134V112C162 108.79 159.479 106.168 156.309 106.008L156 106H88C84.7898 106 82.1684 108.521 82.0078 111.691L82 112V134C82 137.314 84.6863 140 88 140V142L87.5879 141.989C83.3611 141.775 80 138.28 80 134V112C80 107.72 83.3611 104.225 87.5879 104.011L88 104H156L156.412 104.011C160.639 104.225 164 107.72 164 112V134L163.989 134.412C163.782 138.502 160.502 141.782 156.412 141.989L156 142V140C159.21 140 161.832 137.479 161.992 134.309L162 134Z"></path>
</mask>
<path mask="url(#path-5-inside-2_4412_3205)" fill-opacity="0.247059" fill="#005A92" d="M156 140V90V140ZM156 142V192H156.652L157.303 191.983L156 142ZM88 142L86.6971 191.983L87.3485 192H88V142ZM162 134L211.984 135.265L212 134.633V134H162ZM162 112H212V112L162 112ZM156.309 106.008L158.838 56.0719L158.207 56.0398L157.574 56.0238L156.309 106.008ZM156 106L157.265 56.016L156.633 56H156V106ZM88 106V56H88L88 106ZM82.0078 111.691L32.0719 109.162L32.0398 109.793L32.0238 110.426L82.0078 111.691ZM82 112L32.016 110.735L32 111.367V112H82ZM82 134L132 134V134H82ZM87.5879 141.989L85.0539 191.925L85.6692 191.956L86.285 191.972L87.5879 141.989ZM80 134L130 134V134H80ZM80 112L30 112V112H80ZM87.5879 104.011L86.285 54.0277L85.6692 54.0438L85.0539 54.075L87.5879 104.011ZM88 104V54H87.3485L86.6971 54.017L88 104ZM156 104L157.303 54.017L156.652 54H156V104ZM156.412 104.011L158.946 54.075L158.331 54.0438L157.715 54.0277L156.412 104.011ZM164 112H214V112L164 112ZM164 134L213.983 135.303L214 134.652V134H164ZM163.989 134.412L213.925 136.946L213.956 136.331L213.972 135.715L163.989 134.412ZM156.412 141.989L157.715 191.972L158.331 191.956L158.946 191.925L156.412 141.989ZM161.992 134.309L211.928 136.838L211.96 136.207L211.976 135.574L161.992 134.309ZM156 140H106V142H156H206V140H156ZM156 142V92H88V142V192H156V142ZM88 142H138V140H88H38V142H88ZM88 140V190H156V140V90H88V140ZM162 134H212V112H162H112V134H162ZM162 112L212 112C212 82.0228 188.47 57.5731 158.838 56.0719L156.309 106.008L153.779 155.944C130.488 154.764 112 135.557 112 112L162 112ZM156.309 106.008L157.574 56.0238L157.265 56.016L156 106L154.735 155.984L155.043 155.992L156.309 106.008ZM156 106V56H88V106V156H156V106ZM88 106L88 56C58.0228 56 33.573 79.5305 32.0719 109.162L82.0078 111.691L131.944 114.221C130.764 137.512 111.557 156 88 156L88 106ZM82.0078 111.691L32.0238 110.426L32.016 110.735L82 112L131.984 113.265L131.992 112.957L82.0078 111.691ZM82 112H32V134H82H132V112H82ZM82 134L32 134C32 164.928 57.0721 190 88 190L88 140L88 90C112.301 90 132 109.699 132 134L82 134ZM88 140H38V142H88H138V140H88ZM88 142L89.3029 92.017L88.8908 92.0062L87.5879 141.989L86.285 191.972L86.6971 191.983L88 142ZM87.5879 141.989L90.1219 92.0535C112.352 93.1816 130 111.512 130 134L80 134L30 134C30 165.048 54.3708 190.368 85.0539 191.925L87.5879 141.989ZM80 134H130V112H80H30V134H80ZM80 112L130 112C130 134.488 112.352 152.818 90.1219 153.946L87.5879 104.011L85.0539 54.075C54.3708 55.632 30 80.9519 30 112L80 112ZM87.5879 104.011L88.8908 153.994L89.3029 153.983L88 104L86.6971 54.017L86.285 54.0277L87.5879 104.011ZM88 104V154H156V104V54H88V104ZM156 104L154.697 153.983L155.109 153.994L156.412 104.011L157.715 54.0277L157.303 54.017L156 104ZM156.412 104.011L153.878 153.946C131.648 152.818 114 134.488 114 112L164 112L214 112C214 80.9519 189.629 55.632 158.946 54.075L156.412 104.011ZM164 112H114V134H164H214V112H164ZM164 134L114.017 132.697L114.006 133.109L163.989 134.412L213.972 135.715L213.983 135.303L164 134ZM163.989 134.412L114.054 131.878C115.146 110.347 132.347 93.1461 153.878 92.0535L156.412 141.989L158.946 191.925C188.658 190.417 212.417 166.658 213.925 136.946L163.989 134.412ZM156.412 141.989L155.109 92.0062L154.697 92.017L156 142L157.303 191.983L157.715 191.972L156.412 141.989ZM156 142H206V140H156H106V142H156ZM156 140V190C185.977 190 210.427 166.47 211.928 136.838L161.992 134.309L112.056 131.779C113.236 108.488 132.443 90 156 90V140ZM161.992 134.309L211.976 135.574L211.984 135.265L162 134L112.016 132.735L112.008 133.043L161.992 134.309Z"></path>
<path fill="#417DA0" d="M161.106 67.2564C161.106 66.687 161.032 66.1373 160.894 65.6156C160.687 64.8358 161.146 64.0347 161.918 63.8263C162.69 63.6178 163.483 64.081 163.69 64.8608C163.892 65.6265 164 66.4299 164 67.2564V68.8803C164 69.6875 163.352 70.3419 162.553 70.3419C161.754 70.3419 161.106 69.6875 161.106 68.8803V67.2564ZM162.553 73.9145C163.352 73.9145 164 74.5689 164 75.3761V78.6239C164 79.4311 163.352 80.0855 162.553 80.0855C161.754 80.0855 161.106 79.4311 161.106 78.6239V75.3761C161.106 74.5689 161.754 73.9145 162.553 73.9145ZM162.553 83.6581C163.352 83.6581 164 84.3125 164 85.1197V86.7436C164 87.5701 163.892 88.3735 163.69 89.1392C163.483 89.919 162.69 90.3822 161.918 90.1738C161.146 89.9653 160.687 89.1642 160.894 88.3844C161.032 87.8627 161.106 87.313 161.106 86.7436V85.1197C161.106 84.3125 161.754 83.6581 162.553 83.6581ZM158.231 93.8972C158.438 94.677 157.979 95.4782 157.207 95.6866C156.449 95.8913 155.654 96 154.835 96H153.067C152.267 96 151.62 95.3456 151.62 94.5385C151.62 93.7313 152.267 93.0769 153.067 93.0769H154.835C155.399 93.0769 155.943 93.0022 156.46 92.8627C157.232 92.6543 158.025 93.1174 158.231 93.8972ZM158.231 60.1028C158.025 60.8826 157.232 61.3458 156.46 61.1373C155.943 60.9979 155.399 60.9231 154.835 60.9231H153.067C152.267 60.9231 151.62 60.2687 151.62 59.4615C151.62 58.6544 152.267 58 153.067 58L154.835 58C155.654 58 156.449 58.1087 157.207 58.3134C157.979 58.5218 158.438 59.323 158.231 60.1028ZM147.439 59.4615C147.439 60.2687 146.791 60.9231 145.992 60.9231H142.455C141.656 60.9231 141.008 60.2687 141.008 59.4615C141.008 58.6544 141.656 58 142.455 58L145.992 58C146.791 58 147.439 58.6544 147.439 59.4615ZM147.439 94.5385C147.439 95.3456 146.791 96 145.992 96H142.455C141.656 96 141.008 95.3456 141.008 94.5385C141.008 93.7313 141.656 93.0769 142.455 93.0769H145.992C146.791 93.0769 147.439 93.7313 147.439 94.5385ZM136.827 59.4615C136.827 60.2687 136.18 60.9231 135.38 60.9231H131.843C131.044 60.9231 130.396 60.2687 130.396 59.4615C130.396 58.6544 131.044 58 131.843 58L135.38 58C136.18 58 136.827 58.6544 136.827 59.4615ZM136.827 94.5385C136.827 95.3456 136.18 96 135.38 96L131.843 96C131.044 96 130.396 95.3456 130.396 94.5385C130.396 93.7313 131.044 93.0769 131.843 93.0769L135.38 93.0769C136.18 93.0769 136.827 93.7313 136.827 94.5385ZM126.216 59.4615C126.216 60.2687 125.568 60.9231 124.769 60.9231H121.231C120.432 60.9231 119.784 60.2687 119.784 59.4615C119.784 58.6544 120.432 58 121.231 58L124.769 58C125.568 58 126.216 58.6544 126.216 59.4615ZM126.216 94.5385C126.216 95.3456 125.568 96 124.769 96H121.231C120.432 96 119.784 95.3456 119.784 94.5385C119.784 93.7313 120.432 93.0769 121.231 93.0769H124.769C125.568 93.0769 126.216 93.7313 126.216 94.5385ZM115.604 94.5385C115.604 95.3456 114.956 96 114.157 96H110.62C109.82 96 109.173 95.3456 109.173 94.5385C109.173 93.7313 109.82 93.0769 110.62 93.0769H114.157C114.956 93.0769 115.604 93.7313 115.604 94.5385ZM115.604 59.4615C115.604 60.2687 114.956 60.9231 114.157 60.9231H110.62C109.82 60.9231 109.173 60.2687 109.173 59.4615C109.173 58.6544 109.82 58 110.62 58L114.157 58C114.956 58 115.604 58.6544 115.604 59.4615ZM104.992 59.4615C104.992 60.2687 104.344 60.9231 103.545 60.9231H100.008C99.2087 60.9231 98.5608 60.2687 98.5608 59.4615C98.5608 58.6544 99.2087 58 100.008 58L103.545 58C104.344 58 104.992 58.6544 104.992 59.4615ZM104.992 94.5385C104.992 95.3456 104.344 96 103.545 96H100.008C99.2087 96 98.5608 95.3456 98.5608 94.5385C98.5608 93.7313 99.2087 93.0769 100.008 93.0769H103.545C104.344 93.0769 104.992 93.7313 104.992 94.5385ZM94.3804 59.4615C94.3804 60.2687 93.7325 60.9231 92.9333 60.9231H91.1647C90.601 60.9231 90.0567 60.9978 89.5402 61.1373C88.7681 61.3457 87.9749 60.8826 87.7685 60.1028C87.5621 59.323 88.0207 58.5218 88.7928 58.3134C89.5509 58.1087 90.3464 58 91.1647 58L92.9333 58C93.7325 58 94.3804 58.6544 94.3804 59.4615ZM94.3804 94.5385C94.3804 95.3456 93.7325 96 92.9333 96H91.1647C90.3464 96 89.5509 95.8913 88.7928 95.6866C88.0207 95.4782 87.5621 94.677 87.7685 93.8972C87.9749 93.1174 88.7681 92.6542 89.5402 92.8627C90.0567 93.0021 90.601 93.0769 91.1647 93.0769H92.9333C93.7325 93.0769 94.3804 93.7313 94.3804 94.5385ZM84.0819 63.8262C84.854 64.0347 85.3126 64.8358 85.1062 65.6156C84.9681 66.1373 84.8941 66.687 84.8941 67.2564L84.8941 68.8803C84.8941 69.6875 84.2463 70.3419 83.4471 70.3419C82.6479 70.3419 82 69.6875 82 68.8803L82 67.2564C82 66.4299 82.1076 65.6265 82.3103 64.8608C82.5167 64.081 83.3099 63.6178 84.0819 63.8262ZM84.0819 90.1737C83.3099 90.3822 82.5167 89.919 82.3103 89.1392C82.1076 88.3735 82 87.5701 82 86.7436L82 85.1197C82 84.3125 82.6479 83.6581 83.4471 83.6581C84.2463 83.6581 84.8941 84.3125 84.8941 85.1197V86.7436C84.8941 87.313 84.9681 87.8627 85.1062 88.3844C85.3126 89.1642 84.854 89.9653 84.0819 90.1737ZM83.4471 73.9145C84.2463 73.9145 84.8941 74.5689 84.8941 75.3761V78.6239C84.8941 79.4311 84.2463 80.0855 83.4471 80.0855C82.6479 80.0855 82 79.4311 82 78.6239L82 75.3761C82 74.5689 82.6479 73.9145 83.4471 73.9145Z" clip-rule="evenodd" fill-rule="evenodd"></path>
</svg>
