<svg xmlns="http://www.w3.org/2000/svg" fill="none" viewBox="0 0 384 160" height="160" width="384">
<rect fill="#F7F7F7" height="160" width="384"></rect>
<mask fill="white" id="path-1-inside-1_4971_22059">
<path d="M24 24H360V72H24V24Z"></path>
</mask>
<path fill="#F7F7F7" d="M24 24H360V72H24V24Z"></path>
<path fill="#262626" d="M69.772 54.216C68.968 54.216 68.242 54.054 67.594 53.73C66.958 53.406 66.454 52.872 66.082 52.128C65.71 51.384 65.524 50.382 65.524 49.122V42.192H67.018V49.158C67.018 50.106 67.138 50.856 67.378 51.408C67.63 51.948 67.96 52.332 68.368 52.56C68.788 52.788 69.256 52.902 69.772 52.902C70.3 52.902 70.774 52.788 71.194 52.56C71.614 52.332 71.944 51.948 72.184 51.408C72.436 50.856 72.562 50.106 72.562 49.158V42.192H74.002V49.122C74.002 50.382 73.816 51.384 73.444 52.128C73.072 52.872 72.568 53.406 71.932 53.73C71.296 54.054 70.576 54.216 69.772 54.216ZM79.7896 54.216C78.8536 54.216 78.1996 53.946 77.8276 53.406C77.4676 52.866 77.2876 52.164 77.2876 51.3V46.458H75.9916V45.342L77.3596 45.252L77.5396 42.804H78.7816V45.252H81.1396V46.458H78.7816V51.318C78.7816 51.858 78.8776 52.278 79.0696 52.578C79.2736 52.866 79.6276 53.01 80.1316 53.01C80.2876 53.01 80.4556 52.986 80.6356 52.938C80.8156 52.878 80.9776 52.824 81.1216 52.776L81.4096 53.892C81.1696 53.976 80.9056 54.048 80.6176 54.108C80.3416 54.18 80.0656 54.216 79.7896 54.216ZM86.9876 54.216C86.5796 54.216 86.1536 54.12 85.7096 53.928C85.2776 53.724 84.8696 53.448 84.4856 53.1H84.4316L84.3056 54H83.1176V41.184H84.5936V44.676L84.5576 46.26C84.9536 45.912 85.3856 45.624 85.8536 45.396C86.3336 45.156 86.8136 45.036 87.2936 45.036C88.4336 45.036 89.2976 45.438 89.8856 46.242C90.4736 47.046 90.7676 48.126 90.7676 49.482C90.7676 50.478 90.5876 51.33 90.2276 52.038C89.8796 52.746 89.4176 53.286 88.8416 53.658C88.2776 54.03 87.6596 54.216 86.9876 54.216ZM86.7356 52.974C87.4556 52.974 88.0496 52.668 88.5176 52.056C88.9976 51.432 89.2376 50.58 89.2376 49.5C89.2376 48.54 89.0576 47.766 88.6976 47.178C88.3496 46.578 87.7616 46.278 86.9336 46.278C86.5616 46.278 86.1836 46.38 85.7996 46.584C85.4156 46.788 85.0136 47.082 84.5936 47.466V52.056C84.9776 52.392 85.3556 52.632 85.7276 52.776C86.1116 52.908 86.4476 52.974 86.7356 52.974ZM96.6128 54.216C95.8328 54.216 95.1248 54.036 94.4888 53.676C93.8528 53.304 93.3488 52.776 92.9768 52.092C92.6048 51.408 92.4188 50.592 92.4188 49.644C92.4188 48.684 92.6048 47.862 92.9768 47.178C93.3608 46.494 93.8528 45.966 94.4528 45.594C95.0528 45.222 95.6828 45.036 96.3428 45.036C97.4588 45.036 98.3168 45.408 98.9168 46.152C99.5288 46.896 99.8348 47.892 99.8348 49.14C99.8348 49.296 99.8288 49.452 99.8168 49.608C99.8168 49.752 99.8048 49.878 99.7808 49.986H93.8768C93.9368 50.91 94.2248 51.648 94.7408 52.2C95.2688 52.752 95.9528 53.028 96.7928 53.028C97.2128 53.028 97.5968 52.968 97.9448 52.848C98.3048 52.716 98.6468 52.548 98.9708 52.344L99.4928 53.316C99.1208 53.556 98.6948 53.766 98.2148 53.946C97.7468 54.126 97.2128 54.216 96.6128 54.216ZM93.8588 48.924H98.5388C98.5388 48.036 98.3468 47.364 97.9628 46.908C97.5908 46.44 97.0628 46.206 96.3788 46.206C95.7668 46.206 95.2148 46.446 94.7228 46.926C94.2428 47.394 93.9548 48.06 93.8588 48.924ZM104.575 54.216C103.639 54.216 102.985 53.946 102.613 53.406C102.253 52.866 102.073 52.164 102.073 51.3V46.458H100.777V45.342L102.145 45.252L102.325 42.804H103.567V45.252H105.925V46.458H103.567V51.318C103.567 51.858 103.663 52.278 103.855 52.578C104.059 52.866 104.413 53.01 104.917 53.01C105.073 53.01 105.241 52.986 105.421 52.938C105.601 52.878 105.763 52.824 105.907 52.776L106.195 53.892C105.955 53.976 105.691 54.048 105.403 54.108C105.127 54.18 104.851 54.216 104.575 54.216ZM109.532 54.216C108.8 54.216 108.188 54 107.696 53.568C107.216 53.124 106.976 52.512 106.976 51.732C106.976 50.772 107.402 50.04 108.254 49.536C109.118 49.02 110.48 48.66 112.34 48.456C112.34 48.084 112.286 47.73 112.178 47.394C112.082 47.058 111.902 46.788 111.638 46.584C111.386 46.368 111.02 46.26 110.54 46.26C110.036 46.26 109.562 46.356 109.118 46.548C108.674 46.74 108.278 46.956 107.93 47.196L107.354 46.17C107.762 45.906 108.26 45.654 108.848 45.414C109.448 45.162 110.096 45.036 110.792 45.036C111.86 45.036 112.634 45.366 113.114 46.026C113.594 46.674 113.834 47.544 113.834 48.636V54H112.61L112.484 52.956H112.43C112.022 53.292 111.572 53.586 111.08 53.838C110.6 54.09 110.084 54.216 109.532 54.216ZM109.964 53.028C110.384 53.028 110.78 52.926 111.152 52.722C111.524 52.518 111.92 52.23 112.34 51.858V49.428C110.888 49.608 109.868 49.878 109.28 50.238C108.704 50.598 108.416 51.06 108.416 51.624C108.416 52.116 108.566 52.476 108.866 52.704C109.166 52.92 109.532 53.028 109.964 53.028ZM118.152 54.216C117.6 54.216 117.198 54.048 116.946 53.712C116.706 53.364 116.586 52.872 116.586 52.236V41.184H118.062V52.344C118.062 52.572 118.104 52.74 118.188 52.848C118.272 52.944 118.368 52.992 118.476 52.992C118.524 52.992 118.566 52.992 118.602 52.992C118.65 52.98 118.716 52.968 118.8 52.956L118.998 54.072C118.902 54.12 118.788 54.156 118.656 54.18C118.524 54.204 118.356 54.216 118.152 54.216ZM121.174 54V45.252H122.65V54H121.174ZM121.93 43.452C121.642 43.452 121.402 43.368 121.21 43.2C121.03 43.02 120.94 42.78 120.94 42.48C120.94 42.192 121.03 41.958 121.21 41.778C121.402 41.598 121.642 41.508 121.93 41.508C122.218 41.508 122.452 41.598 122.632 41.778C122.824 41.958 122.92 42.192 122.92 42.48C122.92 42.78 122.824 43.02 122.632 43.2C122.452 43.368 122.218 43.452 121.93 43.452ZM125.604 54V45.252H126.828L126.954 46.512H127.008C127.428 46.092 127.872 45.744 128.34 45.468C128.808 45.18 129.342 45.036 129.942 45.036C130.866 45.036 131.538 45.33 131.958 45.918C132.39 46.494 132.606 47.34 132.606 48.456V54H131.13V48.654C131.13 47.838 130.998 47.244 130.734 46.872C130.47 46.5 130.05 46.314 129.474 46.314C129.03 46.314 128.628 46.428 128.268 46.656C127.92 46.884 127.524 47.22 127.08 47.664V54H125.604ZM138.4 58.032C137.332 58.032 136.462 57.828 135.79 57.42C135.118 57.012 134.782 56.43 134.782 55.674C134.782 55.302 134.896 54.942 135.124 54.594C135.352 54.258 135.664 53.958 136.06 53.694V53.622C135.844 53.49 135.658 53.304 135.502 53.064C135.358 52.824 135.286 52.536 135.286 52.2C135.286 51.828 135.388 51.504 135.592 51.228C135.796 50.952 136.012 50.736 136.24 50.58V50.508C135.952 50.268 135.688 49.944 135.448 49.536C135.22 49.128 135.106 48.666 135.106 48.15C135.106 47.514 135.256 46.962 135.556 46.494C135.856 46.026 136.258 45.666 136.762 45.414C137.266 45.162 137.812 45.036 138.4 45.036C138.64 45.036 138.868 45.06 139.084 45.108C139.3 45.144 139.486 45.192 139.642 45.252H142.684V46.386H140.884C141.088 46.578 141.256 46.836 141.388 47.16C141.532 47.472 141.604 47.814 141.604 48.186C141.604 48.81 141.46 49.35 141.172 49.806C140.884 50.262 140.5 50.616 140.02 50.868C139.54 51.108 139 51.228 138.4 51.228C137.932 51.228 137.494 51.126 137.086 50.922C136.93 51.054 136.798 51.204 136.69 51.372C136.582 51.528 136.528 51.726 136.528 51.966C136.528 52.242 136.636 52.47 136.852 52.65C137.08 52.83 137.488 52.92 138.076 52.92H139.768C140.788 52.92 141.55 53.088 142.054 53.424C142.57 53.748 142.828 54.276 142.828 55.008C142.828 55.548 142.648 56.046 142.288 56.502C141.928 56.958 141.418 57.324 140.758 57.6C140.098 57.888 139.312 58.032 138.4 58.032ZM138.4 50.238C138.904 50.238 139.336 50.052 139.696 49.68C140.068 49.296 140.254 48.786 140.254 48.15C140.254 47.514 140.074 47.016 139.714 46.656C139.354 46.296 138.916 46.116 138.4 46.116C137.884 46.116 137.446 46.296 137.086 46.656C136.726 47.016 136.546 47.514 136.546 48.15C136.546 48.786 136.726 49.296 137.086 49.68C137.458 50.052 137.896 50.238 138.4 50.238ZM138.616 57.006C139.456 57.006 140.128 56.82 140.632 56.448C141.136 56.088 141.388 55.68 141.388 55.224C141.388 54.816 141.232 54.534 140.92 54.378C140.62 54.222 140.188 54.144 139.624 54.144H138.112C137.944 54.144 137.758 54.132 137.554 54.108C137.362 54.084 137.17 54.048 136.978 54C136.666 54.228 136.438 54.468 136.294 54.72C136.15 54.972 136.078 55.224 136.078 55.476C136.078 55.944 136.3 56.316 136.744 56.592C137.2 56.868 137.824 57.006 138.616 57.006Z"></path>
<path mask="url(#path-3-inside-2_4971_22059)" fill="#0067C5" d="M159.5 68H47.5V76H159.5V68Z"></path>
<path fill="#262626" d="M179.616 54L175.836 42.192H177.438L179.328 48.564C179.544 49.26 179.73 49.914 179.886 50.526C180.054 51.126 180.252 51.774 180.48 52.47H180.552C180.768 51.774 180.96 51.126 181.128 50.526C181.296 49.914 181.482 49.26 181.686 48.564L183.576 42.192H185.106L181.362 54H179.616ZM186.576 54V45.252H188.052V54H186.576ZM187.332 43.452C187.044 43.452 186.804 43.368 186.612 43.2C186.432 43.02 186.342 42.78 186.342 42.48C186.342 42.192 186.432 41.958 186.612 41.778C186.804 41.598 187.044 41.508 187.332 41.508C187.62 41.508 187.854 41.598 188.034 41.778C188.226 41.958 188.322 42.192 188.322 42.48C188.322 42.78 188.226 43.02 188.034 43.2C187.854 43.368 187.62 43.452 187.332 43.452ZM192.571 54.216C192.019 54.216 191.617 54.048 191.365 53.712C191.125 53.364 191.005 52.872 191.005 52.236V41.184H192.481V52.344C192.481 52.572 192.523 52.74 192.607 52.848C192.691 52.944 192.787 52.992 192.895 52.992C192.943 52.992 192.985 52.992 193.021 52.992C193.069 52.98 193.135 52.968 193.219 52.956L193.417 54.072C193.321 54.12 193.207 54.156 193.075 54.18C192.943 54.204 192.775 54.216 192.571 54.216ZM195.593 54V41.184H197.051V49.86H197.105L200.831 45.252H202.469L199.535 48.762L202.865 54H201.245L198.689 49.788L197.051 51.696V54H195.593ZM206.346 54.216C205.614 54.216 205.002 54 204.51 53.568C204.03 53.124 203.79 52.512 203.79 51.732C203.79 50.772 204.216 50.04 205.068 49.536C205.932 49.02 207.294 48.66 209.154 48.456C209.154 48.084 209.1 47.73 208.992 47.394C208.896 47.058 208.716 46.788 208.452 46.584C208.2 46.368 207.834 46.26 207.354 46.26C206.85 46.26 206.376 46.356 205.932 46.548C205.488 46.74 205.092 46.956 204.744 47.196L204.168 46.17C204.576 45.906 205.074 45.654 205.662 45.414C206.262 45.162 206.91 45.036 207.606 45.036C208.674 45.036 209.448 45.366 209.928 46.026C210.408 46.674 210.648 47.544 210.648 48.636V54H209.424L209.298 52.956H209.244C208.836 53.292 208.386 53.586 207.894 53.838C207.414 54.09 206.898 54.216 206.346 54.216ZM206.778 53.028C207.198 53.028 207.594 52.926 207.966 52.722C208.338 52.518 208.734 52.23 209.154 51.858V49.428C207.702 49.608 206.682 49.878 206.094 50.238C205.518 50.598 205.23 51.06 205.23 51.624C205.23 52.116 205.38 52.476 205.68 52.704C205.98 52.92 206.346 53.028 206.778 53.028ZM207.66 44.028C207.06 44.028 206.58 43.86 206.22 43.524C205.86 43.188 205.68 42.762 205.68 42.246C205.68 41.742 205.86 41.322 206.22 40.986C206.58 40.65 207.06 40.482 207.66 40.482C208.26 40.482 208.74 40.65 209.1 40.986C209.46 41.322 209.64 41.742 209.64 42.246C209.64 42.762 209.46 43.188 209.1 43.524C208.74 43.86 208.26 44.028 207.66 44.028ZM207.66 43.362C207.948 43.362 208.188 43.26 208.38 43.056C208.584 42.852 208.686 42.582 208.686 42.246C208.686 41.91 208.584 41.646 208.38 41.454C208.188 41.25 207.948 41.148 207.66 41.148C207.372 41.148 207.126 41.25 206.922 41.454C206.73 41.646 206.634 41.91 206.634 42.246C206.634 42.582 206.73 42.852 206.922 43.056C207.126 43.26 207.372 43.362 207.66 43.362ZM213.4 54V45.252H214.624L214.75 46.836H214.804C215.104 46.284 215.47 45.846 215.902 45.522C216.334 45.198 216.796 45.036 217.288 45.036C217.636 45.036 217.948 45.096 218.224 45.216L217.936 46.512C217.792 46.464 217.66 46.428 217.54 46.404C217.42 46.38 217.27 46.368 217.09 46.368C216.718 46.368 216.328 46.518 215.92 46.818C215.524 47.118 215.176 47.64 214.876 48.384V54H213.4Z"></path>
<path fill="#262626" d="M256.986 54.216C255.954 54.216 255.036 53.976 254.232 53.496C253.428 53.004 252.798 52.302 252.342 51.39C251.886 50.478 251.658 49.38 251.658 48.096C251.658 46.824 251.892 45.732 252.36 44.82C252.828 43.908 253.47 43.206 254.286 42.714C255.102 42.222 256.032 41.976 257.076 41.976C257.892 41.976 258.576 42.132 259.128 42.444C259.692 42.744 260.142 43.074 260.478 43.434L259.65 44.406C259.35 44.094 259.002 43.83 258.606 43.614C258.21 43.398 257.712 43.29 257.112 43.29C256.32 43.29 255.63 43.488 255.042 43.884C254.454 44.268 253.998 44.814 253.674 45.522C253.362 46.23 253.206 47.076 253.206 48.06C253.206 49.548 253.542 50.73 254.214 51.606C254.898 52.47 255.87 52.902 257.13 52.902C257.55 52.902 257.952 52.842 258.336 52.722C258.72 52.59 259.026 52.416 259.254 52.2V49.122H256.752V47.88H260.622V52.848C260.25 53.244 259.746 53.574 259.11 53.838C258.486 54.09 257.778 54.216 256.986 54.216ZM263.307 54V45.252H264.531L264.657 46.836H264.711C265.011 46.284 265.377 45.846 265.809 45.522C266.241 45.198 266.703 45.036 267.195 45.036C267.543 45.036 267.855 45.096 268.131 45.216L267.843 46.512C267.699 46.464 267.567 46.428 267.447 46.404C267.327 46.38 267.177 46.368 266.997 46.368C266.625 46.368 266.235 46.518 265.827 46.818C265.431 47.118 265.083 47.64 264.783 48.384V54H263.307ZM272.103 54.216C271.179 54.216 270.501 53.928 270.069 53.352C269.637 52.764 269.421 51.912 269.421 50.796V45.252H270.915V50.598C270.915 51.414 271.041 52.008 271.293 52.38C271.557 52.752 271.977 52.938 272.553 52.938C273.009 52.938 273.411 52.824 273.759 52.596C274.119 52.356 274.503 51.978 274.911 51.462V45.252H276.387V54H275.163L275.037 52.632H274.983C274.575 53.112 274.143 53.496 273.687 53.784C273.231 54.072 272.703 54.216 272.103 54.216ZM279.338 54V45.252H280.562L280.688 46.512H280.742C281.162 46.092 281.606 45.744 282.074 45.468C282.542 45.18 283.076 45.036 283.676 45.036C284.6 45.036 285.272 45.33 285.692 45.918C286.124 46.494 286.34 47.34 286.34 48.456V54H284.864V48.654C284.864 47.838 284.732 47.244 284.468 46.872C284.204 46.5 283.784 46.314 283.208 46.314C282.764 46.314 282.362 46.428 282.002 46.656C281.654 46.884 281.258 47.22 280.814 47.664V54H279.338ZM289.182 54V45.252H290.406L290.532 46.512H290.586C291.006 46.092 291.45 45.744 291.918 45.468C292.386 45.18 292.92 45.036 293.52 45.036C294.444 45.036 295.116 45.33 295.536 45.918C295.968 46.494 296.184 47.34 296.184 48.456V54H294.708V48.654C294.708 47.838 294.576 47.244 294.312 46.872C294.048 46.5 293.628 46.314 293.052 46.314C292.608 46.314 292.206 46.428 291.846 46.656C291.498 46.884 291.102 47.22 290.658 47.664V54H289.182ZM300.592 54.216C300.04 54.216 299.638 54.048 299.386 53.712C299.146 53.364 299.026 52.872 299.026 52.236V41.184H300.502V52.344C300.502 52.572 300.544 52.74 300.628 52.848C300.712 52.944 300.808 52.992 300.916 52.992C300.964 52.992 301.006 52.992 301.042 52.992C301.09 52.98 301.156 52.968 301.24 52.956L301.438 54.072C301.342 54.12 301.228 54.156 301.096 54.18C300.964 54.204 300.796 54.216 300.592 54.216ZM305.63 54.216C304.898 54.216 304.286 54 303.794 53.568C303.314 53.124 303.074 52.512 303.074 51.732C303.074 50.772 303.5 50.04 304.352 49.536C305.216 49.02 306.578 48.66 308.438 48.456C308.438 48.084 308.384 47.73 308.276 47.394C308.18 47.058 308 46.788 307.736 46.584C307.484 46.368 307.118 46.26 306.638 46.26C306.134 46.26 305.66 46.356 305.216 46.548C304.772 46.74 304.376 46.956 304.028 47.196L303.452 46.17C303.86 45.906 304.358 45.654 304.946 45.414C305.546 45.162 306.194 45.036 306.89 45.036C307.958 45.036 308.732 45.366 309.212 46.026C309.692 46.674 309.932 47.544 309.932 48.636V54H308.708L308.582 52.956H308.528C308.12 53.292 307.67 53.586 307.178 53.838C306.698 54.09 306.182 54.216 305.63 54.216ZM306.062 53.028C306.482 53.028 306.878 52.926 307.25 52.722C307.622 52.518 308.018 52.23 308.438 51.858V49.428C306.986 49.608 305.966 49.878 305.378 50.238C304.802 50.598 304.514 51.06 304.514 51.624C304.514 52.116 304.664 52.476 304.964 52.704C305.264 52.92 305.63 53.028 306.062 53.028ZM315.636 58.032C314.568 58.032 313.698 57.828 313.026 57.42C312.354 57.012 312.018 56.43 312.018 55.674C312.018 55.302 312.132 54.942 312.36 54.594C312.588 54.258 312.9 53.958 313.296 53.694V53.622C313.08 53.49 312.894 53.304 312.738 53.064C312.594 52.824 312.522 52.536 312.522 52.2C312.522 51.828 312.624 51.504 312.828 51.228C313.032 50.952 313.248 50.736 313.476 50.58V50.508C313.188 50.268 312.924 49.944 312.684 49.536C312.456 49.128 312.342 48.666 312.342 48.15C312.342 47.514 312.492 46.962 312.792 46.494C313.092 46.026 313.494 45.666 313.998 45.414C314.502 45.162 315.048 45.036 315.636 45.036C315.876 45.036 316.104 45.06 316.32 45.108C316.536 45.144 316.722 45.192 316.878 45.252H319.92V46.386H318.12C318.324 46.578 318.492 46.836 318.624 47.16C318.768 47.472 318.84 47.814 318.84 48.186C318.84 48.81 318.696 49.35 318.408 49.806C318.12 50.262 317.736 50.616 317.256 50.868C316.776 51.108 316.236 51.228 315.636 51.228C315.168 51.228 314.73 51.126 314.322 50.922C314.166 51.054 314.034 51.204 313.926 51.372C313.818 51.528 313.764 51.726 313.764 51.966C313.764 52.242 313.872 52.47 314.088 52.65C314.316 52.83 314.724 52.92 315.312 52.92H317.004C318.024 52.92 318.786 53.088 319.29 53.424C319.806 53.748 320.064 54.276 320.064 55.008C320.064 55.548 319.884 56.046 319.524 56.502C319.164 56.958 318.654 57.324 317.994 57.6C317.334 57.888 316.548 58.032 315.636 58.032ZM315.636 50.238C316.14 50.238 316.572 50.052 316.932 49.68C317.304 49.296 317.49 48.786 317.49 48.15C317.49 47.514 317.31 47.016 316.95 46.656C316.59 46.296 316.152 46.116 315.636 46.116C315.12 46.116 314.682 46.296 314.322 46.656C313.962 47.016 313.782 47.514 313.782 48.15C313.782 48.786 313.962 49.296 314.322 49.68C314.694 50.052 315.132 50.238 315.636 50.238ZM315.852 57.006C316.692 57.006 317.364 56.82 317.868 56.448C318.372 56.088 318.624 55.68 318.624 55.224C318.624 54.816 318.468 54.534 318.156 54.378C317.856 54.222 317.424 54.144 316.86 54.144H315.348C315.18 54.144 314.994 54.132 314.79 54.108C314.598 54.084 314.406 54.048 314.214 54C313.902 54.228 313.674 54.468 313.53 54.72C313.386 54.972 313.314 55.224 313.314 55.476C313.314 55.944 313.536 56.316 313.98 56.592C314.436 56.868 315.06 57.006 315.852 57.006Z"></path>
<path mask="url(#path-1-inside-1_4971_22059)" fill-opacity="0.19" fill="black" d="M360 71H24V73H360V71Z"></path>
<mask fill="white" id="path-8-inside-3_4971_22059">
<path d="M24 72H360V136H24V72Z"></path>
</mask>
<path fill="white" d="M24 72H360V136H24V72Z"></path>
<path fill-opacity="0.65" fill="black" d="M174.774 110V99.504H177.766C178.556 99.504 179.244 99.6 179.83 99.792C180.417 99.984 180.876 100.309 181.206 100.768C181.537 101.216 181.702 101.824 181.702 102.592C181.702 103.691 181.345 104.507 180.63 105.04C179.916 105.573 178.982 105.84 177.83 105.84H176.102V110H174.774ZM176.102 104.752H177.67C178.588 104.752 179.265 104.581 179.702 104.24C180.15 103.888 180.374 103.339 180.374 102.592C180.374 101.835 180.14 101.312 179.67 101.024C179.212 100.725 178.524 100.576 177.606 100.576H176.102V104.752ZM184.845 110.192C184.195 110.192 183.651 110 183.213 109.616C182.787 109.221 182.573 108.677 182.573 107.984C182.573 107.131 182.952 106.48 183.709 106.032C184.477 105.573 185.688 105.253 187.341 105.072C187.341 104.741 187.293 104.427 187.197 104.128C187.112 103.829 186.952 103.589 186.717 103.408C186.493 103.216 186.168 103.12 185.741 103.12C185.293 103.12 184.872 103.205 184.477 103.376C184.083 103.547 183.731 103.739 183.421 103.952L182.909 103.04C183.272 102.805 183.715 102.581 184.237 102.368C184.771 102.144 185.347 102.032 185.965 102.032C186.915 102.032 187.603 102.325 188.029 102.912C188.456 103.488 188.669 104.261 188.669 105.232V110H187.581L187.469 109.072H187.421C187.059 109.371 186.659 109.632 186.221 109.856C185.795 110.08 185.336 110.192 184.845 110.192ZM185.229 109.136C185.603 109.136 185.955 109.045 186.285 108.864C186.616 108.683 186.968 108.427 187.341 108.096V105.936C186.051 106.096 185.144 106.336 184.621 106.656C184.109 106.976 183.853 107.387 183.853 107.888C183.853 108.325 183.987 108.645 184.253 108.848C184.52 109.04 184.845 109.136 185.229 109.136ZM191.148 110V102.224H192.236L192.348 103.344H192.396C192.769 102.971 193.164 102.661 193.58 102.416C193.996 102.16 194.471 102.032 195.004 102.032C195.825 102.032 196.423 102.293 196.796 102.816C197.18 103.328 197.372 104.08 197.372 105.072V110H196.06V105.248C196.06 104.523 195.943 103.995 195.708 103.664C195.473 103.333 195.1 103.168 194.588 103.168C194.193 103.168 193.836 103.269 193.516 103.472C193.207 103.675 192.855 103.973 192.46 104.368V110H191.148ZM203.082 110.192C202.389 110.192 201.759 110.032 201.194 109.712C200.629 109.381 200.181 108.912 199.85 108.304C199.519 107.696 199.354 106.971 199.354 106.128C199.354 105.275 199.519 104.544 199.85 103.936C200.191 103.328 200.629 102.859 201.162 102.528C201.695 102.197 202.255 102.032 202.842 102.032C203.834 102.032 204.597 102.363 205.13 103.024C205.674 103.685 205.946 104.571 205.946 105.68C205.946 105.819 205.941 105.957 205.93 106.096C205.93 106.224 205.919 106.336 205.898 106.432H200.65C200.703 107.253 200.959 107.909 201.418 108.4C201.887 108.891 202.495 109.136 203.242 109.136C203.615 109.136 203.957 109.083 204.266 108.976C204.586 108.859 204.89 108.709 205.178 108.528L205.642 109.392C205.311 109.605 204.933 109.792 204.506 109.952C204.09 110.112 203.615 110.192 203.082 110.192ZM200.634 105.488H204.794C204.794 104.699 204.623 104.101 204.282 103.696C203.951 103.28 203.482 103.072 202.874 103.072C202.33 103.072 201.839 103.285 201.402 103.712C200.975 104.128 200.719 104.72 200.634 105.488ZM209.291 110.192C208.801 110.192 208.443 110.043 208.219 109.744C208.006 109.435 207.899 108.997 207.899 108.432V98.608H209.211V108.528C209.211 108.731 209.249 108.88 209.323 108.976C209.398 109.061 209.483 109.104 209.579 109.104C209.622 109.104 209.659 109.104 209.691 109.104C209.734 109.093 209.793 109.083 209.867 109.072L210.043 110.064C209.958 110.107 209.857 110.139 209.739 110.16C209.622 110.181 209.473 110.192 209.291 110.192Z"></path>
<path mask="url(#path-8-inside-3_4971_22059)" fill-opacity="0.19" fill="black" d="M360 136V136.5H360.5V136H360ZM24 136H23.5V136.5H24V136ZM23.5 72V74H24.5V72H23.5ZM23.5 78V82H24.5V78H23.5ZM23.5 86V90H24.5V86H23.5ZM23.5 94V98H24.5V94H23.5ZM23.5 102V106H24.5V102H23.5ZM23.5 110V114H24.5V110H23.5ZM23.5 118V122H24.5V118H23.5ZM23.5 126V130H24.5V126H23.5ZM23.5 134V136H24.5V134H23.5ZM24 136.5H26V135.5H24V136.5ZM30 136.5H34V135.5H30V136.5ZM38 136.5H42V135.5H38V136.5ZM46 136.5H50V135.5H46V136.5ZM54 136.5H58V135.5H54V136.5ZM62 136.5H66V135.5H62V136.5ZM70 136.5H74V135.5H70V136.5ZM78 136.5H82V135.5H78V136.5ZM86 136.5H90V135.5H86V136.5ZM94 136.5H98V135.5H94V136.5ZM102 136.5H106V135.5H102V136.5ZM110 136.5H114V135.5H110V136.5ZM118 136.5H122V135.5H118V136.5ZM126 136.5H130V135.5H126V136.5ZM134 136.5H138V135.5H134V136.5ZM142 136.5H146V135.5H142V136.5ZM150 136.5H154V135.5H150V136.5ZM158 136.5H162V135.5H158V136.5ZM166 136.5H170V135.5H166V136.5ZM174 136.5H178V135.5H174V136.5ZM182 136.5H186V135.5H182V136.5ZM190 136.5H194V135.5H190V136.5ZM198 136.5H202V135.5H198V136.5ZM206 136.5H210V135.5H206V136.5ZM214 136.5H218V135.5H214V136.5ZM222 136.5H226V135.5H222V136.5ZM230 136.5H234V135.5H230V136.5ZM238 136.5H242V135.5H238V136.5ZM246 136.5H250V135.5H246V136.5ZM254 136.5H258V135.5H254V136.5ZM262 136.5H266V135.5H262V136.5ZM270 136.5H274V135.5H270V136.5ZM278 136.5H282V135.5H278V136.5ZM286 136.5H290V135.5H286V136.5ZM294 136.5H298V135.5H294V136.5ZM302 136.5H306V135.5H302V136.5ZM310 136.5H314V135.5H310V136.5ZM318 136.5H322V135.5H318V136.5ZM326 136.5H330V135.5H326V136.5ZM334 136.5H338V135.5H334V136.5ZM342 136.5H346V135.5H342V136.5ZM350 136.5H354V135.5H350V136.5ZM358 136.5H360V135.5H358V136.5ZM360.5 136V134H359.5V136H360.5ZM360.5 130V126H359.5V130H360.5ZM360.5 122V118H359.5V122H360.5ZM360.5 114V110H359.5V114H360.5ZM360.5 106V102H359.5V106H360.5ZM360.5 98V94H359.5V98H360.5ZM360.5 90V86H359.5V90H360.5ZM360.5 82V78H359.5V82H360.5ZM360.5 74V72H359.5V74H360.5ZM360 136V137H361V136H360ZM24 136H23V137H24V136ZM23 72V74H25V72H23ZM23 78V82H25V78H23ZM23 86V90H25V86H23ZM23 94V98H25V94H23ZM23 102V106H25V102H23ZM23 110V114H25V110H23ZM23 118V122H25V118H23ZM23 126V130H25V126H23ZM23 134V136H25V134H23ZM24 137H26V135H24V137ZM30 137H34V135H30V137ZM38 137H42V135H38V137ZM46 137H50V135H46V137ZM54 137H58V135H54V137ZM62 137H66V135H62V137ZM70 137H74V135H70V137ZM78 137H82V135H78V137ZM86 137H90V135H86V137ZM94 137H98V135H94V137ZM102 137H106V135H102V137ZM110 137H114V135H110V137ZM118 137H122V135H118V137ZM126 137H130V135H126V137ZM134 137H138V135H134V137ZM142 137H146V135H142V137ZM150 137H154V135H150V137ZM158 137H162V135H158V137ZM166 137H170V135H166V137ZM174 137H178V135H174V137ZM182 137H186V135H182V137ZM190 137H194V135H190V137ZM198 137H202V135H198V137ZM206 137H210V135H206V137ZM214 137H218V135H214V137ZM222 137H226V135H222V137ZM230 137H234V135H230V137ZM238 137H242V135H238V137ZM246 137H250V135H246V137ZM254 137H258V135H254V137ZM262 137H266V135H262V137ZM270 137H274V135H270V137ZM278 137H282V135H278V137ZM286 137H290V135H286V137ZM294 137H298V135H294V137ZM302 137H306V135H302V137ZM310 137H314V135H310V137ZM318 137H322V135H318V137ZM326 137H330V135H326V137ZM334 137H338V135H334V137ZM342 137H346V135H342V137ZM350 137H354V135H350V137ZM358 137H360V135H358V137ZM361 136V134H359V136H361ZM361 130V126H359V130H361ZM361 122V118H359V122H361ZM361 114V110H359V114H361ZM361 106V102H359V106H361ZM361 98V94H359V98H361ZM361 90V86H359V90H361ZM361 82V78H359V82H361ZM361 74V72H359V74H361Z"></path>
</svg>
