<svg xmlns="http://www.w3.org/2000/svg" fill="none" viewBox="0 0 200 200" height="200" width="200">
<path fill="white" d="M18 63.3333C18 55.9695 23.7967 50 30.9474 50H169.053C176.203 50 182 55.9695 182 63.3333V136.667C182 144.03 176.203 150 169.053 150H30.9474C23.7967 150 18 144.03 18 136.667V63.3333Z"></path>
<path fill="#C0D6E4" d="M169.053 149V150H30.9473V149H169.053ZM181 136.667V63.333C181 56.4938 175.623 51.0001 169.053 51H30.9473C24.3766 51.0001 19.0002 56.4938 19 63.333V136.667C19.0002 143.506 24.3766 149 30.9473 149V150C23.9084 150 18.1811 144.215 18.0039 137.011L18 136.667V63.333C18.0002 55.9694 23.7968 50.0001 30.9473 50H169.053L169.387 50.0039C176.383 50.1864 182 56.0844 182 63.333V136.667L181.996 137.011C181.822 144.101 176.272 149.817 169.387 149.996L169.053 150V149C175.623 149 181 143.506 181 136.667Z"></path>
<rect fill="#417DA0" rx="4" height="8" width="73" y="68" x="36"></rect>
<rect fill="#C0D6E4" rx="4" height="8" width="128" y="96" x="36"></rect>
<rect fill="#C0D6E4" rx="4" height="8" width="128" y="110" x="36"></rect>
<rect fill="#C0D6E4" rx="4" height="8" width="81" y="124" x="36"></rect>
<path fill="#417DA0" d="M36 81C36 79.8954 36.8954 79 38 79H107C108.105 79 109 79.8954 109 81V81C109 82.1046 108.105 83 107 83H38C36.8954 83 36 82.1046 36 81V81Z"></path>
<path fill="#417DA0" d="M158.137 76.6669C157.747 76.2764 157.747 75.6432 158.137 75.2527L160.41 72.9799L150 72.9799C149.448 72.9799 149 72.5322 149 71.9799C149 71.4276 149.448 70.9799 150 70.9799L160.41 70.9799L158.137 68.7071C157.747 68.3166 157.747 67.6834 158.137 67.2929C158.528 66.9024 159.161 66.9024 159.551 67.2929L163.531 71.2728C163.922 71.6633 163.922 72.2965 163.531 72.687L159.551 76.6669C159.161 77.0574 158.528 77.0574 158.137 76.6669Z" clip-rule="evenodd" fill-rule="evenodd"></path>
</svg>
