<svg xmlns="http://www.w3.org/2000/svg" fill="none" viewBox="0 0 200 200" height="200" width="200">
<path fill="#417DA0" d="M23 66C23 61.5817 26.5817 58 31 58H39C43.4183 58 47 61.5817 47 66V74C47 78.4183 43.4183 82 39 82H31C26.5817 82 23 78.4183 23 74V66Z"></path>
<path fill="#417DA0" d="M39 94H31C27.6863 94 25 96.6863 25 100V108C25 111.314 27.6863 114 31 114H39C42.3137 114 45 111.314 45 108V100C45 96.6863 42.3137 94 39 94ZM31 92C26.5817 92 23 95.5817 23 100V108C23 112.418 26.5817 116 31 116H39C43.4183 116 47 112.418 47 108V100C47 95.5817 43.4183 92 39 92H31Z" clip-rule="evenodd" fill-rule="evenodd"></path>
<path fill="#417DA0" d="M23 134C23 129.582 26.5817 126 31 126H39C43.4183 126 47 129.582 47 134V142C47 146.418 43.4183 150 39 150H31C26.5817 150 23 146.418 23 142V134Z"></path>
<rect fill="#417DA0" rx="4" height="8" width="123" y="66" x="61"></rect>
<rect fill="#417DA0" rx="4" height="8" width="123" y="100" x="61"></rect>
<rect fill="#417DA0" rx="4" height="8" width="123" y="134" x="61"></rect>
<path fill="white" d="M40.5576 66.3536C41.1156 66.8531 41.1504 67.6966 40.6353 68.2377L35.5584 73.571C35.3077 73.8345 34.9581 73.9889 34.5885 73.9994C34.219 74.01 33.8606 73.8758 33.5943 73.6271L30.4212 70.6641C29.8742 70.1534 29.8578 69.3093 30.3846 68.7789C30.9113 68.2484 31.7818 68.2325 32.3288 68.7433L34.4903 70.7617L38.6146 66.429C39.1297 65.8879 39.9996 65.8541 40.5576 66.3536Z" clip-rule="evenodd" fill-rule="evenodd"></path>
<path fill="white" d="M40.5576 134.354C41.1156 134.853 41.1504 135.697 40.6353 136.238L35.5584 141.571C35.3077 141.834 34.9581 141.989 34.5885 141.999C34.219 142.01 33.8606 141.876 33.5943 141.627L30.4212 138.664C29.8742 138.153 29.8578 137.309 30.3846 136.779C30.9113 136.248 31.7818 136.232 32.3288 136.743L34.4903 138.762L38.6146 134.429C39.1297 133.888 39.9996 133.854 40.5576 134.354Z" clip-rule="evenodd" fill-rule="evenodd"></path>
</svg>
