<svg xmlns="http://www.w3.org/2000/svg" fill="none" viewBox="0 0 382 233" height="233" width="382">
<path fill="#262626" d="M25.494 42V30.228H29.202C30.078 30.228 30.858 30.342 31.542 30.57C32.226 30.798 32.766 31.176 33.162 31.704C33.558 32.232 33.756 32.952 33.756 33.864C33.756 34.728 33.558 35.442 33.162 36.006C32.766 36.57 32.232 36.99 31.56 37.266C30.888 37.542 30.126 37.68 29.274 37.68H27.582V42H25.494ZM27.582 36.006H29.112C30.84 36.006 31.704 35.292 31.704 33.864C31.704 33.12 31.476 32.61 31.02 32.334C30.576 32.046 29.916 31.902 29.04 31.902H27.582V36.006ZM39.0043 42.216C38.2723 42.216 37.5883 42.036 36.9523 41.676C36.3163 41.304 35.8003 40.776 35.4043 40.092C35.0083 39.396 34.8103 38.562 34.8103 37.59C34.8103 36.606 35.0083 35.772 35.4043 35.088C35.8003 34.392 36.3163 33.864 36.9523 33.504C37.5883 33.132 38.2723 32.946 39.0043 32.946C39.7483 32.946 40.4383 33.132 41.0743 33.504C41.7103 33.864 42.2263 34.392 42.6223 35.088C43.0183 35.772 43.2163 36.606 43.2163 37.59C43.2163 38.562 43.0183 39.396 42.6223 40.092C42.2263 40.776 41.7103 41.304 41.0743 41.676C40.4383 42.036 39.7483 42.216 39.0043 42.216ZM39.0043 40.524C39.6523 40.524 40.1623 40.254 40.5343 39.714C40.9063 39.174 41.0923 38.466 41.0923 37.59C41.0923 36.702 40.9063 35.988 40.5343 35.448C40.1623 34.908 39.6523 34.638 39.0043 34.638C38.3563 34.638 37.8463 34.908 37.4743 35.448C37.1143 35.988 36.9343 36.702 36.9343 37.59C36.9343 38.466 37.1143 39.174 37.4743 39.714C37.8463 40.254 38.3563 40.524 39.0043 40.524ZM47.6609 42.216C47.0609 42.216 46.4609 42.102 45.8609 41.874C45.2609 41.634 44.7449 41.34 44.3129 40.992L45.2849 39.66C45.6809 39.96 46.0769 40.2 46.4729 40.38C46.8689 40.56 47.2889 40.65 47.7329 40.65C48.2129 40.65 48.5669 40.548 48.7949 40.344C49.0229 40.14 49.1369 39.888 49.1369 39.588C49.1369 39.336 49.0409 39.132 48.8489 38.976C48.6689 38.808 48.4349 38.664 48.1469 38.544C47.8589 38.412 47.5589 38.286 47.2469 38.166C46.8629 38.022 46.4789 37.848 46.0949 37.644C45.7229 37.428 45.4169 37.158 45.1769 36.834C44.9369 36.498 44.8169 36.084 44.8169 35.592C44.8169 34.812 45.1049 34.176 45.6809 33.684C46.2569 33.192 47.0369 32.946 48.0209 32.946C48.6449 32.946 49.2029 33.054 49.6949 33.27C50.1869 33.486 50.6129 33.732 50.9729 34.008L50.0189 35.268C49.7069 35.04 49.3889 34.86 49.0649 34.728C48.7529 34.584 48.4229 34.512 48.0749 34.512C47.6309 34.512 47.3009 34.608 47.0849 34.8C46.8689 34.98 46.7609 35.208 46.7609 35.484C46.7609 35.832 46.9409 36.096 47.3009 36.276C47.6609 36.456 48.0809 36.63 48.5609 36.798C48.9689 36.942 49.3649 37.122 49.7489 37.338C50.1329 37.542 50.4509 37.812 50.7029 38.148C50.9669 38.484 51.0989 38.928 51.0989 39.48C51.0989 40.236 50.8049 40.884 50.2169 41.424C49.6289 41.952 48.7769 42.216 47.6609 42.216ZM55.7093 42.216C54.6893 42.216 53.9633 41.922 53.5312 41.334C53.1113 40.734 52.9013 39.96 52.9013 39.012V34.8H51.6413V33.252L53.0093 33.162L53.2613 30.75H54.9893V33.162H57.2393V34.8H54.9893V39.012C54.9893 40.044 55.4033 40.56 56.2313 40.56C56.3873 40.56 56.5493 40.542 56.7173 40.506C56.8853 40.458 57.0293 40.41 57.1493 40.362L57.5093 41.892C57.2693 41.976 56.9933 42.048 56.6813 42.108C56.3813 42.18 56.0573 42.216 55.7093 42.216ZM59.0992 42V33.162H60.8092L60.9532 34.35H61.0252C61.4212 33.966 61.8532 33.636 62.3212 33.36C62.7892 33.084 63.3232 32.946 63.9232 32.946C64.8712 32.946 65.5612 33.252 65.9932 33.864C66.4252 34.476 66.6412 35.34 66.6412 36.456V42H64.5712V36.726C64.5712 35.994 64.4632 35.478 64.2472 35.178C64.0312 34.878 63.6772 34.728 63.1852 34.728C62.8012 34.728 62.4592 34.824 62.1592 35.016C61.8712 35.196 61.5412 35.466 61.1692 35.826V42H59.0992ZM71.7994 42.216C70.8514 42.216 70.1614 41.91 69.7294 41.298C69.2974 40.686 69.0814 39.822 69.0814 38.706V33.162H71.1514V38.436C71.1514 39.168 71.2594 39.684 71.4754 39.984C71.6914 40.284 72.0394 40.434 72.5194 40.434C72.9034 40.434 73.2394 40.338 73.5274 40.146C73.8274 39.954 74.1454 39.642 74.4814 39.21V33.162H76.5514V42H74.8594L74.6974 40.704H74.6434C74.2594 41.16 73.8394 41.526 73.3834 41.802C72.9274 42.078 72.3994 42.216 71.7994 42.216ZM79.1734 42V33.162H80.8834L81.0274 34.368H81.0994C81.4714 33.972 81.8734 33.636 82.3054 33.36C82.7494 33.084 83.2474 32.946 83.7994 32.946C84.4474 32.946 84.9634 33.09 85.3474 33.378C85.7434 33.654 86.0434 34.038 86.2474 34.53C86.6674 34.074 87.1054 33.696 87.5614 33.396C88.0294 33.096 88.5394 32.946 89.0914 32.946C90.0274 32.946 90.7174 33.252 91.1614 33.864C91.6054 34.476 91.8274 35.34 91.8274 36.456V42H89.7394V36.726C89.7394 35.994 89.6254 35.478 89.3974 35.178C89.1814 34.878 88.8454 34.728 88.3894 34.728C87.8374 34.728 87.2194 35.094 86.5354 35.826V42H84.4654V36.726C84.4654 35.994 84.3514 35.478 84.1234 35.178C83.9074 34.878 83.5654 34.728 83.0974 34.728C82.5454 34.728 81.9274 35.094 81.2434 35.826V42H79.1734ZM94.3433 42V33.162H96.0533L96.1973 34.368H96.2693C96.6413 33.972 97.0433 33.636 97.4753 33.36C97.9193 33.084 98.4173 32.946 98.9693 32.946C99.6173 32.946 100.133 33.09 100.517 33.378C100.913 33.654 101.213 34.038 101.417 34.53C101.837 34.074 102.275 33.696 102.731 33.396C103.199 33.096 103.709 32.946 104.261 32.946C105.197 32.946 105.887 33.252 106.331 33.864C106.775 34.476 106.997 35.34 106.997 36.456V42H104.909V36.726C104.909 35.994 104.795 35.478 104.567 35.178C104.351 34.878 104.015 34.728 103.559 34.728C103.007 34.728 102.389 35.094 101.705 35.826V42H99.6353V36.726C99.6353 35.994 99.5213 35.478 99.2933 35.178C99.0773 34.878 98.7353 34.728 98.2673 34.728C97.7153 34.728 97.0973 35.094 96.4133 35.826V42H94.3433ZM113.293 42.216C112.477 42.216 111.739 42.036 111.079 41.676C110.419 41.304 109.897 40.776 109.513 40.092C109.129 39.396 108.937 38.562 108.937 37.59C108.937 36.63 109.129 35.802 109.513 35.106C109.909 34.41 110.419 33.876 111.043 33.504C111.667 33.132 112.321 32.946 113.005 32.946C113.809 32.946 114.481 33.126 115.021 33.486C115.561 33.834 115.969 34.326 116.245 34.962C116.521 35.586 116.659 36.312 116.659 37.14C116.659 37.572 116.629 37.908 116.569 38.148H110.953C111.049 38.928 111.331 39.534 111.799 39.966C112.267 40.398 112.855 40.614 113.563 40.614C113.947 40.614 114.301 40.56 114.625 40.452C114.961 40.332 115.291 40.17 115.615 39.966L116.317 41.262C115.897 41.538 115.429 41.766 114.913 41.946C114.397 42.126 113.857 42.216 113.293 42.216ZM110.935 36.744H114.859C114.859 36.06 114.709 35.526 114.409 35.142C114.109 34.746 113.659 34.548 113.059 34.548C112.543 34.548 112.081 34.74 111.673 35.124C111.277 35.496 111.031 36.036 110.935 36.744ZM118.636 42V33.162H120.346L120.49 34.728H120.562C120.874 34.152 121.252 33.714 121.696 33.414C122.14 33.102 122.596 32.946 123.064 32.946C123.484 32.946 123.82 33.006 124.072 33.126L123.712 34.926C123.556 34.878 123.412 34.842 123.28 34.818C123.148 34.794 122.986 34.782 122.794 34.782C122.446 34.782 122.08 34.92 121.696 35.196C121.312 35.46 120.982 35.928 120.706 36.6V42H118.636Z"></path>
<rect fill="white" rx="4" height="48" width="334" y="56" x="24"></rect>
<rect stroke-opacity="0.44" stroke="black" rx="3.5" height="47" width="333" y="56.5" x="24.5"></rect>
<path fill="#262626" d="M25.494 146V134.228H29.202C30.078 134.228 30.858 134.342 31.542 134.57C32.226 134.798 32.766 135.176 33.162 135.704C33.558 136.232 33.756 136.952 33.756 137.864C33.756 138.728 33.558 139.442 33.162 140.006C32.766 140.57 32.232 140.99 31.56 141.266C30.888 141.542 30.126 141.68 29.274 141.68H27.582V146H25.494ZM27.582 140.006H29.112C30.84 140.006 31.704 139.292 31.704 137.864C31.704 137.12 31.476 136.61 31.02 136.334C30.576 136.046 29.916 135.902 29.04 135.902H27.582V140.006ZM39.0043 146.216C38.2723 146.216 37.5883 146.036 36.9523 145.676C36.3163 145.304 35.8003 144.776 35.4043 144.092C35.0083 143.396 34.8103 142.562 34.8103 141.59C34.8103 140.606 35.0083 139.772 35.4043 139.088C35.8003 138.392 36.3163 137.864 36.9523 137.504C37.5883 137.132 38.2723 136.946 39.0043 136.946C39.7483 136.946 40.4383 137.132 41.0743 137.504C41.7103 137.864 42.2263 138.392 42.6223 139.088C43.0183 139.772 43.2163 140.606 43.2163 141.59C43.2163 142.562 43.0183 143.396 42.6223 144.092C42.2263 144.776 41.7103 145.304 41.0743 145.676C40.4383 146.036 39.7483 146.216 39.0043 146.216ZM39.0043 144.524C39.6523 144.524 40.1623 144.254 40.5343 143.714C40.9063 143.174 41.0923 142.466 41.0923 141.59C41.0923 140.702 40.9063 139.988 40.5343 139.448C40.1623 138.908 39.6523 138.638 39.0043 138.638C38.3563 138.638 37.8463 138.908 37.4743 139.448C37.1143 139.988 36.9343 140.702 36.9343 141.59C36.9343 142.466 37.1143 143.174 37.4743 143.714C37.8463 144.254 38.3563 144.524 39.0043 144.524ZM47.6609 146.216C47.0609 146.216 46.4609 146.102 45.8609 145.874C45.2609 145.634 44.7449 145.34 44.3129 144.992L45.2849 143.66C45.6809 143.96 46.0769 144.2 46.4729 144.38C46.8689 144.56 47.2889 144.65 47.7329 144.65C48.2129 144.65 48.5669 144.548 48.7949 144.344C49.0229 144.14 49.1369 143.888 49.1369 143.588C49.1369 143.336 49.0409 143.132 48.8489 142.976C48.6689 142.808 48.4349 142.664 48.1469 142.544C47.8589 142.412 47.5589 142.286 47.2469 142.166C46.8629 142.022 46.4789 141.848 46.0949 141.644C45.7229 141.428 45.4169 141.158 45.1769 140.834C44.9369 140.498 44.8169 140.084 44.8169 139.592C44.8169 138.812 45.1049 138.176 45.6809 137.684C46.2569 137.192 47.0369 136.946 48.0209 136.946C48.6449 136.946 49.2029 137.054 49.6949 137.27C50.1869 137.486 50.6129 137.732 50.9729 138.008L50.0189 139.268C49.7069 139.04 49.3889 138.86 49.0649 138.728C48.7529 138.584 48.4229 138.512 48.0749 138.512C47.6309 138.512 47.3009 138.608 47.0849 138.8C46.8689 138.98 46.7609 139.208 46.7609 139.484C46.7609 139.832 46.9409 140.096 47.3009 140.276C47.6609 140.456 48.0809 140.63 48.5609 140.798C48.9689 140.942 49.3649 141.122 49.7489 141.338C50.1329 141.542 50.4509 141.812 50.7029 142.148C50.9669 142.484 51.0989 142.928 51.0989 143.48C51.0989 144.236 50.8049 144.884 50.2169 145.424C49.6289 145.952 48.7769 146.216 47.6609 146.216ZM55.7093 146.216C54.6893 146.216 53.9633 145.922 53.5312 145.334C53.1113 144.734 52.9013 143.96 52.9013 143.012V138.8H51.6413V137.252L53.0093 137.162L53.2613 134.75H54.9893V137.162H57.2393V138.8H54.9893V143.012C54.9893 144.044 55.4033 144.56 56.2313 144.56C56.3873 144.56 56.5493 144.542 56.7173 144.506C56.8853 144.458 57.0293 144.41 57.1493 144.362L57.5093 145.892C57.2693 145.976 56.9933 146.048 56.6813 146.108C56.3813 146.18 56.0573 146.216 55.7093 146.216ZM61.3894 146.216C60.7894 146.216 60.1894 146.102 59.5894 145.874C58.9894 145.634 58.4734 145.34 58.0414 144.992L59.0134 143.66C59.4094 143.96 59.8054 144.2 60.2014 144.38C60.5974 144.56 61.0174 144.65 61.4614 144.65C61.9414 144.65 62.2954 144.548 62.5234 144.344C62.7514 144.14 62.8654 143.888 62.8654 143.588C62.8654 143.336 62.7694 143.132 62.5774 142.976C62.3974 142.808 62.1634 142.664 61.8754 142.544C61.5874 142.412 61.2874 142.286 60.9754 142.166C60.5914 142.022 60.2074 141.848 59.8234 141.644C59.4514 141.428 59.1454 141.158 58.9054 140.834C58.6654 140.498 58.5454 140.084 58.5454 139.592C58.5454 138.812 58.8334 138.176 59.4094 137.684C59.9854 137.192 60.7654 136.946 61.7494 136.946C62.3734 136.946 62.9314 137.054 63.4234 137.27C63.9154 137.486 64.3414 137.732 64.7014 138.008L63.7474 139.268C63.4354 139.04 63.1174 138.86 62.7934 138.728C62.4814 138.584 62.1514 138.512 61.8034 138.512C61.3594 138.512 61.0294 138.608 60.8134 138.8C60.5974 138.98 60.4894 139.208 60.4894 139.484C60.4894 139.832 60.6694 140.096 61.0294 140.276C61.3894 140.456 61.8094 140.63 62.2894 140.798C62.6974 140.942 63.0934 141.122 63.4774 141.338C63.8614 141.542 64.1794 141.812 64.4314 142.148C64.6954 142.484 64.8274 142.928 64.8274 143.48C64.8274 144.236 64.5334 144.884 63.9454 145.424C63.3574 145.952 62.5054 146.216 61.3894 146.216ZM69.4378 146.216C68.4178 146.216 67.6918 145.922 67.2598 145.334C66.8398 144.734 66.6298 143.96 66.6298 143.012V138.8H65.3698V137.252L66.7378 137.162L66.9898 134.75H68.7178V137.162H70.9678V138.8H68.7178V143.012C68.7178 144.044 69.1318 144.56 69.9598 144.56C70.1158 144.56 70.2778 144.542 70.4458 144.506C70.6138 144.458 70.7578 144.41 70.8778 144.362L71.2378 145.892C70.9978 145.976 70.7218 146.048 70.4098 146.108C70.1098 146.18 69.7858 146.216 69.4378 146.216ZM76.3264 146.216C75.5104 146.216 74.7724 146.036 74.1124 145.676C73.4524 145.304 72.9304 144.776 72.5464 144.092C72.1624 143.396 71.9704 142.562 71.9704 141.59C71.9704 140.63 72.1624 139.802 72.5464 139.106C72.9424 138.41 73.4524 137.876 74.0764 137.504C74.7004 137.132 75.3544 136.946 76.0384 136.946C76.8424 136.946 77.5144 137.126 78.0544 137.486C78.5944 137.834 79.0024 138.326 79.2784 138.962C79.5544 139.586 79.6924 140.312 79.6924 141.14C79.6924 141.572 79.6624 141.908 79.6024 142.148H73.9864C74.0824 142.928 74.3644 143.534 74.8324 143.966C75.3004 144.398 75.8884 144.614 76.5964 144.614C76.9804 144.614 77.3344 144.56 77.6584 144.452C77.9944 144.332 78.3244 144.17 78.6484 143.966L79.3504 145.262C78.9304 145.538 78.4624 145.766 77.9464 145.946C77.4304 146.126 76.8904 146.216 76.3264 146.216ZM73.9684 140.744H77.8924C77.8924 140.06 77.7424 139.526 77.4424 139.142C77.1424 138.746 76.6924 138.548 76.0924 138.548C75.5764 138.548 75.1144 138.74 74.7064 139.124C74.3104 139.496 74.0644 140.036 73.9684 140.744ZM84.7655 146.216C83.6615 146.216 82.7795 145.808 82.1195 144.992C81.4595 144.176 81.1295 143.042 81.1295 141.59C81.1295 140.63 81.3035 139.802 81.6515 139.106C82.0115 138.41 82.4795 137.876 83.0555 137.504C83.6315 137.132 84.2375 136.946 84.8735 136.946C85.3775 136.946 85.8035 137.036 86.1515 137.216C86.5115 137.384 86.8595 137.618 87.1955 137.918L87.1235 136.496V133.292H89.1935V146H87.4835L87.3395 145.046H87.2675C86.9435 145.37 86.5655 145.646 86.1335 145.874C85.7015 146.102 85.2455 146.216 84.7655 146.216ZM85.2695 144.506C85.9295 144.506 86.5475 144.176 87.1235 143.516V139.394C86.8235 139.118 86.5235 138.926 86.2235 138.818C85.9235 138.71 85.6235 138.656 85.3235 138.656C84.7595 138.656 84.2735 138.914 83.8655 139.43C83.4695 139.934 83.2715 140.648 83.2715 141.572C83.2715 142.52 83.4455 143.246 83.7935 143.75C84.1415 144.254 84.6335 144.506 85.2695 144.506Z"></path>
<rect fill="white" rx="4" height="48" width="334" y="160" x="24"></rect>
<rect stroke-opacity="0.44" stroke="black" rx="3.5" height="47" width="333" y="160.5" x="24.5"></rect>
</svg>
