<svg xmlns="http://www.w3.org/2000/svg" fill="none" viewBox="0 0 200 200" height="200" width="200">
<path fill="white" d="M21 44C21 39.5817 24.5817 36 29 36H133C137.418 36 141 39.5817 141 44V66C141 70.4183 137.418 74 133 74H29C24.5817 74 21 70.4183 21 66V44Z"></path>
<path fill="#417DA0" d="M133 39H29C26.2386 39 24 41.2386 24 44V66C24 68.7614 26.2386 71 29 71H133C135.761 71 138 68.7614 138 66V44C138 41.2386 135.761 39 133 39ZM29 36C24.5817 36 21 39.5817 21 44V66C21 70.4183 24.5817 74 29 74H133C137.418 74 141 70.4183 141 66V44C141 39.5817 137.418 36 133 36H29Z" clip-rule="evenodd" fill-rule="evenodd"></path>
<path fill="#C0D6E4" d="M33 55C33 52.7909 34.7909 51 37 51H97C99.2091 51 101 52.7909 101 55C101 57.2091 99.2091 59 97 59H37C34.7909 59 33 57.2091 33 55Z"></path>
<path fill="#417DA0" d="M115.293 51.2929C115.683 50.9024 116.317 50.9024 116.707 51.2929L121.5 56.0858L126.293 51.2929C126.683 50.9024 127.317 50.9024 127.707 51.2929C128.098 51.6834 128.098 52.3166 127.707 52.7071L122.207 58.2071C121.817 58.5976 121.183 58.5976 120.793 58.2071L115.293 52.7071C114.902 52.3166 114.902 51.6834 115.293 51.2929Z" clip-rule="evenodd" fill-rule="evenodd"></path>
<path fill="white" d="M42 96C42 89.3726 47.3726 84 54 84H166C172.627 84 178 89.3726 178 96V152C178 158.627 172.627 164 166 164H54C47.3726 164 42 158.627 42 152V96Z"></path>
<mask fill="white" id="path-5-inside-1_4412_3214">
<path d="M166 162V164H54V162H166ZM176 152V96C176 90.4772 171.523 86 166 86H54C48.4772 86 44 90.4772 44 96V152C44 157.523 48.4772 162 54 162V164L53.6904 163.996C47.2061 163.832 42 158.524 42 152V96C42 89.3726 47.3726 84 54 84H166C172.627 84 178 89.3726 178 96V152C178 158.627 172.627 164 166 164V162C171.523 162 176 157.523 176 152Z"></path>
</mask>
<path mask="url(#path-5-inside-1_4412_3214)" fill-opacity="0.247059" fill="#005A92" d="M54 164L53.3691 213.996L53.6846 214H54V164ZM176 96H226V96L176 96ZM53.6904 163.996L52.4247 213.98L52.7421 213.988L53.0596 213.992L53.6904 163.996ZM178 96H228V96L178 96ZM166 162H116V164H166H216V162H166ZM166 164V114H54V164V214H166V164ZM54 164H104V162H54H4V164H54ZM54 162V212H166V162V112H54V162ZM176 152H226V96H176H126V152H176ZM176 96L226 96C226 62.8629 199.137 36 166 36V86V136C143.909 136 126 118.091 126 96L176 96ZM166 86V36H54V86V136H166V86ZM54 86V36C20.8629 36 -6 62.8629 -6 96H44H94C94 118.091 76.0914 136 54 136V86ZM44 96H-6V152H44H94V96H44ZM44 152H-6C-6 185.137 20.8629 212 54 212L54 162L54 112C76.0914 112 94 129.909 94 152H44ZM54 162H4V164H54H104V162H54ZM54 164L54.6309 114.004L54.3213 114L53.6904 163.996L53.0596 213.992L53.3691 213.996L54 164ZM53.6904 163.996L54.9562 114.012C75.5151 114.533 92 131.334 92 152H42H-8C-8 185.714 18.897 213.131 52.4247 213.98L53.6904 163.996ZM42 152H92V96H42H-8V152H42ZM42 96H92C92 116.987 74.9868 134 54 134V84V34C19.7583 34 -8 61.7583 -8 96H42ZM54 84V134H166V84V34H54V84ZM166 84V134C145.013 134 128 116.987 128 96L178 96L228 96C228 61.7583 200.242 34 166 34V84ZM178 96H128V152H178H228V96H178ZM178 152H128C128 131.013 145.013 114 166 114V164V214C200.242 214 228 186.242 228 152H178ZM166 164H216V162H166H116V164H166ZM166 162V212C199.137 212 226 185.137 226 152H176H126C126 129.909 143.909 112 166 112V162Z"></path>
<path fill="#417DA0" d="M54 98C54 95.7909 55.7909 94 58 94H147C149.209 94 151 95.7909 151 98C151 100.209 149.209 102 147 102H58C55.7909 102 54 100.209 54 98Z"></path>
<path fill="#417DA0" d="M54 124C54 121.791 55.7909 120 58 120H137C139.209 120 141 121.791 141 124C141 126.209 139.209 128 137 128H58C55.7909 128 54 126.209 54 124Z"></path>
<path fill="#417DA0" d="M54 150C54 147.791 55.7909 146 58 146H143C145.209 146 147 147.791 147 150C147 152.209 145.209 154 143 154H58C55.7909 154 54 152.209 54 150Z"></path>
<mask fill="white" id="path-10-inside-2_4412_3214">
<path d="M176 135V137H44V135H176ZM176 111V113H44V111H176Z"></path>
</mask>
<path mask="url(#path-10-inside-2_4412_3214)" fill-opacity="0.247059" fill="#005A92" d="M176 135H226V85H176V135ZM176 137V187H226V137H176ZM44 137H-6V187H44V137ZM44 135V85H-6V135H44ZM176 111H226V61H176V111ZM176 113V163H226V113H176ZM44 113H-6V163H44V113ZM44 111V61H-6V111H44ZM176 135H126V137H176H226V135H176ZM176 137V87H44V137V187H176V137ZM44 137H94V135H44H-6V137H44ZM44 135V185H176V135V85H44V135ZM176 111H126V113H176H226V111H176ZM176 113V63H44V113V163H176V113ZM44 113H94V111H44H-6V113H44ZM44 111V161H176V111V61H44V111Z"></path>
</svg>
