<svg xmlns="http://www.w3.org/2000/svg" fill="none" viewBox="0 0 384 160" height="160" width="384">
<path fill="#262626" d="M20.494 42V30.228H27.586V31.992H22.582V34.998H26.812V36.762H22.582V40.236H27.766V42H20.494ZM29.4415 38.22V36.708H33.7255V38.22H29.4415ZM35.8003 45.492V33.162H37.5103L37.6543 34.098H37.7263C38.0983 33.786 38.5123 33.516 38.9683 33.288C39.4363 33.06 39.9103 32.946 40.3903 32.946C41.4943 32.946 42.3463 33.354 42.9463 34.17C43.5583 34.986 43.8643 36.078 43.8643 37.446C43.8643 38.454 43.6843 39.318 43.3243 40.038C42.9643 40.746 42.4963 41.286 41.9203 41.658C41.3563 42.03 40.7443 42.216 40.0843 42.216C39.7003 42.216 39.3163 42.132 38.9323 41.964C38.5483 41.784 38.1763 41.544 37.8163 41.244L37.8703 42.72V45.492H35.8003ZM39.6523 40.506C40.2403 40.506 40.7323 40.248 41.1283 39.732C41.5243 39.216 41.7223 38.46 41.7223 37.464C41.7223 36.576 41.5723 35.886 41.2723 35.394C40.9723 34.902 40.4863 34.656 39.8143 34.656C39.1903 34.656 38.5423 34.986 37.8703 35.646V39.768C38.1943 40.032 38.5063 40.224 38.8063 40.344C39.1063 40.452 39.3883 40.506 39.6523 40.506ZM49.5785 42.216C48.8465 42.216 48.1625 42.036 47.5265 41.676C46.8905 41.304 46.3745 40.776 45.9785 40.092C45.5825 39.396 45.3845 38.562 45.3845 37.59C45.3845 36.606 45.5825 35.772 45.9785 35.088C46.3745 34.392 46.8905 33.864 47.5265 33.504C48.1625 33.132 48.8465 32.946 49.5785 32.946C50.3225 32.946 51.0125 33.132 51.6485 33.504C52.2845 33.864 52.8005 34.392 53.1965 35.088C53.5925 35.772 53.7905 36.606 53.7905 37.59C53.7905 38.562 53.5925 39.396 53.1965 40.092C52.8005 40.776 52.2845 41.304 51.6485 41.676C51.0125 42.036 50.3225 42.216 49.5785 42.216ZM49.5785 40.524C50.2265 40.524 50.7365 40.254 51.1085 39.714C51.4805 39.174 51.6665 38.466 51.6665 37.59C51.6665 36.702 51.4805 35.988 51.1085 35.448C50.7365 34.908 50.2265 34.638 49.5785 34.638C48.9305 34.638 48.4205 34.908 48.0485 35.448C47.6885 35.988 47.5085 36.702 47.5085 37.59C47.5085 38.466 47.6885 39.174 48.0485 39.714C48.4205 40.254 48.9305 40.524 49.5785 40.524ZM58.2351 42.216C57.6351 42.216 57.0351 42.102 56.4351 41.874C55.8351 41.634 55.3191 41.34 54.8871 40.992L55.8591 39.66C56.2551 39.96 56.6511 40.2 57.0471 40.38C57.4431 40.56 57.8631 40.65 58.3071 40.65C58.7871 40.65 59.1411 40.548 59.3691 40.344C59.5971 40.14 59.7111 39.888 59.7111 39.588C59.7111 39.336 59.6151 39.132 59.4231 38.976C59.2431 38.808 59.0091 38.664 58.7211 38.544C58.4331 38.412 58.1331 38.286 57.8211 38.166C57.4371 38.022 57.0531 37.848 56.6691 37.644C56.2971 37.428 55.9911 37.158 55.7511 36.834C55.5111 36.498 55.3911 36.084 55.3911 35.592C55.3911 34.812 55.6791 34.176 56.2551 33.684C56.8311 33.192 57.6111 32.946 58.5951 32.946C59.2191 32.946 59.7771 33.054 60.2691 33.27C60.7611 33.486 61.1871 33.732 61.5471 34.008L60.5931 35.268C60.2811 35.04 59.9631 34.86 59.6391 34.728C59.3271 34.584 58.9971 34.512 58.6491 34.512C58.2051 34.512 57.8751 34.608 57.6591 34.8C57.4431 34.98 57.3351 35.208 57.3351 35.484C57.3351 35.832 57.5151 36.096 57.8751 36.276C58.2351 36.456 58.6551 36.63 59.1351 36.798C59.5431 36.942 59.9391 37.122 60.3231 37.338C60.7071 37.542 61.0251 37.812 61.2771 38.148C61.5411 38.484 61.6731 38.928 61.6731 39.48C61.6731 40.236 61.3791 40.884 60.7911 41.424C60.2031 41.952 59.3511 42.216 58.2351 42.216ZM66.2835 42.216C65.2635 42.216 64.5375 41.922 64.1055 41.334C63.6855 40.734 63.4755 39.96 63.4755 39.012V34.8H62.2155V33.252L63.5835 33.162L63.8355 30.75H65.5635V33.162H67.8135V34.8H65.5635V39.012C65.5635 40.044 65.9775 40.56 66.8055 40.56C66.9615 40.56 67.1235 40.542 67.2915 40.506C67.4595 40.458 67.6035 40.41 67.7235 40.362L68.0835 41.892C67.8435 41.976 67.5675 42.048 67.2555 42.108C66.9555 42.18 66.6315 42.216 66.2835 42.216Z"></path>
<rect fill="white" rx="3" height="46" width="344" y="57" x="20"></rect>
<path fill="#262626" d="M28.422 86V84.776H31.05V76.316H28.962V75.362C29.49 75.266 29.946 75.152 30.33 75.02C30.726 74.876 31.08 74.708 31.392 74.516H32.526V84.776H34.902V86H28.422ZM36.6673 86V85.118C37.8193 83.966 38.7973 82.958 39.6013 82.094C40.4053 81.218 41.0173 80.432 41.4373 79.736C41.8573 79.028 42.0673 78.368 42.0673 77.756C42.0673 77.096 41.8873 76.556 41.5273 76.136C41.1673 75.716 40.6213 75.506 39.8893 75.506C39.4093 75.506 38.9653 75.644 38.5573 75.92C38.1493 76.184 37.7773 76.508 37.4413 76.892L36.5953 76.046C37.0753 75.518 37.5853 75.098 38.1253 74.786C38.6773 74.462 39.3253 74.3 40.0693 74.3C41.1373 74.3 41.9773 74.612 42.5893 75.236C43.2013 75.848 43.5073 76.664 43.5073 77.684C43.5073 78.404 43.3033 79.136 42.8953 79.88C42.4993 80.612 41.9473 81.386 41.2393 82.202C40.5433 83.006 39.7393 83.882 38.8273 84.83C39.1393 84.806 39.4633 84.782 39.7993 84.758C40.1353 84.734 40.4533 84.722 40.7533 84.722H44.0833V86H36.6673ZM49.1425 86.216C48.2305 86.216 47.4685 86.054 46.8565 85.73C46.2445 85.394 45.7465 85.016 45.3625 84.596L46.1185 83.624C46.4665 83.984 46.8745 84.302 47.3425 84.578C47.8105 84.854 48.3805 84.992 49.0525 84.992C49.7485 84.992 50.3185 84.8 50.7625 84.416C51.2065 84.032 51.4285 83.522 51.4285 82.886C51.4285 82.43 51.3085 82.034 51.0685 81.698C50.8405 81.35 50.4565 81.08 49.9165 80.888C49.3885 80.696 48.6685 80.6 47.7565 80.6V79.466C48.5725 79.466 49.2145 79.37 49.6825 79.178C50.1625 78.986 50.5045 78.728 50.7085 78.404C50.9125 78.08 51.0145 77.72 51.0145 77.324C51.0145 76.76 50.8345 76.316 50.4745 75.992C50.1265 75.668 49.6465 75.506 49.0345 75.506C48.5545 75.506 48.1105 75.614 47.7025 75.83C47.3065 76.046 46.9345 76.328 46.5865 76.676L45.7945 75.74C46.2385 75.32 46.7305 74.978 47.2705 74.714C47.8105 74.438 48.4165 74.3 49.0885 74.3C50.0845 74.3 50.9065 74.558 51.5545 75.074C52.2025 75.578 52.5265 76.292 52.5265 77.216C52.5265 77.912 52.3345 78.482 51.9505 78.926C51.5665 79.37 51.0625 79.712 50.4385 79.952V80.024C51.1345 80.18 51.7225 80.51 52.2025 81.014C52.6825 81.506 52.9225 82.148 52.9225 82.94C52.9225 83.612 52.7545 84.194 52.4185 84.686C52.0825 85.178 51.6265 85.556 51.0505 85.82C50.4865 86.084 49.8505 86.216 49.1425 86.216ZM55.7138 81.644H59.3138V78.314C59.3138 78.002 59.3258 77.63 59.3498 77.198C59.3738 76.766 59.3918 76.4 59.4038 76.1H59.3318C59.1878 76.376 59.0378 76.646 58.8818 76.91C58.7258 77.174 58.5638 77.444 58.3958 77.72L55.7138 81.644ZM59.3138 86V82.832H54.1478V81.86L59.0618 74.516H60.7178V81.644H62.2838V82.832H60.7178V86H59.3138ZM67.0011 86.216C66.0891 86.216 65.3331 86.054 64.7331 85.73C64.1331 85.406 63.6351 85.046 63.2391 84.65L63.9591 83.678C64.3071 84.014 64.7091 84.32 65.1651 84.596C65.6211 84.86 66.1851 84.992 66.8571 84.992C67.5651 84.992 68.1591 84.758 68.6391 84.29C69.1311 83.81 69.3771 83.168 69.3771 82.364C69.3771 81.572 69.1551 80.954 68.7111 80.51C68.2671 80.066 67.6731 79.844 66.9291 79.844C66.5331 79.844 66.1911 79.904 65.9031 80.024C65.6271 80.144 65.3151 80.318 64.9671 80.546L64.1751 80.042L64.5531 74.516H70.2951V75.794H65.8491L65.5431 79.196C65.8191 79.052 66.0951 78.938 66.3711 78.854C66.6471 78.77 66.9591 78.728 67.3071 78.728C67.9671 78.728 68.5611 78.86 69.0891 79.124C69.6291 79.376 70.0611 79.766 70.3851 80.294C70.7091 80.822 70.8711 81.5 70.8711 82.328C70.8711 83.156 70.6851 83.864 70.3131 84.452C69.9531 85.028 69.4791 85.466 68.8911 85.766C68.3031 86.066 67.6731 86.216 67.0011 86.216ZM73.9863 86.216C73.6863 86.216 73.4283 86.114 73.2123 85.91C73.0083 85.694 72.9063 85.424 72.9063 85.1C72.9063 84.752 73.0083 84.476 73.2123 84.272C73.4283 84.056 73.6863 83.948 73.9863 83.948C74.2743 83.948 74.5203 84.056 74.7243 84.272C74.9403 84.476 75.0483 84.752 75.0483 85.1C75.0483 85.424 74.9403 85.694 74.7243 85.91C74.5203 86.114 74.2743 86.216 73.9863 86.216ZM77.6948 86V77.252H78.9188L79.0448 78.512H79.0988C79.5188 78.092 79.9628 77.744 80.4308 77.468C80.8988 77.18 81.4328 77.036 82.0328 77.036C82.9568 77.036 83.6288 77.33 84.0488 77.918C84.4808 78.494 84.6968 79.34 84.6968 80.456V86H83.2208V80.654C83.2208 79.838 83.0888 79.244 82.8248 78.872C82.5608 78.5 82.1408 78.314 81.5648 78.314C81.1208 78.314 80.7188 78.428 80.3588 78.656C80.0108 78.884 79.6148 79.22 79.1708 79.664V86H77.6948ZM90.9405 86.216C90.2325 86.216 89.5665 86.036 88.9425 85.676C88.3305 85.316 87.8325 84.794 87.4485 84.11C87.0765 83.426 86.8905 82.604 86.8905 81.644C86.8905 80.66 87.0765 79.826 87.4485 79.142C87.8325 78.458 88.3305 77.936 88.9425 77.576C89.5665 77.216 90.2325 77.036 90.9405 77.036C91.6605 77.036 92.3265 77.216 92.9385 77.576C93.5505 77.936 94.0425 78.458 94.4145 79.142C94.7985 79.826 94.9905 80.66 94.9905 81.644C94.9905 82.604 94.7985 83.426 94.4145 84.11C94.0425 84.794 93.5505 85.316 92.9385 85.676C92.3265 86.036 91.6605 86.216 90.9405 86.216ZM90.9405 84.992C91.6965 84.992 92.3025 84.686 92.7585 84.074C93.2265 83.45 93.4605 82.64 93.4605 81.644C93.4605 80.636 93.2265 79.82 92.7585 79.196C92.3025 78.572 91.6965 78.26 90.9405 78.26C90.1965 78.26 89.5905 78.572 89.1225 79.196C88.6545 79.82 88.4205 80.636 88.4205 81.644C88.4205 82.64 88.6545 83.45 89.1225 84.074C89.5905 84.686 90.1965 84.992 90.9405 84.992Z"></path>
<rect stroke-width="2" stroke="#C30000" rx="3" height="46" width="344" y="57" x="20"></rect>
<path fill="#C30000" d="M21.916 127.606C21.316 127.606 20.8 127.39 20.368 126.958C19.936 126.514 19.72 125.95 19.72 125.266C19.72 124.81 19.816 124.408 20.008 124.06C20.212 123.712 20.482 123.436 20.818 123.232C21.154 123.028 21.52 122.926 21.916 122.926C22.324 122.926 22.696 123.028 23.032 123.232C23.368 123.436 23.632 123.712 23.824 124.06C24.028 124.408 24.13 124.81 24.13 125.266C24.13 125.95 23.914 126.514 23.482 126.958C23.05 127.39 22.528 127.606 21.916 127.606Z"></path>
<path fill="#C30000" d="M36.6 130L32.928 118.228H35.142L36.798 124.15C36.99 124.81 37.164 125.446 37.32 126.058C37.476 126.67 37.65 127.312 37.842 127.984H37.914C38.118 127.312 38.292 126.67 38.436 126.058C38.592 125.446 38.76 124.81 38.94 124.15L40.578 118.228H42.72L39.066 130H36.6ZM47.4456 130.216C46.6296 130.216 45.8916 130.036 45.2316 129.676C44.5716 129.304 44.0496 128.776 43.6656 128.092C43.2816 127.396 43.0896 126.562 43.0896 125.59C43.0896 124.63 43.2816 123.802 43.6656 123.106C44.0616 122.41 44.5716 121.876 45.1956 121.504C45.8196 121.132 46.4736 120.946 47.1576 120.946C47.9616 120.946 48.6336 121.126 49.1736 121.486C49.7136 121.834 50.1216 122.326 50.3976 122.962C50.6736 123.586 50.8116 124.312 50.8116 125.14C50.8116 125.572 50.7816 125.908 50.7216 126.148H45.1056C45.2016 126.928 45.4836 127.534 45.9516 127.966C46.4196 128.398 47.0076 128.614 47.7156 128.614C48.0996 128.614 48.4536 128.56 48.7776 128.452C49.1136 128.332 49.4436 128.17 49.7676 127.966L50.4696 129.262C50.0496 129.538 49.5816 129.766 49.0656 129.946C48.5496 130.126 48.0096 130.216 47.4456 130.216ZM45.0876 124.744H49.0116C49.0116 124.06 48.8616 123.526 48.5616 123.142C48.2616 122.746 47.8116 122.548 47.2116 122.548C46.6956 122.548 46.2336 122.74 45.8256 123.124C45.4296 123.496 45.1836 124.036 45.0876 124.744ZM52.7886 130V121.162H54.4986L54.6426 122.35H54.7146C55.1106 121.966 55.5426 121.636 56.0106 121.36C56.4786 121.084 57.0126 120.946 57.6126 120.946C58.5606 120.946 59.2506 121.252 59.6826 121.864C60.1146 122.476 60.3306 123.34 60.3306 124.456V130H58.2606V124.726C58.2606 123.994 58.1526 123.478 57.9366 123.178C57.7206 122.878 57.3666 122.728 56.8746 122.728C56.4906 122.728 56.1486 122.824 55.8486 123.016C55.5606 123.196 55.2306 123.466 54.8586 123.826V130H52.7886ZM62.8609 130V121.162H64.5709L64.7149 122.35H64.7869C65.1829 121.966 65.6149 121.636 66.0829 121.36C66.5509 121.084 67.0849 120.946 67.6849 120.946C68.6329 120.946 69.3229 121.252 69.7549 121.864C70.1869 122.476 70.4029 123.34 70.4029 124.456V130H68.3329V124.726C68.3329 123.994 68.2249 123.478 68.0089 123.178C67.7929 122.878 67.4389 122.728 66.9469 122.728C66.5629 122.728 66.2209 122.824 65.9209 123.016C65.6329 123.196 65.3029 123.466 64.9309 123.826V130H62.8609ZM74.9491 130.216C74.2171 130.216 73.6951 129.994 73.3831 129.55C73.0831 129.106 72.9331 128.5 72.9331 127.732V117.292H75.0031V127.84C75.0031 128.092 75.0511 128.272 75.1471 128.38C75.2431 128.476 75.3451 128.524 75.4531 128.524C75.5011 128.524 75.5431 128.524 75.5791 128.524C75.6271 128.512 75.6931 128.5 75.7771 128.488L76.0471 130.036C75.9271 130.084 75.7711 130.126 75.5791 130.162C75.3991 130.198 75.1891 130.216 74.9491 130.216ZM77.8199 130V121.162H79.8899V130H77.8199ZM78.8639 119.614C78.4919 119.614 78.1919 119.506 77.9639 119.29C77.7359 119.074 77.6219 118.786 77.6219 118.426C77.6219 118.078 77.7359 117.796 77.9639 117.58C78.1919 117.364 78.4919 117.256 78.8639 117.256C79.2359 117.256 79.5359 117.364 79.7639 117.58C79.9919 117.796 80.1059 118.078 80.1059 118.426C80.1059 118.786 79.9919 119.074 79.7639 119.29C79.5359 119.506 79.2359 119.614 78.8639 119.614ZM85.6088 133.906C84.9128 133.906 84.2828 133.822 83.7188 133.654C83.1668 133.486 82.7288 133.228 82.4048 132.88C82.0928 132.544 81.9368 132.118 81.9368 131.602C81.9368 130.87 82.3568 130.24 83.1968 129.712V129.64C82.9688 129.496 82.7768 129.304 82.6208 129.064C82.4768 128.824 82.4048 128.524 82.4048 128.164C82.4048 127.816 82.5008 127.504 82.6928 127.228C82.8968 126.94 83.1248 126.706 83.3768 126.526V126.454C83.0768 126.226 82.8068 125.908 82.5668 125.5C82.3388 125.092 82.2248 124.63 82.2248 124.114C82.2248 123.43 82.3868 122.854 82.7108 122.386C83.0348 121.918 83.4608 121.564 83.9888 121.324C84.5288 121.072 85.1048 120.946 85.7168 120.946C85.9568 120.946 86.1848 120.97 86.4008 121.018C86.6288 121.054 86.8328 121.102 87.0128 121.162H90.1808V122.692H88.5608C88.7048 122.86 88.8248 123.076 88.9208 123.34C89.0168 123.592 89.0648 123.874 89.0648 124.186C89.0648 124.834 88.9148 125.386 88.6148 125.842C88.3148 126.286 87.9128 126.622 87.4088 126.85C86.9048 127.078 86.3408 127.192 85.7168 127.192C85.5248 127.192 85.3268 127.174 85.1228 127.138C84.9188 127.102 84.7148 127.042 84.5108 126.958C84.3788 127.078 84.2708 127.198 84.1868 127.318C84.1148 127.438 84.0788 127.6 84.0788 127.804C84.0788 128.056 84.1808 128.254 84.3848 128.398C84.6008 128.542 84.9788 128.614 85.5188 128.614H87.0848C88.1528 128.614 88.9568 128.788 89.4968 129.136C90.0488 129.472 90.3248 130.024 90.3248 130.792C90.3248 131.368 90.1328 131.89 89.7488 132.358C89.3648 132.838 88.8188 133.216 88.1108 133.492C87.4028 133.768 86.5688 133.906 85.6088 133.906ZM85.7168 125.896C86.1368 125.896 86.4968 125.74 86.7968 125.428C87.0968 125.116 87.2468 124.678 87.2468 124.114C87.2468 123.562 87.0968 123.136 86.7968 122.836C86.5088 122.524 86.1488 122.368 85.7168 122.368C85.2848 122.368 84.9188 122.518 84.6188 122.818C84.3188 123.118 84.1688 123.55 84.1688 124.114C84.1688 124.678 84.3188 125.116 84.6188 125.428C84.9188 125.74 85.2848 125.896 85.7168 125.896ZM85.9328 132.556C86.6408 132.556 87.2168 132.412 87.6608 132.124C88.1048 131.836 88.3268 131.506 88.3268 131.134C88.3268 130.786 88.1888 130.552 87.9128 130.432C87.6488 130.312 87.2648 130.252 86.7608 130.252H85.5548C85.0748 130.252 84.6728 130.21 84.3488 130.126C83.8928 130.474 83.6648 130.864 83.6648 131.296C83.6648 131.692 83.8688 131.998 84.2768 132.214C84.6848 132.442 85.2368 132.556 85.9328 132.556ZM94.3484 130.216C93.7484 130.216 93.1484 130.102 92.5484 129.874C91.9484 129.634 91.4324 129.34 91.0004 128.992L91.9724 127.66C92.3684 127.96 92.7644 128.2 93.1604 128.38C93.5564 128.56 93.9764 128.65 94.4204 128.65C94.9004 128.65 95.2544 128.548 95.4824 128.344C95.7104 128.14 95.8244 127.888 95.8244 127.588C95.8244 127.336 95.7284 127.132 95.5364 126.976C95.3564 126.808 95.1224 126.664 94.8344 126.544C94.5464 126.412 94.2464 126.286 93.9344 126.166C93.5504 126.022 93.1664 125.848 92.7824 125.644C92.4104 125.428 92.1044 125.158 91.8644 124.834C91.6244 124.498 91.5044 124.084 91.5044 123.592C91.5044 122.812 91.7924 122.176 92.3684 121.684C92.9444 121.192 93.7244 120.946 94.7084 120.946C95.3324 120.946 95.8904 121.054 96.3824 121.27C96.8744 121.486 97.3004 121.732 97.6604 122.008L96.7064 123.268C96.3944 123.04 96.0764 122.86 95.7524 122.728C95.4404 122.584 95.1104 122.512 94.7624 122.512C94.3184 122.512 93.9884 122.608 93.7724 122.8C93.5564 122.98 93.4484 123.208 93.4484 123.484C93.4484 123.832 93.6284 124.096 93.9884 124.276C94.3484 124.456 94.7684 124.63 95.2484 124.798C95.6564 124.942 96.0524 125.122 96.4364 125.338C96.8204 125.542 97.1384 125.812 97.3904 126.148C97.6544 126.484 97.7864 126.928 97.7864 127.48C97.7864 128.236 97.4924 128.884 96.9044 129.424C96.3164 129.952 95.4644 130.216 94.3484 130.216ZM102.397 130.216C101.377 130.216 100.651 129.922 100.219 129.334C99.7988 128.734 99.5888 127.96 99.5888 127.012V122.8H98.3288V121.252L99.6968 121.162L99.9488 118.75H101.677V121.162H103.927V122.8H101.677V127.012C101.677 128.044 102.091 128.56 102.919 128.56C103.075 128.56 103.237 128.542 103.405 128.506C103.573 128.458 103.717 128.41 103.837 128.362L104.197 129.892C103.957 129.976 103.681 130.048 103.369 130.108C103.069 130.18 102.745 130.216 102.397 130.216ZM111.856 130.216C111.256 130.216 110.656 130.102 110.056 129.874C109.456 129.634 108.94 129.34 108.508 128.992L109.48 127.66C109.876 127.96 110.272 128.2 110.668 128.38C111.064 128.56 111.484 128.65 111.928 128.65C112.408 128.65 112.762 128.548 112.99 128.344C113.218 128.14 113.332 127.888 113.332 127.588C113.332 127.336 113.236 127.132 113.044 126.976C112.864 126.808 112.63 126.664 112.342 126.544C112.054 126.412 111.754 126.286 111.442 126.166C111.058 126.022 110.674 125.848 110.29 125.644C109.918 125.428 109.612 125.158 109.372 124.834C109.132 124.498 109.012 124.084 109.012 123.592C109.012 122.812 109.3 122.176 109.876 121.684C110.452 121.192 111.232 120.946 112.216 120.946C112.84 120.946 113.398 121.054 113.89 121.27C114.382 121.486 114.808 121.732 115.168 122.008L114.214 123.268C113.902 123.04 113.584 122.86 113.26 122.728C112.948 122.584 112.618 122.512 112.27 122.512C111.826 122.512 111.496 122.608 111.28 122.8C111.064 122.98 110.956 123.208 110.956 123.484C110.956 123.832 111.136 124.096 111.496 124.276C111.856 124.456 112.276 124.63 112.756 124.798C113.164 124.942 113.56 125.122 113.944 125.338C114.328 125.542 114.646 125.812 114.898 126.148C115.162 126.484 115.294 126.928 115.294 127.48C115.294 128.236 115 128.884 114.412 129.424C113.824 129.952 112.972 130.216 111.856 130.216ZM117.142 130V117.292H119.176V125.23H119.23L122.506 121.162H124.774L121.75 124.762L125.08 130H122.83L120.562 126.166L119.176 127.75V130H117.142ZM126.546 130V121.162H128.256L128.4 122.728H128.472C128.784 122.152 129.162 121.714 129.606 121.414C130.05 121.102 130.506 120.946 130.974 120.946C131.394 120.946 131.73 121.006 131.982 121.126L131.622 122.926C131.466 122.878 131.322 122.842 131.19 122.818C131.058 122.794 130.896 122.782 130.704 122.782C130.356 122.782 129.99 122.92 129.606 123.196C129.222 123.46 128.892 123.928 128.616 124.6V130H126.546ZM133.261 130V121.162H135.331V130H133.261ZM134.305 119.614C133.933 119.614 133.633 119.506 133.405 119.29C133.177 119.074 133.063 118.786 133.063 118.426C133.063 118.078 133.177 117.796 133.405 117.58C133.633 117.364 133.933 117.256 134.305 117.256C134.677 117.256 134.977 117.364 135.205 117.58C135.433 117.796 135.547 118.078 135.547 118.426C135.547 118.786 135.433 119.074 135.205 119.29C134.977 119.506 134.677 119.614 134.305 119.614ZM139.952 130L136.874 121.162H138.98L140.384 125.752C140.504 126.184 140.624 126.622 140.744 127.066C140.876 127.51 141.002 127.96 141.122 128.416H141.194C141.326 127.96 141.452 127.51 141.572 127.066C141.704 126.622 141.83 126.184 141.95 125.752L143.354 121.162H145.352L142.346 130H139.952ZM150.488 130V121.162H152.558V130H150.488ZM151.532 119.614C151.16 119.614 150.86 119.506 150.632 119.29C150.404 119.074 150.29 118.786 150.29 118.426C150.29 118.078 150.404 117.796 150.632 117.58C150.86 117.364 151.16 117.256 151.532 117.256C151.904 117.256 152.204 117.364 152.432 117.58C152.66 117.796 152.774 118.078 152.774 118.426C152.774 118.786 152.66 119.074 152.432 119.29C152.204 119.506 151.904 119.614 151.532 119.614ZM155.199 130V121.162H156.909L157.053 122.35H157.125C157.521 121.966 157.953 121.636 158.421 121.36C158.889 121.084 159.423 120.946 160.023 120.946C160.971 120.946 161.661 121.252 162.093 121.864C162.525 122.476 162.741 123.34 162.741 124.456V130H160.671V124.726C160.671 123.994 160.563 123.478 160.347 123.178C160.131 122.878 159.777 122.728 159.285 122.728C158.901 122.728 158.559 122.824 158.259 123.016C157.971 123.196 157.641 123.466 157.269 123.826V130H155.199ZM165.271 130V121.162H166.981L167.125 122.35H167.197C167.593 121.966 168.025 121.636 168.493 121.36C168.961 121.084 169.495 120.946 170.095 120.946C171.043 120.946 171.733 121.252 172.165 121.864C172.597 122.476 172.813 123.34 172.813 124.456V130H170.743V124.726C170.743 123.994 170.635 123.478 170.419 123.178C170.203 122.878 169.849 122.728 169.357 122.728C168.973 122.728 168.631 122.824 168.331 123.016C168.043 123.196 167.713 123.466 167.341 123.826V130H165.271ZM182.727 130.216C181.911 130.216 181.173 130.036 180.513 129.676C179.853 129.304 179.331 128.776 178.947 128.092C178.563 127.396 178.371 126.562 178.371 125.59C178.371 124.63 178.563 123.802 178.947 123.106C179.343 122.41 179.853 121.876 180.477 121.504C181.101 121.132 181.755 120.946 182.439 120.946C183.243 120.946 183.915 121.126 184.455 121.486C184.995 121.834 185.403 122.326 185.679 122.962C185.955 123.586 186.093 124.312 186.093 125.14C186.093 125.572 186.063 125.908 186.003 126.148H180.387C180.483 126.928 180.765 127.534 181.233 127.966C181.701 128.398 182.289 128.614 182.997 128.614C183.381 128.614 183.735 128.56 184.059 128.452C184.395 128.332 184.725 128.17 185.049 127.966L185.751 129.262C185.331 129.538 184.863 129.766 184.347 129.946C183.831 130.126 183.291 130.216 182.727 130.216ZM180.369 124.744H184.293C184.293 124.06 184.143 123.526 183.843 123.142C183.543 122.746 183.093 122.548 182.493 122.548C181.977 122.548 181.515 122.74 181.107 123.124C180.711 123.496 180.465 124.036 180.369 124.744ZM188.07 130V121.162H189.78L189.924 122.35H189.996C190.392 121.966 190.824 121.636 191.292 121.36C191.76 121.084 192.294 120.946 192.894 120.946C193.842 120.946 194.532 121.252 194.964 121.864C195.396 122.476 195.612 123.34 195.612 124.456V130H193.542V124.726C193.542 123.994 193.434 123.478 193.218 123.178C193.002 122.878 192.648 122.728 192.156 122.728C191.772 122.728 191.43 122.824 191.13 123.016C190.842 123.196 190.512 123.466 190.14 123.826V130H188.07ZM204.824 133.906C204.128 133.906 203.498 133.822 202.934 133.654C202.382 133.486 201.944 133.228 201.62 132.88C201.308 132.544 201.152 132.118 201.152 131.602C201.152 130.87 201.572 130.24 202.412 129.712V129.64C202.184 129.496 201.992 129.304 201.836 129.064C201.692 128.824 201.62 128.524 201.62 128.164C201.62 127.816 201.716 127.504 201.908 127.228C202.112 126.94 202.34 126.706 202.592 126.526V126.454C202.292 126.226 202.022 125.908 201.782 125.5C201.554 125.092 201.44 124.63 201.44 124.114C201.44 123.43 201.602 122.854 201.926 122.386C202.25 121.918 202.676 121.564 203.204 121.324C203.744 121.072 204.32 120.946 204.932 120.946C205.172 120.946 205.4 120.97 205.616 121.018C205.844 121.054 206.048 121.102 206.228 121.162H209.396V122.692H207.776C207.92 122.86 208.04 123.076 208.136 123.34C208.232 123.592 208.28 123.874 208.28 124.186C208.28 124.834 208.13 125.386 207.83 125.842C207.53 126.286 207.128 126.622 206.624 126.85C206.12 127.078 205.556 127.192 204.932 127.192C204.74 127.192 204.542 127.174 204.338 127.138C204.134 127.102 203.93 127.042 203.726 126.958C203.594 127.078 203.486 127.198 203.402 127.318C203.33 127.438 203.294 127.6 203.294 127.804C203.294 128.056 203.396 128.254 203.6 128.398C203.816 128.542 204.194 128.614 204.734 128.614H206.3C207.368 128.614 208.172 128.788 208.712 129.136C209.264 129.472 209.54 130.024 209.54 130.792C209.54 131.368 209.348 131.89 208.964 132.358C208.58 132.838 208.034 133.216 207.326 133.492C206.618 133.768 205.784 133.906 204.824 133.906ZM204.932 125.896C205.352 125.896 205.712 125.74 206.012 125.428C206.312 125.116 206.462 124.678 206.462 124.114C206.462 123.562 206.312 123.136 206.012 122.836C205.724 122.524 205.364 122.368 204.932 122.368C204.5 122.368 204.134 122.518 203.834 122.818C203.534 123.118 203.384 123.55 203.384 124.114C203.384 124.678 203.534 125.116 203.834 125.428C204.134 125.74 204.5 125.896 204.932 125.896ZM205.148 132.556C205.856 132.556 206.432 132.412 206.876 132.124C207.32 131.836 207.542 131.506 207.542 131.134C207.542 130.786 207.404 130.552 207.128 130.432C206.864 130.312 206.48 130.252 205.976 130.252H204.77C204.29 130.252 203.888 130.21 203.564 130.126C203.108 130.474 202.88 130.864 202.88 131.296C202.88 131.692 203.084 131.998 203.492 132.214C203.9 132.442 204.452 132.556 205.148 132.556ZM211.867 133.636C211.627 133.636 211.417 133.618 211.237 133.582C211.057 133.546 210.883 133.504 210.715 133.456L211.093 131.836C211.177 131.86 211.273 131.884 211.381 131.908C211.501 131.944 211.615 131.962 211.723 131.962C212.191 131.962 212.563 131.818 212.839 131.53C213.127 131.254 213.343 130.894 213.487 130.45L213.649 129.892L210.175 121.162H212.281L213.811 125.5C213.943 125.884 214.069 126.292 214.189 126.724C214.321 127.144 214.453 127.564 214.585 127.984H214.657C214.765 127.576 214.873 127.162 214.981 126.742C215.101 126.31 215.215 125.896 215.323 125.5L216.655 121.162H218.653L215.449 130.396C215.077 131.392 214.627 132.178 214.099 132.754C213.571 133.342 212.827 133.636 211.867 133.636ZM222.201 130.216C221.469 130.216 220.947 129.994 220.635 129.55C220.335 129.106 220.185 128.5 220.185 127.732V117.292H222.255V127.84C222.255 128.092 222.303 128.272 222.399 128.38C222.495 128.476 222.597 128.524 222.705 128.524C222.753 128.524 222.795 128.524 222.831 128.524C222.879 128.512 222.945 128.5 223.029 128.488L223.299 130.036C223.179 130.084 223.023 130.126 222.831 130.162C222.651 130.198 222.441 130.216 222.201 130.216ZM228.168 130.216C227.064 130.216 226.182 129.808 225.522 128.992C224.862 128.176 224.532 127.042 224.532 125.59C224.532 124.63 224.706 123.802 225.054 123.106C225.414 122.41 225.882 121.876 226.458 121.504C227.034 121.132 227.64 120.946 228.276 120.946C228.78 120.946 229.206 121.036 229.554 121.216C229.914 121.384 230.262 121.618 230.598 121.918L230.526 120.496V117.292H232.596V130H230.886L230.742 129.046H230.67C230.346 129.37 229.968 129.646 229.536 129.874C229.104 130.102 228.648 130.216 228.168 130.216ZM228.672 128.506C229.332 128.506 229.95 128.176 230.526 127.516V123.394C230.226 123.118 229.926 122.926 229.626 122.818C229.326 122.71 229.026 122.656 228.726 122.656C228.162 122.656 227.676 122.914 227.268 123.43C226.872 123.934 226.674 124.648 226.674 125.572C226.674 126.52 226.848 127.246 227.196 127.75C227.544 128.254 228.036 128.506 228.672 128.506ZM235.232 130V121.162H237.302V130H235.232ZM236.276 119.614C235.904 119.614 235.604 119.506 235.376 119.29C235.148 119.074 235.034 118.786 235.034 118.426C235.034 118.078 235.148 117.796 235.376 117.58C235.604 117.364 235.904 117.256 236.276 117.256C236.648 117.256 236.948 117.364 237.176 117.58C237.404 117.796 237.518 118.078 237.518 118.426C237.518 118.786 237.404 119.074 237.176 119.29C236.948 119.506 236.648 119.614 236.276 119.614ZM243.021 133.906C242.325 133.906 241.695 133.822 241.131 133.654C240.579 133.486 240.141 133.228 239.817 132.88C239.505 132.544 239.349 132.118 239.349 131.602C239.349 130.87 239.769 130.24 240.609 129.712V129.64C240.381 129.496 240.189 129.304 240.033 129.064C239.889 128.824 239.817 128.524 239.817 128.164C239.817 127.816 239.913 127.504 240.105 127.228C240.309 126.94 240.537 126.706 240.789 126.526V126.454C240.489 126.226 240.219 125.908 239.979 125.5C239.751 125.092 239.637 124.63 239.637 124.114C239.637 123.43 239.799 122.854 240.123 122.386C240.447 121.918 240.873 121.564 241.401 121.324C241.941 121.072 242.517 120.946 243.129 120.946C243.369 120.946 243.597 120.97 243.813 121.018C244.041 121.054 244.245 121.102 244.425 121.162H247.593V122.692H245.973C246.117 122.86 246.237 123.076 246.333 123.34C246.429 123.592 246.477 123.874 246.477 124.186C246.477 124.834 246.327 125.386 246.027 125.842C245.727 126.286 245.325 126.622 244.821 126.85C244.317 127.078 243.753 127.192 243.129 127.192C242.937 127.192 242.739 127.174 242.535 127.138C242.331 127.102 242.127 127.042 241.923 126.958C241.791 127.078 241.683 127.198 241.599 127.318C241.527 127.438 241.491 127.6 241.491 127.804C241.491 128.056 241.593 128.254 241.797 128.398C242.013 128.542 242.391 128.614 242.931 128.614H244.497C245.565 128.614 246.369 128.788 246.909 129.136C247.461 129.472 247.737 130.024 247.737 130.792C247.737 131.368 247.545 131.89 247.161 132.358C246.777 132.838 246.231 133.216 245.523 133.492C244.815 133.768 243.981 133.906 243.021 133.906ZM243.129 125.896C243.549 125.896 243.909 125.74 244.209 125.428C244.509 125.116 244.659 124.678 244.659 124.114C244.659 123.562 244.509 123.136 244.209 122.836C243.921 122.524 243.561 122.368 243.129 122.368C242.697 122.368 242.331 122.518 242.031 122.818C241.731 123.118 241.581 123.55 241.581 124.114C241.581 124.678 241.731 125.116 242.031 125.428C242.331 125.74 242.697 125.896 243.129 125.896ZM243.345 132.556C244.053 132.556 244.629 132.412 245.073 132.124C245.517 131.836 245.739 131.506 245.739 131.134C245.739 130.786 245.601 130.552 245.325 130.432C245.061 130.312 244.677 130.252 244.173 130.252H242.967C242.487 130.252 242.085 130.21 241.761 130.126C241.305 130.474 241.077 130.864 241.077 131.296C241.077 131.692 241.281 131.998 241.689 132.214C242.097 132.442 242.649 132.556 243.345 132.556ZM256.678 130.216C255.862 130.216 255.124 130.036 254.464 129.676C253.804 129.304 253.282 128.776 252.898 128.092C252.514 127.396 252.322 126.562 252.322 125.59C252.322 124.63 252.514 123.802 252.898 123.106C253.294 122.41 253.804 121.876 254.428 121.504C255.052 121.132 255.706 120.946 256.39 120.946C257.194 120.946 257.866 121.126 258.406 121.486C258.946 121.834 259.354 122.326 259.63 122.962C259.906 123.586 260.044 124.312 260.044 125.14C260.044 125.572 260.014 125.908 259.954 126.148H254.338C254.434 126.928 254.716 127.534 255.184 127.966C255.652 128.398 256.24 128.614 256.948 128.614C257.332 128.614 257.686 128.56 258.01 128.452C258.346 128.332 258.676 128.17 259 127.966L259.702 129.262C259.282 129.538 258.814 129.766 258.298 129.946C257.782 130.126 257.242 130.216 256.678 130.216ZM254.32 124.744H258.244C258.244 124.06 258.094 123.526 257.794 123.142C257.494 122.746 257.044 122.548 256.444 122.548C255.928 122.548 255.466 122.74 255.058 123.124C254.662 123.496 254.416 124.036 254.32 124.744ZM261.639 126.22V124.708H265.923V126.22H261.639ZM267.998 133.492V121.162H269.708L269.852 122.098H269.924C270.296 121.786 270.71 121.516 271.166 121.288C271.634 121.06 272.108 120.946 272.588 120.946C273.692 120.946 274.544 121.354 275.144 122.17C275.756 122.986 276.062 124.078 276.062 125.446C276.062 126.454 275.882 127.318 275.522 128.038C275.162 128.746 274.694 129.286 274.118 129.658C273.554 130.03 272.942 130.216 272.282 130.216C271.898 130.216 271.514 130.132 271.13 129.964C270.746 129.784 270.374 129.544 270.014 129.244L270.068 130.72V133.492H267.998ZM271.85 128.506C272.438 128.506 272.93 128.248 273.326 127.732C273.722 127.216 273.92 126.46 273.92 125.464C273.92 124.576 273.77 123.886 273.47 123.394C273.17 122.902 272.684 122.656 272.012 122.656C271.388 122.656 270.74 122.986 270.068 123.646V127.768C270.392 128.032 270.704 128.224 271.004 128.344C271.304 128.452 271.586 128.506 271.85 128.506ZM281.776 130.216C281.044 130.216 280.36 130.036 279.724 129.676C279.088 129.304 278.572 128.776 278.176 128.092C277.78 127.396 277.582 126.562 277.582 125.59C277.582 124.606 277.78 123.772 278.176 123.088C278.572 122.392 279.088 121.864 279.724 121.504C280.36 121.132 281.044 120.946 281.776 120.946C282.52 120.946 283.21 121.132 283.846 121.504C284.482 121.864 284.998 122.392 285.394 123.088C285.79 123.772 285.988 124.606 285.988 125.59C285.988 126.562 285.79 127.396 285.394 128.092C284.998 128.776 284.482 129.304 283.846 129.676C283.21 130.036 282.52 130.216 281.776 130.216ZM281.776 128.524C282.424 128.524 282.934 128.254 283.306 127.714C283.678 127.174 283.864 126.466 283.864 125.59C283.864 124.702 283.678 123.988 283.306 123.448C282.934 122.908 282.424 122.638 281.776 122.638C281.128 122.638 280.618 122.908 280.246 123.448C279.886 123.988 279.706 124.702 279.706 125.59C279.706 126.466 279.886 127.174 280.246 127.714C280.618 128.254 281.128 128.524 281.776 128.524ZM290.432 130.216C289.832 130.216 289.232 130.102 288.632 129.874C288.032 129.634 287.516 129.34 287.084 128.992L288.056 127.66C288.452 127.96 288.848 128.2 289.244 128.38C289.64 128.56 290.06 128.65 290.504 128.65C290.984 128.65 291.338 128.548 291.566 128.344C291.794 128.14 291.908 127.888 291.908 127.588C291.908 127.336 291.812 127.132 291.62 126.976C291.44 126.808 291.206 126.664 290.918 126.544C290.63 126.412 290.33 126.286 290.018 126.166C289.634 126.022 289.25 125.848 288.866 125.644C288.494 125.428 288.188 125.158 287.948 124.834C287.708 124.498 287.588 124.084 287.588 123.592C287.588 122.812 287.876 122.176 288.452 121.684C289.028 121.192 289.808 120.946 290.792 120.946C291.416 120.946 291.974 121.054 292.466 121.27C292.958 121.486 293.384 121.732 293.744 122.008L292.79 123.268C292.478 123.04 292.16 122.86 291.836 122.728C291.524 122.584 291.194 122.512 290.846 122.512C290.402 122.512 290.072 122.608 289.856 122.8C289.64 122.98 289.532 123.208 289.532 123.484C289.532 123.832 289.712 124.096 290.072 124.276C290.432 124.456 290.852 124.63 291.332 124.798C291.74 124.942 292.136 125.122 292.52 125.338C292.904 125.542 293.222 125.812 293.474 126.148C293.738 126.484 293.87 126.928 293.87 127.48C293.87 128.236 293.576 128.884 292.988 129.424C292.4 129.952 291.548 130.216 290.432 130.216ZM298.481 130.216C297.461 130.216 296.735 129.922 296.303 129.334C295.883 128.734 295.673 127.96 295.673 127.012V122.8H294.413V121.252L295.781 121.162L296.033 118.75H297.761V121.162H300.011V122.8H297.761V127.012C297.761 128.044 298.175 128.56 299.003 128.56C299.159 128.56 299.321 128.542 299.489 128.506C299.657 128.458 299.801 128.41 299.921 128.362L300.281 129.892C300.041 129.976 299.765 130.048 299.453 130.108C299.153 130.18 298.829 130.216 298.481 130.216ZM303.626 130.216C302.858 130.216 302.228 129.976 301.736 129.496C301.256 129.016 301.016 128.392 301.016 127.624C301.016 126.676 301.43 125.944 302.258 125.428C303.086 124.9 304.406 124.54 306.218 124.348C306.206 123.88 306.08 123.478 305.84 123.142C305.612 122.794 305.198 122.62 304.598 122.62C304.166 122.62 303.74 122.704 303.32 122.872C302.912 123.04 302.51 123.244 302.114 123.484L301.358 122.098C301.85 121.786 302.402 121.516 303.014 121.288C303.638 121.06 304.298 120.946 304.994 120.946C306.098 120.946 306.92 121.276 307.46 121.936C308.012 122.584 308.288 123.526 308.288 124.762V130H306.578L306.434 129.028H306.362C305.966 129.364 305.54 129.646 305.084 129.874C304.64 130.102 304.154 130.216 303.626 130.216ZM304.292 128.596C304.652 128.596 304.976 128.512 305.264 128.344C305.564 128.164 305.882 127.924 306.218 127.624V125.644C305.018 125.8 304.184 126.034 303.716 126.346C303.248 126.646 303.014 127.018 303.014 127.462C303.014 127.858 303.134 128.146 303.374 128.326C303.614 128.506 303.92 128.596 304.292 128.596ZM313.861 130.216C312.757 130.216 311.875 129.808 311.215 128.992C310.555 128.176 310.225 127.042 310.225 125.59C310.225 124.63 310.399 123.802 310.747 123.106C311.107 122.41 311.575 121.876 312.151 121.504C312.727 121.132 313.333 120.946 313.969 120.946C314.473 120.946 314.899 121.036 315.247 121.216C315.607 121.384 315.955 121.618 316.291 121.918L316.219 120.496V117.292H318.289V130H316.579L316.435 129.046H316.363C316.039 129.37 315.661 129.646 315.229 129.874C314.797 130.102 314.341 130.216 313.861 130.216ZM314.365 128.506C315.025 128.506 315.643 128.176 316.219 127.516V123.394C315.919 123.118 315.619 122.926 315.319 122.818C315.019 122.71 314.719 122.656 314.419 122.656C313.855 122.656 313.369 122.914 312.961 123.43C312.565 123.934 312.367 124.648 312.367 125.572C312.367 126.52 312.541 127.246 312.889 127.75C313.237 128.254 313.729 128.506 314.365 128.506ZM320.925 130V121.162H322.635L322.779 122.728H322.851C323.163 122.152 323.541 121.714 323.985 121.414C324.429 121.102 324.885 120.946 325.353 120.946C325.773 120.946 326.109 121.006 326.361 121.126L326.001 122.926C325.845 122.878 325.701 122.842 325.569 122.818C325.437 122.794 325.275 122.782 325.083 122.782C324.735 122.782 324.369 122.92 323.985 123.196C323.601 123.46 323.271 123.928 322.995 124.6V130H320.925ZM331.244 130.216C330.428 130.216 329.69 130.036 329.03 129.676C328.37 129.304 327.848 128.776 327.464 128.092C327.08 127.396 326.888 126.562 326.888 125.59C326.888 124.63 327.08 123.802 327.464 123.106C327.86 122.41 328.37 121.876 328.994 121.504C329.618 121.132 330.272 120.946 330.956 120.946C331.76 120.946 332.432 121.126 332.972 121.486C333.512 121.834 333.92 122.326 334.196 122.962C334.472 123.586 334.61 124.312 334.61 125.14C334.61 125.572 334.58 125.908 334.52 126.148H328.904C329 126.928 329.282 127.534 329.75 127.966C330.218 128.398 330.806 128.614 331.514 128.614C331.898 128.614 332.252 128.56 332.576 128.452C332.912 128.332 333.242 128.17 333.566 127.966L334.268 129.262C333.848 129.538 333.38 129.766 332.864 129.946C332.348 130.126 331.808 130.216 331.244 130.216ZM328.886 124.744H332.81C332.81 124.06 332.66 123.526 332.36 123.142C332.06 122.746 331.61 122.548 331.01 122.548C330.494 122.548 330.032 122.74 329.624 123.124C329.228 123.496 328.982 124.036 328.886 124.744ZM339.053 130.216C338.453 130.216 337.853 130.102 337.253 129.874C336.653 129.634 336.137 129.34 335.705 128.992L336.677 127.66C337.073 127.96 337.469 128.2 337.865 128.38C338.261 128.56 338.681 128.65 339.125 128.65C339.605 128.65 339.959 128.548 340.187 128.344C340.415 128.14 340.529 127.888 340.529 127.588C340.529 127.336 340.433 127.132 340.241 126.976C340.061 126.808 339.827 126.664 339.539 126.544C339.251 126.412 338.951 126.286 338.639 126.166C338.255 126.022 337.871 125.848 337.487 125.644C337.115 125.428 336.809 125.158 336.569 124.834C336.329 124.498 336.209 124.084 336.209 123.592C336.209 122.812 336.497 122.176 337.073 121.684C337.649 121.192 338.429 120.946 339.413 120.946C340.037 120.946 340.595 121.054 341.087 121.27C341.579 121.486 342.005 121.732 342.365 122.008L341.411 123.268C341.099 123.04 340.781 122.86 340.457 122.728C340.145 122.584 339.815 122.512 339.467 122.512C339.023 122.512 338.693 122.608 338.477 122.8C338.261 122.98 338.153 123.208 338.153 123.484C338.153 123.832 338.333 124.096 338.693 124.276C339.053 124.456 339.473 124.63 339.953 124.798C340.361 124.942 340.757 125.122 341.141 125.338C341.525 125.542 341.843 125.812 342.095 126.148C342.359 126.484 342.491 126.928 342.491 127.48C342.491 128.236 342.197 128.884 341.609 129.424C341.021 129.952 340.169 130.216 339.053 130.216ZM346.805 130.216C346.205 130.216 345.605 130.102 345.005 129.874C344.405 129.634 343.889 129.34 343.457 128.992L344.429 127.66C344.825 127.96 345.221 128.2 345.617 128.38C346.013 128.56 346.433 128.65 346.877 128.65C347.357 128.65 347.711 128.548 347.939 128.344C348.167 128.14 348.281 127.888 348.281 127.588C348.281 127.336 348.185 127.132 347.993 126.976C347.813 126.808 347.579 126.664 347.291 126.544C347.003 126.412 346.703 126.286 346.391 126.166C346.007 126.022 345.623 125.848 345.239 125.644C344.867 125.428 344.561 125.158 344.321 124.834C344.081 124.498 343.961 124.084 343.961 123.592C343.961 122.812 344.249 122.176 344.825 121.684C345.401 121.192 346.181 120.946 347.165 120.946C347.789 120.946 348.347 121.054 348.839 121.27C349.331 121.486 349.757 121.732 350.117 122.008L349.163 123.268C348.851 123.04 348.533 122.86 348.209 122.728C347.897 122.584 347.567 122.512 347.219 122.512C346.775 122.512 346.445 122.608 346.229 122.8C346.013 122.98 345.905 123.208 345.905 123.484C345.905 123.832 346.085 124.096 346.445 124.276C346.805 124.456 347.225 124.63 347.705 124.798C348.113 124.942 348.509 125.122 348.893 125.338C349.277 125.542 349.595 125.812 349.847 126.148C350.111 126.484 350.243 126.928 350.243 127.48C350.243 128.236 349.949 128.884 349.361 129.424C348.773 129.952 347.921 130.216 346.805 130.216ZM355.871 130.216C355.055 130.216 354.317 130.036 353.657 129.676C352.997 129.304 352.475 128.776 352.091 128.092C351.707 127.396 351.515 126.562 351.515 125.59C351.515 124.63 351.707 123.802 352.091 123.106C352.487 122.41 352.997 121.876 353.621 121.504C354.245 121.132 354.899 120.946 355.583 120.946C356.387 120.946 357.059 121.126 357.599 121.486C358.139 121.834 358.547 122.326 358.823 122.962C359.099 123.586 359.237 124.312 359.237 125.14C359.237 125.572 359.207 125.908 359.147 126.148H353.531C353.627 126.928 353.909 127.534 354.377 127.966C354.845 128.398 355.433 128.614 356.141 128.614C356.525 128.614 356.879 128.56 357.203 128.452C357.539 128.332 357.869 128.17 358.193 127.966L358.895 129.262C358.475 129.538 358.007 129.766 357.491 129.946C356.975 130.126 356.435 130.216 355.871 130.216ZM353.513 124.744H357.437C357.437 124.06 357.287 123.526 356.987 123.142C356.687 122.746 356.237 122.548 355.637 122.548C355.121 122.548 354.659 122.74 354.251 123.124C353.855 123.496 353.609 124.036 353.513 124.744Z"></path>
</svg>
