<svg xmlns="http://www.w3.org/2000/svg" fill="none" viewBox="0 0 200 200" height="200" width="200">
<path fill="#417DA0" d="M119.971 121.639C127.967 121.639 128.634 128.969 131.299 134.966C133.965 140.964 145.293 142.297 151.582 130.968C154.815 124.092 156.622 116.412 156.622 108.311C156.622 78.8681 132.754 55 103.311 55C73.8681 55 50 78.8681 50 108.311C50 128.383 58.2671 139.2 74.6563 148.294C82.653 151.626 96.1143 153.594 105.31 143.629C113.117 135.17 111.974 121.639 119.971 121.639Z"></path>
<path fill="#417DA0" d="M119.971 121.639C127.967 121.639 128.634 128.969 131.299 134.966C133.965 140.964 145.293 142.297 151.582 130.968C154.815 124.092 156.622 116.412 156.622 108.311C156.622 78.8681 132.754 55 103.311 55C73.8681 55 50 78.8681 50 108.311C50 128.383 58.2671 139.2 74.6563 148.294C82.653 151.626 96.1143 153.594 105.31 143.629C113.117 135.17 111.974 121.639 119.971 121.639Z"></path>
<path fill="#D7E6F0" d="M73.9352 125.847C78.7422 125.847 82.639 121.707 82.639 116.6C82.639 111.492 78.7422 107.352 73.9352 107.352C69.1283 107.352 65.2314 111.492 65.2314 116.6C65.2314 121.707 69.1283 125.847 73.9352 125.847Z"></path>
<path fill="#D7E6F0" d="M77.7996 96.3921C80.7439 96.3921 83.1307 94.0053 83.1307 91.061C83.1307 88.1167 80.7439 85.7299 77.7996 85.7299C74.8553 85.7299 72.4685 88.1167 72.4685 91.061C72.4685 94.0053 74.8553 96.3921 77.7996 96.3921Z"></path>
<path fill="#D7E6F0" d="M101.123 91.0609C106.643 91.0609 111.119 86.5857 111.119 81.0651C111.119 75.5446 106.643 71.0693 101.123 71.0693C95.6024 71.0693 91.1271 75.5446 91.1271 81.0651C91.1271 86.5857 95.6024 91.0609 101.123 91.0609Z"></path>
<path fill="#D7E6F0" d="M127.779 97.7247C131.827 97.7247 135.109 94.4428 135.109 90.3944C135.109 86.346 131.827 83.0641 127.779 83.0641C123.73 83.0641 120.448 86.346 120.448 90.3944C120.448 94.4428 123.73 97.7247 127.779 97.7247Z"></path>
</svg>
