<svg xmlns="http://www.w3.org/2000/svg" fill="none" viewBox="0 0 1200 630" height="630" width="1200">
<g clip-path="url(#clip0_5527_28579)">
<rect fill="url(#paint0_linear_5527_28579)" height="630" width="1200"></rect>
<path fill="#417DA0" d="M377.689 663.877L366.309 675.123L-182.691 119.623L-171.311 108.377L377.689 663.877Z"></path>
<path fill="#417DA0" d="M1235.16 -156.343L993.318 85.4951L1285.65 377.339L1274.35 388.661L970.682 85.5049L1223.84 -167.657L1235.16 -156.343Z"></path>
<path fill="white" d="M282.596 232.114L282.583 232.127L252.271 262.564C249.922 264.923 246.112 264.923 243.762 262.564C241.413 260.204 241.413 256.379 243.762 254.02L274.788 222.866C279.166 218.47 285.104 216 291.295 216L363.058 216C375.951 216 386.403 226.495 386.403 239.442L386.403 311.501C386.403 317.718 383.944 323.681 379.566 328.077L348.54 359.23C346.19 361.59 342.381 361.59 340.031 359.23C337.681 356.871 337.681 353.046 340.031 350.686L370.348 320.244L370.356 320.236C374.12 316.456 374.12 310.327 370.356 306.547L296.229 232.114C292.464 228.334 286.361 228.334 282.596 232.114ZM374.37 293.489L374.37 239.442C374.37 233.169 369.305 228.083 363.058 228.083L309.233 228.083L374.37 293.489ZM306.423 296.311C308.772 298.671 308.772 302.496 306.423 304.855L252.271 359.23C249.922 361.59 246.112 361.59 243.762 359.23C241.413 356.871 241.413 353.046 243.762 350.686L297.914 296.311C300.263 293.952 304.073 293.952 306.423 296.311Z" clip-rule="evenodd" fill-rule="evenodd"></path>
<path fill="white" d="M586.306 351.949L533.523 222.679C531.807 218.801 527.945 216 523.439 216C519.148 216 515.071 218.801 513.569 222.679L460.786 351.949C460.357 353.027 460.143 353.888 460.143 354.535C460.143 357.982 462.932 360.998 466.579 360.998C469.154 360.998 471.729 359.275 472.587 356.905L485.247 325.018H561.846L574.505 356.905C575.363 359.275 577.724 360.998 580.513 360.998C584.161 360.998 586.95 357.982 586.95 354.535C586.95 353.457 586.521 352.596 586.306 351.949ZM489.752 313.815L523.439 228.712L557.34 313.815H489.752Z"></path>
<path fill="white" d="M695.178 351.303L653.338 303.473L694.105 264.907C695.178 263.83 695.821 262.322 695.821 261.029C695.821 258.228 693.676 255.643 690.672 255.643C689.385 255.643 688.097 256.074 687.024 256.936L625.444 315.538V221.602C625.444 218.585 622.87 216 619.866 216C616.862 216 614.287 218.585 614.287 221.602V355.396C614.287 358.413 616.862 360.998 619.866 360.998C622.87 360.998 625.444 358.413 625.444 355.396V329.112L644.755 310.798L686.381 359.059C687.453 360.352 688.955 360.998 690.887 360.998C694.105 360.998 696.465 358.413 696.465 355.181C696.465 353.673 696.036 352.38 695.178 351.303Z"></path>
<path fill="white" d="M719.083 349.579C729.382 359.059 740.969 362.937 755.774 362.937C781.736 362.937 794.61 349.148 794.61 332.343C794.61 310.152 774.655 305.197 756.846 300.672C742.471 297.009 729.168 293.778 729.168 281.928C729.168 271.155 739.038 263.184 755.13 263.184C766.716 263.184 776.372 267.277 783.023 273.741C783.667 274.387 784.954 275.033 786.027 275.033C788.816 275.033 790.962 272.663 790.962 270.078C790.962 268.354 790.318 267.277 789.246 266.2C781.521 258.875 770.579 253.704 755.13 253.704C731.742 253.704 718.225 266.631 718.225 282.574C718.225 302.827 737.321 307.351 754.701 311.66C769.506 315.538 783.667 319.416 783.667 332.774C783.667 344.839 773.368 353.457 755.988 353.457C743.329 353.457 733.03 348.502 725.735 341.608C724.876 340.746 723.804 340.315 722.516 340.315C719.512 340.315 717.152 342.685 717.152 345.701C717.152 347.209 718.01 348.718 719.083 349.579Z"></path>
<path fill="white" d="M816.387 308.213C816.387 340.315 838.058 362.937 868.312 362.937C883.76 362.937 895.561 357.982 905.861 348.933C906.933 347.856 907.577 346.778 907.577 345.27C907.577 342.469 905.646 340.53 903.071 340.53C901.998 340.53 900.926 340.746 900.282 341.392C891.485 349.364 880.971 353.242 869.17 353.242C844.71 353.242 829.69 334.498 828.618 311.875H908.65C912.941 311.875 915.301 309.506 915.301 305.627C915.301 278.912 897.922 253.704 866.381 253.704C837.629 253.704 816.387 278.05 816.387 308.213ZM866.166 263.399C892.128 263.399 903.715 285.375 903.929 303.042H828.618C829.476 284.944 841.706 263.399 866.166 263.399Z"></path>
<path fill="white" d="M949.714 360.998C952.718 360.998 955.292 358.413 955.292 355.396V221.602C955.292 218.585 952.718 216 949.714 216C946.71 216 944.135 218.585 944.135 221.602V355.396C944.135 358.413 946.71 360.998 949.714 360.998Z"></path>
<path fill="url(#paint1_linear_5527_28579)" d="M804.299 477V416.52H860.075V428.7H816.563V440.628H851.591V452.892H816.563V464.82H860.075V477H804.299Z"></path>
<path fill-opacity="0.5" fill="white" d="M815.562 427.7H859.075V417.52H805.299V476H859.075V465.82H815.562V451.892H850.591V441.628H815.562V427.7ZM816.562 440.628H851.591V452.892H816.562V464.82H860.075V477H804.299V416.52H860.075V428.7H816.562V440.628Z"></path>
<path fill="url(#paint2_linear_5527_28579)" d="M730.045 477V416.52H778.345C780.585 416.52 782.601 417.08 784.393 418.2C786.241 419.264 787.725 420.72 788.845 422.568C789.965 424.36 790.525 426.376 790.525 428.616V464.904C790.525 467.144 789.965 469.188 788.845 471.036C787.725 472.828 786.241 474.284 784.393 475.404C782.601 476.468 780.585 477 778.345 477H730.045ZM742.561 464.82H777.757C777.925 464.82 778.037 464.792 778.093 464.736C778.205 464.624 778.261 464.484 778.261 464.316V429.204C778.261 429.036 778.205 428.924 778.093 428.868C778.037 428.756 777.925 428.7 777.757 428.7H742.561C742.449 428.7 742.337 428.756 742.225 428.868C742.113 428.924 742.057 429.036 742.057 429.204V464.316C742.057 464.484 742.113 464.624 742.225 464.736C742.337 464.792 742.449 464.82 742.561 464.82Z"></path>
<path fill-opacity="0.5" fill="white" d="M789.525 464.904V428.616C789.525 426.552 789.012 424.721 787.997 423.098L787.989 423.086C786.956 421.381 785.593 420.046 783.894 419.067L783.878 419.057L783.556 418.864C782.009 417.971 780.28 417.52 778.345 417.52H731.045V476H778.345V477H730.045V416.52H778.345C780.585 416.52 782.601 417.08 784.393 418.2C786.241 419.264 787.725 420.72 788.845 422.568C789.965 424.36 790.525 426.376 790.525 428.616V464.904L790.519 465.322C790.453 467.399 789.895 469.303 788.845 471.036C787.725 472.828 786.241 474.284 784.393 475.404C782.713 476.401 780.836 476.931 778.763 476.994L778.345 477V476C780.416 476 782.251 475.511 783.875 474.548L784.192 474.35C785.758 473.341 787.02 472.065 787.989 470.518C789.011 468.832 789.525 466.968 789.525 464.904ZM742.057 464.316C742.057 464.484 742.113 464.624 742.225 464.736C742.336 464.792 742.449 464.82 742.561 464.82H777.757C777.925 464.82 778.037 464.792 778.093 464.736C778.205 464.624 778.261 464.484 778.261 464.316V429.204C778.261 429.036 778.205 428.924 778.093 428.868C778.037 428.756 777.925 428.7 777.757 428.7V427.7C778.081 427.7 778.51 427.803 778.811 428.153C779.158 428.453 779.261 428.88 779.261 429.204V464.316C779.261 464.731 779.112 465.131 778.8 465.443C778.598 465.645 778.365 465.73 778.209 465.769C778.047 465.81 777.889 465.82 777.757 465.82H742.561C742.276 465.82 742.012 465.747 741.777 465.63L741.633 465.558L741.518 465.443C741.206 465.131 741.057 464.731 741.057 464.316V429.204C741.057 428.848 741.181 428.369 741.616 428.069C741.837 427.878 742.155 427.7 742.561 427.7V428.7C742.449 428.7 742.336 428.756 742.225 428.868C742.113 428.924 742.057 429.036 742.057 429.204V464.316ZM777.757 427.7V428.7H742.561V427.7H777.757Z"></path>
<path fill="url(#paint3_linear_5527_28579)" d="M706.031 477V416.52H718.043V477H706.031Z"></path>
<path fill-opacity="0.5" fill="white" d="M718.043 416.52V477H706.031V416.52H718.043ZM707.031 476H717.043V417.52H707.031V476Z"></path>
<path fill="url(#paint4_linear_5527_28579)" d="M645.875 477C643.691 477 641.675 476.468 639.827 475.404C637.979 474.284 636.523 472.828 635.459 471.036C634.395 469.188 633.863 467.144 633.863 464.904V459.78H645.959V464.316C645.959 464.484 645.987 464.624 646.043 464.736C646.155 464.792 646.267 464.82 646.379 464.82H681.575C681.687 464.82 681.799 464.792 681.911 464.736C682.023 464.624 682.079 464.484 682.079 464.316V453.312C682.079 453.2 682.023 453.116 681.911 453.06C681.799 452.948 681.687 452.892 681.575 452.892H645.875C643.691 452.892 641.675 452.36 639.827 451.296C637.979 450.176 636.523 448.692 635.459 446.844C634.395 444.996 633.863 442.98 633.863 440.796V428.616C633.863 426.376 634.395 424.36 635.459 422.568C636.523 420.72 637.979 419.264 639.827 418.2C641.675 417.08 643.691 416.52 645.875 416.52H682.247C684.431 416.52 686.419 417.08 688.211 418.2C690.059 419.264 691.543 420.72 692.663 422.568C693.783 424.36 694.343 426.376 694.343 428.616V433.74H682.079V429.204C682.079 429.036 682.023 428.924 681.911 428.868C681.799 428.756 681.687 428.7 681.575 428.7H646.379C646.267 428.7 646.155 428.756 646.043 428.868C645.987 428.924 645.959 429.036 645.959 429.204V440.208C645.959 440.32 645.987 440.432 646.043 440.544C646.155 440.6 646.267 440.628 646.379 440.628H682.247C684.431 440.628 686.419 441.188 688.211 442.308C690.059 443.372 691.543 444.828 692.663 446.676C693.783 448.524 694.343 450.54 694.343 452.724V464.904C694.343 467.144 693.783 469.188 692.663 471.036C691.543 472.828 690.059 474.284 688.211 475.404C686.419 476.468 684.431 477 682.247 477H645.875Z"></path>
<path fill-opacity="0.5" fill="white" d="M682.247 476V477H645.875V476H682.247ZM693.344 464.904V452.724C693.344 450.721 692.832 448.884 691.808 447.194C690.774 445.488 689.411 444.153 687.712 443.174L687.696 443.166L687.682 443.156C686.054 442.139 684.25 441.628 682.247 441.628H646.379C646.094 441.628 645.83 441.555 645.596 441.438L645.298 441.29L645.148 440.992C645.031 440.758 644.959 440.493 644.959 440.208V429.204C644.959 429.071 644.969 428.914 645.01 428.751C645.049 428.595 645.134 428.362 645.336 428.161C645.557 427.94 645.908 427.7 646.379 427.7V428.7C646.267 428.7 646.155 428.756 646.043 428.868C645.987 428.924 645.959 429.036 645.959 429.204V440.208C645.959 440.32 645.987 440.433 646.043 440.544C646.127 440.586 646.211 440.612 646.295 440.623L646.379 440.628H682.247C684.431 440.628 686.419 441.188 688.211 442.308C690.059 443.372 691.543 444.828 692.663 446.676C693.783 448.524 694.344 450.54 694.344 452.724V464.904L694.337 465.322C694.271 467.399 693.713 469.303 692.663 471.036C691.543 472.828 690.059 474.284 688.211 475.404C686.531 476.401 684.679 476.931 682.654 476.994L682.247 477V476C684.257 476 686.065 475.513 687.693 474.548L688.011 474.35C689.576 473.341 690.838 472.065 691.808 470.518C692.829 468.832 693.344 466.968 693.344 464.904ZM644.959 464.316V460.78H634.863V464.904C634.863 466.978 635.354 468.848 636.326 470.537C637.303 472.177 638.638 473.513 640.347 474.548C642.034 475.515 643.87 476 645.875 476V477L645.468 476.994C643.44 476.931 641.56 476.401 639.827 475.404C637.979 474.284 636.523 472.828 635.459 471.036C634.395 469.188 633.863 467.144 633.863 464.904V459.78H645.959V464.316C645.959 464.484 645.987 464.624 646.043 464.736C646.155 464.792 646.267 464.82 646.379 464.82H681.575C681.687 464.82 681.799 464.792 681.911 464.736C682.023 464.624 682.079 464.484 682.079 464.316V453.312C682.079 453.228 682.048 453.159 681.984 453.107L681.911 453.06C681.827 452.976 681.743 452.924 681.659 452.903L681.575 452.892V451.892C681.983 451.892 682.301 452.072 682.522 452.264C682.646 452.348 682.769 452.46 682.869 452.61C683.018 452.834 683.079 453.081 683.079 453.312V464.316C683.079 464.731 682.93 465.131 682.618 465.443L682.504 465.558L682.358 465.63C682.124 465.747 681.86 465.82 681.575 465.82H646.379C646.094 465.82 645.83 465.747 645.596 465.63L645.298 465.481L645.148 465.183C645.004 464.893 644.959 464.589 644.959 464.316ZM681.575 451.892V452.892H645.875V451.892H681.575ZM693.344 428.616C693.344 426.552 692.83 424.721 691.815 423.098L691.808 423.086C690.774 421.381 689.412 420.046 687.712 419.067L687.696 419.057L687.682 419.048C686.156 418.095 684.475 417.586 682.62 417.526L682.247 417.52H645.875C643.872 417.52 642.036 418.031 640.346 419.055L640.326 419.067C638.631 420.043 637.302 421.372 636.326 423.067L636.319 423.079C635.414 424.603 634.927 426.313 634.869 428.23L634.863 428.616V440.796C634.863 442.81 635.352 444.653 636.326 446.345C637.302 448.041 638.633 449.4 640.333 450.433C642.024 451.405 643.864 451.892 645.875 451.892V452.892L645.468 452.886C643.575 452.828 641.811 452.362 640.176 451.49L639.827 451.296C638.095 450.246 636.707 448.876 635.663 447.186L635.459 446.844C634.461 445.112 633.931 443.231 633.869 441.204L633.863 440.796V428.616C633.863 426.376 634.395 424.36 635.459 422.568C636.523 420.72 637.979 419.264 639.827 418.2C641.675 417.08 643.691 416.52 645.875 416.52H682.247C684.431 416.52 686.419 417.08 688.211 418.2C690.059 419.264 691.543 420.72 692.663 422.568C693.783 424.36 694.344 426.376 694.344 428.616V433.74H682.079V429.204C682.079 429.036 682.023 428.924 681.911 428.868C681.799 428.756 681.687 428.7 681.575 428.7V427.7C681.979 427.7 682.295 427.877 682.517 428.067C682.955 428.366 683.079 428.848 683.079 429.204V432.74H693.344V428.616ZM681.575 427.7V428.7H646.379V427.7H681.575Z"></path>
<path fill="url(#paint5_linear_5527_28579)" d="M562.979 477V416.52H575.159V440.628H588.179L608.339 416.52H621.275V420.384L599.099 446.76L621.275 473.136V477H608.339L588.179 452.892H575.159V477H562.979Z"></path>
<path fill-opacity="0.5" fill="white" d="M574.158 417.52H563.979V476H574.158V451.892H588.646L608.806 476H620.274V473.5L597.792 446.76L620.274 420.019V417.52H608.806L588.945 441.269L588.646 441.628H574.158V417.52ZM588.179 440.628L608.339 416.52H621.274V420.384L599.099 446.76L621.274 473.136V477H608.339L588.179 452.892H575.158V477H562.979V416.52H575.158V440.628H588.179Z"></path>
<path fill="url(#paint6_linear_5527_28579)" d="M549.689 477V473.22L535.758 456.676L537.677 456.672C539.917 456.672 541.933 456.14 543.725 455.076C545.573 453.956 547.057 452.5 548.177 450.708C549.297 448.86 549.857 446.844 549.857 444.66V428.7C549.857 426.516 549.297 424.5 548.177 422.652C547.057 420.804 545.573 419.348 543.725 418.284C541.933 417.164 539.917 416.604 537.677 416.604H489.377V477H501.473V456.756L519.909 456.713L536.921 477H549.689ZM501.977 444.492H537.089C537.257 444.492 537.369 444.464 537.425 444.408C537.537 444.296 537.593 444.184 537.593 444.072V429.204C537.593 429.036 537.537 428.924 537.425 428.868C537.369 428.756 537.257 428.7 537.089 428.7H501.977C501.809 428.7 501.669 428.756 501.557 428.868C501.501 428.924 501.473 429.036 501.473 429.204V444.072C501.473 444.184 501.501 444.296 501.557 444.408C501.669 444.464 501.809 444.492 501.977 444.492Z" clip-rule="evenodd" fill-rule="evenodd"></path>
<path fill-opacity="0.5" fill="white" d="M537.677 416.604C539.917 416.604 541.933 417.164 543.725 418.284C545.573 419.348 547.057 420.804 548.177 422.652C549.297 424.5 549.857 426.516 549.857 428.7V444.66C549.857 446.844 549.297 448.86 548.177 450.708C547.057 452.5 545.573 453.956 543.725 455.076C541.933 456.14 539.917 456.672 537.677 456.672L535.758 456.676L549.689 473.22V477H536.921L519.909 456.713L501.473 456.756V477H489.377V416.604H537.677ZM490.377 476H500.473V455.758L520.374 455.712L537.388 476H548.689V473.585L533.612 455.681L537.675 455.672H537.677C539.751 455.672 541.589 455.182 543.215 454.216C544.924 453.179 546.289 451.838 547.321 450.19C548.346 448.5 548.857 446.663 548.857 444.66V428.7C548.857 426.697 548.345 424.86 547.321 423.17C546.288 421.465 544.925 420.129 543.226 419.151L543.21 419.141L542.888 418.948C541.341 418.055 539.612 417.604 537.677 417.604H490.377V476ZM537.089 427.7C537.413 427.7 537.842 427.803 538.143 428.153C538.49 428.453 538.593 428.88 538.593 429.204V444.072C538.593 444.542 538.353 444.894 538.132 445.115C537.93 445.317 537.697 445.402 537.541 445.441C537.379 445.481 537.221 445.492 537.089 445.492H501.977C501.704 445.492 501.399 445.447 501.109 445.302L500.812 445.154L500.662 444.855C500.545 444.621 500.473 444.356 500.473 444.072V429.204C500.473 429.071 500.483 428.914 500.523 428.751C500.563 428.595 500.648 428.363 500.85 428.161C501.161 427.849 501.561 427.7 501.977 427.7H537.089ZM501.977 428.7C501.809 428.7 501.669 428.756 501.557 428.868C501.501 428.924 501.473 429.036 501.473 429.204V444.072C501.473 444.184 501.501 444.296 501.557 444.408C501.669 444.464 501.809 444.492 501.977 444.492H537.089C537.257 444.492 537.369 444.464 537.425 444.408C537.537 444.296 537.593 444.184 537.593 444.072V429.204C537.593 429.036 537.537 428.924 537.425 428.868C537.369 428.756 537.257 428.7 537.089 428.7H501.977Z"></path>
<path fill="url(#paint7_linear_5527_28579)" d="M415.127 477V428.616C415.127 426.376 415.659 424.36 416.723 422.568C417.843 420.72 419.299 419.264 421.091 418.2C422.939 417.08 424.983 416.52 427.223 416.52H463.427C465.667 416.52 467.683 417.08 469.475 418.2C471.323 419.264 472.807 420.72 473.927 422.568C475.047 424.36 475.607 426.376 475.607 428.616V477H463.343V457.092H427.223V477H415.127ZM427.223 444.996H463.343V429.204C463.343 429.036 463.287 428.924 463.175 428.868C463.119 428.756 463.007 428.7 462.839 428.7H427.727C427.559 428.7 427.419 428.756 427.307 428.868C427.251 428.924 427.223 429.036 427.223 429.204V444.996Z"></path>
<path fill-opacity="0.5" fill="white" d="M474.607 428.616C474.607 426.552 474.094 424.721 473.079 423.098L473.071 423.086C472.038 421.381 470.675 420.046 468.976 419.067L468.96 419.057L468.638 418.864C467.091 417.971 465.362 417.52 463.427 417.52H427.223C425.159 417.52 423.295 418.034 421.609 419.055L421.602 419.06C419.956 420.037 418.616 421.373 417.578 423.086C416.616 424.71 416.127 426.545 416.127 428.616V476H426.223V456.092H464.343V476H474.607V428.616ZM463.343 444.996V429.204C463.343 429.036 463.287 428.924 463.175 428.868C463.119 428.756 463.007 428.7 462.839 428.7V427.7C463.163 427.7 463.592 427.803 463.893 428.153C464.24 428.453 464.343 428.88 464.343 429.204V445.996H426.223V429.204C426.223 429.071 426.233 428.914 426.273 428.751C426.313 428.595 426.398 428.363 426.6 428.161C426.911 427.849 427.311 427.7 427.727 427.7V428.7C427.559 428.7 427.419 428.756 427.307 428.868C427.251 428.924 427.223 429.036 427.223 429.204V444.996H463.343ZM462.839 427.7V428.7H427.727V427.7H462.839ZM475.607 477H463.343V457.092H427.223V477H415.127V428.616C415.127 426.376 415.659 424.36 416.723 422.568C417.843 420.72 419.299 419.264 421.091 418.2C422.939 417.08 424.983 416.52 427.223 416.52H463.427C465.667 416.52 467.683 417.08 469.475 418.2C471.323 419.264 472.807 420.72 473.927 422.568C475.047 424.36 475.607 426.376 475.607 428.616V477Z"></path>
<path fill="url(#paint8_linear_5527_28579)" d="M340.871 477V416.52H389.171C391.411 416.52 393.427 417.08 395.219 418.2C397.067 419.264 398.551 420.72 399.671 422.568C400.791 424.36 401.351 426.376 401.351 428.616V464.904C401.351 467.144 400.791 469.188 399.671 471.036C398.551 472.828 397.067 474.284 395.219 475.404C393.427 476.468 391.411 477 389.171 477H340.871ZM353.387 464.82H388.583C388.751 464.82 388.863 464.792 388.919 464.736C389.031 464.624 389.087 464.484 389.087 464.316V429.204C389.087 429.036 389.031 428.924 388.919 428.868C388.863 428.756 388.751 428.7 388.583 428.7H353.387C353.275 428.7 353.163 428.756 353.051 428.868C352.939 428.924 352.883 429.036 352.883 429.204V464.316C352.883 464.484 352.939 464.624 353.051 464.736C353.163 464.792 353.275 464.82 353.387 464.82Z"></path>
<path fill-opacity="0.5" fill="white" d="M400.352 464.904V428.616C400.352 426.552 399.838 424.721 398.823 423.098L398.815 423.086C397.782 421.381 396.419 420.046 394.72 419.067L394.704 419.057L394.382 418.864C392.836 417.971 391.106 417.52 389.171 417.52H341.871V476H389.171V477H340.871V416.52H389.171C391.411 416.52 393.427 417.08 395.219 418.2C397.067 419.264 398.551 420.72 399.671 422.568C400.791 424.36 401.352 426.376 401.352 428.616V464.904L401.345 465.322C401.279 467.399 400.721 469.303 399.671 471.036C398.551 472.828 397.067 474.284 395.219 475.404C393.539 476.401 391.662 476.931 389.589 476.994L389.171 477V476C391.242 476 393.077 475.511 394.701 474.548L395.019 474.35C396.584 473.341 397.846 472.065 398.815 470.518C399.837 468.832 400.352 466.968 400.352 464.904ZM352.883 464.316C352.883 464.484 352.939 464.624 353.051 464.736C353.163 464.792 353.275 464.82 353.387 464.82H388.583C388.751 464.82 388.863 464.792 388.919 464.736C389.031 464.624 389.087 464.484 389.087 464.316V429.204C389.087 429.036 389.031 428.924 388.919 428.868C388.863 428.756 388.751 428.7 388.583 428.7V427.7C388.907 427.7 389.336 427.803 389.637 428.153C389.984 428.453 390.087 428.88 390.087 429.204V464.316C390.087 464.731 389.938 465.131 389.626 465.443C389.424 465.645 389.191 465.73 389.035 465.769C388.873 465.81 388.715 465.82 388.583 465.82H353.387C353.102 465.82 352.838 465.747 352.604 465.63L352.459 465.558L352.344 465.443C352.032 465.131 351.883 464.731 351.883 464.316V429.204C351.883 428.848 352.007 428.369 352.442 428.069C352.664 427.878 352.981 427.7 353.387 427.7V428.7C353.275 428.7 353.163 428.756 353.051 428.868C352.939 428.924 352.883 429.036 352.883 429.204V464.316ZM388.583 427.7V428.7H353.387V427.7H388.583Z"></path>
</g>
<defs>
<linearGradient gradientUnits="userSpaceOnUse" y2="363" x2="642" y1="-144.5" x1="898.5" id="paint0_linear_5527_28579">
<stop stop-color="#156389" offset="0.379808"></stop>
<stop stop-color="#004367" offset="1"></stop>
</linearGradient>
<linearGradient gradientUnits="userSpaceOnUse" y2="418.5" x2="600" y1="477" x1="600" id="paint1_linear_5527_28579">
<stop stop-color="#156389"></stop>
<stop stop-color="white" offset="1"></stop>
</linearGradient>
<linearGradient gradientUnits="userSpaceOnUse" y2="418.5" x2="600" y1="477" x1="600" id="paint2_linear_5527_28579">
<stop stop-color="#156389"></stop>
<stop stop-color="white" offset="1"></stop>
</linearGradient>
<linearGradient gradientUnits="userSpaceOnUse" y2="418.5" x2="599.999" y1="477" x1="599.999" id="paint3_linear_5527_28579">
<stop stop-color="#156389"></stop>
<stop stop-color="white" offset="1"></stop>
</linearGradient>
<linearGradient gradientUnits="userSpaceOnUse" y2="418.5" x2="600" y1="477" x1="600" id="paint4_linear_5527_28579">
<stop stop-color="#156389"></stop>
<stop stop-color="white" offset="1"></stop>
</linearGradient>
<linearGradient gradientUnits="userSpaceOnUse" y2="418.5" x2="600.001" y1="477" x1="600.001" id="paint5_linear_5527_28579">
<stop stop-color="#156389"></stop>
<stop stop-color="white" offset="1"></stop>
</linearGradient>
<linearGradient gradientUnits="userSpaceOnUse" y2="418.5" x2="600" y1="477" x1="600" id="paint6_linear_5527_28579">
<stop stop-color="#156389"></stop>
<stop stop-color="white" offset="1"></stop>
</linearGradient>
<linearGradient gradientUnits="userSpaceOnUse" y2="418.5" x2="600" y1="477" x1="600" id="paint7_linear_5527_28579">
<stop stop-color="#156389"></stop>
<stop stop-color="white" offset="1"></stop>
</linearGradient>
<linearGradient gradientUnits="userSpaceOnUse" y2="418.5" x2="599.999" y1="477" x1="599.999" id="paint8_linear_5527_28579">
<stop stop-color="#156389"></stop>
<stop stop-color="white" offset="1"></stop>
</linearGradient>
<clipPath id="clip0_5527_28579">
<rect fill="white" height="630" width="1200"></rect>
</clipPath>
</defs>
</svg>
