<svg xmlns="http://www.w3.org/2000/svg" fill="none" viewBox="0 0 200 200" height="200" width="200">
<path fill="white" d="M24 45C24 38.3726 29.3726 33 36 33H164C170.627 33 176 38.3726 176 45V155C176 161.627 170.627 167 164 167H36C29.3726 167 24 161.627 24 155V45Z"></path>
<mask fill="white" id="path-2-inside-1_4412_3227">
<path d="M164 165V167H36V165H164ZM174 155V45C174 39.4772 169.523 35 164 35H36C30.4772 35 26 39.4772 26 45V155C26 160.523 30.4772 165 36 165V167C29.3726 167 24 161.627 24 155V45C24 38.3726 29.3726 33 36 33H164C170.627 33 176 38.3726 176 45V155C176 161.627 170.627 167 164 167V165C169.523 165 174 160.523 174 155Z"></path>
</mask>
<path mask="url(#path-2-inside-1_4412_3227)" fill-opacity="0.247059" fill="#005A92" d="M164 165H114V167H164H214V165H164ZM164 167V117H36V167V217H164V167ZM36 167H86V165H36H-14V167H36ZM36 165V215H164V165V115H36V165ZM174 155H224V45H174H124V155H174ZM174 45H224C224 11.8629 197.137 -15 164 -15V35V85C141.909 85 124 67.0914 124 45H174ZM164 35V-15H36V35V85H164V35ZM36 35V-15C2.86291 -15 -24 11.8629 -24 45H26H76C76 67.0914 58.0914 85 36 85V35ZM26 45H-24V155H26H76V45H26ZM26 155H-24C-24 188.137 2.86292 215 36 215V165V115C58.0914 115 76 132.909 76 155H26ZM36 165H-14V167H36H86V165H36ZM36 167V117C56.9868 117 74 134.013 74 155H24H-26C-26 189.242 1.75833 217 36 217V167ZM24 155H74V45H24H-26V155H24ZM24 45H74C74 65.9868 56.9868 83 36 83V33V-17C1.75835 -17 -26 10.7583 -26 45H24ZM36 33V83H164V33V-17H36V33ZM164 33V83C143.013 83 126 65.9868 126 45H176H226C226 10.7583 198.242 -17 164 -17V33ZM176 45H126V155H176H226V45H176ZM176 155H126C126 134.013 143.013 117 164 117V167V217C198.242 217 226 189.242 226 155H176ZM164 167H214V165H164H114V167H164ZM164 165V215C197.137 215 224 188.137 224 155H174H124C124 132.909 141.909 115 164 115V165Z"></path>
<path fill="#417DA0" d="M161.707 52.2929C162.098 52.6834 162.098 53.3166 161.707 53.7071L149.707 65.7071C149.317 66.0976 148.683 66.0976 148.293 65.7071C147.902 65.3166 147.902 64.6834 148.293 64.2929L160.293 52.2929C160.683 51.9024 161.317 51.9024 161.707 52.2929Z" clip-rule="evenodd" fill-rule="evenodd"></path>
<path fill="#417DA0" d="M148.293 52.2929C147.902 52.6834 147.902 53.3166 148.293 53.7071L160.293 65.7071C160.683 66.0976 161.317 66.0976 161.707 65.7071C162.098 65.3166 162.098 64.6834 161.707 64.2929L149.707 52.2929C149.317 51.9024 148.683 51.9024 148.293 52.2929Z" clip-rule="evenodd" fill-rule="evenodd"></path>
<path fill="#417DA0" d="M38 59C38 56.7909 39.7909 55 42 55H101C103.209 55 105 56.7909 105 59C105 61.2091 103.209 63 101 63H42C39.7909 63 38 61.2091 38 59Z"></path>
<path fill="#C0D6E4" d="M38 88C38 85.7909 39.7909 84 42 84H154C156.209 84 158 85.7909 158 88C158 90.2091 156.209 92 154 92H42C39.7909 92 38 90.2091 38 88Z"></path>
<path fill="#C0D6E4" d="M38 106C38 103.791 39.7909 102 42 102H130C132.209 102 134 103.791 134 106C134 108.209 132.209 110 130 110H42C39.7909 110 38 108.209 38 106Z"></path>
<path fill="#C0D6E4" d="M77 129C74.7909 129 73 130.791 73 133V145C73 147.209 74.7909 149 77 149H111C113.209 149 115 147.209 115 145V133C115 130.791 113.209 129 111 129H77ZM85 136C83.3431 136 82 137.343 82 139C82 140.657 83.3431 142 85 142H104C105.657 142 107 140.657 107 139C107 137.343 105.657 136 104 136H85Z" clip-rule="evenodd" fill-rule="evenodd"></path>
<path fill="#417DA0" d="M124 129C121.791 129 120 130.791 120 133V145C120 147.209 121.791 149 124 149H158C160.209 149 162 147.209 162 145V133C162 130.791 160.209 129 158 129H124ZM132 136C130.343 136 129 137.343 129 139C129 140.657 130.343 142 132 142H151C152.657 142 154 140.657 154 139C154 137.343 152.657 136 151 136H132Z" clip-rule="evenodd" fill-rule="evenodd"></path>
</svg>
