<svg xmlns="http://www.w3.org/2000/svg" fill="none" viewBox="0 0 200 200" height="200" width="200">
<path fill="white" d="M24 76H176V138C176 145.732 169.732 152 162 152H38C30.268 152 24 145.732 24 138V76Z"></path>
<path fill="#417DA0" d="M24 64C24 57.3726 29.3726 52 36 52H164C170.627 52 176 57.3726 176 64V76H24V64Z"></path>
<mask fill="white" id="path-3-inside-1_4412_3211">
<path d="M28 138C28 143.523 32.4772 148 38 148H162C167.523 148 172 143.523 172 138V76H176V138C176 145.732 169.732 152 162 152H38C30.268 152 24 145.732 24 138V76H28V138Z"></path>
<path d="M26 99H174V103H26V99Z"></path>
<path d="M27 124H174V128H27V124Z"></path>
<path d="M98 76H102V149H98V76Z"></path>
<path d="M136 76.1273H140V150.127H136V76.1273Z"></path>
<path d="M60 76H64V150H60V76Z"></path>
</mask>
<path mask="url(#path-3-inside-1_4412_3211)" fill-opacity="0.247059" fill="#005A92" d="M172 76V26H122V76H172ZM176 76H226V26H176V76ZM176 138L226 138V138H176ZM38 152L38 202H38V152ZM24 76V26H-26V76H24ZM28 76H78V26H28V76ZM26 99V49H-24V99H26ZM174 99H224V49H174V99ZM174 103V153H224V103H174ZM26 103H-24V153H26V103ZM27 124V74H-23V124H27ZM174 124H224V74H174V124ZM174 128V178H224V128H174ZM27 128H-23V178H27V128ZM98 76V26H48V76H98ZM102 76H152V26H102V76ZM102 149V199H152V149H102ZM98 149H48V199H98V149ZM136 76.1273V26.1273H86V76.1273H136ZM140 76.1273H190V26.1273H140V76.1273ZM140 150.127V200.127H190V150.127H140ZM136 150.127H86V200.127H136V150.127ZM60 76V26H10V76H60ZM64 76H114V26H64V76ZM64 150V200H114V150H64ZM60 150H10V200H60V150ZM28 138H-22C-22 171.137 4.86292 198 38 198V148V98C60.0914 98 78 115.909 78 138H28ZM38 148V198H162V148V98H38V148ZM162 148V198C195.137 198 222 171.137 222 138H172H122C122 115.909 139.909 98 162 98V148ZM172 138H222V76H172H122V138H172ZM172 76V126H176V76V26H172V76ZM176 76H126V138H176H226V76H176ZM176 138L126 138C126 118.118 142.118 102 162 102V152V202C197.346 202 226 173.346 226 138L176 138ZM162 152V102H38V152V202H162V152ZM38 152L38 102C57.8822 102 74 118.118 74 138H24H-26C-26 173.346 2.65378 202 38 202L38 152ZM24 138H74V76H24H-26V138H24ZM24 76V126H28V76V26H24V76ZM28 76H-22V138H28H78V76H28ZM26 99V149H174V99V49H26V99ZM174 99H124V103H174H224V99H174ZM174 103V53H26V103V153H174V103ZM26 103H76V99H26H-24V103H26ZM27 124V174H174V124V74H27V124ZM174 124H124V128H174H224V124H174ZM174 128V78H27V128V178H174V128ZM27 128H77V124H27H-23V128H27ZM98 76V126H102V76V26H98V76ZM102 76H52V149H102H152V76H102ZM102 149V99H98V149V199H102V149ZM98 149H148V76H98H48V149H98ZM136 76.1273V126.127H140V76.1273V26.1273H136V76.1273ZM140 76.1273H90V150.127H140H190V76.1273H140ZM140 150.127V100.127H136V150.127V200.127H140V150.127ZM136 150.127H186V76.1273H136H86V150.127H136ZM60 76V126H64V76V26H60V76ZM64 76H14V150H64H114V76H64ZM64 150V100H60V150V200H64V150ZM60 150H110V76H60H10V150H60Z"></path>
</svg>
