<svg xmlns="http://www.w3.org/2000/svg" fill="none" viewBox="0 0 200 200" height="200" width="200">
<path fill="white" d="M24 86C24 79.3726 29.3726 74 36 74H164C170.627 74 176 79.3726 176 86V114C176 120.627 170.627 126 164 126H36C29.3726 126 24 120.627 24 114V86Z"></path>
<path fill="#417DA0" d="M152.043 105.957C151.652 105.567 151.652 104.933 152.043 104.543L156.836 99.75L152.043 94.9571C151.652 94.5666 151.652 93.9334 152.043 93.5429C152.433 93.1524 153.067 93.1524 153.457 93.5429L158.957 99.0429C159.348 99.4334 159.348 100.067 158.957 100.457L153.457 105.957C153.067 106.348 152.433 106.348 152.043 105.957Z" clip-rule="evenodd" fill-rule="evenodd"></path>
<path fill="#C0D6E4" d="M36 100C36 97.7909 37.7909 96 40 96H128C130.209 96 132 97.7909 132 100C132 102.209 130.209 104 128 104H40C37.7909 104 36 102.209 36 100Z"></path>
<path fill="#417DA0" d="M164 123V126H36V123H164ZM173 114V86C173 81.0294 168.971 77 164 77H36C31.0294 77 27 81.0294 27 86V114C27 118.971 31.0294 123 36 123V126L35.6904 125.996C29.309 125.834 24.1655 120.691 24.0039 114.31L24 114V86C24 79.4761 29.2061 74.1681 35.6904 74.0039L36 74H164L164.31 74.0039C170.794 74.1681 176 79.4761 176 86V114L175.996 114.31C175.834 120.691 170.691 125.834 164.31 125.996L164 126V123C168.971 123 173 118.971 173 114Z"></path>
</svg>
