<svg xmlns="http://www.w3.org/2000/svg" fill="none" viewBox="0 0 200 200" height="200" width="200">
<path fill-opacity="0.247059" fill="#005A92" d="M100 144.031C124.318 144.031 144.031 124.318 144.031 100C144.031 75.6825 124.318 55.9692 100 55.9692C75.6825 55.9692 55.9692 75.6825 55.9692 100C55.9692 124.318 75.6825 144.031 100 144.031ZM100 154C129.823 154 154 129.823 154 100C154 70.1766 129.823 46 100 46C70.1766 46 46 70.1766 46 100C46 129.823 70.1766 154 100 154Z" clip-rule="evenodd" fill-rule="evenodd"></path>
<path fill="#417DA0" d="M97.2892 72.8226C97.9349 71.7258 99.549 71.7258 100.195 72.8226L110.727 90.7137C111.372 91.8105 110.565 93.1815 109.274 93.1815H88.2099C86.9187 93.1815 86.1116 91.8105 86.7573 90.7137L97.2892 72.8226Z"></path>
<path fill="#417DA0" d="M96.6452 111.895C96.6452 118.028 91.5759 123 85.3226 123C79.0693 123 74 118.028 74 111.895C74 105.762 79.0693 100.79 85.3226 100.79C91.5759 100.79 96.6452 105.762 96.6452 111.895Z"></path>
<path fill="#417DA0" d="M104.194 103.258C104.194 102.349 104.945 101.613 105.871 101.613H124.323C125.249 101.613 126 102.349 126 103.258V121.355C126 122.263 125.249 123 124.323 123H105.871C104.945 123 104.194 122.263 104.194 121.355V103.258Z"></path>
</svg>
