<svg xmlns="http://www.w3.org/2000/svg" fill="none" viewBox="0 0 200 200" height="200" width="200">
<path fill="url(#paint0_linear_5941_99005)" d="M72.024 97.376L70.1829 103.78C69.9992 104.419 70.4789 105.056 71.144 105.056H84.52C85.1851 105.056 85.6648 104.419 85.4811 103.78L83.64 97.376C82.616 94.048 81.624 90.624 80.664 87.104C79.7839 83.6464 78.9038 80.2196 78.0236 76.8238C77.9956 76.7156 77.8979 76.64 77.7861 76.64V76.64C77.6724 76.64 77.5735 76.7182 77.5473 76.8289C76.7279 80.2859 75.8468 83.743 74.904 87.2C74.008 90.656 73.048 94.048 72.024 97.376ZM52.3774 130.784C51.6977 130.784 51.2161 130.121 51.4265 129.474L71.2232 68.6903C71.3573 68.2786 71.741 68 72.174 68H83.778C84.211 68 84.5948 68.2786 84.7288 68.6903L104.525 129.474C104.736 130.121 104.254 130.784 103.575 130.784H93.9926C93.5469 130.784 93.155 130.489 93.0316 130.061L88.5524 114.515C88.429 114.087 88.0371 113.792 87.5915 113.792H67.9765C67.5309 113.792 67.139 114.087 67.0156 114.515L62.5364 130.061C62.413 130.489 62.0211 130.784 61.5755 130.784H52.3774Z"></path>
<path fill="url(#paint1_linear_5941_99005)" d="M124.843 131.936C120.747 131.936 117.387 130.656 114.763 128.096C112.203 125.536 110.923 122.208 110.923 118.112C110.923 113.056 113.131 109.152 117.547 106.4C121.822 103.674 128.556 101.788 137.749 100.741C138.267 100.682 138.661 100.238 138.614 99.7185C138.425 97.6124 137.77 95.7755 136.651 94.208C135.435 92.352 133.227 91.424 130.027 91.424C127.723 91.424 125.451 91.872 123.211 92.768C121.343 93.5369 119.5 94.4472 117.679 95.4989C117.186 95.7841 116.551 95.6137 116.278 95.1132L113.195 89.462C112.943 88.9995 113.092 88.4196 113.543 88.1478C115.962 86.6904 118.641 85.4145 121.579 84.32C124.907 83.104 128.427 82.496 132.139 82.496C138.027 82.496 142.411 84.256 145.291 87.776C148.235 91.232 149.707 96.256 149.707 102.848V129.784C149.707 130.336 149.259 130.784 148.707 130.784H141.45C140.954 130.784 140.533 130.421 140.46 129.931L139.858 125.866C139.836 125.713 139.704 125.6 139.549 125.6V125.6C139.475 125.6 139.404 125.626 139.347 125.674C137.26 127.433 135.017 128.913 132.619 130.112C130.251 131.328 127.659 131.936 124.843 131.936ZM128.395 123.296C130.315 123.296 132.043 122.848 133.579 121.952C135.079 121.052 136.663 119.871 138.331 118.409C138.546 118.221 138.667 117.949 138.667 117.664V108.69C138.667 108.087 138.136 107.62 137.538 107.706C131.741 108.535 127.669 109.732 125.323 111.296C122.827 112.896 121.579 114.88 121.579 117.248C121.579 119.36 122.219 120.896 123.499 121.856C124.779 122.816 126.411 123.296 128.395 123.296Z"></path>
<defs>
<linearGradient gradientUnits="userSpaceOnUse" y2="267.311" x2="151.341" y1="267.8" x1="51" id="paint0_linear_5941_99005">
<stop stop-color="#3380A5"></stop>
<stop stop-color="#5297BC" offset="1"></stop>
</linearGradient>
<linearGradient gradientUnits="userSpaceOnUse" y2="267.311" x2="151.341" y1="267.8" x1="51" id="paint1_linear_5941_99005">
<stop stop-color="#3380A5"></stop>
<stop stop-color="#5297BC" offset="1"></stop>
</linearGradient>
</defs>
</svg>
