<svg xmlns="http://www.w3.org/2000/svg" fill="none" viewBox="0 0 200 200" height="200" width="200">
<path fill="#C0D6E4" d="M33 56C33 51.5817 36.5817 48 41 48H123C127.418 48 131 51.5817 131 56V107C131 111.418 127.418 115 123 115H41C36.5817 115 33 111.418 33 107V56Z"></path>
<path fill="#C0D6E4" d="M33 131C33 126.582 36.5817 123 41 123H123C127.418 123 131 126.582 131 131V143C131 147.418 127.418 151 123 151H41C36.5817 151 33 147.418 33 143V131Z"></path>
<path fill="#C0D6E4" d="M147 151C142.582 151 139 147.418 139 143L139 56C139 51.5817 142.582 48 147 48L159 48C163.418 48 167 51.5817 167 56V143C167 147.418 163.418 151 159 151H147Z"></path>
<mask fill="white" id="path-2-inside-1_4412_3176">
<path d="M123 149V151H41V149H123ZM159 149V151H147V149H159ZM165 143V56C165 52.6863 162.314 50 159 50H147C143.686 50 141 52.6863 141 56V143C141 146.314 143.686 149 147 149V151C142.582 151 139 147.418 139 143V56C139 51.7199 142.361 48.2252 146.588 48.0107L147 48H159C163.418 48 167 51.5817 167 56V143C167 147.418 163.418 151 159 151V149C162.314 149 165 146.314 165 143ZM129 143V131C129 127.686 126.314 125 123 125H41C37.6863 125 35 127.686 35 131V143C35 146.314 37.6863 149 41 149V151L40.5879 150.989C36.3611 150.775 33 147.28 33 143V131C33 126.582 36.5817 123 41 123H123C127.418 123 131 126.582 131 131V143C131 147.418 127.418 151 123 151V149C126.314 149 129 146.314 129 143ZM123 113V115H41V113H123ZM129 107V56C129 52.6863 126.314 50 123 50H41C37.6863 50 35 52.6863 35 56V107C35 110.314 37.6863 113 41 113V115L40.5879 114.989C36.3611 114.775 33 111.28 33 107V56C33 51.7199 36.3611 48.2252 40.5879 48.0107L41 48H123L123.412 48.0107C127.639 48.2252 131 51.7199 131 56V107C131 111.418 127.418 115 123 115V113C126.314 113 129 110.314 129 107Z"></path>
</mask>
<path mask="url(#path-2-inside-1_4412_3176)" fill-opacity="0.247059" fill="#005A92" d="M41 151L40.2183 180.99L40.6091 181H41V151ZM159 50V80V50ZM147 50V20V50ZM141 56L111 56V56H141ZM139 56L109 56V56H139ZM146.588 48.0107L145.806 18.0209L145.437 18.0306L145.068 18.0493L146.588 48.0107ZM147 48V18H146.609L146.218 18.0102L147 48ZM159 48V78V48ZM40.5879 150.989L39.0675 180.951L39.4366 180.969L39.8062 180.979L40.5879 150.989ZM41 115L40.2183 144.99L40.6091 145H41V115ZM129 56H159V56L129 56ZM35 56L5 56V56H35ZM40.5879 114.989L39.0675 144.951L39.4366 144.969L39.8062 144.979L40.5879 114.989ZM33 56L3 56V56H33ZM40.5879 48.0107L39.8062 18.0209L39.4366 18.0306L39.0675 18.0493L40.5879 48.0107ZM41 48V18H40.6091L40.2183 18.0102L41 48ZM123 48L123.782 18.0102L123.391 18H123V48ZM123.412 48.0107L124.933 18.0493L124.563 18.0306L124.194 18.0209L123.412 48.0107ZM131 56H161V56L131 56ZM123 149H93V151H123H153V149H123ZM123 151V121H41V151V181H123V151ZM41 151H71V149H41H11V151H41ZM41 149V179H123V149V119H41V149ZM159 149H129V151H159H189V149H159ZM159 151V121H147V151V181H159V151ZM147 151H177V149H147H117V151H147ZM147 149V179H159V149V119H147V149ZM165 143H195V56H165H135V143H165ZM165 56H195C195 36.1177 178.882 20 159 20V50V80C145.745 80 135 69.2548 135 56H165ZM159 50V20H147V50V80H159V50ZM147 50V20C127.118 20 111 36.1177 111 56L141 56L171 56C171 69.2548 160.255 80 147 80V50ZM141 56H111V143H141H171V56H141ZM141 143H111C111 162.882 127.118 179 147 179V149V119C160.255 119 171 129.745 171 143H141ZM147 149H117V151H147H177V149H147ZM147 151V121C159.15 121 169 130.85 169 143H139H109C109 163.987 126.013 181 147 181V151ZM139 143H169V56H139H109V143H139ZM139 56L169 56C169 67.7807 159.755 77.3812 148.108 77.9722L146.588 48.0107L145.068 18.0493C124.967 19.0693 109 35.6591 109 56L139 56ZM146.588 48.0107L147.37 78.0006L147.782 77.9898L147 48L146.218 18.0102L145.806 18.0209L146.588 48.0107ZM147 48V78H159V48V18H147V48ZM159 48V78C146.85 78 137 68.1503 137 56H167H197C197 35.0132 179.987 18 159 18V48ZM167 56H137V143H167H197V56H167ZM167 143H137C137 130.85 146.85 121 159 121V151V181C179.987 181 197 163.987 197 143H167ZM159 151H189V149H159H129V151H159ZM159 149V179C178.882 179 195 162.882 195 143H165H135C135 129.745 145.745 119 159 119V149ZM129 143H159V131H129H99V143H129ZM129 131H159C159 111.118 142.882 95 123 95V125V155C109.745 155 99 144.255 99 131H129ZM123 125V95H41V125V155H123V125ZM41 125V95C21.1177 95 5 111.118 5 131H35H65C65 144.255 54.2548 155 41 155V125ZM35 131H5V143H35H65V131H35ZM35 143H5C5 162.882 21.1177 179 41 179L41 149L41 119C54.2548 119 65 129.745 65 143H35ZM41 149H11V151H41H71V149H41ZM41 151L41.7817 121.01L41.3696 120.999L40.5879 150.989L39.8062 180.979L40.2183 180.99L41 151ZM40.5879 150.989L42.1083 121.028C53.7554 121.619 63 131.219 63 143H33H3C3 163.341 18.9669 179.931 39.0675 180.951L40.5879 150.989ZM33 143H63V131H33H3V143H33ZM33 131H63C63 143.15 53.1503 153 41 153V123V93C20.0132 93 3 110.013 3 131H33ZM41 123V153H123V123V93H41V123ZM123 123V153C110.85 153 101 143.15 101 131H131H161C161 110.013 143.987 93 123 93V123ZM131 131H101V143H131H161V131H131ZM131 143H101C101 130.85 110.85 121 123 121V151V181C143.987 181 161 163.987 161 143H131ZM123 151H153V149H123H93V151H123ZM123 149V179C142.882 179 159 162.882 159 143H129H99C99 129.745 109.745 119 123 119V149ZM123 113H93V115H123H153V113H123ZM123 115V85H41V115V145H123V115ZM41 115H71V113H41H11V115H41ZM41 113V143H123V113V83H41V113ZM129 107H159V56H129H99V107H129ZM129 56L159 56C159 36.1177 142.882 20 123 20V50V80C109.745 80 99 69.2548 99 56L129 56ZM123 50V20H41V50V80H123V50ZM41 50V20C21.1177 20 5.00001 36.1178 5 56L35 56L65 56C65 69.2548 54.2548 80 41 80V50ZM35 56H5V107H35H65V56H35ZM35 107H5C5 126.882 21.1178 143 41 143L41 113L41 83C54.2548 83 65 93.7452 65 107H35ZM41 113H11V115H41H71V113H41ZM41 115L41.7817 85.0102L41.3696 84.9994L40.5879 114.989L39.8062 144.979L40.2183 144.99L41 115ZM40.5879 114.989L42.1083 85.0278C53.7554 85.6188 63 95.2192 63 107H33H3C3 127.341 18.9669 143.931 39.0675 144.951L40.5879 114.989ZM33 107H63V56H33H3V107H33ZM33 56L63 56C63 67.7808 53.7554 77.3812 42.1083 77.9722L40.5879 48.0107L39.0675 18.0493C18.9669 19.0693 3 35.6591 3 56L33 56ZM40.5879 48.0107L41.3696 78.0006L41.7817 77.9898L41 48L40.2183 18.0102L39.8062 18.0209L40.5879 48.0107ZM41 48V78H123V48V18H41V48ZM123 48L122.218 77.9898L122.63 78.0006L123.412 48.0107L124.194 18.0209L123.782 18.0102L123 48ZM123.412 48.0107L121.892 77.9722C110.245 77.3812 101 67.7808 101 56L131 56L161 56C161 35.6591 145.033 19.0693 124.933 18.0493L123.412 48.0107ZM131 56H101V107H131H161V56H131ZM131 107H101C101 94.8497 110.85 85 123 85V115V145C143.987 145 161 127.987 161 107H131ZM123 115H153V113H123H93V115H123ZM123 113V143C142.882 143 159 126.882 159 107H129H99C99 93.7452 109.745 83 123 83V113Z"></path>
</svg>
