<svg xmlns="http://www.w3.org/2000/svg" fill="none" viewBox="0 0 200 200" height="200" width="200">
<path fill="white" d="M23 100C23 93.3726 28.3726 88 35 88H163C169.627 88 175 93.3726 175 100V116C175 122.627 169.627 128 163 128H35C28.3726 128 23 122.627 23 116V100Z"></path>
<path fill="#417DA0" d="M163 125V128H35V125H163ZM172 116V100C172 95.0294 167.971 91 163 91H35C30.0294 91 26 95.0294 26 100V116C26 120.971 30.0294 125 35 125V128C28.3726 128 23 122.627 23 116V100C23 93.3726 28.3726 88 35 88H163C169.627 88 175 93.3726 175 100V116C175 122.627 169.627 128 163 128V125C167.971 125 172 120.971 172 116Z"></path>
<rect fill="#417DA0" rx="4" height="8" width="73" y="71" x="24"></rect>
<rect fill="#C0D6E4" rx="4" height="8" width="80" y="104" x="35"></rect>
<rect fill="#417DA0" rx="1.5" height="13" width="3" y="101" x="124"></rect>
</svg>
