<svg xmlns="http://www.w3.org/2000/svg" fill="none" viewBox="0 0 200 200" height="200" width="200">
<path fill="url(#paint0_linear_4914_1861)" d="M24 76C24 73.7909 25.7909 72 28 72H172C174.209 72 176 73.7909 176 76C176 78.2091 174.209 80 172 80H28C25.7909 80 24 78.2091 24 76Z"></path>
<mask fill="white" id="path-2-inside-1_4914_1861">
<path d="M172 79V80H28V79H172ZM175 76C175 74.3431 173.657 73 172 73H28C26.3431 73 25 74.3431 25 76C25 77.6569 26.3431 79 28 79V80L27.7939 79.9951C25.6806 79.8879 24 78.14 24 76C24 73.7909 25.7909 72 28 72H172C174.209 72 176 73.7909 176 76C176 78.2091 174.209 80 172 80V79C173.657 79 175 77.6569 175 76Z"></path>
</mask>
<path mask="url(#path-2-inside-1_4914_1861)" fill-opacity="0.247059" fill="#005A92" d="M28 80L27.5262 99.9944L27.7631 100H28V80ZM27.7939 79.9951L26.7804 99.9694L27.0502 99.9831L27.3201 99.9895L27.7939 79.9951ZM172 79H152V80H172H192V79H172ZM172 80V60H28V80V100H172V80ZM28 80H48V79H28H8V80H28ZM28 79V99H172V79V59H28V79ZM175 76H195C195 63.2974 184.702 53 172 53V73V93C162.611 93 155 85.3889 155 76H175ZM172 73V53H28V73V93H172V73ZM28 73V53C15.2975 53 5 63.2975 5 76H25H45C45 85.3888 37.3888 93 28 93V73ZM25 76H5C5 88.7026 15.2975 99 28 99L28 79L28 59C37.3888 59 45 66.6111 45 76H25ZM28 79H8V80H28H48V79H28ZM28 80L28.4738 60.0056L28.2677 60.0007L27.7939 79.9951L27.3201 99.9895L27.5262 99.9944L28 80ZM27.7939 79.9951L28.8074 60.0208C37.2799 60.4507 44 67.436 44 76H24H4C4 88.844 14.0812 99.3251 26.7804 99.9694L27.7939 79.9951ZM24 76H44C44 84.8366 36.8366 92 28 92V72V52C14.7452 52 4 62.7452 4 76H24ZM28 72V92H172V72V52H28V72ZM172 72V92C163.163 92 156 84.8366 156 76H176H196C196 62.7452 185.255 52 172 52V72ZM176 76H156C156 67.1634 163.163 60 172 60V80V100C185.255 100 196 89.2548 196 76H176ZM172 80H192V79H172H152V80H172ZM172 79V99C184.703 99 195 88.7025 195 76H175H155C155 66.6112 162.611 59 172 59V79Z"></path>
<path fill="url(#paint1_linear_4914_1861)" d="M24 92C24 89.7909 25.7909 88 28 88H172C174.209 88 176 89.7909 176 92C176 94.2091 174.209 96 172 96H28C25.7909 96 24 94.2091 24 92Z"></path>
<mask fill="white" id="path-5-inside-2_4914_1861">
<path d="M172 95V96H28V95H172ZM175 92C175 90.3431 173.657 89 172 89H28C26.3431 89 25 90.3431 25 92C25 93.6569 26.3431 95 28 95V96L27.7939 95.9951C25.6806 95.8879 24 94.14 24 92C24 89.7909 25.7909 88 28 88H172C174.209 88 176 89.7909 176 92C176 94.2091 174.209 96 172 96V95C173.657 95 175 93.6569 175 92Z"></path>
</mask>
<path mask="url(#path-5-inside-2_4914_1861)" fill-opacity="0.247059" fill="#005A92" d="M28 96L27.5262 115.994L27.7631 116H28V96ZM27.7939 95.9951L26.7804 115.969L27.0502 115.983L27.3201 115.99L27.7939 95.9951ZM172 95H152V96H172H192V95H172ZM172 96V76H28V96V116H172V96ZM28 96H48V95H28H8V96H28ZM28 95V115H172V95V75H28V95ZM175 92H195C195 79.2974 184.702 69 172 69V89V109C162.611 109 155 101.389 155 92H175ZM172 89V69H28V89V109H172V89ZM28 89V69C15.2975 69 5 79.2975 5 92H25H45C45 101.389 37.3888 109 28 109V89ZM25 92H5C5 104.703 15.2975 115 28 115L28 95L28 75C37.3888 75 45 82.6111 45 92H25ZM28 95H8V96H28H48V95H28ZM28 96L28.4738 76.0056L28.2677 76.0007L27.7939 95.9951L27.3201 115.99L27.5262 115.994L28 96ZM27.7939 95.9951L28.8074 76.0208C37.2799 76.4507 44 83.436 44 92H24H4C4 104.844 14.0812 115.325 26.7804 115.969L27.7939 95.9951ZM24 92H44C44 100.837 36.8366 108 28 108V88V68C14.7452 68 4 78.7452 4 92H24ZM28 88V108H172V88V68H28V88ZM172 88V108C163.163 108 156 100.837 156 92H176H196C196 78.7452 185.255 68 172 68V88ZM176 92H156C156 83.1634 163.163 76 172 76V96V116C185.255 116 196 105.255 196 92H176ZM172 96H192V95H172H152V96H172ZM172 95V115C184.703 115 195 104.703 195 92H175H155C155 82.6112 162.611 75 172 75V95Z"></path>
<path fill="url(#paint2_linear_4914_1861)" d="M24 108C24 105.791 25.7909 104 28 104H172C174.209 104 176 105.791 176 108C176 110.209 174.209 112 172 112H28C25.7909 112 24 110.209 24 108Z"></path>
<mask fill="white" id="path-8-inside-3_4914_1861">
<path d="M172 111V112H28V111H172ZM175 108C175 106.343 173.657 105 172 105H28C26.3431 105 25 106.343 25 108C25 109.657 26.3431 111 28 111V112L27.7939 111.995C25.6806 111.888 24 110.14 24 108C24 105.791 25.7909 104 28 104H172C174.209 104 176 105.791 176 108C176 110.209 174.209 112 172 112V111C173.657 111 175 109.657 175 108Z"></path>
</mask>
<path mask="url(#path-8-inside-3_4914_1861)" fill-opacity="0.247059" fill="#005A92" d="M28 112L27.5262 131.994L27.7631 132H28V112ZM27.7939 111.995L26.7804 131.969L27.0502 131.983L27.3201 131.99L27.7939 111.995ZM172 111H152V112H172H192V111H172ZM172 112V92H28V112V132H172V112ZM28 112H48V111H28H8V112H28ZM28 111V131H172V111V91H28V111ZM175 108H195C195 95.2974 184.702 85 172 85V105V125C162.611 125 155 117.389 155 108H175ZM172 105V85H28V105V125H172V105ZM28 105V85C15.2975 85 5 95.2975 5 108H25H45C45 117.389 37.3888 125 28 125V105ZM25 108H5C5 120.703 15.2975 131 28 131L28 111L28 91C37.3888 91 45 98.6111 45 108H25ZM28 111H8V112H28H48V111H28ZM28 112L28.4738 92.0056L28.2677 92.0007L27.7939 111.995L27.3201 131.99L27.5262 131.994L28 112ZM27.7939 111.995L28.8074 92.0208C37.2799 92.4507 44 99.436 44 108H24H4C4 120.844 14.0812 131.325 26.7804 131.969L27.7939 111.995ZM24 108H44C44 116.837 36.8366 124 28 124V104V84C14.7452 84 4 94.7452 4 108H24ZM28 104V124H172V104V84H28V104ZM172 104V124C163.163 124 156 116.837 156 108H176H196C196 94.7452 185.255 84 172 84V104ZM176 108H156C156 99.1634 163.163 92 172 92V112V132C185.255 132 196 121.255 196 108H176ZM172 112H192V111H172H152V112H172ZM172 111V131C184.703 131 195 120.703 195 108H175H155C155 98.6112 162.611 91 172 91V111Z"></path>
<path fill="url(#paint3_linear_4914_1861)" d="M24 124C24 121.791 25.7909 120 28 120H98C100.209 120 102 121.791 102 124C102 126.209 100.209 128 98 128H28C25.7909 128 24 126.209 24 124Z"></path>
<mask fill="white" id="path-11-inside-4_4914_1861">
<path d="M98 127V128H28V127H98ZM101 124C101 122.343 99.6569 121 98 121H28C26.3431 121 25 122.343 25 124C25 125.657 26.3431 127 28 127V128L27.7939 127.995C25.6806 127.888 24 126.14 24 124C24 121.791 25.7909 120 28 120H98C100.209 120 102 121.791 102 124C102 126.209 100.209 128 98 128V127C99.6569 127 101 125.657 101 124Z"></path>
</mask>
<path mask="url(#path-11-inside-4_4914_1861)" fill-opacity="0.247059" fill="#005A92" d="M28 128L27.5262 147.994L27.7631 148H28V128ZM27.7939 127.995L26.7805 147.969L27.0502 147.983L27.3201 147.99L27.7939 127.995ZM98 127H78V128H98H118V127H98ZM98 128V108H28V128V148H98V128ZM28 128H48V127H28H8V128H28ZM28 127V147H98V127V107H28V127ZM101 124H121C121 111.297 110.703 101 98 101V121V141C88.6112 141 81 133.389 81 124H101ZM98 121V101H28V121V141H98V121ZM28 121V101C15.2975 101 5 111.297 5 124H25H45C45 133.389 37.3888 141 28 141V121ZM25 124H5C5 136.703 15.2975 147 28 147V127V107C37.3888 107 45 114.611 45 124H25ZM28 127H8V128H28H48V127H28ZM28 128L28.4738 108.006L28.2677 108.001L27.7939 127.995L27.3201 147.99L27.5262 147.994L28 128ZM27.7939 127.995L28.8074 108.021C37.2799 108.451 44 115.436 44 124H24H4C4 136.844 14.0812 147.325 26.7805 147.969L27.7939 127.995ZM24 124H44C44 132.837 36.8366 140 28 140V120V100C14.7452 100 4 110.745 4 124H24ZM28 120V140H98V120V100H28V120ZM98 120V140C89.1634 140 82 132.837 82 124H102H122C122 110.745 111.255 100 98 100V120ZM102 124H82C82 115.163 89.1634 108 98 108V128V148C111.255 148 122 137.255 122 124H102ZM98 128H118V127H98H78V128H98ZM98 127V147C110.703 147 121 136.703 121 124H101H81C81 114.611 88.6112 107 98 107V127Z"></path>
<defs>
<linearGradient gradientUnits="userSpaceOnUse" y2="76" x2="24" y1="76" x1="176" id="paint0_linear_4914_1861">
<stop stop-color="#C0D6E4"></stop>
<stop stop-color="#417DA0" offset="1"></stop>
</linearGradient>
<linearGradient gradientUnits="userSpaceOnUse" y2="92" x2="24" y1="92" x1="176" id="paint1_linear_4914_1861">
<stop stop-color="#C0D6E4"></stop>
<stop stop-color="#417DA0" offset="1"></stop>
</linearGradient>
<linearGradient gradientUnits="userSpaceOnUse" y2="108" x2="24" y1="108" x1="176" id="paint2_linear_4914_1861">
<stop stop-color="#C0D6E4"></stop>
<stop stop-color="#417DA0" offset="1"></stop>
</linearGradient>
<linearGradient gradientUnits="userSpaceOnUse" y2="124" x2="24" y1="124" x1="102" id="paint3_linear_4914_1861">
<stop stop-color="#C0D6E4"></stop>
<stop stop-color="#417DA0" offset="1"></stop>
</linearGradient>
</defs>
</svg>
