<svg xmlns="http://www.w3.org/2000/svg" fill="none" viewBox="0 0 200 200" height="200" width="200">
<rect fill="#417DA0" rx="4" height="8" width="55" y="107" x="24"></rect>
<rect fill="#417DA0" rx="4" height="8" width="29" y="107" x="147"></rect>
<path fill="#417DA0" d="M129.293 107.293C129.683 106.902 130.317 106.902 130.707 107.293L135.5 112.086L140.293 107.293C140.683 106.902 141.317 106.902 141.707 107.293C142.098 107.683 142.098 108.317 141.707 108.707L136.207 114.207C135.817 114.598 135.183 114.598 134.793 114.207L129.293 108.707C128.902 108.317 128.902 107.683 129.293 107.293Z" clip-rule="evenodd" fill-rule="evenodd"></path>
<path fill="#C0D6E4" d="M24 85C24 79.4772 28.4772 75 34 75H166C171.523 75 176 79.4772 176 85C176 90.5228 171.523 95 166 95H34C28.4772 95 24 90.5228 24 85Z"></path>
<mask fill="white" id="path-5-inside-1_4412_3242">
<path d="M166 93V95H34V93H166ZM174 85C174 80.5817 170.418 77 166 77H34C29.5817 77 26 80.5817 26 85C26 89.4183 29.5817 93 34 93V95L33.4854 94.9873C28.2017 94.7195 24 90.3502 24 85C24 79.4772 28.4772 75 34 75H166C171.523 75 176 79.4772 176 85C176 90.5228 171.523 95 166 95V93C170.418 93 174 89.4183 174 85Z"></path>
</mask>
<path mask="url(#path-5-inside-1_4412_3242)" fill-opacity="0.247059" fill="#005A92" d="M34 95L32.767 144.985L33.3834 145H34V95ZM33.4854 94.9873L30.9539 144.923L31.6028 144.956L32.2523 144.972L33.4854 94.9873ZM166 93H116V95H166H216V93H166ZM166 95V45H34V95V145H166V95ZM34 95H84V93H34H-16V95H34ZM34 93V143H166V93V43H34V93ZM174 85H224C224 52.9675 198.033 27 166 27V77V127C142.804 127 124 108.196 124 85H174ZM166 77V27H34V77V127H166V77ZM34 77V27C1.96749 27 -24 52.9675 -24 85H26H76C76 108.196 57.196 127 34 127V77ZM26 85H-24C-24 117.033 1.96749 143 34 143V93V43C57.196 43 76 61.804 76 85H26ZM34 93H-16V95H34H84V93H34ZM34 95L35.233 45.0152L34.7184 45.0025L33.4854 94.9873L32.2523 144.972L32.767 144.985L34 95ZM33.4854 94.9873L36.0168 45.0514C57.1954 46.125 74 63.5861 74 85H24H-26C-26 117.114 -0.792076 143.314 30.9539 144.923L33.4854 94.9873ZM24 85H74C74 107.091 56.0914 125 34 125V75V25C0.862915 25 -26 51.8629 -26 85H24ZM34 75V125H166V75V25H34V75ZM166 75V125C143.909 125 126 107.091 126 85H176H226C226 51.8629 199.137 25 166 25V75ZM176 85H126C126 62.9086 143.909 45 166 45V95V145C199.137 145 226 118.137 226 85H176ZM166 95H216V93H166H116V95H166ZM166 93V143C198.033 143 224 117.033 224 85H174H124C124 61.804 142.804 43 166 43V93Z"></path>
<path fill="#417DA0" d="M24 85C24 79.4772 28.4772 75 34 75H65C70.5228 75 75 79.4772 75 85C75 90.5228 70.5228 95 65 95H34C28.4772 95 24 90.5228 24 85Z"></path>
</svg>
