<svg xmlns="http://www.w3.org/2000/svg" fill="none" viewBox="0 0 200 200" height="200" width="200">
<path fill="white" d="M24 72C24 65.3726 29.3726 60 36 60H164C170.627 60 176 65.3726 176 72V128C176 134.627 170.627 140 164 140H36C29.3726 140 24 134.627 24 128V72Z"></path>
<path fill="#417DA0" d="M164 63H36C31.0294 63 27 67.0294 27 72V128C27 132.971 31.0294 137 36 137H164C168.971 137 173 132.971 173 128V72C173 67.0294 168.971 63 164 63ZM36 60C29.3726 60 24 65.3726 24 72V128C24 134.627 29.3726 140 36 140H164C170.627 140 176 134.627 176 128V72C176 65.3726 170.627 60 164 60H36Z" clip-rule="evenodd" fill-rule="evenodd"></path>
<rect fill="#417DA0" rx="4" height="8" width="61" y="77" x="36"></rect>
<rect fill="#C0D6E4" rx="4" height="8" width="128" y="102" x="36"></rect>
<rect fill="#C0D6E4" rx="4" height="8" width="128" y="118" x="36"></rect>
<path fill="#417DA0" d="M158.707 84.2071C158.317 84.5976 157.683 84.5976 157.293 84.2071L152.5 79.4142L147.707 84.2071C147.317 84.5976 146.683 84.5976 146.293 84.2071C145.902 83.8166 145.902 83.1834 146.293 82.7929L151.793 77.2929C152.183 76.9024 152.817 76.9024 153.207 77.2929L158.707 82.7929C159.098 83.1834 159.098 83.8166 158.707 84.2071Z" clip-rule="evenodd" fill-rule="evenodd"></path>
</svg>
