<svg xmlns="http://www.w3.org/2000/svg" fill="none" viewBox="0 0 200 200" height="200" width="200">
<path fill="white" d="M24 62C24 55.3726 29.3726 50 36 50H164C170.627 50 176 55.3726 176 62V138C176 144.627 170.627 150 164 150H36C29.3726 150 24 144.627 24 138V62Z"></path>
<mask fill="white" id="path-2-inside-1_4412_3215">
<path d="M164 148V150H36V148H164ZM174 138V62C174 56.4772 169.523 52 164 52H36C30.4772 52 26 56.4772 26 62V138C26 143.523 30.4772 148 36 148V150C29.3726 150 24 144.627 24 138V62C24 55.3726 29.3726 50 36 50H164C170.627 50 176 55.3726 176 62V138C176 144.627 170.627 150 164 150V148C169.523 148 174 143.523 174 138Z"></path>
</mask>
<path mask="url(#path-2-inside-1_4412_3215)" fill-opacity="0.247059" fill="#005A92" d="M164 148H114V150H164H214V148H164ZM164 150V100H36V150V200H164V150ZM36 150H86V148H36H-14V150H36ZM36 148V198H164V148V98H36V148ZM174 138H224V62H174H124V138H174ZM174 62H224C224 28.8629 197.137 2 164 2V52V102C141.909 102 124 84.0914 124 62H174ZM164 52V2H36V52V102H164V52ZM36 52V2C2.86292 2 -24 28.8629 -24 62H26H76C76 84.0914 58.0914 102 36 102V52ZM26 62H-24V138H26H76V62H26ZM26 138H-24C-24 171.137 2.86292 198 36 198V148V98C58.0914 98 76 115.909 76 138H26ZM36 148H-14V150H36H86V148H36ZM36 150V100C56.9868 100 74 117.013 74 138H24H-26C-26 172.242 1.75835 200 36 200V150ZM24 138H74V62H24H-26V138H24ZM24 62H74C74 82.9868 56.9868 100 36 100V50V0C1.75835 0 -26 27.7583 -26 62H24ZM36 50V100H164V50V0H36V50ZM164 50V100C143.013 100 126 82.9868 126 62H176H226C226 27.7583 198.242 0 164 0V50ZM176 62H126V138H176H226V62H176ZM176 138H126C126 117.013 143.013 100 164 100V150V200C198.242 200 226 172.242 226 138H176ZM164 150H214V148H164H114V150H164ZM164 148V198C197.137 198 224 171.137 224 138H174H124C124 115.909 141.909 98 164 98V148Z"></path>
<path fill="#C0D6E4" d="M40 70C40 67.7909 41.7909 66 44 66H156C158.209 66 160 67.7909 160 70C160 72.2091 158.209 74 156 74H44C41.7909 74 40 72.2091 40 70Z"></path>
<path fill="#C0D6E4" d="M40 90C40 87.7909 41.7909 86 44 86H111C113.209 86 115 87.7909 115 90C115 92.2091 113.209 94 111 94H44C41.7909 94 40 92.2091 40 90Z"></path>
<path fill="#C0D6E4" d="M75 123C75 120.791 76.7909 119 79 119H156C158.209 119 160 120.791 160 123C160 125.209 158.209 127 156 127H79C76.7909 127 75 125.209 75 123Z"></path>
<path fill="#417DA0" d="M40 119C40 114.582 43.5817 111 48 111H55C59.4183 111 63 114.582 63 119V126C63 130.418 59.4183 134 55 134H48C43.5817 134 40 130.418 40 126V119Z"></path>
<path fill="white" d="M45.2929 119.293C45.6834 118.902 46.3166 118.902 46.7071 119.293L51.5 124.086L56.2929 119.293C56.6834 118.902 57.3166 118.902 57.7071 119.293C58.0976 119.683 58.0976 120.317 57.7071 120.707L52.2071 126.207C51.8166 126.598 51.1834 126.598 50.7929 126.207L45.2929 120.707C44.9024 120.317 44.9024 119.683 45.2929 119.293Z" clip-rule="evenodd" fill-rule="evenodd"></path>
</svg>
