<svg xmlns="http://www.w3.org/2000/svg" fill="none" viewBox="0 0 384 200" height="200" width="384">
<path fill="#262626" d="M75.896 106.216C75.068 106.216 74.3 106.06 73.592 105.748C72.884 105.424 72.272 104.998 71.756 104.47L72.656 103.426C73.076 103.87 73.568 104.23 74.132 104.506C74.708 104.77 75.302 104.902 75.914 104.902C76.694 104.902 77.3 104.728 77.732 104.38C78.164 104.02 78.38 103.552 78.38 102.976C78.38 102.568 78.29 102.244 78.11 102.004C77.942 101.764 77.708 101.56 77.408 101.392C77.12 101.224 76.79 101.056 76.418 100.888L74.726 100.15C74.354 99.994 73.982 99.79 73.61 99.538C73.25 99.286 72.944 98.962 72.692 98.566C72.452 98.17 72.332 97.684 72.332 97.108C72.332 96.508 72.488 95.974 72.8 95.506C73.124 95.026 73.568 94.654 74.132 94.39C74.696 94.114 75.332 93.976 76.04 93.976C76.748 93.976 77.402 94.114 78.002 94.39C78.602 94.654 79.112 95.002 79.532 95.434L78.722 96.406C78.362 96.058 77.96 95.788 77.516 95.596C77.084 95.392 76.592 95.29 76.04 95.29C75.38 95.29 74.846 95.446 74.438 95.758C74.042 96.07 73.844 96.49 73.844 97.018C73.844 97.39 73.94 97.702 74.132 97.954C74.336 98.194 74.588 98.392 74.888 98.548C75.188 98.704 75.494 98.848 75.806 98.98L77.48 99.7C77.936 99.892 78.344 100.126 78.704 100.402C79.076 100.666 79.37 100.996 79.586 101.392C79.802 101.776 79.91 102.262 79.91 102.85C79.91 103.474 79.748 104.044 79.424 104.56C79.1 105.064 78.638 105.466 78.038 105.766C77.438 106.066 76.724 106.216 75.896 106.216ZM82.0912 106V93.184H83.5492V101.86H83.6032L87.3292 97.252H88.9672L86.0332 100.762L89.3632 106H87.7432L85.1872 101.788L83.5492 103.696V106H82.0912ZM91.0033 106V97.252H92.2273L92.3533 98.836H92.4073C92.7073 98.284 93.0733 97.846 93.5053 97.522C93.9373 97.198 94.3993 97.036 94.8913 97.036C95.2393 97.036 95.5513 97.096 95.8273 97.216L95.5393 98.512C95.3953 98.464 95.2633 98.428 95.1433 98.404C95.0233 98.38 94.8733 98.368 94.6933 98.368C94.3213 98.368 93.9313 98.518 93.5233 98.818C93.1273 99.118 92.7793 99.64 92.4793 100.384V106H91.0033ZM99.7996 106.216C98.8756 106.216 98.1976 105.928 97.7656 105.352C97.3336 104.764 97.1176 103.912 97.1176 102.796V97.252H98.6116V102.598C98.6116 103.414 98.7376 104.008 98.9896 104.38C99.2536 104.752 99.6736 104.938 100.25 104.938C100.706 104.938 101.108 104.824 101.456 104.596C101.816 104.356 102.2 103.978 102.608 103.462V97.252H104.084V106H102.86L102.734 104.632H102.68C102.272 105.112 101.84 105.496 101.384 105.784C100.928 106.072 100.4 106.216 99.7996 106.216ZM112.654 106.216C111.922 106.216 111.31 106 110.818 105.568C110.338 105.124 110.098 104.512 110.098 103.732C110.098 102.772 110.524 102.04 111.376 101.536C112.24 101.02 113.602 100.66 115.462 100.456C115.462 100.084 115.408 99.73 115.3 99.394C115.204 99.058 115.024 98.788 114.76 98.584C114.508 98.368 114.142 98.26 113.662 98.26C113.158 98.26 112.684 98.356 112.24 98.548C111.796 98.74 111.4 98.956 111.052 99.196L110.476 98.17C110.884 97.906 111.382 97.654 111.97 97.414C112.57 97.162 113.218 97.036 113.914 97.036C114.982 97.036 115.756 97.366 116.236 98.026C116.716 98.674 116.956 99.544 116.956 100.636V106H115.732L115.606 104.956H115.552C115.144 105.292 114.694 105.586 114.202 105.838C113.722 106.09 113.206 106.216 112.654 106.216ZM113.086 105.028C113.506 105.028 113.902 104.926 114.274 104.722C114.646 104.518 115.042 104.23 115.462 103.858V101.428C114.01 101.608 112.99 101.878 112.402 102.238C111.826 102.598 111.538 103.06 111.538 103.624C111.538 104.116 111.688 104.476 111.988 104.704C112.288 104.92 112.654 105.028 113.086 105.028ZM121.598 106L118.448 97.252H119.978L121.634 102.22C121.766 102.652 121.898 103.084 122.03 103.516C122.174 103.948 122.312 104.374 122.444 104.794H122.516C122.648 104.374 122.78 103.948 122.912 103.516C123.056 103.084 123.188 102.652 123.308 102.22L124.964 97.252H126.422L123.326 106H121.598ZM133.604 106L130.454 97.252H131.984L133.64 102.22C133.772 102.652 133.904 103.084 134.036 103.516C134.18 103.948 134.318 104.374 134.45 104.794H134.522C134.654 104.374 134.786 103.948 134.918 103.516C135.062 103.084 135.194 102.652 135.314 102.22L136.97 97.252H138.428L135.332 106H133.604ZM141.781 106.216C141.049 106.216 140.437 106 139.945 105.568C139.465 105.124 139.225 104.512 139.225 103.732C139.225 102.772 139.651 102.04 140.503 101.536C141.367 101.02 142.729 100.66 144.589 100.456C144.589 100.084 144.535 99.73 144.427 99.394C144.331 99.058 144.151 98.788 143.887 98.584C143.635 98.368 143.269 98.26 142.789 98.26C142.285 98.26 141.811 98.356 141.367 98.548C140.923 98.74 140.527 98.956 140.179 99.196L139.603 98.17C140.011 97.906 140.509 97.654 141.097 97.414C141.697 97.162 142.345 97.036 143.041 97.036C144.109 97.036 144.883 97.366 145.363 98.026C145.843 98.674 146.083 99.544 146.083 100.636V106H144.859L144.733 104.956H144.679C144.271 105.292 143.821 105.586 143.329 105.838C142.849 106.09 142.333 106.216 141.781 106.216ZM142.213 105.028C142.633 105.028 143.029 104.926 143.401 104.722C143.773 104.518 144.169 104.23 144.589 103.858V101.428C143.137 101.608 142.117 101.878 141.529 102.238C140.953 102.598 140.665 103.06 140.665 103.624C140.665 104.116 140.815 104.476 141.115 104.704C141.415 104.92 141.781 105.028 142.213 105.028ZM148.835 106V97.252H150.059L150.185 98.836H150.239C150.539 98.284 150.905 97.846 151.337 97.522C151.769 97.198 152.231 97.036 152.723 97.036C153.071 97.036 153.383 97.096 153.659 97.216L153.371 98.512C153.227 98.464 153.095 98.428 152.975 98.404C152.855 98.38 152.705 98.368 152.525 98.368C152.153 98.368 151.763 98.518 151.355 98.818C150.959 99.118 150.611 99.64 150.311 100.384V106H148.835ZM157.291 106.216C156.667 106.216 156.073 106.102 155.509 105.874C154.945 105.634 154.453 105.346 154.033 105.01L154.771 104.02C155.155 104.32 155.551 104.572 155.959 104.776C156.367 104.968 156.829 105.064 157.345 105.064C157.921 105.064 158.353 104.932 158.641 104.668C158.929 104.392 159.073 104.068 159.073 103.696C159.073 103.396 158.971 103.144 158.767 102.94C158.575 102.736 158.323 102.568 158.011 102.436C157.711 102.292 157.399 102.16 157.075 102.04C156.667 101.884 156.265 101.71 155.869 101.518C155.473 101.314 155.149 101.056 154.897 100.744C154.645 100.42 154.519 100.012 154.519 99.52C154.519 98.812 154.783 98.224 155.311 97.756C155.851 97.276 156.595 97.036 157.543 97.036C158.083 97.036 158.587 97.132 159.055 97.324C159.523 97.516 159.925 97.75 160.261 98.026L159.541 98.962C159.241 98.734 158.929 98.548 158.605 98.404C158.281 98.26 157.927 98.188 157.543 98.188C156.991 98.188 156.583 98.314 156.319 98.566C156.067 98.818 155.941 99.112 155.941 99.448C155.941 99.724 156.031 99.952 156.211 100.132C156.391 100.3 156.625 100.45 156.913 100.582C157.201 100.702 157.507 100.828 157.831 100.96C158.251 101.116 158.665 101.296 159.073 101.5C159.481 101.692 159.817 101.956 160.081 102.292C160.357 102.616 160.495 103.054 160.495 103.606C160.495 104.074 160.369 104.506 160.117 104.902C159.877 105.298 159.517 105.616 159.037 105.856C158.569 106.096 157.987 106.216 157.291 106.216ZM166.092 106.216C165.312 106.216 164.604 106.036 163.968 105.676C163.332 105.304 162.828 104.776 162.456 104.092C162.084 103.408 161.898 102.592 161.898 101.644C161.898 100.684 162.084 99.862 162.456 99.178C162.84 98.494 163.332 97.966 163.932 97.594C164.532 97.222 165.162 97.036 165.822 97.036C166.938 97.036 167.796 97.408 168.396 98.152C169.008 98.896 169.314 99.892 169.314 101.14C169.314 101.296 169.308 101.452 169.296 101.608C169.296 101.752 169.284 101.878 169.26 101.986H163.356C163.416 102.91 163.704 103.648 164.22 104.2C164.748 104.752 165.432 105.028 166.272 105.028C166.692 105.028 167.076 104.968 167.424 104.848C167.784 104.716 168.126 104.548 168.45 104.344L168.972 105.316C168.6 105.556 168.174 105.766 167.694 105.946C167.226 106.126 166.692 106.216 166.092 106.216ZM163.338 100.924H168.018C168.018 100.036 167.826 99.364 167.442 98.908C167.07 98.44 166.542 98.206 165.858 98.206C165.246 98.206 164.694 98.446 164.202 98.926C163.722 99.394 163.434 100.06 163.338 100.924ZM173.042 106.216C172.49 106.216 172.088 106.048 171.836 105.712C171.596 105.364 171.476 104.872 171.476 104.236V93.184H172.952V104.344C172.952 104.572 172.994 104.74 173.078 104.848C173.162 104.944 173.258 104.992 173.366 104.992C173.414 104.992 173.456 104.992 173.492 104.992C173.54 104.98 173.606 104.968 173.69 104.956L173.888 106.072C173.792 106.12 173.678 106.156 173.546 106.18C173.414 106.204 173.246 106.216 173.042 106.216ZM179.667 106V97.252H180.891L181.017 98.512H181.071C181.455 98.092 181.875 97.744 182.331 97.468C182.787 97.18 183.273 97.036 183.789 97.036C184.461 97.036 184.983 97.186 185.355 97.486C185.739 97.774 186.021 98.182 186.201 98.71C186.657 98.218 187.119 97.816 187.587 97.504C188.055 97.192 188.553 97.036 189.081 97.036C189.981 97.036 190.647 97.33 191.079 97.918C191.523 98.494 191.745 99.34 191.745 100.456V106H190.269V100.654C190.269 99.838 190.137 99.244 189.873 98.872C189.609 98.5 189.201 98.314 188.649 98.314C188.001 98.314 187.269 98.764 186.453 99.664V106H184.977V100.654C184.977 99.838 184.845 99.244 184.581 98.872C184.317 98.5 183.903 98.314 183.339 98.314C182.691 98.314 181.959 98.764 181.143 99.664V106H179.667ZM198.137 106.216C197.357 106.216 196.649 106.036 196.013 105.676C195.377 105.304 194.873 104.776 194.501 104.092C194.129 103.408 193.943 102.592 193.943 101.644C193.943 100.684 194.129 99.862 194.501 99.178C194.885 98.494 195.377 97.966 195.977 97.594C196.577 97.222 197.207 97.036 197.867 97.036C198.983 97.036 199.841 97.408 200.441 98.152C201.053 98.896 201.359 99.892 201.359 101.14C201.359 101.296 201.353 101.452 201.341 101.608C201.341 101.752 201.329 101.878 201.305 101.986H195.401C195.461 102.91 195.749 103.648 196.265 104.2C196.793 104.752 197.477 105.028 198.317 105.028C198.737 105.028 199.121 104.968 199.469 104.848C199.829 104.716 200.171 104.548 200.495 104.344L201.017 105.316C200.645 105.556 200.219 105.766 199.739 105.946C199.271 106.126 198.737 106.216 198.137 106.216ZM195.383 100.924H200.063C200.063 100.036 199.871 99.364 199.487 98.908C199.115 98.44 198.587 98.206 197.903 98.206C197.291 98.206 196.739 98.446 196.247 98.926C195.767 99.394 195.479 100.06 195.383 100.924ZM206.509 106.216C205.417 106.216 204.541 105.82 203.881 105.028C203.221 104.224 202.891 103.096 202.891 101.644C202.891 100.696 203.065 99.88 203.413 99.196C203.773 98.5 204.241 97.966 204.817 97.594C205.405 97.222 206.029 97.036 206.689 97.036C207.193 97.036 207.631 97.126 208.003 97.306C208.375 97.486 208.753 97.732 209.137 98.044L209.065 96.55V93.184H210.559V106H209.335L209.209 104.974H209.155C208.819 105.31 208.423 105.604 207.967 105.856C207.511 106.096 207.025 106.216 206.509 106.216ZM206.833 104.974C207.601 104.974 208.345 104.572 209.065 103.768V99.196C208.693 98.86 208.333 98.626 207.985 98.494C207.649 98.35 207.301 98.278 206.941 98.278C206.473 98.278 206.047 98.422 205.663 98.71C205.291 98.986 204.991 99.376 204.763 99.88C204.535 100.372 204.421 100.954 204.421 101.626C204.421 102.67 204.631 103.492 205.051 104.092C205.471 104.68 206.065 104.974 206.833 104.974ZM220.529 106.216C219.701 106.216 218.933 106.06 218.225 105.748C217.517 105.424 216.905 104.998 216.389 104.47L217.289 103.426C217.709 103.87 218.201 104.23 218.765 104.506C219.341 104.77 219.935 104.902 220.547 104.902C221.327 104.902 221.933 104.728 222.365 104.38C222.797 104.02 223.013 103.552 223.013 102.976C223.013 102.568 222.923 102.244 222.743 102.004C222.575 101.764 222.341 101.56 222.041 101.392C221.753 101.224 221.423 101.056 221.051 100.888L219.359 100.15C218.987 99.994 218.615 99.79 218.243 99.538C217.883 99.286 217.577 98.962 217.325 98.566C217.085 98.17 216.965 97.684 216.965 97.108C216.965 96.508 217.121 95.974 217.433 95.506C217.757 95.026 218.201 94.654 218.765 94.39C219.329 94.114 219.965 93.976 220.673 93.976C221.381 93.976 222.035 94.114 222.635 94.39C223.235 94.654 223.745 95.002 224.165 95.434L223.355 96.406C222.995 96.058 222.593 95.788 222.149 95.596C221.717 95.392 221.225 95.29 220.673 95.29C220.013 95.29 219.479 95.446 219.071 95.758C218.675 96.07 218.477 96.49 218.477 97.018C218.477 97.39 218.573 97.702 218.765 97.954C218.969 98.194 219.221 98.392 219.521 98.548C219.821 98.704 220.127 98.848 220.439 98.98L222.113 99.7C222.569 99.892 222.977 100.126 223.337 100.402C223.709 100.666 224.003 100.996 224.219 101.392C224.435 101.776 224.543 102.262 224.543 102.85C224.543 103.474 224.381 104.044 224.057 104.56C223.733 105.064 223.271 105.466 222.671 105.766C222.071 106.066 221.357 106.216 220.529 106.216ZM226.868 106V94.192H228.668L230.936 100.492C231.08 100.9 231.218 101.314 231.35 101.734C231.494 102.142 231.638 102.55 231.782 102.958H231.854C231.998 102.55 232.13 102.142 232.25 101.734C232.382 101.314 232.52 100.9 232.664 100.492L234.896 94.192H236.714V106H235.31V99.502C235.31 98.974 235.334 98.392 235.382 97.756C235.43 97.108 235.472 96.526 235.508 96.01H235.436L234.5 98.692L232.268 104.812H231.278L229.046 98.692L228.11 96.01H228.038C228.074 96.526 228.11 97.108 228.146 97.756C228.194 98.392 228.218 98.974 228.218 99.502V106H226.868ZM243.222 106.216C242.394 106.216 241.626 106.06 240.918 105.748C240.21 105.424 239.598 104.998 239.082 104.47L239.982 103.426C240.402 103.87 240.894 104.23 241.458 104.506C242.034 104.77 242.628 104.902 243.24 104.902C244.02 104.902 244.626 104.728 245.058 104.38C245.49 104.02 245.706 103.552 245.706 102.976C245.706 102.568 245.616 102.244 245.436 102.004C245.268 101.764 245.034 101.56 244.734 101.392C244.446 101.224 244.116 101.056 243.744 100.888L242.052 100.15C241.68 99.994 241.308 99.79 240.936 99.538C240.576 99.286 240.27 98.962 240.018 98.566C239.778 98.17 239.658 97.684 239.658 97.108C239.658 96.508 239.814 95.974 240.126 95.506C240.45 95.026 240.894 94.654 241.458 94.39C242.022 94.114 242.658 93.976 243.366 93.976C244.074 93.976 244.728 94.114 245.328 94.39C245.928 94.654 246.438 95.002 246.858 95.434L246.048 96.406C245.688 96.058 245.286 95.788 244.842 95.596C244.41 95.392 243.918 95.29 243.366 95.29C242.706 95.29 242.172 95.446 241.764 95.758C241.368 96.07 241.17 96.49 241.17 97.018C241.17 97.39 241.266 97.702 241.458 97.954C241.662 98.194 241.914 98.392 242.214 98.548C242.514 98.704 242.82 98.848 243.132 98.98L244.806 99.7C245.262 99.892 245.67 100.126 246.03 100.402C246.402 100.666 246.696 100.996 246.912 101.392C247.128 101.776 247.236 102.262 247.236 102.85C247.236 103.474 247.074 104.044 246.75 104.56C246.426 105.064 245.964 105.466 245.364 105.766C244.764 106.066 244.05 106.216 243.222 106.216Z"></path>
<rect fill="#595959" rx="12" height="24" width="44" y="88" x="269"></rect>
<rect fill="white" rx="10" height="20" width="20" y="90" x="271"></rect>
</svg>
