<svg xmlns="http://www.w3.org/2000/svg" fill="none" viewBox="0 0 200 200" height="200" width="200">
<path fill="#417DA0" d="M42 81C42 78.7909 43.7909 77 46 77H66C68.2091 77 70 78.7909 70 81V111C70 113.209 68.2091 115 66 115H46C43.7909 115 42 113.209 42 111V81Z"></path>
<path fill="#417DA0" d="M86 81C86 78.7909 87.7909 77 90 77H110C112.209 77 114 78.7909 114 81V111C114 113.209 112.209 115 110 115H90C87.7909 115 86 113.209 86 111V81Z"></path>
<path fill="#417DA0" d="M130 81C130 78.7909 131.791 77 134 77H154C156.209 77 158 78.7909 158 81V111C158 113.209 156.209 115 154 115H134C131.791 115 130 113.209 130 111V81Z"></path>
<path fill="#417DA0" d="M70 117C70.5523 117 71 117.448 71 118V119H85V118C85 117.448 85.4477 117 86 117C86.5523 117 87 117.448 87 118V122C87 122.552 86.5523 123 86 123C85.4477 123 85 122.552 85 122V121H71V122C71 122.552 70.5523 123 70 123C69.4477 123 69 122.552 69 122V118C69 117.448 69.4477 117 70 117ZM114 117C114.552 117 115 117.448 115 118V119H129V118C129 117.448 129.448 117 130 117C130.552 117 131 117.448 131 118V122C131 122.552 130.552 123 130 123C129.448 123 129 122.552 129 122V121H115V122C115 122.552 114.552 123 114 123C113.448 123 113 122.552 113 122V118C113 117.448 113.448 117 114 117Z" clip-rule="evenodd" fill-rule="evenodd"></path>
</svg>
