<svg width="77" height="48" viewBox="0 0 77 48" fill="none" xmlns="http://www.w3.org/2000/svg">
<path fill-rule="evenodd" clip-rule="evenodd" d="M0 34.4688L4.90367 22.3328H9.61534L4.71792 34.4688H0Z" fill="white"/>
<path fill-rule="evenodd" clip-rule="evenodd" d="M60.5095 34.4688L65.3504 22.3328H67.9191L63.0785 34.4688H60.5095Z" fill="white"/>
<path fill-rule="evenodd" clip-rule="evenodd" d="M70.0298 34.4688L74.8699 22.3328H76.2341L71.3934 34.4688H70.0298Z" fill="white"/>
<path fill-rule="evenodd" clip-rule="evenodd" d="M56.055 22.3327H51.7901C51.7901 22.3327 51.4962 22.3327 51.3922 22.5923L49.032 29.8176L46.6737 22.5923C46.5698 22.3327 46.2741 22.3327 46.2741 22.3327H38.0738C37.8963 22.3327 37.7474 22.481 37.7474 22.6574V25.1111C37.7474 23.1647 35.6763 22.3327 34.4635 22.3327C31.7477 22.3327 29.9297 24.1215 29.3636 26.8411C29.3329 25.0369 29.183 24.3905 28.697 23.7284C28.4738 23.4041 28.1511 23.1314 27.7998 22.9059C27.0764 22.4821 26.4268 22.3327 25.0308 22.3327H23.3917C23.3917 22.3327 23.0955 22.3327 22.991 22.5923L21.4996 26.2883V22.6574C21.4996 22.481 21.3519 22.3327 21.1747 22.3327H17.3818C17.3818 22.3327 17.089 22.3327 16.9825 22.5923L15.432 26.4355C15.432 26.4355 15.2772 26.8198 15.6311 26.8198H17.089V34.143C17.089 34.3248 17.2321 34.4688 17.4147 34.4688H21.1747C21.3519 34.4688 21.4996 34.3248 21.4996 34.143V26.8198H22.9651C23.8061 26.8198 23.9842 26.8428 24.3114 26.9953C24.5085 27.0697 24.686 27.2202 24.7829 27.3938C24.9811 27.767 25.0308 28.2152 25.0308 29.5367V34.143C25.0308 34.3248 25.1768 34.4688 25.3572 34.4688H28.9609C28.9609 34.4688 29.3682 34.4688 29.5292 34.0666L30.3279 32.0927C31.3898 33.5801 33.1377 34.4688 35.3099 34.4688H35.7845C35.7845 34.4688 36.1944 34.4688 36.3566 34.0666L37.7474 30.622V34.143C37.7474 34.3248 37.8963 34.4688 38.0738 34.4688H41.7524C41.7524 34.4688 42.1583 34.4688 42.3213 34.0666C42.3213 34.0666 43.7926 30.4138 43.7983 30.3862H43.8005C43.8571 30.0823 43.4731 30.0823 43.4731 30.0823H42.16V23.8145L46.2911 34.0666C46.4525 34.4688 46.8592 34.4688 46.8592 34.4688H51.205C51.205 34.4688 51.614 34.4688 51.7754 34.0666L56.3552 22.7258C56.5137 22.3327 56.055 22.3327 56.055 22.3327V22.3327ZM37.7474 30.0823H35.2764C34.2928 30.0823 33.4927 29.2859 33.4927 28.3012C33.4927 27.3182 34.2928 26.5167 35.2764 26.5167H35.9674C36.9485 26.5167 37.7474 27.3182 37.7474 28.3012V30.0823ZM35.5908 47.9835C22.3436 47.9835 11.6021 37.2426 11.6021 23.9935C11.6021 10.7429 22.3436 0 35.5908 0C48.8427 0 59.5854 10.7429 59.5854 23.9935C59.5854 37.2426 48.8427 47.9835 35.5908 47.9835Z" fill="white"/>
</svg>
