<svg width="24" height="24" viewBox="0 0 24 24" fill="none" xmlns="http://www.w3.org/2000/svg">
<path fill-rule="evenodd" clip-rule="evenodd" d="M12 8C13.6569 8 15 6.65685 15 5C15 3.34315 13.6569 2 12 2C10.3431 2 9 3.34315 9 5C9 6.65685 10.3431 8 12 8ZM12 10C14.7614 10 17 7.76142 17 5C17 2.23858 14.7614 0 12 0C9.23858 0 7 2.23858 7 5C7 7.76142 9.23858 10 12 10ZM16.8296 12.9329L15.2322 14.185C14.3606 13.4458 13.2323 13 12 13C9.23858 13 7 15.2386 7 18H5C5 14.134 8.13401 11 12 11C13.8726 11 15.5735 11.7353 16.8296 12.9329ZM18 24V20H14V18H18V14H20V18H24V20H20V24H18Z" fill="#262626"/>
</svg>
