<svg width="24" height="24" viewBox="0 0 24 24" fill="none" xmlns="http://www.w3.org/2000/svg">
<path fill-rule="evenodd" clip-rule="evenodd" d="M2 0C0.895431 0 0 0.89543 0 2V22C0 23.1046 0.89543 24 2 24H22C23.1046 24 24 23.1046 24 22V2C24 0.895431 23.1046 0 22 0H2ZM13.377 3.30693C15.0823 1.56435 17.8563 1.56436 19.5616 3.30694C21.2551 5.03744 21.2551 7.83438 19.5616 9.56489L12.6369 16.641C11.424 17.8804 9.44839 17.8804 8.23551 16.641C7.03443 15.4136 7.03443 13.4325 8.23551 12.2052L12.5033 7.84413C12.8895 7.44941 13.5227 7.44256 13.9174 7.82884C14.3121 8.21512 14.319 8.84825 13.9327 9.24297L9.66493 13.604C9.22463 14.054 9.22463 14.7922 9.66493 15.2421C10.0934 15.68 10.779 15.68 11.2075 15.2421L18.1322 8.16605C19.0649 7.21294 19.0649 5.65888 18.1322 4.70578C17.2113 3.76474 15.7273 3.76474 14.8064 4.70577L6.06884 13.6344C4.64372 15.0907 4.64372 17.4606 6.06884 18.9168C7.48216 20.3611 9.76444 20.3611 11.1778 18.9168L11.1845 18.91L11.1845 18.91L13.2429 16.8466C13.2588 16.8283 13.2754 16.8103 13.2929 16.7929L14.792 15.2937L20.2929 9.79289C20.6834 9.40237 21.3166 9.40237 21.7071 9.79289C22.0976 10.1834 22.0976 10.8166 21.7071 11.2071L16.208 16.7063L16.2072 16.707L12.6037 20.3192C10.4057 22.5614 6.83597 22.5603 4.63942 20.3157C2.45353 18.082 2.45353 14.4692 4.63942 12.2356L13.377 3.30693Z" fill="#262626"/>
</svg>
