<svg width="24" height="24" viewBox="0 0 24 24" fill="none" xmlns="http://www.w3.org/2000/svg">
<path fill-rule="evenodd" clip-rule="evenodd" d="M13.377 3.30693C15.0823 1.56435 17.8563 1.56436 19.5616 3.30694C21.2551 5.03744 21.2551 7.83438 19.5616 9.56489L12.6369 16.641C11.424 17.8804 9.44839 17.8804 8.23551 16.641C7.03443 15.4136 7.03443 13.4325 8.23551 12.2052L12.5033 7.84413C12.8895 7.44941 13.5227 7.44256 13.9174 7.82884C14.3121 8.21512 14.319 8.84825 13.9327 9.24297L9.66493 13.604C9.22463 14.054 9.22463 14.7922 9.66493 15.2421C10.0934 15.68 10.779 15.68 11.2075 15.2421L18.1322 8.16605C19.0649 7.21294 19.0649 5.65888 18.1322 4.70578C17.2113 3.76474 15.7273 3.76474 14.8064 4.70577L6.06884 13.6344C4.64372 15.0907 4.64372 17.4606 6.06884 18.9168C7.48216 20.3611 9.76444 20.3611 11.1778 18.9168L11.185 18.9095L11.185 18.9095L20.2926 9.79323C20.6829 9.40252 21.3161 9.40222 21.7068 9.79255C22.0975 10.1829 22.0978 10.8161 21.7074 11.2068L12.6034 20.3196C10.4053 22.5614 6.83586 22.5601 4.63942 20.3157C2.45353 18.082 2.45353 14.4692 4.63942 12.2356L13.377 3.30693Z" fill="#262626"/>
</svg>
