<svg width="24" height="24" viewBox="0 0 24 24" fill="none" xmlns="http://www.w3.org/2000/svg">
<path fill-rule="evenodd" clip-rule="evenodd" d="M2.90861 7.82867C4.49075 4.38664 7.96771 2 12 2C17.5228 2 22 6.47715 22 12H24C24 5.37258 18.6274 0 12 0C8.41494 0 5.19821 1.57211 3 4.06279V2H1V7.41103L2.90861 7.82867ZM13.8873 4H10.1125L9.47678 5.90777L7.67765 5.00864L5.00864 7.67765L5.90777 9.47678L4 10.1125V13.8873L5.90764 14.5235L5.00864 16.3223L7.67765 18.9914L9.47653 18.0924L10.1127 20H13.8872L14.5238 18.0922L16.3222 18.9915L18.9915 16.3222L18.0922 14.5238L20 13.8872V10.1127L18.0924 9.47653L18.9914 7.67765L16.3223 5.00864L14.5235 5.90764L13.8873 4ZM10.9355 7.85663L11.5542 6H12.446L13.0652 7.85683L13.5087 8.02528C13.5879 8.05535 13.6659 8.08773 13.7428 8.12234L14.1757 8.31729L15.9272 7.44195L16.558 8.07277L15.6827 9.82429L15.8777 10.2572C15.9123 10.3341 15.9446 10.4121 15.9747 10.4913L16.1432 10.9348L18 11.554V12.4462L16.143 13.0659L15.9745 13.5092C15.9445 13.5883 15.9121 13.6664 15.8774 13.7433L15.6824 14.1764L16.5579 15.9274L15.9274 16.5579L14.1764 15.6824L13.7433 15.8774C13.6664 15.9121 13.5883 15.9445 13.5092 15.9745L13.0659 16.143L12.4462 18H11.554L10.9348 16.1432L10.4913 15.9747C10.4121 15.9446 10.3341 15.9123 10.2572 15.8777L9.82429 15.6827L8.07277 16.558L7.44195 15.9272L8.31729 14.1757L8.12234 13.7428C8.08773 13.6659 8.05535 13.5879 8.02528 13.5087L7.85683 13.0652L6 12.446V11.5542L7.85663 10.9355L8.0251 10.4918C8.05522 10.4124 8.08766 10.3342 8.12234 10.2572L8.31729 9.82429L7.44195 8.07277L8.07277 7.44195L9.82429 8.31729L10.2572 8.12234C10.3342 8.08766 10.4124 8.05522 10.4918 8.0251L10.9355 7.85663ZM12 22C16.0323 22 19.5093 19.6134 21.0914 16.1713L23 16.589V22H21V19.9372C18.8018 22.4279 15.5851 24 12 24C5.37258 24 0 18.6274 0 12H2C2 17.5228 6.47715 22 12 22ZM12 13C12.5523 13 13 12.5523 13 12C13 11.4477 12.5523 11 12 11C11.4477 11 11 11.4477 11 12C11 12.5523 11.4477 13 12 13Z" fill="#262626"/>
</svg>
