<svg width="24" height="24" viewBox="0 0 24 24" fill="none" xmlns="http://www.w3.org/2000/svg">
<path fill-rule="evenodd" clip-rule="evenodd" d="M9 2H15V5H9V2ZM7 5V2C7 0.895431 7.89543 0 9 0H15C16.1046 0 17 0.895431 17 2V5H18C19.1046 5 20 5.89543 20 7V20C20 21.1046 19.1046 22 18 22H17V23C17 23.5523 16.5523 24 16 24C15.4477 24 15 23.5523 15 23V22H9V23C9 23.5523 8.55228 24 8 24C7.44772 24 7 23.5523 7 23V22H6C4.89543 22 4 21.1046 4 20V7C4 5.89543 4.89543 5 6 5H7ZM15 7H9H6L6 20H18V7H15ZM8 10H16V12H8V10Z" fill="#262626"/>
</svg>
