<svg width="24" height="24" viewBox="0 0 24 24" fill="none" xmlns="http://www.w3.org/2000/svg">
<path fill-rule="evenodd" clip-rule="evenodd" d="M10.0823 0.710268C8.44529 -0.737681 5.15085 0.0915334 2.62119 2.62119C0.0915334 5.15085 -0.737681 8.44529 0.710268 10.0823L0.817573 10.1964L1.6139 10.9927L10.9927 1.6139L10.1964 0.817573L10.0823 0.710268ZM12.4069 3.02811L3.02811 12.4069L11.6139 20.9927L20.9927 11.6139L12.4069 3.02811ZM22.4069 13.0281L13.0281 22.4069L13.8036 23.1824L13.9177 23.2897C15.5547 24.7377 18.8492 23.9085 21.3788 21.3788C23.9687 18.7889 24.7762 15.3974 23.1824 13.8036L22.4069 13.0281ZM12.6699 14.0097C12.2999 13.6398 11.7001 13.6398 11.3301 14.0097C10.9601 14.3797 10.9601 14.9796 11.3301 15.3496C11.7001 15.7196 12.2999 15.7196 12.6699 15.3496C13.0399 14.9796 13.0399 14.3797 12.6699 14.0097ZM15.3496 11.3301C14.9796 10.9601 14.3797 10.9601 14.0097 11.3301C13.6398 11.7001 13.6398 12.2999 14.0097 12.6699C14.3797 13.0399 14.9796 13.0399 15.3496 12.6699C15.7196 12.2999 15.7196 11.7001 15.3496 11.3301ZM9.99026 11.3301C9.62027 10.9601 9.02041 10.9601 8.65042 11.3301C8.28044 11.7001 8.28044 12.2999 8.65042 12.6699C9.02041 13.0399 9.62027 13.0399 9.99026 12.6699C10.3602 12.2999 10.3602 11.7001 9.99026 11.3301ZM12.6699 8.65042C12.2999 8.28044 11.7001 8.28044 11.3301 8.65042C10.9601 9.02041 10.9601 9.62027 11.3301 9.99026C11.7001 10.3602 12.2999 10.3602 12.6699 9.99026C13.0399 9.62027 13.0399 9.02041 12.6699 8.65042Z" fill="#262626"/>
</svg>
