<svg width="24" height="24" viewBox="0 0 24 24" fill="none" xmlns="http://www.w3.org/2000/svg">
<path fill-rule="evenodd" clip-rule="evenodd" d="M2.62119 2.62119C5.15085 0.0915334 8.44529 -0.737681 10.0823 0.710268L10.1964 0.817573L23.1824 13.8036C24.7762 15.3974 23.9687 18.7889 21.3788 21.3788C18.8492 23.9085 15.5547 24.7377 13.9177 23.2897L13.8036 23.1824L0.817573 10.1964L0.710268 10.0823C-0.737681 8.44529 0.0915334 5.15085 2.62119 2.62119ZM20.039 13.3398L13.3392 20.0396L15.1018 21.8023L15.1731 21.8705C15.8979 22.5116 18.1367 21.9413 20.039 20.039C21.9229 18.1551 22.4889 15.9664 21.9029 15.2119L21.8426 15.1434L20.039 13.3398ZM12 5.30085L5.30085 12L11.9993 18.6998L18.6992 12L12 5.30085ZM11.3301 14.0097C11.7001 13.6398 12.2999 13.6398 12.6699 14.0097C13.0399 14.3797 13.0399 14.9796 12.6699 15.3496C12.2999 15.7196 11.7001 15.7196 11.3301 15.3496C10.9601 14.9796 10.9601 14.3797 11.3301 14.0097ZM14.0097 11.3301C14.3797 10.9601 14.9796 10.9601 15.3496 11.3301C15.7196 11.7001 15.7196 12.2999 15.3496 12.6699C14.9796 13.0399 14.3797 13.0399 14.0097 12.6699C13.6398 12.2999 13.6398 11.7001 14.0097 11.3301ZM8.65042 11.3301C9.02041 10.9601 9.62027 10.9601 9.99026 11.3301C10.3602 11.7001 10.3602 12.2999 9.99026 12.6699C9.62027 13.0399 9.02041 13.0399 8.65042 12.6699C8.28044 12.2999 8.28044 11.7001 8.65042 11.3301ZM11.3301 8.65042C11.7001 8.28044 12.2999 8.28044 12.6699 8.65042C13.0399 9.02041 13.0399 9.62027 12.6699 9.99026C12.2999 10.3602 11.7001 10.3602 11.3301 9.99026C10.9601 9.62027 10.9601 9.02041 11.3301 8.65042ZM3.96102 3.96102C2.12011 5.80193 1.52657 7.95798 2.03584 8.71327L2.09044 8.78407L2.1574 8.85655L3.96102 10.6602L10.6602 3.96102L8.89815 2.19774L8.82694 2.12955C8.10206 1.48838 5.8633 2.05874 3.96102 3.96102Z" fill="#262626"/>
</svg>
