<svg width="24" height="24" viewBox="0 0 24 24" fill="none" xmlns="http://www.w3.org/2000/svg">
<path fill-rule="evenodd" clip-rule="evenodd" d="M2 4C2 2.89543 2.89543 2 4 2H20C21.1046 2 22 2.89543 22 4V10C23.1046 10 24 10.8954 24 12V22H22V18H2V22H0V12C0 10.8954 0.895431 10 2 10V4ZM2 16H22V12H2V16ZM20 4V10C20 7.79086 18.2091 6 16 6H15C13.8053 6 12.7329 6.52376 12 7.35418C11.2671 6.52376 10.1947 6 9 6H8C5.79086 6 4 7.79086 4 10V4H20ZM16 8C17.1046 8 18 8.89543 18 10H13C13 8.89543 13.8954 8 15 8H16ZM9 8C10.1046 8 11 8.89543 11 10H6C6 8.89543 6.89543 8 8 8H9Z" fill="#262626"/>
</svg>
