<svg width="24" height="24" viewBox="0 0 24 24" fill="none" xmlns="http://www.w3.org/2000/svg">
<path fill-rule="evenodd" clip-rule="evenodd" d="M8.04321 2.70884C8.17136 2.28777 8.55975 2 8.99989 2H11.9999C12.5522 2 12.9999 2.44772 12.9999 3C12.9999 3.55228 12.5522 4 11.9999 4H9.74083L8.03161 9.616C9.79525 10.532 11 12.3753 11 14.5C11 17.5376 8.53757 20 5.5 20C2.46243 20 0 17.5376 0 14.5C0 11.4624 2.46243 9 5.5 9C5.70895 9 5.91517 9.01165 6.11806 9.03434L8.04321 2.70884ZM5.5 11L5.5198 11.0001L5.21042 12.0166C3.96612 12.1601 3 13.2172 3 14.5C3 15.8807 4.11929 17 5.5 17C6.88071 17 8 15.8807 8 14.5C8 13.7391 7.66005 13.0576 7.12373 12.599L7.43328 11.5819C8.37753 12.2088 9 13.2817 9 14.5C9 16.433 7.433 18 5.5 18C3.567 18 2 16.433 2 14.5C2 12.567 3.567 11 5.5 11ZM18.5 17C19.8807 17 21 15.8807 21 14.5C21 13.2814 20.1281 12.2664 18.9741 12.0449L18.6134 11.0018C20.4939 11.0616 22 12.6049 22 14.5C22 16.433 20.433 18 18.5 18C16.567 18 15 16.433 15 14.5C15 13.2361 15.6699 12.1287 16.6741 11.5134L17.0121 12.4908C16.398 12.9463 16 13.6767 16 14.5C16 15.8807 17.1193 17 18.5 17ZM16.0104 9.59439C14.2239 10.5028 13 12.3585 13 14.5C13 17.5376 15.4624 20 18.5 20C21.5376 20 24 17.5376 24 14.5C24 11.4624 21.5376 9 18.5 9C18.3079 9 18.1182 9.00985 17.9312 9.02906L17.217 6.96382C17.1462 6.75926 17.0158 6.59237 16.8518 6.47589C16.6757 6.19034 16.3601 6 16 6H11C10.4477 6 10 6.44772 10 7C10 7.55228 10.4477 8 11 8H15.4591L16.0104 9.59439Z" fill="#262626"/>
</svg>
