<svg width="24" height="24" viewBox="0 0 24 24" fill="none" xmlns="http://www.w3.org/2000/svg">
<path fill-rule="evenodd" clip-rule="evenodd" d="M2 0C0.895431 0 0 0.89543 0 2V22C0 23.1046 0.89543 24 2 24H22C23.1046 24 24 23.1046 24 22V2C24 0.895431 23.1046 0 22 0H2ZM7.70711 3.29289C8.09763 3.68342 8.09763 4.31658 7.70711 4.70711L5.41422 7H15C18.866 7 22 10.134 22 14C22 17.866 18.866 21 15 21H13.7879C13.2356 21 12.7879 20.5523 12.7879 20C12.7879 19.4477 13.2356 19 13.7879 19H15C17.7614 19 20 16.7614 20 14C20 11.2386 17.7614 9 15 9H5.41421L7.70711 11.2929C8.09763 11.6834 8.09763 12.3166 7.70711 12.7071C7.31659 13.0976 6.68342 13.0976 6.2929 12.7071L2.29289 8.70711C2.10536 8.51957 2 8.26522 2 8C2 7.73479 2.10536 7.48043 2.29289 7.2929L6.2929 3.29289C6.68342 2.90237 7.31659 2.90237 7.70711 3.29289Z" fill="#262626"/>
</svg>
