<svg width="24" height="24" viewBox="0 0 24 24" fill="none" xmlns="http://www.w3.org/2000/svg">
<path fill-rule="evenodd" clip-rule="evenodd" d="M7.70711 4.7071C8.09763 4.31657 8.09763 3.68341 7.70711 3.29289C7.31658 2.90236 6.68342 2.90236 6.29289 3.29289L2.29289 7.29289C2.10535 7.48042 2 7.73478 2 8C2 8.26521 2.10535 8.51957 2.29289 8.7071L6.29289 12.7071C6.68342 13.0976 7.31658 13.0976 7.70711 12.7071C8.09763 12.3166 8.09763 11.6834 7.70711 11.2929L5.41421 8.99999H15C17.7614 8.99999 20 11.2386 20 14C20 16.7614 17.7614 19 15 19H13.7879C13.2356 19 12.7879 19.4477 12.7879 20C12.7879 20.5523 13.2356 21 13.7879 21H15C18.866 21 22 17.866 22 14C22 10.134 18.866 6.99999 15 6.99999H5.41421L7.70711 4.7071Z" fill="#262626"/>
</svg>
