<svg width="24" height="24" viewBox="0 0 24 24" fill="none" xmlns="http://www.w3.org/2000/svg">
<path fill-rule="evenodd" clip-rule="evenodd" d="M9.16115 3.8317L12 0L14.8388 3.8317C16.1005 5.53465 15.5894 7.95753 13.7473 9.00572C12.664 9.62217 11.336 9.62217 10.2527 9.00572C8.41059 7.95753 7.89946 5.53465 9.16115 3.8317ZM10.7682 5.0223L12 3.35964L13.2318 5.0223C13.7793 5.76126 13.5575 6.8126 12.7582 7.26743C12.2881 7.53493 11.7119 7.53493 11.2418 7.26743C10.4425 6.8126 10.2207 5.76126 10.7682 5.0223ZM3.14286 12C3.06396 12 3 12.064 3 12.1429V16.5C3 17.3284 3.67157 18 4.5 18C5.32843 18 6 17.3284 6 16.5V15C6 14.4477 6.44772 14 7 14C7.55228 14 8 14.4477 8 15V16.5C8 18.2632 6.69615 19.7219 5 19.9646V22H11.1707C11.0602 21.6872 11 21.3506 11 21V17C11 16.4477 11.4477 16 12 16C12.5523 16 13 16.4477 13 17V21C13 21.5523 13.4477 22 14 22C14.5523 22 15 21.5523 15 21V16V15C15 14.4477 15.4477 14 16 14C16.5523 14 17 14.4477 17 15V16C17 17.1046 17.8954 18 19 18C20.1046 18 21 17.1046 21 16V12.1429C21 12.064 20.936 12 20.8571 12H13H11H3.14286ZM17 21V19.4649C17.5883 19.8052 18.2714 20 19 20V22H16.8293C16.9398 21.6872 17 21.3506 17 21ZM21 22V19.4649C22.1956 18.7733 23 17.4806 23 16V12.1429C23 10.9594 22.0406 10 20.8571 10H13H11H3.14286C1.95939 10 1 10.9594 1 12.1429V16.5C1 17.8962 1.81753 19.1015 3 19.6632V22C3 23.1046 3.89543 24 5 24H14H19C20.1046 24 21 23.1046 21 22Z" fill="#262626"/>
</svg>
