<svg width="24" height="24" viewBox="0 0 24 24" fill="none" xmlns="http://www.w3.org/2000/svg">
<path fill-rule="evenodd" clip-rule="evenodd" d="M12 0L9.16115 3.8317C7.89946 5.53465 8.41059 7.95753 10.2527 9.00572C10.4916 9.14169 10.7425 9.24767 11 9.32366V7C11 6.44772 11.4477 6 12 6C12.5523 6 13 6.44772 13 7V9.32366C13.2575 9.24767 13.5084 9.14169 13.7473 9.00572C15.5894 7.95753 16.1005 5.53465 14.8388 3.8317L12 0ZM1 11.1429C1 11.064 1.06396 11 1.14286 11H22.8571C22.936 11 23 11.064 23 11.1429V16C23 17.1046 22 18 20 18C18 18 17 17.1046 17 16V15C17 14.4477 16.5523 14 16 14C15.4477 14 15 14.4477 15 15V21C15 21.5523 14.5523 22 14 22C13.4477 22 13 21.5523 13 21V17C13 16.4477 12.5523 16 12 16C11.4477 16 11 16.4477 11 17V21C11 23 11.5 23.5 12 24H4C3.44772 24 3 23.5523 3 23V19.9646C7 19.9646 8 18.2632 8 16.5V15C8 14.4477 7.55228 14 7 14C6.44772 14 6 14.4477 6 15V16.5C6 17.3284 5 18 3.5 18C2 18 1 17.3284 1 16.5V11.1429ZM17 21V19.4649C17.9112 19.9525 18.8223 19.9664 20.4899 19.9918C20.6525 19.9943 20.8223 19.9969 21 20V23C21 23.5523 20.5523 24 20 24H16C16.5 23.5 17 23 17 21Z" fill="#262626"/>
</svg>
