<svg width="24" height="24" viewBox="0 0 24 24" fill="none" xmlns="http://www.w3.org/2000/svg">
<path fill-rule="evenodd" clip-rule="evenodd" d="M2.73326 11.0465L3.59992 22H20.3999L21.2666 11.0465C22.8832 10.2957 24 8.69132 24 6.83333C24 4.256 21.851 2.16667 19.2 2.16667C18.1987 2.16667 17.269 2.46474 16.4997 2.9746C15.4003 1.76371 13.7918 1 11.9999 1C10.208 1 8.59961 1.76368 7.5002 2.97453C6.7309 2.46471 5.80125 2.16667 4.8 2.16667C2.14903 2.16667 0 4.256 0 6.83333C0 8.69126 1.11676 10.2956 2.73326 11.0465ZM17 10H7V12H17V10Z" fill="#262626"/>
</svg>
