<svg width="24" height="24" viewBox="0 0 24 24" fill="none" xmlns="http://www.w3.org/2000/svg">
<path fill-rule="evenodd" clip-rule="evenodd" d="M1 3V3.97516C1 4.54834 1.13938 5.15817 1.50673 5.70521C1.87782 6.25782 2.43671 6.67923 3.16035 6.94055C3.61531 7.10484 3.78494 7.25633 3.85875 7.35624C3.92505 7.44601 4 7.60964 4 8V9H6V8C6 7.35811 5.87573 6.72063 5.46743 6.16791C5.06663 5.62533 4.48625 5.29294 3.83965 5.05945C3.46173 4.92298 3.27062 4.74439 3.1671 4.59023C3.05984 4.43051 3 4.22681 3 3.97516V3H1ZM0 19H2H22H24C24 20.1046 23.1046 21 22 21H2C0.89543 21 0 20.1046 0 19ZM2.38876 12L2.7773 14.1758C2.86246 14.6527 3.27725 15 3.76172 15H6.23824C6.72271 15 7.1375 14.6527 7.22267 14.1758L7.6112 12H2.38876ZM1.19437 10C0.571744 10 0.100492 10.5629 0.209944 11.1758L0.80844 14.5274C1.06394 15.9582 2.30831 17 3.76172 17H6.23824C7.69166 17 8.93602 15.9582 9.19152 14.5274L9.79002 11.1758C9.89947 10.5629 9.42822 10 8.80559 10H1.19437ZM12.1901 6L12.6465 11.0202C11.9273 11.3726 11.2886 11.8052 10.7546 12.3003L10.0992 5.09054C10.0459 4.50492 10.507 4 11.0951 4H16.905C17.493 4 17.9541 4.50492 17.9009 5.09054L17.4544 10.0018C17.3865 10.0006 17.3183 10 17.25 10C16.6257 10 16.0176 10.0504 15.433 10.146L15.81 6H12.1901ZM21.8267 15H23C23 16.1046 22.1046 17 21 17H12C10.8954 17 10 16.1046 10 15H11.1733C11.7838 13.2748 13.9372 12 16.5 12C19.0628 12 21.2162 13.2748 21.8267 15ZM19.4713 15C19.3954 14.93 19.3096 14.8595 19.2127 14.789C18.5946 14.3395 17.642 14 16.5 14C15.358 14 14.4054 14.3395 13.7873 14.789C13.6904 14.8595 13.6046 14.93 13.5287 15H19.4713Z" fill="#262626"/>
</svg>
