<svg width="24" height="24" viewBox="0 0 24 24" fill="none" xmlns="http://www.w3.org/2000/svg">
<path fill-rule="evenodd" clip-rule="evenodd" d="M15 5C15 6.65685 13.6569 8 12 8C10.3431 8 9 6.65685 9 5C9 3.34315 10.3431 2 12 2C13.6569 2 15 3.34315 15 5ZM17 5C17 7.76142 14.7614 10 12 10C9.23858 10 7 7.76142 7 5C7 2.23858 9.23858 0 12 0C14.7614 0 17 2.23858 17 5ZM17.0997 13.9384C15.752 12.5057 13.8389 11.6111 11.7167 11.6111C7.63594 11.6111 4.32782 14.9192 4.32782 19H6.43893C6.43893 16.0852 8.80187 13.7222 11.7167 13.7222C13.2559 13.7222 14.6412 14.3811 15.6059 15.4322L17.0997 13.9384ZM16.8884 21.4766L20.8991 17.4659C21.2761 17.089 21.2761 16.4778 20.8991 16.1009C20.5222 15.7239 19.911 15.7239 19.5341 16.1009L15.5234 20.1116L15.2352 21.7648L16.8884 21.4766ZM17.7674 23.169L22.1848 18.7516C23.2718 17.6646 23.2718 15.9022 22.1848 14.8152C21.0978 13.7283 19.3354 13.7283 18.2485 14.8152L13.831 19.2327L13 24L17.7674 23.169Z" fill="#262626"/>
</svg>
