<svg width="24" height="24" viewBox="0 0 24 24" fill="none" xmlns="http://www.w3.org/2000/svg">
<path fill-rule="evenodd" clip-rule="evenodd" d="M12 21.25C17.1086 21.25 21.25 17.1086 21.25 12C21.25 6.89137 17.1086 2.75 12 2.75C6.89137 2.75 2.75 6.89137 2.75 12C2.75 17.1086 6.89137 21.25 12 21.25ZM22.75 12C22.75 17.9371 17.9371 22.75 12 22.75C6.06294 22.75 1.25 17.9371 1.25 12C1.25 6.06294 6.06294 1.25 12 1.25C17.9371 1.25 22.75 6.06294 22.75 12Z" fill="#262626"/>
<path d="M10.4393 12L14.9697 16.5303L16.0303 15.4697L12.5607 12L16.0303 8.53033L14.9697 7.46967L10.4393 12Z" fill="#262626"/>
<path d="M6.93934 12L11.4697 16.5303L12.5303 15.4697L9.06066 12L12.5303 8.53033L11.4697 7.46967L6.93934 12Z" fill="#262626"/>
</svg>
