<svg width="24" height="24" viewBox="0 0 24 24" fill="none" xmlns="http://www.w3.org/2000/svg">
<path fill-rule="evenodd" clip-rule="evenodd" d="M21.25 12C21.25 6.89137 17.1086 2.75 12 2.75C6.89137 2.75 2.75 6.89137 2.75 12C2.75 17.1086 6.89137 21.25 12 21.25C17.1086 21.25 21.25 17.1086 21.25 12ZM12 1.25C17.9371 1.25 22.75 6.06294 22.75 12C22.75 17.9371 17.9371 22.75 12 22.75C6.06294 22.75 1.25 17.9371 1.25 12C1.25 6.06294 6.06294 1.25 12 1.25Z" fill="#262626"/>
<path d="M12 13.5607L16.5303 9.03033L15.4697 7.96967L12 11.4393L8.53033 7.96967L7.46967 9.03033L12 13.5607Z" fill="#262626"/>
<path d="M12 17.0607L16.5303 12.5303L15.4697 11.4697L12 14.9393L8.53033 11.4697L7.46967 12.5303L12 17.0607Z" fill="#262626"/>
</svg>
