<svg width="24" height="24" viewBox="0 0 24 24" fill="none" xmlns="http://www.w3.org/2000/svg">
<path fill-rule="evenodd" clip-rule="evenodd" d="M12 2.75C6.89137 2.75 2.75 6.89137 2.75 12C2.75 17.1086 6.89137 21.25 12 21.25C17.1086 21.25 21.25 17.1086 21.25 12C21.25 6.89137 17.1086 2.75 12 2.75ZM1.25 12C1.25 6.06294 6.06294 1.25 12 1.25C17.9371 1.25 22.75 6.06294 22.75 12C22.75 17.9371 17.9371 22.75 12 22.75C6.06294 22.75 1.25 17.9371 1.25 12Z" fill="#262626"/>
<path d="M13.5607 12L9.03033 7.46967L7.96967 8.53033L11.4393 12L7.96967 15.4697L9.03033 16.5303L13.5607 12Z" fill="#262626"/>
<path d="M17.0607 12L12.5303 7.46967L11.4697 8.53033L14.9393 12L11.4697 15.4697L12.5303 16.5303L17.0607 12Z" fill="#262626"/>
</svg>
