<svg width="24" height="24" viewBox="0 0 24 24" fill="none" xmlns="http://www.w3.org/2000/svg">
<path fill-rule="evenodd" clip-rule="evenodd" d="M20 8C20 12.4183 16.4183 16 12 16C7.58172 16 4 12.4183 4 8C4 3.58172 7.58172 0 12 0C16.4183 0 20 3.58172 20 8ZM10 9C10.5523 9 11 8.55228 11 8C11 7.44772 10.5523 7 10 7C9.44772 7 9 7.44772 9 8C9 8.55228 9.44772 9 10 9ZM14 9C14.5523 9 15 8.55228 15 8C15 7.44772 14.5523 7 14 7C13.4477 7 13 7.44772 13 8C13 8.55228 13.4477 9 14 9ZM12 17C8.13401 17 5 20.134 5 24H19C19 20.134 15.866 17 12 17Z" fill="#262626"/>
</svg>
