<svg width="25" height="24" viewBox="0 0 25 24" fill="none" xmlns="http://www.w3.org/2000/svg">
<path fill-rule="evenodd" clip-rule="evenodd" d="M3.48651 19V17H1.00418C0.236826 17 -0.244597 16.1714 0.13542 15.5048L2.98833 10.5C2.98833 4.70126 7.68914 0 13.4879 0C21.928 0 26.9185 9.45374 22.1572 16.4226L21.4211 17.5V24H8.96654V22H6.48651C4.82966 22 3.48651 20.6569 3.48651 19ZM15.4444 7C15.7196 7 15.9426 6.77614 15.9426 6.5C15.9426 6.22386 15.7196 6 15.4444 6C15.1693 6 14.9463 6.22386 14.9463 6.5C14.9463 6.77614 15.1693 7 15.4444 7ZM15.4444 9C16.8201 9 17.9354 7.88071 17.9354 6.5C17.9354 5.11929 16.8201 4 15.4444 4C14.0687 4 12.9535 5.11929 12.9535 6.5C12.9535 7.0739 13.1462 7.60264 13.4702 8.0246L13.1447 8.56898L10.9585 7.39873C10.9055 6.06497 9.81144 5 8.46954 5C7.09384 5 5.97862 6.11929 5.97862 7.5C5.97862 8.88071 7.09384 10 8.46954 10C9.15469 10 9.77523 9.72237 10.2256 9.27309L12.1181 10.2861L11.6853 11.0101C11.611 11.0034 11.5357 11 11.4597 11C10.084 11 8.96877 12.1193 8.96877 13.5C8.96877 14.8807 10.084 16 11.4597 16C12.8354 16 13.9506 14.8807 13.9506 13.5C13.9506 12.9257 13.7577 12.3966 13.4333 11.9745L13.8791 11.2287L15.9476 12.336C15.9441 12.3902 15.9423 12.4449 15.9423 12.5C15.9423 13.8807 17.0575 15 18.4332 15C19.8089 15 20.9242 13.8807 20.9242 12.5C20.9242 11.1193 19.8089 10 18.4332 10C17.8379 10 17.2914 10.2096 16.8629 10.5592L14.9057 9.51158L15.2176 8.98977C15.2923 8.99654 15.368 9 15.4444 9ZM8.46954 8C8.74468 8 8.96773 7.77614 8.96773 7.5C8.96773 7.22386 8.74468 7 8.46954 7C8.1944 7 7.97136 7.22386 7.97136 7.5C7.97136 7.77614 8.1944 8 8.46954 8ZM18.4332 13C18.7084 13 18.9314 12.7761 18.9314 12.5C18.9314 12.2239 18.7084 12 18.4332 12C18.1581 12 17.9351 12.2239 17.9351 12.5C17.9351 12.7761 18.1581 13 18.4332 13ZM11.9579 13.5C11.9579 13.7761 11.7348 14 11.4597 14C11.1846 14 10.9615 13.7761 10.9615 13.5C10.9615 13.2239 11.1846 13 11.4597 13C11.7348 13 11.9579 13.2239 11.9579 13.5Z" fill="#262626"/>
</svg>
