<svg width="24" height="24" viewBox="0 0 24 24" fill="none" xmlns="http://www.w3.org/2000/svg">
<path fill-rule="evenodd" clip-rule="evenodd" d="M4 2C4 0.89543 4.89543 0 6 0H18C19.1046 0 20 0.895431 20 2V11H8V9H6V11H4V2ZM4 13V22C4 23.1046 4.89543 24 6 24H18C19.1046 24 20 23.1046 20 22V13H8V15H6V13H4ZM15.2847 17.8695L13.4981 14L11.7116 17.8695C11.0475 19.3078 12.0133 21 13.4981 21C14.983 21 15.9487 19.3078 15.2847 17.8695ZM14.4981 3H12.4981V4.69598L11.0598 3.79723L9.99998 5.49333L11.611 6.50001L10 7.50667L11.0598 9.20276L12.4981 8.30403V10H14.4981V8.30407L15.9363 9.20276L16.9962 7.50667L15.3852 6.50001L16.9962 5.49333L15.9363 3.79723L14.4981 4.69594V3Z" fill="#262626"/>
</svg>
