<svg width="24" height="24" viewBox="0 0 24 24" fill="none" xmlns="http://www.w3.org/2000/svg">
<path fill-rule="evenodd" clip-rule="evenodd" d="M2 16V5H16V16C16 18.2091 14.2091 20 12 20H6C3.79086 20 2 18.2091 2 16ZM0 4C0 3.44771 0.447715 3 1 3H17C17.5523 3 18 3.44772 18 4V7.25606C18.4692 7.09023 18.974 7 19.5 7C21.9853 7 24 9.01472 24 11.5C24 13.9853 21.9853 16 19.5 16C18.974 16 18.4692 15.9098 18 15.7439V16C18 19.3137 15.3137 22 12 22H6C2.68629 22 0 19.3137 0 16V4ZM18 13.5002C18.4178 13.814 18.9372 14 19.5 14C20.8807 14 22 12.8807 22 11.5C22 10.1193 20.8807 9 19.5 9C18.9372 9 18.4178 9.18597 18 9.49982V13.5002Z" fill="#262626"/>
</svg>
