<svg width="24" height="24" viewBox="0 0 24 24" fill="none" xmlns="http://www.w3.org/2000/svg">
<path fill-rule="evenodd" clip-rule="evenodd" d="M11 10C13.7614 10 16 7.76142 16 5C16 2.23858 13.7614 0 11 0C8.23858 0 6 2.23858 6 5C6 7.76142 8.23858 10 11 10ZM11 11C7.13401 11 4 14.134 4 18H8.7108L14.7877 12.1123C13.6959 11.4084 12.3956 11 11 11ZM17.8639 12.2854C18.2545 11.9049 18.8876 11.9049 19.2782 12.2854L23.6976 16.5923C24.0881 16.9728 24.0881 17.5899 23.6976 17.9704L21.2227 20.3823C20.8322 20.7628 20.199 20.7628 19.8085 20.3823L18.2175 18.8318L12.9142 24L11.5 22.6218L16.8033 17.4536L15.3891 16.0754C14.9985 15.6949 14.9985 15.0778 15.3891 14.6973L17.8639 12.2854Z" fill="#262626"/>
</svg>
