<svg width="24" height="24" viewBox="0 0 24 24" fill="none" xmlns="http://www.w3.org/2000/svg">
<path fill-rule="evenodd" clip-rule="evenodd" d="M11.9997 7.99978C13.6565 7.99978 14.9996 6.65667 14.9996 4.99986C14.9996 3.34305 13.6565 1.99994 11.9997 1.99994C10.3429 1.99994 8.99975 3.34305 8.99975 4.99986C8.99975 6.65667 10.3429 7.99978 11.9997 7.99978ZM11.9997 9.99972C14.761 9.99972 16.9995 7.76121 16.9995 4.99986C16.9995 2.23851 14.761 0 11.9997 0C9.23832 0 6.9998 2.23851 6.9998 4.99986C6.9998 7.76121 9.23832 9.99972 11.9997 9.99972ZM18.4436 18.8862L15.4212 15.0002L16.9998 13.7724L19.7104 17.2574L22.4209 13.7724L23.9996 15.0002L20.9772 18.8862L23.9996 22.7721L22.421 24L19.7104 20.5149L16.9998 24L15.4211 22.7721L18.4436 18.8862ZM14.1342 13.4769L15.8355 12.1433C14.7339 11.4203 13.4159 10.9997 11.9997 10.9997C8.13378 10.9997 4.99986 14.1336 4.99986 17.9995H6.9998C6.9998 15.2381 9.23832 12.9996 11.9997 12.9996C12.7632 12.9996 13.4868 13.1708 14.1342 13.4769Z" fill="#262626"/>
</svg>
