<svg width="24" height="24" viewBox="0 0 24 24" fill="none" xmlns="http://www.w3.org/2000/svg">
<path fill-rule="evenodd" clip-rule="evenodd" d="M18 4C18 2.89543 17.1046 2 16 2H4C2.89543 2 2 2.89543 2 4V16.7896L6 14.328V18C6 19.1046 6.89543 20 8 20H16.4471L22 22.5629L22 16.5714V10C22 8.89543 21.1046 8 20 8H18V4ZM6 10V12H5.96696L4 13.2104V4L16 4V8H8C6.89543 8 6 8.89543 6 10ZM20 18.5714V10H8V18H16.8864L20 19.4371L20 18.5714ZM11 15C11.5523 15 12 14.5523 12 14C12 13.4477 11.5523 13 11 13C10.4477 13 10 13.4477 10 14C10 14.5523 10.4477 15 11 15ZM15 14C15 14.5523 14.5523 15 14 15C13.4477 15 13 14.5523 13 14C13 13.4477 13.4477 13 14 13C14.5523 13 15 13.4477 15 14ZM17 15C17.5523 15 18 14.5523 18 14C18 13.4477 17.5523 13 17 13C16.4477 13 16 13.4477 16 14C16 14.5523 16.4477 15 17 15Z" fill="#262626"/>
</svg>
