<svg width="24" height="24" viewBox="0 0 24 24" fill="none" xmlns="http://www.w3.org/2000/svg">
<path fill-rule="evenodd" clip-rule="evenodd" d="M16 2C17.1046 2 18 2.89543 18 4V6H7C5.34315 6 4 7.34315 4 9V15.5588L2 16.7896V4C2 2.89543 2.89543 2 4 2H16ZM8 8C6.89543 8 6 8.89543 6 10V18C6 19.1046 6.89543 20 8 20H16.4471L22 22.5629L22 16.5714V10C22 8.89543 21.1046 8 20 8H8ZM12 14C12 14.5523 11.5523 15 11 15C10.4477 15 10 14.5523 10 14C10 13.4477 10.4477 13 11 13C11.5523 13 12 13.4477 12 14ZM14 15C14.5523 15 15 14.5523 15 14C15 13.4477 14.5523 13 14 13C13.4477 13 13 13.4477 13 14C13 14.5523 13.4477 15 14 15ZM18 14C18 14.5523 17.5523 15 17 15C16.4477 15 16 14.5523 16 14C16 13.4477 16.4477 13 17 13C17.5523 13 18 13.4477 18 14Z" fill="#262626"/>
</svg>
