<svg width="24" height="24" viewBox="0 0 24 24" fill="none" xmlns="http://www.w3.org/2000/svg">
<path fill-rule="evenodd" clip-rule="evenodd" d="M16.9995 4.99986C16.9995 7.76121 14.761 9.99972 11.9997 9.99972C9.23832 9.99972 6.9998 7.76121 6.9998 4.99986C6.9998 2.23851 9.23832 0 11.9997 0C14.761 0 16.9995 2.23851 16.9995 4.99986ZM11.9997 10.9997C8.13378 10.9997 4.99986 14.1336 4.99986 17.9995H15.3673L12.6852 14.5511L15.8705 12.1665C14.7618 11.4292 13.4309 10.9997 11.9997 10.9997ZM15.2605 15.0002L18.2829 18.8862L15.2605 22.7721L16.8392 24L19.5498 20.5149L22.2603 24L23.839 22.7721L20.8166 18.8862L23.839 15.0002L22.2603 13.7724L19.5497 17.2574L16.8392 13.7724L15.2605 15.0002Z" fill="#262626"/>
</svg>
