<svg width="24" height="24" viewBox="0 0 24 24" fill="none" xmlns="http://www.w3.org/2000/svg">
<path fill-rule="evenodd" clip-rule="evenodd" d="M3 1C2.44771 1 2 1.44772 2 2V5H22V2C22 1.44772 21.5523 1 21 1H3ZM2 12V7H22V12H18C18 10.8954 17.1046 10 16 10C14.8954 10 14 10.8954 14 12H12C12 11.2972 12.1812 10.6368 12.4995 10.0629C12.3398 10.0218 12.1725 10 12 10C10.8954 10 10 10.8954 10 12H8C8 11.2972 8.18123 10.6368 8.49951 10.0629C8.33985 10.0218 8.17247 10 8 10C6.89543 10 6 10.8954 6 12H2ZM1.38743 14C0.704867 14 0.222897 14.6687 0.438741 15.3162L2.77208 22.3162C2.90819 22.7246 3.29033 23 3.72076 23H20.2792C20.7097 23 21.0918 22.7246 21.2279 22.3162L23.5613 15.3162C23.7771 14.6687 23.2951 14 22.6126 14H21H16H12H8H3H1.38743ZM15 18H9V16H15V18Z" fill="#262626"/>
</svg>
