<svg width="24" height="24" viewBox="0 0 24 24" fill="none" xmlns="http://www.w3.org/2000/svg">
<path fill-rule="evenodd" clip-rule="evenodd" d="M11 5C11 3.34315 12.3431 2 14 2H16C17.6569 2 19 3.34315 19 5V24H21V5C21 2.23858 18.7614 0 16 0H14C11.2386 0 9 2.23858 9 5H11ZM14.2846 18.7063L14.1269 21.0665C14.0919 21.5918 13.6556 22 13.1291 22H6.87133C6.34487 22 5.90857 21.5918 5.87355 21.0665L5.70176 18.497C6.29848 18.7483 7.10137 19 7.95333 19C8.86283 19 9.65014 18.7061 10.2747 18.473L10.3705 18.4373C11.0475 18.1857 11.5887 18 12.2223 18C12.8548 18 13.3917 18.1902 13.7789 18.3893C13.9709 18.4881 14.1195 18.5857 14.2162 18.6553C14.2434 18.6749 14.2663 18.6921 14.2846 18.7063ZM14.433 16.485L15 8H17L16.1225 21.1996C16.0174 22.7755 14.7085 24 13.1291 24H6.87133C5.29194 24 3.98304 22.7755 3.87798 21.1996L3 8H5L5.54582 16.1643C5.55822 16.1695 5.56432 16.1744 5.56432 16.1744L5.56862 16.1772C5.57521 16.1816 5.58693 16.1892 5.60344 16.1998C5.6365 16.2208 5.68845 16.2531 5.75655 16.293C5.89345 16.373 6.09177 16.4811 6.33014 16.5891C6.82381 16.8127 7.41175 17 7.95333 17C8.48795 17 8.96767 16.8251 9.67361 16.5627C10.3416 16.3143 11.1893 16 12.2223 16C13.1121 16 13.867 16.2293 14.433 16.485ZM10.0001 6.05635L12.3141 9.91302C13.3933 11.7117 12.0977 14 10.0001 14C7.90252 14 6.6069 11.7117 7.6861 9.91303L10.0001 6.05635ZM10.0001 9.94365L9.40108 10.942C9.12171 11.4076 9.45711 12 10.0001 12C10.5431 12 10.8785 11.4076 10.5991 10.942L10.0001 9.94365Z" fill="#262626"/>
</svg>
