<svg width="24" height="24" viewBox="0 0 24 24" fill="none" xmlns="http://www.w3.org/2000/svg">
<path fill-rule="evenodd" clip-rule="evenodd" d="M17 7C17 9.76142 14.7614 12 12 12C9.23858 12 7 9.76142 7 7C7 4.23858 9.23858 2 12 2C14.7614 2 17 4.23858 17 7ZM19 7C19 10.866 15.866 14 12 14C8.13401 14 5 10.866 5 7C5 3.13401 8.13401 0 12 0C15.866 0 19 3.13401 19 7ZM13 24V19H11V24L8.22198 15.666C7.58559 15.8987 6.97671 16.1885 6.40155 16.5292C3.71591 18.1202 1.7653 20.821 1.18137 24H3.22304C3.74422 21.7033 5.14388 19.7387 7.05195 18.4804L8.8918 24L11 24H13ZM20.7769 24H22.8186C22.2347 20.821 20.2841 18.1202 17.5984 16.5292C17.0233 16.1885 16.4144 15.8987 15.778 15.666L13 24L15.1082 24L16.948 18.4804C18.8561 19.7387 20.2558 21.7033 20.7769 24ZM13 16V18H11V16H13Z" fill="#262626"/>
</svg>
