<svg width="24" height="24" viewBox="0 0 24 24" fill="none" xmlns="http://www.w3.org/2000/svg">
<path d="M11.999 0C5.39479 0 0.0125453 5.37181 2.35603e-05 11.976C-0.00623729 15.1815 1.2355 18.1972 3.49775 20.4688C5.76001 22.7394 8.77148 23.9937 11.977 23.9999H12C18.6031 23.9999 23.9864 18.6271 24 12.0219C24.0125 5.40625 18.6396 0.0125217 11.999 0Z" fill="#BA3A26"/>
<path fill-rule="evenodd" clip-rule="evenodd" d="M15.5714 6.99998L17 8.42855L13.428 12L17 15.5714L15.5714 17L12 13.428L8.42855 17L6.99998 15.5714L10.572 12L6.99998 8.42855L8.42855 6.99998L12 10.572L15.5714 6.99998Z" fill="white"/>
</svg>
