<svg width="24" height="24" viewBox="0 0 24 24" fill="none" xmlns="http://www.w3.org/2000/svg">
<path fill-rule="evenodd" clip-rule="evenodd" d="M2.35603e-05 11.976C0.0125453 5.37181 5.39479 0 11.999 0C18.6396 0.0125217 24.0125 5.40625 24 12.0219C23.9864 18.6271 18.6031 23.9999 12 23.9999H11.977C8.77148 23.9937 5.76001 22.7394 3.49775 20.4688C1.2355 18.1972 -0.00623729 15.1815 2.35603e-05 11.976ZM17 8.42855L15.5714 6.99998L12 10.572L8.42855 6.99998L6.99998 8.42855L10.572 12L6.99998 15.5714L8.42855 17L12 13.428L15.5714 17L17 15.5714L13.428 12L17 8.42855Z" fill="#C30000"/>
</svg>
