<svg width="24" height="24" viewBox="0 0 24 24" fill="none" xmlns="http://www.w3.org/2000/svg">
<path d="M11.999 0C5.39479 0 0.0125453 5.37181 2.35603e-05 11.976C-0.00623729 15.1815 1.2355 18.1972 3.49775 20.4688C5.76001 22.7394 8.77148 23.9937 11.977 23.9999H12C18.6031 23.9999 23.9864 18.6271 24 12.0219C24.0125 5.40625 18.6396 0.0125217 11.999 0Z" fill="#BA3A26"/>
<path d="M12 10.6512L15.3719 7.27932C15.7443 6.90687 16.3482 6.90687 16.7206 7.27932C17.0931 7.65177 17.0931 8.25563 16.7206 8.62808L13.3487 12L16.7206 15.3719C17.0931 15.7443 17.0931 16.3482 16.7206 16.7206C16.3482 17.0931 15.7443 17.0931 15.3719 16.7206L12 13.3487L8.62808 16.7206C8.25563 17.0931 7.65177 17.0931 7.27932 16.7206C6.90687 16.3482 6.90687 15.7443 7.27932 15.3719L10.6512 12L7.27932 8.62808C6.90687 8.25563 6.90687 7.65177 7.27932 7.27932C7.65177 6.90687 8.25563 6.90687 8.62808 7.27932L12 10.6512Z" fill="white"/>
</svg>
