<svg width="24" height="24" viewBox="0 0 24 24" fill="none" xmlns="http://www.w3.org/2000/svg">
<path fill-rule="evenodd" clip-rule="evenodd" d="M12.064 0.585336C12.0041 0.40108 11.7434 0.401079 11.6836 0.585336L11.2093 2.04503C11.1825 2.12743 11.1057 2.18322 11.019 2.18322H9.48435C9.29061 2.18322 9.21005 2.43115 9.3668 2.54503L10.6084 3.4471C10.6785 3.49803 10.7078 3.5883 10.6811 3.67071L10.2068 5.13033C10.1469 5.31459 10.3578 5.46782 10.5145 5.35394L11.7562 4.4518C11.8263 4.40087 11.9212 4.40087 11.9913 4.4518L13.2329 5.35392C13.3897 5.4678 13.6006 5.31457 13.5407 5.13031L13.0664 3.67071C13.0396 3.5883 13.069 3.49803 13.1391 3.4471L14.3807 2.54503C14.5374 2.43115 14.4569 2.18322 14.2631 2.18322H12.7285C12.6419 2.18322 12.5651 2.12743 12.5383 2.04503L12.064 0.585336ZM3.99083 3.72196C3.8182 3.63402 3.63389 3.81835 3.72184 3.99097L4.43172 5.38415C4.47106 5.46135 4.45621 5.5551 4.39494 5.61637L3.28957 6.72174C3.15257 6.85874 3.27093 7.09102 3.46229 7.0607L5.00624 6.81608C5.09183 6.80252 5.17641 6.84561 5.21574 6.92282L5.92552 8.31585C6.01348 8.48848 6.27095 8.4477 6.30126 8.25634L6.54584 6.71216C6.5594 6.62658 6.62651 6.55947 6.71209 6.54591L8.25619 6.30133C8.44755 6.27102 8.48833 6.01355 8.3157 5.92559L6.92266 5.21581C6.84545 5.17648 6.80236 5.0919 6.81592 5.00632L7.06055 3.46233C7.09086 3.27097 6.8586 3.15261 6.72159 3.28961L5.61621 4.39494C5.55494 4.4562 5.4612 4.47105 5.384 4.43172L3.99083 3.72196ZM0.585336 12.2185C0.401079 12.1587 0.40108 11.898 0.585336 11.8381L2.15736 11.3273C2.23976 11.3005 2.29555 11.2237 2.29555 11.1371V9.48434C2.29555 9.29059 2.54349 9.21004 2.65736 9.3668L3.62876 10.704C3.67969 10.7741 3.76997 10.8034 3.85238 10.7766L5.42437 10.2659C5.60863 10.206 5.76186 10.4169 5.64797 10.5736L4.67638 11.9108C4.62544 11.9809 4.62544 12.0758 4.67638 12.1459L5.64799 13.4831C5.76188 13.6398 5.60866 13.8507 5.42439 13.7908L3.85237 13.2801C3.76996 13.2533 3.67969 13.2827 3.62876 13.3528L2.65736 14.6899C2.54348 14.8466 2.29555 14.7661 2.29555 14.5723V12.9196C2.29555 12.8329 2.23976 12.7561 2.15736 12.7294L0.585336 12.2185ZM3.72183 19.8201C3.63388 19.9927 3.81821 20.177 3.99083 20.0891L5.38403 19.3792C5.46123 19.3399 5.55498 19.3547 5.61625 19.416L6.7217 20.5215C6.8587 20.6585 7.09096 20.5401 7.06066 20.3488L6.81614 18.8047C6.80259 18.7191 6.84567 18.6346 6.92287 18.5952L8.31577 17.8854C8.48839 17.7975 8.44761 17.54 8.25625 17.5097L6.71214 17.2651C6.62656 17.2515 6.55945 17.1844 6.54589 17.0989L6.30125 15.5547C6.27094 15.3634 6.01346 15.3226 5.92551 15.4952L5.21586 16.8883C5.17653 16.9655 5.09194 17.0086 5.00635 16.995L3.46229 16.7503C3.27093 16.72 3.15257 16.9523 3.28956 17.0893L4.39489 18.1947C4.45615 18.2559 4.471 18.3497 4.43167 18.4269L3.72183 19.8201ZM12.064 23.1204C12.0041 23.3047 11.7434 23.3047 11.6836 23.1204L11.2092 21.6607C11.1824 21.5783 11.1056 21.5225 11.019 21.5225H9.48438C9.29063 21.5225 9.21008 21.2746 9.36683 21.1607L10.6085 20.2587C10.6786 20.2077 10.7079 20.1175 10.6811 20.035L10.2068 18.5756C10.1469 18.3913 10.3578 18.2381 10.5146 18.352L11.7562 19.254C11.8263 19.3049 11.9212 19.3049 11.9913 19.254L13.2329 18.352C13.3897 18.2381 13.6006 18.3913 13.5407 18.5756L13.0664 20.0351C13.0396 20.1175 13.069 20.2077 13.1391 20.2587L14.3807 21.1607C14.5374 21.2746 14.4569 21.5225 14.2631 21.5225H12.7284C12.6418 21.5225 12.565 21.5783 12.5382 21.6607L12.064 23.1204ZM19.8201 20.0891C19.9927 20.1771 20.177 19.9927 20.0891 19.8201L19.3792 18.4271C19.3399 18.3499 19.3547 18.2561 19.416 18.1949L20.5214 17.0893C20.6584 16.9523 20.54 16.72 20.3487 16.7503L18.8047 16.995C18.7191 17.0086 18.6345 16.9655 18.5951 16.8883L17.8854 15.4952C17.7975 15.3226 17.54 15.3634 17.5097 15.5547L17.2651 17.0989C17.2515 17.1845 17.1844 17.2516 17.0989 17.2651L15.5548 17.5097C15.3634 17.54 15.3226 17.7975 15.4953 17.8855L16.8882 18.5952C16.9654 18.6345 17.0085 18.7191 16.9949 18.8047L16.7503 20.3489C16.72 20.5403 16.9522 20.6586 17.0892 20.5216L18.1948 19.4162C18.256 19.3549 18.3498 19.34 18.427 19.3794L19.8201 20.0891ZM23.4144 11.8382C23.5987 11.8981 23.5987 12.1588 23.4144 12.2186L21.8424 12.7295C21.76 12.7562 21.7042 12.833 21.7042 12.9197V14.5725C21.7042 14.7663 21.4563 14.8468 21.3424 14.6901L20.3708 13.3528C20.3199 13.2827 20.2296 13.2534 20.1472 13.2801L18.5754 13.7909C18.3911 13.8508 18.2379 13.6399 18.3518 13.4832L19.3233 12.146C19.3742 12.0759 19.3742 11.981 19.3233 11.9109L18.3518 10.5737C18.2379 10.4169 18.3911 10.206 18.5754 10.2659L20.1473 10.7767C20.2297 10.8035 20.32 10.7741 20.3709 10.704L21.3424 9.3668C21.4562 9.21004 21.7042 9.29059 21.7042 9.48434V11.1372C21.7042 11.2239 21.76 11.3007 21.8424 11.3275L23.4144 11.8382ZM20.089 3.991C20.177 3.81837 19.9926 3.63405 19.82 3.722L18.427 4.4318C18.3498 4.47114 18.2561 4.45629 18.1948 4.39503L17.0892 3.28962C16.9522 3.15263 16.7199 3.271 16.7503 3.46235L16.9949 5.00633C17.0085 5.09191 16.9654 5.17649 16.8882 5.21583L15.4952 5.92556C15.3226 6.01351 15.3634 6.27098 15.5547 6.30129L17.0988 6.54594C17.1844 6.5595 17.2515 6.62661 17.2651 6.71219L17.5096 8.25626C17.5399 8.44763 17.7974 8.4884 17.8854 8.31576L18.595 6.92278C18.6343 6.84557 18.7189 6.80247 18.8045 6.81603L20.3486 7.06072C20.54 7.09104 20.6584 6.85877 20.5214 6.72176L19.416 5.61638C19.3547 5.55512 19.3399 5.46137 19.3792 5.38417L20.089 3.991Z" fill="#262626"/>
</svg>
