<svg width="24" height="24" viewBox="0 0 24 24" fill="none" xmlns="http://www.w3.org/2000/svg">
<path fill-rule="evenodd" clip-rule="evenodd" d="M12 5C16.4183 5 20.4183 7.33333 24 12C20.4183 16.6667 16.4183 19 12 19C7.58172 19 3.58172 16.6667 0 12C3.58172 7.33333 7.58172 5 12 5ZM11.7831 7.00462L12 7C8.68897 7 5.60745 8.57682 2.7024 11.8609L2.581 12L2.7024 12.1391C5.51373 15.3172 8.49034 16.8965 11.6803 16.9951L12 17C9.23858 17 7 14.7614 7 12C7 9.31124 9.12231 7.11818 11.7831 7.00462ZM12.3197 7.00493L12.002 7C14.7614 7 17 9.23858 17 12C17 14.6881 14.8787 16.8807 12.2188 16.9953L12.002 17C15.311 17 18.3926 15.4232 21.2976 12.1391L21.418 12L21.2976 11.8609C18.4863 8.68276 15.5097 7.10351 12.3197 7.00493ZM12 9C10.3431 9 9 10.3431 9 12C9 13.6569 10.3431 15 12 15C13.6569 15 15 13.6569 15 12C15 10.3431 13.6569 9 12 9Z" fill="#262626"/>
</svg>
