<svg width="24" height="24" viewBox="0 0 24 24" fill="none" xmlns="http://www.w3.org/2000/svg">
<path fill-rule="evenodd" clip-rule="evenodd" d="M18.5334 6.8808L22.2071 3.20712L20.7929 1.79291L16.6584 5.92744C15.161 5.30916 13.6082 5.00001 12 5.00001C7.58172 5.00001 3.58172 7.33335 0 12C1.72515 14.2477 3.54734 15.9541 5.46657 17.1192L1.79291 20.7929L3.20712 22.2071L7.34164 18.0726C8.83901 18.6909 10.3918 19 12 19C16.4183 19 20.4183 16.6667 24 12C22.2749 9.7523 20.4527 8.04589 18.5334 6.8808ZM15.1001 7.48571C14.0778 7.15692 13.0445 7.00001 12 7.00001C8.75272 7.00001 5.6128 8.51667 2.58044 12C4.00639 13.638 5.45612 14.8412 6.92962 15.6562L7.82809 14.7577C6.54188 12.8164 6.754 10.1749 8.46447 8.46448C9.44078 7.48817 10.7204 7.00001 12 7.00001C12.9622 7.00001 13.9245 7.27604 14.7577 7.8281L15.1001 7.48571ZM13.2935 9.2923C12.1784 8.75959 10.8023 8.95506 9.87868 9.87869C8.95504 10.8023 8.75957 12.1784 9.29228 13.2935L13.2935 9.2923ZM8.89992 16.5143L17.0704 8.34384C18.5439 9.15888 19.9936 10.362 21.4196 12C18.3872 15.4834 15.2473 17 12 17C10.9555 17 9.92217 16.8431 8.89992 16.5143Z" fill="#262626"/>
</svg>
