<svg width="24" height="24" viewBox="0 0 24 24" fill="none" xmlns="http://www.w3.org/2000/svg">
<path fill-rule="evenodd" clip-rule="evenodd" d="M22.2071 3.20711L18.5334 6.88078C20.4527 8.04588 22.2749 9.75228 24 12C20.4183 16.6667 16.4183 19 12 19C10.3918 19 8.83901 18.6909 7.34164 18.0726L3.20712 22.2071L1.79291 20.7929L5.46657 17.1192C3.54734 15.9541 1.72515 14.2477 0 12C3.58172 7.33333 7.58172 5 12 5C13.6082 5 15.161 5.30914 16.6584 5.92742L20.7929 1.79289L22.2071 3.20711ZM12 17C14.7614 17 17 14.7614 17 12C17 10.9809 16.6951 10.033 16.1716 9.24262L9.24262 16.1716C10.033 16.6951 10.9809 17 12 17ZM7.8284 14.7574L9.29238 13.2934C9.10495 12.9018 9 12.4632 9 12C9 10.3431 10.3431 9 12 9C12.4632 9 12.9018 9.10495 13.2934 9.29238L14.7574 7.8284C13.967 7.30488 13.0191 7 12 7C9.23858 7 7 9.23858 7 12C7 13.0191 7.30488 13.967 7.8284 14.7574Z" fill="#262626"/>
</svg>
