<svg width="24" height="24" viewBox="0 0 24 24" fill="none" xmlns="http://www.w3.org/2000/svg">
<path fill-rule="evenodd" clip-rule="evenodd" d="M22 10L12 0L2 10V24H22V10ZM4 22V10.8284L12 2.82843L20 10.8284V22H4ZM10.5851 12.4158L11.9978 13.8252L13.4104 12.4158C13.6741 12.1527 14.0416 12 14.4231 12C15.7684 12 16.4474 13.5525 15.6401 14.519L15.5321 14.6483L11.9978 18.1747L8.4634 14.6483L8.35544 14.519C7.54818 13.5525 8.22712 12 9.57245 12C9.95393 12 10.3215 12.1527 10.5851 12.4158ZM11.9978 21L17.009 16L17.1751 15.8011C19.0976 13.4994 17.4221 10 14.4231 10C13.5165 10 12.6396 10.3596 11.9978 11C11.356 10.3596 10.4791 10 9.57245 10C6.57349 10 4.89798 13.4994 6.82041 15.8011L6.98654 16L11.9978 21Z" fill="#262626"/>
</svg>
