<svg width="24" height="24" viewBox="0 0 24 24" fill="none" xmlns="http://www.w3.org/2000/svg">
<path fill-rule="evenodd" clip-rule="evenodd" d="M13 3C13 3.55228 12.5523 4 12 4C11.4477 4 11 3.55228 11 3C11 2.44772 11.4477 2 12 2C12.5523 2 13 2.44772 13 3ZM15 3C15 4.65685 13.6569 6 12 6C10.3432 6 9.00003 4.65685 9.00003 3C9.00003 1.34315 10.3432 0 12 0C13.6569 0 15 1.34315 15 3ZM10.574 7C9.8631 7 9.20565 7.37734 8.84707 7.99114L2.99988 18H9.00003V24H11V16H6.48456L10.574 9H13.4261L17.5155 16H13V24H15V18H21.0002L15.153 7.99114C14.7944 7.37734 14.137 7 13.4261 7H10.574Z" fill="#262626"/>
</svg>
