<svg width="24" height="24" viewBox="0 0 24 24" fill="none" xmlns="http://www.w3.org/2000/svg">
<path d="M10 13C10 11.8954 10.8954 11 12 11C13.1046 11 14 11.8954 14 13C14 13.5523 14.4477 14 15 14C15.5523 14 16 13.5523 16 13C16 10.7909 14.2091 9 12 9C9.79086 9 8 10.7909 8 13C8 15.2091 9.79086 17 12 17C12.5523 17 13 16.5523 13 16C13 15.4477 12.5523 15 12 15C10.8954 15 10 14.1046 10 13Z" fill="#262626"/>
<path fill-rule="evenodd" clip-rule="evenodd" d="M4 3C4 2.44772 4.44772 2 5 2H16C16.2652 2 16.5196 2.10536 16.7071 2.29289L19.7071 5.29289C19.8946 5.48043 20 5.73478 20 6V21C20 21.5523 19.5523 22 19 22H5C4.44772 22 4 21.5523 4 21V3ZM6 4V20H18V8H16C14.8954 8 14 7.10457 14 6V4H6ZM16 4.41421L17.5858 6H16V4.41421Z" fill="#262626"/>
</svg>
