<svg width="24" height="24" viewBox="0 0 24 24" fill="none" xmlns="http://www.w3.org/2000/svg">
<path d="M15.7071 16.7071C15.3166 17.0976 14.6834 17.0976 14.2929 16.7071L12 14.4142L9.70711 16.7071C9.31658 17.0976 8.68342 17.0976 8.29289 16.7071C7.90237 16.3166 7.90237 15.6834 8.29289 15.2929L10.5858 13L8.29289 10.7071C7.90237 10.3166 7.90237 9.68342 8.29289 9.29289C8.68342 8.90237 9.31658 8.90237 9.7071 9.29289L12 11.5858L14.2929 9.29289C14.6834 8.90237 15.3166 8.90237 15.7071 9.29289C16.0976 9.68342 16.0976 10.3166 15.7071 10.7071L13.4142 13L15.7071 15.2929C16.0976 15.6834 16.0976 16.3166 15.7071 16.7071Z" fill="#262626"/>
<path fill-rule="evenodd" clip-rule="evenodd" d="M5 2C4.44772 2 4 2.44772 4 3V21C4 21.5523 4.44772 22 5 22H19C19.5523 22 20 21.5523 20 21V6C20 5.73478 19.8946 5.48043 19.7071 5.29289L16.7071 2.29289C16.5196 2.10536 16.2652 2 16 2H5ZM6 20V4H14V6C14 7.10457 14.8954 8 16 8H18V20H6ZM17.5858 6L16 4.41421V6H17.5858Z" fill="#262626"/>
</svg>
