<svg width="24" height="24" viewBox="0 0 24 24" fill="none" xmlns="http://www.w3.org/2000/svg">
<path fill-rule="evenodd" clip-rule="evenodd" d="M18.0131 1.10893L18.0433 1.07801C19.2857 -0.193679 21.3537 -0.408708 22.7918 0.824009L22.8275 0.85458L22.9935 1.01101L23.0262 1.04486C24.2931 2.35655 24.3049 4.40711 23.1718 5.78661L21.6859 7.5942L14.1605 16.7559L6.9503 20.02L8.82643 12.2762L15.1821 4.53893L15.1817 4.53862L16.3832 3.07669L16.4505 2.99472L17.8601 1.27967L18.0131 1.10893ZM17.9807 4.28005L19.375 2.58356L19.4707 2.47673C20.0324 1.90184 20.9117 1.84501 21.4932 2.34344L21.5908 2.43538C22.1151 2.97824 22.1517 3.88031 21.6295 4.51603L20.2534 6.19005L17.9807 4.28005ZM10.6593 13.193L16.7116 5.82506L18.9843 7.73506L12.9138 15.1254L9.85575 16.5098L10.6593 13.193ZM0 24H23.965V22H0V24Z" fill="#262626"/>
</svg>
