<svg width="24" height="25" viewBox="0 0 24 25" fill="none" xmlns="http://www.w3.org/2000/svg">
<path fill-rule="evenodd" clip-rule="evenodd" d="M10.3478 12.0683V21.7507L14.1739 20.7729V12.1064L21.7803 4.5H2.27495L10.3478 12.0683ZM9.59542 24.0073L15.4215 22.5184C15.8642 22.4052 16.1739 22.0064 16.1739 21.5495V12.9348L23.7071 5.40159C23.8946 5.21405 24 4.9597 24 4.69448V3.5C24 2.94772 23.5523 2.5 23 2.5H1C0.447715 2.5 0 2.94772 0 3.5V4.67546C0 4.95187 0.114409 5.21595 0.316059 5.405L8.34783 12.9348V23.0384C8.34783 23.6911 8.96302 24.1689 9.59542 24.0073Z" fill="#262626"/>
</svg>
