<svg width="25" height="25" viewBox="0 0 25 25" fill="none" xmlns="http://www.w3.org/2000/svg">
<path fill-rule="evenodd" clip-rule="evenodd" d="M4.13102 0H14.8325L21.6878 5.71281V16.0077C21.6878 17.2031 21.3186 18.3123 20.6879 19.2273L25 23.5395L23.5395 25L19.2273 20.6879C18.3123 21.3186 17.2031 21.6878 16.0077 21.6878H4.13102V0ZM19.6223 16.0077C19.6223 14.0114 18.004 12.3931 16.0077 12.3931C14.0114 12.3931 12.3931 14.0114 12.3931 16.0077C12.3931 18.004 14.0114 19.6223 16.0077 19.6223C18.004 19.6223 19.6223 18.004 19.6223 16.0077ZM14.4586 2.3771V6.19653H19.0419L14.4586 2.3771Z" fill="#262626"/>
</svg>
