<svg width="24" height="24" viewBox="0 0 24 24" fill="none" xmlns="http://www.w3.org/2000/svg">
<path fill-rule="evenodd" clip-rule="evenodd" d="M10.3794 5.6217C10.4583 5.57135 10.5398 5.52457 10.6235 5.48159C10.6008 4.34336 10.3624 3.32874 10.116 2.90531C9.7674 2.30628 9.40452 2.09244 9.18629 2.0229C8.97687 1.95617 8.74966 1.96959 8.49999 2.1126C8.2427 2.25997 7.79936 2.89285 8.38396 3.89738C8.6304 4.32085 9.39703 5.03305 10.3794 5.6217ZM9.00324 7.98708C7.9981 7.43728 6.99293 7.13467 6.49999 7.13467C5.80278 7.13467 5.43466 7.33952 5.26485 7.49224C5.10188 7.63881 4.99999 7.84073 4.99999 8.12675C4.99999 8.42148 5.3308 9.11882 6.49999 9.11882C6.99293 9.11882 7.9981 8.81621 9.00324 8.26641C9.00109 8.22012 8.99999 8.17356 8.99999 8.12675C8.99999 8.07993 9.00108 8.03337 9.00324 7.98708ZM10.3794 10.6318C9.39703 11.2204 8.6304 11.9327 8.38396 12.3561C8.03535 12.9551 8.03012 13.3738 8.07853 13.5961C8.12499 13.8094 8.25031 13.9979 8.49999 14.1409C8.75728 14.2883 9.53141 14.3527 10.116 13.3482C10.3624 12.9248 10.6008 11.9101 10.6235 10.7719C10.5398 10.7289 10.4583 10.6821 10.3794 10.6318ZM12.6161 11.0402C12.5664 12.2454 12.3137 13.5401 11.8481 14.3403C10.8481 16.0586 8.93486 16.6811 7.49999 15.8592C6.55063 15.3155 6.00274 14.3543 6.06057 13.2164C4.76818 14.4256 4 16.1291 4 17.9538V24H2V17.9538C2 15.1609 3.37935 12.5856 5.62415 11.0138C4.07772 10.6897 2.99999 9.52002 2.99999 8.12675C2.99999 6.48302 4.29085 5.15051 6.49999 5.15051C6.60687 5.15051 6.71803 5.15618 6.83271 5.16705C6.76588 5.07396 6.70535 4.98129 6.65191 4.88946C5.65191 3.17113 6.06511 1.21613 7.49999 0.394267C8.93486 -0.427598 10.7435 0.0152119 11.8481 1.91323C11.9015 2.00506 11.9521 2.1034 12 2.20738C12.0478 2.1034 12.0985 2.00506 12.1519 1.91323C13.1519 0.194895 15.0651 -0.427599 16.5 0.394265C17.9349 1.21613 18.4526 2.99145 17.3481 4.88946C17.2946 4.98129 17.2341 5.07396 17.1673 5.16706C17.2819 5.15618 17.3931 5.15051 17.5 5.15051C19.5 5.15051 21 6.48302 21 8.12675C21 9.77047 19.7091 11.103 17.5 11.103C16.5685 11.103 15.3117 10.6726 14.2346 10.1125C13.816 10.5758 13.2532 10.9082 12.6161 11.0402ZM14.9967 8.26641C16.0019 8.81621 17.0071 9.11882 17.5 9.11882C18.1972 9.11882 18.5653 8.91397 18.7351 8.76124C18.8981 8.61468 19 8.41276 19 8.12675C19 7.83201 18.6692 7.13467 17.5 7.13467C17.0071 7.13467 16.0019 7.43728 14.9967 7.98708C14.9989 8.03337 15 8.07993 15 8.12675C15 8.17356 14.9989 8.22012 14.9967 8.26641ZM13.6206 5.6217C14.603 5.03305 15.3696 4.32085 15.616 3.89738C15.9646 3.29836 15.9699 2.87966 15.9214 2.6574C15.875 2.4441 15.7497 2.2556 15.5 2.1126C15.2427 1.96523 14.4686 1.90077 13.884 2.9053C13.6375 3.32874 13.3992 4.34335 13.3765 5.48158C13.4602 5.52456 13.5417 5.57135 13.6206 5.6217ZM13 8.12675C13 8.67465 12.5523 9.11882 12 9.11882C11.4477 9.11882 11 8.67465 11 8.12675C11 7.57884 11.4477 7.13467 12 7.13467C12.5523 7.13467 13 7.57884 13 8.12675ZM13 20.5277C13 20.0346 13.3102 19.0246 13.8733 18.019C13.9158 17.9432 13.9581 17.8703 14 17.8005C14.0419 17.8703 14.0842 17.9432 14.1267 18.019C14.6898 19.0246 15 20.0346 15 20.5277C15 21.6877 14.2971 22.0158 14 22.0158C13.7117 22.0158 13.5082 21.9148 13.3604 21.7531C13.2065 21.5846 13 21.2194 13 20.5277ZM11 20.5277C11 18.5436 13 15.0713 14 15.0713C15 15.0713 17 18.5436 17 20.5277C17 22.5119 15.6569 24 14 24C12.3431 24 11 22.7194 11 20.5277Z" fill="#262626"/>
</svg>
