<svg width="24" height="24" viewBox="0 0 24 24" fill="none" xmlns="http://www.w3.org/2000/svg">
<path fill-rule="evenodd" clip-rule="evenodd" d="M1 0C0.447715 0 0 0.447716 0 1V23C0 23.5523 0.447716 24 1 24H23C23.5523 24 24 23.5523 24 23V1C24 0.447715 23.5523 0 23 0H1ZM21.7068 3.70709L16.414 8.99998H20.9999V11H12.9999V2.99998H14.9999V7.5856L20.2926 2.29288L21.7068 3.70709ZM2.29272 20.2929L7.58562 15L2.99991 15L2.99991 13L10.9999 13L10.9999 21H8.99991V16.4141L3.70694 21.7071L2.29272 20.2929Z" fill="#262626"/>
</svg>
