<svg width="24" height="24" viewBox="0 0 24 24" fill="none" xmlns="http://www.w3.org/2000/svg">
<path fill-rule="evenodd" clip-rule="evenodd" d="M6.25176 6L6.08509 2H17.915L17.7483 6H6.25176ZM6.33509 8L6.8785 21.0416C6.90081 21.5773 7.34154 22 7.87763 22H16.1224C16.6585 22 17.0992 21.5773 17.1216 21.0416L17.665 8H6.33509ZM4.04343 1.04163C4.01975 0.473506 4.47394 0 5.04256 0H18.9575C19.5261 0 19.9803 0.473505 19.9566 1.04163L19.1198 21.1249C19.0529 22.7318 17.7307 24 16.1224 24H7.87763C6.26935 24 4.94718 22.7318 4.88023 21.1249L4.04343 1.04163Z" fill="#262626"/>
</svg>
