<svg width="24" height="25" viewBox="0 0 24 25" fill="none" xmlns="http://www.w3.org/2000/svg">
<path fill-rule="evenodd" clip-rule="evenodd" d="M0 7.46165C0.0308633 3.0482 3.87356 -0.443161 8.28247 0.0457814C9.41685 0.171583 10.4181 0.418797 11.3418 0.927715C12.2682 1.43812 13.0481 2.17382 13.8 3.17634C14.1313 3.61817 14.0418 4.24497 13.6 4.57634C13.1581 4.90771 12.5313 4.81817 12.2 4.37634C11.5673 3.53271 10.9897 3.01724 10.3766 2.67943C9.76081 2.34014 9.04049 2.14211 8.06202 2.0336C4.85434 1.67787 2.02268 4.22598 1.99995 7.47563L0 7.46165ZM21 16.0077H24V14.0077H16V16.0077H19V24.0077H21V16.0077ZM8.53738 3.87844C6.13068 3.15629 3.70955 4.95392 3.69241 7.46181L3.69238 9.57402L4.35833 9.796C4.36841 9.80034 4.39138 9.81077 4.42309 9.82838C4.48832 9.86462 4.58244 9.92677 4.67758 10.0219C4.84883 10.1932 5.077 10.5204 5.077 11.161C5.077 11.7132 5.52471 12.161 6.077 12.161C6.62928 12.161 7.077 11.7132 7.077 11.161C7.077 9.95533 6.61286 9.12876 6.0918 8.60769C5.95585 8.47175 5.81961 8.35997 5.69238 8.2689V7.47244C5.70238 6.29542 6.83919 5.45698 7.96259 5.79406C8.53611 5.96615 8.9564 6.40228 9.13146 6.93301C9.30446 7.4575 9.86988 7.74244 10.3944 7.56944C10.9189 7.39644 11.2038 6.83101 11.0308 6.30652C10.6603 5.18331 9.76385 4.24645 8.53738 3.87844ZM17.7072 4.71479L1.70718 20.7148L0.292969 19.3006L16.293 3.30058L17.7072 4.71479ZM13.949 11.4756C14.1228 10.9514 13.8387 10.3856 13.3144 10.2118C12.7902 10.038 12.2244 10.322 12.0506 10.8463L9.80994 17.6049L9.80931 17.6068C9.50931 18.4982 9.04413 19.1718 8.45793 19.6213C7.87764 20.0663 7.12101 20.3366 6.15043 20.3327C5.52635 20.3301 4.93827 20.1115 4.51726 19.7234C4.49989 19.7074 4.48748 19.6955 4.48045 19.6888L4.47565 19.6842L4.47477 19.6833L4.47402 19.6825C4.08333 19.2941 3.45171 19.2948 3.06188 19.6846C2.67136 20.0751 2.67146 20.7084 3.06199 21.0989L3.06379 21.1007L3.0663 21.1032L3.07309 21.1099L3.09364 21.1299C3.11039 21.146 3.13322 21.1676 3.1617 21.1939C3.98695 21.9546 5.07137 22.3283 6.14227 22.3327C7.51204 22.3383 8.71011 21.9483 9.67495 21.2084C10.6335 20.4734 11.3036 19.4383 11.7057 18.2422L13.949 11.4756Z" fill="#262626"/>
</svg>
