<svg width="24" height="24" viewBox="0 0 24 24" fill="none" xmlns="http://www.w3.org/2000/svg">
<path fill-rule="evenodd" clip-rule="evenodd" d="M12.8802 0.0490061C8.83055 -0.399484 5.22544 2.28056 4.25537 6.03027C7.40915 9.49288 8.20399 15.9871 4.4137 20.1558C4.41524 20.1597 4.41679 20.1636 4.41834 20.1675L2.29297 22.2929L3.70718 23.7071L22.7072 4.70711L21.293 3.29289L19.4654 5.12045C18.4352 2.45838 16.0017 0.394705 12.8802 0.0490061ZM8.00002 7.99316C8.01821 5.33167 10.5876 3.42413 13.1415 4.19043C14.4429 4.58094 15.3943 5.57501 15.7875 6.76713C15.9605 7.29162 15.6755 7.85705 15.151 8.03005C14.6266 8.20305 14.0611 7.91811 13.8881 7.39362C13.6903 6.79398 13.2152 6.30064 12.5667 6.10605C11.2962 5.72482 10.0111 6.67315 10 8.00375V8.9101C10.1442 9.01061 10.3009 9.13664 10.4571 9.29289C11.007 9.8428 11.5 10.7174 11.5 12C11.5 12.5523 11.0523 13 10.5 13C9.94771 13 9.5 12.5523 9.5 12C9.5 11.2826 9.24298 10.9072 9.04289 10.7071C8.93332 10.5975 8.82478 10.5258 8.74873 10.4835C8.71122 10.4627 8.68357 10.4501 8.67053 10.4445L8.66761 10.4433L8 10.2208V9.5V8V7.99316L8.00002 7.99316ZM10.1974 22.8827C13.5 23.5 15.6802 21.9767 16.5712 19.3261L19 11L8 22C8 22 9 22.5 10.1974 22.8827Z" fill="#262626"/>
</svg>
