<svg width="25" height="25" viewBox="0 0 25 25" fill="none" xmlns="http://www.w3.org/2000/svg">
<path fill-rule="evenodd" clip-rule="evenodd" d="M0 7.64063C0.0316036 3.12132 3.96647 -0.453791 8.48114 0.0468796C9.64273 0.175698 10.668 0.428842 11.6138 0.949968C12.5624 1.47262 13.3611 2.22596 14.131 3.25253C14.4703 3.70496 14.3786 4.34679 13.9262 4.68611C13.4738 5.02543 12.8319 4.93374 12.4926 4.48132C11.8447 3.61745 11.2534 3.08961 10.6255 2.7437C9.99495 2.39627 9.25734 2.19349 8.25541 2.08238C4.97078 1.71811 2.07119 4.32735 2.04792 7.65495L0 7.64063ZM3.78098 7.6408C3.79853 5.07275 6.27774 3.232 8.74217 3.97148C9.99805 4.34831 10.916 5.30764 11.2954 6.4578C11.4725 6.99487 11.1808 7.57386 10.6437 7.75101C10.1066 7.92816 9.52764 7.63639 9.35049 7.09932C9.17123 6.55585 8.74087 6.10927 8.15359 5.93305C7.00325 5.58788 5.83916 6.44643 5.82893 7.65168V8.46725C5.9592 8.5605 6.09872 8.67496 6.23792 8.81417C6.77149 9.34773 7.24676 10.1941 7.24676 11.4287C7.24676 11.9942 6.7883 12.4527 6.22277 12.4527C5.65724 12.4527 5.19878 11.9942 5.19878 11.4287C5.19878 10.7728 4.96514 10.4377 4.78979 10.2623C4.69236 10.1649 4.59599 10.1012 4.52918 10.0641C4.49672 10.0461 4.47319 10.0354 4.46287 10.031L3.78095 9.80368L3.78098 7.6408ZM1.74813 21.2117L18.1319 4.82789L16.6838 3.37975L0.299996 19.7635L1.74813 21.2117ZM13.9118 17.4157L14.6359 16.6916C17.2979 14.0296 21.6139 14.0296 24.2759 16.6916L25 17.4157L23.5519 18.8638L22.8278 18.1397C20.9656 16.2775 17.9463 16.2775 16.084 18.1397L15.36 18.8638L13.9118 17.4157ZM16.6839 19.7635L15.9598 20.4876L17.4079 21.9358L18.132 21.2117C18.8632 20.4805 20.0486 20.4805 20.7798 21.2117L21.5039 21.9358L22.952 20.4876L22.228 19.7635C20.697 18.2326 18.2148 18.2326 16.6839 19.7635ZM20.4797 23.5596C20.4797 24.1251 20.0213 24.5836 19.4558 24.5836C18.8902 24.5836 18.4318 24.1251 18.4318 23.5596C18.4318 22.994 18.8902 22.5356 19.4558 22.5356C20.0213 22.5356 20.4797 22.994 20.4797 23.5596ZM14.2836 11.7509C14.4615 11.2141 14.1706 10.6347 13.6338 10.4567C13.097 10.2787 12.5176 10.5696 12.3396 11.1064L10.0453 18.0272L10.0446 18.0291C9.73741 18.9419 9.26107 19.6317 8.66081 20.092C8.0666 20.5476 7.29182 20.8245 6.29796 20.8204C5.65891 20.8178 5.05673 20.5939 4.62562 20.1965C4.60783 20.1801 4.59513 20.168 4.58792 20.1611L4.58301 20.1563L4.5821 20.1554L4.58134 20.1547C4.18127 19.7569 3.53451 19.7576 3.13533 20.1568C2.73544 20.5567 2.73554 21.2051 3.13544 21.605L3.13729 21.6069L3.13985 21.6094L3.1468 21.6163L3.16785 21.6367C3.185 21.6532 3.20838 21.6754 3.23754 21.7023C4.08258 22.4813 5.19302 22.8639 6.28961 22.8684C7.69224 22.8741 8.91904 22.4747 9.90703 21.7171C10.8885 20.9645 11.5747 19.9046 11.9865 18.6798L14.2836 11.7509Z" fill="#262626"/>
</svg>
