<svg width="25" height="24" viewBox="0 0 25 24" fill="none" xmlns="http://www.w3.org/2000/svg">
<path fill-rule="evenodd" clip-rule="evenodd" d="M13.9959 6.00607L14 6.05135L14 12.0017C14 12.554 14.4477 13.0017 15 13.0017C15.5523 13.0017 16 12.554 16 12.0017L16 8.07043C18.3949 9.45501 20.0018 12.0425 20.0018 15.0017V17.6684L21.0018 19.0017H3.00181L4.00182 17.6684V15.0017C4.00182 12.044 5.60713 9.45763 8 8.07253L8 12.0017C8 12.554 8.44771 13.0017 9 13.0017C9.55228 13.0017 10 12.554 10 12.0017L10 6.05163L10.004 6.00663C10.0439 5.55762 10.3848 5.18513 10.8376 5.1106L11.0255 5.07967C11.6708 4.97344 12.3292 4.97344 12.9745 5.07967L13.1624 5.1106C13.615 5.1851 13.9558 5.55732 13.9959 6.00607ZM22.0018 15.0017V17.0017L23.8018 19.4017C24.2962 20.061 23.8259 21.0017 23.0018 21.0017H1.00182C0.17777 21.0017 -0.292612 20.061 0.201816 19.4017L2.00182 17.0017V15.0017C2.00182 10.8972 4.47469 7.37023 8.01187 5.82942C8.13204 4.47852 9.15243 3.36107 10.5127 3.13716L10.7006 3.10623C11.5611 2.96459 12.4389 2.96459 13.2994 3.10623L13.4873 3.13716C14.847 3.36098 15.8671 4.47761 15.988 5.82778C19.5272 7.36772 22.0018 10.8957 22.0018 15.0017ZM11 15.0017C10.4477 15.0017 10 15.4494 10 16.0017C10 16.554 10.4477 17.0017 11 17.0017H13C13.5523 17.0017 14 16.554 14 16.0017C14 15.4494 13.5523 15.0017 13 15.0017H11Z" fill="#262626"/>
</svg>
