<svg width="25" height="24" viewBox="0 0 25 24" fill="none" xmlns="http://www.w3.org/2000/svg">
<path fill-rule="evenodd" clip-rule="evenodd" d="M16.0132 5.83879C16.0048 5.83511 15.9964 5.83144 15.988 5.82778C15.8671 4.47761 14.847 3.36098 13.4873 3.13716L13.2994 3.10623C12.4389 2.96459 11.5611 2.96459 10.7006 3.10623L10.5127 3.13716C9.15243 3.36107 8.13204 4.47852 8.01187 5.82942C8.00359 5.83303 7.99531 5.83664 7.98704 5.84027C7.99557 5.89283 8 5.94675 8 6.00172L8 12.0017C8 12.554 7.55228 13.0017 7 13.0017C6.44772 13.0017 6 12.554 6 12.0017L6 7.00235C3.57214 8.82684 2.00182 11.7309 2.00182 15.0017V17.0017L0.201816 19.4017C-0.292612 20.061 0.17777 21.0017 1.00182 21.0017H23.0018C23.8259 21.0017 24.2962 20.061 23.8018 19.4017L22.0018 17.0017V15.0017C22.0018 11.7293 20.4299 8.82395 18 6.99962L18 12.0017C18 12.554 17.5523 13.0017 17 13.0017C16.4477 13.0017 16 12.554 16 12.0017L16 6.00172C16 5.94624 16.0045 5.89181 16.0132 5.83879ZM10 16.0017C10 15.4494 10.4477 15.0017 11 15.0017H13C13.5523 15.0017 14 15.4494 14 16.0017C14 16.554 13.5523 17.0017 13 17.0017H11C10.4477 17.0017 10 16.554 10 16.0017Z" fill="#262626"/>
</svg>
