<svg width="24" height="24" viewBox="0 0 24 24" fill="none" xmlns="http://www.w3.org/2000/svg">
<path fill-rule="evenodd" clip-rule="evenodd" d="M12 0C18.6274 0 24 5.37258 24 12C24 18.6274 18.6274 24 12 24C5.37258 24 0 18.6274 0 12C0 5.37258 5.37258 0 12 0ZM12 2C6.47715 2 2 6.47715 2 12C2 17.5228 6.47715 22 12 22C17.5228 22 22 17.5228 22 12C22 6.47715 17.5228 2 12 2ZM12 16C12.8284 16 13.5 16.6716 13.5 17.5C13.5 18.3284 12.8284 19 12 19C11.1716 19 10.5 18.3284 10.5 17.5C10.5 16.6716 11.1716 16 12 16ZM11.9992 5C14.2052 5 16 6.65666 16 8.69307C16 9.67934 15.5837 10.6067 14.8282 11.3046L14.235 11.8459L13.9408 12.1245C13.4643 12.5906 13.0721 13.0651 13.0047 13.5423L12.9945 13.6856V14.5H11.0038V13.6856C11.0038 12.4325 11.8445 11.4721 12.6791 10.6839L13.4199 10.0048C13.7997 9.6541 14.0089 9.1883 14.0089 8.69307C14.0089 7.67047 13.1076 6.83831 11.9992 6.83831C10.9447 6.83831 10.0774 7.5931 9.99715 8.54835L9.99109 8.69307H8C8 6.65666 9.79393 5 11.9992 5Z" fill="#262626"/>
</svg>
