<svg width="24" height="24" viewBox="0 0 24 24" fill="none" xmlns="http://www.w3.org/2000/svg">
<path fill-rule="evenodd" clip-rule="evenodd" d="M7.99999 7L6 5L5.44642 4.44642C7.20206 2.92183 9.49364 2 12 2V12L20.5 19L20.5054 18.9871L21.2723 19.6178C22.9762 17.5461 24 14.8913 24 12C24 5.37258 18.6274 0 12 0C8.94014 0 6.14838 1.14549 4.02948 3.02948L3 2L0.999999 0V2.82843V5V7H3H3.33597L3.33723 7.00072L3.33765 7H5.17157H7.99999ZM0 11V13H2V11H0ZM0.999999 18V16H3V18H0.999999ZM5 20V22H7V20H5ZM11 24V22H13V24H11ZM17 22H19V20H17V22Z" fill="#262626"/>
</svg>
