<svg width="24" height="24" viewBox="0 0 24 24" fill="none" xmlns="http://www.w3.org/2000/svg">
<path fill-rule="evenodd" clip-rule="evenodd" d="M4 8C4 3.58172 7.58172 0 12 0C16.4183 0 20 3.58172 20 8V16C20 20.4183 16.4183 24 12 24C7.58172 24 4 20.4183 4 16V8ZM17 7C17 9.76142 14.7614 12 12 12C9.23858 12 7 9.76142 7 7C7 4.23858 9.23858 2 12 2C14.7614 2 17 4.23858 17 7ZM17.6139 12.7893C18.0499 12.4503 18.1284 11.822 17.7894 11.3861C17.4503 10.9501 16.822 10.8716 16.3861 11.2106L7.38607 18.2106C6.95012 18.5497 6.87159 19.178 7.21066 19.6139C7.54973 20.0499 8.178 20.1284 8.61395 19.7893L17.6139 12.7893ZM11 7C11 7.55228 10.5523 8 10 8C9.44772 8 9 7.55228 9 7C9 6.44772 9.44772 6 10 6C10.5523 6 11 6.44772 11 7ZM15 7C15 7.55228 14.5523 8 14 8C13.4477 8 13 7.55228 13 7C13 6.44772 13.4477 6 14 6C14.5523 6 15 6.44772 15 7Z" fill="#262626"/>
</svg>
