<svg width="24" height="24" viewBox="0 0 24 24" fill="none" xmlns="http://www.w3.org/2000/svg">
<path fill-rule="evenodd" clip-rule="evenodd" d="M18 16V10.6076C17.6333 11.2162 17.1766 11.7644 16.6484 12.2339L16.6621 12.2494L7.69078 20.175C8.7814 21.3005 10.309 22 12 22C15.3137 22 18 19.3137 18 16ZM6.55039 18.5138C6.1971 17.7492 6 16.8976 6 16V10.6076C7.17144 12.5517 9.26104 13.88 11.6685 13.9923L6.55039 18.5138ZM4 8C4 3.58172 7.58172 0 12 0C16.4183 0 20 3.58172 20 8V16C20 20.4183 16.4183 24 12 24C7.58172 24 4 20.4183 4 16V8ZM7 7C7 4.23858 9.23858 2 12 2C14.7614 2 17 4.23858 17 7C17 9.76142 14.7614 12 12 12C9.23858 12 7 9.76142 7 7ZM10 8C10.5523 8 11 7.55228 11 7C11 6.44772 10.5523 6 10 6C9.44772 6 9 6.44772 9 7C9 7.55228 9.44772 8 10 8ZM15 7C15 7.55228 14.5523 8 14 8C13.4477 8 13 7.55228 13 7C13 6.44772 13.4477 6 14 6C14.5523 6 15 6.44772 15 7Z" fill="#262626"/>
</svg>
