<svg width="24" height="24" viewBox="0 0 24 24" fill="none" xmlns="http://www.w3.org/2000/svg">
<g clip-path="url(#clip0_46_1274)">
<path d="M17.5 7.5C18.1 7.5 18.5 7.9 18.5 8.5H20C20.6 8.5 21 8.9 21 9.5C21 9.9 20.7 10.3 20.4 10.4C20.3 11 20.1 11.6 19.8 12.3C19.5 12.9 19.1 13.6 18.6 14.2C18.8 14.3 19 14.5 19.2 14.6C19.7 14.9 19.8 15.5 19.5 16C19.2 16.5 18.6 16.6 18.1 16.3C17.7 16 17.3 15.8 17 15.6C16.6 15.9 16.2 16.2 15.8 16.4C15.3 16.7 14.7 16.5 14.5 16C14.3 15.5 14.5 14.9 14.9 14.6C15.1 14.5 15.3 14.4 15.5 14.2C15.2 13.9 15 13.6 14.7 13.3C14.4 12.9 14.5 12.3 15 12C15.5 11.7 16.1 11.8 16.4 12.3C16.6 12.5 16.8 12.7 17 13C17.4 12.5 17.7 12 18 11.5C18.2 11.2 18.3 10.8 18.3 10.5H15C14.4 10.5 14 10.1 14 9.5C14 8.9 14.4 8.5 15 8.5H16.5C16.5 7.9 16.9 7.5 17.5 7.5Z" fill="#262626"/>
<path fill-rule="evenodd" clip-rule="evenodd" d="M22 3H2C0.9 3 0 3.9 0 5V19C0 20.1 0.9 21 2 21H22C23.1 21 24 20.1 24 19V5C24 3.9 23.1 3 22 3ZM8 17L7.5 15H5.5L5 17H3L5.5 7H7.5L10 17H8ZM22 18C22 18.6 21.6 19 21 19H13V5H21C21.6 5 22 5.4 22 6V18Z" fill="#262626"/>
<path fill-rule="evenodd" clip-rule="evenodd" d="M6 13H7L6.5 11L6 13Z" fill="#262626"/>
</g>
<defs>
<clipPath id="clip0_46_1274">
<rect width="24" height="18" fill="white" transform="translate(0 3)"/>
</clipPath>
</defs>
</svg>
