<svg role="img" width="24" height="24" viewBox="0 0 24 24" fill="none" xmlns="http://www.w3.org/2000/svg">
<path d="M17.5 7.5C18.0523 7.5 18.5 7.94772 18.5 8.5L20 8.5C20.5523 8.5 21 8.94772 21 9.5C21 9.92593 20.7337 10.2897 20.3586 10.4338C20.2573 11.0022 20.0835 11.6329 19.7854 12.2888C19.4952 12.9271 19.0951 13.5736 18.5501 14.2051C18.741 14.3391 18.9454 14.4766 19.1651 14.619C19.6287 14.9192 19.7842 15.5311 19.5 16.0047C19.2159 16.4783 18.5995 16.6337 18.1352 16.3346C17.7393 16.0795 17.383 15.8348 17.0587 15.5953C16.6877 15.8776 16.2783 16.1526 15.8268 16.4178C15.3506 16.6976 14.747 16.494 14.5 16C14.253 15.506 14.4569 14.9095 14.9298 14.6244C15.134 14.5013 15.326 14.3769 15.5068 14.2515C15.2343 13.9686 14.9861 13.6787 14.7495 13.3728C14.4116 12.9359 14.5405 12.3111 15 12.0047C15.4596 11.6983 16.0737 11.8282 16.418 12.26C16.6007 12.4891 16.7944 12.7097 17.0098 12.9284C17.4506 12.4236 17.7534 11.926 17.9646 11.4612C18.1148 11.1308 18.2229 10.8087 18.3006 10.5L15 10.5C14.4477 10.5 14 10.0523 14 9.5C14 8.94772 14.4477 8.5 15 8.5L16.5 8.5C16.5 7.94772 16.9477 7.5 17.5 7.5Z" fill="#262626"/>
<path fill-rule="evenodd" clip-rule="evenodd" d="M7.5 7L10 17H8L7.5 15H5.5L5 17H3L5.5 7H7.5ZM6 13L6.5 11L7 13H6Z" fill="#262626"/>
<path fill-rule="evenodd" clip-rule="evenodd" d="M22 3C23.1046 3 24 3.89543 24 5V19C24 20.1046 23.1046 21 22 21H2C0.895429 21 0 20.1046 0 19V5C0 3.89543 0.895432 3 2 3H22ZM22 18C22 18.5523 21.5523 19 21 19L13 19L13 5H21C21.5523 5 22 5.44772 22 6V18ZM11 5L3 5C2.44772 5 2 5.44772 2 6L2 18C2 18.5523 2.44772 19 3 19L11 19V5Z" fill="#262626"/>
</svg>
