<svg width="24" height="24" viewBox="0 0 24 24" fill="none" xmlns="http://www.w3.org/2000/svg">
<path fill-rule="evenodd" clip-rule="evenodd" d="M4.625 6H3C1.34315 6 0 7.34315 0 9V21C0 22.6569 1.34315 24 3 24H19C20.6569 24 22 22.6569 22 21V19C23.1046 19 24 18.1046 24 17V13C24 11.8954 23.1046 11 22 11V9C22 7.42869 20.792 6.13953 19.254 6.0106L17 0L4.625 6ZM9.20928 6H17.114L15.8979 2.75704L9.20928 6ZM19 8H3C2.44772 8 2 8.44772 2 9V21C2 21.5523 2.44772 22 3 22H19C19.5523 22 20 21.5523 20 21V19H16C13.7909 19 12 17.2091 12 15C12 12.7909 13.7909 11 16 11H20V9C20 8.44772 19.5523 8 19 8ZM14 15C14 13.8954 14.8954 13 16 13H22V17H16C14.8954 17 14 16.1046 14 15ZM17 15C17 15.5523 16.5523 16 16 16C15.4477 16 15 15.5523 15 15C15 14.4477 15.4477 14 16 14C16.5523 14 17 14.4477 17 15Z" fill="#262626"/>
</svg>
