<svg width="24" height="24" viewBox="0 0 24 24" fill="none" xmlns="http://www.w3.org/2000/svg">
<path fill-rule="evenodd" clip-rule="evenodd" d="M6.29999 4L17.5 0L18.7 4H6.29999ZM2 6H20C21.1046 6 22 6.89543 22 8V10H16C13.2386 10 11 12.2386 11 15C11 17.7614 13.2386 20 16 20H22V22C22 23.1046 21.1046 24 20 24H2C0.89543 24 0 23.1046 0 22V8C0 6.89543 0.895431 6 2 6ZM13 15C13 13.3431 14.3431 12 16 12H23C23.5523 12 24 12.4477 24 13V17C24 17.5523 23.5523 18 23 18H16C14.3431 18 13 16.6569 13 15ZM17.2 15C17.2 15.5523 16.7523 16 16.2 16C15.6477 16 15.2 15.5523 15.2 15C15.2 14.4477 15.6477 14 16.2 14C16.7523 14 17.2 14.4477 17.2 15Z" fill="#262626"/>
</svg>
