<svg width="24" height="24" viewBox="0 0 24 24" fill="none" xmlns="http://www.w3.org/2000/svg">
<path fill-rule="evenodd" clip-rule="evenodd" d="M20.0225 11H20.4589C20.7905 11 21.0937 10.8127 21.242 10.5161L24 5H20.4222C18.8428 5 17.2987 5.4675 15.9846 6.3436L15 7H13L12.8944 6.78885C12.3463 5.69253 11.2257 5 10 5L11 2H8.91548C7.66209 2 6.43226 2.34064 5.35749 2.9855C3.27451 4.23529 2 6.48633 2 8.91548V10.0451C2 10.5725 2.42752 11 2.9549 11H3.91724C4.13463 11 4.34847 11.0133 4.55806 11.0392L4.20675 12.0053C4.13828 12.0018 4.06934 12 4 12C1.79086 12 0 13.7909 0 16C0 18.2091 1.79086 20 4 20C6.20914 20 8 18.2091 8 16C8 14.5681 7.24764 13.312 6.11668 12.6053L6.45772 11.6674C8.26493 12.6941 9.37059 14.7765 9 17H14H14.9398H16.126C16.5701 18.7252 18.1362 20 20 20C22.2091 20 24 18.2091 24 16C24 13.7909 22.2091 12 20 12C18.1362 12 16.5701 13.2748 16.126 15H15.0385C15.5372 12.745 17.5473 11 20.0225 11ZM3.45395 14.0755L3.06021 15.1583C2.87147 15.6773 3.13922 16.2511 3.65826 16.4398C4.17729 16.6285 4.75105 16.3608 4.93979 15.8417L5.4012 14.5729C5.77077 14.9358 6 15.4411 6 16C6 17.1046 5.10457 18 4 18C2.89543 18 2 17.1046 2 16C2 15.0847 2.6148 14.3131 3.45395 14.0755ZM20 18C19.2597 18 18.6134 17.5978 18.2676 17H20C20.5523 17 21 16.5523 21 16C21 15.4477 20.5523 15 20 15H18.2676C18.6134 14.4022 19.2597 14 20 14C21.1046 14 22 14.8954 22 16C22 17.1046 21.1046 18 20 18Z" fill="#262626"/>
</svg>
