<svg width="24" height="24" viewBox="0 0 24 24" fill="none" xmlns="http://www.w3.org/2000/svg">
<path fill-rule="evenodd" clip-rule="evenodd" d="M23.7071 1.70711C24.0976 1.31658 24.0976 0.683417 23.7071 0.292893C23.3166 -0.0976311 22.6834 -0.0976311 22.2929 0.292893L0.292893 22.2929C-0.0976311 22.6834 -0.0976311 23.3166 0.292893 23.7071C0.683417 24.0976 1.31658 24.0976 1.70711 23.7071L23.7071 1.70711ZM13.1818 6.57556V2.9091C13.1818 2.55636 12.9777 2.23546 12.6583 2.08584C12.3389 1.93622 11.9617 1.9849 11.6907 2.21072L5.1254 7.68182H0.90909C0.407013 7.68182 1.49012e-08 8.08884 1.49012e-08 8.59091V15.4091C1.49012e-08 15.9112 0.407013 16.3182 0.90909 16.3182H3.43918L13.1818 6.57556ZM13.1818 15.0608L8.83398 19.4087L11.6907 21.7893C11.9617 22.0151 12.3389 22.0638 12.6583 21.9142C12.9777 21.7645 13.1818 21.4436 13.1818 21.0909V15.0608ZM18.0399 10.2027C18.3162 10.7539 18.4639 11.3669 18.4639 11.995C18.4639 13.0557 18.0427 14.0729 17.2928 14.823C16.9023 15.2136 16.9024 15.8467 17.293 16.2372C17.6836 16.6277 18.3167 16.6276 18.7072 16.237C19.832 15.1118 20.4639 13.586 20.4639 11.995C20.4639 10.831 20.1257 9.70186 19.5036 8.739L18.0399 10.2027Z" fill="#262626"/>
</svg>
