<svg width="24" height="24" viewBox="0 0 24 24" fill="none" xmlns="http://www.w3.org/2000/svg">
<path fill-rule="evenodd" clip-rule="evenodd" d="M19.6243 4.32182C18.6354 3.86748 18 2.87823 18 1.78778V0H16V1.78778C16 3.68025 17.1145 5.39521 18.8439 6.16381L18.8444 6.16255C19.8334 6.61689 20.4688 7.60614 20.4688 8.69659V11H22.4688V8.69659C22.4688 6.80413 21.3543 5.08917 19.6249 4.32056L19.6243 4.32182ZM15.3846 13L18 10.3846L16.6154 9L11 14.6154L5.38462 9L4 10.3846L6.61539 13H2H0V15V17V19H2H6.61539L4 21.6154L5.38462 23L11 17.3846L16.6154 23L18 21.6154L15.3846 19H20V17V15V14V13H15.3846ZM24 15C24 13.8954 23.1046 13 22 13V15V17V19C23.1046 19 24 18.1046 24 17V15Z" fill="#262626"/>
</svg>
