<svg width="24" height="24" viewBox="0 0 24 24" fill="none" xmlns="http://www.w3.org/2000/svg">
<path fill-rule="evenodd" clip-rule="evenodd" d="M24 12C24 18.6274 18.6274 24 12 24C5.37258 24 0 18.6274 0 12C0 5.37258 5.37258 0 12 0C14.1857 0 16.235 0.584366 18 1.60539V2H16V6H18V8H22V6H22.3946C23.4156 7.76504 24 9.81428 24 12ZM14.5001 8C13.6717 8 13.0001 8.67157 13.0001 9.5C13.0001 10.3284 13.6717 11 14.5001 11C15.3285 11 16.0001 10.3284 16.0001 9.5C16.0001 8.67157 15.3285 8 14.5001 8ZM16.9496 12C17.5979 11.3647 18.0001 10.4793 18.0001 9.5C18.0001 7.567 16.4331 6 14.5001 6C12.5671 6 11.0001 7.567 11.0001 9.5C11.0001 10.4793 11.4023 11.3647 12.0506 12C11.4023 12.6353 11.0001 13.5207 11.0001 14.5C11.0001 16.433 12.5671 18 14.5001 18C16.4331 18 18.0001 16.433 18.0001 14.5C18.0001 13.5207 17.5979 12.6353 16.9496 12ZM14.5001 13C13.6717 13 13.0001 13.6716 13.0001 14.5C13.0001 15.3284 13.6717 16 14.5001 16C15.3285 16 16.0001 15.3284 16.0001 14.5C16.0001 13.6716 15.3285 13 14.5001 13ZM8.47196 6.61833C8.79712 6.79235 9.00011 7.13121 9.00011 7.5V17C9.00011 17.5523 8.55239 18 8.00011 18C7.44782 18 7.00011 17.5523 7.00011 17V9.36607C6.54713 9.62816 5.96241 9.49623 5.66806 9.0547C5.3617 8.59517 5.48588 7.9743 5.94541 7.66795L7.44541 6.66795C7.75226 6.46338 8.14681 6.44431 8.47196 6.61833ZM19 5V7H21V5H23V3H21V1L19 1V3H17V5H19Z" fill="#262626"/>
</svg>
