<svg width="24" height="24" viewBox="0 0 24 24" fill="none" xmlns="http://www.w3.org/2000/svg">
<path fill-rule="evenodd" clip-rule="evenodd" d="M12 2C9.79085 2 7.99999 3.79086 7.99999 6C7.99999 6.66187 8.16311 7.29714 8.45828 7.85918C6.00646 9.12956 5.6173 13.1739 8.76271 14.4845L12.7692 16.1538C13.5145 16.4644 14 17.1926 14 18C14 19.1046 13.1046 20 12 20C10.8954 20 9.99999 19.1046 9.99999 18H7.99999C7.99999 20.2091 9.79085 22 12 22C14.2091 22 16 20.2091 16 18C16 17.3381 15.8369 16.7029 15.5417 16.1408C17.9935 14.8704 18.3827 10.8261 15.2373 9.51554L11.2308 7.84615C10.4855 7.53561 9.99999 6.8074 9.99999 6C9.99999 4.89543 10.8954 4 12 4C13.1046 4 14 4.89543 14 6H16C16 3.79086 14.2091 2 12 2ZM13.9738 14.5208C15.6075 14.4232 16.1245 12.0519 14.4681 11.3617L10.4615 9.69231C10.311 9.62957 10.1657 9.55832 10.0262 9.47924C8.39252 9.57681 7.87544 11.9481 9.53194 12.6383L13.5385 14.3077C13.689 14.3704 13.8343 14.4417 13.9738 14.5208Z" fill="#262626"/>
</svg>
