<svg width="24" height="24" viewBox="0 0 24 24" fill="none" xmlns="http://www.w3.org/2000/svg">
<path fill-rule="evenodd" clip-rule="evenodd" d="M20 2H4C2.89543 2 2 2.89543 2 4V20C2 21.1046 2.89543 22 4 22H20C21.1046 22 22 21.1046 22 20V4C22 2.89543 21.1046 2 20 2ZM4 0C1.79086 0 0 1.79086 0 4V20C0 22.2091 1.79086 24 4 24H20C22.2091 24 24 22.2091 24 20V4C24 1.79086 22.2091 0 20 0H4ZM9 7V12H13.5C14.8807 12 16 10.8807 16 9.5C16 8.11929 14.8807 7 13.5 7H9ZM9 14H13.5C15.9853 14 18 11.9853 18 9.5C18 7.01472 15.9853 5 13.5 5H7V6V14V19H9V14Z" fill="#262626"/>
</svg>
