<svg width="24" height="24" viewBox="0 0 24 24" fill="none" xmlns="http://www.w3.org/2000/svg">
<path fill-rule="evenodd" clip-rule="evenodd" d="M14.8231 2.27914L13.644 2.47566C12.5555 2.65707 11.4445 2.65707 10.356 2.47566L9.17691 2.27914L10.2005 5.21339C10.8135 5.07369 11.451 5 12.105 5C12.6732 5 13.2293 5.05569 13.7677 5.16207L14.8231 2.27914ZM15.5919 5.74239L17.34 1.37199C17.6296 0.648119 17.0162 -0.113964 16.2472 0.0142072L13.3152 0.502868C12.4444 0.647999 11.5556 0.647999 10.6848 0.502868L7.75286 0.0142072C6.98384 -0.113964 6.37044 0.64812 6.65999 1.37199L8.4408 5.82403C5.69277 7.13072 3.74401 9.86374 3.57401 13.0938L3.31389 18.036C2.50685 18.7679 2 19.8247 2 21C2 22.6569 3.34315 24 5 24H5.2381H19H19.152C19.4482 24 19.7296 23.9409 19.9858 23.8343C21.1584 23.4265 22 22.3115 22 21C22 20.0184 21.6464 19.1194 21.0597 18.4234L20.6214 12.8705C20.368 9.66196 18.3642 6.98343 15.5919 5.74239ZM9 20V9.568H12.084C12.66 9.568 13.1987 9.62667 13.7 9.744C14.1421 9.83806 14.3571 9.99431 14.6577 10.2128L14.6577 10.2128C14.698 10.2421 14.7399 10.2725 14.784 10.304C15.1573 10.56 15.4507 10.9067 15.664 11.344C15.888 11.7707 16 12.2987 16 12.928C16 13.536 15.888 14.064 15.664 14.512C15.4507 14.96 15.1573 15.328 14.784 15.616C14.7219 15.6639 14.6646 15.7097 14.6098 15.7534L14.6097 15.7534C14.3349 15.9729 14.1251 16.1404 13.716 16.256C13.2253 16.3947 12.7027 16.464 12.148 16.464H11V20H9ZM11 14.592H12.004C13.284 14.592 13.924 14.0373 13.924 12.928C13.924 12.384 13.7533 12 13.412 11.776C13.0707 11.552 12.58 11.44 11.94 11.44H11V14.592ZM4.65738 19.5176L5.26782 18.9641L5.31113 18.1412L5.57125 13.1989C5.75414 9.72388 8.62516 7 12.105 7C15.5188 7 18.3589 9.62468 18.6276 13.0279L19.0659 18.5808L19.1165 19.2213L19.5306 19.7125C19.8246 20.0613 20 20.5076 20 21C20 21.4341 19.7223 21.8084 19.3288 21.9453L19.2723 21.9649L19.217 21.988C19.2004 21.9949 19.1799 22 19.152 22H19H5.2381H5C4.44772 22 4 21.5523 4 21C4 20.4125 4.25078 19.8863 4.65738 19.5176Z" fill="#262626"/>
</svg>
