<svg width="24" height="24" viewBox="0 0 24 24" fill="none" xmlns="http://www.w3.org/2000/svg">
<path fill-rule="evenodd" clip-rule="evenodd" d="M14 3C14 1.89543 14.8954 1 16 1H21C22.1046 1 23 1.89543 23 3V7C23 8.10457 22.1046 9 21 9H17.2361L14 10.618V7.0082L14 7V3ZM21 3H16V7L16.0001 7.0082L16 7.38196L16.7639 7H21V3ZM7.5 7C6.11929 7 5 8.11929 5 9.5C5 10.8807 6.11929 12 7.5 12C8.88071 12 10 10.8807 10 9.5C10 8.11929 8.88071 7 7.5 7ZM3 9.5C3 7.01472 5.01472 5 7.5 5C9.98528 5 12 7.01472 12 9.5C12 11.9853 9.98528 14 7.5 14C5.01472 14 3 11.9853 3 9.5ZM3 21.5C3 19.0147 5.01472 17 7.5 17C9.98528 17 12 19.0147 12 21.5V22H14V21.5C14 17.9101 11.0899 15 7.5 15C3.91015 15 1 17.9101 1 21.5V22H3V21.5Z" fill="#262626"/>
</svg>
