<svg width="24" height="24" viewBox="0 0 24 24" fill="none" xmlns="http://www.w3.org/2000/svg">
<path fill-rule="evenodd" clip-rule="evenodd" d="M12 23C18.0751 23 23 18.0751 23 12C23 5.92487 18.0751 1 12 1C5.92487 1 1 5.92487 1 12C1 18.0751 5.92487 23 12 23ZM15 9C15 7.34315 13.6569 6 12 6C10.3431 6 9 7.34315 9 9C9 10.6569 10.3431 12 12 12C13.6569 12 15 10.6569 15 9ZM6.11764 18.8118C6.669 16.0672 9.09309 14 12 14C14.9069 14 17.331 16.0672 17.8824 18.8118C16.3048 20.1753 14.2487 21 12 21C9.75127 21 7.69516 20.1753 6.11764 18.8118Z" fill="#262626"/>
</svg>
