<svg width="24" height="24" viewBox="0 0 24 24" fill="none" xmlns="http://www.w3.org/2000/svg">
<path fill-rule="evenodd" clip-rule="evenodd" d="M7.24622 13.437C4.25896 9.59623 6.99599 4 11.8617 4C16.7274 4 19.4644 9.59623 16.4772 13.437L11.8617 19.3712L7.24622 13.437ZM11.8617 2C5.33169 2 1.65848 9.5104 5.66752 14.6649L11.8617 22.6288L18.0559 14.6649C22.0649 9.51039 18.3917 2 11.8617 2ZM9.86169 10C9.86169 8.89543 10.7571 8 11.8617 8C12.9663 8 13.8617 8.89543 13.8617 10C13.8617 11.1046 12.9663 12 11.8617 12C10.7571 12 9.86169 11.1046 9.86169 10ZM11.8617 6C9.65256 6 7.86169 7.79086 7.86169 10C7.86169 12.2091 9.65256 14 11.8617 14C14.0708 14 15.8617 12.2091 15.8617 10C15.8617 7.79086 14.0708 6 11.8617 6Z" fill="#262626"/>
</svg>
