<svg width="24" height="24" viewBox="0 0 24 24" fill="none" xmlns="http://www.w3.org/2000/svg">
<path fill-rule="evenodd" clip-rule="evenodd" d="M14 6C15.1046 6 16 5.10457 16 4C16 2.89543 15.1046 2 14 2C12.8954 2 12 2.89543 12 4C12 5.10457 12.8954 6 14 6ZM14 8C16.2091 8 18 6.20914 18 4C18 1.79086 16.2091 0 14 0C11.7909 0 10 1.79086 10 4C10 6.20914 11.7909 8 14 8ZM10.0287 17C9.15872 17 8.68725 18.1766 9.23387 18.9378L9.28875 19.0142L11 21L12.7112 19.0142L12.7661 18.9378C13.3128 18.1766 12.8413 17 11.9713 17C11.7134 17 11.4642 17.1193 11.2829 17.3297L11 17.658L10.7171 17.3297C10.5358 17.1193 10.2866 17 10.0287 17ZM12 14.8503L10.1795 15.0143C8.39773 15.1749 7 16.6754 7 18.5C7 20.3246 8.39773 21.8251 10.1795 21.9856L10.3387 22H10.5V24H10V23.9776C7.19675 23.725 5 21.369 5 18.5C5 15.631 7.19675 13.275 10 13.0224V13C10 10.7909 11.7909 9 14 9C16.2091 9 18 10.7909 18 13V22V24H16V22V13C16 11.8954 15.1046 11 14 11C12.8954 11 12 11.8954 12 13V13.0224V14.8503Z" fill="#262626"/>
</svg>
