<svg width="24" height="24" viewBox="0 0 24 24" fill="none" xmlns="http://www.w3.org/2000/svg">
<path fill-rule="evenodd" clip-rule="evenodd" d="M17.9999 17.1959V14.5544L21.53 12.3481C21.9983 12.0554 22.1407 11.4384 21.8479 10.9701C21.5552 10.5017 20.9383 10.3594 20.4699 10.6521L17.9999 12.1959V7.02725C18.0043 6.85812 17.9656 6.69087 17.8888 6.54167C17.7914 6.35317 17.6358 6.19963 17.4457 6.10481L5.9269 0.113051C5.43694 -0.141811 4.83314 0.0487714 4.57828 0.53873C4.32342 1.02869 4.514 1.63248 5.00396 1.88735L12.9106 6.00016H2.99998C2.4477 6.00016 1.99998 6.44787 1.99998 7.00015V23C1.99998 23.5523 2.4477 24 2.99998 24H16.9999C17.5522 24 17.9999 23.5523 17.9999 23V19.5544L21.5299 17.3481C21.9983 17.0554 22.1406 16.4384 21.8479 15.9701C21.5552 15.5017 20.9383 15.3594 20.4699 15.6521L17.9999 17.1959ZM15.9999 18.9974V14.0047V13.9974V8.00014H3.99997V22H15.9999V19.0046V18.9974ZM6.99995 18.0001C6.44767 18.0001 5.99995 18.4478 5.99995 19.0001C5.99995 19.5523 6.44767 20.0001 6.99995 20.0001H12.9999C13.5522 20.0001 13.9999 19.5523 13.9999 19.0001C13.9999 18.4478 13.5522 18.0001 12.9999 18.0001L6.99995 18.0001Z" fill="#262626"/>
</svg>
