<svg width="24" height="24" viewBox="0 0 24 24" fill="none" xmlns="http://www.w3.org/2000/svg">
<path fill-rule="evenodd" clip-rule="evenodd" d="M17.9999 7.02725V12.1959L20.4699 10.6521C20.9383 10.3594 21.5552 10.5018 21.8479 10.9701C22.1407 11.4384 21.9983 12.0554 21.53 12.3481L17.9999 14.5544V17.1959L20.4699 15.6521C20.9383 15.3594 21.5552 15.5018 21.8479 15.9701C22.1406 16.4384 21.9983 17.0554 21.5299 17.3481L17.9999 19.5544V23C17.9999 23.5523 17.5522 24 16.9999 24H2.99998C2.4477 24 1.99998 23.5523 1.99998 23V7.00015C1.99998 6.44787 2.4477 6.00016 2.99998 6.00016H12.9106L5.00396 1.88735C4.514 1.63248 4.32342 1.02869 4.57828 0.53873C4.83314 0.0487714 5.43694 -0.141811 5.9269 0.113051L17.4457 6.10481C17.6358 6.19963 17.7914 6.35317 17.8888 6.54167C17.9656 6.69087 18.0043 6.85812 17.9999 7.02725ZM6.99995 18.0001C6.44767 18.0001 5.99995 18.4478 5.99995 19.0001C5.99995 19.5523 6.44767 20.0001 6.99995 20.0001H12.9999C13.5522 20.0001 13.9999 19.5523 13.9999 19.0001C13.9999 18.4478 13.5522 18.0001 12.9999 18.0001H6.99995Z" fill="#262626"/>
</svg>
