<svg width="24" height="24" viewBox="0 0 24 24" fill="none" xmlns="http://www.w3.org/2000/svg">
<path fill-rule="evenodd" clip-rule="evenodd" d="M19 2H5V22H19V2ZM3 0V24H21V0H3ZM13 7C13 7.55228 12.5523 8 12 8C11.4477 8 11 7.55228 11 7C11 6.44772 11.4477 6 12 6C12.5523 6 13 6.44772 13 7ZM15 7C15 8.65685 13.6569 10 12 10C10.3431 10 9 8.65685 9 7C9 5.34315 10.3431 4 12 4C13.6569 4 15 5.34315 15 7ZM12 10C13.0792 10 14.0921 10.4013 14.8352 11.1588C15.5388 11.8762 15.9518 12.8623 15.996 14H16V14.2051H14C14 13.4468 13.7476 12.9062 13.4074 12.5594C13.0647 12.21 12.5777 12 12 12C11.4223 12 10.9353 12.21 10.5926 12.5594C10.2524 12.9062 10 13.4468 10 14.2051H8V14H8.00397C8.04822 12.8623 8.46117 11.8762 9.16479 11.1588C9.90787 10.4013 10.9208 10 12 10ZM7 17V19H17V17H7Z" fill="#262626"/>
</svg>
