<svg width="24" height="24" viewBox="0 0 24 24" fill="none" xmlns="http://www.w3.org/2000/svg">
<path fill-rule="evenodd" clip-rule="evenodd" d="M22 2H17.5803L14.7232 7H18V11H20C20.5523 11 21 11.4477 21 12C21 12.5523 20.5523 13 20 13H18V15C18 16.1046 18.8954 17 20 17H22V2ZM2 2H15.2768L12.9867 6.00772C12.2248 7.34104 13.1875 9 14.7232 9H16V15C16 17.2091 17.7909 19 20 19H22V22H14V12.5C14 11.1193 12.8807 10 11.5 10C10.1193 10 9 11.1193 9 12.5V16.3636L5.94753 17.1961C4.20729 17.6707 3 19.2514 3 21.0552V22H2L2 2ZM5 22H12V12.5C12 12.2239 11.7761 12 11.5 12C11.2239 12 11 12.2239 11 12.5V17.8912L6.47377 19.1257C5.60364 19.363 5 20.1533 5 21.0552V22ZM3 24H2C0.89543 24 0 23.1046 0 22V2C0 0.89543 0.895431 0 2 0H22C23.1046 0 24 0.895431 24 2V22C24 23.1046 23.1046 24 22 24H14H3Z" fill="#262626"/>
</svg>
