<svg width="24" height="24" viewBox="0 0 24 24" fill="none" xmlns="http://www.w3.org/2000/svg">
<path fill-rule="evenodd" clip-rule="evenodd" d="M15.4286 2L12.8549 6.50386C12.474 7.17052 12.9554 8 13.7232 8H16V11H19C19.5523 11 20 11.4477 20 12C20 12.5523 19.5523 13 19 13H16V15C16 16.6569 17.3431 18 19 18H22V2H15.4286ZM13 22V11.5C13 10.6716 12.3284 10 11.5 10C10.6716 10 10 10.6716 10 11.5V16.5L7.06379 17.2069C5.26663 17.6395 4 19.2473 4 21.0958V22H13ZM2 0C0.895431 0 0 0.89543 0 2V22C0 23.1046 0.89543 24 2 24H22C23.1046 24 24 23.1046 24 22V2C24 0.895431 23.1046 0 22 0H2Z" fill="#262626"/>
</svg>
