<svg width="24" height="24" viewBox="0 0 24 24" fill="none" xmlns="http://www.w3.org/2000/svg">
<path fill-rule="evenodd" clip-rule="evenodd" d="M21 5C21 6.65685 19.6569 8 18 8C16.3431 8 15 6.65685 15 5C15 3.34315 16.3431 2 18 2C19.6569 2 21 3.34315 21 5ZM14 13C14 10.7909 15.7909 9 18 9C20.2091 9 22 10.7909 22 13V14H14V13ZM4 15C4 12.7909 5.79086 11 8 11C10.2091 11 12 12.7909 12 15V22H4V15ZM8 10C9.65685 10 11 8.65685 11 7C11 5.34315 9.65685 4 8 4C6.34315 4 5 5.34315 5 7C5 8.65685 6.34315 10 8 10ZM14 16H24V22H14V16ZM2 16H0V22H2V16Z" fill="#262626"/>
</svg>
