<svg width="24" height="24" viewBox="0 0 24 24" fill="none" xmlns="http://www.w3.org/2000/svg">
<path fill-rule="evenodd" clip-rule="evenodd" d="M9.70711 3.70711C10.0976 3.31658 10.0976 2.68342 9.70711 2.29289C9.31658 1.90237 8.68342 1.90237 8.29289 2.29289L5.29289 5.2929C5.10535 5.48043 5 5.73479 5 6C5 6.26522 5.10535 6.51957 5.29289 6.70711L8.29289 9.70711C8.68342 10.0976 9.31658 10.0976 9.70711 9.70711C10.0976 9.31658 10.0976 8.68342 9.70711 8.29289L8.41421 7H17C18.6569 7 20 8.34315 20 10V12C20 12.5523 20.4477 13 21 13C21.5523 13 22 12.5523 22 12V10C22 7.23858 19.7614 5 17 5H8.41421L9.70711 3.70711ZM14.2929 20.2929C13.9024 20.6834 13.9024 21.3166 14.2929 21.7071C14.6834 22.0976 15.3166 22.0976 15.7071 21.7071L18.7071 18.7071C18.8946 18.5196 19 18.2652 19 18C19 17.7348 18.8946 17.4804 18.7071 17.2929L15.7071 14.2929C15.3166 13.9024 14.6834 13.9024 14.2929 14.2929C13.9024 14.6834 13.9024 15.3166 14.2929 15.7071L15.5858 17L7 17C5.34314 17 4 15.6569 4 14L4 12C4 11.4477 3.55228 11 3 11C2.44771 11 2 11.4477 2 12V14C2 16.7614 4.23858 19 7 19H15.5858L14.2929 20.2929Z" fill="#262626"/>
</svg>
