<svg width="24" height="24" viewBox="0 0 24 24" fill="none" xmlns="http://www.w3.org/2000/svg">
<path fill-rule="evenodd" clip-rule="evenodd" d="M9.70711 3.7071L10.4142 2.99999L9 1.58578L8.29289 2.29289L5.29289 5.29289L4.58578 6L5.29289 6.7071L8.29289 9.7071L9 10.4142L10.4142 8.99999L9.70711 8.29289L8.41421 6.99999H17C18.6569 6.99999 20 8.34314 20 9.99999V12V13H22V12V9.99999C22 7.23857 19.7614 4.99999 17 4.99999H8.41421L9.70711 3.7071ZM14.2929 20.2929L13.5858 21L15 22.4142L15.7071 21.7071L18.7071 18.7071L19.4142 18L18.7071 17.2929L15.7071 14.2929L15 13.5858L13.5858 15L14.2929 15.7071L15.5858 17L7 17C5.34314 17 4 15.6568 4 14L4 12L4 11H2V12V14C2 16.7614 4.23858 19 7 19H15.5858L14.2929 20.2929Z" fill="#262626"/>
</svg>
