<svg width="24" height="24" viewBox="0 0 24 24" fill="none" xmlns="http://www.w3.org/2000/svg">
<path fill-rule="evenodd" clip-rule="evenodd" d="M8 6.99999H10.5859L8.79299 8.79288L10.2072 10.2071L13.7072 6.7071L14.4143 6.00001L13.7072 5.29291L10.2072 1.79266L8.79297 3.20683L10.586 4.99999H8C4.68629 4.99999 2 7.68628 2 11V15H4V11C4 8.79085 5.79086 6.99999 8 6.99999ZM13 11C11.8954 11 11 11.8954 11 13V20C11 21.1046 11.8954 22 13 22H20C21.1046 22 22 21.1046 22 20V13C22 11.8954 21.1046 11 20 11H13ZM13 13H20V20H13V13Z" fill="#262626"/>
</svg>
