<svg width="24" height="24" viewBox="0 0 24 24" fill="none" xmlns="http://www.w3.org/2000/svg">
<path fill-rule="evenodd" clip-rule="evenodd" d="M1 0C0.447715 0 0 0.447716 0 1V23C0 23.5523 0.447716 24 1 24H23C23.5523 24 24 23.5523 24 23V1C24 0.447715 23.5523 0 23 0H1ZM11.5858 7H9C6.79086 7 5 8.79086 5 11V15H3V11C3 7.68629 5.68629 5 9 5H11.5859L9.79287 3.20682L11.2071 1.79266L14.7071 5.2929L15.4142 6.00001L14.7071 6.70709L11.2071 10.2071L9.79289 8.79288L11.5858 7ZM12 13.5C12 12.6716 12.6716 12 13.5 12H19.5C20.3284 12 21 12.6716 21 13.5V19.5C21 20.3284 20.3284 21 19.5 21H13.5C12.6716 21 12 20.3284 12 19.5V13.5Z" fill="#262626"/>
</svg>
