<svg width="24" height="24" viewBox="0 0 24 24" fill="none" xmlns="http://www.w3.org/2000/svg">
<path fill-rule="evenodd" clip-rule="evenodd" d="M17 2H7V6H17V2ZM7.41604 8C8.1876 9.7659 9.94968 11 12 11C14.0503 11 15.8124 9.7659 16.584 8H7.41604ZM19 6C19 8.54633 17.6404 10.7751 15.6076 12C17.6404 13.2249 19 15.4537 19 18L19 21V24L5 24V21V18C5 15.4537 6.35958 13.2249 8.39242 12C6.35958 10.7751 5 8.54633 5 6V0H19V6ZM17 18V19.8571L12 17L7 19.8571V18C7 15.2386 9.23858 13 12 13C14.7614 13 17 15.2386 17 18ZM12 19.3035L16.7189 22H7.28113L12 19.3035ZM11 14V16H13V14H11Z" fill="#262626"/>
</svg>
