<svg width="24" height="24" viewBox="0 0 24 24" fill="none" xmlns="http://www.w3.org/2000/svg">
<path fill-rule="evenodd" clip-rule="evenodd" d="M4.75 4.5C3.50736 4.5 2.5 5.50736 2.5 6.75C2.5 7.99264 3.50736 9 4.75 9C5.53544 9 6.22775 8.59789 6.63101 7.98527L6.86155 7.52945C6.95105 7.28709 7 7.02477 7 6.75C7 5.50736 5.99264 4.5 4.75 4.5ZM7.47992 9.32087C6.79664 10.0461 5.8266 10.5 4.75 10.5C2.67893 10.5 1 8.82107 1 6.75C1 4.67893 2.67893 3 4.75 3C6.82107 3 8.5 4.67893 8.5 6.75C8.5 6.94358 8.48528 7.13391 8.45688 7.31986L10.7444 8.84487L18.2713 6.66549C18.6953 6.54272 19.1426 6.52382 19.5754 6.61039L21.5963 7.01456C21.9009 7.07548 22.1364 7.31783 22.1886 7.62401C22.2407 7.9302 22.0988 8.23687 21.8316 8.39522L15.8504 11.9396L21.841 15.6089C22.1041 15.7701 22.2417 16.0761 22.1876 16.3799C22.1336 16.6837 21.8989 16.9234 21.5963 16.9839L19.5798 17.3872C19.1431 17.4746 18.6918 17.4546 18.2645 17.3289L10.5733 15.0668L8.47452 16.3105C8.49135 16.4547 8.5 16.6013 8.5 16.75C8.5 18.8211 6.82107 20.5 4.75 20.5C2.67893 20.5 1 18.8211 1 16.75C1 14.6789 2.67893 13 4.75 13C5.84188 13 6.82477 13.4667 7.5101 14.2114C7.78365 13.8454 7.99916 13.411 8.13288 12.9278C8.14967 12.8534 8.16572 12.7845 8.18086 12.7195C8.19219 12.6709 8.203 12.6245 8.21321 12.5797C8.26054 12.3255 8.28571 12.0601 8.28571 11.786C8.28571 11.4996 8.25824 11.2227 8.20677 10.9581C8.17021 10.7954 8.12262 10.6148 8.06147 10.4128C7.9219 10.0046 7.72274 9.6363 7.47992 9.32087ZM9.37236 14.0349C9.46466 13.7525 9.54444 13.4851 9.59198 13.2761C9.62298 13.1599 9.65042 13.042 9.67419 12.9228C9.73646 12.6491 9.79818 12.3327 9.81177 11.9712C9.82563 11.6024 9.79153 11.1971 9.68842 10.7122L18.6885 8.10631C18.8812 8.0505 19.0845 8.04191 19.2813 8.08126L19.3843 8.10187L11.0383 13.0476L10.0769 13.5975C10.0261 13.6265 9.97969 13.6609 9.93808 13.6996L9.37236 14.0349ZM12.3496 14.0257L18.6878 15.8899C18.882 15.947 19.0872 15.9561 19.2856 15.9164L19.4254 15.8884L14.4361 12.8324L12.3496 14.0257ZM4.75 14.5C3.50736 14.5 2.5 15.5074 2.5 16.75C2.5 17.9926 3.50736 19 4.75 19C5.99264 19 7 17.9926 7 16.75C7 15.5074 5.99264 14.5 4.75 14.5Z" fill="#262626"/>
</svg>
