<svg width="24" height="24" viewBox="0 0 24 24" fill="none" xmlns="http://www.w3.org/2000/svg">
<path fill-rule="evenodd" clip-rule="evenodd" d="M4.75 10.5C5.8266 10.5 6.79664 10.0461 7.47992 9.32087C7.72274 9.6363 7.9219 10.0046 8.06147 10.4128C8.12262 10.6148 8.17021 10.7954 8.20677 10.9581C8.25824 11.2227 8.28571 11.4996 8.28571 11.786C8.28571 12.0601 8.26054 12.3255 8.21321 12.5797C8.203 12.6245 8.19219 12.6709 8.18086 12.7195C8.16572 12.7845 8.14967 12.8534 8.13288 12.9278C7.99916 13.411 7.78365 13.8454 7.5101 14.2114C6.82477 13.4667 5.84188 13 4.75 13C2.67893 13 1 14.6789 1 16.75C1 18.8211 2.67893 20.5 4.75 20.5C6.82107 20.5 8.5 18.8211 8.5 16.75C8.5 16.6013 8.49135 16.4547 8.47452 16.3105L21.8316 8.39522C22.0988 8.23687 22.2407 7.9302 22.1886 7.62401C22.1364 7.31783 21.9009 7.07548 21.5963 7.01456L19.5754 6.61039C19.1426 6.52382 18.6953 6.54272 18.2713 6.66549L10.7444 8.84487L8.45688 7.31986C8.48528 7.13391 8.5 6.94358 8.5 6.75C8.5 4.67893 6.82107 3 4.75 3C2.67893 3 1 4.67893 1 6.75C1 8.82107 2.67893 10.5 4.75 10.5ZM2.5 6.75C2.5 5.50736 3.50736 4.5 4.75 4.5C5.99264 4.5 7 5.50736 7 6.75C7 7.02477 6.95105 7.28709 6.86155 7.52945L6.63101 7.98527C6.22775 8.59789 5.53544 9 4.75 9C3.50736 9 2.5 7.99264 2.5 6.75ZM2.5 16.75C2.5 15.5074 3.50736 14.5 4.75 14.5C5.99264 14.5 7 15.5074 7 16.75C7 17.9926 5.99264 19 4.75 19C3.50736 19 2.5 17.9926 2.5 16.75ZM10.75 12.75C11.3023 12.75 11.75 12.3023 11.75 11.75C11.75 11.1977 11.3023 10.75 10.75 10.75C10.1977 10.75 9.75 11.1977 9.75 11.75C9.75 12.3023 10.1977 12.75 10.75 12.75Z" fill="#262626"/>
<path d="M18.1236 12.0997C17.8928 11.967 17.6089 11.9668 17.3777 12.0989L13.3777 14.3865C13.1013 14.5446 12.9548 14.86 13.0124 15.1731C13.07 15.4863 13.319 15.729 13.6335 15.7785L19.6304 16.7215C19.9512 16.7719 20.2784 16.7651 20.5969 16.7015L22.7467 16.2715C23.0531 16.2102 23.2894 15.9654 23.3398 15.657C23.3902 15.3487 23.2442 15.0414 22.9733 14.8857L18.1236 12.0997Z" fill="#262626"/>
</svg>
