<svg width="24" height="24" viewBox="0 0 24 24" fill="none" xmlns="http://www.w3.org/2000/svg">
<path fill-rule="evenodd" clip-rule="evenodd" d="M3 0C1.34315 0 0 1.34315 0 3V8C0 9.65685 1.34315 11 3 11H8.78794V14.004C7.78702 13.4375 6.12984 13.2369 4.94022 14.3887C3.72154 15.5686 3.73648 17.3041 4.70275 18.5029L9.13365 24H19.7246L20.9847 17.0626L20.9886 17.009C21.1531 14.7343 19.5011 12.7387 17.239 12.448L17.2224 12.4459L14.8727 12.2239V11H21C22.6569 11 24 9.65685 24 8V3C24 1.34315 22.6569 0 21 0H3ZM14.8727 9H21C21.5523 9 22 8.55228 22 8V3C22 2.44772 21.5523 2 21 2H3C2.44772 2 2 2.44772 2 3V8C2 8.55228 2.44772 9 3 9H8.78794V7.97321C8.78794 6.29896 10.1828 5 11.8303 5C13.4778 5 14.8727 6.29896 14.8727 7.97321V9ZM10.7879 7.97321C10.7879 7.46791 11.2219 7 11.8303 7C12.4387 7 12.8727 7.46791 12.8727 7.97321V14.0439L16.9994 14.4337C18.1969 14.5954 19.0568 15.6375 18.9968 16.8158L18.0551 22H10.0904L6.25989 17.2478C5.89294 16.7925 5.91141 16.2322 6.33138 15.8256C6.69154 15.4769 7.33073 15.4633 7.82269 15.7561L10.7879 17.5268V7.97321Z" fill="#262626"/>
</svg>
