<svg width="24" height="24" viewBox="0 0 24 24" fill="none" xmlns="http://www.w3.org/2000/svg">
<path fill-rule="evenodd" clip-rule="evenodd" d="M5 2C5 0.89543 5.89543 0 7 0H17C18.1046 0 19 0.895431 19 2V14.6407C18.3613 14.1774 17.5993 13.8624 16.7584 13.7536L16.7564 13.7533L16.0001 13.6544V10.9446C16.0001 8.76607 14.2092 7 12.0001 7C9.79094 7 8.00008 8.76607 8.00008 10.9446V14.7104C7.05113 14.6546 6.01193 14.9147 5.1473 15.7551C5.09643 15.8046 5.04734 15.8548 5 15.9058V2ZM9 4H15V2H9V4ZM14 11V15.3865L16.4969 15.7119C18.0067 15.906 19.1015 17.236 18.9925 18.7436L18.0381 24H9.99726L6.41733 19.5572C5.8396 18.8402 5.84113 17.8451 6.55121 17.1574C7.23288 16.4972 8.24601 16.5915 8.88989 16.975L10 17.8428V11C10 9.89543 10.8954 9 12 9C13.1046 9 14 9.89543 14 11Z" fill="#262626"/>
</svg>
