<svg width="24" height="24" viewBox="0 0 24 24" fill="none" xmlns="http://www.w3.org/2000/svg">
<path fill-rule="evenodd" clip-rule="evenodd" d="M19 7C19 10.866 15.866 14 12 14C9.6091 14 7.49816 12.8013 6.23536 10.9721C6.15988 10.9903 6.08107 11 6 11H4C2.89543 11 2 10.1046 2 9L2 5C2 4.44772 2.44772 4 3 4C3.55228 4 4 4.44772 4 5L4 9H5.28988C5.10128 8.36629 5 7.69497 5 7C5 3.13401 8.13401 0 12 0C15.866 0 19 3.13401 19 7ZM23 24C21.7392 18.8243 17.2923 15 12 15C6.70771 15 2.26084 18.8243 1 24H23ZM22 5C22 4.44772 21.5523 4 21 4C20.4477 4 20 4.44772 20 5V9C20 9.55228 20.4477 10 21 10C21.5523 10 22 9.55228 22 9V5ZM8 10C8 9.44771 8.44772 9 9 9H11C11.5523 9 12 9.44771 12 10C12 10.5523 11.5523 11 11 11H9C8.44772 11 8 10.5523 8 10Z" fill="#262626"/>
</svg>
