<svg width="24" height="24" viewBox="0 0 24 24" fill="none" xmlns="http://www.w3.org/2000/svg">
<path fill-rule="evenodd" clip-rule="evenodd" d="M14 0L15.195 3.58361C15.363 3.64741 15.5285 3.71608 15.6915 3.78947L19.0711 2.10051L21.8995 4.92893L20.2105 8.30849C20.2839 8.47146 20.3526 8.63702 20.4164 8.80497L24 10V14L20.416 15.196C20.3522 15.364 20.2835 15.5295 20.2101 15.6925L21.8995 19.0711L19.0711 21.8995L15.6925 20.2101C15.5295 20.2835 15.364 20.3522 15.196 20.416L14 24H10L8.80497 20.4164C8.63702 20.3526 8.47146 20.2839 8.30849 20.2105L4.92893 21.8995L2.10051 19.0711L3.78947 15.6915C3.71608 15.5285 3.64741 15.363 3.58361 15.195L0 14V10L3.58323 8.80597C3.64713 8.63767 3.71594 8.47179 3.78947 8.30849L2.10051 4.92893L4.92893 2.10051L8.30849 3.78947C8.47179 3.71594 8.63767 3.64713 8.80597 3.58323L10 0H14ZM12 8C14.2091 8 16 9.79086 16 12C16 14.2091 14.2091 16 12 16C9.79086 16 8 14.2091 8 12C8 9.79086 9.79086 8 12 8Z" fill="#262626"/>
</svg>
