<svg width="24" height="24" viewBox="0 0 24 24" fill="none" xmlns="http://www.w3.org/2000/svg">
<path fill-rule="evenodd" clip-rule="evenodd" d="M11.1794 2.30094C11.5577 1.91392 12.1754 1.89816 12.5729 2.26539L16.6089 5.99298L22 5.99298L22 12.1017L18.6014 12.1017L12.8839 6.38425L12.8839 6.38422L11.4697 4.97001L8.28778 8.15198C7.89726 8.5425 7.26409 8.5425 6.87357 8.15198L6.15851 7.43691L11.1794 2.30094ZM11.4697 7.79846L9.70198 9.56618C8.53042 10.7378 6.63093 10.7378 5.45937 9.56619L4.7443 8.85112C3.9695 8.07632 3.9624 6.82234 4.72837 6.03882L4.77319 5.99297L2 5.99297L2.00002 12.5748L10.3952 20.8588C10.587 21.0481 10.8947 21.0501 11.0891 20.8634C11.2901 20.6704 11.2933 20.35 11.0963 20.153L10.0554 19.1121L11.4696 17.6979L11.4696 17.6979L11.4696 17.6979L13.2374 19.4656C13.4327 19.6609 13.7492 19.6609 13.9445 19.4656C14.1398 19.2703 14.1398 18.9538 13.9445 18.7585L12.1768 16.9908L12.1767 16.9907L13.5909 15.5765L13.591 15.5766L15.3587 17.3443L16.0658 18.0514C16.2611 18.2467 16.5777 18.2467 16.7729 18.0514C16.9682 17.8562 16.9682 17.5396 16.7729 17.3443L14.2981 14.8695L14.2981 14.8694L15.7123 13.4552L15.7123 13.4552L18.1871 15.9301L18.8942 16.6372C19.0895 16.8325 19.4061 16.8325 19.6014 16.6372C19.7966 16.4419 19.7966 16.1254 19.6014 15.9301L11.4697 7.79846ZM6.72837 3.99298L9.74926 0.90285C10.8843 -0.258223 12.7371 -0.3055 13.9299 0.796174L17.3911 3.99299L24 3.99299L24 14.1017L20.6014 14.1017L21.0156 14.5159C21.9919 15.4922 21.9919 17.0751 21.0156 18.0514C20.3872 18.6798 19.5076 18.9037 18.7001 18.7232C18.5792 18.9924 18.4082 19.2446 18.1871 19.4656C17.5588 20.094 16.6792 20.3179 15.8717 20.1375C15.7508 20.4066 15.5798 20.6588 15.3587 20.8798C14.7232 21.5154 13.8306 21.7372 13.0156 21.5453C12.8886 21.8227 12.7082 22.0815 12.4745 22.3059C11.4985 23.2432 9.95361 23.2328 8.99041 22.2824L3.12523e-05 13.4111L0 3.99298L6.72837 3.99298Z" fill="#262626"/>
</svg>
