<svg width="24" height="24" viewBox="0 0 24 24" fill="none" xmlns="http://www.w3.org/2000/svg">
<path fill-rule="evenodd" clip-rule="evenodd" d="M3.70718 23L22.7072 3.45479L21.293 2L17.3221 6.08485C15.6134 5.22128 13.8161 4.78479 11.9402 4.78479C7.61617 4.78479 3.79733 7.09346 0.487718 11.4194L0.000976562 12.0556L0.487718 12.6918C2.18803 14.9142 4.02322 16.6078 6.00293 17.7288L2.29297 21.5452L3.70718 23ZM7.4863 16.2028C5.79092 15.3559 4.1466 13.9879 2.5629 12.0555C5.47787 8.49788 8.6025 6.84218 11.9402 6.84218C12.0058 6.84218 12.0713 6.84281 12.1367 6.84409C10.9031 6.87858 9.67945 7.38011 8.7379 8.34867C6.90127 10.238 6.79217 13.2315 8.41062 15.252L7.4863 16.2028ZM9.83604 13.7857C8.99224 12.5797 9.0976 10.8882 10.1521 9.80346C11.2066 8.71868 12.8509 8.6103 14.0233 9.47832L9.83604 13.7857ZM15.4487 8.01199L15.8117 7.63856C14.9126 7.25466 13.9925 7.01057 13.0492 6.90409C13.9089 7.04224 14.7403 7.41154 15.4487 8.01199ZM21.7071 9.62696L13.7071 17.8565C13.3166 18.2583 12.6834 18.2583 12.2929 17.8565C11.9024 17.4548 11.9024 16.8035 12.2929 16.4017L20.2929 8.17217C20.6834 7.77044 21.3166 7.77044 21.7071 8.17217C22.0976 8.5739 22.0976 9.22523 21.7071 9.62696ZM23.7071 12.713C24.0976 12.3113 24.0976 11.66 23.7071 11.2583C23.3166 10.8565 22.6834 10.8565 22.2929 11.2583L18.2929 15.373C17.9024 15.7748 17.9024 16.4261 18.2929 16.8278C18.6834 17.2296 19.3166 17.2296 19.7071 16.8278L23.7071 12.713Z" fill="#262626"/>
</svg>
