<svg width="24" height="24" viewBox="0 0 24 24" fill="none" xmlns="http://www.w3.org/2000/svg">
<path fill-rule="evenodd" clip-rule="evenodd" d="M21.4196 12C18.3872 8.51665 15.2473 7 12 7C8.75272 7 5.6128 8.51665 2.58044 12C5.6128 15.4833 8.75272 17 12 17C15.2473 17 18.3872 15.4833 21.4196 12ZM12 17C14.7614 17 17 14.7614 17 12C17 9.23858 14.7614 7 12 7C9.23858 7 7 9.23858 7 12C7 14.7614 9.23858 17 12 17ZM24 12C20.4183 7.33333 16.4183 5 12 5C7.58172 5 3.58172 7.33333 0 12C3.58172 16.6667 7.58172 19 12 19C16.4183 19 20.4183 16.6667 24 12ZM12 15C13.6569 15 15 13.6569 15 12C15 10.3431 13.6569 9 12 9C10.3431 9 9 10.3431 9 12C9 13.6569 10.3431 15 12 15ZM12 13C12.5523 13 13 12.5523 13 12C13 11.4477 12.5523 11 12 11C11.4477 11 11 11.4477 11 12C11 12.5523 11.4477 13 12 13Z" fill="#262626"/>
</svg>
