<svg width="24" height="24" viewBox="0 0 24 24" fill="none" xmlns="http://www.w3.org/2000/svg">
<path fill-rule="evenodd" clip-rule="evenodd" d="M22.7072 3.45479L3.70718 23L2.29297 21.5452L6.12816 17.6C3.9683 16.3964 1.92575 14.5364 0.000488281 12.0199C3.69075 7.1965 7.81196 4.78479 12.3641 4.78479C14.1451 4.78479 15.8602 5.15395 17.5093 5.89229L21.293 2L22.7072 3.45479ZM9.47208 8.56642C7.85224 10.2327 7.68157 12.8253 8.96007 14.6868L10.3616 13.245C10.0795 12.7792 9.94076 12.2476 9.94543 11.7172C9.95176 10.9981 10.2216 10.281 10.7549 9.73241C11.2883 9.18377 11.9853 8.9062 12.6843 8.89968C13.2 8.89488 13.7167 9.0376 14.1695 9.32785L15.4217 8.03971C13.6122 6.72453 11.0919 6.90009 9.47208 8.56642ZM21.7071 9.62696C22.0976 9.22523 22.0976 8.5739 21.7071 8.17217C21.3166 7.77044 20.6834 7.77044 20.2929 8.17217L12.2929 16.4017C11.9024 16.8035 11.9024 17.4548 12.2929 17.8565C12.6834 18.2583 13.3166 18.2583 13.7071 17.8565L21.7071 9.62696ZM23.7071 11.2583C24.0976 11.66 24.0976 12.3113 23.7071 12.713L19.7071 16.8278C19.3166 17.2296 18.6834 17.2296 18.2929 16.8278C17.9024 16.4261 17.9024 15.7748 18.2929 15.373L22.2929 11.2583C22.6834 10.8565 23.3166 10.8565 23.7071 11.2583Z" fill="#262626"/>
</svg>
