<svg width="24" height="24" viewBox="0 0 24 24" fill="none" xmlns="http://www.w3.org/2000/svg">
<path fill-rule="evenodd" clip-rule="evenodd" d="M17.2759 0.794191C16.307 -0.244097 14.667 -0.26221 13.6754 0.754417L9.74143 4.78747C9.649 3.25296 8.37333 2 6.77509 2C5.8588 2 5.06149 2.62698 4.84543 3.51743L4.0564 6.76929C4.01893 6.9237 4 7.08201 4 7.24089V12H6V7.24089L6.78636 4.00006C7.36372 4.00658 7.80905 4.51343 7.73931 5.08828L7.50726 7.00087C7.46893 7.31686 7.58332 7.63224 7.81533 7.85018L7.85281 7.88538C8.73673 8.71568 9.02192 10.0026 8.57152 11.1286L10.4285 11.8714C11.0294 10.3691 10.8502 8.69616 10.0063 7.37311C10.0317 7.35181 10.0562 7.32906 10.0798 7.30485L15.1071 2.15093C15.3017 1.9514 15.6236 1.95495 15.8137 2.15873C15.9899 2.34745 15.9887 2.64064 15.8111 2.82797L12.8809 5.91858C12.5009 6.31936 12.5178 6.9523 12.9186 7.33229C13.3194 7.71227 13.9523 7.69541 14.3323 7.29462L14.9911 6.59976L15.009 6.61825L19.1448 2.6177C19.352 2.41722 19.6799 2.41381 19.8912 2.60994C20.1205 2.82265 20.123 3.18461 19.8967 3.40048L15.3097 7.77646C14.9226 8.14579 14.8947 8.75443 15.2465 9.15755L16.3105 10.3767C17.0272 11.1979 16.9544 12.4418 16.1467 13.1737L15.3284 13.9153L16.6715 15.3973L17.4897 14.6557C19.1051 13.1918 19.2508 10.7041 17.8174 9.06162L17.3824 8.56324L21.2773 4.84759C22.3374 3.83619 22.3257 2.1404 21.2516 1.14381C20.2612 0.224952 18.7253 0.24092 17.7543 1.18017L17.6377 1.29292C17.5403 1.11595 17.4197 0.948242 17.2759 0.794191ZM2 17.6C2 16.195 3.18687 15 4.72128 15C5.75299 15 6.65937 15.5443 7.11914 16.3132L7.41022 16.8H12.1638C12.6707 16.8 13.0245 17.1891 13.0245 17.6C13.0245 18.0109 12.6707 18.4 12.1638 18.4H8.44257V20.4H12.1638C13.254 20.4 14.2271 19.794 14.7076 18.8848L21.2144 17.6647C21.4524 17.6201 21.6958 17.7091 21.8489 17.8968C22.1318 18.2435 21.996 18.7652 21.58 18.93L13.9948 21.9361C13.8883 21.9783 13.7747 22 13.6601 22H2V17.6ZM20.8458 15.699L14.9105 16.8119C14.5597 15.6334 13.4423 14.8 12.1638 14.8H8.49893C7.62226 13.6954 6.23291 13 4.72128 13C2.14528 13 0 15.0285 0 17.6V24H13.6601C14.027 24 14.3906 23.9306 14.7317 23.7954L22.3169 20.7893C23.9904 20.1261 24.5366 18.0274 23.3987 16.6325C22.7827 15.8775 21.8035 15.5194 20.8458 15.699Z" fill="#262626"/>
</svg>
