<svg width="25" height="24" viewBox="0 0 25 24" fill="none" xmlns="http://www.w3.org/2000/svg">
<path fill-rule="evenodd" clip-rule="evenodd" d="M20.4694 2.11485C19.7016 0.965332 18.1473 0.655884 16.9978 1.42369L16.9912 1.42811L13.8801 3.57855C13.9013 2.85388 13.6057 2.12696 13.0128 1.62033C11.9723 0.731285 10.4081 0.854025 9.5191 1.8945L3.5348 9.00003H0V20H3.83773L8.62413 21.5955C9.42793 21.8634 10.2697 22 11.117 22H16.5C17.8807 22 19 20.8807 19 19.5C19 19.2366 18.9593 18.9828 18.8838 18.7444C19.3905 19.81 20.6007 20.3971 21.7826 20.0804C23.1139 19.7237 23.9039 18.3553 23.5472 17.024L22.0089 11.2829C21.8236 10.5914 21.2707 10.0593 20.5726 9.90056L20.547 9.89474L20.3156 9.85476L22.2089 9.23382C23.504 8.86959 24.2688 7.53033 23.9196 6.22712C23.5553 4.86735 22.127 4.08764 20.7853 4.5217L20.7726 4.52581L20.6548 4.56744C21.0137 3.7998 20.9734 2.86938 20.4694 2.11485ZM3 18V11H2V18H3ZM5 18.2793L9.25658 19.6981C9.85646 19.8981 10.4846 20 11.117 20H16.5C16.7761 20 17 19.7762 17 19.5C17 19.2239 16.7761 19 16.5 19H14.0323C13.0208 19 12.0963 18.4286 11.6439 17.524C11.1299 16.496 11.3314 15.2544 12.1441 14.4417L13.6253 12.9605C13.9202 12.6657 14.32 12.5 14.737 12.5L17.9568 12.5C18.7316 12.5 19.4088 13.0229 19.6049 13.7725L20.6573 17.7953C20.7268 18.0612 20.9995 18.2197 21.2649 18.1486C21.5293 18.0777 21.6862 17.806 21.6153 17.5417L20.089 11.8452L16.0172 11.1417C15.5647 11.0635 15.2236 10.6871 15.1902 10.2291C15.1567 9.77112 15.4395 9.3492 15.8759 9.20608L21.6347 7.31732L21.6613 7.31019C21.9076 7.24419 22.0537 6.99104 21.9878 6.74476C21.9199 6.49152 21.6578 6.34719 21.4102 6.42172L15.0701 8.66166C14.5938 8.82994 14.0668 8.61657 13.8417 8.16432C13.6166 7.71206 13.7642 7.16298 14.1856 6.88448L18.6813 3.91373C18.9012 3.75598 18.9572 3.45162 18.8063 3.22571C18.6531 2.99634 18.3441 2.93341 18.1136 3.08358L10.4436 8.38514C10.0302 8.67088 9.46898 8.60545 9.13242 8.23228C8.79585 7.85911 8.7885 7.29413 9.11524 6.91232L11.7765 3.80266C11.9372 3.6016 11.9099 3.30862 11.7136 3.14085C11.5135 2.96992 11.2131 2.99288 11.0413 3.19178L5 10.365V18.2793ZM18.7224 18.3015C18.7335 18.3439 18.7456 18.3858 18.7587 18.4272C18.3572 17.5833 17.4967 17 16.5 17H14.0323C13.7784 17 13.5463 16.8566 13.4328 16.6295C13.3038 16.3715 13.3544 16.0599 13.5583 15.8559L14.9142 14.5L17.7279 14.5L18.7224 18.3015Z" fill="#262626"/>
</svg>
