<svg width="24" height="24" viewBox="0 0 24 24" fill="none" xmlns="http://www.w3.org/2000/svg">
<path fill-rule="evenodd" clip-rule="evenodd" d="M9 4.5C9 5.88071 7.88071 7 6.5 7C5.11929 7 4 5.88071 4 4.5C4 3.11929 5.11929 2 6.5 2C7.88071 2 9 3.11929 9 4.5ZM11 4.5C11 6.98528 8.98528 9 6.5 9C4.01472 9 2 6.98528 2 4.5C2 2.01472 4.01472 0 6.5 0C8.98528 0 11 2.01472 11 4.5ZM21 12.5C21 13.3284 20.3284 14 19.5 14C18.6716 14 18 13.3284 18 12.5C18 11.6716 18.6716 11 19.5 11C20.3284 11 21 11.6716 21 12.5ZM23 12.5C23 14.433 21.433 16 19.5 16C17.567 16 16 14.433 16 12.5C16 10.567 17.567 9 19.5 9C21.433 9 23 10.567 23 12.5ZM0 16.5C0 12.9101 2.91015 10 6.5 10C10.0899 10 13 12.9101 13 16.5V24H11V16.5C11 14.0147 8.98528 12 6.5 12C4.01472 12 2 14.0147 2 16.5V24H0V16.5ZM19.5 17C17.0147 17 15 19.0147 15 21.5V24H17V21.5C17 20.1193 18.1193 19 19.5 19C20.8807 19 22 20.1193 22 21.5V24H24V21.5C24 19.0147 21.9853 17 19.5 17Z" fill="#262626"/>
</svg>
