<svg width="24" height="25" viewBox="0 0 24 25" fill="none" xmlns="http://www.w3.org/2000/svg">
<path fill-rule="evenodd" clip-rule="evenodd" d="M12 0.941994C10.5958 -0.341525 8.40996 -0.306561 7.04832 1.04689C5.68743 2.39958 5.65153 4.57057 6.94063 5.96643L6.93828 5.96876L12 11L17.0617 5.96876L17.0594 5.96643C18.3485 4.57057 18.3126 2.39958 16.9517 1.04689C15.59 -0.306561 13.4042 -0.341525 12 0.941994ZM9.00037 14H14C15.1046 14 16 14.8954 16 16C16 17.1046 15.1046 18 14 18H10V20.0248H14.0176C16.2041 20.0248 17.9767 18.2523 17.9767 16.0658C17.9767 15.2329 17.7195 14.46 17.2801 13.8224L20.3751 11.4624C21.2323 10.8087 22.4321 10.8527 23.2391 11.5674C24.1872 12.407 24.2588 13.8623 23.3977 14.7909L15.4375 23.375L15.4372 23.3701C15.0724 23.7585 14.5541 24.001 13.9792 24.001H0V21.0453C0 21.0302 0.00016825 21.0151 0.000502983 21H0V17C0 14.2386 2.23858 12 5 12C6.63582 12 8.08816 12.7856 9.00037 14Z" fill="#262626"/>
</svg>
