<svg width="24" height="24" viewBox="0 0 24 24" fill="none" xmlns="http://www.w3.org/2000/svg">
<path fill-rule="evenodd" clip-rule="evenodd" d="M3 2C2.44772 2 2 2.44772 2 3V9C2 11.2091 3.79086 13 6 13C8.20914 13 10 11.2091 10 9V3C10 2.44772 9.55228 2 9 2H7V0H9C10.6569 0 12 1.34315 12 3V9C12 11.973 9.83771 14.441 7 14.917V21C7 21.5523 7.44772 22 8 22C8.55228 22 9 21.5523 9 21V19.5C9 17.0147 11.0147 15 13.5 15H16.126C16.5701 13.2748 18.1362 12 20 12C22.2091 12 24 13.7909 24 16C24 18.2091 22.2091 20 20 20C18.1362 20 16.5701 18.7252 16.126 17H13.5C12.1193 17 11 18.1193 11 19.5V21C11 22.6569 9.65685 24 8 24C6.34315 24 5 22.6569 5 21V14.917C2.16229 14.441 0 11.973 0 9V3C0 1.34315 1.34315 0 3 0H5V2H3ZM20 18C21.1046 18 22 17.1046 22 16C22 14.8954 21.1046 14 20 14C18.8954 14 18 14.8954 18 16C18 17.1046 18.8954 18 20 18Z" fill="#262626"/>
</svg>
