<svg width="24" height="24" viewBox="0 0 24 24" fill="none" xmlns="http://www.w3.org/2000/svg">
<path fill-rule="evenodd" clip-rule="evenodd" d="M15 2H13V4.04938C18.0533 4.5511 22 8.81465 22 14C22 19.5228 17.5228 24 12 24C6.47715 24 2 19.5228 2 14C2 8.81465 5.94668 4.5511 11 4.04938V2H9V0H15V2ZM20 14C20 18.4183 16.4183 22 12 22C7.58172 22 4 18.4183 4 14C4 9.58172 7.58172 6 12 6C16.4183 6 20 9.58172 20 14ZM19 4L22 7L23.4142 5.58579L20.4142 2.58579L19 4ZM9 10H11V18H9L9 10ZM15 10H13V18H15V10Z" fill="#262626"/>
</svg>
