<svg width="24" height="24" viewBox="0 0 24 24" fill="none" xmlns="http://www.w3.org/2000/svg">
<path fill-rule="evenodd" clip-rule="evenodd" d="M13.8081 0.399316L5.08803 15.9235C4.81982 16.4147 5.19684 17 5.78139 17H23.2186C23.8109 17 24.1873 16.4005 23.9036 15.9088L15.1865 0.38453C14.8869 -0.134823 14.0952 -0.12633 13.8081 0.399316ZM13.5 5.99999H15.5V9.99999H13.5V5.99999ZM14.5 15C15.3284 15 16 14.3284 16 13.5C16 12.6716 15.3284 12 14.5 12C13.6716 12 13 12.6716 13 13.5C13 14.3284 13.6716 15 14.5 15ZM23 22C23 23.1046 22.1419 24 21.0833 24H1.91667C0.858121 24 0 23.1046 0 22H23ZM3 5.99999H8.97997L3.10657 16.6703C2.78189 17.2769 3.23828 18 3.94589 18H20H22V19C22 20.1046 21.1046 21 20 21H3C1.89543 21 1 20.1046 1 19V7.99999C1 6.89542 1.89543 5.99999 3 5.99999Z" fill="#262626"/>
</svg>
