<svg width="24" height="24" viewBox="0 0 24 24" fill="none" xmlns="http://www.w3.org/2000/svg">
<path fill-rule="evenodd" clip-rule="evenodd" d="M3.79289 3.79289C4.30057 3.28522 4.98913 3 5.70711 3H18.2929C19.0108 3 19.6995 3.28519 20.2072 3.79294C20.7147 4.30056 21 4.98908 21 5.70711V18.2929C21 19.0108 20.7147 19.6995 20.2071 20.2071C19.6995 20.7147 19.0108 21 18.2929 21H5.70711C4.98908 21 4.30056 20.7147 3.79294 20.2072C3.28519 19.6995 3 19.0108 3 18.2929V5.70711C3 4.98913 3.28522 4.30057 3.79289 3.79289ZM5.70711 5C5.51957 5 5.33971 5.0745 5.20711 5.20711C5.0745 5.33971 5 5.51957 5 5.70711V8.08861H19V5.70711C19 5.51962 18.9255 5.33972 18.7928 5.20706C18.6603 5.07453 18.4804 5 18.2929 5H5.70711ZM19 10.0886H16V19H18.2929C18.4804 19 18.6603 18.9255 18.7929 18.7929C18.9255 18.6603 19 18.4804 19 18.2929V10.0886ZM14 19V10.0886H10V19H14ZM8 19V10.0886H5V18.2929C5 18.4804 5.07453 18.6603 5.20706 18.7928C5.33972 18.9255 5.51962 19 5.70711 19H8Z" fill="#262626"/>
</svg>
