<svg width="24" height="24" viewBox="0 0 24 24" fill="none" xmlns="http://www.w3.org/2000/svg">
<path fill-rule="evenodd" clip-rule="evenodd" d="M12 2C10.8954 2 10 2.89543 10 4H8C8 1.79086 9.79086 0 12 0C14.2091 0 16 1.79086 16 4H14C14 2.89543 13.1046 2 12 2ZM12 22C10.8954 22 10 21.1046 10 20H8C8 22.2091 9.79086 24 12 24C14.2091 24 16 22.2091 16 20H14C14 21.1046 13.1046 22 12 22ZM5 16V8H19V16H5ZM3 7C3 6.44771 3.44772 6 4 6H20C20.5523 6 21 6.44772 21 7V17C21 17.5523 20.5523 18 20 18H4C3.44772 18 3 17.5523 3 17V7Z" fill="#262626"/>
</svg>
