<svg width="24" height="24" viewBox="0 0 24 24" fill="none" xmlns="http://www.w3.org/2000/svg">
<path fill-rule="evenodd" clip-rule="evenodd" d="M4 2H20V22H4V2ZM2 2C2 0.89543 2.89543 0 4 0H20C21.1046 0 22 0.895431 22 2V22C22 23.1046 21.1046 24 20 24H4C2.89543 24 2 23.1046 2 22V2ZM4.95682 6.37465L6.54313 5.1566L7.19094 6.00026L9.57244 3.60712L10.9901 5.01788L6.99651 9.03099L4.95682 6.37465ZM17 8H11V6H17V8ZM11 13L17 13V11H11V13ZM17 18L11 18V16L17 16V18ZM9 12C9 12.5523 8.55228 13 8 13C7.44772 13 7 12.5523 7 12C7 11.4477 7.44772 11 8 11C8.55228 11 9 11.4477 9 12ZM8 18C8.55228 18 9 17.5523 9 17C9 16.4477 8.55228 16 8 16C7.44772 16 7 16.4477 7 17C7 17.5523 7.44772 18 8 18Z" fill="#262626"/>
</svg>
