<svg width="24" height="24" viewBox="0 0 24 24" fill="none" xmlns="http://www.w3.org/2000/svg">
<path fill-rule="evenodd" clip-rule="evenodd" d="M6.54315 5.1566L4.95685 6.37465L6.99653 9.03099L10.9901 5.01788L9.57246 3.60712L7.19096 6.00026L6.54315 5.1566ZM11 8H17V6H11V8ZM17 13L11 13V11H17V13ZM11 18L17 18V16L11 16L11 18ZM9.00002 12C9.00002 12.5523 8.55231 13 8.00002 13C7.44774 13 7.00002 12.5523 7.00002 12C7.00002 11.4477 7.44774 11 8.00002 11C8.55231 11 9.00002 11.4477 9.00002 12ZM8.00002 18C8.55231 18 9.00002 17.5523 9.00002 17C9.00002 16.4477 8.55231 16 8.00002 16C7.44774 16 7.00002 16.4477 7.00002 17C7.00002 17.5523 7.44774 18 8.00002 18ZM4 0C2.89543 0 2 0.89543 2 2V22C2 23.1046 2.89543 24 4 24H20C21.1046 24 22 23.1046 22 22V2C22 0.895431 21.1046 0 20 0H4Z" fill="#262626"/>
</svg>
