<svg width="24" height="24" viewBox="0 0 24 24" fill="none" xmlns="http://www.w3.org/2000/svg">
<path fill-rule="evenodd" clip-rule="evenodd" d="M6.36562 5.9328C5.01344 5.6417 4 4.4392 4 3C4 1.34315 5.34315 0 7 0C8.4392 0 9.6417 1.01344 9.9328 2.36562C10.5773 2.1291 11.2735 2 12 2C12.7265 2 13.4228 2.1291 14.0672 2.36562C14.3583 1.01344 15.5608 0 17 0C18.6569 0 20 1.34315 20 3C20 4.4392 18.9866 5.6417 17.6344 5.9328C17.8709 6.57725 18 7.27355 18 8C18 9.55877 17.4056 10.9787 16.4311 12.0455L18.7614 11.4211C19.8283 11.1352 20.925 11.7684 21.2109 12.8353C21.4967 13.9022 20.8636 14.9989 19.7966 15.2848L16.6389 16.1309C16.8718 16.7083 17 17.3392 17 18V19.2774C17.4083 19.099 17.8593 19 18.3333 19H20.5C21.8807 19 23 20.1193 23 21.5C23 22.8807 21.8807 24 20.5 24H16.6667C16.0642 24 15.5364 23.6803 15.2436 23.2014C14.5478 23.7039 13.6931 24 12.7692 24H11.2308C10.3069 24 9.4522 23.7039 8.7564 23.2014C8.46361 23.6803 7.9358 24 7.33333 24H3.5C2.11929 24 1 22.8807 1 21.5C1 20.1193 2.11929 19 3.5 19H5.66667C6.14074 19 6.59169 19.099 7 19.2774V18C7 17.3976 7.10651 16.8202 7.30173 16.2854L3.5675 15.2848C2.50057 14.9989 1.8674 13.9022 2.15329 12.8353C2.43917 11.7684 3.53585 11.1352 4.60278 11.4211L7.79011 12.2751C6.68509 11.1869 6 9.67345 6 8C6 7.27355 6.1291 6.57725 6.36562 5.9328ZM12 10C12.5523 10 13 9.55228 13 9C13 8.44771 12.5523 8 12 8C11.4477 8 11 8.44771 11 9C11 9.55228 11.4477 10 12 10ZM14 18C14 19.6569 13.1046 21 12 21C10.8954 21 10 19.6569 10 18C10 16.3431 10.8954 15 12 15C13.1046 15 14 16.3431 14 18Z" fill="#262626"/>
</svg>
