<svg width="24" height="24" viewBox="0 0 24 24" fill="none" xmlns="http://www.w3.org/2000/svg">
<path fill-rule="evenodd" clip-rule="evenodd" d="M5.09973 2.0008C5.8806 1.21928 7.14722 1.21893 7.92853 2.00001L11.6213 5.69169C12.4023 6.47248 12.4026 7.73852 11.6221 8.51974L10.3132 9.82969L14.5675 14.0833L15.8755 12.7742C16.6564 11.9927 17.923 11.9923 18.7043 12.7734L22 16.0681C22.781 16.8489 22.7813 18.115 22.0008 18.8962L19.8207 21.0781C18.5424 22.3575 16.5745 22.643 14.9854 21.7797C9.58794 18.8475 5.15423 14.4144 2.22072 9.0178C1.35734 7.4295 1.64136 5.46203 2.91931 4.18302L5.09973 2.0008ZM10.2073 7.10611L6.51452 3.41443L4.33411 5.59665C3.68246 6.24883 3.53746 7.25239 3.97789 8.06263C6.72701 13.12 10.8821 17.2745 15.9401 20.0222C16.7505 20.4625 17.754 20.3169 18.4059 19.6645L20.586 17.4826L17.2903 14.1878L14.5682 16.9122L7.48524 9.83039L10.2073 7.10611Z" fill="#262626"/>
</svg>
