<svg width="24" height="24" viewBox="0 0 24 24" fill="none" xmlns="http://www.w3.org/2000/svg">
<path fill-rule="evenodd" clip-rule="evenodd" d="M5.09973 2.00078C5.8806 1.21926 7.14722 1.2189 7.92853 1.99999L11.6213 5.69167C12.4023 6.47246 12.4026 7.73849 11.6221 8.51972L10.3132 9.82967L14.5675 14.0833L15.8755 12.7742C16.6564 11.9927 17.923 11.9923 18.7043 12.7734L22 16.0681C22.781 16.8489 22.7813 18.1149 22.0008 18.8962L19.8207 21.0781C18.5424 22.3574 16.5745 22.6429 14.9854 21.7796C9.58794 18.8475 5.15423 14.4144 2.22072 9.01778C1.35734 7.42948 1.64136 5.46201 2.91931 4.18299L5.09973 2.00078ZM10.2073 7.10609L6.51452 3.4144L4.33411 5.59662C3.68246 6.24881 3.53746 7.25237 3.97789 8.06261C6.72701 13.12 10.8821 17.2744 15.9401 20.0222C16.7505 20.4625 17.754 20.3169 18.4059 19.6645L20.586 17.4825L17.2903 14.1878L14.5682 16.9122L7.48524 9.83036L10.2073 7.10609Z" fill="#262626"/>
</svg>
