<svg width="24" height="24" viewBox="0 0 24 24" fill="none" xmlns="http://www.w3.org/2000/svg">
<path fill-rule="evenodd" clip-rule="evenodd" d="M21.9902 4.93272L12.6592 14.2637C12.3013 14.6217 11.8244 14.8358 11.3191 14.8655L9.03546 14.9999C9.03292 15 9.03088 15 9.02931 15C9.02701 14.9999 9.02567 14.9997 9.02512 14.9996C9.02401 14.9994 9.02318 14.9992 9.02224 14.9988C9.02 14.998 9.01521 14.9955 9.00987 14.9901C9.00453 14.9848 9.00203 14.98 9.00115 14.9778C9.00078 14.9768 9.00055 14.976 9.00037 14.9749C9.00022 14.9739 8.99977 14.9708 9.00014 14.9645L9.13447 12.6809C9.1642 12.1756 9.37833 11.6987 9.73627 11.3408L19.0673 2.00979C19.0731 2.00392 19.0761 2.0028 19.0773 2.0023C19.0799 2.00126 19.0846 2 19.0909 2C19.0972 2 19.1019 2.00126 19.1045 2.0023L19.1046 2.00233C19.1058 2.00284 19.1088 2.00403 19.1145 2.00979L21.9902 4.88547C21.996 4.89122 21.9972 4.89416 21.9977 4.89543L21.9977 4.89551C21.9987 4.89807 22 4.90276 22 4.90909C22 4.91543 21.9987 4.92012 21.9977 4.92268L21.9977 4.92275C21.9972 4.92402 21.996 4.92696 21.9902 4.93272ZM23.4044 3.47125C24.1985 4.26535 24.1985 5.55284 23.4044 6.34694L14.0734 15.6779C13.3691 16.3822 12.4309 16.8036 11.4365 16.8621L9.1529 16.9964C8.92167 17.01 8.69804 16.9846 8.48798 16.9262L4.70712 20.7071L3.29291 19.2929L7.07376 15.512C7.01537 15.302 6.98999 15.0783 7.00359 14.8471L7.13792 12.5635C7.19641 11.5691 7.61776 10.6309 8.32205 9.92659L17.6531 0.595573C18.4472 -0.198524 19.7346 -0.198524 20.5287 0.595573L23.4044 3.47125ZM0.292893 22.2929L2.29289 20.2929L3.70711 21.7071L1.70711 23.7071C1.31658 24.0976 0.683417 24.0976 0.292893 23.7071C-0.0976311 23.3166 -0.0976311 22.6834 0.292893 22.2929ZM18.2929 4.29289L13.2929 9.29289L14.7071 10.7071L19.7071 5.70711L18.2929 4.29289Z" fill="#262626"/>
</svg>
