<svg width="24" height="24" viewBox="0 0 24 24" fill="none" xmlns="http://www.w3.org/2000/svg">
<path fill-rule="evenodd" clip-rule="evenodd" d="M23.4044 3.47125C24.1985 4.26535 24.1985 5.55284 23.4044 6.34694L14.0734 15.6779C13.3691 16.3822 12.4309 16.8036 11.4365 16.8621L9.1529 16.9964C8.92167 17.01 8.69804 16.9846 8.48798 16.9262L4.70712 20.7071L3.29291 19.2929L7.07376 15.512C7.01537 15.302 6.98999 15.0783 7.00359 14.8471L7.13792 12.5635C7.19641 11.5691 7.61776 10.6309 8.32205 9.92659L17.6531 0.595573C18.4472 -0.198524 19.7346 -0.198524 20.5287 0.595573L23.4044 3.47125ZM13.2929 9.29289L18.2929 4.29289L19.7071 5.70711L14.7071 10.7071L13.2929 9.29289ZM0.292893 22.2929L2.29289 20.2929L3.70711 21.7071L1.70711 23.7071C1.31658 24.0976 0.683417 24.0976 0.292893 23.7071C-0.0976311 23.3166 -0.0976311 22.6834 0.292893 22.2929Z" fill="#262626"/>
</svg>
