<svg width="24" height="24" viewBox="0 0 24 24" fill="none" xmlns="http://www.w3.org/2000/svg">
<path fill-rule="evenodd" clip-rule="evenodd" d="M2.10495 5.11444C1.56277 2.47361 3.58012 0 6.27603 0H7.28948C9.05253 0 10.6824 0.570312 12.0046 1.53652C13.3268 0.570312 14.9566 0 16.7197 0H17.7331C20.429 0 22.4464 2.47361 21.9042 5.11444L21.1778 8.65251C20.733 10.8194 19.5473 12.6765 17.9178 13.9816L17.3452 18.5455L16.4615 22.9475C16.3386 23.5596 15.801 24 15.1767 24C14.5333 24 13.9851 23.533 13.8829 22.8978L12.9398 17.0385C12.8317 15.8175 12.394 14.1818 11.8703 14.1818C11.3229 14.1818 10.8694 15.9696 10.7883 17.1177L9.8579 22.8978C9.75566 23.533 9.20745 24 8.56409 24C7.93977 24 7.40214 23.5596 7.27927 22.9475L6.39559 18.5455L5.79152 13.7308C4.31679 12.4435 3.24845 10.6842 2.83134 8.65252L2.10495 5.11444Z" fill="#262626"/>
</svg>
