<svg width="24" height="24" viewBox="0 0 24 24" fill="none" xmlns="http://www.w3.org/2000/svg">
<path fill-rule="evenodd" clip-rule="evenodd" d="M2.10082 5.88388C1.47922 2.84492 3.80112 0 6.90301 0H7.76038C9.35762 0 10.8522 0.448692 12.1226 1.22672C13.3929 0.448692 14.8875 0 16.4847 0H17.3421C20.444 0 22.7659 2.84492 22.1443 5.88388L21.4753 9.15424C21.0518 11.2249 19.9654 13.0198 18.466 14.3347L17.9878 18.1603L17.1729 22.2347C16.9676 23.2611 16.0663 24 15.0195 24C13.9409 24 13.022 23.2167 12.8512 22.1517L12 16.8439L11.1488 22.1517C10.978 23.2167 10.0591 24 8.98052 24C7.93372 24 7.03244 23.2611 6.82715 22.2347L6.01227 18.1603L5.50251 14.0822C4.14627 12.794 3.16677 11.0952 2.76976 9.15424L2.10082 5.88388ZM6.90301 2C5.06678 2 3.69228 3.68411 4.06025 5.48309L4.72919 8.75345C5.06353 10.388 5.92127 11.8028 7.10709 12.8391L7.39404 13.0899L7.98776 17.8397L8.78831 21.8424C8.80663 21.934 8.88708 22 8.98052 22C9.07679 22 9.15882 21.9301 9.17406 21.835L10.0177 16.5741C10.0636 15.9815 10.1979 15.2507 10.395 14.6424C10.4944 14.3357 10.6274 14.004 10.8062 13.7282C10.9383 13.5245 11.3189 13 12 13C12.6568 13 13.0327 13.489 13.1704 13.6938C13.3488 13.9592 13.4806 14.2779 13.5791 14.5726C13.7763 15.1625 13.9125 15.8791 13.9695 16.4943L14.826 21.835C14.8412 21.9301 14.9232 22 15.0195 22C15.113 22 15.1934 21.934 15.2117 21.8424L16.0123 17.8397L16.5804 13.2948L16.8968 13.0411C18.2073 11.9903 19.1594 10.4966 19.5159 8.75345L20.1849 5.48309C20.5528 3.68411 19.1783 2 17.3421 2H16.4847C15.0726 2 13.7705 2.4589 12.7157 3.23601L12.1226 3.67295L11.5294 3.23601C10.4746 2.4589 9.17252 2 7.76038 2H6.90301Z" fill="#262626"/>
</svg>
