<svg width="24" height="24" viewBox="0 0 24 24" fill="none" xmlns="http://www.w3.org/2000/svg">
<path fill-rule="evenodd" clip-rule="evenodd" d="M5 6C5 5.44772 5.44772 5 6 5C6.55228 5 7 5.44772 7 6V11H17V6C17 5.44772 17.4477 5 18 5C18.5523 5 19 5.44772 19 6V11V13V18C19 18.5523 18.5523 19 18 19C17.4477 19 17 18.5523 17 18V13H7V18C7 18.5523 6.55228 19 6 19C5.44772 19 5 18.5523 5 18V6ZM0 11H2V8C2 7.44772 2.44772 7 3 7C3.55228 7 4 7.44772 4 8V16C4 16.5523 3.55228 17 3 17C2.44772 17 2 16.5523 2 16V13H0V11ZM22 11H24V13H22V16C22 16.5523 21.5523 17 21 17C20.4477 17 20 16.5523 20 16V8C20 7.44772 20.4477 7 21 7C21.5523 7 22 7.44772 22 8V11Z" fill="#262626"/>
</svg>
