<svg width="24" height="24" viewBox="0 0 24 24" fill="none" xmlns="http://www.w3.org/2000/svg">
<path fill-rule="evenodd" clip-rule="evenodd" d="M4 6.5C4 5.67157 4.67157 5 5.5 5C6.32843 5 7 5.67157 7 6.5V11H17V6.5C17 5.67157 17.6716 5 18.5 5C19.3284 5 20 5.67157 20 6.5V7.08535C20.1564 7.03008 20.3247 7 20.5 7C21.3284 7 22 7.67157 22 8.5V11H24V13H22V15.5C22 16.3284 21.3284 17 20.5 17C20.3247 17 20.1564 16.9699 20 16.9146V17.5C20 18.3284 19.3284 19 18.5 19C17.6716 19 17 18.3284 17 17.5V13H7V17.5C7 18.3284 6.32843 19 5.5 19C4.67157 19 4 18.3284 4 17.5V16.9146C3.84361 16.9699 3.67532 17 3.5 17C2.67157 17 2 16.3284 2 15.5V13H0V11H2V8.5C2 7.67157 2.67157 7 3.5 7C3.67532 7 3.84361 7.03008 4 7.08535V6.5Z" fill="#262626"/>
</svg>
