<svg width="24" height="24" viewBox="0 0 24 24" fill="none" xmlns="http://www.w3.org/2000/svg">
<path d="M11.5 19.5L15.5 10.5L19.5 19.5" stroke="#262626" stroke-width="1.5" stroke-linecap="round" stroke-linejoin="round"/>
<path d="M13 17H18" stroke="#262626" stroke-width="1.5" stroke-linecap="round" stroke-linejoin="round"/>
<mask id="mask0_6814_1365" style="mask-type:alpha" maskUnits="userSpaceOnUse" x="2" y="4" width="15" height="17">
<path d="M9.90083 18.7893L13.9008 9.78926C14.1817 9.15728 14.8084 8.75 15.5 8.75C16.1193 8.75 16.6865 9.07657 17.0001 9.59861V4H2.00005V21H10.5983C9.85068 20.5519 9.53784 19.606 9.90083 18.7893Z" fill="black"/>
</mask>
<g mask="url(#mask0_6814_1365)">
<path d="M4 7.5H16" stroke="#262626" stroke-width="1.5" stroke-linecap="round" stroke-linejoin="round"/>
<path d="M10 7.5V5.5" stroke="#262626" stroke-width="1.5" stroke-linecap="round" stroke-linejoin="round"/>
<path d="M13.5 7.5L13.4116 7.78744C12.2005 11.7232 9.30115 14.9162 5.5 16.5" stroke="#262626" stroke-width="1.5" stroke-linecap="round" stroke-linejoin="round"/>
<path d="M6.5 7.5L6.58844 7.78744C7.79946 11.7232 10.6989 14.9162 14.5 16.5" stroke="#262626" stroke-width="1.5" stroke-linecap="round" stroke-linejoin="round"/>
</g>
</svg>
