<svg width="24" height="24" viewBox="0 0 24 24" fill="none" xmlns="http://www.w3.org/2000/svg">
<path fill-rule="evenodd" clip-rule="evenodd" d="M14 5H2V16H3.76389C4.31321 15.3863 5.1115 15 6 15C6.8885 15 7.68679 15.3863 8.23611 16H14V6V5ZM1 18H3C3 19.6569 4.34315 21 6 21C7.65685 21 9 19.6569 9 18H14H16C16 19.6569 17.3431 21 19 21C20.6569 21 22 19.6569 22 18H23C23.5523 18 24 17.5523 24 17V12.1704C24 11.4546 23.8079 10.7518 23.4437 10.1355L21.5806 6.98254C21.2208 6.3736 20.5661 6 19.8587 6H16V4C16 3.44772 15.5523 3 15 3H1C0.447715 3 0 3.44772 0 4V17C0 17.5523 0.447715 18 1 18ZM20 18C20 17.4477 19.5523 17 19 17C18.4477 17 18 17.4477 18 18C18 18.5523 18.4477 19 19 19C19.5523 19 20 18.5523 20 18ZM21.2361 16H22V12.1704C22 11.8125 21.9039 11.4611 21.7219 11.153L19.8587 8H16V16H16.7639C17.3132 15.3863 18.1115 15 19 15C19.8885 15 20.6868 15.3863 21.2361 16ZM6 17C6.55228 17 7 17.4477 7 18C7 18.5523 6.55228 19 6 19C5.44772 19 5 18.5523 5 18C5 17.4477 5.44772 17 6 17Z" fill="#262626"/>
</svg>
