<svg width="24" height="24" viewBox="0 0 24 24" fill="none" xmlns="http://www.w3.org/2000/svg">
<path fill-rule="evenodd" clip-rule="evenodd" d="M0 4C0 3.44772 0.447715 3 1 3H13C13.5523 3 14 3.44772 14 4V5V6V18H10.9725C10.7238 15.75 8.81628 14 6.5 14C4.18372 14 2.27619 15.75 2.02746 18H1C0.447716 18 0 17.5523 0 17V4ZM16 14.7578V6H19.8587C20.5661 6 21.2208 6.3736 21.5806 6.98254L23.4437 10.1355C23.8079 10.7518 24 11.4546 24 12.1704V17C24 17.5523 23.5523 18 23 18H22.9725C22.7238 15.75 20.8163 14 18.5 14C17.5749 14 16.715 14.2791 16 14.7578ZM9 18.5C9 19.8807 7.88071 21 6.5 21C5.11929 21 4 19.8807 4 18.5C4 17.1193 5.11929 16 6.5 16C7.88071 16 9 17.1193 9 18.5ZM21 18.5C21 19.8807 19.8807 21 18.5 21C17.1193 21 16 19.8807 16 18.5C16 17.1193 17.1193 16 18.5 16C19.8807 16 21 17.1193 21 18.5Z" fill="#262626"/>
</svg>
