<svg width="25" height="24" viewBox="0 0 25 24" fill="none" xmlns="http://www.w3.org/2000/svg">
<path fill-rule="evenodd" clip-rule="evenodd" d="M0 11.0565H1.66722C2.62147 10.3892 3.76915 10 5.00389 10C6.23862 10 7.3863 10.3892 8.34055 11.0565H8.66722C9.62147 10.3892 10.7691 10 12.0039 10C13.2386 10 14.3863 10.3892 15.3406 11.0565H15.6672C16.6215 10.3892 17.7691 10 19.0039 10C20.2386 10 21.3863 10.3892 22.3406 11.0565H24.0155C23.2712 4.8233 18.1789 0 12.0078 0C5.83664 0 0.744384 4.8233 0 11.0565ZM11 12V21C11 22.6569 12.3431 24 14 24C15.6569 24 17 22.6569 17 21V20.5556H15V21C15 21.5523 14.5523 22 14 22C13.4477 22 13 21.5523 13 21V12H11Z" fill="#262626"/>
</svg>
