<svg width="24" height="24" viewBox="0 0 24 24" fill="none" xmlns="http://www.w3.org/2000/svg">
<path fill-rule="evenodd" clip-rule="evenodd" d="M10.3367 0L10.8973 1.96568C16.919 0.516592 22.3647 1.88447 23.3078 5.19679L24 7.62766L19.1735 9.02142L17.9314 8.32805L17.2429 9.57892L13.3815 10.6934L15.4946 19.0089C19.7309 19.1619 23.188 21.2679 23.8756 24H21.752H8.24802H6.12444C6.75269 21.5035 9.69349 19.5297 13.4282 19.0912L11.4509 11.2509L7.58984 12.3664L6.34774 11.6731L5.65923 12.924L0.832713 14.3177L0.140563 11.8868C-0.802614 8.57435 3.09633 4.50786 8.96605 2.52333L8.40613 0.557505L10.3367 0Z" fill="#262626"/>
</svg>
