<svg width="24" height="24" viewBox="0 0 24 24" fill="none" xmlns="http://www.w3.org/2000/svg">
<path fill-rule="evenodd" clip-rule="evenodd" d="M12 0C12.3788 0 12.725 0.214002 12.8944 0.552786L23.8944 22.5528C24.0494 22.8628 24.0329 23.2309 23.8507 23.5257C23.6684 23.8205 23.3466 24 23 24H1C0.653423 24 0.331557 23.8205 0.14935 23.5257C-0.0328564 23.2309 -0.0494204 22.8628 0.105574 22.5528L11.1056 0.552786C11.275 0.214002 11.6212 0 12 0ZM21.382 22L12 3.23607L2.61804 22H21.382ZM11 15V8H13V15H11ZM12 20C12.8284 20 13.5 19.3284 13.5 18.5C13.5 17.6716 12.8284 17 12 17C11.1716 17 10.5 17.6716 10.5 18.5C10.5 19.3284 11.1716 20 12 20Z" fill="#262626"/>
</svg>
