<svg width="24" height="24" viewBox="0 0 24 24" fill="none" xmlns="http://www.w3.org/2000/svg">
<path fill-rule="evenodd" clip-rule="evenodd" d="M18 0C17.4477 0 17 0.447716 17 1V18H14.0001H13V20H13.3334L12.4388 22.6838C12.223 23.3313 12.7049 24 13.3875 24H22.6126C23.2952 24 23.7772 23.3313 23.5613 22.6838L22.6667 20H23V18H22.0001H19V1C19 0.447715 18.5523 0 18 0ZM20.5585 20H15.4416L14.7749 22H21.2252L20.5585 20ZM1.10002 14C1.12796 14.1376 1.16155 14.2732 1.20054 14.4065L1.92359 23.083C1.96678 23.6013 2.40004 24 2.92013 24H9.07987C9.59996 24 10.0332 23.6013 10.0764 23.083L10.7995 14.4065C10.8385 14.2732 10.872 14.1376 10.9 14H12V12H11H1H0V14H1.10002ZM3.44868 17.301L3.84027 22H8.15973L8.55132 17.301C7.80441 17.745 6.93198 18 6 18C5.06802 18 4.19559 17.745 3.44868 17.301ZM8.82551 14.0106C8.41069 15.1703 7.30224 16 6 16C4.69775 16 3.58931 15.1703 3.17448 14.0106L3.1736 14H8.8264L8.82551 14.0106Z" fill="#262626"/>
</svg>
