<svg width="24" height="24" viewBox="0 0 24 24" fill="none" xmlns="http://www.w3.org/2000/svg">
<path fill-rule="evenodd" clip-rule="evenodd" d="M17.5 3C15.4049 3 13.7127 4.29773 13.1774 6H18C19.5286 6 20.9237 6.57164 21.9832 7.5128C21.9943 7.39367 22 7.27315 22 7.15143C22 4.91932 20.048 3 17.5 3ZM17.5 1C14.0464 1 11.1243 3.58224 11.0039 6.93607C10.8099 7.24421 10.6977 7.609 10.6977 8V11.0465L7.81573 9.791L4.80976 6.38165C4.37227 5.82567 3.5116 5.88736 3.15786 6.50004L0.134897 11.736C-0.218836 12.3487 0.158084 13.1249 0.858318 13.2258L4.72774 13.8712L10.6977 18.1074V21C10.6977 22.1046 11.5931 23 12.6977 23H22C23.1046 23 24 22.1046 24 21V12C24 11.131 23.8153 10.3052 23.483 9.55967C23.815 8.82127 24 8.00712 24 7.15143C24 3.69343 21.0272 1 17.5 1ZM5.35788 10.0275L4.27048 11.7673L2.58823 11.4867L4.19329 8.70662L5.35788 10.0275ZM6.38032 12.5915L12.6977 17.0742V21H22V12C22 9.79086 20.2092 8 18 8H12.6977V14.0994L6.99156 11.6135L6.38032 12.5915Z" fill="#262626"/>
</svg>
