<svg width="24" height="24" viewBox="0 0 24 24" fill="none" xmlns="http://www.w3.org/2000/svg">
<path fill-rule="evenodd" clip-rule="evenodd" d="M0.456868 7.82899C-0.00681411 7.52876 -0.139481 6.90925 0.160549 6.44526C5.71753 -2.14842 18.2827 -2.14842 23.8397 6.44526C24.1397 6.90925 24.0071 7.52876 23.5434 7.82899C23.0797 8.12921 22.4606 7.99646 22.1605 7.53248C17.3917 0.157588 6.60855 0.157588 1.83969 7.53248C1.53966 7.99646 0.920549 8.12922 0.456868 7.82899ZM5.44541 10.8234C4.98588 10.5169 4.8617 9.8956 5.16806 9.43577C8.41819 4.55738 15.582 4.55738 18.8322 9.43577C19.1385 9.8956 19.0143 10.5169 18.5548 10.8234C18.0953 11.13 17.4744 11.0057 17.1681 10.5459C14.7096 6.85575 9.29065 6.85575 6.83216 10.5459C6.5258 11.0057 5.90493 11.13 5.44541 10.8234ZM13 13.9935C13 14.5456 12.553 14.9934 12.0014 14.9941L12 14.9941L11.9986 14.9941C11.447 14.9934 11 14.5456 11 13.9935C11 13.4408 11.4477 12.9928 12 12.9928C12.5523 12.9928 13 13.4408 13 13.9935ZM15 13.9935C15 15.3005 14.1652 16.4125 13 16.8246V21.9987H16C16.5523 21.9987 17 22.4467 17 22.9993C17 23.552 16.5523 24 16 24H13H11H8C7.44772 24 7 23.552 7 22.9993C7 22.4467 7.44771 21.9987 8 21.9987H11V16.8246C9.83481 16.4125 9 15.3005 9 13.9935C9 12.3355 10.3431 10.9915 12 10.9915C13.6569 10.9915 15 12.3355 15 13.9935Z" fill="#262626"/>
</svg>
