<svg width="24" height="24" viewBox="0 0 24 24" fill="none" xmlns="http://www.w3.org/2000/svg">
<path fill-rule="evenodd" clip-rule="evenodd" d="M0.456863 7.82891C-0.00681404 7.52869 -0.139479 6.90918 0.160547 6.4452C5.71747 -2.1484 18.2825 -2.1484 23.8394 6.4452C24.1395 6.90918 24.0068 7.52869 23.5431 7.82891C23.0795 8.12913 22.4603 7.99638 22.1603 7.5324C17.3915 0.157586 6.60849 0.157586 1.83967 7.5324C1.53964 7.99638 0.92054 8.12913 0.456863 7.82891ZM5.44535 10.8233C4.98583 10.5168 4.86165 9.8955 5.168 9.43567C8.41811 4.55733 15.5819 4.55733 18.832 9.43567C19.1383 9.8955 19.0141 10.5168 18.5546 10.8233C18.0951 11.1299 17.4742 11.0056 17.1679 10.5458C14.7094 6.85568 9.29055 6.85568 6.83209 10.5458C6.52574 11.0056 5.90487 11.1299 5.44535 10.8233ZM12.9999 13.9933C12.9999 14.5455 12.5529 14.9932 12.0013 14.994L11.9999 14.994L11.9985 14.994C11.4468 14.9932 10.9999 14.5455 10.9999 13.9933C10.9999 13.4407 11.4476 12.9927 11.9999 12.9927C12.5522 12.9927 12.9999 13.4407 12.9999 13.9933ZM14.9998 13.9933C14.9998 15.3004 14.165 16.4123 12.9999 16.8244V21.9985H15.9998C16.5521 21.9985 16.9998 22.4465 16.9998 22.9991C16.9998 23.5518 16.5521 23.9998 15.9998 23.9998H12.9999H10.9999H7.99992C7.44764 23.9998 6.99993 23.5518 6.99993 22.9991C6.99993 22.4465 7.44764 21.9985 7.99992 21.9985H10.9999V16.8244C9.83471 16.4123 8.99991 15.3004 8.99991 13.9933C8.99991 12.3354 10.343 10.9914 11.9999 10.9914C13.6567 10.9914 14.9998 12.3354 14.9998 13.9933Z" fill="#262626"/>
</svg>
