<svg width="24" height="24" viewBox="0 0 24 24" fill="none" xmlns="http://www.w3.org/2000/svg">
<path fill-rule="evenodd" clip-rule="evenodd" d="M1.04932 9.73653C0.0776513 9.21047 -0.28426 7.99508 0.240964 7.02187C5.29376 -2.34062 18.7062 -2.34062 23.759 7.02187C24.2842 7.99508 23.9223 9.21047 22.9507 9.73652C21.979 10.2626 20.7655 9.9001 20.2403 8.92689C16.6995 2.36598 7.3005 2.36598 3.75967 8.92689C3.23445 9.9001 2.02098 10.2626 1.04932 9.73653ZM6.02888 12.7301C5.06334 12.1928 4.71547 10.9733 5.25188 10.0062C8.19306 4.70372 15.8069 4.70372 18.7481 10.0062C19.2845 10.9733 18.9366 12.1928 17.9711 12.7301C17.0055 13.2673 15.788 12.9189 15.2515 11.9518C13.8343 9.3968 10.1656 9.3968 8.74839 11.9518C8.21198 12.9189 6.99441 13.2673 6.02888 12.7301ZM14 13.9837C14 14.7251 13.5978 15.3725 13.0001 15.7188V21.9961H16C16.5522 21.9961 16.9999 22.4445 16.9999 22.9977C16.9999 23.5508 16.5522 23.9992 16 23.9992H13.0001H11.0001H8.00022C7.44796 23.9992 7.00026 23.5508 7.00026 22.9977C7.00026 22.4445 7.44796 21.9961 8.00022 21.9961H11.0001V15.7188C10.4023 15.3725 10.0002 14.7251 10.0002 13.9837C10.0002 12.8774 10.8956 11.9806 12.0001 11.9806C13.1046 11.9806 14 12.8774 14 13.9837Z" fill="#262626"/>
</svg>
