<svg width="25" height="25" viewBox="0 0 25 25" fill="none" xmlns="http://www.w3.org/2000/svg">
<path fill-rule="evenodd" clip-rule="evenodd" d="M12.3845 2.12476C10.5802 0.320465 8.06198 -0.333646 5.74305 0.158373C4.9647 0.32352 4.46033 0.90916 4.31832 1.57519C4.18154 2.21664 4.37807 2.91238 4.87694 3.41126L7.25463 5.78894L5.78894 7.25463L3.41126 4.87694C2.91238 4.37806 2.21664 4.18154 1.57519 4.31832C0.909158 4.46033 0.323519 4.9647 0.158373 5.74305C-0.333646 8.06198 0.320466 10.5802 2.12476 12.3845C4.07905 14.3388 6.86933 14.9438 9.34082 14.2042L18.03 23.6971C19.5727 25.3825 22.2096 25.4408 23.8252 23.8252C25.4408 22.2095 25.3826 19.5727 23.6972 18.03L14.2042 9.34074C14.9438 6.86927 14.3388 4.07903 12.3845 2.12476ZM8.72031 4.32326L6.52147 2.12442C8.0822 1.90267 9.72085 2.39243 10.9189 3.59045C12.4461 5.11773 12.8223 7.36304 12.0411 9.24451L11.7625 9.9157L22.2976 19.559C23.1121 20.3045 23.1402 21.5787 22.3595 22.3595C21.5788 23.1402 20.3045 23.1121 19.559 22.2976L9.91577 11.7624L9.24457 12.0411C7.36309 12.8223 5.11774 12.4462 3.59045 10.9189C2.39243 9.72085 1.90267 8.0822 2.12442 6.52147L4.32326 8.72031C5.13273 9.52978 6.44515 9.52978 7.25463 8.72031L8.72031 7.25463C9.52978 6.44515 9.52978 5.13273 8.72031 4.32326ZM20.8354 21.8718C21.4078 21.8718 21.8718 21.4078 21.8718 20.8354C21.8718 20.263 21.4078 19.799 20.8354 19.799C20.263 19.799 19.799 20.263 19.799 20.8354C19.799 21.4078 20.263 21.8718 20.8354 21.8718Z" fill="#262626"/>
</svg>
